<svg width="18" height="18" viewBox="0 0 18 18" fill="none" xmlns="http://www.w3.org/2000/svg">
<path d="M15.3074 5.22008V6.59258C15.3074 7.07258 15.0824 7.52258 14.6924 7.80008L6.44238 13.8451C5.90988 14.2351 5.18238 14.2351 4.65738 13.8376L3.57738 13.0276C3.08988 12.6601 2.69238 11.8651 2.69238 11.2576V5.22008C2.69238 4.38008 3.33738 3.45008 4.12488 3.15758L8.22738 1.62008C8.65488 1.46258 9.34488 1.46258 9.77238 1.62008L13.8749 3.15758C14.6624 3.45008 15.3074 4.38008 15.3074 5.22008Z" fill="url(#paint0_linear_35_22558)"/>
<path d="M14.115 9.25507C14.61 8.89507 15.3075 9.24757 15.3075 9.86257V11.2726C15.3075 11.8801 14.91 12.6676 14.4225 13.0351L10.32 16.1026C9.95996 16.3651 9.47996 16.5001 8.99996 16.5001C8.51996 16.5001 8.03996 16.3651 7.67996 16.0951L7.05746 15.6301C6.65246 15.3301 6.65246 14.7226 7.06496 14.4226L14.115 9.25507Z" fill="url(#paint1_linear_35_22558)"/>
<defs>
<linearGradient id="paint0_linear_35_22558" x1="0.760107" y1="1.94373" x2="11.8333" y2="17.2315" gradientUnits="userSpaceOnUse">
<stop stop-color="#E63126"/>
<stop offset="1" stop-color="#7A140E"/>
</linearGradient>
<linearGradient id="paint1_linear_35_22558" x1="5.44458" y1="9.36873" x2="11.5708" y2="19.1732" gradientUnits="userSpaceOnUse">
<stop stop-color="#E63126"/>
<stop offset="1" stop-color="#7A140E"/>
</linearGradient>
</defs>
</svg>
