<svg width="18" height="18" viewBox="0 0 18 18" fill="none" xmlns="http://www.w3.org/2000/svg">
<path d="M16.5 4.28213V11.4671C16.5 13.5371 14.82 15.2171 12.75 15.2171H5.24999C4.90499 15.2171 4.57499 15.1721 4.25249 15.0821C3.78749 14.9546 3.63749 14.3621 3.98249 14.0171L11.955 6.04463C12.12 5.87963 12.3675 5.84213 12.6 5.88713C12.84 5.93213 13.1025 5.86463 13.29 5.68463L15.2175 3.74963C15.9225 3.04463 16.5 3.27713 16.5 4.28213Z" fill="url(#paint0_linear_35_22858)"/>
<path d="M10.98 5.51965L3.1275 13.3721C2.7675 13.7321 2.1675 13.6421 1.9275 13.1921C1.65 12.6821 1.5 12.0896 1.5 11.4671V4.28215C1.5 3.27715 2.0775 3.04465 2.7825 3.74965L4.7175 5.69215C5.01 5.97715 5.49 5.97715 5.7825 5.69215L8.4675 2.99965C8.76 2.70715 9.24 2.70715 9.5325 2.99965L10.9875 4.45465C11.2725 4.74715 11.2725 5.22715 10.98 5.51965Z" fill="url(#paint1_linear_35_22858)"/>
<defs>
<linearGradient id="paint0_linear_35_22858" x1="3.44682" y1="3.24083" x2="15.7764" y2="16.4167" gradientUnits="userSpaceOnUse">
<stop stop-color="#2F2E3C"/>
<stop offset="1" stop-color="#0E0D12"/>
</linearGradient>
<linearGradient id="paint1_linear_35_22858" x1="1.23518" y1="2.68744" x2="12.4207" y2="12.7078" gradientUnits="userSpaceOnUse">
<stop stop-color="#2F2E3C"/>
<stop offset="1" stop-color="#0E0D12"/>
</linearGradient>
</defs>
</svg>
