<svg width="18" height="18" viewBox="0 0 18 18" fill="none" xmlns="http://www.w3.org/2000/svg">
<path d="M12.75 16.5H5.25C4.9425 16.5 4.6875 16.245 4.6875 15.9375C4.6875 15.63 4.9425 15.375 5.25 15.375H12.75C13.0575 15.375 13.3125 15.63 13.3125 15.9375C13.3125 16.245 13.0575 16.5 12.75 16.5Z" fill="url(#paint0_linear_35_22678)"/>
<path d="M15.2624 4.14027L12.2624 6.28527C11.8649 6.57027 11.2949 6.39777 11.1224 5.94027L9.70492 2.16027C9.46492 1.50777 8.54242 1.50777 8.30242 2.16027L6.87742 5.93277C6.70492 6.39777 6.14242 6.57027 5.74492 6.27777L2.74492 4.13277C2.14492 3.71277 1.34992 4.30527 1.59742 5.00277L4.71742 13.7403C4.82242 14.0403 5.10742 14.2353 5.42242 14.2353H12.5699C12.8849 14.2353 13.1699 14.0328 13.2749 13.7403L16.3949 5.00277C16.6499 4.30527 15.8549 3.71277 15.2624 4.14027ZM10.8749 11.0628H7.12492C6.81742 11.0628 6.56242 10.8078 6.56242 10.5003C6.56242 10.1928 6.81742 9.93777 7.12492 9.93777H10.8749C11.1824 9.93777 11.4374 10.1928 11.4374 10.5003C11.4374 10.8078 11.1824 11.0628 10.8749 11.0628Z" fill="url(#paint1_linear_35_22678)"/>
<defs>
<linearGradient id="paint0_linear_35_22678" x1="3.36638" y1="15.4143" x2="3.56043" y2="17.4714" gradientUnits="userSpaceOnUse">
<stop stop-color="#E63126"/>
<stop offset="1" stop-color="#7A140E"/>
</linearGradient>
<linearGradient id="paint1_linear_35_22678" x1="-0.730158" y1="2.11021" x2="9.57533" y2="19.0012" gradientUnits="userSpaceOnUse">
<stop stop-color="#E63126"/>
<stop offset="1" stop-color="#7A140E"/>
</linearGradient>
</defs>
</svg>
