<svg width="8" height="8" viewBox="0 0 8 8" fill="none" xmlns="http://www.w3.org/2000/svg">
<path d="M6.46171 3.3554L3.96091 0.868164L1.46011 3.3554C1.14751 3.6663 0.991211 4.05493 0.991211 4.44356C0.991211 5.29854 1.69456 6.0758 2.63236 6.0758C3.02311 6.0758 3.41386 5.92035 3.72646 5.68717V5.84263C3.72646 6.30898 3.33571 6.69761 2.86681 6.77534C2.86681 6.77534 2.78866 6.77534 2.78866 6.85306V6.93079C2.78866 7.00851 2.78866 7.00851 2.86681 7.00851H5.21131C5.28946 7.00851 5.28946 6.93079 5.28946 6.93079V6.85306C5.13316 6.77534 5.13316 6.77534 5.13316 6.77534C4.66426 6.77534 4.27351 6.30898 4.27351 5.84263V5.68717C4.58611 5.92035 4.89871 6.0758 5.36761 6.0758C6.22726 6.0758 7.00875 5.37627 7.00875 4.44356C6.9306 4.05493 6.7743 3.6663 6.46171 3.3554Z" fill="#131217"/>
</svg>
