<svg width="18" height="18" viewBox="0 0 18 18" fill="none" xmlns="http://www.w3.org/2000/svg">
<path d="M13.4342 7.20961C11.7843 7.20961 10.3406 8.02989 9.72186 9.46536V9.05523C9.72186 8.64509 9.92809 8.23495 10.3406 8.23495C11.7843 7.61975 13.0217 6.18427 13.0217 4.54372C13.0217 2.49304 11.3718 0.647428 9.30937 0.647428C7.04073 0.442359 5.18456 2.28797 5.18456 4.54372C4.97832 6.18427 6.21577 7.61975 7.65945 8.23495C8.07193 8.44002 8.27817 8.64509 8.27817 9.05523V9.46536C7.65945 8.02989 6.21577 7.20961 4.56584 7.20961C2.50344 7.20961 0.853513 8.85016 0.647272 10.9008C0.441032 13.1566 2.2972 15.0022 4.56584 15.0022C6.21577 15.0022 7.45321 14.1819 8.07193 12.7465V13.9769C8.07193 15.2073 7.04073 16.4377 5.80328 16.4377C5.80328 16.4377 5.59705 16.4377 5.59705 16.6428V16.8478C5.59705 17.0529 5.59704 17.0529 5.80328 17.0529H12.1967C12.403 17.0529 12.403 16.8478 12.403 16.8478V16.6428L12.1967 16.4377C10.9593 16.4377 9.92809 15.2073 9.92809 13.9769V12.7465C10.5468 13.9769 11.9905 15.0022 13.4342 15.0022C15.7028 15.0022 17.559 13.1566 17.3528 10.9008C17.1465 8.85016 15.4966 7.20961 13.4342 7.20961Z" fill="url(#paint0_linear_35_21400)"/>
<defs>
<linearGradient id="paint0_linear_35_21400" x1="0.174675" y1="0.490862" x2="17.2601" y2="17.8818" gradientUnits="userSpaceOnUse">
<stop stop-color="#2F2E3C"/>
<stop offset="1" stop-color="#0E0D12"/>
</linearGradient>
</defs>
</svg>
