<svg width="18" height="18" viewBox="0 0 18 18" fill="none" xmlns="http://www.w3.org/2000/svg">
<path d="M15.3302 7.343L8.89955 0.947266L2.46893 7.343C1.6651 8.14247 1.26318 9.1418 1.26318 10.1411C1.26318 12.3397 3.0718 14.3383 5.48328 14.3383C6.48806 14.3383 7.49285 13.9386 8.29668 13.339V13.7387C8.29668 14.9379 7.29189 15.9373 6.08615 16.1371C6.08615 16.1371 5.88519 16.1371 5.88519 16.337V16.5369C5.88519 16.7367 5.88519 16.7367 6.08615 16.7367H12.1149C12.3158 16.7367 12.3158 16.5369 12.3158 16.5369V16.337C11.9139 16.1371 11.9139 16.1371 11.9139 16.1371C10.7082 16.1371 9.70337 14.9379 9.70337 13.7387V13.339C10.5072 13.9386 11.311 14.3383 12.5168 14.3383C14.7273 14.3383 16.7369 12.5395 16.7369 10.1411C16.5359 9.1418 16.134 8.14247 15.3302 7.343Z" fill="url(#paint0_linear_35_21541)"/>
<defs>
<linearGradient id="paint0_linear_35_21541" x1="0.840751" y1="0.811714" x2="17.2679" y2="16.8889" gradientUnits="userSpaceOnUse">
<stop stop-color="#2F2E3C"/>
<stop offset="1" stop-color="#0E0D12"/>
</linearGradient>
</defs>
</svg>
