<svg width="8" height="8" viewBox="0 0 8 8" fill="none" xmlns="http://www.w3.org/2000/svg">
<path d="M5.72439 3.30412C5.08275 3.30412 4.52132 3.62311 4.28071 4.18135V4.02186C4.28071 3.86236 4.36091 3.70286 4.52132 3.70286C5.08275 3.46362 5.56398 2.90537 5.56398 2.26738C5.56398 1.4699 4.92234 0.752157 4.1203 0.752157C3.23805 0.672408 2.51621 1.39015 2.51621 2.26738C2.436 2.90537 2.91723 3.46362 3.47866 3.70286C3.63907 3.78261 3.71927 3.86236 3.71927 4.02186V4.18135C3.47866 3.62311 2.91723 3.30412 2.27559 3.30412C1.47355 3.30412 0.831908 3.94211 0.751704 4.7396C0.671499 5.61683 1.39334 6.33457 2.27559 6.33457C2.91723 6.33457 3.39846 6.01558 3.63907 5.45733V5.93583C3.63907 6.41432 3.23805 6.89281 2.75682 6.89281C2.75682 6.89281 2.67662 6.89281 2.67662 6.97256V7.05231C2.67662 7.13206 2.67661 7.13206 2.75682 7.13206H5.24316C5.32337 7.13206 5.32337 7.05231 5.32337 7.05231V6.97256L5.24316 6.89281C4.76194 6.89281 4.36091 6.41432 4.36091 5.93583V5.45733C4.60152 5.93583 5.16296 6.33457 5.72439 6.33457C6.60664 6.33457 7.32848 5.61683 7.24828 4.7396C7.16807 3.94211 6.52644 3.30412 5.72439 3.30412Z" fill="#131217"/>
</svg>
