<svg width="75" height="23" viewBox="0 0 75 23" fill="none" xmlns="http://www.w3.org/2000/svg">
<path d="M14.8451 7.43894C14.7266 6.99993 14.5524 6.61318 14.3225 6.2787C14.0925 5.93725 13.8103 5.64806 13.4758 5.41113C13.1413 5.1742 12.7581 4.99651 12.326 4.87804C11.894 4.75261 11.4201 4.6899 10.9044 4.6899C9.86615 4.6899 8.96723 4.94076 8.20766 5.44249C7.45507 5.94421 6.87321 6.6759 6.46207 7.63754C6.05093 8.59222 5.84536 9.75247 5.84536 11.1183C5.84536 12.4911 6.04396 13.6618 6.44117 14.6304C6.83837 15.599 7.41326 16.3376 8.16585 16.8463C8.91845 17.355 9.83131 17.6094 10.9044 17.6094C11.8522 17.6094 12.6535 17.4561 13.3086 17.1495C13.9706 16.8359 14.4723 16.3934 14.8137 15.822C15.1552 15.2506 15.3259 14.5781 15.3259 13.8046L16.2876 13.9196H11.0821V10.1462H20.3118V12.9789C20.3118 14.8952 19.9042 16.5362 19.0889 17.9021C18.2805 19.2679 17.1656 20.3166 15.744 21.0483C14.3294 21.78 12.7023 22.1458 10.8626 22.1458C8.82089 22.1458 7.02651 21.7033 5.47952 20.8183C3.93253 19.9334 2.72699 18.6721 1.8629 17.0345C0.998816 15.3899 0.566772 13.4388 0.566772 11.181C0.566772 9.42495 0.828089 7.8675 1.35072 6.50866C1.87335 5.14284 2.60156 3.98608 3.53533 3.03838C4.47607 2.09067 5.56314 1.37292 6.79656 0.885128C8.03694 0.397338 9.37139 0.153442 10.7999 0.153442C12.0403 0.153442 13.1936 0.331138 14.2598 0.686528C15.3329 1.04192 16.2806 1.54365 17.1029 2.19171C17.9321 2.83978 18.6046 3.60979 19.1202 4.50175C19.6359 5.39371 19.9565 6.37277 20.0819 7.43894H14.8451Z" fill="white"/>
<path d="M26.8874 22.1249C25.863 22.1249 24.9537 21.9542 24.1593 21.6127C23.3718 21.2643 22.7482 20.7417 22.2882 20.0448C21.8353 19.341 21.6088 18.4595 21.6088 17.4003C21.6088 16.5084 21.7656 15.7558 22.0792 15.1426C22.3928 14.5293 22.8248 14.0311 23.3753 13.6478C23.9258 13.2646 24.5599 12.9754 25.2777 12.7803C25.9954 12.5782 26.762 12.4423 27.5773 12.3726C28.4901 12.289 29.2253 12.2019 29.7828 12.1113C30.3403 12.0137 30.7444 11.8778 30.9953 11.7036C31.2531 11.5224 31.382 11.2681 31.382 10.9406V10.8883C31.382 10.3518 31.1974 9.93713 30.8281 9.64445C30.4587 9.35178 29.9605 9.20544 29.3333 9.20544C28.6574 9.20544 28.1139 9.35178 27.7027 9.64445C27.2916 9.93713 27.0303 10.3413 26.9188 10.857L22.2046 10.6897C22.344 9.71414 22.7029 8.84308 23.2812 8.07656C23.8666 7.30306 24.668 6.69681 25.6854 6.25779C26.7097 5.81181 27.9396 5.58882 29.3751 5.58882C30.3995 5.58882 31.3437 5.71077 32.2078 5.95467C33.0719 6.19159 33.8245 6.54002 34.4656 6.99993C35.1067 7.45288 35.6014 8.01036 35.9499 8.67236C36.3052 9.33436 36.4829 10.0904 36.4829 10.9406V21.8532H31.6747V19.6163H31.5493C31.2636 20.1598 30.8977 20.6197 30.4518 20.996C30.0127 21.3723 29.4936 21.6546 28.8943 21.8427C28.302 22.0309 27.633 22.1249 26.8874 22.1249ZM28.4658 18.7801C29.0163 18.7801 29.511 18.6686 29.95 18.4456C30.396 18.2226 30.7514 17.916 31.0162 17.5258C31.281 17.1286 31.4134 16.6686 31.4134 16.146V14.6199C31.2671 14.6966 31.0894 14.7663 30.8803 14.829C30.6782 14.8917 30.4552 14.9509 30.2114 15.0067C29.9675 15.0624 29.7166 15.1112 29.4588 15.153C29.2009 15.1948 28.9535 15.2331 28.7166 15.268C28.2358 15.3446 27.8247 15.4631 27.4832 15.6234C27.1487 15.7836 26.8909 15.9927 26.7097 16.2505C26.5355 16.5014 26.4484 16.801 26.4484 17.1495C26.4484 17.6791 26.6365 18.0832 27.0128 18.362C27.3961 18.6407 27.8804 18.7801 28.4658 18.7801Z" fill="white"/>
<path d="M42.7196 0.446117V21.8532H37.6083V0.446117H42.7196Z" fill="white"/>
<path d="M42.7815 21.853V0.445923H57.7079V4.64789H47.9556V9.03801H56.9448V13.2504H47.9556V17.651H57.7079V21.853H42.7815Z" fill="#2BD071"/>
<path d="M64.2965 5.79768L66.941 11.0867L69.6796 5.79768H74.8328L70.3486 13.8253L75 21.853H69.8887L66.941 16.5221L64.0666 21.853H58.882L63.5439 13.8253L59.112 5.79768H64.2965Z" fill="#2BD071"/>
</svg>
