<svg width="0" height="0">
    <symbol fill="none" xmlns="http://www.w3.org/2000/svg" viewBox="0 0 30 31" id="twitter">
        <path d="M24 9.3473C23.3306 9.64846 22.6174 9.84807 21.8738 9.945C22.6388 9.47653 23.2226 8.74038 23.4971 7.85307C22.7839 8.28923 21.9964 8.5973 21.1571 8.76923C20.4799 8.02961 19.5146 7.57153 18.4616 7.57153C16.4186 7.57153 14.7739 9.2723 14.7739 11.3573C14.7739 11.6573 14.7986 11.9458 14.8594 12.2204C11.7915 12.0669 9.07687 10.5588 7.25325 8.26153C6.93487 8.82807 6.74813 9.47653 6.74813 10.1746C6.74813 11.4854 7.40625 12.6473 8.38725 13.32C7.79438 13.3085 7.21275 13.1319 6.72 12.8538C6.72 12.8654 6.72 12.8804 6.72 12.8954C6.72 14.7346 7.99912 16.2623 9.6765 16.6142C9.37612 16.6985 9.04875 16.7388 8.709 16.7388C8.47275 16.7388 8.23425 16.725 8.01037 16.6742C8.4885 18.1731 9.84525 19.275 11.4585 19.3108C10.203 20.3181 8.60887 20.925 6.88312 20.925C6.5805 20.925 6.29025 20.9111 6 20.8731C7.63462 21.9542 9.57188 22.5715 11.661 22.5715C18.4515 22.5715 22.164 16.8023 22.164 11.8015C22.164 11.6342 22.1584 11.4727 22.1505 11.3123C22.8829 10.7792 23.4982 10.1135 24 9.3473Z"
              fill="currentColor"/>
    </symbol>
    <symbol fill="none" xmlns="http://www.w3.org/2000/svg" viewBox="0 0 30 31" id="discord">
        <path d="M9.40635 19.2804C13.7559 21.0123 17.4573 21.3496 21.6518 18.6539C21.6211 18.7009 20.7913 19.9551 18.6094 20.5979C19.0704 21.2407 19.7004 21.9775 19.7004 21.9775C21.0987 21.9775 22.4662 21.5699 23.6493 20.786C24.5712 20.1589 25.0936 19.0771 24.9861 17.9484C24.8017 16.02 24.3561 14.1387 23.6647 12.3359C22.7888 9.98423 20.6838 8.35377 18.2407 8.1186C18.0256 8.10291 17.8719 8.10291 17.7797 8.10291L17.5339 8.35373C20.3458 9.16898 21.744 10.4388 21.7748 10.4859C17.457 8.25968 12.3557 8.22834 8.00729 10.3918C8.00729 10.3918 9.39018 8.99652 12.4479 8.25968L12.2635 8.07153C11.9408 8.07153 11.6335 8.10291 11.3108 8.14989C9.05213 8.54183 7.16218 10.1253 6.34782 12.3045C5.64098 14.1857 5.18004 16.1611 5.01102 18.1678C4.91884 19.2339 5.41053 20.2843 6.27098 20.8957C7.408 21.6639 8.76018 22.0715 10.1277 22.0715C10.1277 22.0715 10.6808 21.3347 11.234 20.6762C9.15969 20.0491 8.31458 18.7949 8.2992 18.7479L8.6896 18.9513C8.92298 19.073 9.16222 19.1832 9.40635 19.2804ZM11.8179 17.917C10.8192 17.8856 10.0355 17.0234 10.0663 15.9887C10.097 15.0167 10.8653 14.2328 11.8179 14.2014C12.8167 14.2328 13.6003 15.095 13.5696 16.1298C13.5235 17.1018 12.7706 17.8857 11.8179 17.917ZM18.087 17.917C17.0882 17.8856 16.3046 17.0234 16.3353 15.9887C16.3661 15.0167 17.1344 14.2328 18.087 14.2014C19.0858 14.2328 19.8694 15.095 19.8387 16.1298C19.808 17.1018 19.0396 17.8857 18.087 17.917Z"
              fill="currentColor"/>
    </symbol>
    <symbol fill="none" xmlns="http://www.w3.org/2000/svg" viewBox="0 0 30 31" id="github">
        <path d="M11.8965 24.0715C12.5201 24.0715 12.6964 23.8227 12.6964 23.5047C12.6964 23.1867 12.6964 22.4955 12.6828 21.5139C9.44267 22.219 8.75127 19.9379 8.75127 19.9379C8.22253 18.5969 7.4498 18.2236 7.4498 18.2236C6.39231 17.5047 7.53113 17.5185 7.53113 17.5185C8.69704 17.6015 9.32066 18.7213 9.32066 18.7213C10.3646 20.5186 12.0456 19.9932 12.7099 19.689C12.7642 19.0946 13.0217 18.5278 13.4556 18.113C10.8662 17.8227 8.1412 16.8135 8.1412 12.3342C8.12765 11.1729 8.56148 10.0393 9.34775 9.19599C9.21219 8.90565 8.81905 7.7167 9.44267 6.09918C9.44267 6.09918 10.4188 5.78121 12.6557 7.30198C14.5672 6.77661 16.5736 6.77661 18.4852 7.30198C20.695 5.79507 21.6847 6.09918 21.6847 6.09918C22.3083 7.70289 21.9151 8.89183 21.8067 9.19599C22.593 10.0393 23.0133 11.1729 22.9997 12.3342C22.9997 16.8273 20.2747 17.8088 17.6718 18.0992C18.0785 18.4448 18.4581 19.1637 18.4581 20.2559C18.4581 21.8319 18.4446 23.0761 18.4446 23.4494C18.4446 23.7536 18.5801 24.0024 19.2444 24.0024L11.8965 24.0715Z"
              fill="currentColor"/>
    </symbol>
    <symbol fill="none" xmlns="http://www.w3.org/2000/svg" viewBox="0 0 30 31" id="medium">
        <path d="M16.5374 15.0717C16.5374 18.9376 13.5069 22.0715 9.76885 22.0715C6.03072 22.0715 3 18.9369 3 15.0717C3 11.2064 6.03051 8.07153 9.76885 8.07153C13.5071 8.07153 16.5374 11.2057 16.5374 15.0717ZM23.9628 15.0717C23.9628 18.7106 22.4476 21.6617 20.5784 21.6617C18.7092 21.6617 17.194 18.7106 17.194 15.0717C17.194 11.4327 18.709 8.48156 20.5782 8.48156C22.4474 8.48156 23.9626 11.4318 23.9626 15.0717H23.9628ZM27 15.0717C27 18.3313 26.4671 20.9753 25.8097 20.9753C25.1522 20.9753 24.6196 18.3319 24.6196 15.0717C24.6196 11.8113 25.1524 9.168 25.8097 9.168C26.4669 9.168 27 11.8111 27 15.0717Z"
              fill="currentColor"/>
    </symbol>

    <symbol fill="none" xmlns="http://www.w3.org/2000/svg" viewBox="0 0 92 60" id="vara-logo">
        <g clip-path="url(#clip0_11_1755)">
            <path d="M17.9287 22.1352L12.0764 0H7.94296L17.9287 37.7691V52.1831L4.13341 0H0L15.862 60H17.9287H19.9941H22.0608V0H17.9287V22.1352Z"
                  fill="currentColor"/>
            <path d="M91.4937 60L75.6318 0H73.5651H71.4983H69.4316V59.9987H73.5651L84.4745 49.0843L87.3603 59.9987H91.4937V60ZM80.8073 35.2084L73.5663 42.4494V7.81694L80.8073 35.2084ZM73.5651 54.1502V48.2941L82.0285 39.8307L83.2534 44.4619L73.5651 54.1502Z"
                  fill="currentColor"/>
            <path d="M30.7689 0H28.7022H26.6355V59.9987H30.7689L41.6783 49.0843L44.5642 59.9987H48.6976L32.8344 0H30.7689ZM38.0099 35.2083L30.7689 42.4494V7.81694L38.0099 35.2083ZM30.7689 54.1502V48.2941L39.2323 39.8307L40.4572 44.4619L30.7689 54.1502Z"
                  fill="currentColor"/>
            <path d="M65.8568 37.0722L56.0563 0H53.9896H51.9229H49.8562V59.9987H53.9896V48.8725L57.7866 45.0756L61.7322 59.9987L65.8568 59.9685L61.0555 41.8067L62.574 40.2882L65.8568 37.0722ZM53.9896 43.0278V7.81694L61.3516 35.6658L53.9896 43.0278Z"
                  fill="currentColor"/>
        </g>
        <defs>
            <clipPath id="clip0_11_1755">
                <rect width="91.6667" height="60" fill="white"/>
            </clipPath>
        </defs>
    </symbol>
    <symbol fill="none" xmlns="http://www.w3.org/2000/svg" viewBox="0 0 24 25" id="vara-coin">
        <g clip-path="url(#clip0_501_3544)">
            <path d="M24 12.1428C24 5.5154 18.6274 0.142822 12 0.142822C5.37258 0.142822 0 5.5154 0 12.1428C0 18.7702 5.37258 24.1428 12 24.1428C18.6274 24.1428 24 18.7702 24 12.1428Z"
                  fill="#00FFC4"/>
            <path d="M15.158 10.5773L12.1687 6.14282H10.0573L15.158 13.7092V16.5968L8.11133 6.14282H6L14.1024 18.1628H15.158H16.213H17.2687V6.14282H15.158V10.5773Z"
                  fill="black"/>
        </g>
        <defs>
            <clipPath id="clip0_501_3544">
                <rect width="24" height="24" fill="white" transform="translate(0 0.142822)"/>
            </clipPath>
        </defs>
    </symbol>
    <symbol fill="none" xmlns="http://www.w3.org/2000/svg" viewBox="0 0 20 20" id="tvara-coin">
        <g clip-path="url(#clip0_323_4990)">
            <mask id="mask0_323_4990" maskUnits="userSpaceOnUse" x="0" y="0" width="20" height="20">
                <path d="M19.9999 10.0002C19.9999 4.6447 15.6584 0.303223 10.3029 0.303223C4.94744 0.303223 0.605957 4.6447 0.605957 10.0002C0.605957 15.3557 4.94744 19.6972 10.3029 19.6972C15.6584 19.6972 19.9999 15.3557 19.9999 10.0002Z"
                      fill="white"/>
            </mask>
            <g mask="url(#mask0_323_4990)">
                <path d="M19.9999 10.0002C19.9999 4.6447 15.6584 0.303223 10.3029 0.303223C4.94744 0.303223 0.605957 4.6447 0.605957 10.0002C0.605957 15.3557 4.94744 19.6972 10.3029 19.6972C15.6584 19.6972 19.9999 15.3557 19.9999 10.0002Z"
                      fill="black"/>
                <path d="M10.4888 17.0221C14.2702 17.0221 17.3356 13.9568 17.3356 10.1754C17.3356 6.39403 14.2702 3.32861 10.4888 3.32861C6.7075 3.32861 3.64209 6.39403 3.64209 10.1754C3.64209 13.9568 6.7075 17.0221 10.4888 17.0221Z"
                      fill="white"/>
                <path d="M15.7676 15.3569C18.7261 12.3984 18.7261 7.60173 15.7676 4.64321C12.809 1.68469 8.01237 1.68469 5.05385 4.64321C2.09533 7.60173 2.09533 12.3984 5.05385 15.3569C8.01237 18.3154 12.809 18.3154 15.7676 15.3569Z"
                      fill="white"/>
                <path d="M2.61607 10.372C2.61592 9.04024 3.00421 7.73739 3.73337 6.62303C4.46254 5.50862 5.50092 4.63111 6.72128 4.09799C7.94171 3.56488 9.29104 3.3993 10.6041 3.62154C11.9172 3.84379 13.1369 4.4442 14.1139 5.34924C13.4883 4.67277 12.7324 4.12959 11.8918 3.75224C11.0512 3.37488 10.143 3.17111 9.22177 3.15316C8.3005 3.13519 7.38504 3.30341 6.53036 3.64771C5.67567 3.99202 4.89928 4.50534 4.24772 5.1569C3.59616 5.80845 3.08285 6.58485 2.73854 7.43958C2.39423 8.29424 2.22602 9.20964 2.24398 10.1309C2.26194 11.0522 2.4657 11.9604 2.84306 12.801C3.22042 13.6416 3.7636 14.3974 4.44005 15.0231C3.26556 13.7593 2.61378 12.0973 2.61607 10.372Z"
                      fill="black"/>
                <path d="M12.4598 9.28232L10.4641 6.32178H9.05443L12.4598 11.3733V13.3011L7.75528 6.32178H6.3457L11.755 14.3466H12.4598H13.1642H13.869V6.32178H12.4598V9.28232Z"
                      fill="black"/>
            </g>
        </g>
        <defs>
            <clipPath id="clip0_323_4990">
                <rect width="19.3939" height="20" fill="white" transform="translate(0.605957)"/>
            </clipPath>
        </defs>
    </symbol>
    <symbol fill="none" xmlns="http://www.w3.org/2000/svg" viewBox="0 0 20 20" id="points-coin">
        <path d="M9.99 0C4.47 0 0 4.48 0 10C0 15.52 4.47 20 9.99 20C15.52 20 20 15.52 20 10C20 4.48 15.52 0 9.99 0Z"
              fill="#00FFC4"/>
        <path d="M12.7832 14.6729L10.0998 13.0563L7.41651 14.6729C7.09985 14.8646 6.70818 14.5813 6.79151 14.2229L7.49985 11.1729L5.14151 9.13125C4.86651 8.88958 5.01651 8.43125 5.38318 8.39792L8.49985 8.13125L9.71651 5.25625C9.85818 4.91458 10.3415 4.91458 10.4832 5.25625L11.6998 8.12292L14.8165 8.38958C15.1832 8.42292 15.3332 8.88125 15.0498 9.12292L12.6915 11.1646L13.3998 14.2229C13.4832 14.5813 13.0998 14.8646 12.7832 14.6729V14.6729Z"
              fill="currentColor"/>
    </symbol>

    <symbol fill="none" xmlns="http://www.w3.org/2000/svg" viewBox="0 0 25 24" id="close">
        <path d="M18.8057 5.25L5.30566 18.75" stroke="currentColor" stroke-width="2" stroke-linecap="round"
              stroke-linejoin="round"/>
        <path d="M18.8057 18.75L5.30566 5.25" stroke="currentColor" stroke-width="2" stroke-linecap="round"
              stroke-linejoin="round"/>
    </symbol>
    <symbol fill="none" xmlns="http://www.w3.org/2000/svg" viewBox="0 0 16 16" id="copy">
        <path d="M10.5669 2.43333H12.2385C12.3831 2.43333 12.5003 2.31613 12.5003 2.17153V0.8C12.5003 0.358167 12.1421 0 11.7003 0H4.13359C3.98633 0 3.86693 0.1194 3.86693 0.266667V2.63333C3.86693 3.07517 3.50876 3.43333 3.06693 3.43333H0.70026C0.552994 3.43333 0.433594 3.55273 0.433594 3.7V15.2C0.433594 15.6418 0.79176 16 1.23359 16H11.7003C12.1421 16 12.5003 15.6418 12.5003 15.2V14.9691C12.5003 14.8414 12.4077 14.7348 12.2822 14.7109C12.0292 14.6627 11.8023 14.5441 11.6216 14.375L11.0823 13.8693C10.8183 13.622 10.6669 13.2723 10.6669 12.9103V9.174C10.6669 9.04267 10.5697 8.93223 10.4396 8.9145C9.97636 8.85137 8.96693 8.57303 8.96693 7.33333V4.03333C8.96693 3.14967 9.68326 2.43333 10.5669 2.43333ZM3.13359 13.3333C3.13359 13.4807 3.01426 13.6 2.86693 13.6C2.71959 13.6 2.60026 13.4807 2.60026 13.3333V11.348L2.45393 11.4513C2.33359 11.536 2.16726 11.5073 2.08226 11.387C1.99759 11.2667 2.02626 11.1003 2.14659 11.0153L2.71326 10.6153C2.88996 10.4908 3.13359 10.618 3.13359 10.8333V13.3333ZM3.25026 9.53333C2.67126 9.53333 2.20026 9.06233 2.20026 8.48333V7.55C2.20026 6.971 2.67126 6.5 3.25026 6.5C3.82926 6.5 4.30026 6.971 4.30026 7.55V8.48333C4.30026 9.06233 3.82926 9.53333 3.25026 9.53333ZM6.16693 12.55C6.16693 13.129 5.69593 13.6 5.11693 13.6C4.53793 13.6 4.06693 13.129 4.06693 12.55V11.6167C4.06693 11.0377 4.53793 10.5667 5.11693 10.5667C5.69593 10.5667 6.16693 11.0377 6.16693 11.6167V12.55ZM6.16693 9.26667C6.16693 9.414 6.04759 9.53333 5.90026 9.53333C5.75293 9.53333 5.63359 9.414 5.63359 9.26667V7.28133L5.48726 7.38467C5.36693 7.46933 5.20059 7.44067 5.11559 7.32033C5.03093 7.2 5.05959 7.03367 5.17993 6.94867L5.74659 6.54867C5.92329 6.4241 6.16693 6.55137 6.16693 6.76667V9.26667ZM8.16693 13.3333C8.16693 13.4807 8.0476 13.6 7.90026 13.6C7.75293 13.6 7.63359 13.4807 7.63359 13.3333V11.348L7.48726 11.4513C7.36693 11.536 7.20059 11.5073 7.11559 11.387C7.03093 11.2667 7.05959 11.1003 7.17993 11.0153L7.74659 10.6153C7.9233 10.4908 8.16693 10.618 8.16693 10.8333V13.3333ZM8.16693 9.26667C8.16693 9.414 8.0476 9.53333 7.90026 9.53333C7.75293 9.53333 7.63359 9.414 7.63359 9.26667V7.28133L7.48726 7.38467C7.36693 7.46933 7.20059 7.44067 7.11559 7.32033C7.03093 7.2 7.05959 7.03367 7.17993 6.94867L7.74659 6.54867C7.9233 6.4241 8.16693 6.55137 8.16693 6.76667V9.26667ZM8.16693 4.41667C8.16693 4.99567 7.69593 5.46667 7.11693 5.46667C6.53793 5.46667 6.06693 4.99567 6.06693 4.41667V3.48333C6.06693 2.90433 6.53793 2.43333 7.11693 2.43333C7.69593 2.43333 8.16693 2.90433 8.16693 3.48333V4.41667Z"
              fill="currentColor"/>
        <path d="M3.33304 0.477359V2.63279C3.33304 2.78006 3.21364 2.89946 3.06637 2.89946H0.910938C0.792138 2.89946 0.732672 2.75583 0.816672 2.67186L3.10544 0.383093C3.18941 0.299059 3.33304 0.358559 3.33304 0.477359Z"
              fill="currentColor"/>
        <path d="M3.76771 7.54987V8.4832C3.76771 8.7682 3.53604 8.99987 3.25104 8.99987C2.96604 8.99987 2.73438 8.7682 2.73438 8.4832V7.54987C2.73438 7.26487 2.96604 7.0332 3.25104 7.0332C3.53604 7.0332 3.76771 7.26487 3.76771 7.54987Z"
              fill="currentColor"/>
        <path d="M5.63294 11.6163V12.5496C5.63294 12.8346 5.40128 13.0663 5.11628 13.0663C4.83128 13.0663 4.59961 12.8346 4.59961 12.5496V11.6163C4.59961 11.3313 4.83128 11.0996 5.11628 11.0996C5.40128 11.0996 5.63294 11.3313 5.63294 11.6163Z"
              fill="currentColor"/>
        <path d="M7.63294 3.48346V4.4168C7.63294 4.7018 7.40128 4.93346 7.11628 4.93346C6.83128 4.93346 6.59961 4.7018 6.59961 4.4168V3.48346C6.59961 3.19846 6.83128 2.9668 7.11628 2.9668C7.40128 2.9668 7.63294 3.19846 7.63294 3.48346Z"
              fill="currentColor"/>
        <path d="M14.5 2.9668H10.5667C9.97867 2.9668 9.5 3.44513 9.5 4.03346V7.33346C9.5 7.9218 9.97867 8.40013 10.5667 8.40013H11.2V12.9105C11.2 13.1258 11.29 13.3335 11.447 13.4805L11.986 13.9861C12.2919 14.2722 12.7715 14.2752 13.0807 13.9861L13.5847 13.5135C13.8523 13.2625 13.9113 12.8688 13.7287 12.5561L13.585 12.3091C13.498 12.1598 13.498 11.9738 13.585 11.8245L13.7287 11.5775C13.9123 11.2625 13.9123 10.8711 13.7287 10.5561L13.585 10.3091C13.498 10.1598 13.4981 9.97383 13.585 9.82446C13.7405 9.55733 13.8667 9.38476 13.8667 9.0668V8.40013H14.5C15.088 8.40013 15.5667 7.9218 15.5667 7.33346V4.03346C15.5667 3.44513 15.088 2.9668 14.5 2.9668ZM13.6 5.13346H11.4667C11.3193 5.13346 11.2 5.01413 11.2 4.8668C11.2 4.71946 11.3193 4.60013 11.4667 4.60013H13.6C13.7473 4.60013 13.8667 4.71946 13.8667 4.8668C13.8667 5.01413 13.7473 5.13346 13.6 5.13346Z"
              fill="currentColor"/>
    </symbol>
    <symbol fill="none" xmlns="http://www.w3.org/2000/svg" viewBox="0 0 12 13" id="edit">
        <path d="M4.23649 10.999L1.51468 8.27721L8.09785 1.69404L10.8197 4.41585L4.23649 10.999ZM1.26026 8.75666L3.75704 11.2534L0.0136719 12.5L1.26026 8.75666ZM11.6568 3.5823L11.1847 4.05439L8.45931 1.32898L8.93141 0.856884C9.40696 0.381039 10.1781 0.381039 10.6537 0.856884L11.6568 1.86C12.1289 2.33715 12.1289 3.1053 11.6568 3.5823Z"
              fill="currentColor"/>
    </symbol>
    <symbol fill="none" xmlns="http://www.w3.org/2000/svg" viewBox="0 0 14 14" id="exit">
        <path d="M13.8896 7.29076L10.3896 11.2283C10.3311 11.2952 10.2533 11.3425 10.167 11.3636C10.0806 11.3847 9.98983 11.3787 9.90701 11.3464C9.82422 11.3147 9.75297 11.2586 9.70263 11.1857C9.65229 11.1127 9.62523 11.0262 9.625 10.9375V8.3125H4.8125C4.69647 8.3125 4.58519 8.26641 4.50314 8.18436C4.42109 8.10231 4.375 7.99103 4.375 7.875V6.125C4.375 6.00897 4.42109 5.89769 4.50314 5.81564C4.58519 5.73359 4.69647 5.6875 4.8125 5.6875H9.625V3.0625C9.62496 2.97375 9.65191 2.88709 9.70228 2.81402C9.75264 2.74095 9.82404 2.68492 9.90699 2.65337C9.98994 2.62183 10.0805 2.61626 10.1667 2.6374C10.2529 2.65854 10.3306 2.70539 10.3896 2.77174L13.8896 6.70924C13.9607 6.78939 14 6.89284 14 7C14 7.10716 13.9607 7.21061 13.8896 7.29076ZM4.8125 11.375H2.625V2.625H4.8125C4.92853 2.625 5.03981 2.57891 5.12186 2.49686C5.20391 2.41481 5.25 2.30353 5.25 2.1875V0.4375C5.25 0.321468 5.20391 0.210188 5.12186 0.128141C5.03981 0.0460937 4.92853 0 4.8125 0H0.4375C0.321468 0 0.210188 0.0460937 0.128141 0.128141C0.0460937 0.210188 0 0.321468 0 0.4375V13.5625C0 13.6785 0.0460937 13.7898 0.128141 13.8719C0.210188 13.9539 0.321468 14 0.4375 14H4.8125C4.92853 14 5.03981 13.9539 5.12186 13.8719C5.20391 13.7898 5.25 13.6785 5.25 13.5625V11.8125C5.25 11.6965 5.20391 11.5852 5.12186 11.5031C5.03981 11.4211 4.92853 11.375 4.8125 11.375Z"
              fill="currentColor"/>
    </symbol>
    <symbol fill="none" xmlns="http://www.w3.org/2000/svg" viewBox="0 0 24 24" id="gear-logo">
        <path d="M22.9805 4C22.4141 4.18545 21.8396 4.36284 21.257 4.52411C15.4148 6.08031 9.50783 5.78197 4.17539 4L3.13965 10.5957L5.2354 11.1601L7.16932 7.62845C7.68719 7.73327 8.20506 7.82196 8.73102 7.90259L9.32981 11.8778L11.4903 12.0632L12.7769 8.24931C13.3028 8.26544 13.8369 8.26544 14.3629 8.24931L15.6494 12.0632L17.8099 11.8778L18.4087 7.89453C18.9266 7.8139 19.4445 7.7252 19.9704 7.62038L21.9043 11.1601L24.0001 10.6038L22.9805 4Z"
              fill="currentColor"/>
        <path d="M18.7728 12.0789L16.8389 15.6186C16.321 15.5138 15.8031 15.4251 15.2772 15.3445L14.6784 11.3612L12.5098 11.1758L11.2232 14.9897C10.6892 14.9736 10.1632 14.9736 9.63723 14.9897L8.35065 11.1758L6.19016 11.3612L5.59137 15.3364C5.06541 15.417 4.54754 15.5057 4.02967 15.6105L2.09575 12.0789L0 12.6433L1.03574 19.2309C6.36818 17.449 12.2751 17.1506 18.1173 18.7149C18.6999 18.8681 19.2745 19.0455 19.8409 19.239L20.8766 12.6433L18.7728 12.0789Z"
              fill="currentColor"/>
    </symbol>
    <symbol fill="none" xmlns="http://www.w3.org/2000/svg" viewBox="0 0 24 24" id="burger-menu">
        <path d="M4 6H20M4 12H20M4 18H20" stroke="currentColor" stroke-width="2" stroke-linecap="round"
              stroke-linejoin="round"/>
    </symbol>
    <symbol fill="none" xmlns="http://www.w3.org/2000/svg" viewBox="0 0 32 32" id="vara-sign1">
        <rect width="32" height="32" rx="16" fill="#00FFC4"/>
        <g clip-path="url(#clip0_798_1556)">
            <path d="M22.2369 5.33325H19.833V26.0844H22.2369V5.33325Z" fill="currentColor"/>
            <path d="M15.3082 5.39648L13.0576 6.24121L19.9091 24.495L22.1597 23.6503L15.3082 5.39648Z"
                  fill="currentColor"/>
            <path d="M10.2505 5.39599L8 6.24072L15.6668 26.6666L17.9173 25.8219L10.2505 5.39599Z" fill="currentColor"/>
        </g>
        <defs>
            <clipPath id="clip0_798_1556">
                <rect width="16" height="16" fill="white" transform="translate(8 8)"/>
            </clipPath>
        </defs>
    </symbol>
    <symbol fill="none" xmlns="http://www.w3.org/2000/svg" viewBox="0 0 16 16" id="vara-sign">
        <g clip-path="url(#clip0_896_1752)">
            <path d="M14.2369 -2.66675H11.833V18.0844H14.2369V-2.66675Z" fill="currentColor"/>
            <path d="M7.30815 -2.60352L5.05762 -1.75879L11.9091 16.495L14.1597 15.6503L7.30815 -2.60352Z" fill="currentColor"/>
            <path d="M2.25053 -2.60401L0 -1.75928L7.66679 18.6666L9.91733 17.8219L2.25053 -2.60401Z" fill="currentColor"/>
        </g>
        <defs>
            <clipPath id="clip0_896_1752">
                <rect width="16" height="16" fill="white"/>
            </clipPath>
        </defs>
    </symbol>
</svg>
