<svg width="20" height="20" viewBox="0 0 20 20" fill="none" xmlns="http://www.w3.org/2000/svg">
<g clip-path="url(#clip0_115_417431)">
<mask id="mask0_115_417431" style="mask-type:luminance" maskUnits="userSpaceOnUse" x="0" y="0" width="20" height="20">
<path d="M19.9999 9.99995C19.9999 4.64446 15.6584 0.302979 10.3029 0.302979C4.94744 0.302979 0.605957 4.64446 0.605957 9.99995C0.605957 15.3554 4.94744 19.6969 10.3029 19.6969C15.6584 19.6969 19.9999 15.3554 19.9999 9.99995Z" fill="white"/>
</mask>
<g mask="url(#mask0_115_417431)">
<path d="M19.9999 9.99995C19.9999 4.64446 15.6584 0.302979 10.3029 0.302979C4.94744 0.302979 0.605957 4.64446 0.605957 9.99995C0.605957 15.3554 4.94744 19.6969 10.3029 19.6969C15.6584 19.6969 19.9999 15.3554 19.9999 9.99995Z" fill="black"/>
<path d="M10.4888 17.022C14.2702 17.022 17.3356 13.9566 17.3356 10.1752C17.3356 6.3939 14.2702 3.32849 10.4888 3.32849C6.7075 3.32849 3.64209 6.3939 3.64209 10.1752C3.64209 13.9566 6.7075 17.022 10.4888 17.022Z" fill="white"/>
<path d="M15.7676 15.3568C18.7261 12.3983 18.7261 7.60161 15.7676 4.64309C12.809 1.68456 8.01237 1.68456 5.05385 4.64309C2.09533 7.60161 2.09533 12.3983 5.05385 15.3568C8.01237 18.3153 12.809 18.3153 15.7676 15.3568Z" fill="white"/>
<path d="M2.61583 10.372C2.61567 9.04024 3.00396 7.73739 3.73313 6.62303C4.4623 5.50862 5.50068 4.63111 6.72104 4.09799C7.94146 3.56488 9.2908 3.3993 10.6039 3.62154C11.917 3.84379 13.1367 4.4442 14.1136 5.34924C13.488 4.67277 12.7322 4.12959 11.8916 3.75224C11.0509 3.37488 10.1428 3.17111 9.22152 3.15316C8.30025 3.13519 7.3848 3.30341 6.53012 3.64771C5.67542 3.99202 4.89903 4.50534 4.24747 5.1569C3.59591 5.80845 3.0826 6.58485 2.7383 7.43958C2.39399 8.29424 2.22577 9.20964 2.24373 10.1309C2.2617 11.0522 2.46546 11.9604 2.84282 12.801C3.22017 13.6416 3.76336 14.3974 4.43981 15.0231C3.26532 13.7593 2.61354 12.0973 2.61583 10.372Z" fill="black"/>
<path d="M12.4598 9.2822L10.4641 6.32166H9.05443L12.4598 11.3732V13.301L7.75528 6.32166H6.3457L11.755 14.3465H12.4598H13.1642H13.869V6.32166H12.4598V9.2822Z" fill="black"/>
</g>
</g>
<defs>
<clipPath id="clip0_115_417431">
<rect width="19.3939" height="20" fill="white" transform="translate(0.605957)"/>
</clipPath>
</defs>
</svg>
