<svg width="0" height="0" class="hidden">
    <symbol fill="none" xmlns="http://www.w3.org/2000/svg" viewBox="0 0 136 32" id="logo">
        <path fill-rule="evenodd" clip-rule="evenodd"
              d="M42.112 1.038A76.94 76.94 0 0 0 45.525 0l2.02 13.078-4.15 1.102-3.83-7.01a74.035 74.035 0 0 1-3.093.543L35.286 15.6l-4.279.367-2.548-7.553c-1.041.032-2.099.032-3.14 0l-2.548 7.553-4.279-.367-1.186-7.872a65.812 65.812 0 0 1-3.092-.543l-3.83 6.994-4.15-1.118L8.283 0a58.739 58.739 0 0 0 33.828 1.038ZM33.363 23.01l3.83-7.01 4.166 1.118-2.05 13.062a49.543 49.543 0 0 0-3.414-1.038 58.605 58.605 0 0 0-33.828 1.022L.017 17.118 4.166 16l3.83 6.994a65.825 65.825 0 0 1 3.092-.543l1.186-7.872 4.278-.367 2.548 7.553a51.39 51.39 0 0 1 3.141 0l2.548-7.553 4.295.367 1.185 7.888c1.042.16 2.067.335 3.093.543ZM69.354 8.144s-1.859-2.427-5.8-2.427c-3.959 0-9.135 2.251-9.135 9.373s5.176 9.437 9.134 9.437c3.959 0 5.224-2.028 5.801-3.018 0 4.328-3.99 6.435-9.021 3.944l-2.26 4.87c6.49 3.274 16.073 2.523 16.073-8.782V6.164h-4.119l-.673 1.98Zm-4.791 11.29c-1.602 0-4.022-1.103-4.022-4.344 0-3.242 2.42-4.343 4.022-4.343 1.602 0 4.022 1.101 4.022 4.343 0 3.241-2.42 4.343-4.022 4.343Zm61.886-13.27.994 2.922s2.532-5.286 8.573-2.619l-2.372 5.094c-2.868-1.102-5.592.367-5.592 3.497v9.022h-5.721V6.164h4.118Zm-8.348 0h-4.119l-.689 1.98s-1.859-2.427-5.801-2.427c-3.958 0-9.134 2.634-9.134 9.373 0 6.675 5.176 9.437 9.134 9.437 4.631 0 5.801-3.018 5.801-3.018v2.587h4.808V6.164Zm-9.599 13.27c-1.603 0-4.022-1.103-4.022-4.344 0-3.242 2.419-4.343 4.022-4.343 1.602 0 4.022 1.101 4.022 4.343 0 3.241-2.42 4.343-4.022 4.343ZM76.405 14.93c0-4.646 3.637-9.613 10.672-9.613s9.615 6.228 9.23 11.322h-13.54c.72 2.14 2.852 3.37 4.743 3.37 2.323 0 4.134-1.39 4.871-2.572l3.782 2.46c-.369.718-2.708 5.205-9.599 5.205-6.89 0-10.16-5.525-10.16-10.172Zm10.512-4.583c-1.81 0-3.173.959-3.878 2.412h7.387s-.865-2.412-3.51-2.412Z"
              fill="currentColor"/>
    </symbol>
    <symbol fill="none" xmlns="http://www.w3.org/2000/svg" viewBox="0 0 26 26" id="youtube">
        <path
                d="M23.3128 7.56653C23.1096 6.46653 22.1443 5.66653 21.0265 5.41653C19.3499 5.06653 16.2507 4.81653 12.8975 4.81653C9.54426 4.81653 6.39426 5.06653 4.71764 5.41653C3.5999 5.66653 2.63458 6.41653 2.43135 7.56653C2.22813 8.81653 2.0249 10.5665 2.0249 12.8165C2.0249 15.0665 2.22813 16.8165 2.48216 18.0665C2.68539 19.1665 3.65071 19.9665 4.76845 20.2165C6.54668 20.5665 9.59506 20.8165 12.9483 20.8165C16.3015 20.8165 19.3499 20.5665 21.1281 20.2165C22.2459 19.9665 23.2112 19.2165 23.4144 18.0665C23.6176 16.8165 23.8717 15.0165 23.9225 12.8165C23.8209 10.5665 23.5668 8.81653 23.3128 7.56653ZM10.1539 16.3165V9.31653L16.3523 12.8165L10.1539 16.3165Z"
                fill="currentColor"/>
    </symbol>
    <symbol fill="none" xmlns="http://www.w3.org/2000/svg" viewBox="0 0 51 52" id="twitter">
        <path
                d="M44.625 13.2501C43.2026 13.89 41.6869 14.3142 40.1067 14.5202C41.7323 13.5247 42.9731 11.9604 43.5564 10.0748C42.0407 11.0017 40.3673 11.6563 38.5839 12.0217C37.1447 10.45 35.0936 9.47656 32.856 9.47656C28.5146 9.47656 25.0195 13.0907 25.0195 17.5213C25.0195 18.1588 25.0721 18.7718 25.2012 19.3554C18.6819 19.0293 12.9134 15.8246 9.03816 10.9428C8.36161 12.1467 7.96477 13.5247 7.96477 15.0081C7.96477 17.7935 9.36328 20.2626 11.4479 21.692C10.188 21.6675 8.95209 21.2924 7.905 20.7015C7.905 20.726 7.905 20.7579 7.905 20.7897C7.905 24.6981 10.6231 27.9444 14.1876 28.6923C13.5493 28.8713 12.8536 28.9571 12.1316 28.9571C11.6296 28.9571 11.1228 28.9277 10.647 28.8198C11.6631 32.0048 14.5462 34.3464 17.9743 34.4224C15.3064 36.563 11.9189 37.8527 8.25164 37.8527C7.60856 37.8527 6.99178 37.8232 6.375 37.7423C9.84858 40.0398 13.9652 41.3516 18.4046 41.3516C32.8344 41.3516 40.7235 29.0919 40.7235 18.4653C40.7235 18.1098 40.7115 17.7665 40.6948 17.4257C42.2511 16.2929 43.5588 14.8781 44.625 13.2501Z"
                fill="currentColor"/>
    </symbol>
    <symbol fill="none" xmlns="http://www.w3.org/2000/svg" viewBox="0 0 26 25" id="telegram">
        <path fill-rule="evenodd" clip-rule="evenodd"
              d="M20.3791 22.2091L23.92 4.03791C24.0112 3.56931 23.5796 3.17838 23.1614 3.35095L3.43049 11.4717C2.94351 11.6719 2.94768 12.4075 3.43605 12.6026L8.24375 14.517L10.1046 20.9019C10.2237 21.3105 10.6924 21.4618 11.0034 21.1904L13.6833 18.8597C13.9643 18.6153 14.3644 18.6032 14.6578 18.8306L19.4915 22.5746C19.8242 22.8326 20.2957 22.6382 20.3791 22.2091ZM9.44539 13.0192L18.7508 7.02713C18.9179 6.9198 19.0901 7.15621 18.9463 7.29544L11.2667 14.759C10.9967 15.0216 10.8227 15.3734 10.7733 15.755L10.5118 17.7819C10.477 18.0525 10.1136 18.0792 10.042 17.8174L9.03593 14.1213C8.92087 13.6997 9.08874 13.2493 9.44539 13.0192Z"
              fill="currentColor"/>
    </symbol>
    <symbol fill="none" xmlns="http://www.w3.org/2000/svg" viewBox="0 0 16 16" id="meetup">
        <path fill-rule="evenodd" clip-rule="evenodd"
              d="M14.6468 12.2877C15.2703 12.3742 15.887 12.4596 15.985 13.087C16.2463 14.7559 13.0084 14.1349 12.2684 13.7726C11.1079 13.2035 10.4038 11.9046 10.7049 10.6212C10.8209 10.1259 11.4493 8.84012 12.0412 7.63006C12.5947 6.49769 13.1162 5.43136 13.1551 5.1405C13.2367 4.52575 12.9089 4.47331 12.7035 4.46311C12.4393 4.44952 12.231 4.5782 11.9717 4.96957C11.8091 5.21479 10.4941 7.82283 9.61473 9.56655C9.21704 10.3556 8.9087 10.9674 8.83635 11.1034C8.42264 11.8837 7.90161 12.0716 7.37816 12.044C6.61483 12.0042 6.2657 11.5953 6.37592 10.8601C6.40555 10.662 6.7775 9.75204 7.17956 8.7668C7.65494 7.60238 8.17256 6.33405 8.22015 6.01065C8.27405 5.6421 8.20073 5.25121 7.83557 5.06329C7.46945 4.87586 7.03777 5.16332 6.90812 5.38086C6.82363 5.5241 6.23559 7.01726 5.61551 8.59394C4.9323 10.3299 4.20976 12.1654 4.07622 12.4086C3.63435 13.2118 3.16916 13.4672 2.46944 13.5002C0.815074 13.5789 -0.411498 12.2183 0.129436 10.5503C0.17411 10.4124 0.265399 10.106 0.389708 9.6894C0.935013 7.8612 2.11351 3.90761 2.77099 2.73979C3.31338 1.77592 4.81964 1.04415 5.86412 1.49623C6.20694 1.64433 6.63377 1.84924 6.95668 2.00463C7.14314 2.09397 7.29464 2.16633 7.37573 2.20226C7.82246 2.40037 8.29784 1.9551 8.55374 1.71522C8.59016 1.68123 8.62221 1.65113 8.64892 1.62782C8.67465 1.60597 8.6999 1.58412 8.72467 1.56178C8.91404 1.39523 9.10245 1.23013 9.33456 1.13059C9.59677 1.01793 10.01 0.971315 10.329 1.01793C10.648 1.06503 10.8384 1.18546 10.9578 1.28112C11.154 1.43747 11.288 1.56615 11.457 1.72785L11.5609 1.82691C11.8668 2.11825 12.0946 1.98035 12.2592 1.88081L12.3024 1.85556L12.3107 1.8507C12.5967 1.68415 12.8273 1.55013 13.6771 1.56566C14.5599 1.58072 15.5752 1.89634 15.786 3.40261C15.8996 4.21498 15.2567 5.6489 14.5895 7.13865C13.8825 8.71581 13.1478 10.3551 13.2551 11.3836C13.3304 12.1056 13.9922 12.1969 14.6468 12.2877Z"
              fill="currentColor"/>
    </symbol>
    <symbol fill="none" xmlns="http://www.w3.org/2000/svg" viewBox="0 0 51 52" id="medium">
        <path
                d="M28.7671 26.4769C28.7671 34.6919 22.3272 41.3516 14.3838 41.3516C6.44028 41.3516 0 34.6904 0 26.4769C0 18.2632 6.43983 11.6016 14.3838 11.6016C22.3277 11.6016 28.7671 18.2617 28.7671 26.4769ZM44.546 26.4769C44.546 34.2095 41.3261 40.4807 37.3541 40.4807C33.3821 40.4807 30.1622 34.2095 30.1622 26.4769C30.1622 18.7441 33.3817 12.4729 37.3536 12.4729C41.3256 12.4729 44.5456 18.7421 44.5456 26.4769H44.546ZM51 26.4769C51 33.4035 49.8677 39.0222 48.4706 39.0222C47.0735 39.0222 45.9417 33.4049 45.9417 26.4769C45.9417 19.5487 47.0739 13.9316 48.4706 13.9316C49.8672 13.9316 51 19.5482 51 26.4769Z"
                fill="currentColor"/>
    </symbol>
    <symbol fill="none" xmlns="http://www.w3.org/2000/svg" viewBox="0 0 51 52" id="linkedin">
        <path
                d="M40.8003 7.77686H10.2003C8.32179 7.77686 6.80029 9.29836 6.80029 11.1769V41.7769C6.80029 43.6554 8.32179 45.1769 10.2003 45.1769H40.8003C42.6788 45.1769 44.2003 43.6554 44.2003 41.7769V11.1769C44.2003 9.29836 42.6788 7.77686 40.8003 7.77686ZM18.6221 38.3769H13.6071V22.2405H18.6221V38.3769ZM16.0636 19.9336C14.4469 19.9336 13.1396 18.6229 13.1396 17.0096C13.1396 15.3963 14.4486 14.0873 16.0636 14.0873C17.6752 14.0873 18.9859 15.398 18.9859 17.0096C18.9859 18.6229 17.6752 19.9336 16.0636 19.9336ZM37.4071 38.3769H32.3955V30.5297C32.3955 28.658 32.3615 26.2508 29.7894 26.2508C27.1799 26.2508 26.7787 28.2891 26.7787 30.3937V38.3769H21.7671V22.2405H26.5781V24.4454H26.6461C27.3159 23.1772 28.9513 21.8393 31.3908 21.8393C36.4687 21.8393 37.4071 25.1815 37.4071 29.5267V38.3769Z"
                fill="currentColor"/>
    </symbol>
    <symbol fill="none" xmlns="http://www.w3.org/2000/svg" viewBox="0 0 51 52" id="github">
        <path
                d="M18.9051 45.6016C20.2303 45.6016 20.6048 45.0728 20.6048 44.3971C20.6048 43.7214 20.6048 42.2525 20.5759 40.1666C13.6907 41.665 12.2215 36.8175 12.2215 36.8175C11.0979 33.9679 9.45582 33.1747 9.45582 33.1747C7.20866 31.6471 9.62865 31.6765 9.62865 31.6765C12.1062 31.8527 13.4314 34.2323 13.4314 34.2323C15.6497 38.0515 19.2219 36.9351 20.6336 36.2887C20.7488 35.0255 21.2962 33.821 22.2181 32.9397C16.7156 32.3228 10.925 30.1782 10.925 20.6597C10.8963 18.192 11.8181 15.783 13.489 13.991C13.2009 13.3741 12.3655 10.8475 13.6907 7.41031C13.6907 7.41031 15.7649 6.73462 20.5183 9.96627C24.5804 8.84985 28.844 8.84985 32.906 9.96627C37.6019 6.76408 39.7049 7.41031 39.7049 7.41031C41.0301 10.8182 40.1947 13.3447 39.9642 13.991C41.6351 15.783 42.5282 18.192 42.4993 20.6597C42.4993 30.2076 36.7088 32.2933 31.1775 32.9103C32.0418 33.6448 32.8485 35.1724 32.8485 37.4932C32.8485 40.8423 32.8197 43.4863 32.8197 44.2795C32.8197 44.9259 33.1077 45.4547 34.5194 45.4547L18.9051 45.6016Z"
                fill="currentColor"/>
    </symbol>
    <symbol fill="none" xmlns="http://www.w3.org/2000/svg" viewBox="0 0 16 16" id="facebook">
        <path
                d="M7.99967 1.3335C4.32367 1.3335 1.33301 4.32416 1.33301 8.00016C1.33301 11.3355 3.79767 14.0985 6.99967 14.5835V9.66683H5.66634C5.48234 9.66683 5.33301 9.51783 5.33301 9.3335V8.3335C5.33301 8.14916 5.48234 8.00016 5.66634 8.00016H6.99967V6.7895C6.99967 5.20583 7.80867 4.3335 9.27767 4.3335C9.87301 4.3335 10.3427 4.37483 10.3623 4.3765C10.5343 4.39183 10.6663 4.53583 10.6663 4.7085V5.8335C10.6663 6.01783 10.517 6.16683 10.333 6.16683H9.66634C9.29867 6.16683 8.99967 6.46583 8.99967 6.8335V8.00016H10.333C10.4287 8.00016 10.5197 8.04116 10.583 8.11283C10.6463 8.18483 10.6757 8.28016 10.664 8.37483L10.539 9.37483C10.518 9.5415 10.376 9.66683 10.208 9.66683H8.99967V14.5835C12.2017 14.0985 14.6663 11.3355 14.6663 8.00016C14.6663 4.32416 11.6757 1.3335 7.99967 1.3335Z"
                fill="currentColor"/>
    </symbol>
    <symbol fill="none" xmlns="http://www.w3.org/2000/svg" viewBox="0 0 51 52" id="discord">
        <path
                d="M13.6135 35.4204C22.8562 39.1006 30.7217 39.8175 39.6351 34.089C39.5698 34.189 37.8066 36.8541 33.17 38.2201C34.1496 39.586 35.4883 41.1517 35.4883 41.1517C38.4597 41.1517 41.3656 40.2855 43.8797 38.6198C45.8389 37.2872 46.949 34.9885 46.7204 32.5899C46.3286 28.4921 45.3817 24.4944 43.9124 20.6633C42.0513 15.666 37.578 12.2013 32.3864 11.7016C31.9293 11.6682 31.6028 11.6682 31.4069 11.6682L30.8846 12.2012C36.8598 13.9336 39.8311 16.6321 39.8963 16.7321C30.7212 12.0014 19.8809 11.9348 10.6405 16.5321C10.6405 16.5321 13.5791 13.5672 20.0767 12.0014L19.685 11.6016C18.9992 11.6016 18.3462 11.6682 17.6605 11.7681C12.8608 12.6009 8.84463 15.9657 7.11412 20.5965C5.61208 24.5942 4.6326 28.7919 4.27342 33.0562C4.07755 35.3216 5.12238 37.5537 6.95083 38.853C9.367 40.4854 12.2404 41.3516 15.1463 41.3516C15.1463 41.3516 16.3218 39.7858 17.4973 38.3866C13.0893 37.054 11.2935 34.3888 11.2608 34.2889L12.0904 34.7211C12.5863 34.9796 13.0947 35.2138 13.6135 35.4204ZM18.7381 32.5232C16.6157 32.4565 14.9505 30.6243 15.0158 28.4255C15.0812 26.36 16.7137 24.6942 18.7381 24.6276C20.8604 24.6942 22.5257 26.5265 22.4604 28.7254C22.3624 30.7909 20.7625 32.4566 18.7381 32.5232ZM32.0598 32.5232C29.9375 32.4565 28.2722 30.6243 28.3376 28.4255C28.4029 26.36 30.0355 24.6942 32.0598 24.6276C34.1823 24.6942 35.8475 26.5265 35.7822 28.7254C35.7169 30.7909 34.0842 32.4566 32.0598 32.5232Z"
                fill="currentColor"/>
    </symbol>
    <symbol fill="none" xmlns="http://www.w3.org/2000/svg" viewBox="0 0 12 14" id="arrow-left">
        <path
                d="M1 6.24998H0.25V7.74998H1V6.24998ZM11 6.99998L11.5303 7.53031C11.671 7.38965 11.75 7.19889 11.75 6.99998C11.75 6.80106 11.671 6.6103 11.5303 6.46965L11 6.99998ZM6.53032 1.46967L5.99999 0.93934L4.93933 2L5.46967 2.53033L6.53032 1.46967ZM5.46966 11.4697L4.93933 12L6 13.0607L6.53033 12.5303L5.46966 11.4697ZM1 7.74998H11V6.24998H1V7.74998ZM5.46967 2.53033L10.4697 7.53031L11.5303 6.46965L6.53032 1.46967L5.46967 2.53033ZM10.4697 6.46965L5.46966 11.4697L6.53033 12.5303L11.5303 7.53031L10.4697 6.46965Z"
                fill="currentColor"/>
    </symbol>
    <symbol fill="none" xmlns="http://www.w3.org/2000/svg" viewBox="0 0 18 18" id="external-link">
        <path fill-rule="evenodd" clip-rule="evenodd"
              d="M6 12H12V10.5C12 10.0858 12.3358 9.75 12.75 9.75C13.1642 9.75 13.5 10.0858 13.5 10.5V12C13.5 12.825 12.825 13.5 12 13.5H6C5.1675 13.5 4.5 12.825 4.5 12V6C4.5 5.175 5.1675 4.5 6 4.5H7.5C7.91421 4.5 8.25 4.83579 8.25 5.25C8.25 5.66421 7.91421 6 7.5 6H6V12ZM9.75 5.25C9.75 4.83579 10.0858 4.5 10.5 4.5H13.5V7.5C13.5 7.91421 13.1642 8.25 12.75 8.25C12.3358 8.25 12 7.91421 12 7.5V7.0575L8.55871 10.4996L7.50121 9.44207L10.9425 6H10.5C10.0858 6 9.75 5.66421 9.75 5.25Z"
              fill="currentColor"/>
    </symbol>
    <symbol fill="none" xmlns="http://www.w3.org/2000/svg" viewBox="0 0 33 33" id="idea">
        <g clip-path="url(#clip0_797_397)">
            <path
                    d="M27.9293 5.17369C25.2788 2.52582 21.7922 0.878793 18.0636 0.513179C14.3349 0.147565 10.5948 1.08599 7.48048 3.16858C4.36611 5.25117 2.0701 8.34908 0.983594 11.9346C-0.102913 15.5201 0.087291 19.3715 1.5218 22.8325C2.95632 26.2935 5.5464 29.1501 8.85082 30.9157C12.1552 32.6813 15.9696 33.2466 19.6441 32.5154C23.3185 31.7842 26.6259 29.8016 29.0026 26.9055C31.3793 24.0093 32.6784 20.3787 32.6786 16.6322C32.6824 14.5033 32.2647 12.3947 31.4496 10.4281C30.6344 8.46144 29.438 6.67566 27.9293 5.17369ZM5.73116 20.3247H3.41488V16.0792H5.73116V20.3247ZM4.56995 15.2314C4.3415 15.2301 4.11855 15.1612 3.92928 15.0333C3.74001 14.9054 3.59292 14.7242 3.50663 14.5126C3.42033 14.3011 3.39869 14.0688 3.44445 13.845C3.49021 13.6211 3.60131 13.4159 3.76371 13.2552C3.9261 13.0946 4.1325 12.9856 4.35679 12.9423C4.58108 12.8989 4.8132 12.923 5.02379 13.0115C5.23439 13.1001 5.41399 13.2491 5.5399 13.4397C5.66581 13.6303 5.73237 13.854 5.73116 14.0824C5.73035 14.2341 5.69968 14.3842 5.64089 14.524C5.58209 14.6638 5.49634 14.7907 5.38851 14.8974C5.28068 15.0041 5.15289 15.0885 5.01244 15.1458C4.87199 15.2031 4.72163 15.2322 4.56995 15.2314ZM7.64193 20.3186V12.9458C8.61962 12.9458 9.55726 13.3342 10.2486 14.0255C10.9399 14.7168 11.3283 15.6545 11.3283 16.6322C11.3283 17.6099 10.9399 18.5475 10.2486 19.2389C9.55726 19.9302 8.61962 20.3186 7.64193 20.3186ZM20.0405 20.3186H12.637V19.0099H20.0712L20.0405 20.3186ZM20.0405 17.2773H12.637V15.9686H20.0712L20.0405 17.2773ZM20.0405 14.2053H12.637V12.8967H20.0712L20.0405 14.2053ZM20.919 20.2878L25.2198 12.9151L29.5206 20.2878H20.919Z"
                    fill="#2BD071"/>
            <path
                    d="M5.7311 14.0886C5.73231 14.3185 5.66524 14.5436 5.53839 14.7354C5.41154 14.9272 5.23061 15.0769 5.01853 15.1658C4.80646 15.2546 4.57279 15.2785 4.34713 15.2344C4.12148 15.1902 3.914 15.0802 3.75098 14.918C3.58797 14.7559 3.47676 14.5489 3.43146 14.3235C3.38615 14.0981 3.40879 13.8643 3.49649 13.6518C3.5842 13.4392 3.73303 13.2575 3.92412 13.1296C4.11521 13.0018 4.33996 12.9335 4.56989 12.9335C4.72209 12.9327 4.87295 12.962 5.01379 13.0197C5.15464 13.0773 5.28271 13.1623 5.39062 13.2696C5.49853 13.377 5.58416 13.5046 5.64259 13.6451C5.70102 13.7857 5.7311 13.9364 5.7311 14.0886Z"
                    fill="white"/>
            <path d="M5.73107 16.0792H3.41479V20.3247H5.73107V16.0792Z" fill="white"/>
            <path
                    d="M11.3897 16.6322C11.3897 17.1189 11.2934 17.6008 11.1062 18.05C10.919 18.4993 10.6447 18.907 10.2992 19.2497C9.95358 19.5925 9.54357 19.8634 9.09276 20.0468C8.64196 20.2302 8.15929 20.3226 7.67261 20.3186V12.9458C8.15929 12.9418 8.64196 13.0341 9.09276 13.2175C9.54357 13.401 9.95358 13.6719 10.2992 14.0146C10.6447 14.3573 10.919 14.7651 11.1062 15.2143C11.2934 15.6636 11.3897 16.1455 11.3897 16.6322Z"
                    fill="white"/>
            <path d="M20.0712 12.9335H12.637V14.2422H20.0712V12.9335Z" fill="white"/>
            <path d="M20.0712 19.016H12.637V20.3247H20.0712V19.016Z" fill="white"/>
            <path d="M20.0712 15.9748H12.637V17.2834H20.0712V15.9748Z" fill="white"/>
            <path d="M29.5328 20.3247H20.9497L25.2382 12.9335L29.5328 20.3247Z" fill="white"/>
        </g>
        <defs>
            <clipPath id="clip0_797_397">
                <rect width="32.4156" height="32.4156" fill="white" transform="translate(0.262939 0.424377)"/>
            </clipPath>
        </defs>
    </symbol>
    <symbol fill="none" xmlns="http://www.w3.org/2000/svg" viewBox="0 0 16 9" id="select_arrow">
        <path d="M15 0.999999L8 8L1 1" stroke="currentColor" stroke-width="2" stroke-linecap="round"
              stroke-linejoin="round"/>
    </symbol>
    <symbol fill="none" xmlns="http://www.w3.org/2000/svg" viewBox="0 0 25 25" id="arrow-down">
        <path d="M19.7916 10.1422L12.4999 17.4338L5.20825 10.1422" stroke="currentColor" stroke-width="2"
              stroke-linecap="round" stroke-linejoin="round"/>
    </symbol>
    <symbol fill="none" xmlns="http://www.w3.org/2000/svg" viewBox="0 0 25 26" id="minus">
        <path d="M6.25 13.1631H12.5H18.75" stroke="currentColor" stroke-width="1.5" stroke-linecap="round"
              stroke-linejoin="round"/>
    </symbol>
    <symbol fill="none" xmlns="http://www.w3.org/2000/svg" viewBox="0 0 25 26" id="plus">
        <path d="M12.5 13.13V19.38M6.25 13.13H12.5H6.25ZM18.75 13.13H12.5H18.75ZM12.5 13.13V6.88V13.13Z"
              stroke="currentColor" stroke-width="1.5" stroke-linecap="round" stroke-linejoin="round"/>
    </symbol>
    <symbol fill="none" xmlns="http://www.w3.org/2000/svg" viewBox="0 0 17 18" id="close">
        <line x1="1.96426" y1="2.08573" x2="15.9384" y2="16.0366" stroke="currentColor" stroke-width="2"
              stroke-linecap="round" stroke-linejoin="round"/>
        <line x1="15.922" y1="1.98599" x2="1.98921" y2="15.9208" stroke="currentColor" stroke-width="2"
              stroke-linecap="round" stroke-linejoin="round"/>
    </symbol>
    <symbol fill="none" xmlns="http://www.w3.org/2000/svg" viewBox="0 0 20 20" id="test-balance">
        <g clip-path="url(#a)">
            <path
                    d="m19.525 7.796-2.123-.523a7.875 7.875 0 0 0-.24-.578l1.131-1.871a.625.625 0 0 0-.093-.766L15.942 1.8a.625.625 0 0 0-.765-.093l-1.872 1.13a7.907 7.907 0 0 0-.578-.239L12.204.475A.625.625 0 0 0 11.597 0H8.403a.625.625 0 0 0-.607.475l-.523 2.123a7.89 7.89 0 0 0-.578.24L4.823 1.707a.625.625 0 0 0-.765.093L1.8 4.058a.625.625 0 0 0-.093.765l1.13 1.872a7.85 7.85 0 0 0-.239.578l-2.123.523A.625.625 0 0 0 0 8.403v3.194a.625.625 0 0 0 .475.607l2.123.523c.072.196.152.388.24.578l-1.131 1.872a.625.625 0 0 0 .093.765L4.058 18.2a.625.625 0 0 0 .765.093l1.872-1.13c.19.087.382.166.578.239l.523 2.123a.625.625 0 0 0 .607.475h3.194a.625.625 0 0 0 .607-.475l.523-2.123a7.89 7.89 0 0 0 .578-.24l1.872 1.131a.625.625 0 0 0 .765-.093l2.258-2.258a.625.625 0 0 0 .093-.765l-1.13-1.872c.087-.19.167-.383.239-.578l2.123-.523a.624.624 0 0 0 .475-.607V8.403a.625.625 0 0 0-.475-.607Zm-.775 3.311-1.978.488a.624.624 0 0 0-.446.418 6.617 6.617 0 0 1-.43 1.036.625.625 0 0 0 .02.61l1.054 1.745-1.566 1.566-1.744-1.054a.626.626 0 0 0-.61-.02c-.333.173-.68.316-1.037.43a.625.625 0 0 0-.418.446l-.488 1.978H8.893l-.488-1.978a.625.625 0 0 0-.418-.446 6.62 6.62 0 0 1-1.036-.43.624.624 0 0 0-.61.02L4.595 16.97 3.03 15.404l1.054-1.744a.625.625 0 0 0 .02-.61 6.607 6.607 0 0 1-.43-1.037.625.625 0 0 0-.446-.418l-1.978-.488V8.893l1.978-.488a.625.625 0 0 0 .446-.418c.113-.357.257-.703.43-1.036a.625.625 0 0 0-.02-.61L3.03 4.595 4.596 3.03 6.34 4.084a.625.625 0 0 0 .611.02c.333-.172.68-.316 1.036-.43a.625.625 0 0 0 .418-.446l.488-1.978h2.214l.488 1.978a.625.625 0 0 0 .418.446c.357.114.703.257 1.036.43a.626.626 0 0 0 .61-.02l1.745-1.054 1.566 1.566-1.054 1.744a.626.626 0 0 0-.02.61c.173.333.316.68.43 1.037a.625.625 0 0 0 .446.418l1.978.488v2.214ZM10 4.42A5.586 5.586 0 0 0 4.42 10 5.586 5.586 0 0 0 10 15.58 5.586 5.586 0 0 0 15.58 10 5.586 5.586 0 0 0 10 4.42Zm0 9.91a4.33 4.33 0 1 1 0-8.66 4.33 4.33 0 0 1 0 8.66Zm2.09-2.963a1.995 1.995 0 0 1-1.465 1.92v.29a.625.625 0 1 1-1.25 0v-.29a2.001 2.001 0 0 1-1.424-1.521.625.625 0 1 1 1.225-.251.745.745 0 0 0 .726.593h.196a.742.742 0 0 0 .741-.741c0-.646-.587-.742-.937-.742a1.991 1.991 0 0 1-.527-3.912v-.29a.625.625 0 0 1 1.25 0v.29a2.001 2.001 0 0 1 1.424 1.521.625.625 0 1 1-1.225.251.745.745 0 0 0-.726-.593h-.196a.742.742 0 0 0 0 1.483c1.288 0 2.187.819 2.187 1.992Z"
                    fill="currentColor"/>
        </g>
        <defs>
            <clipPath id="a">
                <path fill="currentColor" d="M0 0h20v20H0z"/>
            </clipPath>
        </defs>
    </symbol>
    <symbol fill="none" xmlns="http://www.w3.org/2000/svg" viewBox="0 0 20 20" id="copy">
        <g clip-path="url(#clip0_1_2)">
            <path d="M13.2078 3.40842H15.2967C15.3398 3.40856 15.3824 3.40062 15.4223 3.38507C15.4621 3.36951 15.4983 3.34664 15.5288 3.31778C15.5592 3.28892 15.5834 3.25463 15.5998 3.21689C15.6162 3.17915 15.6246 3.13871 15.6244 3.09789V1.47368C15.6244 1.22243 15.5191 0.98146 15.3315 0.803794C15.144 0.626127 14.8897 0.526316 14.6244 0.526316H5.16667C5.07826 0.526316 4.99348 0.559586 4.93096 0.618808C4.86845 0.67803 4.83333 0.758353 4.83333 0.842105V3.64526C4.83333 3.89652 4.72798 4.13749 4.54044 4.31515C4.3529 4.49282 4.09855 4.59263 3.83333 4.59263H0.874444C0.786039 4.59263 0.701254 4.6259 0.638742 4.68512C0.57623 4.74435 0.541111 4.82467 0.541111 4.90842V18.5263C0.541111 18.7776 0.646468 19.0185 0.834004 19.1962C1.02154 19.3739 1.27589 19.4737 1.54111 19.4737H14.6244C14.8897 19.4737 15.144 19.3739 15.3315 19.1962C15.5191 19.0185 15.6244 18.7776 15.6244 18.5263V18.2526C15.6238 18.1796 15.5963 18.1092 15.5465 18.0534C15.4968 17.9977 15.4281 17.9601 15.3522 17.9474C15.0428 17.8916 14.7565 17.7536 14.5267 17.5495L13.8522 16.9505C13.6886 16.8047 13.5582 16.6287 13.469 16.4334C13.3798 16.2381 13.3336 16.0276 13.3333 15.8147V11.3905C13.3332 11.3154 13.3043 11.2428 13.252 11.1862C13.1997 11.1297 13.1275 11.0931 13.0489 11.0832C12.47 11.0084 11.2078 10.6789 11.2078 9.21053V5.30316C11.2078 4.80064 11.4185 4.31871 11.7936 3.96338C12.1686 3.60804 12.6773 3.40842 13.2078 3.40842ZM3.91667 16.3158C3.91667 16.3995 3.88155 16.4799 3.81904 16.5391C3.75652 16.5983 3.67174 16.6316 3.58333 16.6316C3.49493 16.6316 3.41014 16.5983 3.34763 16.5391C3.28512 16.4799 3.25 16.3995 3.25 16.3158V13.9653L3.06667 14.0874C2.9944 14.1334 2.90597 14.1509 2.82031 14.1359C2.73464 14.121 2.65855 14.0749 2.60831 14.0075C2.55807 13.9401 2.53767 13.8567 2.55149 13.7753C2.5653 13.6938 2.61223 13.6207 2.68222 13.5716L3.39111 13.0979C3.44101 13.0645 3.49963 13.0448 3.56056 13.0408C3.6215 13.0369 3.68241 13.0489 3.73664 13.0755C3.79088 13.1021 3.83635 13.1423 3.8681 13.1917C3.89985 13.2412 3.91665 13.2979 3.91667 13.3558V16.3158V16.3158ZM4.06222 11.8158C3.33889 11.8158 2.75 11.2579 2.75 10.5726V9.46737C2.75 8.78105 3.33889 8.22421 4.06222 8.22421C4.78556 8.22421 5.37444 8.78211 5.37444 9.46632V10.5716C5.37444 11.2579 4.78556 11.8158 4.06333 11.8158H4.06222ZM7.70778 15.3884C7.70778 16.0737 7.11889 16.6316 6.39667 16.6316C5.67222 16.6316 5.08333 16.0737 5.08333 15.3884V14.2832C5.08333 13.5968 5.67222 13.04 6.39556 13.04C7.11889 13.04 7.70778 13.5979 7.70778 14.2821V15.3874V15.3884ZM7.70778 11.5C7.70778 11.5415 7.69916 11.5825 7.6824 11.6208C7.66565 11.6592 7.6411 11.694 7.61015 11.7233C7.57919 11.7526 7.54245 11.7759 7.502 11.7918C7.46156 11.8076 7.41822 11.8158 7.37444 11.8158C7.33067 11.8158 7.28732 11.8076 7.24688 11.7918C7.20644 11.7759 7.16969 11.7526 7.13874 11.7233C7.10779 11.694 7.08324 11.6592 7.06648 11.6208C7.04973 11.5825 7.04111 11.5415 7.04111 11.5V9.14947L6.85889 9.27158C6.78662 9.31764 6.69819 9.33507 6.61253 9.32015C6.52687 9.30522 6.45077 9.25912 6.40053 9.19172C6.35029 9.12431 6.32989 9.04096 6.34371 8.95948C6.35752 8.87801 6.40445 8.8049 6.47444 8.75579L7.18222 8.28211C7.23212 8.24874 7.29074 8.229 7.35167 8.22505C7.41261 8.22109 7.47352 8.23308 7.52776 8.25969C7.58199 8.28631 7.62746 8.32652 7.65921 8.37596C7.69096 8.42539 7.70776 8.48214 7.70778 8.54V11.5V11.5ZM10.2078 16.3158C10.2078 16.3573 10.1992 16.3983 10.1824 16.4366C10.1657 16.475 10.1411 16.5098 10.1101 16.5391C10.0792 16.5684 10.0424 16.5917 10.002 16.6075C9.96156 16.6234 9.91822 16.6316 9.87444 16.6316C9.83067 16.6316 9.78732 16.6234 9.74688 16.6075C9.70644 16.5917 9.66969 16.5684 9.63874 16.5391C9.60779 16.5098 9.58324 16.475 9.56648 16.4366C9.54973 16.3983 9.54111 16.3573 9.54111 16.3158V13.9653L9.35889 14.0874C9.28662 14.1334 9.19819 14.1509 9.11253 14.1359C9.02687 14.121 8.95077 14.0749 8.90053 14.0075C8.85029 13.9401 8.82989 13.8567 8.84371 13.7753C8.85752 13.6938 8.90445 13.6207 8.97444 13.5716L9.68222 13.0979C9.73212 13.0645 9.79074 13.0448 9.85167 13.0408C9.91261 13.0369 9.97352 13.0489 10.0278 13.0755C10.082 13.1021 10.1275 13.1423 10.1592 13.1917C10.191 13.2412 10.2078 13.2979 10.2078 13.3558V16.3158V16.3158ZM10.2078 11.5C10.2078 11.5415 10.1992 11.5825 10.1824 11.6208C10.1657 11.6592 10.1411 11.694 10.1101 11.7233C10.0792 11.7526 10.0424 11.7759 10.002 11.7918C9.96156 11.8076 9.91822 11.8158 9.87444 11.8158C9.83067 11.8158 9.78732 11.8076 9.74688 11.7918C9.70644 11.7759 9.66969 11.7526 9.63874 11.7233C9.60779 11.694 9.58324 11.6592 9.56648 11.6208C9.54973 11.5825 9.54111 11.5415 9.54111 11.5V9.14947L9.35889 9.27158C9.28662 9.31764 9.19819 9.33507 9.11253 9.32015C9.02687 9.30522 8.95077 9.25912 8.90053 9.19172C8.85029 9.12431 8.82989 9.04096 8.84371 8.95948C8.85752 8.87801 8.90445 8.8049 8.97444 8.75579L9.68222 8.28211C9.73212 8.24874 9.79074 8.229 9.85167 8.22505C9.91261 8.22109 9.97352 8.23308 10.0278 8.25969C10.082 8.28631 10.1275 8.32652 10.1592 8.37596C10.191 8.42539 10.2078 8.48214 10.2078 8.54V11.5V11.5ZM10.2078 5.75684C10.2078 6.44211 9.61889 7 8.89667 7C8.17222 7 7.58333 6.44211 7.58333 5.75684V4.65158C7.58333 3.96632 8.17222 3.40842 8.89555 3.40842C9.61889 3.40842 10.2078 3.96632 10.2078 4.65053V5.75579V5.75684Z"
                  fill="currentColor"/>
            <path d="M4.16667 1.09263V3.64526C4.16667 3.72902 4.13155 3.80934 4.06903 3.86856C4.00652 3.92778 3.92174 3.96105 3.83333 3.96105H1.13889C1.10595 3.96102 1.07375 3.95175 1.04637 3.9344C1.01899 3.91705 0.997649 3.8924 0.985047 3.86356C0.972444 3.83473 0.969144 3.803 0.975563 3.77239C0.981982 3.74178 0.997831 3.71366 1.02111 3.69158L3.88222 0.981052C3.90553 0.958998 3.93521 0.943983 3.96752 0.937902C3.99984 0.931821 4.03332 0.934948 4.06376 0.946887C4.0942 0.958826 4.12022 0.979042 4.13853 1.00498C4.15685 1.03092 4.16664 1.06142 4.16667 1.09263V1.09263ZM4.70889 9.46737V10.5726C4.70197 10.7306 4.63088 10.8799 4.51046 10.9893C4.39005 11.0988 4.22964 11.1599 4.06278 11.1599C3.89591 11.1599 3.7355 11.0988 3.61509 10.9893C3.49468 10.8799 3.42358 10.7306 3.41667 10.5726V9.46737C3.42358 9.30942 3.49468 9.16012 3.61509 9.05068C3.7355 8.94123 3.89591 8.88012 4.06278 8.88012C4.22964 8.88012 4.39005 8.94123 4.51046 9.05068C4.63088 9.16012 4.70197 9.30942 4.70889 9.46737ZM7.04111 14.2832V15.3884C7.03144 15.5444 6.95922 15.691 6.83922 15.7982C6.71921 15.9054 6.5605 15.9652 6.39555 15.9652C6.23061 15.9652 6.07189 15.9054 5.95189 15.7982C5.83189 15.691 5.75966 15.5444 5.75 15.3884V14.2832C5.75966 14.1272 5.83189 13.9806 5.95189 13.8733C6.07189 13.7661 6.23061 13.7064 6.39555 13.7064C6.5605 13.7064 6.71921 13.7661 6.83922 13.8733C6.95922 13.9806 7.03144 14.1272 7.04111 14.2832V14.2832ZM9.54111 4.65158V5.75684C9.53144 5.91284 9.45922 6.05944 9.33922 6.16665C9.21921 6.27386 9.0605 6.33358 8.89555 6.33358C8.73061 6.33358 8.57189 6.27386 8.45189 6.16665C8.33189 6.05944 8.25966 5.91284 8.25 5.75684V4.65158C8.25966 4.49558 8.33189 4.34898 8.45189 4.24177C8.57189 4.13456 8.73061 4.07484 8.89555 4.07484C9.0605 4.07484 9.21921 4.13456 9.33922 4.24177C9.45922 4.34898 9.53144 4.49558 9.54111 4.65158ZM18.1256 4.04H13.2089C12.4733 4.04 11.8756 4.60632 11.8756 5.30316V9.21053C11.8756 9.90737 12.4733 10.4737 13.2089 10.4737H14V15.8147C14 16.0705 14.1122 16.3158 14.3089 16.4905L14.9822 17.0884C15.168 17.2526 15.4126 17.3439 15.6667 17.3439C15.9207 17.3439 16.1653 17.2526 16.3511 17.0884L16.9811 16.5295C17.1428 16.3881 17.2488 16.1987 17.2815 15.9926C17.3143 15.7865 17.2718 15.576 17.1611 15.3958L16.9811 15.1032C16.9275 15.0159 16.8993 14.9167 16.8993 14.8158C16.8993 14.7148 16.9275 14.6157 16.9811 14.5284L17.1611 14.2368C17.2741 14.0531 17.3337 13.8442 17.3337 13.6316C17.3337 13.4189 17.2741 13.2101 17.1611 13.0263L16.9811 12.7347C16.9275 12.6475 16.8993 12.5483 16.8993 12.4474C16.8993 12.3464 16.9275 12.2473 16.9811 12.16C17.1756 11.8442 17.3333 11.64 17.3333 11.2632V10.4737H18.1256C18.86 10.4737 19.4589 9.90737 19.4589 9.21053V5.30316C19.4589 4.60632 18.86 4.04 18.1256 4.04ZM17 6.60526H14.3333C14.2896 6.60526 14.2462 6.59709 14.2058 6.58122C14.1653 6.56535 14.1286 6.54209 14.0976 6.51277C14.0667 6.48345 14.0421 6.44863 14.0254 6.41032C14.0086 6.37201 14 6.33094 14 6.28947C14 6.248 14.0086 6.20694 14.0254 6.16863C14.0421 6.13031 14.0667 6.0955 14.0976 6.06618C14.1286 6.03685 14.1653 6.01359 14.2058 5.99772C14.2462 5.98185 14.2896 5.97368 14.3333 5.97368H17C17.0438 5.97368 17.0871 5.98185 17.1276 5.99772C17.168 6.01359 17.2047 6.03685 17.2357 6.06618C17.2667 6.0955 17.2912 6.13031 17.308 6.16863C17.3247 6.20694 17.3333 6.248 17.3333 6.28947C17.3333 6.33094 17.3247 6.37201 17.308 6.41032C17.2912 6.44863 17.2667 6.48345 17.2357 6.51277C17.2047 6.54209 17.168 6.56535 17.1276 6.58122C17.0871 6.59709 17.0438 6.60526 17 6.60526V6.60526Z"
                  fill="currentColor"/>
        </g>
        <defs>
            <clipPath id="clip0_1_2">
                <rect width="20" height="20" fill="white"/>
            </clipPath>
        </defs>
    </symbol>
</svg>
