<svg width="14" height="9" viewBox="0 0 14 9" fill="none" xmlns="http://www.w3.org/2000/svg">
<path d="M13.6658 1.58039C13.6701 1.40227 13.613 1.22735 13.5023 1.07995C13.3915 0.932559 13.2327 0.820011 13.0479 0.757957C12.8631 0.695904 12.6616 0.687429 12.4712 0.733711C12.2809 0.779992 12.1113 0.87873 11.9859 1.0162L7.01468 6.26136L2.04519 1.0162C1.96787 0.921104 1.86971 0.841466 1.75676 0.78227C1.64381 0.723074 1.51852 0.685595 1.3888 0.672181C1.25908 0.658767 1.12773 0.669707 1.00291 0.704314C0.878083 0.738922 0.762473 0.796452 0.663388 0.873303C0.564303 0.950153 0.483929 1.04467 0.427127 1.15093C0.370324 1.25719 0.338421 1.37291 0.333387 1.49083C0.328354 1.60876 0.350238 1.72636 0.397813 1.83626C0.445388 1.94616 0.517552 2.046 0.609792 2.12952L6.29419 8.13476C6.38323 8.22906 6.49374 8.30479 6.61829 8.35671C6.74283 8.40864 6.8784 8.43553 7.01556 8.43553C7.15271 8.43553 7.28828 8.40864 7.41283 8.35671C7.53737 8.30479 7.64799 8.22906 7.73703 8.13476L13.4269 2.12952C13.576 1.97782 13.6607 1.78324 13.666 1.58039L13.6658 1.58039Z" fill="black"/>
</svg>
