<svg width="380" height="432" viewBox="0 0 380 432" fill="none" xmlns="http://www.w3.org/2000/svg" preserveAspectRatio="none">
<path d="M37.4451 9.85481L37.5853 10.1238H37.8886H65.7478H66.0222L66.1695 9.89235L72.1512 0.5H101.119L106.547 9.87429L106.691 10.1238H106.979H121.466H134.839H135.1L135.249 9.90905L141.786 0.5H170.237L176.774 9.90905L176.923 10.1238H177.185H190.557H204.487H204.761L204.909 9.89235L210.89 0.5H239.328L245.865 9.90905L246.014 10.1238H246.276H273.578H273.852L273.999 9.89235L279.981 0.5H309.506L314.934 9.87429L315.078 10.1238H315.367H343.226H343.514L343.659 9.87429L349.086 0.5H360C370.77 0.5 379.5 9.23045 379.5 20V29.6259L370.869 33.767L370.585 33.9031V34.2178V60.9505V61.2067L370.793 61.3563L379.5 67.6225V95.923L370.869 100.064L370.585 100.2V100.515V127.248V127.504L370.793 127.653L379.5 133.92V161.731L370.81 167.464L370.585 167.612V167.881V194.614V194.897L370.828 195.043L379.5 200.244V228.549L370.828 233.749L370.585 233.895V234.178V260.911V261.167L370.793 261.317L379.5 267.583V295.394L370.81 301.127L370.585 301.275V301.545V327.208V327.464L370.793 327.614L379.5 333.88V361.17L370.793 367.436L370.585 367.585V367.842V394.574V394.857L370.828 395.003L379.5 400.204V412C379.5 422.77 370.77 431.5 360 431.5H347.967L343.655 424.259L343.51 424.015H343.226H315.367H315.115L314.965 424.216L309.544 431.5H278.877L274.564 424.259L274.419 424.015H274.135H246.276H246.025L245.875 424.216L240.453 431.5H209.786L205.474 424.259L205.328 424.015H205.044H176.07H175.786L175.641 424.259L171.329 431.5H140.695L136.383 424.259L136.237 424.015H135.953H106.979H106.695L106.55 424.259L102.238 431.5H71.5708L66.1489 424.216L65.9989 424.015H65.7478H37.8886H37.6374L37.4875 424.216L32.0656 431.5H20C9.23045 431.5 0.5 422.77 0.5 412V400.204L9.17212 395.003L9.41496 394.857V394.574V367.842V367.558L9.17212 367.413L0.5 362.212V333.372L9.17212 328.171L9.41496 328.026V327.743V301.01V300.741L9.19029 300.593L0.5 294.86V267.061L9.19029 261.328L9.41496 261.18V260.911V234.178V233.895L9.17212 233.749L0.5 228.549V200.244L9.17212 195.043L9.41496 194.897V194.614V180.98V167.213V166.926L9.16734 166.781L0.5 161.713V134.467L9.19029 128.734L9.41496 128.586V128.317V101.584V101.301L9.17212 101.155L0.5 95.9545V67.6225L9.20702 61.3563L9.41496 61.2067V60.9505V35.2871V35.004L9.17212 34.8583L0.5 29.6574V20C0.5 9.23044 9.23045 0.5 20 0.5H23.75H32.5706L37.4451 9.85481Z" fill="url(#paint0_linear_401_11721)"/>
<path d="M37.4451 9.85481L37.5853 10.1238H37.8886H65.7478H66.0222L66.1695 9.89235L72.1512 0.5H101.119L106.547 9.87429L106.691 10.1238H106.979H121.466H134.839H135.1L135.249 9.90905L141.786 0.5H170.237L176.774 9.90905L176.923 10.1238H177.185H190.557H204.487H204.761L204.909 9.89235L210.89 0.5H239.328L245.865 9.90905L246.014 10.1238H246.276H273.578H273.852L273.999 9.89235L279.981 0.5H309.506L314.934 9.87429L315.078 10.1238H315.367H343.226H343.514L343.659 9.87429L349.086 0.5H360C370.77 0.5 379.5 9.23045 379.5 20V29.6259L370.869 33.767L370.585 33.9031V34.2178V60.9505V61.2067L370.793 61.3563L379.5 67.6225V95.923L370.869 100.064L370.585 100.2V100.515V127.248V127.504L370.793 127.653L379.5 133.92V161.731L370.81 167.464L370.585 167.612V167.881V194.614V194.897L370.828 195.043L379.5 200.244V228.549L370.828 233.749L370.585 233.895V234.178V260.911V261.167L370.793 261.317L379.5 267.583V295.394L370.81 301.127L370.585 301.275V301.545V327.208V327.464L370.793 327.614L379.5 333.88V361.17L370.793 367.436L370.585 367.585V367.842V394.574V394.857L370.828 395.003L379.5 400.204V412C379.5 422.77 370.77 431.5 360 431.5H347.967L343.655 424.259L343.51 424.015H343.226H315.367H315.115L314.965 424.216L309.544 431.5H278.877L274.564 424.259L274.419 424.015H274.135H246.276H246.025L245.875 424.216L240.453 431.5H209.786L205.474 424.259L205.328 424.015H205.044H176.07H175.786L175.641 424.259L171.329 431.5H140.695L136.383 424.259L136.237 424.015H135.953H106.979H106.695L106.55 424.259L102.238 431.5H71.5708L66.1489 424.216L65.9989 424.015H65.7478H37.8886H37.6374L37.4875 424.216L32.0656 431.5H20C9.23045 431.5 0.5 422.77 0.5 412V400.204L9.17212 395.003L9.41496 394.857V394.574V367.842V367.558L9.17212 367.413L0.5 362.212V333.372L9.17212 328.171L9.41496 328.026V327.743V301.01V300.741L9.19029 300.593L0.5 294.86V267.061L9.19029 261.328L9.41496 261.18V260.911V234.178V233.895L9.17212 233.749L0.5 228.549V200.244L9.17212 195.043L9.41496 194.897V194.614V180.98V167.213V166.926L9.16734 166.781L0.5 161.713V134.467L9.19029 128.734L9.41496 128.586V128.317V101.584V101.301L9.17212 101.155L0.5 95.9545V67.6225L9.20702 61.3563L9.41496 61.2067V60.9505V35.2871V35.004L9.17212 34.8583L0.5 29.6574V20C0.5 9.23044 9.23045 0.5 20 0.5H23.75H32.5706L37.4451 9.85481Z" fill="white" fill-opacity="0.03"/>
<path d="M37.4451 9.85481L37.5853 10.1238H37.8886H65.7478H66.0222L66.1695 9.89235L72.1512 0.5H101.119L106.547 9.87429L106.691 10.1238H106.979H121.466H134.839H135.1L135.249 9.90905L141.786 0.5H170.237L176.774 9.90905L176.923 10.1238H177.185H190.557H204.487H204.761L204.909 9.89235L210.89 0.5H239.328L245.865 9.90905L246.014 10.1238H246.276H273.578H273.852L273.999 9.89235L279.981 0.5H309.506L314.934 9.87429L315.078 10.1238H315.367H343.226H343.514L343.659 9.87429L349.086 0.5H360C370.77 0.5 379.5 9.23045 379.5 20V29.6259L370.869 33.767L370.585 33.9031V34.2178V60.9505V61.2067L370.793 61.3563L379.5 67.6225V95.923L370.869 100.064L370.585 100.2V100.515V127.248V127.504L370.793 127.653L379.5 133.92V161.731L370.81 167.464L370.585 167.612V167.881V194.614V194.897L370.828 195.043L379.5 200.244V228.549L370.828 233.749L370.585 233.895V234.178V260.911V261.167L370.793 261.317L379.5 267.583V295.394L370.81 301.127L370.585 301.275V301.545V327.208V327.464L370.793 327.614L379.5 333.88V361.17L370.793 367.436L370.585 367.585V367.842V394.574V394.857L370.828 395.003L379.5 400.204V412C379.5 422.77 370.77 431.5 360 431.5H347.967L343.655 424.259L343.51 424.015H343.226H315.367H315.115L314.965 424.216L309.544 431.5H278.877L274.564 424.259L274.419 424.015H274.135H246.276H246.025L245.875 424.216L240.453 431.5H209.786L205.474 424.259L205.328 424.015H205.044H176.07H175.786L175.641 424.259L171.329 431.5H140.695L136.383 424.259L136.237 424.015H135.953H106.979H106.695L106.55 424.259L102.238 431.5H71.5708L66.1489 424.216L65.9989 424.015H65.7478H37.8886H37.6374L37.4875 424.216L32.0656 431.5H20C9.23045 431.5 0.5 422.77 0.5 412V400.204L9.17212 395.003L9.41496 394.857V394.574V367.842V367.558L9.17212 367.413L0.5 362.212V333.372L9.17212 328.171L9.41496 328.026V327.743V301.01V300.741L9.19029 300.593L0.5 294.86V267.061L9.19029 261.328L9.41496 261.18V260.911V234.178V233.895L9.17212 233.749L0.5 228.549V200.244L9.17212 195.043L9.41496 194.897V194.614V180.98V167.213V166.926L9.16734 166.781L0.5 161.713V134.467L9.19029 128.734L9.41496 128.586V128.317V101.584V101.301L9.17212 101.155L0.5 95.9545V67.6225L9.20702 61.3563L9.41496 61.2067V60.9505V35.2871V35.004L9.17212 34.8583L0.5 29.6574V20C0.5 9.23044 9.23045 0.5 20 0.5H23.75H32.5706L37.4451 9.85481Z" stroke="url(#paint1_radial_401_11721)"/>
<path d="M37.4451 9.85481L37.5853 10.1238H37.8886H65.7478H66.0222L66.1695 9.89235L72.1512 0.5H101.119L106.547 9.87429L106.691 10.1238H106.979H121.466H134.839H135.1L135.249 9.90905L141.786 0.5H170.237L176.774 9.90905L176.923 10.1238H177.185H190.557H204.487H204.761L204.909 9.89235L210.89 0.5H239.328L245.865 9.90905L246.014 10.1238H246.276H273.578H273.852L273.999 9.89235L279.981 0.5H309.506L314.934 9.87429L315.078 10.1238H315.367H343.226H343.514L343.659 9.87429L349.086 0.5H360C370.77 0.5 379.5 9.23045 379.5 20V29.6259L370.869 33.767L370.585 33.9031V34.2178V60.9505V61.2067L370.793 61.3563L379.5 67.6225V95.923L370.869 100.064L370.585 100.2V100.515V127.248V127.504L370.793 127.653L379.5 133.92V161.731L370.81 167.464L370.585 167.612V167.881V194.614V194.897L370.828 195.043L379.5 200.244V228.549L370.828 233.749L370.585 233.895V234.178V260.911V261.167L370.793 261.317L379.5 267.583V295.394L370.81 301.127L370.585 301.275V301.545V327.208V327.464L370.793 327.614L379.5 333.88V361.17L370.793 367.436L370.585 367.585V367.842V394.574V394.857L370.828 395.003L379.5 400.204V412C379.5 422.77 370.77 431.5 360 431.5H347.967L343.655 424.259L343.51 424.015H343.226H315.367H315.115L314.965 424.216L309.544 431.5H278.877L274.564 424.259L274.419 424.015H274.135H246.276H246.025L245.875 424.216L240.453 431.5H209.786L205.474 424.259L205.328 424.015H205.044H176.07H175.786L175.641 424.259L171.329 431.5H140.695L136.383 424.259L136.237 424.015H135.953H106.979H106.695L106.55 424.259L102.238 431.5H71.5708L66.1489 424.216L65.9989 424.015H65.7478H37.8886H37.6374L37.4875 424.216L32.0656 431.5H20C9.23045 431.5 0.5 422.77 0.5 412V400.204L9.17212 395.003L9.41496 394.857V394.574V367.842V367.558L9.17212 367.413L0.5 362.212V333.372L9.17212 328.171L9.41496 328.026V327.743V301.01V300.741L9.19029 300.593L0.5 294.86V267.061L9.19029 261.328L9.41496 261.18V260.911V234.178V233.895L9.17212 233.749L0.5 228.549V200.244L9.17212 195.043L9.41496 194.897V194.614V180.98V167.213V166.926L9.16734 166.781L0.5 161.713V134.467L9.19029 128.734L9.41496 128.586V128.317V101.584V101.301L9.17212 101.155L0.5 95.9545V67.6225L9.20702 61.3563L9.41496 61.2067V60.9505V35.2871V35.004L9.17212 34.8583L0.5 29.6574V20C0.5 9.23044 9.23045 0.5 20 0.5H23.75H32.5706L37.4451 9.85481Z" stroke="url(#paint2_radial_401_11721)"/>
<path d="M37.4451 9.85481L37.5853 10.1238H37.8886H65.7478H66.0222L66.1695 9.89235L72.1512 0.5H101.119L106.547 9.87429L106.691 10.1238H106.979H121.466H134.839H135.1L135.249 9.90905L141.786 0.5H170.237L176.774 9.90905L176.923 10.1238H177.185H190.557H204.487H204.761L204.909 9.89235L210.89 0.5H239.328L245.865 9.90905L246.014 10.1238H246.276H273.578H273.852L273.999 9.89235L279.981 0.5H309.506L314.934 9.87429L315.078 10.1238H315.367H343.226H343.514L343.659 9.87429L349.086 0.5H360C370.77 0.5 379.5 9.23045 379.5 20V29.6259L370.869 33.767L370.585 33.9031V34.2178V60.9505V61.2067L370.793 61.3563L379.5 67.6225V95.923L370.869 100.064L370.585 100.2V100.515V127.248V127.504L370.793 127.653L379.5 133.92V161.731L370.81 167.464L370.585 167.612V167.881V194.614V194.897L370.828 195.043L379.5 200.244V228.549L370.828 233.749L370.585 233.895V234.178V260.911V261.167L370.793 261.317L379.5 267.583V295.394L370.81 301.127L370.585 301.275V301.545V327.208V327.464L370.793 327.614L379.5 333.88V361.17L370.793 367.436L370.585 367.585V367.842V394.574V394.857L370.828 395.003L379.5 400.204V412C379.5 422.77 370.77 431.5 360 431.5H347.967L343.655 424.259L343.51 424.015H343.226H315.367H315.115L314.965 424.216L309.544 431.5H278.877L274.564 424.259L274.419 424.015H274.135H246.276H246.025L245.875 424.216L240.453 431.5H209.786L205.474 424.259L205.328 424.015H205.044H176.07H175.786L175.641 424.259L171.329 431.5H140.695L136.383 424.259L136.237 424.015H135.953H106.979H106.695L106.55 424.259L102.238 431.5H71.5708L66.1489 424.216L65.9989 424.015H65.7478H37.8886H37.6374L37.4875 424.216L32.0656 431.5H20C9.23045 431.5 0.5 422.77 0.5 412V400.204L9.17212 395.003L9.41496 394.857V394.574V367.842V367.558L9.17212 367.413L0.5 362.212V333.372L9.17212 328.171L9.41496 328.026V327.743V301.01V300.741L9.19029 300.593L0.5 294.86V267.061L9.19029 261.328L9.41496 261.18V260.911V234.178V233.895L9.17212 233.749L0.5 228.549V200.244L9.17212 195.043L9.41496 194.897V194.614V180.98V167.213V166.926L9.16734 166.781L0.5 161.713V134.467L9.19029 128.734L9.41496 128.586V128.317V101.584V101.301L9.17212 101.155L0.5 95.9545V67.6225L9.20702 61.3563L9.41496 61.2067V60.9505V35.2871V35.004L9.17212 34.8583L0.5 29.6574V20C0.5 9.23044 9.23045 0.5 20 0.5H23.75H32.5706L37.4451 9.85481Z" stroke="#00FFC4" stroke-opacity="0.1"/>
<defs>
<linearGradient id="paint0_linear_401_11721" x1="0" y1="0" x2="361.445" y2="446.739" gradientUnits="userSpaceOnUse">
<stop offset="0.161458" stop-color="#00FFC4"/>
<stop offset="0.398154" stop-color="#00D5A4"/>
<stop offset="1"/>
</linearGradient>
<radialGradient id="paint1_radial_401_11721" cx="0" cy="0" r="1" gradientUnits="userSpaceOnUse" gradientTransform="translate(89.3 435.825) rotate(-3.9013) scale(113.789 92.0426)">
<stop stop-color="#00FFC4"/>
<stop offset="1" stop-color="#00FFC4" stop-opacity="0"/>
</radialGradient>
<radialGradient id="paint2_radial_401_11721" cx="0" cy="0" r="1" gradientUnits="userSpaceOnUse" gradientTransform="translate(300.2 6.39365e-06) rotate(162.651) scale(88.5798 72.182)">
<stop stop-color="#00FFC4"/>
<stop offset="1" stop-color="#00FFC4" stop-opacity="0"/>
</radialGradient>
</defs>
</svg>
