<svg width="1593" height="432" viewBox="0 0 1593 432" fill="none" xmlns="http://www.w3.org/2000/svg" preserveAspectRatio="none">
<g clip-path="url(#clip0_3_183)">
<g clip-path="url(#clip1_3_183)">
<mask id="mask0_3_183" style="mask-type:luminance" maskUnits="userSpaceOnUse" x="-303" y="0" width="2600" height="432">
<path d="M2297 0H-303V432H2297V0Z" fill="white"/>
</mask>
<g mask="url(#mask0_3_183)">
<g style="mix-blend-mode:luminosity" opacity="0.8">
<path d="M-180.555 9.85481L-180.415 10.1238H-180.111H-152.252H-151.978L-151.83 9.89235L-145.849 0.5H-116.881L-111.453 9.87429L-111.309 10.1238H-111.021H-96.534H-83.161H-82.9L-82.751 9.90905L-76.214 0.5H-47.763L-41.226 9.90905L-41.077 10.1238H-40.815H-27.443H-13.513H-13.239L-13.091 9.89235L-7.10999 0.5H21.328L27.865 9.90905L28.014 10.1238H28.276H55.578H55.852L55.999 9.89235L61.981 0.5H91.506L96.934 9.87429L97.078 10.1238H97.367H125.226H125.514L125.659 9.87429L131.086 0.5H142C152.77 0.5 161.5 9.23045 161.5 20V29.6259L152.869 33.767L152.585 33.9031V34.2178V60.9505V61.2067L152.793 61.3563L161.5 67.6225V95.923L152.869 100.064L152.585 100.2V100.515V127.248V127.504L152.793 127.653L161.5 133.92V161.731L152.81 167.464L152.585 167.612V167.881V194.614V194.897L152.828 195.043L161.5 200.244V228.549L152.828 233.749L152.585 233.895V234.178V260.911V261.167L152.793 261.317L161.5 267.583V295.394L152.81 301.127L152.585 301.275V301.545V327.208V327.464L152.793 327.614L161.5 333.88V361.17L152.793 367.436L152.585 367.585V367.842V394.574V394.857L152.828 395.003L161.5 400.204V412C161.5 422.77 152.77 431.5 142 431.5H129.967L125.655 424.259L125.51 424.015H125.226H97.367H97.115L96.965 424.216L91.544 431.5H60.877L56.564 424.259L56.419 424.015H56.135H28.276H28.025L27.875 424.216L22.453 431.5H-8.21399L-12.526 424.259L-12.672 424.015H-12.956H-41.93H-42.214L-42.359 424.259L-46.671 431.5H-77.305L-81.617 424.259L-81.763 424.015H-82.047H-111.021H-111.305L-111.45 424.259L-115.762 431.5H-146.429L-151.851 424.216L-152.001 424.015H-152.252H-180.111H-180.363L-180.513 424.216L-185.934 431.5H-198C-208.77 431.5 -217.5 422.77 -217.5 412V400.204L-208.828 395.003L-208.585 394.857V394.574V367.842V367.558L-208.828 367.413L-217.5 362.212V333.372L-208.828 328.171L-208.585 328.026V327.743V301.01V300.741L-208.81 300.593L-217.5 294.86V267.061L-208.81 261.328L-208.585 261.18V260.911V234.178V233.895L-208.828 233.749L-217.5 228.549V200.244L-208.828 195.043L-208.585 194.897V194.614V180.98V167.213V166.926L-208.833 166.781L-217.5 161.713V134.467L-208.81 128.734L-208.585 128.586V128.317V101.584V101.301L-208.828 101.155L-217.5 95.9545V67.6225L-208.793 61.3563L-208.585 61.2067V60.9505V35.2871V35.004L-208.828 34.8583L-217.5 29.6574V20C-217.5 9.23044 -208.77 0.5 -198 0.5H-194.25H-185.429L-180.555 9.85481Z" fill="url(#paint0_linear_3_183)"/>
<path d="M-180.555 9.85481L-180.415 10.1238H-180.111H-152.252H-151.978L-151.83 9.89235L-145.849 0.5H-116.881L-111.453 9.87429L-111.309 10.1238H-111.021H-96.534H-83.161H-82.9L-82.751 9.90905L-76.214 0.5H-47.763L-41.226 9.90905L-41.077 10.1238H-40.815H-27.443H-13.513H-13.239L-13.091 9.89235L-7.10999 0.5H21.328L27.865 9.90905L28.014 10.1238H28.276H55.578H55.852L55.999 9.89235L61.981 0.5H91.506L96.934 9.87429L97.078 10.1238H97.367H125.226H125.514L125.659 9.87429L131.086 0.5H142C152.77 0.5 161.5 9.23045 161.5 20V29.6259L152.869 33.767L152.585 33.9031V34.2178V60.9505V61.2067L152.793 61.3563L161.5 67.6225V95.923L152.869 100.064L152.585 100.2V100.515V127.248V127.504L152.793 127.653L161.5 133.92V161.731L152.81 167.464L152.585 167.612V167.881V194.614V194.897L152.828 195.043L161.5 200.244V228.549L152.828 233.749L152.585 233.895V234.178V260.911V261.167L152.793 261.317L161.5 267.583V295.394L152.81 301.127L152.585 301.275V301.545V327.208V327.464L152.793 327.614L161.5 333.88V361.17L152.793 367.436L152.585 367.585V367.842V394.574V394.857L152.828 395.003L161.5 400.204V412C161.5 422.77 152.77 431.5 142 431.5H129.967L125.655 424.259L125.51 424.015H125.226H97.367H97.115L96.965 424.216L91.544 431.5H60.877L56.564 424.259L56.419 424.015H56.135H28.276H28.025L27.875 424.216L22.453 431.5H-8.21399L-12.526 424.259L-12.672 424.015H-12.956H-41.93H-42.214L-42.359 424.259L-46.671 431.5H-77.305L-81.617 424.259L-81.763 424.015H-82.047H-111.021H-111.305L-111.45 424.259L-115.762 431.5H-146.429L-151.851 424.216L-152.001 424.015H-152.252H-180.111H-180.363L-180.513 424.216L-185.934 431.5H-198C-208.77 431.5 -217.5 422.77 -217.5 412V400.204L-208.828 395.003L-208.585 394.857V394.574V367.842V367.558L-208.828 367.413L-217.5 362.212V333.372L-208.828 328.171L-208.585 328.026V327.743V301.01V300.741L-208.81 300.593L-217.5 294.86V267.061L-208.81 261.328L-208.585 261.18V260.911V234.178V233.895L-208.828 233.749L-217.5 228.549V200.244L-208.828 195.043L-208.585 194.897V194.614V180.98V167.213V166.926L-208.833 166.781L-217.5 161.713V134.467L-208.81 128.734L-208.585 128.586V128.317V101.584V101.301L-208.828 101.155L-217.5 95.9545V67.6225L-208.793 61.3563L-208.585 61.2067V60.9505V35.2871V35.004L-208.828 34.8583L-217.5 29.6574V20C-217.5 9.23044 -208.77 0.5 -198 0.5H-194.25H-185.429L-180.555 9.85481Z" fill="white" fill-opacity="0.03"/>
<path d="M130 78H-186C-187.105 78 -188 78.8954 -188 80V396C-188 397.105 -187.105 398 -186 398H130C131.105 398 132 397.105 132 396V80C132 78.8954 131.105 78 130 78Z" fill="url(#paint1_linear_3_183)"/>
<path d="M110 340H-166C-167.105 340 -168 340.895 -168 342V380C-168 381.105 -167.105 382 -166 382H110C111.105 382 112 381.105 112 380V342C112 340.895 111.105 340 110 340Z" fill="white" fill-opacity="0.07"/>
</g>
<mask id="mask1_3_183" style="mask-type:alpha" maskUnits="userSpaceOnUse" x="-218" y="0" width="380" height="432">
<g style="mix-blend-mode:luminosity" opacity="0.8">
<path d="M-180.555 9.85481L-180.415 10.1238H-180.111H-152.252H-151.978L-151.83 9.89235L-145.849 0.5H-116.881L-111.453 9.87429L-111.309 10.1238H-111.021H-96.534H-83.161H-82.9L-82.751 9.90905L-76.214 0.5H-47.763L-41.226 9.90905L-41.077 10.1238H-40.815H-27.443H-13.513H-13.239L-13.091 9.89235L-7.10999 0.5H21.328L27.865 9.90905L28.014 10.1238H28.276H55.578H55.852L55.999 9.89235L61.981 0.5H91.506L96.934 9.87429L97.078 10.1238H97.367H125.226H125.514L125.659 9.87429L131.086 0.5H142C152.77 0.5 161.5 9.23045 161.5 20V29.6259L152.869 33.767L152.585 33.9031V34.2178V60.9505V61.2067L152.793 61.3563L161.5 67.6225V95.923L152.869 100.064L152.585 100.2V100.515V127.248V127.504L152.793 127.653L161.5 133.92V161.731L152.81 167.464L152.585 167.612V167.881V194.614V194.897L152.828 195.043L161.5 200.244V228.549L152.828 233.749L152.585 233.895V234.178V260.911V261.167L152.793 261.317L161.5 267.583V295.394L152.81 301.127L152.585 301.275V301.545V327.208V327.464L152.793 327.614L161.5 333.88V361.17L152.793 367.436L152.585 367.585V367.842V394.574V394.857L152.828 395.003L161.5 400.204V412C161.5 422.77 152.77 431.5 142 431.5H129.967L125.655 424.259L125.51 424.015H125.226H97.367H97.115L96.965 424.216L91.544 431.5H60.877L56.564 424.259L56.419 424.015H56.135H28.276H28.025L27.875 424.216L22.453 431.5H-8.21399L-12.526 424.259L-12.672 424.015H-12.956H-41.93H-42.214L-42.359 424.259L-46.671 431.5H-77.305L-81.617 424.259L-81.763 424.015H-82.047H-111.021H-111.305L-111.45 424.259L-115.762 431.5H-146.429L-151.851 424.216L-152.001 424.015H-152.252H-180.111H-180.363L-180.513 424.216L-185.934 431.5H-198C-208.77 431.5 -217.5 422.77 -217.5 412V400.204L-208.828 395.003L-208.585 394.857V394.574V367.842V367.558L-208.828 367.413L-217.5 362.212V333.372L-208.828 328.171L-208.585 328.026V327.743V301.01V300.741L-208.81 300.593L-217.5 294.86V267.061L-208.81 261.328L-208.585 261.18V260.911V234.178V233.895L-208.828 233.749L-217.5 228.549V200.244L-208.828 195.043L-208.585 194.897V194.614V180.98V167.213V166.926L-208.833 166.781L-217.5 161.713V134.467L-208.81 128.734L-208.585 128.586V128.317V101.584V101.301L-208.828 101.155L-217.5 95.9545V67.6225L-208.793 61.3563L-208.585 61.2067V60.9505V35.2871V35.004L-208.828 34.8583L-217.5 29.6574V20C-217.5 9.23044 -208.77 0.5 -198 0.5H-194.25H-185.429L-180.555 9.85481Z" fill="url(#paint2_linear_3_183)"/>
<path d="M-180.555 9.85481L-180.415 10.1238H-180.111H-152.252H-151.978L-151.83 9.89235L-145.849 0.5H-116.881L-111.453 9.87429L-111.309 10.1238H-111.021H-96.534H-83.161H-82.9L-82.751 9.90905L-76.214 0.5H-47.763L-41.226 9.90905L-41.077 10.1238H-40.815H-27.443H-13.513H-13.239L-13.091 9.89235L-7.10999 0.5H21.328L27.865 9.90905L28.014 10.1238H28.276H55.578H55.852L55.999 9.89235L61.981 0.5H91.506L96.934 9.87429L97.078 10.1238H97.367H125.226H125.514L125.659 9.87429L131.086 0.5H142C152.77 0.5 161.5 9.23045 161.5 20V29.6259L152.869 33.767L152.585 33.9031V34.2178V60.9505V61.2067L152.793 61.3563L161.5 67.6225V95.923L152.869 100.064L152.585 100.2V100.515V127.248V127.504L152.793 127.653L161.5 133.92V161.731L152.81 167.464L152.585 167.612V167.881V194.614V194.897L152.828 195.043L161.5 200.244V228.549L152.828 233.749L152.585 233.895V234.178V260.911V261.167L152.793 261.317L161.5 267.583V295.394L152.81 301.127L152.585 301.275V301.545V327.208V327.464L152.793 327.614L161.5 333.88V361.17L152.793 367.436L152.585 367.585V367.842V394.574V394.857L152.828 395.003L161.5 400.204V412C161.5 422.77 152.77 431.5 142 431.5H129.967L125.655 424.259L125.51 424.015H125.226H97.367H97.115L96.965 424.216L91.544 431.5H60.877L56.564 424.259L56.419 424.015H56.135H28.276H28.025L27.875 424.216L22.453 431.5H-8.21399L-12.526 424.259L-12.672 424.015H-12.956H-41.93H-42.214L-42.359 424.259L-46.671 431.5H-77.305L-81.617 424.259L-81.763 424.015H-82.047H-111.021H-111.305L-111.45 424.259L-115.762 431.5H-146.429L-151.851 424.216L-152.001 424.015H-152.252H-180.111H-180.363L-180.513 424.216L-185.934 431.5H-198C-208.77 431.5 -217.5 422.77 -217.5 412V400.204L-208.828 395.003L-208.585 394.857V394.574V367.842V367.558L-208.828 367.413L-217.5 362.212V333.372L-208.828 328.171L-208.585 328.026V327.743V301.01V300.741L-208.81 300.593L-217.5 294.86V267.061L-208.81 261.328L-208.585 261.18V260.911V234.178V233.895L-208.828 233.749L-217.5 228.549V200.244L-208.828 195.043L-208.585 194.897V194.614V180.98V167.213V166.926L-208.833 166.781L-217.5 161.713V134.467L-208.81 128.734L-208.585 128.586V128.317V101.584V101.301L-208.828 101.155L-217.5 95.9545V67.6225L-208.793 61.3563L-208.585 61.2067V60.9505V35.2871V35.004L-208.828 34.8583L-217.5 29.6574V20C-217.5 9.23044 -208.77 0.5 -198 0.5H-194.25H-185.429L-180.555 9.85481Z" fill="white" fill-opacity="0.03"/>
<path d="M-180.555 9.85481L-180.415 10.1238H-180.111H-152.252H-151.978L-151.83 9.89235L-145.849 0.5H-116.881L-111.453 9.87429L-111.309 10.1238H-111.021H-96.534H-83.161H-82.9L-82.751 9.90905L-76.214 0.5H-47.763L-41.226 9.90905L-41.077 10.1238H-40.815H-27.443H-13.513H-13.239L-13.091 9.89235L-7.10999 0.5H21.328L27.865 9.90905L28.014 10.1238H28.276H55.578H55.852L55.999 9.89235L61.981 0.5H91.506L96.934 9.87429L97.078 10.1238H97.367H125.226H125.514L125.659 9.87429L131.086 0.5H142C152.77 0.5 161.5 9.23045 161.5 20V29.6259L152.869 33.767L152.585 33.9031V34.2178V60.9505V61.2067L152.793 61.3563L161.5 67.6225V95.923L152.869 100.064L152.585 100.2V100.515V127.248V127.504L152.793 127.653L161.5 133.92V161.731L152.81 167.464L152.585 167.612V167.881V194.614V194.897L152.828 195.043L161.5 200.244V228.549L152.828 233.749L152.585 233.895V234.178V260.911V261.167L152.793 261.317L161.5 267.583V295.394L152.81 301.127L152.585 301.275V301.545V327.208V327.464L152.793 327.614L161.5 333.88V361.17L152.793 367.436L152.585 367.585V367.842V394.574V394.857L152.828 395.003L161.5 400.204V412C161.5 422.77 152.77 431.5 142 431.5H129.967L125.655 424.259L125.51 424.015H125.226H97.367H97.115L96.965 424.216L91.544 431.5H60.877L56.564 424.259L56.419 424.015H56.135H28.276H28.025L27.875 424.216L22.453 431.5H-8.21399L-12.526 424.259L-12.672 424.015H-12.956H-41.93H-42.214L-42.359 424.259L-46.671 431.5H-77.305L-81.617 424.259L-81.763 424.015H-82.047H-111.021H-111.305L-111.45 424.259L-115.762 431.5H-146.429L-151.851 424.216L-152.001 424.015H-152.252H-180.111H-180.363L-180.513 424.216L-185.934 431.5H-198C-208.77 431.5 -217.5 422.77 -217.5 412V400.204L-208.828 395.003L-208.585 394.857V394.574V367.842V367.558L-208.828 367.413L-217.5 362.212V333.372L-208.828 328.171L-208.585 328.026V327.743V301.01V300.741L-208.81 300.593L-217.5 294.86V267.061L-208.81 261.328L-208.585 261.18V260.911V234.178V233.895L-208.828 233.749L-217.5 228.549V200.244L-208.828 195.043L-208.585 194.897V194.614V180.98V167.213V166.926L-208.833 166.781L-217.5 161.713V134.467L-208.81 128.734L-208.585 128.586V128.317V101.584V101.301L-208.828 101.155L-217.5 95.9545V67.6225L-208.793 61.3563L-208.585 61.2067V60.9505V35.2871V35.004L-208.828 34.8583L-217.5 29.6574V20C-217.5 9.23044 -208.77 0.5 -198 0.5H-194.25H-185.429L-180.555 9.85481Z" stroke="url(#paint3_radial_3_183)"/>
<path d="M-180.555 9.85481L-180.415 10.1238H-180.111H-152.252H-151.978L-151.83 9.89235L-145.849 0.5H-116.881L-111.453 9.87429L-111.309 10.1238H-111.021H-96.534H-83.161H-82.9L-82.751 9.90905L-76.214 0.5H-47.763L-41.226 9.90905L-41.077 10.1238H-40.815H-27.443H-13.513H-13.239L-13.091 9.89235L-7.10999 0.5H21.328L27.865 9.90905L28.014 10.1238H28.276H55.578H55.852L55.999 9.89235L61.981 0.5H91.506L96.934 9.87429L97.078 10.1238H97.367H125.226H125.514L125.659 9.87429L131.086 0.5H142C152.77 0.5 161.5 9.23045 161.5 20V29.6259L152.869 33.767L152.585 33.9031V34.2178V60.9505V61.2067L152.793 61.3563L161.5 67.6225V95.923L152.869 100.064L152.585 100.2V100.515V127.248V127.504L152.793 127.653L161.5 133.92V161.731L152.81 167.464L152.585 167.612V167.881V194.614V194.897L152.828 195.043L161.5 200.244V228.549L152.828 233.749L152.585 233.895V234.178V260.911V261.167L152.793 261.317L161.5 267.583V295.394L152.81 301.127L152.585 301.275V301.545V327.208V327.464L152.793 327.614L161.5 333.88V361.17L152.793 367.436L152.585 367.585V367.842V394.574V394.857L152.828 395.003L161.5 400.204V412C161.5 422.77 152.77 431.5 142 431.5H129.967L125.655 424.259L125.51 424.015H125.226H97.367H97.115L96.965 424.216L91.544 431.5H60.877L56.564 424.259L56.419 424.015H56.135H28.276H28.025L27.875 424.216L22.453 431.5H-8.21399L-12.526 424.259L-12.672 424.015H-12.956H-41.93H-42.214L-42.359 424.259L-46.671 431.5H-77.305L-81.617 424.259L-81.763 424.015H-82.047H-111.021H-111.305L-111.45 424.259L-115.762 431.5H-146.429L-151.851 424.216L-152.001 424.015H-152.252H-180.111H-180.363L-180.513 424.216L-185.934 431.5H-198C-208.77 431.5 -217.5 422.77 -217.5 412V400.204L-208.828 395.003L-208.585 394.857V394.574V367.842V367.558L-208.828 367.413L-217.5 362.212V333.372L-208.828 328.171L-208.585 328.026V327.743V301.01V300.741L-208.81 300.593L-217.5 294.86V267.061L-208.81 261.328L-208.585 261.18V260.911V234.178V233.895L-208.828 233.749L-217.5 228.549V200.244L-208.828 195.043L-208.585 194.897V194.614V180.98V167.213V166.926L-208.833 166.781L-217.5 161.713V134.467L-208.81 128.734L-208.585 128.586V128.317V101.584V101.301L-208.828 101.155L-217.5 95.9545V67.6225L-208.793 61.3563L-208.585 61.2067V60.9505V35.2871V35.004L-208.828 34.8583L-217.5 29.6574V20C-217.5 9.23044 -208.77 0.5 -198 0.5H-194.25H-185.429L-180.555 9.85481Z" stroke="url(#paint4_radial_3_183)"/>
<path d="M-180.555 9.85481L-180.415 10.1238H-180.111H-152.252H-151.978L-151.83 9.89235L-145.849 0.5H-116.881L-111.453 9.87429L-111.309 10.1238H-111.021H-96.534H-83.161H-82.9L-82.751 9.90905L-76.214 0.5H-47.763L-41.226 9.90905L-41.077 10.1238H-40.815H-27.443H-13.513H-13.239L-13.091 9.89235L-7.10999 0.5H21.328L27.865 9.90905L28.014 10.1238H28.276H55.578H55.852L55.999 9.89235L61.981 0.5H91.506L96.934 9.87429L97.078 10.1238H97.367H125.226H125.514L125.659 9.87429L131.086 0.5H142C152.77 0.5 161.5 9.23045 161.5 20V29.6259L152.869 33.767L152.585 33.9031V34.2178V60.9505V61.2067L152.793 61.3563L161.5 67.6225V95.923L152.869 100.064L152.585 100.2V100.515V127.248V127.504L152.793 127.653L161.5 133.92V161.731L152.81 167.464L152.585 167.612V167.881V194.614V194.897L152.828 195.043L161.5 200.244V228.549L152.828 233.749L152.585 233.895V234.178V260.911V261.167L152.793 261.317L161.5 267.583V295.394L152.81 301.127L152.585 301.275V301.545V327.208V327.464L152.793 327.614L161.5 333.88V361.17L152.793 367.436L152.585 367.585V367.842V394.574V394.857L152.828 395.003L161.5 400.204V412C161.5 422.77 152.77 431.5 142 431.5H129.967L125.655 424.259L125.51 424.015H125.226H97.367H97.115L96.965 424.216L91.544 431.5H60.877L56.564 424.259L56.419 424.015H56.135H28.276H28.025L27.875 424.216L22.453 431.5H-8.21399L-12.526 424.259L-12.672 424.015H-12.956H-41.93H-42.214L-42.359 424.259L-46.671 431.5H-77.305L-81.617 424.259L-81.763 424.015H-82.047H-111.021H-111.305L-111.45 424.259L-115.762 431.5H-146.429L-151.851 424.216L-152.001 424.015H-152.252H-180.111H-180.363L-180.513 424.216L-185.934 431.5H-198C-208.77 431.5 -217.5 422.77 -217.5 412V400.204L-208.828 395.003L-208.585 394.857V394.574V367.842V367.558L-208.828 367.413L-217.5 362.212V333.372L-208.828 328.171L-208.585 328.026V327.743V301.01V300.741L-208.81 300.593L-217.5 294.86V267.061L-208.81 261.328L-208.585 261.18V260.911V234.178V233.895L-208.828 233.749L-217.5 228.549V200.244L-208.828 195.043L-208.585 194.897V194.614V180.98V167.213V166.926L-208.833 166.781L-217.5 161.713V134.467L-208.81 128.734L-208.585 128.586V128.317V101.584V101.301L-208.828 101.155L-217.5 95.9545V67.6225L-208.793 61.3563L-208.585 61.2067V60.9505V35.2871V35.004L-208.828 34.8583L-217.5 29.6574V20C-217.5 9.23044 -208.77 0.5 -198 0.5H-194.25H-185.429L-180.555 9.85481Z" stroke="#00FFC4" stroke-opacity="0.1"/>
<path d="M130 78H-186C-187.105 78 -188 78.8954 -188 80V396C-188 397.105 -187.105 398 -186 398H130C131.105 398 132 397.105 132 396V80C132 78.8954 131.105 78 130 78Z" fill="url(#paint5_linear_3_183)"/>
<path d="M110 340H-166C-167.105 340 -168 340.895 -168 342V380C-168 381.105 -167.105 382 -166 382H110C111.105 382 112 381.105 112 380V342C112 340.895 111.105 340 110 340Z" fill="white" fill-opacity="0.07"/>
</g>
</mask>
<g mask="url(#mask1_3_183)">
<path d="M162 0H-218V432H162V0Z" fill="url(#paint6_linear_3_183)"/>
</g>
<g style="mix-blend-mode:luminosity" opacity="0.8">
<path d="M229.445 9.85481L229.585 10.1238H229.889H257.748H258.022L258.17 9.89235L264.151 0.5H293.119L298.547 9.87429L298.691 10.1238H298.979H313.466H326.839H327.1L327.249 9.90905L333.786 0.5H362.237L368.774 9.90905L368.923 10.1238H369.185H382.557H396.487H396.761L396.909 9.89235L402.89 0.5H431.328L437.865 9.90905L438.014 10.1238H438.276H465.578H465.852L465.999 9.89235L471.981 0.5H501.506L506.934 9.87429L507.078 10.1238H507.367H535.226H535.514L535.659 9.87429L541.086 0.5H552C562.77 0.5 571.5 9.23045 571.5 20V29.6259L562.869 33.767L562.585 33.9031V34.2178V60.9505V61.2067L562.793 61.3563L571.5 67.6225V95.923L562.869 100.064L562.585 100.2V100.515V127.248V127.504L562.793 127.653L571.5 133.92V161.731L562.81 167.464L562.585 167.612V167.881V194.614V194.897L562.828 195.043L571.5 200.244V228.549L562.828 233.749L562.585 233.895V234.178V260.911V261.167L562.793 261.317L571.5 267.583V295.394L562.81 301.127L562.585 301.275V301.545V327.208V327.464L562.793 327.614L571.5 333.88V361.17L562.793 367.436L562.585 367.585V367.842V394.574V394.857L562.828 395.003L571.5 400.204V412C571.5 422.77 562.77 431.5 552 431.5H539.967L535.655 424.259L535.51 424.015H535.226H507.367H507.115L506.965 424.216L501.544 431.5H470.877L466.564 424.259L466.419 424.015H466.135H438.276H438.025L437.875 424.216L432.453 431.5H401.786L397.474 424.259L397.328 424.015H397.044H368.07H367.786L367.641 424.259L363.329 431.5H332.695L328.383 424.259L328.237 424.015H327.953H298.979H298.695L298.55 424.259L294.238 431.5H263.571L258.149 424.216L257.999 424.015H257.748H229.889H229.637L229.487 424.216L224.066 431.5H212C201.23 431.5 192.5 422.77 192.5 412V400.204L201.172 395.003L201.415 394.857V394.574V367.842V367.558L201.172 367.413L192.5 362.212V333.372L201.172 328.171L201.415 328.026V327.743V301.01V300.741L201.19 300.593L192.5 294.86V267.061L201.19 261.328L201.415 261.18V260.911V234.178V233.895L201.172 233.749L192.5 228.549V200.244L201.172 195.043L201.415 194.897V194.614V180.98V167.213V166.926L201.167 166.781L192.5 161.713V134.467L201.19 128.734L201.415 128.586V128.317V101.584V101.301L201.172 101.155L192.5 95.9545V67.6225L201.207 61.3563L201.415 61.2067V60.9505V35.2871V35.004L201.172 34.8583L192.5 29.6574V20C192.5 9.23044 201.23 0.5 212 0.5H215.75H224.571L229.445 9.85481Z" fill="url(#paint7_linear_3_183)"/>
<path d="M229.445 9.85481L229.585 10.1238H229.889H257.748H258.022L258.17 9.89235L264.151 0.5H293.119L298.547 9.87429L298.691 10.1238H298.979H313.466H326.839H327.1L327.249 9.90905L333.786 0.5H362.237L368.774 9.90905L368.923 10.1238H369.185H382.557H396.487H396.761L396.909 9.89235L402.89 0.5H431.328L437.865 9.90905L438.014 10.1238H438.276H465.578H465.852L465.999 9.89235L471.981 0.5H501.506L506.934 9.87429L507.078 10.1238H507.367H535.226H535.514L535.659 9.87429L541.086 0.5H552C562.77 0.5 571.5 9.23045 571.5 20V29.6259L562.869 33.767L562.585 33.9031V34.2178V60.9505V61.2067L562.793 61.3563L571.5 67.6225V95.923L562.869 100.064L562.585 100.2V100.515V127.248V127.504L562.793 127.653L571.5 133.92V161.731L562.81 167.464L562.585 167.612V167.881V194.614V194.897L562.828 195.043L571.5 200.244V228.549L562.828 233.749L562.585 233.895V234.178V260.911V261.167L562.793 261.317L571.5 267.583V295.394L562.81 301.127L562.585 301.275V301.545V327.208V327.464L562.793 327.614L571.5 333.88V361.17L562.793 367.436L562.585 367.585V367.842V394.574V394.857L562.828 395.003L571.5 400.204V412C571.5 422.77 562.77 431.5 552 431.5H539.967L535.655 424.259L535.51 424.015H535.226H507.367H507.115L506.965 424.216L501.544 431.5H470.877L466.564 424.259L466.419 424.015H466.135H438.276H438.025L437.875 424.216L432.453 431.5H401.786L397.474 424.259L397.328 424.015H397.044H368.07H367.786L367.641 424.259L363.329 431.5H332.695L328.383 424.259L328.237 424.015H327.953H298.979H298.695L298.55 424.259L294.238 431.5H263.571L258.149 424.216L257.999 424.015H257.748H229.889H229.637L229.487 424.216L224.066 431.5H212C201.23 431.5 192.5 422.77 192.5 412V400.204L201.172 395.003L201.415 394.857V394.574V367.842V367.558L201.172 367.413L192.5 362.212V333.372L201.172 328.171L201.415 328.026V327.743V301.01V300.741L201.19 300.593L192.5 294.86V267.061L201.19 261.328L201.415 261.18V260.911V234.178V233.895L201.172 233.749L192.5 228.549V200.244L201.172 195.043L201.415 194.897V194.614V180.98V167.213V166.926L201.167 166.781L192.5 161.713V134.467L201.19 128.734L201.415 128.586V128.317V101.584V101.301L201.172 101.155L192.5 95.9545V67.6225L201.207 61.3563L201.415 61.2067V60.9505V35.2871V35.004L201.172 34.8583L192.5 29.6574V20C192.5 9.23044 201.23 0.5 212 0.5H215.75H224.571L229.445 9.85481Z" fill="white" fill-opacity="0.03"/>
<path d="M540 78H224C222.895 78 222 78.8954 222 80V396C222 397.105 222.895 398 224 398H540C541.105 398 542 397.105 542 396V80C542 78.8954 541.105 78 540 78Z" fill="url(#paint8_linear_3_183)"/>
<path d="M520 340H244C242.895 340 242 340.895 242 342V380C242 381.105 242.895 382 244 382H520C521.105 382 522 381.105 522 380V342C522 340.895 521.105 340 520 340Z" fill="white" fill-opacity="0.07"/>
</g>
<mask id="mask2_3_183" style="mask-type:alpha" maskUnits="userSpaceOnUse" x="192" y="0" width="380" height="432">
<g style="mix-blend-mode:luminosity" opacity="0.8">
<path d="M229.445 9.85481L229.585 10.1238H229.889H257.748H258.022L258.17 9.89235L264.151 0.5H293.119L298.547 9.87429L298.691 10.1238H298.979H313.466H326.839H327.1L327.249 9.90905L333.786 0.5H362.237L368.774 9.90905L368.923 10.1238H369.185H382.557H396.487H396.761L396.909 9.89235L402.89 0.5H431.328L437.865 9.90905L438.014 10.1238H438.276H465.578H465.852L465.999 9.89235L471.981 0.5H501.506L506.934 9.87429L507.078 10.1238H507.367H535.226H535.514L535.659 9.87429L541.086 0.5H552C562.77 0.5 571.5 9.23045 571.5 20V29.6259L562.869 33.767L562.585 33.9031V34.2178V60.9505V61.2067L562.793 61.3563L571.5 67.6225V95.923L562.869 100.064L562.585 100.2V100.515V127.248V127.504L562.793 127.653L571.5 133.92V161.731L562.81 167.464L562.585 167.612V167.881V194.614V194.897L562.828 195.043L571.5 200.244V228.549L562.828 233.749L562.585 233.895V234.178V260.911V261.167L562.793 261.317L571.5 267.583V295.394L562.81 301.127L562.585 301.275V301.545V327.208V327.464L562.793 327.614L571.5 333.88V361.17L562.793 367.436L562.585 367.585V367.842V394.574V394.857L562.828 395.003L571.5 400.204V412C571.5 422.77 562.77 431.5 552 431.5H539.967L535.655 424.259L535.51 424.015H535.226H507.367H507.115L506.965 424.216L501.544 431.5H470.877L466.564 424.259L466.419 424.015H466.135H438.276H438.025L437.875 424.216L432.453 431.5H401.786L397.474 424.259L397.328 424.015H397.044H368.07H367.786L367.641 424.259L363.329 431.5H332.695L328.383 424.259L328.237 424.015H327.953H298.979H298.695L298.55 424.259L294.238 431.5H263.571L258.149 424.216L257.999 424.015H257.748H229.889H229.637L229.487 424.216L224.066 431.5H212C201.23 431.5 192.5 422.77 192.5 412V400.204L201.172 395.003L201.415 394.857V394.574V367.842V367.558L201.172 367.413L192.5 362.212V333.372L201.172 328.171L201.415 328.026V327.743V301.01V300.741L201.19 300.593L192.5 294.86V267.061L201.19 261.328L201.415 261.18V260.911V234.178V233.895L201.172 233.749L192.5 228.549V200.244L201.172 195.043L201.415 194.897V194.614V180.98V167.213V166.926L201.167 166.781L192.5 161.713V134.467L201.19 128.734L201.415 128.586V128.317V101.584V101.301L201.172 101.155L192.5 95.9545V67.6225L201.207 61.3563L201.415 61.2067V60.9505V35.2871V35.004L201.172 34.8583L192.5 29.6574V20C192.5 9.23044 201.23 0.5 212 0.5H215.75H224.571L229.445 9.85481Z" fill="url(#paint9_linear_3_183)"/>
<path d="M229.445 9.85481L229.585 10.1238H229.889H257.748H258.022L258.17 9.89235L264.151 0.5H293.119L298.547 9.87429L298.691 10.1238H298.979H313.466H326.839H327.1L327.249 9.90905L333.786 0.5H362.237L368.774 9.90905L368.923 10.1238H369.185H382.557H396.487H396.761L396.909 9.89235L402.89 0.5H431.328L437.865 9.90905L438.014 10.1238H438.276H465.578H465.852L465.999 9.89235L471.981 0.5H501.506L506.934 9.87429L507.078 10.1238H507.367H535.226H535.514L535.659 9.87429L541.086 0.5H552C562.77 0.5 571.5 9.23045 571.5 20V29.6259L562.869 33.767L562.585 33.9031V34.2178V60.9505V61.2067L562.793 61.3563L571.5 67.6225V95.923L562.869 100.064L562.585 100.2V100.515V127.248V127.504L562.793 127.653L571.5 133.92V161.731L562.81 167.464L562.585 167.612V167.881V194.614V194.897L562.828 195.043L571.5 200.244V228.549L562.828 233.749L562.585 233.895V234.178V260.911V261.167L562.793 261.317L571.5 267.583V295.394L562.81 301.127L562.585 301.275V301.545V327.208V327.464L562.793 327.614L571.5 333.88V361.17L562.793 367.436L562.585 367.585V367.842V394.574V394.857L562.828 395.003L571.5 400.204V412C571.5 422.77 562.77 431.5 552 431.5H539.967L535.655 424.259L535.51 424.015H535.226H507.367H507.115L506.965 424.216L501.544 431.5H470.877L466.564 424.259L466.419 424.015H466.135H438.276H438.025L437.875 424.216L432.453 431.5H401.786L397.474 424.259L397.328 424.015H397.044H368.07H367.786L367.641 424.259L363.329 431.5H332.695L328.383 424.259L328.237 424.015H327.953H298.979H298.695L298.55 424.259L294.238 431.5H263.571L258.149 424.216L257.999 424.015H257.748H229.889H229.637L229.487 424.216L224.066 431.5H212C201.23 431.5 192.5 422.77 192.5 412V400.204L201.172 395.003L201.415 394.857V394.574V367.842V367.558L201.172 367.413L192.5 362.212V333.372L201.172 328.171L201.415 328.026V327.743V301.01V300.741L201.19 300.593L192.5 294.86V267.061L201.19 261.328L201.415 261.18V260.911V234.178V233.895L201.172 233.749L192.5 228.549V200.244L201.172 195.043L201.415 194.897V194.614V180.98V167.213V166.926L201.167 166.781L192.5 161.713V134.467L201.19 128.734L201.415 128.586V128.317V101.584V101.301L201.172 101.155L192.5 95.9545V67.6225L201.207 61.3563L201.415 61.2067V60.9505V35.2871V35.004L201.172 34.8583L192.5 29.6574V20C192.5 9.23044 201.23 0.5 212 0.5H215.75H224.571L229.445 9.85481Z" fill="white" fill-opacity="0.03"/>
<path d="M229.445 9.85481L229.585 10.1238H229.889H257.748H258.022L258.17 9.89235L264.151 0.5H293.119L298.547 9.87429L298.691 10.1238H298.979H313.466H326.839H327.1L327.249 9.90905L333.786 0.5H362.237L368.774 9.90905L368.923 10.1238H369.185H382.557H396.487H396.761L396.909 9.89235L402.89 0.5H431.328L437.865 9.90905L438.014 10.1238H438.276H465.578H465.852L465.999 9.89235L471.981 0.5H501.506L506.934 9.87429L507.078 10.1238H507.367H535.226H535.514L535.659 9.87429L541.086 0.5H552C562.77 0.5 571.5 9.23045 571.5 20V29.6259L562.869 33.767L562.585 33.9031V34.2178V60.9505V61.2067L562.793 61.3563L571.5 67.6225V95.923L562.869 100.064L562.585 100.2V100.515V127.248V127.504L562.793 127.653L571.5 133.92V161.731L562.81 167.464L562.585 167.612V167.881V194.614V194.897L562.828 195.043L571.5 200.244V228.549L562.828 233.749L562.585 233.895V234.178V260.911V261.167L562.793 261.317L571.5 267.583V295.394L562.81 301.127L562.585 301.275V301.545V327.208V327.464L562.793 327.614L571.5 333.88V361.17L562.793 367.436L562.585 367.585V367.842V394.574V394.857L562.828 395.003L571.5 400.204V412C571.5 422.77 562.77 431.5 552 431.5H539.967L535.655 424.259L535.51 424.015H535.226H507.367H507.115L506.965 424.216L501.544 431.5H470.877L466.564 424.259L466.419 424.015H466.135H438.276H438.025L437.875 424.216L432.453 431.5H401.786L397.474 424.259L397.328 424.015H397.044H368.07H367.786L367.641 424.259L363.329 431.5H332.695L328.383 424.259L328.237 424.015H327.953H298.979H298.695L298.55 424.259L294.238 431.5H263.571L258.149 424.216L257.999 424.015H257.748H229.889H229.637L229.487 424.216L224.066 431.5H212C201.23 431.5 192.5 422.77 192.5 412V400.204L201.172 395.003L201.415 394.857V394.574V367.842V367.558L201.172 367.413L192.5 362.212V333.372L201.172 328.171L201.415 328.026V327.743V301.01V300.741L201.19 300.593L192.5 294.86V267.061L201.19 261.328L201.415 261.18V260.911V234.178V233.895L201.172 233.749L192.5 228.549V200.244L201.172 195.043L201.415 194.897V194.614V180.98V167.213V166.926L201.167 166.781L192.5 161.713V134.467L201.19 128.734L201.415 128.586V128.317V101.584V101.301L201.172 101.155L192.5 95.9545V67.6225L201.207 61.3563L201.415 61.2067V60.9505V35.2871V35.004L201.172 34.8583L192.5 29.6574V20C192.5 9.23044 201.23 0.5 212 0.5H215.75H224.571L229.445 9.85481Z" stroke="url(#paint10_radial_3_183)"/>
<path d="M229.445 9.85481L229.585 10.1238H229.889H257.748H258.022L258.17 9.89235L264.151 0.5H293.119L298.547 9.87429L298.691 10.1238H298.979H313.466H326.839H327.1L327.249 9.90905L333.786 0.5H362.237L368.774 9.90905L368.923 10.1238H369.185H382.557H396.487H396.761L396.909 9.89235L402.89 0.5H431.328L437.865 9.90905L438.014 10.1238H438.276H465.578H465.852L465.999 9.89235L471.981 0.5H501.506L506.934 9.87429L507.078 10.1238H507.367H535.226H535.514L535.659 9.87429L541.086 0.5H552C562.77 0.5 571.5 9.23045 571.5 20V29.6259L562.869 33.767L562.585 33.9031V34.2178V60.9505V61.2067L562.793 61.3563L571.5 67.6225V95.923L562.869 100.064L562.585 100.2V100.515V127.248V127.504L562.793 127.653L571.5 133.92V161.731L562.81 167.464L562.585 167.612V167.881V194.614V194.897L562.828 195.043L571.5 200.244V228.549L562.828 233.749L562.585 233.895V234.178V260.911V261.167L562.793 261.317L571.5 267.583V295.394L562.81 301.127L562.585 301.275V301.545V327.208V327.464L562.793 327.614L571.5 333.88V361.17L562.793 367.436L562.585 367.585V367.842V394.574V394.857L562.828 395.003L571.5 400.204V412C571.5 422.77 562.77 431.5 552 431.5H539.967L535.655 424.259L535.51 424.015H535.226H507.367H507.115L506.965 424.216L501.544 431.5H470.877L466.564 424.259L466.419 424.015H466.135H438.276H438.025L437.875 424.216L432.453 431.5H401.786L397.474 424.259L397.328 424.015H397.044H368.07H367.786L367.641 424.259L363.329 431.5H332.695L328.383 424.259L328.237 424.015H327.953H298.979H298.695L298.55 424.259L294.238 431.5H263.571L258.149 424.216L257.999 424.015H257.748H229.889H229.637L229.487 424.216L224.066 431.5H212C201.23 431.5 192.5 422.77 192.5 412V400.204L201.172 395.003L201.415 394.857V394.574V367.842V367.558L201.172 367.413L192.5 362.212V333.372L201.172 328.171L201.415 328.026V327.743V301.01V300.741L201.19 300.593L192.5 294.86V267.061L201.19 261.328L201.415 261.18V260.911V234.178V233.895L201.172 233.749L192.5 228.549V200.244L201.172 195.043L201.415 194.897V194.614V180.98V167.213V166.926L201.167 166.781L192.5 161.713V134.467L201.19 128.734L201.415 128.586V128.317V101.584V101.301L201.172 101.155L192.5 95.9545V67.6225L201.207 61.3563L201.415 61.2067V60.9505V35.2871V35.004L201.172 34.8583L192.5 29.6574V20C192.5 9.23044 201.23 0.5 212 0.5H215.75H224.571L229.445 9.85481Z" stroke="url(#paint11_radial_3_183)"/>
<path d="M229.445 9.85481L229.585 10.1238H229.889H257.748H258.022L258.17 9.89235L264.151 0.5H293.119L298.547 9.87429L298.691 10.1238H298.979H313.466H326.839H327.1L327.249 9.90905L333.786 0.5H362.237L368.774 9.90905L368.923 10.1238H369.185H382.557H396.487H396.761L396.909 9.89235L402.89 0.5H431.328L437.865 9.90905L438.014 10.1238H438.276H465.578H465.852L465.999 9.89235L471.981 0.5H501.506L506.934 9.87429L507.078 10.1238H507.367H535.226H535.514L535.659 9.87429L541.086 0.5H552C562.77 0.5 571.5 9.23045 571.5 20V29.6259L562.869 33.767L562.585 33.9031V34.2178V60.9505V61.2067L562.793 61.3563L571.5 67.6225V95.923L562.869 100.064L562.585 100.2V100.515V127.248V127.504L562.793 127.653L571.5 133.92V161.731L562.81 167.464L562.585 167.612V167.881V194.614V194.897L562.828 195.043L571.5 200.244V228.549L562.828 233.749L562.585 233.895V234.178V260.911V261.167L562.793 261.317L571.5 267.583V295.394L562.81 301.127L562.585 301.275V301.545V327.208V327.464L562.793 327.614L571.5 333.88V361.17L562.793 367.436L562.585 367.585V367.842V394.574V394.857L562.828 395.003L571.5 400.204V412C571.5 422.77 562.77 431.5 552 431.5H539.967L535.655 424.259L535.51 424.015H535.226H507.367H507.115L506.965 424.216L501.544 431.5H470.877L466.564 424.259L466.419 424.015H466.135H438.276H438.025L437.875 424.216L432.453 431.5H401.786L397.474 424.259L397.328 424.015H397.044H368.07H367.786L367.641 424.259L363.329 431.5H332.695L328.383 424.259L328.237 424.015H327.953H298.979H298.695L298.55 424.259L294.238 431.5H263.571L258.149 424.216L257.999 424.015H257.748H229.889H229.637L229.487 424.216L224.066 431.5H212C201.23 431.5 192.5 422.77 192.5 412V400.204L201.172 395.003L201.415 394.857V394.574V367.842V367.558L201.172 367.413L192.5 362.212V333.372L201.172 328.171L201.415 328.026V327.743V301.01V300.741L201.19 300.593L192.5 294.86V267.061L201.19 261.328L201.415 261.18V260.911V234.178V233.895L201.172 233.749L192.5 228.549V200.244L201.172 195.043L201.415 194.897V194.614V180.98V167.213V166.926L201.167 166.781L192.5 161.713V134.467L201.19 128.734L201.415 128.586V128.317V101.584V101.301L201.172 101.155L192.5 95.9545V67.6225L201.207 61.3563L201.415 61.2067V60.9505V35.2871V35.004L201.172 34.8583L192.5 29.6574V20C192.5 9.23044 201.23 0.5 212 0.5H215.75H224.571L229.445 9.85481Z" stroke="#00FFC4" stroke-opacity="0.1"/>
<path d="M540 78H224C222.895 78 222 78.8954 222 80V396C222 397.105 222.895 398 224 398H540C541.105 398 542 397.105 542 396V80C542 78.8954 541.105 78 540 78Z" fill="url(#paint12_linear_3_183)"/>
<path d="M520 340H244C242.895 340 242 340.895 242 342V380C242 381.105 242.895 382 244 382H520C521.105 382 522 381.105 522 380V342C522 340.895 521.105 340 520 340Z" fill="white" fill-opacity="0.07"/>
</g>
</mask>
<g mask="url(#mask2_3_183)">
<path d="M572 0H192V432H572V0Z" fill="url(#paint13_linear_3_183)"/>
</g>
<g style="mix-blend-mode:luminosity" opacity="0.8">
<path d="M639.445 9.85481L639.585 10.1238H639.889H667.748H668.022L668.17 9.89235L674.151 0.5H703.12L708.55 9.87429L708.69 10.1238H708.98H723.47H736.84H737.1L737.25 9.90905L743.79 0.5H772.24L778.77 9.90905L778.92 10.1238H779.18H792.56H806.49H806.76L806.91 9.89235L812.89 0.5H841.33L847.87 9.90905L848.01 10.1238H848.28H875.58H875.85L876 9.89235L881.98 0.5H911.51L916.93 9.87429L917.08 10.1238H917.37H945.23H945.51L945.66 9.87429L951.09 0.5H962C972.77 0.5 981.5 9.23045 981.5 20V29.6259L972.87 33.767L972.59 33.9031V34.2178V60.9505V61.2067L972.79 61.3563L981.5 67.6225V95.923L972.87 100.064L972.59 100.2V100.515V127.248V127.504L972.79 127.653L981.5 133.92V161.731L972.81 167.464L972.59 167.612V167.881V194.614V194.897L972.83 195.043L981.5 200.244V228.549L972.83 233.749L972.59 233.895V234.178V260.911V261.167L972.79 261.317L981.5 267.583V295.394L972.81 301.127L972.59 301.275V301.545V327.208V327.464L972.79 327.614L981.5 333.88V361.17L972.79 367.436L972.59 367.585V367.842V394.574V394.857L972.83 395.003L981.5 400.204V412C981.5 422.77 972.77 431.5 962 431.5H949.97L945.66 424.259L945.51 424.015H945.23H917.37H917.12L916.97 424.216L911.54 431.5H880.88L876.56 424.259L876.42 424.015H876.13H848.28H848.02L847.87 424.216L842.45 431.5H811.79L807.47 424.259L807.33 424.015H807.04H778.07H777.79L777.64 424.259L773.33 431.5H742.69L738.38 424.259L738.24 424.015H737.95H708.98H708.7L708.55 424.259L704.24 431.5H673.571L668.149 424.216L667.999 424.015H667.748H639.889H639.637L639.487 424.216L634.066 431.5H622C611.23 431.5 602.5 422.77 602.5 412V400.204L611.172 395.003L611.415 394.857V394.574V367.842V367.558L611.172 367.413L602.5 362.212V333.372L611.172 328.171L611.415 328.026V327.743V301.01V300.741L611.19 300.593L602.5 294.86V267.061L611.19 261.328L611.415 261.18V260.911V234.178V233.895L611.172 233.749L602.5 228.549V200.244L611.172 195.043L611.415 194.897V194.614V180.98V167.213V166.926L611.167 166.781L602.5 161.713V134.467L611.19 128.734L611.415 128.586V128.317V101.584V101.301L611.172 101.155L602.5 95.9545V67.6225L611.207 61.3563L611.415 61.2067V60.9505V35.2871V35.004L611.172 34.8583L602.5 29.6574V20C602.5 9.23044 611.23 0.5 622 0.5H625.75H634.571L639.445 9.85481Z" fill="url(#paint14_linear_3_183)"/>
<path d="M639.445 9.85481L639.585 10.1238H639.889H667.748H668.022L668.17 9.89235L674.151 0.5H703.12L708.55 9.87429L708.69 10.1238H708.98H723.47H736.84H737.1L737.25 9.90905L743.79 0.5H772.24L778.77 9.90905L778.92 10.1238H779.18H792.56H806.49H806.76L806.91 9.89235L812.89 0.5H841.33L847.87 9.90905L848.01 10.1238H848.28H875.58H875.85L876 9.89235L881.98 0.5H911.51L916.93 9.87429L917.08 10.1238H917.37H945.23H945.51L945.66 9.87429L951.09 0.5H962C972.77 0.5 981.5 9.23045 981.5 20V29.6259L972.87 33.767L972.59 33.9031V34.2178V60.9505V61.2067L972.79 61.3563L981.5 67.6225V95.923L972.87 100.064L972.59 100.2V100.515V127.248V127.504L972.79 127.653L981.5 133.92V161.731L972.81 167.464L972.59 167.612V167.881V194.614V194.897L972.83 195.043L981.5 200.244V228.549L972.83 233.749L972.59 233.895V234.178V260.911V261.167L972.79 261.317L981.5 267.583V295.394L972.81 301.127L972.59 301.275V301.545V327.208V327.464L972.79 327.614L981.5 333.88V361.17L972.79 367.436L972.59 367.585V367.842V394.574V394.857L972.83 395.003L981.5 400.204V412C981.5 422.77 972.77 431.5 962 431.5H949.97L945.66 424.259L945.51 424.015H945.23H917.37H917.12L916.97 424.216L911.54 431.5H880.88L876.56 424.259L876.42 424.015H876.13H848.28H848.02L847.87 424.216L842.45 431.5H811.79L807.47 424.259L807.33 424.015H807.04H778.07H777.79L777.64 424.259L773.33 431.5H742.69L738.38 424.259L738.24 424.015H737.95H708.98H708.7L708.55 424.259L704.24 431.5H673.571L668.149 424.216L667.999 424.015H667.748H639.889H639.637L639.487 424.216L634.066 431.5H622C611.23 431.5 602.5 422.77 602.5 412V400.204L611.172 395.003L611.415 394.857V394.574V367.842V367.558L611.172 367.413L602.5 362.212V333.372L611.172 328.171L611.415 328.026V327.743V301.01V300.741L611.19 300.593L602.5 294.86V267.061L611.19 261.328L611.415 261.18V260.911V234.178V233.895L611.172 233.749L602.5 228.549V200.244L611.172 195.043L611.415 194.897V194.614V180.98V167.213V166.926L611.167 166.781L602.5 161.713V134.467L611.19 128.734L611.415 128.586V128.317V101.584V101.301L611.172 101.155L602.5 95.9545V67.6225L611.207 61.3563L611.415 61.2067V60.9505V35.2871V35.004L611.172 34.8583L602.5 29.6574V20C602.5 9.23044 611.23 0.5 622 0.5H625.75H634.571L639.445 9.85481Z" fill="white" fill-opacity="0.03"/>
<path d="M950 78H634C632.895 78 632 78.8954 632 80V396C632 397.105 632.895 398 634 398H950C951.105 398 952 397.105 952 396V80C952 78.8954 951.105 78 950 78Z" fill="url(#paint15_linear_3_183)"/>
<path d="M930 340H654C652.895 340 652 340.895 652 342V380C652 381.105 652.895 382 654 382H930C931.105 382 932 381.105 932 380V342C932 340.895 931.105 340 930 340Z" fill="white" fill-opacity="0.07"/>
</g>
<mask id="mask3_3_183" style="mask-type:alpha" maskUnits="userSpaceOnUse" x="602" y="0" width="380" height="432">
<g style="mix-blend-mode:luminosity" opacity="0.8">
<path d="M639.445 9.85481L639.585 10.1238H639.889H667.748H668.022L668.17 9.89235L674.151 0.5H703.12L708.55 9.87429L708.69 10.1238H708.98H723.47H736.84H737.1L737.25 9.90905L743.79 0.5H772.24L778.77 9.90905L778.92 10.1238H779.18H792.56H806.49H806.76L806.91 9.89235L812.89 0.5H841.33L847.87 9.90905L848.01 10.1238H848.28H875.58H875.85L876 9.89235L881.98 0.5H911.51L916.93 9.87429L917.08 10.1238H917.37H945.23H945.51L945.66 9.87429L951.09 0.5H962C972.77 0.5 981.5 9.23045 981.5 20V29.6259L972.87 33.767L972.59 33.9031V34.2178V60.9505V61.2067L972.79 61.3563L981.5 67.6225V95.923L972.87 100.064L972.59 100.2V100.515V127.248V127.504L972.79 127.653L981.5 133.92V161.731L972.81 167.464L972.59 167.612V167.881V194.614V194.897L972.83 195.043L981.5 200.244V228.549L972.83 233.749L972.59 233.895V234.178V260.911V261.167L972.79 261.317L981.5 267.583V295.394L972.81 301.127L972.59 301.275V301.545V327.208V327.464L972.79 327.614L981.5 333.88V361.17L972.79 367.436L972.59 367.585V367.842V394.574V394.857L972.83 395.003L981.5 400.204V412C981.5 422.77 972.77 431.5 962 431.5H949.97L945.66 424.259L945.51 424.015H945.23H917.37H917.12L916.97 424.216L911.54 431.5H880.88L876.56 424.259L876.42 424.015H876.13H848.28H848.02L847.87 424.216L842.45 431.5H811.79L807.47 424.259L807.33 424.015H807.04H778.07H777.79L777.64 424.259L773.33 431.5H742.69L738.38 424.259L738.24 424.015H737.95H708.98H708.7L708.55 424.259L704.24 431.5H673.571L668.149 424.216L667.999 424.015H667.748H639.889H639.637L639.487 424.216L634.066 431.5H622C611.23 431.5 602.5 422.77 602.5 412V400.204L611.172 395.003L611.415 394.857V394.574V367.842V367.558L611.172 367.413L602.5 362.212V333.372L611.172 328.171L611.415 328.026V327.743V301.01V300.741L611.19 300.593L602.5 294.86V267.061L611.19 261.328L611.415 261.18V260.911V234.178V233.895L611.172 233.749L602.5 228.549V200.244L611.172 195.043L611.415 194.897V194.614V180.98V167.213V166.926L611.167 166.781L602.5 161.713V134.467L611.19 128.734L611.415 128.586V128.317V101.584V101.301L611.172 101.155L602.5 95.9545V67.6225L611.207 61.3563L611.415 61.2067V60.9505V35.2871V35.004L611.172 34.8583L602.5 29.6574V20C602.5 9.23044 611.23 0.5 622 0.5H625.75H634.571L639.445 9.85481Z" fill="url(#paint16_linear_3_183)"/>
<path d="M639.445 9.85481L639.585 10.1238H639.889H667.748H668.022L668.17 9.89235L674.151 0.5H703.12L708.55 9.87429L708.69 10.1238H708.98H723.47H736.84H737.1L737.25 9.90905L743.79 0.5H772.24L778.77 9.90905L778.92 10.1238H779.18H792.56H806.49H806.76L806.91 9.89235L812.89 0.5H841.33L847.87 9.90905L848.01 10.1238H848.28H875.58H875.85L876 9.89235L881.98 0.5H911.51L916.93 9.87429L917.08 10.1238H917.37H945.23H945.51L945.66 9.87429L951.09 0.5H962C972.77 0.5 981.5 9.23045 981.5 20V29.6259L972.87 33.767L972.59 33.9031V34.2178V60.9505V61.2067L972.79 61.3563L981.5 67.6225V95.923L972.87 100.064L972.59 100.2V100.515V127.248V127.504L972.79 127.653L981.5 133.92V161.731L972.81 167.464L972.59 167.612V167.881V194.614V194.897L972.83 195.043L981.5 200.244V228.549L972.83 233.749L972.59 233.895V234.178V260.911V261.167L972.79 261.317L981.5 267.583V295.394L972.81 301.127L972.59 301.275V301.545V327.208V327.464L972.79 327.614L981.5 333.88V361.17L972.79 367.436L972.59 367.585V367.842V394.574V394.857L972.83 395.003L981.5 400.204V412C981.5 422.77 972.77 431.5 962 431.5H949.97L945.66 424.259L945.51 424.015H945.23H917.37H917.12L916.97 424.216L911.54 431.5H880.88L876.56 424.259L876.42 424.015H876.13H848.28H848.02L847.87 424.216L842.45 431.5H811.79L807.47 424.259L807.33 424.015H807.04H778.07H777.79L777.64 424.259L773.33 431.5H742.69L738.38 424.259L738.24 424.015H737.95H708.98H708.7L708.55 424.259L704.24 431.5H673.571L668.149 424.216L667.999 424.015H667.748H639.889H639.637L639.487 424.216L634.066 431.5H622C611.23 431.5 602.5 422.77 602.5 412V400.204L611.172 395.003L611.415 394.857V394.574V367.842V367.558L611.172 367.413L602.5 362.212V333.372L611.172 328.171L611.415 328.026V327.743V301.01V300.741L611.19 300.593L602.5 294.86V267.061L611.19 261.328L611.415 261.18V260.911V234.178V233.895L611.172 233.749L602.5 228.549V200.244L611.172 195.043L611.415 194.897V194.614V180.98V167.213V166.926L611.167 166.781L602.5 161.713V134.467L611.19 128.734L611.415 128.586V128.317V101.584V101.301L611.172 101.155L602.5 95.9545V67.6225L611.207 61.3563L611.415 61.2067V60.9505V35.2871V35.004L611.172 34.8583L602.5 29.6574V20C602.5 9.23044 611.23 0.5 622 0.5H625.75H634.571L639.445 9.85481Z" fill="white" fill-opacity="0.03"/>
<path d="M639.445 9.85481L639.585 10.1238H639.889H667.748H668.022L668.17 9.89235L674.151 0.5H703.12L708.55 9.87429L708.69 10.1238H708.98H723.47H736.84H737.1L737.25 9.90905L743.79 0.5H772.24L778.77 9.90905L778.92 10.1238H779.18H792.56H806.49H806.76L806.91 9.89235L812.89 0.5H841.33L847.87 9.90905L848.01 10.1238H848.28H875.58H875.85L876 9.89235L881.98 0.5H911.51L916.93 9.87429L917.08 10.1238H917.37H945.23H945.51L945.66 9.87429L951.09 0.5H962C972.77 0.5 981.5 9.23045 981.5 20V29.6259L972.87 33.767L972.59 33.9031V34.2178V60.9505V61.2067L972.79 61.3563L981.5 67.6225V95.923L972.87 100.064L972.59 100.2V100.515V127.248V127.504L972.79 127.653L981.5 133.92V161.731L972.81 167.464L972.59 167.612V167.881V194.614V194.897L972.83 195.043L981.5 200.244V228.549L972.83 233.749L972.59 233.895V234.178V260.911V261.167L972.79 261.317L981.5 267.583V295.394L972.81 301.127L972.59 301.275V301.545V327.208V327.464L972.79 327.614L981.5 333.88V361.17L972.79 367.436L972.59 367.585V367.842V394.574V394.857L972.83 395.003L981.5 400.204V412C981.5 422.77 972.77 431.5 962 431.5H949.97L945.66 424.259L945.51 424.015H945.23H917.37H917.12L916.97 424.216L911.54 431.5H880.88L876.56 424.259L876.42 424.015H876.13H848.28H848.02L847.87 424.216L842.45 431.5H811.79L807.47 424.259L807.33 424.015H807.04H778.07H777.79L777.64 424.259L773.33 431.5H742.69L738.38 424.259L738.24 424.015H737.95H708.98H708.7L708.55 424.259L704.24 431.5H673.571L668.149 424.216L667.999 424.015H667.748H639.889H639.637L639.487 424.216L634.066 431.5H622C611.23 431.5 602.5 422.77 602.5 412V400.204L611.172 395.003L611.415 394.857V394.574V367.842V367.558L611.172 367.413L602.5 362.212V333.372L611.172 328.171L611.415 328.026V327.743V301.01V300.741L611.19 300.593L602.5 294.86V267.061L611.19 261.328L611.415 261.18V260.911V234.178V233.895L611.172 233.749L602.5 228.549V200.244L611.172 195.043L611.415 194.897V194.614V180.98V167.213V166.926L611.167 166.781L602.5 161.713V134.467L611.19 128.734L611.415 128.586V128.317V101.584V101.301L611.172 101.155L602.5 95.9545V67.6225L611.207 61.3563L611.415 61.2067V60.9505V35.2871V35.004L611.172 34.8583L602.5 29.6574V20C602.5 9.23044 611.23 0.5 622 0.5H625.75H634.571L639.445 9.85481Z" stroke="url(#paint17_radial_3_183)"/>
<path d="M639.445 9.85481L639.585 10.1238H639.889H667.748H668.022L668.17 9.89235L674.151 0.5H703.12L708.55 9.87429L708.69 10.1238H708.98H723.47H736.84H737.1L737.25 9.90905L743.79 0.5H772.24L778.77 9.90905L778.92 10.1238H779.18H792.56H806.49H806.76L806.91 9.89235L812.89 0.5H841.33L847.87 9.90905L848.01 10.1238H848.28H875.58H875.85L876 9.89235L881.98 0.5H911.51L916.93 9.87429L917.08 10.1238H917.37H945.23H945.51L945.66 9.87429L951.09 0.5H962C972.77 0.5 981.5 9.23045 981.5 20V29.6259L972.87 33.767L972.59 33.9031V34.2178V60.9505V61.2067L972.79 61.3563L981.5 67.6225V95.923L972.87 100.064L972.59 100.2V100.515V127.248V127.504L972.79 127.653L981.5 133.92V161.731L972.81 167.464L972.59 167.612V167.881V194.614V194.897L972.83 195.043L981.5 200.244V228.549L972.83 233.749L972.59 233.895V234.178V260.911V261.167L972.79 261.317L981.5 267.583V295.394L972.81 301.127L972.59 301.275V301.545V327.208V327.464L972.79 327.614L981.5 333.88V361.17L972.79 367.436L972.59 367.585V367.842V394.574V394.857L972.83 395.003L981.5 400.204V412C981.5 422.77 972.77 431.5 962 431.5H949.97L945.66 424.259L945.51 424.015H945.23H917.37H917.12L916.97 424.216L911.54 431.5H880.88L876.56 424.259L876.42 424.015H876.13H848.28H848.02L847.87 424.216L842.45 431.5H811.79L807.47 424.259L807.33 424.015H807.04H778.07H777.79L777.64 424.259L773.33 431.5H742.69L738.38 424.259L738.24 424.015H737.95H708.98H708.7L708.55 424.259L704.24 431.5H673.571L668.149 424.216L667.999 424.015H667.748H639.889H639.637L639.487 424.216L634.066 431.5H622C611.23 431.5 602.5 422.77 602.5 412V400.204L611.172 395.003L611.415 394.857V394.574V367.842V367.558L611.172 367.413L602.5 362.212V333.372L611.172 328.171L611.415 328.026V327.743V301.01V300.741L611.19 300.593L602.5 294.86V267.061L611.19 261.328L611.415 261.18V260.911V234.178V233.895L611.172 233.749L602.5 228.549V200.244L611.172 195.043L611.415 194.897V194.614V180.98V167.213V166.926L611.167 166.781L602.5 161.713V134.467L611.19 128.734L611.415 128.586V128.317V101.584V101.301L611.172 101.155L602.5 95.9545V67.6225L611.207 61.3563L611.415 61.2067V60.9505V35.2871V35.004L611.172 34.8583L602.5 29.6574V20C602.5 9.23044 611.23 0.5 622 0.5H625.75H634.571L639.445 9.85481Z" stroke="url(#paint18_radial_3_183)"/>
<path d="M639.445 9.85481L639.585 10.1238H639.889H667.748H668.022L668.17 9.89235L674.151 0.5H703.12L708.55 9.87429L708.69 10.1238H708.98H723.47H736.84H737.1L737.25 9.90905L743.79 0.5H772.24L778.77 9.90905L778.92 10.1238H779.18H792.56H806.49H806.76L806.91 9.89235L812.89 0.5H841.33L847.87 9.90905L848.01 10.1238H848.28H875.58H875.85L876 9.89235L881.98 0.5H911.51L916.93 9.87429L917.08 10.1238H917.37H945.23H945.51L945.66 9.87429L951.09 0.5H962C972.77 0.5 981.5 9.23045 981.5 20V29.6259L972.87 33.767L972.59 33.9031V34.2178V60.9505V61.2067L972.79 61.3563L981.5 67.6225V95.923L972.87 100.064L972.59 100.2V100.515V127.248V127.504L972.79 127.653L981.5 133.92V161.731L972.81 167.464L972.59 167.612V167.881V194.614V194.897L972.83 195.043L981.5 200.244V228.549L972.83 233.749L972.59 233.895V234.178V260.911V261.167L972.79 261.317L981.5 267.583V295.394L972.81 301.127L972.59 301.275V301.545V327.208V327.464L972.79 327.614L981.5 333.88V361.17L972.79 367.436L972.59 367.585V367.842V394.574V394.857L972.83 395.003L981.5 400.204V412C981.5 422.77 972.77 431.5 962 431.5H949.97L945.66 424.259L945.51 424.015H945.23H917.37H917.12L916.97 424.216L911.54 431.5H880.88L876.56 424.259L876.42 424.015H876.13H848.28H848.02L847.87 424.216L842.45 431.5H811.79L807.47 424.259L807.33 424.015H807.04H778.07H777.79L777.64 424.259L773.33 431.5H742.69L738.38 424.259L738.24 424.015H737.95H708.98H708.7L708.55 424.259L704.24 431.5H673.571L668.149 424.216L667.999 424.015H667.748H639.889H639.637L639.487 424.216L634.066 431.5H622C611.23 431.5 602.5 422.77 602.5 412V400.204L611.172 395.003L611.415 394.857V394.574V367.842V367.558L611.172 367.413L602.5 362.212V333.372L611.172 328.171L611.415 328.026V327.743V301.01V300.741L611.19 300.593L602.5 294.86V267.061L611.19 261.328L611.415 261.18V260.911V234.178V233.895L611.172 233.749L602.5 228.549V200.244L611.172 195.043L611.415 194.897V194.614V180.98V167.213V166.926L611.167 166.781L602.5 161.713V134.467L611.19 128.734L611.415 128.586V128.317V101.584V101.301L611.172 101.155L602.5 95.9545V67.6225L611.207 61.3563L611.415 61.2067V60.9505V35.2871V35.004L611.172 34.8583L602.5 29.6574V20C602.5 9.23044 611.23 0.5 622 0.5H625.75H634.571L639.445 9.85481Z" stroke="#00FFC4" stroke-opacity="0.1"/>
<path d="M950 78H634C632.895 78 632 78.8954 632 80V396C632 397.105 632.895 398 634 398H950C951.105 398 952 397.105 952 396V80C952 78.8954 951.105 78 950 78Z" fill="url(#paint19_linear_3_183)"/>
<path d="M930 340H654C652.895 340 652 340.895 652 342V380C652 381.105 652.895 382 654 382H930C931.105 382 932 381.105 932 380V342C932 340.895 931.105 340 930 340Z" fill="white" fill-opacity="0.07"/>
</g>
</mask>
<g mask="url(#mask3_3_183)">
<path d="M982 0H602V432H982V0Z" fill="url(#paint20_linear_3_183)"/>
</g>
<g style="mix-blend-mode:luminosity" opacity="0.8">
<path d="M1049.45 9.85481L1049.59 10.1238H1049.89H1077.75H1078.02L1078.17 9.89235L1084.15 0.5H1113.12L1118.55 9.87429L1118.69 10.1238H1118.98H1133.47H1146.84H1147.1L1147.25 9.90905L1153.79 0.5H1182.24L1188.77 9.90905L1188.92 10.1238H1189.18H1202.56H1216.49H1216.76L1216.91 9.89235L1222.89 0.5H1251.33L1257.87 9.90905L1258.01 10.1238H1258.28H1285.58H1285.85L1286 9.89235L1291.98 0.5H1321.51L1326.93 9.87429L1327.08 10.1238H1327.37H1355.23H1355.51L1355.66 9.87429L1361.09 0.5H1372C1382.77 0.5 1391.5 9.23045 1391.5 20V29.6259L1382.87 33.767L1382.59 33.9031V34.2178V60.9505V61.2067L1382.79 61.3563L1391.5 67.6225V95.923L1382.87 100.064L1382.59 100.2V100.515V127.248V127.504L1382.79 127.653L1391.5 133.92V161.731L1382.81 167.464L1382.59 167.612V167.881V194.614V194.897L1382.83 195.043L1391.5 200.244V228.549L1382.83 233.749L1382.59 233.895V234.178V260.911V261.167L1382.79 261.317L1391.5 267.583V295.394L1382.81 301.127L1382.59 301.275V301.545V327.208V327.464L1382.79 327.614L1391.5 333.88V361.17L1382.79 367.436L1382.59 367.585V367.842V394.574V394.857L1382.83 395.003L1391.5 400.204V412C1391.5 422.77 1382.77 431.5 1372 431.5H1359.97L1355.66 424.259L1355.51 424.015H1355.23H1327.37H1327.12L1326.97 424.216L1321.54 431.5H1290.88L1286.56 424.259L1286.42 424.015H1286.13H1258.28H1258.02L1257.87 424.216L1252.45 431.5H1221.79L1217.47 424.259L1217.33 424.015H1217.04H1188.07H1187.79L1187.64 424.259L1183.33 431.5H1152.69L1148.38 424.259L1148.24 424.015H1147.95H1118.98H1118.7L1118.55 424.259L1114.24 431.5H1083.57L1078.15 424.216L1078 424.015H1077.75H1049.89H1049.64L1049.49 424.216L1044.07 431.5H1032C1021.23 431.5 1012.5 422.77 1012.5 412V400.204L1021.17 395.003L1021.41 394.857V394.574V367.842V367.558L1021.17 367.413L1012.5 362.212V333.372L1021.17 328.171L1021.41 328.026V327.743V301.01V300.741L1021.19 300.593L1012.5 294.86V267.061L1021.19 261.328L1021.41 261.18V260.911V234.178V233.895L1021.17 233.749L1012.5 228.549V200.244L1021.17 195.043L1021.41 194.897V194.614V180.98V167.213V166.926L1021.17 166.781L1012.5 161.713V134.467L1021.19 128.734L1021.41 128.586V128.317V101.584V101.301L1021.17 101.155L1012.5 95.9545V67.6225L1021.21 61.3563L1021.41 61.2067V60.9505V35.2871V35.004L1021.17 34.8583L1012.5 29.6574V20C1012.5 9.23044 1021.23 0.5 1032 0.5H1035.75H1044.57L1049.45 9.85481Z" fill="url(#paint21_linear_3_183)"/>
<path d="M1049.45 9.85481L1049.59 10.1238H1049.89H1077.75H1078.02L1078.17 9.89235L1084.15 0.5H1113.12L1118.55 9.87429L1118.69 10.1238H1118.98H1133.47H1146.84H1147.1L1147.25 9.90905L1153.79 0.5H1182.24L1188.77 9.90905L1188.92 10.1238H1189.18H1202.56H1216.49H1216.76L1216.91 9.89235L1222.89 0.5H1251.33L1257.87 9.90905L1258.01 10.1238H1258.28H1285.58H1285.85L1286 9.89235L1291.98 0.5H1321.51L1326.93 9.87429L1327.08 10.1238H1327.37H1355.23H1355.51L1355.66 9.87429L1361.09 0.5H1372C1382.77 0.5 1391.5 9.23045 1391.5 20V29.6259L1382.87 33.767L1382.59 33.9031V34.2178V60.9505V61.2067L1382.79 61.3563L1391.5 67.6225V95.923L1382.87 100.064L1382.59 100.2V100.515V127.248V127.504L1382.79 127.653L1391.5 133.92V161.731L1382.81 167.464L1382.59 167.612V167.881V194.614V194.897L1382.83 195.043L1391.5 200.244V228.549L1382.83 233.749L1382.59 233.895V234.178V260.911V261.167L1382.79 261.317L1391.5 267.583V295.394L1382.81 301.127L1382.59 301.275V301.545V327.208V327.464L1382.79 327.614L1391.5 333.88V361.17L1382.79 367.436L1382.59 367.585V367.842V394.574V394.857L1382.83 395.003L1391.5 400.204V412C1391.5 422.77 1382.77 431.5 1372 431.5H1359.97L1355.66 424.259L1355.51 424.015H1355.23H1327.37H1327.12L1326.97 424.216L1321.54 431.5H1290.88L1286.56 424.259L1286.42 424.015H1286.13H1258.28H1258.02L1257.87 424.216L1252.45 431.5H1221.79L1217.47 424.259L1217.33 424.015H1217.04H1188.07H1187.79L1187.64 424.259L1183.33 431.5H1152.69L1148.38 424.259L1148.24 424.015H1147.95H1118.98H1118.7L1118.55 424.259L1114.24 431.5H1083.57L1078.15 424.216L1078 424.015H1077.75H1049.89H1049.64L1049.49 424.216L1044.07 431.5H1032C1021.23 431.5 1012.5 422.77 1012.5 412V400.204L1021.17 395.003L1021.41 394.857V394.574V367.842V367.558L1021.17 367.413L1012.5 362.212V333.372L1021.17 328.171L1021.41 328.026V327.743V301.01V300.741L1021.19 300.593L1012.5 294.86V267.061L1021.19 261.328L1021.41 261.18V260.911V234.178V233.895L1021.17 233.749L1012.5 228.549V200.244L1021.17 195.043L1021.41 194.897V194.614V180.98V167.213V166.926L1021.17 166.781L1012.5 161.713V134.467L1021.19 128.734L1021.41 128.586V128.317V101.584V101.301L1021.17 101.155L1012.5 95.9545V67.6225L1021.21 61.3563L1021.41 61.2067V60.9505V35.2871V35.004L1021.17 34.8583L1012.5 29.6574V20C1012.5 9.23044 1021.23 0.5 1032 0.5H1035.75H1044.57L1049.45 9.85481Z" fill="white" fill-opacity="0.03"/>
<path d="M1360 78H1044C1042.9 78 1042 78.8954 1042 80V396C1042 397.105 1042.9 398 1044 398H1360C1361.1 398 1362 397.105 1362 396V80C1362 78.8954 1361.1 78 1360 78Z" fill="url(#paint22_linear_3_183)"/>
<path d="M1340 340H1064C1062.9 340 1062 340.895 1062 342V380C1062 381.105 1062.9 382 1064 382H1340C1341.1 382 1342 381.105 1342 380V342C1342 340.895 1341.1 340 1340 340Z" fill="white" fill-opacity="0.07"/>
</g>
<mask id="mask4_3_183" style="mask-type:alpha" maskUnits="userSpaceOnUse" x="1012" y="0" width="380" height="432">
<g style="mix-blend-mode:luminosity" opacity="0.8">
<path d="M1049.45 9.85481L1049.59 10.1238H1049.89H1077.75H1078.02L1078.17 9.89235L1084.15 0.5H1113.12L1118.55 9.87429L1118.69 10.1238H1118.98H1133.47H1146.84H1147.1L1147.25 9.90905L1153.79 0.5H1182.24L1188.77 9.90905L1188.92 10.1238H1189.18H1202.56H1216.49H1216.76L1216.91 9.89235L1222.89 0.5H1251.33L1257.87 9.90905L1258.01 10.1238H1258.28H1285.58H1285.85L1286 9.89235L1291.98 0.5H1321.51L1326.93 9.87429L1327.08 10.1238H1327.37H1355.23H1355.51L1355.66 9.87429L1361.09 0.5H1372C1382.77 0.5 1391.5 9.23045 1391.5 20V29.6259L1382.87 33.767L1382.59 33.9031V34.2178V60.9505V61.2067L1382.79 61.3563L1391.5 67.6225V95.923L1382.87 100.064L1382.59 100.2V100.515V127.248V127.504L1382.79 127.653L1391.5 133.92V161.731L1382.81 167.464L1382.59 167.612V167.881V194.614V194.897L1382.83 195.043L1391.5 200.244V228.549L1382.83 233.749L1382.59 233.895V234.178V260.911V261.167L1382.79 261.317L1391.5 267.583V295.394L1382.81 301.127L1382.59 301.275V301.545V327.208V327.464L1382.79 327.614L1391.5 333.88V361.17L1382.79 367.436L1382.59 367.585V367.842V394.574V394.857L1382.83 395.003L1391.5 400.204V412C1391.5 422.77 1382.77 431.5 1372 431.5H1359.97L1355.66 424.259L1355.51 424.015H1355.23H1327.37H1327.12L1326.97 424.216L1321.54 431.5H1290.88L1286.56 424.259L1286.42 424.015H1286.13H1258.28H1258.02L1257.87 424.216L1252.45 431.5H1221.79L1217.47 424.259L1217.33 424.015H1217.04H1188.07H1187.79L1187.64 424.259L1183.33 431.5H1152.69L1148.38 424.259L1148.24 424.015H1147.95H1118.98H1118.7L1118.55 424.259L1114.24 431.5H1083.57L1078.15 424.216L1078 424.015H1077.75H1049.89H1049.64L1049.49 424.216L1044.07 431.5H1032C1021.23 431.5 1012.5 422.77 1012.5 412V400.204L1021.17 395.003L1021.41 394.857V394.574V367.842V367.558L1021.17 367.413L1012.5 362.212V333.372L1021.17 328.171L1021.41 328.026V327.743V301.01V300.741L1021.19 300.593L1012.5 294.86V267.061L1021.19 261.328L1021.41 261.18V260.911V234.178V233.895L1021.17 233.749L1012.5 228.549V200.244L1021.17 195.043L1021.41 194.897V194.614V180.98V167.213V166.926L1021.17 166.781L1012.5 161.713V134.467L1021.19 128.734L1021.41 128.586V128.317V101.584V101.301L1021.17 101.155L1012.5 95.9545V67.6225L1021.21 61.3563L1021.41 61.2067V60.9505V35.2871V35.004L1021.17 34.8583L1012.5 29.6574V20C1012.5 9.23044 1021.23 0.5 1032 0.5H1035.75H1044.57L1049.45 9.85481Z" fill="url(#paint23_linear_3_183)"/>
<path d="M1049.45 9.85481L1049.59 10.1238H1049.89H1077.75H1078.02L1078.17 9.89235L1084.15 0.5H1113.12L1118.55 9.87429L1118.69 10.1238H1118.98H1133.47H1146.84H1147.1L1147.25 9.90905L1153.79 0.5H1182.24L1188.77 9.90905L1188.92 10.1238H1189.18H1202.56H1216.49H1216.76L1216.91 9.89235L1222.89 0.5H1251.33L1257.87 9.90905L1258.01 10.1238H1258.28H1285.58H1285.85L1286 9.89235L1291.98 0.5H1321.51L1326.93 9.87429L1327.08 10.1238H1327.37H1355.23H1355.51L1355.66 9.87429L1361.09 0.5H1372C1382.77 0.5 1391.5 9.23045 1391.5 20V29.6259L1382.87 33.767L1382.59 33.9031V34.2178V60.9505V61.2067L1382.79 61.3563L1391.5 67.6225V95.923L1382.87 100.064L1382.59 100.2V100.515V127.248V127.504L1382.79 127.653L1391.5 133.92V161.731L1382.81 167.464L1382.59 167.612V167.881V194.614V194.897L1382.83 195.043L1391.5 200.244V228.549L1382.83 233.749L1382.59 233.895V234.178V260.911V261.167L1382.79 261.317L1391.5 267.583V295.394L1382.81 301.127L1382.59 301.275V301.545V327.208V327.464L1382.79 327.614L1391.5 333.88V361.17L1382.79 367.436L1382.59 367.585V367.842V394.574V394.857L1382.83 395.003L1391.5 400.204V412C1391.5 422.77 1382.77 431.5 1372 431.5H1359.97L1355.66 424.259L1355.51 424.015H1355.23H1327.37H1327.12L1326.97 424.216L1321.54 431.5H1290.88L1286.56 424.259L1286.42 424.015H1286.13H1258.28H1258.02L1257.87 424.216L1252.45 431.5H1221.79L1217.47 424.259L1217.33 424.015H1217.04H1188.07H1187.79L1187.64 424.259L1183.33 431.5H1152.69L1148.38 424.259L1148.24 424.015H1147.95H1118.98H1118.7L1118.55 424.259L1114.24 431.5H1083.57L1078.15 424.216L1078 424.015H1077.75H1049.89H1049.64L1049.49 424.216L1044.07 431.5H1032C1021.23 431.5 1012.5 422.77 1012.5 412V400.204L1021.17 395.003L1021.41 394.857V394.574V367.842V367.558L1021.17 367.413L1012.5 362.212V333.372L1021.17 328.171L1021.41 328.026V327.743V301.01V300.741L1021.19 300.593L1012.5 294.86V267.061L1021.19 261.328L1021.41 261.18V260.911V234.178V233.895L1021.17 233.749L1012.5 228.549V200.244L1021.17 195.043L1021.41 194.897V194.614V180.98V167.213V166.926L1021.17 166.781L1012.5 161.713V134.467L1021.19 128.734L1021.41 128.586V128.317V101.584V101.301L1021.17 101.155L1012.5 95.9545V67.6225L1021.21 61.3563L1021.41 61.2067V60.9505V35.2871V35.004L1021.17 34.8583L1012.5 29.6574V20C1012.5 9.23044 1021.23 0.5 1032 0.5H1035.75H1044.57L1049.45 9.85481Z" fill="white" fill-opacity="0.03"/>
<path d="M1049.45 9.85481L1049.59 10.1238H1049.89H1077.75H1078.02L1078.17 9.89235L1084.15 0.5H1113.12L1118.55 9.87429L1118.69 10.1238H1118.98H1133.47H1146.84H1147.1L1147.25 9.90905L1153.79 0.5H1182.24L1188.77 9.90905L1188.92 10.1238H1189.18H1202.56H1216.49H1216.76L1216.91 9.89235L1222.89 0.5H1251.33L1257.87 9.90905L1258.01 10.1238H1258.28H1285.58H1285.85L1286 9.89235L1291.98 0.5H1321.51L1326.93 9.87429L1327.08 10.1238H1327.37H1355.23H1355.51L1355.66 9.87429L1361.09 0.5H1372C1382.77 0.5 1391.5 9.23045 1391.5 20V29.6259L1382.87 33.767L1382.59 33.9031V34.2178V60.9505V61.2067L1382.79 61.3563L1391.5 67.6225V95.923L1382.87 100.064L1382.59 100.2V100.515V127.248V127.504L1382.79 127.653L1391.5 133.92V161.731L1382.81 167.464L1382.59 167.612V167.881V194.614V194.897L1382.83 195.043L1391.5 200.244V228.549L1382.83 233.749L1382.59 233.895V234.178V260.911V261.167L1382.79 261.317L1391.5 267.583V295.394L1382.81 301.127L1382.59 301.275V301.545V327.208V327.464L1382.79 327.614L1391.5 333.88V361.17L1382.79 367.436L1382.59 367.585V367.842V394.574V394.857L1382.83 395.003L1391.5 400.204V412C1391.5 422.77 1382.77 431.5 1372 431.5H1359.97L1355.66 424.259L1355.51 424.015H1355.23H1327.37H1327.12L1326.97 424.216L1321.54 431.5H1290.88L1286.56 424.259L1286.42 424.015H1286.13H1258.28H1258.02L1257.87 424.216L1252.45 431.5H1221.79L1217.47 424.259L1217.33 424.015H1217.04H1188.07H1187.79L1187.64 424.259L1183.33 431.5H1152.69L1148.38 424.259L1148.24 424.015H1147.95H1118.98H1118.7L1118.55 424.259L1114.24 431.5H1083.57L1078.15 424.216L1078 424.015H1077.75H1049.89H1049.64L1049.49 424.216L1044.07 431.5H1032C1021.23 431.5 1012.5 422.77 1012.5 412V400.204L1021.17 395.003L1021.41 394.857V394.574V367.842V367.558L1021.17 367.413L1012.5 362.212V333.372L1021.17 328.171L1021.41 328.026V327.743V301.01V300.741L1021.19 300.593L1012.5 294.86V267.061L1021.19 261.328L1021.41 261.18V260.911V234.178V233.895L1021.17 233.749L1012.5 228.549V200.244L1021.17 195.043L1021.41 194.897V194.614V180.98V167.213V166.926L1021.17 166.781L1012.5 161.713V134.467L1021.19 128.734L1021.41 128.586V128.317V101.584V101.301L1021.17 101.155L1012.5 95.9545V67.6225L1021.21 61.3563L1021.41 61.2067V60.9505V35.2871V35.004L1021.17 34.8583L1012.5 29.6574V20C1012.5 9.23044 1021.23 0.5 1032 0.5H1035.75H1044.57L1049.45 9.85481Z" stroke="url(#paint24_radial_3_183)"/>
<path d="M1049.45 9.85481L1049.59 10.1238H1049.89H1077.75H1078.02L1078.17 9.89235L1084.15 0.5H1113.12L1118.55 9.87429L1118.69 10.1238H1118.98H1133.47H1146.84H1147.1L1147.25 9.90905L1153.79 0.5H1182.24L1188.77 9.90905L1188.92 10.1238H1189.18H1202.56H1216.49H1216.76L1216.91 9.89235L1222.89 0.5H1251.33L1257.87 9.90905L1258.01 10.1238H1258.28H1285.58H1285.85L1286 9.89235L1291.98 0.5H1321.51L1326.93 9.87429L1327.08 10.1238H1327.37H1355.23H1355.51L1355.66 9.87429L1361.09 0.5H1372C1382.77 0.5 1391.5 9.23045 1391.5 20V29.6259L1382.87 33.767L1382.59 33.9031V34.2178V60.9505V61.2067L1382.79 61.3563L1391.5 67.6225V95.923L1382.87 100.064L1382.59 100.2V100.515V127.248V127.504L1382.79 127.653L1391.5 133.92V161.731L1382.81 167.464L1382.59 167.612V167.881V194.614V194.897L1382.83 195.043L1391.5 200.244V228.549L1382.83 233.749L1382.59 233.895V234.178V260.911V261.167L1382.79 261.317L1391.5 267.583V295.394L1382.81 301.127L1382.59 301.275V301.545V327.208V327.464L1382.79 327.614L1391.5 333.88V361.17L1382.79 367.436L1382.59 367.585V367.842V394.574V394.857L1382.83 395.003L1391.5 400.204V412C1391.5 422.77 1382.77 431.5 1372 431.5H1359.97L1355.66 424.259L1355.51 424.015H1355.23H1327.37H1327.12L1326.97 424.216L1321.54 431.5H1290.88L1286.56 424.259L1286.42 424.015H1286.13H1258.28H1258.02L1257.87 424.216L1252.45 431.5H1221.79L1217.47 424.259L1217.33 424.015H1217.04H1188.07H1187.79L1187.64 424.259L1183.33 431.5H1152.69L1148.38 424.259L1148.24 424.015H1147.95H1118.98H1118.7L1118.55 424.259L1114.24 431.5H1083.57L1078.15 424.216L1078 424.015H1077.75H1049.89H1049.64L1049.49 424.216L1044.07 431.5H1032C1021.23 431.5 1012.5 422.77 1012.5 412V400.204L1021.17 395.003L1021.41 394.857V394.574V367.842V367.558L1021.17 367.413L1012.5 362.212V333.372L1021.17 328.171L1021.41 328.026V327.743V301.01V300.741L1021.19 300.593L1012.5 294.86V267.061L1021.19 261.328L1021.41 261.18V260.911V234.178V233.895L1021.17 233.749L1012.5 228.549V200.244L1021.17 195.043L1021.41 194.897V194.614V180.98V167.213V166.926L1021.17 166.781L1012.5 161.713V134.467L1021.19 128.734L1021.41 128.586V128.317V101.584V101.301L1021.17 101.155L1012.5 95.9545V67.6225L1021.21 61.3563L1021.41 61.2067V60.9505V35.2871V35.004L1021.17 34.8583L1012.5 29.6574V20C1012.5 9.23044 1021.23 0.5 1032 0.5H1035.75H1044.57L1049.45 9.85481Z" stroke="url(#paint25_radial_3_183)"/>
<path d="M1049.45 9.85481L1049.59 10.1238H1049.89H1077.75H1078.02L1078.17 9.89235L1084.15 0.5H1113.12L1118.55 9.87429L1118.69 10.1238H1118.98H1133.47H1146.84H1147.1L1147.25 9.90905L1153.79 0.5H1182.24L1188.77 9.90905L1188.92 10.1238H1189.18H1202.56H1216.49H1216.76L1216.91 9.89235L1222.89 0.5H1251.33L1257.87 9.90905L1258.01 10.1238H1258.28H1285.58H1285.85L1286 9.89235L1291.98 0.5H1321.51L1326.93 9.87429L1327.08 10.1238H1327.37H1355.23H1355.51L1355.66 9.87429L1361.09 0.5H1372C1382.77 0.5 1391.5 9.23045 1391.5 20V29.6259L1382.87 33.767L1382.59 33.9031V34.2178V60.9505V61.2067L1382.79 61.3563L1391.5 67.6225V95.923L1382.87 100.064L1382.59 100.2V100.515V127.248V127.504L1382.79 127.653L1391.5 133.92V161.731L1382.81 167.464L1382.59 167.612V167.881V194.614V194.897L1382.83 195.043L1391.5 200.244V228.549L1382.83 233.749L1382.59 233.895V234.178V260.911V261.167L1382.79 261.317L1391.5 267.583V295.394L1382.81 301.127L1382.59 301.275V301.545V327.208V327.464L1382.79 327.614L1391.5 333.88V361.17L1382.79 367.436L1382.59 367.585V367.842V394.574V394.857L1382.83 395.003L1391.5 400.204V412C1391.5 422.77 1382.77 431.5 1372 431.5H1359.97L1355.66 424.259L1355.51 424.015H1355.23H1327.37H1327.12L1326.97 424.216L1321.54 431.5H1290.88L1286.56 424.259L1286.42 424.015H1286.13H1258.28H1258.02L1257.87 424.216L1252.45 431.5H1221.79L1217.47 424.259L1217.33 424.015H1217.04H1188.07H1187.79L1187.64 424.259L1183.33 431.5H1152.69L1148.38 424.259L1148.24 424.015H1147.95H1118.98H1118.7L1118.55 424.259L1114.24 431.5H1083.57L1078.15 424.216L1078 424.015H1077.75H1049.89H1049.64L1049.49 424.216L1044.07 431.5H1032C1021.23 431.5 1012.5 422.77 1012.5 412V400.204L1021.17 395.003L1021.41 394.857V394.574V367.842V367.558L1021.17 367.413L1012.5 362.212V333.372L1021.17 328.171L1021.41 328.026V327.743V301.01V300.741L1021.19 300.593L1012.5 294.86V267.061L1021.19 261.328L1021.41 261.18V260.911V234.178V233.895L1021.17 233.749L1012.5 228.549V200.244L1021.17 195.043L1021.41 194.897V194.614V180.98V167.213V166.926L1021.17 166.781L1012.5 161.713V134.467L1021.19 128.734L1021.41 128.586V128.317V101.584V101.301L1021.17 101.155L1012.5 95.9545V67.6225L1021.21 61.3563L1021.41 61.2067V60.9505V35.2871V35.004L1021.17 34.8583L1012.5 29.6574V20C1012.5 9.23044 1021.23 0.5 1032 0.5H1035.75H1044.57L1049.45 9.85481Z" stroke="#00FFC4" stroke-opacity="0.1"/>
<path d="M1360 78H1044C1042.9 78 1042 78.8954 1042 80V396C1042 397.105 1042.9 398 1044 398H1360C1361.1 398 1362 397.105 1362 396V80C1362 78.8954 1361.1 78 1360 78Z" fill="url(#paint26_linear_3_183)"/>
<path d="M1340 340H1064C1062.9 340 1062 340.895 1062 342V380C1062 381.105 1062.9 382 1064 382H1340C1341.1 382 1342 381.105 1342 380V342C1342 340.895 1341.1 340 1340 340Z" fill="white" fill-opacity="0.07"/>
</g>
</mask>
<g mask="url(#mask4_3_183)">
<path d="M1392 0H1012V432H1392V0Z" fill="url(#paint27_linear_3_183)"/>
</g>
<g style="mix-blend-mode:luminosity" opacity="0.8">
<path d="M1459.45 9.85481L1459.59 10.1238H1459.89H1487.75H1488.02L1488.17 9.89235L1494.15 0.5H1523.12L1528.55 9.87429L1528.69 10.1238H1528.98H1543.47H1556.84H1557.1L1557.25 9.90905L1563.79 0.5H1592.24L1598.77 9.90905L1598.92 10.1238H1599.18H1612.56H1626.49H1626.76L1626.91 9.89235L1632.89 0.5H1661.33L1667.87 9.90905L1668.01 10.1238H1668.28H1695.58H1695.85L1696 9.89235L1701.98 0.5H1731.51L1736.93 9.87429L1737.08 10.1238H1737.37H1765.23H1765.51L1765.66 9.87429L1771.09 0.5H1782C1792.77 0.5 1801.5 9.23045 1801.5 20V29.6259L1792.87 33.767L1792.59 33.9031V34.2178V60.9505V61.2067L1792.79 61.3563L1801.5 67.6225V95.923L1792.87 100.064L1792.59 100.2V100.515V127.248V127.504L1792.79 127.653L1801.5 133.92V161.731L1792.81 167.464L1792.59 167.612V167.881V194.614V194.897L1792.83 195.043L1801.5 200.244V228.549L1792.83 233.749L1792.59 233.895V234.178V260.911V261.167L1792.79 261.317L1801.5 267.583V295.394L1792.81 301.127L1792.59 301.275V301.545V327.208V327.464L1792.79 327.614L1801.5 333.88V361.17L1792.79 367.436L1792.59 367.585V367.842V394.574V394.857L1792.83 395.003L1801.5 400.204V412C1801.5 422.77 1792.77 431.5 1782 431.5H1769.97L1765.66 424.259L1765.51 424.015H1765.23H1737.37H1737.12L1736.97 424.216L1731.54 431.5H1700.88L1696.56 424.259L1696.42 424.015H1696.13H1668.28H1668.02L1667.87 424.216L1662.45 431.5H1631.79L1627.47 424.259L1627.33 424.015H1627.04H1598.07H1597.79L1597.64 424.259L1593.33 431.5H1562.69L1558.38 424.259L1558.24 424.015H1557.95H1528.98H1528.7L1528.55 424.259L1524.24 431.5H1493.57L1488.15 424.216L1488 424.015H1487.75H1459.89H1459.64L1459.49 424.216L1454.07 431.5H1442C1431.23 431.5 1422.5 422.77 1422.5 412V400.204L1431.17 395.003L1431.41 394.857V394.574V367.842V367.558L1431.17 367.413L1422.5 362.212V333.372L1431.17 328.171L1431.41 328.026V327.743V301.01V300.741L1431.19 300.593L1422.5 294.86V267.061L1431.19 261.328L1431.41 261.18V260.911V234.178V233.895L1431.17 233.749L1422.5 228.549V200.244L1431.17 195.043L1431.41 194.897V194.614V180.98V167.213V166.926L1431.17 166.781L1422.5 161.713V134.467L1431.19 128.734L1431.41 128.586V128.317V101.584V101.301L1431.17 101.155L1422.5 95.9545V67.6225L1431.21 61.3563L1431.41 61.2067V60.9505V35.2871V35.004L1431.17 34.8583L1422.5 29.6574V20C1422.5 9.23044 1431.23 0.5 1442 0.5H1445.75H1454.57L1459.45 9.85481Z" fill="url(#paint28_linear_3_183)"/>
<path d="M1459.45 9.85481L1459.59 10.1238H1459.89H1487.75H1488.02L1488.17 9.89235L1494.15 0.5H1523.12L1528.55 9.87429L1528.69 10.1238H1528.98H1543.47H1556.84H1557.1L1557.25 9.90905L1563.79 0.5H1592.24L1598.77 9.90905L1598.92 10.1238H1599.18H1612.56H1626.49H1626.76L1626.91 9.89235L1632.89 0.5H1661.33L1667.87 9.90905L1668.01 10.1238H1668.28H1695.58H1695.85L1696 9.89235L1701.98 0.5H1731.51L1736.93 9.87429L1737.08 10.1238H1737.37H1765.23H1765.51L1765.66 9.87429L1771.09 0.5H1782C1792.77 0.5 1801.5 9.23045 1801.5 20V29.6259L1792.87 33.767L1792.59 33.9031V34.2178V60.9505V61.2067L1792.79 61.3563L1801.5 67.6225V95.923L1792.87 100.064L1792.59 100.2V100.515V127.248V127.504L1792.79 127.653L1801.5 133.92V161.731L1792.81 167.464L1792.59 167.612V167.881V194.614V194.897L1792.83 195.043L1801.5 200.244V228.549L1792.83 233.749L1792.59 233.895V234.178V260.911V261.167L1792.79 261.317L1801.5 267.583V295.394L1792.81 301.127L1792.59 301.275V301.545V327.208V327.464L1792.79 327.614L1801.5 333.88V361.17L1792.79 367.436L1792.59 367.585V367.842V394.574V394.857L1792.83 395.003L1801.5 400.204V412C1801.5 422.77 1792.77 431.5 1782 431.5H1769.97L1765.66 424.259L1765.51 424.015H1765.23H1737.37H1737.12L1736.97 424.216L1731.54 431.5H1700.88L1696.56 424.259L1696.42 424.015H1696.13H1668.28H1668.02L1667.87 424.216L1662.45 431.5H1631.79L1627.47 424.259L1627.33 424.015H1627.04H1598.07H1597.79L1597.64 424.259L1593.33 431.5H1562.69L1558.38 424.259L1558.24 424.015H1557.95H1528.98H1528.7L1528.55 424.259L1524.24 431.5H1493.57L1488.15 424.216L1488 424.015H1487.75H1459.89H1459.64L1459.49 424.216L1454.07 431.5H1442C1431.23 431.5 1422.5 422.77 1422.5 412V400.204L1431.17 395.003L1431.41 394.857V394.574V367.842V367.558L1431.17 367.413L1422.5 362.212V333.372L1431.17 328.171L1431.41 328.026V327.743V301.01V300.741L1431.19 300.593L1422.5 294.86V267.061L1431.19 261.328L1431.41 261.18V260.911V234.178V233.895L1431.17 233.749L1422.5 228.549V200.244L1431.17 195.043L1431.41 194.897V194.614V180.98V167.213V166.926L1431.17 166.781L1422.5 161.713V134.467L1431.19 128.734L1431.41 128.586V128.317V101.584V101.301L1431.17 101.155L1422.5 95.9545V67.6225L1431.21 61.3563L1431.41 61.2067V60.9505V35.2871V35.004L1431.17 34.8583L1422.5 29.6574V20C1422.5 9.23044 1431.23 0.5 1442 0.5H1445.75H1454.57L1459.45 9.85481Z" fill="white" fill-opacity="0.03"/>
<path d="M1770 78H1454C1452.9 78 1452 78.8954 1452 80V396C1452 397.105 1452.9 398 1454 398H1770C1771.1 398 1772 397.105 1772 396V80C1772 78.8954 1771.1 78 1770 78Z" fill="url(#paint29_linear_3_183)"/>
<path d="M1750 340H1474C1472.9 340 1472 340.895 1472 342V380C1472 381.105 1472.9 382 1474 382H1750C1751.1 382 1752 381.105 1752 380V342C1752 340.895 1751.1 340 1750 340Z" fill="white" fill-opacity="0.07"/>
</g>
<mask id="mask5_3_183" style="mask-type:alpha" maskUnits="userSpaceOnUse" x="1422" y="0" width="380" height="432">
<g style="mix-blend-mode:luminosity" opacity="0.8">
<path d="M1459.45 9.85481L1459.59 10.1238H1459.89H1487.75H1488.02L1488.17 9.89235L1494.15 0.5H1523.12L1528.55 9.87429L1528.69 10.1238H1528.98H1543.47H1556.84H1557.1L1557.25 9.90905L1563.79 0.5H1592.24L1598.77 9.90905L1598.92 10.1238H1599.18H1612.56H1626.49H1626.76L1626.91 9.89235L1632.89 0.5H1661.33L1667.87 9.90905L1668.01 10.1238H1668.28H1695.58H1695.85L1696 9.89235L1701.98 0.5H1731.51L1736.93 9.87429L1737.08 10.1238H1737.37H1765.23H1765.51L1765.66 9.87429L1771.09 0.5H1782C1792.77 0.5 1801.5 9.23045 1801.5 20V29.6259L1792.87 33.767L1792.59 33.9031V34.2178V60.9505V61.2067L1792.79 61.3563L1801.5 67.6225V95.923L1792.87 100.064L1792.59 100.2V100.515V127.248V127.504L1792.79 127.653L1801.5 133.92V161.731L1792.81 167.464L1792.59 167.612V167.881V194.614V194.897L1792.83 195.043L1801.5 200.244V228.549L1792.83 233.749L1792.59 233.895V234.178V260.911V261.167L1792.79 261.317L1801.5 267.583V295.394L1792.81 301.127L1792.59 301.275V301.545V327.208V327.464L1792.79 327.614L1801.5 333.88V361.17L1792.79 367.436L1792.59 367.585V367.842V394.574V394.857L1792.83 395.003L1801.5 400.204V412C1801.5 422.77 1792.77 431.5 1782 431.5H1769.97L1765.66 424.259L1765.51 424.015H1765.23H1737.37H1737.12L1736.97 424.216L1731.54 431.5H1700.88L1696.56 424.259L1696.42 424.015H1696.13H1668.28H1668.02L1667.87 424.216L1662.45 431.5H1631.79L1627.47 424.259L1627.33 424.015H1627.04H1598.07H1597.79L1597.64 424.259L1593.33 431.5H1562.69L1558.38 424.259L1558.24 424.015H1557.95H1528.98H1528.7L1528.55 424.259L1524.24 431.5H1493.57L1488.15 424.216L1488 424.015H1487.75H1459.89H1459.64L1459.49 424.216L1454.07 431.5H1442C1431.23 431.5 1422.5 422.77 1422.5 412V400.204L1431.17 395.003L1431.41 394.857V394.574V367.842V367.558L1431.17 367.413L1422.5 362.212V333.372L1431.17 328.171L1431.41 328.026V327.743V301.01V300.741L1431.19 300.593L1422.5 294.86V267.061L1431.19 261.328L1431.41 261.18V260.911V234.178V233.895L1431.17 233.749L1422.5 228.549V200.244L1431.17 195.043L1431.41 194.897V194.614V180.98V167.213V166.926L1431.17 166.781L1422.5 161.713V134.467L1431.19 128.734L1431.41 128.586V128.317V101.584V101.301L1431.17 101.155L1422.5 95.9545V67.6225L1431.21 61.3563L1431.41 61.2067V60.9505V35.2871V35.004L1431.17 34.8583L1422.5 29.6574V20C1422.5 9.23044 1431.23 0.5 1442 0.5H1445.75H1454.57L1459.45 9.85481Z" fill="url(#paint30_linear_3_183)"/>
<path d="M1459.45 9.85481L1459.59 10.1238H1459.89H1487.75H1488.02L1488.17 9.89235L1494.15 0.5H1523.12L1528.55 9.87429L1528.69 10.1238H1528.98H1543.47H1556.84H1557.1L1557.25 9.90905L1563.79 0.5H1592.24L1598.77 9.90905L1598.92 10.1238H1599.18H1612.56H1626.49H1626.76L1626.91 9.89235L1632.89 0.5H1661.33L1667.87 9.90905L1668.01 10.1238H1668.28H1695.58H1695.85L1696 9.89235L1701.98 0.5H1731.51L1736.93 9.87429L1737.08 10.1238H1737.37H1765.23H1765.51L1765.66 9.87429L1771.09 0.5H1782C1792.77 0.5 1801.5 9.23045 1801.5 20V29.6259L1792.87 33.767L1792.59 33.9031V34.2178V60.9505V61.2067L1792.79 61.3563L1801.5 67.6225V95.923L1792.87 100.064L1792.59 100.2V100.515V127.248V127.504L1792.79 127.653L1801.5 133.92V161.731L1792.81 167.464L1792.59 167.612V167.881V194.614V194.897L1792.83 195.043L1801.5 200.244V228.549L1792.83 233.749L1792.59 233.895V234.178V260.911V261.167L1792.79 261.317L1801.5 267.583V295.394L1792.81 301.127L1792.59 301.275V301.545V327.208V327.464L1792.79 327.614L1801.5 333.88V361.17L1792.79 367.436L1792.59 367.585V367.842V394.574V394.857L1792.83 395.003L1801.5 400.204V412C1801.5 422.77 1792.77 431.5 1782 431.5H1769.97L1765.66 424.259L1765.51 424.015H1765.23H1737.37H1737.12L1736.97 424.216L1731.54 431.5H1700.88L1696.56 424.259L1696.42 424.015H1696.13H1668.28H1668.02L1667.87 424.216L1662.45 431.5H1631.79L1627.47 424.259L1627.33 424.015H1627.04H1598.07H1597.79L1597.64 424.259L1593.33 431.5H1562.69L1558.38 424.259L1558.24 424.015H1557.95H1528.98H1528.7L1528.55 424.259L1524.24 431.5H1493.57L1488.15 424.216L1488 424.015H1487.75H1459.89H1459.64L1459.49 424.216L1454.07 431.5H1442C1431.23 431.5 1422.5 422.77 1422.5 412V400.204L1431.17 395.003L1431.41 394.857V394.574V367.842V367.558L1431.17 367.413L1422.5 362.212V333.372L1431.17 328.171L1431.41 328.026V327.743V301.01V300.741L1431.19 300.593L1422.5 294.86V267.061L1431.19 261.328L1431.41 261.18V260.911V234.178V233.895L1431.17 233.749L1422.5 228.549V200.244L1431.17 195.043L1431.41 194.897V194.614V180.98V167.213V166.926L1431.17 166.781L1422.5 161.713V134.467L1431.19 128.734L1431.41 128.586V128.317V101.584V101.301L1431.17 101.155L1422.5 95.9545V67.6225L1431.21 61.3563L1431.41 61.2067V60.9505V35.2871V35.004L1431.17 34.8583L1422.5 29.6574V20C1422.5 9.23044 1431.23 0.5 1442 0.5H1445.75H1454.57L1459.45 9.85481Z" fill="white" fill-opacity="0.03"/>
<path d="M1459.45 9.85481L1459.59 10.1238H1459.89H1487.75H1488.02L1488.17 9.89235L1494.15 0.5H1523.12L1528.55 9.87429L1528.69 10.1238H1528.98H1543.47H1556.84H1557.1L1557.25 9.90905L1563.79 0.5H1592.24L1598.77 9.90905L1598.92 10.1238H1599.18H1612.56H1626.49H1626.76L1626.91 9.89235L1632.89 0.5H1661.33L1667.87 9.90905L1668.01 10.1238H1668.28H1695.58H1695.85L1696 9.89235L1701.98 0.5H1731.51L1736.93 9.87429L1737.08 10.1238H1737.37H1765.23H1765.51L1765.66 9.87429L1771.09 0.5H1782C1792.77 0.5 1801.5 9.23045 1801.5 20V29.6259L1792.87 33.767L1792.59 33.9031V34.2178V60.9505V61.2067L1792.79 61.3563L1801.5 67.6225V95.923L1792.87 100.064L1792.59 100.2V100.515V127.248V127.504L1792.79 127.653L1801.5 133.92V161.731L1792.81 167.464L1792.59 167.612V167.881V194.614V194.897L1792.83 195.043L1801.5 200.244V228.549L1792.83 233.749L1792.59 233.895V234.178V260.911V261.167L1792.79 261.317L1801.5 267.583V295.394L1792.81 301.127L1792.59 301.275V301.545V327.208V327.464L1792.79 327.614L1801.5 333.88V361.17L1792.79 367.436L1792.59 367.585V367.842V394.574V394.857L1792.83 395.003L1801.5 400.204V412C1801.5 422.77 1792.77 431.5 1782 431.5H1769.97L1765.66 424.259L1765.51 424.015H1765.23H1737.37H1737.12L1736.97 424.216L1731.54 431.5H1700.88L1696.56 424.259L1696.42 424.015H1696.13H1668.28H1668.02L1667.87 424.216L1662.45 431.5H1631.79L1627.47 424.259L1627.33 424.015H1627.04H1598.07H1597.79L1597.64 424.259L1593.33 431.5H1562.69L1558.38 424.259L1558.24 424.015H1557.95H1528.98H1528.7L1528.55 424.259L1524.24 431.5H1493.57L1488.15 424.216L1488 424.015H1487.75H1459.89H1459.64L1459.49 424.216L1454.07 431.5H1442C1431.23 431.5 1422.5 422.77 1422.5 412V400.204L1431.17 395.003L1431.41 394.857V394.574V367.842V367.558L1431.17 367.413L1422.5 362.212V333.372L1431.17 328.171L1431.41 328.026V327.743V301.01V300.741L1431.19 300.593L1422.5 294.86V267.061L1431.19 261.328L1431.41 261.18V260.911V234.178V233.895L1431.17 233.749L1422.5 228.549V200.244L1431.17 195.043L1431.41 194.897V194.614V180.98V167.213V166.926L1431.17 166.781L1422.5 161.713V134.467L1431.19 128.734L1431.41 128.586V128.317V101.584V101.301L1431.17 101.155L1422.5 95.9545V67.6225L1431.21 61.3563L1431.41 61.2067V60.9505V35.2871V35.004L1431.17 34.8583L1422.5 29.6574V20C1422.5 9.23044 1431.23 0.5 1442 0.5H1445.75H1454.57L1459.45 9.85481Z" stroke="url(#paint31_radial_3_183)"/>
<path d="M1459.45 9.85481L1459.59 10.1238H1459.89H1487.75H1488.02L1488.17 9.89235L1494.15 0.5H1523.12L1528.55 9.87429L1528.69 10.1238H1528.98H1543.47H1556.84H1557.1L1557.25 9.90905L1563.79 0.5H1592.24L1598.77 9.90905L1598.92 10.1238H1599.18H1612.56H1626.49H1626.76L1626.91 9.89235L1632.89 0.5H1661.33L1667.87 9.90905L1668.01 10.1238H1668.28H1695.58H1695.85L1696 9.89235L1701.98 0.5H1731.51L1736.93 9.87429L1737.08 10.1238H1737.37H1765.23H1765.51L1765.66 9.87429L1771.09 0.5H1782C1792.77 0.5 1801.5 9.23045 1801.5 20V29.6259L1792.87 33.767L1792.59 33.9031V34.2178V60.9505V61.2067L1792.79 61.3563L1801.5 67.6225V95.923L1792.87 100.064L1792.59 100.2V100.515V127.248V127.504L1792.79 127.653L1801.5 133.92V161.731L1792.81 167.464L1792.59 167.612V167.881V194.614V194.897L1792.83 195.043L1801.5 200.244V228.549L1792.83 233.749L1792.59 233.895V234.178V260.911V261.167L1792.79 261.317L1801.5 267.583V295.394L1792.81 301.127L1792.59 301.275V301.545V327.208V327.464L1792.79 327.614L1801.5 333.88V361.17L1792.79 367.436L1792.59 367.585V367.842V394.574V394.857L1792.83 395.003L1801.5 400.204V412C1801.5 422.77 1792.77 431.5 1782 431.5H1769.97L1765.66 424.259L1765.51 424.015H1765.23H1737.37H1737.12L1736.97 424.216L1731.54 431.5H1700.88L1696.56 424.259L1696.42 424.015H1696.13H1668.28H1668.02L1667.87 424.216L1662.45 431.5H1631.79L1627.47 424.259L1627.33 424.015H1627.04H1598.07H1597.79L1597.64 424.259L1593.33 431.5H1562.69L1558.38 424.259L1558.24 424.015H1557.95H1528.98H1528.7L1528.55 424.259L1524.24 431.5H1493.57L1488.15 424.216L1488 424.015H1487.75H1459.89H1459.64L1459.49 424.216L1454.07 431.5H1442C1431.23 431.5 1422.5 422.77 1422.5 412V400.204L1431.17 395.003L1431.41 394.857V394.574V367.842V367.558L1431.17 367.413L1422.5 362.212V333.372L1431.17 328.171L1431.41 328.026V327.743V301.01V300.741L1431.19 300.593L1422.5 294.86V267.061L1431.19 261.328L1431.41 261.18V260.911V234.178V233.895L1431.17 233.749L1422.5 228.549V200.244L1431.17 195.043L1431.41 194.897V194.614V180.98V167.213V166.926L1431.17 166.781L1422.5 161.713V134.467L1431.19 128.734L1431.41 128.586V128.317V101.584V101.301L1431.17 101.155L1422.5 95.9545V67.6225L1431.21 61.3563L1431.41 61.2067V60.9505V35.2871V35.004L1431.17 34.8583L1422.5 29.6574V20C1422.5 9.23044 1431.23 0.5 1442 0.5H1445.75H1454.57L1459.45 9.85481Z" stroke="url(#paint32_radial_3_183)"/>
<path d="M1459.45 9.85481L1459.59 10.1238H1459.89H1487.75H1488.02L1488.17 9.89235L1494.15 0.5H1523.12L1528.55 9.87429L1528.69 10.1238H1528.98H1543.47H1556.84H1557.1L1557.25 9.90905L1563.79 0.5H1592.24L1598.77 9.90905L1598.92 10.1238H1599.18H1612.56H1626.49H1626.76L1626.91 9.89235L1632.89 0.5H1661.33L1667.87 9.90905L1668.01 10.1238H1668.28H1695.58H1695.85L1696 9.89235L1701.98 0.5H1731.51L1736.93 9.87429L1737.08 10.1238H1737.37H1765.23H1765.51L1765.66 9.87429L1771.09 0.5H1782C1792.77 0.5 1801.5 9.23045 1801.5 20V29.6259L1792.87 33.767L1792.59 33.9031V34.2178V60.9505V61.2067L1792.79 61.3563L1801.5 67.6225V95.923L1792.87 100.064L1792.59 100.2V100.515V127.248V127.504L1792.79 127.653L1801.5 133.92V161.731L1792.81 167.464L1792.59 167.612V167.881V194.614V194.897L1792.83 195.043L1801.5 200.244V228.549L1792.83 233.749L1792.59 233.895V234.178V260.911V261.167L1792.79 261.317L1801.5 267.583V295.394L1792.81 301.127L1792.59 301.275V301.545V327.208V327.464L1792.79 327.614L1801.5 333.88V361.17L1792.79 367.436L1792.59 367.585V367.842V394.574V394.857L1792.83 395.003L1801.5 400.204V412C1801.5 422.77 1792.77 431.5 1782 431.5H1769.97L1765.66 424.259L1765.51 424.015H1765.23H1737.37H1737.12L1736.97 424.216L1731.54 431.5H1700.88L1696.56 424.259L1696.42 424.015H1696.13H1668.28H1668.02L1667.87 424.216L1662.45 431.5H1631.79L1627.47 424.259L1627.33 424.015H1627.04H1598.07H1597.79L1597.64 424.259L1593.33 431.5H1562.69L1558.38 424.259L1558.24 424.015H1557.95H1528.98H1528.7L1528.55 424.259L1524.24 431.5H1493.57L1488.15 424.216L1488 424.015H1487.75H1459.89H1459.64L1459.49 424.216L1454.07 431.5H1442C1431.23 431.5 1422.5 422.77 1422.5 412V400.204L1431.17 395.003L1431.41 394.857V394.574V367.842V367.558L1431.17 367.413L1422.5 362.212V333.372L1431.17 328.171L1431.41 328.026V327.743V301.01V300.741L1431.19 300.593L1422.5 294.86V267.061L1431.19 261.328L1431.41 261.18V260.911V234.178V233.895L1431.17 233.749L1422.5 228.549V200.244L1431.17 195.043L1431.41 194.897V194.614V180.98V167.213V166.926L1431.17 166.781L1422.5 161.713V134.467L1431.19 128.734L1431.41 128.586V128.317V101.584V101.301L1431.17 101.155L1422.5 95.9545V67.6225L1431.21 61.3563L1431.41 61.2067V60.9505V35.2871V35.004L1431.17 34.8583L1422.5 29.6574V20C1422.5 9.23044 1431.23 0.5 1442 0.5H1445.75H1454.57L1459.45 9.85481Z" stroke="#00FFC4" stroke-opacity="0.1"/>
<path d="M1770 78H1454C1452.9 78 1452 78.8954 1452 80V396C1452 397.105 1452.9 398 1454 398H1770C1771.1 398 1772 397.105 1772 396V80C1772 78.8954 1771.1 78 1770 78Z" fill="url(#paint33_linear_3_183)"/>
<path d="M1750 340H1474C1472.9 340 1472 340.895 1472 342V380C1472 381.105 1472.9 382 1474 382H1750C1751.1 382 1752 381.105 1752 380V342C1752 340.895 1751.1 340 1750 340Z" fill="white" fill-opacity="0.07"/>
</g>
</mask>
<g mask="url(#mask5_3_183)">
<path d="M1802 0H1422V432H1802V0Z" fill="url(#paint34_linear_3_183)"/>
</g>
</g>
</g>
</g>
<defs>
<linearGradient id="paint0_linear_3_183" x1="-218" y1="-5.2498e-06" x2="143.445" y2="446.739" gradientUnits="userSpaceOnUse">
<stop stop-color="#C7C7C7"/>
<stop offset="1" stop-color="#C7C7C7"/>
</linearGradient>
<linearGradient id="paint1_linear_3_183" x1="-28" y1="78" x2="-28" y2="398" gradientUnits="userSpaceOnUse">
<stop stop-color="white"/>
<stop offset="1" stop-color="white" stop-opacity="0.1"/>
</linearGradient>
<linearGradient id="paint2_linear_3_183" x1="-218" y1="-5.2498e-06" x2="143.445" y2="446.739" gradientUnits="userSpaceOnUse">
<stop stop-color="#C7C7C7"/>
<stop offset="1" stop-color="#C7C7C7"/>
</linearGradient>
<radialGradient id="paint3_radial_3_183" cx="0" cy="0" r="1" gradientUnits="userSpaceOnUse" gradientTransform="translate(-128.7 435.825) rotate(-3.9013) scale(113.789 92.0426)">
<stop stop-color="#00FFC4"/>
<stop offset="1" stop-color="#00FFC4" stop-opacity="0"/>
</radialGradient>
<radialGradient id="paint4_radial_3_183" cx="0" cy="0" r="1" gradientUnits="userSpaceOnUse" gradientTransform="translate(82.2 4.78492e-06) rotate(162.651) scale(88.5798 72.182)">
<stop stop-color="#00FFC4"/>
<stop offset="1" stop-color="#00FFC4" stop-opacity="0"/>
</radialGradient>
<linearGradient id="paint5_linear_3_183" x1="-28" y1="78" x2="-28" y2="398" gradientUnits="userSpaceOnUse">
<stop stop-color="white"/>
<stop offset="1" stop-color="white" stop-opacity="0.1"/>
</linearGradient>
<linearGradient id="paint6_linear_3_183" x1="-28" y1="0" x2="-28" y2="432" gradientUnits="userSpaceOnUse">
<stop stop-color="white" stop-opacity="0"/>
<stop offset="1" stop-color="white"/>
</linearGradient>
<linearGradient id="paint7_linear_3_183" x1="192" y1="-5.2498e-06" x2="553.445" y2="446.739" gradientUnits="userSpaceOnUse">
<stop stop-color="#C7C7C7"/>
<stop offset="1" stop-color="#C7C7C7"/>
</linearGradient>
<linearGradient id="paint8_linear_3_183" x1="382" y1="78" x2="382" y2="398" gradientUnits="userSpaceOnUse">
<stop stop-color="white"/>
<stop offset="1" stop-color="white" stop-opacity="0.1"/>
</linearGradient>
<linearGradient id="paint9_linear_3_183" x1="192" y1="-5.2498e-06" x2="553.445" y2="446.739" gradientUnits="userSpaceOnUse">
<stop stop-color="#C7C7C7"/>
<stop offset="1" stop-color="#C7C7C7"/>
</linearGradient>
<radialGradient id="paint10_radial_3_183" cx="0" cy="0" r="1" gradientUnits="userSpaceOnUse" gradientTransform="translate(281.3 435.825) rotate(-3.9013) scale(113.789 92.0426)">
<stop stop-color="#00FFC4"/>
<stop offset="1" stop-color="#00FFC4" stop-opacity="0"/>
</radialGradient>
<radialGradient id="paint11_radial_3_183" cx="0" cy="0" r="1" gradientUnits="userSpaceOnUse" gradientTransform="translate(492.2 4.78492e-06) rotate(162.651) scale(88.5798 72.182)">
<stop stop-color="#00FFC4"/>
<stop offset="1" stop-color="#00FFC4" stop-opacity="0"/>
</radialGradient>
<linearGradient id="paint12_linear_3_183" x1="382" y1="78" x2="382" y2="398" gradientUnits="userSpaceOnUse">
<stop stop-color="white"/>
<stop offset="1" stop-color="white" stop-opacity="0.1"/>
</linearGradient>
<linearGradient id="paint13_linear_3_183" x1="382" y1="0" x2="382" y2="432" gradientUnits="userSpaceOnUse">
<stop stop-color="white" stop-opacity="0"/>
<stop offset="1" stop-color="white"/>
</linearGradient>
<linearGradient id="paint14_linear_3_183" x1="602" y1="2.27793e-06" x2="963.44" y2="446.739" gradientUnits="userSpaceOnUse">
<stop stop-color="#C7C7C7"/>
<stop offset="1" stop-color="#C7C7C7"/>
</linearGradient>
<linearGradient id="paint15_linear_3_183" x1="792" y1="78" x2="792" y2="398" gradientUnits="userSpaceOnUse">
<stop stop-color="white"/>
<stop offset="1" stop-color="white" stop-opacity="0.1"/>
</linearGradient>
<linearGradient id="paint16_linear_3_183" x1="602" y1="2.27793e-06" x2="963.44" y2="446.739" gradientUnits="userSpaceOnUse">
<stop stop-color="#C7C7C7"/>
<stop offset="1" stop-color="#C7C7C7"/>
</linearGradient>
<radialGradient id="paint17_radial_3_183" cx="0" cy="0" r="1" gradientUnits="userSpaceOnUse" gradientTransform="translate(691.3 435.825) rotate(-3.9013) scale(113.789 92.0426)">
<stop stop-color="#00FFC4"/>
<stop offset="1" stop-color="#00FFC4" stop-opacity="0"/>
</radialGradient>
<radialGradient id="paint18_radial_3_183" cx="0" cy="0" r="1" gradientUnits="userSpaceOnUse" gradientTransform="translate(902.2 4.78492e-06) rotate(162.651) scale(88.5798 72.182)">
<stop stop-color="#00FFC4"/>
<stop offset="1" stop-color="#00FFC4" stop-opacity="0"/>
</radialGradient>
<linearGradient id="paint19_linear_3_183" x1="792" y1="78" x2="792" y2="398" gradientUnits="userSpaceOnUse">
<stop stop-color="white"/>
<stop offset="1" stop-color="white" stop-opacity="0.1"/>
</linearGradient>
<linearGradient id="paint20_linear_3_183" x1="792" y1="0" x2="792" y2="432" gradientUnits="userSpaceOnUse">
<stop stop-color="white" stop-opacity="0"/>
<stop offset="1" stop-color="white"/>
</linearGradient>
<linearGradient id="paint21_linear_3_183" x1="1012" y1="2.27793e-06" x2="1373.44" y2="446.739" gradientUnits="userSpaceOnUse">
<stop stop-color="#C7C7C7"/>
<stop offset="1" stop-color="#C7C7C7"/>
</linearGradient>
<linearGradient id="paint22_linear_3_183" x1="1202" y1="78" x2="1202" y2="398" gradientUnits="userSpaceOnUse">
<stop stop-color="white"/>
<stop offset="1" stop-color="white" stop-opacity="0.1"/>
</linearGradient>
<linearGradient id="paint23_linear_3_183" x1="1012" y1="2.27793e-06" x2="1373.44" y2="446.739" gradientUnits="userSpaceOnUse">
<stop stop-color="#C7C7C7"/>
<stop offset="1" stop-color="#C7C7C7"/>
</linearGradient>
<radialGradient id="paint24_radial_3_183" cx="0" cy="0" r="1" gradientUnits="userSpaceOnUse" gradientTransform="translate(1101.3 435.825) rotate(-3.9013) scale(113.789 92.0426)">
<stop stop-color="#00FFC4"/>
<stop offset="1" stop-color="#00FFC4" stop-opacity="0"/>
</radialGradient>
<radialGradient id="paint25_radial_3_183" cx="0" cy="0" r="1" gradientUnits="userSpaceOnUse" gradientTransform="translate(1312.2 4.78492e-06) rotate(162.651) scale(88.5798 72.182)">
<stop stop-color="#00FFC4"/>
<stop offset="1" stop-color="#00FFC4" stop-opacity="0"/>
</radialGradient>
<linearGradient id="paint26_linear_3_183" x1="1202" y1="78" x2="1202" y2="398" gradientUnits="userSpaceOnUse">
<stop stop-color="white"/>
<stop offset="1" stop-color="white" stop-opacity="0.1"/>
</linearGradient>
<linearGradient id="paint27_linear_3_183" x1="1202" y1="0" x2="1202" y2="432" gradientUnits="userSpaceOnUse">
<stop stop-color="white" stop-opacity="0"/>
<stop offset="1" stop-color="white"/>
</linearGradient>
<linearGradient id="paint28_linear_3_183" x1="1422" y1="2.27793e-06" x2="1783.44" y2="446.739" gradientUnits="userSpaceOnUse">
<stop stop-color="#C7C7C7"/>
<stop offset="1" stop-color="#C7C7C7"/>
</linearGradient>
<linearGradient id="paint29_linear_3_183" x1="1612" y1="78" x2="1612" y2="398" gradientUnits="userSpaceOnUse">
<stop stop-color="white"/>
<stop offset="1" stop-color="white" stop-opacity="0.1"/>
</linearGradient>
<linearGradient id="paint30_linear_3_183" x1="1422" y1="2.27793e-06" x2="1783.44" y2="446.739" gradientUnits="userSpaceOnUse">
<stop stop-color="#C7C7C7"/>
<stop offset="1" stop-color="#C7C7C7"/>
</linearGradient>
<radialGradient id="paint31_radial_3_183" cx="0" cy="0" r="1" gradientUnits="userSpaceOnUse" gradientTransform="translate(1511.3 435.825) rotate(-3.9013) scale(113.789 92.0426)">
<stop stop-color="#00FFC4"/>
<stop offset="1" stop-color="#00FFC4" stop-opacity="0"/>
</radialGradient>
<radialGradient id="paint32_radial_3_183" cx="0" cy="0" r="1" gradientUnits="userSpaceOnUse" gradientTransform="translate(1722.2 4.78492e-06) rotate(162.651) scale(88.5798 72.182)">
<stop stop-color="#00FFC4"/>
<stop offset="1" stop-color="#00FFC4" stop-opacity="0"/>
</radialGradient>
<linearGradient id="paint33_linear_3_183" x1="1612" y1="78" x2="1612" y2="398" gradientUnits="userSpaceOnUse">
<stop stop-color="white"/>
<stop offset="1" stop-color="white" stop-opacity="0.1"/>
</linearGradient>
<linearGradient id="paint34_linear_3_183" x1="1612" y1="0" x2="1612" y2="432" gradientUnits="userSpaceOnUse">
<stop stop-color="white" stop-opacity="0"/>
<stop offset="1" stop-color="white"/>
</linearGradient>
<clipPath id="clip0_3_183">
<rect width="1593" height="432" fill="white"/>
</clipPath>
<clipPath id="clip1_3_183">
<rect width="2600" height="432" fill="white" transform="translate(-303)"/>
</clipPath>
</defs>
</svg>
