<svg width="1600" height="432" viewBox="0 0 1600 432" fill="none" xmlns="http://www.w3.org/2000/svg" preserveAspectRatio="none">
<g style="mix-blend-mode:luminosity" opacity="0.3">
<g opacity="0.8">
<g filter="url(#filter0_b_1_11436)">
<path d="M-172.555 9.85481L-172.415 10.1238H-172.111H-144.252H-143.978L-143.83 9.89235L-137.849 0.5H-108.881L-103.453 9.87429L-103.309 10.1238H-103.021H-88.5337H-75.1613H-74.8998L-74.7507 9.90905L-68.2136 0.5H-39.7629L-33.2259 9.90905L-33.0767 10.1238H-32.8152H-19.4428H-5.5132H-5.23883L-5.09146 9.89235L0.890182 0.5H29.328L35.865 9.90905L36.0142 10.1238H36.2757H63.5777H63.8521L63.9995 9.89235L69.9811 0.5H99.5065L104.934 9.87429L105.078 10.1238H105.367H133.226H133.514L133.659 9.87429L139.086 0.5H150C160.77 0.5 169.5 9.23045 169.5 20V29.6259L160.869 33.767L160.585 33.9031V34.2178V60.9505V61.2067L160.793 61.3563L169.5 67.6225V95.923L160.869 100.064L160.585 100.2V100.515V127.248V127.504L160.793 127.653L169.5 133.92V161.731L160.81 167.464L160.585 167.612V167.881V194.614V194.897L160.828 195.043L169.5 200.244V228.549L160.828 233.749L160.585 233.895V234.178V260.911V261.167L160.793 261.317L169.5 267.583V295.394L160.81 301.127L160.585 301.275V301.545V327.208V327.464L160.793 327.614L169.5 333.88V361.17L160.793 367.436L160.585 367.585V367.842V394.574V394.857L160.828 395.003L169.5 400.204V412C169.5 422.77 160.77 431.5 150 431.5H137.967L133.655 424.259L133.51 424.015H133.226H105.367H105.115L104.965 424.216L99.5436 431.5H68.8766L64.5645 424.259L64.4191 424.015H64.1349H36.2757H36.0245L35.8746 424.216L30.4527 431.5H-0.21434L-4.52641 424.259L-4.67181 424.015H-4.95601H-33.9296H-34.2138L-34.3592 424.259L-38.6713 431.5H-69.3053L-73.6173 424.259L-73.7627 424.015H-74.0469H-103.021H-103.305L-103.45 424.259L-107.762 431.5H-138.429L-143.851 424.216L-144.001 424.015H-144.252H-172.111H-172.363L-172.513 424.216L-177.934 431.5H-190C-200.77 431.5 -209.5 422.77 -209.5 412V400.204L-200.828 395.003L-200.585 394.857V394.574V367.842V367.558L-200.828 367.413L-209.5 362.212V333.372L-200.828 328.171L-200.585 328.026V327.743V301.01V300.741L-200.81 300.593L-209.5 294.86V267.061L-200.81 261.328L-200.585 261.18V260.911V234.178V233.895L-200.828 233.749L-209.5 228.549V200.244L-200.828 195.043L-200.585 194.897V194.614V180.98V167.213V166.926L-200.833 166.781L-209.5 161.713V134.467L-200.81 128.734L-200.585 128.586V128.317V101.584V101.301L-200.828 101.155L-209.5 95.9545V67.6225L-200.793 61.3563L-200.585 61.2067V60.9505V35.2871V35.004L-200.828 34.8583L-209.5 29.6574V20C-209.5 9.23044 -200.77 0.5 -190 0.5H-186.25H-177.429L-172.555 9.85481Z" fill="url(#paint0_linear_1_11436)"/>
<path d="M-172.555 9.85481L-172.415 10.1238H-172.111H-144.252H-143.978L-143.83 9.89235L-137.849 0.5H-108.881L-103.453 9.87429L-103.309 10.1238H-103.021H-88.5337H-75.1613H-74.8998L-74.7507 9.90905L-68.2136 0.5H-39.7629L-33.2259 9.90905L-33.0767 10.1238H-32.8152H-19.4428H-5.5132H-5.23883L-5.09146 9.89235L0.890182 0.5H29.328L35.865 9.90905L36.0142 10.1238H36.2757H63.5777H63.8521L63.9995 9.89235L69.9811 0.5H99.5065L104.934 9.87429L105.078 10.1238H105.367H133.226H133.514L133.659 9.87429L139.086 0.5H150C160.77 0.5 169.5 9.23045 169.5 20V29.6259L160.869 33.767L160.585 33.9031V34.2178V60.9505V61.2067L160.793 61.3563L169.5 67.6225V95.923L160.869 100.064L160.585 100.2V100.515V127.248V127.504L160.793 127.653L169.5 133.92V161.731L160.81 167.464L160.585 167.612V167.881V194.614V194.897L160.828 195.043L169.5 200.244V228.549L160.828 233.749L160.585 233.895V234.178V260.911V261.167L160.793 261.317L169.5 267.583V295.394L160.81 301.127L160.585 301.275V301.545V327.208V327.464L160.793 327.614L169.5 333.88V361.17L160.793 367.436L160.585 367.585V367.842V394.574V394.857L160.828 395.003L169.5 400.204V412C169.5 422.77 160.77 431.5 150 431.5H137.967L133.655 424.259L133.51 424.015H133.226H105.367H105.115L104.965 424.216L99.5436 431.5H68.8766L64.5645 424.259L64.4191 424.015H64.1349H36.2757H36.0245L35.8746 424.216L30.4527 431.5H-0.21434L-4.52641 424.259L-4.67181 424.015H-4.95601H-33.9296H-34.2138L-34.3592 424.259L-38.6713 431.5H-69.3053L-73.6173 424.259L-73.7627 424.015H-74.0469H-103.021H-103.305L-103.45 424.259L-107.762 431.5H-138.429L-143.851 424.216L-144.001 424.015H-144.252H-172.111H-172.363L-172.513 424.216L-177.934 431.5H-190C-200.77 431.5 -209.5 422.77 -209.5 412V400.204L-200.828 395.003L-200.585 394.857V394.574V367.842V367.558L-200.828 367.413L-209.5 362.212V333.372L-200.828 328.171L-200.585 328.026V327.743V301.01V300.741L-200.81 300.593L-209.5 294.86V267.061L-200.81 261.328L-200.585 261.18V260.911V234.178V233.895L-200.828 233.749L-209.5 228.549V200.244L-200.828 195.043L-200.585 194.897V194.614V180.98V167.213V166.926L-200.833 166.781L-209.5 161.713V134.467L-200.81 128.734L-200.585 128.586V128.317V101.584V101.301L-200.828 101.155L-209.5 95.9545V67.6225L-200.793 61.3563L-200.585 61.2067V60.9505V35.2871V35.004L-200.828 34.8583L-209.5 29.6574V20C-209.5 9.23044 -200.77 0.5 -190 0.5H-186.25H-177.429L-172.555 9.85481Z" fill="white" fill-opacity="0.03"/>
<path d="M-172.555 9.85481L-172.415 10.1238H-172.111H-144.252H-143.978L-143.83 9.89235L-137.849 0.5H-108.881L-103.453 9.87429L-103.309 10.1238H-103.021H-88.5337H-75.1613H-74.8998L-74.7507 9.90905L-68.2136 0.5H-39.7629L-33.2259 9.90905L-33.0767 10.1238H-32.8152H-19.4428H-5.5132H-5.23883L-5.09146 9.89235L0.890182 0.5H29.328L35.865 9.90905L36.0142 10.1238H36.2757H63.5777H63.8521L63.9995 9.89235L69.9811 0.5H99.5065L104.934 9.87429L105.078 10.1238H105.367H133.226H133.514L133.659 9.87429L139.086 0.5H150C160.77 0.5 169.5 9.23045 169.5 20V29.6259L160.869 33.767L160.585 33.9031V34.2178V60.9505V61.2067L160.793 61.3563L169.5 67.6225V95.923L160.869 100.064L160.585 100.2V100.515V127.248V127.504L160.793 127.653L169.5 133.92V161.731L160.81 167.464L160.585 167.612V167.881V194.614V194.897L160.828 195.043L169.5 200.244V228.549L160.828 233.749L160.585 233.895V234.178V260.911V261.167L160.793 261.317L169.5 267.583V295.394L160.81 301.127L160.585 301.275V301.545V327.208V327.464L160.793 327.614L169.5 333.88V361.17L160.793 367.436L160.585 367.585V367.842V394.574V394.857L160.828 395.003L169.5 400.204V412C169.5 422.77 160.77 431.5 150 431.5H137.967L133.655 424.259L133.51 424.015H133.226H105.367H105.115L104.965 424.216L99.5436 431.5H68.8766L64.5645 424.259L64.4191 424.015H64.1349H36.2757H36.0245L35.8746 424.216L30.4527 431.5H-0.21434L-4.52641 424.259L-4.67181 424.015H-4.95601H-33.9296H-34.2138L-34.3592 424.259L-38.6713 431.5H-69.3053L-73.6173 424.259L-73.7627 424.015H-74.0469H-103.021H-103.305L-103.45 424.259L-107.762 431.5H-138.429L-143.851 424.216L-144.001 424.015H-144.252H-172.111H-172.363L-172.513 424.216L-177.934 431.5H-190C-200.77 431.5 -209.5 422.77 -209.5 412V400.204L-200.828 395.003L-200.585 394.857V394.574V367.842V367.558L-200.828 367.413L-209.5 362.212V333.372L-200.828 328.171L-200.585 328.026V327.743V301.01V300.741L-200.81 300.593L-209.5 294.86V267.061L-200.81 261.328L-200.585 261.18V260.911V234.178V233.895L-200.828 233.749L-209.5 228.549V200.244L-200.828 195.043L-200.585 194.897V194.614V180.98V167.213V166.926L-200.833 166.781L-209.5 161.713V134.467L-200.81 128.734L-200.585 128.586V128.317V101.584V101.301L-200.828 101.155L-209.5 95.9545V67.6225L-200.793 61.3563L-200.585 61.2067V60.9505V35.2871V35.004L-200.828 34.8583L-209.5 29.6574V20C-209.5 9.23044 -200.77 0.5 -190 0.5H-186.25H-177.429L-172.555 9.85481Z" stroke="url(#paint1_radial_1_11436)"/>
<path d="M-172.555 9.85481L-172.415 10.1238H-172.111H-144.252H-143.978L-143.83 9.89235L-137.849 0.5H-108.881L-103.453 9.87429L-103.309 10.1238H-103.021H-88.5337H-75.1613H-74.8998L-74.7507 9.90905L-68.2136 0.5H-39.7629L-33.2259 9.90905L-33.0767 10.1238H-32.8152H-19.4428H-5.5132H-5.23883L-5.09146 9.89235L0.890182 0.5H29.328L35.865 9.90905L36.0142 10.1238H36.2757H63.5777H63.8521L63.9995 9.89235L69.9811 0.5H99.5065L104.934 9.87429L105.078 10.1238H105.367H133.226H133.514L133.659 9.87429L139.086 0.5H150C160.77 0.5 169.5 9.23045 169.5 20V29.6259L160.869 33.767L160.585 33.9031V34.2178V60.9505V61.2067L160.793 61.3563L169.5 67.6225V95.923L160.869 100.064L160.585 100.2V100.515V127.248V127.504L160.793 127.653L169.5 133.92V161.731L160.81 167.464L160.585 167.612V167.881V194.614V194.897L160.828 195.043L169.5 200.244V228.549L160.828 233.749L160.585 233.895V234.178V260.911V261.167L160.793 261.317L169.5 267.583V295.394L160.81 301.127L160.585 301.275V301.545V327.208V327.464L160.793 327.614L169.5 333.88V361.17L160.793 367.436L160.585 367.585V367.842V394.574V394.857L160.828 395.003L169.5 400.204V412C169.5 422.77 160.77 431.5 150 431.5H137.967L133.655 424.259L133.51 424.015H133.226H105.367H105.115L104.965 424.216L99.5436 431.5H68.8766L64.5645 424.259L64.4191 424.015H64.1349H36.2757H36.0245L35.8746 424.216L30.4527 431.5H-0.21434L-4.52641 424.259L-4.67181 424.015H-4.95601H-33.9296H-34.2138L-34.3592 424.259L-38.6713 431.5H-69.3053L-73.6173 424.259L-73.7627 424.015H-74.0469H-103.021H-103.305L-103.45 424.259L-107.762 431.5H-138.429L-143.851 424.216L-144.001 424.015H-144.252H-172.111H-172.363L-172.513 424.216L-177.934 431.5H-190C-200.77 431.5 -209.5 422.77 -209.5 412V400.204L-200.828 395.003L-200.585 394.857V394.574V367.842V367.558L-200.828 367.413L-209.5 362.212V333.372L-200.828 328.171L-200.585 328.026V327.743V301.01V300.741L-200.81 300.593L-209.5 294.86V267.061L-200.81 261.328L-200.585 261.18V260.911V234.178V233.895L-200.828 233.749L-209.5 228.549V200.244L-200.828 195.043L-200.585 194.897V194.614V180.98V167.213V166.926L-200.833 166.781L-209.5 161.713V134.467L-200.81 128.734L-200.585 128.586V128.317V101.584V101.301L-200.828 101.155L-209.5 95.9545V67.6225L-200.793 61.3563L-200.585 61.2067V60.9505V35.2871V35.004L-200.828 34.8583L-209.5 29.6574V20C-209.5 9.23044 -200.77 0.5 -190 0.5H-186.25H-177.429L-172.555 9.85481Z" stroke="url(#paint2_radial_1_11436)"/>
<path d="M-172.555 9.85481L-172.415 10.1238H-172.111H-144.252H-143.978L-143.83 9.89235L-137.849 0.5H-108.881L-103.453 9.87429L-103.309 10.1238H-103.021H-88.5337H-75.1613H-74.8998L-74.7507 9.90905L-68.2136 0.5H-39.7629L-33.2259 9.90905L-33.0767 10.1238H-32.8152H-19.4428H-5.5132H-5.23883L-5.09146 9.89235L0.890182 0.5H29.328L35.865 9.90905L36.0142 10.1238H36.2757H63.5777H63.8521L63.9995 9.89235L69.9811 0.5H99.5065L104.934 9.87429L105.078 10.1238H105.367H133.226H133.514L133.659 9.87429L139.086 0.5H150C160.77 0.5 169.5 9.23045 169.5 20V29.6259L160.869 33.767L160.585 33.9031V34.2178V60.9505V61.2067L160.793 61.3563L169.5 67.6225V95.923L160.869 100.064L160.585 100.2V100.515V127.248V127.504L160.793 127.653L169.5 133.92V161.731L160.81 167.464L160.585 167.612V167.881V194.614V194.897L160.828 195.043L169.5 200.244V228.549L160.828 233.749L160.585 233.895V234.178V260.911V261.167L160.793 261.317L169.5 267.583V295.394L160.81 301.127L160.585 301.275V301.545V327.208V327.464L160.793 327.614L169.5 333.88V361.17L160.793 367.436L160.585 367.585V367.842V394.574V394.857L160.828 395.003L169.5 400.204V412C169.5 422.77 160.77 431.5 150 431.5H137.967L133.655 424.259L133.51 424.015H133.226H105.367H105.115L104.965 424.216L99.5436 431.5H68.8766L64.5645 424.259L64.4191 424.015H64.1349H36.2757H36.0245L35.8746 424.216L30.4527 431.5H-0.21434L-4.52641 424.259L-4.67181 424.015H-4.95601H-33.9296H-34.2138L-34.3592 424.259L-38.6713 431.5H-69.3053L-73.6173 424.259L-73.7627 424.015H-74.0469H-103.021H-103.305L-103.45 424.259L-107.762 431.5H-138.429L-143.851 424.216L-144.001 424.015H-144.252H-172.111H-172.363L-172.513 424.216L-177.934 431.5H-190C-200.77 431.5 -209.5 422.77 -209.5 412V400.204L-200.828 395.003L-200.585 394.857V394.574V367.842V367.558L-200.828 367.413L-209.5 362.212V333.372L-200.828 328.171L-200.585 328.026V327.743V301.01V300.741L-200.81 300.593L-209.5 294.86V267.061L-200.81 261.328L-200.585 261.18V260.911V234.178V233.895L-200.828 233.749L-209.5 228.549V200.244L-200.828 195.043L-200.585 194.897V194.614V180.98V167.213V166.926L-200.833 166.781L-209.5 161.713V134.467L-200.81 128.734L-200.585 128.586V128.317V101.584V101.301L-200.828 101.155L-209.5 95.9545V67.6225L-200.793 61.3563L-200.585 61.2067V60.9505V35.2871V35.004L-200.828 34.8583L-209.5 29.6574V20C-209.5 9.23044 -200.77 0.5 -190 0.5H-186.25H-177.429L-172.555 9.85481Z" stroke="#00FFC4" stroke-opacity="0.1"/>
</g>
<rect x="-180" y="78" width="320" height="320" rx="2" fill="url(#paint3_linear_1_11436)"/>
<g filter="url(#filter1_b_1_11436)">
<rect x="-160" y="340" width="280" height="42" rx="2" fill="white" fill-opacity="0.07"/>
</g>
</g>
<g opacity="0.8">
<g filter="url(#filter2_b_1_11436)">
<path d="M237.445 9.85481L237.585 10.1238H237.889H265.748H266.022L266.17 9.89235L272.151 0.5H301.119L306.547 9.87429L306.691 10.1238H306.979H321.466H334.839H335.1L335.249 9.90905L341.786 0.5H370.237L376.774 9.90905L376.923 10.1238H377.185H390.557H404.487H404.761L404.909 9.89235L410.89 0.5H439.328L445.865 9.90905L446.014 10.1238H446.276H473.578H473.852L473.999 9.89235L479.981 0.5H509.506L514.934 9.87429L515.078 10.1238H515.367H543.226H543.514L543.659 9.87429L549.086 0.5H560C570.77 0.5 579.5 9.23045 579.5 20V29.6259L570.869 33.767L570.585 33.9031V34.2178V60.9505V61.2067L570.793 61.3563L579.5 67.6225V95.923L570.869 100.064L570.585 100.2V100.515V127.248V127.504L570.793 127.653L579.5 133.92V161.731L570.81 167.464L570.585 167.612V167.881V194.614V194.897L570.828 195.043L579.5 200.244V228.549L570.828 233.749L570.585 233.895V234.178V260.911V261.167L570.793 261.317L579.5 267.583V295.394L570.81 301.127L570.585 301.275V301.545V327.208V327.464L570.793 327.614L579.5 333.88V361.17L570.793 367.436L570.585 367.585V367.842V394.574V394.857L570.828 395.003L579.5 400.204V412C579.5 422.77 570.77 431.5 560 431.5H547.967L543.655 424.259L543.51 424.015H543.226H515.367H515.115L514.965 424.216L509.544 431.5H478.877L474.564 424.259L474.419 424.015H474.135H446.276H446.025L445.875 424.216L440.453 431.5H409.786L405.474 424.259L405.328 424.015H405.044H376.07H375.786L375.641 424.259L371.329 431.5H340.695L336.383 424.259L336.237 424.015H335.953H306.979H306.695L306.55 424.259L302.238 431.5H271.571L266.149 424.216L265.999 424.015H265.748H237.889H237.637L237.487 424.216L232.066 431.5H220C209.23 431.5 200.5 422.77 200.5 412V400.204L209.172 395.003L209.415 394.857V394.574V367.842V367.558L209.172 367.413L200.5 362.212V333.372L209.172 328.171L209.415 328.026V327.743V301.01V300.741L209.19 300.593L200.5 294.86V267.061L209.19 261.328L209.415 261.18V260.911V234.178V233.895L209.172 233.749L200.5 228.549V200.244L209.172 195.043L209.415 194.897V194.614V180.98V167.213V166.926L209.167 166.781L200.5 161.713V134.467L209.19 128.734L209.415 128.586V128.317V101.584V101.301L209.172 101.155L200.5 95.9545V67.6225L209.207 61.3563L209.415 61.2067V60.9505V35.2871V35.004L209.172 34.8583L200.5 29.6574V20C200.5 9.23044 209.23 0.5 220 0.5H223.75H232.571L237.445 9.85481Z" fill="url(#paint4_linear_1_11436)"/>
<path d="M237.445 9.85481L237.585 10.1238H237.889H265.748H266.022L266.17 9.89235L272.151 0.5H301.119L306.547 9.87429L306.691 10.1238H306.979H321.466H334.839H335.1L335.249 9.90905L341.786 0.5H370.237L376.774 9.90905L376.923 10.1238H377.185H390.557H404.487H404.761L404.909 9.89235L410.89 0.5H439.328L445.865 9.90905L446.014 10.1238H446.276H473.578H473.852L473.999 9.89235L479.981 0.5H509.506L514.934 9.87429L515.078 10.1238H515.367H543.226H543.514L543.659 9.87429L549.086 0.5H560C570.77 0.5 579.5 9.23045 579.5 20V29.6259L570.869 33.767L570.585 33.9031V34.2178V60.9505V61.2067L570.793 61.3563L579.5 67.6225V95.923L570.869 100.064L570.585 100.2V100.515V127.248V127.504L570.793 127.653L579.5 133.92V161.731L570.81 167.464L570.585 167.612V167.881V194.614V194.897L570.828 195.043L579.5 200.244V228.549L570.828 233.749L570.585 233.895V234.178V260.911V261.167L570.793 261.317L579.5 267.583V295.394L570.81 301.127L570.585 301.275V301.545V327.208V327.464L570.793 327.614L579.5 333.88V361.17L570.793 367.436L570.585 367.585V367.842V394.574V394.857L570.828 395.003L579.5 400.204V412C579.5 422.77 570.77 431.5 560 431.5H547.967L543.655 424.259L543.51 424.015H543.226H515.367H515.115L514.965 424.216L509.544 431.5H478.877L474.564 424.259L474.419 424.015H474.135H446.276H446.025L445.875 424.216L440.453 431.5H409.786L405.474 424.259L405.328 424.015H405.044H376.07H375.786L375.641 424.259L371.329 431.5H340.695L336.383 424.259L336.237 424.015H335.953H306.979H306.695L306.55 424.259L302.238 431.5H271.571L266.149 424.216L265.999 424.015H265.748H237.889H237.637L237.487 424.216L232.066 431.5H220C209.23 431.5 200.5 422.77 200.5 412V400.204L209.172 395.003L209.415 394.857V394.574V367.842V367.558L209.172 367.413L200.5 362.212V333.372L209.172 328.171L209.415 328.026V327.743V301.01V300.741L209.19 300.593L200.5 294.86V267.061L209.19 261.328L209.415 261.18V260.911V234.178V233.895L209.172 233.749L200.5 228.549V200.244L209.172 195.043L209.415 194.897V194.614V180.98V167.213V166.926L209.167 166.781L200.5 161.713V134.467L209.19 128.734L209.415 128.586V128.317V101.584V101.301L209.172 101.155L200.5 95.9545V67.6225L209.207 61.3563L209.415 61.2067V60.9505V35.2871V35.004L209.172 34.8583L200.5 29.6574V20C200.5 9.23044 209.23 0.5 220 0.5H223.75H232.571L237.445 9.85481Z" fill="white" fill-opacity="0.03"/>
<path d="M237.445 9.85481L237.585 10.1238H237.889H265.748H266.022L266.17 9.89235L272.151 0.5H301.119L306.547 9.87429L306.691 10.1238H306.979H321.466H334.839H335.1L335.249 9.90905L341.786 0.5H370.237L376.774 9.90905L376.923 10.1238H377.185H390.557H404.487H404.761L404.909 9.89235L410.89 0.5H439.328L445.865 9.90905L446.014 10.1238H446.276H473.578H473.852L473.999 9.89235L479.981 0.5H509.506L514.934 9.87429L515.078 10.1238H515.367H543.226H543.514L543.659 9.87429L549.086 0.5H560C570.77 0.5 579.5 9.23045 579.5 20V29.6259L570.869 33.767L570.585 33.9031V34.2178V60.9505V61.2067L570.793 61.3563L579.5 67.6225V95.923L570.869 100.064L570.585 100.2V100.515V127.248V127.504L570.793 127.653L579.5 133.92V161.731L570.81 167.464L570.585 167.612V167.881V194.614V194.897L570.828 195.043L579.5 200.244V228.549L570.828 233.749L570.585 233.895V234.178V260.911V261.167L570.793 261.317L579.5 267.583V295.394L570.81 301.127L570.585 301.275V301.545V327.208V327.464L570.793 327.614L579.5 333.88V361.17L570.793 367.436L570.585 367.585V367.842V394.574V394.857L570.828 395.003L579.5 400.204V412C579.5 422.77 570.77 431.5 560 431.5H547.967L543.655 424.259L543.51 424.015H543.226H515.367H515.115L514.965 424.216L509.544 431.5H478.877L474.564 424.259L474.419 424.015H474.135H446.276H446.025L445.875 424.216L440.453 431.5H409.786L405.474 424.259L405.328 424.015H405.044H376.07H375.786L375.641 424.259L371.329 431.5H340.695L336.383 424.259L336.237 424.015H335.953H306.979H306.695L306.55 424.259L302.238 431.5H271.571L266.149 424.216L265.999 424.015H265.748H237.889H237.637L237.487 424.216L232.066 431.5H220C209.23 431.5 200.5 422.77 200.5 412V400.204L209.172 395.003L209.415 394.857V394.574V367.842V367.558L209.172 367.413L200.5 362.212V333.372L209.172 328.171L209.415 328.026V327.743V301.01V300.741L209.19 300.593L200.5 294.86V267.061L209.19 261.328L209.415 261.18V260.911V234.178V233.895L209.172 233.749L200.5 228.549V200.244L209.172 195.043L209.415 194.897V194.614V180.98V167.213V166.926L209.167 166.781L200.5 161.713V134.467L209.19 128.734L209.415 128.586V128.317V101.584V101.301L209.172 101.155L200.5 95.9545V67.6225L209.207 61.3563L209.415 61.2067V60.9505V35.2871V35.004L209.172 34.8583L200.5 29.6574V20C200.5 9.23044 209.23 0.5 220 0.5H223.75H232.571L237.445 9.85481Z" stroke="url(#paint5_radial_1_11436)"/>
<path d="M237.445 9.85481L237.585 10.1238H237.889H265.748H266.022L266.17 9.89235L272.151 0.5H301.119L306.547 9.87429L306.691 10.1238H306.979H321.466H334.839H335.1L335.249 9.90905L341.786 0.5H370.237L376.774 9.90905L376.923 10.1238H377.185H390.557H404.487H404.761L404.909 9.89235L410.89 0.5H439.328L445.865 9.90905L446.014 10.1238H446.276H473.578H473.852L473.999 9.89235L479.981 0.5H509.506L514.934 9.87429L515.078 10.1238H515.367H543.226H543.514L543.659 9.87429L549.086 0.5H560C570.77 0.5 579.5 9.23045 579.5 20V29.6259L570.869 33.767L570.585 33.9031V34.2178V60.9505V61.2067L570.793 61.3563L579.5 67.6225V95.923L570.869 100.064L570.585 100.2V100.515V127.248V127.504L570.793 127.653L579.5 133.92V161.731L570.81 167.464L570.585 167.612V167.881V194.614V194.897L570.828 195.043L579.5 200.244V228.549L570.828 233.749L570.585 233.895V234.178V260.911V261.167L570.793 261.317L579.5 267.583V295.394L570.81 301.127L570.585 301.275V301.545V327.208V327.464L570.793 327.614L579.5 333.88V361.17L570.793 367.436L570.585 367.585V367.842V394.574V394.857L570.828 395.003L579.5 400.204V412C579.5 422.77 570.77 431.5 560 431.5H547.967L543.655 424.259L543.51 424.015H543.226H515.367H515.115L514.965 424.216L509.544 431.5H478.877L474.564 424.259L474.419 424.015H474.135H446.276H446.025L445.875 424.216L440.453 431.5H409.786L405.474 424.259L405.328 424.015H405.044H376.07H375.786L375.641 424.259L371.329 431.5H340.695L336.383 424.259L336.237 424.015H335.953H306.979H306.695L306.55 424.259L302.238 431.5H271.571L266.149 424.216L265.999 424.015H265.748H237.889H237.637L237.487 424.216L232.066 431.5H220C209.23 431.5 200.5 422.77 200.5 412V400.204L209.172 395.003L209.415 394.857V394.574V367.842V367.558L209.172 367.413L200.5 362.212V333.372L209.172 328.171L209.415 328.026V327.743V301.01V300.741L209.19 300.593L200.5 294.86V267.061L209.19 261.328L209.415 261.18V260.911V234.178V233.895L209.172 233.749L200.5 228.549V200.244L209.172 195.043L209.415 194.897V194.614V180.98V167.213V166.926L209.167 166.781L200.5 161.713V134.467L209.19 128.734L209.415 128.586V128.317V101.584V101.301L209.172 101.155L200.5 95.9545V67.6225L209.207 61.3563L209.415 61.2067V60.9505V35.2871V35.004L209.172 34.8583L200.5 29.6574V20C200.5 9.23044 209.23 0.5 220 0.5H223.75H232.571L237.445 9.85481Z" stroke="url(#paint6_radial_1_11436)"/>
<path d="M237.445 9.85481L237.585 10.1238H237.889H265.748H266.022L266.17 9.89235L272.151 0.5H301.119L306.547 9.87429L306.691 10.1238H306.979H321.466H334.839H335.1L335.249 9.90905L341.786 0.5H370.237L376.774 9.90905L376.923 10.1238H377.185H390.557H404.487H404.761L404.909 9.89235L410.89 0.5H439.328L445.865 9.90905L446.014 10.1238H446.276H473.578H473.852L473.999 9.89235L479.981 0.5H509.506L514.934 9.87429L515.078 10.1238H515.367H543.226H543.514L543.659 9.87429L549.086 0.5H560C570.77 0.5 579.5 9.23045 579.5 20V29.6259L570.869 33.767L570.585 33.9031V34.2178V60.9505V61.2067L570.793 61.3563L579.5 67.6225V95.923L570.869 100.064L570.585 100.2V100.515V127.248V127.504L570.793 127.653L579.5 133.92V161.731L570.81 167.464L570.585 167.612V167.881V194.614V194.897L570.828 195.043L579.5 200.244V228.549L570.828 233.749L570.585 233.895V234.178V260.911V261.167L570.793 261.317L579.5 267.583V295.394L570.81 301.127L570.585 301.275V301.545V327.208V327.464L570.793 327.614L579.5 333.88V361.17L570.793 367.436L570.585 367.585V367.842V394.574V394.857L570.828 395.003L579.5 400.204V412C579.5 422.77 570.77 431.5 560 431.5H547.967L543.655 424.259L543.51 424.015H543.226H515.367H515.115L514.965 424.216L509.544 431.5H478.877L474.564 424.259L474.419 424.015H474.135H446.276H446.025L445.875 424.216L440.453 431.5H409.786L405.474 424.259L405.328 424.015H405.044H376.07H375.786L375.641 424.259L371.329 431.5H340.695L336.383 424.259L336.237 424.015H335.953H306.979H306.695L306.55 424.259L302.238 431.5H271.571L266.149 424.216L265.999 424.015H265.748H237.889H237.637L237.487 424.216L232.066 431.5H220C209.23 431.5 200.5 422.77 200.5 412V400.204L209.172 395.003L209.415 394.857V394.574V367.842V367.558L209.172 367.413L200.5 362.212V333.372L209.172 328.171L209.415 328.026V327.743V301.01V300.741L209.19 300.593L200.5 294.86V267.061L209.19 261.328L209.415 261.18V260.911V234.178V233.895L209.172 233.749L200.5 228.549V200.244L209.172 195.043L209.415 194.897V194.614V180.98V167.213V166.926L209.167 166.781L200.5 161.713V134.467L209.19 128.734L209.415 128.586V128.317V101.584V101.301L209.172 101.155L200.5 95.9545V67.6225L209.207 61.3563L209.415 61.2067V60.9505V35.2871V35.004L209.172 34.8583L200.5 29.6574V20C200.5 9.23044 209.23 0.5 220 0.5H223.75H232.571L237.445 9.85481Z" stroke="#00FFC4" stroke-opacity="0.1"/>
</g>
<rect x="230" y="78" width="320" height="320" rx="2" fill="url(#paint7_linear_1_11436)"/>
<g filter="url(#filter3_b_1_11436)">
<rect x="250" y="340" width="280" height="42" rx="2" fill="white" fill-opacity="0.07"/>
</g>
</g>
<g opacity="0.8">
<g filter="url(#filter4_b_1_11436)">
<path d="M647.445 9.85481L647.585 10.1238H647.889H675.748H676.022L676.17 9.89235L682.151 0.5H711.119L716.547 9.87429L716.691 10.1238H716.979H731.466H744.839H745.1L745.249 9.90905L751.786 0.5H780.237L786.774 9.90905L786.923 10.1238H787.185H800.557H814.487H814.761L814.909 9.89235L820.89 0.5H849.328L855.865 9.90905L856.014 10.1238H856.276H883.578H883.852L883.999 9.89235L889.981 0.5H919.506L924.934 9.87429L925.078 10.1238H925.367H953.226H953.514L953.659 9.87429L959.086 0.5H970C980.77 0.5 989.5 9.23045 989.5 20V29.6259L980.869 33.767L980.585 33.9031V34.2178V60.9505V61.2067L980.793 61.3563L989.5 67.6225V95.923L980.869 100.064L980.585 100.2V100.515V127.248V127.504L980.793 127.653L989.5 133.92V161.731L980.81 167.464L980.585 167.612V167.881V194.614V194.897L980.828 195.043L989.5 200.244V228.549L980.828 233.749L980.585 233.895V234.178V260.911V261.167L980.793 261.317L989.5 267.583V295.394L980.81 301.127L980.585 301.275V301.545V327.208V327.464L980.793 327.614L989.5 333.88V361.17L980.793 367.436L980.585 367.585V367.842V394.574V394.857L980.828 395.003L989.5 400.204V412C989.5 422.77 980.77 431.5 970 431.5H957.967L953.655 424.259L953.51 424.015H953.226H925.367H925.115L924.965 424.216L919.544 431.5H888.877L884.564 424.259L884.419 424.015H884.135H856.276H856.025L855.875 424.216L850.453 431.5H819.786L815.474 424.259L815.328 424.015H815.044H786.07H785.786L785.641 424.259L781.329 431.5H750.695L746.383 424.259L746.237 424.015H745.953H716.979H716.695L716.55 424.259L712.238 431.5H681.571L676.149 424.216L675.999 424.015H675.748H647.889H647.637L647.487 424.216L642.066 431.5H630C619.23 431.5 610.5 422.77 610.5 412V400.204L619.172 395.003L619.415 394.857V394.574V367.842V367.558L619.172 367.413L610.5 362.212V333.372L619.172 328.171L619.415 328.026V327.743V301.01V300.741L619.19 300.593L610.5 294.86V267.061L619.19 261.328L619.415 261.18V260.911V234.178V233.895L619.172 233.749L610.5 228.549V200.244L619.172 195.043L619.415 194.897V194.614V180.98V167.213V166.926L619.167 166.781L610.5 161.713V134.467L619.19 128.734L619.415 128.586V128.317V101.584V101.301L619.172 101.155L610.5 95.9545V67.6225L619.207 61.3563L619.415 61.2067V60.9505V35.2871V35.004L619.172 34.8583L610.5 29.6574V20C610.5 9.23044 619.23 0.5 630 0.5H633.75H642.571L647.445 9.85481Z" fill="url(#paint8_linear_1_11436)"/>
<path d="M647.445 9.85481L647.585 10.1238H647.889H675.748H676.022L676.17 9.89235L682.151 0.5H711.119L716.547 9.87429L716.691 10.1238H716.979H731.466H744.839H745.1L745.249 9.90905L751.786 0.5H780.237L786.774 9.90905L786.923 10.1238H787.185H800.557H814.487H814.761L814.909 9.89235L820.89 0.5H849.328L855.865 9.90905L856.014 10.1238H856.276H883.578H883.852L883.999 9.89235L889.981 0.5H919.506L924.934 9.87429L925.078 10.1238H925.367H953.226H953.514L953.659 9.87429L959.086 0.5H970C980.77 0.5 989.5 9.23045 989.5 20V29.6259L980.869 33.767L980.585 33.9031V34.2178V60.9505V61.2067L980.793 61.3563L989.5 67.6225V95.923L980.869 100.064L980.585 100.2V100.515V127.248V127.504L980.793 127.653L989.5 133.92V161.731L980.81 167.464L980.585 167.612V167.881V194.614V194.897L980.828 195.043L989.5 200.244V228.549L980.828 233.749L980.585 233.895V234.178V260.911V261.167L980.793 261.317L989.5 267.583V295.394L980.81 301.127L980.585 301.275V301.545V327.208V327.464L980.793 327.614L989.5 333.88V361.17L980.793 367.436L980.585 367.585V367.842V394.574V394.857L980.828 395.003L989.5 400.204V412C989.5 422.77 980.77 431.5 970 431.5H957.967L953.655 424.259L953.51 424.015H953.226H925.367H925.115L924.965 424.216L919.544 431.5H888.877L884.564 424.259L884.419 424.015H884.135H856.276H856.025L855.875 424.216L850.453 431.5H819.786L815.474 424.259L815.328 424.015H815.044H786.07H785.786L785.641 424.259L781.329 431.5H750.695L746.383 424.259L746.237 424.015H745.953H716.979H716.695L716.55 424.259L712.238 431.5H681.571L676.149 424.216L675.999 424.015H675.748H647.889H647.637L647.487 424.216L642.066 431.5H630C619.23 431.5 610.5 422.77 610.5 412V400.204L619.172 395.003L619.415 394.857V394.574V367.842V367.558L619.172 367.413L610.5 362.212V333.372L619.172 328.171L619.415 328.026V327.743V301.01V300.741L619.19 300.593L610.5 294.86V267.061L619.19 261.328L619.415 261.18V260.911V234.178V233.895L619.172 233.749L610.5 228.549V200.244L619.172 195.043L619.415 194.897V194.614V180.98V167.213V166.926L619.167 166.781L610.5 161.713V134.467L619.19 128.734L619.415 128.586V128.317V101.584V101.301L619.172 101.155L610.5 95.9545V67.6225L619.207 61.3563L619.415 61.2067V60.9505V35.2871V35.004L619.172 34.8583L610.5 29.6574V20C610.5 9.23044 619.23 0.5 630 0.5H633.75H642.571L647.445 9.85481Z" fill="white" fill-opacity="0.03"/>
<path d="M647.445 9.85481L647.585 10.1238H647.889H675.748H676.022L676.17 9.89235L682.151 0.5H711.119L716.547 9.87429L716.691 10.1238H716.979H731.466H744.839H745.1L745.249 9.90905L751.786 0.5H780.237L786.774 9.90905L786.923 10.1238H787.185H800.557H814.487H814.761L814.909 9.89235L820.89 0.5H849.328L855.865 9.90905L856.014 10.1238H856.276H883.578H883.852L883.999 9.89235L889.981 0.5H919.506L924.934 9.87429L925.078 10.1238H925.367H953.226H953.514L953.659 9.87429L959.086 0.5H970C980.77 0.5 989.5 9.23045 989.5 20V29.6259L980.869 33.767L980.585 33.9031V34.2178V60.9505V61.2067L980.793 61.3563L989.5 67.6225V95.923L980.869 100.064L980.585 100.2V100.515V127.248V127.504L980.793 127.653L989.5 133.92V161.731L980.81 167.464L980.585 167.612V167.881V194.614V194.897L980.828 195.043L989.5 200.244V228.549L980.828 233.749L980.585 233.895V234.178V260.911V261.167L980.793 261.317L989.5 267.583V295.394L980.81 301.127L980.585 301.275V301.545V327.208V327.464L980.793 327.614L989.5 333.88V361.17L980.793 367.436L980.585 367.585V367.842V394.574V394.857L980.828 395.003L989.5 400.204V412C989.5 422.77 980.77 431.5 970 431.5H957.967L953.655 424.259L953.51 424.015H953.226H925.367H925.115L924.965 424.216L919.544 431.5H888.877L884.564 424.259L884.419 424.015H884.135H856.276H856.025L855.875 424.216L850.453 431.5H819.786L815.474 424.259L815.328 424.015H815.044H786.07H785.786L785.641 424.259L781.329 431.5H750.695L746.383 424.259L746.237 424.015H745.953H716.979H716.695L716.55 424.259L712.238 431.5H681.571L676.149 424.216L675.999 424.015H675.748H647.889H647.637L647.487 424.216L642.066 431.5H630C619.23 431.5 610.5 422.77 610.5 412V400.204L619.172 395.003L619.415 394.857V394.574V367.842V367.558L619.172 367.413L610.5 362.212V333.372L619.172 328.171L619.415 328.026V327.743V301.01V300.741L619.19 300.593L610.5 294.86V267.061L619.19 261.328L619.415 261.18V260.911V234.178V233.895L619.172 233.749L610.5 228.549V200.244L619.172 195.043L619.415 194.897V194.614V180.98V167.213V166.926L619.167 166.781L610.5 161.713V134.467L619.19 128.734L619.415 128.586V128.317V101.584V101.301L619.172 101.155L610.5 95.9545V67.6225L619.207 61.3563L619.415 61.2067V60.9505V35.2871V35.004L619.172 34.8583L610.5 29.6574V20C610.5 9.23044 619.23 0.5 630 0.5H633.75H642.571L647.445 9.85481Z" stroke="url(#paint9_radial_1_11436)"/>
<path d="M647.445 9.85481L647.585 10.1238H647.889H675.748H676.022L676.17 9.89235L682.151 0.5H711.119L716.547 9.87429L716.691 10.1238H716.979H731.466H744.839H745.1L745.249 9.90905L751.786 0.5H780.237L786.774 9.90905L786.923 10.1238H787.185H800.557H814.487H814.761L814.909 9.89235L820.89 0.5H849.328L855.865 9.90905L856.014 10.1238H856.276H883.578H883.852L883.999 9.89235L889.981 0.5H919.506L924.934 9.87429L925.078 10.1238H925.367H953.226H953.514L953.659 9.87429L959.086 0.5H970C980.77 0.5 989.5 9.23045 989.5 20V29.6259L980.869 33.767L980.585 33.9031V34.2178V60.9505V61.2067L980.793 61.3563L989.5 67.6225V95.923L980.869 100.064L980.585 100.2V100.515V127.248V127.504L980.793 127.653L989.5 133.92V161.731L980.81 167.464L980.585 167.612V167.881V194.614V194.897L980.828 195.043L989.5 200.244V228.549L980.828 233.749L980.585 233.895V234.178V260.911V261.167L980.793 261.317L989.5 267.583V295.394L980.81 301.127L980.585 301.275V301.545V327.208V327.464L980.793 327.614L989.5 333.88V361.17L980.793 367.436L980.585 367.585V367.842V394.574V394.857L980.828 395.003L989.5 400.204V412C989.5 422.77 980.77 431.5 970 431.5H957.967L953.655 424.259L953.51 424.015H953.226H925.367H925.115L924.965 424.216L919.544 431.5H888.877L884.564 424.259L884.419 424.015H884.135H856.276H856.025L855.875 424.216L850.453 431.5H819.786L815.474 424.259L815.328 424.015H815.044H786.07H785.786L785.641 424.259L781.329 431.5H750.695L746.383 424.259L746.237 424.015H745.953H716.979H716.695L716.55 424.259L712.238 431.5H681.571L676.149 424.216L675.999 424.015H675.748H647.889H647.637L647.487 424.216L642.066 431.5H630C619.23 431.5 610.5 422.77 610.5 412V400.204L619.172 395.003L619.415 394.857V394.574V367.842V367.558L619.172 367.413L610.5 362.212V333.372L619.172 328.171L619.415 328.026V327.743V301.01V300.741L619.19 300.593L610.5 294.86V267.061L619.19 261.328L619.415 261.18V260.911V234.178V233.895L619.172 233.749L610.5 228.549V200.244L619.172 195.043L619.415 194.897V194.614V180.98V167.213V166.926L619.167 166.781L610.5 161.713V134.467L619.19 128.734L619.415 128.586V128.317V101.584V101.301L619.172 101.155L610.5 95.9545V67.6225L619.207 61.3563L619.415 61.2067V60.9505V35.2871V35.004L619.172 34.8583L610.5 29.6574V20C610.5 9.23044 619.23 0.5 630 0.5H633.75H642.571L647.445 9.85481Z" stroke="url(#paint10_radial_1_11436)"/>
<path d="M647.445 9.85481L647.585 10.1238H647.889H675.748H676.022L676.17 9.89235L682.151 0.5H711.119L716.547 9.87429L716.691 10.1238H716.979H731.466H744.839H745.1L745.249 9.90905L751.786 0.5H780.237L786.774 9.90905L786.923 10.1238H787.185H800.557H814.487H814.761L814.909 9.89235L820.89 0.5H849.328L855.865 9.90905L856.014 10.1238H856.276H883.578H883.852L883.999 9.89235L889.981 0.5H919.506L924.934 9.87429L925.078 10.1238H925.367H953.226H953.514L953.659 9.87429L959.086 0.5H970C980.77 0.5 989.5 9.23045 989.5 20V29.6259L980.869 33.767L980.585 33.9031V34.2178V60.9505V61.2067L980.793 61.3563L989.5 67.6225V95.923L980.869 100.064L980.585 100.2V100.515V127.248V127.504L980.793 127.653L989.5 133.92V161.731L980.81 167.464L980.585 167.612V167.881V194.614V194.897L980.828 195.043L989.5 200.244V228.549L980.828 233.749L980.585 233.895V234.178V260.911V261.167L980.793 261.317L989.5 267.583V295.394L980.81 301.127L980.585 301.275V301.545V327.208V327.464L980.793 327.614L989.5 333.88V361.17L980.793 367.436L980.585 367.585V367.842V394.574V394.857L980.828 395.003L989.5 400.204V412C989.5 422.77 980.77 431.5 970 431.5H957.967L953.655 424.259L953.51 424.015H953.226H925.367H925.115L924.965 424.216L919.544 431.5H888.877L884.564 424.259L884.419 424.015H884.135H856.276H856.025L855.875 424.216L850.453 431.5H819.786L815.474 424.259L815.328 424.015H815.044H786.07H785.786L785.641 424.259L781.329 431.5H750.695L746.383 424.259L746.237 424.015H745.953H716.979H716.695L716.55 424.259L712.238 431.5H681.571L676.149 424.216L675.999 424.015H675.748H647.889H647.637L647.487 424.216L642.066 431.5H630C619.23 431.5 610.5 422.77 610.5 412V400.204L619.172 395.003L619.415 394.857V394.574V367.842V367.558L619.172 367.413L610.5 362.212V333.372L619.172 328.171L619.415 328.026V327.743V301.01V300.741L619.19 300.593L610.5 294.86V267.061L619.19 261.328L619.415 261.18V260.911V234.178V233.895L619.172 233.749L610.5 228.549V200.244L619.172 195.043L619.415 194.897V194.614V180.98V167.213V166.926L619.167 166.781L610.5 161.713V134.467L619.19 128.734L619.415 128.586V128.317V101.584V101.301L619.172 101.155L610.5 95.9545V67.6225L619.207 61.3563L619.415 61.2067V60.9505V35.2871V35.004L619.172 34.8583L610.5 29.6574V20C610.5 9.23044 619.23 0.5 630 0.5H633.75H642.571L647.445 9.85481Z" stroke="#00FFC4" stroke-opacity="0.1"/>
</g>
<rect x="640" y="78" width="320" height="320" rx="2" fill="url(#paint11_linear_1_11436)"/>
<g filter="url(#filter5_b_1_11436)">
<rect x="660" y="340" width="280" height="42" rx="2" fill="white" fill-opacity="0.07"/>
</g>
</g>
<g opacity="0.8">
<g filter="url(#filter6_b_1_11436)">
<path d="M1057.45 9.85481L1057.59 10.1238H1057.89H1085.75H1086.02L1086.17 9.89235L1092.15 0.5H1121.12L1126.55 9.87429L1126.69 10.1238H1126.98H1141.47H1154.84H1155.1L1155.25 9.90905L1161.79 0.5H1190.24L1196.77 9.90905L1196.92 10.1238H1197.18H1210.56H1224.49H1224.76L1224.91 9.89235L1230.89 0.5H1259.33L1265.87 9.90905L1266.01 10.1238H1266.28H1293.58H1293.85L1294 9.89235L1299.98 0.5H1329.51L1334.93 9.87429L1335.08 10.1238H1335.37H1363.23H1363.51L1363.66 9.87429L1369.09 0.5H1380C1390.77 0.5 1399.5 9.23045 1399.5 20V29.6259L1390.87 33.767L1390.59 33.9031V34.2178V60.9505V61.2067L1390.79 61.3563L1399.5 67.6225V95.923L1390.87 100.064L1390.59 100.2V100.515V127.248V127.504L1390.79 127.653L1399.5 133.92V161.731L1390.81 167.464L1390.59 167.612V167.881V194.614V194.897L1390.83 195.043L1399.5 200.244V228.549L1390.83 233.749L1390.59 233.895V234.178V260.911V261.167L1390.79 261.317L1399.5 267.583V295.394L1390.81 301.127L1390.59 301.275V301.545V327.208V327.464L1390.79 327.614L1399.5 333.88V361.17L1390.79 367.436L1390.59 367.585V367.842V394.574V394.857L1390.83 395.003L1399.5 400.204V412C1399.5 422.77 1390.77 431.5 1380 431.5H1367.97L1363.66 424.259L1363.51 424.015H1363.23H1335.37H1335.12L1334.97 424.216L1329.54 431.5H1298.88L1294.56 424.259L1294.42 424.015H1294.13H1266.28H1266.02L1265.87 424.216L1260.45 431.5H1229.79L1225.47 424.259L1225.33 424.015H1225.04H1196.07H1195.79L1195.64 424.259L1191.33 431.5H1160.69L1156.38 424.259L1156.24 424.015H1155.95H1126.98H1126.7L1126.55 424.259L1122.24 431.5H1091.57L1086.15 424.216L1086 424.015H1085.75H1057.89H1057.64L1057.49 424.216L1052.07 431.5H1040C1029.23 431.5 1020.5 422.77 1020.5 412V400.204L1029.17 395.003L1029.41 394.857V394.574V367.842V367.558L1029.17 367.413L1020.5 362.212V333.372L1029.17 328.171L1029.41 328.026V327.743V301.01V300.741L1029.19 300.593L1020.5 294.86V267.061L1029.19 261.328L1029.41 261.18V260.911V234.178V233.895L1029.17 233.749L1020.5 228.549V200.244L1029.17 195.043L1029.41 194.897V194.614V180.98V167.213V166.926L1029.17 166.781L1020.5 161.713V134.467L1029.19 128.734L1029.41 128.586V128.317V101.584V101.301L1029.17 101.155L1020.5 95.9545V67.6225L1029.21 61.3563L1029.41 61.2067V60.9505V35.2871V35.004L1029.17 34.8583L1020.5 29.6574V20C1020.5 9.23044 1029.23 0.5 1040 0.5H1043.75H1052.57L1057.45 9.85481Z" fill="url(#paint12_linear_1_11436)"/>
<path d="M1057.45 9.85481L1057.59 10.1238H1057.89H1085.75H1086.02L1086.17 9.89235L1092.15 0.5H1121.12L1126.55 9.87429L1126.69 10.1238H1126.98H1141.47H1154.84H1155.1L1155.25 9.90905L1161.79 0.5H1190.24L1196.77 9.90905L1196.92 10.1238H1197.18H1210.56H1224.49H1224.76L1224.91 9.89235L1230.89 0.5H1259.33L1265.87 9.90905L1266.01 10.1238H1266.28H1293.58H1293.85L1294 9.89235L1299.98 0.5H1329.51L1334.93 9.87429L1335.08 10.1238H1335.37H1363.23H1363.51L1363.66 9.87429L1369.09 0.5H1380C1390.77 0.5 1399.5 9.23045 1399.5 20V29.6259L1390.87 33.767L1390.59 33.9031V34.2178V60.9505V61.2067L1390.79 61.3563L1399.5 67.6225V95.923L1390.87 100.064L1390.59 100.2V100.515V127.248V127.504L1390.79 127.653L1399.5 133.92V161.731L1390.81 167.464L1390.59 167.612V167.881V194.614V194.897L1390.83 195.043L1399.5 200.244V228.549L1390.83 233.749L1390.59 233.895V234.178V260.911V261.167L1390.79 261.317L1399.5 267.583V295.394L1390.81 301.127L1390.59 301.275V301.545V327.208V327.464L1390.79 327.614L1399.5 333.88V361.17L1390.79 367.436L1390.59 367.585V367.842V394.574V394.857L1390.83 395.003L1399.5 400.204V412C1399.5 422.77 1390.77 431.5 1380 431.5H1367.97L1363.66 424.259L1363.51 424.015H1363.23H1335.37H1335.12L1334.97 424.216L1329.54 431.5H1298.88L1294.56 424.259L1294.42 424.015H1294.13H1266.28H1266.02L1265.87 424.216L1260.45 431.5H1229.79L1225.47 424.259L1225.33 424.015H1225.04H1196.07H1195.79L1195.64 424.259L1191.33 431.5H1160.69L1156.38 424.259L1156.24 424.015H1155.95H1126.98H1126.7L1126.55 424.259L1122.24 431.5H1091.57L1086.15 424.216L1086 424.015H1085.75H1057.89H1057.64L1057.49 424.216L1052.07 431.5H1040C1029.23 431.5 1020.5 422.77 1020.5 412V400.204L1029.17 395.003L1029.41 394.857V394.574V367.842V367.558L1029.17 367.413L1020.5 362.212V333.372L1029.17 328.171L1029.41 328.026V327.743V301.01V300.741L1029.19 300.593L1020.5 294.86V267.061L1029.19 261.328L1029.41 261.18V260.911V234.178V233.895L1029.17 233.749L1020.5 228.549V200.244L1029.17 195.043L1029.41 194.897V194.614V180.98V167.213V166.926L1029.17 166.781L1020.5 161.713V134.467L1029.19 128.734L1029.41 128.586V128.317V101.584V101.301L1029.17 101.155L1020.5 95.9545V67.6225L1029.21 61.3563L1029.41 61.2067V60.9505V35.2871V35.004L1029.17 34.8583L1020.5 29.6574V20C1020.5 9.23044 1029.23 0.5 1040 0.5H1043.75H1052.57L1057.45 9.85481Z" fill="white" fill-opacity="0.03"/>
<path d="M1057.45 9.85481L1057.59 10.1238H1057.89H1085.75H1086.02L1086.17 9.89235L1092.15 0.5H1121.12L1126.55 9.87429L1126.69 10.1238H1126.98H1141.47H1154.84H1155.1L1155.25 9.90905L1161.79 0.5H1190.24L1196.77 9.90905L1196.92 10.1238H1197.18H1210.56H1224.49H1224.76L1224.91 9.89235L1230.89 0.5H1259.33L1265.87 9.90905L1266.01 10.1238H1266.28H1293.58H1293.85L1294 9.89235L1299.98 0.5H1329.51L1334.93 9.87429L1335.08 10.1238H1335.37H1363.23H1363.51L1363.66 9.87429L1369.09 0.5H1380C1390.77 0.5 1399.5 9.23045 1399.5 20V29.6259L1390.87 33.767L1390.59 33.9031V34.2178V60.9505V61.2067L1390.79 61.3563L1399.5 67.6225V95.923L1390.87 100.064L1390.59 100.2V100.515V127.248V127.504L1390.79 127.653L1399.5 133.92V161.731L1390.81 167.464L1390.59 167.612V167.881V194.614V194.897L1390.83 195.043L1399.5 200.244V228.549L1390.83 233.749L1390.59 233.895V234.178V260.911V261.167L1390.79 261.317L1399.5 267.583V295.394L1390.81 301.127L1390.59 301.275V301.545V327.208V327.464L1390.79 327.614L1399.5 333.88V361.17L1390.79 367.436L1390.59 367.585V367.842V394.574V394.857L1390.83 395.003L1399.5 400.204V412C1399.5 422.77 1390.77 431.5 1380 431.5H1367.97L1363.66 424.259L1363.51 424.015H1363.23H1335.37H1335.12L1334.97 424.216L1329.54 431.5H1298.88L1294.56 424.259L1294.42 424.015H1294.13H1266.28H1266.02L1265.87 424.216L1260.45 431.5H1229.79L1225.47 424.259L1225.33 424.015H1225.04H1196.07H1195.79L1195.64 424.259L1191.33 431.5H1160.69L1156.38 424.259L1156.24 424.015H1155.95H1126.98H1126.7L1126.55 424.259L1122.24 431.5H1091.57L1086.15 424.216L1086 424.015H1085.75H1057.89H1057.64L1057.49 424.216L1052.07 431.5H1040C1029.23 431.5 1020.5 422.77 1020.5 412V400.204L1029.17 395.003L1029.41 394.857V394.574V367.842V367.558L1029.17 367.413L1020.5 362.212V333.372L1029.17 328.171L1029.41 328.026V327.743V301.01V300.741L1029.19 300.593L1020.5 294.86V267.061L1029.19 261.328L1029.41 261.18V260.911V234.178V233.895L1029.17 233.749L1020.5 228.549V200.244L1029.17 195.043L1029.41 194.897V194.614V180.98V167.213V166.926L1029.17 166.781L1020.5 161.713V134.467L1029.19 128.734L1029.41 128.586V128.317V101.584V101.301L1029.17 101.155L1020.5 95.9545V67.6225L1029.21 61.3563L1029.41 61.2067V60.9505V35.2871V35.004L1029.17 34.8583L1020.5 29.6574V20C1020.5 9.23044 1029.23 0.5 1040 0.5H1043.75H1052.57L1057.45 9.85481Z" stroke="url(#paint13_radial_1_11436)"/>
<path d="M1057.45 9.85481L1057.59 10.1238H1057.89H1085.75H1086.02L1086.17 9.89235L1092.15 0.5H1121.12L1126.55 9.87429L1126.69 10.1238H1126.98H1141.47H1154.84H1155.1L1155.25 9.90905L1161.79 0.5H1190.24L1196.77 9.90905L1196.92 10.1238H1197.18H1210.56H1224.49H1224.76L1224.91 9.89235L1230.89 0.5H1259.33L1265.87 9.90905L1266.01 10.1238H1266.28H1293.58H1293.85L1294 9.89235L1299.98 0.5H1329.51L1334.93 9.87429L1335.08 10.1238H1335.37H1363.23H1363.51L1363.66 9.87429L1369.09 0.5H1380C1390.77 0.5 1399.5 9.23045 1399.5 20V29.6259L1390.87 33.767L1390.59 33.9031V34.2178V60.9505V61.2067L1390.79 61.3563L1399.5 67.6225V95.923L1390.87 100.064L1390.59 100.2V100.515V127.248V127.504L1390.79 127.653L1399.5 133.92V161.731L1390.81 167.464L1390.59 167.612V167.881V194.614V194.897L1390.83 195.043L1399.5 200.244V228.549L1390.83 233.749L1390.59 233.895V234.178V260.911V261.167L1390.79 261.317L1399.5 267.583V295.394L1390.81 301.127L1390.59 301.275V301.545V327.208V327.464L1390.79 327.614L1399.5 333.88V361.17L1390.79 367.436L1390.59 367.585V367.842V394.574V394.857L1390.83 395.003L1399.5 400.204V412C1399.5 422.77 1390.77 431.5 1380 431.5H1367.97L1363.66 424.259L1363.51 424.015H1363.23H1335.37H1335.12L1334.97 424.216L1329.54 431.5H1298.88L1294.56 424.259L1294.42 424.015H1294.13H1266.28H1266.02L1265.87 424.216L1260.45 431.5H1229.79L1225.47 424.259L1225.33 424.015H1225.04H1196.07H1195.79L1195.64 424.259L1191.33 431.5H1160.69L1156.38 424.259L1156.24 424.015H1155.95H1126.98H1126.7L1126.55 424.259L1122.24 431.5H1091.57L1086.15 424.216L1086 424.015H1085.75H1057.89H1057.64L1057.49 424.216L1052.07 431.5H1040C1029.23 431.5 1020.5 422.77 1020.5 412V400.204L1029.17 395.003L1029.41 394.857V394.574V367.842V367.558L1029.17 367.413L1020.5 362.212V333.372L1029.17 328.171L1029.41 328.026V327.743V301.01V300.741L1029.19 300.593L1020.5 294.86V267.061L1029.19 261.328L1029.41 261.18V260.911V234.178V233.895L1029.17 233.749L1020.5 228.549V200.244L1029.17 195.043L1029.41 194.897V194.614V180.98V167.213V166.926L1029.17 166.781L1020.5 161.713V134.467L1029.19 128.734L1029.41 128.586V128.317V101.584V101.301L1029.17 101.155L1020.5 95.9545V67.6225L1029.21 61.3563L1029.41 61.2067V60.9505V35.2871V35.004L1029.17 34.8583L1020.5 29.6574V20C1020.5 9.23044 1029.23 0.5 1040 0.5H1043.75H1052.57L1057.45 9.85481Z" stroke="url(#paint14_radial_1_11436)"/>
<path d="M1057.45 9.85481L1057.59 10.1238H1057.89H1085.75H1086.02L1086.17 9.89235L1092.15 0.5H1121.12L1126.55 9.87429L1126.69 10.1238H1126.98H1141.47H1154.84H1155.1L1155.25 9.90905L1161.79 0.5H1190.24L1196.77 9.90905L1196.92 10.1238H1197.18H1210.56H1224.49H1224.76L1224.91 9.89235L1230.89 0.5H1259.33L1265.87 9.90905L1266.01 10.1238H1266.28H1293.58H1293.85L1294 9.89235L1299.98 0.5H1329.51L1334.93 9.87429L1335.08 10.1238H1335.37H1363.23H1363.51L1363.66 9.87429L1369.09 0.5H1380C1390.77 0.5 1399.5 9.23045 1399.5 20V29.6259L1390.87 33.767L1390.59 33.9031V34.2178V60.9505V61.2067L1390.79 61.3563L1399.5 67.6225V95.923L1390.87 100.064L1390.59 100.2V100.515V127.248V127.504L1390.79 127.653L1399.5 133.92V161.731L1390.81 167.464L1390.59 167.612V167.881V194.614V194.897L1390.83 195.043L1399.5 200.244V228.549L1390.83 233.749L1390.59 233.895V234.178V260.911V261.167L1390.79 261.317L1399.5 267.583V295.394L1390.81 301.127L1390.59 301.275V301.545V327.208V327.464L1390.79 327.614L1399.5 333.88V361.17L1390.79 367.436L1390.59 367.585V367.842V394.574V394.857L1390.83 395.003L1399.5 400.204V412C1399.5 422.77 1390.77 431.5 1380 431.5H1367.97L1363.66 424.259L1363.51 424.015H1363.23H1335.37H1335.12L1334.97 424.216L1329.54 431.5H1298.88L1294.56 424.259L1294.42 424.015H1294.13H1266.28H1266.02L1265.87 424.216L1260.45 431.5H1229.79L1225.47 424.259L1225.33 424.015H1225.04H1196.07H1195.79L1195.64 424.259L1191.33 431.5H1160.69L1156.38 424.259L1156.24 424.015H1155.95H1126.98H1126.7L1126.55 424.259L1122.24 431.5H1091.57L1086.15 424.216L1086 424.015H1085.75H1057.89H1057.64L1057.49 424.216L1052.07 431.5H1040C1029.23 431.5 1020.5 422.77 1020.5 412V400.204L1029.17 395.003L1029.41 394.857V394.574V367.842V367.558L1029.17 367.413L1020.5 362.212V333.372L1029.17 328.171L1029.41 328.026V327.743V301.01V300.741L1029.19 300.593L1020.5 294.86V267.061L1029.19 261.328L1029.41 261.18V260.911V234.178V233.895L1029.17 233.749L1020.5 228.549V200.244L1029.17 195.043L1029.41 194.897V194.614V180.98V167.213V166.926L1029.17 166.781L1020.5 161.713V134.467L1029.19 128.734L1029.41 128.586V128.317V101.584V101.301L1029.17 101.155L1020.5 95.9545V67.6225L1029.21 61.3563L1029.41 61.2067V60.9505V35.2871V35.004L1029.17 34.8583L1020.5 29.6574V20C1020.5 9.23044 1029.23 0.5 1040 0.5H1043.75H1052.57L1057.45 9.85481Z" stroke="#00FFC4" stroke-opacity="0.1"/>
</g>
<rect x="1050" y="78" width="320" height="320" rx="2" fill="url(#paint15_linear_1_11436)"/>
<g filter="url(#filter7_b_1_11436)">
<rect x="1070" y="340" width="280" height="42" rx="2" fill="white" fill-opacity="0.07"/>
</g>
</g>
<g opacity="0.8">
<g filter="url(#filter8_b_1_11436)">
<path d="M1467.45 9.85481L1467.59 10.1238H1467.89H1495.75H1496.02L1496.17 9.89235L1502.15 0.5H1531.12L1536.55 9.87429L1536.69 10.1238H1536.98H1551.47H1564.84H1565.1L1565.25 9.90905L1571.79 0.5H1600.24L1606.77 9.90905L1606.92 10.1238H1607.18H1620.56H1634.49H1634.76L1634.91 9.89235L1640.89 0.5H1669.33L1675.87 9.90905L1676.01 10.1238H1676.28H1703.58H1703.85L1704 9.89235L1709.98 0.5H1739.51L1744.93 9.87429L1745.08 10.1238H1745.37H1773.23H1773.51L1773.66 9.87429L1779.09 0.5H1790C1800.77 0.5 1809.5 9.23045 1809.5 20V29.6259L1800.87 33.767L1800.59 33.9031V34.2178V60.9505V61.2067L1800.79 61.3563L1809.5 67.6225V95.923L1800.87 100.064L1800.59 100.2V100.515V127.248V127.504L1800.79 127.653L1809.5 133.92V161.731L1800.81 167.464L1800.59 167.612V167.881V194.614V194.897L1800.83 195.043L1809.5 200.244V228.549L1800.83 233.749L1800.59 233.895V234.178V260.911V261.167L1800.79 261.317L1809.5 267.583V295.394L1800.81 301.127L1800.59 301.275V301.545V327.208V327.464L1800.79 327.614L1809.5 333.88V361.17L1800.79 367.436L1800.59 367.585V367.842V394.574V394.857L1800.83 395.003L1809.5 400.204V412C1809.5 422.77 1800.77 431.5 1790 431.5H1777.97L1773.66 424.259L1773.51 424.015H1773.23H1745.37H1745.12L1744.97 424.216L1739.54 431.5H1708.88L1704.56 424.259L1704.42 424.015H1704.13H1676.28H1676.02L1675.87 424.216L1670.45 431.5H1639.79L1635.47 424.259L1635.33 424.015H1635.04H1606.07H1605.79L1605.64 424.259L1601.33 431.5H1570.69L1566.38 424.259L1566.24 424.015H1565.95H1536.98H1536.7L1536.55 424.259L1532.24 431.5H1501.57L1496.15 424.216L1496 424.015H1495.75H1467.89H1467.64L1467.49 424.216L1462.07 431.5H1450C1439.23 431.5 1430.5 422.77 1430.5 412V400.204L1439.17 395.003L1439.41 394.857V394.574V367.842V367.558L1439.17 367.413L1430.5 362.212V333.372L1439.17 328.171L1439.41 328.026V327.743V301.01V300.741L1439.19 300.593L1430.5 294.86V267.061L1439.19 261.328L1439.41 261.18V260.911V234.178V233.895L1439.17 233.749L1430.5 228.549V200.244L1439.17 195.043L1439.41 194.897V194.614V180.98V167.213V166.926L1439.17 166.781L1430.5 161.713V134.467L1439.19 128.734L1439.41 128.586V128.317V101.584V101.301L1439.17 101.155L1430.5 95.9545V67.6225L1439.21 61.3563L1439.41 61.2067V60.9505V35.2871V35.004L1439.17 34.8583L1430.5 29.6574V20C1430.5 9.23044 1439.23 0.5 1450 0.5H1453.75H1462.57L1467.45 9.85481Z" fill="url(#paint16_linear_1_11436)"/>
<path d="M1467.45 9.85481L1467.59 10.1238H1467.89H1495.75H1496.02L1496.17 9.89235L1502.15 0.5H1531.12L1536.55 9.87429L1536.69 10.1238H1536.98H1551.47H1564.84H1565.1L1565.25 9.90905L1571.79 0.5H1600.24L1606.77 9.90905L1606.92 10.1238H1607.18H1620.56H1634.49H1634.76L1634.91 9.89235L1640.89 0.5H1669.33L1675.87 9.90905L1676.01 10.1238H1676.28H1703.58H1703.85L1704 9.89235L1709.98 0.5H1739.51L1744.93 9.87429L1745.08 10.1238H1745.37H1773.23H1773.51L1773.66 9.87429L1779.09 0.5H1790C1800.77 0.5 1809.5 9.23045 1809.5 20V29.6259L1800.87 33.767L1800.59 33.9031V34.2178V60.9505V61.2067L1800.79 61.3563L1809.5 67.6225V95.923L1800.87 100.064L1800.59 100.2V100.515V127.248V127.504L1800.79 127.653L1809.5 133.92V161.731L1800.81 167.464L1800.59 167.612V167.881V194.614V194.897L1800.83 195.043L1809.5 200.244V228.549L1800.83 233.749L1800.59 233.895V234.178V260.911V261.167L1800.79 261.317L1809.5 267.583V295.394L1800.81 301.127L1800.59 301.275V301.545V327.208V327.464L1800.79 327.614L1809.5 333.88V361.17L1800.79 367.436L1800.59 367.585V367.842V394.574V394.857L1800.83 395.003L1809.5 400.204V412C1809.5 422.77 1800.77 431.5 1790 431.5H1777.97L1773.66 424.259L1773.51 424.015H1773.23H1745.37H1745.12L1744.97 424.216L1739.54 431.5H1708.88L1704.56 424.259L1704.42 424.015H1704.13H1676.28H1676.02L1675.87 424.216L1670.45 431.5H1639.79L1635.47 424.259L1635.33 424.015H1635.04H1606.07H1605.79L1605.64 424.259L1601.33 431.5H1570.69L1566.38 424.259L1566.24 424.015H1565.95H1536.98H1536.7L1536.55 424.259L1532.24 431.5H1501.57L1496.15 424.216L1496 424.015H1495.75H1467.89H1467.64L1467.49 424.216L1462.07 431.5H1450C1439.23 431.5 1430.5 422.77 1430.5 412V400.204L1439.17 395.003L1439.41 394.857V394.574V367.842V367.558L1439.17 367.413L1430.5 362.212V333.372L1439.17 328.171L1439.41 328.026V327.743V301.01V300.741L1439.19 300.593L1430.5 294.86V267.061L1439.19 261.328L1439.41 261.18V260.911V234.178V233.895L1439.17 233.749L1430.5 228.549V200.244L1439.17 195.043L1439.41 194.897V194.614V180.98V167.213V166.926L1439.17 166.781L1430.5 161.713V134.467L1439.19 128.734L1439.41 128.586V128.317V101.584V101.301L1439.17 101.155L1430.5 95.9545V67.6225L1439.21 61.3563L1439.41 61.2067V60.9505V35.2871V35.004L1439.17 34.8583L1430.5 29.6574V20C1430.5 9.23044 1439.23 0.5 1450 0.5H1453.75H1462.57L1467.45 9.85481Z" fill="white" fill-opacity="0.03"/>
<path d="M1467.45 9.85481L1467.59 10.1238H1467.89H1495.75H1496.02L1496.17 9.89235L1502.15 0.5H1531.12L1536.55 9.87429L1536.69 10.1238H1536.98H1551.47H1564.84H1565.1L1565.25 9.90905L1571.79 0.5H1600.24L1606.77 9.90905L1606.92 10.1238H1607.18H1620.56H1634.49H1634.76L1634.91 9.89235L1640.89 0.5H1669.33L1675.87 9.90905L1676.01 10.1238H1676.28H1703.58H1703.85L1704 9.89235L1709.98 0.5H1739.51L1744.93 9.87429L1745.08 10.1238H1745.37H1773.23H1773.51L1773.66 9.87429L1779.09 0.5H1790C1800.77 0.5 1809.5 9.23045 1809.5 20V29.6259L1800.87 33.767L1800.59 33.9031V34.2178V60.9505V61.2067L1800.79 61.3563L1809.5 67.6225V95.923L1800.87 100.064L1800.59 100.2V100.515V127.248V127.504L1800.79 127.653L1809.5 133.92V161.731L1800.81 167.464L1800.59 167.612V167.881V194.614V194.897L1800.83 195.043L1809.5 200.244V228.549L1800.83 233.749L1800.59 233.895V234.178V260.911V261.167L1800.79 261.317L1809.5 267.583V295.394L1800.81 301.127L1800.59 301.275V301.545V327.208V327.464L1800.79 327.614L1809.5 333.88V361.17L1800.79 367.436L1800.59 367.585V367.842V394.574V394.857L1800.83 395.003L1809.5 400.204V412C1809.5 422.77 1800.77 431.5 1790 431.5H1777.97L1773.66 424.259L1773.51 424.015H1773.23H1745.37H1745.12L1744.97 424.216L1739.54 431.5H1708.88L1704.56 424.259L1704.42 424.015H1704.13H1676.28H1676.02L1675.87 424.216L1670.45 431.5H1639.79L1635.47 424.259L1635.33 424.015H1635.04H1606.07H1605.79L1605.64 424.259L1601.33 431.5H1570.69L1566.38 424.259L1566.24 424.015H1565.95H1536.98H1536.7L1536.55 424.259L1532.24 431.5H1501.57L1496.15 424.216L1496 424.015H1495.75H1467.89H1467.64L1467.49 424.216L1462.07 431.5H1450C1439.23 431.5 1430.5 422.77 1430.5 412V400.204L1439.17 395.003L1439.41 394.857V394.574V367.842V367.558L1439.17 367.413L1430.5 362.212V333.372L1439.17 328.171L1439.41 328.026V327.743V301.01V300.741L1439.19 300.593L1430.5 294.86V267.061L1439.19 261.328L1439.41 261.18V260.911V234.178V233.895L1439.17 233.749L1430.5 228.549V200.244L1439.17 195.043L1439.41 194.897V194.614V180.98V167.213V166.926L1439.17 166.781L1430.5 161.713V134.467L1439.19 128.734L1439.41 128.586V128.317V101.584V101.301L1439.17 101.155L1430.5 95.9545V67.6225L1439.21 61.3563L1439.41 61.2067V60.9505V35.2871V35.004L1439.17 34.8583L1430.5 29.6574V20C1430.5 9.23044 1439.23 0.5 1450 0.5H1453.75H1462.57L1467.45 9.85481Z" stroke="url(#paint17_radial_1_11436)"/>
<path d="M1467.45 9.85481L1467.59 10.1238H1467.89H1495.75H1496.02L1496.17 9.89235L1502.15 0.5H1531.12L1536.55 9.87429L1536.69 10.1238H1536.98H1551.47H1564.84H1565.1L1565.25 9.90905L1571.79 0.5H1600.24L1606.77 9.90905L1606.92 10.1238H1607.18H1620.56H1634.49H1634.76L1634.91 9.89235L1640.89 0.5H1669.33L1675.87 9.90905L1676.01 10.1238H1676.28H1703.58H1703.85L1704 9.89235L1709.98 0.5H1739.51L1744.93 9.87429L1745.08 10.1238H1745.37H1773.23H1773.51L1773.66 9.87429L1779.09 0.5H1790C1800.77 0.5 1809.5 9.23045 1809.5 20V29.6259L1800.87 33.767L1800.59 33.9031V34.2178V60.9505V61.2067L1800.79 61.3563L1809.5 67.6225V95.923L1800.87 100.064L1800.59 100.2V100.515V127.248V127.504L1800.79 127.653L1809.5 133.92V161.731L1800.81 167.464L1800.59 167.612V167.881V194.614V194.897L1800.83 195.043L1809.5 200.244V228.549L1800.83 233.749L1800.59 233.895V234.178V260.911V261.167L1800.79 261.317L1809.5 267.583V295.394L1800.81 301.127L1800.59 301.275V301.545V327.208V327.464L1800.79 327.614L1809.5 333.88V361.17L1800.79 367.436L1800.59 367.585V367.842V394.574V394.857L1800.83 395.003L1809.5 400.204V412C1809.5 422.77 1800.77 431.5 1790 431.5H1777.97L1773.66 424.259L1773.51 424.015H1773.23H1745.37H1745.12L1744.97 424.216L1739.54 431.5H1708.88L1704.56 424.259L1704.42 424.015H1704.13H1676.28H1676.02L1675.87 424.216L1670.45 431.5H1639.79L1635.47 424.259L1635.33 424.015H1635.04H1606.07H1605.79L1605.64 424.259L1601.33 431.5H1570.69L1566.38 424.259L1566.24 424.015H1565.95H1536.98H1536.7L1536.55 424.259L1532.24 431.5H1501.57L1496.15 424.216L1496 424.015H1495.75H1467.89H1467.64L1467.49 424.216L1462.07 431.5H1450C1439.23 431.5 1430.5 422.77 1430.5 412V400.204L1439.17 395.003L1439.41 394.857V394.574V367.842V367.558L1439.17 367.413L1430.5 362.212V333.372L1439.17 328.171L1439.41 328.026V327.743V301.01V300.741L1439.19 300.593L1430.5 294.86V267.061L1439.19 261.328L1439.41 261.18V260.911V234.178V233.895L1439.17 233.749L1430.5 228.549V200.244L1439.17 195.043L1439.41 194.897V194.614V180.98V167.213V166.926L1439.17 166.781L1430.5 161.713V134.467L1439.19 128.734L1439.41 128.586V128.317V101.584V101.301L1439.17 101.155L1430.5 95.9545V67.6225L1439.21 61.3563L1439.41 61.2067V60.9505V35.2871V35.004L1439.17 34.8583L1430.5 29.6574V20C1430.5 9.23044 1439.23 0.5 1450 0.5H1453.75H1462.57L1467.45 9.85481Z" stroke="url(#paint18_radial_1_11436)"/>
<path d="M1467.45 9.85481L1467.59 10.1238H1467.89H1495.75H1496.02L1496.17 9.89235L1502.15 0.5H1531.12L1536.55 9.87429L1536.69 10.1238H1536.98H1551.47H1564.84H1565.1L1565.25 9.90905L1571.79 0.5H1600.24L1606.77 9.90905L1606.92 10.1238H1607.18H1620.56H1634.49H1634.76L1634.91 9.89235L1640.89 0.5H1669.33L1675.87 9.90905L1676.01 10.1238H1676.28H1703.58H1703.85L1704 9.89235L1709.98 0.5H1739.51L1744.93 9.87429L1745.08 10.1238H1745.37H1773.23H1773.51L1773.66 9.87429L1779.09 0.5H1790C1800.77 0.5 1809.5 9.23045 1809.5 20V29.6259L1800.87 33.767L1800.59 33.9031V34.2178V60.9505V61.2067L1800.79 61.3563L1809.5 67.6225V95.923L1800.87 100.064L1800.59 100.2V100.515V127.248V127.504L1800.79 127.653L1809.5 133.92V161.731L1800.81 167.464L1800.59 167.612V167.881V194.614V194.897L1800.83 195.043L1809.5 200.244V228.549L1800.83 233.749L1800.59 233.895V234.178V260.911V261.167L1800.79 261.317L1809.5 267.583V295.394L1800.81 301.127L1800.59 301.275V301.545V327.208V327.464L1800.79 327.614L1809.5 333.88V361.17L1800.79 367.436L1800.59 367.585V367.842V394.574V394.857L1800.83 395.003L1809.5 400.204V412C1809.5 422.77 1800.77 431.5 1790 431.5H1777.97L1773.66 424.259L1773.51 424.015H1773.23H1745.37H1745.12L1744.97 424.216L1739.54 431.5H1708.88L1704.56 424.259L1704.42 424.015H1704.13H1676.28H1676.02L1675.87 424.216L1670.45 431.5H1639.79L1635.47 424.259L1635.33 424.015H1635.04H1606.07H1605.79L1605.64 424.259L1601.33 431.5H1570.69L1566.38 424.259L1566.24 424.015H1565.95H1536.98H1536.7L1536.55 424.259L1532.24 431.5H1501.57L1496.15 424.216L1496 424.015H1495.75H1467.89H1467.64L1467.49 424.216L1462.07 431.5H1450C1439.23 431.5 1430.5 422.77 1430.5 412V400.204L1439.17 395.003L1439.41 394.857V394.574V367.842V367.558L1439.17 367.413L1430.5 362.212V333.372L1439.17 328.171L1439.41 328.026V327.743V301.01V300.741L1439.19 300.593L1430.5 294.86V267.061L1439.19 261.328L1439.41 261.18V260.911V234.178V233.895L1439.17 233.749L1430.5 228.549V200.244L1439.17 195.043L1439.41 194.897V194.614V180.98V167.213V166.926L1439.17 166.781L1430.5 161.713V134.467L1439.19 128.734L1439.41 128.586V128.317V101.584V101.301L1439.17 101.155L1430.5 95.9545V67.6225L1439.21 61.3563L1439.41 61.2067V60.9505V35.2871V35.004L1439.17 34.8583L1430.5 29.6574V20C1430.5 9.23044 1439.23 0.5 1450 0.5H1453.75H1462.57L1467.45 9.85481Z" stroke="#00FFC4" stroke-opacity="0.1"/>
</g>
<rect x="1460" y="78" width="320" height="320" rx="2" fill="url(#paint19_linear_1_11436)"/>
<g filter="url(#filter9_b_1_11436)">
<rect x="1480" y="340" width="280" height="42" rx="2" fill="white" fill-opacity="0.07"/>
</g>
</g>
</g>
<defs>
<filter id="filter0_b_1_11436" x="-214" y="-4" width="388" height="440" filterUnits="userSpaceOnUse" color-interpolation-filters="sRGB">
<feFlood flood-opacity="0" result="BackgroundImageFix"/>
<feGaussianBlur in="BackgroundImageFix" stdDeviation="2"/>
<feComposite in2="SourceAlpha" operator="in" result="effect1_backgroundBlur_1_11436"/>
<feBlend mode="normal" in="SourceGraphic" in2="effect1_backgroundBlur_1_11436" result="shape"/>
</filter>
<filter id="filter1_b_1_11436" x="-180" y="320" width="320" height="82" filterUnits="userSpaceOnUse" color-interpolation-filters="sRGB">
<feFlood flood-opacity="0" result="BackgroundImageFix"/>
<feGaussianBlur in="BackgroundImageFix" stdDeviation="10"/>
<feComposite in2="SourceAlpha" operator="in" result="effect1_backgroundBlur_1_11436"/>
<feBlend mode="normal" in="SourceGraphic" in2="effect1_backgroundBlur_1_11436" result="shape"/>
</filter>
<filter id="filter2_b_1_11436" x="196" y="-4" width="388" height="440" filterUnits="userSpaceOnUse" color-interpolation-filters="sRGB">
<feFlood flood-opacity="0" result="BackgroundImageFix"/>
<feGaussianBlur in="BackgroundImageFix" stdDeviation="2"/>
<feComposite in2="SourceAlpha" operator="in" result="effect1_backgroundBlur_1_11436"/>
<feBlend mode="normal" in="SourceGraphic" in2="effect1_backgroundBlur_1_11436" result="shape"/>
</filter>
<filter id="filter3_b_1_11436" x="230" y="320" width="320" height="82" filterUnits="userSpaceOnUse" color-interpolation-filters="sRGB">
<feFlood flood-opacity="0" result="BackgroundImageFix"/>
<feGaussianBlur in="BackgroundImageFix" stdDeviation="10"/>
<feComposite in2="SourceAlpha" operator="in" result="effect1_backgroundBlur_1_11436"/>
<feBlend mode="normal" in="SourceGraphic" in2="effect1_backgroundBlur_1_11436" result="shape"/>
</filter>
<filter id="filter4_b_1_11436" x="606" y="-4" width="388" height="440" filterUnits="userSpaceOnUse" color-interpolation-filters="sRGB">
<feFlood flood-opacity="0" result="BackgroundImageFix"/>
<feGaussianBlur in="BackgroundImageFix" stdDeviation="2"/>
<feComposite in2="SourceAlpha" operator="in" result="effect1_backgroundBlur_1_11436"/>
<feBlend mode="normal" in="SourceGraphic" in2="effect1_backgroundBlur_1_11436" result="shape"/>
</filter>
<filter id="filter5_b_1_11436" x="640" y="320" width="320" height="82" filterUnits="userSpaceOnUse" color-interpolation-filters="sRGB">
<feFlood flood-opacity="0" result="BackgroundImageFix"/>
<feGaussianBlur in="BackgroundImageFix" stdDeviation="10"/>
<feComposite in2="SourceAlpha" operator="in" result="effect1_backgroundBlur_1_11436"/>
<feBlend mode="normal" in="SourceGraphic" in2="effect1_backgroundBlur_1_11436" result="shape"/>
</filter>
<filter id="filter6_b_1_11436" x="1016" y="-4" width="388" height="440" filterUnits="userSpaceOnUse" color-interpolation-filters="sRGB">
<feFlood flood-opacity="0" result="BackgroundImageFix"/>
<feGaussianBlur in="BackgroundImageFix" stdDeviation="2"/>
<feComposite in2="SourceAlpha" operator="in" result="effect1_backgroundBlur_1_11436"/>
<feBlend mode="normal" in="SourceGraphic" in2="effect1_backgroundBlur_1_11436" result="shape"/>
</filter>
<filter id="filter7_b_1_11436" x="1050" y="320" width="320" height="82" filterUnits="userSpaceOnUse" color-interpolation-filters="sRGB">
<feFlood flood-opacity="0" result="BackgroundImageFix"/>
<feGaussianBlur in="BackgroundImageFix" stdDeviation="10"/>
<feComposite in2="SourceAlpha" operator="in" result="effect1_backgroundBlur_1_11436"/>
<feBlend mode="normal" in="SourceGraphic" in2="effect1_backgroundBlur_1_11436" result="shape"/>
</filter>
<filter id="filter8_b_1_11436" x="1426" y="-4" width="388" height="440" filterUnits="userSpaceOnUse" color-interpolation-filters="sRGB">
<feFlood flood-opacity="0" result="BackgroundImageFix"/>
<feGaussianBlur in="BackgroundImageFix" stdDeviation="2"/>
<feComposite in2="SourceAlpha" operator="in" result="effect1_backgroundBlur_1_11436"/>
<feBlend mode="normal" in="SourceGraphic" in2="effect1_backgroundBlur_1_11436" result="shape"/>
</filter>
<filter id="filter9_b_1_11436" x="1460" y="320" width="320" height="82" filterUnits="userSpaceOnUse" color-interpolation-filters="sRGB">
<feFlood flood-opacity="0" result="BackgroundImageFix"/>
<feGaussianBlur in="BackgroundImageFix" stdDeviation="10"/>
<feComposite in2="SourceAlpha" operator="in" result="effect1_backgroundBlur_1_11436"/>
<feBlend mode="normal" in="SourceGraphic" in2="effect1_backgroundBlur_1_11436" result="shape"/>
</filter>
<linearGradient id="paint0_linear_1_11436" x1="-210" y1="0" x2="151.445" y2="446.739" gradientUnits="userSpaceOnUse">
<stop stop-color="#00B387"/>
<stop offset="1" stop-color="#01110D"/>
</linearGradient>
<radialGradient id="paint1_radial_1_11436" cx="0" cy="0" r="1" gradientUnits="userSpaceOnUse" gradientTransform="translate(-120.7 435.825) rotate(-3.9013) scale(113.789 92.0426)">
<stop stop-color="#00FFC4"/>
<stop offset="1" stop-color="#00FFC4" stop-opacity="0"/>
</radialGradient>
<radialGradient id="paint2_radial_1_11436" cx="0" cy="0" r="1" gradientUnits="userSpaceOnUse" gradientTransform="translate(90.2 6.39365e-06) rotate(162.651) scale(88.5798 72.182)">
<stop stop-color="#00FFC4"/>
<stop offset="1" stop-color="#00FFC4" stop-opacity="0"/>
</radialGradient>
<linearGradient id="paint3_linear_1_11436" x1="-20" y1="78" x2="-20" y2="398" gradientUnits="userSpaceOnUse">
<stop stop-color="white"/>
<stop offset="1" stop-color="white" stop-opacity="0.1"/>
</linearGradient>
<linearGradient id="paint4_linear_1_11436" x1="200" y1="0" x2="561.445" y2="446.739" gradientUnits="userSpaceOnUse">
<stop stop-color="#00B387"/>
<stop offset="1" stop-color="#01110D"/>
</linearGradient>
<radialGradient id="paint5_radial_1_11436" cx="0" cy="0" r="1" gradientUnits="userSpaceOnUse" gradientTransform="translate(289.3 435.825) rotate(-3.9013) scale(113.789 92.0426)">
<stop stop-color="#00FFC4"/>
<stop offset="1" stop-color="#00FFC4" stop-opacity="0"/>
</radialGradient>
<radialGradient id="paint6_radial_1_11436" cx="0" cy="0" r="1" gradientUnits="userSpaceOnUse" gradientTransform="translate(500.2 6.39365e-06) rotate(162.651) scale(88.5798 72.182)">
<stop stop-color="#00FFC4"/>
<stop offset="1" stop-color="#00FFC4" stop-opacity="0"/>
</radialGradient>
<linearGradient id="paint7_linear_1_11436" x1="390" y1="78" x2="390" y2="398" gradientUnits="userSpaceOnUse">
<stop stop-color="white"/>
<stop offset="1" stop-color="white" stop-opacity="0.1"/>
</linearGradient>
<linearGradient id="paint8_linear_1_11436" x1="610" y1="0" x2="971.445" y2="446.739" gradientUnits="userSpaceOnUse">
<stop stop-color="#00B387"/>
<stop offset="1" stop-color="#01110D"/>
</linearGradient>
<radialGradient id="paint9_radial_1_11436" cx="0" cy="0" r="1" gradientUnits="userSpaceOnUse" gradientTransform="translate(699.3 435.825) rotate(-3.9013) scale(113.789 92.0426)">
<stop stop-color="#00FFC4"/>
<stop offset="1" stop-color="#00FFC4" stop-opacity="0"/>
</radialGradient>
<radialGradient id="paint10_radial_1_11436" cx="0" cy="0" r="1" gradientUnits="userSpaceOnUse" gradientTransform="translate(910.2 6.39365e-06) rotate(162.651) scale(88.5798 72.182)">
<stop stop-color="#00FFC4"/>
<stop offset="1" stop-color="#00FFC4" stop-opacity="0"/>
</radialGradient>
<linearGradient id="paint11_linear_1_11436" x1="800" y1="78" x2="800" y2="398" gradientUnits="userSpaceOnUse">
<stop stop-color="white"/>
<stop offset="1" stop-color="white" stop-opacity="0.1"/>
</linearGradient>
<linearGradient id="paint12_linear_1_11436" x1="1020" y1="0" x2="1381.44" y2="446.739" gradientUnits="userSpaceOnUse">
<stop stop-color="#00B387"/>
<stop offset="1" stop-color="#01110D"/>
</linearGradient>
<radialGradient id="paint13_radial_1_11436" cx="0" cy="0" r="1" gradientUnits="userSpaceOnUse" gradientTransform="translate(1109.3 435.825) rotate(-3.9013) scale(113.789 92.0426)">
<stop stop-color="#00FFC4"/>
<stop offset="1" stop-color="#00FFC4" stop-opacity="0"/>
</radialGradient>
<radialGradient id="paint14_radial_1_11436" cx="0" cy="0" r="1" gradientUnits="userSpaceOnUse" gradientTransform="translate(1320.2 6.39365e-06) rotate(162.651) scale(88.5798 72.182)">
<stop stop-color="#00FFC4"/>
<stop offset="1" stop-color="#00FFC4" stop-opacity="0"/>
</radialGradient>
<linearGradient id="paint15_linear_1_11436" x1="1210" y1="78" x2="1210" y2="398" gradientUnits="userSpaceOnUse">
<stop stop-color="white"/>
<stop offset="1" stop-color="white" stop-opacity="0.1"/>
</linearGradient>
<linearGradient id="paint16_linear_1_11436" x1="1430" y1="0" x2="1791.44" y2="446.739" gradientUnits="userSpaceOnUse">
<stop stop-color="#00B387"/>
<stop offset="1" stop-color="#01110D"/>
</linearGradient>
<radialGradient id="paint17_radial_1_11436" cx="0" cy="0" r="1" gradientUnits="userSpaceOnUse" gradientTransform="translate(1519.3 435.825) rotate(-3.9013) scale(113.789 92.0426)">
<stop stop-color="#00FFC4"/>
<stop offset="1" stop-color="#00FFC4" stop-opacity="0"/>
</radialGradient>
<radialGradient id="paint18_radial_1_11436" cx="0" cy="0" r="1" gradientUnits="userSpaceOnUse" gradientTransform="translate(1730.2 6.39365e-06) rotate(162.651) scale(88.5798 72.182)">
<stop stop-color="#00FFC4"/>
<stop offset="1" stop-color="#00FFC4" stop-opacity="0"/>
</radialGradient>
<linearGradient id="paint19_linear_1_11436" x1="1620" y1="78" x2="1620" y2="398" gradientUnits="userSpaceOnUse">
<stop stop-color="white"/>
<stop offset="1" stop-color="white" stop-opacity="0.1"/>
</linearGradient>
</defs>
</svg>
