<svg width="24" height="25" viewBox="0 0 24 25" fill="none" xmlns="http://www.w3.org/2000/svg">
  <path
      d="M5.33454 5.00059C5.16856 5.00061 5.00638 5.05026 4.86883 5.14315C4.73128 5.23603 4.62464 5.3679 4.56261 5.52185C4.50058 5.6758 4.48598 5.84481 4.52071 6.00711C4.55543 6.16941 4.63788 6.31757 4.75747 6.43266L10.824 12.4991L4.75747 18.5657C4.6774 18.6422 4.61339 18.7338 4.56919 18.8354C4.52499 18.9369 4.50149 19.0461 4.50007 19.1568C4.49864 19.2676 4.51932 19.3774 4.56089 19.4801C4.60246 19.5827 4.66409 19.676 4.74217 19.7545C4.82024 19.833 4.9132 19.8952 5.01559 19.9373C5.11798 19.9794 5.22775 20.0008 5.33847 20C5.44919 19.9992 5.55864 19.9762 5.6604 19.9326C5.76216 19.889 5.85419 19.8254 5.93111 19.7458L12.0025 13.6777L18.0706 19.7458C18.148 19.8235 18.24 19.8851 18.3413 19.9272C18.4426 19.9693 18.5512 19.9911 18.6609 19.9911C18.7706 19.9912 18.8793 19.9697 18.9806 19.9278C19.082 19.8858 19.1741 19.8243 19.2517 19.7467C19.3292 19.6692 19.3908 19.5771 19.4327 19.4757C19.4746 19.3744 19.4962 19.2657 19.4961 19.156C19.496 19.0463 19.4743 18.9377 19.4322 18.8364C19.3901 18.7351 19.3284 18.6431 19.2507 18.5657L13.181 12.4991L19.2507 6.43266C19.3724 6.31578 19.4557 6.16473 19.4896 5.99943C19.5235 5.83413 19.5063 5.66238 19.4403 5.50707C19.3744 5.35175 19.2628 5.22016 19.1204 5.12971C18.978 5.03925 18.8114 4.99423 18.6428 5.00059C18.4266 5.00704 18.2213 5.09743 18.0706 5.25258L12.0025 11.3207L5.93111 5.25258C5.85355 5.17285 5.76079 5.10943 5.65833 5.06616C5.55586 5.02288 5.44576 5.0006 5.33454 5.00059Z"
      fill="currentColor"/>
</svg>
