<svg width="80" height="52" viewBox="0 0 80 52" fill="none" xmlns="http://www.w3.org/2000/svg">
    <path d="M16.01 19.2904L10.9622 0.209351H7.39698L16.01 32.7671V45.1923L4.11112 0.209351H0.545898L14.2274 51.9307H16.01H17.7915H19.5742V0.209351H16.01V19.2904Z"
          fill="currentColor"/>
    <path d="M79.462 51.9307L65.7804 0.209351H63.9978H62.2152H60.4326V51.9296H63.9978L73.4076 42.5211L75.8967 51.9296H79.462V51.9307ZM70.2446 30.5597L63.9989 36.8017V6.94773L70.2446 30.5597ZM63.9978 46.8881V41.84L71.2978 34.5443L72.3544 38.5365L63.9978 46.8881Z"
          fill="currentColor"/>
    <path d="M27.0935 0.209351H25.3109H23.5283V51.9296H27.0935L36.5033 42.5211L38.9925 51.9296H42.5577L28.8751 0.209351H27.0935ZM33.3392 30.5598L27.0935 36.8017V6.94773L33.3392 30.5598ZM27.0935 46.8881V41.84L34.3935 34.5443L35.4501 38.5365L27.0935 46.8881Z"
          fill="currentColor"/>
    <path d="M57.3519 32.1664L48.8986 0.209351H47.116H45.3334H43.5508V51.9296H47.116V42.3386L50.391 39.0656L53.7943 51.9296L57.3519 51.9036L53.2106 36.2477L54.5203 34.9387L57.3519 32.1664ZM47.116 37.3003V6.94773L53.466 30.9541L47.116 37.3003Z"
          fill="currentColor"/>
</svg>
