<svg width="32" height="32" viewBox="0 0 32 32" fill="none" xmlns="http://www.w3.org/2000/svg">
<path d="M13.3 11.9667C13.9526 11.3141 14.397 10.4825 14.577 9.5773C14.757 8.67207 14.6646 7.73378 14.3114 6.88109C13.9581 6.02839 13.36 5.29959 12.5926 4.78683C11.8252 4.27407 10.9229 4.00038 9.99996 4.00038C9.077 4.00038 8.17477 4.27407 7.40735 4.78683C6.63993 5.29959 6.04179 6.02839 5.68857 6.88109C5.33535 7.73378 5.2429 8.67207 5.42293 9.5773C5.60296 10.4825 6.04737 11.3141 6.69996 11.9667L9.99996 15.2667L13.3 11.9667ZM9.99996 19.0374L4.8133 13.8534C3.78806 12.8277 3.08996 11.521 2.80729 10.0985C2.52461 8.67611 2.67003 7.2018 3.22518 5.86201C3.78032 4.52222 4.72025 3.37711 5.92614 2.57147C7.13202 1.76582 8.54971 1.33582 9.99996 1.33582C11.4502 1.33582 12.8679 1.76582 14.0738 2.57147C15.2797 3.37711 16.2196 4.52222 16.7747 5.86201C17.3299 7.2018 17.4753 8.67611 17.1926 10.0985C16.91 11.521 16.2119 12.8277 15.1866 13.8534L9.99996 19.04V19.0374ZM9.99996 10.6667C9.46953 10.6667 8.96082 10.456 8.58575 10.0809C8.21068 9.70586 7.99996 9.19715 7.99996 8.66672C7.99996 8.13628 8.21068 7.62757 8.58575 7.2525C8.96082 6.87743 9.46953 6.66671 9.99996 6.66671C10.5304 6.66671 11.0391 6.87743 11.4142 7.2525C11.7892 7.62757 12 8.13628 12 8.66672C12 9.19715 11.7892 9.70586 11.4142 10.0809C11.0391 10.456 10.5304 10.6667 9.99996 10.6667ZM22 27.2667L25.3 23.9667C25.9526 23.3141 26.397 22.4825 26.577 21.5773C26.757 20.6721 26.6646 19.7338 26.3114 18.8811C25.9581 18.0284 25.36 17.2996 24.5926 16.7868C23.8252 16.2741 22.9229 16.0004 22 16.0004C21.077 16.0004 20.1748 16.2741 19.4074 16.7868C18.6399 17.2996 18.0418 18.0284 17.6886 18.8811C17.3353 19.7338 17.2429 20.6721 17.4229 21.5773C17.603 22.4825 18.0474 23.3141 18.7 23.9667L22 27.2667ZM27.1866 25.8534L22 31.0374L16.8133 25.852C15.7881 24.8263 15.09 23.5196 14.8073 22.0972C14.5246 20.6748 14.67 19.2005 15.2252 17.8607C15.7803 16.5209 16.7203 15.3758 17.9261 14.5701C19.132 13.7645 20.5497 13.3345 22 13.3345C23.4502 13.3345 24.8679 13.7645 26.0738 14.5701C27.2797 15.3758 28.2196 16.5209 28.7747 17.8607C29.3299 19.2005 29.4753 20.6748 29.1926 22.0972C28.91 23.5196 28.2119 24.8263 27.1866 25.852V25.8534ZM22 22.6667C21.4695 22.6667 20.9608 22.456 20.5857 22.0809C20.2107 21.7059 20 21.1971 20 20.6667C20 20.1363 20.2107 19.6276 20.5857 19.2525C20.9608 18.8774 21.4695 18.6667 22 18.6667C22.5304 18.6667 23.0391 18.8774 23.4142 19.2525C23.7892 19.6276 24 20.1363 24 20.6667C24 21.1971 23.7892 21.7059 23.4142 22.0809C23.0391 22.456 22.5304 22.6667 22 22.6667Z" fill="white"/>
</svg>
