<svg width="30" height="24" viewBox="0 0 30 24" fill="none" xmlns="http://www.w3.org/2000/svg">
<path d="M16.3334 18.584V21.3333H23V24H7.00004V21.3333H13.6667V18.584C11.089 18.2589 8.71847 17.0044 7.00005 15.0557C5.28162 13.107 4.33342 10.5981 4.33337 8V0H25.6667V8C25.6667 10.5981 24.7185 13.107 23 15.0557C21.2816 17.0044 18.9111 18.2589 16.3334 18.584ZM7.00004 2.66667V8C7.00004 10.1217 7.8429 12.1566 9.34319 13.6569C10.8435 15.1571 12.8783 16 15 16C17.1218 16 19.1566 15.1571 20.6569 13.6569C22.1572 12.1566 23 10.1217 23 8V2.66667H7.00004ZM0.333374 2.66667H3.00004V8H0.333374V2.66667ZM27 2.66667H29.6667V8H27V2.66667Z" fill="white"/>
</svg>
