<svg width="20" height="20" viewBox="0 0 20 20" fill="none" xmlns="http://www.w3.org/2000/svg">
<g clip-path="url(#clip0_20_112)">
<path d="M14.7142 12.3567L13.5359 11.1783L14.7142 10C15.0238 9.69047 15.2693 9.323 15.4368 8.91857C15.6044 8.51414 15.6906 8.08067 15.6906 7.64292C15.6906 7.20517 15.6044 6.77171 15.4368 6.36728C15.2693 5.96285 15.0238 5.59538 14.7142 5.28584C14.4047 4.9763 14.0372 4.73076 13.6328 4.56324C13.2284 4.39572 12.7949 4.3095 12.3572 4.3095C11.9194 4.3095 11.486 4.39572 11.0815 4.56324C10.6771 4.73076 10.3096 4.9763 10.0001 5.28584L8.82175 6.46417L7.64341 5.28584L8.82175 4.10751C9.76201 3.18244 11.0297 2.66638 12.3487 2.67176C13.6678 2.67713 14.9312 3.20349 15.8639 4.13618C16.7966 5.06887 17.323 6.33234 17.3283 7.65135C17.3337 8.97037 16.8176 10.2381 15.8926 11.1783L14.7142 12.3567ZM12.3567 14.7142L11.1784 15.8925C10.7155 16.363 10.164 16.7372 9.5558 16.9935C8.94756 17.2498 8.2946 17.3832 7.63457 17.3858C6.97454 17.3885 6.3205 17.2605 5.7102 17.0092C5.09989 16.7578 4.54539 16.3881 4.07867 15.9214C3.61196 15.4547 3.24226 14.9002 2.99092 14.2899C2.73958 13.6796 2.61156 13.0256 2.61425 12.3655C2.61694 11.7055 2.75028 11.0525 3.00658 10.4443C3.26289 9.83605 3.63708 9.28457 4.10758 8.82167L5.28591 7.64334L6.46425 8.82167L5.28591 10C4.97638 10.3095 4.73084 10.677 4.56332 11.0814C4.3958 11.4859 4.30958 11.9193 4.30958 12.3571C4.30958 12.7948 4.3958 13.2283 4.56332 13.6327C4.73084 14.0372 4.97638 14.4046 5.28591 14.7142C5.59545 15.0237 5.96292 15.2692 6.36735 15.4368C6.77178 15.6043 7.20525 15.6905 7.643 15.6905C8.08075 15.6905 8.51421 15.6043 8.91864 15.4368C9.32307 15.2692 9.69055 15.0237 10.0001 14.7142L11.1784 13.5358L12.3567 14.7142ZM12.3567 6.46417L13.5359 7.64334L7.64341 13.535L6.46425 12.3567L12.3567 6.465V6.46417ZM4.81258 1.91084L6.42258 1.47917L7.28508 4.70001L5.67591 5.13167L4.81258 1.91167V1.91084ZM12.7151 15.3008L14.3242 14.8692L15.1876 18.0892L13.5776 18.5208L12.7151 15.3008ZM1.91091 4.81251L5.13091 5.67584L4.69925 7.28501L1.47925 6.4225L1.91091 4.81251ZM15.3009 12.715L18.5209 13.5775L18.0893 15.1875L14.8692 14.3242L15.3009 12.715Z" fill="black"/>
</g>
<defs>
<clipPath id="clip0_20_112">
<rect width="20" height="20" fill="white"/>
</clipPath>
</defs>
</svg>
