<svg width="20" height="20" viewBox="0 0 20 20" fill="none" xmlns="http://www.w3.org/2000/svg">
<path d="M17.5 15.8333C17.5 16.7538 16.7538 17.5 15.8333 17.5L12.5 17.5C11.5795 17.5 10.8333 16.7538 10.8333 15.8333L10.8333 12.5C10.8333 11.5795 11.5795 10.8333 12.5 10.8333L15.8333 10.8333C16.7538 10.8333 17.5 11.5795 17.5 12.5L17.5 15.8333ZM12.5 15.8333L15.8333 15.8333L15.8333 12.5L12.5 12.5L12.5 15.8333ZM9.16667 15.8333C9.16667 16.7538 8.42048 17.5 7.5 17.5L4.16667 17.5C3.24619 17.5 2.5 16.7538 2.5 15.8333L2.5 12.5C2.5 11.5795 3.24619 10.8333 4.16667 10.8333L7.5 10.8333C8.42048 10.8333 9.16667 11.5795 9.16667 12.5L9.16667 15.8333ZM17.5 7.5C17.5 8.42048 16.7538 9.16667 15.8333 9.16667L12.5 9.16667C11.5795 9.16667 10.8333 8.42047 10.8333 7.5L10.8333 4.16667C10.8333 3.24619 11.5795 2.5 12.5 2.5L15.8333 2.5C16.7538 2.5 17.5 3.24619 17.5 4.16667L17.5 7.5ZM9.16667 7.5C9.16667 8.42047 8.42048 9.16667 7.5 9.16667L4.16667 9.16667C3.24619 9.16667 2.5 8.42047 2.5 7.5L2.5 4.16667C2.5 3.24619 3.24619 2.5 4.16667 2.5L7.5 2.5C8.42048 2.5 9.16667 3.24619 9.16667 4.16667L9.16667 7.5Z" fill="#0D0D0D"/>
</svg>
