<svg width="17" height="20" viewBox="0 0 17 20" fill="none" xmlns="http://www.w3.org/2000/svg">
<path d="M7.00001 11.6666V18.3333H0.333344C0.333344 16.5651 1.03572 14.8694 2.28596 13.6192C3.53621 12.369 5.2319 11.6666 7.00001 11.6666ZM7.00001 10.8333C4.23751 10.8333 2.00001 8.59575 2.00001 5.83325C2.00001 3.07075 4.23751 0.833252 7.00001 0.833252C9.76251 0.833252 12 3.07075 12 5.83325C12 8.59575 9.76251 10.8333 7.00001 10.8333ZM14.8717 16.6932L16.125 17.9466L14.9467 19.1249L13.6933 17.8716C12.9945 18.2837 12.1693 18.4267 11.3725 18.2739C10.5757 18.1211 9.86196 17.6829 9.36512 17.0415C8.86827 16.4001 8.62241 15.5995 8.67362 14.7898C8.72483 13.9801 9.0696 13.2169 9.64329 12.6432C10.217 12.0695 10.9802 11.7247 11.7899 11.6735C12.5996 11.6223 13.4002 11.8682 14.0416 12.365C14.683 12.8619 15.1212 13.5756 15.274 14.3724C15.4268 15.1692 15.2838 15.9944 14.8717 16.6932ZM12 16.6666C12.442 16.6666 12.866 16.491 13.1785 16.1784C13.4911 15.8659 13.6667 15.4419 13.6667 14.9999C13.6667 14.5579 13.4911 14.134 13.1785 13.8214C12.866 13.5088 12.442 13.3333 12 13.3333C11.558 13.3333 11.1341 13.5088 10.8215 13.8214C10.5089 14.134 10.3333 14.5579 10.3333 14.9999C10.3333 15.4419 10.5089 15.8659 10.8215 16.1784C11.1341 16.491 11.558 16.6666 12 16.6666Z" fill="white"/>
</svg>
