<svg width="24" height="24" viewBox="0 0 24 24" fill="none" xmlns="http://www.w3.org/2000/svg">
<path d="M12 13.3329L2.777 19.4819C2.70171 19.5321 2.61423 19.5608 2.52389 19.5651C2.43355 19.5694 2.34373 19.5492 2.264 19.5065C2.18427 19.4638 2.1176 19.4003 2.07111 19.3227C2.02462 19.2451 2.00005 19.1564 2 19.0659V4.93395C2.00005 4.8435 2.02462 4.75477 2.07111 4.67719C2.1176 4.59961 2.18427 4.53609 2.264 4.49341C2.34373 4.45072 2.43355 4.43045 2.52389 4.43478C2.61423 4.4391 2.70171 4.46784 2.777 4.51795L12 10.6669V4.93395C12 4.8435 12.0246 4.75477 12.0711 4.67719C12.1176 4.59961 12.1843 4.53609 12.264 4.49341C12.3437 4.45072 12.4336 4.43045 12.5239 4.43478C12.6142 4.4391 12.7017 4.46784 12.777 4.51795L23.376 11.5839C23.4445 11.6296 23.5006 11.6915 23.5395 11.764C23.5783 11.8366 23.5986 11.9176 23.5986 11.9999C23.5986 12.0823 23.5783 12.1633 23.5395 12.2359C23.5006 12.3084 23.4445 12.3703 23.376 12.4159L12.777 19.4819C12.7017 19.5321 12.6142 19.5608 12.5239 19.5651C12.4336 19.5694 12.3437 19.5492 12.264 19.5065C12.1843 19.4638 12.1176 19.4003 12.0711 19.3227C12.0246 19.2451 12 19.1564 12 19.0659V13.3329Z" fill="#0D0D0D"/>
</svg>
