<svg width="17" height="16" viewBox="0 0 17 16" fill="none" xmlns="http://www.w3.org/2000/svg">
<path fill-rule="evenodd" clip-rule="evenodd" d="M16.1465 8.35355C16.3417 8.15829 16.3417 7.84171 16.1465 7.64645L9.20712 0.707104C8.81659 0.316581 8.18343 0.316579 7.79291 0.707101L7.70711 0.792893C7.31659 1.18342 7.31659 1.81658 7.70711 2.20711L12.5 7H1.5C0.947715 7 0.5 7.44772 0.5 8C0.5 8.55229 0.947716 9 1.5 9H12.5L7.70711 13.7929C7.31659 14.1834 7.31659 14.8166 7.70711 15.2071L7.79291 15.2929C8.18343 15.6834 8.81659 15.6834 9.20712 15.2929L16.1465 8.35355Z" fill="#0C0C0D" fill-opacity="0.5"/>
</svg>
