<svg width="32" height="32" viewBox="0 0 32 32" fill="none" xmlns="http://www.w3.org/2000/svg">
<circle cx="16" cy="16" r="16" fill="#00FFC4"/>
<path d="M26.9805 8C26.4141 8.18545 25.8396 8.36284 25.257 8.52411C19.4148 10.0803 13.5078 9.78197 8.17539 8L7.13965 14.5957L9.2354 15.1601L11.1693 11.6284C11.6872 11.7333 12.2051 11.822 12.731 11.9026L13.3298 15.8778L15.4903 16.0632L16.7769 12.2493C17.3028 12.2654 17.8369 12.2654 18.3629 12.2493L19.6494 16.0632L21.8099 15.8778L22.4087 11.8945C22.9266 11.8139 23.4445 11.7252 23.9704 11.6204L25.9043 15.1601L28.0001 14.6038L26.9805 8Z" fill="#0B1114"/>
<path d="M22.7728 16.0789L20.8389 19.6186C20.321 19.5138 19.8031 19.4251 19.2772 19.3445L18.6784 15.3612L16.5098 15.1758L15.2232 18.9897C14.6892 18.9736 14.1632 18.9736 13.6372 18.9897L12.3506 15.1758L10.1902 15.3612L9.59137 19.3364C9.06541 19.417 8.54754 19.5057 8.02967 19.6105L6.09575 16.0789L4 16.6433L5.03574 23.2309C10.3682 21.449 16.2751 21.1506 22.1173 22.7149C22.6999 22.8681 23.2745 23.0455 23.8409 23.239L24.8766 16.6433L22.7728 16.0789Z" fill="#0B1114"/>
</svg>
