<svg width="30" height="31" viewBox="0 0 30 31" fill="none" xmlns="http://www.w3.org/2000/svg">
<path d="M16.5374 15.0717C16.5374 18.9376 13.5069 22.0715 9.76885 22.0715C6.03072 22.0715 3 18.9369 3 15.0717C3 11.2064 6.03051 8.07153 9.76885 8.07153C13.5071 8.07153 16.5374 11.2057 16.5374 15.0717ZM23.9628 15.0717C23.9628 18.7106 22.4476 21.6617 20.5784 21.6617C18.7092 21.6617 17.194 18.7106 17.194 15.0717C17.194 11.4327 18.709 8.48156 20.5782 8.48156C22.4474 8.48156 23.9626 11.4318 23.9626 15.0717H23.9628ZM27 15.0717C27 18.3313 26.4671 20.9753 25.8097 20.9753C25.1522 20.9753 24.6196 18.3319 24.6196 15.0717C24.6196 11.8113 25.1524 9.168 25.8097 9.168C26.4669 9.168 27 11.8111 27 15.0717Z" fill="black"/>
</svg>
