<svg width="131" height="22" viewBox="0 0 131 22" fill="none" xmlns="http://www.w3.org/2000/svg">
<path fill-rule="evenodd" clip-rule="evenodd" d="M17.1667 6.41671H15.3501C15.4417 6.15837 15.5001 5.87504 15.5001 5.58337C15.5001 4.20004 14.3834 3.08337 13.0001 3.08337C12.1251 3.08337 11.3667 3.53337 10.9167 4.20837L10.5001 4.76671L10.0834 4.20004C9.63341 3.53337 8.87508 3.08337 8.00008 3.08337C6.61675 3.08337 5.50008 4.20004 5.50008 5.58337C5.50008 5.87504 5.55841 6.15837 5.65008 6.41671H3.83341C2.90841 6.41671 2.17508 7.15837 2.17508 8.08337L2.16675 17.25C2.16675 18.175 2.90841 18.9167 3.83341 18.9167H17.1667C18.0917 18.9167 18.8334 18.175 18.8334 17.25V8.08337C18.8334 7.15837 18.0917 6.41671 17.1667 6.41671ZM13.0001 4.75004C13.4584 4.75004 13.8334 5.12504 13.8334 5.58337C13.8334 6.04171 13.4584 6.41671 13.0001 6.41671C12.5417 6.41671 12.1667 6.04171 12.1667 5.58337C12.1667 5.12504 12.5417 4.75004 13.0001 4.75004ZM8.83342 5.58337C8.83342 5.12504 8.45841 4.75004 8.00008 4.75004C7.54175 4.75004 7.16675 5.12504 7.16675 5.58337C7.16675 6.04171 7.54175 6.41671 8.00008 6.41671C8.45841 6.41671 8.83342 6.04171 8.83342 5.58337ZM3.83341 17.25V15.5834H17.1667V17.25H3.83341ZM3.83341 8.91671V13.0834H17.1667V8.91671C17.1667 8.45837 16.7917 8.08337 16.3334 8.08337H12.9334L14.1667 9.76671C14.4417 10.1417 14.3584 10.6667 13.9834 10.9334C13.6167 11.2 13.0917 11.1167 12.8251 10.75L10.5001 7.58337L8.17508 10.75C7.90841 11.1167 7.38341 11.2 7.01675 10.9334C6.64175 10.6667 6.55841 10.1417 6.83341 9.76671L8.06675 8.08337H4.66675C4.20841 8.08337 3.83341 8.45837 3.83341 8.91671Z" fill="#00B387"/>
<path d="M32.516 17V12.6L28.692 5.832H30.612L33.396 10.904H33.444L36.196 5.832H38.1L34.228 12.568V17H32.516ZM41.9491 17.192C41.1811 17.192 40.5091 17.016 39.9331 16.664C39.3678 16.3013 38.9251 15.7947 38.6051 15.144C38.2958 14.4933 38.1411 13.7253 38.1411 12.84C38.1411 11.9547 38.2958 11.192 38.6051 10.552C38.9251 9.90133 39.3678 9.4 39.9331 9.048C40.5091 8.68533 41.1811 8.504 41.9491 8.504C42.7065 8.504 43.3678 8.68533 43.9331 9.048C44.5091 9.4 44.9518 9.90133 45.2611 10.552C45.5811 11.192 45.7411 11.9547 45.7411 12.84C45.7411 13.7253 45.5811 14.4933 45.2611 15.144C44.9518 15.7947 44.5091 16.3013 43.9331 16.664C43.3678 17.016 42.7065 17.192 41.9491 17.192ZM41.9491 15.816C42.5678 15.816 43.0638 15.624 43.4371 15.24C43.8105 14.856 43.9971 14.2853 43.9971 13.528V12.168C43.9971 11.4107 43.8105 10.84 43.4371 10.456C43.0638 10.072 42.5678 9.88 41.9491 9.88C41.3411 9.88 40.8451 10.072 40.4611 10.456C40.0771 10.84 39.8851 11.4107 39.8851 12.168V13.528C39.8851 14.2853 40.0771 14.856 40.4611 15.24C40.8451 15.624 41.3411 15.816 41.9491 15.816ZM50.3259 17.192C49.4725 17.192 48.8005 16.9147 48.3099 16.36C47.8299 15.7947 47.5899 15.0053 47.5899 13.992V8.696H49.2379V13.768C49.2379 14.4293 49.3712 14.9307 49.6379 15.272C49.9152 15.6133 50.3312 15.784 50.8859 15.784C51.1952 15.784 51.4885 15.7307 51.7659 15.624C52.0539 15.5173 52.2832 15.3573 52.4539 15.144C52.6352 14.9307 52.7259 14.6587 52.7259 14.328V8.696H54.3579V17H52.7259V15.64H52.6459C52.4965 16.0453 52.2459 16.408 51.8939 16.728C51.5419 17.0373 51.0192 17.192 50.3259 17.192ZM56.9206 17V8.696H58.5526V10.312H58.6326C58.718 10.0347 58.8566 9.77333 59.0486 9.528C59.2406 9.28267 59.4913 9.08533 59.8006 8.936C60.1206 8.776 60.4993 8.696 60.9366 8.696H61.4166V10.28H60.7126C60.254 10.28 59.8646 10.3387 59.5446 10.456C59.2246 10.5627 58.9793 10.712 58.8086 10.904C58.638 11.096 58.5526 11.336 58.5526 11.624V17H56.9206ZM66.7644 17V8.696H68.3964V10.312H68.4764C68.5617 10.0347 68.7004 9.77333 68.8924 9.528C69.0844 9.28267 69.335 9.08533 69.6444 8.936C69.9644 8.776 70.343 8.696 70.7804 8.696H71.2604V10.28H70.5564C70.0977 10.28 69.7084 10.3387 69.3884 10.456C69.0684 10.5627 68.823 10.712 68.6524 10.904C68.4817 11.096 68.3964 11.336 68.3964 11.624V17H66.7644ZM75.9808 17.192C75.2021 17.192 74.5248 17.016 73.9488 16.664C73.3834 16.3013 72.9408 15.7947 72.6208 15.144C72.3114 14.4933 72.1568 13.7253 72.1568 12.84C72.1568 11.9653 72.3114 11.2027 72.6208 10.552C72.9301 9.90133 73.3674 9.4 73.9328 9.048C74.4981 8.68533 75.1701 8.504 75.9488 8.504C76.7488 8.504 77.4208 8.68533 77.9648 9.048C78.5088 9.41067 78.9194 9.90667 79.1968 10.536C79.4848 11.1547 79.6288 11.848 79.6288 12.616V13.256H73.8688V13.56C73.8688 14.2213 74.0608 14.7653 74.4448 15.192C74.8394 15.6187 75.3994 15.832 76.1248 15.832C76.6368 15.832 77.0741 15.7147 77.4368 15.48C77.7994 15.2453 78.0981 14.9307 78.3328 14.536L79.3248 15.464C79.0261 15.976 78.5888 16.392 78.0128 16.712C77.4368 17.032 76.7594 17.192 75.9808 17.192ZM73.8688 12.152H77.9008V11.992C77.9008 11.5547 77.8208 11.1707 77.6608 10.84C77.5114 10.5093 77.2874 10.2533 76.9888 10.072C76.7008 9.89067 76.3594 9.8 75.9648 9.8C75.5488 9.8 75.1808 9.896 74.8608 10.088C74.5514 10.28 74.3061 10.5467 74.1248 10.888C73.9541 11.2187 73.8688 11.6027 73.8688 12.04V12.152ZM82.9224 17L80.6664 8.696H82.2664L83.1144 12.2L83.8984 15.464H83.9464L84.8424 12.2L85.8504 8.696H87.3224L88.3624 12.2L89.2744 15.464H89.3224L90.0744 12.2L90.9544 8.696H92.4744L90.2504 17H88.3624L87.2584 13.176L86.5704 10.776H86.5384L85.8824 13.176L84.7624 17H82.9224ZM96.0944 17.192C95.2304 17.192 94.5637 16.968 94.0944 16.52C93.625 16.072 93.3904 15.4693 93.3904 14.712C93.3904 14.168 93.5237 13.7147 93.7904 13.352C94.057 12.9787 94.4517 12.7013 94.9744 12.52C95.497 12.328 96.1477 12.232 96.9264 12.232H98.4624V11.512C98.4624 10.9787 98.3184 10.5733 98.0304 10.296C97.753 10.008 97.3104 9.864 96.7024 9.864C96.2117 9.864 95.8064 9.97067 95.4864 10.184C95.1664 10.3973 94.905 10.6747 94.7024 11.016L93.7104 10.12C93.977 9.66133 94.361 9.27733 94.8624 8.968C95.3637 8.65867 96.009 8.504 96.7984 8.504C97.8544 8.504 98.6704 8.75467 99.2464 9.256C99.8224 9.75733 100.11 10.4667 100.11 11.384V15.64H100.99V17H100.078C99.641 17 99.305 16.8827 99.0704 16.648C98.8357 16.4133 98.6864 16.1147 98.6224 15.752L98.5904 15.608H98.5104C98.3504 16.1307 98.057 16.5253 97.6304 16.792C97.2037 17.0587 96.6917 17.192 96.0944 17.192ZM96.5264 15.912C96.8997 15.912 97.2304 15.8587 97.5184 15.752C97.8064 15.6347 98.0357 15.4747 98.2064 15.272C98.377 15.0587 98.4624 14.8187 98.4624 14.552V13.32H96.9424C96.313 13.32 95.8437 13.416 95.5344 13.608C95.225 13.8 95.0704 14.0827 95.0704 14.456V14.76C95.0704 15.1333 95.2037 15.4213 95.4704 15.624C95.737 15.816 96.089 15.912 96.5264 15.912ZM102.749 17V8.696H104.381V10.312H104.461C104.546 10.0347 104.685 9.77333 104.877 9.528C105.069 9.28267 105.319 9.08533 105.629 8.936C105.949 8.776 106.327 8.696 106.765 8.696H107.245V10.28H106.541C106.082 10.28 105.693 10.3387 105.373 10.456C105.053 10.5627 104.807 10.712 104.637 10.904C104.466 11.096 104.381 11.336 104.381 11.624V17H102.749ZM111.533 17.192C110.84 17.192 110.242 17.0213 109.741 16.68C109.25 16.328 108.872 15.8267 108.605 15.176C108.349 14.5253 108.221 13.7467 108.221 12.84C108.221 11.9333 108.349 11.16 108.605 10.52C108.872 9.86933 109.25 9.37333 109.741 9.032C110.242 8.68 110.84 8.504 111.533 8.504C112.088 8.504 112.573 8.63733 112.989 8.904C113.416 9.17067 113.72 9.55467 113.901 10.056H113.965V5.16H115.613V17H113.965V15.64H113.901C113.698 16.1307 113.389 16.5147 112.973 16.792C112.568 17.0587 112.088 17.192 111.533 17.192ZM112.029 15.784C112.392 15.784 112.717 15.7253 113.005 15.608C113.304 15.48 113.538 15.304 113.709 15.08C113.88 14.8453 113.965 14.568 113.965 14.248V11.384C113.965 11.0853 113.88 10.8293 113.709 10.616C113.538 10.392 113.304 10.2213 113.005 10.104C112.717 9.976 112.392 9.912 112.029 9.912C111.4 9.912 110.893 10.1147 110.509 10.52C110.136 10.9253 109.949 11.464 109.949 12.136V13.56C109.949 14.2213 110.136 14.76 110.509 15.176C110.893 15.5813 111.4 15.784 112.029 15.784ZM120.747 17.192C119.979 17.192 119.328 17.0533 118.795 16.776C118.262 16.488 117.798 16.0987 117.403 15.608L118.475 14.648C118.784 15.0213 119.131 15.3147 119.515 15.528C119.899 15.7413 120.342 15.848 120.843 15.848C121.366 15.848 121.755 15.7467 122.011 15.544C122.278 15.3413 122.411 15.0587 122.411 14.696C122.411 14.408 122.32 14.168 122.139 13.976C121.958 13.784 121.632 13.656 121.163 13.592L120.427 13.496C119.883 13.4107 119.403 13.2773 118.987 13.096C118.582 12.904 118.267 12.6427 118.043 12.312C117.819 11.9707 117.707 11.544 117.707 11.032C117.707 10.2213 117.99 9.59733 118.555 9.16C119.131 8.72267 119.867 8.504 120.763 8.504C121.254 8.504 121.68 8.55733 122.043 8.664C122.416 8.77067 122.747 8.92533 123.035 9.128C123.323 9.32 123.584 9.55467 123.819 9.832L122.811 10.808C122.598 10.5413 122.315 10.3173 121.963 10.136C121.622 9.944 121.216 9.848 120.747 9.848C120.267 9.848 119.904 9.944 119.659 10.136C119.414 10.328 119.291 10.5947 119.291 10.936C119.291 11.2667 119.403 11.5173 119.627 11.688C119.851 11.848 120.187 11.9653 120.635 12.04L121.387 12.152C122.304 12.28 122.966 12.5467 123.371 12.952C123.787 13.3467 123.995 13.8747 123.995 14.536C123.995 15.0693 123.862 15.5387 123.595 15.944C123.328 16.3387 122.95 16.648 122.459 16.872C121.979 17.0853 121.408 17.192 120.747 17.192ZM127.198 10.84C126.824 10.84 126.542 10.744 126.35 10.552C126.168 10.3493 126.078 10.0987 126.078 9.8V9.56C126.078 9.25067 126.168 9 126.35 8.808C126.542 8.60533 126.824 8.504 127.198 8.504C127.592 8.504 127.875 8.60533 128.046 8.808C128.227 9 128.318 9.25067 128.318 9.56V9.8C128.318 10.0987 128.227 10.3493 128.046 10.552C127.875 10.744 127.592 10.84 127.198 10.84ZM127.198 17.192C126.824 17.192 126.542 17.0907 126.35 16.888C126.168 16.6853 126.078 16.4347 126.078 16.136V15.896C126.078 15.5867 126.168 15.336 126.35 15.144C126.542 14.952 126.824 14.856 127.198 14.856C127.592 14.856 127.875 14.952 128.046 15.144C128.227 15.336 128.318 15.5867 128.318 15.896V16.136C128.318 16.4347 128.227 16.6853 128.046 16.888C127.875 17.0907 127.592 17.192 127.198 17.192Z" fill="#00B387"/>
</svg>
