<svg width="735" height="572" viewBox="0 0 735 572" fill="none" xmlns="http://www.w3.org/2000/svg">
<path opacity="0.3" fill-rule="evenodd" clip-rule="evenodd" d="M350.1 571.2L382 571L384.763 542.828L393.375 537.768L394.559 537.904L401.8 541.8L409.683 529.868L734.1 492.7L720.7 421.4L485.921 483.389L717.7 347.2L676.6 287.4L449.976 468.874L696.7 95.4L590.8 38.3L388.38 509.143L388.058 509.228L438 0L286.6 1L342.477 502.747L136.6 40.8L31.5 99.4L280.37 465.547L56.3 291L16 351.3L247.586 483.233L13.4 421.4L0 492.7L324.062 529.827L332.2 541.8L339.152 537.948L342.88 537.521L346.585 539.632L350.1 571.2Z" fill="url(#paint0_radial_113_15877)"/>
<g clip-path="url(#clip0_113_15877)">
<path d="M591.9 153.5C589.1 154.2 583.9 155.3 580.2 156C580.1 155.6 579.9 155.3 579.7 154.9C585.7 152.1 595.6 146.8 593.9 142.8C591.5 137.2 585.2 137.8 582.8 142C581.3 144.5 578.5 149 576.4 152.1C576.1 152 575.8 151.9 575.5 151.8C577.8 145.6 581.2 134.9 577.3 133.3C571.7 131 567.6 135.8 568.7 140.4C569.4 143.2 570.5 148.4 571.2 152.1C571.1 152.1 571.1 152.2 571 152.2C568.9 149.2 565.9 144.8 564.3 142.3C561.8 138.2 555.4 137.8 553.2 143.5C551.6 147.5 561.7 152.5 567.7 155.2C567.5 155.5 567.4 155.8 567.3 156.1C563.7 155.4 558.5 154.3 555.6 153.6C550.9 152.4 546.1 156.6 548.5 162.2C550.2 166.1 560.9 162.8 567 160.4C567.1 160.8 567.2 161.2 567.4 161.5C564.4 163.6 560 166.6 557.5 168.2C553.4 170.7 553 177.1 558.7 179.3C562.7 180.9 567.7 170.8 570.4 164.8C570.7 165 571 165.1 571.3 165.2C570.6 168.8 569.5 174 568.8 176.9C567.6 181.6 571.8 186.4 577.4 184C581.3 182.3 578 171.6 575.6 165.5C576.3 165.3 577 165 577.6 164.7C580.4 170.7 585.7 180.6 589.7 178.9C595.3 176.5 594.7 170.2 590.5 167.8C588 166.3 583.5 163.5 580.4 161.4C580.5 161.1 580.6 160.8 580.7 160.5C586.9 162.8 597.6 166.2 599.2 162.3C601.3 156.5 596.5 152.3 591.9 153.5Z" fill="url(#paint1_radial_113_15877)"/>
<path d="M578.9 158.6C578.9 155.7 576.5 153.3 573.6 153.3C570.7 153.3 568.3 155.7 568.3 158.6C568.3 161.5 570.7 163.9 573.6 163.9C576.5 163.9 578.9 161.5 578.9 158.6Z" fill="#3BCAE2"/>
<path d="M578.9 158.6C578.9 155.7 576.5 153.3 573.6 153.3C570.7 153.3 568.3 155.7 568.3 158.6C568.3 161.5 570.7 163.9 573.6 163.9C576.5 163.9 578.9 161.5 578.9 158.6Z" fill="#FFB14A"/>
<path d="M186.1 296.1C183.3 296.8 178.1 297.9 174.4 298.6C174.3 298.2 174.1 297.9 173.9 297.5C179.9 294.7 189.8 289.4 188.1 285.4C185.7 279.8 179.4 280.4 177 284.6C175.5 287.1 172.7 291.6 170.6 294.7C170.3 294.6 170 294.5 169.7 294.4C172 288.2 175.4 277.5 171.5 275.9C165.9 273.6 161.8 278.4 162.9 283C163.6 285.8 164.7 291 165.4 294.7C165.3 294.7 165.3 294.8 165.2 294.8C163.1 291.8 160.1 287.4 158.5 284.9C156 280.8 149.6 280.4 147.4 286.1C145.8 290.1 155.9 295.1 161.9 297.8C161.7 298.1 161.6 298.4 161.5 298.7C157.9 298 152.7 296.9 149.8 296.2C145.1 295 140.3 299.2 142.7 304.8C144.4 308.7 155.1 305.4 161.2 303C161.3 303.4 161.4 303.8 161.6 304.1C158.6 306.2 154.2 309.2 151.7 310.8C147.6 313.3 147.2 319.7 152.9 321.9C156.9 323.5 161.9 313.4 164.6 307.4C164.9 307.6 165.2 307.7 165.5 307.8C164.8 311.4 163.7 316.6 163 319.5C161.8 324.2 166 329 171.6 326.6C175.5 324.9 172.2 314.2 169.8 308.1C170.5 307.9 171.2 307.6 171.8 307.3C174.6 313.3 179.9 323.2 183.9 321.5C189.5 319.1 188.9 312.8 184.7 310.4C182.2 308.9 177.7 306.1 174.6 304C174.7 303.7 174.8 303.4 174.9 303.1C181.1 305.4 191.8 308.8 193.4 304.9C195.6 299.1 190.8 294.9 186.1 296.1Z" fill="url(#paint2_radial_113_15877)"/>
<path d="M173.2 301.2C173.2 298.3 170.8 295.9 167.9 295.9C165 295.9 162.6 298.3 162.6 301.2C162.6 304.1 165 306.5 167.9 306.5C170.8 306.5 173.2 304.1 173.2 301.2Z" fill="#3BCAE2"/>
<path d="M173.2 301.2C173.2 298.3 170.8 295.9 167.9 295.9C165 295.9 162.6 298.3 162.6 301.2C162.6 304.1 165 306.5 167.9 306.5C170.8 306.5 173.2 304.1 173.2 301.2Z" fill="#FFB14A"/>
<path d="M304.1 173.5C302.4 173.9 299.3 174.6 297.1 175C297 174.8 296.9 174.6 296.8 174.4C300.4 172.7 306.3 169.5 305.3 167.1C303.9 163.7 300.1 164.1 298.6 166.6C297.7 168.1 296 170.8 294.8 172.7C294.6 172.6 294.4 172.6 294.2 172.5C295.6 168.8 297.6 162.3 295.3 161.3C291.9 159.9 289.4 162.8 290.1 165.6C290.5 167.3 291.2 170.4 291.6 172.6C291.6 172.6 291.5 172.6 291.5 172.7C290.2 170.9 288.4 168.2 287.5 166.7C286 164.2 282.2 164 280.8 167.4C279.9 169.8 285.9 172.8 289.5 174.4C289.4 174.6 289.3 174.7 289.2 174.9C287 174.5 283.9 173.8 282.2 173.4C279.4 172.7 276.5 175.2 277.9 178.6C278.9 181 285.3 178.9 289.1 177.5C289.2 177.7 289.2 178 289.3 178.2C287.5 179.5 284.8 181.3 283.3 182.2C280.8 183.7 280.6 187.5 284 188.9C286.4 189.8 289.4 183.8 291 180.2C291.2 180.3 291.3 180.4 291.5 180.5C291.1 182.7 290.4 185.8 290 187.5C289.3 190.3 291.8 193.2 295.2 191.8C297.6 190.8 295.5 184.4 294.1 180.6C294.5 180.5 294.9 180.3 295.3 180.1C297 183.7 300.2 189.6 302.6 188.6C306 187.2 305.6 183.4 303.1 181.9C301.6 181 298.9 179.3 297 178.1C297.1 177.9 297.1 177.7 297.2 177.5C300.9 178.9 307.4 180.9 308.4 178.6C309.8 175.3 307 172.8 304.1 173.5Z" fill="url(#paint3_radial_113_15877)"/>
<path d="M296.4 176.5C296.4 174.7 295 173.3 293.2 173.3C291.4 173.3 290 174.7 290 176.5C290 178.3 291.4 179.7 293.2 179.7C294.9 179.7 296.4 178.3 296.4 176.5Z" fill="#3BCAE2"/>
<path d="M296.4 176.5C296.4 174.7 295 173.3 293.2 173.3C291.4 173.3 290 174.7 290 176.5C290 178.3 291.4 179.7 293.2 179.7C294.9 179.7 296.4 178.3 296.4 176.5Z" fill="#FFB14A"/>
<path d="M579.3 312.4C577.6 312.8 574.5 313.5 572.3 313.9C572.2 313.7 572.1 313.5 572 313.3C575.6 311.6 581.5 308.4 580.5 306C579.1 302.6 575.3 303 573.8 305.5C572.9 307 571.2 309.7 570 311.6C569.8 311.5 569.6 311.5 569.4 311.4C570.8 307.7 572.8 301.2 570.5 300.2C567.1 298.8 564.6 301.7 565.3 304.5C565.7 306.2 566.4 309.3 566.8 311.5C566.8 311.5 566.7 311.5 566.7 311.6C565.4 309.8 563.6 307.1 562.7 305.6C561.2 303.1 557.4 302.9 556 306.3C555.1 308.7 561.1 311.7 564.7 313.3C564.6 313.5 564.5 313.6 564.4 313.8C562.2 313.4 559.1 312.7 557.4 312.3C554.6 311.6 551.7 314.1 553.1 317.5C554.1 319.9 560.5 317.8 564.3 316.4C564.4 316.6 564.4 316.9 564.5 317.1C562.7 318.4 560 320.2 558.5 321.1C556 322.6 555.8 326.4 559.2 327.8C561.6 328.7 564.6 322.7 566.2 319.1C566.4 319.2 566.5 319.3 566.7 319.4C566.3 321.6 565.6 324.7 565.2 326.4C564.5 329.2 567 332.1 570.4 330.7C572.8 329.7 570.7 323.3 569.3 319.5C569.7 319.4 570.1 319.2 570.5 319C572.2 322.6 575.4 328.5 577.8 327.5C581.2 326.1 580.8 322.3 578.3 320.8C576.8 319.9 574.1 318.2 572.2 317C572.3 316.8 572.3 316.6 572.4 316.4C576.1 317.8 582.6 319.8 583.6 317.5C585 314.2 582.1 311.7 579.3 312.4Z" fill="url(#paint4_radial_113_15877)"/>
<path d="M568.4 318.7C570.167 318.7 571.6 317.268 571.6 315.5C571.6 313.733 570.167 312.3 568.4 312.3C566.633 312.3 565.2 313.733 565.2 315.5C565.2 317.268 566.633 318.7 568.4 318.7Z" fill="#3BCAE2"/>
<path d="M568.4 318.7C570.167 318.7 571.6 317.268 571.6 315.5C571.6 313.733 570.167 312.3 568.4 312.3C566.633 312.3 565.2 313.733 565.2 315.5C565.2 317.268 566.633 318.7 568.4 318.7Z" fill="#FFB14A"/>
<path d="M501.1 156.1C498.5 156.8 493.6 157.7 490.2 158.4C490.1 158.1 489.9 157.7 489.7 157.4C495.2 154.8 504.5 149.8 502.9 146.2C500.7 141 494.8 141.5 492.5 145.4C491.1 147.8 488.5 151.9 486.6 154.8C486.3 154.7 486 154.6 485.7 154.5C487.9 148.8 491 138.8 487.3 137.3C482.1 135.1 478.2 139.6 479.3 143.9C480 146.5 480.9 151.4 481.6 154.8C481.5 154.8 481.5 154.9 481.4 154.9C479.4 152.1 476.6 148 475.2 145.7C472.8 141.9 466.9 141.5 464.9 146.8C463.4 150.5 472.8 155.2 478.4 157.6C478.2 157.9 478.1 158.1 478 158.4C474.6 157.7 469.8 156.8 467.1 156.1C462.7 155 458.3 158.9 460.5 164.1C462 167.8 472 164.6 477.7 162.5C477.8 162.9 477.9 163.2 478.1 163.5C475.3 165.5 471.2 168.3 468.9 169.7C465.1 172.1 464.7 178 470 180C473.7 181.5 478.4 172.1 480.8 166.5C481.1 166.7 481.3 166.8 481.6 166.9C480.9 170.3 480 175.1 479.3 177.8C478.2 182.2 482.1 186.6 487.3 184.4C491 182.9 487.8 172.9 485.7 167.2C486.4 167 487 166.8 487.5 166.4C490.1 171.9 495.1 181.2 498.7 179.6C503.9 177.4 503.4 171.5 499.5 169.2C497.1 167.8 493 165.2 490.1 163.3C490.2 163 490.3 162.7 490.4 162.4C496.1 164.6 506.1 167.7 507.6 164C510 158.9 505.5 155 501.1 156.1Z" fill="url(#paint5_radial_113_15877)"/>
<path d="M489.1 160.8C489.1 158.1 486.9 155.9 484.2 155.9C481.5 155.9 479.3 158.1 479.3 160.8C479.3 163.5 481.5 165.7 484.2 165.7C486.9 165.8 489.1 163.6 489.1 160.8Z" fill="#3BCAE2"/>
<path d="M489.1 160.8C489.1 158.1 486.9 155.9 484.2 155.9C481.5 155.9 479.3 158.1 479.3 160.8C479.3 163.5 481.5 165.7 484.2 165.7C486.9 165.8 489.1 163.6 489.1 160.8Z" fill="#FFB14A"/>
<path d="M610.6 244.6C608.6 245.1 605 245.8 602.4 246.3C602.3 246 602.2 245.8 602 245.6C606.2 243.6 613.1 239.9 611.9 237.1C610.2 233.2 605.8 233.6 604.1 236.5C603.1 238.3 601.1 241.4 599.6 243.6C599.4 243.5 599.2 243.4 598.9 243.4C600.5 239.1 602.9 231.6 600.1 230.4C596.2 228.8 593.3 232.1 594.1 235.4C594.6 237.4 595.3 241 595.8 243.6C595.7 243.6 595.7 243.6 595.6 243.7C594.1 241.6 592 238.5 590.9 236.8C589.1 233.9 584.7 233.7 583.1 237.6C582 240.4 589 243.9 593.3 245.8C593.2 246 593.1 246.2 593 246.4C590.5 245.9 586.8 245.2 584.8 244.7C581.5 243.9 578.2 246.8 579.8 250.7C581 253.5 588.5 251.1 592.8 249.5C592.9 249.8 593 250 593.1 250.3C591 251.8 587.9 253.9 586.2 255C583.3 256.8 583.1 261.2 587 262.8C589.8 263.9 593.3 256.9 595.2 252.6C595.4 252.7 595.6 252.8 595.8 252.9C595.3 255.4 594.6 259.1 594.1 261.1C593.3 264.4 596.2 267.7 600.1 266.1C602.9 264.9 600.5 257.4 598.9 253.1C599.4 253 599.9 252.8 600.3 252.5C602.3 256.7 606 263.6 608.8 262.4C612.7 260.7 612.3 256.3 609.4 254.6C607.6 253.6 604.5 251.6 602.3 250.1C602.4 249.9 602.5 249.7 602.5 249.4C606.8 251 614.3 253.4 615.5 250.6C617.2 246.7 613.9 243.7 610.6 244.6Z" fill="url(#paint6_radial_113_15877)"/>
<path d="M601.5 248.1C601.5 246.1 599.8 244.4 597.8 244.4C595.8 244.4 594.1 246.1 594.1 248.1C594.1 250.1 595.8 251.8 597.8 251.8C599.9 251.8 601.5 250.2 601.5 248.1Z" fill="#3BCAE2"/>
<path d="M601.5 248.1C601.5 246.1 599.8 244.4 597.8 244.4C595.8 244.4 594.1 246.1 594.1 248.1C594.1 250.1 595.8 251.8 597.8 251.8C599.9 251.8 601.5 250.2 601.5 248.1Z" fill="#FFB14A"/>
<path d="M215.5 364.4C213.5 364.9 209.9 365.6 207.3 366.1C207.2 365.8 207.1 365.6 206.9 365.4C211.1 363.4 218 359.7 216.8 356.9C215.1 353 210.7 353.4 209 356.3C208 358.1 206 361.2 204.5 363.4C204.3 363.3 204.1 363.2 203.8 363.2C205.4 358.9 207.8 351.4 205 350.2C201.1 348.6 198.2 351.9 199 355.2C199.5 357.2 200.2 360.8 200.7 363.4C200.6 363.4 200.6 363.4 200.5 363.5C199 361.4 196.9 358.3 195.8 356.6C194 353.7 189.6 353.5 188 357.4C186.9 360.2 193.9 363.7 198.2 365.6C198.1 365.8 198 366 197.9 366.2C195.4 365.7 191.7 365 189.7 364.5C186.4 363.7 183.1 366.6 184.7 370.5C185.9 373.3 193.4 370.9 197.7 369.3C197.8 369.6 197.9 369.8 198 370.1C195.9 371.6 192.8 373.7 191.1 374.8C188.2 376.6 188 381 191.9 382.6C194.7 383.7 198.2 376.7 200.1 372.4C200.3 372.5 200.5 372.6 200.7 372.7C200.2 375.2 199.5 378.9 199 380.9C198.2 384.2 201.1 387.5 205 385.9C207.8 384.7 205.4 377.2 203.8 372.9C204.3 372.8 204.8 372.6 205.2 372.3C207.2 376.5 210.9 383.4 213.7 382.2C217.6 380.5 217.2 376.1 214.3 374.4C212.5 373.4 209.4 371.4 207.2 369.9C207.3 369.7 207.4 369.5 207.4 369.2C211.7 370.8 219.2 373.2 220.4 370.4C222.1 366.5 218.7 363.6 215.5 364.4Z" fill="url(#paint7_radial_113_15877)"/>
<path d="M206.4 367.9C206.4 365.9 204.7 364.2 202.7 364.2C200.7 364.2 199 365.9 199 367.9C199 369.9 200.7 371.6 202.7 371.6C204.8 371.7 206.4 370 206.4 367.9Z" fill="#3BCAE2"/>
<path d="M206.4 367.9C206.4 365.9 204.7 364.2 202.7 364.2C200.7 364.2 199 365.9 199 367.9C199 369.9 200.7 371.6 202.7 371.6C204.8 371.7 206.4 370 206.4 367.9Z" fill="#FFB14A"/>
<path d="M173.3 77.6002C171.3 78.1002 167.7 78.8002 165.1 79.3002C165 79.0002 164.9 78.8002 164.7 78.6002C168.9 76.6002 175.8 72.9002 174.6 70.1002C172.9 66.2002 168.5 66.6002 166.8 69.5002C165.8 71.3002 163.8 74.4002 162.3 76.6002C162.1 76.5002 161.9 76.4002 161.6 76.4002C163.2 72.1002 165.6 64.6002 162.8 63.4002C158.9 61.8002 156 65.1002 156.8 68.4002C157.3 70.4002 158 74.0002 158.5 76.6002C158.4 76.6002 158.4 76.6002 158.3 76.7002C156.8 74.6002 154.7 71.5002 153.6 69.8002C151.8 66.9002 147.4 66.7002 145.8 70.6002C144.7 73.4002 151.7 76.9002 156 78.8002C155.9 79.0002 155.8 79.2002 155.7 79.4002C153.2 78.9002 149.5 78.2002 147.5 77.7002C144.2 76.9002 140.9 79.8002 142.5 83.7002C143.7 86.5002 151.2 84.1002 155.5 82.5002C155.6 82.8002 155.7 83.0002 155.8 83.3002C153.7 84.8002 150.6 86.9002 148.9 88.0002C146.3 89.6002 146 94.1002 150 95.6002C152.8 96.7002 156.3 89.7002 158.2 85.4002C158.4 85.5002 158.6 85.6002 158.8 85.7002C158.3 88.2002 157.6 91.9002 157.1 93.9002C156.3 97.2002 159.2 100.5 163.1 98.9002C165.9 97.7002 163.5 90.2002 161.9 85.9002C162.4 85.8002 162.9 85.6002 163.3 85.3002C165.3 89.5002 169 96.4002 171.8 95.2002C175.7 93.5002 175.3 89.1002 172.4 87.4002C170.6 86.4002 167.5 84.4002 165.3 82.9002C165.4 82.7002 165.5 82.5002 165.5 82.2002C169.8 83.8002 177.3 86.2002 178.5 83.4002C180 79.7002 176.6 76.8002 173.3 77.6002Z" fill="url(#paint8_radial_113_15877)"/>
<path d="M164.3 81.2C164.3 79.2 162.6 77.5 160.6 77.5C158.6 77.5 156.9 79.2 156.9 81.2C156.9 83.2 158.6 84.9 160.6 84.9C162.6 84.9 164.3 83.2 164.3 81.2Z" fill="#3BCAE2"/>
<path d="M164.3 81.2C164.3 79.2 162.6 77.5 160.6 77.5C158.6 77.5 156.9 79.2 156.9 81.2C156.9 83.2 158.6 84.9 160.6 84.9C162.6 84.9 164.3 83.2 164.3 81.2Z" fill="#FFB14A"/>
</g>
<defs>
<radialGradient id="paint0_radial_113_15877" cx="0" cy="0" r="1" gradientUnits="userSpaceOnUse" gradientTransform="translate(342 394) rotate(81.0983) scale(336.048 473.671)">
<stop stop-color="#52D88C"/>
<stop offset="0.128" stop-color="#40AA6E" stop-opacity="0.7"/>
<stop offset="0.3104" stop-color="#2A6E47" stop-opacity="0.4"/>
<stop offset="0.478" stop-color="#183E28" stop-opacity="0.25"/>
<stop offset="0.6253" stop-color="#0B1C12" stop-opacity="0.1"/>
<stop offset="0.7466" stop-color="#030805" stop-opacity="0.05"/>
<stop offset="0.8269" stop-opacity="0"/>
</radialGradient>
<radialGradient id="paint1_radial_113_15877" cx="0" cy="0" r="1" gradientUnits="userSpaceOnUse" gradientTransform="translate(573.659 158.565) scale(69.1187 69.1187)">
<stop offset="0.0286878" stop-color="#CB3522"/>
<stop offset="0.279" stop-color="#FFB14A"/>
<stop offset="0.4905" stop-color="#7C6E50"/>
<stop offset="0.6167" stop-color="#324954"/>
</radialGradient>
<radialGradient id="paint2_radial_113_15877" cx="0" cy="0" r="1" gradientUnits="userSpaceOnUse" gradientTransform="translate(167.947 301.18) scale(69.1187 69.1187)">
<stop offset="0.0286878" stop-color="#CB3522"/>
<stop offset="0.279" stop-color="#FFB14A"/>
<stop offset="0.4905" stop-color="#7C6E50"/>
<stop offset="0.6167" stop-color="#324954"/>
</radialGradient>
<radialGradient id="paint3_radial_113_15877" cx="0" cy="0" r="1" gradientUnits="userSpaceOnUse" gradientTransform="translate(293.189 176.527) scale(41.6059 41.6059)">
<stop offset="0.0286878" stop-color="#CB3522"/>
<stop offset="0.279" stop-color="#FFB14A"/>
<stop offset="0.4905" stop-color="#7C6E50"/>
<stop offset="0.6167" stop-color="#324954"/>
</radialGradient>
<radialGradient id="paint4_radial_113_15877" cx="0" cy="0" r="1" gradientUnits="userSpaceOnUse" gradientTransform="translate(568.368 315.46) scale(41.6059 41.6059)">
<stop offset="0.0286878" stop-color="#CB3522"/>
<stop offset="0.279" stop-color="#FFB14A"/>
<stop offset="0.4905" stop-color="#7C6E50"/>
<stop offset="0.6167" stop-color="#324954"/>
</radialGradient>
<radialGradient id="paint5_radial_113_15877" cx="0" cy="0" r="1" gradientUnits="userSpaceOnUse" gradientTransform="translate(484.195 160.837) scale(64.342 64.342)">
<stop offset="0.0284968" stop-color="#324954"/>
<stop offset="0.279" stop-color="#3BCAE2"/>
<stop offset="0.439" stop-color="#378B9D"/>
<stop offset="0.6167" stop-color="#324954"/>
</radialGradient>
<radialGradient id="paint6_radial_113_15877" cx="0" cy="0" r="1" gradientUnits="userSpaceOnUse" gradientTransform="translate(597.831 248.127) scale(48.4184 48.4184)">
<stop offset="0.0284968" stop-color="#324954"/>
<stop offset="0.279" stop-color="#3BCAE2"/>
<stop offset="0.439" stop-color="#378B9D"/>
<stop offset="0.6167" stop-color="#324954"/>
</radialGradient>
<radialGradient id="paint7_radial_113_15877" cx="0" cy="0" r="1" gradientUnits="userSpaceOnUse" gradientTransform="translate(202.707 367.949) scale(48.4184 48.4184)">
<stop offset="0.0284968" stop-color="#324954"/>
<stop offset="0.279" stop-color="#3BCAE2"/>
<stop offset="0.439" stop-color="#378B9D"/>
<stop offset="0.6167" stop-color="#324954"/>
</radialGradient>
<radialGradient id="paint8_radial_113_15877" cx="0" cy="0" r="1" gradientUnits="userSpaceOnUse" gradientTransform="translate(160.572 81.1765) scale(48.4185 48.4185)">
<stop offset="0.0284968" stop-color="#324954"/>
<stop offset="0.279" stop-color="#3BCAE2"/>
<stop offset="0.439" stop-color="#378B9D"/>
<stop offset="0.6167" stop-color="#324954"/>
</radialGradient>
<clipPath id="clip0_113_15877">
<rect width="474" height="323.1" fill="white" transform="translate(142 63)"/>
</clipPath>
</defs>
</svg>
