<svg width="0" height="0" class="hidden">
    <symbol fill="none" xmlns="http://www.w3.org/2000/svg" viewBox="0 0 27 27" id="domino-one">
        <path d="M13.5 15.9545C12.1444 15.9545 11.0455 14.8556 11.0455 13.5C11.0455 12.1443 12.1444 11.0454 13.5 11.0454C14.8557 11.0454 15.9546 12.1443 15.9546 13.5C15.9546 14.8556 14.8557 15.9545 13.5 15.9545Z" fill="#785614"/>
    </symbol>
    <symbol fill="none" xmlns="http://www.w3.org/2000/svg" viewBox="0 0 27 27" id="domino-two">
        <path fill-rule="evenodd" clip-rule="evenodd" d="M11.0682 8.81832C11.0682 10.1739 12.1671 11.2729 13.5227 11.2729C14.8784 11.2729 15.9773 10.1739 15.9773 8.81832C15.9773 7.46271 14.8784 6.36377 13.5227 6.36377C12.1671 6.36377 11.0682 7.46271 11.0682 8.81832ZM11.0227 18.182C11.0227 19.5376 12.1217 20.6365 13.4773 20.6365C14.8329 20.6365 15.9318 19.5376 15.9318 18.182C15.9318 16.8264 14.8329 15.7274 13.4773 15.7274C12.1217 15.7274 11.0227 16.8264 11.0227 18.182Z" fill="#670E9D"/>
    </symbol>
    <symbol fill="none" xmlns="http://www.w3.org/2000/svg" viewBox="0 0 5 24" id="domino-three">
        <path fill-rule="evenodd" clip-rule="evenodd" d="M2.54545 5.27271C1.18985 5.27271 0.0909079 4.17377 0.0909079 2.81816C0.090908 1.46255 1.18985 0.363617 2.54545 0.363617C3.90106 0.363617 5 1.46255 5 2.81816C5 4.17377 3.90106 5.27271 2.54545 5.27271ZM2.54545 23.9091C1.18985 23.9091 0.090908 22.8101 0.0909081 21.4545C0.0909081 20.0989 1.18985 19 2.54545 19C3.90106 19 5 20.0989 5 21.4545C5 22.8101 3.90106 23.9091 2.54545 23.9091ZM0.0454516 12.1818C0.0454515 13.5374 1.14439 14.6364 2.5 14.6364C3.85561 14.6364 4.95454 13.5374 4.95454 12.1818C4.95454 10.8262 3.85561 9.72727 2.5 9.72727C1.14439 9.72727 0.0454517 10.8262 0.0454516 12.1818Z" fill="#1E942A"/>
    </symbol>
    <symbol fill="none" xmlns="http://www.w3.org/2000/svg" viewBox="0 0 21 19" id="domino-four">
        <path fill-rule="evenodd" clip-rule="evenodd" d="M18.5 5.27274C17.1444 5.27274 16.0455 4.1738 16.0455 2.81819C16.0455 1.46258 17.1444 0.363647 18.5 0.363647C19.8557 0.363647 20.9546 1.46259 20.9546 2.81819C20.9546 4.1738 19.8557 5.27274 18.5 5.27274ZM0.0454978 2.81819C0.0454977 4.1738 1.14444 5.27274 2.50004 5.27274C3.85565 5.27274 4.95459 4.1738 4.95459 2.81819C4.95459 1.46259 3.85565 0.363647 2.50004 0.363647C1.14444 0.363647 0.0454978 1.46258 0.0454978 2.81819ZM0.0454972 16.5455C0.0454971 17.9011 1.14444 19 2.50004 19C3.85565 19 4.95459 17.9011 4.95459 16.5455C4.95459 15.1899 3.85565 14.0909 2.50004 14.0909C1.14444 14.0909 0.0454972 15.1899 0.0454972 16.5455ZM16.0455 16.4545C16.0455 17.8102 17.1444 18.9091 18.5 18.9091C19.8557 18.9091 20.9546 17.8102 20.9546 16.4545C20.9546 15.0989 19.8557 14 18.5 14C17.1444 14 16.0455 15.0989 16.0455 16.4545Z" fill="black"/>
    </symbol>
    <symbol fill="none" xmlns="http://www.w3.org/2000/svg" viewBox="0 0 21 19" id="domino-five">
        <path fill-rule="evenodd" clip-rule="evenodd" d="M18.5 5.27274C17.1444 5.27274 16.0455 4.1738 16.0455 2.81819C16.0455 1.46258 17.1444 0.363647 18.5 0.363647C19.8557 0.363647 20.9546 1.46259 20.9546 2.81819C20.9546 4.1738 19.8557 5.27274 18.5 5.27274ZM10.5455 12.2727C9.18989 12.2727 8.09095 11.1738 8.09095 9.81819C8.09095 8.46258 9.18989 7.36365 10.5455 7.36365C11.9011 7.36365 13 8.46258 13 9.81819C13 11.1738 11.9011 12.2727 10.5455 12.2727ZM2.50005 5.27274C1.14444 5.27274 0.0455015 4.1738 0.0455016 2.81819C0.0455017 1.46258 1.14444 0.363647 2.50005 0.363647C3.85565 0.363647 4.95459 1.46258 4.95459 2.81819C4.95459 4.1738 3.85565 5.27274 2.50005 5.27274ZM0.045501 16.5455C0.0455009 17.9011 1.14444 19 2.50005 19C3.85565 19 4.95459 17.9011 4.95459 16.5455C4.95459 15.1899 3.85566 14.0909 2.50005 14.0909C1.14444 14.0909 0.0455011 15.1899 0.045501 16.5455ZM16.0455 16.4545C16.0455 17.8102 17.1444 18.9091 18.5 18.9091C19.8557 18.9091 20.9546 17.8102 20.9546 16.4545C20.9546 15.0989 19.8557 14 18.5 14C17.1444 14 16.0455 15.0989 16.0455 16.4545Z" fill="#75972C"/>
    </symbol>
    <symbol fill="none" xmlns="http://www.w3.org/2000/svg" viewBox="0 0 23 19" id="domino-six">
        <path fill-rule="evenodd" clip-rule="evenodd" d="M20.5 5.27274C19.1444 5.27274 18.0455 4.1738 18.0455 2.81819C18.0455 1.46258 19.1444 0.363647 20.5 0.363647C21.8557 0.363647 22.9546 1.46258 22.9546 2.81819C22.9546 4.1738 21.8557 5.27274 20.5 5.27274ZM9.09095 16.4545C9.09095 17.8102 10.1899 18.9091 11.5455 18.9091C12.9011 18.9091 14 17.8102 14 16.4545C14 15.0989 12.9011 14 11.5455 14C10.1899 14 9.09095 15.0989 9.09095 16.4545ZM9.09095 2.81819C9.09095 4.1738 10.1899 5.27274 11.5455 5.27274C12.9011 5.27274 14 4.1738 14 2.81819C14 1.46258 12.9011 0.363647 11.5455 0.363647C10.1899 0.363647 9.09095 1.46258 9.09095 2.81819ZM2.50004 5.27274C1.14444 5.27274 0.0454977 4.1738 0.0454978 2.81819C0.0454978 1.46258 1.14444 0.363647 2.50004 0.363647C3.85565 0.363647 4.95459 1.46259 4.95459 2.81819C4.95459 4.1738 3.85565 5.27274 2.50004 5.27274ZM0.0454972 16.5455C0.0454971 17.9011 1.14444 19 2.50004 19C3.85565 19 4.95459 17.9011 4.95459 16.5455C4.95459 15.1899 3.85565 14.0909 2.50004 14.0909C1.14444 14.0909 0.0454972 15.1899 0.0454972 16.5455ZM18.0455 16.4545C18.0455 17.8102 19.1444 18.9091 20.5 18.9091C21.8557 18.9091 22.9546 17.8102 22.9546 16.4545C22.9546 15.0989 21.8557 14 20.5 14C19.1444 14 18.0455 15.0989 18.0455 16.4545Z" fill="#3A92E2"/>
    </symbol>
    <symbol fill="none" xmlns="http://www.w3.org/2000/svg" viewBox="0 0 27 24" id="domino-seven">
        <path fill-rule="evenodd" clip-rule="evenodd" d="M24.5 5.27271C23.1444 5.27271 22.0455 4.17377 22.0455 2.81816C22.0455 1.46255 23.1444 0.363617 24.5 0.363617C25.8557 0.363617 26.9546 1.46255 26.9546 2.81816C26.9546 4.17377 25.8557 5.27271 24.5 5.27271ZM13.5455 23.9091C12.1899 23.9091 11.091 22.8101 11.091 21.4545C11.091 20.0989 12.1899 19 13.5455 19C14.9011 19 16 20.0989 16 21.4545C16 22.8101 14.9011 23.9091 13.5455 23.9091ZM13.5455 5.27271C12.1899 5.27271 11.091 4.17377 11.091 2.81816C11.091 1.46255 12.1899 0.363616 13.5455 0.363616C14.9011 0.363616 16 1.46255 16 2.81816C16 4.17377 14.9011 5.27271 13.5455 5.27271ZM0.0454978 2.81816C0.0454977 4.17377 1.14444 5.27271 2.50004 5.27271C3.85565 5.27271 4.95459 4.17377 4.95459 2.81816C4.95459 1.46255 3.85565 0.363616 2.50004 0.363616C1.14444 0.363616 0.0454978 1.46255 0.0454978 2.81816ZM13.5 14.6364C12.1444 14.6364 11.0455 13.5374 11.0455 12.1818C11.0455 10.8262 12.1444 9.72726 13.5 9.72726C14.8557 9.72726 15.9546 10.8262 15.9546 12.1818C15.9546 13.5374 14.8557 14.6364 13.5 14.6364ZM0.0454989 21.5455C0.0454988 22.9011 1.14444 24 2.50004 24C3.85565 24 4.95459 22.9011 4.95459 21.5455C4.95459 20.1898 3.85565 19.0909 2.50004 19.0909C1.14444 19.0909 0.0454989 20.1898 0.0454989 21.5455ZM22.0455 21.4545C22.0455 22.8101 23.1444 23.9091 24.5 23.9091C25.8557 23.9091 26.9546 22.8101 26.9546 21.4545C26.9546 20.0989 25.8557 19 24.5 19C23.1444 19 22.0455 20.0989 22.0455 21.4545Z" fill="#520E72"/>
    </symbol>
    <symbol fill="none" xmlns="http://www.w3.org/2000/svg" viewBox="0 0 27 24" id="domino-eight">
        <path fill-rule="evenodd" clip-rule="evenodd" d="M22.0455 2.81816C22.0455 4.17377 23.1444 5.27271 24.5 5.27271C25.8557 5.27271 26.9546 4.17377 26.9546 2.81816C26.9546 1.46255 25.8557 0.363617 24.5 0.363617C23.1444 0.363617 22.0455 1.46255 22.0455 2.81816ZM11.091 21.4545C11.091 22.8101 12.1899 23.9091 13.5455 23.9091C14.9011 23.9091 16 22.8101 16 21.4545C16 20.0989 14.9011 19 13.5455 19C12.1899 19 11.091 20.0989 11.091 21.4545ZM11.091 2.81816C11.091 4.17377 12.1899 5.27271 13.5455 5.27271C14.9011 5.27271 16 4.17377 16 2.81816C16 1.46255 14.9011 0.363616 13.5455 0.363616C12.1899 0.363616 11.091 1.46255 11.091 2.81816ZM2.50004 5.27271C1.14444 5.27271 0.0454977 4.17377 0.0454978 2.81816C0.0454978 1.46255 1.14444 0.363616 2.50004 0.363616C3.85565 0.363616 4.95459 1.46255 4.95459 2.81816C4.95459 4.17377 3.85565 5.27271 2.50004 5.27271ZM0.0454974 12.1818C0.0454973 13.5374 1.14444 14.6364 2.50004 14.6364C3.85565 14.6364 4.95459 13.5374 4.95459 12.1818C4.95459 10.8262 3.85565 9.72726 2.50004 9.72726C1.14444 9.72726 0.0454974 10.8262 0.0454974 12.1818ZM2.50004 24C1.14444 24 0.0454988 22.9011 0.0454989 21.5455C0.0454989 20.1898 1.14444 19.0909 2.50004 19.0909C3.85565 19.0909 4.95459 20.1898 4.95459 21.5455C4.95459 22.9011 3.85565 24 2.50004 24ZM24.5 14.6364C23.1444 14.6364 22.0455 13.5374 22.0455 12.1818C22.0455 10.8262 23.1444 9.72726 24.5 9.72726C25.8557 9.72726 26.9546 10.8262 26.9546 12.1818C26.9546 13.5374 25.8557 14.6364 24.5 14.6364ZM22.0455 21.4545C22.0455 22.8101 23.1444 23.9091 24.5 23.9091C25.8557 23.9091 26.9546 22.8101 26.9546 21.4545C26.9546 20.0989 25.8557 19 24.5 19C23.1444 19 22.0455 20.0989 22.0455 21.4545Z" fill="#970000"/>
    </symbol>
    <symbol fill="none" xmlns="http://www.w3.org/2000/svg" viewBox="0 0 27 24" id="domino-nine">
        <path fill-rule="evenodd" clip-rule="evenodd" d="M22.0455 2.81816C22.0455 4.17377 23.1444 5.27271 24.5 5.27271C25.8557 5.27271 26.9546 4.17377 26.9546 2.81816C26.9546 1.46255 25.8557 0.363617 24.5 0.363617C23.1444 0.363617 22.0455 1.46255 22.0455 2.81816ZM11.091 21.5455C11.091 22.9011 12.1899 24 13.5455 24C14.9011 24 16 22.9011 16 21.5455C16 20.1898 14.9011 19.0909 13.5455 19.0909C12.1899 19.0909 11.091 20.1898 11.091 21.5455ZM13.5455 5.27271C12.1899 5.27271 11.091 4.17377 11.091 2.81816C11.091 1.46255 12.1899 0.363616 13.5455 0.363616C14.9011 0.363616 16 1.46255 16 2.81816C16 4.17377 14.9011 5.27271 13.5455 5.27271ZM13.5455 14.6364C12.1899 14.6364 11.091 13.5374 11.091 12.1818C11.091 10.8262 12.1899 9.72726 13.5455 9.72726C14.9011 9.72726 16 10.8262 16 12.1818C16 13.5374 14.9011 14.6364 13.5455 14.6364ZM2.50004 5.27271C1.14444 5.27271 0.0454977 4.17377 0.0454978 2.81816C0.0454978 1.46255 1.14444 0.363616 2.50004 0.363616C3.85565 0.363616 4.95459 1.46255 4.95459 2.81816C4.95459 4.17377 3.85565 5.27271 2.50004 5.27271ZM0.0454974 12.1818C0.0454973 13.5374 1.14444 14.6364 2.50004 14.6364C3.85565 14.6364 4.95459 13.5374 4.95459 12.1818C4.95459 10.8262 3.85565 9.72726 2.50004 9.72726C1.14444 9.72726 0.0454974 10.8262 0.0454974 12.1818ZM2.50004 24C1.14444 24 0.0454988 22.9011 0.0454989 21.5455C0.0454989 20.1898 1.14444 19.0909 2.50004 19.0909C3.85565 19.0909 4.95459 20.1898 4.95459 21.5455C4.95459 22.9011 3.85565 24 2.50004 24ZM24.5 14.6364C23.1444 14.6364 22.0455 13.5374 22.0455 12.1818C22.0455 10.8262 23.1444 9.72726 24.5 9.72726C25.8557 9.72726 26.9546 10.8262 26.9546 12.1818C26.9546 13.5374 25.8557 14.6364 24.5 14.6364ZM22.0455 21.5455C22.0455 22.9011 23.1444 24 24.5 24C25.8557 24 26.9546 22.9011 26.9546 21.5455C26.9546 20.1898 25.8557 19.0909 24.5 19.0909C23.1444 19.0909 22.0455 20.1898 22.0455 21.5455Z" fill="#EB5757"/>
    </symbol>
    <symbol fill="none" xmlns="http://www.w3.org/2000/svg" viewBox="0 0 27 27" id="domino-ten">
        <path fill-rule="evenodd" clip-rule="evenodd" d="M22.0455 6.81819C22.0455 8.1738 23.1444 9.27274 24.5 9.27274C25.8557 9.27274 26.9546 8.1738 26.9546 6.81819C26.9546 5.46258 25.8557 4.36365 24.5 4.36365C23.1444 4.36365 22.0455 5.46258 22.0455 6.81819ZM11.091 2.45454C11.091 3.81015 12.1899 4.90909 13.5455 4.90909C14.9011 4.90909 16 3.81015 16 2.45455C16 1.09894 14.9011 -5.26874e-07 13.5455 -5.8613e-07C12.1899 -6.45385e-07 11.091 1.09894 11.091 2.45454ZM11.091 9.81818C11.091 11.1738 12.1899 12.2727 13.5455 12.2727C14.9011 12.2727 16 11.1738 16 9.81818C16 8.46257 14.9011 7.36363 13.5455 7.36363C12.1899 7.36363 11.091 8.46257 11.091 9.81818ZM13.5455 19.6364C12.1899 19.6364 11.091 18.5374 11.091 17.1818C11.091 15.8262 12.1899 14.7273 13.5455 14.7273C14.9011 14.7273 16 15.8262 16 17.1818C16 18.5374 14.9011 19.6364 13.5455 19.6364ZM11.091 24.5455C11.091 25.9011 12.1899 27 13.5455 27C14.9011 27 16 25.9011 16 24.5455C16 23.1899 14.9011 22.0909 13.5455 22.0909C12.1899 22.0909 11.091 23.1899 11.091 24.5455ZM2.50005 9.27272C1.14444 9.27272 0.0454994 8.17378 0.0454995 6.81817C0.0454996 5.46257 1.14444 4.36363 2.50005 4.36363C3.85565 4.36363 4.95459 5.46257 4.95459 6.81817C4.95459 8.17378 3.85565 9.27272 2.50005 9.27272ZM0.0454992 14.1818C0.0454991 15.5374 1.14444 16.6364 2.50005 16.6364C3.85565 16.6364 4.95459 15.5374 4.95459 14.1818C4.95459 12.8262 3.85565 11.7273 2.50005 11.7273C1.14444 11.7273 0.0454992 12.8262 0.0454992 14.1818ZM2.50004 24C1.14444 24 0.0455007 22.9011 0.0455008 21.5455C0.0455008 20.1899 1.14444 19.0909 2.50004 19.0909C3.85565 19.0909 4.95459 20.1899 4.95459 21.5455C4.95459 22.9011 3.85565 24 2.50004 24ZM24.5 16.6364C23.1444 16.6364 22.0455 15.5374 22.0455 14.1818C22.0455 12.8262 23.1444 11.7273 24.5 11.7273C25.8557 11.7273 26.9546 12.8262 26.9546 14.1818C26.9546 15.5374 25.8557 16.6364 24.5 16.6364ZM22.0455 21.5455C22.0455 22.9011 23.1444 24 24.5 24C25.8557 24 26.9546 22.9011 26.9546 21.5455C26.9546 20.1899 25.8557 19.0909 24.5 19.0909C23.1444 19.0909 22.0455 20.1899 22.0455 21.5455Z" fill="#F2994A"/>
    </symbol>
    <symbol fill="none" xmlns="http://www.w3.org/2000/svg" viewBox="0 0 27 27" id="domino-eleven">
        <path fill-rule="evenodd" clip-rule="evenodd" d="M24.5455 4.90909C23.1898 4.90909 22.0909 3.81015 22.0909 2.45455C22.0909 1.09894 23.1898 -1.66547e-07 24.5455 -1.07292e-07C25.9011 -4.80361e-08 27 1.09894 27 2.45455C27 3.81015 25.9011 4.90909 24.5455 4.90909ZM24.5455 12.2727C23.1898 12.2727 22.0909 11.1738 22.0909 9.81818C22.0909 8.46257 23.1898 7.36363 24.5455 7.36363C25.9011 7.36363 27 8.46257 27 9.81818C27 11.1738 25.9011 12.2727 24.5455 12.2727ZM22.0909 17.1818C22.0909 18.5374 23.1898 19.6364 24.5455 19.6364C25.9011 19.6364 27 18.5374 27 17.1818C27 15.8262 25.9011 14.7273 24.5455 14.7273C23.1898 14.7273 22.0909 15.8262 22.0909 17.1818ZM24.5455 27C23.1898 27 22.0909 25.9011 22.0909 24.5455C22.0909 23.1899 23.1898 22.0909 24.5455 22.0909C25.9011 22.0909 27 23.1899 27 24.5455C27 25.9011 25.9011 27 24.5455 27ZM11.0455 6.81818C11.0455 8.17378 12.1444 9.27272 13.5 9.27272C14.8556 9.27272 15.9545 8.17378 15.9545 6.81818C15.9545 5.46257 14.8556 4.36363 13.5 4.36363C12.1444 4.36363 11.0455 5.46257 11.0455 6.81818ZM13.5 16.6364C12.1444 16.6364 11.0455 15.5374 11.0455 14.1818C11.0455 12.8262 12.1444 11.7273 13.5 11.7273C14.8556 11.7273 15.9545 12.8262 15.9545 14.1818C15.9545 15.5374 14.8556 16.6364 13.5 16.6364ZM11.0455 21.5455C11.0455 22.9011 12.1444 24 13.5 24C14.8556 24 15.9545 22.9011 15.9545 21.5455C15.9545 20.1899 14.8556 19.0909 13.5 19.0909C12.1444 19.0909 11.0455 20.1899 11.0455 21.5455ZM2.45454 4.90909C1.09893 4.90909 -3.98124e-06 3.81015 -3.92199e-06 2.45454C-3.86273e-06 1.09894 1.09893 -1.13217e-06 2.45454 -1.07292e-06C3.81015 -1.01366e-06 4.90909 1.09894 4.90909 2.45454C4.90909 3.81015 3.81015 4.90909 2.45454 4.90909ZM-4.24386e-06 9.81818C-4.30312e-06 11.1738 1.09893 12.2727 2.45454 12.2727C3.81015 12.2727 4.90909 11.1738 4.90909 9.81818C4.90909 8.46257 3.81015 7.36363 2.45454 7.36363C1.09893 7.36363 -4.18461e-06 8.46257 -4.24386e-06 9.81818ZM2.45454 19.6364C1.09893 19.6364 -4.62499e-06 18.5374 -4.56574e-06 17.1818C-4.50648e-06 15.8262 1.09893 14.7273 2.45454 14.7273C3.81015 14.7273 4.90909 15.8262 4.90909 17.1818C4.90909 18.5374 3.81015 19.6364 2.45454 19.6364ZM-4.88761e-06 24.5455C-4.94687e-06 25.9011 1.09893 27 2.45454 27C3.81015 27 4.90909 25.9011 4.90909 24.5455C4.90909 23.1899 3.81015 22.0909 2.45454 22.0909C1.09893 22.0909 -4.82836e-06 23.1899 -4.88761e-06 24.5455Z" fill="#BB6BD9"/>
    </symbol>
    <symbol fill="none" xmlns="http://www.w3.org/2000/svg" viewBox="0 0 27 27" id="domino-twelve">
        <path fill-rule="evenodd" clip-rule="evenodd" d="M22.0909 2.45455C22.0909 3.81015 23.1898 4.90909 24.5455 4.90909C25.9011 4.90909 27 3.81015 27 2.45455C27 1.09894 25.9011 -4.80361e-08 24.5455 -1.07292e-07C23.1898 -1.66547e-07 22.0909 1.09894 22.0909 2.45455ZM22.0909 9.81818C22.0909 11.1738 23.1898 12.2727 24.5455 12.2727C25.9011 12.2727 27 11.1738 27 9.81818C27 8.46257 25.9011 7.36363 24.5455 7.36363C23.1898 7.36363 22.0909 8.46257 22.0909 9.81818ZM24.5455 19.6364C23.1898 19.6364 22.0909 18.5374 22.0909 17.1818C22.0909 15.8262 23.1898 14.7273 24.5455 14.7273C25.9011 14.7273 27 15.8262 27 17.1818C27 18.5374 25.9011 19.6364 24.5455 19.6364ZM22.0909 24.5455C22.0909 25.9011 23.1898 27 24.5455 27C25.9011 27 27 25.9011 27 24.5455C27 23.1899 25.9011 22.0909 24.5455 22.0909C23.1898 22.0909 22.0909 23.1899 22.0909 24.5455ZM13.5 4.90909C12.1444 4.90909 11.0455 3.81015 11.0455 2.45454C11.0455 1.09894 12.1444 -6.49359e-07 13.5 -5.90104e-07C14.8556 -5.30848e-07 15.9545 1.09894 15.9545 2.45455C15.9545 3.81015 14.8556 4.90909 13.5 4.90909ZM11.0455 9.81818C11.0455 11.1738 12.1444 12.2727 13.5 12.2727C14.8556 12.2727 15.9545 11.1738 15.9545 9.81818C15.9545 8.46257 14.8556 7.36363 13.5 7.36363C12.1444 7.36363 11.0455 8.46257 11.0455 9.81818ZM13.5 19.6364C12.1444 19.6364 11.0455 18.5374 11.0455 17.1818C11.0455 15.8262 12.1444 14.7273 13.5 14.7273C14.8556 14.7273 15.9545 15.8262 15.9545 17.1818C15.9545 18.5374 14.8556 19.6364 13.5 19.6364ZM11.0455 24.5455C11.0455 25.9011 12.1444 27 13.5 27C14.8556 27 15.9545 25.9011 15.9545 24.5455C15.9545 23.1899 14.8556 22.0909 13.5 22.0909C12.1444 22.0909 11.0455 23.1899 11.0455 24.5455ZM2.45454 4.90909C1.09893 4.90909 -3.98124e-06 3.81015 -3.92199e-06 2.45454C-3.86273e-06 1.09894 1.09893 -1.13217e-06 2.45454 -1.07292e-06C3.81015 -1.01366e-06 4.90909 1.09894 4.90909 2.45454C4.90909 3.81015 3.81015 4.90909 2.45454 4.90909ZM-4.24386e-06 9.81818C-4.30312e-06 11.1738 1.09893 12.2727 2.45454 12.2727C3.81015 12.2727 4.90909 11.1738 4.90909 9.81818C4.90909 8.46257 3.81015 7.36363 2.45454 7.36363C1.09893 7.36363 -4.18461e-06 8.46257 -4.24386e-06 9.81818ZM2.45454 19.6364C1.09893 19.6364 -4.62499e-06 18.5374 -4.56574e-06 17.1818C-4.50648e-06 15.8262 1.09893 14.7273 2.45454 14.7273C3.81015 14.7273 4.90909 15.8262 4.90909 17.1818C4.90909 18.5374 3.81015 19.6364 2.45454 19.6364ZM-4.88761e-06 24.5455C-4.94687e-06 25.9011 1.09893 27 2.45454 27C3.81015 27 4.90909 25.9011 4.90909 24.5455C4.90909 23.1899 3.81015 22.0909 2.45454 22.0909C1.09893 22.0909 -4.82836e-06 23.1899 -4.88761e-06 24.5455Z" fill="#4F4F4F"/>
    </symbol>
</svg>
