<svg width="0" height="0" class="hidden">
    <symbol fill="none" xmlns="http://www.w3.org/2000/svg" viewBox="0 0 44 36" id="train">
        <path fill-rule="evenodd" clip-rule="evenodd"
              d="M10.4906 14.2812H12.364C12.7136 14.2812 12.9884 14.5576 12.9884 14.9094V18.6534C12.9884 19.0052 12.7136 19.2816 12.364 19.2816H10.4906C10.141 19.2816 9.86621 19.0052 9.86621 18.6534V14.9094C9.86621 14.5576 10.1659 14.2812 10.4906 14.2812Z"
              fill="currentColor"/>
        <path fill-rule="evenodd" clip-rule="evenodd"
              d="M8.71704 11.3664H11.4396H14.1372V13.8791L12.9882 15.8894H11.4396H9.86601L8.71704 13.8791V11.3664Z"
              fill="currentColor"/>
        <path fill-rule="evenodd" clip-rule="evenodd"
              d="M8.69216 11.8438H14.1872C14.3121 11.8438 14.412 11.7433 14.412 11.6177V10.9392H8.44238V11.6177C8.44238 11.7433 8.54229 11.8438 8.69216 11.8438Z"
              fill="#5CA247"/>
        <path fill-rule="evenodd" clip-rule="evenodd"
              d="M14.1372 13.8791H8.71704L9.86601 15.8893H12.9882L14.1372 13.8791Z" fill="#F8B247"/>
        <path d="M14.412 10.9643H8.44238V11.3413H14.412V10.9643Z" fill="#A9E37B"/>
        <path fill-rule="evenodd" clip-rule="evenodd"
              d="M17.0098 15.9899H18.5085C18.7832 15.9899 19.008 16.216 19.008 16.4924V19.1811C19.008 19.4575 18.7832 19.6836 18.5085 19.6836H17.0098C16.7351 19.6836 16.5103 19.4575 16.5103 19.1811V16.4924C16.5103 16.216 16.7351 15.9899 17.0098 15.9899Z"
              fill="#F8B247"/>
        <path fill-rule="evenodd" clip-rule="evenodd"
              d="M16.4603 15.9396H19.0579C19.1079 15.9396 19.1578 15.9899 19.1578 16.0401V16.5175C19.1578 16.5678 19.1079 16.6181 19.0579 16.6181H16.4603C16.4103 16.6181 16.3604 16.5678 16.3604 16.5175V16.0401C16.3604 15.9647 16.4103 15.9396 16.4603 15.9396Z"
              fill="currentColor"/>
        <path fill-rule="evenodd" clip-rule="evenodd"
              d="M21.5057 15.9647H23.0043C23.2791 15.9647 23.5039 16.1909 23.5039 16.4673V19.1559C23.5039 19.4323 23.2791 19.6585 23.0043 19.6585H21.5057C21.2309 19.6585 21.0061 19.4323 21.0061 19.1559V16.4673C21.0061 16.1909 21.2309 15.9647 21.5057 15.9647Z"
              fill="#F8B247"/>
        <path fill-rule="evenodd" clip-rule="evenodd"
              d="M20.9561 15.9145H23.5538C23.6037 15.9145 23.6537 15.9647 23.6537 16.015V16.4924C23.6537 16.5427 23.6037 16.5929 23.5538 16.5929H20.9561C20.9062 16.5929 20.8562 16.5427 20.8562 16.4924V16.015C20.8562 15.9396 20.9062 15.9145 20.9561 15.9145Z"
              fill="currentColor"/>
        <path fill-rule="evenodd" clip-rule="evenodd"
              d="M6.99362 17.5478H40.2387V24.5584H6.99362C6.54402 24.5584 6.19434 24.1815 6.19434 23.7543V18.377C6.19434 17.9247 6.54402 17.5478 6.99362 17.5478Z"
              fill="currentColor"/>
        <path opacity="0.5" fill-rule="evenodd" clip-rule="evenodd"
              d="M40.2387 23.7543V24.5835H6.99362C6.54402 24.5835 6.19434 24.2066 6.19434 23.7543H40.2387Z"
              fill="white"/>
        <path d="M41.2878 27.0963H39.6892V29.4331H41.2878V27.0963Z" fill="#221806"/>
        <path opacity="0.5" fill-rule="evenodd" clip-rule="evenodd"
              d="M7.2934 17.8493H25.7268C25.8517 17.8493 25.9516 17.9498 25.9516 18.0755C25.9516 18.2011 25.8517 18.3016 25.7268 18.3016H7.2934C7.16851 18.3016 7.0686 18.2011 7.0686 18.0755C7.0686 17.9247 7.16851 17.8493 7.2934 17.8493Z"
              fill="white"/>
        <path fill-rule="evenodd" clip-rule="evenodd"
              d="M4.89559 30.2623H0.274753C0.124888 30.2623 0 30.1367 0 29.9859V29.7095C0 29.5588 0.124888 29.4331 0.274753 29.4331H4.92057C5.07044 29.4331 5.19532 29.5588 5.19532 29.7095V29.9859C5.17035 30.1367 5.04546 30.2623 4.89559 30.2623Z"
              fill="#5CA247"/>
        <path d="M42.3547 9.41678C42.3547 9.70558 38.954 9.92773 34.7583 9.92773C30.5626 9.92773 27.1619 9.70558 27.1619 9.41678L28.8401 25.0785L29.2155 29.3661C29.2597 29.9215 29.9001 30.3658 30.6288 30.3658H38.8877C39.6164 30.3658 40.2347 29.9215 40.301 29.3661L40.6764 25.0785L42.3547 9.41678Z"
              fill="#ECECEC"/>
        <path d="M42.3547 9.41676C42.3547 9.70556 38.954 9.92771 34.7583 9.92771C30.5626 9.92771 27.1619 9.70556 27.1619 9.41676C27.1619 9.12796 30.5626 8.90581 34.7583 8.90581C38.954 8.92802 42.3547 9.15018 42.3547 9.41676Z"
              fill="#C6C6C5"/>
        <path d="M31.3574 10.5498C34.1619 13.2156 38.6005 13.1712 41.3387 10.4165C44.0991 7.63955 44.1432 3.17428 41.4712 0.352936L31.3574 10.5498Z"
              fill="#75991B"/>
        <path d="M31.4458 10.4387C34.2061 13.0601 38.5564 13.0156 41.2505 10.3054C43.9445 7.59511 43.9887 3.2187 41.383 0.441788L31.4458 10.4387Z"
              fill="#8EAC14"/>
        <path d="M31.6003 10.2832C31.8653 10.5497 32.1745 10.7941 32.4836 10.9941C32.5499 11.0385 32.6382 11.1273 32.7045 11.1273C32.7486 11.1496 32.7928 11.1051 32.859 11.1051C32.9915 11.1051 33.0578 11.1273 33.1461 11.2162C33.3228 11.3939 33.4332 11.5494 33.6761 11.6161C33.8748 11.6827 34.0736 11.7716 34.2944 11.8382C34.714 11.9715 35.1336 12.0604 35.5531 12.1048C35.796 12.127 36.0389 12.1492 36.2598 12.1492C36.3481 12.1492 36.4585 12.1715 36.5248 12.1492C36.6131 12.1048 36.6572 11.9937 36.7677 11.9715C36.9664 11.9493 37.121 12.0826 37.3197 12.0826C37.5626 12.0604 37.8276 11.9937 38.0484 11.9271C38.6447 11.7716 39.1967 11.5272 39.7267 11.2162C39.9917 11.0607 40.2346 10.883 40.4775 10.7053C40.5879 10.6164 40.6984 10.5497 40.7646 10.4165C40.8088 10.3498 40.8088 10.2387 40.8529 10.1721C40.9413 10.061 41.0738 10.0832 41.1842 10.0166C41.3608 9.92772 41.4271 9.75 41.5375 9.61671C41.8025 9.28348 42.0454 8.92803 42.2441 8.55037C42.465 8.1505 42.6195 7.75062 42.752 7.30632C42.8183 7.10638 42.9287 6.86201 42.9287 6.63986C42.9287 6.48435 42.8183 6.37328 42.8845 6.21777C43.0391 5.81789 43.0833 5.50688 43.0612 5.06258C43.0391 4.55162 42.9287 4.04067 42.8624 3.52972C42.8404 3.37421 42.8183 3.24092 42.73 3.10763C42.6195 2.92991 42.3987 2.75219 42.3766 2.53003C42.3766 2.46339 42.3987 2.39674 42.3987 2.30788C42.3766 2.21902 42.3104 2.13016 42.2662 2.06351C42.1558 1.86357 42.0454 1.68585 41.935 1.50813C41.7142 1.1749 41.4712 0.863887 41.2063 0.575089L31.6003 10.2832Z"
              fill="#F4F5D8"/>
        <path d="M31.8875 9.99437C34.4049 12.3936 38.3576 12.3492 40.8309 9.8833C43.2821 7.4174 43.3262 3.41865 40.9413 0.886108L31.8875 9.99437Z"
              fill="#80A61D"/>
        <path opacity="0.2"
              d="M39.0642 3.44087C39.2629 3.66302 39.7929 3.39644 39.8371 3.75188C39.8591 4.0629 39.3512 4.12954 39.4175 4.48499C39.5279 5.06258 40.3891 5.10701 40.2787 5.77347C40.2125 6.15113 39.7046 6.01784 39.55 6.32885C39.3954 6.63987 39.7929 6.90645 39.7929 7.21747C39.7708 7.61734 39.3071 8.10608 38.9317 8.12829C38.7992 8.12829 38.6004 8.17272 38.4679 8.17272C38.3134 8.15051 38.2471 8.03943 38.1146 7.995C37.6951 7.83949 37.5626 8.35044 37.4521 8.63924C37.3197 8.99469 37.0326 9.46121 36.5688 9.21684C36.4143 9.12798 36.4143 8.92804 36.2597 8.81697C36.0168 8.61703 35.7739 9.08355 35.5972 9.17241C35.266 9.32792 34.8022 8.97247 34.7581 8.61703C34.736 8.43931 34.7802 8.32823 34.6035 8.21715C34.2502 7.995 34.0293 8.5726 33.676 8.23937L31.9094 10.0166C34.4268 12.4158 38.3796 12.3714 40.8529 9.90551C43.304 7.43962 43.3482 3.44087 40.9633 0.908325C40.367 1.50814 39.7487 2.13017 39.1967 2.68555C39.1967 2.70776 38.7992 3.12985 39.0642 3.44087Z"
              fill="#80A61D"/>
        <path opacity="0.2"
              d="M40.3229 1.99687C40.2787 2.08574 40.2566 2.1746 40.1683 2.26346C40.0579 2.39675 39.6383 2.66333 39.9254 2.81884C40.1241 2.9077 40.367 2.68555 40.5879 2.72998C40.8749 2.79662 41.0516 3.37422 40.9633 3.6408C40.8529 3.9296 40.5216 4.04068 40.2566 4.08511C40.1021 4.10733 39.7046 4.10733 39.815 4.35169C39.8812 4.52942 40.4333 4.52942 40.61 4.52942C41.2503 4.52942 41.3387 5.17366 41.3828 5.64018C41.4049 5.90676 41.5816 6.23999 41.2945 6.41771C41.0295 6.59544 40.632 6.46215 40.4333 6.77316C40.3008 6.9731 40.4112 7.06196 40.4995 7.23968C40.632 7.50626 40.7424 7.97278 40.5658 8.23937C40.4775 8.37266 40.345 8.46152 40.2566 8.59481C40.1462 8.79475 40.0579 9.0169 39.9033 9.19462C39.7046 9.43899 39.3292 9.46121 39.0421 9.41678C38.8433 9.37235 38.6446 9.26127 38.4459 9.23906C38.1809 9.21684 38.1146 9.46121 37.9821 9.66115C37.8496 9.86108 37.6951 10.1721 37.4963 10.3054C37.3417 10.4165 37.0326 10.3943 36.8338 10.4165C36.3039 10.4609 36.2818 9.50564 35.7518 9.68336C35.3543 9.81665 35.1335 10.2832 34.6477 10.1721C34.1398 10.0388 34.0514 9.5945 33.7202 9.26127C33.5877 9.12798 33.4773 9.17241 33.3227 9.19462C33.1019 9.23906 33.0356 9.21684 32.859 9.03912L31.9094 9.99438C34.4268 12.3936 38.3796 12.3492 40.8529 9.8833C41.4712 9.26127 41.957 8.50595 42.2882 7.7062C43.1494 5.50689 42.752 2.57447 40.9854 0.908325C40.7866 1.13048 40.5879 1.28598 40.4995 1.57478C40.3891 1.70808 40.367 1.86358 40.3229 1.99687Z"
              fill="#80A61D"/>
        <path d="M35.9285 5.92898C35.9505 5.97341 35.9726 6.01784 35.9947 6.04006C36.2155 6.21778 36.348 5.99562 36.5909 5.97341C36.8339 5.95119 36.9663 6.15113 37.1872 5.92898C37.3418 5.75126 37.2976 5.44024 37.2976 5.19587C37.2976 4.97372 37.3197 4.86265 37.1209 4.70714L35.9285 5.92898Z"
              fill="#F4F5D8"/>
        <path d="M32.9915 10.9274C33.0798 10.883 33.146 10.883 33.2344 10.8386C33.3669 10.7719 33.4773 10.6386 33.5656 10.5275C33.8085 10.3276 34.0293 10.1055 34.206 9.86108C34.5814 9.37235 34.9568 8.88361 35.288 8.39487C35.4868 8.12829 35.553 7.83949 35.6855 7.52848C35.9064 7.01753 36.0388 6.50657 36.2597 5.99562C36.5247 5.88455 36.2376 6.46214 36.2155 6.66208C36.1713 6.9731 36.1051 7.30632 35.9726 7.59512C35.9064 7.75063 35.7739 7.88392 35.7076 8.06164C35.6414 8.19494 35.6193 8.35044 35.5751 8.48373C35.4426 8.77253 35.1776 9.06133 34.9789 9.3057C34.7139 9.63893 34.4931 10.0388 34.1618 10.3054C33.8527 10.572 33.7423 10.9052 33.676 11.2829C33.5214 11.3273 33.4552 11.2162 33.3448 11.1274C33.2344 11.0385 33.146 11.0385 33.0356 10.9274H32.9915Z"
              fill="#F4F5D8"/>
        <path d="M36.8339 6.66206C36.8339 6.75092 36.8118 6.862 36.8339 6.95086C36.8339 7.03972 36.8559 7.12858 36.8559 7.23966C36.8339 7.46181 36.8118 7.68396 36.7897 7.92833C36.7676 8.1727 36.7234 8.39485 36.7234 8.63922C36.7234 8.81694 36.7455 9.01688 36.7455 9.1946C36.7455 9.46119 36.6793 9.72777 36.6351 10.0166C36.613 10.2165 36.6572 10.4164 36.6351 10.6164C36.591 10.9274 36.613 11.1495 36.7014 11.4606C36.7234 11.5716 36.7234 11.7049 36.7676 11.816C36.8118 11.9271 36.9664 11.9937 37.0547 11.8827C36.9664 11.7716 36.878 11.7049 36.9001 11.5716C36.9222 11.4161 36.9664 11.2606 36.9664 11.1051C36.9664 10.7497 36.9884 10.372 36.9884 10.0166C36.9884 9.70556 37.0326 9.37233 37.0105 9.06131C36.9884 8.77251 36.9443 8.48372 36.9664 8.19492C36.9664 7.95055 37.0105 7.7284 37.0326 7.48403C37.0547 7.3063 37.1872 6.99529 37.1209 6.81757C37.0768 6.72871 37.0326 6.70649 37.0105 6.61763C36.9884 6.52877 37.0326 6.43991 37.0105 6.35105C36.9884 6.21776 36.878 5.86231 36.7014 6.06225C36.5468 6.17333 36.8118 6.46212 36.8339 6.66206Z"
              fill="#F4F5D8"/>
        <path d="M40.3892 9.70556C40.3009 9.52784 40.2126 9.39455 40.0801 9.23904C39.7267 8.79474 39.7047 8.19492 39.263 7.77283C38.998 7.50625 38.7772 7.06194 38.4239 6.88422C38.2251 6.79536 38.1147 6.77315 37.9601 6.61764C37.8277 6.48435 37.7172 6.35105 37.5847 6.21776C37.4081 6.04004 37.2535 5.90675 37.1873 5.6846C37.2093 5.66238 37.2314 5.64017 37.2535 5.61795C37.5406 5.75124 37.8939 6.1289 38.1147 6.35105C38.3797 6.61764 38.6668 6.81758 38.9539 7.03973C39.2409 7.2841 39.5722 7.5729 39.8151 7.88391C40.0359 8.17271 40.1684 8.5948 40.3009 8.92803C40.4113 9.19461 40.588 9.39455 40.7646 9.6167C40.9192 9.79442 40.8971 9.88328 40.7867 10.0832C40.4996 10.4387 40.4996 9.94993 40.3892 9.70556Z"
              fill="#F4F5D8"/>
        <path d="M37.6732 5.2625C37.8057 5.24029 37.9382 5.28472 38.0707 5.32915C38.2473 5.39579 38.3798 5.50687 38.5565 5.57351C38.9319 5.75124 39.3515 5.8401 39.771 5.81788C40.036 5.79567 40.4556 5.77345 40.7206 5.88453C40.8972 5.95117 40.9414 5.9956 41.1181 5.9956C41.2506 5.9956 41.3389 6.04004 41.4493 6.04004C41.6922 6.08447 41.9793 6.10668 42.178 6.26219C42.2884 6.35105 42.5534 6.70649 42.7301 6.52877C42.7522 6.48434 42.7743 6.2844 42.7743 6.21776C42.7963 6.1289 42.8184 5.9956 42.7522 5.92896C42.6638 5.86231 42.5313 5.95117 42.4651 5.97339C42.3547 5.9956 42.2443 5.9956 42.1559 6.01782C41.9351 6.04004 41.6922 5.92896 41.4714 5.88453C41.2506 5.81788 41.0297 5.77345 40.7868 5.70681C40.301 5.5513 39.7931 5.77345 39.3073 5.66238C39.0865 5.61794 38.8215 5.5513 38.6227 5.41801C38.4682 5.30693 38.2915 5.19585 38.1148 5.12921C37.9823 5.08478 37.7615 5.08478 37.6069 5.08478C37.5186 5.08478 37.3199 5.08478 37.2757 5.17364C37.1653 5.35136 37.5849 5.2625 37.6732 5.2625Z"
              fill="#F4F5D8"/>
        <path d="M37.2754 4.79599C37.3858 4.72935 37.5625 4.61827 37.6729 4.57384C37.8274 4.52941 37.8937 4.55162 38.0041 4.46276C38.2249 4.28504 38.5341 4.26282 38.7991 4.15175C39.0199 4.06289 39.2186 3.92959 39.4395 3.84073C39.6382 3.75187 39.837 3.72966 40.0578 3.68523C40.2344 3.6408 40.3007 3.52972 40.4553 3.44086C40.5657 3.37421 40.7423 3.37421 40.8748 3.352C41.1619 3.30757 41.4269 3.21871 41.714 3.19649C41.8244 3.17428 41.9569 3.17428 42.0673 3.24092C42.1777 3.30757 42.2219 3.41864 42.3765 3.37421C42.6414 3.30757 42.4648 2.95212 42.3765 2.79662C42.3323 2.70775 42.2881 2.57446 42.1556 2.57446C42.0452 2.57446 42.0011 2.70775 41.9569 2.79662C41.8244 2.97434 41.5815 2.90769 41.3827 3.01877C41.1398 3.15206 40.8748 3.26314 40.6099 3.32978C40.4994 3.352 40.389 3.352 40.2786 3.37421C40.1682 3.39643 40.0799 3.48529 39.9695 3.5075C39.837 3.52972 39.7265 3.52972 39.5941 3.57415C39.4836 3.61858 39.3732 3.68523 39.2628 3.72966C38.8653 3.90738 38.5341 4.17396 38.1366 4.35169C38.0041 4.39612 37.0987 4.61827 37.2312 4.86264L37.2754 4.79599Z"
              fill="#F4F5D8"/>
        <path opacity="0.1"
              d="M34.9347 8.30602C35.1113 8.37266 35.4426 7.52848 35.5309 7.37297C35.6413 7.17304 35.7959 6.63987 35.3984 6.83981C35.1776 6.92867 34.5151 8.12829 34.9347 8.30602Z"
              fill="white"/>
        <path opacity="0.1"
              d="M36.4584 6.8398C36.613 6.92866 36.5026 7.26189 36.5026 7.41739C36.5026 7.63955 36.5247 7.75062 36.5688 7.95056C36.6351 8.35044 35.8622 8.75031 36.083 8.23936C36.1934 7.99499 36.2818 7.83949 36.3038 7.5729C36.3259 7.32853 36.3038 7.01752 36.4584 6.8398Z"
              fill="white"/>
        <path opacity="0.1"
              d="M37.4303 7.03975C37.4082 6.90645 37.3419 6.88424 37.2978 6.77316C37.2094 6.57322 37.2536 6.43993 37.4524 6.50658C37.5848 6.55101 37.7615 6.6843 37.8498 6.79538C37.9603 6.90645 38.5344 7.52848 38.3136 7.7062C38.2252 7.77285 38.0927 7.63956 38.0044 7.63956C37.8278 7.63956 37.7615 7.88393 37.6069 7.86171C37.2978 7.86171 37.4744 7.21747 37.4303 7.03975Z"
              fill="white"/>
        <path opacity="0.1"
              d="M38.1368 6.06226C38.0264 5.99562 37.7614 5.90676 37.7835 5.75125C37.7835 5.72903 37.9381 5.57353 37.9602 5.57353C38.0706 5.55131 38.0485 5.59574 38.1368 5.66239C38.3135 5.77347 38.3798 5.8179 38.5785 5.8179C38.7331 5.84011 38.8877 5.8179 39.0201 5.88454C39.0864 5.90676 39.1526 5.92897 39.1968 5.99562C39.2631 6.12891 39.1747 6.08448 39.1306 6.21777C39.0643 6.39549 39.1526 6.66208 38.8877 6.59543C38.6447 6.551 38.3798 6.19556 38.1368 6.06226Z"
              fill="white"/>
        <path opacity="0.1"
              d="M38.6669 4.86263C38.4902 4.77377 38.1369 4.86263 38.0044 4.68491C38.1369 4.48497 38.7552 4.41833 38.976 4.46276C39.2189 4.48497 39.0644 4.59605 39.1527 4.79599C39.1969 4.92928 39.5723 5.19586 39.2852 5.24029C39.0864 5.26251 38.8435 4.92928 38.6669 4.86263Z"
              fill="white"/>
        <path opacity="0.1"
              d="M38.9318 3.66302C38.7552 3.46308 38.6668 3.35201 38.4681 3.50752C38.3356 3.61859 37.894 4.04068 38.2031 4.0629C38.4019 4.08511 38.7993 3.79631 38.9318 3.66302Z"
              fill="white"/>
        <path opacity="0.4"
              d="M42.3547 9.41678C42.3547 9.70558 38.954 9.92773 34.7583 9.92773C30.5626 9.92773 27.1619 9.70558 27.1619 9.41678L28.8401 25.0785L29.2155 29.3661C29.2597 29.9215 29.9001 30.3658 30.6288 30.3658H38.8877C39.6164 30.3658 40.2347 29.9215 40.301 29.3661L40.6764 25.0785L42.3547 9.41678Z"
              fill="#ECECEC"/>
        <path opacity="0.9"
              d="M32.5059 26.2337L32.9917 29.0995C33.0358 29.566 33.4333 29.9215 33.875 29.9215H39.1085C39.5723 29.9215 39.9698 29.5438 39.9918 29.0995L40.3673 26.2337C38.2252 27.6999 34.8466 27.5444 32.5059 26.2337Z"
              fill="#ECECEC"/>
        <path d="M31.7992 9.92772C32.3071 9.92772 32.7929 9.92772 33.2787 9.92772C29.7897 9.88329 27.1619 9.68335 27.1619 9.43898L27.206 9.83885C28.4868 9.88329 30.0768 9.92772 31.7992 9.92772Z"
              fill="white"/>
        <path d="M34.7584 12.3936C30.9381 12.3936 27.8245 12.1937 27.8245 11.9271L29.1273 23.9456C29.1273 23.9456 28.8403 26.2115 34.7584 26.2115C40.2128 26.2115 40.3894 23.9233 40.3894 23.9233L41.6923 11.9271C41.6923 12.1937 38.5787 12.3936 34.7584 12.3936Z"
              fill="currentColor"/>
        <path d="M34.7584 12.3936C30.9381 12.3936 27.8245 12.1937 27.8245 11.9271L29.1273 23.9456C29.1273 23.9456 28.8403 26.2115 34.7584 26.2115C40.2128 26.2115 40.3894 23.9233 40.3894 23.9233L41.6923 11.9271C41.6923 12.1937 38.5787 12.3936 34.7584 12.3936Z"
              fill="currentColor"/>
        <path d="M32.9476 12.3936C33.2568 12.3936 33.5438 12.3936 33.853 12.3936C30.4523 12.3714 27.8245 12.1715 27.8245 11.9271L27.8686 12.2381C29.1273 12.3492 30.9381 12.3936 32.9476 12.3936Z"
              fill="white"/>
        <path opacity="0.5"
              d="M39.8596 12.2603L38.6009 23.9456C38.6009 23.9456 38.4242 25.9894 33.8311 26.2115C34.1181 26.2337 34.4273 26.2337 34.7806 26.2337C40.235 26.2337 40.4117 23.9456 40.4117 23.9456L41.7145 11.9493C41.6924 12.0604 40.9858 12.1715 39.8596 12.2603Z"
              fill="currentColor"/>
        <path d="M41.6923 11.9493C41.6923 12.1937 38.5787 12.4158 34.7584 12.4158C30.9381 12.4158 27.8245 12.2159 27.8245 11.9493C27.8245 11.7049 30.9381 11.4828 34.7584 11.4828C38.5787 11.4828 41.6923 11.6827 41.6923 11.9493Z"
              fill="#F8B247"/>
        <path opacity="0.5"
              d="M29.856 9.81664C29.1493 9.77221 28.5531 9.72778 28.0894 9.68335L30.5184 30.388C30.5405 30.388 30.5847 30.388 30.6068 30.388H32.1525L29.856 9.81664Z"
              fill="white"/>
        <path fill-rule="evenodd" clip-rule="evenodd"
              d="M40.2387 24.5835V24.6086V30.2624H4.5708V25.5384C5.37008 25.0861 6.21932 24.7594 6.99362 24.5835H40.2387Z"
              fill="#A9E37B"/>
        <path fill-rule="evenodd" clip-rule="evenodd"
              d="M6.44418 24.6086C6.01956 24.6086 5.59494 24.6338 5.17033 24.6338C3.52181 26.4932 1.89827 28.3778 0.249756 30.2372H5.09539C4.97051 29.8603 4.89557 29.4583 4.89557 29.0311C4.89557 27.7999 5.52001 26.7194 6.46916 26.0912V24.6086H6.44418Z"
              fill="#5CA247"/>
        <path d="M6.26929 30.4885C6.31924 33.4284 8.69211 35.8156 11.6145 35.8156C14.5368 35.8156 16.9347 33.4536 16.9597 30.4885H6.26929Z"
              fill="#5CA247"/>
        <path d="M7.09351 30.4885C7.11848 32.9761 9.14166 34.9864 11.6144 34.9864C14.0872 34.9864 16.1104 32.9761 16.1354 30.4885H7.09351Z"
              fill="#A9E37B"/>
        <path d="M11.6145 34.9612V30.4382" stroke="white" stroke-width="0.75" stroke-miterlimit="10"
              stroke-linecap="round" stroke-linejoin="round"/>
        <path d="M14.7866 33.6546L11.6145 30.4382" stroke="white" stroke-width="0.75" stroke-miterlimit="10"
              stroke-linecap="round" stroke-linejoin="round"/>
        <path d="M8.44238 33.6546L11.6145 30.4382" stroke="white" stroke-width="0.75" stroke-miterlimit="10"
              stroke-linecap="round" stroke-linejoin="round"/>
        <path d="M12.5386 33.73C12.6885 33.8556 12.8633 33.8556 13.0132 33.7802C13.1631 33.7048 13.3129 33.5792 13.3129 33.4033C13.3379 33.0767 12.9882 32.7249 12.7884 32.4987C12.6136 32.2726 12.164 31.7951 12.114 31.7449C12.114 31.8203 12.164 32.4736 12.2139 32.75C12.2639 33.0515 12.2889 33.5289 12.5386 33.73Z"
              fill="#5CA247"/>
        <path d="M10.6904 33.73C10.5405 33.8556 10.3657 33.8556 10.2158 33.7802C10.0659 33.7048 9.91606 33.5792 9.91606 33.4033C9.89109 33.0767 10.2408 32.7249 10.4406 32.4987C10.6154 32.2726 11.065 31.7951 11.115 31.7449C11.115 31.8203 11.065 32.4736 11.0151 32.75C10.9651 33.0515 10.9401 33.5289 10.6904 33.73Z"
              fill="#5CA247"/>
        <path d="M8.56717 31.9962C8.39233 31.971 8.26744 31.8203 8.21749 31.6695C8.16753 31.4936 8.16753 31.3177 8.29242 31.1921C8.51722 30.9408 8.99179 30.9911 9.3165 30.9659C9.61623 30.9408 10.2407 30.9659 10.3156 30.9659C10.2656 31.0162 9.74112 31.4182 9.51632 31.569C9.26654 31.7198 8.91686 32.0464 8.56717 31.9962Z"
              fill="#5CA247"/>
        <path d="M14.6618 31.9962C14.8366 31.971 14.9615 31.8203 15.0114 31.6695C15.0614 31.4936 15.0614 31.3177 14.9365 31.1921C14.7117 30.9408 14.2371 30.9911 13.9124 30.9659C13.6127 30.9408 12.9883 30.9659 12.9133 30.9659C12.9633 31.0162 13.4878 31.4182 13.7126 31.569C13.9624 31.7198 14.3121 32.0464 14.6618 31.9962Z"
              fill="#5CA247"/>
        <path d="M16.9597 30.4885C16.9097 27.5486 14.5368 25.1615 11.6145 25.1615C8.69211 25.1615 6.29426 27.5235 6.26929 30.4885H16.9597Z"
              fill="#5CA247"/>
        <path d="M16.1354 30.4885C16.1104 28.0009 14.0872 25.9907 11.6144 25.9907C9.14166 25.9907 7.11848 28.0009 7.09351 30.4885H16.1354Z"
              fill="#A9E37B"/>
        <path d="M11.6145 25.9907V30.5136" stroke="white" stroke-width="0.75" stroke-miterlimit="10"
              stroke-linecap="round" stroke-linejoin="round"/>
        <path d="M8.44238 27.3224L11.6145 30.5136" stroke="white" stroke-width="0.75" stroke-miterlimit="10"
              stroke-linecap="round" stroke-linejoin="round"/>
        <path d="M14.7866 27.3224L11.6145 30.5136" stroke="white" stroke-width="0.75" stroke-miterlimit="10"
              stroke-linecap="round" stroke-linejoin="round"/>
        <path d="M10.6904 27.2219C10.5405 27.0963 10.3657 27.0963 10.2158 27.1717C10.0659 27.247 9.91606 27.3727 9.91606 27.5486C9.89109 27.8752 10.2408 28.227 10.4406 28.4532C10.6154 28.6793 11.065 29.1567 11.115 29.207C11.115 29.1316 11.065 28.4783 11.0151 28.2019C10.9651 27.9255 10.9401 27.4481 10.6904 27.2219Z"
              fill="#5CA247"/>
        <path d="M12.5386 27.2219C12.6885 27.0963 12.8633 27.0963 13.0132 27.1717C13.1631 27.247 13.3129 27.3727 13.3129 27.5486C13.3379 27.8752 12.9882 28.227 12.7884 28.4532C12.6136 28.6793 12.164 29.1567 12.114 29.207C12.114 29.1316 12.164 28.4783 12.2139 28.2019C12.2639 27.9255 12.2889 27.4481 12.5386 27.2219Z"
              fill="#5CA247"/>
        <path d="M14.6618 28.9809C14.8366 29.006 14.9615 29.1567 15.0114 29.3075C15.0614 29.4834 15.0614 29.6593 14.9365 29.7849C14.7117 30.0362 14.2371 29.986 13.9124 30.0111C13.6127 30.0362 12.9883 30.0111 12.9133 30.0111C12.9633 29.9608 13.4878 29.5588 13.7126 29.408C13.9624 29.2321 14.3121 28.9306 14.6618 28.9809Z"
              fill="#5CA247"/>
        <path d="M8.56717 28.9809C8.39233 29.006 8.26744 29.1567 8.21749 29.3075C8.16753 29.4834 8.16753 29.6593 8.29242 29.7849C8.51722 30.0362 8.99179 29.986 9.3165 30.0111C9.61623 30.0362 10.2407 30.0111 10.3156 30.0111C10.2656 29.9608 9.74112 29.5588 9.51632 29.408C9.26654 29.2321 8.91686 28.9306 8.56717 28.9809Z"
              fill="#5CA247"/>
        <path d="M7.09351 30.4885H16.1354" stroke="white" stroke-width="0.75" stroke-miterlimit="10"
              stroke-linecap="round" stroke-linejoin="round"/>
        <path d="M19.1328 30.4885C19.1828 33.4284 21.5556 35.8156 24.478 35.8156C27.4004 35.8156 29.7982 33.4536 29.8232 30.4885H19.1328Z"
              fill="#5CA247"/>
        <path d="M19.957 30.4885C19.982 32.9761 22.0052 34.9864 24.478 34.9864C26.9507 34.9864 28.9739 32.9761 28.9989 30.4885H19.957Z"
              fill="#A9E37B"/>
        <path d="M24.478 34.9612V30.4382" stroke="white" stroke-width="0.75" stroke-miterlimit="10"
              stroke-linecap="round" stroke-linejoin="round"/>
        <path d="M27.6502 33.6546L24.478 30.4382" stroke="white" stroke-width="0.75" stroke-miterlimit="10"
              stroke-linecap="round" stroke-linejoin="round"/>
        <path d="M21.3059 33.6546L24.4781 30.4382" stroke="white" stroke-width="0.75" stroke-miterlimit="10"
              stroke-linecap="round" stroke-linejoin="round"/>
        <path d="M25.4022 33.73C25.552 33.8556 25.7269 33.8556 25.8767 33.7802C26.0266 33.7048 26.1765 33.5792 26.1765 33.4033C26.2014 33.0767 25.8518 32.7249 25.6519 32.4987C25.4771 32.2726 25.0275 31.7951 24.9775 31.7449C24.9775 31.8203 25.0275 32.4736 25.0774 32.75C25.1274 33.0515 25.1524 33.5289 25.4022 33.73Z"
              fill="#5CA247"/>
        <path d="M23.5539 33.73C23.404 33.8556 23.2292 33.8556 23.0793 33.7802C22.9295 33.7048 22.7796 33.5792 22.7796 33.4033C22.7546 33.0767 23.1043 32.7249 23.3041 32.4987C23.479 32.2726 23.9286 31.7951 23.9785 31.7449C23.9785 31.8203 23.9286 32.4736 23.8786 32.75C23.8286 33.0515 23.8037 33.5289 23.5539 33.73Z"
              fill="#5CA247"/>
        <path d="M21.4307 31.9962C21.2559 31.971 21.131 31.8203 21.081 31.6695C21.0311 31.4936 21.0311 31.3177 21.1559 31.1921C21.3807 30.9408 21.8553 30.9911 22.18 30.9659C22.4798 30.9408 23.1042 30.9659 23.1791 30.9659C23.1292 31.0162 22.6046 31.4182 22.3798 31.569C22.1301 31.7198 21.7804 32.0464 21.4307 31.9962Z"
              fill="#5CA247"/>
        <path d="M27.5253 31.9962C27.7001 31.971 27.825 31.8203 27.875 31.6695C27.9249 31.4936 27.9249 31.3177 27.8 31.1921C27.5752 30.9408 27.1007 30.9911 26.776 30.9659C26.4762 30.9408 25.8518 30.9659 25.7769 30.9659C25.8268 31.0162 26.3513 31.4182 26.5761 31.569C26.8259 31.7198 27.1756 32.0464 27.5253 31.9962Z"
              fill="#5CA247"/>
        <path d="M29.8232 30.4885C29.7732 27.5486 27.4004 25.1615 24.478 25.1615C21.5556 25.1615 19.1578 27.5235 19.1328 30.4885H29.8232Z"
              fill="#5CA247"/>
        <path d="M28.9989 30.4885C28.9739 28.0009 26.9507 25.9907 24.478 25.9907C22.0052 25.9907 19.982 28.0009 19.957 30.4885H28.9989Z"
              fill="#A9E37B"/>
        <path d="M24.478 25.9907V30.5136" stroke="white" stroke-width="0.75" stroke-miterlimit="10"
              stroke-linecap="round" stroke-linejoin="round"/>
        <path d="M21.3059 27.3224L24.4781 30.5136" stroke="white" stroke-width="0.75" stroke-miterlimit="10"
              stroke-linecap="round" stroke-linejoin="round"/>
        <path d="M27.6502 27.3224L24.478 30.5136" stroke="white" stroke-width="0.75" stroke-miterlimit="10"
              stroke-linecap="round" stroke-linejoin="round"/>
        <path d="M23.5539 27.2219C23.404 27.0963 23.2292 27.0963 23.0793 27.1717C22.9295 27.247 22.7796 27.3727 22.7796 27.5486C22.7546 27.8752 23.1043 28.227 23.3041 28.4532C23.479 28.6793 23.9286 29.1567 23.9785 29.207C23.9785 29.1316 23.9286 28.4783 23.8786 28.2019C23.8286 27.9255 23.8037 27.4481 23.5539 27.2219Z"
              fill="#5CA247"/>
        <path d="M25.4022 27.2219C25.552 27.0963 25.7269 27.0963 25.8767 27.1717C26.0266 27.247 26.1765 27.3727 26.1765 27.5486C26.2014 27.8752 25.8518 28.227 25.6519 28.4532C25.4771 28.6793 25.0275 29.1567 24.9775 29.207C24.9775 29.1316 25.0275 28.4783 25.0774 28.2019C25.1274 27.9255 25.1524 27.4481 25.4022 27.2219Z"
              fill="#5CA247"/>
        <path d="M27.5253 28.9809C27.7001 29.006 27.825 29.1567 27.875 29.3075C27.9249 29.4834 27.9249 29.6593 27.8 29.7849C27.5752 30.0362 27.1007 29.986 26.776 30.0111C26.4762 30.0362 25.8518 30.0111 25.7769 30.0111C25.8268 29.9608 26.3513 29.5588 26.5761 29.408C26.8259 29.2321 27.1756 28.9306 27.5253 28.9809Z"
              fill="#5CA247"/>
        <path d="M21.4307 28.9809C21.2559 29.006 21.131 29.1567 21.081 29.3075C21.0311 29.4834 21.0311 29.6593 21.1559 29.7849C21.3807 30.0362 21.8553 29.986 22.18 30.0111C22.4798 30.0362 23.1042 30.0111 23.1791 30.0111C23.1292 29.9608 22.6046 29.5588 22.3798 29.408C22.1301 29.2321 21.7804 28.9306 21.4307 28.9809Z"
              fill="#5CA247"/>
        <path d="M19.957 30.4885H28.9989" stroke="white" stroke-width="0.75" stroke-miterlimit="10"
              stroke-linecap="round" stroke-linejoin="round"/>
        <path d="M31.9961 30.4885C32.046 33.4284 34.4189 35.8156 37.3413 35.8156C40.2636 35.8156 42.6615 33.4536 42.6865 30.4885H31.9961Z"
              fill="#5CA247"/>
        <path d="M32.8203 30.4885C32.8453 32.9761 34.8685 34.9864 37.3412 34.9864C39.814 34.9864 41.8372 32.9761 41.8622 30.4885H32.8203Z"
              fill="#A9E37B"/>
        <path d="M37.3413 34.9612V30.4382" stroke="white" stroke-width="0.75" stroke-miterlimit="10"
              stroke-linecap="round" stroke-linejoin="round"/>
        <path d="M40.5135 33.6546L37.3413 30.4382" stroke="white" stroke-width="0.75" stroke-miterlimit="10"
              stroke-linecap="round" stroke-linejoin="round"/>
        <path d="M34.1692 33.6546L37.3413 30.4382" stroke="white" stroke-width="0.75" stroke-miterlimit="10"
              stroke-linecap="round" stroke-linejoin="round"/>
        <path d="M38.2654 33.73C38.4153 33.8556 38.5901 33.8556 38.74 33.7802C38.8899 33.7048 39.0397 33.5792 39.0397 33.4033C39.0647 33.0767 38.715 32.7249 38.5152 32.4987C38.3404 32.2726 37.8908 31.7951 37.8408 31.7449C37.8408 31.8203 37.8908 32.4736 37.9407 32.75C37.9907 33.0515 38.0157 33.5289 38.2654 33.73Z"
              fill="#5CA247"/>
        <path d="M36.4172 33.73C36.2673 33.8556 36.0925 33.8556 35.9426 33.7802C35.7927 33.7048 35.6429 33.5792 35.6429 33.4033C35.6179 33.0767 35.9676 32.7249 36.1674 32.4987C36.3422 32.2726 36.7918 31.7951 36.8418 31.7449C36.8418 31.8203 36.7918 32.4736 36.7419 32.75C36.6919 33.0515 36.667 33.5289 36.4172 33.73Z"
              fill="#5CA247"/>
        <path d="M34.294 31.9962C34.1191 31.971 33.9943 31.8203 33.9443 31.6695C33.8943 31.4936 33.8943 31.3177 34.0192 31.1921C34.244 30.9408 34.7186 30.9911 35.0433 30.9659C35.343 30.9408 35.9675 30.9659 36.0424 30.9659C35.9925 31.0162 35.4679 31.4182 35.2431 31.569C34.9934 31.7198 34.6437 32.0464 34.294 31.9962Z"
              fill="#5CA247"/>
        <path d="M40.3886 31.9962C40.5634 31.971 40.6883 31.8203 40.7383 31.6695C40.7882 31.4936 40.7882 31.3177 40.6633 31.1921C40.4385 30.9408 39.9639 30.9911 39.6392 30.9659C39.3395 30.9408 38.7151 30.9659 38.6401 30.9659C38.6901 31.0162 39.2146 31.4182 39.4394 31.569C39.6892 31.7198 40.0389 32.0464 40.3886 31.9962Z"
              fill="#5CA247"/>
        <path d="M42.6865 30.4885C42.6365 27.5486 40.2636 25.1615 37.3413 25.1615C34.4189 25.1615 32.0211 27.5235 31.9961 30.4885H42.6865Z"
              fill="#5CA247"/>
        <path d="M41.8622 30.4885C41.8372 28.0009 39.814 25.9907 37.3412 25.9907C34.8685 25.9907 32.8453 28.0009 32.8203 30.4885H41.8622Z"
              fill="#A9E37B"/>
        <path d="M37.3413 25.9907V30.5136" stroke="white" stroke-width="0.75" stroke-miterlimit="10"
              stroke-linecap="round" stroke-linejoin="round"/>
        <path d="M34.1692 27.3224L37.3413 30.5136" stroke="white" stroke-width="0.75" stroke-miterlimit="10"
              stroke-linecap="round" stroke-linejoin="round"/>
        <path d="M40.5135 27.3224L37.3413 30.5136" stroke="white" stroke-width="0.75" stroke-miterlimit="10"
              stroke-linecap="round" stroke-linejoin="round"/>
        <path d="M36.4172 27.2219C36.2673 27.0963 36.0925 27.0963 35.9426 27.1717C35.7927 27.247 35.6429 27.3727 35.6429 27.5486C35.6179 27.8752 35.9676 28.227 36.1674 28.4532C36.3422 28.6793 36.7918 29.1567 36.8418 29.207C36.8418 29.1316 36.7918 28.4783 36.7419 28.2019C36.6919 27.9255 36.667 27.4481 36.4172 27.2219Z"
              fill="#5CA247"/>
        <path d="M38.2654 27.2219C38.4153 27.0963 38.5901 27.0963 38.74 27.1717C38.8899 27.247 39.0397 27.3727 39.0397 27.5486C39.0647 27.8752 38.715 28.227 38.5152 28.4532C38.3404 28.6793 37.8908 29.1567 37.8408 29.207C37.8408 29.1316 37.8908 28.4783 37.9407 28.2019C37.9907 27.9255 38.0157 27.4481 38.2654 27.2219Z"
              fill="#5CA247"/>
        <path d="M40.3886 28.9809C40.5634 29.006 40.6883 29.1567 40.7383 29.3075C40.7882 29.4834 40.7882 29.6593 40.6633 29.7849C40.4385 30.0362 39.9639 29.986 39.6392 30.0111C39.3395 30.0362 38.7151 30.0111 38.6401 30.0111C38.6901 29.9608 39.2146 29.5588 39.4394 29.408C39.6892 29.2321 40.0389 28.9306 40.3886 28.9809Z"
              fill="#5CA247"/>
        <path d="M34.294 28.9809C34.1191 29.006 33.9943 29.1567 33.9443 29.3075C33.8943 29.4834 33.8943 29.6593 34.0192 29.7849C34.244 30.0362 34.7186 29.986 35.0433 30.0111C35.343 30.0362 35.9675 30.0111 36.0424 30.0111C35.9925 29.9608 35.4679 29.5588 35.2431 29.408C34.9934 29.2321 34.6437 28.9306 34.294 28.9809Z"
              fill="#5CA247"/>
        <path d="M32.8203 30.4885H41.8622" stroke="white" stroke-width="0.75" stroke-miterlimit="10"
              stroke-linecap="round" stroke-linejoin="round"/>
    </symbol>
    <symbol fill="none" xmlns="http://www.w3.org/2000/svg" viewBox="0 0 139 22" id="logo-game">
        <path d="M0 0.659822H12.6579V3.42298C12.6579 3.91421 12.3282 4.12912 11.6687 4.06772L11.5113 1.83416H7.17208V15.0973L8.88079 15.2355C8.94075 15.9109 8.73091 16.2486 8.25127 16.2486H3.77715C3.77715 16.2486 3.77715 16.1872 3.77715 16.0644C3.77715 15.6653 3.88207 15.4043 4.09191 15.2815C4.19683 15.2355 4.32424 15.2048 4.47412 15.1894L5.55331 15.1434V1.83416H1.14663L0.989253 4.06772C0.329751 4.12912 0 3.91421 0 3.42298V0.659822Z"
              fill="#5CA247"/>
        <path d="M23.4394 10.1927H16.3798C16.3648 10.3462 16.3573 10.5842 16.3573 10.9065C16.3573 12.2114 16.6271 13.2706 17.1667 14.0842C17.7063 14.8824 18.5456 15.2815 19.6848 15.2815C20.8239 15.2815 21.9106 14.8671 22.9448 14.0381C23.1247 14.1916 23.2146 14.3835 23.2146 14.6138C23.2146 15.0436 22.8024 15.4811 21.978 15.9263C21.1686 16.3714 20.2543 16.594 19.2351 16.594C17.8412 16.594 16.7245 16.1258 15.8851 15.1894C15.0608 14.253 14.6486 12.8254 14.6486 10.9065C14.6486 8.98767 15.1432 7.46794 16.1324 6.34732C17.1217 5.21136 18.2908 4.64337 19.6398 4.64337C20.9888 4.64337 21.963 5.08087 22.5626 5.95587C23.1621 6.83087 23.4544 7.87473 23.4394 9.08745V10.1927ZM21.7982 9.15653C21.7982 8.12802 21.6033 7.31443 21.2136 6.71574C20.8239 6.10171 20.2543 5.79469 19.5049 5.79469C18.7705 5.79469 18.1409 6.09403 17.6163 6.69272C17.0917 7.2914 16.7245 8.11267 16.5147 9.15653H21.7982Z"
              fill="#5CA247"/>
        <path d="M36.2084 21.1763H31.9591V20.9921C31.9591 20.6236 32.064 20.3934 32.2739 20.3013C32.3938 20.2552 32.8359 20.2015 33.6004 20.1401V15.1894C32.5661 16.1258 31.4195 16.594 30.1604 16.594C28.9014 16.594 27.8447 16.1182 26.9903 15.1664C26.151 14.2146 25.7163 12.81 25.6863 10.9526C25.6563 9.07978 26.106 7.56004 27.0353 6.39337C27.9646 5.22671 29.2761 4.64337 30.9698 4.64337C31.8991 4.64337 32.776 4.83526 33.6004 5.21903V5.1039L35.1742 4.98877V20.094L36.8379 20.2322C36.8979 20.8616 36.688 21.1763 36.2084 21.1763ZM33.6004 6.96903C32.776 6.24754 31.7942 5.8868 30.6551 5.8868C29.5309 5.8868 28.6991 6.33965 28.1595 7.24535C27.6199 8.1357 27.3501 9.25631 27.3501 10.6072C27.3501 11.9581 27.6199 13.0633 28.1595 13.923C28.714 14.7673 29.5534 15.1894 30.6776 15.1894C31.2471 15.1894 31.7418 15.0896 32.1614 14.8901C32.5811 14.6905 33.0608 14.3758 33.6004 13.946V6.96903Z"
              fill="#5CA247"/>
        <path d="M37.6122 5.65653C37.6122 5.21136 37.822 4.98877 38.2417 4.98877H40.8722V11.7815C40.8722 12.9175 41.1045 13.7771 41.5692 14.3605C42.0338 14.9285 42.7233 15.2125 43.6376 15.2125C44.5669 15.2125 45.5037 14.7903 46.448 13.946V6.07101L44.7168 5.95587C44.6568 5.31114 44.8592 4.98877 45.3238 4.98877H47.9993V14.9361L49.101 15.0513C49.4457 15.082 49.6181 15.412 49.6181 16.0414L46.8977 16.2717L46.6054 15.0513C45.6011 16.0798 44.4545 16.594 43.1655 16.594C42.1313 16.594 41.2319 16.2179 40.4675 15.4657C39.7031 14.7136 39.3209 13.5315 39.3209 11.9197V6.07101L37.6122 5.95587V5.65653Z"
              fill="#5CA247"/>
        <path d="M56.1441 16.2486H51.8724V16.0644C51.8724 15.696 51.9773 15.4657 52.1871 15.3736C52.2921 15.3122 52.4195 15.2739 52.5693 15.2585L53.5136 15.2125V6.09403L52.3445 6.00193C51.9848 5.95587 51.8049 5.62583 51.8049 5.01179L55.065 4.64337V15.1664L56.7737 15.3046C56.8336 15.9339 56.6238 16.2486 56.1441 16.2486ZM54.9076 2.54798C54.6977 2.74754 54.4279 2.84732 54.0982 2.84732C53.7684 2.84732 53.4986 2.74754 53.2888 2.54798C53.0939 2.33307 52.9965 2.05675 52.9965 1.71903C52.9965 1.38131 53.0939 1.105 53.2888 0.890085C53.4986 0.675172 53.7684 0.567716 54.0982 0.567716C54.4279 0.567716 54.6977 0.675172 54.9076 0.890085C55.1174 1.105 55.2223 1.38131 55.2223 1.71903C55.2223 2.05675 55.1174 2.33307 54.9076 2.54798Z"
              fill="#5CA247"/>
        <path d="M63.2716 16.2486H59.0448V16.0644C59.0448 15.5732 59.2846 15.3046 59.7643 15.2585L60.731 15.2125V1.69601L59.5619 1.58087C59.2022 1.53482 59.0223 1.21245 59.0223 0.61377L62.2824 0.17627V15.1664L63.8787 15.3046C63.9386 15.9339 63.7363 16.2486 63.2716 16.2486Z"
              fill="#5CA247"/>
        <path d="M76 15.5348C76 16.2563 75.5353 16.6171 74.6061 16.6171C73.6768 16.6171 73.1372 16.1335 72.9873 15.1664C72.028 16.1182 70.8739 16.594 69.5249 16.594C68.4907 16.594 67.6663 16.3254 67.0518 15.7881C66.4522 15.2355 66.1524 14.491 66.1524 13.5546C66.1524 12.6182 66.4897 11.8276 67.1642 11.1828C67.8387 10.5381 68.9553 10.2157 70.5141 10.2157C71.4285 10.2157 72.2378 10.3232 72.9423 10.5381V8.71903C72.9423 7.84403 72.725 7.14557 72.2903 6.62364C71.8706 6.08636 71.2486 5.81772 70.4242 5.81772C69.5998 5.81772 69.0078 6.04798 68.6481 6.50851C68.3033 6.95368 68.1085 7.47561 68.0635 8.0743C67.7038 8.105 67.404 8.02824 67.1642 7.84403C66.9243 7.65982 66.8044 7.36048 66.8044 6.94601C66.8044 6.28592 67.1342 5.74096 67.7937 5.31114C68.4532 4.86596 69.3076 4.64337 70.3568 4.64337C71.2711 4.64337 72.1404 4.87364 72.9648 5.33416C73.4294 5.57978 73.8042 5.98658 74.0889 6.55456C74.3737 7.12254 74.5161 7.81333 74.5161 8.62693V15.3506L76 15.5348ZM72.9423 11.9197C72.2528 11.5359 71.4509 11.344 70.5366 11.344C69.6223 11.344 68.9478 11.5206 68.5131 11.8736C68.0935 12.2267 67.8836 12.7103 67.8836 13.3243C67.8836 13.9383 68.071 14.4296 68.4457 14.798C68.8204 15.1511 69.3375 15.3276 69.997 15.3276C71.0462 15.3276 72.028 14.9131 72.9423 14.0842V11.9197Z"
              fill="#5CA247"/>
        <path d="M80 0.830115H93.2471V4.1227C93.2471 4.44962 93.1508 4.69871 92.9582 4.86995C92.7656 5.02563 92.5952 5.11125 92.447 5.12682C92.2988 5.14239 92.0913 5.15017 91.8246 5.15017L91.6024 2.58149H88.0016V15.168L89.8242 15.3081C89.9131 16.32 89.5797 16.826 88.824 16.826H83.3785C83.3785 16.826 83.3785 16.7637 83.3785 16.6392C83.3785 15.783 83.7045 15.3237 84.3564 15.2614L85.2233 15.2147V2.58149H81.6448L81.4225 5.15017C81.1558 5.15017 80.9483 5.14239 80.8002 5.12682C80.652 5.11125 80.4816 5.02563 80.2889 4.86995C80.0963 4.69871 80 4.44962 80 4.1227V0.830115Z"
              fill="#353535"/>
        <path d="M99.3093 6.73808C99.6649 6.23991 100.169 5.77288 100.821 5.33698C101.488 4.90109 102.058 4.68314 102.532 4.68314C103.021 4.68314 103.429 4.8466 103.755 5.17352C104.081 5.50045 104.244 6.04532 104.244 6.80814C104.244 7.55539 103.999 8.15475 103.51 8.60621C103.258 8.8086 102.836 8.87087 102.243 8.79303C102.243 8.27929 102.199 7.8901 102.11 7.62544C102.021 7.34522 101.925 7.18176 101.821 7.13506C101.717 7.07279 101.576 7.04165 101.399 7.04165C100.658 7.04165 99.9909 7.54761 99.3982 8.55951V15.168L101.199 15.3081C101.287 16.32 100.954 16.826 100.198 16.826H95.064C95.064 16.826 95.064 16.7637 95.064 16.6392C95.064 15.783 95.39 15.3237 96.042 15.2614L96.6866 15.2147V6.85484L95.7086 6.73808C95.2492 6.69138 95.0195 6.22435 95.0195 5.33698L99.0426 4.7999L99.2426 6.73808H99.3093Z"
              fill="#353535"/>
        <path d="M116.319 15.7752C116.319 16.7092 115.741 17.1763 114.585 17.1763C113.429 17.1763 112.681 16.7715 112.34 15.962C111.407 16.7715 110.377 17.1763 109.251 17.1763C108.124 17.1763 107.235 16.8883 106.583 16.3123C105.946 15.7207 105.628 14.9189 105.628 13.907C105.628 12.8796 106.005 12.0389 106.761 11.3851C107.517 10.7312 108.71 10.4043 110.34 10.4043C110.977 10.4043 111.584 10.451 112.162 10.5444V9.51693C112.162 8.44275 111.992 7.67993 111.651 7.22847C111.325 6.777 110.873 6.55127 110.295 6.55127C109.717 6.55127 109.251 6.74587 108.895 7.13506C108.554 7.52425 108.384 8.05356 108.384 8.72297C107.791 8.78524 107.295 8.69184 106.895 8.44275C106.509 8.1781 106.317 7.78112 106.317 7.25182C106.317 6.50457 106.687 5.88964 107.428 5.40704C108.169 4.92444 109.125 4.68314 110.295 4.68314C113.348 4.68314 114.874 6.23991 114.874 9.35347V15.5884L116.319 15.7752ZM112.162 12.2958C111.629 12.0934 111.066 11.9922 110.473 11.9922C109.895 11.9922 109.414 12.1401 109.028 12.4359C108.643 12.7161 108.45 13.1209 108.45 13.6502C108.45 14.7399 108.984 15.2848 110.051 15.2848C110.806 15.2848 111.51 15.0591 112.162 14.6076V12.2958Z"
              fill="#353535"/>
        <path d="M122.886 16.826H117.93V16.6392C117.93 15.783 118.256 15.3237 118.908 15.2614L119.597 15.2147V6.73808L118.73 6.64468C118.122 6.58241 117.848 6.0998 117.908 5.19687L122.308 4.68314V15.168L123.887 15.3081C123.975 16.32 123.642 16.826 122.886 16.826ZM122.42 1.90429C122.42 2.38689 122.264 2.79944 121.953 3.14193C121.642 3.46885 121.249 3.63231 120.775 3.63231C120.315 3.63231 119.923 3.46885 119.597 3.14193C119.286 2.79944 119.13 2.38689 119.13 1.90429C119.13 1.42169 119.286 1.01693 119.597 0.690006C119.923 0.347515 120.315 0.17627 120.775 0.17627C121.234 0.17627 121.619 0.347515 121.931 0.690006C122.257 1.01693 122.42 1.42169 122.42 1.90429Z"
              fill="#353535"/>
        <path d="M137.986 16.826H133.074V16.6392C133.074 15.783 133.4 15.3237 134.052 15.2614L134.696 15.2147V9.47022C134.696 8.56729 134.526 7.9368 134.185 7.57874C133.844 7.20512 133.37 7.0183 132.762 7.0183C132.155 7.0183 131.659 7.10393 131.273 7.27517C130.888 7.44642 130.488 7.71885 130.073 8.09248V15.168L131.651 15.3081C131.74 16.32 131.407 16.826 130.651 16.826H125.694V16.6392C125.694 15.783 126.02 15.3237 126.672 15.2614L127.361 15.2147V6.87819L126.495 6.78479C125.887 6.72252 125.613 6.23991 125.672 5.33698L129.695 4.82325L129.851 6.2477H129.917C130.466 5.74953 130.992 5.36812 131.496 5.10347C132.014 4.82325 132.622 4.68314 133.318 4.68314C134.459 4.68314 135.422 5.0879 136.208 5.89742C137.008 6.69138 137.408 7.92123 137.408 9.58698V15.168L138.986 15.3081C139.075 16.32 138.741 16.826 137.986 16.826Z"
              fill="#353535"/>
    </symbol>

    <symbol fill="none" xmlns="http://www.w3.org/2000/svg" viewBox="0 0 136 32" id="logo">
        <path fill-rule="evenodd" clip-rule="evenodd"
              d="M42.112 1.038A76.94 76.94 0 0 0 45.525 0l2.02 13.078-4.15 1.102-3.83-7.01a74.035 74.035 0 0 1-3.093.543L35.286 15.6l-4.279.367-2.548-7.553c-1.041.032-2.099.032-3.14 0l-2.548 7.553-4.279-.367-1.186-7.872a65.812 65.812 0 0 1-3.092-.543l-3.83 6.994-4.15-1.118L8.283 0a58.739 58.739 0 0 0 33.828 1.038ZM33.363 23.01l3.83-7.01 4.166 1.118-2.05 13.062a49.543 49.543 0 0 0-3.414-1.038 58.605 58.605 0 0 0-33.828 1.022L.017 17.118 4.166 16l3.83 6.994a65.825 65.825 0 0 1 3.092-.543l1.186-7.872 4.278-.367 2.548 7.553a51.39 51.39 0 0 1 3.141 0l2.548-7.553 4.295.367 1.185 7.888c1.042.16 2.067.335 3.093.543ZM69.354 8.144s-1.859-2.427-5.8-2.427c-3.959 0-9.135 2.251-9.135 9.373s5.176 9.437 9.134 9.437c3.959 0 5.224-2.028 5.801-3.018 0 4.328-3.99 6.435-9.021 3.944l-2.26 4.87c6.49 3.274 16.073 2.523 16.073-8.782V6.164h-4.119l-.673 1.98Zm-4.791 11.29c-1.602 0-4.022-1.103-4.022-4.344 0-3.242 2.42-4.343 4.022-4.343 1.602 0 4.022 1.101 4.022 4.343 0 3.241-2.42 4.343-4.022 4.343Zm61.886-13.27.994 2.922s2.532-5.286 8.573-2.619l-2.372 5.094c-2.868-1.102-5.592.367-5.592 3.497v9.022h-5.721V6.164h4.118Zm-8.348 0h-4.119l-.689 1.98s-1.859-2.427-5.801-2.427c-3.958 0-9.134 2.634-9.134 9.373 0 6.675 5.176 9.437 9.134 9.437 4.631 0 5.801-3.018 5.801-3.018v2.587h4.808V6.164Zm-9.599 13.27c-1.603 0-4.022-1.103-4.022-4.344 0-3.242 2.419-4.343 4.022-4.343 1.602 0 4.022 1.101 4.022 4.343 0 3.241-2.42 4.343-4.022 4.343ZM76.405 14.93c0-4.646 3.637-9.613 10.672-9.613s9.615 6.228 9.23 11.322h-13.54c.72 2.14 2.852 3.37 4.743 3.37 2.323 0 4.134-1.39 4.871-2.572l3.782 2.46c-.369.718-2.708 5.205-9.599 5.205-6.89 0-10.16-5.525-10.16-10.172Zm10.512-4.583c-1.81 0-3.173.959-3.878 2.412h7.387s-.865-2.412-3.51-2.412Z"
              fill="currentColor"/>
    </symbol>
    <symbol fill="none" xmlns="http://www.w3.org/2000/svg" viewBox="0 0 16 16" id="subsocial">
        <path fill-rule="evenodd" clip-rule="evenodd"
              d="M14.878 8C14.878 11.866 11.7986 15 8.00004 15C4.20143 15 1.12207 11.866 1.12207 8C1.12207 4.13401 4.20143 1 8.00004 1C11.7986 1 14.878 4.13401 14.878 8ZM7.97717 2.49261C6.57166 2.49261 5.43232 3.65219 5.43232 5.08261V6.76259C5.43232 8.19301 6.57166 9.35263 7.97717 9.35263C8.17443 9.35263 8.36646 9.32977 8.55084 9.28655C8.66242 9.26037 8.69392 9.1228 8.61174 9.04291L8.59667 9.02825L7.13064 7.60315C6.90332 7.3784 6.76206 7.06396 6.76206 6.71597V5.12928C6.76206 4.44628 7.30606 3.89261 7.97717 3.89261C8.64824 3.89261 9.19228 4.44628 9.19228 5.12928V5.18827C9.19228 5.55546 9.48992 5.85315 9.85714 5.85315C10.2243 5.85315 10.522 5.55546 10.522 5.18827V5.08261C10.522 3.65219 9.38263 2.49261 7.97717 2.49261ZM10.5218 10.7762C10.5218 12.2066 9.3824 13.3662 7.97694 13.3662C6.57143 13.3662 5.43207 12.2066 5.43207 10.7762V10.6711C5.43207 10.3039 5.72975 10.0062 6.09692 10.0062C6.46414 10.0062 6.76183 10.3039 6.76183 10.6711V10.7296C6.76183 11.4125 7.30582 11.9662 7.97694 11.9662C8.648 11.9662 9.192 11.4125 9.192 10.7296V9.14291C9.192 8.79487 9.05078 8.48043 8.82342 8.25569L7.35739 6.83058L7.34232 6.81597C7.26014 6.73603 7.29164 6.59846 7.40322 6.57233C7.5876 6.52907 7.77963 6.50625 7.97694 6.50625C9.3824 6.50625 10.5218 7.66582 10.5218 9.09625V10.7762Z"
              fill="currentColor"/>
    </symbol>
    <symbol fill="none" xmlns="http://www.w3.org/2000/svg" viewBox="0 0 26 26" id="youtube">
        <path
                d="M23.3128 7.56653C23.1096 6.46653 22.1443 5.66653 21.0265 5.41653C19.3499 5.06653 16.2507 4.81653 12.8975 4.81653C9.54426 4.81653 6.39426 5.06653 4.71764 5.41653C3.5999 5.66653 2.63458 6.41653 2.43135 7.56653C2.22813 8.81653 2.0249 10.5665 2.0249 12.8165C2.0249 15.0665 2.22813 16.8165 2.48216 18.0665C2.68539 19.1665 3.65071 19.9665 4.76845 20.2165C6.54668 20.5665 9.59506 20.8165 12.9483 20.8165C16.3015 20.8165 19.3499 20.5665 21.1281 20.2165C22.2459 19.9665 23.2112 19.2165 23.4144 18.0665C23.6176 16.8165 23.8717 15.0165 23.9225 12.8165C23.8209 10.5665 23.5668 8.81653 23.3128 7.56653ZM10.1539 16.3165V9.31653L16.3523 12.8165L10.1539 16.3165Z"
                fill="currentColor"/>
    </symbol>
    <symbol fill="none" xmlns="http://www.w3.org/2000/svg" viewBox="0 0 16 16" id="weibo">
        <path
                d="M11.1318 1.33529C11.0026 1.34128 10.8808 1.3971 10.7918 1.49103C10.7029 1.58496 10.6538 1.7097 10.6549 1.83904C10.656 1.96838 10.7072 2.09227 10.7977 2.18468C10.8882 2.2771 11.011 2.33084 11.1403 2.33464C12.8721 2.40608 14.2572 3.79008 14.3304 5.52149C14.3361 5.65393 14.3942 5.77869 14.4919 5.86834C14.5895 5.95798 14.7188 6.00519 14.8512 5.99958C14.9837 5.99397 15.1085 5.93601 15.1982 5.83842C15.2879 5.74084 15.3352 5.61162 15.3298 5.47917C15.2349 3.23592 13.4249 1.4285 11.1813 1.33594C11.1648 1.33491 11.1483 1.33469 11.1318 1.33529ZM11.167 3.16537C11.1007 3.16443 11.035 3.17667 10.9735 3.20138C10.912 3.22609 10.856 3.26277 10.8088 3.30929C10.7617 3.35581 10.7242 3.41125 10.6986 3.47238C10.673 3.53351 10.6599 3.59911 10.6599 3.66537C10.6599 3.73163 10.673 3.79723 10.6986 3.85836C10.7242 3.91949 10.7617 3.97493 10.8088 4.02145C10.856 4.06797 10.912 4.10465 10.9735 4.12936C11.035 4.15407 11.1007 4.16631 11.167 4.16537C11.9095 4.16537 12.5003 4.75617 12.5003 5.4987C12.4994 5.56496 12.5116 5.63074 12.5363 5.69222C12.561 5.75371 12.5977 5.80967 12.6442 5.85685C12.6908 5.90404 12.7462 5.94151 12.8073 5.96708C12.8685 5.99265 12.9341 6.00582 13.0003 6.00582C13.0666 6.00582 13.1322 5.99265 13.1933 5.96708C13.2544 5.94151 13.3099 5.90404 13.3564 5.85685C13.4029 5.80967 13.4396 5.75371 13.4643 5.69222C13.489 5.63074 13.5013 5.56496 13.5003 5.4987C13.5003 4.2159 12.4498 3.16537 11.167 3.16537ZM6.48665 3.33204C4.09032 3.33204 0.666992 7.45704 0.666992 10.207C0.666992 12.6134 2.72076 14.332 5.80176 14.332C11.2794 14.332 13.3337 11.2382 13.3337 9.51954C13.3337 8.26587 12.2407 7.92696 11.6494 7.83529C11.4621 7.80629 11.3426 7.62184 11.391 7.4375C11.5876 6.69017 11.8409 5.00066 10.2549 5.00066C9.23988 5.00066 8.46363 5.41366 8.00163 5.70899C7.97429 5.72666 7.94434 5.73373 7.91634 5.73373C7.82067 5.73373 7.73601 5.6438 7.76335 5.53646C7.81601 5.33113 7.85579 5.05937 7.85579 4.70704C7.85579 3.33204 6.48665 3.33204 6.48665 3.33204ZM6.16699 7.33204C8.65233 7.33204 10.667 8.67503 10.667 10.332C10.667 11.989 8.65233 13.332 6.16699 13.332C3.68166 13.332 1.66699 11.989 1.66699 10.332C1.66699 8.67503 3.68166 7.33204 6.16699 7.33204ZM5.9541 9C5.74131 9.00654 5.52258 9.03993 5.30501 9.10287C4.14468 9.43853 3.44075 10.4848 3.73275 11.4401C4.02441 12.3954 5.20197 12.8982 6.3623 12.5625C7.52231 12.2272 8.22624 11.1809 7.93457 10.2253C7.69759 9.44906 6.87619 8.97169 5.9541 9ZM6.33366 10C6.51766 10 6.66699 10.1493 6.66699 10.3333C6.66699 10.5173 6.51766 10.6667 6.33366 10.6667C6.14966 10.6667 6.00033 10.5173 6.00033 10.3333C6.00033 10.1493 6.14966 10 6.33366 10ZM5.16699 10.6654C5.44299 10.6654 5.66699 10.8894 5.66699 11.1654C5.66699 11.4414 5.44299 11.6654 5.16699 11.6654C4.89099 11.6654 4.66699 11.4414 4.66699 11.1654C4.66699 10.8894 4.89099 10.6654 5.16699 10.6654Z"
                fill="currentColor"/>
    </symbol>
    <symbol fill="none" xmlns="http://www.w3.org/2000/svg" viewBox="0 0 24 24" id="wechat">
        <path
                d="M21.502 19.525c1.524-1.105 2.498-2.738 2.498-4.554 0-3.326-3.237-6.023-7.229-6.023s-7.229 2.697-7.229 6.023c0 3.327 3.237 6.024 7.229 6.024.825 0 1.621-.117 2.36-.33l.212-.032c.139 0 .265.043.384.111l1.583.914.139.045c.133 0 .241-.108.241-.241l-.039-.176-.326-1.215-.025-.154c0-.162.08-.305.202-.392zm-12.827-17.228c-4.791 0-8.675 3.236-8.675 7.229 0 2.178 1.168 4.139 2.997 5.464.147.104.243.276.243.471l-.03.184-.391 1.458-.047.211c0 .16.13.29.289.29l.168-.054 1.899-1.097c.142-.082.293-.133.46-.133l.255.038c.886.255 1.842.397 2.832.397l.476-.012c-.188-.564-.291-1.158-.291-1.771 0-3.641 3.542-6.593 7.911-6.593l.471.012c-.653-3.453-4.24-6.094-8.567-6.094zm5.686 11.711c-.532 0-.963-.432-.963-.964 0-.533.431-.964.963-.964.533 0 .964.431.964.964 0 .532-.431.964-.964.964zm4.82 0c-.533 0-.964-.432-.964-.964 0-.533.431-.964.964-.964.532 0 .963.431.963.964 0 .532-.431.964-.963.964zm-13.398-5.639c-.639 0-1.156-.518-1.156-1.156 0-.639.517-1.157 1.156-1.157.639 0 1.157.518 1.157 1.157 0 .638-.518 1.156-1.157 1.156zm5.783 0c-.639 0-1.156-.518-1.156-1.156 0-.639.517-1.157 1.156-1.157.639 0 1.157.518 1.157 1.157 0 .638-.518 1.156-1.157 1.156z"
                fill="currentColor"/>
    </symbol>
    <symbol fill="none" xmlns="http://www.w3.org/2000/svg" viewBox="0 0 51 52" id="twitter">
        <path
                d="M44.625 13.2501C43.2026 13.89 41.6869 14.3142 40.1067 14.5202C41.7323 13.5247 42.9731 11.9604 43.5564 10.0748C42.0407 11.0017 40.3673 11.6563 38.5839 12.0217C37.1447 10.45 35.0936 9.47656 32.856 9.47656C28.5146 9.47656 25.0195 13.0907 25.0195 17.5213C25.0195 18.1588 25.0721 18.7718 25.2012 19.3554C18.6819 19.0293 12.9134 15.8246 9.03816 10.9428C8.36161 12.1467 7.96477 13.5247 7.96477 15.0081C7.96477 17.7935 9.36328 20.2626 11.4479 21.692C10.188 21.6675 8.95209 21.2924 7.905 20.7015C7.905 20.726 7.905 20.7579 7.905 20.7897C7.905 24.6981 10.6231 27.9444 14.1876 28.6923C13.5493 28.8713 12.8536 28.9571 12.1316 28.9571C11.6296 28.9571 11.1228 28.9277 10.647 28.8198C11.6631 32.0048 14.5462 34.3464 17.9743 34.4224C15.3064 36.563 11.9189 37.8527 8.25164 37.8527C7.60856 37.8527 6.99178 37.8232 6.375 37.7423C9.84858 40.0398 13.9652 41.3516 18.4046 41.3516C32.8344 41.3516 40.7235 29.0919 40.7235 18.4653C40.7235 18.1098 40.7115 17.7665 40.6948 17.4257C42.2511 16.2929 43.5588 14.8781 44.625 13.2501Z"
                fill="currentColor"/>
    </symbol>
    <symbol fill="none" xmlns="http://www.w3.org/2000/svg" viewBox="0 0 26 25" id="telegram">
        <path fill-rule="evenodd" clip-rule="evenodd"
              d="M20.3791 22.2091L23.92 4.03791C24.0112 3.56931 23.5796 3.17838 23.1614 3.35095L3.43049 11.4717C2.94351 11.6719 2.94768 12.4075 3.43605 12.6026L8.24375 14.517L10.1046 20.9019C10.2237 21.3105 10.6924 21.4618 11.0034 21.1904L13.6833 18.8597C13.9643 18.6153 14.3644 18.6032 14.6578 18.8306L19.4915 22.5746C19.8242 22.8326 20.2957 22.6382 20.3791 22.2091ZM9.44539 13.0192L18.7508 7.02713C18.9179 6.9198 19.0901 7.15621 18.9463 7.29544L11.2667 14.759C10.9967 15.0216 10.8227 15.3734 10.7733 15.755L10.5118 17.7819C10.477 18.0525 10.1136 18.0792 10.042 17.8174L9.03593 14.1213C8.92087 13.6997 9.08874 13.2493 9.44539 13.0192Z"
              fill="currentColor"/>
    </symbol>
    <symbol fill="none" xmlns="http://www.w3.org/2000/svg" viewBox="0 0 16 16" id="meetup">
        <path fill-rule="evenodd" clip-rule="evenodd"
              d="M14.6468 12.2877C15.2703 12.3742 15.887 12.4596 15.985 13.087C16.2463 14.7559 13.0084 14.1349 12.2684 13.7726C11.1079 13.2035 10.4038 11.9046 10.7049 10.6212C10.8209 10.1259 11.4493 8.84012 12.0412 7.63006C12.5947 6.49769 13.1162 5.43136 13.1551 5.1405C13.2367 4.52575 12.9089 4.47331 12.7035 4.46311C12.4393 4.44952 12.231 4.5782 11.9717 4.96957C11.8091 5.21479 10.4941 7.82283 9.61473 9.56655C9.21704 10.3556 8.9087 10.9674 8.83635 11.1034C8.42264 11.8837 7.90161 12.0716 7.37816 12.044C6.61483 12.0042 6.2657 11.5953 6.37592 10.8601C6.40555 10.662 6.7775 9.75204 7.17956 8.7668C7.65494 7.60238 8.17256 6.33405 8.22015 6.01065C8.27405 5.6421 8.20073 5.25121 7.83557 5.06329C7.46945 4.87586 7.03777 5.16332 6.90812 5.38086C6.82363 5.5241 6.23559 7.01726 5.61551 8.59394C4.9323 10.3299 4.20976 12.1654 4.07622 12.4086C3.63435 13.2118 3.16916 13.4672 2.46944 13.5002C0.815074 13.5789 -0.411498 12.2183 0.129436 10.5503C0.17411 10.4124 0.265399 10.106 0.389708 9.6894C0.935013 7.8612 2.11351 3.90761 2.77099 2.73979C3.31338 1.77592 4.81964 1.04415 5.86412 1.49623C6.20694 1.64433 6.63377 1.84924 6.95668 2.00463C7.14314 2.09397 7.29464 2.16633 7.37573 2.20226C7.82246 2.40037 8.29784 1.9551 8.55374 1.71522C8.59016 1.68123 8.62221 1.65113 8.64892 1.62782C8.67465 1.60597 8.6999 1.58412 8.72467 1.56178C8.91404 1.39523 9.10245 1.23013 9.33456 1.13059C9.59677 1.01793 10.01 0.971315 10.329 1.01793C10.648 1.06503 10.8384 1.18546 10.9578 1.28112C11.154 1.43747 11.288 1.56615 11.457 1.72785L11.5609 1.82691C11.8668 2.11825 12.0946 1.98035 12.2592 1.88081L12.3024 1.85556L12.3107 1.8507C12.5967 1.68415 12.8273 1.55013 13.6771 1.56566C14.5599 1.58072 15.5752 1.89634 15.786 3.40261C15.8996 4.21498 15.2567 5.6489 14.5895 7.13865C13.8825 8.71581 13.1478 10.3551 13.2551 11.3836C13.3304 12.1056 13.9922 12.1969 14.6468 12.2877Z"
              fill="currentColor"/>
    </symbol>
    <symbol fill="none" xmlns="http://www.w3.org/2000/svg" viewBox="0 0 51 52" id="medium">
        <path
                d="M28.7671 26.4769C28.7671 34.6919 22.3272 41.3516 14.3838 41.3516C6.44028 41.3516 0 34.6904 0 26.4769C0 18.2632 6.43983 11.6016 14.3838 11.6016C22.3277 11.6016 28.7671 18.2617 28.7671 26.4769ZM44.546 26.4769C44.546 34.2095 41.3261 40.4807 37.3541 40.4807C33.3821 40.4807 30.1622 34.2095 30.1622 26.4769C30.1622 18.7441 33.3817 12.4729 37.3536 12.4729C41.3256 12.4729 44.5456 18.7421 44.5456 26.4769H44.546ZM51 26.4769C51 33.4035 49.8677 39.0222 48.4706 39.0222C47.0735 39.0222 45.9417 33.4049 45.9417 26.4769C45.9417 19.5487 47.0739 13.9316 48.4706 13.9316C49.8672 13.9316 51 19.5482 51 26.4769Z"
                fill="currentColor"/>
    </symbol>
    <symbol fill="none" xmlns="http://www.w3.org/2000/svg" viewBox="0 0 51 52" id="linkedin">
        <path
                d="M40.8003 7.77686H10.2003C8.32179 7.77686 6.80029 9.29836 6.80029 11.1769V41.7769C6.80029 43.6554 8.32179 45.1769 10.2003 45.1769H40.8003C42.6788 45.1769 44.2003 43.6554 44.2003 41.7769V11.1769C44.2003 9.29836 42.6788 7.77686 40.8003 7.77686ZM18.6221 38.3769H13.6071V22.2405H18.6221V38.3769ZM16.0636 19.9336C14.4469 19.9336 13.1396 18.6229 13.1396 17.0096C13.1396 15.3963 14.4486 14.0873 16.0636 14.0873C17.6752 14.0873 18.9859 15.398 18.9859 17.0096C18.9859 18.6229 17.6752 19.9336 16.0636 19.9336ZM37.4071 38.3769H32.3955V30.5297C32.3955 28.658 32.3615 26.2508 29.7894 26.2508C27.1799 26.2508 26.7787 28.2891 26.7787 30.3937V38.3769H21.7671V22.2405H26.5781V24.4454H26.6461C27.3159 23.1772 28.9513 21.8393 31.3908 21.8393C36.4687 21.8393 37.4071 25.1815 37.4071 29.5267V38.3769Z"
                fill="currentColor"/>
    </symbol>
    <symbol fill="none" xmlns="http://www.w3.org/2000/svg" viewBox="0 0 51 52" id="github">
        <path
                d="M18.9051 45.6016C20.2303 45.6016 20.6048 45.0728 20.6048 44.3971C20.6048 43.7214 20.6048 42.2525 20.5759 40.1666C13.6907 41.665 12.2215 36.8175 12.2215 36.8175C11.0979 33.9679 9.45582 33.1747 9.45582 33.1747C7.20866 31.6471 9.62865 31.6765 9.62865 31.6765C12.1062 31.8527 13.4314 34.2323 13.4314 34.2323C15.6497 38.0515 19.2219 36.9351 20.6336 36.2887C20.7488 35.0255 21.2962 33.821 22.2181 32.9397C16.7156 32.3228 10.925 30.1782 10.925 20.6597C10.8963 18.192 11.8181 15.783 13.489 13.991C13.2009 13.3741 12.3655 10.8475 13.6907 7.41031C13.6907 7.41031 15.7649 6.73462 20.5183 9.96627C24.5804 8.84985 28.844 8.84985 32.906 9.96627C37.6019 6.76408 39.7049 7.41031 39.7049 7.41031C41.0301 10.8182 40.1947 13.3447 39.9642 13.991C41.6351 15.783 42.5282 18.192 42.4993 20.6597C42.4993 30.2076 36.7088 32.2933 31.1775 32.9103C32.0418 33.6448 32.8485 35.1724 32.8485 37.4932C32.8485 40.8423 32.8197 43.4863 32.8197 44.2795C32.8197 44.9259 33.1077 45.4547 34.5194 45.4547L18.9051 45.6016Z"
                fill="currentColor"/>
    </symbol>
    <symbol fill="none" xmlns="http://www.w3.org/2000/svg" viewBox="0 0 16 16" id="facebook">
        <path
                d="M7.99967 1.3335C4.32367 1.3335 1.33301 4.32416 1.33301 8.00016C1.33301 11.3355 3.79767 14.0985 6.99967 14.5835V9.66683H5.66634C5.48234 9.66683 5.33301 9.51783 5.33301 9.3335V8.3335C5.33301 8.14916 5.48234 8.00016 5.66634 8.00016H6.99967V6.7895C6.99967 5.20583 7.80867 4.3335 9.27767 4.3335C9.87301 4.3335 10.3427 4.37483 10.3623 4.3765C10.5343 4.39183 10.6663 4.53583 10.6663 4.7085V5.8335C10.6663 6.01783 10.517 6.16683 10.333 6.16683H9.66634C9.29867 6.16683 8.99967 6.46583 8.99967 6.8335V8.00016H10.333C10.4287 8.00016 10.5197 8.04116 10.583 8.11283C10.6463 8.18483 10.6757 8.28016 10.664 8.37483L10.539 9.37483C10.518 9.5415 10.376 9.66683 10.208 9.66683H8.99967V14.5835C12.2017 14.0985 14.6663 11.3355 14.6663 8.00016C14.6663 4.32416 11.6757 1.3335 7.99967 1.3335Z"
                fill="currentColor"/>
    </symbol>
    <symbol fill="none" xmlns="http://www.w3.org/2000/svg" viewBox="0 0 51 52" id="discord">
        <path
                d="M13.6135 35.4204C22.8562 39.1006 30.7217 39.8175 39.6351 34.089C39.5698 34.189 37.8066 36.8541 33.17 38.2201C34.1496 39.586 35.4883 41.1517 35.4883 41.1517C38.4597 41.1517 41.3656 40.2855 43.8797 38.6198C45.8389 37.2872 46.949 34.9885 46.7204 32.5899C46.3286 28.4921 45.3817 24.4944 43.9124 20.6633C42.0513 15.666 37.578 12.2013 32.3864 11.7016C31.9293 11.6682 31.6028 11.6682 31.4069 11.6682L30.8846 12.2012C36.8598 13.9336 39.8311 16.6321 39.8963 16.7321C30.7212 12.0014 19.8809 11.9348 10.6405 16.5321C10.6405 16.5321 13.5791 13.5672 20.0767 12.0014L19.685 11.6016C18.9992 11.6016 18.3462 11.6682 17.6605 11.7681C12.8608 12.6009 8.84463 15.9657 7.11412 20.5965C5.61208 24.5942 4.6326 28.7919 4.27342 33.0562C4.07755 35.3216 5.12238 37.5537 6.95083 38.853C9.367 40.4854 12.2404 41.3516 15.1463 41.3516C15.1463 41.3516 16.3218 39.7858 17.4973 38.3866C13.0893 37.054 11.2935 34.3888 11.2608 34.2889L12.0904 34.7211C12.5863 34.9796 13.0947 35.2138 13.6135 35.4204ZM18.7381 32.5232C16.6157 32.4565 14.9505 30.6243 15.0158 28.4255C15.0812 26.36 16.7137 24.6942 18.7381 24.6276C20.8604 24.6942 22.5257 26.5265 22.4604 28.7254C22.3624 30.7909 20.7625 32.4566 18.7381 32.5232ZM32.0598 32.5232C29.9375 32.4565 28.2722 30.6243 28.3376 28.4255C28.4029 26.36 30.0355 24.6942 32.0598 24.6276C34.1823 24.6942 35.8475 26.5265 35.7822 28.7254C35.7169 30.7909 34.0842 32.4566 32.0598 32.5232Z"
                fill="currentColor"/>
    </symbol>
    <symbol fill="none" xmlns="http://www.w3.org/2000/svg" viewBox="0 0 20 20" id="copy">
        <g clip-path="url(#clip0_1_2)">
            <path d="M13.2078 3.40842H15.2967C15.3398 3.40856 15.3824 3.40062 15.4223 3.38507C15.4621 3.36951 15.4983 3.34664 15.5288 3.31778C15.5592 3.28892 15.5834 3.25463 15.5998 3.21689C15.6162 3.17915 15.6246 3.13871 15.6244 3.09789V1.47368C15.6244 1.22243 15.5191 0.98146 15.3315 0.803794C15.144 0.626127 14.8897 0.526316 14.6244 0.526316H5.16667C5.07826 0.526316 4.99348 0.559586 4.93096 0.618808C4.86845 0.67803 4.83333 0.758353 4.83333 0.842105V3.64526C4.83333 3.89652 4.72798 4.13749 4.54044 4.31515C4.3529 4.49282 4.09855 4.59263 3.83333 4.59263H0.874444C0.786039 4.59263 0.701254 4.6259 0.638742 4.68512C0.57623 4.74435 0.541111 4.82467 0.541111 4.90842V18.5263C0.541111 18.7776 0.646468 19.0185 0.834004 19.1962C1.02154 19.3739 1.27589 19.4737 1.54111 19.4737H14.6244C14.8897 19.4737 15.144 19.3739 15.3315 19.1962C15.5191 19.0185 15.6244 18.7776 15.6244 18.5263V18.2526C15.6238 18.1796 15.5963 18.1092 15.5465 18.0534C15.4968 17.9977 15.4281 17.9601 15.3522 17.9474C15.0428 17.8916 14.7565 17.7536 14.5267 17.5495L13.8522 16.9505C13.6886 16.8047 13.5582 16.6287 13.469 16.4334C13.3798 16.2381 13.3336 16.0276 13.3333 15.8147V11.3905C13.3332 11.3154 13.3043 11.2428 13.252 11.1862C13.1997 11.1297 13.1275 11.0931 13.0489 11.0832C12.47 11.0084 11.2078 10.6789 11.2078 9.21053V5.30316C11.2078 4.80064 11.4185 4.31871 11.7936 3.96338C12.1686 3.60804 12.6773 3.40842 13.2078 3.40842ZM3.91667 16.3158C3.91667 16.3995 3.88155 16.4799 3.81904 16.5391C3.75652 16.5983 3.67174 16.6316 3.58333 16.6316C3.49493 16.6316 3.41014 16.5983 3.34763 16.5391C3.28512 16.4799 3.25 16.3995 3.25 16.3158V13.9653L3.06667 14.0874C2.9944 14.1334 2.90597 14.1509 2.82031 14.1359C2.73464 14.121 2.65855 14.0749 2.60831 14.0075C2.55807 13.9401 2.53767 13.8567 2.55149 13.7753C2.5653 13.6938 2.61223 13.6207 2.68222 13.5716L3.39111 13.0979C3.44101 13.0645 3.49963 13.0448 3.56056 13.0408C3.6215 13.0369 3.68241 13.0489 3.73664 13.0755C3.79088 13.1021 3.83635 13.1423 3.8681 13.1917C3.89985 13.2412 3.91665 13.2979 3.91667 13.3558V16.3158V16.3158ZM4.06222 11.8158C3.33889 11.8158 2.75 11.2579 2.75 10.5726V9.46737C2.75 8.78105 3.33889 8.22421 4.06222 8.22421C4.78556 8.22421 5.37444 8.78211 5.37444 9.46632V10.5716C5.37444 11.2579 4.78556 11.8158 4.06333 11.8158H4.06222ZM7.70778 15.3884C7.70778 16.0737 7.11889 16.6316 6.39667 16.6316C5.67222 16.6316 5.08333 16.0737 5.08333 15.3884V14.2832C5.08333 13.5968 5.67222 13.04 6.39556 13.04C7.11889 13.04 7.70778 13.5979 7.70778 14.2821V15.3874V15.3884ZM7.70778 11.5C7.70778 11.5415 7.69916 11.5825 7.6824 11.6208C7.66565 11.6592 7.6411 11.694 7.61015 11.7233C7.57919 11.7526 7.54245 11.7759 7.502 11.7918C7.46156 11.8076 7.41822 11.8158 7.37444 11.8158C7.33067 11.8158 7.28732 11.8076 7.24688 11.7918C7.20644 11.7759 7.16969 11.7526 7.13874 11.7233C7.10779 11.694 7.08324 11.6592 7.06648 11.6208C7.04973 11.5825 7.04111 11.5415 7.04111 11.5V9.14947L6.85889 9.27158C6.78662 9.31764 6.69819 9.33507 6.61253 9.32015C6.52687 9.30522 6.45077 9.25912 6.40053 9.19172C6.35029 9.12431 6.32989 9.04096 6.34371 8.95948C6.35752 8.87801 6.40445 8.8049 6.47444 8.75579L7.18222 8.28211C7.23212 8.24874 7.29074 8.229 7.35167 8.22505C7.41261 8.22109 7.47352 8.23308 7.52776 8.25969C7.58199 8.28631 7.62746 8.32652 7.65921 8.37596C7.69096 8.42539 7.70776 8.48214 7.70778 8.54V11.5V11.5ZM10.2078 16.3158C10.2078 16.3573 10.1992 16.3983 10.1824 16.4366C10.1657 16.475 10.1411 16.5098 10.1101 16.5391C10.0792 16.5684 10.0424 16.5917 10.002 16.6075C9.96156 16.6234 9.91822 16.6316 9.87444 16.6316C9.83067 16.6316 9.78732 16.6234 9.74688 16.6075C9.70644 16.5917 9.66969 16.5684 9.63874 16.5391C9.60779 16.5098 9.58324 16.475 9.56648 16.4366C9.54973 16.3983 9.54111 16.3573 9.54111 16.3158V13.9653L9.35889 14.0874C9.28662 14.1334 9.19819 14.1509 9.11253 14.1359C9.02687 14.121 8.95077 14.0749 8.90053 14.0075C8.85029 13.9401 8.82989 13.8567 8.84371 13.7753C8.85752 13.6938 8.90445 13.6207 8.97444 13.5716L9.68222 13.0979C9.73212 13.0645 9.79074 13.0448 9.85167 13.0408C9.91261 13.0369 9.97352 13.0489 10.0278 13.0755C10.082 13.1021 10.1275 13.1423 10.1592 13.1917C10.191 13.2412 10.2078 13.2979 10.2078 13.3558V16.3158V16.3158ZM10.2078 11.5C10.2078 11.5415 10.1992 11.5825 10.1824 11.6208C10.1657 11.6592 10.1411 11.694 10.1101 11.7233C10.0792 11.7526 10.0424 11.7759 10.002 11.7918C9.96156 11.8076 9.91822 11.8158 9.87444 11.8158C9.83067 11.8158 9.78732 11.8076 9.74688 11.7918C9.70644 11.7759 9.66969 11.7526 9.63874 11.7233C9.60779 11.694 9.58324 11.6592 9.56648 11.6208C9.54973 11.5825 9.54111 11.5415 9.54111 11.5V9.14947L9.35889 9.27158C9.28662 9.31764 9.19819 9.33507 9.11253 9.32015C9.02687 9.30522 8.95077 9.25912 8.90053 9.19172C8.85029 9.12431 8.82989 9.04096 8.84371 8.95948C8.85752 8.87801 8.90445 8.8049 8.97444 8.75579L9.68222 8.28211C9.73212 8.24874 9.79074 8.229 9.85167 8.22505C9.91261 8.22109 9.97352 8.23308 10.0278 8.25969C10.082 8.28631 10.1275 8.32652 10.1592 8.37596C10.191 8.42539 10.2078 8.48214 10.2078 8.54V11.5V11.5ZM10.2078 5.75684C10.2078 6.44211 9.61889 7 8.89667 7C8.17222 7 7.58333 6.44211 7.58333 5.75684V4.65158C7.58333 3.96632 8.17222 3.40842 8.89555 3.40842C9.61889 3.40842 10.2078 3.96632 10.2078 4.65053V5.75579V5.75684Z"
                  fill="currentColor"/>
            <path d="M4.16667 1.09263V3.64526C4.16667 3.72902 4.13155 3.80934 4.06903 3.86856C4.00652 3.92778 3.92174 3.96105 3.83333 3.96105H1.13889C1.10595 3.96102 1.07375 3.95175 1.04637 3.9344C1.01899 3.91705 0.997649 3.8924 0.985047 3.86356C0.972444 3.83473 0.969144 3.803 0.975563 3.77239C0.981982 3.74178 0.997831 3.71366 1.02111 3.69158L3.88222 0.981052C3.90553 0.958998 3.93521 0.943983 3.96752 0.937902C3.99984 0.931821 4.03332 0.934948 4.06376 0.946887C4.0942 0.958826 4.12022 0.979042 4.13853 1.00498C4.15685 1.03092 4.16664 1.06142 4.16667 1.09263V1.09263ZM4.70889 9.46737V10.5726C4.70197 10.7306 4.63088 10.8799 4.51046 10.9893C4.39005 11.0988 4.22964 11.1599 4.06278 11.1599C3.89591 11.1599 3.7355 11.0988 3.61509 10.9893C3.49468 10.8799 3.42358 10.7306 3.41667 10.5726V9.46737C3.42358 9.30942 3.49468 9.16012 3.61509 9.05068C3.7355 8.94123 3.89591 8.88012 4.06278 8.88012C4.22964 8.88012 4.39005 8.94123 4.51046 9.05068C4.63088 9.16012 4.70197 9.30942 4.70889 9.46737ZM7.04111 14.2832V15.3884C7.03144 15.5444 6.95922 15.691 6.83922 15.7982C6.71921 15.9054 6.5605 15.9652 6.39555 15.9652C6.23061 15.9652 6.07189 15.9054 5.95189 15.7982C5.83189 15.691 5.75966 15.5444 5.75 15.3884V14.2832C5.75966 14.1272 5.83189 13.9806 5.95189 13.8733C6.07189 13.7661 6.23061 13.7064 6.39555 13.7064C6.5605 13.7064 6.71921 13.7661 6.83922 13.8733C6.95922 13.9806 7.03144 14.1272 7.04111 14.2832V14.2832ZM9.54111 4.65158V5.75684C9.53144 5.91284 9.45922 6.05944 9.33922 6.16665C9.21921 6.27386 9.0605 6.33358 8.89555 6.33358C8.73061 6.33358 8.57189 6.27386 8.45189 6.16665C8.33189 6.05944 8.25966 5.91284 8.25 5.75684V4.65158C8.25966 4.49558 8.33189 4.34898 8.45189 4.24177C8.57189 4.13456 8.73061 4.07484 8.89555 4.07484C9.0605 4.07484 9.21921 4.13456 9.33922 4.24177C9.45922 4.34898 9.53144 4.49558 9.54111 4.65158ZM18.1256 4.04H13.2089C12.4733 4.04 11.8756 4.60632 11.8756 5.30316V9.21053C11.8756 9.90737 12.4733 10.4737 13.2089 10.4737H14V15.8147C14 16.0705 14.1122 16.3158 14.3089 16.4905L14.9822 17.0884C15.168 17.2526 15.4126 17.3439 15.6667 17.3439C15.9207 17.3439 16.1653 17.2526 16.3511 17.0884L16.9811 16.5295C17.1428 16.3881 17.2488 16.1987 17.2815 15.9926C17.3143 15.7865 17.2718 15.576 17.1611 15.3958L16.9811 15.1032C16.9275 15.0159 16.8993 14.9167 16.8993 14.8158C16.8993 14.7148 16.9275 14.6157 16.9811 14.5284L17.1611 14.2368C17.2741 14.0531 17.3337 13.8442 17.3337 13.6316C17.3337 13.4189 17.2741 13.2101 17.1611 13.0263L16.9811 12.7347C16.9275 12.6475 16.8993 12.5483 16.8993 12.4474C16.8993 12.3464 16.9275 12.2473 16.9811 12.16C17.1756 11.8442 17.3333 11.64 17.3333 11.2632V10.4737H18.1256C18.86 10.4737 19.4589 9.90737 19.4589 9.21053V5.30316C19.4589 4.60632 18.86 4.04 18.1256 4.04ZM17 6.60526H14.3333C14.2896 6.60526 14.2462 6.59709 14.2058 6.58122C14.1653 6.56535 14.1286 6.54209 14.0976 6.51277C14.0667 6.48345 14.0421 6.44863 14.0254 6.41032C14.0086 6.37201 14 6.33094 14 6.28947C14 6.248 14.0086 6.20694 14.0254 6.16863C14.0421 6.13031 14.0667 6.0955 14.0976 6.06618C14.1286 6.03685 14.1653 6.01359 14.2058 5.99772C14.2462 5.98185 14.2896 5.97368 14.3333 5.97368H17C17.0438 5.97368 17.0871 5.98185 17.1276 5.99772C17.168 6.01359 17.2047 6.03685 17.2357 6.06618C17.2667 6.0955 17.2912 6.13031 17.308 6.16863C17.3247 6.20694 17.3333 6.248 17.3333 6.28947C17.3333 6.33094 17.3247 6.37201 17.308 6.41032C17.2912 6.44863 17.2667 6.48345 17.2357 6.51277C17.2047 6.54209 17.168 6.56535 17.1276 6.58122C17.0871 6.59709 17.0438 6.60526 17 6.60526V6.60526Z"
                  fill="currentColor"/>
        </g>
        <defs>
            <clipPath id="clip0_1_2">
                <rect width="20" height="20" fill="white"/>
            </clipPath>
        </defs>
    </symbol>
    <symbol fill="none" xmlns="http://www.w3.org/2000/svg" viewBox="0 0 20 20" id="test-balance">
        <g clip-path="url(#a)">
            <path d="m19.525 7.796-2.123-.523a7.875 7.875 0 0 0-.24-.578l1.131-1.871a.625.625 0 0 0-.093-.766L15.942 1.8a.625.625 0 0 0-.765-.093l-1.872 1.13a7.907 7.907 0 0 0-.578-.239L12.204.475A.625.625 0 0 0 11.597 0H8.403a.625.625 0 0 0-.607.475l-.523 2.123a7.89 7.89 0 0 0-.578.24L4.823 1.707a.625.625 0 0 0-.765.093L1.8 4.058a.625.625 0 0 0-.093.765l1.13 1.872a7.85 7.85 0 0 0-.239.578l-2.123.523A.625.625 0 0 0 0 8.403v3.194a.625.625 0 0 0 .475.607l2.123.523c.072.196.152.388.24.578l-1.131 1.872a.625.625 0 0 0 .093.765L4.058 18.2a.625.625 0 0 0 .765.093l1.872-1.13c.19.087.382.166.578.239l.523 2.123a.625.625 0 0 0 .607.475h3.194a.625.625 0 0 0 .607-.475l.523-2.123a7.89 7.89 0 0 0 .578-.24l1.872 1.131a.625.625 0 0 0 .765-.093l2.258-2.258a.625.625 0 0 0 .093-.765l-1.13-1.872c.087-.19.167-.383.239-.578l2.123-.523a.624.624 0 0 0 .475-.607V8.403a.625.625 0 0 0-.475-.607Zm-.775 3.311-1.978.488a.624.624 0 0 0-.446.418 6.617 6.617 0 0 1-.43 1.036.625.625 0 0 0 .02.61l1.054 1.745-1.566 1.566-1.744-1.054a.626.626 0 0 0-.61-.02c-.333.173-.68.316-1.037.43a.625.625 0 0 0-.418.446l-.488 1.978H8.893l-.488-1.978a.625.625 0 0 0-.418-.446 6.62 6.62 0 0 1-1.036-.43.624.624 0 0 0-.61.02L4.595 16.97 3.03 15.404l1.054-1.744a.625.625 0 0 0 .02-.61 6.607 6.607 0 0 1-.43-1.037.625.625 0 0 0-.446-.418l-1.978-.488V8.893l1.978-.488a.625.625 0 0 0 .446-.418c.113-.357.257-.703.43-1.036a.625.625 0 0 0-.02-.61L3.03 4.595 4.596 3.03 6.34 4.084a.625.625 0 0 0 .611.02c.333-.172.68-.316 1.036-.43a.625.625 0 0 0 .418-.446l.488-1.978h2.214l.488 1.978a.625.625 0 0 0 .418.446c.357.114.703.257 1.036.43a.626.626 0 0 0 .61-.02l1.745-1.054 1.566 1.566-1.054 1.744a.626.626 0 0 0-.02.61c.173.333.316.68.43 1.037a.625.625 0 0 0 .446.418l1.978.488v2.214ZM10 4.42A5.586 5.586 0 0 0 4.42 10 5.586 5.586 0 0 0 10 15.58 5.586 5.586 0 0 0 15.58 10 5.586 5.586 0 0 0 10 4.42Zm0 9.91a4.33 4.33 0 1 1 0-8.66 4.33 4.33 0 0 1 0 8.66Zm2.09-2.963a1.995 1.995 0 0 1-1.465 1.92v.29a.625.625 0 1 1-1.25 0v-.29a2.001 2.001 0 0 1-1.424-1.521.625.625 0 1 1 1.225-.251.745.745 0 0 0 .726.593h.196a.742.742 0 0 0 .741-.741c0-.646-.587-.742-.937-.742a1.991 1.991 0 0 1-.527-3.912v-.29a.625.625 0 0 1 1.25 0v.29a2.001 2.001 0 0 1 1.424 1.521.625.625 0 1 1-1.225.251.745.745 0 0 0-.726-.593h-.196a.742.742 0 0 0 0 1.483c1.288 0 2.187.819 2.187 1.992Z"
                  fill="currentColor"/>
        </g>
        <defs>
            <clipPath id="a">
                <path fill="currentColor" d="M0 0h20v20H0z"/>
            </clipPath>
        </defs>
    </symbol>

    <symbol fill="none" xmlns="http://www.w3.org/2000/svg" viewBox="0 0 12 8" id="on-hands">
        <path fill-rule="evenodd" clip-rule="evenodd"
              d="M10 0.25C11.1046 0.25 12 1.14543 12 2.25V5.85C12 6.95457 11.1046 7.85 10 7.85H6.39999L6.39999 0.25H10ZM5.59999 0.25L5.59999 7.85L2 7.85C0.89543 7.85 0 6.95457 0 5.85V2.25C0 1.14543 0.895431 0.25 2 0.25H5.59999ZM3 4.75C3.41421 4.75 3.75 4.41421 3.75 4C3.75 3.58579 3.41421 3.25 3 3.25C2.58579 3.25 2.25 3.58579 2.25 4C2.25 4.41421 2.58579 4.75 3 4.75ZM9.75 2.5C9.75 2.91421 9.41421 3.25 9 3.25C8.58579 3.25 8.25 2.91421 8.25 2.5C8.25 2.08579 8.58579 1.75 9 1.75C9.41421 1.75 9.75 2.08579 9.75 2.5ZM9 6.25C9.41421 6.25 9.75 5.91421 9.75 5.5C9.75 5.08579 9.41421 4.75 9 4.75C8.58579 4.75 8.25 5.08579 8.25 5.5C8.25 5.91421 8.58579 6.25 9 6.25Z"
              fill="currentColor"/>
    </symbol>
    <symbol fill="none" xmlns="http://www.w3.org/2000/svg" viewBox="0 0 16 13" id="shots">
        <path d="M10.4041 6.63385C10.3347 6.58018 10.2805 6.50928 10.247 6.42819C10.2135 6.3471 10.2019 6.25865 10.2132 6.17164C10.3539 5.27236 10.4845 4.37308 10.6201 3.47882L10.9668 1.18791C11.007 0.936714 10.9969 0.801068 10.9316 0.730733C10.8663 0.660399 10.7407 0.625231 10.4995 0.625231H0.562223C0.481006 0.613913 0.398254 0.622647 0.32119 0.65067C0.244126 0.678693 0.175093 0.725154 0.120117 0.785996V1.28839L0.306002 2.48911C0.441648 3.33815 0.57227 4.19222 0.702892 5.04126C0.850261 5.99916 0.992606 6.95705 1.12993 7.91495C1.33591 9.27141 1.53686 10.6279 1.74285 11.9793C1.8584 12.7228 2.12969 12.9439 2.90337 12.9489H8.20864C8.3986 12.9756 8.59223 12.9504 8.76909 12.8762C8.94595 12.8019 9.09946 12.6812 9.21342 12.5269C9.22883 12.4916 9.25408 12.4614 9.28614 12.4401C9.31821 12.4187 9.35575 12.407 9.39428 12.4063C9.45958 12.4103 9.52235 12.433 9.57514 12.4716L9.63543 12.5018C10.4069 12.8913 11.2719 13.0577 12.1328 12.9823C12.9938 12.9068 13.8166 12.5925 14.5086 12.0748C14.6539 11.9689 14.7915 11.8531 14.9206 11.7281L15.0864 11.5724V11.296L13.6998 9.90945C12.5979 8.81423 11.4993 7.72236 10.4041 6.63385ZM11.9917 9.19605L12.1524 9.12069L12.494 9.46734L13.4285 10.4018C13.4574 10.4244 13.4806 10.4534 13.4962 10.4866C13.5119 10.5197 13.5197 10.556 13.5189 10.5927C13.5135 10.6293 13.4993 10.664 13.4774 10.6937C13.4555 10.7235 13.4266 10.7475 13.3933 10.7635C13.0634 10.9869 12.6931 11.1439 12.3031 11.2257H12.2228C12.1695 11.2284 12.1173 11.2104 12.0771 11.1755C12.0467 11.1477 12.0232 11.1133 12.0084 11.075C11.9936 11.0366 11.9879 10.9954 11.9917 10.9544V9.19605ZM11.434 9.12069V9.62308C11.434 10.0953 11.434 10.5224 11.434 10.9494C11.438 10.9899 11.4329 11.0308 11.419 11.0691C11.4051 11.1074 11.3827 11.142 11.3536 11.1705C11.312 11.2023 11.2603 11.2184 11.2079 11.2157H11.1275C10.7358 11.1395 10.3644 10.9821 10.0373 10.7535C10.0057 10.7359 9.97845 10.7114 9.95758 10.6818C9.93671 10.6522 9.92276 10.6183 9.91677 10.5827C9.9162 10.5516 9.92217 10.5208 9.93429 10.4923C9.94641 10.4637 9.9644 10.438 9.98711 10.4169L11.3235 9.08552L11.434 9.12069ZM9.63041 10.03C9.60925 10.0551 9.58319 10.0757 9.55381 10.0904C9.52444 10.105 9.49238 10.1136 9.45959 10.1154C9.42278 10.1089 9.3879 10.0942 9.35748 10.0725C9.32706 10.0508 9.30187 10.0225 9.28376 9.98983C9.0581 9.66169 8.90247 9.29058 8.82658 8.89964C8.81676 8.86209 8.81528 8.82285 8.82222 8.78466C8.82916 8.74648 8.84437 8.71027 8.86677 8.67858C8.89139 8.65145 8.92175 8.63015 8.95565 8.61625C8.98955 8.60234 9.02612 8.59617 9.0627 8.5982H10.8613L10.9266 8.75897L10.6101 9.05035L9.63041 10.03ZM10.9165 7.88983L10.8261 8.03552H9.10289C9.05723 8.04389 9.01015 8.03944 8.96686 8.02267C8.92357 8.00589 8.88578 7.97745 8.85768 7.9405C8.82958 7.90356 8.81227 7.85954 8.80766 7.81335C8.80306 7.76716 8.81135 7.72059 8.8316 7.67882C8.90778 7.31 9.05634 6.95995 9.26868 6.64892C9.28803 6.61319 9.31451 6.58182 9.34649 6.55676C9.37847 6.53169 9.41526 6.51347 9.45457 6.50322C9.48739 6.50204 9.52001 6.50871 9.54973 6.52269C9.57944 6.53668 9.60538 6.55756 9.62538 6.58361L10.9165 7.88983ZM0.788299 1.99174C0.788299 1.85107 0.753132 1.73552 0.73806 1.64509C0.702893 1.42906 0.687821 1.32356 0.73806 1.2482C0.788299 1.17284 0.933993 1.16782 1.24045 1.17284H9.9017C10.1378 1.17284 10.2534 1.17284 10.3187 1.2482C10.384 1.32356 10.3739 1.42906 10.3539 1.65011C10.2835 2.37356 10.2534 2.4037 9.53495 2.4037H4.39548C3.39069 2.4037 2.31557 2.4037 1.27562 2.4037C0.949065 2.40872 0.823467 2.31829 0.788299 1.99174ZM1.74787 8.41734C1.52179 6.80466 1.28064 5.2171 0.984232 3.32308C0.968444 3.27019 0.96431 3.21451 0.972116 3.15987C0.979922 3.10522 0.999482 3.05293 1.02945 3.00657C1.06863 2.96959 1.11557 2.94183 1.16686 2.92531C1.21814 2.9088 1.27246 2.90395 1.32586 2.91112H9.81629C9.86426 2.90189 9.91371 2.90389 9.96078 2.91697C10.0078 2.93004 10.0512 2.95383 10.0876 2.98648C10.1117 3.01632 10.128 3.05169 10.135 3.08941C10.142 3.12712 10.1395 3.16599 10.1278 3.2025L9.70074 5.97069L9.60529 5.89031L9.34404 5.60896C9.17323 5.4281 9.02251 5.26734 8.86677 5.10657C8.71103 4.94581 8.65577 4.93074 8.58041 4.93074C8.50002 4.93074 8.41462 4.99102 8.29404 5.12667C7.76295 5.68171 7.38012 6.36151 7.18081 7.1034C6.98151 7.8453 6.97216 8.62542 7.15361 9.37189C7.20385 9.58791 7.22395 9.69342 7.15361 9.77882C7.08328 9.86423 6.97777 9.8793 6.75672 9.91447C6.35809 9.97972 5.95492 10.0133 5.55098 10.0149C4.39648 10.0194 3.26068 9.72338 2.25529 9.15586C2.11727 9.08299 1.999 8.97772 1.91062 8.84909C1.82224 8.72046 1.76639 8.5723 1.74787 8.41734ZM8.78136 12.1903C8.74402 12.2667 8.68222 12.3285 8.60577 12.3658C8.52932 12.4032 8.44259 12.4139 8.35935 12.3963H4.7371C4.11916 12.3963 3.48112 12.3963 2.85313 12.3963C2.78213 12.4088 2.7092 12.4049 2.63995 12.3848C2.5707 12.3648 2.50695 12.3291 2.45361 12.2806C2.40026 12.2321 2.35872 12.1721 2.33218 12.105C2.30565 12.038 2.29481 11.9658 2.3005 11.8939C2.24524 11.4468 2.1749 10.9946 2.10457 10.5525C2.07442 10.3616 2.04428 10.1707 2.01916 9.97978C2.01916 9.97978 2.01916 9.97978 2.01916 9.93959C2.00299 9.90584 1.99769 9.8679 2.00399 9.83101C2.01029 9.79411 2.02787 9.76008 2.05433 9.73361C2.08997 9.70507 2.13427 9.68952 2.17993 9.68952C2.22558 9.68952 2.26988 9.70507 2.30552 9.73361H2.33567C3.84608 10.5059 5.57986 10.7228 7.23399 10.3465C7.3201 10.3195 7.41319 10.3257 7.49499 10.3638C7.57678 10.4019 7.64138 10.4692 7.6761 10.5525C7.9161 10.9848 8.22493 11.3751 8.59045 11.708L8.64572 11.7532C8.70601 11.8638 8.84667 11.9944 8.75624 12.1903H8.78136ZM14.1117 11.08C14.3027 11.1654 14.3529 11.276 14.3629 11.3513C14.373 11.4267 14.3629 11.5422 14.1771 11.6678C13.4829 12.1839 12.6407 12.4623 11.7756 12.4616C11.2965 12.4607 10.821 12.3792 10.3689 12.2205C9.73336 12.0032 9.16135 11.6322 8.70381 11.1405C8.24627 10.6488 7.91739 10.0516 7.74643 9.40203C7.64963 9.07576 7.5989 8.73756 7.59572 8.39724C7.57642 7.51089 7.84819 6.64264 8.3694 5.92547C8.3694 5.92547 8.48495 5.70442 8.57538 5.68432C8.61009 5.67757 8.64589 5.67906 8.67992 5.68865C8.71395 5.69825 8.74525 5.7157 8.77132 5.73959C8.82392 5.76318 8.87011 5.79901 8.90606 5.84408C8.94201 5.88915 8.96666 5.94216 8.97797 5.99869C8.98928 6.05522 8.98691 6.11363 8.97106 6.16906C8.95521 6.22449 8.92635 6.27533 8.88687 6.31734C8.56057 6.78798 8.35415 7.3312 8.28555 7.89977C8.21695 8.46833 8.28824 9.04505 8.49323 9.5798C8.69821 10.1146 9.03069 10.5911 9.46177 10.9682C9.89285 11.3452 10.4095 11.6112 10.9668 11.7432C11.4328 11.8466 11.9148 11.8554 12.3842 11.7691C12.8537 11.6828 13.301 11.5031 13.6998 11.2408L13.7651 11.1905C13.8013 11.1419 13.8514 11.1053 13.9088 11.0856C13.9662 11.0659 14.0281 11.064 14.0866 11.08H14.1117Z"
              fill="currentColor"/>
        <path d="M2.39087 8.99004C3.70786 9.72833 5.23996 9.98753 6.72651 9.72353C6.80187 9.72353 6.8923 9.72353 6.94254 9.68334C6.93451 9.61539 6.92107 9.5482 6.90235 9.48239C6.7067 8.69366 6.71374 7.86826 6.92279 7.08298C7.13185 6.29769 7.53614 5.57805 8.09804 4.991C8.15214 4.91582 8.22105 4.85252 8.30055 4.805C8.38004 4.75748 8.46842 4.72674 8.56025 4.71468C8.74563 4.73038 8.91725 4.8189 9.03752 4.96085C9.19326 5.1166 9.34398 5.27736 9.53991 5.46325L9.88656 3.20248C9.9167 3.20248 9.88656 3.20248 9.8313 3.20248H1.31575C1.27728 3.19976 1.23866 3.19976 1.2002 3.20248C1.20254 3.23928 1.20254 3.2762 1.2002 3.31301C1.49661 5.19698 1.73776 6.78454 1.96383 8.40727C1.97617 8.53378 2.02233 8.65465 2.09747 8.75719C2.1726 8.85972 2.27394 8.94016 2.39087 8.99004Z"
              fill="currentColor"/>
    </symbol>
</svg>
