<svg width="0" height="0">
    <symbol fill="none" xmlns="http://www.w3.org/2000/svg" viewBox="0 0 30 31" id="twitter">
        <path
            d="M24 9.3473C23.3306 9.64846 22.6174 9.84807 21.8738 9.945C22.6388 9.47653 23.2226 8.74038 23.4971 7.85307C22.7839 8.28923 21.9964 8.5973 21.1571 8.76923C20.4799 8.02961 19.5146 7.57153 18.4616 7.57153C16.4186 7.57153 14.7739 9.2723 14.7739 11.3573C14.7739 11.6573 14.7986 11.9458 14.8594 12.2204C11.7915 12.0669 9.07687 10.5588 7.25325 8.26153C6.93487 8.82807 6.74813 9.47653 6.74813 10.1746C6.74813 11.4854 7.40625 12.6473 8.38725 13.32C7.79438 13.3085 7.21275 13.1319 6.72 12.8538C6.72 12.8654 6.72 12.8804 6.72 12.8954C6.72 14.7346 7.99912 16.2623 9.6765 16.6142C9.37612 16.6985 9.04875 16.7388 8.709 16.7388C8.47275 16.7388 8.23425 16.725 8.01037 16.6742C8.4885 18.1731 9.84525 19.275 11.4585 19.3108C10.203 20.3181 8.60887 20.925 6.88312 20.925C6.5805 20.925 6.29025 20.9111 6 20.8731C7.63462 21.9542 9.57188 22.5715 11.661 22.5715C18.4515 22.5715 22.164 16.8023 22.164 11.8015C22.164 11.6342 22.1584 11.4727 22.1505 11.3123C22.8829 10.7792 23.4982 10.1135 24 9.3473Z"
            fill="currentColor" />
    </symbol>
    <symbol fill="none" xmlns="http://www.w3.org/2000/svg" viewBox="0 0 30 31" id="discord">
        <path
            d="M9.40635 19.2804C13.7559 21.0123 17.4573 21.3496 21.6518 18.6539C21.6211 18.7009 20.7913 19.9551 18.6094 20.5979C19.0704 21.2407 19.7004 21.9775 19.7004 21.9775C21.0987 21.9775 22.4662 21.5699 23.6493 20.786C24.5712 20.1589 25.0936 19.0771 24.9861 17.9484C24.8017 16.02 24.3561 14.1387 23.6647 12.3359C22.7888 9.98423 20.6838 8.35377 18.2407 8.1186C18.0256 8.10291 17.8719 8.10291 17.7797 8.10291L17.5339 8.35373C20.3458 9.16898 21.744 10.4388 21.7748 10.4859C17.457 8.25968 12.3557 8.22834 8.00729 10.3918C8.00729 10.3918 9.39018 8.99652 12.4479 8.25968L12.2635 8.07153C11.9408 8.07153 11.6335 8.10291 11.3108 8.14989C9.05213 8.54183 7.16218 10.1253 6.34782 12.3045C5.64098 14.1857 5.18004 16.1611 5.01102 18.1678C4.91884 19.2339 5.41053 20.2843 6.27098 20.8957C7.408 21.6639 8.76018 22.0715 10.1277 22.0715C10.1277 22.0715 10.6808 21.3347 11.234 20.6762C9.15969 20.0491 8.31458 18.7949 8.2992 18.7479L8.6896 18.9513C8.92298 19.073 9.16222 19.1832 9.40635 19.2804ZM11.8179 17.917C10.8192 17.8856 10.0355 17.0234 10.0663 15.9887C10.097 15.0167 10.8653 14.2328 11.8179 14.2014C12.8167 14.2328 13.6003 15.095 13.5696 16.1298C13.5235 17.1018 12.7706 17.8857 11.8179 17.917ZM18.087 17.917C17.0882 17.8856 16.3046 17.0234 16.3353 15.9887C16.3661 15.0167 17.1344 14.2328 18.087 14.2014C19.0858 14.2328 19.8694 15.095 19.8387 16.1298C19.808 17.1018 19.0396 17.8857 18.087 17.917Z"
            fill="currentColor" />
    </symbol>
    <symbol fill="none" xmlns="http://www.w3.org/2000/svg" viewBox="0 0 30 31" id="github">
        <path
            d="M11.8965 24.0715C12.5201 24.0715 12.6964 23.8227 12.6964 23.5047C12.6964 23.1867 12.6964 22.4955 12.6828 21.5139C9.44267 22.219 8.75127 19.9379 8.75127 19.9379C8.22253 18.5969 7.4498 18.2236 7.4498 18.2236C6.39231 17.5047 7.53113 17.5185 7.53113 17.5185C8.69704 17.6015 9.32066 18.7213 9.32066 18.7213C10.3646 20.5186 12.0456 19.9932 12.7099 19.689C12.7642 19.0946 13.0217 18.5278 13.4556 18.113C10.8662 17.8227 8.1412 16.8135 8.1412 12.3342C8.12765 11.1729 8.56148 10.0393 9.34775 9.19599C9.21219 8.90565 8.81905 7.7167 9.44267 6.09918C9.44267 6.09918 10.4188 5.78121 12.6557 7.30198C14.5672 6.77661 16.5736 6.77661 18.4852 7.30198C20.695 5.79507 21.6847 6.09918 21.6847 6.09918C22.3083 7.70289 21.9151 8.89183 21.8067 9.19599C22.593 10.0393 23.0133 11.1729 22.9997 12.3342C22.9997 16.8273 20.2747 17.8088 17.6718 18.0992C18.0785 18.4448 18.4581 19.1637 18.4581 20.2559C18.4581 21.8319 18.4446 23.0761 18.4446 23.4494C18.4446 23.7536 18.5801 24.0024 19.2444 24.0024L11.8965 24.0715Z"
            fill="currentColor" />
    </symbol>
    <symbol fill="none" xmlns="http://www.w3.org/2000/svg" viewBox="0 0 30 31" id="medium">
        <path
            d="M16.5374 15.0717C16.5374 18.9376 13.5069 22.0715 9.76885 22.0715C6.03072 22.0715 3 18.9369 3 15.0717C3 11.2064 6.03051 8.07153 9.76885 8.07153C13.5071 8.07153 16.5374 11.2057 16.5374 15.0717ZM23.9628 15.0717C23.9628 18.7106 22.4476 21.6617 20.5784 21.6617C18.7092 21.6617 17.194 18.7106 17.194 15.0717C17.194 11.4327 18.709 8.48156 20.5782 8.48156C22.4474 8.48156 23.9626 11.4318 23.9626 15.0717H23.9628ZM27 15.0717C27 18.3313 26.4671 20.9753 25.8097 20.9753C25.1522 20.9753 24.6196 18.3319 24.6196 15.0717C24.6196 11.8113 25.1524 9.168 25.8097 9.168C26.4669 9.168 27 11.8111 27 15.0717Z"
            fill="currentColor" />
    </symbol>

    <symbol fill="none" xmlns="http://www.w3.org/2000/svg" viewBox="0 0 92 60" id="vara-logo">
        <g clip-path="url(#clip0_11_1755)">
            <path
                d="M17.9287 22.1352L12.0764 0H7.94296L17.9287 37.7691V52.1831L4.13341 0H0L15.862 60H17.9287H19.9941H22.0608V0H17.9287V22.1352Z"
                fill="currentColor" />
            <path
                d="M91.4937 60L75.6318 0H73.5651H71.4983H69.4316V59.9987H73.5651L84.4745 49.0843L87.3603 59.9987H91.4937V60ZM80.8073 35.2084L73.5663 42.4494V7.81694L80.8073 35.2084ZM73.5651 54.1502V48.2941L82.0285 39.8307L83.2534 44.4619L73.5651 54.1502Z"
                fill="currentColor" />
            <path
                d="M30.7689 0H28.7022H26.6355V59.9987H30.7689L41.6783 49.0843L44.5642 59.9987H48.6976L32.8344 0H30.7689ZM38.0099 35.2083L30.7689 42.4494V7.81694L38.0099 35.2083ZM30.7689 54.1502V48.2941L39.2323 39.8307L40.4572 44.4619L30.7689 54.1502Z"
                fill="currentColor" />
            <path
                d="M65.8568 37.0722L56.0563 0H53.9896H51.9229H49.8562V59.9987H53.9896V48.8725L57.7866 45.0756L61.7322 59.9987L65.8568 59.9685L61.0555 41.8067L62.574 40.2882L65.8568 37.0722ZM53.9896 43.0278V7.81694L61.3516 35.6658L53.9896 43.0278Z"
                fill="currentColor" />
        </g>
        <defs>
            <clipPath id="clip0_11_1755">
                <rect width="91.6667" height="60" fill="white" />
            </clipPath>
        </defs>
    </symbol>
    <symbol fill="none" xmlns="http://www.w3.org/2000/svg" viewBox="0 0 24 25" id="vara-coin">
        <g clip-path="url(#clip0_501_3544)">
            <path
                d="M24 12.1428C24 5.5154 18.6274 0.142822 12 0.142822C5.37258 0.142822 0 5.5154 0 12.1428C0 18.7702 5.37258 24.1428 12 24.1428C18.6274 24.1428 24 18.7702 24 12.1428Z"
                fill="#00FFC4" />
            <path
                d="M15.158 10.5773L12.1687 6.14282H10.0573L15.158 13.7092V16.5968L8.11133 6.14282H6L14.1024 18.1628H15.158H16.213H17.2687V6.14282H15.158V10.5773Z"
                fill="black" />
        </g>
        <defs>
            <clipPath id="clip0_501_3544">
                <rect width="24" height="24" fill="white" transform="translate(0 0.142822)" />
            </clipPath>
        </defs>
    </symbol>
    <symbol fill="none" xmlns="http://www.w3.org/2000/svg" viewBox="0 0 20 20" id="tvara-coin">
        <g clip-path="url(#clip0_323_4990)">
            <mask id="mask0_323_4990" maskUnits="userSpaceOnUse" x="0" y="0" width="20" height="20">
                <path
                    d="M19.9999 10.0002C19.9999 4.6447 15.6584 0.303223 10.3029 0.303223C4.94744 0.303223 0.605957 4.6447 0.605957 10.0002C0.605957 15.3557 4.94744 19.6972 10.3029 19.6972C15.6584 19.6972 19.9999 15.3557 19.9999 10.0002Z"
                    fill="white" />
            </mask>
            <g mask="url(#mask0_323_4990)">
                <path
                    d="M19.9999 10.0002C19.9999 4.6447 15.6584 0.303223 10.3029 0.303223C4.94744 0.303223 0.605957 4.6447 0.605957 10.0002C0.605957 15.3557 4.94744 19.6972 10.3029 19.6972C15.6584 19.6972 19.9999 15.3557 19.9999 10.0002Z"
                    fill="black" />
                <path
                    d="M10.4888 17.0221C14.2702 17.0221 17.3356 13.9568 17.3356 10.1754C17.3356 6.39403 14.2702 3.32861 10.4888 3.32861C6.7075 3.32861 3.64209 6.39403 3.64209 10.1754C3.64209 13.9568 6.7075 17.0221 10.4888 17.0221Z"
                    fill="white" />
                <path
                    d="M15.7676 15.3569C18.7261 12.3984 18.7261 7.60173 15.7676 4.64321C12.809 1.68469 8.01237 1.68469 5.05385 4.64321C2.09533 7.60173 2.09533 12.3984 5.05385 15.3569C8.01237 18.3154 12.809 18.3154 15.7676 15.3569Z"
                    fill="white" />
                <path
                    d="M2.61607 10.372C2.61592 9.04024 3.00421 7.73739 3.73337 6.62303C4.46254 5.50862 5.50092 4.63111 6.72128 4.09799C7.94171 3.56488 9.29104 3.3993 10.6041 3.62154C11.9172 3.84379 13.1369 4.4442 14.1139 5.34924C13.4883 4.67277 12.7324 4.12959 11.8918 3.75224C11.0512 3.37488 10.143 3.17111 9.22177 3.15316C8.3005 3.13519 7.38504 3.30341 6.53036 3.64771C5.67567 3.99202 4.89928 4.50534 4.24772 5.1569C3.59616 5.80845 3.08285 6.58485 2.73854 7.43958C2.39423 8.29424 2.22602 9.20964 2.24398 10.1309C2.26194 11.0522 2.4657 11.9604 2.84306 12.801C3.22042 13.6416 3.7636 14.3974 4.44005 15.0231C3.26556 13.7593 2.61378 12.0973 2.61607 10.372Z"
                    fill="black" />
                <path
                    d="M12.4598 9.28232L10.4641 6.32178H9.05443L12.4598 11.3733V13.3011L7.75528 6.32178H6.3457L11.755 14.3466H12.4598H13.1642H13.869V6.32178H12.4598V9.28232Z"
                    fill="black" />
            </g>
        </g>
        <defs>
            <clipPath id="clip0_323_4990">
                <rect width="19.3939" height="20" fill="white" transform="translate(0.605957)" />
            </clipPath>
        </defs>
    </symbol>
    <symbol fill="none" xmlns="http://www.w3.org/2000/svg" viewBox="0 0 20 20" id="points-coin">
        <path
            d="M9.99 0C4.47 0 0 4.48 0 10C0 15.52 4.47 20 9.99 20C15.52 20 20 15.52 20 10C20 4.48 15.52 0 9.99 0Z"
            fill="#00FFC4" />
        <path
            d="M12.7832 14.6729L10.0998 13.0563L7.41651 14.6729C7.09985 14.8646 6.70818 14.5813 6.79151 14.2229L7.49985 11.1729L5.14151 9.13125C4.86651 8.88958 5.01651 8.43125 5.38318 8.39792L8.49985 8.13125L9.71651 5.25625C9.85818 4.91458 10.3415 4.91458 10.4832 5.25625L11.6998 8.12292L14.8165 8.38958C15.1832 8.42292 15.3332 8.88125 15.0498 9.12292L12.6915 11.1646L13.3998 14.2229C13.4832 14.5813 13.0998 14.8646 12.7832 14.6729V14.6729Z"
            fill="currentColor" />
    </symbol>

    <symbol fill="none" xmlns="http://www.w3.org/2000/svg" viewBox="0 0 16 16" id="close">
        <path
            d="M13.0579 2L8.05845 6.99875L3.06015 2L1.39404 3.66625L6.39235 8.665L1.39404 13.6637L3.06015 15.33L8.05845 10.3312L13.0579 15.33L14.724 13.6637L9.72573 8.665L14.724 3.66625L13.0579 2Z"
            fill="#EB5757" />

    </symbol>
    <symbol fill="none" xmlns="http://www.w3.org/2000/svg" viewBox="0 0 18 18" id="copy">
        <g clip-path="url(#clip0_146_1738)">
            <path
                d="M5.25 4.5V2.25C5.25 2.05109 5.32902 1.86032 5.46967 1.71967C5.61032 1.57902 5.80109 1.5 6 1.5H15C15.1989 1.5 15.3897 1.57902 15.5303 1.71967C15.671 1.86032 15.75 2.05109 15.75 2.25V12.75C15.75 12.9489 15.671 13.1397 15.5303 13.2803C15.3897 13.421 15.1989 13.5 15 13.5H12.75V15.75C12.75 16.164 12.4125 16.5 11.9948 16.5H3.00525C2.90635 16.5006 2.8083 16.4816 2.71674 16.4442C2.62519 16.4068 2.54192 16.3517 2.47174 16.282C2.40156 16.2123 2.34584 16.1294 2.30779 16.0381C2.26974 15.9468 2.2501 15.8489 2.25 15.75L2.25225 5.25C2.25225 4.836 2.58975 4.5 3.0075 4.5H5.25ZM3.75225 6L3.75 15H11.25V6H3.75225ZM6.75 4.5H12.75V12H14.25V3H6.75V4.5Z"
                fill="#0ED3A3" />
        </g>
        <defs>
            <clipPath id="clip0_146_1738">
                <rect width="18" height="18" fill="white" />
            </clipPath>
        </defs>
    </symbol>
    <symbol fill="none" xmlns="http://www.w3.org/2000/svg" viewBox="0 0 12 13" id="edit">
        <path
            d="M4.23649 10.999L1.51468 8.27721L8.09785 1.69404L10.8197 4.41585L4.23649 10.999ZM1.26026 8.75666L3.75704 11.2534L0.0136719 12.5L1.26026 8.75666ZM11.6568 3.5823L11.1847 4.05439L8.45931 1.32898L8.93141 0.856884C9.40696 0.381039 10.1781 0.381039 10.6537 0.856884L11.6568 1.86C12.1289 2.33715 12.1289 3.1053 11.6568 3.5823Z"
            fill="currentColor" />
    </symbol>
    <symbol fill="none" xmlns="http://www.w3.org/2000/svg" viewBox="0 0 24 24" id="delete">
        <path fill-rule="evenodd" clip-rule="evenodd"
            d="M20 12C20 16.4183 16.4183 20 12 20C7.58172 20 4 16.4183 4 12C4 7.58172 7.58172 4 12 4C16.4183 4 20 7.58172 20 12ZM16 14.6667L13.3333 12L16 9.33333L14.6667 8L12 10.6667L9.33333 8L8 9.33333L10.6667 12L8 14.6667L9.33333 16L12 13.3333L14.6667 16L16 14.6667Z"
            fill="#5F5F5F" />
    </symbol>
    <symbol fill="none" xmlns="http://www.w3.org/2000/svg" viewBox="0 0 14 14" id="exit">
        <path
            d="M13.8896 7.29076L10.3896 11.2283C10.3311 11.2952 10.2533 11.3425 10.167 11.3636C10.0806 11.3847 9.98983 11.3787 9.90701 11.3464C9.82422 11.3147 9.75297 11.2586 9.70263 11.1857C9.65229 11.1127 9.62523 11.0262 9.625 10.9375V8.3125H4.8125C4.69647 8.3125 4.58519 8.26641 4.50314 8.18436C4.42109 8.10231 4.375 7.99103 4.375 7.875V6.125C4.375 6.00897 4.42109 5.89769 4.50314 5.81564C4.58519 5.73359 4.69647 5.6875 4.8125 5.6875H9.625V3.0625C9.62496 2.97375 9.65191 2.88709 9.70228 2.81402C9.75264 2.74095 9.82404 2.68492 9.90699 2.65337C9.98994 2.62183 10.0805 2.61626 10.1667 2.6374C10.2529 2.65854 10.3306 2.70539 10.3896 2.77174L13.8896 6.70924C13.9607 6.78939 14 6.89284 14 7C14 7.10716 13.9607 7.21061 13.8896 7.29076ZM4.8125 11.375H2.625V2.625H4.8125C4.92853 2.625 5.03981 2.57891 5.12186 2.49686C5.20391 2.41481 5.25 2.30353 5.25 2.1875V0.4375C5.25 0.321468 5.20391 0.210188 5.12186 0.128141C5.03981 0.0460937 4.92853 0 4.8125 0H0.4375C0.321468 0 0.210188 0.0460937 0.128141 0.128141C0.0460937 0.210188 0 0.321468 0 0.4375V13.5625C0 13.6785 0.0460937 13.7898 0.128141 13.8719C0.210188 13.9539 0.321468 14 0.4375 14H4.8125C4.92853 14 5.03981 13.9539 5.12186 13.8719C5.20391 13.7898 5.25 13.6785 5.25 13.5625V11.8125C5.25 11.6965 5.20391 11.5852 5.12186 11.5031C5.03981 11.4211 4.92853 11.375 4.8125 11.375Z"
            fill="currentColor" />
    </symbol>
    <symbol fill="none" xmlns="http://www.w3.org/2000/svg" viewBox="0 0 24 24" id="user">
        <path fill-rule="evenodd" clip-rule="evenodd"
            d="M9 9C9 7.3425 10.3425 6 12 6C13.6575 6 15 7.3425 15 9C15 10.6575 13.6575 12 12 12C10.3425 12 9 10.6575 9 9ZM6 16.5C6 14.505 9.9975 13.5 12 13.5C14.0025 13.5 18 14.505 18 16.5V18H6V16.5Z"
            fill="#0C0C0D" fill-opacity="0.5" />
    </symbol>
    <symbol fill="none" xmlns="http://www.w3.org/2000/svg" viewBox="0 0 24 24" id="gear-logo">
        <path
            d="M22.9805 4C22.4141 4.18545 21.8396 4.36284 21.257 4.52411C15.4148 6.08031 9.50783 5.78197 4.17539 4L3.13965 10.5957L5.2354 11.1601L7.16932 7.62845C7.68719 7.73327 8.20506 7.82196 8.73102 7.90259L9.32981 11.8778L11.4903 12.0632L12.7769 8.24931C13.3028 8.26544 13.8369 8.26544 14.3629 8.24931L15.6494 12.0632L17.8099 11.8778L18.4087 7.89453C18.9266 7.8139 19.4445 7.7252 19.9704 7.62038L21.9043 11.1601L24.0001 10.6038L22.9805 4Z"
            fill="currentColor" />
        <path
            d="M18.7728 12.0789L16.8389 15.6186C16.321 15.5138 15.8031 15.4251 15.2772 15.3445L14.6784 11.3612L12.5098 11.1758L11.2232 14.9897C10.6892 14.9736 10.1632 14.9736 9.63723 14.9897L8.35065 11.1758L6.19016 11.3612L5.59137 15.3364C5.06541 15.417 4.54754 15.5057 4.02967 15.6105L2.09575 12.0789L0 12.6433L1.03574 19.2309C6.36818 17.449 12.2751 17.1506 18.1173 18.7149C18.6999 18.8681 19.2745 19.0455 19.8409 19.239L20.8766 12.6433L18.7728 12.0789Z"
            fill="currentColor" />
    </symbol>
    <symbol fill="none" xmlns="http://www.w3.org/2000/svg" viewBox="0 0 24 24" id="burger-menu">
        <path d="M4 6H20M4 12H20M4 18H20" stroke="currentColor" stroke-width="2"
            stroke-linecap="round"
            stroke-linejoin="round" />
    </symbol>
    <symbol fill="none" xmlns="http://www.w3.org/2000/svg" viewBox="0 0 32 32" id="vara-sign1">
        <rect width="32" height="32" rx="16" fill="#00FFC4" />
        <g clip-path="url(#clip0_798_1556)">
            <path d="M22.2369 5.33325H19.833V26.0844H22.2369V5.33325Z" fill="currentColor" />
            <path
                d="M15.3082 5.39648L13.0576 6.24121L19.9091 24.495L22.1597 23.6503L15.3082 5.39648Z"
                fill="currentColor" />
            <path d="M10.2505 5.39599L8 6.24072L15.6668 26.6666L17.9173 25.8219L10.2505 5.39599Z"
                fill="currentColor" />
        </g>
        <defs>
            <clipPath id="clip0_798_1556">
                <rect width="16" height="16" fill="white" transform="translate(8 8)" />
            </clipPath>
        </defs>
    </symbol>
    <symbol fill="none" xmlns="http://www.w3.org/2000/svg" viewBox="0 0 16 16" id="vara-sign">
        <g clip-path="url(#clip0_896_1752)">
            <path d="M14.2369 -2.66675H11.833V18.0844H14.2369V-2.66675Z" fill="currentColor" />
            <path
                d="M7.30815 -2.60352L5.05762 -1.75879L11.9091 16.495L14.1597 15.6503L7.30815 -2.60352Z"
                fill="currentColor" />
            <path d="M2.25053 -2.60401L0 -1.75928L7.66679 18.6666L9.91733 17.8219L2.25053 -2.60401Z"
                fill="currentColor" />
        </g>
        <defs>
            <clipPath id="clip0_896_1752">
                <rect width="16" height="16" fill="white" />
            </clipPath>
        </defs>
    </symbol>
    <symbol viewBox="0 0 13 14" fill="none" xmlns="http://www.w3.org/2000/svg" id="domino">
        <path fill-rule="evenodd" clip-rule="evenodd"
            d="M6.64138 1.48457C7.42243 0.703517 8.68876 0.703517 9.46981 1.48457L12.0154 4.03015C12.7964 4.8112 12.7964 6.07753 12.0154 6.85858L9.4698 9.40417L4.09579 4.03015L6.64138 1.48457ZM3.53011 4.59584L8.90412 9.96985L6.35854 12.5154C5.57749 13.2965 4.31116 13.2965 3.53011 12.5154L0.984525 9.96985C0.203476 9.1888 0.203478 7.92247 0.984526 7.14142L3.53011 4.59584ZM4.87361 9.61629C5.16651 9.3234 5.16651 8.84853 4.87361 8.55563C4.58072 8.26274 4.10585 8.26274 3.81295 8.55563C3.52006 8.84853 3.52006 9.3234 3.81295 9.61629C4.10585 9.90919 4.58072 9.90919 4.87361 9.61629ZM8.05559 3.25233C8.34849 3.54523 8.34849 4.0201 8.05559 4.31299C7.7627 4.60589 7.28783 4.60589 6.99493 4.31299C6.70204 4.0201 6.70204 3.54523 6.99493 3.25233C7.28783 2.95944 7.7627 2.95944 8.05559 3.25233ZM10.1769 6.43431C10.4698 6.14142 10.4698 5.66655 10.1769 5.37365C9.88402 5.08076 9.40915 5.08076 9.11625 5.37365C8.82336 5.66655 8.82336 6.14142 9.11625 6.43431C9.40915 6.72721 9.88402 6.72721 10.1769 6.43431Z"
            fill="black" />
    </symbol>
    <symbol viewBox="0 0 16 14" fill="none" xmlns="http://www.w3.org/2000/svg" id="shot">
        <path
            d="M10.8008 6.82363C10.7314 6.76997 10.6773 6.69907 10.6438 6.61797C10.6103 6.53688 10.5986 6.44844 10.6099 6.36143C10.7506 5.46215 10.8812 4.56287 11.0168 3.66861L11.3635 1.3777C11.4037 1.1265 11.3936 0.990857 11.3283 0.920522C11.263 0.850187 11.1374 0.81502 10.8963 0.81502H0.958951C0.877735 0.803702 0.794983 0.812435 0.717919 0.840459C0.640855 0.868482 0.571822 0.914943 0.516846 0.975785V1.47818L0.702731 2.6789C0.838377 3.52794 0.968999 4.38201 1.09962 5.23105C1.24699 6.18895 1.38933 7.14684 1.52665 8.10474C1.73264 9.46119 1.93359 10.8177 2.13957 12.1691C2.25512 12.9126 2.52642 13.1337 3.3001 13.1387H8.60536C8.79533 13.1654 8.98896 13.1402 9.16582 13.066C9.34268 12.9917 9.49619 12.871 9.61015 12.7167C9.62556 12.6814 9.6508 12.6512 9.68287 12.6298C9.71494 12.6085 9.75248 12.5968 9.79101 12.5961C9.85631 12.6001 9.91908 12.6228 9.97187 12.6614L10.0322 12.6916C10.8037 13.0811 11.6686 13.2475 12.5296 13.1721C13.3905 13.0966 14.2134 12.7823 14.9054 12.2645C15.0506 12.1587 15.1882 12.0429 15.3173 11.9179L15.4831 11.7622V11.4858L14.0965 10.0992C12.9946 9.00402 11.896 7.91215 10.8008 6.82363ZM12.3884 9.38584L12.5491 9.31048L12.8908 9.65713L13.8252 10.5916C13.8541 10.6142 13.8773 10.6432 13.893 10.6764C13.9087 10.7095 13.9164 10.7458 13.9157 10.7825C13.9103 10.8191 13.896 10.8538 13.8741 10.8835C13.8522 10.9133 13.8234 10.9373 13.7901 10.9533C13.4601 11.1767 13.0898 11.3337 12.6999 11.4155H12.6195C12.5662 11.4182 12.514 11.4002 12.4738 11.3653C12.4434 11.3375 12.42 11.3031 12.4051 11.2648C12.3903 11.2264 12.3846 11.1851 12.3884 11.1442V9.38584ZM11.8307 9.31048V9.81287C11.8307 10.2851 11.8307 10.7122 11.8307 11.1392C11.8348 11.1797 11.8297 11.2206 11.8157 11.2589C11.8018 11.2971 11.7795 11.3318 11.7503 11.3602C11.7087 11.3921 11.657 11.4081 11.6046 11.4055H11.5243C11.1325 11.3293 10.7612 11.1719 10.4341 10.9433C10.4024 10.9257 10.3752 10.9012 10.3543 10.8716C10.3334 10.842 10.3195 10.8081 10.3135 10.7724C10.3129 10.7414 10.3189 10.7106 10.331 10.6821C10.3431 10.6535 10.3611 10.6278 10.3838 10.6067L11.7202 9.27531L11.8307 9.31048ZM10.0271 10.2198C10.006 10.2449 9.97992 10.2655 9.95054 10.2801C9.92117 10.2948 9.88911 10.3034 9.85632 10.3052C9.81951 10.2987 9.78463 10.284 9.75421 10.2623C9.72379 10.2406 9.6986 10.2123 9.68048 10.1796C9.45482 9.85148 9.2992 9.48037 9.22331 9.08943C9.21349 9.05188 9.212 9.01264 9.21895 8.97445C9.22589 8.93627 9.24109 8.90006 9.2635 8.86837C9.28812 8.84124 9.31848 8.81994 9.35238 8.80603C9.38628 8.79213 9.42285 8.78596 9.45943 8.78799H11.258L11.3233 8.94876L11.0068 9.24014L10.0271 10.2198ZM11.3133 8.07962L11.2228 8.22531H9.49962C9.45396 8.23368 9.40687 8.22923 9.36359 8.21245C9.3203 8.19568 9.28251 8.16724 9.25441 8.13029C9.22631 8.09334 9.20899 8.04933 9.20439 8.00314C9.19979 7.95694 9.20807 7.91038 9.22833 7.86861C9.30451 7.49979 9.45307 7.14974 9.66541 6.83871C9.68476 6.80298 9.71124 6.77161 9.74322 6.74655C9.77519 6.72148 9.81198 6.70326 9.8513 6.69301C9.88412 6.69182 9.91674 6.6985 9.94646 6.71248C9.97617 6.72647 10.0021 6.74735 10.0221 6.7734L11.3133 8.07962ZM1.18503 2.18153C1.18503 2.04086 1.14986 1.92531 1.13479 1.83488C1.09962 1.61885 1.08455 1.51335 1.13479 1.43799C1.18503 1.36263 1.33072 1.3576 1.63718 1.36263H10.2984C10.5346 1.36263 10.6501 1.36263 10.7154 1.43799C10.7807 1.51335 10.7707 1.61885 10.7506 1.8399C10.6802 2.56335 10.6501 2.59349 9.93168 2.59349H4.79221C3.78742 2.59349 2.7123 2.59349 1.67235 2.59349C1.34579 2.59851 1.2202 2.50808 1.18503 2.18153ZM2.1446 8.60713C1.91852 6.99445 1.67737 5.40689 1.38096 3.51287C1.36517 3.45998 1.36104 3.40429 1.36884 3.34965C1.37665 3.29501 1.39621 3.24271 1.42618 3.19636C1.46536 3.15938 1.5123 3.13162 1.56358 3.1151C1.61487 3.09859 1.66919 3.09374 1.72259 3.10091H10.213C10.261 3.09168 10.3104 3.09368 10.3575 3.10676C10.4046 3.11983 10.448 3.14362 10.4843 3.17626C10.5084 3.20611 10.5247 3.24148 10.5317 3.2792C10.5387 3.31691 10.5363 3.35578 10.5245 3.39229L10.0975 6.16048L10.002 6.08009L9.74077 5.79875C9.56996 5.61789 9.41924 5.45713 9.2635 5.29636C9.10776 5.1356 9.05249 5.12052 8.97713 5.12052C8.89675 5.12052 8.81135 5.18081 8.69077 5.31646C8.15968 5.8715 7.77684 6.5513 7.57754 7.29319C7.37824 8.03509 7.36889 8.81521 7.55034 9.56167C7.60058 9.7777 7.62068 9.88321 7.55034 9.96861C7.48001 10.054 7.3745 10.0691 7.15345 10.1043C6.75482 10.1695 6.35164 10.2031 5.94771 10.2047C4.7932 10.2092 3.65741 9.91317 2.65201 9.34565C2.514 9.27278 2.39573 9.16751 2.30735 9.03888C2.21897 8.91025 2.16312 8.76209 2.1446 8.60713ZM9.17809 12.3801C9.14075 12.4565 9.07895 12.5183 9.0025 12.5556C8.92604 12.593 8.83932 12.6037 8.75608 12.5861H5.13383C4.51589 12.5861 3.87785 12.5861 3.24986 12.5861C3.17886 12.5986 3.10593 12.5946 3.03668 12.5746C2.96742 12.5545 2.90368 12.5189 2.85033 12.4704C2.79699 12.4219 2.75545 12.3618 2.72891 12.2948C2.70237 12.2278 2.69154 12.1556 2.69723 12.0837C2.64197 11.6366 2.57163 11.1844 2.5013 10.7423C2.47115 10.5514 2.44101 10.3605 2.41589 10.1696C2.41589 10.1696 2.41589 10.1696 2.41589 10.1294C2.39972 10.0956 2.39442 10.0577 2.40072 10.0208C2.40701 9.9839 2.4246 9.94987 2.45106 9.9234C2.4867 9.89486 2.531 9.87931 2.57665 9.87931C2.62231 9.87931 2.66661 9.89486 2.70225 9.9234H2.7324C4.24281 10.6957 5.97659 10.9126 7.63072 10.5363C7.71683 10.5093 7.80992 10.5155 7.89171 10.5536C7.97351 10.5917 8.03811 10.659 8.07283 10.7423C8.31283 11.1746 8.62166 11.5648 8.98718 11.8978L9.04245 11.943C9.10273 12.0535 9.2434 12.1842 9.15297 12.3801H9.17809ZM14.5085 11.2698C14.6994 11.3552 14.7496 11.4657 14.7597 11.5411C14.7697 11.6165 14.7597 11.732 14.5738 11.8576C13.8796 12.3737 13.0374 12.6521 12.1724 12.6514C11.6932 12.6505 11.2177 12.569 10.7657 12.4102C10.1301 12.193 9.55807 11.822 9.10053 11.3303C8.64299 10.8386 8.31411 10.2414 8.14316 9.59182C8.04636 9.26555 7.99563 8.92735 7.99245 8.58703C7.97315 7.70068 8.24492 6.83243 8.76613 6.11526C8.76613 6.11526 8.88168 5.89421 8.97211 5.87411C9.00682 5.86736 9.04262 5.86884 9.07665 5.87844C9.11068 5.88804 9.14198 5.90548 9.16805 5.92938C9.22064 5.95297 9.26684 5.9888 9.30279 6.03387C9.33874 6.07894 9.36339 6.13195 9.3747 6.18848C9.386 6.24501 9.38363 6.30342 9.36779 6.35885C9.35194 6.41428 9.32307 6.46512 9.2836 6.50713C8.9573 6.97777 8.75088 7.52099 8.68228 8.08955C8.61368 8.65812 8.68497 9.23484 8.88995 9.76959C9.09494 10.3043 9.42742 10.7809 9.8585 11.158C10.2896 11.535 10.8062 11.801 11.3635 11.933C11.8295 12.0363 12.3115 12.0451 12.7809 11.9589C13.2504 11.8726 13.6978 11.6929 14.0965 11.4306L14.1618 11.3803C14.1981 11.3317 14.2482 11.2951 14.3055 11.2754C14.3629 11.2557 14.4249 11.2537 14.4834 11.2698H14.5085Z"
            fill="#353535" />
        <path
            d="M2.78759 9.17983C4.10458 9.91812 5.63669 10.1773 7.12324 9.91332C7.1986 9.91332 7.28903 9.91332 7.33927 9.87313C7.33124 9.80518 7.3178 9.73798 7.29908 9.67217C7.10343 8.88345 7.11046 8.05804 7.31952 7.27276C7.52858 6.48748 7.93287 5.76784 8.49477 5.18079C8.54887 5.10561 8.61778 5.04231 8.69727 4.99479C8.77677 4.94727 8.86515 4.91653 8.95697 4.90447C9.14236 4.92017 9.31398 5.00869 9.43425 5.15064C9.58999 5.30638 9.74071 5.46715 9.93664 5.65303L10.2833 3.39227C10.3134 3.39227 10.2833 3.39227 10.228 3.39227H1.71247C1.67401 3.38955 1.63539 3.38955 1.59692 3.39227C1.59927 3.42907 1.59927 3.46599 1.59692 3.50279C1.89334 5.38677 2.13448 6.97433 2.36056 8.59705C2.3729 8.72357 2.41906 8.84444 2.49419 8.94698C2.56933 9.04951 2.67067 9.12994 2.78759 9.17983Z"
            fill="#353535" />
    </symbol>
    <symbol fill="none" xmlns="http://www.w3.org/2000/svg" viewBox="0 0 44 36" id="train">
        <path fill-rule="evenodd" clip-rule="evenodd"
            d="M10.4906 14.2812H12.364C12.7136 14.2812 12.9884 14.5576 12.9884 14.9094V18.6534C12.9884 19.0052 12.7136 19.2816 12.364 19.2816H10.4906C10.141 19.2816 9.86621 19.0052 9.86621 18.6534V14.9094C9.86621 14.5576 10.1659 14.2812 10.4906 14.2812Z"
            fill="currentColor" />
        <path fill-rule="evenodd" clip-rule="evenodd"
            d="M8.71704 11.3664H11.4396H14.1372V13.8791L12.9882 15.8894H11.4396H9.86601L8.71704 13.8791V11.3664Z"
            fill="currentColor" />
        <path fill-rule="evenodd" clip-rule="evenodd"
            d="M8.69216 11.8438H14.1872C14.3121 11.8438 14.412 11.7433 14.412 11.6177V10.9392H8.44238V11.6177C8.44238 11.7433 8.54229 11.8438 8.69216 11.8438Z"
            fill="#5CA247" />
        <path fill-rule="evenodd" clip-rule="evenodd"
            d="M14.1372 13.8791H8.71704L9.86601 15.8893H12.9882L14.1372 13.8791Z" fill="#F8B247" />
        <path d="M14.412 10.9643H8.44238V11.3413H14.412V10.9643Z" fill="#A9E37B" />
        <path fill-rule="evenodd" clip-rule="evenodd"
            d="M17.0098 15.9899H18.5085C18.7832 15.9899 19.008 16.216 19.008 16.4924V19.1811C19.008 19.4575 18.7832 19.6836 18.5085 19.6836H17.0098C16.7351 19.6836 16.5103 19.4575 16.5103 19.1811V16.4924C16.5103 16.216 16.7351 15.9899 17.0098 15.9899Z"
            fill="#F8B247" />
        <path fill-rule="evenodd" clip-rule="evenodd"
            d="M16.4603 15.9396H19.0579C19.1079 15.9396 19.1578 15.9899 19.1578 16.0401V16.5175C19.1578 16.5678 19.1079 16.6181 19.0579 16.6181H16.4603C16.4103 16.6181 16.3604 16.5678 16.3604 16.5175V16.0401C16.3604 15.9647 16.4103 15.9396 16.4603 15.9396Z"
            fill="currentColor" />
        <path fill-rule="evenodd" clip-rule="evenodd"
            d="M21.5057 15.9647H23.0043C23.2791 15.9647 23.5039 16.1909 23.5039 16.4673V19.1559C23.5039 19.4323 23.2791 19.6585 23.0043 19.6585H21.5057C21.2309 19.6585 21.0061 19.4323 21.0061 19.1559V16.4673C21.0061 16.1909 21.2309 15.9647 21.5057 15.9647Z"
            fill="#F8B247" />
        <path fill-rule="evenodd" clip-rule="evenodd"
            d="M20.9561 15.9145H23.5538C23.6037 15.9145 23.6537 15.9647 23.6537 16.015V16.4924C23.6537 16.5427 23.6037 16.5929 23.5538 16.5929H20.9561C20.9062 16.5929 20.8562 16.5427 20.8562 16.4924V16.015C20.8562 15.9396 20.9062 15.9145 20.9561 15.9145Z"
            fill="currentColor" />
        <path fill-rule="evenodd" clip-rule="evenodd"
            d="M6.99362 17.5478H40.2387V24.5584H6.99362C6.54402 24.5584 6.19434 24.1815 6.19434 23.7543V18.377C6.19434 17.9247 6.54402 17.5478 6.99362 17.5478Z"
            fill="currentColor" />
        <path opacity="0.5" fill-rule="evenodd" clip-rule="evenodd"
            d="M40.2387 23.7543V24.5835H6.99362C6.54402 24.5835 6.19434 24.2066 6.19434 23.7543H40.2387Z"
            fill="white" />
        <path d="M41.2878 27.0963H39.6892V29.4331H41.2878V27.0963Z" fill="#221806" />
        <path opacity="0.5" fill-rule="evenodd" clip-rule="evenodd"
            d="M7.2934 17.8493H25.7268C25.8517 17.8493 25.9516 17.9498 25.9516 18.0755C25.9516 18.2011 25.8517 18.3016 25.7268 18.3016H7.2934C7.16851 18.3016 7.0686 18.2011 7.0686 18.0755C7.0686 17.9247 7.16851 17.8493 7.2934 17.8493Z"
            fill="white" />
        <path fill-rule="evenodd" clip-rule="evenodd"
            d="M4.89559 30.2623H0.274753C0.124888 30.2623 0 30.1367 0 29.9859V29.7095C0 29.5588 0.124888 29.4331 0.274753 29.4331H4.92057C5.07044 29.4331 5.19532 29.5588 5.19532 29.7095V29.9859C5.17035 30.1367 5.04546 30.2623 4.89559 30.2623Z"
            fill="#5CA247" />
        <path
            d="M42.3547 9.41678C42.3547 9.70558 38.954 9.92773 34.7583 9.92773C30.5626 9.92773 27.1619 9.70558 27.1619 9.41678L28.8401 25.0785L29.2155 29.3661C29.2597 29.9215 29.9001 30.3658 30.6288 30.3658H38.8877C39.6164 30.3658 40.2347 29.9215 40.301 29.3661L40.6764 25.0785L42.3547 9.41678Z"
            fill="#ECECEC" />
        <path
            d="M42.3547 9.41676C42.3547 9.70556 38.954 9.92771 34.7583 9.92771C30.5626 9.92771 27.1619 9.70556 27.1619 9.41676C27.1619 9.12796 30.5626 8.90581 34.7583 8.90581C38.954 8.92802 42.3547 9.15018 42.3547 9.41676Z"
            fill="#C6C6C5" />
        <path
            d="M31.3574 10.5498C34.1619 13.2156 38.6005 13.1712 41.3387 10.4165C44.0991 7.63955 44.1432 3.17428 41.4712 0.352936L31.3574 10.5498Z"
            fill="#75991B" />
        <path
            d="M31.4458 10.4387C34.2061 13.0601 38.5564 13.0156 41.2505 10.3054C43.9445 7.59511 43.9887 3.2187 41.383 0.441788L31.4458 10.4387Z"
            fill="#8EAC14" />
        <path
            d="M31.6003 10.2832C31.8653 10.5497 32.1745 10.7941 32.4836 10.9941C32.5499 11.0385 32.6382 11.1273 32.7045 11.1273C32.7486 11.1496 32.7928 11.1051 32.859 11.1051C32.9915 11.1051 33.0578 11.1273 33.1461 11.2162C33.3228 11.3939 33.4332 11.5494 33.6761 11.6161C33.8748 11.6827 34.0736 11.7716 34.2944 11.8382C34.714 11.9715 35.1336 12.0604 35.5531 12.1048C35.796 12.127 36.0389 12.1492 36.2598 12.1492C36.3481 12.1492 36.4585 12.1715 36.5248 12.1492C36.6131 12.1048 36.6572 11.9937 36.7677 11.9715C36.9664 11.9493 37.121 12.0826 37.3197 12.0826C37.5626 12.0604 37.8276 11.9937 38.0484 11.9271C38.6447 11.7716 39.1967 11.5272 39.7267 11.2162C39.9917 11.0607 40.2346 10.883 40.4775 10.7053C40.5879 10.6164 40.6984 10.5497 40.7646 10.4165C40.8088 10.3498 40.8088 10.2387 40.8529 10.1721C40.9413 10.061 41.0738 10.0832 41.1842 10.0166C41.3608 9.92772 41.4271 9.75 41.5375 9.61671C41.8025 9.28348 42.0454 8.92803 42.2441 8.55037C42.465 8.1505 42.6195 7.75062 42.752 7.30632C42.8183 7.10638 42.9287 6.86201 42.9287 6.63986C42.9287 6.48435 42.8183 6.37328 42.8845 6.21777C43.0391 5.81789 43.0833 5.50688 43.0612 5.06258C43.0391 4.55162 42.9287 4.04067 42.8624 3.52972C42.8404 3.37421 42.8183 3.24092 42.73 3.10763C42.6195 2.92991 42.3987 2.75219 42.3766 2.53003C42.3766 2.46339 42.3987 2.39674 42.3987 2.30788C42.3766 2.21902 42.3104 2.13016 42.2662 2.06351C42.1558 1.86357 42.0454 1.68585 41.935 1.50813C41.7142 1.1749 41.4712 0.863887 41.2063 0.575089L31.6003 10.2832Z"
            fill="#F4F5D8" />
        <path
            d="M31.8875 9.99437C34.4049 12.3936 38.3576 12.3492 40.8309 9.8833C43.2821 7.4174 43.3262 3.41865 40.9413 0.886108L31.8875 9.99437Z"
            fill="#80A61D" />
        <path opacity="0.2"
            d="M39.0642 3.44087C39.2629 3.66302 39.7929 3.39644 39.8371 3.75188C39.8591 4.0629 39.3512 4.12954 39.4175 4.48499C39.5279 5.06258 40.3891 5.10701 40.2787 5.77347C40.2125 6.15113 39.7046 6.01784 39.55 6.32885C39.3954 6.63987 39.7929 6.90645 39.7929 7.21747C39.7708 7.61734 39.3071 8.10608 38.9317 8.12829C38.7992 8.12829 38.6004 8.17272 38.4679 8.17272C38.3134 8.15051 38.2471 8.03943 38.1146 7.995C37.6951 7.83949 37.5626 8.35044 37.4521 8.63924C37.3197 8.99469 37.0326 9.46121 36.5688 9.21684C36.4143 9.12798 36.4143 8.92804 36.2597 8.81697C36.0168 8.61703 35.7739 9.08355 35.5972 9.17241C35.266 9.32792 34.8022 8.97247 34.7581 8.61703C34.736 8.43931 34.7802 8.32823 34.6035 8.21715C34.2502 7.995 34.0293 8.5726 33.676 8.23937L31.9094 10.0166C34.4268 12.4158 38.3796 12.3714 40.8529 9.90551C43.304 7.43962 43.3482 3.44087 40.9633 0.908325C40.367 1.50814 39.7487 2.13017 39.1967 2.68555C39.1967 2.70776 38.7992 3.12985 39.0642 3.44087Z"
            fill="#80A61D" />
        <path opacity="0.2"
            d="M40.3229 1.99687C40.2787 2.08574 40.2566 2.1746 40.1683 2.26346C40.0579 2.39675 39.6383 2.66333 39.9254 2.81884C40.1241 2.9077 40.367 2.68555 40.5879 2.72998C40.8749 2.79662 41.0516 3.37422 40.9633 3.6408C40.8529 3.9296 40.5216 4.04068 40.2566 4.08511C40.1021 4.10733 39.7046 4.10733 39.815 4.35169C39.8812 4.52942 40.4333 4.52942 40.61 4.52942C41.2503 4.52942 41.3387 5.17366 41.3828 5.64018C41.4049 5.90676 41.5816 6.23999 41.2945 6.41771C41.0295 6.59544 40.632 6.46215 40.4333 6.77316C40.3008 6.9731 40.4112 7.06196 40.4995 7.23968C40.632 7.50626 40.7424 7.97278 40.5658 8.23937C40.4775 8.37266 40.345 8.46152 40.2566 8.59481C40.1462 8.79475 40.0579 9.0169 39.9033 9.19462C39.7046 9.43899 39.3292 9.46121 39.0421 9.41678C38.8433 9.37235 38.6446 9.26127 38.4459 9.23906C38.1809 9.21684 38.1146 9.46121 37.9821 9.66115C37.8496 9.86108 37.6951 10.1721 37.4963 10.3054C37.3417 10.4165 37.0326 10.3943 36.8338 10.4165C36.3039 10.4609 36.2818 9.50564 35.7518 9.68336C35.3543 9.81665 35.1335 10.2832 34.6477 10.1721C34.1398 10.0388 34.0514 9.5945 33.7202 9.26127C33.5877 9.12798 33.4773 9.17241 33.3227 9.19462C33.1019 9.23906 33.0356 9.21684 32.859 9.03912L31.9094 9.99438C34.4268 12.3936 38.3796 12.3492 40.8529 9.8833C41.4712 9.26127 41.957 8.50595 42.2882 7.7062C43.1494 5.50689 42.752 2.57447 40.9854 0.908325C40.7866 1.13048 40.5879 1.28598 40.4995 1.57478C40.3891 1.70808 40.367 1.86358 40.3229 1.99687Z"
            fill="#80A61D" />
        <path
            d="M35.9285 5.92898C35.9505 5.97341 35.9726 6.01784 35.9947 6.04006C36.2155 6.21778 36.348 5.99562 36.5909 5.97341C36.8339 5.95119 36.9663 6.15113 37.1872 5.92898C37.3418 5.75126 37.2976 5.44024 37.2976 5.19587C37.2976 4.97372 37.3197 4.86265 37.1209 4.70714L35.9285 5.92898Z"
            fill="#F4F5D8" />
        <path
            d="M32.9915 10.9274C33.0798 10.883 33.146 10.883 33.2344 10.8386C33.3669 10.7719 33.4773 10.6386 33.5656 10.5275C33.8085 10.3276 34.0293 10.1055 34.206 9.86108C34.5814 9.37235 34.9568 8.88361 35.288 8.39487C35.4868 8.12829 35.553 7.83949 35.6855 7.52848C35.9064 7.01753 36.0388 6.50657 36.2597 5.99562C36.5247 5.88455 36.2376 6.46214 36.2155 6.66208C36.1713 6.9731 36.1051 7.30632 35.9726 7.59512C35.9064 7.75063 35.7739 7.88392 35.7076 8.06164C35.6414 8.19494 35.6193 8.35044 35.5751 8.48373C35.4426 8.77253 35.1776 9.06133 34.9789 9.3057C34.7139 9.63893 34.4931 10.0388 34.1618 10.3054C33.8527 10.572 33.7423 10.9052 33.676 11.2829C33.5214 11.3273 33.4552 11.2162 33.3448 11.1274C33.2344 11.0385 33.146 11.0385 33.0356 10.9274H32.9915Z"
            fill="#F4F5D8" />
        <path
            d="M36.8339 6.66206C36.8339 6.75092 36.8118 6.862 36.8339 6.95086C36.8339 7.03972 36.8559 7.12858 36.8559 7.23966C36.8339 7.46181 36.8118 7.68396 36.7897 7.92833C36.7676 8.1727 36.7234 8.39485 36.7234 8.63922C36.7234 8.81694 36.7455 9.01688 36.7455 9.1946C36.7455 9.46119 36.6793 9.72777 36.6351 10.0166C36.613 10.2165 36.6572 10.4164 36.6351 10.6164C36.591 10.9274 36.613 11.1495 36.7014 11.4606C36.7234 11.5716 36.7234 11.7049 36.7676 11.816C36.8118 11.9271 36.9664 11.9937 37.0547 11.8827C36.9664 11.7716 36.878 11.7049 36.9001 11.5716C36.9222 11.4161 36.9664 11.2606 36.9664 11.1051C36.9664 10.7497 36.9884 10.372 36.9884 10.0166C36.9884 9.70556 37.0326 9.37233 37.0105 9.06131C36.9884 8.77251 36.9443 8.48372 36.9664 8.19492C36.9664 7.95055 37.0105 7.7284 37.0326 7.48403C37.0547 7.3063 37.1872 6.99529 37.1209 6.81757C37.0768 6.72871 37.0326 6.70649 37.0105 6.61763C36.9884 6.52877 37.0326 6.43991 37.0105 6.35105C36.9884 6.21776 36.878 5.86231 36.7014 6.06225C36.5468 6.17333 36.8118 6.46212 36.8339 6.66206Z"
            fill="#F4F5D8" />
        <path
            d="M40.3892 9.70556C40.3009 9.52784 40.2126 9.39455 40.0801 9.23904C39.7267 8.79474 39.7047 8.19492 39.263 7.77283C38.998 7.50625 38.7772 7.06194 38.4239 6.88422C38.2251 6.79536 38.1147 6.77315 37.9601 6.61764C37.8277 6.48435 37.7172 6.35105 37.5847 6.21776C37.4081 6.04004 37.2535 5.90675 37.1873 5.6846C37.2093 5.66238 37.2314 5.64017 37.2535 5.61795C37.5406 5.75124 37.8939 6.1289 38.1147 6.35105C38.3797 6.61764 38.6668 6.81758 38.9539 7.03973C39.2409 7.2841 39.5722 7.5729 39.8151 7.88391C40.0359 8.17271 40.1684 8.5948 40.3009 8.92803C40.4113 9.19461 40.588 9.39455 40.7646 9.6167C40.9192 9.79442 40.8971 9.88328 40.7867 10.0832C40.4996 10.4387 40.4996 9.94993 40.3892 9.70556Z"
            fill="#F4F5D8" />
        <path
            d="M37.6732 5.2625C37.8057 5.24029 37.9382 5.28472 38.0707 5.32915C38.2473 5.39579 38.3798 5.50687 38.5565 5.57351C38.9319 5.75124 39.3515 5.8401 39.771 5.81788C40.036 5.79567 40.4556 5.77345 40.7206 5.88453C40.8972 5.95117 40.9414 5.9956 41.1181 5.9956C41.2506 5.9956 41.3389 6.04004 41.4493 6.04004C41.6922 6.08447 41.9793 6.10668 42.178 6.26219C42.2884 6.35105 42.5534 6.70649 42.7301 6.52877C42.7522 6.48434 42.7743 6.2844 42.7743 6.21776C42.7963 6.1289 42.8184 5.9956 42.7522 5.92896C42.6638 5.86231 42.5313 5.95117 42.4651 5.97339C42.3547 5.9956 42.2443 5.9956 42.1559 6.01782C41.9351 6.04004 41.6922 5.92896 41.4714 5.88453C41.2506 5.81788 41.0297 5.77345 40.7868 5.70681C40.301 5.5513 39.7931 5.77345 39.3073 5.66238C39.0865 5.61794 38.8215 5.5513 38.6227 5.41801C38.4682 5.30693 38.2915 5.19585 38.1148 5.12921C37.9823 5.08478 37.7615 5.08478 37.6069 5.08478C37.5186 5.08478 37.3199 5.08478 37.2757 5.17364C37.1653 5.35136 37.5849 5.2625 37.6732 5.2625Z"
            fill="#F4F5D8" />
        <path
            d="M37.2754 4.79599C37.3858 4.72935 37.5625 4.61827 37.6729 4.57384C37.8274 4.52941 37.8937 4.55162 38.0041 4.46276C38.2249 4.28504 38.5341 4.26282 38.7991 4.15175C39.0199 4.06289 39.2186 3.92959 39.4395 3.84073C39.6382 3.75187 39.837 3.72966 40.0578 3.68523C40.2344 3.6408 40.3007 3.52972 40.4553 3.44086C40.5657 3.37421 40.7423 3.37421 40.8748 3.352C41.1619 3.30757 41.4269 3.21871 41.714 3.19649C41.8244 3.17428 41.9569 3.17428 42.0673 3.24092C42.1777 3.30757 42.2219 3.41864 42.3765 3.37421C42.6414 3.30757 42.4648 2.95212 42.3765 2.79662C42.3323 2.70775 42.2881 2.57446 42.1556 2.57446C42.0452 2.57446 42.0011 2.70775 41.9569 2.79662C41.8244 2.97434 41.5815 2.90769 41.3827 3.01877C41.1398 3.15206 40.8748 3.26314 40.6099 3.32978C40.4994 3.352 40.389 3.352 40.2786 3.37421C40.1682 3.39643 40.0799 3.48529 39.9695 3.5075C39.837 3.52972 39.7265 3.52972 39.5941 3.57415C39.4836 3.61858 39.3732 3.68523 39.2628 3.72966C38.8653 3.90738 38.5341 4.17396 38.1366 4.35169C38.0041 4.39612 37.0987 4.61827 37.2312 4.86264L37.2754 4.79599Z"
            fill="#F4F5D8" />
        <path opacity="0.1"
            d="M34.9347 8.30602C35.1113 8.37266 35.4426 7.52848 35.5309 7.37297C35.6413 7.17304 35.7959 6.63987 35.3984 6.83981C35.1776 6.92867 34.5151 8.12829 34.9347 8.30602Z"
            fill="white" />
        <path opacity="0.1"
            d="M36.4584 6.8398C36.613 6.92866 36.5026 7.26189 36.5026 7.41739C36.5026 7.63955 36.5247 7.75062 36.5688 7.95056C36.6351 8.35044 35.8622 8.75031 36.083 8.23936C36.1934 7.99499 36.2818 7.83949 36.3038 7.5729C36.3259 7.32853 36.3038 7.01752 36.4584 6.8398Z"
            fill="white" />
        <path opacity="0.1"
            d="M37.4303 7.03975C37.4082 6.90645 37.3419 6.88424 37.2978 6.77316C37.2094 6.57322 37.2536 6.43993 37.4524 6.50658C37.5848 6.55101 37.7615 6.6843 37.8498 6.79538C37.9603 6.90645 38.5344 7.52848 38.3136 7.7062C38.2252 7.77285 38.0927 7.63956 38.0044 7.63956C37.8278 7.63956 37.7615 7.88393 37.6069 7.86171C37.2978 7.86171 37.4744 7.21747 37.4303 7.03975Z"
            fill="white" />
        <path opacity="0.1"
            d="M38.1368 6.06226C38.0264 5.99562 37.7614 5.90676 37.7835 5.75125C37.7835 5.72903 37.9381 5.57353 37.9602 5.57353C38.0706 5.55131 38.0485 5.59574 38.1368 5.66239C38.3135 5.77347 38.3798 5.8179 38.5785 5.8179C38.7331 5.84011 38.8877 5.8179 39.0201 5.88454C39.0864 5.90676 39.1526 5.92897 39.1968 5.99562C39.2631 6.12891 39.1747 6.08448 39.1306 6.21777C39.0643 6.39549 39.1526 6.66208 38.8877 6.59543C38.6447 6.551 38.3798 6.19556 38.1368 6.06226Z"
            fill="white" />
        <path opacity="0.1"
            d="M38.6669 4.86263C38.4902 4.77377 38.1369 4.86263 38.0044 4.68491C38.1369 4.48497 38.7552 4.41833 38.976 4.46276C39.2189 4.48497 39.0644 4.59605 39.1527 4.79599C39.1969 4.92928 39.5723 5.19586 39.2852 5.24029C39.0864 5.26251 38.8435 4.92928 38.6669 4.86263Z"
            fill="white" />
        <path opacity="0.1"
            d="M38.9318 3.66302C38.7552 3.46308 38.6668 3.35201 38.4681 3.50752C38.3356 3.61859 37.894 4.04068 38.2031 4.0629C38.4019 4.08511 38.7993 3.79631 38.9318 3.66302Z"
            fill="white" />
        <path opacity="0.4"
            d="M42.3547 9.41678C42.3547 9.70558 38.954 9.92773 34.7583 9.92773C30.5626 9.92773 27.1619 9.70558 27.1619 9.41678L28.8401 25.0785L29.2155 29.3661C29.2597 29.9215 29.9001 30.3658 30.6288 30.3658H38.8877C39.6164 30.3658 40.2347 29.9215 40.301 29.3661L40.6764 25.0785L42.3547 9.41678Z"
            fill="#ECECEC" />
        <path opacity="0.9"
            d="M32.5059 26.2337L32.9917 29.0995C33.0358 29.566 33.4333 29.9215 33.875 29.9215H39.1085C39.5723 29.9215 39.9698 29.5438 39.9918 29.0995L40.3673 26.2337C38.2252 27.6999 34.8466 27.5444 32.5059 26.2337Z"
            fill="#ECECEC" />
        <path
            d="M31.7992 9.92772C32.3071 9.92772 32.7929 9.92772 33.2787 9.92772C29.7897 9.88329 27.1619 9.68335 27.1619 9.43898L27.206 9.83885C28.4868 9.88329 30.0768 9.92772 31.7992 9.92772Z"
            fill="white" />
        <path
            d="M34.7584 12.3936C30.9381 12.3936 27.8245 12.1937 27.8245 11.9271L29.1273 23.9456C29.1273 23.9456 28.8403 26.2115 34.7584 26.2115C40.2128 26.2115 40.3894 23.9233 40.3894 23.9233L41.6923 11.9271C41.6923 12.1937 38.5787 12.3936 34.7584 12.3936Z"
            fill="currentColor" />
        <path
            d="M34.7584 12.3936C30.9381 12.3936 27.8245 12.1937 27.8245 11.9271L29.1273 23.9456C29.1273 23.9456 28.8403 26.2115 34.7584 26.2115C40.2128 26.2115 40.3894 23.9233 40.3894 23.9233L41.6923 11.9271C41.6923 12.1937 38.5787 12.3936 34.7584 12.3936Z"
            fill="currentColor" />
        <path
            d="M32.9476 12.3936C33.2568 12.3936 33.5438 12.3936 33.853 12.3936C30.4523 12.3714 27.8245 12.1715 27.8245 11.9271L27.8686 12.2381C29.1273 12.3492 30.9381 12.3936 32.9476 12.3936Z"
            fill="white" />
        <path opacity="0.5"
            d="M39.8596 12.2603L38.6009 23.9456C38.6009 23.9456 38.4242 25.9894 33.8311 26.2115C34.1181 26.2337 34.4273 26.2337 34.7806 26.2337C40.235 26.2337 40.4117 23.9456 40.4117 23.9456L41.7145 11.9493C41.6924 12.0604 40.9858 12.1715 39.8596 12.2603Z"
            fill="currentColor" />
        <path
            d="M41.6923 11.9493C41.6923 12.1937 38.5787 12.4158 34.7584 12.4158C30.9381 12.4158 27.8245 12.2159 27.8245 11.9493C27.8245 11.7049 30.9381 11.4828 34.7584 11.4828C38.5787 11.4828 41.6923 11.6827 41.6923 11.9493Z"
            fill="#F8B247" />
        <path opacity="0.5"
            d="M29.856 9.81664C29.1493 9.77221 28.5531 9.72778 28.0894 9.68335L30.5184 30.388C30.5405 30.388 30.5847 30.388 30.6068 30.388H32.1525L29.856 9.81664Z"
            fill="white" />
        <path fill-rule="evenodd" clip-rule="evenodd"
            d="M40.2387 24.5835V24.6086V30.2624H4.5708V25.5384C5.37008 25.0861 6.21932 24.7594 6.99362 24.5835H40.2387Z"
            fill="#A9E37B" />
        <path fill-rule="evenodd" clip-rule="evenodd"
            d="M6.44418 24.6086C6.01956 24.6086 5.59494 24.6338 5.17033 24.6338C3.52181 26.4932 1.89827 28.3778 0.249756 30.2372H5.09539C4.97051 29.8603 4.89557 29.4583 4.89557 29.0311C4.89557 27.7999 5.52001 26.7194 6.46916 26.0912V24.6086H6.44418Z"
            fill="#5CA247" />
        <path
            d="M6.26929 30.4885C6.31924 33.4284 8.69211 35.8156 11.6145 35.8156C14.5368 35.8156 16.9347 33.4536 16.9597 30.4885H6.26929Z"
            fill="#5CA247" />
        <path
            d="M7.09351 30.4885C7.11848 32.9761 9.14166 34.9864 11.6144 34.9864C14.0872 34.9864 16.1104 32.9761 16.1354 30.4885H7.09351Z"
            fill="#A9E37B" />
        <path d="M11.6145 34.9612V30.4382" stroke="white" stroke-width="0.75" stroke-miterlimit="10"
            stroke-linecap="round" stroke-linejoin="round" />
        <path d="M14.7866 33.6546L11.6145 30.4382" stroke="white" stroke-width="0.75"
            stroke-miterlimit="10"
            stroke-linecap="round" stroke-linejoin="round" />
        <path d="M8.44238 33.6546L11.6145 30.4382" stroke="white" stroke-width="0.75"
            stroke-miterlimit="10"
            stroke-linecap="round" stroke-linejoin="round" />
        <path
            d="M12.5386 33.73C12.6885 33.8556 12.8633 33.8556 13.0132 33.7802C13.1631 33.7048 13.3129 33.5792 13.3129 33.4033C13.3379 33.0767 12.9882 32.7249 12.7884 32.4987C12.6136 32.2726 12.164 31.7951 12.114 31.7449C12.114 31.8203 12.164 32.4736 12.2139 32.75C12.2639 33.0515 12.2889 33.5289 12.5386 33.73Z"
            fill="#5CA247" />
        <path
            d="M10.6904 33.73C10.5405 33.8556 10.3657 33.8556 10.2158 33.7802C10.0659 33.7048 9.91606 33.5792 9.91606 33.4033C9.89109 33.0767 10.2408 32.7249 10.4406 32.4987C10.6154 32.2726 11.065 31.7951 11.115 31.7449C11.115 31.8203 11.065 32.4736 11.0151 32.75C10.9651 33.0515 10.9401 33.5289 10.6904 33.73Z"
            fill="#5CA247" />
        <path
            d="M8.56717 31.9962C8.39233 31.971 8.26744 31.8203 8.21749 31.6695C8.16753 31.4936 8.16753 31.3177 8.29242 31.1921C8.51722 30.9408 8.99179 30.9911 9.3165 30.9659C9.61623 30.9408 10.2407 30.9659 10.3156 30.9659C10.2656 31.0162 9.74112 31.4182 9.51632 31.569C9.26654 31.7198 8.91686 32.0464 8.56717 31.9962Z"
            fill="#5CA247" />
        <path
            d="M14.6618 31.9962C14.8366 31.971 14.9615 31.8203 15.0114 31.6695C15.0614 31.4936 15.0614 31.3177 14.9365 31.1921C14.7117 30.9408 14.2371 30.9911 13.9124 30.9659C13.6127 30.9408 12.9883 30.9659 12.9133 30.9659C12.9633 31.0162 13.4878 31.4182 13.7126 31.569C13.9624 31.7198 14.3121 32.0464 14.6618 31.9962Z"
            fill="#5CA247" />
        <path
            d="M16.9597 30.4885C16.9097 27.5486 14.5368 25.1615 11.6145 25.1615C8.69211 25.1615 6.29426 27.5235 6.26929 30.4885H16.9597Z"
            fill="#5CA247" />
        <path
            d="M16.1354 30.4885C16.1104 28.0009 14.0872 25.9907 11.6144 25.9907C9.14166 25.9907 7.11848 28.0009 7.09351 30.4885H16.1354Z"
            fill="#A9E37B" />
        <path d="M11.6145 25.9907V30.5136" stroke="white" stroke-width="0.75" stroke-miterlimit="10"
            stroke-linecap="round" stroke-linejoin="round" />
        <path d="M8.44238 27.3224L11.6145 30.5136" stroke="white" stroke-width="0.75"
            stroke-miterlimit="10"
            stroke-linecap="round" stroke-linejoin="round" />
        <path d="M14.7866 27.3224L11.6145 30.5136" stroke="white" stroke-width="0.75"
            stroke-miterlimit="10"
            stroke-linecap="round" stroke-linejoin="round" />
        <path
            d="M10.6904 27.2219C10.5405 27.0963 10.3657 27.0963 10.2158 27.1717C10.0659 27.247 9.91606 27.3727 9.91606 27.5486C9.89109 27.8752 10.2408 28.227 10.4406 28.4532C10.6154 28.6793 11.065 29.1567 11.115 29.207C11.115 29.1316 11.065 28.4783 11.0151 28.2019C10.9651 27.9255 10.9401 27.4481 10.6904 27.2219Z"
            fill="#5CA247" />
        <path
            d="M12.5386 27.2219C12.6885 27.0963 12.8633 27.0963 13.0132 27.1717C13.1631 27.247 13.3129 27.3727 13.3129 27.5486C13.3379 27.8752 12.9882 28.227 12.7884 28.4532C12.6136 28.6793 12.164 29.1567 12.114 29.207C12.114 29.1316 12.164 28.4783 12.2139 28.2019C12.2639 27.9255 12.2889 27.4481 12.5386 27.2219Z"
            fill="#5CA247" />
        <path
            d="M14.6618 28.9809C14.8366 29.006 14.9615 29.1567 15.0114 29.3075C15.0614 29.4834 15.0614 29.6593 14.9365 29.7849C14.7117 30.0362 14.2371 29.986 13.9124 30.0111C13.6127 30.0362 12.9883 30.0111 12.9133 30.0111C12.9633 29.9608 13.4878 29.5588 13.7126 29.408C13.9624 29.2321 14.3121 28.9306 14.6618 28.9809Z"
            fill="#5CA247" />
        <path
            d="M8.56717 28.9809C8.39233 29.006 8.26744 29.1567 8.21749 29.3075C8.16753 29.4834 8.16753 29.6593 8.29242 29.7849C8.51722 30.0362 8.99179 29.986 9.3165 30.0111C9.61623 30.0362 10.2407 30.0111 10.3156 30.0111C10.2656 29.9608 9.74112 29.5588 9.51632 29.408C9.26654 29.2321 8.91686 28.9306 8.56717 28.9809Z"
            fill="#5CA247" />
        <path d="M7.09351 30.4885H16.1354" stroke="white" stroke-width="0.75" stroke-miterlimit="10"
            stroke-linecap="round" stroke-linejoin="round" />
        <path
            d="M19.1328 30.4885C19.1828 33.4284 21.5556 35.8156 24.478 35.8156C27.4004 35.8156 29.7982 33.4536 29.8232 30.4885H19.1328Z"
            fill="#5CA247" />
        <path
            d="M19.957 30.4885C19.982 32.9761 22.0052 34.9864 24.478 34.9864C26.9507 34.9864 28.9739 32.9761 28.9989 30.4885H19.957Z"
            fill="#A9E37B" />
        <path d="M24.478 34.9612V30.4382" stroke="white" stroke-width="0.75" stroke-miterlimit="10"
            stroke-linecap="round" stroke-linejoin="round" />
        <path d="M27.6502 33.6546L24.478 30.4382" stroke="white" stroke-width="0.75"
            stroke-miterlimit="10"
            stroke-linecap="round" stroke-linejoin="round" />
        <path d="M21.3059 33.6546L24.4781 30.4382" stroke="white" stroke-width="0.75"
            stroke-miterlimit="10"
            stroke-linecap="round" stroke-linejoin="round" />
        <path
            d="M25.4022 33.73C25.552 33.8556 25.7269 33.8556 25.8767 33.7802C26.0266 33.7048 26.1765 33.5792 26.1765 33.4033C26.2014 33.0767 25.8518 32.7249 25.6519 32.4987C25.4771 32.2726 25.0275 31.7951 24.9775 31.7449C24.9775 31.8203 25.0275 32.4736 25.0774 32.75C25.1274 33.0515 25.1524 33.5289 25.4022 33.73Z"
            fill="#5CA247" />
        <path
            d="M23.5539 33.73C23.404 33.8556 23.2292 33.8556 23.0793 33.7802C22.9295 33.7048 22.7796 33.5792 22.7796 33.4033C22.7546 33.0767 23.1043 32.7249 23.3041 32.4987C23.479 32.2726 23.9286 31.7951 23.9785 31.7449C23.9785 31.8203 23.9286 32.4736 23.8786 32.75C23.8286 33.0515 23.8037 33.5289 23.5539 33.73Z"
            fill="#5CA247" />
        <path
            d="M21.4307 31.9962C21.2559 31.971 21.131 31.8203 21.081 31.6695C21.0311 31.4936 21.0311 31.3177 21.1559 31.1921C21.3807 30.9408 21.8553 30.9911 22.18 30.9659C22.4798 30.9408 23.1042 30.9659 23.1791 30.9659C23.1292 31.0162 22.6046 31.4182 22.3798 31.569C22.1301 31.7198 21.7804 32.0464 21.4307 31.9962Z"
            fill="#5CA247" />
        <path
            d="M27.5253 31.9962C27.7001 31.971 27.825 31.8203 27.875 31.6695C27.9249 31.4936 27.9249 31.3177 27.8 31.1921C27.5752 30.9408 27.1007 30.9911 26.776 30.9659C26.4762 30.9408 25.8518 30.9659 25.7769 30.9659C25.8268 31.0162 26.3513 31.4182 26.5761 31.569C26.8259 31.7198 27.1756 32.0464 27.5253 31.9962Z"
            fill="#5CA247" />
        <path
            d="M29.8232 30.4885C29.7732 27.5486 27.4004 25.1615 24.478 25.1615C21.5556 25.1615 19.1578 27.5235 19.1328 30.4885H29.8232Z"
            fill="#5CA247" />
        <path
            d="M28.9989 30.4885C28.9739 28.0009 26.9507 25.9907 24.478 25.9907C22.0052 25.9907 19.982 28.0009 19.957 30.4885H28.9989Z"
            fill="#A9E37B" />
        <path d="M24.478 25.9907V30.5136" stroke="white" stroke-width="0.75" stroke-miterlimit="10"
            stroke-linecap="round" stroke-linejoin="round" />
        <path d="M21.3059 27.3224L24.4781 30.5136" stroke="white" stroke-width="0.75"
            stroke-miterlimit="10"
            stroke-linecap="round" stroke-linejoin="round" />
        <path d="M27.6502 27.3224L24.478 30.5136" stroke="white" stroke-width="0.75"
            stroke-miterlimit="10"
            stroke-linecap="round" stroke-linejoin="round" />
        <path
            d="M23.5539 27.2219C23.404 27.0963 23.2292 27.0963 23.0793 27.1717C22.9295 27.247 22.7796 27.3727 22.7796 27.5486C22.7546 27.8752 23.1043 28.227 23.3041 28.4532C23.479 28.6793 23.9286 29.1567 23.9785 29.207C23.9785 29.1316 23.9286 28.4783 23.8786 28.2019C23.8286 27.9255 23.8037 27.4481 23.5539 27.2219Z"
            fill="#5CA247" />
        <path
            d="M25.4022 27.2219C25.552 27.0963 25.7269 27.0963 25.8767 27.1717C26.0266 27.247 26.1765 27.3727 26.1765 27.5486C26.2014 27.8752 25.8518 28.227 25.6519 28.4532C25.4771 28.6793 25.0275 29.1567 24.9775 29.207C24.9775 29.1316 25.0275 28.4783 25.0774 28.2019C25.1274 27.9255 25.1524 27.4481 25.4022 27.2219Z"
            fill="#5CA247" />
        <path
            d="M27.5253 28.9809C27.7001 29.006 27.825 29.1567 27.875 29.3075C27.9249 29.4834 27.9249 29.6593 27.8 29.7849C27.5752 30.0362 27.1007 29.986 26.776 30.0111C26.4762 30.0362 25.8518 30.0111 25.7769 30.0111C25.8268 29.9608 26.3513 29.5588 26.5761 29.408C26.8259 29.2321 27.1756 28.9306 27.5253 28.9809Z"
            fill="#5CA247" />
        <path
            d="M21.4307 28.9809C21.2559 29.006 21.131 29.1567 21.081 29.3075C21.0311 29.4834 21.0311 29.6593 21.1559 29.7849C21.3807 30.0362 21.8553 29.986 22.18 30.0111C22.4798 30.0362 23.1042 30.0111 23.1791 30.0111C23.1292 29.9608 22.6046 29.5588 22.3798 29.408C22.1301 29.2321 21.7804 28.9306 21.4307 28.9809Z"
            fill="#5CA247" />
        <path d="M19.957 30.4885H28.9989" stroke="white" stroke-width="0.75" stroke-miterlimit="10"
            stroke-linecap="round" stroke-linejoin="round" />
        <path
            d="M31.9961 30.4885C32.046 33.4284 34.4189 35.8156 37.3413 35.8156C40.2636 35.8156 42.6615 33.4536 42.6865 30.4885H31.9961Z"
            fill="#5CA247" />
        <path
            d="M32.8203 30.4885C32.8453 32.9761 34.8685 34.9864 37.3412 34.9864C39.814 34.9864 41.8372 32.9761 41.8622 30.4885H32.8203Z"
            fill="#A9E37B" />
        <path d="M37.3413 34.9612V30.4382" stroke="white" stroke-width="0.75" stroke-miterlimit="10"
            stroke-linecap="round" stroke-linejoin="round" />
        <path d="M40.5135 33.6546L37.3413 30.4382" stroke="white" stroke-width="0.75"
            stroke-miterlimit="10"
            stroke-linecap="round" stroke-linejoin="round" />
        <path d="M34.1692 33.6546L37.3413 30.4382" stroke="white" stroke-width="0.75"
            stroke-miterlimit="10"
            stroke-linecap="round" stroke-linejoin="round" />
        <path
            d="M38.2654 33.73C38.4153 33.8556 38.5901 33.8556 38.74 33.7802C38.8899 33.7048 39.0397 33.5792 39.0397 33.4033C39.0647 33.0767 38.715 32.7249 38.5152 32.4987C38.3404 32.2726 37.8908 31.7951 37.8408 31.7449C37.8408 31.8203 37.8908 32.4736 37.9407 32.75C37.9907 33.0515 38.0157 33.5289 38.2654 33.73Z"
            fill="#5CA247" />
        <path
            d="M36.4172 33.73C36.2673 33.8556 36.0925 33.8556 35.9426 33.7802C35.7927 33.7048 35.6429 33.5792 35.6429 33.4033C35.6179 33.0767 35.9676 32.7249 36.1674 32.4987C36.3422 32.2726 36.7918 31.7951 36.8418 31.7449C36.8418 31.8203 36.7918 32.4736 36.7419 32.75C36.6919 33.0515 36.667 33.5289 36.4172 33.73Z"
            fill="#5CA247" />
        <path
            d="M34.294 31.9962C34.1191 31.971 33.9943 31.8203 33.9443 31.6695C33.8943 31.4936 33.8943 31.3177 34.0192 31.1921C34.244 30.9408 34.7186 30.9911 35.0433 30.9659C35.343 30.9408 35.9675 30.9659 36.0424 30.9659C35.9925 31.0162 35.4679 31.4182 35.2431 31.569C34.9934 31.7198 34.6437 32.0464 34.294 31.9962Z"
            fill="#5CA247" />
        <path
            d="M40.3886 31.9962C40.5634 31.971 40.6883 31.8203 40.7383 31.6695C40.7882 31.4936 40.7882 31.3177 40.6633 31.1921C40.4385 30.9408 39.9639 30.9911 39.6392 30.9659C39.3395 30.9408 38.7151 30.9659 38.6401 30.9659C38.6901 31.0162 39.2146 31.4182 39.4394 31.569C39.6892 31.7198 40.0389 32.0464 40.3886 31.9962Z"
            fill="#5CA247" />
        <path
            d="M42.6865 30.4885C42.6365 27.5486 40.2636 25.1615 37.3413 25.1615C34.4189 25.1615 32.0211 27.5235 31.9961 30.4885H42.6865Z"
            fill="#5CA247" />
        <path
            d="M41.8622 30.4885C41.8372 28.0009 39.814 25.9907 37.3412 25.9907C34.8685 25.9907 32.8453 28.0009 32.8203 30.4885H41.8622Z"
            fill="#A9E37B" />
        <path d="M37.3413 25.9907V30.5136" stroke="white" stroke-width="0.75" stroke-miterlimit="10"
            stroke-linecap="round" stroke-linejoin="round" />
        <path d="M34.1692 27.3224L37.3413 30.5136" stroke="white" stroke-width="0.75"
            stroke-miterlimit="10"
            stroke-linecap="round" stroke-linejoin="round" />
        <path d="M40.5135 27.3224L37.3413 30.5136" stroke="white" stroke-width="0.75"
            stroke-miterlimit="10"
            stroke-linecap="round" stroke-linejoin="round" />
        <path
            d="M36.4172 27.2219C36.2673 27.0963 36.0925 27.0963 35.9426 27.1717C35.7927 27.247 35.6429 27.3727 35.6429 27.5486C35.6179 27.8752 35.9676 28.227 36.1674 28.4532C36.3422 28.6793 36.7918 29.1567 36.8418 29.207C36.8418 29.1316 36.7918 28.4783 36.7419 28.2019C36.6919 27.9255 36.667 27.4481 36.4172 27.2219Z"
            fill="#5CA247" />
        <path
            d="M38.2654 27.2219C38.4153 27.0963 38.5901 27.0963 38.74 27.1717C38.8899 27.247 39.0397 27.3727 39.0397 27.5486C39.0647 27.8752 38.715 28.227 38.5152 28.4532C38.3404 28.6793 37.8908 29.1567 37.8408 29.207C37.8408 29.1316 37.8908 28.4783 37.9407 28.2019C37.9907 27.9255 38.0157 27.4481 38.2654 27.2219Z"
            fill="#5CA247" />
        <path
            d="M40.3886 28.9809C40.5634 29.006 40.6883 29.1567 40.7383 29.3075C40.7882 29.4834 40.7882 29.6593 40.6633 29.7849C40.4385 30.0362 39.9639 29.986 39.6392 30.0111C39.3395 30.0362 38.7151 30.0111 38.6401 30.0111C38.6901 29.9608 39.2146 29.5588 39.4394 29.408C39.6892 29.2321 40.0389 28.9306 40.3886 28.9809Z"
            fill="#5CA247" />
        <path
            d="M34.294 28.9809C34.1191 29.006 33.9943 29.1567 33.9443 29.3075C33.8943 29.4834 33.8943 29.6593 34.0192 29.7849C34.244 30.0362 34.7186 29.986 35.0433 30.0111C35.343 30.0362 35.9675 30.0111 36.0424 30.0111C35.9925 29.9608 35.4679 29.5588 35.2431 29.408C34.9934 29.2321 34.6437 28.9306 34.294 28.9809Z"
            fill="#5CA247" />
        <path d="M32.8203 30.4885H41.8622" stroke="white" stroke-width="0.75" stroke-miterlimit="10"
            stroke-linecap="round" stroke-linejoin="round" />
    </symbol>
    <symbol fill="none" xmlns="http://www.w3.org/2000/svg" viewBox="0 0 12 8" id="on-hands">
        <path fill-rule="evenodd" clip-rule="evenodd"
            d="M10 0.25C11.1046 0.25 12 1.14543 12 2.25V5.85C12 6.95457 11.1046 7.85 10 7.85H6.39999L6.39999 0.25H10ZM5.59999 0.25L5.59999 7.85L2 7.85C0.89543 7.85 0 6.95457 0 5.85V2.25C0 1.14543 0.895431 0.25 2 0.25H5.59999ZM3 4.75C3.41421 4.75 3.75 4.41421 3.75 4C3.75 3.58579 3.41421 3.25 3 3.25C2.58579 3.25 2.25 3.58579 2.25 4C2.25 4.41421 2.58579 4.75 3 4.75ZM9.75 2.5C9.75 2.91421 9.41421 3.25 9 3.25C8.58579 3.25 8.25 2.91421 8.25 2.5C8.25 2.08579 8.58579 1.75 9 1.75C9.41421 1.75 9.75 2.08579 9.75 2.5ZM9 6.25C9.41421 6.25 9.75 5.91421 9.75 5.5C9.75 5.08579 9.41421 4.75 9 4.75C8.58579 4.75 8.25 5.08579 8.25 5.5C8.25 5.91421 8.58579 6.25 9 6.25Z"
            fill="currentColor" />
    </symbol>
    <symbol fill="none" xmlns="http://www.w3.org/2000/svg" viewBox="0 0 16 13" id="shots">
        <path
            d="M10.4041 6.63385C10.3347 6.58018 10.2805 6.50928 10.247 6.42819C10.2135 6.3471 10.2019 6.25865 10.2132 6.17164C10.3539 5.27236 10.4845 4.37308 10.6201 3.47882L10.9668 1.18791C11.007 0.936714 10.9969 0.801068 10.9316 0.730733C10.8663 0.660399 10.7407 0.625231 10.4995 0.625231H0.562223C0.481006 0.613913 0.398254 0.622647 0.32119 0.65067C0.244126 0.678693 0.175093 0.725154 0.120117 0.785996V1.28839L0.306002 2.48911C0.441648 3.33815 0.57227 4.19222 0.702892 5.04126C0.850261 5.99916 0.992606 6.95705 1.12993 7.91495C1.33591 9.27141 1.53686 10.6279 1.74285 11.9793C1.8584 12.7228 2.12969 12.9439 2.90337 12.9489H8.20864C8.3986 12.9756 8.59223 12.9504 8.76909 12.8762C8.94595 12.8019 9.09946 12.6812 9.21342 12.5269C9.22883 12.4916 9.25408 12.4614 9.28614 12.4401C9.31821 12.4187 9.35575 12.407 9.39428 12.4063C9.45958 12.4103 9.52235 12.433 9.57514 12.4716L9.63543 12.5018C10.4069 12.8913 11.2719 13.0577 12.1328 12.9823C12.9938 12.9068 13.8166 12.5925 14.5086 12.0748C14.6539 11.9689 14.7915 11.8531 14.9206 11.7281L15.0864 11.5724V11.296L13.6998 9.90945C12.5979 8.81423 11.4993 7.72236 10.4041 6.63385ZM11.9917 9.19605L12.1524 9.12069L12.494 9.46734L13.4285 10.4018C13.4574 10.4244 13.4806 10.4534 13.4962 10.4866C13.5119 10.5197 13.5197 10.556 13.5189 10.5927C13.5135 10.6293 13.4993 10.664 13.4774 10.6937C13.4555 10.7235 13.4266 10.7475 13.3933 10.7635C13.0634 10.9869 12.6931 11.1439 12.3031 11.2257H12.2228C12.1695 11.2284 12.1173 11.2104 12.0771 11.1755C12.0467 11.1477 12.0232 11.1133 12.0084 11.075C11.9936 11.0366 11.9879 10.9954 11.9917 10.9544V9.19605ZM11.434 9.12069V9.62308C11.434 10.0953 11.434 10.5224 11.434 10.9494C11.438 10.9899 11.4329 11.0308 11.419 11.0691C11.4051 11.1074 11.3827 11.142 11.3536 11.1705C11.312 11.2023 11.2603 11.2184 11.2079 11.2157H11.1275C10.7358 11.1395 10.3644 10.9821 10.0373 10.7535C10.0057 10.7359 9.97845 10.7114 9.95758 10.6818C9.93671 10.6522 9.92276 10.6183 9.91677 10.5827C9.9162 10.5516 9.92217 10.5208 9.93429 10.4923C9.94641 10.4637 9.9644 10.438 9.98711 10.4169L11.3235 9.08552L11.434 9.12069ZM9.63041 10.03C9.60925 10.0551 9.58319 10.0757 9.55381 10.0904C9.52444 10.105 9.49238 10.1136 9.45959 10.1154C9.42278 10.1089 9.3879 10.0942 9.35748 10.0725C9.32706 10.0508 9.30187 10.0225 9.28376 9.98983C9.0581 9.66169 8.90247 9.29058 8.82658 8.89964C8.81676 8.86209 8.81528 8.82285 8.82222 8.78466C8.82916 8.74648 8.84437 8.71027 8.86677 8.67858C8.89139 8.65145 8.92175 8.63015 8.95565 8.61625C8.98955 8.60234 9.02612 8.59617 9.0627 8.5982H10.8613L10.9266 8.75897L10.6101 9.05035L9.63041 10.03ZM10.9165 7.88983L10.8261 8.03552H9.10289C9.05723 8.04389 9.01015 8.03944 8.96686 8.02267C8.92357 8.00589 8.88578 7.97745 8.85768 7.9405C8.82958 7.90356 8.81227 7.85954 8.80766 7.81335C8.80306 7.76716 8.81135 7.72059 8.8316 7.67882C8.90778 7.31 9.05634 6.95995 9.26868 6.64892C9.28803 6.61319 9.31451 6.58182 9.34649 6.55676C9.37847 6.53169 9.41526 6.51347 9.45457 6.50322C9.48739 6.50204 9.52001 6.50871 9.54973 6.52269C9.57944 6.53668 9.60538 6.55756 9.62538 6.58361L10.9165 7.88983ZM0.788299 1.99174C0.788299 1.85107 0.753132 1.73552 0.73806 1.64509C0.702893 1.42906 0.687821 1.32356 0.73806 1.2482C0.788299 1.17284 0.933993 1.16782 1.24045 1.17284H9.9017C10.1378 1.17284 10.2534 1.17284 10.3187 1.2482C10.384 1.32356 10.3739 1.42906 10.3539 1.65011C10.2835 2.37356 10.2534 2.4037 9.53495 2.4037H4.39548C3.39069 2.4037 2.31557 2.4037 1.27562 2.4037C0.949065 2.40872 0.823467 2.31829 0.788299 1.99174ZM1.74787 8.41734C1.52179 6.80466 1.28064 5.2171 0.984232 3.32308C0.968444 3.27019 0.96431 3.21451 0.972116 3.15987C0.979922 3.10522 0.999482 3.05293 1.02945 3.00657C1.06863 2.96959 1.11557 2.94183 1.16686 2.92531C1.21814 2.9088 1.27246 2.90395 1.32586 2.91112H9.81629C9.86426 2.90189 9.91371 2.90389 9.96078 2.91697C10.0078 2.93004 10.0512 2.95383 10.0876 2.98648C10.1117 3.01632 10.128 3.05169 10.135 3.08941C10.142 3.12712 10.1395 3.16599 10.1278 3.2025L9.70074 5.97069L9.60529 5.89031L9.34404 5.60896C9.17323 5.4281 9.02251 5.26734 8.86677 5.10657C8.71103 4.94581 8.65577 4.93074 8.58041 4.93074C8.50002 4.93074 8.41462 4.99102 8.29404 5.12667C7.76295 5.68171 7.38012 6.36151 7.18081 7.1034C6.98151 7.8453 6.97216 8.62542 7.15361 9.37189C7.20385 9.58791 7.22395 9.69342 7.15361 9.77882C7.08328 9.86423 6.97777 9.8793 6.75672 9.91447C6.35809 9.97972 5.95492 10.0133 5.55098 10.0149C4.39648 10.0194 3.26068 9.72338 2.25529 9.15586C2.11727 9.08299 1.999 8.97772 1.91062 8.84909C1.82224 8.72046 1.76639 8.5723 1.74787 8.41734ZM8.78136 12.1903C8.74402 12.2667 8.68222 12.3285 8.60577 12.3658C8.52932 12.4032 8.44259 12.4139 8.35935 12.3963H4.7371C4.11916 12.3963 3.48112 12.3963 2.85313 12.3963C2.78213 12.4088 2.7092 12.4049 2.63995 12.3848C2.5707 12.3648 2.50695 12.3291 2.45361 12.2806C2.40026 12.2321 2.35872 12.1721 2.33218 12.105C2.30565 12.038 2.29481 11.9658 2.3005 11.8939C2.24524 11.4468 2.1749 10.9946 2.10457 10.5525C2.07442 10.3616 2.04428 10.1707 2.01916 9.97978C2.01916 9.97978 2.01916 9.97978 2.01916 9.93959C2.00299 9.90584 1.99769 9.8679 2.00399 9.83101C2.01029 9.79411 2.02787 9.76008 2.05433 9.73361C2.08997 9.70507 2.13427 9.68952 2.17993 9.68952C2.22558 9.68952 2.26988 9.70507 2.30552 9.73361H2.33567C3.84608 10.5059 5.57986 10.7228 7.23399 10.3465C7.3201 10.3195 7.41319 10.3257 7.49499 10.3638C7.57678 10.4019 7.64138 10.4692 7.6761 10.5525C7.9161 10.9848 8.22493 11.3751 8.59045 11.708L8.64572 11.7532C8.70601 11.8638 8.84667 11.9944 8.75624 12.1903H8.78136ZM14.1117 11.08C14.3027 11.1654 14.3529 11.276 14.3629 11.3513C14.373 11.4267 14.3629 11.5422 14.1771 11.6678C13.4829 12.1839 12.6407 12.4623 11.7756 12.4616C11.2965 12.4607 10.821 12.3792 10.3689 12.2205C9.73336 12.0032 9.16135 11.6322 8.70381 11.1405C8.24627 10.6488 7.91739 10.0516 7.74643 9.40203C7.64963 9.07576 7.5989 8.73756 7.59572 8.39724C7.57642 7.51089 7.84819 6.64264 8.3694 5.92547C8.3694 5.92547 8.48495 5.70442 8.57538 5.68432C8.61009 5.67757 8.64589 5.67906 8.67992 5.68865C8.71395 5.69825 8.74525 5.7157 8.77132 5.73959C8.82392 5.76318 8.87011 5.79901 8.90606 5.84408C8.94201 5.88915 8.96666 5.94216 8.97797 5.99869C8.98928 6.05522 8.98691 6.11363 8.97106 6.16906C8.95521 6.22449 8.92635 6.27533 8.88687 6.31734C8.56057 6.78798 8.35415 7.3312 8.28555 7.89977C8.21695 8.46833 8.28824 9.04505 8.49323 9.5798C8.69821 10.1146 9.03069 10.5911 9.46177 10.9682C9.89285 11.3452 10.4095 11.6112 10.9668 11.7432C11.4328 11.8466 11.9148 11.8554 12.3842 11.7691C12.8537 11.6828 13.301 11.5031 13.6998 11.2408L13.7651 11.1905C13.8013 11.1419 13.8514 11.1053 13.9088 11.0856C13.9662 11.0659 14.0281 11.064 14.0866 11.08H14.1117Z"
            fill="currentColor" />
        <path
            d="M2.39087 8.99004C3.70786 9.72833 5.23996 9.98753 6.72651 9.72353C6.80187 9.72353 6.8923 9.72353 6.94254 9.68334C6.93451 9.61539 6.92107 9.5482 6.90235 9.48239C6.7067 8.69366 6.71374 7.86826 6.92279 7.08298C7.13185 6.29769 7.53614 5.57805 8.09804 4.991C8.15214 4.91582 8.22105 4.85252 8.30055 4.805C8.38004 4.75748 8.46842 4.72674 8.56025 4.71468C8.74563 4.73038 8.91725 4.8189 9.03752 4.96085C9.19326 5.1166 9.34398 5.27736 9.53991 5.46325L9.88656 3.20248C9.9167 3.20248 9.88656 3.20248 9.8313 3.20248H1.31575C1.27728 3.19976 1.23866 3.19976 1.2002 3.20248C1.20254 3.23928 1.20254 3.2762 1.2002 3.31301C1.49661 5.19698 1.73776 6.78454 1.96383 8.40727C1.97617 8.53378 2.02233 8.65465 2.09747 8.75719C2.1726 8.85972 2.27394 8.94016 2.39087 8.99004Z"
            fill="currentColor" />
    </symbol>
</svg>
