<svg width="24" height="24" viewBox="0 0 24 24" fill="none" xmlns="http://www.w3.org/2000/svg">
<path fill-rule="evenodd" clip-rule="evenodd" d="M19.6465 12.3536C19.8417 12.1583 19.8417 11.8417 19.6465 11.6464L12.7071 4.7071C12.3166 4.31658 11.6834 4.31658 11.2929 4.7071L11.2071 4.79289C10.8166 5.18342 10.8166 5.81658 11.2071 6.20711L16 11H5C4.44772 11 4 11.4477 4 12C4 12.5523 4.44772 13 5 13H16L11.2071 17.7929C10.8166 18.1834 10.8166 18.8166 11.2071 19.2071L11.2929 19.2929C11.6834 19.6834 12.3166 19.6834 12.7071 19.2929L19.6465 12.3536Z" fill="currentColor"/>
</svg>
