<svg width="26" height="27" viewBox="0 0 26 27" fill="none" xmlns="http://www.w3.org/2000/svg">
<g filter="url(#filter0_d_1066_28171)">
<mask id="path-1-outside-1_1066_28171" maskUnits="userSpaceOnUse" x="0" y="0" width="26" height="26" fill="black">
<rect fill="white" width="26" height="26"/>
<path fill-rule="evenodd" clip-rule="evenodd" d="M16.9625 6.80844H13.0277C13.0249 6.80479 13.0214 6.80113 13.0179 6.79747L13.0179 6.79746C13.01 6.78921 13.0021 6.78097 13.0021 6.77273C13.0051 6.49099 13.0026 6.20876 13.0001 5.92655C12.9942 5.2695 12.9884 4.61259 13.0524 3.9624C13.1385 3.08331 13.7044 2.47894 14.5267 2.16485C15.3527 1.84985 16.1311 1.9927 16.8279 2.53846C16.9003 2.59524 16.9698 2.70879 16.9708 2.79578C16.9779 3.81066 16.9773 4.82499 16.9766 5.83963C16.9764 6.12957 16.9763 6.41954 16.9763 6.70955C16.9763 6.72891 16.9731 6.74787 16.9693 6.77014C16.9674 6.78156 16.9653 6.79386 16.9634 6.80753L16.9625 6.80844ZM12.0389 2.47282C11.6442 3.16144 11.5197 3.88485 11.5297 4.64764C11.5444 5.73826 11.5453 6.82887 11.5297 7.91949C11.5178 8.71159 11.6277 9.46888 12.0398 10.1831C11.4034 10.6383 10.7175 10.761 9.97852 10.5467C9.01244 10.2665 8.31192 9.39196 8.29452 8.38559C8.27071 7.01293 8.25789 5.63936 8.29635 4.26762C8.3458 2.49846 10.3137 1.43806 11.8319 2.33546C11.875 2.36094 11.9157 2.38883 11.9622 2.42072L11.9622 2.42075L11.9622 2.42076C11.9859 2.437 12.0111 2.45428 12.0389 2.47282ZM2.89245 6.58316V6.81941C2.89446 7.04489 2.89195 7.27073 2.88944 7.49656C2.88396 7.98886 2.87849 8.48112 2.91992 8.96951C3.14336 11.594 6.05258 12.9776 8.2448 11.5207C8.30158 11.4831 8.35835 11.4447 8.41421 11.4062C9.9636 12.3833 11.4883 12.3485 13.0056 11.3119C13.2492 11.4648 13.4616 11.6287 13.6036 11.9199C14.0999 12.9401 14.8956 13.6598 15.9405 14.103L16.0437 14.1469C16.0976 14.1698 16.1575 14.1952 16.2326 14.2275C16.1463 14.2571 16.064 14.2847 15.9845 14.3114L15.9844 14.3114C15.8274 14.3641 15.6812 14.4131 15.5366 14.4665C14.0047 15.0352 12.7007 15.9088 11.7859 17.2943C11.0808 18.362 10.7539 19.5442 10.7529 20.8189C10.7529 21.2447 11.0487 21.5578 11.4516 21.5698C11.871 21.5826 12.2025 21.2859 12.2108 20.8537C12.2227 20.2456 12.3005 19.6522 12.512 19.0818C13.0459 17.6441 14.0962 16.7036 15.4533 16.0727C16.5705 15.5535 17.7536 15.3292 18.9834 15.3365H19.2535V12.9987C19.2279 12.9987 19.2014 12.9988 19.1741 12.999H19.174H19.1739H19.1739C19.1174 12.9995 19.0582 12.9999 18.999 12.9987C18.8204 12.9953 18.6412 12.9966 18.462 12.9979H18.4619H18.4619H18.4618C18.06 13.0009 17.6579 13.0038 17.2628 12.9538C15.7582 12.7633 14.6374 11.5198 14.5678 10.0006C14.5502 9.61555 14.5546 9.2292 14.5591 8.83388V8.83383L14.5591 8.83369C14.5612 8.65277 14.5632 8.46997 14.5632 8.28456H14.827H22.312C23.3239 8.28456 23.985 8.94937 23.985 9.96489C23.9854 10.832 23.9853 11.6989 23.9853 12.5658C23.9852 14.0107 23.9851 15.4554 23.9869 16.9005C23.9869 17.4133 23.8907 17.9014 23.6618 18.3602C23.513 18.6579 23.3666 18.9572 23.2202 19.2564C22.8439 20.0256 22.4674 20.7951 22.0501 21.5414C21.1775 23.1017 19.8075 23.9561 18.021 23.9744C14.2061 24.012 10.3912 24.0028 6.57637 23.9799C4.11401 23.9653 2.0271 21.8637 2.01245 19.4004C1.99322 16.1579 1.99871 12.9153 2.01245 9.67186C2.01703 8.60231 2.33569 7.5996 2.79996 6.64268C2.81187 6.61795 2.89245 6.56144 2.89245 6.56144V6.58316ZM4.38763 8.99236C4.5781 10.3714 6.23646 11.1113 7.40583 10.3046C6.85457 9.47403 6.79413 8.54641 6.81611 7.5959C6.82634 7.14119 6.82387 6.68649 6.8214 6.23179C6.81989 5.95392 6.81838 5.67605 6.81977 5.39818C6.82048 5.27054 6.8192 5.14268 6.81791 5.01466V5.01464V5.01461C6.81094 4.31973 6.80393 3.62026 7.11555 2.92666C7.03162 2.91093 6.9514 2.89324 6.8736 2.87609C6.70691 2.83934 6.55129 2.80504 6.39396 2.79755C5.26488 2.74443 4.36382 3.64184 4.35649 4.82769C4.35015 5.91891 4.35274 7.01013 4.35533 8.10134L4.35649 8.60501C4.35649 8.73413 4.37023 8.86416 4.38763 8.99236ZM18.4412 6.8074V6.80832L18.4403 6.8074H18.4412ZM18.4412 6.8074H22.3971C22.4004 6.7967 22.404 6.78722 22.4073 6.77856C22.4138 6.76129 22.419 6.74726 22.419 6.73323C22.419 6.48872 22.4215 6.24405 22.4239 5.99937C22.4296 5.42022 22.4354 4.84098 22.409 4.26354C22.3659 3.32585 21.8934 2.62991 21.04 2.23249C20.2103 1.84606 19.4109 1.95411 18.6609 2.47149C18.5053 2.57863 18.432 2.70042 18.4357 2.90371C18.4457 3.48043 18.444 4.05716 18.4424 4.63388C18.4418 4.85017 18.4412 5.06645 18.4412 5.28274V6.8074Z"/>
</mask>
<path fill-rule="evenodd" clip-rule="evenodd" d="M16.9625 6.80844H13.0277C13.0249 6.80479 13.0214 6.80113 13.0179 6.79747L13.0179 6.79746C13.01 6.78921 13.0021 6.78097 13.0021 6.77273C13.0051 6.49099 13.0026 6.20876 13.0001 5.92655C12.9942 5.2695 12.9884 4.61259 13.0524 3.9624C13.1385 3.08331 13.7044 2.47894 14.5267 2.16485C15.3527 1.84985 16.1311 1.9927 16.8279 2.53846C16.9003 2.59524 16.9698 2.70879 16.9708 2.79578C16.9779 3.81066 16.9773 4.82499 16.9766 5.83963C16.9764 6.12957 16.9763 6.41954 16.9763 6.70955C16.9763 6.72891 16.9731 6.74787 16.9693 6.77014C16.9674 6.78156 16.9653 6.79386 16.9634 6.80753L16.9625 6.80844ZM12.0389 2.47282C11.6442 3.16144 11.5197 3.88485 11.5297 4.64764C11.5444 5.73826 11.5453 6.82887 11.5297 7.91949C11.5178 8.71159 11.6277 9.46888 12.0398 10.1831C11.4034 10.6383 10.7175 10.761 9.97852 10.5467C9.01244 10.2665 8.31192 9.39196 8.29452 8.38559C8.27071 7.01293 8.25789 5.63936 8.29635 4.26762C8.3458 2.49846 10.3137 1.43806 11.8319 2.33546C11.875 2.36094 11.9157 2.38883 11.9622 2.42072L11.9622 2.42075L11.9622 2.42076C11.9859 2.437 12.0111 2.45428 12.0389 2.47282ZM2.89245 6.58316V6.81941C2.89446 7.04489 2.89195 7.27073 2.88944 7.49656C2.88396 7.98886 2.87849 8.48112 2.91992 8.96951C3.14336 11.594 6.05258 12.9776 8.2448 11.5207C8.30158 11.4831 8.35835 11.4447 8.41421 11.4062C9.9636 12.3833 11.4883 12.3485 13.0056 11.3119C13.2492 11.4648 13.4616 11.6287 13.6036 11.9199C14.0999 12.9401 14.8956 13.6598 15.9405 14.103L16.0437 14.1469C16.0976 14.1698 16.1575 14.1952 16.2326 14.2275C16.1463 14.2571 16.064 14.2847 15.9845 14.3114L15.9844 14.3114C15.8274 14.3641 15.6812 14.4131 15.5366 14.4665C14.0047 15.0352 12.7007 15.9088 11.7859 17.2943C11.0808 18.362 10.7539 19.5442 10.7529 20.8189C10.7529 21.2447 11.0487 21.5578 11.4516 21.5698C11.871 21.5826 12.2025 21.2859 12.2108 20.8537C12.2227 20.2456 12.3005 19.6522 12.512 19.0818C13.0459 17.6441 14.0962 16.7036 15.4533 16.0727C16.5705 15.5535 17.7536 15.3292 18.9834 15.3365H19.2535V12.9987C19.2279 12.9987 19.2014 12.9988 19.1741 12.999H19.174H19.1739H19.1739C19.1174 12.9995 19.0582 12.9999 18.999 12.9987C18.8204 12.9953 18.6412 12.9966 18.462 12.9979H18.4619H18.4619H18.4618C18.06 13.0009 17.6579 13.0038 17.2628 12.9538C15.7582 12.7633 14.6374 11.5198 14.5678 10.0006C14.5502 9.61555 14.5546 9.2292 14.5591 8.83388V8.83383L14.5591 8.83369C14.5612 8.65277 14.5632 8.46997 14.5632 8.28456H14.827H22.312C23.3239 8.28456 23.985 8.94937 23.985 9.96489C23.9854 10.832 23.9853 11.6989 23.9853 12.5658C23.9852 14.0107 23.9851 15.4554 23.9869 16.9005C23.9869 17.4133 23.8907 17.9014 23.6618 18.3602C23.513 18.6579 23.3666 18.9572 23.2202 19.2564C22.8439 20.0256 22.4674 20.7951 22.0501 21.5414C21.1775 23.1017 19.8075 23.9561 18.021 23.9744C14.2061 24.012 10.3912 24.0028 6.57637 23.9799C4.11401 23.9653 2.0271 21.8637 2.01245 19.4004C1.99322 16.1579 1.99871 12.9153 2.01245 9.67186C2.01703 8.60231 2.33569 7.5996 2.79996 6.64268C2.81187 6.61795 2.89245 6.56144 2.89245 6.56144V6.58316ZM4.38763 8.99236C4.5781 10.3714 6.23646 11.1113 7.40583 10.3046C6.85457 9.47403 6.79413 8.54641 6.81611 7.5959C6.82634 7.14119 6.82387 6.68649 6.8214 6.23179C6.81989 5.95392 6.81838 5.67605 6.81977 5.39818C6.82048 5.27054 6.8192 5.14268 6.81791 5.01466V5.01464V5.01461C6.81094 4.31973 6.80393 3.62026 7.11555 2.92666C7.03162 2.91093 6.9514 2.89324 6.8736 2.87609C6.70691 2.83934 6.55129 2.80504 6.39396 2.79755C5.26488 2.74443 4.36382 3.64184 4.35649 4.82769C4.35015 5.91891 4.35274 7.01013 4.35533 8.10134L4.35649 8.60501C4.35649 8.73413 4.37023 8.86416 4.38763 8.99236ZM18.4412 6.8074V6.80832L18.4403 6.8074H18.4412ZM18.4412 6.8074H22.3971C22.4004 6.7967 22.404 6.78722 22.4073 6.77856C22.4138 6.76129 22.419 6.74726 22.419 6.73323C22.419 6.48872 22.4215 6.24405 22.4239 5.99937C22.4296 5.42022 22.4354 4.84098 22.409 4.26354C22.3659 3.32585 21.8934 2.62991 21.04 2.23249C20.2103 1.84606 19.4109 1.95411 18.6609 2.47149C18.5053 2.57863 18.432 2.70042 18.4357 2.90371C18.4457 3.48043 18.444 4.05716 18.4424 4.63388C18.4418 4.85017 18.4412 5.06645 18.4412 5.28274V6.8074Z" fill="url(#paint0_linear_1066_28171)"/>
<path d="M13.0277 6.80844L11.8388 7.72301L12.2891 8.30844H13.0277V6.80844ZM16.9625 6.80844V8.30844H17.5838L18.0232 7.8691L16.9625 6.80844ZM13.0179 6.79747L11.908 7.80648L11.9213 7.82114L11.935 7.83545L13.0179 6.79747ZM13.0179 6.79746L14.1278 5.78845L14.1144 5.77378L14.1007 5.75946L13.0179 6.79746ZM13.0021 6.77273L11.5021 6.75662L11.5021 6.76468V6.77273H13.0021ZM13.0001 5.92655L14.5 5.9132V5.9132L13.0001 5.92655ZM13.0524 3.9624L14.5452 4.10947L14.5453 4.10858L13.0524 3.9624ZM14.5267 2.16485L13.9922 0.763317L13.9915 0.763591L14.5267 2.16485ZM16.8279 2.53846L17.754 1.35846L17.7528 1.35753L16.8279 2.53846ZM16.9708 2.79578L18.4707 2.78525L18.4707 2.77999L16.9708 2.79578ZM16.9766 5.83963L18.4766 5.84057V5.84057L16.9766 5.83963ZM16.9693 6.77014L18.4484 7.01972L18.4484 7.01965L16.9693 6.77014ZM16.9634 6.80753L18.0241 7.86819L18.3814 7.51087L18.4497 7.01018L16.9634 6.80753ZM11.5297 4.64764L10.0299 4.66745L10.0299 4.66779L11.5297 4.64764ZM12.0389 2.47282L13.3403 3.2187L14.0374 2.00238L12.8709 1.22473L12.0389 2.47282ZM11.5297 7.91949L13.0296 7.94203L13.0296 7.9409L11.5297 7.91949ZM12.0398 10.1831L12.9123 11.4033L14.0189 10.6119L13.3391 9.43356L12.0398 10.1831ZM9.97852 10.5467L9.56067 11.9873L9.56078 11.9873L9.97852 10.5467ZM8.29452 8.38559L9.79429 8.35966L9.79429 8.35958L8.29452 8.38559ZM8.29635 4.26762L9.79576 4.30966L9.79576 4.30953L8.29635 4.26762ZM11.8319 2.33546L12.5956 1.04443L12.5952 1.04416L11.8319 2.33546ZM11.9622 2.42072L11.1137 3.65768L11.1164 3.65956L11.9622 2.42072ZM11.9622 2.42075L12.8741 1.22974L12.8416 1.20493L12.8079 1.18191L11.9622 2.42075ZM11.9622 2.42076L11.0503 3.61177L11.0814 3.63556L11.1137 3.6577L11.9622 2.42076ZM2.89245 6.81941H1.39239L1.39251 6.83282L2.89245 6.81941ZM2.88944 7.49656L1.38953 7.47988L2.88944 7.49656ZM2.91992 8.96951L1.42529 9.09631L1.42533 9.09676L2.91992 8.96951ZM8.2448 11.5207L7.41741 10.2695L7.41456 10.2714L8.2448 11.5207ZM8.41421 11.4062L9.21433 10.1374L8.37796 9.61001L7.56355 10.1708L8.41421 11.4062ZM13.0056 11.3119L13.8032 10.0415L12.9709 9.519L12.1595 10.0733L13.0056 11.3119ZM13.6036 11.9199L14.9524 11.2637L14.9519 11.2627L13.6036 11.9199ZM15.9405 14.103L16.5279 12.7228L16.5262 12.7221L15.9405 14.103ZM16.0437 14.1469L15.4562 15.5271L15.4579 15.5278L16.0437 14.1469ZM16.2326 14.2275L16.7191 15.6465L20.394 14.3865L16.8259 12.8499L16.2326 14.2275ZM15.9845 14.3114L15.5075 12.8892L15.498 12.8925L15.9845 14.3114ZM15.9844 14.3114L16.4613 15.7336L16.4708 15.7304L15.9844 14.3114ZM15.5366 14.4665L15.0164 13.0596L15.0147 13.0603L15.5366 14.4665ZM11.7859 17.2943L13.0376 18.1209L13.0376 18.1208L11.7859 17.2943ZM10.7529 20.8189L9.25295 20.8178V20.8189H10.7529ZM11.4516 21.5698L11.4975 20.0705L11.4959 20.0704L11.4516 21.5698ZM12.2108 20.8537L10.7111 20.8243L10.711 20.8251L12.2108 20.8537ZM12.512 19.0818L11.1059 18.5596L11.1056 18.5603L12.512 19.0818ZM15.4533 16.0727L14.8211 14.7124L14.8209 14.7125L15.4533 16.0727ZM18.9834 15.3365L18.9745 16.8365H18.9834V15.3365ZM19.2535 15.3365V16.8365H20.7535V15.3365H19.2535ZM19.2535 12.9987H20.7535V11.4987H19.2535V12.9987ZM19.1741 12.999V14.4991L19.1851 14.499L19.1741 12.999ZM19.1739 12.999V11.499L19.1629 11.4991L19.1739 12.999ZM18.999 12.9987L19.0302 11.499L19.0274 11.4989L18.999 12.9987ZM18.462 12.9979V14.4979L18.473 14.4979L18.462 12.9979ZM18.4618 12.9979V11.4979L18.4508 11.4979L18.4618 12.9979ZM17.2628 12.9538L17.4512 11.4657L17.4512 11.4657L17.2628 12.9538ZM14.5678 10.0006L13.0694 10.0691L13.0694 10.0693L14.5678 10.0006ZM14.5591 8.83388L16.059 8.85092L16.0591 8.8424V8.83388H14.5591ZM14.5591 8.83383L13.0594 8.80471L13.0591 8.81927V8.83383H14.5591ZM14.5591 8.83369L16.0589 8.86281L16.059 8.85072L14.5591 8.83369ZM14.5632 8.28456V6.78456H13.0632V8.28456H14.5632ZM23.985 9.96489H22.485V9.96549L23.985 9.96489ZM23.9853 12.5658L22.4853 12.5657V12.5657L23.9853 12.5658ZM23.9869 16.9005H25.4869L25.4869 16.8987L23.9869 16.9005ZM23.6618 18.3602L25.0037 19.0305L25.004 19.0299L23.6618 18.3602ZM23.2202 19.2564L21.8728 18.5972L21.8728 18.5972L23.2202 19.2564ZM22.0501 21.5414L23.3593 22.2735L23.3593 22.2735L22.0501 21.5414ZM18.021 23.9744L18.0357 25.4743L18.0364 25.4743L18.021 23.9744ZM6.57637 23.9799L6.58537 22.4799H6.5853L6.57637 23.9799ZM2.01245 19.4004L0.512473 19.4093L0.512473 19.4093L2.01245 19.4004ZM2.01245 9.67186L0.512461 9.66544L0.51246 9.66551L2.01245 9.67186ZM2.79996 6.64268L4.14952 7.29744L4.15147 7.2934L2.79996 6.64268ZM2.89245 6.56144H4.39245V3.67732L2.03116 5.33336L2.89245 6.56144ZM7.40583 10.3046L8.25763 11.5393L9.47034 10.7026L8.6556 9.47508L7.40583 10.3046ZM4.38763 8.99236L2.90125 9.19408L2.90173 9.19758L4.38763 8.99236ZM6.81611 7.5959L8.31571 7.63057L8.31573 7.62964L6.81611 7.5959ZM6.8214 6.23179L8.32138 6.22365L6.8214 6.23179ZM6.81977 5.39818L5.31979 5.38981L5.31979 5.39068L6.81977 5.39818ZM6.81791 5.01466H5.31791V5.02219L5.31799 5.02971L6.81791 5.01466ZM6.81791 5.01461H8.31791V5.00709L8.31784 4.99957L6.81791 5.01461ZM7.11555 2.92666L8.4838 3.54138L9.2646 1.80347L7.39198 1.45235L7.11555 2.92666ZM6.8736 2.87609L7.19652 1.41126L7.19652 1.41126L6.8736 2.87609ZM6.39396 2.79755L6.46531 1.29924L6.46444 1.2992L6.39396 2.79755ZM4.35649 4.82769L2.85652 4.81842L2.85652 4.81896L4.35649 4.82769ZM4.35533 8.10134L5.85533 8.09788L5.85533 8.09778L4.35533 8.10134ZM4.35649 8.60501H5.8565L5.85649 8.60155L4.35649 8.60501ZM18.4412 6.80832L17.3805 7.86898L19.9412 10.4296V6.80832H18.4412ZM18.4403 6.8074V5.3074H14.8189L17.3796 7.86806L18.4403 6.8074ZM22.3971 6.8074V8.3074H23.4981L23.8281 7.25702L22.3971 6.8074ZM22.4073 6.77856L21.0035 6.25004L21.0034 6.25019L22.4073 6.77856ZM22.4239 5.99937L23.9238 6.01423V6.01422L22.4239 5.99937ZM22.409 4.26354L23.9074 4.19505L23.9074 4.19477L22.409 4.26354ZM21.04 2.23249L20.4066 3.59222L20.4068 3.59228L21.04 2.23249ZM18.6609 2.47149L19.5114 3.70712L19.5127 3.70619L18.6609 2.47149ZM18.4357 2.90371L19.9355 2.87773L19.9354 2.87668L18.4357 2.90371ZM18.4424 4.63388L16.9424 4.62963V4.62964L18.4424 4.63388ZM13.0277 8.30844H16.9625V5.30844H13.0277V8.30844ZM11.935 7.83545C11.9392 7.8398 11.9276 7.82784 11.9143 7.81325C11.9003 7.79789 11.8719 7.76611 11.8388 7.72301L14.2166 5.89388C14.1807 5.84712 14.1491 5.81168 14.1318 5.79266C14.1225 5.78245 14.1147 5.77417 14.1098 5.76898C14.1052 5.76412 14.1011 5.75984 14.1007 5.7595L11.935 7.83545ZM11.9079 7.80647L11.908 7.80648L14.1278 5.78846L14.1278 5.78845L11.9079 7.80647ZM11.5021 6.77273C11.5021 7.24657 11.7213 7.56636 11.7891 7.66069C11.8342 7.72348 11.875 7.77009 11.8964 7.7939C11.9081 7.80689 11.9178 7.81736 11.9239 7.82381C11.9296 7.82985 11.9347 7.83515 11.935 7.83545L14.1007 5.75946C14.078 5.73579 14.1541 5.81096 14.2249 5.90949C14.2868 5.99559 14.5021 6.30713 14.5021 6.77273H11.5021ZM11.5001 5.9399C11.5027 6.22458 11.505 6.49207 11.5021 6.75662L14.502 6.78884C14.5052 6.48991 14.5025 6.19293 14.5 5.9132L11.5001 5.9399ZM11.5596 3.81533C11.4864 4.55899 11.4944 5.29669 11.5001 5.9399L14.5 5.9132C14.494 5.2423 14.4903 4.66619 14.5452 4.10947L11.5596 3.81533ZM13.9915 0.763591C12.7577 1.23484 11.7126 2.25368 11.5596 3.81622L14.5453 4.10858C14.559 3.96859 14.6025 3.88663 14.6567 3.82283C14.7193 3.74918 14.8404 3.65075 15.0619 3.56611L13.9915 0.763591ZM17.7528 1.35753C16.6714 0.510608 15.3438 0.247849 13.9922 0.763317L15.0612 3.56639C15.3616 3.45184 15.5907 3.47479 15.903 3.71939L17.7528 1.35753ZM18.4707 2.77999C18.4665 2.38502 18.3239 2.07823 18.2277 1.9102C18.1225 1.7265 17.9674 1.52593 17.754 1.35847L15.9018 3.71846C15.7608 3.60777 15.6767 3.49236 15.6246 3.40138C15.5947 3.34923 15.5611 3.28022 15.5327 3.19373C15.5056 3.11092 15.4726 2.97943 15.4708 2.81157L18.4707 2.77999ZM18.4766 5.84057C18.4773 4.82688 18.4779 3.80682 18.4707 2.78525L15.4708 2.80631C15.4779 3.81451 15.4773 4.82311 15.4766 5.8387L18.4766 5.84057ZM18.4763 6.70955C18.4763 6.42008 18.4764 6.13059 18.4766 5.84057L15.4766 5.83869C15.4764 6.12856 15.4763 6.41899 15.4763 6.70955H18.4763ZM18.4484 7.01965C18.4492 7.01497 18.4563 6.97396 18.4621 6.92865C18.4686 6.87797 18.4763 6.80176 18.4763 6.70955H15.4763C15.4763 6.63669 15.4823 6.57965 15.4863 6.54886C15.4895 6.52344 15.4932 6.50304 15.4902 6.52062L18.4484 7.01965ZM18.4497 7.01018C18.4487 7.01748 18.4479 7.02271 18.4476 7.02468C18.4474 7.02588 18.4473 7.02618 18.4484 7.01972L15.4902 6.52056C15.4886 6.53039 15.4827 6.5646 15.4772 6.60488L18.4497 7.01018ZM18.0232 7.8691L18.0241 7.86819L15.9028 5.74687L15.9019 5.74778L18.0232 7.8691ZM13.0296 4.62784C13.022 4.04835 13.1158 3.6103 13.3403 3.2187L10.7375 1.72693C10.1726 2.71257 10.0174 3.72136 10.0299 4.66745L13.0296 4.62784ZM13.0296 7.9409C13.0454 6.8352 13.0444 5.73067 13.0296 4.62749L10.0299 4.66779C10.0444 5.74584 10.0452 6.82255 10.0299 7.89808L13.0296 7.9409ZM13.3391 9.43356C13.1109 9.03805 13.02 8.58067 13.0296 7.94203L10.0299 7.89695C10.0157 8.8425 10.1445 9.89972 10.7405 10.9327L13.3391 9.43356ZM9.56078 11.9873C10.7534 12.3332 11.913 12.1179 12.9123 11.4033L11.1673 8.96301C10.8938 9.15861 10.6816 9.18875 10.3963 9.10602L9.56078 11.9873ZM6.79474 8.41152C6.82406 10.1076 7.99393 11.5329 9.56067 11.9873L10.3964 9.10605C10.0309 9.00006 9.79977 8.67631 9.79429 8.35966L6.79474 8.41152ZM6.79694 4.22558C6.7575 5.63231 6.77084 7.03333 6.79474 8.4116L9.79429 8.35958C9.77058 6.99254 9.75828 5.64641 9.79576 4.30966L6.79694 4.22558ZM12.5952 1.04416C10.115 -0.421798 6.87903 1.28863 6.79693 4.22571L9.79576 4.30953C9.81257 3.70828 10.5123 3.29792 11.0687 3.62676L12.5952 1.04416ZM12.8106 1.18377C12.7721 1.1573 12.6896 1.09999 12.5956 1.04443L11.0682 3.62649C11.0615 3.62251 11.06 3.62135 11.0676 3.62636C11.0714 3.62889 11.0768 3.63246 11.0846 3.63781C11.0928 3.64336 11.1016 3.64939 11.1137 3.65768L12.8106 1.18377ZM12.8079 1.18191L12.8079 1.18189L11.1164 3.65956L11.1164 3.65959L12.8079 1.18191ZM12.8741 1.22975L12.8741 1.22974L11.0503 3.61176L11.0503 3.61177L12.8741 1.22975ZM12.8709 1.22473C12.8525 1.21247 12.8351 1.20052 12.8107 1.18381L11.1137 3.6577C11.1367 3.67348 11.1696 3.6961 11.2068 3.7209L12.8709 1.22473ZM4.39245 6.81941V6.58316H1.39245V6.81941H4.39245ZM4.38935 7.51324C4.39183 7.28994 4.39456 7.04904 4.39239 6.806L1.39251 6.83282C1.39437 7.04074 1.39207 7.25152 1.38953 7.47988L4.38935 7.51324ZM4.41455 8.84272C4.38022 8.43796 4.38374 8.01784 4.38935 7.51324L1.38953 7.47988C1.38419 7.95988 1.37676 8.52428 1.42529 9.09631L4.41455 8.84272ZM7.41456 10.2714C6.15921 11.1057 4.53995 10.3156 4.41451 8.84227L1.42533 9.09676C1.74676 12.8723 5.94596 14.8495 9.07505 12.77L7.41456 10.2714ZM7.56355 10.1708C7.51387 10.205 7.46498 10.2381 7.41742 10.2695L9.07219 12.7719C9.13818 12.7282 9.20283 12.6844 9.26487 12.6417L7.56355 10.1708ZM12.1595 10.0733C11.591 10.4617 11.1084 10.6057 10.6903 10.6145C10.2732 10.6233 9.78991 10.5004 9.21433 10.1374L7.6141 12.675C8.5879 13.2891 9.64165 13.6373 10.7536 13.6139C11.8645 13.5904 12.9028 13.1987 13.8517 12.5505L12.1595 10.0733ZM14.9519 11.2627C14.626 10.5941 14.1283 10.2457 13.8032 10.0415L12.208 12.5823C12.2511 12.6093 12.2771 12.6271 12.2938 12.6394C12.3097 12.651 12.3125 12.6544 12.3081 12.6502C12.303 12.6454 12.2928 12.6347 12.2811 12.619C12.2693 12.6031 12.2606 12.5882 12.2552 12.5772L14.9519 11.2627ZM16.5262 12.7221C15.7905 12.41 15.279 11.9349 14.9524 11.2637L12.2547 12.5762C12.9208 13.9452 14.0008 14.9096 15.3547 15.4839L16.5262 12.7221ZM16.6311 12.7667L16.5279 12.7228L15.3531 15.4832L15.4562 15.5271L16.6311 12.7667ZM16.8259 12.8499C16.7467 12.8158 16.6834 12.7889 16.6294 12.766L15.4579 15.5278C15.5117 15.5506 15.5684 15.5747 15.6393 15.6052L16.8259 12.8499ZM16.4614 15.7336C16.5404 15.7071 16.6273 15.6779 16.7191 15.6465L15.7461 12.8086C15.6654 12.8363 15.5877 12.8624 15.5076 12.8892L16.4614 15.7336ZM16.4708 15.7304L16.471 15.7303L15.498 12.8925L15.4979 12.8925L16.4708 15.7304ZM16.0568 15.8735C16.1762 15.8293 16.3003 15.7876 16.4613 15.7336L15.5075 12.8893C15.3546 12.9405 15.1863 12.9968 15.0164 13.0596L16.0568 15.8735ZM13.0376 18.1208C13.7341 17.066 14.7432 16.3611 16.0586 15.8728L15.0147 13.0603C13.2662 13.7093 11.6672 14.7516 10.5341 16.4678L13.0376 18.1208ZM12.2529 20.8199C12.2537 19.8156 12.5066 18.925 13.0376 18.1209L10.5342 16.4677C9.65498 17.799 9.25406 19.2728 9.25295 20.8178L12.2529 20.8199ZM11.4959 20.0704C11.6849 20.076 11.8919 20.1592 12.0471 20.3253C12.2001 20.4891 12.2529 20.6782 12.2529 20.8189H9.25295C9.25295 22.0023 10.1411 23.0317 11.4073 23.0691L11.4959 20.0704ZM10.711 20.8251C10.7144 20.6499 10.7913 20.4405 10.9647 20.2794C11.1337 20.1224 11.3357 20.0655 11.4975 20.0705L11.4058 23.0691C12.6252 23.1063 13.6857 22.1839 13.7105 20.8823L10.711 20.8251ZM11.1056 18.5603C10.8173 19.3379 10.725 20.1106 10.7111 20.8243L13.7105 20.883C13.7203 20.3807 13.7837 19.9666 13.9185 19.6032L11.1056 18.5603ZM14.8209 14.7125C13.1989 15.4666 11.8093 16.6652 11.1059 18.5596L13.9182 19.6039C14.2825 18.623 14.9935 17.9407 16.0857 17.4329L14.8209 14.7125ZM18.9923 13.8365C17.5696 13.828 16.1634 14.0886 14.8211 14.7124L16.0855 17.433C16.9776 17.0184 17.9376 16.8303 18.9745 16.8365L18.9923 13.8365ZM19.2535 13.8365H18.9834V16.8365H19.2535V13.8365ZM17.7535 12.9987V15.3365H20.7535V12.9987H17.7535ZM19.1851 14.499C19.2134 14.4988 19.2344 14.4987 19.2535 14.4987V11.4987C19.2215 11.4987 19.1893 11.4989 19.1632 11.4991L19.1851 14.499ZM19.174 14.499H19.1741V11.499H19.174V14.499ZM19.1739 14.499H19.174V11.499H19.1739V14.499ZM19.1739 14.499H19.1739V11.499H19.1739V14.499ZM18.9677 14.4983C19.0515 14.5001 19.1316 14.4994 19.1848 14.499L19.1629 11.4991C19.1032 11.4995 19.0649 11.4997 19.0302 11.499L18.9677 14.4983ZM18.473 14.4979C18.6556 14.4965 18.815 14.4954 18.9705 14.4984L19.0274 11.4989C18.8259 11.4951 18.6269 11.4966 18.4509 11.4979L18.473 14.4979ZM18.4619 14.4979H18.462V11.4979H18.4619V14.4979ZM18.4619 14.4979H18.4619V11.4979H18.4619V14.4979ZM18.4618 14.4979H18.4619V11.4979H18.4618V14.4979ZM17.0744 14.4419C17.5856 14.5066 18.0886 14.5007 18.4728 14.4979L18.4508 11.4979C18.0314 11.501 17.7302 11.501 17.4512 11.4657L17.0744 14.4419ZM13.0694 10.0693C13.1715 12.2977 14.8269 14.1574 17.0744 14.4419L17.4512 11.4657C16.6896 11.3693 16.1033 10.7418 16.0662 9.93196L13.0694 10.0693ZM13.0592 8.81685C13.0548 9.2047 13.0495 9.63405 13.0694 10.0691L16.0663 9.93216C16.0509 9.59705 16.0544 9.25371 16.059 8.85092L13.0592 8.81685ZM13.0591 8.83383V8.83388H16.0591V8.83383H13.0591ZM13.0594 8.80456L13.0594 8.80471L16.0588 8.86295L16.0588 8.86281L13.0594 8.80456ZM13.0632 8.28456C13.0632 8.46008 13.0613 8.63443 13.0592 8.81666L16.059 8.85072C16.0611 8.6711 16.0632 8.47987 16.0632 8.28456H13.0632ZM14.827 6.78456H14.5632V9.78456H14.827V6.78456ZM22.312 6.78456H14.827V9.78456H22.312V6.78456ZM25.485 9.96489C25.485 9.12559 25.2055 8.30296 24.5911 7.68574C23.9761 7.06781 23.1536 6.78456 22.312 6.78456V9.78456C22.4007 9.78456 22.4479 9.79897 22.4641 9.80518C22.4786 9.81074 22.4744 9.8117 22.4648 9.80207C22.4553 9.79249 22.4571 9.78918 22.4634 9.8058C22.4703 9.82409 22.485 9.87373 22.485 9.96489H25.485ZM25.4853 12.5659C25.4853 11.699 25.4854 10.8318 25.485 9.9643L22.485 9.96549C22.4854 10.8322 22.4853 11.6988 22.4853 12.5657L25.4853 12.5659ZM25.4869 16.8987C25.4851 15.4547 25.4852 14.0109 25.4853 12.5659L22.4853 12.5657C22.4852 14.0104 22.4851 15.4561 22.4869 16.9023L25.4869 16.8987ZM25.004 19.0299C25.3529 18.3306 25.4869 17.6064 25.4869 16.9005H22.4869C22.4869 17.2202 22.4285 17.4722 22.3196 17.6904L25.004 19.0299ZM24.5676 19.9156C24.7145 19.6154 24.8581 19.3218 25.0037 19.0305L22.3199 17.6898C22.1679 17.9941 22.0188 18.2989 21.8728 18.5972L24.5676 19.9156ZM23.3593 22.2735C23.8001 21.4853 24.1943 20.6786 24.5676 19.9156L21.8728 18.5972C21.4935 19.3726 21.1348 20.1049 20.7409 20.8093L23.3593 22.2735ZM18.0364 25.4743C20.3866 25.4502 22.2371 24.2801 23.3593 22.2735L20.741 20.8092C20.1178 21.9234 19.2284 22.462 18.0056 22.4745L18.0364 25.4743ZM6.56737 25.4799C10.3853 25.5028 14.2092 25.512 18.0357 25.4743L18.0062 22.4745C14.203 22.5119 10.3972 22.5028 6.58537 22.4799L6.56737 25.4799ZM0.512473 19.4093C0.531973 22.6877 3.27728 25.4603 6.56745 25.4799L6.5853 22.4799C4.95075 22.4702 3.52222 21.0397 3.51242 19.3915L0.512473 19.4093ZM0.51246 9.66551C0.498715 12.9112 0.4932 16.1595 0.512473 19.4093L3.51242 19.3915C3.49323 16.1563 3.49871 12.9195 3.51243 9.67822L0.51246 9.66551ZM1.45041 5.98792C0.926793 7.06717 0.518319 8.29681 0.512461 9.66544L3.51243 9.67829C3.51573 8.90781 3.7446 8.13203 4.14951 7.29744L1.45041 5.98792ZM2.89245 6.56144C2.03116 5.33336 2.03108 5.33342 2.031 5.33347C2.03097 5.33349 2.03088 5.33355 2.03083 5.33359C2.03072 5.33367 2.0306 5.33375 2.03049 5.33383C2.03026 5.33399 2.03002 5.33416 2.02978 5.33433C2.02929 5.33467 2.02878 5.33503 2.02824 5.33541C2.02717 5.33616 2.026 5.33699 2.02473 5.33789C2.0222 5.33968 2.01926 5.34177 2.01597 5.34413C2.00944 5.3488 2.00123 5.35473 1.9918 5.36165C1.97393 5.37478 1.94709 5.39485 1.91653 5.41917C1.88975 5.44048 1.84036 5.48066 1.78582 5.53252C1.78335 5.53487 1.58395 5.71055 1.44846 5.99196L4.15147 7.2934C4.07086 7.46082 3.97773 7.57142 3.94768 7.60659C3.9063 7.65501 3.87104 7.68948 3.85305 7.70659C3.81697 7.7409 3.78996 7.76231 3.78481 7.76641C3.77589 7.77351 3.76994 7.7779 3.76754 7.77966C3.76585 7.7809 3.76404 7.78221 3.76196 7.7837C3.76089 7.78446 3.7597 7.78531 3.75835 7.78627C3.75768 7.78675 3.75696 7.78725 3.75619 7.78779C3.75581 7.78806 3.75541 7.78834 3.755 7.78863C3.7548 7.78877 3.75459 7.78892 3.75438 7.78907C3.75428 7.78914 3.75417 7.78922 3.75406 7.78929C3.75401 7.78933 3.75393 7.78939 3.7539 7.7894C3.75382 7.78946 3.75374 7.78952 2.89245 6.56144ZM4.39245 6.58316V6.56144H1.39245V6.58316H4.39245ZM6.55402 9.0699C6.44434 9.14557 6.29554 9.16617 6.13238 9.09458C5.96631 9.02171 5.88904 8.89951 5.87352 8.78714L2.90173 9.19758C3.24572 11.6881 6.1729 12.9775 8.25763 11.5393L6.55402 9.0699ZM5.31651 7.56122C5.29333 8.56358 5.33426 9.89593 6.15606 11.1341L8.6556 9.47508C8.37487 9.05212 8.29493 8.52924 8.31571 7.63057L5.31651 7.56122ZM5.32142 6.23994C5.32391 6.69813 5.32617 7.13188 5.31649 7.56215L8.31573 7.62964C8.32651 7.15051 8.32383 6.67486 8.32138 6.22365L5.32142 6.23994ZM5.31979 5.39068C5.31835 5.67768 5.31992 5.96337 5.32142 6.23994L8.32138 6.22365C8.31986 5.94447 8.31841 5.67442 8.31975 5.40568L5.31979 5.39068ZM5.31799 5.02971C5.31929 5.1597 5.32043 5.27584 5.31979 5.38981L8.31975 5.40655C8.32053 5.26524 8.3191 5.12566 8.31784 4.99962L5.31799 5.02971ZM5.31791 5.01464V5.01466H8.31791V5.01464H5.31791ZM5.31791 5.01461V5.01464H8.31791V5.01461H5.31791ZM5.74729 2.31194C5.28107 3.34966 5.31143 4.37544 5.31799 5.02966L8.31784 4.99957C8.31046 4.26403 8.32679 3.89086 8.4838 3.54138L5.74729 2.31194ZM6.55068 4.34092C6.62547 4.35741 6.72828 4.38019 6.83911 4.40097L7.39198 1.45235C7.33496 1.44166 7.27733 1.42908 7.19652 1.41126L6.55068 4.34092ZM6.32261 4.29585C6.31727 4.29559 6.32835 4.2957 6.36791 4.30273C6.41159 4.31049 6.46153 4.32127 6.55068 4.34092L7.19652 1.41126C7.05424 1.3799 6.77216 1.31386 6.46531 1.29924L6.32261 4.29585ZM5.85647 4.83695C5.85776 4.62763 5.93455 4.48905 6.01324 4.41065C6.08922 4.33496 6.18978 4.2896 6.32348 4.29589L6.46444 1.2992C4.41341 1.20272 2.86867 2.85236 2.85652 4.81842L5.85647 4.83695ZM5.85533 8.09778C5.85273 7.00554 5.85016 5.92046 5.85647 4.83641L2.85652 4.81896C2.85013 5.91735 2.85275 7.01471 2.85534 8.10491L5.85533 8.09778ZM5.85649 8.60155L5.85533 8.09788L2.85533 8.10481L2.8565 8.60848L5.85649 8.60155ZM5.874 8.79064C5.85981 8.68609 5.85649 8.63384 5.85649 8.60501H2.85649C2.85649 8.83442 2.88065 9.04224 2.90126 9.19408L5.874 8.79064ZM19.9412 6.80832V6.8074H16.9412V6.80832H19.9412ZM17.3796 7.86806L17.3805 7.86898L19.5018 5.74766L19.5009 5.74674L17.3796 7.86806ZM18.4412 5.3074H18.4403V8.3074H18.4412V5.3074ZM22.3971 5.3074H18.4412V8.3074H22.3971V5.3074ZM21.0034 6.25019C21.0012 6.25602 20.9835 6.30204 20.966 6.35779L23.8281 7.25702C23.8223 7.27561 23.8171 7.29026 23.8139 7.29916C23.8112 7.30677 23.809 7.31264 23.8111 7.30693L21.0034 6.25019ZM20.919 6.73323C20.919 6.55204 20.9534 6.41194 20.974 6.3402C20.9917 6.27868 21.012 6.22726 21.0035 6.25004L23.8111 7.30708C23.8117 7.30549 23.8182 7.28811 23.8251 7.26882C23.8324 7.24827 23.8446 7.21303 23.8572 7.16915C23.8821 7.08257 23.919 6.92845 23.919 6.73323H20.919ZM20.924 5.98451C20.9215 6.22795 20.919 6.48005 20.919 6.73323H23.919C23.919 6.49739 23.9214 6.26016 23.9238 6.01423L20.924 5.98451ZM20.9105 4.33204C20.9347 4.86085 20.9298 5.39834 20.924 5.98452L23.9238 6.01422C23.9295 5.44211 23.936 4.8211 23.9074 4.19505L20.9105 4.33204ZM20.4068 3.59228C20.7614 3.75745 20.8935 3.96066 20.9105 4.33232L23.9074 4.19477C23.8384 2.69104 23.0254 1.50237 21.6732 0.872691L20.4068 3.59228ZM19.5127 3.70619C19.8728 3.45776 20.1098 3.45396 20.4066 3.59222L21.6733 0.872753C20.3109 0.238151 18.949 0.450459 17.8092 1.23679L19.5127 3.70619ZM19.9354 2.87668C19.937 2.96611 19.922 3.15355 19.8091 3.36308C19.6994 3.56651 19.5604 3.67336 19.5114 3.70712L17.8105 1.23585C17.6058 1.37675 17.3523 1.59807 17.1681 1.94C16.9805 2.28804 16.9306 2.63801 16.9359 2.93074L19.9354 2.87668ZM19.9424 4.63813C19.944 4.06393 19.9457 3.47209 19.9355 2.87773L16.9359 2.92968C16.9456 3.48878 16.944 4.05039 16.9424 4.62963L19.9424 4.63813ZM19.9412 5.28274C19.9412 5.06893 19.9418 4.85478 19.9424 4.63813L16.9424 4.62964C16.9418 4.84555 16.9412 5.06397 16.9412 5.28274H19.9412ZM19.9412 6.8074V5.28274H16.9412V6.8074H19.9412Z" fill="#551111" mask="url(#path-1-outside-1_1066_28171)"/>
</g>
<defs>
<filter id="filter0_d_1066_28171" x="0.5" y="0.499756" width="24.9869" height="26.0001" filterUnits="userSpaceOnUse" color-interpolation-filters="sRGB">
<feFlood flood-opacity="0" result="BackgroundImageFix"/>
<feColorMatrix in="SourceAlpha" type="matrix" values="0 0 0 0 0 0 0 0 0 0 0 0 0 0 0 0 0 0 127 0" result="hardAlpha"/>
<feOffset dy="1"/>
<feComposite in2="hardAlpha" operator="out"/>
<feColorMatrix type="matrix" values="0 0 0 0 0.333333 0 0 0 0 0.194667 0 0 0 0 0.0666667 0 0 0 1 0"/>
<feBlend mode="normal" in2="BackgroundImageFix" result="effect1_dropShadow_1066_28171"/>
<feBlend mode="normal" in="SourceGraphic" in2="effect1_dropShadow_1066_28171" result="shape"/>
</filter>
<linearGradient id="paint0_linear_1066_28171" x1="12.9934" y1="2" x2="12.9934" y2="24" gradientUnits="userSpaceOnUse">
<stop stop-color="white"/>
<stop offset="1" stop-color="#FCD1D1"/>
</linearGradient>
</defs>
</svg>
