<svg width="20" height="20" viewBox="0 0 20 20" fill="none" xmlns="http://www.w3.org/2000/svg">
<path d="M12.257 10.2573L8.62086 13.8934C8.57001 13.9443 8.5052 13.9789 8.43463 13.993C8.36405 14.0071 8.2909 13.9998 8.22442 13.9723C8.15795 13.9448 8.10114 13.8981 8.06119 13.8383C8.02124 13.7784 7.99994 13.7081 8 13.6361V6.3639C7.99994 6.29194 8.02124 6.22158 8.06119 6.16174C8.10114 6.10189 8.15795 6.05524 8.22442 6.02769C8.2909 6.00015 8.36405 5.99295 8.43463 6.007C8.5052 6.02106 8.57001 6.05573 8.62086 6.10664L12.257 9.74275C12.2908 9.77652 12.3176 9.81662 12.3359 9.86076C12.3542 9.9049 12.3636 9.95222 12.3636 10C12.3636 10.0478 12.3542 10.0951 12.3359 10.1392C12.3176 10.1834 12.2908 10.2235 12.257 10.2573Z" fill="currentColor"/>
</svg>
