<svg width="20" height="20" viewBox="0 0 20 20" fill="none" xmlns="http://www.w3.org/2000/svg">
<g clip-path="url(#clip0_937_220652)">
<path d="M15.0003 15V17.5C15.0003 17.721 14.9125 17.9329 14.7562 18.0892C14.6 18.2455 14.388 18.3333 14.167 18.3333H5.83366C5.61265 18.3333 5.40068 18.2455 5.2444 18.0892C5.08812 17.9329 5.00033 17.721 5.00033 17.5V15H2.50033C2.27931 15 2.06735 14.9122 1.91107 14.7559C1.75479 14.5996 1.66699 14.3876 1.66699 14.1666V9.99996C1.66699 5.39746 5.39783 1.66663 10.0003 1.66663C14.6028 1.66663 18.3337 5.39746 18.3337 9.99996V14.1666C18.3337 14.3876 18.2459 14.5996 18.0896 14.7559C17.9333 14.9122 17.7213 15 17.5003 15H15.0003ZM6.25033 11.6666C6.41448 11.6666 6.57702 11.6343 6.72868 11.5715C6.88034 11.5087 7.01814 11.4166 7.13421 11.3005C7.25028 11.1844 7.34236 11.0466 7.40518 10.895C7.46799 10.7433 7.50033 10.5808 7.50033 10.4166C7.50033 10.2525 7.46799 10.0899 7.40518 9.93827C7.34236 9.78662 7.25028 9.64882 7.13421 9.53274C7.01814 9.41667 6.88034 9.32459 6.72868 9.26178C6.57702 9.19896 6.41448 9.16663 6.25033 9.16663C5.91881 9.16663 5.60086 9.29832 5.36644 9.53274C5.13202 9.76716 5.00033 10.0851 5.00033 10.4166C5.00033 10.7481 5.13202 11.0661 5.36644 11.3005C5.60086 11.5349 5.91881 11.6666 6.25033 11.6666ZM13.7503 11.6666C13.9145 11.6666 14.077 11.6343 14.2287 11.5715C14.3803 11.5087 14.5181 11.4166 14.6342 11.3005C14.7503 11.1844 14.8424 11.0466 14.9052 10.895C14.968 10.7433 15.0003 10.5808 15.0003 10.4166C15.0003 10.2525 14.968 10.0899 14.9052 9.93827C14.8424 9.78662 14.7503 9.64882 14.6342 9.53274C14.5181 9.41667 14.3803 9.32459 14.2287 9.26178C14.077 9.19896 13.9145 9.16663 13.7503 9.16663C13.4188 9.16663 13.1009 9.29832 12.8664 9.53274C12.632 9.76716 12.5003 10.0851 12.5003 10.4166C12.5003 10.7481 12.632 11.0661 12.8664 11.3005C13.1009 11.5349 13.4188 11.6666 13.7503 11.6666Z" fill="currentColor"/>
</g>
<defs>
<clipPath id="clip0_937_220652">
<rect width="20" height="20" fill="white"/>
</clipPath>
</defs>
</svg>
