<svg width="49" height="22" viewBox="0 0 49 22" fill="none" xmlns="http://www.w3.org/2000/svg">
<g filter="url(#filter0_d_935_22851)">
<mask id="path-1-outside-1_935_22851" maskUnits="userSpaceOnUse" x="0" y="-0.000732422" width="49" height="21" fill="black">
<rect fill="white" y="-0.000732422" width="49" height="21"/>
<path fill-rule="evenodd" clip-rule="evenodd" d="M12.8827 6.49645H10.0209C10.0188 6.49379 10.0162 6.49113 10.0137 6.48846C10.0079 6.48247 10.0022 6.47647 10.0022 6.47048C10.0044 6.26557 10.0026 6.0603 10.0008 5.85505V5.85504C9.9965 5.37717 9.99225 4.8994 10.0388 4.42652C10.1014 3.78716 10.513 3.3476 11.1111 3.11916C11.7118 2.89006 12.2779 2.99396 12.7848 3.39089C12.8374 3.43218 12.888 3.51477 12.8887 3.57804C12.8938 4.31618 12.8934 5.05392 12.8929 5.79188L12.8926 6.42453C12.8926 6.43861 12.8903 6.4524 12.8876 6.46859V6.46859L12.8876 6.46861C12.8862 6.47692 12.8847 6.48585 12.8833 6.49579L12.8827 6.49645ZM36.338 19V15.9127L41.1831 11.7662C42.0695 11.015 42.6854 10.3765 43.031 9.8507C43.3765 9.30986 43.5493 8.70892 43.5493 8.04789V7.73239C43.5493 7.13146 43.3315 6.68075 42.8958 6.38028C42.4601 6.07981 41.9869 5.92958 41.4761 5.92958C40.7399 5.92958 40.1765 6.14742 39.7859 6.5831C39.3953 7.01878 39.1174 7.53709 38.9521 8.13803L36 7.01127C36.2404 6.27512 36.6009 5.60657 37.0817 5.00563C37.5775 4.4047 38.216 3.92394 38.9972 3.56338C39.7784 3.18779 40.7099 3 41.7915 3C42.9333 3 43.9023 3.21033 44.6986 3.63099C45.4948 4.03662 46.1033 4.59249 46.5239 5.29859C46.9446 6.00469 47.1549 6.81596 47.1549 7.73239C47.1549 8.6338 46.9596 9.43756 46.569 10.1437C46.1934 10.8347 45.6826 11.4808 45.0366 12.0817C44.4056 12.6676 43.7146 13.261 42.9634 13.862L40.0338 16.1606H47.4704V19H36.338ZM24 8.75008L24.75 8.00008L27 10.2501L29.25 8.00008L30 8.75008L27.75 11.0001L30 13.2501L29.25 14.0001L27 11.7501L24.75 14.0001L24 13.2501L26.25 11.0001L24 8.75008ZM2.64908 6.50454V6.33271L2.64708 6.33204L2.61445 6.32605C2.61066 6.33196 2.60654 6.33771 2.60242 6.34346C2.59492 6.35391 2.5874 6.3644 2.58181 6.376C2.24415 7.07197 2.01238 7.80124 2.00905 8.57913C1.99906 10.9381 1.99507 13.2964 2.00905 15.6547C2.01971 17.4463 3.53752 18.9747 5.3284 18.9854C8.10296 19.002 10.8775 19.0087 13.6521 18.9814C14.9514 18.9681 15.9478 18.3467 16.5825 17.2118C16.886 16.6691 17.1598 16.1094 17.4335 15.55L17.4335 15.55C17.54 15.3323 17.6464 15.1147 17.7546 14.8981C17.9211 14.5645 17.9911 14.2095 17.9911 13.8365C17.9898 12.7855 17.9899 11.7347 17.9899 10.6838C17.99 10.0533 17.99 9.42283 17.9897 8.79225C17.9897 8.05366 17.5089 7.57014 16.773 7.57014H11.3291H11.1373C11.1373 7.70497 11.1357 7.83789 11.1343 7.96945L11.1343 7.96962C11.131 8.25716 11.1278 8.53816 11.1406 8.81822C11.1912 9.92312 12.0064 10.8275 13.1006 10.9661C13.388 11.0025 13.6804 11.0003 13.9727 10.9982H13.9727H13.9727H13.9728H13.9728H13.9728C14.1032 10.9972 14.2335 10.9962 14.3634 10.9987C14.4065 10.9996 14.4497 10.9993 14.4908 10.999L14.5485 10.9987V12.699H14.352C13.4576 12.6937 12.5971 12.8569 11.7846 13.2345C10.7976 13.6933 10.0337 14.3773 9.64542 15.423C9.49157 15.8379 9.43496 16.2694 9.4263 16.7117C9.42031 17.026 9.17922 17.2418 8.87419 17.2325C8.58115 17.2238 8.36603 16.996 8.36603 16.6864C8.36669 15.7593 8.60446 14.8995 9.11728 14.1229C9.78261 13.1153 10.731 12.4799 11.8452 12.0663C11.9504 12.0274 12.0567 11.9918 12.1709 11.9535L12.1709 11.9535C12.2288 11.9341 12.2886 11.914 12.3514 11.8925C12.2969 11.869 12.2533 11.8505 12.2141 11.8339L12.214 11.8339L12.1389 11.8019C11.379 11.4796 10.8003 10.9561 10.4393 10.2142C10.3361 10.0024 10.1815 9.88316 10.0044 9.77194C8.90083 10.5258 7.79194 10.5512 6.66506 9.84054C6.62444 9.86851 6.58315 9.89648 6.54185 9.92379C4.94745 10.9834 2.83156 9.97707 2.66906 8.06831C2.63893 7.7131 2.64291 7.35508 2.64689 6.99703V6.99703C2.64872 6.83278 2.65055 6.66853 2.64908 6.50454ZM9.301 3.34297L9.30091 3.34313C9.28051 3.32952 9.26196 3.31676 9.24449 3.30475C9.21097 3.2817 9.18144 3.26139 9.15049 3.24307C8.04626 2.59039 6.61502 3.36162 6.57906 4.64833C6.55109 5.646 6.56041 6.645 6.57773 7.64334C6.59038 8.37527 7.09987 9.01131 7.8025 9.2151C8.33996 9.37095 8.8388 9.2817 9.30167 8.9507C9.00197 8.43122 8.92205 7.88044 8.93071 7.30435C8.94203 6.51114 8.94136 5.71793 8.93071 4.92472C8.92338 4.37001 9.01394 3.84392 9.30091 3.34313L9.30167 3.34364L9.301 3.34297ZM3.73646 8.08488C3.87499 9.08788 5.08111 9.62601 5.9316 9.03926C5.53066 8.4352 5.48671 7.76054 5.50269 7.06923C5.51013 6.73853 5.50834 6.40783 5.50654 6.07713C5.50544 5.87503 5.50435 5.67293 5.50536 5.47083C5.50587 5.37799 5.50494 5.28498 5.50401 5.19186C5.49894 4.68648 5.49384 4.17775 5.72047 3.67329C5.65944 3.66185 5.60109 3.64899 5.54451 3.63651C5.42327 3.60979 5.31009 3.58484 5.19567 3.57939C4.37449 3.54076 3.71914 4.19344 3.71381 5.05591C3.7092 5.84956 3.71108 6.64321 3.71297 7.43685L3.71381 7.80316C3.71381 7.89707 3.7238 7.99164 3.73646 8.08488ZM13.9577 6.49584V6.49651L13.957 6.49584H13.9577ZM13.9577 6.49584H16.8348C16.8373 6.48806 16.8399 6.48116 16.8422 6.47486C16.847 6.4623 16.8508 6.4521 16.8508 6.44189C16.8508 6.26407 16.8526 6.08612 16.8543 5.90816C16.8585 5.48695 16.8627 5.06566 16.8435 4.64569C16.8122 3.96371 16.4685 3.45755 15.8478 3.1685C15.2444 2.88745 14.663 2.96604 14.1175 3.34233C14.0043 3.42025 13.951 3.50883 13.9537 3.65668C13.961 4.07614 13.9598 4.4956 13.9586 4.91506C13.9581 5.07235 13.9577 5.22965 13.9577 5.38695V6.49584Z"/>
</mask>
<path fill-rule="evenodd" clip-rule="evenodd" d="M12.8827 6.49645H10.0209C10.0188 6.49379 10.0162 6.49113 10.0137 6.48846C10.0079 6.48247 10.0022 6.47647 10.0022 6.47048C10.0044 6.26557 10.0026 6.0603 10.0008 5.85505V5.85504C9.9965 5.37717 9.99225 4.8994 10.0388 4.42652C10.1014 3.78716 10.513 3.3476 11.1111 3.11916C11.7118 2.89006 12.2779 2.99396 12.7848 3.39089C12.8374 3.43218 12.888 3.51477 12.8887 3.57804C12.8938 4.31618 12.8934 5.05392 12.8929 5.79188L12.8926 6.42453C12.8926 6.43861 12.8903 6.4524 12.8876 6.46859V6.46859L12.8876 6.46861C12.8862 6.47692 12.8847 6.48585 12.8833 6.49579L12.8827 6.49645ZM36.338 19V15.9127L41.1831 11.7662C42.0695 11.015 42.6854 10.3765 43.031 9.8507C43.3765 9.30986 43.5493 8.70892 43.5493 8.04789V7.73239C43.5493 7.13146 43.3315 6.68075 42.8958 6.38028C42.4601 6.07981 41.9869 5.92958 41.4761 5.92958C40.7399 5.92958 40.1765 6.14742 39.7859 6.5831C39.3953 7.01878 39.1174 7.53709 38.9521 8.13803L36 7.01127C36.2404 6.27512 36.6009 5.60657 37.0817 5.00563C37.5775 4.4047 38.216 3.92394 38.9972 3.56338C39.7784 3.18779 40.7099 3 41.7915 3C42.9333 3 43.9023 3.21033 44.6986 3.63099C45.4948 4.03662 46.1033 4.59249 46.5239 5.29859C46.9446 6.00469 47.1549 6.81596 47.1549 7.73239C47.1549 8.6338 46.9596 9.43756 46.569 10.1437C46.1934 10.8347 45.6826 11.4808 45.0366 12.0817C44.4056 12.6676 43.7146 13.261 42.9634 13.862L40.0338 16.1606H47.4704V19H36.338ZM24 8.75008L24.75 8.00008L27 10.2501L29.25 8.00008L30 8.75008L27.75 11.0001L30 13.2501L29.25 14.0001L27 11.7501L24.75 14.0001L24 13.2501L26.25 11.0001L24 8.75008ZM2.64908 6.50454V6.33271L2.64708 6.33204L2.61445 6.32605C2.61066 6.33196 2.60654 6.33771 2.60242 6.34346C2.59492 6.35391 2.5874 6.3644 2.58181 6.376C2.24415 7.07197 2.01238 7.80124 2.00905 8.57913C1.99906 10.9381 1.99507 13.2964 2.00905 15.6547C2.01971 17.4463 3.53752 18.9747 5.3284 18.9854C8.10296 19.002 10.8775 19.0087 13.6521 18.9814C14.9514 18.9681 15.9478 18.3467 16.5825 17.2118C16.886 16.6691 17.1598 16.1094 17.4335 15.55L17.4335 15.55C17.54 15.3323 17.6464 15.1147 17.7546 14.8981C17.9211 14.5645 17.9911 14.2095 17.9911 13.8365C17.9898 12.7855 17.9899 11.7347 17.9899 10.6838C17.99 10.0533 17.99 9.42283 17.9897 8.79225C17.9897 8.05366 17.5089 7.57014 16.773 7.57014H11.3291H11.1373C11.1373 7.70497 11.1357 7.83789 11.1343 7.96945L11.1343 7.96962C11.131 8.25716 11.1278 8.53816 11.1406 8.81822C11.1912 9.92312 12.0064 10.8275 13.1006 10.9661C13.388 11.0025 13.6804 11.0003 13.9727 10.9982H13.9727H13.9727H13.9728H13.9728H13.9728C14.1032 10.9972 14.2335 10.9962 14.3634 10.9987C14.4065 10.9996 14.4497 10.9993 14.4908 10.999L14.5485 10.9987V12.699H14.352C13.4576 12.6937 12.5971 12.8569 11.7846 13.2345C10.7976 13.6933 10.0337 14.3773 9.64542 15.423C9.49157 15.8379 9.43496 16.2694 9.4263 16.7117C9.42031 17.026 9.17922 17.2418 8.87419 17.2325C8.58115 17.2238 8.36603 16.996 8.36603 16.6864C8.36669 15.7593 8.60446 14.8995 9.11728 14.1229C9.78261 13.1153 10.731 12.4799 11.8452 12.0663C11.9504 12.0274 12.0567 11.9918 12.1709 11.9535L12.1709 11.9535C12.2288 11.9341 12.2886 11.914 12.3514 11.8925C12.2969 11.869 12.2533 11.8505 12.2141 11.8339L12.214 11.8339L12.1389 11.8019C11.379 11.4796 10.8003 10.9561 10.4393 10.2142C10.3361 10.0024 10.1815 9.88316 10.0044 9.77194C8.90083 10.5258 7.79194 10.5512 6.66506 9.84054C6.62444 9.86851 6.58315 9.89648 6.54185 9.92379C4.94745 10.9834 2.83156 9.97707 2.66906 8.06831C2.63893 7.7131 2.64291 7.35508 2.64689 6.99703V6.99703C2.64872 6.83278 2.65055 6.66853 2.64908 6.50454ZM9.301 3.34297L9.30091 3.34313C9.28051 3.32952 9.26196 3.31676 9.24449 3.30475C9.21097 3.2817 9.18144 3.26139 9.15049 3.24307C8.04626 2.59039 6.61502 3.36162 6.57906 4.64833C6.55109 5.646 6.56041 6.645 6.57773 7.64334C6.59038 8.37527 7.09987 9.01131 7.8025 9.2151C8.33996 9.37095 8.8388 9.2817 9.30167 8.9507C9.00197 8.43122 8.92205 7.88044 8.93071 7.30435C8.94203 6.51114 8.94136 5.71793 8.93071 4.92472C8.92338 4.37001 9.01394 3.84392 9.30091 3.34313L9.30167 3.34364L9.301 3.34297ZM3.73646 8.08488C3.87499 9.08788 5.08111 9.62601 5.9316 9.03926C5.53066 8.4352 5.48671 7.76054 5.50269 7.06923C5.51013 6.73853 5.50834 6.40783 5.50654 6.07713C5.50544 5.87503 5.50435 5.67293 5.50536 5.47083C5.50587 5.37799 5.50494 5.28498 5.50401 5.19186C5.49894 4.68648 5.49384 4.17775 5.72047 3.67329C5.65944 3.66185 5.60109 3.64899 5.54451 3.63651C5.42327 3.60979 5.31009 3.58484 5.19567 3.57939C4.37449 3.54076 3.71914 4.19344 3.71381 5.05591C3.7092 5.84956 3.71108 6.64321 3.71297 7.43685L3.71381 7.80316C3.71381 7.89707 3.7238 7.99164 3.73646 8.08488ZM13.9577 6.49584V6.49651L13.957 6.49584H13.9577ZM13.9577 6.49584H16.8348C16.8373 6.48806 16.8399 6.48116 16.8422 6.47486C16.847 6.4623 16.8508 6.4521 16.8508 6.44189C16.8508 6.26407 16.8526 6.08612 16.8543 5.90816C16.8585 5.48695 16.8627 5.06566 16.8435 4.64569C16.8122 3.96371 16.4685 3.45755 15.8478 3.1685C15.2444 2.88745 14.663 2.96604 14.1175 3.34233C14.0043 3.42025 13.951 3.50883 13.9537 3.65668C13.961 4.07614 13.9598 4.4956 13.9586 4.91506C13.9581 5.07235 13.9577 5.22965 13.9577 5.38695V6.49584Z" fill="url(#paint0_linear_935_22851)"/>
<path d="M10.0209 6.49645L8.83191 7.41101L9.28224 7.99645H10.0209V6.49645ZM12.8827 6.49645V7.99645H13.5041L13.9435 7.55692L12.8827 6.49645ZM10.0137 6.48846L11.0965 5.45047L11.0965 5.45043L10.0137 6.48846ZM10.0022 6.47048L8.50229 6.45437L8.5022 6.46242V6.47048H10.0022ZM10.0008 5.85505H8.50069L8.50081 5.8684L10.0008 5.85505ZM10.0008 5.85504H11.5008L11.5007 5.84169L10.0008 5.85504ZM10.0388 4.42652L11.5316 4.57359L11.5317 4.5727L10.0388 4.42652ZM11.1111 3.11916L10.5766 1.71763L10.5759 1.7179L11.1111 3.11916ZM12.7848 3.39089L13.7108 2.2109L13.7096 2.20996L12.7848 3.39089ZM12.8887 3.57804L14.3886 3.56751L14.3886 3.56224L12.8887 3.57804ZM12.8929 5.79188L11.3929 5.79094V5.79126L12.8929 5.79188ZM12.8926 6.42453L11.3926 6.4239V6.42453H12.8926ZM12.8876 6.46859L11.4085 6.21903L11.3876 6.34293V6.46859H12.8876ZM12.8876 6.46859L14.3634 6.73692L14.3876 6.60385V6.46859H12.8876ZM12.8876 6.46861L11.4118 6.20028L11.4101 6.20972L11.4085 6.21917L12.8876 6.46861ZM12.8833 6.49579L13.9442 7.55626L14.3013 7.19897L14.3696 6.69841L12.8833 6.49579ZM36.338 15.9127L35.3627 14.773L34.838 15.2221V15.9127H36.338ZM36.338 19H34.838V20.5H36.338V19ZM41.1831 11.7662L40.2133 10.6218L40.2078 10.6266L41.1831 11.7662ZM43.031 9.8507L44.2845 10.6745L44.2898 10.6664L44.295 10.6583L43.031 9.8507ZM42.8958 6.38028L42.0442 7.6151V7.6151L42.8958 6.38028ZM39.7859 6.5831L40.9028 7.58442V7.58441L39.7859 6.5831ZM38.9521 8.13803L38.4172 9.53942L39.9604 10.1284L40.3984 8.53576L38.9521 8.13803ZM36 7.01127L34.5741 6.54567L34.1308 7.90337L35.4651 8.41266L36 7.01127ZM37.0817 5.00563L35.9246 4.05106L35.9174 4.05977L35.9104 4.06859L37.0817 5.00563ZM38.9972 3.56338L39.6258 4.92532L39.6365 4.92037L39.6471 4.91526L38.9972 3.56338ZM44.6986 3.63099L43.9979 4.95728L44.0078 4.96248L44.0177 4.96755L44.6986 3.63099ZM46.5239 5.29859L45.2353 6.0663L46.5239 5.29859ZM46.569 10.1437L45.2564 9.41755L45.2511 9.4274L46.569 10.1437ZM45.0366 12.0817L46.0573 13.1809L46.0583 13.18L45.0366 12.0817ZM42.9634 13.862L43.8893 15.0421L43.8949 15.0377L43.9004 15.0333L42.9634 13.862ZM40.0338 16.1606L39.1079 14.9805L35.692 17.6606H40.0338V16.1606ZM47.4704 16.1606H48.9704V14.6606H47.4704V16.1606ZM47.4704 19V20.5H48.9704V19H47.4704ZM24.75 8.00008L25.8107 6.93942L24.75 5.87876L23.6893 6.93942L24.75 8.00008ZM24 8.75008L22.9393 7.68942L21.8787 8.75008L22.9393 9.81074L24 8.75008ZM27 10.2501L25.9393 11.3107L27 12.3714L28.0607 11.3107L27 10.2501ZM29.25 8.00008L30.3107 6.93942L29.25 5.87876L28.1893 6.93942L29.25 8.00008ZM30 8.75008L31.0607 9.81074L32.1213 8.75008L31.0607 7.68942L30 8.75008ZM27.75 11.0001L26.6893 9.93942L25.6287 11.0001L26.6893 12.0607L27.75 11.0001ZM30 13.2501L31.0607 14.3107L32.1213 13.2501L31.0607 12.1894L30 13.2501ZM29.25 14.0001L28.1893 15.0607L29.25 16.1214L30.3107 15.0607L29.25 14.0001ZM27 11.7501L28.0607 10.6894L27 9.62876L25.9393 10.6894L27 11.7501ZM24.75 14.0001L23.6893 15.0607L24.75 16.1214L25.8107 15.0607L24.75 14.0001ZM24 13.2501L22.9393 12.1894L21.8787 13.2501L22.9393 14.3107L24 13.2501ZM26.25 11.0001L27.3107 12.0607L28.3713 11.0001L27.3107 9.93942L26.25 11.0001ZM2.64908 6.33271H4.14908V5.25165L3.12352 4.90972L2.64908 6.33271ZM2.64908 6.50454H1.14902L1.14914 6.51795L2.64908 6.50454ZM2.64708 6.33204L3.12152 4.90905L3.02163 4.87575L2.91806 4.85672L2.64708 6.33204ZM2.61445 6.32605L2.88543 4.85073L1.89426 4.66868L1.35104 5.51747L2.61445 6.32605ZM2.60242 6.34346L1.3835 5.46925L1.38349 5.46926L2.60242 6.34346ZM2.58181 6.376L3.93137 7.03076L3.93332 7.02672L2.58181 6.376ZM2.00905 8.57913L0.509066 8.57271L0.509066 8.57278L2.00905 8.57913ZM2.00905 15.6547L0.509079 15.6636L0.509079 15.6636L2.00905 15.6547ZM5.3284 18.9854L5.3374 17.4854H5.33733L5.3284 18.9854ZM13.6521 18.9814L13.6668 20.4813L13.6675 20.4813L13.6521 18.9814ZM16.5825 17.2118L17.8916 17.944L17.8917 17.9439L16.5825 17.2118ZM17.4335 15.55L18.7809 16.2092L18.7883 16.194L18.7954 16.1786L17.4335 15.55ZM17.4335 15.55L16.0861 14.8908L16.0787 14.906L16.0716 14.9214L17.4335 15.55ZM17.7546 14.8981L19.0965 15.5685L19.0968 15.5679L17.7546 14.8981ZM17.9911 13.8365H19.4911L19.4911 13.8348L17.9911 13.8365ZM17.9899 10.6838L16.4899 10.6837L17.9899 10.6838ZM17.9897 8.79225H16.4897V8.79284L17.9897 8.79225ZM11.1373 7.57014V6.07014H9.63726V7.57014H11.1373ZM11.1343 7.96945L12.6341 7.99424L12.6342 7.98648L11.1343 7.96945ZM11.1343 7.96962L9.63444 7.94483L9.63435 7.95259L11.1343 7.96962ZM11.1406 8.81822L9.64215 8.88666L9.64216 8.88687L11.1406 8.81822ZM13.1006 10.9661L13.289 9.47795L13.289 9.47795L13.1006 10.9661ZM13.9727 10.9982V9.49812L13.9617 9.4982L13.9727 10.9982ZM13.9728 10.9982V12.4982L13.9838 12.4981L13.9728 10.9982ZM14.3634 10.9987L14.3946 9.49903L14.3919 9.49898L14.3634 10.9987ZM14.4908 10.999L14.4834 9.49901L14.4798 9.49904L14.4908 10.999ZM14.5485 10.9987H16.0485V9.49129L14.5411 9.49873L14.5485 10.9987ZM14.5485 12.699V14.199H16.0485V12.699H14.5485ZM14.352 12.699L14.3431 14.199H14.352V12.699ZM11.7846 13.2345L11.1524 11.8742L11.1522 11.8743L11.7846 13.2345ZM9.64542 15.423L8.23924 14.9008L8.23898 14.9015L9.64542 15.423ZM9.4263 16.7117L7.92659 16.6823L7.92657 16.6831L9.4263 16.7117ZM8.87419 17.2325L8.92002 15.7332L8.91848 15.7331L8.87419 17.2325ZM8.36603 16.6864L6.86603 16.6853V16.6864H8.36603ZM9.11728 14.1229L10.369 14.9495L10.369 14.9494L9.11728 14.1229ZM11.8452 12.0663L11.325 10.6594L11.3232 10.6601L11.8452 12.0663ZM12.1709 11.9535L11.6965 10.5305L11.694 10.5313L12.1709 11.9535ZM12.1709 11.9535L12.6452 13.3765L12.6478 13.3756L12.1709 11.9535ZM12.3514 11.8925L12.8379 13.3114L16.5128 12.0514L12.9447 10.5148L12.3514 11.8925ZM12.2141 11.8339L12.7999 10.453L12.7927 10.45L12.2141 11.8339ZM12.214 11.8339L11.6266 13.2141L11.6355 13.2178L12.214 11.8339ZM12.1389 11.8019L12.7263 10.4217L12.7247 10.421L12.1389 11.8019ZM10.4393 10.2142L11.7881 9.55791L11.7876 9.55694L10.4393 10.2142ZM10.0044 9.77194L10.802 8.50155L9.96968 7.97903L9.15825 8.53337L10.0044 9.77194ZM6.66506 9.84054L7.46518 8.57175L6.62882 8.04433L5.81442 8.60506L6.66506 9.84054ZM6.54185 9.92379L5.71446 8.67261L5.71161 8.67451L6.54185 9.92379ZM2.66906 8.06831L1.17443 8.1951L1.17447 8.19555L2.66906 8.06831ZM2.64689 6.99703L4.1468 7.01372L4.14689 7.00537V6.99703H2.64689ZM2.64689 6.99703L1.14698 6.98035L1.14689 6.98869V6.99703H2.64689ZM9.301 3.34297L10.3615 2.28219L8.97323 0.894189L7.99882 2.59845L9.301 3.34297ZM9.24449 3.30475L8.39445 4.54064L8.39445 4.54064L9.24449 3.30475ZM9.15049 3.24307L9.9142 1.95205L9.91374 1.95178L9.15049 3.24307ZM6.57906 4.64833L8.07847 4.69037L8.07847 4.69024L6.57906 4.64833ZM6.57773 7.64334L8.0775 7.61741L8.0775 7.61733L6.57773 7.64334ZM7.8025 9.2151L7.38465 10.6557L7.38476 10.6558L7.8025 9.2151ZM9.30167 8.9507L10.1742 10.1708L11.2808 9.37949L10.6009 8.20112L9.30167 8.9507ZM8.93071 7.30435L10.4305 7.32689L10.4306 7.32575L8.93071 7.30435ZM8.93071 4.92472L7.43084 4.94453L7.43084 4.94487L8.93071 4.92472ZM9.30167 3.34364L8.46747 4.59028L10.3622 2.28286L9.30167 3.34364ZM5.9316 9.03926L6.7834 10.2739L7.99611 9.43729L7.18137 8.20976L5.9316 9.03926ZM3.73646 8.08488L2.25008 8.28661L2.25056 8.29011L3.73646 8.08488ZM5.50269 7.06923L7.00229 7.1039L7.00231 7.10297L5.50269 7.06923ZM5.50654 6.07713L7.00652 6.06898V6.06898L5.50654 6.07713ZM5.50536 5.47083L4.00538 5.46246L4.00538 5.46333L5.50536 5.47083ZM5.50401 5.19186L4.00408 5.20691L4.00408 5.20691L5.50401 5.19186ZM5.72047 3.67329L7.08873 4.28802L7.86953 2.5501L5.99691 2.19899L5.72047 3.67329ZM5.54451 3.63651L5.86743 2.17168L5.86743 2.17168L5.54451 3.63651ZM5.19567 3.57939L5.26701 2.08109L5.26615 2.08105L5.19567 3.57939ZM3.71381 5.05591L2.21384 5.04665L2.21384 5.04718L3.71381 5.05591ZM3.71297 7.43685L5.21296 7.43339L5.21296 7.43329L3.71297 7.43685ZM3.71381 7.80316H5.21382L5.21381 7.7997L3.71381 7.80316ZM13.9577 6.49651L12.897 7.55717L15.4577 10.1178V6.49651H13.9577ZM13.957 6.49584V4.99584H10.3357L12.8964 7.5565L13.957 6.49584ZM16.8348 6.49584V7.99584H17.9358L18.2658 6.94552L16.8348 6.49584ZM16.8422 6.47486L18.246 7.0034L18.246 7.00338L16.8422 6.47486ZM16.8543 5.90816L18.3543 5.92302V5.92302L16.8543 5.90816ZM16.8435 4.64569L18.3419 4.5772L18.3419 4.57692L16.8435 4.64569ZM15.8478 3.1685L15.2145 4.52824L15.2146 4.5283L15.8478 3.1685ZM14.1175 3.34233L14.968 4.57797L14.9693 4.57702L14.1175 3.34233ZM13.9537 3.65668L15.4535 3.6307L15.4535 3.62965L13.9537 3.65668ZM13.9586 4.91506L12.4586 4.9108V4.91081L13.9586 4.91506ZM10.0209 7.99645H12.8827V4.99645H10.0209V7.99645ZM8.93084 7.52645C8.93453 7.53031 8.92248 7.51785 8.90873 7.50277C8.89428 7.4869 8.86545 7.45462 8.83191 7.41101L11.2098 5.5819C11.1742 5.53563 11.1431 5.50068 11.1262 5.48215C11.1171 5.47219 11.1096 5.46415 11.1049 5.45921C11.1005 5.45459 11.0966 5.45056 11.0965 5.45047L8.93084 7.52645ZM8.5022 6.47048C8.5022 6.94318 8.72084 7.26183 8.78787 7.35506C8.83261 7.41729 8.87291 7.46335 8.8938 7.48659C8.90523 7.49931 8.91476 7.5095 8.92059 7.51568C8.92603 7.52145 8.93085 7.52646 8.93087 7.52649L11.0965 5.45043C11.0749 5.42792 11.1521 5.50421 11.2237 5.60388C11.2864 5.69112 11.5022 6.00378 11.5022 6.47048H8.5022ZM8.50081 5.8684C8.50266 6.07613 8.50431 6.26665 8.50229 6.45437L11.5021 6.48659C11.5045 6.26449 11.5025 6.04447 11.5007 5.8417L8.50081 5.8684ZM8.50075 5.85504V5.85505H11.5008V5.85504H8.50075ZM8.54606 4.27945C8.49026 4.8458 8.49668 5.40436 8.50081 5.86839L11.5007 5.84169C11.4963 5.34998 11.4942 4.953 11.5316 4.57359L8.54606 4.27945ZM10.5759 1.7179C9.56635 2.1035 8.6755 2.95753 8.54597 4.28035L11.5317 4.5727C11.5333 4.55654 11.5353 4.55681 11.531 4.56694C11.5268 4.57712 11.521 4.58559 11.5174 4.58983C11.5104 4.59805 11.5369 4.56223 11.6463 4.52043L10.5759 1.7179ZM13.7096 2.20996C12.8183 1.51187 11.7029 1.28806 10.5766 1.71763L11.6456 4.5207C11.6867 4.50504 11.7114 4.50099 11.7215 4.49985C11.731 4.49879 11.7343 4.49948 11.735 4.4996C11.7361 4.49978 11.7448 4.50121 11.7632 4.5097C11.7822 4.51854 11.8148 4.53656 11.8599 4.57182L13.7096 2.20996ZM14.3886 3.56224C14.3845 3.17913 14.2468 2.88602 14.1578 2.73063C14.0598 2.55958 13.9144 2.37063 13.7108 2.2109L11.8587 4.57089C11.7078 4.45245 11.614 4.32543 11.5546 4.22181C11.5042 4.13386 11.3921 3.91368 11.3887 3.59384L14.3886 3.56224ZM14.3929 5.79282C14.3934 5.05581 14.3938 4.31234 14.3886 3.56751L11.3887 3.58856C11.3938 4.32002 11.3934 5.05203 11.3929 5.79094L14.3929 5.79282ZM14.3926 6.42515L14.3929 5.7925L11.3929 5.79126L11.3926 6.4239L14.3926 6.42515ZM14.3667 6.71814C14.367 6.71652 14.3736 6.67831 14.3791 6.63572C14.3852 6.58775 14.3926 6.51414 14.3926 6.42453H11.3926C11.3926 6.349 11.3989 6.28932 11.4032 6.25581C11.4068 6.22768 11.411 6.20446 11.4085 6.21903L14.3667 6.71814ZM14.3876 6.46859V6.46859H11.3876V6.46859H14.3876ZM14.3634 6.73694L14.3634 6.73692L11.4118 6.20026L11.4118 6.20028L14.3634 6.73694ZM14.3696 6.69841C14.3683 6.70759 14.3672 6.71459 14.3667 6.71824C14.3665 6.71915 14.3664 6.71987 14.3663 6.72034C14.3663 6.72058 14.3662 6.72077 14.3662 6.72089C14.3662 6.72101 14.3662 6.72108 14.3662 6.72108C14.3662 6.72108 14.3662 6.72103 14.3662 6.72091C14.3662 6.72078 14.3663 6.7206 14.3663 6.72035C14.3664 6.71978 14.3665 6.71915 14.3667 6.71804L11.4085 6.21917C11.4074 6.22575 11.4021 6.25663 11.3971 6.29317L14.3696 6.69841ZM13.9435 7.55692L13.9442 7.55626L11.8225 5.43532L11.8218 5.43598L13.9435 7.55692ZM34.838 15.9127V19H37.838V15.9127H34.838ZM40.2078 10.6266L35.3627 14.773L37.3133 17.0523L42.1584 12.9058L40.2078 10.6266ZM41.7774 9.02693C41.5511 9.37129 41.0661 9.89913 40.2133 10.6219L42.1529 12.9105C43.0728 12.1309 43.8197 11.3818 44.2845 10.6745L41.7774 9.02693ZM42.0493 8.04789C42.0493 8.43178 41.9536 8.75097 41.7669 9.04312L44.295 10.6583C44.7995 9.86875 45.0493 8.98606 45.0493 8.04789H42.0493ZM42.0493 7.73239V8.04789H45.0493V7.73239H42.0493ZM42.0442 7.6151C42.0561 7.62334 42.0559 7.62506 42.05 7.61835C42.0439 7.61129 42.0385 7.60288 42.0354 7.59641C42.0282 7.58145 42.0493 7.61325 42.0493 7.73239H45.0493C45.0493 6.71588 44.649 5.76727 43.7474 5.14546L42.0442 7.6151ZM41.4761 7.42958C41.6712 7.42958 41.8493 7.4807 42.0442 7.6151L43.7474 5.14546C43.0709 4.67892 42.3025 4.42958 41.4761 4.42958V7.42958ZM40.9028 7.58441C40.9386 7.54446 41.0481 7.42958 41.4761 7.42958V4.42958C40.4317 4.42958 39.4145 4.75038 38.6691 5.58178L40.9028 7.58441ZM40.3984 8.53576C40.5062 8.14387 40.6773 7.83595 40.9028 7.58442L38.6691 5.58178C38.1134 6.20161 37.7285 6.93031 37.5058 7.7403L40.3984 8.53576ZM35.4651 8.41266L38.4172 9.53942L39.487 6.73664L36.5349 5.60988L35.4651 8.41266ZM35.9104 4.06859C35.3164 4.81102 34.87 5.63946 34.5741 6.54567L37.4259 7.47687C37.6108 6.91078 37.8854 6.40213 38.253 5.94268L35.9104 4.06859ZM38.3686 2.20144C37.4045 2.64642 36.5782 3.25891 35.9246 4.05106L38.2388 5.96021C38.5768 5.55048 39.0274 5.20147 39.6258 4.92532L38.3686 2.20144ZM41.7915 1.5C40.5392 1.5 39.3751 1.71732 38.3472 2.2115L39.6471 4.91526C40.1817 4.65827 40.8805 4.5 41.7915 4.5V1.5ZM45.3993 2.3047C44.3369 1.74345 43.1137 1.5 41.7915 1.5V4.5C42.753 4.5 43.4678 4.67721 43.9979 4.95728L45.3993 2.3047ZM47.8126 4.53088C47.2345 3.56048 46.4051 2.8169 45.3795 2.29443L44.0177 4.96755C44.5846 5.25634 44.9721 5.62449 45.2353 6.0663L47.8126 4.53088ZM48.6549 7.73239C48.6549 6.57759 48.387 5.49513 47.8126 4.53088L45.2353 6.0663C45.5022 6.51426 45.6549 7.05434 45.6549 7.73239H48.6549ZM47.8816 10.8698C48.409 9.91631 48.6549 8.8575 48.6549 7.73239H45.6549C45.6549 8.4101 45.5102 8.95881 45.2565 9.41757L47.8816 10.8698ZM46.0583 13.18C46.8088 12.4819 47.4251 11.7097 47.887 10.8599L45.2511 9.4274C44.9618 9.95975 44.5565 10.4796 44.015 10.9834L46.0583 13.18ZM43.9004 15.0333C44.6771 14.412 45.3964 13.7945 46.0573 13.1809L44.0159 10.9825C43.4148 11.5407 42.752 12.1101 42.0263 12.6907L43.9004 15.0333ZM40.9597 17.3407L43.8893 15.0421L42.0374 12.6819L39.1079 14.9805L40.9597 17.3407ZM47.4704 14.6606H40.0338V17.6606H47.4704V14.6606ZM48.9704 19V16.1606H45.9704V19H48.9704ZM36.338 20.5H47.4704V17.5H36.338V20.5ZM23.6893 6.93942L22.9393 7.68942L25.0607 9.81074L25.8107 9.06074L23.6893 6.93942ZM28.0607 9.18942L25.8107 6.93942L23.6893 9.06074L25.9393 11.3107L28.0607 9.18942ZM28.1893 6.93942L25.9393 9.18942L28.0607 11.3107L30.3107 9.06074L28.1893 6.93942ZM31.0607 7.68942L30.3107 6.93942L28.1893 9.06074L28.9393 9.81074L31.0607 7.68942ZM28.8107 12.0607L31.0607 9.81074L28.9393 7.68942L26.6893 9.93942L28.8107 12.0607ZM31.0607 12.1894L28.8107 9.93942L26.6893 12.0607L28.9393 14.3107L31.0607 12.1894ZM30.3107 15.0607L31.0607 14.3107L28.9393 12.1894L28.1893 12.9394L30.3107 15.0607ZM25.9393 12.8107L28.1893 15.0607L30.3107 12.9394L28.0607 10.6894L25.9393 12.8107ZM25.8107 15.0607L28.0607 12.8107L25.9393 10.6894L23.6893 12.9394L25.8107 15.0607ZM22.9393 14.3107L23.6893 15.0607L25.8107 12.9394L25.0607 12.1894L22.9393 14.3107ZM25.1893 9.93942L22.9393 12.1894L25.0607 14.3107L27.3107 12.0607L25.1893 9.93942ZM22.9393 9.81074L25.1893 12.0607L27.3107 9.93942L25.0607 7.68942L22.9393 9.81074ZM1.14908 6.33271V6.50454H4.14908V6.33271H1.14908ZM2.17264 7.75503L2.17464 7.7557L3.12352 4.90972L3.12152 4.90905L2.17264 7.75503ZM2.34347 7.80137L2.3761 7.80736L2.91806 4.85672L2.88543 4.85073L2.34347 7.80137ZM3.82133 7.21767C3.82147 7.21748 3.84909 7.17957 3.87786 7.13463L1.35104 5.51747C1.36317 5.49852 1.37309 5.48412 1.37826 5.4767C1.38282 5.47016 1.38653 5.46502 1.3835 5.46925L3.82133 7.21767ZM3.93332 7.02672C3.89921 7.09757 3.8662 7.15058 3.84696 7.18001C3.82977 7.20631 3.81441 7.22732 3.82134 7.21766L1.38349 5.46926C1.38293 5.47005 1.36006 5.50154 1.33584 5.53859C1.30957 5.57878 1.27 5.64284 1.23031 5.72528L3.93332 7.02672ZM3.50904 8.58555C3.51109 8.10674 3.65305 7.6044 3.93137 7.03076L1.23226 5.72124C0.835249 6.53954 0.513677 7.49574 0.509066 8.57271L3.50904 8.58555ZM3.50903 15.6458C3.49508 13.2948 3.49906 10.9422 3.50904 8.58548L0.509066 8.57278C0.499067 10.934 0.49505 13.298 0.509079 15.6636L3.50903 15.6458ZM5.33733 17.4854C4.37426 17.4797 3.51483 16.6223 3.50903 15.6458L0.509079 15.6636C0.524583 18.2703 2.70079 20.4698 5.31947 20.4854L5.33733 17.4854ZM13.6373 17.4815C10.8744 17.5087 8.10895 17.502 5.3374 17.4854L5.3194 20.4854C8.09697 20.502 10.8806 20.5087 13.6668 20.4813L13.6373 17.4815ZM15.2733 16.4797C14.8881 17.1684 14.3723 17.4739 13.6367 17.4815L13.6675 20.4813C15.5306 20.4622 17.0074 19.525 17.8916 17.944L15.2733 16.4797ZM16.0861 14.8908C15.8094 15.4565 15.5533 15.9789 15.2733 16.4797L17.8917 17.9439C18.2186 17.3593 18.5102 16.7624 18.7809 16.2092L16.0861 14.8908ZM16.0716 14.9214L16.0715 14.9214L18.7954 16.1786L18.7954 16.1786L16.0716 14.9214ZM16.4128 14.2278C16.3013 14.4508 16.1921 14.6741 16.0861 14.8908L18.7809 16.2092C18.8878 15.9906 18.9916 15.7786 19.0965 15.5685L16.4128 14.2278ZM16.4911 13.8365C16.4911 14.0164 16.4589 14.1353 16.4125 14.2284L19.0968 15.5679C19.3834 14.9937 19.4911 14.4026 19.4911 13.8365H16.4911ZM16.4899 10.6837C16.4899 11.7344 16.4898 12.7862 16.4911 13.8383L19.4911 13.8348C19.4898 12.7848 19.4899 11.7349 19.4899 10.6839L16.4899 10.6837ZM16.4897 8.79284C16.49 9.42304 16.49 10.0532 16.4899 10.6837L19.4899 10.6839C19.49 10.0535 19.49 9.42263 19.4897 8.79166L16.4897 8.79284ZM16.773 9.07014C16.7926 9.07014 16.7768 9.07322 16.7373 9.05811C16.6961 9.04234 16.6435 9.012 16.5942 8.96239C16.4838 8.85151 16.4897 8.75449 16.4897 8.79225H19.4897C19.4897 8.09141 19.2552 7.38334 18.7205 6.84605C18.185 6.30807 17.4766 6.07014 16.773 6.07014V9.07014ZM11.3291 9.07014H16.773V6.07014H11.3291V9.07014ZM11.1373 9.07014H11.3291V6.07014H11.1373V9.07014ZM12.6342 7.98648C12.6356 7.85622 12.6373 7.71486 12.6373 7.57014H9.63726C9.63726 7.69507 9.63586 7.81956 9.63435 7.95243L12.6342 7.98648ZM12.634 7.99441L12.6341 7.99424L9.63446 7.94466L9.63446 7.94484L12.634 7.99441ZM12.639 8.74978C12.6285 8.51966 12.6308 8.28166 12.6342 7.98666L9.63435 7.95259C9.63117 8.23266 9.62708 8.55666 9.64215 8.88666L12.639 8.74978ZM13.289 9.47795C12.9377 9.43348 12.6571 9.14519 12.639 8.74958L9.64216 8.88687C9.72527 10.701 11.075 12.2216 12.9122 12.4542L13.289 9.47795ZM13.9617 9.4982C13.6518 9.50048 13.4603 9.49963 13.289 9.47795L12.9122 12.4542C13.3157 12.5053 13.709 12.5001 13.9837 12.4981L13.9617 9.4982ZM13.9727 9.49816H13.9727V12.4982H13.9727V9.49816ZM13.9727 9.49816H13.9727V12.4982H13.9727V9.49816ZM13.9728 9.49816H13.9727V12.4982H13.9728V9.49816ZM13.9728 9.49816H13.9728V12.4982H13.9728V9.49816ZM13.9728 9.49816H13.9728V12.4982H13.9728V9.49816ZM14.3919 9.49898C14.239 9.49608 14.0888 9.49727 13.9618 9.4982L13.9838 12.4981C14.1176 12.4971 14.2281 12.4964 14.3349 12.4984L14.3919 9.49898ZM14.4798 9.49904C14.4355 9.49936 14.4132 9.49942 14.3946 9.49904L14.3321 12.4984C14.3998 12.4998 14.4638 12.4992 14.5017 12.499L14.4798 9.49904ZM14.5411 9.49873L14.4834 9.49901L14.4982 12.499L14.5559 12.4987L14.5411 9.49873ZM16.0485 12.699V10.9987H13.0485V12.699H16.0485ZM14.352 14.199H14.5485V11.199H14.352V14.199ZM12.4168 14.5947C13.0042 14.3217 13.6416 14.1948 14.3431 14.199L14.361 11.199C13.2736 11.1926 12.19 11.392 11.1524 11.8742L12.4168 14.5947ZM11.0516 15.9451C11.2703 15.3563 11.6949 14.9304 12.417 14.5947L11.1522 11.8743C9.9003 12.4563 8.79712 13.3984 8.23924 14.9008L11.0516 15.9451ZM10.926 16.741C10.9326 16.4045 10.9748 16.1522 11.0518 15.9444L8.23898 14.9015C8.00834 15.5235 7.93732 16.1344 7.92659 16.6823L10.926 16.741ZM8.82836 18.7318C9.93333 18.7656 10.9035 17.9241 10.926 16.7403L7.92657 16.6831C7.93104 16.449 8.03109 16.1898 8.24167 15.9943C8.44791 15.8028 8.70107 15.7265 8.92002 15.7332L8.82836 18.7318ZM6.86603 16.6864C6.86603 17.7537 7.67353 18.6977 8.82989 18.7318L8.91848 15.7331C9.16236 15.7403 9.41697 15.8457 9.60611 16.0481C9.79305 16.2481 9.86603 16.4876 9.86603 16.6864H6.86603ZM7.86558 13.2963C7.17866 14.3365 6.86689 15.4879 6.86603 16.6853L9.86603 16.6874C9.8665 16.0307 10.0303 15.4624 10.369 14.9495L7.86558 13.2963ZM11.3232 10.6601C9.9925 11.154 8.74918 11.9581 7.86552 13.2964L10.369 14.9494C10.816 14.2724 11.4695 13.8058 12.3672 13.4726L11.3232 10.6601ZM11.694 10.5313C11.5838 10.5682 11.4554 10.6112 11.325 10.6594L12.3654 13.4732C12.4453 13.4437 12.5296 13.4153 12.6478 13.3757L11.694 10.5313ZM11.6965 10.5305L11.6965 10.5305L12.6452 13.3765L12.6452 13.3765L11.6965 10.5305ZM11.8649 10.4736C11.8077 10.4932 11.7524 10.5117 11.694 10.5313L12.6478 13.3756C12.7051 13.3564 12.7696 13.3348 12.8379 13.3114L11.8649 10.4736ZM11.6284 13.2148C11.6674 13.2314 11.7077 13.2485 11.7581 13.2702L12.9447 10.5148C12.8861 10.4896 12.8392 10.4697 12.7999 10.453L11.6284 13.2148ZM11.6355 13.2178L11.6356 13.2179L12.7927 10.45L12.7926 10.4499L11.6355 13.2178ZM11.5515 13.1821L11.6266 13.2141L12.8014 10.4537L12.7263 10.4217L11.5515 13.1821ZM9.09046 10.8704C9.62119 11.9612 10.4842 12.7294 11.5532 13.1828L12.7247 10.421C12.2738 10.2298 11.9793 9.95093 11.7881 9.55791L9.09046 10.8704ZM9.20682 11.0423C9.26321 11.0777 9.24829 11.0732 9.21499 11.0415C9.19609 11.0235 9.1729 10.9985 9.14929 10.9668C9.12552 10.9349 9.10599 10.9023 9.09093 10.8714L11.7876 9.55694C11.5005 8.96776 11.0607 8.66399 10.802 8.50155L9.20682 11.0423ZM5.86495 11.1093C6.62749 11.5902 7.47167 11.8742 8.37513 11.8551C9.27754 11.8361 10.1085 11.5174 10.8505 11.0105L9.15825 8.53337C8.79671 8.78036 8.52145 8.85135 8.31181 8.85577C8.10322 8.86017 7.82951 8.8015 7.46518 8.57175L5.86495 11.1093ZM7.36925 11.175C7.41975 11.1416 7.46891 11.1082 7.51571 11.076L5.81442 8.60506C5.77996 8.62878 5.74654 8.6514 5.71446 8.67262L7.36925 11.175ZM1.17447 8.19555C1.43497 11.2554 4.84082 12.8553 7.3721 11.1731L5.71161 8.67451C5.05408 9.11149 4.22816 8.69872 4.16365 7.94106L1.17447 8.19555ZM1.14698 6.98035C1.14314 7.32611 1.1372 7.75626 1.17443 8.1951L4.16369 7.94151C4.14065 7.66994 4.14268 7.38406 4.1468 7.01372L1.14698 6.98035ZM1.14689 6.99703V6.99703H4.14689V6.99703H1.14689ZM1.14914 6.51795C1.15045 6.66438 1.14884 6.81357 1.14698 6.98035L4.1468 7.01371C4.1486 6.85199 4.15064 6.67268 4.14902 6.49113L1.14914 6.51795ZM10.6031 4.08766L10.6032 4.0875L7.99882 2.59845L7.99873 2.59861L10.6031 4.08766ZM8.39445 4.54064C8.41123 4.55218 8.43802 4.57063 8.46845 4.59093L10.1334 2.09533C10.123 2.08841 10.1127 2.08135 10.0945 2.06886L8.39445 4.54064ZM8.38678 4.5341C8.37324 4.52609 8.36548 4.52087 8.36706 4.52193C8.36784 4.52245 8.37011 4.52396 8.3749 4.52723C8.37997 4.53068 8.3856 4.53455 8.39445 4.54064L10.0945 2.06886C10.0694 2.05154 9.99705 2.00106 9.9142 1.95205L8.38678 4.5341ZM8.07847 4.69024C8.07963 4.64895 8.08993 4.62481 8.10193 4.60618C8.11657 4.58343 8.14239 4.55706 8.18073 4.53621C8.21915 4.51532 8.25841 4.50642 8.29114 4.50635C8.31945 4.50629 8.34997 4.51234 8.38724 4.53437L9.91374 1.95178C7.8476 0.730536 5.14825 2.1518 5.07964 4.60643L8.07847 4.69024ZM8.0775 7.61733C8.06028 6.62461 8.05148 5.65305 8.07847 4.69037L5.07965 4.60629C5.05069 5.63895 5.06054 6.6654 5.07795 7.66935L8.0775 7.61733ZM8.22035 7.77448C8.17686 7.76186 8.13801 7.73511 8.11096 7.70068C8.08498 7.66761 8.07787 7.63846 8.0775 7.61741L5.07795 7.66927C5.10253 9.09093 6.08136 10.2777 7.38465 10.6557L8.22035 7.77448ZM8.42915 7.73057C8.35652 7.78251 8.32163 7.78789 8.31862 7.78843C8.31685 7.78874 8.29064 7.79486 8.22024 7.77444L7.38476 10.6558C8.37591 10.9432 9.34842 10.7613 10.1742 10.1708L8.42915 7.73057ZM7.43088 7.2818C7.41991 8.01135 7.5188 8.86205 8.00239 9.70028L10.6009 8.20112C10.4851 8.00038 10.4242 7.74952 10.4305 7.32689L7.43088 7.2818ZM7.43084 4.94487C7.44133 5.72552 7.44197 6.50481 7.43086 7.28294L10.4306 7.32575C10.4421 6.51746 10.4414 5.71035 10.4306 4.90458L7.43084 4.94487ZM7.99946 2.59734C7.54229 3.39512 7.42109 4.20653 7.43084 4.94453L10.4306 4.90492C10.4257 4.53348 10.4856 4.29272 10.6024 4.08893L7.99946 2.59734ZM10.1359 2.097L10.1351 2.09649L8.46671 4.58977L8.46747 4.59028L10.1359 2.097ZM8.24046 4.40375L8.24113 4.40442L10.3622 2.28286L10.3615 2.28219L8.24046 4.40375ZM5.07979 7.80458C5.09706 7.79267 5.12237 7.78393 5.14486 7.78236C5.15421 7.78171 5.16061 7.78244 5.16403 7.78305C5.16732 7.78364 5.16902 7.78432 5.16978 7.78465C5.17054 7.78498 5.17226 7.7858 5.17509 7.78796C5.178 7.79016 5.18326 7.79469 5.18965 7.80269C5.20456 7.82132 5.21826 7.85002 5.22235 7.87966L2.25056 8.29011C2.5426 10.4046 5.01756 11.4922 6.7834 10.2739L5.07979 7.80458ZM4.00309 7.03456C3.98591 7.77771 4.01036 8.8571 4.68183 9.86877L7.18137 8.20976C7.05097 8.01329 6.98751 7.74337 7.00229 7.1039L4.00309 7.03456ZM4.00656 6.08527C4.00838 6.41946 4.00996 6.72922 4.00307 7.03549L7.00231 7.10297C7.0103 6.74784 7.0083 6.39619 7.00652 6.06898L4.00656 6.08527ZM4.00538 5.46333C4.00432 5.67456 4.00547 5.88448 4.00656 6.08527L7.00652 6.06898C7.00541 5.86558 7.00437 5.6713 7.00534 5.47833L4.00538 5.46333ZM4.00408 5.20691C4.00504 5.302 4.00582 5.38328 4.00538 5.46246L7.00533 5.4792C7.00593 5.37269 7.00485 5.26796 7.00393 5.17681L4.00408 5.20691ZM4.35222 3.05857C3.97098 3.90715 3.99942 4.74218 4.00408 5.20691L7.00393 5.17682C6.99846 4.63078 7.0167 4.44835 7.08873 4.28802L4.35222 3.05857ZM5.22159 5.10134C5.27517 5.11315 5.35609 5.13111 5.44404 5.1476L5.99691 2.19899C5.96278 2.19259 5.92702 2.18482 5.86743 2.17168L5.22159 5.10134ZM5.12432 5.07769C5.09753 5.07641 5.08727 5.07367 5.10517 5.07685C5.11383 5.07839 5.12673 5.08087 5.14673 5.08507C5.16756 5.08944 5.18995 5.09437 5.22159 5.10134L5.86743 2.17168C5.7706 2.15034 5.53097 2.09366 5.26701 2.08109L5.12432 5.07769ZM5.21379 5.06518C5.21394 5.03944 5.21864 5.02827 5.21879 5.0279C5.21918 5.02694 5.21673 5.03316 5.20747 5.04238C5.19806 5.05175 5.18366 5.0621 5.16485 5.06945C5.14502 5.07721 5.12971 5.07794 5.12518 5.07773L5.26615 2.08105C3.52301 1.99905 2.22399 3.40397 2.21384 5.04665L5.21379 5.06518ZM5.21296 7.43329C5.21108 6.63862 5.20921 5.85112 5.21379 5.06464L2.21384 5.04718C2.20918 5.848 2.21109 6.64779 2.21297 7.44042L5.21296 7.43329ZM5.21381 7.7997L5.21296 7.43339L2.21297 7.44032L2.21382 7.80663L5.21381 7.7997ZM5.22283 7.88316C5.21839 7.85045 5.21605 7.82926 5.21478 7.81467C5.21354 7.80037 5.21381 7.79757 5.21381 7.80316H2.21381C2.21381 7.99736 2.23422 8.16972 2.25008 8.28661L5.22283 7.88316ZM15.4577 6.49651V6.49584H12.4577V6.49651H15.4577ZM12.8964 7.5565L12.897 7.55717L15.0184 5.43585L15.0177 5.43518L12.8964 7.5565ZM13.9577 4.99584H13.957V7.99584H13.9577V4.99584ZM16.8348 4.99584H13.9577V7.99584H16.8348V4.99584ZM15.4384 5.94633C15.437 5.95008 15.4204 5.99338 15.4038 6.04616L18.2658 6.94552C18.2596 6.96552 18.254 6.98152 18.2503 6.99174C18.2471 7.00069 18.2444 7.00779 18.246 7.0034L15.4384 5.94633ZM15.3508 6.44189C15.3508 6.25878 15.3855 6.11676 15.4067 6.043C15.425 5.97946 15.4461 5.9259 15.4384 5.94634L18.246 7.00338C18.2462 7.00298 18.2524 6.98672 18.2588 6.96851C18.2658 6.94905 18.2776 6.91485 18.2899 6.87199C18.3142 6.78743 18.3508 6.63522 18.3508 6.44189H15.3508ZM15.3544 5.8933C15.3527 6.07002 15.3508 6.2554 15.3508 6.44189H18.3508C18.3508 6.27273 18.3525 6.10222 18.3543 5.92302L15.3544 5.8933ZM15.345 4.71418C15.362 5.08553 15.3587 5.46506 15.3544 5.8933L18.3543 5.92302C18.3584 5.50883 18.3633 5.04579 18.3419 4.5772L15.345 4.71418ZM15.2146 4.5283C15.2658 4.55212 15.2941 4.57241 15.3077 4.58354C15.3145 4.5892 15.3185 4.59324 15.3205 4.59541C15.3224 4.59754 15.3233 4.59874 15.3236 4.5992C15.3239 4.59964 15.3245 4.60058 15.3254 4.60256C15.3264 4.60458 15.3283 4.60887 15.3306 4.61618C15.335 4.63042 15.3426 4.66137 15.3451 4.71446L18.3419 4.57692C18.2846 3.3289 17.6005 2.33 16.481 1.80871L15.2146 4.5283ZM14.9693 4.57702C15.0235 4.53967 15.0629 4.52048 15.0871 4.51085C15.1104 4.50159 15.1218 4.50026 15.1238 4.50005C15.1252 4.4999 15.1283 4.49946 15.1372 4.50105C15.1469 4.50277 15.1721 4.5085 15.2145 4.52824L16.4812 1.80877C15.345 1.27954 14.2011 1.46239 13.2658 2.10763L14.9693 4.57702ZM15.4535 3.62965C15.4556 3.74681 15.4357 3.9564 15.3127 4.18482C15.1929 4.40714 15.0382 4.5296 14.968 4.57797L13.2671 2.10669C13.0836 2.23298 12.8457 2.43869 12.6717 2.76174C12.4943 3.09089 12.4492 3.4187 12.454 3.68371L15.4535 3.62965ZM15.4586 4.91931C15.4598 4.50237 15.4611 4.06779 15.4535 3.6307L12.4539 3.68266C12.4609 4.08448 12.4598 4.48883 12.4586 4.9108L15.4586 4.91931ZM15.4577 5.38695C15.4577 5.23213 15.4581 5.07696 15.4586 4.9193L12.4586 4.91081C12.4582 5.06775 12.4577 5.22717 12.4577 5.38695H15.4577ZM15.4577 6.49584V5.38695H12.4577V6.49584H15.4577Z" fill="#11554D" mask="url(#path-1-outside-1_935_22851)"/>
</g>
<defs>
<filter id="filter0_d_935_22851" x="0.5" y="0.894165" width="48.4704" height="20.6058" filterUnits="userSpaceOnUse" color-interpolation-filters="sRGB">
<feFlood flood-opacity="0" result="BackgroundImageFix"/>
<feColorMatrix in="SourceAlpha" type="matrix" values="0 0 0 0 0 0 0 0 0 0 0 0 0 0 0 0 0 0 127 0" result="hardAlpha"/>
<feOffset dy="1"/>
<feComposite in2="hardAlpha" operator="out"/>
<feColorMatrix type="matrix" values="0 0 0 0 0.235294 0 0 0 0 0.333333 0 0 0 0 0.0666667 0 0 0 1 0"/>
<feBlend mode="normal" in2="BackgroundImageFix" result="effect1_dropShadow_935_22851"/>
<feBlend mode="normal" in="SourceGraphic" in2="effect1_dropShadow_935_22851" result="shape"/>
</filter>
<linearGradient id="paint0_linear_935_22851" x1="24.8535" y1="2.99927" x2="24.8535" y2="19.33" gradientUnits="userSpaceOnUse">
<stop stop-color="white"/>
<stop offset="1" stop-color="#A7F0E7"/>
</linearGradient>
</defs>
</svg>
