<svg width="17" height="16" viewBox="0 0 17 16" fill="none" xmlns="http://www.w3.org/2000/svg">
<g clip-path="url(#clip0_777_21282)">
<path d="M8.50016 14.6667C4.81816 14.6667 1.8335 11.682 1.8335 8.00004C1.8335 4.31804 4.81816 1.33337 8.50016 1.33337C12.1822 1.33337 15.1668 4.31804 15.1668 8.00004C15.1668 11.682 12.1822 14.6667 8.50016 14.6667ZM5.16683 8.00004C5.16683 8.8841 5.51802 9.73194 6.14314 10.3571C6.76826 10.9822 7.61611 11.3334 8.50016 11.3334C9.38422 11.3334 10.2321 10.9822 10.8572 10.3571C11.4823 9.73194 11.8335 8.8841 11.8335 8.00004H10.5002C10.5002 8.53047 10.2894 9.03918 9.91438 9.41426C9.5393 9.78933 9.0306 10 8.50016 10C7.96973 10 7.46102 9.78933 7.08595 9.41426C6.71088 9.03918 6.50016 8.53047 6.50016 8.00004H5.16683Z" fill="#58696E"/>
</g>
<defs>
<clipPath id="clip0_777_21282">
<rect width="16" height="16" fill="white" transform="translate(0.5)"/>
</clipPath>
</defs>
</svg>
