<svg width="4338" height="4275" viewBox="0 0 4338 4275" fill="none" xmlns="http://www.w3.org/2000/svg">
<g opacity="0.5" filter="url(#filter0_f_1904_332070)">
<ellipse cx="1000.29" cy="757.338" rx="1000" ry="253.18" transform="rotate(33.0298 1000.29 757.338)" fill="#2BD071"/>
</g>
<g opacity="0.4" filter="url(#filter1_f_1904_332070)">
<circle cx="3188" cy="3125" r="1000" fill="#1852FF"/>
</g>
<path style="mix-blend-mode:screen" opacity="0.1" d="M1747.55 1471.4C1692.57 1600.37 1863.99 1796.98 2130.44 1910.55C2396.89 2024.12 2657.43 2011.61 2712.4 1882.64C2767.38 1753.66 2595.96 1557.05 2329.51 1443.48C2063.07 1329.91 1802.54 1342.4 1747.55 1471.4Z" fill="url(#paint0_radial_1904_332070)"/>
<path style="mix-blend-mode:color-dodge" d="M1985.31 1551.64C1948.55 1637.89 2063.23 1769.37 2241.39 1845.32C2419.56 1921.27 2593.85 1912.94 2630.66 1826.61C2667.46 1740.28 2552.77 1608.82 2374.56 1532.89C2196.36 1456.96 2022.03 1465.35 1985.31 1551.64Z" fill="url(#paint1_radial_1904_332070)"/>
<path style="mix-blend-mode:screen" d="M2631.84 1648.79C2549.87 1613.7 2467.89 1595.19 2395.26 1592.34L2211 1691L2255.53 1943.44C2306.88 1991.19 2374.12 2035.01 2452.25 2068.46C2664.64 2159.34 2877.02 2139.06 2926.59 2023.18C2976.17 1907.31 2844.22 1739.66 2631.84 1648.79Z" fill="url(#paint2_radial_1904_332070)"/>
<path style="mix-blend-mode:color-dodge" d="M2343.69 1782.27C2339.15 1846.5 2430.9 1905.29 2548.6 1913.58C2666.3 1921.87 2765.41 1876.52 2769.91 1812.42C2774.41 1748.31 2682.71 1689.3 2565.01 1680.99C2447.31 1672.68 2348.2 1718.05 2343.69 1782.27Z" fill="url(#paint3_radial_1904_332070)"/>
<defs>
<filter id="filter0_f_1904_332070" x="0.491211" y="22.2341" width="1999.6" height="1470.21" filterUnits="userSpaceOnUse" color-interpolation-filters="sRGB">
<feFlood flood-opacity="0" result="BackgroundImageFix"/>
<feBlend mode="normal" in="SourceGraphic" in2="BackgroundImageFix" result="shape"/>
<feGaussianBlur stdDeviation="75" result="effect1_foregroundBlur_1904_332070"/>
</filter>
<filter id="filter1_f_1904_332070" x="2038" y="1975" width="2300" height="2300" filterUnits="userSpaceOnUse" color-interpolation-filters="sRGB">
<feFlood flood-opacity="0" result="BackgroundImageFix"/>
<feBlend mode="normal" in="SourceGraphic" in2="BackgroundImageFix" result="shape"/>
<feGaussianBlur stdDeviation="75" result="effect1_foregroundBlur_1904_332070"/>
</filter>
<radialGradient id="paint0_radial_1904_332070" cx="0" cy="0" r="1" gradientUnits="userSpaceOnUse" gradientTransform="translate(2229.6 1667.87) rotate(-156.906) scale(524.094 253.372)">
<stop offset="0.01" stop-color="#2BD071"/>
<stop offset="1" stop-opacity="0"/>
</radialGradient>
<radialGradient id="paint1_radial_1904_332070" cx="0" cy="0" r="1" gradientUnits="userSpaceOnUse" gradientTransform="translate(2307.42 1677.16) rotate(-156.906) scale(350.515 169.456)">
<stop stop-color="#2BD071"/>
<stop offset="1" stop-opacity="0"/>
</radialGradient>
<radialGradient id="paint2_radial_1904_332070" cx="0" cy="0" r="1" gradientUnits="userSpaceOnUse" gradientTransform="translate(2553.09 1847.57) rotate(23.2085) scale(417.982 227.979)">
<stop offset="0.01" stop-color="#1852FF"/>
<stop offset="0.395833" stop-color="#07184B" stop-opacity="0.37"/>
<stop offset="0.791667" stop-color="#010207" stop-opacity="0.1"/>
<stop offset="1" stop-opacity="0"/>
</radialGradient>
<radialGradient id="paint3_radial_1904_332070" cx="0" cy="0" r="1" gradientUnits="userSpaceOnUse" gradientTransform="translate(2552.04 1782.42) rotate(-176.01) scale(213.477 116.436)">
<stop stop-color="#955903"/>
<stop offset="0.01" stop-color="#925703"/>
<stop offset="0.11" stop-color="#6B4002"/>
<stop offset="0.21" stop-color="#4A2C01"/>
<stop offset="0.33" stop-color="#2F1C01" stop-opacity="0.59"/>
<stop offset="0.45" stop-color="#1A1001" stop-opacity="0.31"/>
<stop offset="0.59" stop-color="#0B0700" stop-opacity="0.17"/>
<stop offset="0.75" stop-color="#030200" stop-opacity="0"/>
<stop offset="1" stop-opacity="0"/>
</radialGradient>
</defs>
</svg>
