<svg width="18" height="18" viewBox="0 0 18 18" fill="none" xmlns="http://www.w3.org/2000/svg">
<g clip-path="url(#clip0_447_7607)">
<path d="M5.25 4.5V2.25C5.25 2.05109 5.32902 1.86032 5.46967 1.71967C5.61032 1.57902 5.80109 1.5 6 1.5H15C15.1989 1.5 15.3897 1.57902 15.5303 1.71967C15.671 1.86032 15.75 2.05109 15.75 2.25V12.75C15.75 12.9489 15.671 13.1397 15.5303 13.2803C15.3897 13.421 15.1989 13.5 15 13.5H12.75V15.75C12.75 16.164 12.4125 16.5 11.9948 16.5H3.00525C2.90635 16.5006 2.8083 16.4816 2.71674 16.4442C2.62519 16.4068 2.54192 16.3517 2.47174 16.282C2.40156 16.2123 2.34584 16.1294 2.30779 16.0381C2.26974 15.9468 2.2501 15.8489 2.25 15.75L2.25225 5.25C2.25225 4.836 2.58975 4.5 3.0075 4.5H5.25ZM3.75225 6L3.75 15H11.25V6H3.75225ZM6.75 4.5H12.75V12H14.25V3H6.75V4.5Z" fill="#0ED3A3"/>
</g>
<defs>
<clipPath id="clip0_447_7607">
<rect width="18" height="18" fill="white"/>
</clipPath>
</defs>
</svg>
