<svg width="92" height="60" viewBox="0 0 92 60" fill="none" xmlns="http://www.w3.org/2000/svg">
<g clip-path="url(#clip0_447_5463)">
<path d="M17.9287 22.1352L12.0764 0H7.94296L17.9287 37.7691V52.1831L4.13341 0H0L15.862 60H17.9287H19.9941H22.0608V0H17.9287V22.1352Z" fill="black"/>
<path d="M91.4937 60L75.6318 0H73.5651H71.4983H69.4316V59.9987H73.5651L84.4745 49.0843L87.3603 59.9987H91.4937V60ZM80.8073 35.2084L73.5663 42.4494V7.81694L80.8073 35.2084ZM73.5651 54.1502V48.2941L82.0285 39.8307L83.2534 44.4619L73.5651 54.1502Z" fill="black"/>
<path d="M30.7687 0H28.702H26.6353V59.9987H30.7687L41.6781 49.0843L44.5639 59.9987H48.6973L32.8341 0H30.7687ZM38.0097 35.2083L30.7687 42.4494V7.81694L38.0097 35.2083ZM30.7687 54.1502V48.2941L39.2321 39.8307L40.457 44.4619L30.7687 54.1502Z" fill="black"/>
<path d="M65.8565 37.0722L56.0561 0H53.9894H51.9227H49.856V59.9987H53.9894V48.8725L57.7863 45.0756L61.732 59.9987L65.8565 59.9685L61.0552 41.8067L62.5738 40.2882L65.8565 37.0722ZM53.9894 43.0278V7.81694L61.3514 35.6658L53.9894 43.0278Z" fill="black"/>
</g>
<defs>
<clipPath id="clip0_447_5463">
<rect width="91.6667" height="60" fill="white"/>
</clipPath>
</defs>
</svg>
