<svg width="584" height="585" viewBox="0 0 584 585" fill="none" xmlns="http://www.w3.org/2000/svg">
<g filter="url(#filter0_b_382_31890)">
<path d="M0 20.5C0 9.45432 8.95431 0.5 20 0.5H36.5H50.522L58.2287 13.5099H101.044L110.463 0.5H155.848L164.411 13.5099H186.674H207.226L217.501 0.5H262.029L272.305 13.5099H292.856H314.264L323.683 0.5H368.211L378.487 13.5099H420.446L429.865 0.5H476.106L484.669 13.5099H527.484L536.047 0.5H564C575.046 0.5 584 9.45431 584 20.5V40.9753L570.299 46.7574V82.896L584 91.5693V130.599L570.299 136.381V172.52L584 181.193V219.5L570.299 227.451V263.589L584 270.817V309.847L570.299 317.074V353.213L584 361.886V400.193L570.299 408.144V442.837L584 451.51V489.094L570.299 497.767V533.906L584 541.134V564.5C584 575.546 575.046 584.5 564 584.5H534.334L527.484 574.381H484.669L476.106 584.5H428.152L421.302 574.381H378.487L369.924 584.5H321.971L315.12 574.381H270.592L263.742 584.5H215.789L208.938 574.381H164.411L157.56 584.5H109.607L101.044 574.381H58.2287L49.6657 584.5H20C8.95432 584.5 0 575.546 0 564.5V541.134L13.7009 533.906V497.767L0 490.54V450.787L13.7009 443.559V407.421L0 399.47V361.163L13.7009 353.213V317.074L0 309.847V270.817L13.7009 263.589V245.158V226.547L0 219.5V181.916L13.7009 173.965V137.827L0 130.599V91.5693L13.7009 82.896V48.203L0 40.9753V20.5Z" fill="url(#paint0_linear_382_31890)"/>
</g>
<rect x="31" y="30.5" width="523" height="523.897" rx="2" fill="url(#paint1_linear_382_31890)"/>
<defs>
<filter id="filter0_b_382_31890" x="-4" y="-3.5" width="592" height="592" filterUnits="userSpaceOnUse" color-interpolation-filters="sRGB">
<feFlood flood-opacity="0" result="BackgroundImageFix"/>
<feGaussianBlur in="BackgroundImageFix" stdDeviation="2"/>
<feComposite in2="SourceAlpha" operator="in" result="effect1_backgroundBlur_382_31890"/>
<feBlend mode="normal" in="SourceGraphic" in2="effect1_backgroundBlur_382_31890" result="shape"/>
</filter>
<linearGradient id="paint0_linear_382_31890" x1="292" y1="0.5" x2="292" y2="584.5" gradientUnits="userSpaceOnUse">
<stop stop-color="#F5F5F5"/>
<stop offset="1" stop-color="#D5D5D5"/>
</linearGradient>
<linearGradient id="paint1_linear_382_31890" x1="292.5" y1="30.5" x2="292.5" y2="554.397" gradientUnits="userSpaceOnUse">
<stop stop-color="white"/>
<stop offset="1" stop-color="white" stop-opacity="0.1"/>
</linearGradient>
</defs>
</svg>
