<svg width="40" height="40" viewBox="0 0 40 40" fill="none" xmlns="http://www.w3.org/2000/svg">
    <path d="M34.998 16.8667H23.698L28.2646 12.1667C23.7146 7.66667 16.348 7.5 11.798 12C7.24797 16.5167 7.24797 23.8 11.798 28.3333C16.348 32.8333 23.7146 32.8333 28.2646 28.3333C30.5313 26.0833 31.6646 23.4667 31.6646 20.1667H34.998C34.998 23.4667 33.5313 27.75 30.598 30.65C24.748 36.45 15.248 36.45 9.39797 30.65C3.56464 24.8667 3.51464 15.4667 9.36464 9.68333C15.2146 3.9 24.598 3.9 30.448 9.68333L34.998 5V16.8667ZM20.8313 13.3333V20.4167L26.6646 23.8833L25.4646 25.9L18.3313 21.6667V13.3333H20.8313Z" fill="white"/>
</svg>
