<svg width="16" height="15" viewBox="0 0 16 15" fill="none" xmlns="http://www.w3.org/2000/svg">
<path d="M1.33454 0.000592488C1.16856 0.000614169 1.00638 0.0502622 0.868832 0.143147C0.731282 0.236031 0.624641 0.367905 0.562608 0.521851C0.500576 0.675798 0.485983 0.844809 0.520706 1.00711C0.555429 1.16941 0.637881 1.31757 0.757471 1.43266L6.82396 7.49913L0.757471 13.5657C0.6774 13.6422 0.613391 13.7338 0.569192 13.8354C0.524994 13.9369 0.501494 14.0461 0.500069 14.1568C0.498644 14.2676 0.519322 14.3774 0.560893 14.4801C0.602464 14.5827 0.664092 14.676 0.742169 14.7545C0.820245 14.833 0.9132 14.8952 1.01559 14.9373C1.11798 14.9794 1.22775 15.0008 1.33847 15C1.44919 14.9992 1.55864 14.9762 1.6604 14.9326C1.76216 14.889 1.85419 14.8254 1.93111 14.7458L8.00247 8.67768L14.0706 14.7458C14.148 14.8235 14.24 14.8851 14.3413 14.9272C14.4426 14.9693 14.5512 14.9911 14.6609 14.9911C14.7706 14.9912 14.8793 14.9697 14.9806 14.9278C15.082 14.8858 15.1741 14.8243 15.2517 14.7467C15.3292 14.6692 15.3908 14.5771 15.4327 14.4757C15.4746 14.3744 15.4962 14.2657 15.4961 14.156C15.496 14.0463 15.4743 13.9377 15.4322 13.8364C15.3901 13.7351 15.3284 13.6431 15.2507 13.5657L9.18099 7.49913L15.2507 1.43266C15.3724 1.31578 15.4557 1.16473 15.4896 0.999432C15.5235 0.834132 15.5063 0.662385 15.4403 0.507068C15.3744 0.351751 15.2628 0.220164 15.1204 0.129707C14.978 0.0392501 14.8114 -0.00577116 14.6428 0.000592488C14.4266 0.00703646 14.2213 0.0974329 14.0706 0.252582L8.00247 6.32069L1.93111 0.252582C1.85355 0.172854 1.76079 0.109434 1.65833 0.0661578C1.55586 0.0228815 1.44576 0.000599594 1.33454 0.000592488Z" fill="black"/>
</svg>
