<svg width="16" height="16" viewBox="0 0 16 16" fill="none" xmlns="http://www.w3.org/2000/svg">
<path d="M15.3896 8.29076L11.8896 12.2283C11.8311 12.2952 11.7533 12.3425 11.667 12.3636C11.5806 12.3847 11.4898 12.3787 11.407 12.3464C11.3242 12.3147 11.253 12.2586 11.2026 12.1857C11.1523 12.1127 11.1252 12.0262 11.125 11.9375V9.3125H6.3125C6.19647 9.3125 6.08519 9.26641 6.00314 9.18436C5.92109 9.10231 5.875 8.99103 5.875 8.875V7.125C5.875 7.00897 5.92109 6.89769 6.00314 6.81564C6.08519 6.73359 6.19647 6.6875 6.3125 6.6875H11.125V4.0625C11.125 3.97375 11.1519 3.88709 11.2023 3.81402C11.2526 3.74095 11.324 3.68492 11.407 3.65337C11.4899 3.62183 11.5805 3.61626 11.6667 3.6374C11.7529 3.65854 11.8306 3.70539 11.8896 3.77174L15.3896 7.70924C15.4607 7.78939 15.5 7.89284 15.5 8C15.5 8.10716 15.4607 8.21061 15.3896 8.29076V8.29076ZM6.3125 12.375H4.125V3.625H6.3125C6.42853 3.625 6.53981 3.57891 6.62186 3.49686C6.70391 3.41481 6.75 3.30353 6.75 3.1875V1.4375C6.75 1.32147 6.70391 1.21019 6.62186 1.12814C6.53981 1.04609 6.42853 1 6.3125 1H1.9375C1.82147 1 1.71019 1.04609 1.62814 1.12814C1.54609 1.21019 1.5 1.32147 1.5 1.4375V14.5625C1.5 14.6785 1.54609 14.7898 1.62814 14.8719C1.71019 14.9539 1.82147 15 1.9375 15H6.3125C6.42853 15 6.53981 14.9539 6.62186 14.8719C6.70391 14.7898 6.75 14.6785 6.75 14.5625V12.8125C6.75 12.6965 6.70391 12.5852 6.62186 12.5031C6.53981 12.4211 6.42853 12.375 6.3125 12.375Z" fill="#ffffff"/>
</svg>
