<svg width="21" height="20" viewBox="0 0 21 20" fill="none" xmlns="http://www.w3.org/2000/svg">
<path d="M10.49 0C4.97 0 0.5 4.48 0.5 10C0.5 15.52 4.97 20 10.49 20C16.02 20 20.5 15.52 20.5 10C20.5 4.48 16.02 0 10.49 0Z" fill="#00FFC4"/>
<path d="M13.6831 14.4913L10.9998 12.8746L8.31642 14.4913C7.99975 14.6829 7.60808 14.3996 7.69142 14.0413L8.39975 10.9913L6.04142 8.94961C5.76642 8.70794 5.91642 8.24961 6.28308 8.21628L9.39975 7.94961L10.6164 5.07461C10.7581 4.73294 11.2414 4.73294 11.3831 5.07461L12.5997 7.94128L15.7164 8.20794C16.0831 8.24128 16.2331 8.69961 15.9497 8.94128L13.5914 10.9829L14.2997 14.0413C14.3831 14.3996 13.9998 14.6829 13.6831 14.4913Z" fill="black"/>
</svg>
