<svg width="501" height="670" viewBox="0 0 501 670" fill="none" xmlns="http://www.w3.org/2000/svg">
<g style="mix-blend-mode:color-dodge" opacity="0.6" filter="url(#filter0_f_10_5490)">
<ellipse cx="256.629" cy="590.293" rx="131.948" ry="28.1" fill="#1852FF"/>
</g>
<g style="mix-blend-mode:color-dodge" filter="url(#filter1_f_10_5490)">
<ellipse cx="256.629" cy="422.101" rx="83.0783" ry="182.446" fill="#1852FF"/>
</g>
<g style="mix-blend-mode:color-dodge" opacity="0.45" filter="url(#filter2_f_10_5490)">
<path d="M66.9955 128.033C58.6863 96.3391 82.5963 65.3525 115.361 65.3525H385.716C418.216 65.3525 442.079 95.8721 434.239 127.413L323.546 572.782H183.596L66.9955 128.033Z" fill="url(#paint0_linear_10_5490)"/>
</g>
<g style="mix-blend-mode:color-dodge">
<ellipse cx="258.258" cy="590.107" rx="122.988" ry="36.2449" fill="#1852FF"/>
</g>
<path d="M260.322 467.534L260.323 467.534L260.331 467.534L260.38 467.534C260.426 467.534 260.498 467.533 260.596 467.532C260.793 467.53 261.09 467.525 261.48 467.513C262.259 467.491 263.404 467.444 264.836 467.346C267.703 467.151 271.7 466.753 276.203 465.946C285.31 464.315 296.044 461.086 303.812 454.86L260.322 467.534ZM260.322 467.534L260.322 467.534M260.322 467.534L260.322 467.534M260.322 467.534L260.321 467.534M260.322 467.534L260.321 467.534M260.321 467.534L256.581 467.521M260.321 467.534L256.581 467.521M256.581 467.521L256.818 471.256M256.581 467.521L256.818 471.256M256.818 471.256L257.515 482.235L257.701 485.17L260.624 485.493L261.008 482.014M256.818 471.256L261.008 482.014M261.008 482.014C260.624 485.493 260.625 485.493 260.627 485.493L260.63 485.493L260.637 485.494L260.659 485.496L260.73 485.504C260.789 485.509 260.872 485.517 260.977 485.527C261.187 485.546 261.488 485.571 261.872 485.597C262.641 485.649 263.746 485.706 265.132 485.732C267.901 485.784 271.805 485.709 276.401 485.208C285.563 484.209 297.641 481.497 308.947 474.563C318.366 468.798 325.143 460.513 331.396 450.46C335.372 444.068 339.265 436.732 343.507 428.737C345.855 424.312 348.31 419.686 350.945 414.906L350.947 414.903C352.3 412.442 356.69 406.881 362.743 403.441C368.583 400.122 375.672 398.883 383.397 404.084C389.25 408.026 392.098 414.289 393.264 421.016L393.265 421.02C393.911 424.723 397.139 426.348 399.877 426.12C402.621 425.892 405.546 423.739 405.522 419.955L405.522 419.955C405.436 406.453 399.375 395.015 390.047 388.382C380.67 381.713 368.212 380.072 355.909 385.796C341.519 392.49 333.408 406.562 326.492 420.026C325.62 421.724 324.768 423.412 323.924 425.083C321.344 430.194 318.843 435.146 316.087 439.766C312.451 445.861 308.542 451.066 303.812 454.859L261.008 482.014Z" fill="#74698B" stroke="#242424" stroke-width="7"/>
<g opacity="0.3">
<path d="M347.873 413.228C332.833 440.507 324.63 460.86 307.119 471.579C285.657 484.736 260.996 482.007 260.996 482.007L260.657 476.501C266.568 476.837 286.976 477.051 305.078 465.948C322.578 455.223 330.781 434.869 345.828 407.579C349.086 401.679 365.138 383.298 383.3 395.544C389.131 399.473 392.293 405.263 393.899 411.338C392.053 407.418 389.314 403.868 385.334 401.186C367.173 388.94 351.121 407.321 347.873 413.228Z" fill="#242424"/>
</g>
<g opacity="0.3">
<path d="M396.712 420.418C396.491 419.137 396.207 417.863 395.859 416.597C397.445 417.587 399.998 416.724 399.988 414.336C399.962 410.77 399.495 407.38 398.631 404.218C400.765 408.867 401.993 414.191 402.022 419.978C402.036 423.255 397.264 423.636 396.712 420.418Z" fill="#242424"/>
<path d="M397.789 422.549C397.112 422.158 396.574 421.478 396.388 420.468C396.158 419.152 395.874 417.878 395.544 416.682L395.323 415.888L396.019 416.32C396.76 416.777 397.769 416.797 398.541 416.356C399.265 415.946 399.664 415.229 399.661 414.339C399.634 410.877 399.184 407.511 398.316 404.302L398.914 404.086C401.151 408.942 402.302 414.296 402.332 419.979C402.345 421.851 400.932 422.84 399.622 422.957C399.017 423.007 398.354 422.875 397.789 422.549ZM397.026 420.363C397.281 421.841 398.491 422.407 399.581 422.311C400.642 422.214 401.715 421.457 401.712 419.977C401.691 415.763 401.039 411.747 399.775 407.971C400.115 410.045 400.29 412.173 400.315 414.333C400.316 415.457 399.8 416.402 398.869 416.915C398.103 417.345 397.168 417.427 396.358 417.166C396.606 418.197 396.828 419.272 397.026 420.363Z" fill="#242424"/>
</g>
<g opacity="0.3">
<path d="M395.853 416.608C395.272 416.257 394.827 415.645 394.672 414.787C394.467 413.633 394.215 412.481 393.917 411.333C394.727 413.028 395.36 414.799 395.853 416.608Z" fill="#74698B"/>
<path d="M396.358 417.269L395.695 416.856C395.202 416.557 394.562 415.951 394.372 414.821C394.173 413.655 393.921 412.504 393.626 411.402L394.207 411.19C394.985 412.837 395.645 414.638 396.163 416.506L396.358 417.269ZM395.001 414.858C395.048 415.033 395.094 415.208 395.172 415.356C395.107 415.186 395.054 415.022 395.001 414.858Z" fill="#242424"/>
</g>
<path d="M185.469 455.256C185.331 462.278 184.697 470.485 181.195 473.52C181.002 473.7 180.768 473.796 180.533 473.838C179.954 473.948 179.32 473.658 179.031 473.079L179.003 473.024L175.901 466.899C175.639 466.375 175.129 466.099 174.605 466.099C174.302 466.099 173.998 466.195 173.737 466.388C173.047 466.885 172.647 467.685 172.647 468.527V480.914C172.647 481.963 171.958 482.915 170.952 483.19C167.546 484.101 163.59 479.48 161.811 473.658C155.814 471.437 154.504 465.037 155.428 456.663L155.456 456.511L155.635 455.09L155.704 454.58H182.601L185.469 455.256Z" fill="#FFBD99"/>
<path d="M170.028 485.342C165.823 485.342 162.059 480.597 160.143 475.161C151.099 470.982 152.519 458.456 154.835 447.903C154.959 447.365 155.29 446.882 155.759 446.592C156.228 446.303 156.807 446.206 157.344 446.33L185.952 453.228C186.889 453.448 187.551 454.304 187.537 455.283C187.399 463.063 186.682 471.492 182.546 475.079C181.733 475.782 180.671 476.058 179.623 475.851C178.562 475.644 177.68 474.968 177.197 474.003L174.743 469.147V480.886C174.743 482.886 173.42 484.652 171.517 485.163C171.007 485.287 170.524 485.342 170.028 485.342ZM158.447 450.855C155.993 463.27 157.275 469.726 162.542 471.685C163.149 471.906 163.617 472.402 163.797 473.023C165.41 478.265 168.622 481.631 170.428 481.162C170.511 481.135 170.593 481.024 170.593 480.886V468.512C170.593 467.009 171.31 465.588 172.523 464.691C173.364 464.084 174.426 463.863 175.432 464.112C176.439 464.36 177.294 465.022 177.762 465.946L180.464 471.285C182.808 468.236 183.249 460.898 183.373 456.87L158.447 450.855Z" fill="#242424"/>
<path d="M163.259 481.107C160.309 476.196 160.268 470.513 160.764 465.133C160.805 464.692 161.191 464.361 161.646 464.402C162.046 464.443 162.349 464.761 162.377 465.147C162.708 469.892 163.549 475.107 166.637 478.707C168.512 481.066 164.886 483.659 163.259 481.107Z" fill="#242424"/>
<path d="M193.217 335.545L191.398 457.546C177.639 458.829 164.831 458.691 154.974 454.138C153.802 453.6 153.112 452.373 153.209 451.104L154.133 439.061L154.257 437.419C148.466 435.943 153.981 376.088 174.633 348.65C179.858 341.739 186.035 336.869 193.217 335.545Z" fill="#1852FF"/>
<g opacity="0.6">
<path d="M159.537 454.152C158.365 453.614 157.676 452.387 157.772 451.118L158.696 439.075C158.944 438.923 159.192 438.757 159.44 438.606C158.958 438.068 158.269 437.226 157.634 436.109C154.822 431.17 155.69 425.859 156.077 423.321C158.944 404.974 154.863 418.438 158.985 400.615C162.584 385.068 164.376 377.302 167.836 367.59C174.771 348.14 179.555 343.532 183.581 340.897C187.248 338.511 190.819 337.435 193.19 336.911L193.204 335.531C186.007 336.869 179.845 341.725 174.633 348.636C153.995 376.088 148.48 435.957 154.27 437.419L154.146 439.061L153.223 451.104C153.126 452.387 153.816 453.601 154.987 454.139C162.129 457.436 170.828 458.415 180.313 458.208C172.593 458.043 165.52 456.911 159.537 454.152Z" fill="white"/>
</g>
<path d="M178.08 460.332C169.849 460.332 161.315 459.353 154.119 456.028C152.188 455.132 151.003 453.09 151.168 450.952L152.133 438.426C150.782 436.895 149.79 433.239 150.093 424.231C150.493 412.023 153.512 390.82 160.695 371.246C166.402 355.685 176.604 336.524 192.845 333.503C193.452 333.393 194.086 333.558 194.555 333.958C195.023 334.358 195.299 334.952 195.285 335.572L193.465 457.587C193.452 458.649 192.638 459.518 191.59 459.615C187.399 460.001 182.795 460.332 178.08 460.332ZM155.166 435.543C155.925 435.902 156.407 436.702 156.338 437.571L155.29 451.255C155.263 451.683 155.483 452.083 155.856 452.248C163.673 455.863 174.068 456.911 189.371 455.642L191.122 338.207C178.231 342.332 169.642 358.913 164.624 372.529C160.198 384.544 156.724 399.387 155.097 413.251C153.429 427.459 154.381 434.246 155.166 435.543Z" fill="#242424"/>
<path d="M154.202 428.66C154.739 433.764 154.464 437.544 160.447 438.675C161.274 438.826 161.316 440.04 160.502 440.247C152.906 442.275 149.983 435.212 150.052 428.88C150.093 426.246 153.898 426.066 154.202 428.66Z" fill="#242424"/>
<path d="M166.457 440.827C173.612 442.123 180.754 443.02 188.019 443.006C192.362 443.048 196.677 442.799 201.02 442.496C202.164 442.413 203.157 443.268 203.24 444.4C203.322 445.531 202.481 446.51 201.365 446.621C195.409 447.145 189.384 447.145 183.442 446.524C180.464 446.193 177.486 445.738 174.564 445.034C171.641 444.331 168.787 443.365 166.085 442.068C165.382 441.751 165.713 440.689 166.457 440.827Z" fill="#242424"/>
<path d="M161.825 458.249C161.784 458.249 161.756 458.249 161.715 458.249C160.763 458.194 160.046 457.367 160.102 456.415L160.75 446.345C160.805 445.393 161.632 444.675 162.583 444.731C163.534 444.786 164.251 445.613 164.196 446.565L163.548 456.635C163.479 457.546 162.721 458.249 161.825 458.249Z" fill="#242424"/>
<path d="M168.994 458.856C168.953 458.856 168.925 458.856 168.884 458.856C167.932 458.801 167.215 457.973 167.271 457.021L167.919 446.951C167.974 445.999 168.801 445.282 169.752 445.337C170.703 445.392 171.42 446.22 171.365 447.172L170.717 457.242C170.648 458.152 169.89 458.856 168.994 458.856Z" fill="#242424"/>
<path d="M176.577 458.856C176.536 458.856 176.508 458.856 176.467 458.856C175.515 458.801 174.798 457.973 174.854 457.021L175.502 446.951C175.557 445.999 176.384 445.282 177.335 445.337C178.286 445.392 179.003 446.22 178.948 447.172L178.3 457.242C178.245 458.152 177.487 458.856 176.577 458.856Z" fill="#242424"/>
<g opacity="0.2">
<path d="M185.469 455.256C185.331 462.278 184.697 470.486 181.195 473.52C181.002 473.7 180.768 473.796 180.533 473.838C180.009 473.562 179.513 473.3 179.003 473.024L175.901 466.899C175.639 466.375 175.129 466.099 174.605 466.099C174.302 466.099 173.998 466.195 173.736 466.389C173.047 466.885 172.647 467.685 172.647 468.527V469.423C166.181 465.506 160.46 461.243 155.414 456.649L155.442 456.498L155.621 455.077L155.69 454.566H182.587L185.469 455.256Z" fill="#242424"/>
</g>
<path d="M391.372 354.358C391.372 354.358 389.453 387.939 363.936 396.542C361.863 397.241 359.647 397.776 357.246 398.105C347.991 399.41 341.117 396.285 336.479 392.698C331.513 388.864 329.123 384.506 329.123 384.506L325.357 368.903L321.027 350.905L319.047 342.712C319.047 342.712 329.553 353.073 340.511 356.373C344.359 357.534 348.279 357.822 351.808 356.486C356.446 354.728 360.427 350.154 362.766 341.058L391.372 354.358Z" fill="#F8C099"/>
<path d="M363.936 396.532C361.863 397.231 359.647 397.766 357.256 398.095C348.002 399.4 341.127 396.275 336.489 392.688C331.523 388.854 329.133 384.496 329.133 384.496L325.357 368.903L321.027 350.905L319.047 342.713C319.047 342.713 329.553 353.074 340.511 356.373C344.359 357.535 348.279 357.823 351.808 356.486C351.162 360.526 349.274 374.639 352.393 384.342C355.04 392.616 357.851 396.029 363.936 396.532Z" fill="#1852FF"/>
<g opacity="0.25">
<path d="M357.256 399.225C338.09 401.928 329.122 385.616 329.122 385.616C328.589 383.242 331.369 381.515 333.237 383.087C337.864 386.993 345.067 390.714 355.02 389.316C377.541 386.14 390.13 363.568 367.578 352.323L391.362 355.469C391.362 355.469 389.135 394.723 357.256 399.225Z" fill="#242424"/>
</g>
<path d="M353.07 400.242C335.894 400.242 327.604 385.554 327.512 385.389C327.019 384.495 327.347 383.375 328.24 382.881C329.133 382.388 330.251 382.717 330.744 383.611C331.082 384.228 339.373 398.752 357 396.274C369.517 394.506 378.782 386.982 384.538 373.898C388.006 366.034 389.104 358.397 389.422 355.488L363.956 343.647C361.391 351.942 357.102 356.989 351.162 358.634C336.818 362.622 318.524 344.788 317.754 344.028C317.026 343.308 317.015 342.147 317.733 341.417C318.452 340.687 319.611 340.677 320.34 341.396C320.514 341.571 337.885 358.49 350.187 355.067C355.245 353.659 358.877 348.787 360.991 340.595L361.545 338.446L393.28 353.207L393.208 354.461C393.188 354.872 392.572 364.729 387.955 375.285C381.737 389.48 371.21 398.001 357.513 399.934C355.963 400.149 354.486 400.242 353.07 400.242Z" fill="#242424"/>
<path d="M363.648 397.817C360.395 397.817 357.615 396.696 355.358 394.466C345.682 384.876 349.858 357.349 350.032 356.178C350.186 355.17 351.13 354.482 352.136 354.636C353.141 354.79 353.829 355.736 353.675 356.743C352.515 364.174 351.028 384.979 357.953 391.835C359.934 393.788 362.458 394.486 365.679 393.942C366.675 393.777 367.629 394.456 367.803 395.463C367.968 396.47 367.29 397.416 366.285 397.591C365.382 397.735 364.5 397.817 363.648 397.817Z" fill="#242424"/>
<path d="M359.853 341.284C362.828 359.549 381.02 359.23 386.078 358.388C396.636 356.64 400.925 347.112 400.925 347.112L393.383 335.404L390.11 329.134L385.77 327.459C382.764 320.829 375.869 313.038 371.406 315.268C371.406 315.268 357.287 325.537 359.853 341.284Z" fill="#F8C099"/>
<g opacity="0.25">
<path d="M402.905 342.558C402.485 348.15 394.8 352.673 379.204 349.651C373.715 348.592 369.436 344.357 369.857 338.776C370.277 333.184 375.141 328.991 380.712 329.412C386.294 329.823 403.326 336.967 402.905 342.558Z" fill="#242424"/>
</g>
<path d="M403.705 323.307C399.262 327.151 395.415 329.936 395.415 329.936L382.938 340.955L376.546 321.23C376.546 321.23 376.792 317.365 377.469 312.277C378.813 302.194 381.85 287.321 388.068 288.174C399.242 289.716 389.597 318.784 389.597 318.784C389.597 318.784 409.328 296.191 415.997 303.53C419.896 307.827 410.99 316.985 403.705 323.307Z" fill="#F8C099"/>
<g opacity="0.25">
<path d="M403.705 324.427C399.262 328.271 395.415 331.056 395.415 331.056L382.938 342.075L376.546 322.35C376.546 322.35 376.792 318.485 377.469 313.397C380.301 316.008 385.596 320.757 387.36 323.481C390.408 328.168 399.231 323.203 403.705 324.427Z" fill="#242424"/>
</g>
<path d="M382.928 342.805C382.764 342.805 382.6 342.784 382.446 342.743C381.851 342.579 381.368 342.127 381.184 341.53L374.791 321.795C374.72 321.569 374.689 321.343 374.709 321.107C374.884 318.311 376.649 293.59 383.831 287.711C385.185 286.601 386.734 286.128 388.325 286.344C390.51 286.642 392.285 287.803 393.465 289.705C396.677 294.886 395.086 305.092 393.393 312.123C398.595 307.025 406.578 300.272 412.447 300.22C412.478 300.22 412.498 300.22 412.529 300.22C414.458 300.22 416.13 300.94 417.362 302.286C418.449 303.489 418.931 305.041 418.757 306.788C417.854 315.618 399.067 329.566 396.574 331.375L384.159 342.332C383.81 342.641 383.379 342.805 382.928 342.805ZM378.403 320.994L383.821 337.717L394.194 328.559C394.235 328.518 394.286 328.487 394.327 328.446C402.053 322.833 414.519 311.897 415.084 306.418C415.176 305.514 414.889 305.072 414.632 304.784C414.089 304.188 413.401 303.921 412.478 303.921C406.321 303.982 394.881 315.556 390.982 320.017C390.408 320.675 389.443 320.839 388.684 320.408C387.925 319.976 387.576 319.061 387.853 318.229C389.689 312.688 393.711 297.126 390.326 291.679C389.72 290.702 388.92 290.178 387.812 290.024C387.453 289.972 386.899 289.983 386.15 290.589C381.204 294.629 378.906 313.562 378.403 320.994Z" fill="#242424"/>
<path d="M403.203 345.2C400.114 349.476 388.284 350.689 384.2 346.999C380.722 343.854 384.683 340.482 385.801 339.629C385.975 339.495 386.078 339.423 386.078 339.423C386.078 339.423 381.697 337.707 381.194 333.863C381.163 333.616 381.143 333.359 381.153 333.081C381.204 328.692 393.127 325.794 398.349 327.048C402.259 327.983 403.644 329.71 403.88 331.457C404.136 333.328 403.1 335.219 402.423 336.227C402.115 336.689 401.879 336.957 401.879 336.957C401.879 336.957 405.675 341.777 403.203 345.2Z" fill="#F8C099"/>
<g opacity="0.25">
<path d="M402.433 337.347C399.191 338.714 392.727 340.975 385.801 340.739C385.976 340.605 386.078 340.533 386.078 340.533C386.078 340.533 381.697 338.817 381.194 334.973C385.268 336.196 396.575 338.776 403.88 332.567C404.147 334.438 403.11 336.34 402.433 337.347Z" fill="#242424"/>
</g>
<g opacity="0.25">
<path d="M403.202 346.32C400.114 350.596 388.283 351.809 384.2 348.119C382.497 346.577 382.579 344.974 383.246 343.648C383.43 343.884 383.646 344.12 383.902 344.357C387.976 348.047 399.816 346.834 402.904 342.568C403.222 342.126 403.448 341.664 403.571 341.181C404.146 342.753 404.382 344.696 403.202 346.32Z" fill="#242424"/>
</g>
<path d="M391.895 351.039C388.109 351.039 384.877 350.093 382.969 348.366C381.173 346.742 380.886 345.026 380.978 343.874C381.101 342.22 382.025 340.78 382.958 339.732C381.245 338.468 379.275 336.309 379.316 333.061C379.326 331.992 379.757 330.399 381.737 328.847C385.903 325.589 394.471 324.211 398.79 325.239C402.453 326.113 404.71 327.778 405.49 330.193C406.362 332.866 405.09 335.507 404.146 336.988C405.316 338.941 407.111 342.939 404.71 346.269C402.976 348.664 399.139 350.391 394.45 350.884C393.578 350.998 392.726 351.039 391.895 351.039ZM395.415 328.59C391.69 328.59 386.509 329.793 383.995 331.756C383.359 332.249 383 332.743 382.989 333.092C382.969 336.145 386.724 337.687 386.765 337.697C387.401 337.954 387.842 338.54 387.914 339.218C387.986 339.897 387.678 340.565 387.114 340.945C386.355 341.459 384.744 342.929 384.651 344.131C384.631 344.44 384.692 344.933 385.441 345.611C386.929 346.958 390.397 347.606 394.06 347.215C397.559 346.845 400.637 345.591 401.714 344.101C403.305 341.901 400.473 338.118 400.442 338.087C399.898 337.399 399.919 336.412 400.493 335.744C401.037 335.096 402.494 332.876 401.981 331.324C401.53 329.947 399.529 329.207 397.928 328.826C397.231 328.672 396.379 328.59 395.415 328.59Z" fill="#242424"/>
<path d="M389.515 341.489C388.324 341.489 387.093 341.417 385.841 341.243C384.836 341.109 384.128 340.174 384.261 339.166C384.395 338.159 385.328 337.45 386.334 337.583C394.152 338.632 401.016 335.332 401.088 335.291C402.001 334.839 403.109 335.219 403.551 336.134C404.002 337.049 403.623 338.149 402.709 338.601C402.432 338.745 396.789 341.489 389.515 341.489Z" fill="#242424"/>
<path d="M371.406 315.269C377.326 312.308 387.525 326.986 387.268 333.205C387.073 337.954 381.173 341.49 374.935 334.942C368.615 328.312 362.11 319.925 371.406 315.269Z" fill="#1852FF"/>
<path d="M400.935 347.112C400.935 347.112 396.646 356.63 386.088 358.387C381.02 359.23 362.828 359.549 359.853 341.284C357.287 325.547 371.406 315.278 371.406 315.278C377.326 312.318 387.525 326.996 387.268 333.215C387.073 337.964 379.84 340.122 374.576 331.344C374.576 331.344 377.11 339.146 370.103 343.822L372.606 348.725L385.042 353.998L397.015 352.58L400.935 347.112Z" fill="#F8C099"/>
<path d="M373.458 340.42L373.16 340.215C373.406 340.05 373.632 339.886 373.858 339.711C373.735 339.947 373.612 340.184 373.458 340.42Z" fill="#1852FF"/>
<g opacity="0.25">
<path d="M374.935 331.067C374.33 327.942 382.528 336.391 387.247 334.737C386.745 338.571 381.512 340.421 376.813 335.435C376.69 332.958 374.935 331.067 374.935 331.067Z" fill="#242424"/>
</g>
<g opacity="0.25">
<path d="M394.994 352.806L397.015 352.57C394.615 355.026 391.044 357.565 386.078 358.387C381.009 359.23 362.818 359.539 359.842 341.273C358.098 330.563 364.08 322.381 368.081 318.249C364.736 322.803 361.566 329.504 362.9 337.676C366.347 358.85 383.595 355.705 389.136 354.79C391.362 354.42 393.311 353.711 394.994 352.806Z" fill="#242424"/>
</g>
<path d="M400.925 347.122C400.884 347.215 400.545 347.944 399.858 348.993L399.55 349.034L400.925 347.122Z" fill="#1852FF"/>
<path d="M400.073 348.973C399.898 349.158 399.714 349.343 399.519 349.517C399.642 349.332 399.755 349.158 399.867 348.993L400.073 348.973Z" fill="#1852FF"/>
<path d="M366.009 354.461C364.377 353.403 362.92 352.005 361.751 350.391C361.156 349.589 360.653 348.726 360.201 347.842C359.75 346.958 359.38 346.033 359.062 345.097C357.821 341.366 357.472 337.296 358.108 333.359C358.416 331.396 358.96 329.474 359.688 327.634C360.427 325.804 361.34 324.046 362.397 322.402C363.454 320.757 364.654 319.215 365.957 317.766C366.614 317.047 367.291 316.348 367.999 315.68C368.358 315.34 368.717 315.011 369.087 314.693C369.466 314.364 369.815 314.066 370.277 313.727L370.328 313.686C370.4 313.634 370.472 313.593 370.544 313.562C370.862 313.429 371.18 313.285 371.508 313.192C371.847 313.12 372.185 313.017 372.514 313.007C372.842 312.987 373.191 312.956 373.509 312.997C373.827 313.017 374.155 313.048 374.443 313.12C375.643 313.377 376.659 313.871 377.562 314.415C378.475 314.97 379.265 315.597 380.014 316.265C380.763 316.923 381.45 317.633 382.097 318.362C383.39 319.822 384.529 321.374 385.544 323.008C386.55 324.653 387.442 326.369 388.15 328.23C388.499 329.165 388.797 330.131 388.992 331.19C389.033 331.457 389.094 331.714 389.115 332.002C389.146 332.28 389.176 332.557 389.166 332.866V333.308L389.125 333.791C389.084 334.109 389.033 334.428 388.94 334.747C388.602 336.021 387.791 337.183 386.745 337.964C385.688 338.745 384.426 339.166 383.205 339.218C381.974 339.3 380.804 339.033 379.757 338.622C378.701 338.211 377.777 337.614 376.956 336.946C375.304 335.61 374.104 333.955 373.099 332.269L376.238 330.841C376.351 331.272 376.392 331.57 376.443 331.92C376.495 332.259 376.525 332.588 376.546 332.927C376.577 333.256 376.567 333.595 376.577 333.924C376.577 334.253 376.556 334.592 376.546 334.921C376.454 336.247 376.166 337.573 375.664 338.807C375.54 339.115 375.417 339.423 375.253 339.722C375.089 340.009 374.945 340.318 374.771 340.595C374.391 341.14 374.032 341.695 373.571 342.168C373.15 342.682 372.647 343.083 372.165 343.504C371.929 343.73 371.652 343.884 371.385 344.069L370.595 344.594C370.195 344.861 369.661 344.748 369.395 344.347C369.148 343.977 369.22 343.494 369.548 343.216L369.631 343.144L370.256 342.6C370.462 342.415 370.687 342.26 370.852 342.045C371.211 341.644 371.59 341.253 371.878 340.801C372.206 340.379 372.432 339.896 372.678 339.444C372.791 339.208 372.873 338.961 372.965 338.714C373.068 338.478 373.129 338.221 373.191 337.974C373.458 336.977 373.56 335.929 373.509 334.88C373.488 334.623 373.468 334.356 373.437 334.099C373.396 333.842 373.376 333.585 373.314 333.328C373.263 333.071 373.211 332.824 373.14 332.578C373.078 332.352 372.986 332.064 372.934 331.93C372.565 331.057 372.965 330.049 373.837 329.679C374.607 329.35 375.479 329.628 375.93 330.296L376.074 330.502C376.956 331.91 378.003 333.205 379.214 334.14C380.404 335.086 381.789 335.641 382.979 335.538C383.574 335.507 384.098 335.291 384.498 334.983C384.888 334.664 385.175 334.253 385.298 333.76C385.339 333.637 385.349 333.503 385.37 333.38L385.39 333.174L385.38 332.938C385.39 332.783 385.36 332.609 385.339 332.434C385.329 332.269 385.288 332.074 385.257 331.899C385.113 331.159 384.877 330.388 384.59 329.607C383.379 326.513 381.461 323.502 379.234 320.963C378.67 320.326 378.085 319.729 377.469 319.185C376.854 318.64 376.218 318.136 375.571 317.746C374.925 317.355 374.268 317.057 373.694 316.934C373.109 316.81 372.668 316.851 372.278 317.036L372.544 316.872C372.267 317.077 371.898 317.376 371.58 317.643C371.252 317.92 370.923 318.208 370.605 318.506C369.969 319.102 369.354 319.719 368.758 320.367C367.568 321.652 366.491 323.029 365.537 324.488C364.582 325.948 363.741 327.469 363.084 329.052C362.428 330.645 361.935 332.29 361.638 333.976C361.032 337.337 361.309 340.832 362.192 344.172C362.633 345.837 363.249 347.441 364.069 348.942C364.89 350.453 365.916 351.85 367.127 353.146L367.137 353.156C367.466 353.505 367.445 354.06 367.096 354.389C366.778 354.646 366.337 354.667 366.009 354.461Z" fill="#242424"/>
<path d="M402.515 347.831C402.309 348.325 402.135 348.684 401.92 349.085C401.714 349.476 401.489 349.846 401.253 350.216C401.027 350.586 400.76 350.935 400.504 351.285C400.237 351.634 399.97 351.963 399.693 352.302C398.564 353.628 397.251 354.79 395.825 355.787C395.127 356.311 394.358 356.712 393.609 357.154C392.819 357.514 392.049 357.925 391.228 358.182C389.617 358.809 387.904 359.076 386.231 359.241C385.749 359.282 385.329 358.932 385.288 358.459C385.246 358.048 385.503 357.678 385.883 357.555L385.954 357.534C387.432 357.051 388.868 356.558 390.182 355.797C390.859 355.479 391.464 355.016 392.1 354.636C392.695 354.173 393.301 353.752 393.855 353.238C394.973 352.261 395.989 351.161 396.912 350C397.138 349.702 397.354 349.404 397.59 349.116C397.795 348.808 398.021 348.51 398.226 348.211C398.431 347.903 398.636 347.595 398.831 347.286C399.026 346.988 399.231 346.639 399.375 346.413L399.467 346.269C399.97 345.457 401.037 345.2 401.848 345.703C402.556 346.135 402.833 347.05 402.515 347.831Z" fill="#242424"/>
<path opacity="0.5" d="M258.612 599.118C318.576 599.118 367.187 594.184 367.187 588.099C367.187 582.013 318.576 577.08 258.612 577.08C198.648 577.08 150.037 582.013 150.037 588.099C150.037 594.184 198.648 599.118 258.612 599.118Z" fill="black"/>
<path d="M243.042 578.388C243.069 579.437 242.918 580.471 242.532 581.451C240.891 585.603 237.72 588.638 233.46 590.886C232.619 591.328 231.709 591.631 230.772 591.769C217.123 593.756 204.136 593.797 191.783 591.921C190.088 591.659 188.502 590.873 187.33 589.617C184.173 586.265 183.001 581.658 183.966 575.685C184.146 574.609 184.49 573.574 184.973 572.608L186.448 569.629L202.578 536.99L242.242 542.563L242.697 562.11L243.042 578.388Z" fill="#50468F"/>
<path d="M188.64 565.145C184.132 578.194 202.62 585.119 217.84 575.739C219.219 574.884 220.887 574.622 222.486 574.911L227.187 575.767C228.497 576.001 229.779 575.104 229.917 573.78C230.248 570.594 228.759 567.779 225.933 565.255C224.582 564.041 223.63 562.455 223.286 560.675C222.307 555.626 221.755 550.908 222.459 547.225L200.152 541.018L188.64 565.145Z" fill="white"/>
<path d="M210.312 595.355C203.874 595.355 197.587 594.9 191.466 593.962C189.288 593.631 187.289 592.596 185.814 591.037C182.174 587.175 180.864 581.905 181.912 575.353C182.105 574.111 182.505 572.87 183.098 571.683L200.703 536.079C201.103 535.279 201.958 534.824 202.84 534.948L242.504 540.521C243.51 540.659 244.269 541.514 244.282 542.521L245.11 578.36C245.137 579.74 244.917 581.036 244.462 582.223C242.738 586.609 239.361 590.141 234.411 592.734C233.363 593.286 232.233 593.658 231.061 593.824C224.03 594.831 217.095 595.355 210.312 595.355ZM203.75 539.252L186.806 573.518C186.406 574.332 186.131 575.174 185.993 576.001C185.152 581.285 186.076 585.271 188.819 588.182C189.66 589.065 190.818 589.658 192.087 589.851C204.246 591.686 217.164 591.644 230.468 589.699C231.171 589.603 231.861 589.368 232.495 589.037C236.59 586.885 239.237 584.154 240.615 580.678C240.877 580.015 241.001 579.257 240.987 578.429L240.202 544.356L203.75 539.252Z" fill="#242424"/>
<path d="M243.027 577.519C242.558 587.3 182.67 590.404 184.09 575.009C182.849 581.189 183.428 586.955 189.852 591.369C203.225 594.004 217.329 593.825 231.984 591.494C239.553 587.866 243.151 583.189 243.027 577.519Z" fill="white"/>
<path d="M210.284 594.68C203.074 594.68 196.208 594.032 189.577 592.721C189.398 592.68 189.218 592.611 189.067 592.501C181.277 587.148 181.732 579.796 182.739 574.733C182.877 574.016 183.566 573.519 184.297 573.643C185.027 573.753 185.537 574.402 185.468 575.133C185.303 576.871 186.172 578.361 188.129 579.699C197.477 586.1 228.028 585.465 238.795 580.099C240.573 579.216 241.621 578.251 241.662 577.45C241.704 576.719 242.31 576.14 243.041 576.14H243.055C243.799 576.154 244.406 576.747 244.42 577.492C244.558 583.782 240.573 588.9 232.591 592.735C232.467 592.79 232.343 592.832 232.205 592.859C224.512 594.073 217.233 594.68 210.284 594.68ZM190.39 590.073C202.964 592.514 216.433 592.542 231.557 590.169C236.217 587.907 239.236 585.286 240.67 582.237C240.463 582.348 240.242 582.472 240.008 582.582C229.42 587.852 197.366 589.397 186.558 581.989C185.937 581.561 185.413 581.134 184.972 580.692C185.193 584.665 186.944 587.617 190.39 590.073Z" fill="#242424"/>
<path d="M205.307 570.746C204.397 570.746 203.556 570.139 203.308 569.215C203.005 568.111 203.653 566.98 204.756 566.677L225.904 560.924C227.007 560.621 228.138 561.269 228.441 562.373C228.744 563.476 228.096 564.608 226.993 564.911L205.845 570.663C205.679 570.719 205.5 570.746 205.307 570.746Z" fill="#242424"/>
<path d="M205.859 569.697C205.28 569.697 204.701 569.449 204.287 568.98L192.706 555.502C191.962 554.633 192.059 553.323 192.927 552.578C193.796 551.833 195.105 551.93 195.85 552.799L207.431 566.276C208.175 567.145 208.078 568.456 207.21 569.201C206.824 569.532 206.341 569.697 205.859 569.697Z" fill="#242424"/>
<path d="M207.39 563.435C206.825 563.435 206.259 563.2 205.846 562.745L194.968 550.62C194.21 549.764 194.279 548.454 195.12 547.695C195.975 546.936 197.284 547.005 198.043 547.847L208.92 559.972C209.678 560.828 209.609 562.138 208.768 562.897C208.369 563.256 207.872 563.435 207.39 563.435Z" fill="#242424"/>
<path d="M209.457 557.668C208.892 557.668 208.327 557.434 207.913 556.978L197.56 545.377C196.801 544.522 196.87 543.211 197.725 542.452C198.58 541.694 199.889 541.763 200.648 542.618L211.001 554.219C211.76 555.075 211.691 556.385 210.836 557.144C210.436 557.489 209.94 557.668 209.457 557.668Z" fill="#242424"/>
<path d="M206.7 564.607C205.79 564.607 204.949 564 204.701 563.076C204.397 561.972 205.045 560.841 206.148 560.537L224.539 555.53C225.642 555.226 226.773 555.875 227.076 556.978C227.38 558.082 226.732 559.213 225.629 559.516L207.237 564.524C207.058 564.579 206.879 564.607 206.7 564.607Z" fill="#242424"/>
<path d="M207.9 558.896C206.99 558.896 206.149 558.289 205.901 557.365C205.598 556.261 206.246 555.13 207.348 554.826L223.313 550.481C224.416 550.177 225.547 550.826 225.85 551.929C226.153 553.033 225.505 554.164 224.402 554.468L208.438 558.813C208.272 558.868 208.093 558.896 207.9 558.896Z" fill="#242424"/>
<path d="M207.803 554.178C206.88 554.178 206.052 553.557 205.804 552.633C205.515 551.53 206.177 550.398 207.279 550.109L225.933 545.212C227.036 544.922 228.166 545.584 228.456 546.688C228.745 547.791 228.083 548.922 226.98 549.212L208.327 554.109C208.148 554.164 207.969 554.178 207.803 554.178Z" fill="#242424"/>
<path d="M242.407 550.716L233.308 555.006C232.536 555.365 232.039 556.137 232.012 556.979C231.805 562.331 232.894 566.621 235.707 569.518C236.548 570.387 237.788 570.732 238.96 570.498L242.848 569.697L242.407 550.716Z" fill="#242424"/>
<path d="M238.202 571.96C236.892 571.96 235.624 571.436 234.7 570.484C231.764 567.463 230.385 562.897 230.619 556.924C230.674 555.558 231.474 554.33 232.715 553.751L241.814 549.461C242.241 549.268 242.738 549.295 243.124 549.53C243.524 549.778 243.772 550.206 243.772 550.675L244.213 569.656C244.227 570.319 243.758 570.912 243.11 571.036L239.222 571.836C238.891 571.933 238.547 571.96 238.202 571.96ZM241.083 552.882L233.901 556.276C233.597 556.413 233.404 556.717 233.39 557.062C233.184 562.318 234.259 566.084 236.685 568.58C237.182 569.091 237.94 569.312 238.671 569.174L241.442 568.608L241.083 552.882Z" fill="#242424"/>
<path d="M203.184 581.464C198.18 581.464 193.782 580.002 190.859 577.657C186.875 574.457 185.579 569.725 187.33 564.69C187.344 564.635 187.371 564.593 187.385 564.552L198.883 540.411C199.172 539.804 199.848 539.501 200.496 539.68L222.803 545.888C223.492 546.081 223.919 546.771 223.781 547.474C223.202 550.468 223.464 554.454 224.609 560.4C224.884 561.848 225.656 563.159 226.828 564.207C230.123 567.159 231.626 570.429 231.267 573.905C231.171 574.912 230.661 575.795 229.834 576.416C229.006 577.036 227.945 577.298 226.911 577.105L222.21 576.25C220.9 576.015 219.604 576.25 218.529 576.898C213.359 580.126 207.996 581.464 203.184 581.464ZM189.922 565.669C188.598 569.573 189.549 573.063 192.596 575.505C197.435 579.395 207.679 580.388 217.109 574.567C218.749 573.56 220.748 573.201 222.72 573.546L227.421 574.401C227.683 574.457 227.973 574.388 228.193 574.222C228.303 574.139 228.496 573.946 228.538 573.629C228.8 571.049 227.642 568.635 225.008 566.276C223.382 564.828 222.32 562.979 221.92 560.938C220.845 555.392 220.528 551.392 220.9 548.233L200.882 542.646L189.922 565.669Z" fill="#242424"/>
<path d="M192.555 482.776L179.885 492.295L181.001 500.365L196.429 498.158L192.555 482.776Z" fill="#74698B"/>
<g opacity="0.3">
<path d="M192.555 482.776L179.885 492.295L181.001 500.365L196.429 498.158L192.555 482.776Z" fill="#242424"/>
</g>
<path d="M182.726 500.364L184.573 518.449C184.697 519.663 185.676 520.629 186.889 520.725L196.443 521.498L195.395 498.295L182.726 500.364Z" fill="#74698B"/>
<g opacity="0.3">
<path d="M182.726 500.364L184.573 518.449C184.697 519.663 185.676 520.629 186.889 520.725L196.443 521.498L195.395 498.295L182.726 500.364Z" fill="#242424"/>
</g>
<path d="M181.002 502.448C180.561 502.448 180.12 502.31 179.761 502.034C179.32 501.703 179.03 501.206 178.962 500.668L177.845 492.598C177.748 491.853 178.052 491.108 178.658 490.653L191.328 481.135C191.88 480.721 192.61 480.61 193.258 480.845C193.906 481.079 194.402 481.617 194.582 482.293L198.456 497.675C198.594 498.24 198.497 498.847 198.166 499.33C197.835 499.813 197.325 500.144 196.746 500.227L181.305 502.434C181.195 502.434 181.098 502.448 181.002 502.448ZM182.091 493.219L182.753 498.019L193.851 496.433L191.3 486.294L182.091 493.219Z" fill="#242424"/>
<path d="M196.429 523.581C196.374 523.581 196.319 523.581 196.264 523.581L186.709 522.808C184.49 522.629 182.725 520.891 182.505 518.684L180.657 500.599C180.547 499.509 181.305 498.516 182.38 498.35L195.05 496.281C195.629 496.184 196.222 496.35 196.691 496.722C197.16 497.095 197.422 497.647 197.449 498.24L198.497 521.443C198.525 522.036 198.29 522.615 197.863 523.029C197.491 523.374 196.967 523.581 196.429 523.581ZM184.986 502.102L186.627 518.242C186.654 518.463 186.834 518.642 187.054 518.656L194.264 519.249L193.423 500.723L184.986 502.102Z" fill="#242424"/>
<path d="M249.921 484.749L249.494 495.647L248.157 529.403C248.101 530.658 247.591 531.831 246.709 532.714L243.235 536.19C242.587 536.838 242.215 537.721 242.215 538.645V546.177C228.414 549.626 212.491 547.695 200.138 541.004V533.762C197.05 533.762 194.513 531.32 194.389 528.244L191.88 467.52L249.921 484.749Z" fill="#74698B"/>
<g opacity="0.6">
<path d="M247.508 498.157C247.067 498.171 246.861 502.641 244.986 519.443C244.917 520.105 244.6 522.767 243.566 526.064C242.862 528.299 242.421 529.733 241.456 531.003C239.719 533.279 237.017 534.106 232.922 534.796C228.993 535.458 223.313 536.093 216.199 535.748C226.098 537.555 233.35 537.045 237.637 536.424C240.229 536.051 242.835 535.486 244.848 533.417C247.55 530.658 247.688 526.768 247.743 524.16C247.991 511.166 248.253 498.13 247.508 498.157Z" fill="white"/>
</g>
<path d="M228.138 549.957C218.005 549.957 207.803 547.516 199.159 542.825C198.497 542.467 198.069 541.763 198.069 541.004V535.555C194.857 534.686 192.472 531.817 192.32 528.327L189.811 467.603C189.784 466.94 190.087 466.292 190.611 465.878C191.135 465.464 191.838 465.34 192.472 465.533L250.5 482.777C251.41 483.053 252.016 483.894 251.975 484.846L250.21 529.486C250.141 531.265 249.411 532.934 248.156 534.19L244.682 537.666C244.42 537.928 244.268 538.287 244.268 538.659V546.191C244.268 547.143 243.62 547.971 242.697 548.205C237.995 549.378 233.073 549.957 228.138 549.957ZM202.205 539.749C213.386 545.446 227.655 547.24 240.146 544.536V538.646C240.146 537.169 240.725 535.776 241.773 534.728L245.247 531.252C245.757 530.741 246.06 530.051 246.088 529.32L247.784 486.281L194.071 470.32L196.456 528.148C196.539 530.134 198.152 531.679 200.137 531.679C201.282 531.679 202.205 532.603 202.205 533.748V539.749Z" fill="#242424"/>
<path d="M196.346 525.43C196.249 530.865 204.053 532.727 208.437 533.9C214.31 535.266 220.431 535.969 226.525 536.604C227.021 536.659 227.379 537.1 227.338 537.597C227.283 538.066 226.883 538.425 226.401 538.411C220.183 538.163 214.006 537.845 207.844 536.824C201.64 535.776 192.417 533.321 192.21 525.444C192.21 522.574 196.36 522.574 196.346 525.43Z" fill="#242424"/>
<g opacity="0.3">
<path d="M211.057 533.403C210.96 534.341 211.209 535.293 211.843 535.983C212.008 536.162 212.256 536.355 212.684 536.562C214.655 537.514 216.034 536.397 217.164 537.155C218.088 537.776 217.592 538.797 218.46 540.163C219.453 541.721 221.245 542.218 222.445 542.563C225.133 543.308 232.316 543.901 242.215 544.039V546.191C228.414 549.64 212.491 547.708 200.138 541.018V533.776C197.05 533.776 194.513 531.334 194.389 528.258L191.88 467.533L249.907 484.777L249.48 495.675C245.606 498.765 241.263 499.703 240.67 499.827C235.418 500.889 233.667 499.344 223.851 499.841C221.438 499.965 218.915 500.379 217.04 501.896C214.228 504.158 213.663 508.131 213.29 511.718L211.057 533.403Z" fill="#242424"/>
</g>
<g opacity="0.3">
<path d="M242.669 562.11C241.235 563.711 239.719 564.869 238.106 565.711C224.512 572.815 208.12 557.875 191.659 566.125C189.618 567.146 187.881 568.373 186.42 569.629L202.55 536.99L242.214 542.563L242.669 562.11Z" fill="#242424"/>
</g>
<path d="M268.243 578.387C268.216 579.436 268.367 580.47 268.753 581.45C270.394 585.602 273.565 588.637 277.825 590.885C278.666 591.327 279.576 591.63 280.513 591.768C294.162 593.755 307.149 593.796 319.502 591.92C321.198 591.658 322.783 590.872 323.955 589.616C327.112 586.264 328.284 581.657 327.319 575.684C327.14 574.608 326.795 573.573 326.312 572.607L324.837 569.628L308.707 536.989L269.043 542.562L268.588 562.11L268.243 578.387Z" fill="#50468F"/>
<path d="M322.659 565.145C327.168 578.194 308.68 585.119 293.459 575.739C292.081 574.884 290.413 574.622 288.813 574.911L284.112 575.767C282.802 576.001 281.52 575.104 281.382 573.78C281.052 570.594 282.54 567.779 285.367 565.255C286.718 564.041 287.669 562.455 288.014 560.675C288.993 555.626 289.544 550.908 288.841 547.225L311.148 541.018L322.659 565.145Z" fill="white"/>
<path d="M300.973 595.355C294.19 595.355 287.255 594.845 280.224 593.81C279.052 593.645 277.922 593.272 276.874 592.721C271.938 590.127 268.561 586.596 266.837 582.209C266.369 581.023 266.148 579.726 266.189 578.346L267.017 542.508C267.044 541.487 267.789 540.645 268.795 540.507L308.459 534.934C309.341 534.81 310.21 535.265 310.596 536.065L328.201 571.67C328.794 572.856 329.194 574.098 329.387 575.339C330.435 581.892 329.125 587.175 325.485 591.024C324.01 592.583 322.011 593.617 319.833 593.948C313.712 594.886 307.411 595.355 300.973 595.355ZM271.097 544.37L270.312 578.443C270.298 579.271 270.422 580.029 270.684 580.692C272.049 584.168 274.71 586.913 278.804 589.051C279.438 589.382 280.128 589.603 280.831 589.713C294.149 591.658 307.053 591.714 319.213 589.865C320.481 589.672 321.639 589.079 322.48 588.196C325.223 585.285 326.147 581.299 325.306 576.015C325.168 575.174 324.906 574.346 324.493 573.518L307.549 539.252L271.097 544.37Z" fill="#242424"/>
<path d="M268.271 577.518C268.739 587.299 328.628 590.403 327.208 575.008C328.449 581.188 327.87 586.954 321.445 591.368C308.072 594.003 293.969 593.824 279.314 591.493C271.745 587.865 268.147 583.188 268.271 577.518Z" fill="white"/>
<path d="M301.014 594.679C294.052 594.679 286.786 594.072 279.093 592.844C278.955 592.817 278.831 592.789 278.707 592.72C270.725 588.899 266.741 583.767 266.878 577.477C266.892 576.732 267.499 576.139 268.243 576.125C268.96 576.083 269.608 576.69 269.636 577.435C269.677 578.235 270.711 579.201 272.503 580.084C283.271 585.436 313.822 586.085 323.169 579.684C325.113 578.346 325.995 576.856 325.83 575.118C325.761 574.387 326.285 573.725 327.002 573.628C327.732 573.518 328.408 574 328.559 574.718C329.566 579.78 330.021 587.133 322.231 592.485C322.08 592.596 321.901 592.665 321.721 592.706C315.09 594.03 308.211 594.679 301.014 594.679ZM279.728 590.154C294.851 592.541 308.321 592.499 320.894 590.058C324.341 587.616 326.092 584.65 326.312 580.677C325.871 581.119 325.347 581.56 324.727 581.974C313.918 589.382 281.864 587.837 271.276 582.567C271.042 582.457 270.835 582.333 270.615 582.222C272.048 585.271 275.068 587.892 279.728 590.154Z" fill="#242424"/>
<path d="M305.977 570.745C305.798 570.745 305.619 570.718 305.426 570.676L284.277 564.924C283.174 564.62 282.526 563.489 282.83 562.385C283.133 561.282 284.263 560.634 285.366 560.937L306.515 566.689C307.618 566.993 308.266 568.124 307.962 569.228C307.728 570.138 306.887 570.745 305.977 570.745Z" fill="#242424"/>
<path d="M305.426 569.697C304.943 569.697 304.474 569.532 304.075 569.201C303.206 568.456 303.109 567.145 303.854 566.276L315.435 552.799C316.179 551.93 317.489 551.833 318.357 552.578C319.226 553.323 319.322 554.633 318.578 555.502L306.997 568.98C306.597 569.449 306.018 569.697 305.426 569.697Z" fill="#242424"/>
<path d="M303.909 563.434C303.413 563.434 302.917 563.255 302.53 562.91C301.676 562.151 301.607 560.841 302.379 559.986L313.256 547.86C314.015 547.005 315.324 546.936 316.179 547.708C317.034 548.467 317.103 549.777 316.331 550.633L305.453 562.758C305.04 563.2 304.474 563.434 303.909 563.434Z" fill="#242424"/>
<path d="M301.841 557.668C301.345 557.668 300.862 557.489 300.462 557.144C299.608 556.385 299.539 555.075 300.297 554.219L310.651 542.618C311.409 541.763 312.719 541.694 313.573 542.452C314.428 543.211 314.497 544.522 313.739 545.377L303.385 556.978C302.971 557.434 302.406 557.668 301.841 557.668Z" fill="#242424"/>
<path d="M304.599 564.607C304.42 564.607 304.24 564.579 304.047 564.538L285.656 559.53C284.553 559.227 283.905 558.096 284.208 556.992C284.512 555.888 285.642 555.24 286.745 555.543L305.136 560.551C306.239 560.854 306.887 561.986 306.584 563.089C306.35 564 305.509 564.607 304.599 564.607Z" fill="#242424"/>
<path d="M303.385 558.896C303.206 558.896 303.027 558.868 302.847 558.827L286.883 554.481C285.78 554.178 285.132 553.047 285.435 551.943C285.738 550.84 286.869 550.191 287.972 550.495L303.937 554.84C305.04 555.143 305.687 556.275 305.384 557.378C305.136 558.289 304.295 558.896 303.385 558.896Z" fill="#242424"/>
<path d="M303.496 554.178C303.316 554.178 303.151 554.15 302.972 554.109L284.319 549.226C283.216 548.936 282.554 547.805 282.843 546.701C283.133 545.598 284.263 544.936 285.366 545.225L304.02 550.122C305.122 550.412 305.784 551.543 305.495 552.647C305.247 553.557 304.406 554.178 303.496 554.178Z" fill="#242424"/>
<path d="M268.878 550.715L277.977 555.005C278.749 555.364 279.245 556.136 279.273 556.978C279.48 562.33 278.39 566.62 275.578 569.517C274.737 570.386 273.496 570.731 272.324 570.497L268.437 569.696L268.878 550.715Z" fill="#242424"/>
<path d="M273.083 571.96C272.738 571.96 272.407 571.932 272.062 571.849L268.175 571.049C267.527 570.911 267.058 570.332 267.072 569.67L267.513 550.688C267.527 550.219 267.775 549.791 268.161 549.543C268.561 549.295 269.057 549.267 269.47 549.474L278.57 553.764C279.81 554.344 280.61 555.558 280.665 556.937C280.899 562.91 279.521 567.476 276.584 570.497C275.661 571.449 274.406 571.96 273.083 571.96ZM269.856 568.58L272.628 569.145C273.358 569.297 274.117 569.076 274.613 568.552C277.039 566.055 278.115 562.289 277.908 557.034C277.894 556.689 277.701 556.399 277.398 556.247L270.215 552.854L269.856 568.58Z" fill="#242424"/>
<path d="M308.1 581.464C303.303 581.464 297.926 580.126 292.728 576.912C291.667 576.25 290.357 576.029 289.047 576.264L284.346 577.119C283.326 577.298 282.264 577.05 281.423 576.429C280.61 575.808 280.1 574.926 279.99 573.919C279.631 570.442 281.12 567.187 284.429 564.221C285.601 563.172 286.359 561.862 286.649 560.413C287.793 554.468 288.055 550.481 287.476 547.488C287.338 546.784 287.765 546.095 288.455 545.901L310.761 539.694C311.409 539.514 312.085 539.818 312.374 540.425L323.872 564.566C323.9 564.607 323.914 564.662 323.927 564.704C325.665 569.739 324.382 574.47 320.398 577.671C317.503 580.002 313.119 581.464 308.1 581.464ZM290.054 573.408C291.515 573.408 292.949 573.794 294.176 574.553C303.606 580.375 313.849 579.381 318.689 575.491C321.735 573.049 322.687 569.546 321.363 565.655L310.389 542.646L290.385 548.219C290.757 551.392 290.44 555.392 289.365 560.924C288.965 562.966 287.903 564.814 286.276 566.262C283.629 568.635 282.471 571.035 282.747 573.615C282.775 573.932 282.968 574.112 283.092 574.208C283.312 574.374 283.588 574.443 283.864 574.388L288.565 573.532C289.061 573.463 289.558 573.408 290.054 573.408Z" fill="#242424"/>
<path d="M318.743 482.776L331.413 492.295L330.296 500.365L314.855 498.158L318.743 482.776Z" fill="#74698B"/>
<g opacity="0.3">
<path d="M318.743 482.776L331.413 492.295L330.296 500.365L314.855 498.158L318.743 482.776Z" fill="#242424"/>
</g>
<path d="M328.573 500.364L326.726 518.449C326.602 519.663 325.623 520.629 324.41 520.725L314.855 521.498L315.903 498.295L328.573 500.364Z" fill="#74698B"/>
<g opacity="0.3">
<path d="M328.573 500.364L326.726 518.449C326.602 519.663 325.623 520.629 324.41 520.725L314.855 521.498L315.903 498.295L328.573 500.364Z" fill="#242424"/>
</g>
<path d="M330.297 502.448C330.2 502.448 330.104 502.448 330.007 502.42L314.58 500.213C314.001 500.13 313.477 499.799 313.16 499.316C312.829 498.833 312.733 498.226 312.87 497.661L316.744 482.28C316.91 481.604 317.406 481.066 318.068 480.831C318.716 480.597 319.447 480.707 319.998 481.121L332.668 490.639C333.274 491.095 333.578 491.839 333.481 492.584L332.365 500.654C332.296 501.206 331.992 501.689 331.565 502.02C331.179 502.296 330.738 502.448 330.297 502.448ZM317.42 496.433L328.518 498.02L329.18 493.219L319.97 486.294L317.42 496.433Z" fill="#242424"/>
<path d="M314.855 523.581C314.318 523.581 313.808 523.374 313.422 523.002C312.994 522.588 312.76 522.008 312.787 521.415L313.835 498.212C313.863 497.619 314.138 497.067 314.593 496.695C315.048 496.323 315.641 496.157 316.234 496.254L328.904 498.323C329.979 498.502 330.737 499.482 330.627 500.571L328.78 518.656C328.559 520.863 326.781 522.602 324.575 522.781L315.021 523.553C314.966 523.581 314.91 523.581 314.855 523.581ZM317.861 500.723L317.02 519.249L324.23 518.656C324.451 518.642 324.63 518.463 324.658 518.242L326.298 502.103L317.861 500.723Z" fill="#242424"/>
<path d="M261.378 484.749L261.805 495.647L263.143 529.403C263.198 530.658 263.708 531.831 264.59 532.714L268.064 536.19C268.712 536.838 269.085 537.721 269.085 538.645V546.177C282.885 549.626 298.808 547.695 311.161 541.004V533.762C314.249 533.762 316.786 531.32 316.91 528.244L319.419 467.52L261.378 484.749Z" fill="#74698B"/>
<g opacity="0.6">
<path d="M263.79 498.157C264.231 498.171 264.438 502.641 266.313 519.443C266.382 520.105 266.699 522.767 267.733 526.064C268.436 528.299 268.878 529.733 269.843 531.003C271.58 533.279 274.282 534.106 278.376 534.796C282.306 535.458 287.986 536.093 295.1 535.748C285.201 537.555 277.949 537.045 273.661 536.424C271.07 536.051 268.464 535.486 266.451 533.417C263.749 530.658 263.611 526.768 263.556 524.16C263.308 511.166 263.046 498.13 263.79 498.157Z" fill="white"/>
</g>
<path d="M283.16 549.957C278.225 549.957 273.303 549.377 268.574 548.191C267.651 547.956 267.003 547.129 267.003 546.177V538.645C267.003 538.272 266.851 537.914 266.589 537.652L263.115 534.175C261.86 532.92 261.13 531.251 261.061 529.471L259.296 484.832C259.255 483.88 259.861 483.038 260.771 482.762L318.799 465.519C319.433 465.326 320.136 465.464 320.66 465.864C321.184 466.278 321.487 466.912 321.459 467.588L318.95 528.313C318.812 531.803 316.414 534.672 313.201 535.541V540.99C313.201 541.749 312.788 542.452 312.112 542.811C303.496 547.515 293.294 549.957 283.16 549.957ZM271.139 544.535C283.615 547.239 297.898 545.446 309.079 539.749V533.748C309.079 532.603 310.003 531.679 311.147 531.679C313.132 531.679 314.745 530.134 314.828 528.147L317.213 470.319L263.501 486.28L265.197 529.32C265.224 530.051 265.527 530.741 266.038 531.251L269.512 534.727C270.56 535.776 271.139 537.169 271.139 538.645V544.535Z" fill="#242424"/>
<path d="M319.088 525.43C318.868 533.32 309.672 535.762 303.455 536.81C297.292 537.845 291.102 538.148 284.898 538.397C284.402 538.41 283.974 538.024 283.96 537.528C283.947 537.045 284.305 536.645 284.774 536.59C290.881 535.955 296.989 535.251 302.862 533.886C307.039 532.755 313.174 531.32 314.76 527.03C314.911 526.506 314.966 525.94 314.952 525.374C314.939 524.229 315.849 523.291 316.979 523.264C318.165 523.25 319.13 524.243 319.088 525.43Z" fill="#242424"/>
<g opacity="0.3">
<path d="M300.228 533.403C300.325 534.341 300.077 535.293 299.443 535.983C299.277 536.162 299.029 536.355 298.602 536.562C296.63 537.514 295.251 536.397 294.121 537.155C293.197 537.776 293.694 538.797 292.825 540.163C291.832 541.721 290.04 542.218 288.841 542.563C286.152 543.308 278.97 543.901 269.071 544.039V546.191C282.871 549.64 298.795 547.708 311.147 541.018V533.776C314.236 533.776 316.772 531.334 316.896 528.258L319.406 467.533L261.378 484.777L261.805 495.675C265.679 498.765 270.022 499.703 270.615 499.827C275.868 500.889 277.618 499.344 287.435 499.841C289.847 499.965 292.37 500.379 294.245 501.896C297.058 504.158 297.623 508.131 297.995 511.718L300.228 533.403Z" fill="#242424"/>
</g>
<g opacity="0.3">
<path d="M268.63 562.11C270.064 563.71 271.58 564.868 273.193 565.71C286.787 572.814 303.179 557.875 319.64 566.124C321.681 567.145 323.418 568.372 324.879 569.628L308.749 536.989L269.085 542.562L268.63 562.11Z" fill="#242424"/>
</g>
<path d="M323.499 360.347C329.635 407.663 333.343 451.103 319.019 465.946C323.403 483.148 299.704 492.515 255.325 492.515H255.904C211.525 492.515 187.826 483.148 192.21 465.946C177.886 451.103 181.595 407.663 187.73 360.347L193.134 326.067L316.841 327.309L323.499 360.347Z" fill="#1852FF"/>
<g opacity="0.6">
<path d="M244.503 492.295C230.964 491.357 219.439 489.66 210.133 487.26C218.805 490.019 230.358 491.715 244.503 492.295Z" fill="white"/>
<path d="M323.5 360.348C322.548 356.265 321.625 352.112 320.742 347.864C319.267 340.842 317.971 333.986 316.841 327.309C295.706 327.089 274.571 326.882 253.437 326.675L317.158 331.586C319.267 341.173 321.39 350.76 323.5 360.348C320.549 375.922 320.935 388.31 321.887 396.932C322.962 406.574 324.782 411.678 325.099 424.314C325.444 438.054 323.293 446.703 322.797 448.703C320.618 457.601 317.337 464.54 314.745 469.175C314.649 470.94 314.29 473.906 312.677 476.996C307.604 486.666 294.879 488.432 295.044 488.915C295.21 489.412 309.548 489.149 316.041 478.762C319.157 473.768 319.171 468.513 319.005 465.96C326.657 448.965 328.573 434.936 328.918 425.335C329.125 419.665 328.78 415.61 326.243 389.096C325.513 381.274 324.589 371.563 323.5 360.348Z" fill="white"/>
</g>
<path d="M324.492 360.224C326.78 368.997 327.373 378.005 328.504 386.958C330.517 408.229 335.893 450.952 320.494 467.381L321.004 465.436C322.493 470.816 321.018 476.844 316.978 480.762C307.038 490.598 288.15 492.681 274.778 493.895C268.284 494.378 261.791 494.585 255.297 494.585V490.446H255.876C257.02 490.446 257.944 491.37 257.944 492.515C257.944 493.66 257.02 494.585 255.876 494.585C249.383 494.571 242.889 494.378 236.396 493.895C221.892 492.612 191.286 489.37 189.632 470.871C189.522 469.009 189.756 467.174 190.169 465.436L190.68 467.381C175.156 451.034 180.409 408.243 182.463 386.93C183.469 377.95 184.517 368.997 186.764 360.224C186.888 359.713 187.412 359.41 187.922 359.548C188.35 359.658 188.639 360.044 188.639 360.472C188.446 374.018 186.282 387.289 185.496 400.753C184.503 418.051 181.842 451.186 193.685 464.512C194.181 465.064 194.347 465.795 194.195 466.457C193.078 470.568 194.112 474.899 197.187 477.893C206.258 486.722 224.443 488.653 236.713 489.77C243.082 490.239 249.479 490.446 255.876 490.446V494.585H255.297C254.153 494.585 253.229 493.66 253.229 492.515C253.229 491.37 254.153 490.446 255.297 490.446C261.694 490.432 268.105 490.239 274.46 489.77C287.144 488.708 321.555 485.149 316.978 466.457C316.813 465.74 317.033 465.009 317.488 464.512C320.232 461.56 322.093 457.67 323.375 453.573C327.111 440.868 326.987 427.363 326.615 414.133C326.146 400.725 324.864 387.289 323.389 373.936C322.879 369.48 322.41 365.01 322.465 360.472C322.465 359.906 322.934 359.465 323.485 359.465C323.982 359.479 324.382 359.796 324.492 360.224Z" fill="#242424"/>
<path d="M187.482 452.662C191.742 467.933 209.898 472.168 223.644 474.637C232.894 476.21 242.214 477.038 251.575 477.907C252.209 477.962 252.678 478.527 252.623 479.162C252.568 479.755 252.072 480.197 251.493 480.21C249.907 480.252 248.335 480.266 246.75 480.266C245.55 480.266 243.193 480.238 242.007 480.197C226.842 479.659 208.534 477.934 195.395 469.726C189.66 466.181 185.014 460.374 183.47 453.697C182.863 451.035 186.723 450.028 187.482 452.662Z" fill="#242424"/>
<path d="M327.801 453.696C322.19 476.609 288.785 479.465 269.263 480.196C266.203 480.293 262.825 480.293 259.764 480.21C258.358 480.168 258.234 478.058 259.682 477.906C265.941 477.327 272.186 476.775 278.376 475.989C290.398 474.375 303.027 472.526 313.49 466.056C318.44 462.939 322.259 458.331 323.775 452.662C324.534 450.041 328.408 451.006 327.801 453.696Z" fill="#242424"/>
<g opacity="0.2">
<path d="M196.277 479.907C241.759 496.778 284.276 491.398 309.12 472.526C266.547 481.479 210.132 478.306 190.693 464.194L196.277 479.907Z" fill="#242424"/>
</g>
<path d="M271.162 375.649C271.018 374.596 269.993 373.926 268.98 374.178C263.282 375.536 257.56 375.346 252.29 373.888C251.177 373.581 250.01 374.274 249.799 375.431L249.153 378.989C249.019 379.727 249.458 380.446 250.167 380.648C250.782 380.823 251.437 380.556 251.767 379.997L252.971 377.948C253.236 377.499 253.749 377.272 254.254 377.368C254.771 377.467 255.174 377.888 255.245 378.419L255.536 380.588C255.631 381.303 256.193 381.857 256.897 381.93C257.589 382.002 258.242 381.589 258.487 380.925L259.262 378.821C259.445 378.325 259.922 378.008 260.442 378.018C260.962 378.029 261.425 378.365 261.588 378.868L262.277 381.001C262.495 381.675 263.131 382.115 263.826 382.07C264.531 382.026 265.116 381.494 265.24 380.784L265.618 378.62C265.711 378.092 266.124 377.688 266.644 377.61C267.153 377.534 267.663 377.782 267.908 378.242L269.032 380.348C269.337 380.919 269.979 381.213 270.6 381.065C271.317 380.895 271.788 380.195 271.686 379.452L271.162 375.649Z" fill="#242424"/>
<path d="M267.318 382.684C266.685 382.52 266.014 382.769 265.677 383.293L264.449 385.208C264.179 385.627 263.654 385.839 263.138 385.747C262.609 385.654 262.196 385.261 262.122 384.765L261.821 382.735C261.722 382.065 261.143 381.544 260.421 381.474C259.71 381.405 259.041 381.791 258.79 382.414L258.002 384.374C257.816 384.837 257.326 385.132 256.794 385.121C256.262 385.11 255.79 384.796 255.623 384.325L254.913 382.332C254.689 381.702 254.038 381.291 253.327 381.331C252.605 381.371 252.009 381.866 251.883 382.529L251.5 384.542C251.406 385.035 250.977 385.411 250.445 385.483C249.925 385.553 249.409 385.321 249.157 384.891L248.006 382.932C247.692 382.397 247.032 382.122 246.396 382.261C245.664 382.421 245.186 383.076 245.294 383.769L245.814 387.107C245.983 388.194 247.15 388.887 248.3 388.644C253.745 387.493 259.603 387.542 265.375 389.042C266.4 389.304 267.477 388.729 267.669 387.756L268.363 384.24C268.499 383.549 268.046 382.874 267.318 382.684Z" fill="#242424"/>
<path d="M216.652 281.137C212.334 285.075 205.847 287.498 198.601 287.904C186.086 288.619 171.327 283.389 161.548 269.812C151.94 256.47 152.421 240.62 155.349 229.583C157.134 222.88 159.817 217.96 161.687 216.476C166.646 212.537 194.679 206.357 214.728 228.793C234.778 251.24 226.345 272.267 216.652 281.137Z" fill="#FBA3CB"/>
<path d="M298.026 281.351C302.322 285.321 308.788 287.765 316.044 288.214C328.549 288.993 343.34 283.838 353.194 270.314C362.866 257.025 362.47 241.164 359.606 230.117C357.864 223.403 355.214 218.472 353.343 216.978C348.406 213.007 320.405 206.678 300.238 229.018C280.06 251.358 288.386 272.438 298.026 281.351Z" fill="#FBA3CB"/>
<path d="M196.228 290.018C181.982 290.018 168.548 283.026 159.881 270.997C148.242 254.848 151.448 236.287 153.372 229.061C153.383 229.018 153.393 228.975 153.404 228.943C155.167 222.368 157.914 216.85 160.415 214.865C166.485 210.04 195.779 204.501 216.267 227.428C227.948 240.503 229.573 252.489 228.889 260.238C228.13 268.745 224.08 277.124 218.041 282.642C213.371 286.912 206.51 289.505 198.718 289.943C197.885 289.996 197.051 290.018 196.228 290.018ZM157.305 230.213C155.531 236.959 152.656 253.951 163.215 268.606C171.551 280.187 184.739 286.645 198.483 285.855C205.238 285.471 211.351 283.197 215.273 279.622C223.289 272.289 233.174 252.511 213.211 230.149C202.876 218.6 190.746 215.42 182.399 214.779C172.534 214.032 164.882 216.551 162.969 218.067C161.772 219.017 159.197 223.115 157.337 230.096C157.326 230.139 157.316 230.181 157.305 230.213Z" fill="#242424"/>
<path d="M216.651 281.137C212.334 285.075 205.846 287.498 198.6 287.904C210.763 267.485 200.941 233.244 186.064 224.769C170.012 215.611 155.691 229.252 155.359 229.583C157.133 222.88 159.816 217.96 161.686 216.476C166.645 212.537 194.678 206.357 214.728 228.793C234.777 251.24 226.345 272.267 216.651 281.137Z" fill="#5C546C"/>
<g opacity="0.6">
<path d="M155.478 229.252C155.52 229.21 155.83 228.911 156.375 228.452C157.872 224.641 159.549 221.93 160.843 220.895C165.78 216.924 193.781 210.606 213.948 232.935C224.368 244.473 227.179 255.68 226.142 265.041C228.836 254.848 227.104 241.741 214.846 228.164C194.679 205.813 166.678 212.153 161.74 216.113C159.87 217.608 157.22 222.549 155.478 229.252Z" fill="white"/>
</g>
<path d="M198.601 289.772C197.949 289.772 197.34 289.43 196.998 288.875C196.635 288.288 196.635 287.541 196.987 286.954C202.556 277.593 203.742 263.899 200.151 250.311C197.212 239.168 191.451 230 185.124 226.392C170.376 217.97 157.209 230.384 156.653 230.918C156.055 231.505 155.136 231.611 154.409 231.184C153.682 230.757 153.33 229.904 153.543 229.092C155.275 222.613 158.075 216.946 160.533 215.003C166.571 210.2 195.726 204.703 216.128 227.545C227.767 240.577 229.392 252.51 228.708 260.217C227.959 268.681 223.92 277.017 217.913 282.503C213.275 286.741 206.456 289.324 198.697 289.761C198.665 289.772 198.633 289.772 198.601 289.772ZM174.501 219.721C178.402 219.721 182.624 220.66 186.995 223.147C194.262 227.299 200.536 237.098 203.774 249.362C207.226 262.447 206.488 275.725 201.872 285.684C207.301 284.841 212.11 282.759 215.38 279.76C223.439 272.385 233.389 252.5 213.328 230.042C194.508 208.962 167.608 214.149 162.852 217.928C162.008 218.6 160.469 220.82 158.983 224.503C162.67 222.219 168.132 219.721 174.501 219.721Z" fill="#242424"/>
<g opacity="0.2">
<path d="M204.062 266.888C202.876 267.336 201.604 267.581 200.289 267.571C193.46 267.549 187.935 260.985 187.956 252.894C187.977 245.85 192.188 239.969 197.788 238.592C201.828 246.704 204.265 256.95 204.062 266.888Z" fill="#242424"/>
</g>
<path d="M200.311 269.62C200.3 269.62 200.29 269.62 200.279 269.62C192.327 269.599 185.883 262.095 185.904 252.884C185.926 245.071 190.714 238.219 197.297 236.596C198.227 236.361 199.199 236.81 199.627 237.674C203.955 246.363 206.317 257.025 206.103 266.931C206.082 267.763 205.558 268.51 204.778 268.798C203.357 269.353 201.85 269.62 200.311 269.62ZM196.72 241.122C192.766 242.936 190.019 247.611 190.008 252.895C189.987 259.843 194.604 265.511 200.29 265.522C200.877 265.522 201.454 265.468 202.01 265.351C201.957 257.143 200.065 248.476 196.72 241.122Z" fill="#242424"/>
<path d="M200.311 269.62C200.3 269.62 200.29 269.62 200.279 269.62C192.327 269.599 185.883 262.095 185.904 252.884C185.926 245.071 190.714 238.219 197.297 236.596C198.227 236.361 199.199 236.81 199.627 237.674C203.955 246.363 206.317 257.025 206.103 266.931C206.082 267.763 205.558 268.51 204.778 268.798C203.357 269.353 201.85 269.62 200.311 269.62ZM196.72 241.122C192.766 242.936 190.019 247.611 190.008 252.895C189.987 259.843 194.604 265.511 200.29 265.522C200.877 265.522 201.454 265.468 202.01 265.351C201.957 257.143 200.065 248.476 196.72 241.122Z" fill="#242424"/>
<path d="M318.641 290.348C317.733 290.348 316.835 290.316 315.916 290.263C308.125 289.782 301.285 287.146 296.636 282.855C290.63 277.294 286.611 268.905 285.906 260.387C285.254 252.638 286.953 240.662 298.699 227.651C319.315 204.831 348.577 210.52 354.626 215.387C357.116 217.383 359.831 222.912 361.562 229.498C361.573 229.541 361.583 229.573 361.594 229.615C363.475 236.852 366.585 255.435 354.861 271.531C346.172 283.442 332.792 290.348 318.641 290.348ZM299.426 279.845C303.326 283.442 309.429 285.748 316.173 286.175C329.917 287.029 343.126 280.657 351.526 269.118C362.16 254.517 359.371 237.503 357.64 230.757C357.629 230.715 357.618 230.683 357.608 230.64C355.791 223.649 353.236 219.539 352.05 218.589C350.148 217.063 342.506 214.501 332.642 215.195C324.284 215.782 312.144 218.899 301.755 230.405C281.663 252.638 291.442 272.47 299.426 279.845Z" fill="#242424"/>
<path d="M298.025 281.351C302.322 285.321 308.788 287.765 316.044 288.214C304 267.731 314.003 233.543 328.912 225.143C345.018 216.071 359.253 229.797 359.595 230.117C357.853 223.403 355.203 218.472 353.332 216.978C348.395 213.007 320.394 206.678 300.227 229.018C280.06 251.358 288.385 272.438 298.025 281.351Z" fill="#5C546C"/>
<g opacity="0.6">
<path d="M359.595 230.149C359.552 230.106 359.242 229.807 358.697 229.348C357.201 225.538 355.523 222.827 354.23 221.791C349.292 217.821 321.292 211.502 301.124 233.831C290.704 245.359 287.894 256.566 288.93 265.927C286.237 255.734 287.968 242.626 300.227 229.05C320.404 206.71 348.405 213.05 353.343 217.01C355.203 218.504 357.853 223.446 359.595 230.149Z" fill="white"/>
</g>
<path d="M316.044 290.082C316.002 290.082 315.97 290.082 315.927 290.082C308.179 289.601 301.371 286.986 296.754 282.728C290.78 277.199 286.782 268.841 286.077 260.377C285.436 252.66 287.124 240.738 298.827 227.769C319.358 205.045 348.481 210.691 354.498 215.527C356.934 217.48 359.713 223.158 361.402 229.648C361.615 230.459 361.252 231.313 360.525 231.729C359.799 232.145 358.879 232.039 358.281 231.452C357.736 230.918 344.633 218.43 329.831 226.766C323.494 230.342 317.68 239.467 314.687 250.6C311.032 264.166 312.144 277.871 317.658 287.253C318.011 287.851 318 288.588 317.637 289.175C317.295 289.751 316.696 290.082 316.044 290.082ZM299.297 279.985C302.557 282.995 307.356 285.108 312.774 285.983C308.211 275.993 307.548 262.715 311.075 249.65C314.377 237.397 320.704 227.641 328.004 223.532C339.525 217.042 350.084 221.322 355.994 225.047C354.53 221.354 353.012 219.124 352.168 218.451C347.433 214.641 320.565 209.304 301.616 230.278C281.439 252.628 291.282 272.566 299.297 279.985Z" fill="#242424"/>
<path d="M310.701 267.176C311.887 267.635 313.159 267.88 314.473 267.88C321.303 267.902 326.86 261.359 326.881 253.268C326.903 246.224 322.713 240.321 317.124 238.912C313.041 246.992 310.551 257.228 310.701 267.176Z" fill="#FBA3CB"/>
<g opacity="0.2">
<path d="M310.701 267.176C311.887 267.635 313.159 267.88 314.473 267.88C321.303 267.902 326.86 261.359 326.881 253.268C326.903 246.224 322.713 240.321 317.124 238.912C313.041 246.992 310.551 257.228 310.701 267.176Z" fill="#242424"/>
</g>
<path d="M314.495 269.93C314.484 269.93 314.474 269.93 314.463 269.93C312.913 269.93 311.396 269.642 309.964 269.087C309.184 268.788 308.671 268.041 308.649 267.208C308.5 257.303 310.915 246.662 315.286 237.995C315.713 237.141 316.686 236.692 317.627 236.927C324.199 238.592 328.955 245.466 328.934 253.279C328.923 257.677 327.448 261.818 324.798 264.946C322.062 268.158 318.407 269.93 314.495 269.93ZM312.753 265.65C313.32 265.767 313.897 265.831 314.474 265.831C317.188 265.831 319.711 264.583 321.666 262.288C323.697 259.897 324.819 256.684 324.83 253.258C324.84 247.964 322.126 243.278 318.172 241.442C314.784 248.786 312.849 257.431 312.753 265.65Z" fill="#242424"/>
<path d="M333.133 314.055C333.016 356.717 282.924 361.072 259.38 361.253C258.578 361.253 257.809 361.264 257.071 361.253C237.353 361.2 193.481 358.532 183.371 327.77C181.992 323.597 181.244 318.911 181.255 313.649C181.394 262.693 222.156 226.339 257.424 226.435C292.927 226.531 333.272 263.099 333.133 314.055Z" fill="#74698B"/>
<g opacity="0.6">
<path d="M332.973 312.486C329.542 265.298 291.335 232.124 257.531 232.028C222.284 231.932 181.576 268.212 181.351 319.093C181.191 317.46 181.105 315.773 181.116 314.012C181.255 263.056 222.017 226.713 257.285 226.798C292.329 226.894 332.107 262.533 332.973 312.486Z" fill="white"/>
</g>
<path d="M321.11 301.812C307.249 294.714 289.262 311.13 259.551 297.158H258.931C229.146 310.97 207.151 294.447 193.247 301.47C179.343 308.483 183.35 327.802 183.35 327.802C193.183 357.752 237.877 360.367 257.04 360.41C257.692 360.41 258.365 360.41 259.06 360.41C259.754 360.421 260.438 360.421 261.08 360.421C280.242 360.474 320.854 358.094 330.847 328.197C330.868 328.186 334.983 308.899 321.11 301.812Z" fill="#C7C3D1"/>
<path d="M257.587 300.041C256.187 302.432 254.306 304.577 252.136 306.392C249.956 308.206 247.455 309.669 244.826 310.789C239.536 313.02 233.775 313.853 228.143 313.863C222.361 313.821 216.74 312.476 211.546 310.266C208.959 309.146 206.459 307.779 204.182 306.104C203.626 305.655 203.06 305.239 202.526 304.78L201.745 304.065L201.361 303.702L200.997 303.307C200.014 302.304 199.18 301.13 198.571 299.892C200.516 301.856 202.836 303.211 205.23 304.385C207.634 305.538 210.135 306.477 212.668 307.246C217.744 308.772 222.981 309.733 228.143 309.775C233.433 309.765 238.702 309.274 243.725 307.779C248.748 306.296 253.451 303.734 257.587 300.041Z" fill="#A6A3AE"/>
<path d="M317.786 300.041C316.386 302.432 314.505 304.577 312.336 306.392C310.155 308.206 307.654 309.669 305.025 310.789C299.735 313.02 293.975 313.853 288.342 313.863C282.561 313.821 276.939 312.476 271.745 310.266C269.159 309.146 266.658 307.779 264.381 306.104C263.826 305.655 263.259 305.239 262.725 304.78L261.945 304.065L261.56 303.702L261.197 303.307C260.213 302.304 259.38 301.13 258.771 299.892C260.716 301.856 263.035 303.211 265.429 304.385C267.833 305.538 270.334 306.477 272.867 307.246C277.944 308.772 283.18 309.733 288.342 309.775C293.633 309.765 298.902 309.274 303.925 307.779C308.948 306.296 313.65 303.734 317.786 300.041Z" fill="#A6A3AE"/>
<g opacity="0.2">
<path d="M332.492 314.375C332.375 357.038 282.283 361.392 258.739 361.584C257.937 361.584 257.168 361.584 256.431 361.584C236.712 361.531 192.851 358.863 182.73 328.101C181.352 323.928 180.604 319.242 180.614 313.98C180.625 310.554 180.817 307.181 181.181 303.894C181.491 307.202 182.143 310.266 183.072 313.094C193.183 343.856 237.054 346.524 256.773 346.577C257.51 346.577 258.279 346.577 259.081 346.577C281.129 346.396 326.465 342.575 332.215 307.042C332.407 309.433 332.492 311.888 332.492 314.375Z" fill="#242424"/>
</g>
<path d="M257.552 363.314C257.392 363.314 257.221 363.314 257.061 363.314C215.038 363.196 188.886 351.135 181.416 328.422C179.93 323.917 179.193 318.943 179.203 313.649C179.267 289.57 188.309 266.781 204.671 249.501C219.559 233.779 239.213 224.396 257.296 224.396C257.339 224.396 257.392 224.396 257.435 224.396C275.625 224.45 295.332 233.939 310.134 249.789C326.347 267.134 335.239 289.965 335.175 314.076C335.121 333.47 325.246 347.41 305.827 355.49C293.708 360.539 278.083 363.175 259.391 363.324C258.76 363.314 258.151 363.314 257.552 363.314ZM257.296 228.484C222.455 228.484 183.446 264.85 183.318 313.649C183.307 318.506 183.98 323.042 185.327 327.13C193.995 353.505 229.135 359.13 257.082 359.204C257.819 359.204 258.578 359.204 259.38 359.204C277.527 359.055 292.628 356.536 304.256 351.69C322.008 344.304 331.039 331.634 331.081 314.044L333.133 314.055L331.081 314.044C331.145 290.989 322.638 269.151 307.142 252.564C293.088 237.525 274.502 228.527 257.424 228.474C257.381 228.484 257.339 228.484 257.296 228.484Z" fill="#242424"/>
<path d="M154.006 278.48C159.467 278.127 164.95 278.458 170.379 279.131C175.819 279.803 181.216 280.881 186.495 282.386C187.821 282.76 189.125 283.176 190.439 283.592C191.732 284.051 193.047 284.468 194.319 284.98C196.894 285.951 199.416 287.04 201.875 288.289C206.801 290.722 211.472 293.722 215.554 297.34C213.171 295.995 210.831 294.639 208.405 293.455C207.806 293.135 207.186 292.868 206.588 292.569C205.979 292.281 205.38 291.982 204.749 291.715C204.13 291.448 203.52 291.171 202.911 290.893L201.052 290.114C200.432 289.847 199.812 289.602 199.181 289.367C198.551 289.121 197.931 288.865 197.3 288.63C196.039 288.171 194.778 287.691 193.506 287.275C190.963 286.399 188.398 285.588 185.811 284.862C180.639 283.379 175.381 282.173 170.08 281.105C164.757 280.07 159.414 279.184 154.006 278.48Z" fill="#242424"/>
<path d="M150.575 300.254C155.759 298.514 161.145 297.436 166.574 296.689C172.003 295.941 177.497 295.611 182.99 295.707C184.358 295.728 185.737 295.792 187.105 295.856C188.473 295.963 189.851 296.038 191.209 296.198C193.945 296.475 196.67 296.891 199.352 297.457C204.739 298.546 210.018 300.243 214.902 302.698C212.252 302.004 209.644 301.3 206.994 300.777C206.342 300.617 205.669 300.52 205.006 300.382C204.343 300.264 203.681 300.126 203.018 300.029C202.355 299.933 201.693 299.816 201.03 299.699L199.032 299.421C198.369 299.325 197.696 299.25 197.033 299.176C196.36 299.101 195.697 299.015 195.024 298.951C193.688 298.834 192.352 298.685 191.005 298.61C188.323 298.418 185.64 298.29 182.947 298.247C177.571 298.14 172.174 298.311 166.788 298.653C161.38 299.037 155.983 299.549 150.575 300.254Z" fill="#242424"/>
<path d="M153.418 324.045C157.96 321.003 162.887 318.558 167.921 316.413C172.965 314.278 178.17 312.506 183.503 311.172C184.828 310.831 186.175 310.543 187.521 310.244C188.868 309.987 190.215 309.699 191.572 309.496C194.286 309.048 197.022 308.728 199.769 308.579C205.252 308.226 210.798 308.482 216.153 309.571C213.417 309.593 210.713 309.593 208.009 309.785C207.336 309.806 206.662 309.881 205.989 309.923C205.316 309.977 204.642 310.02 203.98 310.105C203.307 310.18 202.644 310.244 201.971 310.308L199.951 310.575C199.288 310.649 198.615 310.756 197.952 310.863C197.29 310.969 196.616 311.055 195.964 311.172C194.639 311.407 193.314 311.621 191.999 311.898C189.36 312.41 186.73 312.997 184.123 313.659C178.897 314.961 173.745 316.552 168.626 318.281C163.518 320.042 158.452 321.953 153.418 324.045Z" fill="#242424"/>
<path d="M358.177 279.878C352.77 280.582 347.426 281.468 342.114 282.493C336.813 283.549 331.555 284.755 326.383 286.25C323.796 286.975 321.231 287.787 318.688 288.662C317.405 289.078 316.155 289.569 314.894 290.017C314.263 290.252 313.643 290.508 313.013 290.754C312.382 290.989 311.752 291.234 311.142 291.501L309.283 292.28C308.674 292.558 308.064 292.846 307.445 293.102C306.825 293.358 306.216 293.668 305.606 293.956C304.997 294.255 304.377 294.522 303.789 294.842C301.353 296.027 299.012 297.372 296.64 298.727C300.733 295.109 305.393 292.109 310.319 289.676C312.778 288.438 315.3 287.338 317.875 286.367C319.158 285.865 320.462 285.438 321.755 284.979C323.069 284.563 324.373 284.147 325.699 283.773C330.978 282.268 336.375 281.19 341.815 280.518C347.223 279.867 352.716 279.525 358.177 279.878Z" fill="#242424"/>
<path d="M361.597 301.663C356.189 300.958 350.792 300.446 345.405 300.083C340.008 299.752 334.622 299.571 329.246 299.678C326.553 299.72 323.87 299.838 321.188 300.041C319.841 300.115 318.505 300.265 317.169 300.382C316.496 300.446 315.834 300.542 315.16 300.606C314.487 300.67 313.824 300.756 313.162 300.852L311.163 301.129C310.501 301.236 309.838 301.353 309.165 301.46C308.491 301.556 307.839 301.695 307.177 301.812C306.514 301.94 305.852 302.047 305.189 302.207C302.538 302.73 299.92 303.435 297.28 304.129C302.164 301.674 307.444 299.976 312.83 298.888C315.524 298.322 318.249 297.906 320.974 297.628C322.342 297.468 323.71 297.393 325.078 297.287C326.446 297.223 327.825 297.148 329.193 297.137C334.686 297.031 340.179 297.372 345.609 298.119C351.027 298.845 356.413 299.923 361.597 301.663Z" fill="#242424"/>
<path d="M358.765 325.454C353.732 323.362 348.655 321.451 343.557 319.679C338.438 317.95 333.287 316.36 328.06 315.058C325.453 314.385 322.824 313.809 320.195 313.297C318.88 313.019 317.555 312.816 316.23 312.571C315.567 312.453 314.904 312.368 314.242 312.261C313.579 312.154 312.916 312.048 312.243 311.973L310.245 311.717C309.571 311.653 308.909 311.589 308.235 311.514C307.562 311.429 306.889 311.386 306.226 311.333C305.553 311.29 304.88 311.215 304.206 311.194C301.502 311.002 298.798 311.002 296.062 310.98C301.417 309.892 306.964 309.636 312.446 309.988C315.193 310.137 317.929 310.457 320.643 310.906C322.001 311.108 323.347 311.397 324.694 311.653C326.041 311.952 327.376 312.24 328.712 312.581C334.035 313.916 339.25 315.687 344.295 317.822C349.296 319.968 354.212 322.412 358.765 325.454Z" fill="#242424"/>
<path d="M226.542 272.118C224.393 271.851 222.427 272.662 220.877 274.242C218.889 276.259 217.618 279.514 217.575 283.346C217.532 288.288 219.573 292.814 222.566 295.162C223.699 296.058 224.971 296.635 226.306 296.795C231.201 297.403 235.209 292.376 235.273 285.566C235.348 278.746 231.436 272.726 226.542 272.118Z" fill="white"/>
<path d="M227.129 297.222C226.841 297.222 226.563 297.201 226.274 297.169C224.885 296.998 223.571 296.422 222.341 295.45C219.178 292.974 217.158 288.214 217.201 283.336C217.233 279.547 218.473 276.131 220.61 273.975C222.288 272.267 224.415 271.467 226.595 271.744C231.661 272.385 235.733 278.586 235.669 285.577C235.637 289.633 234.172 293.316 231.778 295.408C230.389 296.603 228.797 297.222 227.129 297.222ZM225.729 272.438C224.051 272.438 222.47 273.143 221.144 274.498C219.146 276.526 217.981 279.75 217.949 283.347C217.906 288 219.809 292.526 222.801 294.863C223.913 295.739 225.11 296.272 226.36 296.422C228.123 296.646 229.823 296.091 231.265 294.831C233.51 292.867 234.867 289.409 234.899 285.556C234.963 278.938 231.191 273.068 226.488 272.481C226.242 272.46 225.986 272.438 225.729 272.438Z" fill="#242424"/>
<path d="M226.541 272.118C224.393 271.851 222.426 272.662 220.877 274.242C220.663 274.658 220.471 275.085 220.3 275.544C219.926 276.568 219.755 278.041 220.481 278.789C221.112 279.429 221.946 279.066 222.704 279.162C223.955 279.312 225.077 280.998 225.024 282.663C224.981 284.317 223.773 285.63 222.523 285.385C221.657 285.214 220.706 284.424 219.99 284.99C219.455 285.406 219.349 286.377 219.391 287.221C219.52 290.124 220.738 292.942 222.416 294.97C222.469 295.034 222.523 295.098 222.576 295.162C223.709 296.058 224.981 296.635 226.317 296.795C231.212 297.403 235.219 292.376 235.283 285.566C235.348 278.746 231.436 272.726 226.541 272.118Z" fill="#1852FF"/>
<path d="M229.506 296.349C233.47 296.013 236.274 290.913 235.769 284.957C235.263 279.001 231.64 274.445 227.676 274.78C223.712 275.116 220.909 280.216 221.414 286.172C221.919 292.128 225.542 296.684 229.506 296.349Z" fill="#242424"/>
<path d="M222.801 278.81C222.042 278.714 221.197 279.077 220.578 278.437C219.851 277.689 220.022 276.216 220.396 275.192C220.567 274.733 220.759 274.295 220.973 273.89C218.985 275.907 217.713 279.162 217.671 282.994C217.628 287.936 219.669 292.462 222.662 294.81C222.608 294.746 222.555 294.682 222.501 294.618C220.834 292.59 219.605 289.772 219.477 286.869C219.445 286.015 219.552 285.054 220.075 284.638C220.791 284.072 221.742 284.862 222.608 285.033C223.859 285.278 225.066 283.966 225.109 282.311C225.173 280.646 224.051 278.96 222.801 278.81Z" fill="white"/>
<path d="M225.75 272.065C226.018 272.065 226.285 272.086 226.552 272.118C231.447 272.726 235.358 278.757 235.294 285.567C235.241 292.003 231.65 296.849 227.129 296.849C226.862 296.849 226.595 296.827 226.327 296.795C224.981 296.625 223.72 296.048 222.587 295.162C219.594 292.814 217.542 288.288 217.596 283.347C217.628 279.515 218.91 276.259 220.898 274.242C222.234 272.865 223.912 272.065 225.75 272.065ZM225.75 269.652C223.292 269.652 221.016 270.656 219.156 272.556C216.666 275.085 215.213 279.013 215.17 283.325C215.116 288.897 217.393 294.159 221.091 297.062C222.608 298.258 224.265 298.973 226.028 299.197C226.392 299.24 226.766 299.272 227.129 299.272C233.093 299.272 237.635 293.39 237.71 285.599C237.784 277.476 233.018 270.506 226.851 269.727C226.477 269.674 226.114 269.652 225.75 269.652Z" fill="#242424"/>
<path d="M288.923 272.118C291.071 271.851 293.038 272.662 294.587 274.242C296.575 276.259 297.847 279.514 297.89 283.346C297.933 288.288 295.891 292.814 292.899 295.162C291.766 296.058 290.494 296.635 289.158 296.795C284.263 297.403 280.256 292.376 280.191 285.566C280.117 278.746 284.039 272.726 288.923 272.118Z" fill="white"/>
<path d="M288.335 297.222C286.668 297.222 285.075 296.603 283.697 295.397C281.292 293.294 279.838 289.622 279.806 285.566C279.742 278.575 283.814 272.374 288.88 271.733C291.06 271.467 293.187 272.256 294.865 273.975C296.992 276.142 298.242 279.547 298.274 283.336C298.317 288.213 296.297 292.974 293.134 295.45C291.915 296.411 290.59 296.987 289.201 297.169C288.912 297.211 288.623 297.222 288.335 297.222ZM288.976 272.491C284.274 273.078 280.501 278.949 280.565 285.566C280.597 289.409 281.955 292.878 284.199 294.842C285.642 296.101 287.341 296.656 289.104 296.432C290.355 296.272 291.552 295.749 292.663 294.874C295.656 292.536 297.558 288.011 297.515 283.357C297.483 279.76 296.318 276.537 294.32 274.509C292.792 272.94 290.943 272.246 288.976 272.491Z" fill="#242424"/>
<path d="M288.923 272.118C291.071 271.851 293.037 272.662 294.587 274.242C294.801 274.658 294.993 275.085 295.164 275.544C295.538 276.568 295.709 278.041 294.982 278.789C294.352 279.429 293.518 279.066 292.759 279.162C291.509 279.312 290.387 280.998 290.44 282.663C290.483 284.317 291.691 285.63 292.941 285.385C293.807 285.214 294.758 284.424 295.474 284.99C296.008 285.406 296.115 286.377 296.073 287.221C295.944 290.124 294.726 292.942 293.048 294.97C292.995 295.034 292.941 295.098 292.888 295.162C291.755 296.058 290.483 296.635 289.147 296.795C284.252 297.403 280.245 292.376 280.18 285.566C280.116 278.746 284.039 272.726 288.923 272.118Z" fill="#1852FF"/>
<path d="M294.056 286.173C294.561 280.217 291.757 275.117 287.793 274.781C283.829 274.446 280.206 279.002 279.701 284.958C279.196 290.914 282 296.014 285.963 296.35C289.927 296.685 293.55 292.129 294.056 286.173Z" fill="#242424"/>
<path d="M292.674 278.81C293.433 278.714 294.277 279.077 294.897 278.437C295.624 277.689 295.453 276.216 295.079 275.192C294.908 274.733 294.716 274.295 294.502 273.89C296.49 275.907 297.762 279.162 297.804 282.994C297.847 287.936 295.806 292.462 292.813 294.81C292.867 294.746 292.92 294.682 292.974 294.618C294.641 292.59 295.87 289.772 295.998 286.869C296.03 286.015 295.923 285.054 295.4 284.638C294.684 284.072 293.732 284.862 292.867 285.033C291.616 285.278 290.409 283.966 290.366 282.311C290.302 280.646 291.424 278.96 292.674 278.81Z" fill="white"/>
<path d="M289.725 272.065C291.563 272.065 293.241 272.865 294.587 274.242C296.575 276.259 297.847 279.515 297.89 283.347C297.933 288.288 295.891 292.814 292.899 295.162C291.766 296.059 290.494 296.635 289.158 296.795C288.891 296.827 288.624 296.849 288.357 296.849C283.836 296.849 280.256 292.003 280.192 285.567C280.127 278.746 284.039 272.726 288.934 272.118C289.19 272.086 289.457 272.065 289.725 272.065ZM289.725 269.652C289.361 269.652 288.987 269.674 288.624 269.716C282.457 270.485 277.691 277.455 277.766 285.588C277.84 293.38 282.382 299.261 288.346 299.261C288.709 299.261 289.083 299.24 289.447 299.186C291.21 298.962 292.867 298.247 294.384 297.052C298.082 294.159 300.348 288.897 300.294 283.325C300.252 279.013 298.798 275.085 296.297 272.556C294.459 270.656 292.183 269.652 289.725 269.652Z" fill="#242424"/>
<path d="M248.767 249.733C248.245 249.901 247.821 250.019 247.348 250.137C246.884 250.256 246.421 250.354 245.958 250.433C245.022 250.601 244.076 250.719 243.12 250.768C241.208 250.877 239.207 250.748 237.236 250.078C235.284 249.428 233.363 248.117 232.17 246.313C231.845 245.88 231.618 245.397 231.372 244.934C231.175 244.451 230.948 243.978 230.82 243.485C230.495 242.509 230.347 241.524 230.228 240.548C230.021 238.626 230.189 236.635 230.682 234.733C230.958 233.787 231.303 232.86 231.746 231.983C232.209 231.116 232.751 230.298 233.353 229.539C234.585 228.031 236.093 226.829 237.699 225.893C239.335 224.976 241.04 224.286 242.883 223.951C243.129 223.902 243.376 224.069 243.415 224.325C243.455 224.532 243.346 224.73 243.169 224.818L243.129 224.828C240.084 226.385 237.315 228.534 235.531 231.175C234.624 232.496 234.003 233.954 233.658 235.472C233.343 237 233.313 238.596 233.53 240.173C233.648 240.952 233.796 241.721 234.052 242.411C234.161 242.775 234.338 243.081 234.476 243.416C234.663 243.721 234.811 244.037 235.028 244.313C235.817 245.456 236.989 246.215 238.369 246.678C241.149 247.585 244.677 247.269 247.712 246.481L247.801 246.461C248.718 246.225 249.644 246.767 249.881 247.683C250.107 248.561 249.614 249.457 248.767 249.733Z" fill="#242424"/>
<path d="M247.062 253.833C246.825 254.128 246.658 254.316 246.451 254.533C246.253 254.749 246.046 254.947 245.83 255.144C245.416 255.538 244.972 255.912 244.519 256.257C243.612 256.967 242.617 257.558 241.572 258.061C239.483 259.056 237.038 259.529 234.713 259.194C233.55 259.027 232.426 258.711 231.391 258.258C230.366 257.775 229.381 257.223 228.523 256.533C226.769 255.203 225.35 253.557 224.167 251.793C224.078 251.655 224.118 251.477 224.246 251.389C224.354 251.31 224.502 251.329 224.601 251.418C226.158 252.788 227.784 254.05 229.528 254.986L230.179 255.331L230.849 255.627C231.066 255.735 231.293 255.824 231.519 255.903C231.746 255.981 231.973 256.07 232.199 256.139C233.106 256.415 234.032 256.573 234.939 256.602C236.772 256.671 238.546 256.169 240.163 255.282C240.971 254.838 241.72 254.286 242.449 253.685C242.804 253.389 243.159 253.074 243.484 252.739C243.652 252.571 243.809 252.404 243.957 252.236C244.105 252.079 244.282 251.872 244.371 251.763L244.391 251.734C244.972 250.985 246.046 250.856 246.786 251.428C247.525 252 247.663 253.084 247.091 253.823C247.071 253.813 247.062 253.823 247.062 253.833Z" fill="#242424"/>
<path d="M247.738 294.575C246.765 296.774 250.827 304.352 256.523 304.363C262.219 304.373 266.216 296.603 265.212 294.618C263.951 292.152 248.956 291.832 247.738 294.575Z" fill="#242424"/>
<path d="M260.146 294.938C260.146 295.248 258.511 295.493 256.48 295.493C254.46 295.493 252.814 295.248 252.814 294.938C252.814 294.629 254.45 294.383 256.48 294.383C258.5 294.372 260.146 294.629 260.146 294.938Z" fill="white"/>
<path d="M251.596 324.492C251.52 324.363 251.455 324.191 251.39 324.008C249.973 324.783 247.226 326.754 247.637 330.243C247.918 332.602 250.352 335.047 253.434 336.048C256.592 337.082 259.61 336.382 261.697 334.142C263.557 332.15 264.228 330.082 263.622 328.176C263.092 326.485 261.665 325.16 260.248 324.449C260.14 325.031 260.042 325.419 259.999 325.494C259.848 325.72 259.739 325.882 258.182 325.882C257.933 325.882 257.663 325.882 257.338 325.871C254.029 325.785 252.093 325.322 251.596 324.492Z" fill="white"/>
<path d="M260.464 308.382C259.988 308.619 256.246 310.331 252.904 308.608C251.087 307.671 247.247 305.7 243.04 305.7C239.579 305.7 235.87 307.046 232.841 311.408C229.456 316.287 229.272 323.815 232.387 330.136C233.966 333.346 237.416 338.214 244.457 340.82C243.646 340.174 242.921 339.441 242.305 338.623C239.979 335.521 239.385 331.493 240.639 327.272C241.742 323.556 244.533 318.731 251.617 316.825C251.703 316.804 251.779 316.782 251.822 316.771C251.995 316.664 252.201 316.577 252.439 316.491C254.321 315.824 259.404 315.501 260.388 316.631C260.529 316.793 260.637 317.073 260.702 317.428C262.54 317.816 269.332 319.722 271.041 327.196C272.047 331.601 271.192 335.92 268.683 339.043C268.186 339.657 267.558 340.314 266.791 340.938C271.831 339.269 276.016 336.426 278.904 332.538C282.754 327.369 283.749 321.101 281.629 315.371C277.108 303.094 261.578 308.016 260.464 308.382Z" fill="white"/>
<path d="M259.22 322.716C259.48 320.691 259.707 317.988 259.393 317.46C259.069 317.223 256.884 317.029 254.623 317.331C253.358 317.503 252.731 317.74 252.482 317.891C252.46 317.902 252.439 317.923 252.417 317.934C252.396 317.945 252.385 317.956 252.374 317.966C252.309 319.377 252.309 321.305 252.45 322.597C252.504 322.651 252.547 322.716 252.569 322.78C252.633 322.953 252.623 323.136 252.547 323.287C252.601 323.523 252.655 323.717 252.72 323.836C253.228 324.428 257.522 324.676 258.939 324.579C258.971 324.428 259.004 324.223 259.036 324.008C259.015 324.008 258.993 323.997 258.971 323.987C258.625 323.911 258.398 323.567 258.474 323.211C258.549 322.867 258.885 322.651 259.22 322.716Z" fill="#50468F"/>
<path d="M267.678 338.224C269.927 335.413 270.695 331.493 269.776 327.466C268.316 321.068 262.843 319.227 260.821 318.764C260.842 320.099 260.669 321.768 260.475 323.115C262.313 323.912 264.184 325.581 264.877 327.789C265.396 329.447 265.439 332.053 262.659 335.026C260.951 336.857 258.712 337.815 256.278 337.815C255.229 337.815 254.148 337.643 253.045 337.277C249.454 336.103 246.707 333.281 246.361 330.395C245.831 325.861 249.67 323.438 251.163 322.684C251 321.208 251.022 319.345 251.065 318.365C245.247 320.271 242.867 324.418 241.916 327.638C240.78 331.461 241.299 335.09 243.376 337.847C244.955 339.947 247.334 341.444 250.308 342.263C251.249 342.392 252.223 342.5 253.261 342.554C256.246 342.715 259.101 342.564 261.783 342.134C264.217 341.358 266.218 340.044 267.678 338.224Z" fill="#50468F"/>
<g opacity="0.3">
<path d="M234.42 326.409C232.333 321.854 232.452 313.292 232.452 313.292C232.052 313.55 231.684 313.863 231.36 314.229C229.51 318.914 229.835 324.934 232.398 330.136C233.771 332.925 236.562 336.964 241.883 339.688C242.921 340.022 243.505 339.979 243.505 339.979L243.494 339.968C243.073 339.548 242.672 339.117 242.316 338.644C241.018 336.91 240.261 334.885 240.055 332.699C240.055 332.677 236.519 330.965 234.42 326.409Z" fill="#242424"/>
</g>
<g opacity="0.3">
<path d="M271.355 332.494C271.063 334.939 270.165 337.19 268.694 339.031C268.197 339.645 267.57 340.302 266.802 340.927C271.842 339.258 276.027 336.414 278.915 332.527C282.765 327.357 283.76 321.089 281.64 315.36C281.413 314.735 281.143 314.164 280.862 313.637C282.506 327.422 273.659 331.643 271.355 332.494Z" fill="#242424"/>
</g>
<g opacity="0.3">
<path d="M248.437 331.471C248.437 331.471 251.585 329.026 252.785 329.026C253.986 329.026 258.388 328.962 260.194 328.962C261.654 328.962 263.2 329.78 263.795 330.114C263.871 329.457 263.828 328.811 263.622 328.176C263.092 326.485 261.665 325.16 260.248 324.449C260.14 325.031 260.042 325.419 259.999 325.494C259.848 325.72 259.739 325.882 258.182 325.882C257.933 325.882 257.663 325.882 257.338 325.871C254.018 325.785 252.093 325.322 251.596 324.503C251.52 324.374 251.455 324.202 251.39 324.019C249.973 324.794 247.226 326.765 247.637 330.254C247.648 330.373 247.67 330.48 247.702 330.599C248.048 331.191 248.437 331.471 248.437 331.471Z" fill="#242424"/>
</g>
<path d="M255.63 344.837C254.797 344.837 253.964 344.815 253.12 344.761C238.812 343.975 232.744 335.866 230.397 331.095C226.947 324.094 227.196 315.673 231.025 310.148C236.205 302.663 243.917 301.489 253.932 306.637C256.397 307.908 259.48 306.4 259.501 306.378C259.566 306.346 259.631 306.314 259.707 306.292C266.142 304.095 279.445 303.008 283.717 314.585C286.096 321.036 284.993 328.047 280.689 333.83C275.443 340.895 266.402 344.837 255.63 344.837ZM242.986 306.594C239.688 306.594 236.367 307.94 233.61 311.925C230.462 316.47 230.3 323.793 233.22 329.727C235.264 333.873 240.585 340.938 253.293 341.638C264.087 342.23 273.15 338.709 278.169 331.978C281.824 327.056 282.776 321.111 280.764 315.662C276.611 304.386 262.194 308.769 260.799 309.222C260.042 309.577 256.084 311.268 252.482 309.405C249.746 308.005 246.372 306.594 242.986 306.594Z" fill="#242424"/>
<path d="M258.247 326.485C257.966 326.485 257.652 326.485 257.295 326.474C251.996 326.334 251.358 325.268 251.087 324.805C250.287 323.47 250.395 319.485 250.471 317.816C250.492 317.234 250.828 316.437 252.244 315.931C254.094 315.274 259.577 314.779 260.853 316.243C262.195 317.794 260.853 325.322 260.507 325.839C260.183 326.313 259.826 326.485 258.247 326.485ZM253.196 323.427C254.007 323.836 256.938 324.019 258.42 323.987C258.701 322.36 259.08 319.043 258.896 317.934C257.695 317.6 254.04 317.837 252.947 318.322C252.872 320.519 252.98 322.748 253.196 323.427Z" fill="#242424"/>
<path d="M256.278 338.418C255.164 338.418 254.007 338.235 252.839 337.847C249.032 336.609 246.112 333.572 245.744 330.459C245.182 325.635 249.259 322.716 251.498 321.844L252.417 324.17C252.222 324.245 247.767 326.065 248.242 330.169C248.491 332.301 250.762 334.53 253.628 335.467C255.013 335.92 258.528 336.652 261.253 333.723C262.984 331.87 263.589 330.061 263.049 328.349C262.443 326.421 260.431 324.913 258.831 324.558L259.371 322.113C261.697 322.619 264.519 324.665 265.439 327.595C266.012 329.404 266.055 332.236 263.092 335.424C261.264 337.395 258.885 338.418 256.278 338.418Z" fill="#242424"/>
<path d="M255.933 344.88C249.692 344.88 244.674 342.79 241.829 338.989C239.385 335.736 238.758 331.515 240.067 327.099C241.213 323.244 244.111 318.225 251.466 316.243C251.531 316.222 251.585 316.211 251.628 316.2C252.147 315.985 252.753 316.125 253.11 316.588C253.532 317.137 253.423 317.924 252.883 318.344C252.666 318.516 252.461 318.57 252.126 318.656C245.896 320.336 243.441 324.558 242.478 327.799C241.397 331.439 241.884 334.875 243.841 337.481C246.21 340.626 250.503 342.36 255.933 342.36C260.929 342.36 264.823 340.798 267.202 337.836C269.376 335.133 270.079 331.493 269.192 327.595C267.516 320.261 260.086 319.216 260.01 319.205C259.318 319.119 258.842 318.494 258.928 317.805C259.015 317.116 259.653 316.642 260.334 316.728C260.432 316.739 269.592 318.02 271.647 327.045C272.696 331.633 271.799 336.135 269.171 339.398C267.17 341.907 263.255 344.88 255.933 344.88Z" fill="#242424"/>
<path opacity="0.7" d="M474.486 241.492C474.486 250.391 468.384 258.972 457.097 266.863C445.825 274.743 429.481 281.861 409.24 287.846C368.764 299.814 312.818 307.224 251 307.224C189.182 307.224 133.236 299.814 92.7603 287.846C72.5191 281.861 56.1753 274.743 44.903 266.863C33.6165 258.972 27.5146 250.391 27.5146 241.492C27.5146 232.593 33.6165 224.012 44.903 216.121C56.1753 208.241 72.5191 201.124 92.7603 195.138C133.236 183.17 189.182 175.76 251 175.76C312.818 175.76 368.764 183.17 409.24 195.138C429.481 201.124 445.825 208.241 457.097 216.121C468.384 224.012 474.486 232.593 474.486 241.492Z" stroke="#1852FF"/>
<path opacity="0.7" d="M184 337.272C114.112 345.177 64.4814 365.195 64.4814 388.64C64.4814 419.004 147.724 443.618 250.408 443.618C353.092 443.618 436.334 419.004 436.334 388.64C436.334 366.524 392.172 347.458 328.5 338.732" stroke="#1852FF"/>
<path opacity="0.7" d="M190 469.559C188.48 469.814 186.98 470.079 185.5 470.352M322 471.37C354.099 477.994 375.099 488.995 375.099 501.448C375.099 521.69 319.604 538.1 251.148 538.1C182.692 538.1 127.197 521.69 127.197 501.448C127.197 491.708 140.044 482.856 161 476.292" stroke="#1852FF"/>
<defs>
<filter id="filter0_f_10_5490" x="87.6816" y="525.193" width="337.896" height="130.2" filterUnits="userSpaceOnUse" color-interpolation-filters="sRGB">
<feFlood flood-opacity="0" result="BackgroundImageFix"/>
<feBlend mode="normal" in="SourceGraphic" in2="BackgroundImageFix" result="shape"/>
<feGaussianBlur stdDeviation="18.5" result="effect1_foregroundBlur_10_5490"/>
</filter>
<filter id="filter1_f_10_5490" x="108.551" y="174.654" width="296.156" height="494.893" filterUnits="userSpaceOnUse" color-interpolation-filters="sRGB">
<feFlood flood-opacity="0" result="BackgroundImageFix"/>
<feBlend mode="normal" in="SourceGraphic" in2="BackgroundImageFix" result="shape"/>
<feGaussianBlur stdDeviation="32.5" result="effect1_foregroundBlur_10_5490"/>
</filter>
<filter id="filter2_f_10_5490" x="0.333984" y="0.352539" width="500.406" height="637.429" filterUnits="userSpaceOnUse" color-interpolation-filters="sRGB">
<feFlood flood-opacity="0" result="BackgroundImageFix"/>
<feBlend mode="normal" in="SourceGraphic" in2="BackgroundImageFix" result="shape"/>
<feGaussianBlur stdDeviation="32.5" result="effect1_foregroundBlur_10_5490"/>
</filter>
<linearGradient id="paint0_linear_10_5490" x1="234.857" y1="65.3525" x2="234.857" y2="572.782" gradientUnits="userSpaceOnUse">
<stop stop-color="#1852FF" stop-opacity="0"/>
<stop offset="0.350975" stop-color="#1852FF"/>
<stop offset="1" stop-color="#1852FF"/>
</linearGradient>
</defs>
</svg>
