<svg width="120" height="49" viewBox="0 0 120 49" fill="none" xmlns="http://www.w3.org/2000/svg">
<g clip-path="url(#clip0_304_8611)">
<g opacity="0.35">
<path d="M100.609 44.8092L100.609 47.0065C100.609 47.6506 101.023 48.1431 101.512 48.1431L113.26 48.1431C113.749 48.1431 114.164 47.6506 114.164 47.0065L114.164 45.9836C114.164 45.3775 113.787 44.885 113.335 44.8471L113.26 44.8471L113.9 29.9584L114.051 26.8518C114.126 26.7761 114.239 26.7382 114.314 26.6624C114.615 26.4351 114.917 26.1699 115.18 25.8668C115.256 25.7911 115.293 25.7153 115.368 25.6395C115.481 25.488 115.594 25.2986 115.707 25.147C115.858 24.8818 115.933 24.6166 115.971 24.3514C115.971 24.2757 115.971 24.162 115.971 24.0862C115.971 24.0105 115.971 23.8968 115.971 23.821C115.971 23.7453 115.933 23.6316 115.933 23.5559C115.858 23.3285 115.783 23.1391 115.67 22.9497C115.594 22.836 115.557 22.7603 115.481 22.6466C115.406 22.533 115.293 22.4193 115.218 22.3057C115.067 22.1541 114.954 22.0026 114.804 21.8889C114.578 21.6616 114.314 21.4722 114.088 21.3207L113.938 18.2141L113.222 3.43904L113.298 3.43904C113.749 3.40116 114.126 2.90865 114.126 2.3025L114.126 1.27961C114.126 0.635568 113.712 0.143066 113.222 0.143066L101.475 0.143066C100.985 0.143066 100.571 0.635568 100.571 1.27961L100.571 3.47693C100.571 4.12097 101.023 4.65135 101.55 4.61347L103.922 4.38616L105.729 18.2141L105.918 19.7674L105.767 20.0705C101.663 19.6537 96.2784 19.1233 90.6305 18.4414L90.6305 14.8424C90.6305 14.1983 90.2163 13.6679 89.6139 13.4785L89.6139 10.7129L90.5175 10.7129L93.6427 10.7129C93.718 10.7129 93.7934 10.7129 93.8687 10.7129C95.789 10.5993 97.2951 8.97022 97.2951 7.03809L97.2951 3.85577C97.2951 3.66635 97.2574 3.47693 97.2574 3.2875C96.9939 1.58269 95.6007 0.294605 93.8687 0.18095C93.7934 0.18095 93.718 0.18095 93.6427 0.18095L90.5928 0.18095L83.8153 0.18095L80.9537 0.18095C80.8407 0.18095 80.7278 0.18095 80.6525 0.18095C80.5395 0.18095 80.4642 0.218834 80.3512 0.218834C78.8075 0.484028 77.5649 1.73423 77.339 3.2875C77.3014 3.47692 77.3014 3.66635 77.3014 3.85577L77.3014 7.03809C77.3014 8.89445 78.6192 10.4098 80.3889 10.675C80.5019 10.675 80.5772 10.7129 80.6901 10.7129C80.8031 10.7129 80.916 10.7129 80.9913 10.7129L83.853 10.7129L84.9826 10.7129L80.6148 17.0397C80.0124 16.9639 79.4476 16.8502 78.8451 16.7745C77.9415 15.4106 76.3977 14.5393 74.6656 14.5393L74.6656 16.0547C74.1385 15.941 73.6114 15.8652 73.0842 15.7516C72.8207 15.7137 72.5571 15.6379 72.2935 15.6C70.9757 15.3349 69.6955 15.0318 68.4906 14.7287C68.3776 14.6908 68.227 14.6529 68.114 14.615C68.0764 14.615 68.0387 14.5772 68.0011 14.5772C67.9258 14.5393 67.8505 14.5393 67.7752 14.5014C67.7375 14.5014 67.6998 14.4635 67.6245 14.4635C67.5492 14.4256 67.4739 14.4256 67.4363 14.3877C67.3986 14.3877 67.361 14.3499 67.2857 14.3499C67.2104 14.312 67.1727 14.312 67.0974 14.2741C67.0597 14.2362 67.0221 14.2362 66.9844 14.1983C66.9091 14.1604 66.8715 14.1604 66.8338 14.1225C66.7962 14.0847 66.7585 14.0847 66.7209 14.0468C66.6832 14.0089 66.6079 13.971 66.5703 13.971C66.5326 13.9331 66.495 13.9331 66.4573 13.8952C66.4196 13.8574 66.3443 13.8195 66.3067 13.8195C66.269 13.7816 66.2314 13.7816 66.1937 13.7437C66.1561 13.7058 66.0808 13.6679 66.0431 13.63C66.0055 13.5922 65.9678 13.5922 65.9678 13.5543C65.8925 13.5164 65.8172 13.4406 65.7419 13.4027C65.7042 13.3648 65.7042 13.3648 65.6666 13.327C65.6289 13.2891 65.5913 13.2512 65.516 13.2133C65.4783 13.1754 65.4407 13.1375 65.4407 13.1375C65.403 13.0997 65.3654 13.0618 65.3277 13.0239C65.2901 12.986 65.2524 12.9481 65.2524 12.9102C65.2148 12.8723 65.1771 12.8345 65.1771 12.8345C65.1394 12.7966 65.1018 12.7587 65.1018 12.7208C65.0641 12.6829 65.0641 12.645 65.0265 12.645C64.9888 12.6072 64.9512 12.5693 64.9512 12.5314C64.9135 12.4935 64.9135 12.4935 64.8759 12.4556C64.8382 12.4177 64.8006 12.3798 64.8006 12.342C64.7629 12.3041 64.7629 12.3041 64.7253 12.2662C64.6876 12.2283 64.65 12.1904 64.65 12.1525C64.65 12.1147 64.6123 12.1147 64.6123 12.0768C64.5746 12.0389 64.537 11.9631 64.4993 11.9252C63.7463 10.7887 63.3698 9.53849 62.579 8.5156C61.5624 7.18963 59.9057 6.24251 56.0651 6.5077L56.0651 6.46982L55.3497 6.09097C54.7472 5.75001 54.1448 5.48482 53.5423 5.21962C52.0739 4.61347 50.4924 4.2725 48.911 4.15885C48.6851 3.62846 48.1203 3.2875 47.4802 3.40115L45.2587 3.85577C44.9951 3.89366 44.7692 4.00731 44.5433 4.08308L26.0933 4.08308L26.0933 2.795C26.0933 1.92365 25.4156 1.24172 24.5496 1.24172C24.4742 1.24172 24.3989 1.27961 24.3236 1.31749C23.7965 0.976527 23.194 0.787103 22.5539 0.749219C22.4786 0.749219 22.4033 0.749219 22.2904 0.749219L19.1652 0.749218L12.1617 0.749218L9.18715 0.749218C9.0742 0.749218 8.96123 0.749218 8.84827 0.749218C8.73531 0.749218 8.66 0.787103 8.54705 0.787103C6.73971 1.09018 5.3842 2.64346 5.3842 4.57558L5.3842 7.87155C5.3842 7.90944 5.3842 7.98521 5.3842 8.02309C5.3842 8.17463 5.42185 8.32617 5.42185 8.47771C5.45951 8.7429 5.5348 9.0081 5.64777 9.27329C6.02429 10.2583 6.81501 11.0539 7.75633 11.4327L0.414001 12.0768C0.225738 12.0768 0.0751337 12.2283 0.0751337 12.4177C0.0751337 12.6072 0.225738 12.7587 0.414001 12.7587L3.61451 12.7587L4.36757 23.7453C4.40522 24.1241 4.40522 24.5409 4.36757 24.9197L3.61451 35.9063L0.414 35.9063C0.225737 35.9063 0.0751327 36.0578 0.0751327 36.2472C0.0751327 36.4367 0.225737 36.5882 0.414 36.5882L6.58909 37.1565C6.1749 37.5353 5.83603 38.0278 5.64776 38.5582C5.5348 38.8234 5.49716 39.0886 5.42185 39.3538C5.3842 39.5053 5.3842 39.6569 5.3842 39.8084C5.3842 39.8463 5.3842 39.9221 5.3842 39.96L5.3842 43.2559C5.3842 45.1502 6.77736 46.7413 8.54705 47.0444C8.66 47.0444 8.7353 47.0823 8.84826 47.0823C8.96123 47.0823 9.07419 47.0823 9.18715 47.0823L12.1617 47.0823L19.1652 47.0823L22.2904 47.0823C22.3657 47.0823 22.441 47.0823 22.5539 47.0823C23.1564 47.0444 23.7212 46.855 24.2107 46.5898C24.286 46.6656 24.4366 46.7413 24.5496 46.7413C25.4156 46.7413 26.0933 46.0594 26.0933 45.1881L26.0933 44.0894L45.8611 44.0894L47.5179 44.4304C47.9697 44.5061 48.3839 44.3546 48.6851 44.0515C50.3795 43.9379 51.9986 43.559 53.58 42.9529C54.1824 42.6877 54.8225 42.4225 55.3873 42.0815L56.1027 41.7027L56.1027 41.6648C62.8803 42.1573 62.8426 38.8992 64.537 36.2473C64.5746 36.2094 64.6123 36.1336 64.65 36.0957C64.65 36.0578 64.6876 36.0578 64.6876 36.0199C64.7253 35.9821 64.7629 35.9442 64.7629 35.9063C64.8006 35.8684 64.8006 35.8684 64.8382 35.8305C64.8759 35.7926 64.9135 35.7547 64.9135 35.7169C64.9512 35.679 64.9512 35.679 64.9888 35.6411C65.0265 35.6032 65.0641 35.5653 65.0641 35.5274C65.1018 35.4896 65.1018 35.4517 65.1394 35.4517C65.1771 35.4138 65.2148 35.3759 65.2148 35.338C65.2524 35.3001 65.2901 35.2622 65.2901 35.2622C65.3277 35.2244 65.3654 35.1865 65.3654 35.1486C65.403 35.1107 65.4407 35.0728 65.4783 35.0349C65.516 34.9971 65.5536 34.9592 65.5536 34.9592C65.5913 34.9213 65.6289 34.8834 65.7042 34.8455C65.7419 34.8076 65.7419 34.8076 65.7795 34.7697C65.8548 34.7319 65.9302 34.6561 66.0055 34.6182C66.0431 34.5803 66.0808 34.5803 66.0808 34.5424C66.1184 34.5046 66.1937 34.4667 66.2314 34.4288C66.269 34.3909 66.3067 34.3909 66.3443 34.353C66.382 34.3151 66.4573 34.2772 66.4949 34.2772C66.5326 34.2394 66.5703 34.2394 66.6079 34.2015C66.6456 34.1636 66.7209 34.1257 66.7585 34.1257C66.7962 34.0878 66.8338 34.0878 66.8715 34.0499C66.9091 34.012 66.9844 34.012 67.0221 33.9742C67.0597 33.9363 67.0974 33.9363 67.1351 33.8984C67.2104 33.8605 67.248 33.8605 67.3233 33.8226C67.361 33.8226 67.3986 33.7847 67.4739 33.7847C67.5492 33.7469 67.6245 33.7469 67.6622 33.709C67.6998 33.709 67.7375 33.6711 67.8128 33.6711C67.8881 33.6332 67.9634 33.6332 68.0387 33.5953C68.0764 33.5953 68.114 33.5574 68.1517 33.5574C68.2646 33.5195 68.4153 33.4817 68.5282 33.4438C69.7331 33.1407 71.0133 32.8376 72.3312 32.5724C72.5947 32.5345 72.8583 32.4588 73.1219 32.4209C73.649 32.3072 74.1762 32.2315 74.7033 32.1178L74.7033 33.6332C76.4353 33.6332 77.9791 32.7619 78.8828 31.398C79.5605 31.2843 80.2383 31.1707 80.916 31.057L85.3967 37.5353L83.8153 37.5353L80.9537 37.5353C80.8407 37.5353 80.7278 37.5353 80.6525 37.5353C80.5395 37.5353 80.4642 37.5732 80.3512 37.5732C79.2217 37.7626 78.2427 38.4825 77.7155 39.4675C77.5273 39.8463 77.3767 40.2251 77.3014 40.6419C77.2637 40.8313 77.2637 41.0207 77.2637 41.2102L77.2637 44.3925C77.2637 46.2488 78.5815 47.7642 80.3512 48.0294C80.4642 48.0294 80.5395 48.0673 80.6525 48.0673C80.7654 48.0673 80.8784 48.0673 80.9537 48.0673L83.8153 48.0673L90.5928 48.0673L93.6427 48.0673C93.718 48.0673 93.7934 48.0673 93.8687 48.0673C95.789 47.9536 97.2951 46.3246 97.2951 44.3925L97.2951 41.2102C97.2951 41.0207 97.2574 40.8313 97.2574 40.6419C97.1821 40.2252 97.0692 39.8084 96.8432 39.4675C96.2784 38.4067 95.1489 37.649 93.8687 37.5732C93.7934 37.5732 93.718 37.5732 93.6427 37.5732L90.5928 37.5732L89.6892 37.5732L89.6892 34.8076C90.2916 34.6561 90.7058 34.0878 90.7058 33.4438L90.7058 29.6932C96.3161 29.0113 101.663 28.4809 105.767 28.0641L105.955 28.4809L105.88 28.9734L105.767 29.9205L103.922 43.9L101.55 43.6727C101.06 43.5969 100.609 44.1273 100.609 44.8092ZM19.0522 36.0957L15.8517 36.0957C15.8141 35.9821 15.7388 35.9063 15.6258 35.8684L15.6258 34.694L16.7177 32.5345C17.2449 32.6861 17.772 32.7997 18.3368 32.9513L16.8684 36.0578L18.5251 36.0578L19.8053 33.3301C21.0855 33.6711 22.4786 34.012 23.9095 34.3909L23.9095 36.5124C23.3823 36.2472 22.7799 36.0578 22.1398 36.0578L19.0522 36.0578L19.0522 36.0957ZM15.8517 12.3798L15.8517 11.66L19.0146 11.66L22.1398 11.66C22.7799 11.66 23.3823 11.5085 23.9095 11.2054L23.9095 13.7437C22.5163 14.0847 21.1984 14.4256 19.9559 14.7666L18.4874 11.6979L16.8307 11.6979L18.4874 15.1454C17.9226 15.297 17.3578 15.4485 16.8684 15.5622L15.5882 13.0239L15.5882 12.7208C15.7764 12.6829 15.8517 12.5314 15.8517 12.3798ZM85.9992 17.8353C85.8862 17.8353 85.7356 17.7974 85.6227 17.7974L85.9992 16.926L85.9992 17.8353ZM85.8109 30.3372C85.8862 30.3372 85.9615 30.3372 85.9992 30.2993L85.9992 30.8297L85.8109 30.3372ZM84.3425 15.1833L83.3635 17.4943C83.1752 17.4564 82.9869 17.4564 82.8363 17.4185L84.3425 15.1833ZM83.5141 30.6782L84.3425 32.5724L83.0999 30.7161C83.2505 30.7161 83.3635 30.6782 83.5141 30.6782Z" fill="black"/>
</g>
<path d="M30.0093 43.218L30.0093 39.9221C30.0093 37.8005 28.3149 36.0957 26.2063 36.0957L13.1031 36.0957C10.9945 36.0957 9.30015 37.8005 9.30015 39.9221L9.30015 43.218C9.30015 45.3396 10.9945 47.0444 13.1031 47.0444L26.2063 47.0444C28.3149 47.0444 30.0093 45.3017 30.0093 43.218Z" fill="#242424"/>
<path d="M26.2064 36.0955L13.1032 36.0955C12.8772 36.0955 12.689 36.1333 12.4631 36.1333L12.4631 46.9684C12.6513 47.0063 12.8772 47.0063 13.1032 47.0063L26.2064 47.0063C26.2817 47.0063 26.357 47.0063 26.47 47.0063L26.47 36.0955C26.3947 36.0955 26.3194 36.0955 26.2064 36.0955Z" fill="#333333"/>
<path d="M23.0808 36.0955L16.0774 36.0955C15.9644 36.0955 15.8515 36.1333 15.7385 36.1333L15.7385 46.9684C15.8515 47.0063 15.9644 47.0063 16.0774 47.0063L23.0808 47.0063C23.1185 47.0063 23.1561 47.0063 23.2314 47.0063L23.2314 36.0955C23.1561 36.0955 23.1185 36.0955 23.0808 36.0955Z" fill="#3D3D3D"/>
<path d="M9.75183 38.1035C9.67653 38.2551 9.60122 38.4066 9.56357 38.5581L29.7832 38.5581C29.7079 38.4066 29.6702 38.2551 29.5949 38.1035L9.75183 38.1035Z" fill="#0B1114"/>
<path d="M9.33781 39.3164C9.30016 39.4679 9.30015 39.6195 9.30015 39.771L30.0093 39.771C30.0093 39.6195 29.9716 39.4679 29.9716 39.3164L9.33781 39.3164Z" fill="#0B1114"/>
<path d="M9.75183 45.0364C9.67653 44.8849 9.60122 44.7333 9.56357 44.5818L29.7832 44.5818C29.7079 44.7333 29.6702 44.8849 29.5949 45.0364L9.75183 45.0364Z" fill="#0B1114"/>
<path d="M9.33781 43.7862C9.30016 43.6346 9.30015 43.4831 9.30015 43.3315L30.0093 43.3315C30.0093 43.4831 29.9716 43.6346 29.9716 43.7862L9.33781 43.7862Z" fill="#0B1114"/>
<path d="M30.0093 4.53779L30.0093 7.83376C30.0093 9.95531 28.3149 11.6601 26.2063 11.6601L13.1031 11.6601C10.9945 11.6601 9.30015 9.95531 9.30015 7.83376L9.30015 4.53779C9.30015 2.41624 10.9945 0.711425 13.1031 0.711425L26.2063 0.711426C28.3149 0.711426 30.0093 2.41624 30.0093 4.53779Z" fill="#242424"/>
<path d="M26.2064 11.6594L13.1032 11.6593C12.8772 11.6593 12.689 11.6215 12.4631 11.6215L12.4631 0.786419C12.6513 0.748535 12.8772 0.748535 13.1032 0.748535L26.2064 0.748535C26.2817 0.748535 26.357 0.748535 26.47 0.748535L26.47 11.6594C26.3947 11.6215 26.3194 11.6594 26.2064 11.6594Z" fill="#333333"/>
<path d="M23.0808 11.6594L16.0774 11.6594C15.9644 11.6594 15.8515 11.6215 15.7385 11.6215L15.7385 0.78642C15.8515 0.748535 15.9644 0.748535 16.0774 0.748535L23.0808 0.748535C23.1185 0.748535 23.1561 0.748535 23.2314 0.748535L23.2314 11.6594C23.1561 11.6215 23.1185 11.6594 23.0808 11.6594Z" fill="#3D3D3D"/>
<path d="M9.75159 9.65213C9.67628 9.50059 9.60098 9.34905 9.56332 9.19751L29.783 9.19751C29.7077 9.34905 29.67 9.50059 29.5947 9.65213L9.75159 9.65213Z" fill="#0B1114"/>
<path d="M9.33756 8.40188C9.29991 8.25034 9.29991 8.0988 9.29991 7.94726L30.009 7.94727C30.009 8.0988 29.9714 8.25034 29.9714 8.40188L9.33756 8.40188Z" fill="#0B1114"/>
<path d="M9.75159 2.71924C9.67628 2.87078 9.60098 3.02232 9.56332 3.17385L29.783 3.17386C29.7077 3.02232 29.67 2.87078 29.5947 2.71924L9.75159 2.71924Z" fill="#0B1114"/>
<path d="M9.33756 3.9314C9.29991 4.08293 9.29991 4.23447 9.29991 4.38601L30.009 4.38601C30.009 4.23447 29.9714 4.08294 29.9714 3.9314L9.33756 3.9314Z" fill="#0B1114"/>
<path d="M19.655 36.9677L19.655 11.6228L17.6971 11.6228L17.6971 36.9677L19.655 36.9677Z" fill="black"/>
<path d="M17.057 31.6258L17.057 16.2824C17.057 15.6005 17.6218 15.0322 18.2996 15.0322L19.0526 15.0322C19.7304 15.0322 20.2952 15.6005 20.2952 16.2824L20.2952 31.6258C20.2952 32.3077 19.7304 32.8759 19.0526 32.8759L18.2996 32.8759C17.6218 32.8759 17.057 32.3077 17.057 31.6258Z" fill="#1F1F1F"/>
<path d="M118.192 24.1247L117.138 0.257324L107.461 0.257324L110.022 19.768L108.101 24.1247L110.022 28.5194L107.461 48.03L117.138 48.03L118.192 24.1247Z" fill="#E4E6E6"/>
<path d="M107.725 45.9078L108.854 37.8762L117.477 40.1114L117.213 45.9078L107.725 45.9078Z" fill="#23D1A9"/>
<path d="M104.675 47.0064L104.675 44.8091C104.675 44.1651 105.127 43.6347 105.654 43.6726L117.364 44.847C117.816 44.8849 118.192 45.3774 118.192 45.9835L118.192 47.0064C118.192 47.6505 117.778 48.143 117.289 48.143L105.541 48.143C105.051 48.143 104.675 47.6505 104.675 47.0064Z" fill="#242424"/>
<path opacity="0.2" d="M108.177 42.6125L107.725 45.9085L117.213 45.9085L117.326 43.5597L108.177 42.6125Z" fill="black"/>
<path d="M104.675 47.0064L104.675 44.8091C104.675 44.1651 105.127 43.6347 105.654 43.6726L117.364 44.847C117.816 44.8849 118.192 45.3774 118.192 45.9835L118.192 47.0064C118.192 47.6505 117.778 48.143 117.289 48.143L105.541 48.143C105.051 48.143 104.675 47.6505 104.675 47.0064Z" fill="#242424"/>
<path d="M107.725 2.37817L108.854 10.4097L117.477 8.17455L117.213 2.37817L107.725 2.37817Z" fill="#23D1A9"/>
<path d="M104.675 1.27961L104.675 3.47693C104.675 4.12097 105.127 4.65135 105.654 4.61347L117.364 3.40116C117.816 3.36327 118.192 2.87077 118.192 2.26461L118.192 1.27961C118.192 0.635568 117.778 0.143066 117.289 0.143066L105.541 0.143066C105.051 0.143066 104.675 0.635568 104.675 1.27961Z" fill="#242424"/>
<path opacity="0.2" d="M108.177 5.67415L107.725 2.37817L117.213 2.37817L117.326 4.72703L108.177 5.67415Z" fill="black"/>
<path d="M104.675 1.27961L104.675 3.47693C104.675 4.12097 105.127 4.65135 105.654 4.61347L117.364 3.40116C117.816 3.36327 118.192 2.87077 118.192 2.26461L118.192 1.27961C118.192 0.635568 117.778 0.143066 117.289 0.143066L105.541 0.143066C105.051 0.143066 104.675 0.635568 104.675 1.27961Z" fill="#242424"/>
<path d="M117.929 18.1763C116.724 17.7217 115.331 17.4944 113.9 17.4944C112.431 17.4944 111.038 17.7596 109.796 18.2142L109.984 19.7675L108.064 24.1242L109.984 28.481L109.796 29.9206C111.038 30.3752 112.394 30.6404 113.862 30.6404C115.331 30.6404 116.686 30.3752 117.891 29.9585L118.192 24.1242L117.929 18.1763Z" fill="#CFD1D1"/>
<path d="M59.3031 42.0812L60.0186 41.7023L60.0186 6.4695L59.3032 6.09066C56.9687 4.76469 54.2953 4.08276 51.6219 4.08276L27.9759 4.08276L27.9759 24.0859L27.9759 44.0891L51.6219 44.0891C54.2953 44.0891 56.9687 43.4072 59.3031 42.0812Z" fill="#8A8A8A"/>
<path opacity="0.2" d="M59.3031 38.7477L60.0186 38.4447L60.0186 9.72802L59.3032 9.42494C56.9687 8.36417 54.2953 7.7959 51.6219 7.7959L27.9759 7.7959L27.9759 24.0863L27.9759 40.3768L51.6219 40.3768C54.2953 40.3768 56.9687 39.8085 59.3031 38.7477Z" fill="black"/>
<path d="M59.3032 7.41662L60.0186 7.79547L60.0186 6.4695L59.3032 6.09066C56.9687 4.76469 54.2953 4.08276 51.6219 4.08276L27.9759 4.08276L27.9759 5.59815L51.6219 5.59815C54.2953 5.56027 56.9687 6.20431 59.3032 7.41662Z" fill="#FEFFFF"/>
<path d="M59.3032 42.081L60.0186 41.7022L60.0186 40.3762L59.3032 40.7551C56.9687 41.9674 54.2953 42.6114 51.6219 42.6114L27.9759 42.6114L27.9759 44.1268L51.6219 44.1268C54.2953 44.0889 56.9687 43.407 59.3032 42.081Z" fill="#FEFFFF"/>
<path d="M27.976 46.1728L27.976 33.5572C27.976 33.292 28.2019 33.0647 28.4655 33.0647L29.5198 33.0647C29.7834 33.0647 30.0093 33.292 30.0093 33.5572L30.0093 45.0742C30.0093 45.9455 29.3315 46.6274 28.4655 46.6274C28.2019 46.6653 27.976 46.438 27.976 46.1728Z" fill="#3D3D3D"/>
<path d="M27.976 1.69632L27.976 14.3119C27.976 14.5771 28.2019 14.8044 28.4655 14.8044L29.5198 14.8044C29.7834 14.8044 30.0093 14.5771 30.0093 14.3119L30.0093 2.79498C30.0093 1.92363 29.3315 1.2417 28.4655 1.2417C28.2019 1.2417 27.976 1.43112 27.976 1.69632Z" fill="#3D3D3D"/>
<path d="M46.3504 10.7883L46.3504 7.34083C46.3504 5.63602 47.5553 4.15851 49.212 3.81755L51.4335 3.36293C52.2242 3.21139 52.9773 3.81755 52.9773 4.61313L52.9773 10.7883C52.9773 11.5082 52.4125 12.0764 51.6971 12.0764L47.5929 12.0764C46.9152 12.0764 46.3504 11.5082 46.3504 10.7883Z" fill="#168F74"/>
<path d="M46.3504 37.0049L46.3504 40.4524C46.3504 42.1572 47.5553 43.6347 49.212 43.9757L51.4335 44.4303C52.2242 44.5818 52.9773 43.9757 52.9773 43.1801L52.9773 37.0049C52.9773 36.2851 52.4125 35.7168 51.6971 35.7168L47.5929 35.7168C46.9152 35.7168 46.3504 36.2851 46.3504 37.0049Z" fill="#168F74"/>
<path d="M78.7323 33.6337L78.7323 14.5776C81.5187 14.5776 83.7778 16.8507 83.7778 19.6542L83.7778 28.5571C83.7402 31.3606 81.5187 33.6337 78.7323 33.6337Z" fill="#242424"/>
<path d="M91.3085 39.3535L84.6439 23.8586L91.3085 8.40161L93.7183 8.40161L87.0537 23.8586L93.7183 39.3535L91.3085 39.3535Z" fill="#0A0A0A"/>
<path d="M90.6683 39.3535L79.9749 23.8586L90.6683 8.40161L93.0781 8.40161L82.3847 23.8586L93.0781 39.3535L90.6683 39.3535Z" fill="#242424"/>
<path d="M93.7183 37.9521L93.7183 10.2583L91.0449 10.2583L91.0449 37.9521L93.7183 37.9521Z" fill="#383838"/>
<path d="M90.0658 33.4436L90.0658 14.8422C90.0658 14.0845 90.7059 13.4404 91.459 13.4404L93.3793 13.4404C94.1324 13.4404 94.7725 14.0845 94.7725 14.8422L94.7725 33.4815C94.7725 34.2392 94.1324 34.8832 93.3793 34.8832L91.459 34.8832C90.6683 34.8453 90.0658 34.2392 90.0658 33.4436Z" fill="#242424"/>
<path d="M101.361 7.03809L101.361 3.85577C101.361 1.81 99.7046 0.143066 97.6713 0.143066L84.9823 0.143066C82.949 0.143066 81.2923 1.81 81.2923 3.85577L81.2923 7.03809C81.2923 9.08387 82.949 10.7508 84.9823 10.7508L97.6713 10.7508C99.7046 10.7129 101.361 9.08387 101.361 7.03809Z" fill="#242424"/>
<path d="M97.6718 0.143311L84.9827 0.14331C84.7568 0.14331 84.5686 0.181195 84.3803 0.181195L84.3803 10.6753C84.5686 10.7132 84.7945 10.7132 84.9827 10.7132L97.6718 10.7132C97.7471 10.7132 97.8224 10.7132 97.8977 10.7132L97.8977 0.143311C97.8224 0.143311 97.7471 0.143311 97.6718 0.143311Z" fill="#333333"/>
<path d="M94.6218 0.143311L87.8443 0.14331C87.7314 0.14331 87.6184 0.181195 87.5054 0.181195L87.5054 10.6753C87.6184 10.7132 87.7314 10.7132 87.8443 10.7132L94.6218 10.7132C94.6595 10.7132 94.6972 10.7132 94.7348 10.7132L94.7725 0.143311C94.6972 0.143311 94.6595 0.143311 94.6218 0.143311Z" fill="#3D3D3D"/>
<path d="M81.7445 2.07544C81.6692 2.22698 81.5939 2.34063 81.5562 2.49217L101.136 2.49217C101.06 2.34063 101.023 2.18909 100.947 2.07544L81.7445 2.07544Z" fill="#0B1114"/>
<path d="M81.3304 3.25024C81.2928 3.40178 81.2928 3.51544 81.2928 3.66698L101.362 3.66698C101.362 3.51544 101.324 3.3639 101.324 3.25024L81.3304 3.25024Z" fill="#0B1114"/>
<path d="M81.7445 8.7805C81.6692 8.62896 81.5939 8.51531 81.5562 8.36377L101.136 8.36377C101.06 8.51531 101.023 8.66685 100.947 8.7805L81.7445 8.7805Z" fill="#0B1114"/>
<path d="M81.3304 7.60716C81.2928 7.45562 81.2928 7.34197 81.2928 7.19043L101.362 7.19043C101.362 7.34197 101.324 7.49351 101.324 7.60716L81.3304 7.60716Z" fill="#0B1114"/>
<path d="M101.362 44.4309L101.362 41.2486C101.362 39.2028 99.7051 37.5359 97.6718 37.5359L84.9828 37.5359C82.9495 37.5359 81.2928 39.2028 81.2928 41.2486L81.2928 44.4309C81.2928 46.4767 82.9495 48.1436 84.9828 48.1436L97.6718 48.1436C99.7051 48.1436 101.362 46.4767 101.362 44.4309Z" fill="#242424"/>
<path d="M97.672 37.5359L84.983 37.5359C84.7571 37.5359 84.5688 37.5738 84.3805 37.5738L84.3805 48.0679C84.5688 48.1057 84.7947 48.1057 84.983 48.1057L97.672 48.1057C97.7473 48.1057 97.8226 48.1057 97.8979 48.1057L97.8979 37.5738C97.8226 37.5738 97.7473 37.5359 97.672 37.5359Z" fill="#333333"/>
<path d="M94.6221 37.5359L87.8446 37.5359C87.7317 37.5359 87.6187 37.5738 87.5057 37.5738L87.5057 48.0679C87.6187 48.1057 87.7317 48.1057 87.8446 48.1057L94.6221 48.1057C94.6598 48.1057 94.6975 48.1057 94.7351 48.1057L94.7351 37.5359C94.6975 37.5738 94.6598 37.5359 94.6221 37.5359Z" fill="#3D3D3D"/>
<path d="M81.7445 39.4678C81.6692 39.6193 81.5939 39.733 81.5562 39.8845L101.136 39.8845C101.06 39.733 101.023 39.5814 100.947 39.4678L81.7445 39.4678Z" fill="#0B1114"/>
<path d="M81.3304 40.6799C81.2928 40.8315 81.2928 40.9451 81.2928 41.0967L101.362 41.0967C101.362 40.9451 101.324 40.7936 101.324 40.6799L81.3304 40.6799Z" fill="#0B1114"/>
<path d="M81.7445 46.2114C81.6692 46.0599 81.5939 45.9462 81.5562 45.7947L101.136 45.7947C101.06 45.9462 101.023 46.0978 100.947 46.2114L81.7445 46.2114Z" fill="#0B1114"/>
<path d="M81.3304 44.9985C81.2928 44.847 81.2928 44.7333 81.2928 44.5818L101.362 44.5818C101.362 44.7333 101.324 44.8849 101.324 44.9985L81.3304 44.9985Z" fill="#0B1114"/>
<path d="M72.5193 33.4439C87.8817 29.6175 115.444 27.799 117.439 27.1929C118.117 26.9656 120.037 25.4881 120 24.0863C120.037 22.6846 118.117 21.1692 117.439 20.9798C115.406 20.3736 87.8817 18.5552 72.5193 14.7288C64.7251 12.7588 70.712 4.49991 57.0063 6.92453C46.6517 8.743 16.1528 16.8125 16.1528 16.8125C14.3455 17.2292 13.1029 18.8582 13.1029 20.7146L13.1029 24.0863L13.1029 27.4581C13.1029 29.3144 14.3831 30.9435 16.1528 31.3602C16.1528 31.3602 46.6894 39.4297 57.0439 41.286C70.712 43.6728 64.7251 35.4139 72.5193 33.4439Z" fill="#D5D6D6"/>
<path d="M72.5193 33.4439C87.8817 29.6175 115.444 27.799 117.439 27.1929C118.117 26.9656 120.037 25.4881 120 24.0863C120.037 22.6846 118.117 21.1692 117.439 20.9798C115.406 20.3736 87.8817 18.5552 72.5193 14.7288C64.7251 12.7588 70.712 4.49991 57.0063 6.92453C46.6517 8.743 16.1528 16.8125 16.1528 16.8125C14.3455 17.2292 13.1029 18.8582 13.1029 20.7146L13.1029 24.0863L13.1029 27.4581C13.1029 29.3144 14.3831 30.9435 16.1528 31.3602C16.1528 31.3602 46.6894 39.4297 57.0439 41.286C70.712 43.6728 64.7251 35.4139 72.5193 33.4439Z" fill="#D5D6D6"/>
<path d="M16.1531 30.7922C14.3457 30.3755 13.1032 28.898 13.1032 27.1553L13.1032 27.4205C13.1032 29.2768 14.3834 30.9059 16.1531 31.3226C16.1531 31.3226 46.6896 39.3921 57.0442 41.2484C70.7122 43.673 16.1531 30.7922 16.1531 30.7922Z" fill="#1FBD99"/>
<path d="M16.1531 17.3428C14.3457 17.7596 13.1032 19.2371 13.1032 20.9798L13.1032 20.7146C13.1032 18.8582 14.3834 17.2292 16.1531 16.8125C16.1531 16.8125 46.6896 8.743 57.0442 6.88665C70.7122 4.46202 16.1531 17.3428 16.1531 17.3428Z" fill="#1FBD99"/>
<path d="M16.0775 31.8147L16.0775 16.0547L25.1519 16.0547C26.4321 16.0547 27.4487 17.0776 27.4487 18.3657L27.4487 29.5038C27.4487 30.7919 26.4321 31.8147 25.1519 31.8147L16.0775 31.8147Z" fill="#333333"/>
<path d="M72.5193 30.9052C87.8817 28.1018 115.444 26.8137 117.439 26.3591C118.117 26.2075 120.037 25.1089 120 24.086C120.037 23.0631 118.117 21.9644 117.439 21.8129C115.406 21.3583 87.8817 20.0323 72.5193 17.2288C64.7251 15.7892 70.712 9.76554 57.0063 11.5461C46.6517 12.8721 16.1152 18.7821 16.1152 18.7821C14.3078 19.0852 13.0653 20.2975 13.0653 21.6235L13.0653 24.086L13.0653 26.5485C13.0653 27.9123 14.3455 29.0868 16.1152 29.3898C16.1152 29.3898 46.6517 35.262 57.0063 36.6258C70.712 38.3685 64.7251 32.3449 72.5193 30.9052Z" fill="#FEFFFF"/>
<path d="M22.5916 36.0955L24.6249 31.8145C24.7379 31.5872 24.5872 31.322 24.3237 31.322L23.42 31.322C23.307 31.322 23.1564 31.3978 23.1188 31.5114L20.9349 36.0955L22.5916 36.0955Z" fill="#1A1A1A"/>
<path d="M18.9772 36.0957L21.613 30.9055C21.7259 30.7161 21.5753 30.4888 21.3494 30.4888L20.5963 30.4888C20.4834 30.4888 20.4081 30.5645 20.3327 30.6403L17.5464 36.0957L18.9772 36.0957Z" fill="#1A1A1A"/>
<path d="M22.5916 11.6599L24.6249 15.9409C24.7379 16.1682 24.5872 16.4334 24.3237 16.4334L23.42 16.4334C23.307 16.4334 23.1564 16.3576 23.1188 16.244L20.9349 11.6599L22.5916 11.6599Z" fill="#1A1A1A"/>
<path d="M18.9772 11.6599L21.613 16.8501C21.7259 17.0396 21.5753 17.2669 21.3494 17.2669L20.5963 17.2669C20.4834 17.2669 20.4081 17.1911 20.3327 17.1153L17.5841 11.6599L18.9772 11.6599Z" fill="#1A1A1A"/>
<path d="M72.5193 16.3573C87.8817 19.5396 115.444 21.0171 117.439 21.5096C118.117 21.699 120.037 22.9113 120 24.0858C120.037 22.684 118.117 21.1686 117.439 20.9792C115.406 20.3731 87.8817 18.5546 72.5193 14.7282C68.1892 13.6296 68.1139 10.5988 66.5325 8.51513C66.5325 8.51513 68.1892 15.448 72.5193 16.3573Z" fill="#1FBD99"/>
<path d="M72.5193 31.8144C87.8817 28.6321 115.444 27.1546 117.439 26.6242C118.117 26.4727 120.037 25.2225 120 24.0859C120.037 25.4877 118.117 27.0031 117.439 27.1925C115.406 27.7986 87.8817 29.6171 72.5193 33.4435C68.1892 34.5421 68.1139 37.5729 66.5325 39.6566C66.5325 39.6566 68.1892 32.7237 72.5193 31.8144Z" fill="#1FBD99"/>
<path opacity="0.2" d="M65.5913 29.6937L65.5913 24.0867L65.5913 18.4798C65.5913 11.509 53.3164 13.9336 37.9164 16.6234C26.6958 18.5934 20.9349 20.4498 20.9349 20.4498C19.1652 20.8286 17.9227 22.3062 17.9227 24.0867C17.9227 25.8294 19.1652 27.3448 20.9349 27.7237C20.9349 27.7237 26.6958 29.58 37.9164 31.55C53.3164 34.2399 65.5913 36.6645 65.5913 29.6937Z" fill="black"/>
<path d="M64.876 29.1624L64.876 24.1238L64.876 19.0472C64.876 12.7205 53.1283 14.9178 38.4059 17.3803C27.6749 19.1609 22.1775 20.8278 22.1775 20.8278C20.4831 21.1688 19.3159 22.5326 19.3159 24.1238C19.3159 25.7149 20.5208 27.0788 22.1775 27.4197C22.1775 27.4197 27.7125 29.0867 38.4059 30.8673C53.1283 33.2919 64.876 35.4892 64.876 29.1624Z" fill="#8A8A8A"/>
<path d="M21.3867 21.8508C21.3867 21.8508 25.3403 20.7142 33.0215 19.5019C43.5643 17.835 51.9609 16.3196 51.9609 20.6384L51.9609 20.1459C51.9609 15.183 43.5643 16.9257 33.0215 18.82C25.3403 20.2217 21.3867 21.5098 21.3867 21.5098C20.1818 21.775 19.3158 22.8358 19.3158 24.086C19.3158 23.0252 20.1818 22.0781 21.3867 21.8508Z" fill="#FEFFFF"/>
<path d="M51.9229 28.0648L51.9229 27.5723C51.9229 31.8911 43.5262 30.3757 32.9834 28.7088C25.3022 27.4965 21.3486 26.36 21.3486 26.36C20.1437 26.1326 19.2777 25.1855 19.2777 24.1248C19.2777 25.375 20.1437 26.4357 21.3486 26.7009C21.3486 26.7009 25.3022 28.0269 32.9834 29.3907C43.5262 31.285 51.9229 33.0277 51.9229 28.0648Z" fill="#FEFFFF"/>
<path d="M20.2949 27.7616L15.6636 33.9747C15.4377 34.2777 15.6636 34.7324 16.0401 34.7324L18.1863 34.7324C18.3369 34.7324 18.4875 34.6566 18.5629 34.5429L23.6083 27.7994C23.8343 27.4964 23.6083 27.0417 23.2318 27.0417L21.7634 27.0417C21.1609 27.0417 20.6338 27.3069 20.2949 27.7616Z" fill="#4D4D4D"/>
<path d="M20.2951 20.828L15.6638 14.6149C15.4379 14.3118 15.6638 13.8572 16.0403 13.8572L18.1866 13.8572C18.3372 13.8572 18.4878 13.9329 18.5631 14.0466L23.6086 20.7901C23.8345 21.0932 23.6086 21.5478 23.2321 21.5478L21.7636 21.5478C21.1612 21.5478 20.634 21.2826 20.2951 20.828Z" fill="#4D4D4D"/>
<path d="M17.9224 25.3366L17.9224 22.9878L23.1185 22.9878C23.4574 22.9878 23.7209 23.253 23.7209 23.594L23.7209 24.7684C23.7209 25.1093 23.4574 25.3745 23.1185 25.3745L17.9224 25.3366Z" fill="#1A1A1A"/>
<path d="M7.5683 36.3606L8.35902 24.9194C8.39667 24.5405 8.39667 24.1238 8.35902 23.745L7.5683 12.2659L19.5043 12.2659L20.182 22.8357C20.2574 23.8207 20.2574 24.8057 20.182 25.7528L19.5043 36.3227L7.5683 36.3606Z" fill="#23D1A9"/>
<path d="M20.2199 25.7528C20.2952 24.7678 20.2952 23.7828 20.2199 22.8357L19.5045 12.2659L16.2663 12.2659L16.9441 22.8357C17.0194 23.8207 17.0194 24.8057 16.9441 25.7528L16.2663 36.3227L19.5045 36.3227L20.2199 25.7528Z" fill="#1FBD99"/>
<g clip-path="url(#clip1_304_8611)">
<path d="M15.2406 20.8336L18.7134 20.0604L18.7134 19.5143L12.7879 20.8336L10.5265 20.8336L18.7134 19.0109L18.7134 18.4648L9.30014 20.5605L9.30014 20.8336L9.30014 21.1065L9.30014 21.3795L18.7134 21.3795L18.7134 20.8336L15.2406 20.8336Z" fill="#1FBD99"/>
<path d="M9.30014 30.553L18.7134 28.4573L18.7134 28.1843L18.7134 27.9112L18.7134 27.6382L9.30033 27.6382L9.30033 28.1843L11.0127 29.6256L9.30033 30.0069L9.30033 30.553L9.30014 30.553ZM13.1896 29.1411L12.0536 28.1845L17.487 28.1845L13.1896 29.1411ZM10.2179 28.1843L11.1366 28.1843L12.4644 29.3025L11.7379 29.4643L10.2179 28.1843Z" fill="#1FBD99"/>
<path d="M18.7134 22.5297L18.7134 22.2567L18.7134 21.9836L9.30034 21.9836L9.30034 22.5297L11.0127 23.9711L9.30034 24.3524L9.30034 24.8985L18.7134 22.8026L18.7134 22.5297ZM13.1896 23.4864L12.0536 22.5297L17.487 22.5297L13.1896 23.4864ZM10.2179 22.5297L11.1366 22.5297L12.4644 23.6479L11.7379 23.8098L10.2179 22.5297Z" fill="#1FBD99"/>
<path d="M12.8972 27.1657L18.7134 25.8709L18.7134 25.5979L18.7134 25.3248L18.7134 25.0518L9.30034 25.0518L9.30034 25.5979L11.0459 25.5979L11.6416 26.0995L9.30034 26.6208L9.30508 27.1657L12.1544 26.5314L12.3927 26.732L12.8972 27.1657ZM11.9629 25.5979L17.487 25.5979L13.1179 26.5705L11.9629 25.5979Z" fill="#1FBD99"/>
</g>
<g opacity="0.1">
<path d="M14.534 12.8341C16.379 12.8341 18.111 13.2888 19.6548 14.0465L19.5418 12.2659L7.60583 12.2659L7.7941 15.0693C9.6391 13.6297 12.0112 12.8341 14.534 12.8341Z" fill="black"/>
<path d="M19.6548 34.5803C18.111 35.3758 16.379 35.7926 14.534 35.7926C12.0112 35.7926 9.67675 34.9591 7.75645 33.5574L7.56818 36.3608L19.5042 36.3608L19.6548 34.5803Z" fill="black"/>
</g>
<path d="M4.02896 12.3796C4.02896 12.569 4.17957 12.7206 4.36783 12.7206L19.542 12.7206C19.7302 12.7206 19.8809 12.569 19.8809 12.3796L19.8809 11.0158C19.8809 10.8263 19.6926 10.6369 19.5043 10.6748L4.33018 12.0386C4.17957 12.0386 4.02896 12.1902 4.02896 12.3796Z" fill="#168F74"/>
<path d="M4.02896 36.2086C4.02896 36.0192 4.17957 35.8677 4.36783 35.8677L19.542 35.8677C19.7302 35.8677 19.8809 36.0192 19.8809 36.2086L19.8809 37.5725C19.8809 37.7619 19.6926 37.9513 19.5043 37.9135L4.33018 36.5496C4.17957 36.5496 4.02896 36.3981 4.02896 36.2086Z" fill="#168F74"/>
<path opacity="0.2" d="M46.049 22.9495C46.049 22.5328 46.2749 22.1539 46.5762 21.9645L46.2373 20.0324C46.2373 19.9945 46.2373 19.9187 46.2373 19.8808C46.2373 19.4262 46.5762 19.0474 46.9903 19.0474L48.1199 19.0474C48.4588 19.0474 48.7977 19.3126 48.8353 19.7293L49.2119 21.8508C49.7013 21.9266 50.0779 22.3812 50.0779 22.9495L50.0779 25.2226C50.0779 25.7909 49.7013 26.2455 49.2119 26.3212L48.8353 28.4428C48.76 28.8216 48.4588 29.1247 48.1199 29.1247L46.9903 29.1247C46.8021 29.1247 46.6138 29.0489 46.4632 28.8974C46.3126 28.7459 46.2373 28.5186 46.2373 28.3291C46.2373 28.2912 46.2373 28.2155 46.2373 28.1776L46.5762 26.2455C46.2373 26.056 46.049 25.6772 46.049 25.2605L46.049 22.9495Z" fill="black"/>
<path d="M46.539 24.958L46.539 23.1774C46.539 22.4955 47.0662 21.9651 47.7439 21.9651L49.5136 21.9651C50.1914 21.9651 50.7185 22.4955 50.7185 23.1774L50.7185 24.958C50.7185 25.6399 50.1914 26.1703 49.5136 26.1703L47.7439 26.1703C47.0662 26.1703 46.539 25.6399 46.539 24.958Z" fill="#0B1114"/>
<path d="M46.7644 28.4049L47.5928 24.1997C47.5928 24.1239 47.5928 24.0482 47.5928 23.9724L46.7644 19.7672C46.6891 19.3883 46.9527 19.0474 47.3292 19.0474L48.6471 19.0474C48.9106 19.0474 49.1742 19.2368 49.2119 19.5399L50.0779 23.9724C50.0779 24.0482 50.0779 24.1239 50.0779 24.1997L49.2119 28.6322C49.1742 28.8974 48.9106 29.1247 48.6471 29.1247L47.3292 29.1247C46.9903 29.1247 46.6891 28.7837 46.7644 28.4049Z" fill="#242424"/>
<path opacity="0.2" d="M61.7886 28.5188L61.7886 19.6538L66.194 19.6538C68.6414 19.6538 70.5994 21.6238 70.5994 24.0863C70.5994 26.5488 68.6414 28.5188 66.194 28.5188L61.7886 28.5188Z" fill="black"/>
<path d="M69.0178 24.0861C69.0178 20.9038 66.4574 18.3655 63.3322 18.3655L53.7684 18.3655C52.7517 18.3655 51.961 19.1989 51.961 20.1839L51.961 27.9882C51.961 29.0111 52.7894 29.8067 53.7684 29.8067L63.3322 29.8067C66.4574 29.8067 69.0178 27.2305 69.0178 24.0861Z" fill="#0A0A0A"/>
<mask id="mask0_304_8611" style="mask-type:luminance" maskUnits="userSpaceOnUse" x="52" y="18" width="17" height="12">
<path d="M52.6009 27.6477L52.6009 20.5253C52.6009 19.6161 53.354 18.8584 54.2577 18.8584L62.9555 18.8584C65.8171 18.8584 68.1516 21.2073 68.1516 24.0865C68.1516 26.9657 65.8171 29.3146 62.9555 29.3146L54.2577 29.3146C53.354 29.3146 52.6009 28.5569 52.6009 27.6477Z" fill="white"/>
</mask>
<g mask="url(#mask0_304_8611)">
<path d="M62.7673 29.7687L62.7673 18.0244L53.5424 18.0244L53.5424 29.7687L62.7673 29.7687Z" fill="#0D5C4B"/>
</g>
<mask id="mask1_304_8611" style="mask-type:luminance" maskUnits="userSpaceOnUse" x="52" y="18" width="17" height="12">
<path d="M52.6009 27.6477L52.6009 20.5253C52.6009 19.6161 53.354 18.8584 54.2577 18.8584L62.9555 18.8584C65.8171 18.8584 68.1516 21.2073 68.1516 24.0865C68.1516 26.9657 65.8171 29.3146 62.9555 29.3146L54.2577 29.3146C53.354 29.3146 52.6009 28.5569 52.6009 27.6477Z" fill="white"/>
</mask>
<g mask="url(#mask1_304_8611)">
<path d="M56.8934 24.2001L56.8934 20.8662L68.1516 20.8662L68.1516 23.556L56.8934 24.2001Z" fill="#D5D6D6"/>
</g>
<mask id="mask2_304_8611" style="mask-type:luminance" maskUnits="userSpaceOnUse" x="52" y="18" width="17" height="12">
<path d="M52.6009 27.6477L52.6009 20.5253C52.6009 19.6161 53.354 18.8584 54.2577 18.8584L62.9555 18.8584C65.8171 18.8584 68.1516 21.2073 68.1516 24.0865C68.1516 26.9657 65.8171 29.3146 62.9555 29.3146L54.2577 29.3146C53.354 29.3146 52.6009 28.5569 52.6009 27.6477Z" fill="white"/>
</mask>
<g mask="url(#mask2_304_8611)">
<path d="M56.8933 27.3064L56.8933 23.8967L68.3398 24.6165L68.3398 27.3064L56.8933 27.3064Z" fill="#D5D6D6"/>
</g>
<mask id="mask3_304_8611" style="mask-type:luminance" maskUnits="userSpaceOnUse" x="52" y="18" width="17" height="12">
<path d="M52.6009 27.6477L52.6009 20.5253C52.6009 19.6161 53.354 18.8584 54.2577 18.8584L62.9555 18.8584C65.8171 18.8584 68.1516 21.2073 68.1516 24.0865C68.1516 26.9657 65.8171 29.3146 62.9555 29.3146L54.2577 29.3146C53.354 29.3146 52.6009 28.5569 52.6009 27.6477Z" fill="white"/>
</mask>
<g mask="url(#mask3_304_8611)">
<path d="M51.6598 29.9199L51.6598 18.2135C51.6598 17.6831 52.074 17.2664 52.6012 17.2664C53.1283 17.2664 53.5425 17.6831 53.5425 18.2135L53.5425 29.9199C53.5425 30.4503 53.1283 30.867 52.6012 30.867C52.074 30.867 51.6598 30.4503 51.6598 29.9199Z" fill="#168F74"/>
<path d="M66.5326 27.646L66.2691 26.1685C66.2314 25.9412 65.9678 25.7897 65.7796 25.9033C64.1605 26.5095 60.7717 26.8505 59.4162 26.9641C59.4162 26.8883 59.4162 26.8126 59.4162 26.7368L59.4162 24.1228L59.4162 21.5087C59.4162 21.4329 59.4162 21.3572 59.4162 21.2814C60.7717 21.395 64.1228 21.736 65.7419 22.3422C65.9678 22.4179 66.2314 22.2664 66.2314 22.0391L66.4197 20.5616C66.4197 20.41 66.3444 20.2585 66.1938 20.1827C63.8969 19.122 58.5502 18.44 56.4793 18.5916C55.0108 18.7052 53.5424 19.9175 53.5424 21.5466L53.5424 24.1606L53.5424 26.7747C53.5424 28.4037 55.0108 29.616 56.4793 29.7297C58.5502 29.8812 64.0475 29.1614 66.3444 28.1007C66.495 27.987 66.5703 27.7976 66.5326 27.646Z" fill="#FEFFFF"/>
<path opacity="0.18" d="M55.8766 27.381C55.9519 27.381 56.0273 27.381 56.1402 27.4189L56.1779 27.4189C56.2532 27.4189 56.3661 27.4189 56.4414 27.4189C56.5167 27.4189 56.5921 27.4189 56.6674 27.4189C56.7427 27.4189 56.818 27.4189 56.8933 27.4189C56.9686 27.4189 57.0815 27.4189 57.1568 27.4189C57.1945 27.4189 57.1945 27.4189 57.2322 27.4189C57.3075 27.4189 57.3828 27.4189 57.4581 27.381C57.4581 27.381 57.4581 27.381 57.4957 27.381C57.571 27.381 57.684 27.3431 57.7593 27.3431L57.7969 27.3431C57.8723 27.3431 57.9476 27.3053 58.0605 27.3053C58.1358 27.2674 58.2488 27.2674 58.3241 27.2295C58.3994 27.1916 58.5124 27.1916 58.5877 27.1537C58.7759 27.078 58.9265 27.0022 59.1148 26.9264C59.7172 26.6233 60.2444 26.2066 60.6209 25.7141C60.6586 25.6762 60.6962 25.6004 60.7339 25.5626C60.8468 25.411 60.9221 25.2216 60.9974 25.0322C60.9974 24.9943 61.0351 24.9185 61.0351 24.8806L61.0351 24.8427C61.0351 24.8049 61.0728 24.767 61.0728 24.7291C61.0728 24.6912 61.0728 24.6912 61.0728 24.6533C61.0728 24.6154 61.0728 24.5776 61.0728 24.5397L61.0728 24.5018C61.0728 24.426 61.0728 24.3881 61.0728 24.3124C61.0728 24.2366 61.0728 24.1987 61.0728 24.1229L61.0728 24.0851C61.0728 24.0472 61.0728 24.0093 61.0728 23.9714C61.0728 23.9335 61.0728 23.9335 61.0728 23.8956C61.0728 23.8577 61.0728 23.8199 61.0351 23.782L61.0351 23.7441C61.0351 23.7062 60.9974 23.6304 60.9974 23.5926C60.9221 23.4031 60.8468 23.2516 60.7339 23.0622C60.6962 23.0243 60.6586 22.9485 60.6209 22.9106C60.282 22.4181 59.7549 22.0014 59.1148 21.6983C58.9642 21.6225 58.7759 21.5468 58.5877 21.471C58.5124 21.4331 58.3994 21.3952 58.3241 21.3952C58.2488 21.3573 58.1358 21.3574 58.0605 21.3195C57.9852 21.3195 57.9099 21.2816 57.7969 21.2816L57.7593 21.2816C57.684 21.2816 57.571 21.2437 57.4957 21.2437C57.4957 21.2437 57.4957 21.2437 57.4581 21.2437C57.3828 21.2437 57.3075 21.2437 57.2322 21.2058C57.1945 21.2058 57.1945 21.2058 57.1568 21.2058C57.0815 21.2058 56.9686 21.2058 56.8933 21.2058C56.818 21.2058 56.7427 21.2058 56.6674 21.2058C56.5921 21.2058 56.5167 21.2058 56.4414 21.2058C56.3661 21.2058 56.2532 21.2058 56.1779 21.2058L56.1402 21.2058C55.0106 21.2816 54.1823 21.7362 53.6928 22.3802C53.6551 22.456 53.6175 22.4939 53.5798 22.5697C53.5422 22.6454 53.5045 22.6833 53.4669 22.7591C53.4669 22.7591 53.4669 22.7591 53.4669 22.797C53.4292 22.8727 53.3916 22.9106 53.3916 22.9864C53.3539 23.0622 53.3539 23.1 53.3162 23.1758L53.3162 23.2137C53.2786 23.2895 53.2786 23.3274 53.2409 23.4031C53.2409 23.4789 53.2033 23.5547 53.2033 23.6304L53.2033 23.6683C53.2033 23.7441 53.1656 23.8199 53.1656 23.8577C53.1656 23.9335 53.1656 24.0093 53.128 24.0851L53.128 24.1229C53.128 24.1987 53.128 24.2745 53.128 24.3502C53.128 24.426 53.128 24.5018 53.128 24.5776L53.128 24.6154C53.128 24.6912 53.128 24.767 53.1656 24.8427C53.1656 24.9185 53.2033 24.9943 53.2033 25.0322L53.2033 25.0701C53.2033 25.1458 53.2409 25.2216 53.2409 25.2974C53.2409 25.3731 53.2786 25.411 53.3162 25.4868L53.3162 25.5247C53.3539 25.6004 53.3539 25.6762 53.3916 25.7141C53.4292 25.7899 53.4669 25.8278 53.4669 25.9035C53.4669 25.9035 53.4669 25.9035 53.4669 25.9414C53.5045 26.0172 53.5422 26.0551 53.5798 26.1308C53.6175 26.2066 53.6551 26.2445 53.6928 26.3203C54.0316 26.737 54.4458 27.0779 55.0483 27.3053C55.2742 27.2674 55.5378 27.3431 55.8766 27.381ZM59.0395 26.4339L59.0771 26.396C59.0395 26.4339 59.0395 26.4339 59.0395 26.4339ZM59.1148 26.3203L59.1525 26.2824C59.1525 26.3203 59.1525 26.3203 59.1148 26.3203ZM59.3784 25.9793C59.3784 25.9414 59.416 25.9414 59.416 25.9035C59.416 25.9414 59.416 25.9414 59.3784 25.9793ZM59.4537 25.8656C59.4537 25.8278 59.4913 25.8278 59.4913 25.7899C59.4913 25.8278 59.4913 25.8278 59.4537 25.8656ZM59.529 25.7141C59.529 25.6762 59.5666 25.6762 59.5666 25.6383C59.5666 25.6762 59.529 25.7141 59.529 25.7141ZM59.6043 25.6004C59.6043 25.5626 59.6043 25.5626 59.6419 25.5247C59.6043 25.5247 59.6043 25.5626 59.6043 25.6004ZM59.6419 25.4489C59.6419 25.411 59.6419 25.411 59.6796 25.3731C59.6796 25.411 59.6796 25.411 59.6419 25.4489ZM59.7549 25.1458C59.7549 25.1079 59.7549 25.1079 59.7926 25.0701C59.7549 25.1079 59.7549 25.1458 59.7549 25.1458ZM59.1148 22.115L59.1525 22.1529C59.1525 22.1529 59.1525 22.115 59.1148 22.115ZM59.6419 22.9864C59.6419 23.0243 59.6419 23.0243 59.6796 23.0622C59.6796 23.0622 59.6796 23.0243 59.6419 22.9864ZM59.6419 22.9106C59.6419 22.8727 59.6419 22.8727 59.6043 22.8349C59.6043 22.8727 59.6043 22.9106 59.6419 22.9106ZM59.4913 22.6454C59.4913 22.6075 59.4537 22.6075 59.4537 22.5697C59.4913 22.6075 59.4913 22.6454 59.4913 22.6454ZM59.416 22.5318C59.416 22.4939 59.3784 22.4939 59.3784 22.456C59.416 22.4939 59.416 22.4939 59.416 22.5318ZM58.1735 21.3952L58.2111 21.3952C58.1735 21.3952 58.1735 21.3952 58.1735 21.3952ZM58.2864 21.4331C58.2864 21.4331 58.3241 21.4331 58.3241 21.471C58.3241 21.471 58.3241 21.471 58.2864 21.4331ZM58.437 21.5089C58.437 21.5089 58.4747 21.5089 58.4747 21.5468C58.4747 21.5468 58.437 21.5468 58.437 21.5089ZM58.55 21.6225L58.5877 21.6604C58.5877 21.6225 58.5877 21.6225 58.55 21.6225ZM58.7006 21.6983L58.7383 21.7362C58.7006 21.7362 58.7006 21.6983 58.7006 21.6983ZM58.8136 21.7741L58.8512 21.812C58.8512 21.812 58.8136 21.812 58.8136 21.7741ZM59.0771 22.0393L59.0395 22.0014C59.0395 22.0014 59.0395 22.0393 59.0771 22.0393ZM59.8679 24.0472C59.8679 24.0851 59.8679 24.1608 59.8679 24.1987C59.8679 24.1608 59.8679 24.1229 59.8679 24.0472ZM59.8302 23.5926C59.8302 23.6304 59.8302 23.6683 59.8302 23.6683C59.8302 23.6304 59.8302 23.6304 59.8302 23.5926ZM59.7926 24.9943C59.7926 24.9564 59.7926 24.9564 59.7926 24.9185C59.7926 24.9564 59.7926 24.9943 59.7926 24.9943ZM59.8302 24.8427C59.8302 24.8049 59.8302 24.767 59.8302 24.767C59.8302 24.8049 59.8302 24.8427 59.8302 24.8427ZM59.8302 24.6912C59.8302 24.6533 59.8302 24.6154 59.8302 24.6154C59.8302 24.6533 59.8302 24.6533 59.8302 24.6912ZM58.8512 26.6233L58.8136 26.6612C58.8136 26.6233 58.8512 26.6233 58.8512 26.6233ZM58.7383 26.6991L58.7006 26.737C58.7006 26.737 58.7006 26.737 58.7383 26.6991ZM58.6253 26.8128L58.5877 26.8506C58.5877 26.8128 58.5877 26.8128 58.6253 26.8128ZM58.3241 26.9643C58.3241 26.9643 58.2864 26.9643 58.2864 27.0022C58.3241 27.0022 58.3241 26.9643 58.3241 26.9643ZM58.2111 27.0401L58.1735 27.0401C58.1735 27.0401 58.1735 27.0401 58.2111 27.0401Z" fill="#0B1114"/>
<path d="M56.4789 27.1916C54.3704 27.1916 53.3161 25.8656 53.3161 24.1987C53.3161 22.5318 54.3704 21.2058 56.4789 21.2058C58.5875 21.2058 59.6794 22.5318 59.6794 24.1987C59.6794 25.8656 58.5499 27.1916 56.4789 27.1916Z" fill="#FEFFFF"/>
<path d="M58.6628 24.2368C58.6628 25.7522 57.7215 26.9645 55.9518 27.1918C56.1024 27.1918 56.2907 27.2297 56.4789 27.2297C58.5875 27.2297 59.6794 25.9037 59.6794 24.2368C59.6794 22.5699 58.5499 21.2439 56.4789 21.2439C56.2907 21.2439 56.1401 21.2439 55.9518 21.2818C57.7215 21.4712 58.6628 22.7214 58.6628 24.2368Z" fill="#FFFF7A"/>
<path d="M53.8435 24.2368C53.8435 23.0624 54.2954 22.0395 55.1614 21.4712C53.9565 21.9258 53.354 22.9866 53.354 24.2368C53.354 25.487 53.9565 26.5478 55.1614 27.0024C54.2954 26.4341 53.8435 25.3733 53.8435 24.2368Z" fill="#91FFFF"/>
<path d="M60.8469 24.2368C60.8469 22.6077 58.9643 21.2439 56.8934 21.2439C56.8181 21.2439 56.7428 21.2439 56.6674 21.2439C58.6254 21.3197 59.6797 22.6456 59.6797 24.1989C59.6797 25.7522 58.6254 27.0782 56.6674 27.1539C56.7428 27.1539 56.8181 27.1539 56.8934 27.1539C59.0019 27.1918 60.8469 25.8658 60.8469 24.2368Z" fill="#292929"/>
<path d="M60.6963 24.2367C60.6963 24.7292 60.5834 25.1838 60.3951 25.6005C60.6963 25.1838 60.8469 24.7292 60.8469 24.2367C60.8469 23.7442 60.6587 23.2895 60.3951 22.8728C60.5834 23.2517 60.6963 23.7442 60.6963 24.2367Z" fill="#D5D6D6"/>
<path d="M60.0937 24.2368C60.0937 23.2518 59.7172 22.3426 59.0018 21.7364C58.3994 21.4333 57.6463 21.2439 56.8932 21.2439C56.8179 21.2439 56.7426 21.2439 56.6673 21.2439C58.6253 21.3197 59.6796 22.6456 59.6796 24.1989C59.6796 25.7522 58.6253 27.0782 56.6673 27.1539C56.7426 27.1539 56.8179 27.1539 56.8932 27.1539C57.6463 27.1539 58.3617 26.9645 59.0018 26.6614C59.7172 26.131 60.0937 25.2218 60.0937 24.2368Z" fill="#0B1114"/>
<path d="M66.4197 20.5623C66.4197 20.5623 66.7585 20.9032 67.0598 20.9032C68.0011 20.8274 69.1683 21.3578 69.0554 22.5323C68.9048 23.7446 68.6789 23.7067 68.4529 22.8353C68.0764 21.32 67.0598 22.2292 67.2104 22.6459C67.361 23.0248 67.4363 23.4036 67.1727 23.5552C66.9468 23.7067 66.7962 23.0627 66.4573 22.8353C66.2314 22.6838 66.2691 22.0776 66.0431 22.0019C65.8172 21.8882 66.4197 20.5623 66.4197 20.5623Z" fill="#FEFFFF"/>
<path d="M66.4949 27.6849C66.4949 27.6849 66.8337 27.344 67.135 27.344C68.0763 27.4197 69.2435 26.8893 69.1306 25.7149C68.98 24.5026 68.754 24.5405 68.5281 25.4118C68.1516 26.9272 67.135 26.018 67.2856 25.6013C67.4362 25.2224 67.5115 24.8436 67.2479 24.692C67.022 24.5405 66.8714 25.1845 66.5325 25.4118C66.3066 25.5634 66.3443 26.1695 66.1183 26.2453C65.8924 26.3589 66.4949 27.6849 66.4949 27.6849Z" fill="#FEFFFF"/>
<path d="M67.1349 25.7901L67.1349 22.3805C67.1349 21.9637 67.4737 21.6606 67.8503 21.6606C68.2645 21.6606 68.5657 22.0016 68.5657 22.3805L68.5657 25.7901C68.5657 26.2068 68.2268 26.5099 67.8503 26.5099C67.4737 26.5099 67.1349 26.2068 67.1349 25.7901Z" fill="#168F74"/>
</g>
</g>
<defs>
<clipPath id="clip0_304_8611">
<rect width="48" height="120" fill="white" transform="translate(120 0.142822) rotate(90)"/>
</clipPath>
<clipPath id="clip1_304_8611">
<rect width="12.1109" height="9.41324" fill="white" transform="translate(18.7134 18.4648) rotate(90)"/>
</clipPath>
</defs>
</svg>
