<svg width="16" height="16" viewBox="0 0 16 16" fill="none" xmlns="http://www.w3.org/2000/svg">
<path d="M1.33441 0.74571C1.16844 0.745731 1.00626 0.795379 0.86871 0.888264C0.73116 0.981148 0.624519 1.11302 0.562486 1.26697C0.500453 1.42091 0.485861 1.58993 0.520584 1.75223C0.555307 1.91453 0.637759 2.06269 0.757349 2.17778L6.82384 8.24425L0.757349 14.3108C0.677278 14.3873 0.613269 14.479 0.56907 14.5805C0.524872 14.682 0.501372 14.7912 0.499947 14.902C0.498522 15.0127 0.5192 15.1226 0.560771 15.2252C0.602342 15.3278 0.66397 15.4211 0.742047 15.4996C0.820123 15.5781 0.913078 15.6403 1.01547 15.6824C1.11786 15.7245 1.22763 15.7459 1.33835 15.7451C1.44907 15.7443 1.55851 15.7213 1.66028 15.6777C1.76204 15.6341 1.85407 15.5705 1.93098 15.4909L8.00235 9.42279L14.0705 15.4909C14.1479 15.5686 14.2399 15.6302 14.3412 15.6723C14.4425 15.7144 14.5511 15.7362 14.6608 15.7363C14.7705 15.7364 14.8791 15.7148 14.9805 15.6729C15.0819 15.631 15.174 15.5694 15.2516 15.4919C15.3291 15.4143 15.3906 15.3222 15.4326 15.2209C15.4745 15.1195 15.4961 15.0108 15.496 14.9011C15.4959 14.7914 15.4742 14.6828 15.4321 14.5815C15.39 14.4802 15.3283 14.3883 15.2506 14.3108L9.18086 8.24425L15.2506 2.17778C15.3723 2.0609 15.4556 1.90985 15.4895 1.74455C15.5233 1.57925 15.5062 1.4075 15.4402 1.25218C15.3743 1.09687 15.2627 0.965281 15.1203 0.874824C14.9778 0.784367 14.8113 0.739346 14.6427 0.74571C14.4264 0.752154 14.2212 0.84255 14.0705 0.997699L8.00235 7.0658L1.93098 0.997699C1.85342 0.917971 1.76067 0.854551 1.65821 0.811275C1.55574 0.767999 1.44564 0.745717 1.33441 0.74571Z" fill="black"/>
</svg>
