<svg width="30" height="31" viewBox="0 0 30 31" fill="none" xmlns="http://www.w3.org/2000/svg">
<path d="M9.40635 19.2804C13.7559 21.0123 17.4573 21.3496 21.6518 18.6539C21.6211 18.7009 20.7913 19.9551 18.6094 20.5979C19.0704 21.2407 19.7004 21.9775 19.7004 21.9775C21.0987 21.9775 22.4662 21.5699 23.6493 20.786C24.5712 20.1589 25.0936 19.0771 24.9861 17.9484C24.8017 16.02 24.3561 14.1387 23.6647 12.3359C22.7888 9.98423 20.6838 8.35377 18.2407 8.1186C18.0256 8.10291 17.8719 8.10291 17.7797 8.10291L17.5339 8.35373C20.3458 9.16898 21.744 10.4388 21.7748 10.4859C17.457 8.25968 12.3557 8.22834 8.00729 10.3918C8.00729 10.3918 9.39018 8.99652 12.4479 8.25968L12.2635 8.07153C11.9408 8.07153 11.6335 8.10291 11.3108 8.14989C9.05213 8.54183 7.16218 10.1253 6.34782 12.3045C5.64098 14.1857 5.18004 16.1611 5.01102 18.1678C4.91884 19.2339 5.41053 20.2843 6.27098 20.8957C7.408 21.6639 8.76018 22.0715 10.1277 22.0715C10.1277 22.0715 10.6808 21.3347 11.234 20.6762C9.15969 20.0491 8.31458 18.7949 8.2992 18.7479L8.6896 18.9513C8.92298 19.073 9.16222 19.1832 9.40635 19.2804ZM11.8179 17.917C10.8192 17.8856 10.0355 17.0234 10.0663 15.9887C10.097 15.0167 10.8653 14.2328 11.8179 14.2014C12.8167 14.2328 13.6003 15.095 13.5696 16.1298C13.5235 17.1018 12.7706 17.8857 11.8179 17.917ZM18.087 17.917C17.0882 17.8856 16.3046 17.0234 16.3353 15.9887C16.3661 15.0167 17.1344 14.2328 18.087 14.2014C19.0858 14.2328 19.8694 15.095 19.8387 16.1298C19.808 17.1018 19.0396 17.8857 18.087 17.917Z" fill="black"/>
</svg>
