<svg width="62" height="241" viewBox="0 0 62 241" fill="none" xmlns="http://www.w3.org/2000/svg">
<path d="M61.2578 240.143L61.2578 0.142822L56.6368 0.142822L56.6368 240.143L61.2578 240.143Z" fill="#E6E6E6"/>
<path d="M29.6213 240.143L29.6213 0.142822L25.0004 0.142822L25.0003 240.143L29.6213 240.143Z" fill="#E6E6E6"/>
<path d="M54.5041 12.1339L54.5042 0.142822L42.5962 0.142822L42.5962 12.1339L54.5041 12.1339Z" fill="#E6E6E6"/>
<path d="M42.7742 24.1251L42.7742 12.134L30.8662 12.134L30.8662 24.1251L42.7742 24.1251Z" fill="#E6E6E6"/>
<path d="M54.5041 36.1158L54.5042 24.1248L42.5962 24.1248L42.5962 36.1158L54.5041 36.1158Z" fill="#E6E6E6"/>
<path d="M42.7739 48.107L42.7739 36.116L30.866 36.116L30.866 48.107L42.7739 48.107Z" fill="#E6E6E6"/>
<path d="M54.5041 60.0982L54.5042 48.1072L42.5962 48.1072L42.5962 60.0982L54.5041 60.0982Z" fill="#E6E6E6"/>
<path d="M42.7739 71.9105L42.7739 59.9194L30.866 59.9194L30.866 71.9105L42.7739 71.9105Z" fill="#E6E6E6"/>
<path d="M54.5041 83.901L54.5042 71.9099L42.5962 71.9099L42.5962 83.901L54.5041 83.901Z" fill="#E6E6E6"/>
<path d="M42.7742 95.8924L42.7742 83.9014L30.8662 83.9014L30.8662 95.8924L42.7742 95.8924Z" fill="#E6E6E6"/>
<path d="M54.5041 107.883L54.5042 95.8923L42.5962 95.8923L42.5962 107.883L54.5041 107.883Z" fill="#E6E6E6"/>
<path d="M42.7739 119.874L42.7739 107.883L30.866 107.883L30.866 119.874L42.7739 119.874Z" fill="#E6E6E6"/>
<path d="M54.5041 131.865L54.5042 119.874L42.5962 119.874L42.5962 131.865L54.5041 131.865Z" fill="#E6E6E6"/>
<path d="M42.7739 143.857L42.7739 131.865L30.866 131.865L30.866 143.857L42.7739 143.857Z" fill="#E6E6E6"/>
<path d="M54.5041 155.847L54.5042 143.856L42.5962 143.856L42.5962 155.847L54.5041 155.847Z" fill="#E6E6E6"/>
<path d="M42.7742 167.838L42.7742 155.847L30.8662 155.847L30.8662 167.838L42.7742 167.838Z" fill="#E6E6E6"/>
<path d="M54.5041 179.65L54.5042 167.659L42.5962 167.659L42.5962 179.65L54.5041 179.65Z" fill="#E6E6E6"/>
<path d="M42.7739 191.642L42.7739 179.651L30.866 179.651L30.866 191.642L42.7739 191.642Z" fill="#E6E6E6"/>
<path d="M54.5041 203.633L54.5042 191.642L42.5962 191.642L42.5962 203.633L54.5041 203.633Z" fill="#E6E6E6"/>
<path d="M42.7739 215.624L42.7739 203.633L30.866 203.633L30.866 215.624L42.7739 215.624Z" fill="#E6E6E6"/>
<path d="M54.5041 227.615L54.5042 215.624L42.5962 215.624L42.5962 227.615L54.5041 227.615Z" fill="#E6E6E6"/>
<path d="M42.7742 239.606L42.7742 227.615L30.8662 227.615L30.8662 239.606L42.7742 239.606Z" fill="#E6E6E6"/>
<path d="M-0.000114749 86.3065C-0.000114678 84.6949 0.287414 83.3136 0.862478 82.1625C1.43754 81.0291 2.16535 80.064 3.04592 79.2671L5.76848 81.9235C5.04965 82.5433 4.51053 83.2428 4.15112 84.022C3.7917 84.8189 3.612 85.6689 3.612 86.5721C3.612 87.5638 3.81866 88.2987 4.23198 88.7769C4.64531 89.255 5.19342 89.4941 5.87631 89.4941C6.21775 89.4941 6.52325 89.4321 6.79281 89.3082C7.08034 89.2019 7.31396 88.9894 7.49367 88.6706C7.69135 88.3696 7.82613 87.9268 7.89801 87.3424L8.14061 85.5096C8.32032 84.2168 8.64379 83.1454 9.11103 82.2953C9.59624 81.463 10.2252 80.8432 10.998 80.4359C11.7887 80.0286 12.7052 79.8249 13.7475 79.8249C14.8796 79.8249 15.868 80.0994 16.7126 80.6484C17.5752 81.2151 18.2491 82.012 18.7343 83.0391C19.2196 84.084 19.4622 85.3325 19.4622 86.7846C19.4622 88.1836 19.2285 89.4144 18.7613 90.477C18.312 91.5395 17.6651 92.4515 16.8205 93.213L14.0709 90.5301C14.5921 90.0874 15.0144 89.5472 15.3379 88.9097C15.6793 88.2899 15.85 87.5018 15.85 86.5455C15.85 85.6424 15.6883 84.9694 15.3648 84.5267C15.0414 84.084 14.5921 83.8626 14.017 83.8626C13.5857 83.8626 13.2353 83.9334 12.9657 84.0751C12.6962 84.2345 12.4895 84.4736 12.3458 84.7923C12.202 85.1288 12.0852 85.5538 11.9953 86.0674L11.6988 87.9003C11.5011 89.1753 11.1687 90.229 10.7014 91.0614C10.2342 91.8937 9.6232 92.5135 8.86843 92.9208C8.11366 93.3281 7.19715 93.5318 6.11891 93.5318C4.91487 93.5318 3.8546 93.2484 2.93809 92.6817C2.02159 92.1328 1.30276 91.3181 0.781608 90.2379C0.260458 89.1576 -0.000114816 87.8472 -0.000114749 86.3065Z" fill="#E6E6E6"/>
<path d="M0.323356 100.746L15.4996 100.746L15.4996 95.7256L19.1387 95.7256L19.1387 109.804L15.4996 109.804L15.4996 104.784L0.323356 104.784L0.323356 100.746Z" fill="#E6E6E6"/>
<path d="M0.323355 110.111L19.1387 116.221L19.1387 121.215L0.323355 127.245L0.323355 123.048L4.79806 121.72L4.79806 115.53L0.323355 114.202L0.323355 110.111ZM8.27539 116.487L8.27539 120.737L15.4187 118.665L15.4187 118.532L8.27539 116.487Z" fill="#E6E6E6"/>
<path d="M0.323354 130.607L19.1387 130.607L19.1387 139.4C19.1387 140.551 18.8871 141.542 18.3839 142.375C17.8807 143.207 17.1799 143.853 16.2813 144.314C15.3828 144.774 14.3315 145.005 13.1275 145.005C11.8695 145.005 10.7553 144.721 9.78493 144.154C8.83248 143.605 8.14061 142.764 7.70932 141.631L0.323354 145.27L0.323354 140.781L7.22411 137.54L7.22411 134.645L0.323354 134.645L0.323354 130.607ZM10.6745 134.645L10.6745 138.895C10.6745 139.302 10.7464 139.648 10.8901 139.931C11.0339 140.214 11.2406 140.436 11.5101 140.595C11.7976 140.754 12.1391 140.834 12.5344 140.834L13.7205 140.834C14.1338 140.834 14.4753 140.754 14.7448 140.595C15.0144 140.436 15.2211 140.214 15.3648 139.931C15.5086 139.648 15.5805 139.302 15.5805 138.895L15.5805 134.645L10.6745 134.645Z" fill="#E6E6E6"/>
<path d="M0.323353 152.347L15.4996 152.347L15.4996 147.327L19.1387 147.327L19.1387 161.405L15.4996 161.405L15.4996 156.385L0.323353 156.385L0.323353 152.347Z" fill="#E6E6E6"/>
</svg>
