<svg width="240" height="65" viewBox="0 0 240 65" fill="none" xmlns="http://www.w3.org/2000/svg">
<path d="M240 28.7422H0V33.3632H240V28.7422Z" fill="#E6E6E6"/>
<path d="M240 60.3787H0L0 64.9996H240V60.3787Z" fill="#E6E6E6"/>
<path d="M11.9911 35.4958H0V47.4038H11.9911V35.4958Z" fill="#E6E6E6"/>
<path d="M23.9823 47.2258H11.9912V59.1338H23.9823V47.2258Z" fill="#E6E6E6"/>
<path d="M35.9735 35.4958H23.9824V47.4038H35.9735V35.4958Z" fill="#E6E6E6"/>
<path d="M47.9647 47.2261H35.9736V59.134H47.9647V47.2261Z" fill="#E6E6E6"/>
<path d="M59.9549 35.4958H47.9639V47.4038H59.9549V35.4958Z" fill="#E6E6E6"/>
<path d="M71.7674 47.2261H59.7764V59.134H71.7674V47.2261Z" fill="#E6E6E6"/>
<path d="M83.7586 35.4958H71.7676V47.4038H83.7586V35.4958Z" fill="#E6E6E6"/>
<path d="M95.7498 47.2258H83.7588V59.1338H95.7498V47.2258Z" fill="#E6E6E6"/>
<path d="M107.74 35.4958H95.749V47.4038H107.74V35.4958Z" fill="#E6E6E6"/>
<path d="M119.731 47.2261H107.74V59.134H119.731V47.2261Z" fill="#E6E6E6"/>
<path d="M131.722 35.4958H119.731V47.4038H131.722V35.4958Z" fill="#E6E6E6"/>
<path d="M143.714 47.2261H131.723V59.134H143.714V47.2261Z" fill="#E6E6E6"/>
<path d="M155.704 35.4958H143.713V47.4038H155.704V35.4958Z" fill="#E6E6E6"/>
<path d="M167.696 47.2258H155.705V59.1338H167.696V47.2258Z" fill="#E6E6E6"/>
<path d="M179.508 35.4958H167.517V47.4038H179.508V35.4958Z" fill="#E6E6E6"/>
<path d="M191.499 47.2261H179.508V59.134H191.499V47.2261Z" fill="#E6E6E6"/>
<path d="M203.49 35.4958H191.499V47.4038H203.49V35.4958Z" fill="#E6E6E6"/>
<path d="M215.481 47.2261H203.49V59.134H215.481V47.2261Z" fill="#E6E6E6"/>
<path d="M227.472 35.4958H215.48V47.4038H227.472V35.4958Z" fill="#E6E6E6"/>
<path d="M239.463 47.2258H227.472V59.1338H239.463V47.2258Z" fill="#E6E6E6"/>
<path d="M75 20.0634V1.30828H87.4407V4.9357H79.0842V8.77808H86.2047V12.3786H79.0842V20.0634H75Z" fill="#E6E6E6"/>
<path d="M89.9923 20.0634V16.8122H92.4106V4.55952H89.9923V1.30828H98.9131V4.55952H96.4948V16.8122H98.9131V20.0634H89.9923Z" fill="#E6E6E6"/>
<path d="M102.316 20.0634V1.30828H106.776L111.908 10.1753L113.709 13.9371H113.789V1.30828H117.632V20.0634H113.171L108.039 11.1964L106.239 7.43459H106.158V20.0634H102.316Z" fill="#E6E6E6"/>
<path d="M121.034 20.0634V16.8122H123.453V4.55952H121.034V1.30828H129.955V4.55952H127.537V16.8122H129.955V20.0634H121.034Z" fill="#E6E6E6"/>
<path d="M139.43 20.3858C137.8 20.3858 136.403 20.0992 135.239 19.526C134.092 18.9528 133.116 18.2273 132.31 17.3496L134.997 14.6357C135.624 15.3522 136.331 15.8896 137.12 16.2479C137.926 16.6062 138.786 16.7853 139.699 16.7853C140.702 16.7853 141.446 16.5793 141.929 16.1673C142.413 15.7553 142.655 15.2089 142.655 14.5282C142.655 14.1879 142.592 13.8833 142.467 13.6146C142.359 13.328 142.144 13.0952 141.822 12.916C141.517 12.719 141.069 12.5846 140.478 12.513L138.624 12.2712C137.317 12.092 136.233 11.7696 135.373 11.3038C134.531 10.8202 133.904 10.1932 133.492 9.42296C133.08 8.63478 132.874 7.7212 132.874 6.68224C132.874 5.55371 133.152 4.56848 133.707 3.72656C134.28 2.86673 135.086 2.19498 136.125 1.71132C137.182 1.22767 138.445 0.98584 139.914 0.98584C141.329 0.98584 142.574 1.21871 143.649 1.68446C144.724 2.13228 145.646 2.77716 146.417 3.61908L143.703 6.3598C143.255 5.84032 142.709 5.41936 142.064 5.09692C141.437 4.75657 140.64 4.58639 139.672 4.58639C138.759 4.58639 138.078 4.74761 137.63 5.07005C137.182 5.39249 136.958 5.84032 136.958 6.41354C136.958 6.84346 137.03 7.19277 137.173 7.46146C137.335 7.73016 137.576 7.93616 137.899 8.07947C138.239 8.22277 138.669 8.33921 139.189 8.42878L141.043 8.72434C142.332 8.92139 143.398 9.25278 144.24 9.71853C145.082 10.1843 145.709 10.7933 146.121 11.5457C146.533 12.298 146.739 13.2116 146.739 14.2864C146.739 15.4866 146.452 16.5435 145.879 17.457C145.324 18.3706 144.5 19.0871 143.407 19.6066C142.314 20.1261 140.989 20.3858 139.43 20.3858Z" fill="#E6E6E6"/>
<path d="M150.125 20.0634V1.30828H154.209V8.77808H161.357V1.30828H165.441V20.0634H161.357V12.3786H154.209V20.0634H150.125Z" fill="#E6E6E6"/>
</svg>
