<svg width="65" height="240" viewBox="0 0 65 240" fill="none" xmlns="http://www.w3.org/2000/svg">
<path d="M36.2578 240L36.2578 0L31.6368 -2.0199e-07L31.6368 240L36.2578 240Z" fill="#E6E6E6"/>
<path d="M4.62108 240L4.62109 0L0.000106335 -2.0199e-07L9.5844e-05 240L4.62108 240Z" fill="#E6E6E6"/>
<path d="M29.5039 11.9911L29.5039 0L17.596 -5.20512e-07L17.596 11.9911L29.5039 11.9911Z" fill="#E6E6E6"/>
<path d="M17.7739 23.9821L17.7739 11.9911L5.86599 11.9911L5.86599 23.9821L17.7739 23.9821Z" fill="#E6E6E6"/>
<path d="M29.5039 35.9731L29.5039 23.9821L17.596 23.9821L17.596 35.9731L29.5039 35.9731Z" fill="#E6E6E6"/>
<path d="M17.7739 47.9642L17.7739 35.9731L5.86599 35.9731L5.86599 47.9642L17.7739 47.9642Z" fill="#E6E6E6"/>
<path d="M29.5039 59.9554L29.5039 47.9644L17.596 47.9644L17.596 59.9554L29.5039 59.9554Z" fill="#E6E6E6"/>
<path d="M17.7739 71.7675L17.7739 59.7765L5.86599 59.7765L5.86599 71.7675L17.7739 71.7675Z" fill="#E6E6E6"/>
<path d="M29.5039 83.7583L29.5039 71.7672L17.596 71.7672L17.596 83.7583L29.5039 83.7583Z" fill="#E6E6E6"/>
<path d="M17.7739 95.7496L17.7739 83.7585L5.86599 83.7585L5.86599 95.7496L17.7739 95.7496Z" fill="#E6E6E6"/>
<path d="M29.5039 107.741L29.5039 95.7495L17.596 95.7495L17.596 107.741L29.5039 107.741Z" fill="#E6E6E6"/>
<path d="M17.7739 119.731L17.7739 107.74L5.86599 107.74L5.86599 119.731L17.7739 119.731Z" fill="#E6E6E6"/>
<path d="M29.5039 131.722L29.5039 119.731L17.596 119.731L17.596 131.722L29.5039 131.722Z" fill="#E6E6E6"/>
<path d="M17.7734 143.714L17.7734 131.723L5.8655 131.723L5.8655 143.714L17.7734 143.714Z" fill="#E6E6E6"/>
<path d="M29.5039 155.704L29.5039 143.713L17.596 143.713L17.596 155.704L29.5039 155.704Z" fill="#E6E6E6"/>
<path d="M17.7739 167.696L17.7739 155.705L5.86599 155.705L5.86599 167.696L17.7739 167.696Z" fill="#E6E6E6"/>
<path d="M29.5039 179.508L29.5039 167.517L17.596 167.517L17.596 179.508L29.5039 179.508Z" fill="#E6E6E6"/>
<path d="M17.7734 191.499L17.7734 179.508L5.8655 179.508L5.8655 191.499L17.7734 191.499Z" fill="#E6E6E6"/>
<path d="M29.5039 203.49L29.5039 191.499L17.596 191.499L17.596 203.49L29.5039 203.49Z" fill="#E6E6E6"/>
<path d="M17.7734 215.481L17.7734 203.49L5.8655 203.49L5.8655 215.481L17.7734 215.481Z" fill="#E6E6E6"/>
<path d="M29.5039 227.472L29.5039 215.481L17.596 215.481L17.596 227.472L29.5039 227.472Z" fill="#E6E6E6"/>
<path d="M17.7739 239.463L17.7739 227.472L5.86599 227.472L5.86599 239.463L17.7739 239.463Z" fill="#E6E6E6"/>
<path d="M44.9366 75L63.6917 75L63.6917 87.4407L60.0643 87.4407L60.0643 79.0842L56.2219 79.0842L56.2219 86.2047L52.6214 86.2047L52.6214 79.0842L44.9366 79.0842L44.9366 75Z" fill="#E6E6E6"/>
<path d="M44.9366 89.9923L48.1878 89.9923L48.1878 92.4106L60.4405 92.4106L60.4405 89.9923L63.6917 89.9923L63.6917 98.9131L60.4405 98.9131L60.4405 96.4948L48.1878 96.4948L48.1878 98.9131L44.9366 98.9131L44.9366 89.9923Z" fill="#E6E6E6"/>
<path d="M44.9366 102.316L63.6917 102.316L63.6917 106.776L54.8247 111.908L51.0629 113.709L51.0629 113.789L63.6917 113.789L63.6917 117.632L44.9366 117.632L44.9366 113.171L53.8036 108.039L57.5654 106.239L57.5654 106.158L44.9366 106.158L44.9366 102.316Z" fill="#E6E6E6"/>
<path d="M44.9366 121.034L48.1878 121.034L48.1878 123.453L60.4405 123.453L60.4405 121.034L63.6917 121.034L63.6917 129.955L60.4405 129.955L60.4405 127.537L48.1878 127.537L48.1878 129.955L44.9366 129.955L44.9366 121.034Z" fill="#E6E6E6"/>
<path d="M44.6142 139.43C44.6142 137.8 44.9008 136.403 45.474 135.239C46.0472 134.092 46.7727 133.116 47.6504 132.31L50.3643 134.997C49.6478 135.624 49.1104 136.331 48.7521 137.12C48.3938 137.926 48.2147 138.786 48.2147 139.699C48.2147 140.702 48.4207 141.446 48.8327 141.929C49.2447 142.413 49.7911 142.655 50.4718 142.655C50.8121 142.655 51.1166 142.592 51.3853 142.467C51.672 142.359 51.9048 142.144 52.084 141.822C52.281 141.517 52.4154 141.069 52.487 140.478L52.7288 138.624C52.908 137.317 53.2304 136.233 53.6962 135.373C54.1798 134.531 54.8068 133.904 55.577 133.492C56.3652 133.08 57.2788 132.874 58.3178 132.874C59.4463 132.874 60.4315 133.152 61.2734 133.707C62.1333 134.28 62.805 135.086 63.2887 136.125C63.7723 137.182 64.0142 138.445 64.0142 139.914C64.0142 141.329 63.7813 142.574 63.3155 143.649C62.8677 144.724 62.2228 145.646 61.3809 146.417L58.6402 143.703C59.1597 143.255 59.5806 142.709 59.9031 142.064C60.2434 141.437 60.4136 140.64 60.4136 139.672C60.4136 138.759 60.2524 138.078 59.9299 137.63C59.6075 137.182 59.1597 136.958 58.5865 136.958C58.1565 136.958 57.8072 137.03 57.5385 137.173C57.2698 137.335 57.0638 137.576 56.9205 137.899C56.7772 138.239 56.6608 138.669 56.5712 139.189L56.2757 141.043C56.0786 142.332 55.7472 143.398 55.2815 144.24C54.8157 145.082 54.2067 145.709 53.4543 146.121C52.702 146.533 51.7884 146.739 50.7136 146.739C49.5134 146.739 48.4565 146.452 47.543 145.879C46.6294 145.324 45.9129 144.5 45.3934 143.407C44.8739 142.314 44.6142 140.989 44.6142 139.43Z" fill="#E6E6E6"/>
<path d="M44.9366 150.125L63.6917 150.125L63.6917 154.209L56.2219 154.209L56.2219 161.357L63.6917 161.357L63.6917 165.441L44.9366 165.441L44.9366 161.357L52.6214 161.357L52.6214 154.209L44.9366 154.209L44.9366 150.125Z" fill="#E6E6E6"/>
</svg>
