<svg width="240" height="62" viewBox="0 0 240 62" fill="none" xmlns="http://www.w3.org/2000/svg">
<path d="M240 0.742188H0L0 5.36318H240V0.742188Z" fill="#E6E6E6"/>
<path d="M240 32.3787H0L0 36.9996H240V32.3787Z" fill="#E6E6E6"/>
<path d="M11.9911 7.49585H0L0 19.4038H11.9911V7.49585Z" fill="#E6E6E6"/>
<path d="M23.9823 19.2258H11.9912V31.1338H23.9823V19.2258Z" fill="#E6E6E6"/>
<path d="M35.9735 7.49585H23.9824V19.4038H35.9735V7.49585Z" fill="#E6E6E6"/>
<path d="M47.9647 19.2261H35.9736V31.134H47.9647V19.2261Z" fill="#E6E6E6"/>
<path d="M59.9549 7.49585H47.9639V19.4038H59.9549V7.49585Z" fill="#E6E6E6"/>
<path d="M71.7674 19.2261H59.7764V31.134H71.7674V19.2261Z" fill="#E6E6E6"/>
<path d="M83.7586 7.49585H71.7676V19.4038H83.7586V7.49585Z" fill="#E6E6E6"/>
<path d="M95.7498 19.2258H83.7588V31.1338H95.7498V19.2258Z" fill="#E6E6E6"/>
<path d="M107.74 7.49585H95.749V19.4038H107.74V7.49585Z" fill="#E6E6E6"/>
<path d="M119.731 19.2261H107.74V31.134H119.731V19.2261Z" fill="#E6E6E6"/>
<path d="M131.722 7.49585H119.731V19.4038H131.722V7.49585Z" fill="#E6E6E6"/>
<path d="M143.714 19.2261H131.723V31.134H143.714V19.2261Z" fill="#E6E6E6"/>
<path d="M155.704 7.49585H143.713V19.4038H155.704V7.49585Z" fill="#E6E6E6"/>
<path d="M167.696 19.2258H155.705V31.1338H167.696V19.2258Z" fill="#E6E6E6"/>
<path d="M179.508 7.49585H167.517V19.4038H179.508V7.49585Z" fill="#E6E6E6"/>
<path d="M191.499 19.2261H179.508V31.134H191.499V19.2261Z" fill="#E6E6E6"/>
<path d="M203.49 7.49585H191.499V19.4038H203.49V7.49585Z" fill="#E6E6E6"/>
<path d="M215.481 19.2261H203.49V31.134H215.481V19.2261Z" fill="#E6E6E6"/>
<path d="M227.472 7.49585H215.48V19.4038H227.472V7.49585Z" fill="#E6E6E6"/>
<path d="M239.463 19.2258H227.472V31.1338H239.463V19.2258Z" fill="#E6E6E6"/>
<path d="M86.1634 62.0001C84.5519 62.0001 83.1706 61.7126 82.0195 61.1375C80.8861 60.5625 79.9209 59.8346 79.124 58.9541L81.7804 56.2315C82.4002 56.9503 83.0997 57.4895 83.8789 57.8489C84.6758 58.2083 85.5259 58.388 86.429 58.388C87.4207 58.388 88.1557 58.1813 88.6338 57.768C89.112 57.3547 89.351 56.8066 89.351 56.1237C89.351 55.7823 89.2891 55.4767 89.1651 55.2072C89.0588 54.9197 88.8463 54.686 88.5276 54.5063C88.2265 54.3087 87.7838 54.1739 87.1994 54.102L85.3665 53.8594C84.0737 53.6797 83.0023 53.3562 82.1523 52.889C81.32 52.4038 80.7001 51.7748 80.2928 51.002C79.8855 50.2113 79.6819 49.2948 79.6819 48.2525C79.6819 47.1204 79.9564 46.132 80.5053 45.2874C81.072 44.4248 81.8689 43.7509 82.8961 43.2657C83.9409 42.7804 85.1894 42.5378 86.6415 42.5378C88.0406 42.5378 89.2713 42.7715 90.3339 43.2387C91.3964 43.688 92.3085 44.3349 93.07 45.1795L90.387 47.9291C89.9443 47.4079 89.4042 46.9856 88.7666 46.6621C88.1468 46.3207 87.3588 46.15 86.4025 46.15C85.4993 46.15 84.8264 46.3117 84.3836 46.6352C83.9409 46.9586 83.7195 47.4079 83.7195 47.983C83.7195 48.4143 83.7904 48.7647 83.932 49.0343C84.0914 49.3038 84.3305 49.5105 84.6493 49.6542C84.9857 49.798 85.4108 49.9148 85.9243 50.0047L87.7572 50.3012C89.0323 50.4989 90.086 50.8313 90.9183 51.2986C91.7506 51.7658 92.3704 52.3768 92.7778 53.1316C93.1851 53.8863 93.3887 54.8028 93.3887 55.8811C93.3887 57.0851 93.1054 58.1454 92.5387 59.0619C91.9897 59.9784 91.1751 60.6972 90.0948 61.2184C89.0146 61.7395 87.7041 62.0001 86.1634 62.0001Z" fill="#E6E6E6"/>
<path d="M100.603 61.6766V46.5004H95.5825V42.8613H109.661V46.5004H104.641V61.6766H100.603Z" fill="#E6E6E6"/>
<path d="M109.968 61.6766L116.078 42.8613H121.072L127.102 61.6766H122.905L121.577 57.2019H115.387L114.059 61.6766H109.968ZM116.343 53.7246H120.594L118.522 46.5813H118.389L116.343 53.7246Z" fill="#E6E6E6"/>
<path d="M130.464 61.6766V42.8613H139.257C140.408 42.8613 141.399 43.1129 142.232 43.6161C143.064 44.1193 143.71 44.8201 144.171 45.7187C144.631 46.6172 144.861 47.6685 144.861 48.8725C144.861 50.1305 144.578 51.2446 144.011 52.2151C143.462 53.1675 142.621 53.8594 141.488 54.2907L145.127 61.6766H140.638L137.397 54.7759H134.502V61.6766H130.464ZM134.502 51.3255H138.752C139.159 51.3255 139.504 51.2536 139.788 51.1099C140.071 50.9661 140.292 50.7594 140.452 50.4899C140.611 50.2023 140.691 49.8609 140.691 49.4655V48.2795C140.691 47.8662 140.611 47.5247 140.452 47.2552C140.292 46.9856 140.071 46.7789 139.788 46.6352C139.504 46.4914 139.159 46.4195 138.752 46.4195H134.502V51.3255Z" fill="#E6E6E6"/>
<path d="M152.204 61.6766V46.5004H147.183V42.8613H161.262V46.5004H156.242V61.6766H152.204Z" fill="#E6E6E6"/>
</svg>
