<svg width="30" height="31" viewBox="0 0 30 31" fill="none" xmlns="http://www.w3.org/2000/svg">
<path d="M11.8965 24.0715C12.5201 24.0715 12.6964 23.8227 12.6964 23.5047C12.6964 23.1867 12.6964 22.4955 12.6828 21.5139C9.44267 22.219 8.75127 19.9379 8.75127 19.9379C8.22253 18.5969 7.4498 18.2236 7.4498 18.2236C6.39231 17.5047 7.53113 17.5185 7.53113 17.5185C8.69704 17.6015 9.32066 18.7213 9.32066 18.7213C10.3646 20.5186 12.0456 19.9932 12.7099 19.689C12.7642 19.0946 13.0217 18.5278 13.4556 18.113C10.8662 17.8227 8.1412 16.8135 8.1412 12.3342C8.12765 11.1729 8.56148 10.0393 9.34775 9.19599C9.21219 8.90565 8.81905 7.7167 9.44267 6.09918C9.44267 6.09918 10.4188 5.78121 12.6557 7.30198C14.5672 6.77661 16.5736 6.77661 18.4852 7.30198C20.695 5.79507 21.6847 6.09918 21.6847 6.09918C22.3083 7.70289 21.9151 8.89183 21.8067 9.19599C22.593 10.0393 23.0133 11.1729 22.9997 12.3342C22.9997 16.8273 20.2747 17.8088 17.6718 18.0992C18.0785 18.4448 18.4581 19.1637 18.4581 20.2559C18.4581 21.8319 18.4446 23.0761 18.4446 23.4494C18.4446 23.7536 18.5801 24.0024 19.2444 24.0024L11.8965 24.0715Z" fill="black"/>
</svg>
