<svg width="92" height="61" viewBox="0 0 92 61" fill="none" xmlns="http://www.w3.org/2000/svg">
<g clip-path="url(#clip0_1_305)">
<path d="M17.9287 22.278L12.0764 0.142822H7.94296L17.9287 37.9119V52.3259L4.13341 0.142822H0L15.862 60.1428H17.9287H19.9941H22.0608V0.142822H17.9287V22.278Z" fill="black"/>
<path d="M91.4937 60.1428L75.6318 0.142822H73.5651H71.4983H69.4316V60.1416H73.5651L84.4745 49.2271L87.3603 60.1416H91.4937V60.1428ZM80.8073 35.3512L73.5663 42.5922V7.95976L80.8073 35.3512ZM73.5651 54.293V48.437L82.0285 39.9735L83.2534 44.6047L73.5651 54.293Z" fill="black"/>
<path d="M30.7689 0.142822H28.7022H26.6355V60.1415H30.7689L41.6783 49.2271L44.5642 60.1415H48.6976L32.8344 0.142822H30.7689ZM38.0099 35.3512L30.7689 42.5922V7.95976L38.0099 35.3512ZM30.7689 54.293V48.4369L39.2323 39.9735L40.4572 44.6047L30.7689 54.293Z" fill="black"/>
<path d="M65.8568 37.215L56.0563 0.142822H53.9896H51.9229H49.8562V60.1415H53.9896V49.0154L57.7866 45.2184L61.7322 60.1415L65.8568 60.1113L61.0555 41.9495L62.574 40.431L65.8568 37.215ZM53.9896 43.1706V7.95976L61.3516 35.8086L53.9896 43.1706Z" fill="black"/>
</g>
<defs>
<clipPath id="clip0_1_305">
<rect width="91.6667" height="60" fill="white" transform="translate(0 0.142822)"/>
</clipPath>
</defs>
</svg>
