<svg width="120" height="49" viewBox="0 0 120 49" fill="none" xmlns="http://www.w3.org/2000/svg">
<g clip-path="url(#clip0_304_8446)">
<g opacity="0.35">
<path d="M100.546 44.809L100.546 47.0063C100.546 47.6503 100.96 48.1428 101.449 48.1428L113.189 48.1428C113.678 48.1428 114.092 47.6503 114.092 47.0063L114.092 45.9834C114.092 45.3772 113.716 44.8847 113.264 44.8469L113.189 44.8469L113.377 40.187L113.377 40.1113L113.829 29.9581L113.979 26.8516C114.055 26.7758 114.167 26.7379 114.243 26.6622C114.732 26.2833 115.296 25.715 115.597 25.1468C115.786 24.8058 115.898 24.4648 115.898 24.086C115.898 23.745 115.786 23.3662 115.597 23.0252C115.259 22.4191 114.732 21.8887 114.243 21.5098C114.13 21.4341 114.055 21.3583 113.942 21.3204L113.791 18.2139L113.34 8.17439L113.34 7.98497L113.151 3.4388L113.227 3.4388C113.678 3.40091 114.055 2.90841 114.055 2.30225L114.055 1.27937C114.055 0.635324 113.641 0.142822 113.151 0.142822L101.411 0.142822C100.922 0.142822 100.508 0.635324 100.508 1.27936L100.508 3.47668C100.508 4.12072 100.96 4.65111 101.486 4.61322L103.857 4.38592L105.701 18.2139L105.889 19.7671L105.739 20.0702C105.513 20.0323 105.325 20.0323 105.099 19.9944C104.873 19.9566 104.647 19.9566 104.421 19.9187C103.97 19.8808 103.481 19.8429 102.992 19.7671C100.32 19.5019 97.3095 19.1989 94.1487 18.82C93.5842 18.7442 92.9822 18.6685 92.4177 18.6306C91.8157 18.5548 91.2512 18.4791 90.6491 18.4033L90.6491 14.8042C90.6491 14.1602 90.2352 13.6298 89.6332 13.4404L89.6332 10.6748L90.5363 10.6748L93.5842 10.6748C93.6595 10.6748 93.7348 10.6748 93.81 10.6748C95.7291 10.5611 97.2343 8.93209 97.2343 6.99996L97.2343 3.81764C97.2343 3.62822 97.1967 3.4388 97.1967 3.24937C96.9332 1.54456 95.541 0.256476 93.81 0.142821C93.7348 0.142821 93.6595 0.142821 93.5842 0.142821L90.5363 0.142821L83.763 0.142821L80.9031 0.142821C80.7903 0.142821 80.6774 0.142821 80.6021 0.142821C80.4892 0.142821 80.414 0.180705 80.3011 0.180705C78.7583 0.445899 77.5165 1.6961 77.2907 3.24937C77.2531 3.4388 77.2531 3.62822 77.2531 3.81764L77.2531 6.99996C77.2531 8.85632 78.5701 10.3717 80.3387 10.6369C80.4516 10.6369 80.5268 10.6748 80.6397 10.6748C80.7526 10.6748 80.8655 10.6748 80.9408 10.6748L83.8006 10.6748L85.0047 10.6748L80.6397 17.0015C80.0377 16.9258 79.4732 16.8121 78.8712 16.7363C77.9681 15.3725 76.4252 14.5011 74.6943 14.5011L74.6943 16.0165C74.1675 15.9029 73.6407 15.8271 73.1139 15.7135C72.8505 15.6756 72.5871 15.5998 72.3236 15.5619C71.0066 15.2967 69.7272 14.9937 68.5231 14.6906C68.4102 14.6527 68.2597 14.6148 68.1468 14.5769C68.1092 14.5769 68.0715 14.539 68.0339 14.539C67.9586 14.5011 67.8834 14.5011 67.8081 14.4633C67.7705 14.4633 67.7329 14.4254 67.6576 14.4254C67.5823 14.3875 67.5071 14.3875 67.4695 14.3496C67.4318 14.3496 67.3942 14.3117 67.3189 14.3117C67.2437 14.2738 67.2061 14.2738 67.1308 14.236C67.0932 14.1981 67.0555 14.1981 67.0179 14.1602C66.9426 14.1223 66.905 14.1223 66.8674 14.0844C66.8298 14.0465 66.7921 14.0465 66.7545 14.0086C66.7169 13.9708 66.6416 13.9329 66.604 13.9329C66.5664 13.895 66.5287 13.895 66.4911 13.8571C66.4535 13.8192 66.3782 13.7813 66.3406 13.7813C66.3029 13.7435 66.2653 13.7435 66.2277 13.7056C66.1901 13.6677 66.1148 13.6298 66.0772 13.5919C66.0395 13.554 66.0019 13.554 66.0019 13.5161C65.9267 13.4783 65.8514 13.4025 65.7761 13.3646C65.7385 13.3267 65.7385 13.3267 65.7009 13.2888C65.6632 13.251 65.6256 13.2131 65.5504 13.1752C65.5127 13.1373 65.4751 13.0994 65.4751 13.0994C65.4375 13.0615 65.3998 13.0236 65.3622 12.9858C65.3246 12.9479 65.287 12.91 65.287 12.8721C65.2493 12.8342 65.2117 12.7963 65.2117 12.7963C65.1741 12.7584 65.1364 12.7206 65.1364 12.6827C65.0988 12.6448 65.0988 12.6069 65.0612 12.6069C65.0236 12.569 64.9859 12.5311 64.9859 12.4933C64.9483 12.4554 64.9483 12.4554 64.9107 12.4175C64.873 12.3796 64.8354 12.3417 64.8354 12.3038C64.7978 12.2659 64.7978 12.2659 64.7978 12.2281C64.7601 12.1902 64.7225 12.1523 64.7225 12.1144C64.7225 12.0765 64.6849 12.0765 64.6849 12.0386C64.6473 12.0008 64.6096 11.925 64.572 11.8871C63.8194 10.7506 63.4055 9.50036 62.6529 8.47747C61.6369 7.1515 59.9812 6.20438 56.143 6.46958L56.143 6.43169L55.4281 6.05284C55.127 5.9013 54.826 5.74977 54.525 5.59823C53.9229 5.29515 53.2832 5.06784 52.6811 4.84053C51.477 4.46168 50.2352 4.19649 48.9935 4.12072C48.7677 3.59033 48.2032 3.24937 47.5635 3.36302L45.3434 3.81764C45.08 3.85553 44.8542 3.96918 44.6284 4.04495L26.1901 4.04495L26.1901 2.79475C26.1901 1.9234 25.5127 1.24148 24.6473 1.24148C24.572 1.24148 24.4967 1.27936 24.4215 1.31725C23.8947 0.976283 23.2926 0.786859 22.6529 0.748974C22.5776 0.748974 22.5024 0.748974 22.3895 0.748974L19.2663 0.748974L12.0038 0.748974L9.03108 0.748974C8.91819 0.748974 8.80531 0.748974 8.69242 0.748974C8.57953 0.748974 8.50426 0.786859 8.39138 0.786859C6.58517 1.08994 5.23051 2.64321 5.23051 4.57534L5.23051 7.87131C5.23051 8.06073 5.26814 8.28804 5.26814 8.47747C5.30578 8.74266 5.38103 9.00785 5.49393 9.27305C5.87022 10.2581 6.66042 11.0536 7.63879 11.4325L0.301063 12.0765C0.112922 12.0765 -0.0375982 12.2281 -0.0375982 12.4175C-0.0375982 12.6069 0.112922 12.7584 0.301063 12.7584L3.49956 12.7584L3.61246 14.5769L3.65008 15.0694L4.25215 23.745C4.28978 24.1239 4.28978 24.5406 4.25215 24.9195L3.65008 33.5951L3.61246 34.0876L3.49956 35.906L0.301062 35.906C0.112921 35.906 -0.0375992 36.0576 -0.0375992 36.247C-0.0375992 36.4364 0.112921 36.588 0.301062 36.588L6.47227 37.1562C6.05836 37.5351 5.71969 38.0276 5.53155 38.558C5.41865 38.8232 5.38103 39.0884 5.30578 39.3536C5.26815 39.543 5.26814 39.7324 5.26814 39.9597L5.26814 43.2557C5.26814 45.1499 6.66043 46.7411 8.42901 47.0442C8.54189 47.0442 8.61715 47.082 8.73004 47.082C8.84292 47.082 8.95582 47.082 9.06871 47.082L12.0038 47.082L19.0029 47.082L22.1637 47.082C22.239 47.082 22.3142 47.082 22.4271 47.082C23.0292 47.0442 23.5936 46.8547 24.0828 46.5895C24.1581 46.6653 24.3086 46.7411 24.4215 46.7411C25.287 46.7411 25.9643 46.0592 25.9643 45.1878L25.9643 44.0891L45.7197 44.0892L47.3754 44.4301C47.8269 44.5059 48.2409 44.3543 48.5419 44.0513C49.8966 43.9755 51.2136 43.7103 52.493 43.2936C53.1327 43.1041 53.7347 42.839 54.3368 42.5359C54.6378 42.3843 54.9389 42.2328 55.2399 42.0813L55.9549 41.7024L55.9549 41.6645C59.7931 41.9297 61.4488 41.0205 62.4648 39.6566C63.255 38.6337 63.6313 37.3836 64.3839 36.247C64.4215 36.2091 64.4591 36.1334 64.4967 36.0955C64.4967 36.0576 64.5344 36.0576 64.5344 36.0197C64.572 35.9818 64.6096 35.9439 64.6096 35.906C64.6096 35.8682 64.6473 35.8682 64.6473 35.8303C64.6849 35.7924 64.7225 35.7545 64.7225 35.7166C64.7601 35.6787 64.7601 35.6787 64.7978 35.6408C64.8354 35.603 64.873 35.5651 64.873 35.5272C64.9107 35.4893 64.9107 35.4514 64.9483 35.4514C64.9859 35.4135 65.0236 35.3757 65.0236 35.3378C65.0612 35.2999 65.0988 35.262 65.0988 35.262C65.1364 35.2241 65.1741 35.1862 65.1741 35.1483C65.2117 35.1105 65.2493 35.0726 65.287 35.0347C65.3246 34.9968 65.3622 34.9589 65.3622 34.9589C65.3998 34.921 65.4375 34.8832 65.5127 34.8453C65.5504 34.8074 65.5504 34.8074 65.588 34.7695C65.6632 34.7316 65.7385 34.6558 65.8138 34.618C65.8514 34.5801 65.889 34.5801 65.889 34.5422C65.9267 34.5043 66.0019 34.4664 66.0395 34.4285C66.0772 34.3906 66.1148 34.3907 66.1524 34.3528C66.1901 34.3149 66.2653 34.277 66.303 34.277C66.3406 34.2391 66.3782 34.2391 66.4158 34.2012C66.4535 34.1633 66.5287 34.1255 66.5664 34.1255C66.604 34.0876 66.6416 34.0876 66.6792 34.0497C66.7169 34.0118 66.7921 34.0118 66.8298 33.9739C66.8674 33.936 66.905 33.936 66.9426 33.8981C67.0179 33.8603 67.0555 33.8603 67.1308 33.8224C67.1684 33.8224 67.206 33.7845 67.2813 33.7845C67.3566 33.7466 67.4318 33.7466 67.4695 33.7087C67.5071 33.7087 67.5447 33.6708 67.62 33.6708C67.6952 33.633 67.7705 33.633 67.8458 33.5951C67.8834 33.5951 67.921 33.5572 67.9586 33.5572C68.0715 33.5193 68.222 33.4814 68.3349 33.4435C69.5391 33.1405 70.8185 32.8374 72.1355 32.5722C72.3989 32.5343 72.6623 32.4585 72.9257 32.4206C73.4525 32.307 73.9793 32.2312 74.5062 32.1176L74.5062 33.633C76.2371 33.633 77.7799 32.7616 78.683 31.3978C79.3603 31.2841 80.0377 31.1704 80.715 31.0568L85.1929 37.5351L83.6125 37.5351L80.7526 37.5351C80.6397 37.5351 80.5268 37.5351 80.4516 37.5351C80.3387 37.5351 80.2634 37.573 80.1506 37.573C78.6077 37.8382 77.366 39.0884 77.1402 40.6416C77.1026 40.8311 77.1026 41.0205 77.1026 41.2099L77.1026 44.3922C77.1026 46.2486 78.4196 47.764 80.1882 48.0292C80.3011 48.0292 80.3763 48.0671 80.4892 48.0671C80.6021 48.0671 80.715 48.0671 80.7903 48.0671L83.6501 48.0671L90.4234 48.0671L93.4713 48.0671C95.5033 48.0671 97.159 46.4001 97.159 44.3543L97.159 41.172C97.159 40.9826 97.1214 40.7932 97.1214 40.6038C96.858 38.8989 95.4657 37.6109 93.7347 37.4972C93.6595 37.4972 93.5842 37.4972 93.509 37.4972L90.461 37.4972L89.5579 37.4972L89.5579 34.7316C90.2352 34.618 90.6491 34.0876 90.6491 33.4435L90.6491 29.6929C91.2512 29.6172 91.8157 29.5414 92.4177 29.4656C93.0198 29.3899 93.5842 29.3141 94.1487 29.2762C97.3095 28.8974 100.358 28.5943 102.992 28.3291C103.481 28.2912 103.932 28.2154 104.421 28.1776C104.647 28.1397 104.873 28.1397 105.099 28.1018C105.287 28.0639 105.513 28.0639 105.701 28.026L105.889 28.4427L105.701 29.8824L103.857 43.8618L101.486 43.6345C100.997 43.5967 100.546 44.127 100.546 44.809ZM19.0029 36.0955L15.8044 36.0955C15.7667 35.9818 15.6915 35.906 15.5786 35.8682L15.5786 34.6937L16.6698 32.5343C17.1966 32.6858 17.7235 32.7995 18.2879 32.951L16.8203 36.0576L18.476 36.0576L19.7554 33.3299C21.0348 33.6708 22.4271 34.0118 23.857 34.3907L23.857 36.5122C23.3302 36.247 22.7282 36.0576 22.0885 36.0576L19.0029 36.0576L19.0029 36.0955ZM15.842 12.3796L15.842 11.6598L19.0029 11.6598L22.1637 11.6598C22.239 11.6598 22.3142 11.6598 22.4271 11.6598C22.9916 11.6219 23.4808 11.4704 23.9323 11.2431L23.9323 13.7813C22.54 14.1223 21.223 14.4633 19.9812 14.8042L18.5137 11.7356L16.858 11.7356L18.5137 15.1831C17.9492 15.3346 17.3848 15.4861 16.8956 15.5998L15.6162 13.0615L15.6162 12.7584C15.7291 12.6827 15.842 12.5311 15.842 12.3796ZM85.9455 17.835C85.8326 17.835 85.6821 17.7971 85.5692 17.7971L85.9455 16.9258L85.9455 17.835ZM85.7573 30.337C85.8326 30.337 85.9078 30.337 85.9455 30.2991L85.9455 30.7916L85.7573 30.337ZM84.2898 15.1831L83.3114 17.494C83.1233 17.4562 82.9351 17.4562 82.7846 17.4183L84.2898 15.1831ZM83.4619 30.6779L84.2898 32.5722L83.0104 30.7537C83.1609 30.7158 83.3114 30.6779 83.4619 30.6779Z" fill="black"/>
</g>
<path d="M30.0659 43.2175L30.0659 39.9216C30.0659 37.8 28.3726 36.0952 26.2654 36.0952L13.1703 36.0952C11.0631 36.0952 9.36978 37.8 9.36978 39.9216L9.36978 43.2175C9.36978 45.3391 11.0631 47.0439 13.1703 47.0439L26.2654 47.0439C28.3726 47.0439 30.0659 45.3012 30.0659 43.2175Z" fill="#242424"/>
<path d="M26.2656 36.0955L13.1706 36.0955C12.9449 36.0955 12.7567 36.1333 12.5309 36.1333L12.5309 46.9684C12.7191 47.0063 12.9449 47.0063 13.1706 47.0063L26.2656 47.0063C26.3409 47.0063 26.4162 47.0063 26.5291 47.0063L26.5291 36.0955C26.4538 36.0955 26.3785 36.0955 26.2656 36.0955Z" fill="#333333"/>
<path d="M23.142 36.0955L16.1429 36.0955C16.03 36.0955 15.9171 36.1333 15.8042 36.1333L15.8042 46.9684C15.9171 47.0063 16.03 47.0063 16.1429 47.0063L23.142 47.0063C23.1796 47.0063 23.2172 47.0063 23.2925 47.0063L23.2925 36.0955C23.2172 36.0955 23.1796 36.0955 23.142 36.0955Z" fill="#3D3D3D"/>
<path d="M9.82128 38.1033C9.74602 38.2548 9.67076 38.4064 9.63313 38.5579L29.8401 38.5579C29.7648 38.4064 29.7272 38.2548 29.6519 38.1033L9.82128 38.1033Z" fill="#0B1114"/>
<path d="M9.40741 39.3154C9.36978 39.467 9.36978 39.6185 9.36978 39.77L30.0659 39.77C30.0659 39.6185 30.0283 39.467 30.0283 39.3154L9.40741 39.3154Z" fill="#0B1114"/>
<path d="M9.82128 45.0359C9.74602 44.8844 9.67076 44.7328 9.63313 44.5813L29.8401 44.5813C29.7648 44.7328 29.7272 44.8844 29.6519 45.0359L9.82128 45.0359Z" fill="#0B1114"/>
<path d="M9.40741 43.7866C9.36978 43.6351 9.36978 43.4836 9.36978 43.332L30.0659 43.332C30.0659 43.4836 30.0283 43.6351 30.0283 43.7866L9.40741 43.7866Z" fill="#0B1114"/>
<path d="M30.0659 4.5373L30.0659 7.83327C30.0659 9.95482 28.3726 11.6596 26.2654 11.6596L13.1703 11.6596C11.0631 11.6596 9.36978 9.95482 9.36978 7.83327L9.36978 4.5373C9.36978 2.41575 11.0631 0.710937 13.1703 0.710937L26.2654 0.710937C28.3726 0.710937 30.0659 2.41575 30.0659 4.5373Z" fill="#242424"/>
<path d="M26.2656 11.6593L13.1706 11.6593C12.9449 11.6593 12.7567 11.6215 12.5309 11.6215L12.5309 0.786419C12.7191 0.748535 12.9449 0.748535 13.1706 0.748535L26.2656 0.748535C26.3409 0.748535 26.4162 0.748535 26.5291 0.748535L26.5291 11.6593C26.4538 11.6215 26.3785 11.6593 26.2656 11.6593Z" fill="#333333"/>
<path d="M23.142 11.6593L16.1429 11.6593C16.03 11.6593 15.9171 11.6215 15.8042 11.6215L15.8042 0.78642C15.9171 0.748535 16.03 0.748535 16.1429 0.748535L23.142 0.748535C23.1796 0.748535 23.2172 0.748535 23.2925 0.748535L23.2925 11.6593C23.2172 11.6215 23.1796 11.6593 23.142 11.6593Z" fill="#3D3D3D"/>
<path d="M9.82128 9.65164C9.74602 9.5001 9.67076 9.34856 9.63313 9.19702L29.8401 9.19702C29.7648 9.34856 29.7272 9.5001 29.6519 9.65164L9.82128 9.65164Z" fill="#0B1114"/>
<path d="M9.40741 8.40164C9.36978 8.2501 9.36978 8.09856 9.36978 7.94702L30.0659 7.94702C30.0659 8.09856 30.0283 8.2501 30.0283 8.40164L9.40741 8.40164Z" fill="#0B1114"/>
<path d="M9.82128 2.71899C9.74602 2.87053 9.67076 3.02207 9.63313 3.17361L29.8401 3.17361C29.7648 3.02207 29.7272 2.87053 29.6519 2.71899L9.82128 2.71899Z" fill="#0B1114"/>
<path d="M9.40741 3.93164C9.36978 4.08318 9.36978 4.23472 9.36978 4.38626L30.0659 4.38626C30.0659 4.23472 30.0283 4.08318 30.0283 3.93164L9.40741 3.93164Z" fill="#0B1114"/>
<path d="M19.7178 36.967L19.7178 11.6221L17.761 11.6221L17.761 36.967L19.7178 36.967Z" fill="black"/>
<path d="M17.1213 31.625L17.1213 16.2817C17.1213 15.5998 17.6857 15.0315 18.3631 15.0315L19.1156 15.0315C19.793 15.0315 20.3574 15.5998 20.3574 16.2817L20.3574 31.625C20.3574 32.307 19.793 32.8752 19.1156 32.8752L18.3631 32.8752C17.6857 32.8752 17.1213 32.307 17.1213 31.625Z" fill="#1F1F1F"/>
<path d="M118.194 24.1242L117.14 0.256836L107.469 0.256835L110.028 19.7675L108.109 24.1242L110.028 28.5189L107.469 48.0295L117.14 48.0295L118.194 24.1242Z" fill="#242424"/>
<path d="M107.733 45.9083L108.862 37.8767L117.479 40.1119L117.216 45.9083L107.733 45.9083Z" fill="#23D1A9"/>
<path d="M104.685 47.0069L104.685 44.8096C104.685 44.1656 105.136 43.6352 105.663 43.6731L117.366 44.8475C117.818 44.8854 118.194 45.3779 118.194 45.984L118.194 47.0069C118.194 47.651 117.78 48.1435 117.291 48.1435L105.55 48.1435C105.061 48.1435 104.685 47.651 104.685 47.0069Z" fill="#242424"/>
<path opacity="0.2" d="M108.184 42.6123L107.733 45.9083L117.215 45.9083L117.328 43.5594L108.184 42.6123Z" fill="black"/>
<path d="M104.685 47.0069L104.685 44.8096C104.685 44.1656 105.136 43.6352 105.663 43.6731L117.366 44.8475C117.818 44.8854 118.194 45.3779 118.194 45.984L118.194 47.0069C118.194 47.651 117.78 48.1435 117.291 48.1435L105.55 48.1435C105.061 48.1435 104.685 47.651 104.685 47.0069Z" fill="#5CFFDA"/>
<path d="M107.733 2.37817L108.862 10.4097L117.479 8.17454L117.216 2.37817L107.733 2.37817Z" fill="#23D1A9"/>
<path d="M104.685 1.27936L104.685 3.47668C104.685 4.12072 105.136 4.65111 105.663 4.61322L117.366 3.40091C117.818 3.36303 118.194 2.87053 118.194 2.26437L118.194 1.27937C118.194 0.635324 117.78 0.142822 117.291 0.142822L105.55 0.142822C105.061 0.142822 104.685 0.635324 104.685 1.27936Z" fill="#242424"/>
<path opacity="0.2" d="M108.185 5.67415L107.733 2.37817L117.216 2.37817L117.329 4.72703L108.185 5.67415Z" fill="black"/>
<path d="M104.685 1.27936L104.685 3.47668C104.685 4.12072 105.136 4.65111 105.663 4.61322L117.366 3.40091C117.818 3.36303 118.194 2.87053 118.194 2.26437L118.194 1.27937C118.194 0.635324 117.78 0.142822 117.291 0.142822L105.55 0.142822C105.061 0.142822 104.685 0.635324 104.685 1.27936Z" fill="#5CFFDA"/>
<path d="M117.93 18.1758C116.726 17.7212 115.334 17.4939 113.904 17.4939C112.437 17.4939 111.044 17.7591 109.803 18.2137L109.991 19.767L108.072 24.1237L109.991 28.4805L109.803 29.9201C111.044 30.3747 112.399 30.6399 113.866 30.6399C115.334 30.6399 116.689 30.3747 117.893 29.958L118.194 24.1237L117.93 18.1758Z" fill="#0A0A0A"/>
<path d="M59.3414 42.0819L60.0564 41.7031L60.0564 6.47024L59.3414 6.09139C57.0084 4.76542 54.3367 4.0835 51.665 4.0835L28.0338 4.08349L28.0338 24.0867L28.0338 44.0898L51.665 44.0898C54.3367 44.0898 57.0084 43.4079 59.3414 42.0819Z" fill="#242424"/>
<path opacity="0.2" d="M59.3417 38.747L60.0566 38.4439L60.0566 9.76513L59.3417 9.46205C57.0087 8.40128 54.337 7.83301 51.6653 7.83301L28.0341 7.83301L28.0341 24.1235L28.0341 40.4139L51.6653 40.4139C54.337 40.376 57.0087 39.8078 59.3417 38.747Z" fill="black"/>
<path d="M59.3414 7.41736L60.0564 7.7962L60.0564 6.47024L59.3414 6.09139C57.0084 4.76542 54.3367 4.0835 51.665 4.0835L28.0338 4.08349L28.0338 5.59889L51.665 5.59889C54.3367 5.561 57.0084 6.20504 59.3414 7.41736Z" fill="#1FBD99"/>
<path d="M59.3417 42.0808L60.0566 41.7019L60.0566 40.376L59.3417 40.7548C57.0087 41.9671 54.337 42.6112 51.6653 42.6112L28.0341 42.6112L28.0341 44.1266L51.6653 44.1266C54.337 44.0887 57.0087 43.4068 59.3417 42.0808Z" fill="#1FBD99"/>
<path d="M28.0339 46.1731L28.0339 33.5574C28.0339 33.2922 28.2597 33.0649 28.5231 33.0649L29.5767 33.0649C29.8401 33.0649 30.0659 33.2922 30.0659 33.5574L30.0659 45.0744C30.0659 45.9458 29.3886 46.6277 28.5231 46.6277C28.2597 46.6656 28.0339 46.4383 28.0339 46.1731Z" fill="#168F74"/>
<path d="M28.0339 1.69632L28.0339 14.3119C28.0339 14.5771 28.2597 14.8044 28.5231 14.8044L29.5767 14.8044C29.8401 14.8044 30.0659 14.5771 30.0659 14.3119L30.0659 2.79497C30.0659 1.92363 29.3886 1.2417 28.5231 1.2417C28.2597 1.2417 28.0339 1.43112 28.0339 1.69632Z" fill="#168F74"/>
<path d="M46.3968 10.7883L46.3968 7.34083C46.3968 5.63602 47.6009 4.15851 49.2566 3.81755L51.4767 3.36293C52.2669 3.21139 53.0195 3.81755 53.0195 4.61313L53.0195 10.7883C53.0195 11.5082 52.4551 12.0764 51.7401 12.0764L47.6385 12.0764C46.9612 12.0764 46.3968 11.5082 46.3968 10.7883Z" fill="#168F74"/>
<path d="M46.3968 37.0041L46.3968 40.4517C46.3968 42.1565 47.6009 43.634 49.2566 43.9749L51.4767 44.4296C52.2669 44.5811 53.0195 43.9749 53.0195 43.1794L53.0195 37.0041C53.0195 36.2843 52.4551 35.7161 51.7401 35.7161L47.6385 35.7161C46.9612 35.7161 46.3968 36.2843 46.3968 37.0041Z" fill="#168F74"/>
<path d="M78.7582 33.6327L78.7582 14.5767C81.5428 14.5767 83.8005 16.8497 83.8005 19.6532L83.8005 28.5561C83.7629 31.3596 81.5428 33.6327 78.7582 33.6327Z" fill="#242424"/>
<path d="M91.3263 39.3535L84.6659 23.8586L91.3263 8.40161L93.7346 8.40161L87.0742 23.8586L93.7346 39.3535L91.3263 39.3535Z" fill="#0A0A0A"/>
<path d="M90.6869 39.3535L80.0002 23.8586L90.6869 8.40161L93.0952 8.40161L82.4085 23.8586L93.0952 39.3535L90.6869 39.3535Z" fill="#242424"/>
<path d="M93.7344 37.9518L93.7344 10.2581L91.0627 10.2581L91.0627 37.9518L93.7344 37.9518Z" fill="#383838"/>
<path d="M90.0844 33.4439L90.0844 14.8046C90.0844 14.0469 90.7241 13.4028 91.4767 13.4028L93.3958 13.4028C94.1484 13.4028 94.7881 14.0469 94.7881 14.8046L94.7881 33.4439C94.7881 34.2016 94.1484 34.8456 93.3958 34.8456L91.4767 34.8456C90.6865 34.8456 90.0844 34.2395 90.0844 33.4439Z" fill="#242424"/>
<path d="M101.374 7.03785L101.374 3.85553C101.374 1.80975 99.7181 0.142822 97.6861 0.142822L85.005 0.142822C82.973 0.142821 81.3173 1.80975 81.3173 3.85553L81.3173 7.03785C81.3173 9.08362 82.973 10.7506 85.005 10.7506L97.6861 10.7506C99.7181 10.7127 101.374 9.08363 101.374 7.03785Z" fill="#242424"/>
<path d="M97.6858 0.142822L85.0048 0.142822C84.779 0.142822 84.5908 0.180706 84.4027 0.180706L84.4027 10.6748C84.5908 10.7127 84.8166 10.7127 85.0048 10.7127L97.6858 10.7127C97.7611 10.7127 97.8364 10.7127 97.9116 10.7127L97.9116 0.142822C97.8364 0.142822 97.7611 0.142822 97.6858 0.142822Z" fill="#333333"/>
<path d="M94.6378 0.142822L87.8646 0.142822C87.7517 0.142822 87.6388 0.180707 87.5259 0.180707L87.5259 10.6748C87.6388 10.7127 87.7517 10.7127 87.8646 10.7127L94.6378 10.7127C94.6755 10.7127 94.7131 10.7127 94.7507 10.7127L94.7507 0.142822C94.7131 0.142822 94.6755 0.142822 94.6378 0.142822Z" fill="#3D3D3D"/>
<path d="M81.7686 2.07471C81.6933 2.22625 81.6181 2.3399 81.5804 2.49144L101.148 2.49144C101.072 2.3399 101.035 2.18836 100.96 2.07471L81.7686 2.07471Z" fill="#0B1114"/>
<path d="M81.355 3.24951C81.3173 3.40105 81.3173 3.5147 81.3173 3.66624L101.374 3.66624C101.374 3.51471 101.336 3.36317 101.336 3.24951L81.355 3.24951Z" fill="#0B1114"/>
<path d="M81.7686 8.78123C81.6933 8.62969 81.6181 8.51604 81.5804 8.3645L101.148 8.3645C101.072 8.51604 101.035 8.66758 100.96 8.78123L81.7686 8.78123Z" fill="#0B1114"/>
<path d="M81.355 7.60618C81.3173 7.45465 81.3173 7.34099 81.3173 7.18945L101.374 7.18945C101.374 7.34099 101.336 7.49253 101.336 7.60619L81.355 7.60618Z" fill="#0B1114"/>
<path d="M101.374 44.4307L101.374 41.2484C101.374 39.2026 99.7181 37.5356 97.6861 37.5356L85.005 37.5356C82.973 37.5356 81.3173 39.2026 81.3173 41.2484L81.3173 44.4307C81.3173 46.4764 82.973 48.1434 85.005 48.1434L97.6861 48.1434C99.7181 48.1434 101.374 46.4764 101.374 44.4307Z" fill="#242424"/>
<path d="M97.6858 37.5352L85.0048 37.5352C84.779 37.5352 84.5908 37.573 84.4027 37.573L84.4027 48.0671C84.5908 48.105 84.8166 48.105 85.0048 48.105L97.6858 48.105C97.7611 48.105 97.8364 48.105 97.9116 48.105L97.9116 37.5352C97.8364 37.573 97.7611 37.5352 97.6858 37.5352Z" fill="#333333"/>
<path d="M94.6378 37.5352L87.8646 37.5352C87.7517 37.5352 87.6388 37.573 87.5259 37.573L87.5259 48.0671C87.6388 48.105 87.7517 48.105 87.8646 48.105L94.6378 48.105C94.6755 48.105 94.7131 48.105 94.7507 48.105L94.7507 37.573C94.7131 37.573 94.6755 37.5352 94.6378 37.5352Z" fill="#3D3D3D"/>
<path d="M81.7688 39.4668C81.6936 39.6183 81.6183 39.732 81.5807 39.8835L101.148 39.8835C101.073 39.732 101.035 39.5805 100.96 39.4668L81.7688 39.4668Z" fill="#0B1114"/>
<path d="M81.355 40.6794C81.3173 40.831 81.3173 40.9446 81.3173 41.0962L101.374 41.0962C101.374 40.9446 101.336 40.7931 101.336 40.6794L81.355 40.6794Z" fill="#0B1114"/>
<path d="M81.7686 46.2104C81.6933 46.0589 81.6181 45.9452 81.5804 45.7937L101.148 45.7937C101.072 45.9452 101.035 46.0968 100.96 46.2104L81.7686 46.2104Z" fill="#0B1114"/>
<path d="M81.355 44.9978C81.3173 44.8462 81.3173 44.7326 81.3173 44.5811L101.374 44.5811C101.374 44.7326 101.336 44.8841 101.336 44.9978L81.355 44.9978Z" fill="#0B1114"/>
<path d="M72.5491 33.4434C87.9019 29.617 115.447 27.7986 117.441 27.1924C118.118 26.9651 120.037 25.4876 120 24.0859C120.037 22.6841 118.118 21.1687 117.441 20.9793C115.409 20.3731 87.9019 18.5547 72.5491 14.7283C64.7598 12.7583 70.7429 4.49942 57.0458 6.92404C46.6977 8.74251 16.2179 16.812 16.2179 16.812C14.4117 17.2287 13.17 18.8577 13.17 20.7141L13.17 24.0858L13.17 27.4576C13.17 29.3139 14.4493 30.943 16.2179 31.3597C16.2179 31.3597 46.7353 39.4292 57.0834 41.2855C70.7429 43.6723 64.7598 35.4134 72.5491 33.4434Z" fill="#D5D6D6"/>
<path d="M72.5491 33.4434C87.9019 29.617 115.447 27.7986 117.441 27.1924C118.118 26.9651 120.037 25.4876 120 24.0859C120.037 22.6841 118.118 21.1687 117.441 20.9793C115.409 20.3731 87.9019 18.5547 72.5491 14.7283C64.7598 12.7583 70.7429 4.49942 57.0458 6.92404C46.6977 8.74251 16.2179 16.812 16.2179 16.812C14.4117 17.2287 13.17 18.8577 13.17 20.7141L13.17 24.0858L13.17 27.4576C13.17 29.3139 14.4493 30.943 16.2179 31.3597C16.2179 31.3597 46.7353 39.4292 57.0834 41.2855C70.7429 43.6723 64.7598 35.4134 72.5491 33.4434Z" fill="#23D1A9"/>
<path d="M16.2182 30.791C14.412 30.3743 13.1702 28.8968 13.1702 27.1541L13.1702 27.4192C13.1702 29.2756 14.4496 30.9046 16.2182 31.3214C16.2182 31.3214 46.7356 39.3908 57.0836 41.2472C70.7431 43.6718 16.2182 30.791 16.2182 30.791Z" fill="#0A0A0A"/>
<path d="M16.2182 17.3424C14.412 17.7591 13.1702 19.2366 13.1702 20.9793L13.1702 20.7141C13.1702 18.8577 14.4496 17.2287 16.2182 16.812C16.2182 16.812 46.7356 8.74251 57.0836 6.88616C70.7431 4.46154 16.2182 17.3424 16.2182 17.3424Z" fill="#0A0A0A"/>
<path d="M16.1428 31.8143L16.1428 16.0542L25.2114 16.0542C26.4908 16.0542 27.5068 17.0771 27.5068 18.3652L27.5068 29.5033C27.5068 30.7914 26.4908 31.8143 25.2114 31.8143L16.1428 31.8143Z" fill="#333333"/>
<path d="M72.5491 30.9055C87.9019 28.102 115.447 26.8139 117.441 26.3593C118.118 26.2078 120.037 25.1091 120 24.0862C120.037 23.0633 118.118 21.9647 117.441 21.8131C115.409 21.3585 87.9019 20.0326 72.5491 17.2291C64.7598 15.7895 70.7429 9.76578 57.0458 11.5464C46.6977 12.8723 16.1803 18.7824 16.1803 18.7824C14.3741 19.0854 13.1323 20.2977 13.1323 21.6237L13.1323 24.0862L13.1323 26.5487C13.1323 27.9126 14.4117 29.087 16.1803 29.3901C16.1803 29.3901 46.6977 35.2622 57.0458 36.6261C70.7429 38.3688 64.7598 32.3451 72.5491 30.9055Z" fill="#5CFFDA"/>
<path d="M22.653 36.0955L24.685 31.8145C24.7979 31.5872 24.6473 31.322 24.3839 31.322L23.4808 31.322C23.368 31.322 23.2174 31.3978 23.1798 31.5114L20.9973 36.0955L22.653 36.0955Z" fill="#1A1A1A"/>
<path d="M19.0407 36.0957L21.6747 30.9055C21.7876 30.7161 21.6371 30.4888 21.4113 30.4888L20.6587 30.4888C20.5459 30.4888 20.4706 30.5645 20.3953 30.6403L17.6108 36.0957L19.0407 36.0957Z" fill="#1A1A1A"/>
<path d="M22.653 11.6594L24.685 15.9404C24.7979 16.1677 24.6473 16.4329 24.3839 16.4329L23.4808 16.4329C23.368 16.4329 23.2174 16.3571 23.1798 16.2435L20.9973 11.6594L22.653 11.6594Z" fill="#1A1A1A"/>
<path d="M19.0407 11.6594L21.6747 16.8496C21.7876 17.0391 21.6371 17.2664 21.4113 17.2664L20.6587 17.2664C20.5459 17.2664 20.4706 17.1906 20.3953 17.1148L17.6484 11.6594L19.0407 11.6594Z" fill="#1A1A1A"/>
<path d="M72.5491 16.3575C87.9019 19.5398 115.447 21.0174 117.441 21.5099C118.118 21.6993 120.037 22.9116 120 24.086C120.037 22.6843 118.118 21.1689 117.441 20.9795C115.409 20.3733 87.9019 18.5548 72.5491 14.7285C68.2217 13.6298 68.1465 10.599 66.566 8.51538C66.566 8.51538 68.2217 15.4483 72.5491 16.3575Z" fill="#0A0A0A"/>
<path d="M72.5491 31.8147C87.9019 28.6324 115.447 27.1548 117.441 26.6245C118.118 26.4729 120.037 25.2227 120 24.0862C120.037 25.4879 118.118 27.0033 117.441 27.1927C115.409 27.7989 87.9019 29.6174 72.5491 33.4437C68.2217 34.5424 68.1465 37.5732 66.566 39.6568C66.566 39.6568 68.2217 32.7239 72.5491 31.8147Z" fill="#0A0A0A"/>
<path opacity="0.2" d="M65.6255 29.6929L65.6255 24.086L65.6255 18.5169C65.6255 11.5461 53.3583 13.9707 37.9679 16.6605C26.7544 18.6306 20.9971 20.4869 20.9971 20.4869C19.2285 20.8658 17.9867 22.3433 17.9867 24.1238C17.9867 25.9044 19.2285 27.3819 20.9971 27.7608C20.9971 27.7608 26.7544 29.6171 37.9679 31.5871C53.3583 34.2391 65.6255 36.6637 65.6255 29.6929Z" fill="black"/>
<path d="M64.9106 29.1627L64.9106 24.0861L64.9106 19.0475C64.9106 12.7207 53.1703 14.918 38.4572 17.3805C27.7328 19.1611 22.239 20.828 22.239 20.828C20.5456 21.169 19.3791 22.5329 19.3791 24.124C19.3791 25.7152 20.5833 27.079 22.239 27.42C22.239 27.42 27.7705 29.0869 38.4572 30.8675C53.1703 33.2921 64.9106 35.4894 64.9106 29.1627Z" fill="#242424"/>
<path d="M21.4489 21.8508C21.4489 21.8508 25.4 20.7142 33.0763 19.5019C43.6126 17.835 52.0039 16.3196 52.0039 20.6384L52.0039 20.1459C52.0039 15.183 43.6126 16.9257 33.0763 18.82C25.4 20.2217 21.4489 21.5098 21.4489 21.5098C20.2447 21.775 19.3793 22.8358 19.3793 24.086C19.3793 23.0252 20.2447 22.0781 21.4489 21.8508Z" fill="#FEFFFF"/>
<path d="M51.9663 28.0633L51.9663 27.5708C51.9663 31.8897 43.575 30.3743 33.0388 28.7073C25.3624 27.495 21.4113 26.3585 21.4113 26.3585C20.2071 26.1312 19.3417 25.1841 19.3417 24.1233C19.3417 25.3735 20.2071 26.4343 21.4113 26.6995C21.4113 26.6995 25.3624 28.0254 33.0388 29.3893C43.575 31.2835 51.9663 33.0262 51.9663 28.0633Z" fill="#FEFFFF"/>
<path d="M20.3578 27.7611L15.7294 33.9742C15.5036 34.2773 15.7294 34.7319 16.1057 34.7319L18.2506 34.7319C18.4011 34.7319 18.5516 34.6561 18.6269 34.5424L23.6692 27.799C23.895 27.4959 23.6692 27.0413 23.2929 27.0413L21.8254 27.0413C21.2233 27.0413 20.6965 27.3065 20.3578 27.7611Z" fill="#139174"/>
<path d="M20.3578 20.8277L15.7294 14.6146C15.5036 14.3116 15.7294 13.8569 16.1057 13.8569L18.2506 13.8569C18.4011 13.8569 18.5516 13.9327 18.6269 14.0464L23.6692 20.7898C23.895 21.0929 23.6692 21.5475 23.2929 21.5475L21.8254 21.5475C21.2233 21.5475 20.6965 21.2823 20.3578 20.8277Z" fill="#139174"/>
<path d="M17.9871 25.3364L17.9871 22.9875L23.1799 22.9875C23.5186 22.9875 23.782 23.2527 23.782 23.5937L23.782 24.7681C23.782 25.1091 23.5186 25.3743 23.1799 25.3743L17.9871 25.3743L17.9871 25.3364Z" fill="#139174"/>
<path d="M7.63899 36.3613L8.42921 24.9201C8.46684 24.5413 8.46684 24.1245 8.42921 23.7457L7.63899 12.2666L19.5675 12.2666L20.2448 22.8364C20.3201 23.8215 20.3201 24.8065 20.2448 25.7536L19.5675 36.3234L7.63899 36.3234L7.63899 36.3613Z" fill="#23D1A9"/>
<path d="M20.2827 25.7536C20.3579 24.7686 20.3579 23.7836 20.2827 22.8365L19.5677 12.2666L16.3316 12.2666L17.0089 22.8365C17.0842 23.8215 17.0842 24.8065 17.0089 25.7536L16.3316 36.3234L19.5677 36.3234L20.2827 25.7536Z" fill="#1FBD99"/>
<g clip-path="url(#clip1_304_8446)">
<path d="M15.3065 19.7761L18.7771 18.8087L18.7771 18.1253L12.8553 19.7761L10.5954 19.7761L18.7771 17.4956L18.7771 16.8123L9.36977 19.4345L9.36977 19.7761L9.36977 20.1176L9.36977 20.4592L18.7771 20.4592L18.7771 19.7761L15.3065 19.7761Z" fill="#1FBD99"/>
<path d="M9.36977 31.938L18.7771 29.3157L18.7771 28.9741L18.7771 28.6324L18.7771 28.2908L9.36996 28.2908L9.36996 28.9741L11.0812 30.7776L9.36996 31.2547L9.36996 31.938L9.36977 31.938ZM13.2568 30.1714L12.1215 28.9743L17.5515 28.9743L13.2568 30.1714ZM10.2869 28.9741L11.2051 28.9741L12.5321 30.3732L11.806 30.5757L10.2869 28.9741Z" fill="#1FBD99"/>
<path d="M18.7771 21.8982L18.7771 21.5565L18.7771 21.2148L9.36996 21.2148L9.36996 21.8982L11.0812 23.7017L9.36996 24.1787L9.36996 24.862L18.7771 22.2396L18.7771 21.8982ZM13.2568 23.0952L12.1215 21.8982L17.5515 21.8982L13.2568 23.0952ZM10.2869 21.8982L11.2051 21.8982L12.5321 23.2973L11.806 23.4998L10.2869 21.8982Z" fill="#1FBD99"/>
<path d="M12.9646 27.6991L18.7771 26.0789L18.7771 25.7373L18.7771 25.3956L18.7771 25.054L9.36996 25.054L9.36996 25.7373L11.1144 25.7373L11.7097 26.365L9.36996 27.0172L9.37471 27.6991L12.2223 26.9054L12.4604 27.1564L12.9646 27.6991ZM12.0308 25.7373L17.5515 25.7373L13.1851 26.9543L12.0308 25.7373Z" fill="#1FBD99"/>
</g>
<g opacity="0.1">
<path d="M14.6007 12.8349C16.4445 12.8349 18.1755 13.2895 19.7183 14.0472L19.6054 12.2666L7.67687 12.2666L7.86501 15.0701C9.70885 13.6305 12.0795 12.8349 14.6007 12.8349Z" fill="black"/>
<path d="M19.718 34.5795C18.1752 35.3751 16.4443 35.7918 14.6004 35.7918C12.0793 35.7918 9.74624 34.9584 7.82714 33.5566L7.639 36.3601L19.5675 36.3601L19.718 34.5795Z" fill="black"/>
</g>
<path d="M4.10189 12.3803C4.10189 12.5698 4.25241 12.7213 4.44056 12.7213L19.6052 12.7213C19.7933 12.7213 19.9438 12.5698 19.9438 12.3803L19.9438 11.0165C19.9438 10.8271 19.7557 10.6376 19.5676 10.6755L4.40292 12.0394C4.25241 12.0394 4.10189 12.1909 4.10189 12.3803Z" fill="#168F74"/>
<path d="M4.10189 36.2091C4.10189 36.0197 4.25241 35.8682 4.44056 35.8682L19.6052 35.8682C19.7933 35.8682 19.9438 36.0197 19.9438 36.2091L19.9438 37.573C19.9438 37.7624 19.7557 37.9518 19.5676 37.9139L4.40292 36.5501C4.25241 36.5501 4.10189 36.3985 4.10189 36.2091Z" fill="#168F74"/>
<path opacity="0.2" d="M46.0957 22.9492C46.0957 22.5325 46.3215 22.1537 46.6225 21.9642L46.2839 20.0321C46.2839 19.9942 46.2839 19.9185 46.2839 19.8806C46.2839 19.426 46.6225 19.0471 47.0365 19.0471L48.1653 19.0471C48.504 19.0471 48.8427 19.3123 48.8803 19.729L49.2566 21.8506C49.7458 21.9264 50.1221 22.381 50.1221 22.9492L50.1221 25.2223C50.1221 25.7906 49.7458 26.2452 49.2566 26.321L48.8803 28.4425C48.805 28.8214 48.504 29.1245 48.1653 29.1245L47.0365 29.1245C46.8483 29.1245 46.6602 29.0487 46.5096 28.8972C46.3591 28.7456 46.2839 28.5183 46.2839 28.3289C46.2839 28.291 46.2839 28.2152 46.2839 28.1773L46.6225 26.2452C46.2839 26.0558 46.0957 25.677 46.0957 25.2602L46.0957 22.9492Z" fill="black"/>
<path d="M46.5853 24.9577L46.5853 23.1772C46.5853 22.4952 47.1122 21.9648 47.7895 21.9648L49.5581 21.9648C50.2354 21.9648 50.7622 22.4952 50.7622 23.1772L50.7622 24.9577C50.7622 25.6397 50.2354 26.1701 49.5581 26.1701L47.7895 26.1701C47.1122 26.1701 46.5853 25.6397 46.5853 24.9577Z" fill="#0B1114"/>
<path d="M46.8107 28.4047L47.6385 24.1994C47.6385 24.1237 47.6385 24.0479 47.6385 23.9721L46.8107 19.7669C46.7354 19.3881 46.9988 19.0471 47.3751 19.0471L48.6922 19.0471C48.9556 19.0471 49.219 19.2365 49.2566 19.5396L50.1221 23.9721C50.1221 24.0479 50.1221 24.1237 50.1221 24.1994L49.2566 28.632C49.219 28.8972 48.9556 29.1245 48.6922 29.1245L47.3751 29.1245C47.0365 29.1245 46.7354 28.7835 46.8107 28.4047Z" fill="#0B1114"/>
<path opacity="0.2" d="M61.8251 28.5188L61.8251 19.6538L66.2277 19.6538C68.6736 19.6538 70.6304 21.6238 70.6304 24.0863C70.6304 26.5488 68.6736 28.5188 66.2277 28.5188L61.8251 28.5188Z" fill="black"/>
<path d="M69.0498 24.0856C69.0498 20.9033 66.491 18.365 63.3678 18.365L53.8099 18.365C52.7939 18.365 52.0037 19.1985 52.0037 20.1835L52.0037 27.9877C52.0037 29.0106 52.8316 29.8062 53.8099 29.8062L63.3678 29.8062C66.491 29.8062 69.0498 27.23 69.0498 24.0856Z" fill="#0A0A0A"/>
<mask id="mask0_304_8446" style="mask-type:luminance" maskUnits="userSpaceOnUse" x="52" y="18" width="17" height="12">
<path d="M52.6436 27.6469L52.6436 20.5246C52.6437 19.6154 53.3962 18.8577 54.2993 18.8577L62.9917 18.8577C65.8515 18.8577 68.1846 21.2065 68.1846 24.0858C68.1846 26.965 65.8515 29.3139 62.9917 29.3139L54.2993 29.3139C53.3962 29.3139 52.6436 28.5562 52.6436 27.6469Z" fill="white"/>
</mask>
<g mask="url(#mask0_304_8446)">
<path d="M62.8035 29.7689L62.8035 18.0247L53.5843 18.0247L53.5843 29.7689L62.8035 29.7689Z" fill="#168F74"/>
</g>
<mask id="mask1_304_8446" style="mask-type:luminance" maskUnits="userSpaceOnUse" x="52" y="18" width="17" height="12">
<path d="M52.6436 27.6469L52.6436 20.5246C52.6437 19.6154 53.3962 18.8577 54.2993 18.8577L62.9917 18.8577C65.8515 18.8577 68.1846 21.2065 68.1846 24.0858C68.1846 26.965 65.8515 29.3139 62.9917 29.3139L54.2993 29.3139C53.3962 29.3139 52.6436 28.5562 52.6436 27.6469Z" fill="white"/>
</mask>
<g mask="url(#mask1_304_8446)">
<path d="M56.9336 24.1991L56.9336 20.8652L68.1848 20.8652L68.1848 23.5551L56.9336 24.1991Z" fill="#0B1114"/>
</g>
<mask id="mask2_304_8446" style="mask-type:luminance" maskUnits="userSpaceOnUse" x="52" y="18" width="17" height="12">
<path d="M52.6436 27.6469L52.6436 20.5246C52.6437 19.6154 53.3962 18.8577 54.2993 18.8577L62.9917 18.8577C65.8515 18.8577 68.1846 21.2065 68.1846 24.0858C68.1846 26.965 65.8515 29.3139 62.9917 29.3139L54.2993 29.3139C53.3962 29.3139 52.6436 28.5562 52.6436 27.6469Z" fill="white"/>
</mask>
<g mask="url(#mask2_304_8446)">
<path d="M56.9332 27.3061L56.9332 23.8965L68.3726 24.6163L68.3726 27.3061L56.9332 27.3061Z" fill="#0B1114"/>
</g>
<mask id="mask3_304_8446" style="mask-type:luminance" maskUnits="userSpaceOnUse" x="52" y="18" width="17" height="12">
<path d="M52.6436 27.6469L52.6436 20.5246C52.6437 19.6154 53.3962 18.8577 54.2993 18.8577L62.9917 18.8577C65.8515 18.8577 68.1846 21.2065 68.1846 24.0858C68.1846 26.965 65.8515 29.3139 62.9917 29.3139L54.2993 29.3139C53.3962 29.3139 52.6436 28.5562 52.6436 27.6469Z" fill="white"/>
</mask>
<g mask="url(#mask3_304_8446)">
<path d="M51.703 29.9201L51.703 18.2516C51.703 17.7212 52.1169 17.3044 52.6437 17.3044C53.1705 17.3044 53.5845 17.7212 53.5845 18.2516L53.5845 29.958C53.5845 30.4883 53.1705 30.9051 52.6437 30.9051C52.1169 30.8672 51.703 30.4505 51.703 29.9201Z" fill="#23D1A9"/>
<path d="M66.5668 27.6475L66.3034 26.17C66.2658 25.9427 66.0024 25.7911 65.8142 25.9048C64.1962 26.511 60.8095 26.8519 59.4549 26.9656C59.4549 26.8898 59.4549 26.814 59.4549 26.7383L59.4549 24.1242L59.4549 21.5102C59.4549 21.4344 59.4549 21.3586 59.4549 21.2829C60.8095 21.3965 64.1585 21.7375 65.7766 22.3436C66.0024 22.4194 66.2658 22.2679 66.2658 22.0406L66.4539 20.563C66.4916 20.4115 66.3787 20.26 66.2282 20.1842C63.9328 19.1234 58.5894 18.4415 56.5198 18.593C55.0522 18.7067 53.5847 19.919 53.5847 21.5481L53.5847 24.1621L53.5847 26.7762C53.5847 28.4052 55.0522 29.6175 56.5198 29.7312C58.5894 29.8827 64.0833 29.1629 66.3787 28.1021C66.5292 27.9885 66.6045 27.799 66.5668 27.6475Z" fill="#242424"/>
<path opacity="0.18" d="M55.9175 27.3822C55.9928 27.3822 56.068 27.3822 56.1809 27.4201L56.2185 27.4201C56.2938 27.4201 56.4067 27.4201 56.4819 27.4201C56.5572 27.4201 56.6325 27.4201 56.7077 27.4201C56.783 27.4201 56.8582 27.4201 56.9335 27.4201C57.0087 27.4201 57.1216 27.4201 57.1969 27.4201C57.2345 27.4201 57.2345 27.4201 57.2722 27.4201C57.3474 27.4201 57.4227 27.4201 57.4979 27.3822C57.4979 27.3822 57.4979 27.3822 57.5356 27.3822C57.6108 27.3822 57.7237 27.3444 57.799 27.3444L57.8366 27.3444C57.9119 27.3444 57.9871 27.3065 58.1 27.3065C58.1753 27.2686 58.2881 27.2686 58.3634 27.2307C58.4387 27.1928 58.5516 27.1928 58.6268 27.1549C58.815 27.0792 58.9655 27.0034 59.1536 26.9276C59.7557 26.6246 60.2825 26.2078 60.6588 25.7153C60.6964 25.6774 60.7341 25.6017 60.7717 25.5638C60.8846 25.4122 60.9598 25.2228 61.0351 25.0334C61.0351 24.9955 61.0727 24.9197 61.0727 24.8819L61.0727 24.844C61.0727 24.8061 61.1104 24.7682 61.1104 24.7303C61.1104 24.6924 61.1104 24.6924 61.1104 24.6545C61.1104 24.6167 61.1104 24.5788 61.1104 24.5409L61.1104 24.503C61.1104 24.4272 61.1104 24.3894 61.1104 24.3136C61.1104 24.2378 61.1104 24.1999 61.1104 24.1242L61.1104 24.0863C61.1104 24.0484 61.1104 24.0105 61.1104 23.9726C61.1104 23.9347 61.1104 23.9347 61.1104 23.8969C61.1104 23.859 61.1103 23.8211 61.0727 23.7832L61.0727 23.7453C61.0727 23.7074 61.0351 23.6317 61.0351 23.5938C60.9598 23.4043 60.8846 23.2528 60.7717 23.0634C60.7341 23.0255 60.6964 22.9497 60.6588 22.9118C60.3201 22.4193 59.7933 22.0026 59.1536 21.6995C59.0031 21.6238 58.815 21.548 58.6268 21.4722C58.5516 21.4343 58.4387 21.3965 58.3634 21.3965C58.2881 21.3586 58.1753 21.3586 58.1 21.3207C58.0247 21.3207 57.9495 21.2828 57.8366 21.2828L57.799 21.2828C57.7237 21.2828 57.6108 21.2449 57.5356 21.2449C57.5356 21.2449 57.5356 21.2449 57.4979 21.2449C57.4227 21.2449 57.3474 21.2449 57.2722 21.207C57.2345 21.207 57.2345 21.207 57.1969 21.207C57.1216 21.207 57.0087 21.207 56.9335 21.207C56.8582 21.207 56.783 21.207 56.7077 21.207C56.6325 21.207 56.5572 21.207 56.4819 21.207C56.4067 21.207 56.2938 21.207 56.2185 21.207L56.1809 21.207C55.052 21.2828 54.2242 21.7374 53.735 22.3815C53.6974 22.4572 53.6597 22.4951 53.6221 22.5709C53.5845 22.6467 53.5469 22.6845 53.5092 22.7603C53.5092 22.7603 53.5092 22.7603 53.5092 22.7982C53.4716 22.874 53.434 22.9118 53.434 22.9876C53.3963 23.0634 53.3963 23.1013 53.3587 23.177L53.3587 23.2149C53.3211 23.2907 53.3211 23.3286 53.2834 23.4043C53.2834 23.4801 53.2458 23.5559 53.2458 23.6317L53.2458 23.6695C53.2458 23.7453 53.2082 23.8211 53.2082 23.859C53.2082 23.9347 53.2082 24.0105 53.1706 24.0863L53.1706 24.1242C53.1706 24.1999 53.1706 24.2757 53.1706 24.3515C53.1706 24.4272 53.1706 24.503 53.1706 24.5788L53.1706 24.6167C53.1706 24.6924 53.1706 24.7682 53.2082 24.844C53.2082 24.9197 53.2458 24.9955 53.2458 25.0334L53.2458 25.0713C53.2458 25.147 53.2834 25.2228 53.2834 25.2986C53.2834 25.3744 53.3211 25.4122 53.3587 25.488L53.3587 25.5259C53.3963 25.6017 53.3963 25.6774 53.434 25.7153C53.4716 25.7911 53.5092 25.829 53.5092 25.9047C53.5092 25.9047 53.5092 25.9047 53.5092 25.9426C53.5469 26.0184 53.5845 26.0563 53.6221 26.1321C53.6597 26.2078 53.6974 26.2457 53.735 26.3215C54.0737 26.7382 54.4876 27.0792 55.0897 27.3065C55.3154 27.2686 55.5788 27.3444 55.9175 27.3822ZM59.0784 26.4351L59.116 26.3972C59.0784 26.4351 59.0784 26.4351 59.0784 26.4351ZM59.1536 26.3215L59.1913 26.2836C59.1913 26.3215 59.1913 26.3215 59.1536 26.3215ZM59.417 25.9805C59.417 25.9426 59.4547 25.9426 59.4547 25.9047C59.4547 25.9426 59.4547 25.9426 59.417 25.9805ZM59.4923 25.8669C59.4923 25.829 59.5299 25.829 59.5299 25.7911C59.5299 25.829 59.5299 25.829 59.4923 25.8669ZM59.5675 25.7153C59.5675 25.6774 59.6052 25.6774 59.6052 25.6396C59.6052 25.6774 59.5675 25.7153 59.5675 25.7153ZM59.6428 25.6017C59.6428 25.5638 59.6428 25.5638 59.6804 25.5259C59.6428 25.5259 59.6428 25.5638 59.6428 25.6017ZM59.6804 25.4501C59.6804 25.4122 59.6804 25.4122 59.7181 25.3744C59.7181 25.4122 59.7181 25.4122 59.6804 25.4501ZM59.7933 25.147C59.7933 25.1092 59.7933 25.1092 59.831 25.0713C59.7933 25.1092 59.7933 25.147 59.7933 25.147ZM59.1536 22.1163L59.1913 22.1542C59.1913 22.1542 59.1913 22.1163 59.1536 22.1163ZM59.6804 22.9876C59.6804 23.0255 59.6804 23.0255 59.7181 23.0634C59.7181 23.0634 59.7181 23.0255 59.6804 22.9876ZM59.6804 22.9118C59.6804 22.874 59.6804 22.874 59.6428 22.8361C59.6428 22.874 59.6428 22.9118 59.6804 22.9118ZM59.5299 22.6467C59.5299 22.6088 59.4923 22.6088 59.4923 22.5709C59.5299 22.6088 59.5299 22.6467 59.5299 22.6467ZM59.4547 22.533C59.4547 22.4951 59.417 22.4951 59.417 22.4572C59.4547 22.4951 59.4547 22.4951 59.4547 22.533ZM58.2129 21.3965L58.2505 21.3965C58.2129 21.3965 58.2129 21.3965 58.2129 21.3965ZM58.3258 21.4343C58.3258 21.4343 58.3634 21.4343 58.3634 21.4722C58.3634 21.4722 58.3634 21.4722 58.3258 21.4343ZM58.4763 21.5101C58.4763 21.5101 58.5139 21.5101 58.5139 21.548C58.5139 21.548 58.4763 21.548 58.4763 21.5101ZM58.5892 21.6238L58.6268 21.6616C58.6268 21.6238 58.6268 21.6238 58.5892 21.6238ZM58.7397 21.6995L58.7773 21.7374C58.7397 21.7374 58.7397 21.6995 58.7397 21.6995ZM58.8526 21.7753L58.8902 21.8132C58.8902 21.8132 58.8526 21.8132 58.8526 21.7753ZM59.116 22.0405L59.0784 22.0026C59.0784 22.0026 59.0784 22.0405 59.116 22.0405ZM59.9062 24.0484C59.9062 24.0863 59.9062 24.162 59.9062 24.1999C59.9062 24.162 59.9062 24.1242 59.9062 24.0484ZM59.8686 23.5938C59.8686 23.6317 59.8686 23.6695 59.8686 23.6695C59.8686 23.6317 59.8686 23.6317 59.8686 23.5938ZM59.831 24.9955C59.831 24.9576 59.831 24.9576 59.831 24.9197C59.831 24.9576 59.831 24.9955 59.831 24.9955ZM59.8686 24.844C59.8686 24.8061 59.8686 24.7682 59.8686 24.7682C59.8686 24.8061 59.8686 24.844 59.8686 24.844ZM59.8686 24.6924C59.8686 24.6545 59.8686 24.6167 59.8686 24.6167C59.8686 24.6545 59.8686 24.6545 59.8686 24.6924ZM58.8902 26.6246L58.8526 26.6624C58.8526 26.6246 58.8902 26.6246 58.8902 26.6246ZM58.7773 26.7003L58.7397 26.7382C58.7397 26.7382 58.7397 26.7382 58.7773 26.7003ZM58.6644 26.814L58.6268 26.8519C58.6268 26.814 58.6268 26.814 58.6644 26.814ZM58.3634 26.9655C58.3634 26.9655 58.3258 26.9655 58.3258 27.0034C58.3634 27.0034 58.3634 26.9655 58.3634 26.9655ZM58.2505 27.0413L58.2129 27.0413C58.2129 27.0413 58.2129 27.0413 58.2505 27.0413Z" fill="#0B1114"/>
<path d="M56.5198 27.1928C54.4125 27.1928 53.3589 25.8669 53.3589 24.1999C53.3589 22.533 54.4125 21.207 56.5198 21.207C58.627 21.207 59.7183 22.533 59.7183 24.1999C59.7183 25.8669 58.5894 27.1928 56.5198 27.1928Z" fill="#FEFFFF"/>
<path d="M58.7023 24.2373C58.7023 25.7527 57.7615 26.965 55.993 27.1923C56.1435 27.1923 56.3316 27.2302 56.5198 27.2302C58.627 27.2302 59.7183 25.9042 59.7183 24.2373C59.7183 22.5704 58.5894 21.2444 56.5198 21.2444C56.3316 21.2444 56.1811 21.2444 55.993 21.2823C57.7615 21.4717 58.7023 22.7219 58.7023 24.2373Z" fill="#12224F"/>
<path d="M53.8856 24.2373C53.8856 23.0628 54.3372 22.04 55.2026 21.4717C53.9985 21.9263 53.3964 22.9871 53.3964 24.2373C53.3964 25.4875 53.9985 26.5482 55.2026 27.0029C54.3372 26.4346 53.8856 25.3738 53.8856 24.2373Z" fill="#1FBD99"/>
<path d="M60.8848 24.2373C60.8848 22.6082 59.0033 21.2444 56.9337 21.2444C56.8584 21.2444 56.7832 21.2444 56.7079 21.2444C58.6646 21.3202 59.7183 22.6461 59.7183 24.1994C59.7183 25.7527 58.6646 27.0786 56.7079 27.1544C56.7832 27.1544 56.8584 27.1544 56.9337 27.1544C59.0409 27.1923 60.8848 25.8663 60.8848 24.2373Z" fill="#292929"/>
<path d="M60.7343 24.2371C60.7343 24.7296 60.6214 25.1843 60.4332 25.601C60.7342 25.1843 60.8848 24.7296 60.8848 24.2371C60.8848 23.7446 60.6966 23.29 60.4332 22.8733C60.6214 23.2521 60.7343 23.7446 60.7343 24.2371Z" fill="#1FBD99"/>
<path d="M60.1321 24.2373C60.1321 23.2523 59.7558 22.343 59.0408 21.7369C58.4388 21.4338 57.6862 21.2444 56.9336 21.2444C56.8583 21.2444 56.7831 21.2444 56.7078 21.2444C58.6645 21.3202 59.7182 22.6461 59.7182 24.1994C59.7182 25.7527 58.6645 27.0786 56.7078 27.1544C56.7831 27.1544 56.8583 27.1544 56.9336 27.1544C57.6862 27.1544 58.4011 26.965 59.0408 26.6619C59.7558 26.1315 60.1321 25.2223 60.1321 24.2373Z" fill="#0B1114"/>
<path d="M66.454 20.5627C66.454 20.5627 66.7927 20.9037 67.0937 20.9037C68.0345 20.8279 69.201 21.3583 69.0881 22.5328C68.9376 23.7451 68.7118 23.7072 68.486 22.8358C68.1097 21.3204 67.0937 22.2297 67.2443 22.6464C67.3948 23.0253 67.47 23.4041 67.2066 23.5556C66.9809 23.7072 66.8303 23.0631 66.4917 22.8358C66.2659 22.6843 66.3035 22.0781 66.0778 22.0024C65.852 21.8887 66.454 20.5627 66.454 20.5627Z" fill="#242424"/>
<path d="M66.5292 27.6852C66.5292 27.6852 66.8679 27.3442 67.1689 27.3442C68.1097 27.42 69.2762 26.8896 69.1633 25.7152C69.0128 24.5028 68.787 24.5407 68.5612 25.4121C68.1849 26.9275 67.1689 26.0182 67.3195 25.6015C67.47 25.1848 67.5452 24.8438 67.2818 24.6923C67.056 24.5407 66.9055 25.1848 66.5669 25.4121C66.3411 25.5636 66.3787 26.1698 66.1529 26.2455C65.9272 26.3592 66.5292 27.6852 66.5292 27.6852Z" fill="#242424"/>
<path d="M67.1685 25.7906L67.1685 22.3809C67.1685 21.9642 67.5071 21.6611 67.8834 21.6611C68.2974 21.6611 68.5984 22.0021 68.5984 22.3809L68.5984 25.7906C68.5984 26.2073 68.2597 26.5104 67.8834 26.5104C67.5071 26.5104 67.1685 26.2073 67.1685 25.7906Z" fill="#FEFFFF"/>
</g>
</g>
<defs>
<clipPath id="clip0_304_8446">
<rect width="48" height="120" fill="white" transform="translate(120 0.142822) rotate(90)"/>
</clipPath>
<clipPath id="clip1_304_8446">
<rect width="15.1539" height="9.40733" fill="white" transform="translate(18.7771 16.8123) rotate(90)"/>
</clipPath>
</defs>
</svg>
