<svg width="24" height="24" viewBox="0 0 24 24" fill="none" xmlns="http://www.w3.org/2000/svg">
<path d="M12.0001 23C10.4972 22.9999 9.0291 22.5483 7.786 21.7037C6.5429 20.8592 5.5822 19.6606 5.02844 18.2635C4.47468 16.8664 4.35342 15.3352 4.68038 13.8683C5.00733 12.4015 5.76742 11.0667 6.86209 10.037C8.20409 8.774 11.5001 6.5 11.0001 1.5C17.0001 5.5 20.0001 9.5 14.0001 15.5C15.0001 15.5 16.5001 15.5 19.0001 13.03C19.2701 13.803 19.5001 14.634 19.5001 15.5C19.5001 17.4891 18.7099 19.3968 17.3034 20.8033C15.8969 22.2098 13.9892 23 12.0001 23Z" fill="#0D0D0D"/>
</svg>
