<svg width="30" height="31" viewBox="0 0 30 31" fill="none" xmlns="http://www.w3.org/2000/svg">
<path d="M24 9.3473C23.3306 9.64846 22.6174 9.84807 21.8738 9.945C22.6388 9.47653 23.2226 8.74038 23.4971 7.85307C22.7839 8.28923 21.9964 8.5973 21.1571 8.76923C20.4799 8.02961 19.5146 7.57153 18.4616 7.57153C16.4186 7.57153 14.7739 9.2723 14.7739 11.3573C14.7739 11.6573 14.7986 11.9458 14.8594 12.2204C11.7915 12.0669 9.07687 10.5588 7.25325 8.26153C6.93487 8.82807 6.74813 9.47653 6.74813 10.1746C6.74813 11.4854 7.40625 12.6473 8.38725 13.32C7.79438 13.3085 7.21275 13.1319 6.72 12.8538C6.72 12.8654 6.72 12.8804 6.72 12.8954C6.72 14.7346 7.99912 16.2623 9.6765 16.6142C9.37612 16.6985 9.04875 16.7388 8.709 16.7388C8.47275 16.7388 8.23425 16.725 8.01037 16.6742C8.4885 18.1731 9.84525 19.275 11.4585 19.3108C10.203 20.3181 8.60887 20.925 6.88312 20.925C6.5805 20.925 6.29025 20.9111 6 20.8731C7.63462 21.9542 9.57188 22.5715 11.661 22.5715C18.4515 22.5715 22.164 16.8023 22.164 11.8015C22.164 11.6342 22.1584 11.4727 22.1505 11.3123C22.8829 10.7792 23.4982 10.1135 24 9.3473Z" fill="black"/>
</svg>
