<svg width="501" height="670" viewBox="0 0 501 670" fill="none" xmlns="http://www.w3.org/2000/svg">
<g style="mix-blend-mode:color-dodge" opacity="0.6" filter="url(#filter0_f_1239_342853)">
<ellipse cx="256.629" cy="590.293" rx="131.948" ry="28.1" fill="#2BD071"/>
</g>
<g style="mix-blend-mode:color-dodge" filter="url(#filter1_f_1239_342853)">
<ellipse cx="256.629" cy="422.101" rx="83.0783" ry="182.446" fill="#2BD071"/>
</g>
<g style="mix-blend-mode:color-dodge" opacity="0.45" filter="url(#filter2_f_1239_342853)">
<path d="M66.995 128.033C58.6858 96.3395 82.5958 65.3529 115.36 65.3529H385.715C418.215 65.3529 442.078 95.8725 434.239 127.413L323.546 572.782H183.596L66.995 128.033Z" fill="url(#paint0_linear_1239_342853)"/>
</g>
<g style="mix-blend-mode:color-dodge">
<ellipse cx="258.258" cy="590.108" rx="122.988" ry="36.2449" fill="#2BD071"/>
</g>
<path d="M260.322 467.535L260.324 467.535L260.331 467.535L260.38 467.535C260.426 467.535 260.499 467.534 260.597 467.533C260.793 467.531 261.091 467.526 261.48 467.514C262.26 467.492 263.405 467.445 264.836 467.347C267.703 467.152 271.7 466.754 276.204 465.947C285.31 464.316 296.045 461.087 303.812 454.861L260.322 467.535ZM260.322 467.535L260.322 467.535M260.322 467.535L260.322 467.535M260.322 467.535L260.322 467.535M260.322 467.535L260.322 467.535M260.322 467.535L256.581 467.522M260.322 467.535L256.581 467.522M256.581 467.522L256.818 471.257M256.581 467.522L256.818 471.257M256.818 471.257L257.515 482.236L257.701 485.171L260.625 485.494L261.008 482.015M256.818 471.257L261.008 482.015M261.008 482.015C260.625 485.494 260.626 485.494 260.627 485.494L260.63 485.494L260.638 485.495L260.66 485.497L260.731 485.505C260.79 485.511 260.872 485.518 260.977 485.528C261.188 485.547 261.488 485.572 261.873 485.598C262.642 485.65 263.747 485.707 265.132 485.733C267.901 485.785 271.806 485.71 276.402 485.209C285.564 484.21 297.642 481.498 308.948 474.564C318.366 468.799 325.143 460.514 331.396 450.462C335.372 444.069 339.265 436.733 343.508 428.738C345.855 424.313 348.31 419.687 350.945 414.907L350.948 414.904C352.3 412.443 356.691 406.882 362.744 403.442C368.583 400.123 375.673 398.884 383.397 404.085C389.251 408.027 392.099 414.29 393.265 421.017L393.265 421.021C393.911 424.724 397.14 426.349 399.877 426.121C402.621 425.893 405.547 423.74 405.523 419.956L405.523 419.956C405.436 406.455 399.376 395.016 390.047 388.383C380.67 381.714 368.213 380.073 355.91 385.797C341.519 392.491 333.408 406.563 326.493 420.027C325.62 421.725 324.768 423.413 323.925 425.084C321.344 430.195 318.844 435.147 316.088 439.767C312.451 445.862 308.542 451.067 303.813 454.86L261.008 482.015Z" fill="#74698B" stroke="#242424" stroke-width="7"/>
<g opacity="0.3">
<path d="M347.874 413.229C332.834 440.508 324.631 460.861 307.12 471.58C285.658 484.737 260.997 482.008 260.997 482.008L260.658 476.502C266.569 476.837 286.977 477.051 305.079 465.949C322.579 455.223 330.782 434.87 345.829 407.58C349.087 401.68 365.139 383.299 383.301 395.545C389.132 399.474 392.293 405.264 393.9 411.339C392.054 407.419 389.315 403.869 385.335 401.187C367.174 388.941 351.122 407.322 347.874 413.229Z" fill="#242424"/>
</g>
<g opacity="0.3">
<path d="M396.713 420.419C396.492 419.138 396.207 417.864 395.859 416.598C397.446 417.588 399.999 416.725 399.988 414.337C399.962 410.771 399.496 407.381 398.631 404.219C400.766 408.868 401.993 414.192 402.022 419.979C402.037 423.256 397.264 423.637 396.713 420.419Z" fill="#242424"/>
<path d="M397.789 422.55C397.113 422.159 396.575 421.478 396.389 420.469C396.159 419.152 395.874 417.879 395.545 416.683L395.323 415.889L396.02 416.321C396.761 416.778 397.769 416.798 398.541 416.356C399.266 415.946 399.665 415.23 399.661 414.34C399.635 410.878 399.184 407.511 398.317 404.303L398.915 404.086C401.151 408.943 402.302 414.297 402.332 419.98C402.346 421.852 400.932 422.84 399.623 422.957C399.018 423.007 398.354 422.876 397.789 422.55ZM397.026 420.363C397.281 421.842 398.492 422.408 399.582 422.312C400.643 422.215 401.715 421.458 401.713 419.978C401.692 415.764 401.039 411.748 399.776 407.971C400.115 410.046 400.291 412.174 400.316 414.333C400.316 415.458 399.801 416.403 398.869 416.915C398.103 417.346 397.169 417.428 396.359 417.167C396.606 418.198 396.828 419.273 397.026 420.363Z" fill="#242424"/>
</g>
<g opacity="0.3">
<path d="M395.853 416.609C395.272 416.259 394.827 415.647 394.672 414.788C394.467 413.634 394.215 412.483 393.917 411.335C394.727 413.03 395.36 414.801 395.853 416.609Z" fill="#74698B"/>
<path d="M396.358 417.271L395.695 416.858C395.202 416.559 394.562 415.952 394.372 414.822C394.173 413.657 393.921 412.505 393.626 411.403L394.207 411.191C394.985 412.839 395.645 414.64 396.163 416.507L396.358 417.271ZM395.001 414.86C395.048 415.035 395.094 415.21 395.172 415.358C395.107 415.187 395.054 415.024 395.001 414.86Z" fill="#242424"/>
</g>
<path d="M185.469 455.256C185.331 462.278 184.697 470.486 181.195 473.521C181.002 473.7 180.768 473.797 180.533 473.838C179.954 473.948 179.32 473.659 179.031 473.079L179.003 473.024L175.901 466.899C175.639 466.375 175.129 466.099 174.605 466.099C174.302 466.099 173.998 466.196 173.737 466.389C173.047 466.885 172.647 467.685 172.647 468.527V480.915C172.647 481.963 171.958 482.915 170.952 483.191C167.546 484.101 163.59 479.48 161.811 473.659C155.814 471.438 154.504 465.037 155.428 456.663L155.456 456.512L155.635 455.091L155.704 454.58H182.601L185.469 455.256Z" fill="#FFBD99"/>
<path d="M170.028 485.343C165.823 485.343 162.059 480.597 160.143 475.162C151.099 470.982 152.519 458.457 154.835 447.904C154.959 447.366 155.29 446.883 155.758 446.593C156.227 446.304 156.806 446.207 157.344 446.331L185.951 453.229C186.889 453.449 187.55 454.305 187.536 455.284C187.399 463.064 186.682 471.493 182.546 475.079C181.732 475.783 180.671 476.059 179.623 475.852C178.561 475.645 177.679 474.969 177.197 474.003L174.743 469.148V480.887C174.743 482.887 173.419 484.653 171.517 485.163C171.006 485.288 170.524 485.343 170.028 485.343ZM158.447 450.856C155.993 463.271 157.275 469.727 162.541 471.686C163.148 471.907 163.617 472.403 163.796 473.024C165.409 478.266 168.621 481.632 170.427 481.163C170.51 481.135 170.593 481.025 170.593 480.887V468.513C170.593 467.01 171.31 465.589 172.523 464.692C173.364 464.085 174.425 463.864 175.432 464.113C176.438 464.361 177.293 465.023 177.762 465.947L180.464 471.286C182.808 468.237 183.249 460.898 183.373 456.87L158.447 450.856Z" fill="#242424"/>
<path d="M163.259 481.108C160.308 476.197 160.267 470.513 160.763 465.133C160.805 464.692 161.191 464.361 161.646 464.402C162.045 464.444 162.349 464.761 162.376 465.147C162.707 469.893 163.548 475.107 166.636 478.707C168.511 481.066 164.886 483.66 163.259 481.108Z" fill="#242424"/>
<path d="M193.217 335.545L191.397 457.546C177.638 458.829 164.83 458.691 154.973 454.139C153.801 453.601 153.112 452.373 153.208 451.104L154.132 439.061L154.256 437.42C148.466 435.944 153.98 376.088 174.633 348.651C179.858 341.739 186.034 336.87 193.217 335.545Z" fill="#16B768"/>
<g opacity="0.6">
<path d="M159.536 454.153C158.365 453.615 157.675 452.387 157.772 451.118L158.695 439.075C158.944 438.923 159.192 438.758 159.44 438.606C158.957 438.068 158.268 437.227 157.634 436.109C154.821 431.171 155.69 425.86 156.076 423.322C158.944 404.975 154.863 418.438 158.985 400.615C162.583 385.069 164.376 377.302 167.836 367.591C174.771 348.14 179.555 343.533 183.58 340.898C187.247 338.511 190.818 337.435 193.189 336.911L193.203 335.532C186.007 336.87 179.844 341.726 174.633 348.637C153.994 376.088 148.48 435.958 154.27 437.42L154.146 439.061L153.222 451.104C153.126 452.387 153.815 453.601 154.987 454.139C162.128 457.436 170.828 458.415 180.313 458.208C172.592 458.043 165.52 456.912 159.536 454.153Z" fill="white"/>
</g>
<path d="M178.079 460.333C169.849 460.333 161.315 459.353 154.118 456.029C152.188 455.132 151.002 453.091 151.168 450.952L152.133 438.427C150.782 436.896 149.789 433.24 150.092 424.232C150.492 412.024 153.512 390.821 160.694 371.246C166.402 355.686 176.604 336.525 192.845 333.504C193.451 333.394 194.085 333.559 194.554 333.959C195.023 334.359 195.299 334.952 195.285 335.573L193.465 457.588C193.451 458.65 192.638 459.519 191.59 459.616C187.399 460.002 182.794 460.333 178.079 460.333ZM155.166 435.544C155.924 435.902 156.407 436.702 156.338 437.572L155.29 451.256C155.262 451.684 155.483 452.084 155.855 452.249C163.672 455.863 174.067 456.912 189.37 455.643L191.121 338.208C178.231 342.333 169.642 358.914 164.623 372.529C160.198 384.544 156.724 399.388 155.097 413.251C153.429 427.46 154.38 434.247 155.166 435.544Z" fill="#242424"/>
<path d="M154.201 428.66C154.738 433.764 154.463 437.544 160.446 438.675C161.273 438.827 161.315 440.041 160.501 440.248C152.905 442.276 149.982 435.213 150.051 428.881C150.092 426.246 153.897 426.067 154.201 428.66Z" fill="#242424"/>
<path d="M166.457 440.827C173.612 442.124 180.754 443.02 188.019 443.007C192.362 443.048 196.677 442.8 201.02 442.496C202.164 442.413 203.157 443.269 203.24 444.4C203.322 445.531 202.481 446.511 201.365 446.621C195.409 447.145 189.384 447.145 183.442 446.524C180.464 446.193 177.486 445.738 174.564 445.034C171.641 444.331 168.787 443.365 166.085 442.069C165.382 441.751 165.713 440.689 166.457 440.827Z" fill="#242424"/>
<path d="M161.825 458.25C161.784 458.25 161.756 458.25 161.715 458.25C160.763 458.195 160.046 457.367 160.102 456.415L160.75 446.345C160.805 445.393 161.632 444.676 162.583 444.731C163.534 444.786 164.251 445.614 164.196 446.566L163.548 456.636C163.479 457.546 162.721 458.25 161.825 458.25Z" fill="#242424"/>
<path d="M168.994 458.857C168.953 458.857 168.925 458.857 168.884 458.857C167.932 458.802 167.215 457.974 167.271 457.022L167.919 446.952C167.974 446 168.801 445.283 169.752 445.338C170.703 445.393 171.42 446.221 171.365 447.173L170.717 457.243C170.648 458.153 169.89 458.857 168.994 458.857Z" fill="#242424"/>
<path d="M176.576 458.857C176.535 458.857 176.507 458.857 176.466 458.857C175.515 458.802 174.798 457.974 174.853 457.022L175.501 446.952C175.556 446 176.383 445.283 177.335 445.338C178.286 445.393 179.003 446.221 178.948 447.173L178.3 457.243C178.245 458.153 177.486 458.857 176.576 458.857Z" fill="#242424"/>
<g opacity="0.2">
<path d="M185.469 455.256C185.331 462.278 184.697 470.486 181.195 473.521C181.002 473.7 180.768 473.797 180.533 473.838C180.009 473.562 179.513 473.3 179.003 473.024L175.901 466.899C175.639 466.375 175.129 466.099 174.605 466.099C174.302 466.099 173.998 466.196 173.736 466.389C173.047 466.885 172.647 467.685 172.647 468.527V469.424C166.181 465.506 160.46 461.243 155.414 456.65L155.442 456.498L155.621 455.077L155.69 454.567H182.587L185.469 455.256Z" fill="#242424"/>
</g>
<path d="M391.372 354.359C391.372 354.359 389.453 387.94 363.936 396.543C361.863 397.242 359.647 397.777 357.246 398.106C347.991 399.411 341.117 396.286 336.479 392.699C331.513 388.865 329.123 384.507 329.123 384.507L325.357 368.904L321.027 350.906L319.047 342.713C319.047 342.713 329.553 353.074 340.511 356.374C344.359 357.535 348.279 357.823 351.808 356.487C356.446 354.729 360.427 350.155 362.766 341.059L391.372 354.359Z" fill="#F8C099"/>
<path d="M363.936 396.533C361.863 397.232 359.647 397.766 357.256 398.095C348.002 399.401 341.127 396.276 336.489 392.689C331.523 388.855 329.133 384.496 329.133 384.496L325.357 368.904L321.027 350.906L319.047 342.713C319.047 342.713 329.553 353.074 340.511 356.374C344.359 357.535 348.279 357.823 351.808 356.487C351.162 360.526 349.274 374.639 352.393 384.342C355.04 392.617 357.851 396.029 363.936 396.533Z" fill="#16B768"/>
<g opacity="0.25">
<path d="M357.256 399.226C338.09 401.929 329.122 385.617 329.122 385.617C328.589 383.242 331.369 381.516 333.237 383.088C337.864 386.994 345.067 390.715 355.02 389.317C377.541 386.141 390.13 363.569 367.578 352.324L391.362 355.469C391.362 355.469 389.135 394.724 357.256 399.226Z" fill="#242424"/>
</g>
<path d="M353.07 400.243C335.894 400.243 327.604 385.555 327.512 385.391C327.019 384.496 327.347 383.376 328.24 382.883C329.133 382.389 330.251 382.718 330.744 383.612C331.082 384.229 339.373 398.753 357 396.276C369.517 394.508 378.782 386.984 384.538 373.899C388.006 366.036 389.104 358.399 389.422 355.49L363.956 343.649C361.391 351.944 357.102 356.991 351.162 358.635C336.818 362.623 318.524 344.79 317.754 344.029C317.026 343.31 317.015 342.148 317.733 341.418C318.452 340.689 319.611 340.678 320.34 341.398C320.514 341.572 337.885 358.491 350.187 355.068C355.245 353.66 358.877 348.788 360.991 340.596L361.545 338.448L393.28 353.208L393.208 354.462C393.188 354.873 392.572 364.73 387.955 375.287C381.737 389.482 371.21 398.003 357.513 399.935C355.963 400.151 354.486 400.243 353.07 400.243Z" fill="#242424"/>
<path d="M363.648 397.818C360.396 397.818 357.615 396.697 355.358 394.467C345.683 384.877 349.859 357.35 350.033 356.179C350.187 355.171 351.131 354.483 352.136 354.637C353.142 354.791 353.829 355.737 353.675 356.744C352.516 364.175 351.028 384.98 357.954 391.835C359.934 393.788 362.458 394.487 365.68 393.943C366.675 393.778 367.629 394.457 367.804 395.464C367.968 396.471 367.291 397.417 366.285 397.592C365.382 397.735 364.5 397.818 363.648 397.818Z" fill="#242424"/>
<path d="M359.853 341.285C362.828 359.55 381.02 359.231 386.078 358.389C396.636 356.641 400.925 347.113 400.925 347.113L393.383 335.405L390.11 329.135L385.77 327.46C382.764 320.83 375.869 313.039 371.406 315.269C371.406 315.269 357.287 325.538 359.853 341.285Z" fill="#F8C099"/>
<g opacity="0.25">
<path d="M402.905 342.559C402.484 348.151 394.799 352.674 379.203 349.652C373.714 348.593 369.436 344.358 369.856 338.777C370.277 333.185 375.14 328.991 380.712 329.413C386.293 329.824 403.325 336.968 402.905 342.559Z" fill="#242424"/>
</g>
<path d="M403.705 323.307C399.262 327.151 395.415 329.937 395.415 329.937L382.938 340.956L376.546 321.231C376.546 321.231 376.792 317.366 377.469 312.278C378.813 302.195 381.85 287.321 388.068 288.175C399.242 289.716 389.597 318.785 389.597 318.785C389.597 318.785 409.328 296.192 415.997 303.531C419.896 307.827 410.99 316.986 403.705 323.307Z" fill="#F8C099"/>
<g opacity="0.25">
<path d="M403.705 324.428C399.262 328.272 395.415 331.057 395.415 331.057L382.938 342.076L376.546 322.351C376.546 322.351 376.792 318.487 377.469 313.399C380.301 316.009 385.596 320.758 387.36 323.482C390.408 328.169 399.231 323.204 403.705 324.428Z" fill="#242424"/>
</g>
<path d="M382.928 342.806C382.764 342.806 382.6 342.785 382.446 342.744C381.851 342.58 381.368 342.128 381.184 341.531L374.791 321.796C374.72 321.57 374.689 321.344 374.709 321.108C374.884 318.312 376.649 293.591 383.831 287.712C385.185 286.602 386.734 286.129 388.325 286.345C390.51 286.643 392.285 287.804 393.465 289.706C396.677 294.887 395.086 305.093 393.393 312.124C398.595 307.026 406.578 300.273 412.447 300.221C412.478 300.221 412.498 300.221 412.529 300.221C414.458 300.221 416.13 300.941 417.362 302.287C418.449 303.49 418.931 305.042 418.757 306.789C417.854 315.619 399.067 329.567 396.574 331.376L384.159 342.333C383.81 342.642 383.379 342.806 382.928 342.806ZM378.403 320.995L383.821 337.718L394.194 328.56C394.235 328.519 394.286 328.488 394.327 328.447C402.053 322.834 414.519 311.898 415.084 306.419C415.176 305.515 414.889 305.073 414.632 304.785C414.089 304.189 413.401 303.922 412.478 303.922C406.321 303.983 394.881 315.557 390.982 320.018C390.408 320.676 389.443 320.84 388.684 320.409C387.925 319.977 387.576 319.062 387.853 318.23C389.689 312.689 393.711 297.127 390.326 291.68C389.72 290.703 388.92 290.179 387.812 290.025C387.453 289.973 386.899 289.984 386.15 290.59C381.204 294.63 378.906 313.563 378.403 320.995Z" fill="#242424"/>
<path d="M403.203 345.201C400.114 349.477 388.284 350.69 384.2 347C380.722 343.854 384.683 340.483 385.801 339.63C385.975 339.496 386.078 339.424 386.078 339.424C386.078 339.424 381.697 337.708 381.194 333.863C381.163 333.617 381.143 333.36 381.153 333.082C381.204 328.693 393.127 325.795 398.349 327.049C402.259 327.984 403.644 329.711 403.88 331.458C404.136 333.329 403.1 335.22 402.423 336.228C402.115 336.69 401.879 336.957 401.879 336.957C401.879 336.957 405.675 341.778 403.203 345.201Z" fill="#F8C099"/>
<g opacity="0.25">
<path d="M402.433 337.348C399.19 338.715 392.726 340.976 385.801 340.74C385.975 340.606 386.078 340.534 386.078 340.534C386.078 340.534 381.697 338.818 381.194 334.974C385.267 336.197 396.574 338.777 403.879 332.568C404.146 334.439 403.11 336.341 402.433 337.348Z" fill="#242424"/>
</g>
<g opacity="0.25">
<path d="M403.202 346.321C400.114 350.597 388.284 351.81 384.2 348.12C382.497 346.578 382.579 344.975 383.246 343.649C383.431 343.885 383.646 344.122 383.903 344.358C387.976 348.048 399.816 346.835 402.905 342.57C403.223 342.128 403.449 341.665 403.572 341.182C404.146 342.755 404.382 344.697 403.202 346.321Z" fill="#242424"/>
</g>
<path d="M391.895 351.039C388.109 351.039 384.877 350.094 382.969 348.367C381.173 346.743 380.886 345.026 380.978 343.875C381.101 342.22 382.025 340.781 382.958 339.733C381.245 338.468 379.275 336.31 379.316 333.062C379.326 331.993 379.757 330.4 381.737 328.847C385.903 325.589 394.471 324.212 398.79 325.24C402.453 326.113 404.71 327.778 405.49 330.194C406.362 332.866 405.09 335.508 404.146 336.988C405.316 338.941 407.111 342.94 404.71 346.27C402.976 348.665 399.139 350.392 394.45 350.885C393.578 350.998 392.726 351.039 391.895 351.039ZM395.415 328.591C391.69 328.591 386.509 329.793 383.995 331.756C383.359 332.25 383 332.743 382.989 333.093C382.969 336.145 386.724 337.687 386.765 337.697C387.401 337.954 387.842 338.54 387.914 339.219C387.986 339.897 387.678 340.565 387.114 340.946C386.355 341.459 384.744 342.929 384.651 344.132C384.631 344.44 384.692 344.934 385.441 345.612C386.929 346.959 390.397 347.606 394.06 347.216C397.559 346.846 400.637 345.592 401.714 344.101C403.305 341.901 400.473 338.119 400.442 338.088C399.898 337.399 399.919 336.413 400.493 335.745C401.037 335.097 402.494 332.877 401.981 331.325C401.53 329.947 399.529 329.207 397.928 328.827C397.231 328.673 396.379 328.591 395.415 328.591Z" fill="#242424"/>
<path d="M389.515 341.49C388.325 341.49 387.094 341.418 385.842 341.244C384.836 341.11 384.128 340.175 384.262 339.167C384.395 338.16 385.329 337.451 386.334 337.584C394.153 338.633 401.017 335.333 401.089 335.292C402.002 334.84 403.11 335.22 403.551 336.135C404.003 337.05 403.623 338.15 402.71 338.602C402.433 338.746 396.79 341.49 389.515 341.49Z" fill="#242424"/>
<path d="M371.406 315.269C377.326 312.309 387.525 326.987 387.268 333.206C387.073 337.954 381.173 341.49 374.935 334.943C368.615 328.313 362.11 319.926 371.406 315.269Z" fill="#16B768"/>
<path d="M400.935 347.113C400.935 347.113 396.646 356.631 386.088 358.389C381.02 359.231 362.828 359.55 359.853 341.285C357.287 325.548 371.406 315.28 371.406 315.28C377.326 312.319 387.525 326.997 387.268 333.216C387.073 337.965 379.84 340.123 374.576 331.345C374.576 331.345 377.11 339.147 370.103 343.824L372.606 348.727L385.042 354L397.015 352.581L400.935 347.113Z" fill="#F8C099"/>
<path d="M373.458 340.421L373.16 340.216C373.406 340.051 373.632 339.887 373.858 339.712C373.735 339.949 373.612 340.185 373.458 340.421Z" fill="#16B768"/>
<g opacity="0.25">
<path d="M374.935 331.068C374.33 327.943 382.528 336.392 387.247 334.737C386.745 338.571 381.512 340.421 376.813 335.436C376.69 332.959 374.935 331.068 374.935 331.068Z" fill="#242424"/>
</g>
<g opacity="0.25">
<path d="M394.994 352.807L397.015 352.571C394.615 355.027 391.044 357.566 386.078 358.389C381.009 359.231 362.818 359.54 359.842 341.274C358.098 330.564 364.08 322.382 368.081 318.25C364.736 322.804 361.566 329.505 362.9 337.677C366.347 358.851 383.595 355.706 389.136 354.791C391.362 354.421 393.311 353.712 394.994 352.807Z" fill="#242424"/>
</g>
<path d="M400.925 347.123C400.884 347.216 400.545 347.945 399.858 348.994L399.55 349.035L400.925 347.123Z" fill="#16B768"/>
<path d="M400.073 348.973C399.899 349.158 399.714 349.343 399.519 349.518C399.642 349.333 399.755 349.158 399.868 348.994L400.073 348.973Z" fill="#16B768"/>
<path d="M366.009 354.462C364.377 353.403 362.92 352.005 361.751 350.392C361.156 349.59 360.653 348.727 360.201 347.843C359.75 346.959 359.38 346.034 359.062 345.098C357.821 341.367 357.472 337.297 358.108 333.36C358.416 331.397 358.96 329.474 359.688 327.635C360.427 325.805 361.34 324.047 362.397 322.403C363.454 320.758 364.654 319.216 365.957 317.767C366.614 317.047 367.291 316.349 367.999 315.68C368.358 315.341 368.717 315.012 369.087 314.694C369.466 314.365 369.815 314.067 370.277 313.727L370.328 313.686C370.4 313.635 370.472 313.594 370.544 313.563C370.862 313.429 371.18 313.285 371.508 313.193C371.847 313.121 372.185 313.018 372.514 313.008C372.842 312.987 373.191 312.957 373.509 312.998C373.827 313.018 374.155 313.049 374.443 313.121C375.643 313.378 376.659 313.871 377.562 314.416C378.475 314.971 379.265 315.598 380.014 316.266C380.763 316.924 381.45 317.633 382.097 318.363C383.39 319.823 384.529 321.375 385.544 323.009C386.55 324.654 387.442 326.37 388.15 328.231C388.499 329.166 388.797 330.132 388.992 331.191C389.033 331.458 389.094 331.715 389.115 332.003C389.146 332.281 389.176 332.558 389.166 332.866V333.308L389.125 333.792C389.084 334.11 389.033 334.429 388.94 334.747C388.602 336.022 387.791 337.184 386.745 337.965C385.688 338.746 384.426 339.167 383.205 339.219C381.974 339.301 380.804 339.034 379.757 338.623C378.701 338.211 377.777 337.615 376.956 336.947C375.304 335.611 374.104 333.956 373.099 332.27L376.238 330.842C376.351 331.273 376.392 331.571 376.443 331.921C376.495 332.26 376.525 332.589 376.546 332.928C376.577 333.257 376.567 333.596 376.577 333.925C376.577 334.254 376.556 334.593 376.546 334.922C376.454 336.248 376.166 337.574 375.664 338.808C375.54 339.116 375.417 339.424 375.253 339.722C375.089 340.01 374.945 340.319 374.771 340.596C374.391 341.141 374.032 341.696 373.571 342.169C373.15 342.683 372.647 343.084 372.165 343.505C371.929 343.731 371.652 343.885 371.385 344.07L370.595 344.594C370.195 344.862 369.661 344.749 369.395 344.348C369.148 343.978 369.22 343.495 369.548 343.217L369.631 343.145L370.256 342.6C370.462 342.415 370.687 342.261 370.852 342.045C371.211 341.644 371.59 341.254 371.878 340.802C372.206 340.38 372.432 339.897 372.678 339.445C372.791 339.208 372.873 338.962 372.965 338.715C373.068 338.479 373.129 338.222 373.191 337.975C373.458 336.978 373.56 335.93 373.509 334.881C373.488 334.624 373.468 334.357 373.437 334.1C373.396 333.843 373.376 333.586 373.314 333.329C373.263 333.072 373.211 332.825 373.14 332.579C373.078 332.353 372.986 332.065 372.934 331.931C372.565 331.057 372.965 330.05 373.837 329.68C374.607 329.351 375.479 329.629 375.93 330.297L376.074 330.502C376.956 331.911 378.003 333.206 379.214 334.141C380.404 335.087 381.789 335.642 382.979 335.539C383.574 335.508 384.098 335.292 384.498 334.984C384.888 334.665 385.175 334.254 385.298 333.761C385.339 333.637 385.349 333.504 385.37 333.38L385.39 333.175L385.38 332.938C385.39 332.784 385.36 332.609 385.339 332.435C385.329 332.27 385.288 332.075 385.257 331.9C385.113 331.16 384.877 330.389 384.59 329.608C383.379 326.514 381.461 323.503 379.234 320.964C378.67 320.326 378.085 319.73 377.469 319.185C376.854 318.641 376.218 318.137 375.571 317.746C374.925 317.356 374.268 317.058 373.694 316.934C373.109 316.811 372.668 316.852 372.278 317.037L372.544 316.873C372.267 317.078 371.898 317.376 371.58 317.644C371.252 317.921 370.923 318.209 370.605 318.507C369.969 319.103 369.354 319.72 368.758 320.368C367.568 321.652 366.491 323.03 365.537 324.489C364.582 325.949 363.741 327.47 363.084 329.053C362.428 330.646 361.935 332.291 361.638 333.977C361.032 337.338 361.309 340.832 362.192 344.173C362.633 345.838 363.249 347.442 364.069 348.942C364.89 350.453 365.916 351.851 367.127 353.146L367.137 353.157C367.466 353.506 367.445 354.061 367.096 354.39C366.778 354.647 366.337 354.668 366.009 354.462Z" fill="#242424"/>
<path d="M402.515 347.832C402.31 348.326 402.135 348.685 401.92 349.086C401.715 349.477 401.489 349.847 401.253 350.217C401.027 350.587 400.761 350.936 400.504 351.286C400.237 351.635 399.971 351.964 399.693 352.304C398.565 353.629 397.252 354.791 395.825 355.788C395.128 356.312 394.358 356.713 393.609 357.155C392.819 357.515 392.05 357.926 391.229 358.183C389.618 358.81 387.904 359.077 386.232 359.242C385.75 359.283 385.329 358.933 385.288 358.46C385.247 358.049 385.503 357.679 385.883 357.556L385.955 357.535C387.432 357.052 388.869 356.559 390.182 355.798C390.859 355.48 391.465 355.017 392.101 354.637C392.696 354.174 393.301 353.753 393.855 353.239C394.974 352.262 395.99 351.163 396.913 350.001C397.139 349.703 397.354 349.405 397.59 349.117C397.795 348.809 398.021 348.511 398.226 348.213C398.431 347.904 398.637 347.596 398.832 347.288C399.027 346.989 399.232 346.64 399.375 346.414L399.468 346.27C399.971 345.458 401.038 345.201 401.848 345.705C402.556 346.136 402.833 347.051 402.515 347.832Z" fill="#242424"/>
<path opacity="0.5" d="M258.613 599.118C318.577 599.118 367.188 594.185 367.188 588.1C367.188 582.014 318.577 577.081 258.613 577.081C198.648 577.081 150.038 582.014 150.038 588.1C150.038 594.185 198.648 599.118 258.613 599.118Z" fill="black"/>
<path d="M243.042 578.388C243.069 579.437 242.918 580.471 242.532 581.451C240.891 585.603 237.72 588.638 233.46 590.886C232.619 591.328 231.709 591.631 230.772 591.769C217.123 593.756 204.136 593.797 191.783 591.921C190.088 591.659 188.502 590.873 187.33 589.617C184.173 586.265 183.001 581.658 183.966 575.685C184.146 574.609 184.49 573.574 184.973 572.608L186.448 569.629L202.578 536.99L242.242 542.563L242.697 562.111L243.042 578.388Z" fill="#50468F"/>
<path d="M188.64 565.145C184.132 578.195 202.62 585.12 217.84 575.74C219.219 574.885 220.887 574.622 222.486 574.912L227.187 575.767C228.497 576.002 229.779 575.105 229.917 573.781C230.248 570.594 228.759 567.78 225.933 565.256C224.582 564.042 223.63 562.455 223.286 560.676C222.307 555.627 221.755 550.909 222.459 547.226L200.152 541.018L188.64 565.145Z" fill="white"/>
<path d="M210.313 595.356C203.875 595.356 197.588 594.901 191.467 593.963C189.288 593.632 187.289 592.597 185.814 591.038C182.174 587.176 180.865 581.906 181.913 575.354C182.106 574.112 182.505 572.871 183.098 571.684L200.704 536.08C201.103 535.28 201.958 534.825 202.841 534.949L242.504 540.522C243.511 540.66 244.269 541.515 244.283 542.522L245.11 578.361C245.138 579.74 244.917 581.037 244.462 582.223C242.739 586.61 239.361 590.142 234.412 592.735C233.364 593.287 232.233 593.659 231.062 593.825C224.03 594.832 217.096 595.356 210.313 595.356ZM203.75 539.253L186.807 573.519C186.407 574.333 186.131 575.174 185.993 576.002C185.152 581.285 186.076 585.272 188.82 588.183C189.661 589.066 190.819 589.659 192.087 589.852C204.247 591.687 217.165 591.645 230.469 589.7C231.172 589.604 231.861 589.369 232.495 589.038C236.59 586.886 239.237 584.155 240.616 580.678C240.878 580.016 241.002 579.257 240.988 578.43L240.202 544.357L203.75 539.253Z" fill="#242424"/>
<path d="M243.028 577.519C242.559 587.3 182.671 590.404 184.091 575.009C182.85 581.189 183.429 586.955 189.853 591.369C203.226 594.004 217.33 593.825 231.985 591.493C239.554 587.865 243.152 583.189 243.028 577.519Z" fill="white"/>
<path d="M210.285 594.68C203.075 594.68 196.209 594.032 189.578 592.721C189.399 592.68 189.219 592.611 189.068 592.5C181.278 587.148 181.733 579.795 182.74 574.733C182.878 574.015 183.567 573.519 184.298 573.643C185.028 573.753 185.538 574.402 185.469 575.133C185.304 576.871 186.173 578.361 188.13 579.699C197.477 586.1 228.028 585.465 238.796 580.099C240.574 579.216 241.622 578.25 241.663 577.45C241.705 576.719 242.311 576.14 243.042 576.14H243.056C243.8 576.154 244.407 576.747 244.421 577.492C244.559 583.782 240.574 588.9 232.592 592.735C232.468 592.79 232.344 592.832 232.206 592.859C224.513 594.073 217.234 594.68 210.285 594.68ZM190.391 590.073C202.965 592.514 216.434 592.542 231.558 590.169C236.218 587.907 239.237 585.286 240.671 582.237C240.464 582.348 240.243 582.472 240.009 582.582C229.421 587.852 197.367 589.397 186.559 581.989C185.938 581.561 185.414 581.134 184.973 580.692C185.194 584.665 186.945 587.617 190.391 590.073Z" fill="#242424"/>
<path d="M205.308 570.746C204.398 570.746 203.557 570.139 203.309 569.215C203.006 568.111 203.654 566.98 204.757 566.677L225.905 560.924C227.008 560.621 228.139 561.269 228.442 562.373C228.745 563.476 228.097 564.607 226.994 564.911L205.846 570.663C205.68 570.719 205.501 570.746 205.308 570.746Z" fill="#242424"/>
<path d="M205.859 569.698C205.28 569.698 204.701 569.449 204.288 568.98L192.707 555.503C191.962 554.634 192.059 553.323 192.928 552.578C193.796 551.833 195.106 551.93 195.85 552.799L207.431 566.277C208.175 567.146 208.079 568.456 207.21 569.201C206.824 569.532 206.342 569.698 205.859 569.698Z" fill="#242424"/>
<path d="M207.39 563.435C206.825 563.435 206.259 563.2 205.846 562.745L194.968 550.62C194.21 549.764 194.279 548.454 195.12 547.695C195.975 546.936 197.284 547.005 198.043 547.847L208.92 559.972C209.678 560.828 209.609 562.138 208.768 562.897C208.369 563.256 207.872 563.435 207.39 563.435Z" fill="#242424"/>
<path d="M209.458 557.669C208.893 557.669 208.327 557.434 207.914 556.979L197.56 545.378C196.802 544.522 196.871 543.212 197.725 542.453C198.58 541.694 199.89 541.763 200.648 542.619L211.002 554.22C211.76 555.075 211.691 556.386 210.836 557.144C210.437 557.489 209.94 557.669 209.458 557.669Z" fill="#242424"/>
<path d="M206.701 564.607C205.791 564.607 204.95 564 204.702 563.076C204.398 561.973 205.046 560.841 206.149 560.538L224.54 555.531C225.643 555.227 226.774 555.875 227.077 556.979C227.38 558.083 226.733 559.214 225.63 559.517L207.238 564.525C207.059 564.58 206.88 564.607 206.701 564.607Z" fill="#242424"/>
<path d="M207.9 558.896C206.99 558.896 206.149 558.289 205.901 557.365C205.598 556.262 206.246 555.13 207.348 554.827L223.313 550.482C224.416 550.178 225.547 550.827 225.85 551.93C226.153 553.034 225.505 554.165 224.402 554.468L208.438 558.814C208.272 558.869 208.093 558.896 207.9 558.896Z" fill="#242424"/>
<path d="M207.803 554.179C206.88 554.179 206.052 553.558 205.804 552.634C205.515 551.53 206.177 550.399 207.279 550.109L225.933 545.212C227.036 544.922 228.166 545.584 228.456 546.688C228.745 547.792 228.083 548.923 226.98 549.213L208.327 554.11C208.148 554.165 207.969 554.179 207.803 554.179Z" fill="#242424"/>
<path d="M242.408 550.716L233.309 555.006C232.537 555.365 232.04 556.137 232.013 556.979C231.806 562.331 232.895 566.621 235.708 569.518C236.549 570.387 237.789 570.732 238.961 570.498L242.849 569.698L242.408 550.716Z" fill="#242424"/>
<path d="M238.203 571.96C236.893 571.96 235.625 571.436 234.701 570.484C231.765 567.463 230.386 562.897 230.62 556.924C230.675 555.558 231.475 554.33 232.716 553.751L241.815 549.461C242.242 549.268 242.739 549.295 243.125 549.53C243.525 549.778 243.773 550.206 243.773 550.675L244.214 569.656C244.228 570.318 243.759 570.912 243.111 571.036L239.223 571.836C238.892 571.932 238.548 571.96 238.203 571.96ZM241.084 552.882L233.901 556.275C233.598 556.413 233.405 556.717 233.391 557.062C233.185 562.318 234.26 566.083 236.686 568.58C237.183 569.091 237.941 569.311 238.672 569.174L241.443 568.608L241.084 552.882Z" fill="#242424"/>
<path d="M203.185 581.465C198.18 581.465 193.782 580.002 190.86 577.657C186.875 574.457 185.579 569.725 187.33 564.69C187.344 564.635 187.372 564.594 187.385 564.552L198.883 540.411C199.173 539.804 199.848 539.501 200.496 539.68L222.803 545.888C223.492 546.081 223.92 546.771 223.782 547.474C223.203 550.468 223.465 554.455 224.609 560.4C224.885 561.848 225.657 563.159 226.829 564.207C230.124 567.159 231.626 570.429 231.268 573.905C231.171 574.912 230.661 575.795 229.834 576.416C229.007 577.037 227.945 577.299 226.911 577.106L222.21 576.25C220.9 576.016 219.605 576.25 218.529 576.899C213.359 580.127 207.996 581.465 203.185 581.465ZM189.922 565.67C188.599 569.574 189.55 573.064 192.597 575.505C197.436 579.395 207.679 580.389 217.109 574.567C218.75 573.56 220.749 573.202 222.72 573.546L227.422 574.402C227.683 574.457 227.973 574.388 228.194 574.222C228.304 574.14 228.497 573.946 228.538 573.629C228.8 571.05 227.642 568.636 225.009 566.277C223.382 564.828 222.321 562.98 221.921 560.938C220.845 555.393 220.528 551.392 220.9 548.233L200.882 542.646L189.922 565.67Z" fill="#242424"/>
<path d="M192.556 482.777L179.886 492.295L181.002 500.365L196.43 498.158L192.556 482.777Z" fill="#74698B"/>
<g opacity="0.3">
<path d="M192.556 482.777L179.886 492.295L181.002 500.365L196.43 498.158L192.556 482.777Z" fill="#242424"/>
</g>
<path d="M182.726 500.365L184.573 518.45C184.697 519.664 185.676 520.63 186.889 520.726L196.443 521.499L195.395 498.296L182.726 500.365Z" fill="#74698B"/>
<g opacity="0.3">
<path d="M182.726 500.365L184.573 518.45C184.697 519.664 185.676 520.63 186.889 520.726L196.443 521.499L195.395 498.296L182.726 500.365Z" fill="#242424"/>
</g>
<path d="M181.002 502.448C180.561 502.448 180.12 502.31 179.762 502.034C179.32 501.703 179.031 501.207 178.962 500.669L177.845 492.599C177.749 491.854 178.052 491.109 178.659 490.654L191.329 481.135C191.88 480.722 192.611 480.611 193.259 480.846C193.907 481.08 194.403 481.618 194.582 482.294L198.456 497.675C198.594 498.241 198.498 498.848 198.167 499.331C197.836 499.813 197.326 500.145 196.747 500.227L181.306 502.434C181.195 502.434 181.099 502.448 181.002 502.448ZM182.092 493.22L182.753 498.02L193.851 496.434L191.301 486.295L182.092 493.22Z" fill="#242424"/>
<path d="M196.429 523.582C196.374 523.582 196.319 523.582 196.264 523.582L186.71 522.809C184.49 522.63 182.726 520.892 182.505 518.685L180.658 500.6C180.547 499.51 181.306 498.517 182.381 498.351L195.051 496.282C195.63 496.185 196.223 496.351 196.691 496.723C197.16 497.096 197.422 497.648 197.45 498.241L198.497 521.444C198.525 522.037 198.291 522.616 197.863 523.03C197.491 523.375 196.967 523.582 196.429 523.582ZM184.987 502.103L186.627 518.243C186.655 518.464 186.834 518.643 187.055 518.657L194.265 519.25L193.424 500.724L184.987 502.103Z" fill="#242424"/>
<path d="M249.921 484.75L249.494 495.647L248.157 529.403C248.101 530.659 247.591 531.831 246.709 532.714L243.235 536.19C242.587 536.839 242.215 537.721 242.215 538.646V546.178C228.414 549.626 212.491 547.695 200.138 541.005V533.762C197.05 533.762 194.513 531.321 194.389 528.244L191.88 467.52L249.921 484.75Z" fill="#74698B"/>
<g opacity="0.6">
<path d="M247.508 498.158C247.067 498.172 246.861 502.641 244.986 519.443C244.917 520.106 244.6 522.768 243.566 526.065C242.862 528.3 242.421 529.734 241.456 531.003C239.719 533.28 237.017 534.107 232.922 534.797C228.993 535.459 223.313 536.094 216.199 535.749C226.098 537.556 233.35 537.046 237.637 536.425C240.229 536.052 242.835 535.487 244.848 533.417C247.55 530.659 247.688 526.768 247.743 524.161C247.991 511.167 248.253 498.131 247.508 498.158Z" fill="white"/>
</g>
<path d="M228.138 549.957C218.005 549.957 207.803 547.516 199.159 542.826C198.497 542.467 198.07 541.763 198.07 541.005V535.556C194.858 534.687 192.473 531.817 192.321 528.327L189.812 467.603C189.784 466.941 190.088 466.292 190.611 465.878C191.135 465.465 191.838 465.34 192.473 465.533L250.5 482.777C251.41 483.053 252.017 483.894 251.975 484.846L250.211 529.486C250.142 531.266 249.411 532.935 248.156 534.19L244.682 537.666C244.42 537.928 244.269 538.287 244.269 538.66V546.191C244.269 547.143 243.621 547.971 242.697 548.205C237.996 549.378 233.074 549.957 228.138 549.957ZM202.206 539.749C213.387 545.447 227.656 547.24 240.146 544.536V538.646C240.146 537.17 240.726 535.776 241.773 534.728L245.248 531.252C245.758 530.741 246.061 530.052 246.088 529.32L247.784 486.281L194.072 470.32L196.457 528.148C196.54 530.134 198.153 531.679 200.138 531.679C201.282 531.679 202.206 532.604 202.206 533.749V539.749Z" fill="#242424"/>
<path d="M196.347 525.43C196.25 530.865 204.054 532.728 208.438 533.9C214.311 535.266 220.432 535.97 226.526 536.604C227.022 536.659 227.38 537.101 227.339 537.597C227.284 538.066 226.884 538.425 226.402 538.411C220.184 538.163 214.007 537.846 207.845 536.825C201.641 535.776 192.418 533.321 192.211 525.444C192.211 522.575 196.361 522.575 196.347 525.43Z" fill="#242424"/>
<g opacity="0.3">
<path d="M211.057 533.404C210.96 534.342 211.209 535.294 211.843 535.983C212.008 536.163 212.256 536.356 212.684 536.563C214.655 537.515 216.034 536.397 217.164 537.156C218.088 537.777 217.592 538.797 218.46 540.163C219.453 541.722 221.245 542.219 222.445 542.563C225.133 543.308 232.316 543.902 242.215 544.039V546.191C228.414 549.64 212.491 547.709 200.138 541.018V533.776C197.05 533.776 194.513 531.334 194.389 528.258L191.88 467.534L249.907 484.777L249.48 495.675C245.606 498.765 241.263 499.703 240.67 499.827C235.418 500.889 233.667 499.344 223.851 499.841C221.438 499.965 218.915 500.379 217.04 501.896C214.228 504.159 213.663 508.132 213.29 511.718L211.057 533.404Z" fill="#242424"/>
</g>
<g opacity="0.3">
<path d="M242.67 562.111C241.236 563.711 239.719 564.87 238.106 565.711C224.513 572.815 208.12 557.876 191.659 566.125C189.619 567.146 187.882 568.373 186.42 569.629L202.551 536.99L242.215 542.563L242.67 562.111Z" fill="#242424"/>
</g>
<path d="M268.244 578.388C268.216 579.437 268.368 580.471 268.754 581.451C270.395 585.603 273.565 588.638 277.826 590.886C278.667 591.328 279.576 591.631 280.514 591.769C294.163 593.756 307.15 593.797 319.502 591.921C321.198 591.659 322.783 590.873 323.955 589.617C327.112 586.265 328.284 581.658 327.319 575.685C327.14 574.609 326.795 573.574 326.313 572.608L324.838 569.629L308.707 536.99L269.043 542.563L268.589 562.111L268.244 578.388Z" fill="#50468F"/>
<path d="M322.659 565.145C327.168 578.195 308.68 585.12 293.459 575.74C292.081 574.885 290.413 574.622 288.813 574.912L284.112 575.767C282.802 576.002 281.52 575.105 281.382 573.781C281.052 570.594 282.54 567.78 285.367 565.256C286.718 564.042 287.669 562.455 288.014 560.676C288.993 555.627 289.544 550.909 288.841 547.226L311.148 541.018L322.659 565.145Z" fill="white"/>
<path d="M300.973 595.356C294.19 595.356 287.255 594.846 280.224 593.811C279.052 593.645 277.922 593.273 276.874 592.721C271.938 590.128 268.561 586.596 266.837 582.21C266.369 581.023 266.148 579.727 266.189 578.347L267.017 542.508C267.044 541.487 267.789 540.646 268.795 540.508L308.459 534.935C309.341 534.811 310.21 535.266 310.596 536.066L328.201 571.67C328.794 572.857 329.194 574.098 329.387 575.34C330.435 581.892 329.125 587.176 325.485 591.024C324.01 592.583 322.011 593.618 319.833 593.949C313.712 594.887 307.411 595.356 300.973 595.356ZM271.097 544.371L270.312 578.444C270.298 579.271 270.422 580.03 270.684 580.692C272.049 584.168 274.71 586.914 278.804 589.052C279.438 589.383 280.128 589.604 280.831 589.714C294.149 591.659 307.053 591.714 319.213 589.866C320.481 589.673 321.639 589.079 322.48 588.196C325.223 585.286 326.147 581.299 325.306 576.016C325.168 575.174 324.906 574.347 324.493 573.519L307.549 539.253L271.097 544.371Z" fill="#242424"/>
<path d="M268.272 577.519C268.74 587.3 328.629 590.404 327.209 575.009C328.45 581.189 327.871 586.955 321.446 591.369C308.073 594.004 293.97 593.825 279.315 591.493C271.746 587.865 268.148 583.189 268.272 577.519Z" fill="white"/>
<path d="M301.014 594.68C294.052 594.68 286.787 594.073 279.094 592.845C278.956 592.818 278.832 592.79 278.708 592.721C270.725 588.9 266.741 583.768 266.879 577.478C266.893 576.733 267.499 576.14 268.244 576.126C268.961 576.085 269.609 576.692 269.636 577.437C269.678 578.237 270.712 579.202 272.504 580.085C283.271 585.438 313.822 586.086 323.169 579.685C325.113 578.347 325.996 576.857 325.83 575.119C325.761 574.388 326.285 573.726 327.002 573.629C327.733 573.519 328.408 574.002 328.56 574.719C329.566 579.782 330.021 587.134 322.232 592.487C322.08 592.597 321.901 592.666 321.722 592.707C315.091 594.032 308.211 594.68 301.014 594.68ZM279.728 590.155C294.852 592.542 308.321 592.5 320.895 590.059C324.341 587.617 326.092 584.651 326.313 580.678C325.872 581.12 325.348 581.561 324.727 581.975C313.919 589.383 281.865 587.838 271.277 582.568C271.042 582.458 270.836 582.334 270.615 582.223C272.049 585.272 275.068 587.893 279.728 590.155Z" fill="#242424"/>
<path d="M305.978 570.746C305.798 570.746 305.619 570.719 305.426 570.677L284.278 564.925C283.175 564.621 282.527 563.49 282.83 562.386C283.133 561.283 284.264 560.635 285.367 560.938L306.515 566.69C307.618 566.994 308.266 568.125 307.963 569.229C307.729 570.139 306.888 570.746 305.978 570.746Z" fill="#242424"/>
<path d="M305.426 569.698C304.944 569.698 304.475 569.532 304.075 569.201C303.206 568.456 303.11 567.146 303.854 566.277L315.435 552.799C316.18 551.93 317.489 551.834 318.358 552.578C319.226 553.323 319.323 554.634 318.578 555.503L306.998 568.98C306.598 569.449 306.019 569.698 305.426 569.698Z" fill="#242424"/>
<path d="M303.91 563.435C303.413 563.435 302.917 563.256 302.531 562.911C301.676 562.152 301.607 560.841 302.379 559.986L313.257 547.861C314.015 547.005 315.325 546.936 316.18 547.709C317.034 548.468 317.103 549.778 316.331 550.633L305.454 562.759C305.04 563.2 304.475 563.435 303.91 563.435Z" fill="#242424"/>
<path d="M301.842 557.669C301.346 557.669 300.863 557.489 300.463 557.144C299.608 556.386 299.54 555.075 300.298 554.22L310.652 542.619C311.41 541.763 312.719 541.694 313.574 542.453C314.429 543.212 314.498 544.522 313.74 545.378L303.386 556.979C302.972 557.434 302.407 557.669 301.842 557.669Z" fill="#242424"/>
<path d="M304.599 564.607C304.42 564.607 304.241 564.58 304.048 564.538L285.657 559.531C284.554 559.228 283.906 558.096 284.209 556.993C284.512 555.889 285.643 555.241 286.746 555.544L305.137 560.552C306.24 560.855 306.888 561.986 306.585 563.09C306.35 564 305.509 564.607 304.599 564.607Z" fill="#242424"/>
<path d="M303.386 558.896C303.206 558.896 303.027 558.869 302.848 558.827L286.883 554.482C285.78 554.179 285.132 553.047 285.436 551.944C285.739 550.84 286.869 550.192 287.972 550.495L303.937 554.841C305.04 555.144 305.688 556.275 305.385 557.379C305.137 558.289 304.296 558.896 303.386 558.896Z" fill="#242424"/>
<path d="M303.496 554.179C303.317 554.179 303.151 554.151 302.972 554.11L284.319 549.226C283.216 548.937 282.554 547.805 282.844 546.702C283.133 545.598 284.264 544.936 285.367 545.226L304.02 550.123C305.123 550.413 305.785 551.544 305.495 552.647C305.247 553.558 304.406 554.179 303.496 554.179Z" fill="#242424"/>
<path d="M268.878 550.716L277.977 555.006C278.749 555.365 279.246 556.137 279.273 556.979C279.48 562.331 278.391 566.621 275.578 569.518C274.737 570.387 273.497 570.732 272.325 570.498L268.437 569.698L268.878 550.716Z" fill="#242424"/>
<path d="M273.083 571.96C272.738 571.96 272.407 571.932 272.063 571.85L268.175 571.05C267.527 570.912 267.058 570.332 267.072 569.67L267.513 550.689C267.527 550.22 267.775 549.792 268.161 549.544C268.561 549.295 269.057 549.268 269.471 549.475L278.57 553.765C279.811 554.344 280.61 555.558 280.666 556.938C280.9 562.911 279.521 567.477 276.585 570.498C275.661 571.45 274.407 571.96 273.083 571.96ZM269.857 568.58L272.628 569.146C273.359 569.298 274.117 569.077 274.613 568.553C277.04 566.056 278.115 562.29 277.908 557.034C277.895 556.689 277.701 556.4 277.398 556.248L270.215 552.854L269.857 568.58Z" fill="#242424"/>
<path d="M308.101 581.465C303.303 581.465 297.926 580.127 292.729 576.912C291.667 576.25 290.358 576.03 289.048 576.264L284.347 577.119C283.327 577.299 282.265 577.05 281.424 576.43C280.611 575.809 280.1 574.926 279.99 573.919C279.632 570.443 281.121 567.187 284.429 564.221C285.601 563.173 286.36 561.862 286.649 560.414C287.793 554.468 288.055 550.482 287.476 547.488C287.338 546.785 287.766 546.095 288.455 545.902L310.762 539.694C311.41 539.515 312.085 539.818 312.375 540.425L323.873 564.566C323.9 564.607 323.914 564.663 323.928 564.704C325.665 569.739 324.383 574.471 320.399 577.671C317.503 580.002 313.119 581.465 308.101 581.465ZM290.054 573.409C291.516 573.409 292.95 573.795 294.177 574.553C303.607 580.375 313.85 579.382 318.689 575.492C321.736 573.05 322.687 569.546 321.364 565.656L310.39 542.646L290.385 548.219C290.757 551.392 290.44 555.393 289.365 560.924C288.965 562.966 287.904 564.814 286.277 566.263C283.63 568.636 282.472 571.036 282.747 573.615C282.775 573.933 282.968 574.112 283.092 574.209C283.313 574.374 283.588 574.443 283.864 574.388L288.565 573.533C289.062 573.464 289.558 573.409 290.054 573.409Z" fill="#242424"/>
<path d="M318.744 482.777L331.414 492.295L330.297 500.365L314.856 498.158L318.744 482.777Z" fill="#74698B"/>
<g opacity="0.3">
<path d="M318.744 482.777L331.414 492.295L330.297 500.365L314.856 498.158L318.744 482.777Z" fill="#242424"/>
</g>
<path d="M328.574 500.365L326.727 518.45C326.603 519.664 325.624 520.63 324.411 520.726L314.856 521.499L315.904 498.296L328.574 500.365Z" fill="#74698B"/>
<g opacity="0.3">
<path d="M328.574 500.365L326.727 518.45C326.603 519.664 325.624 520.63 324.411 520.726L314.856 521.499L315.904 498.296L328.574 500.365Z" fill="#242424"/>
</g>
<path d="M330.298 502.448C330.201 502.448 330.105 502.448 330.008 502.421L314.581 500.214C314.002 500.131 313.478 499.8 313.161 499.317C312.83 498.834 312.734 498.227 312.871 497.661L316.745 482.28C316.911 481.604 317.407 481.066 318.069 480.832C318.717 480.597 319.448 480.708 319.999 481.122L332.669 490.64C333.275 491.095 333.579 491.84 333.482 492.585L332.366 500.655C332.297 501.207 331.993 501.69 331.566 502.021C331.18 502.297 330.739 502.448 330.298 502.448ZM317.421 496.434L328.519 498.02L329.181 493.22L319.971 486.295L317.421 496.434Z" fill="#242424"/>
<path d="M314.856 523.582C314.319 523.582 313.809 523.375 313.422 523.002C312.995 522.589 312.761 522.009 312.788 521.416L313.836 498.213C313.864 497.62 314.139 497.068 314.594 496.696C315.049 496.323 315.642 496.158 316.235 496.254L328.905 498.324C329.98 498.503 330.738 499.482 330.628 500.572L328.781 518.657C328.56 520.864 326.782 522.602 324.576 522.782L315.022 523.554C314.967 523.582 314.911 523.582 314.856 523.582ZM317.862 500.724L317.021 519.25L324.231 518.657C324.452 518.643 324.631 518.464 324.659 518.243L326.299 502.103L317.862 500.724Z" fill="#242424"/>
<path d="M261.378 484.75L261.806 495.647L263.143 529.403C263.198 530.659 263.708 531.831 264.591 532.714L268.065 536.19C268.713 536.839 269.085 537.721 269.085 538.646V546.178C282.885 549.626 298.809 547.695 311.162 541.005V533.762C314.25 533.762 316.787 531.321 316.911 528.244L319.42 467.52L261.378 484.75Z" fill="#74698B"/>
<g opacity="0.6">
<path d="M263.791 498.158C264.232 498.172 264.439 502.641 266.314 519.443C266.383 520.106 266.7 522.768 267.734 526.065C268.437 528.3 268.878 529.734 269.843 531.003C271.58 533.28 274.282 534.107 278.377 534.797C282.306 535.459 287.986 536.094 295.1 535.749C285.201 537.556 277.95 537.046 273.662 536.425C271.07 536.052 268.464 535.487 266.452 533.417C263.749 530.659 263.612 526.768 263.556 524.161C263.308 511.167 263.046 498.131 263.791 498.158Z" fill="white"/>
</g>
<path d="M283.161 549.957C278.225 549.957 273.304 549.378 268.575 548.192C267.651 547.957 267.003 547.129 267.003 546.178V538.646C267.003 538.273 266.851 537.915 266.59 537.653L263.115 534.176C261.861 532.921 261.13 531.252 261.061 529.472L259.296 484.832C259.255 483.881 259.862 483.039 260.772 482.763L318.799 465.52C319.433 465.327 320.136 465.465 320.66 465.865C321.184 466.278 321.488 466.913 321.46 467.589L318.951 528.313C318.813 531.804 316.414 534.673 313.202 535.542V540.991C313.202 541.75 312.788 542.453 312.113 542.812C303.496 547.516 293.294 549.957 283.161 549.957ZM271.139 544.536C283.616 547.24 297.899 545.447 309.08 539.749V533.749C309.08 532.604 310.003 531.679 311.148 531.679C313.133 531.679 314.746 530.134 314.829 528.148L317.214 470.32L263.501 486.281L265.197 529.32C265.225 530.052 265.528 530.741 266.038 531.252L269.512 534.728C270.56 535.776 271.139 537.17 271.139 538.646V544.536Z" fill="#242424"/>
<path d="M319.088 525.43C318.868 533.321 309.672 535.763 303.455 536.811C297.292 537.846 291.102 538.149 284.898 538.397C284.402 538.411 283.974 538.025 283.96 537.528C283.947 537.046 284.305 536.645 284.774 536.59C290.881 535.956 296.989 535.252 302.862 533.887C307.039 532.755 313.174 531.321 314.76 527.031C314.911 526.506 314.966 525.941 314.952 525.375C314.939 524.23 315.849 523.292 316.979 523.265C318.165 523.251 319.13 524.244 319.088 525.43Z" fill="#242424"/>
<g opacity="0.3">
<path d="M300.229 533.404C300.325 534.342 300.077 535.294 299.443 535.983C299.278 536.163 299.029 536.356 298.602 536.563C296.631 537.515 295.252 536.397 294.121 537.156C293.198 537.777 293.694 538.797 292.826 540.163C291.833 541.722 290.041 542.219 288.841 542.563C286.153 543.308 278.97 543.902 269.071 544.039V546.191C282.872 549.64 298.795 547.709 311.148 541.018V533.776C314.236 533.776 316.773 531.334 316.897 528.258L319.406 467.534L261.378 484.777L261.806 495.675C265.68 498.765 270.023 499.703 270.615 499.827C275.868 500.889 277.619 499.344 287.435 499.841C289.848 499.965 292.371 500.379 294.246 501.896C297.058 504.159 297.623 508.132 297.995 511.718L300.229 533.404Z" fill="#242424"/>
</g>
<g opacity="0.3">
<path d="M268.63 562.111C270.064 563.711 271.58 564.87 273.193 565.711C286.787 572.815 303.179 557.876 319.64 566.125C321.681 567.146 323.418 568.373 324.879 569.629L308.749 536.99L269.085 542.563L268.63 562.111Z" fill="#242424"/>
</g>
<path d="M323.5 360.348C329.635 407.664 333.344 451.104 319.019 465.947C323.403 483.149 299.704 492.516 255.326 492.516H255.905C211.526 492.516 187.827 483.149 192.211 465.947C177.886 451.104 181.595 407.664 187.73 360.348L193.134 326.068L316.841 327.31L323.5 360.348Z" fill="#16B768"/>
<g opacity="0.6">
<path d="M244.503 492.295C230.965 491.357 219.439 489.661 210.133 487.26C218.805 490.019 230.358 491.716 244.503 492.295Z" fill="white"/>
<path d="M323.5 360.348C322.549 356.265 321.625 352.113 320.743 347.864C319.268 340.843 317.972 333.987 316.841 327.31C295.707 327.089 274.572 326.882 253.437 326.675L317.158 331.586C319.268 341.174 321.391 350.761 323.5 360.348C320.55 375.923 320.936 388.31 321.887 396.932C322.963 406.575 324.782 411.679 325.1 424.315C325.444 438.054 323.293 446.704 322.797 448.704C320.619 457.602 317.338 464.54 314.746 469.175C314.649 470.941 314.291 473.907 312.678 476.997C307.604 486.667 294.879 488.433 295.045 488.916C295.21 489.412 309.548 489.15 316.042 478.763C319.157 473.769 319.171 468.513 319.006 465.961C326.657 448.966 328.574 434.937 328.918 425.336C329.125 419.666 328.781 415.61 326.244 389.097C325.513 381.275 324.589 371.564 323.5 360.348Z" fill="white"/>
</g>
<path d="M324.493 360.224C326.781 368.998 327.374 378.006 328.505 386.959C330.518 408.23 335.894 450.952 320.495 467.382L321.005 465.437C322.494 470.817 321.019 476.845 316.979 480.763C307.039 490.599 288.151 492.682 274.778 493.896C268.285 494.378 261.792 494.585 255.298 494.585V490.447H255.877C257.021 490.447 257.945 491.371 257.945 492.516C257.945 493.661 257.021 494.585 255.877 494.585C249.384 494.571 242.89 494.378 236.397 493.896C221.893 492.613 191.287 489.371 189.633 470.872C189.522 469.01 189.757 467.175 190.17 465.437L190.681 467.382C175.157 451.035 180.41 408.244 182.464 386.931C183.47 377.951 184.518 368.998 186.765 360.224C186.889 359.714 187.413 359.41 187.923 359.548C188.351 359.659 188.64 360.045 188.64 360.473C188.447 374.019 186.283 387.29 185.497 400.753C184.504 418.052 181.843 451.187 193.686 464.513C194.182 465.064 194.348 465.796 194.196 466.458C193.079 470.569 194.113 474.9 197.188 477.894C206.259 486.722 224.444 488.654 236.714 489.771C243.083 490.24 249.48 490.447 255.877 490.447V494.585H255.298C254.154 494.585 253.23 493.661 253.23 492.516C253.23 491.371 254.154 490.447 255.298 490.447C261.695 490.433 268.106 490.24 274.461 489.771C287.145 488.709 321.556 485.15 316.979 466.458C316.814 465.74 317.034 465.009 317.489 464.513C320.233 461.561 322.094 457.67 323.376 453.573C327.112 440.868 326.988 427.363 326.616 414.134C326.147 400.726 324.865 387.29 323.39 373.936C322.88 369.481 322.411 365.011 322.466 360.473C322.466 359.907 322.935 359.466 323.486 359.466C323.983 359.479 324.383 359.797 324.493 360.224Z" fill="#242424"/>
<path d="M187.482 452.663C191.742 467.934 209.899 472.169 223.644 474.638C232.895 476.211 242.215 477.038 251.576 477.907C252.21 477.963 252.679 478.528 252.623 479.163C252.568 479.756 252.072 480.197 251.493 480.211C249.908 480.252 248.336 480.266 246.75 480.266C245.551 480.266 243.193 480.239 242.008 480.197C226.843 479.659 208.534 477.935 195.396 469.727C189.66 466.182 185.014 460.374 183.47 453.698C182.864 451.035 186.724 450.028 187.482 452.663Z" fill="#242424"/>
<path d="M327.801 453.698C322.19 476.611 288.785 479.466 269.264 480.197C266.203 480.294 262.825 480.294 259.765 480.211C258.359 480.17 258.234 478.059 259.682 477.907C265.941 477.328 272.186 476.776 278.377 475.99C290.399 474.376 303.027 472.527 313.491 466.058C318.44 462.94 322.259 458.333 323.776 452.663C324.534 450.042 328.408 451.008 327.801 453.698Z" fill="#242424"/>
<g opacity="0.2">
<path d="M196.278 479.908C241.76 496.779 284.277 491.399 309.121 472.527C266.548 481.48 210.133 478.307 190.694 464.195L196.278 479.908Z" fill="#242424"/>
</g>
<path d="M271.163 375.65C271.019 374.597 269.994 373.927 268.981 374.178C263.283 375.537 257.561 375.346 252.291 373.889C251.178 373.581 250.011 374.275 249.8 375.432L249.154 378.99C249.02 379.727 249.459 380.447 250.167 380.648C250.783 380.824 251.438 380.557 251.768 379.997L252.972 377.949C253.237 377.499 253.75 377.272 254.255 377.369C254.772 377.468 255.175 377.888 255.246 378.419L255.536 380.589C255.632 381.303 256.194 381.858 256.898 381.931C257.59 382.003 258.243 381.59 258.488 380.925L259.263 378.822C259.446 378.325 259.923 378.008 260.443 378.019C260.963 378.029 261.426 378.365 261.589 378.869L262.278 381.002C262.496 381.676 263.132 382.115 263.827 382.071C264.532 382.026 265.117 381.495 265.241 380.785L265.619 378.62C265.712 378.092 266.125 377.689 266.645 377.611C267.154 377.535 267.663 377.782 267.909 378.243L269.033 380.348C269.338 380.92 269.98 381.213 270.601 381.066C271.318 380.896 271.789 380.195 271.687 379.452L271.163 375.65Z" fill="#242424"/>
<path d="M267.318 382.685C266.685 382.52 266.014 382.769 265.677 383.293L264.449 385.208C264.179 385.628 263.654 385.839 263.138 385.748C262.609 385.655 262.196 385.262 262.122 384.766L261.821 382.736C261.722 382.066 261.143 381.545 260.421 381.475C259.71 381.406 259.041 381.792 258.79 382.415L258.002 384.374C257.816 384.838 257.326 385.133 256.794 385.122C256.262 385.111 255.79 384.797 255.623 384.326L254.913 382.333C254.689 381.703 254.038 381.292 253.327 381.331C252.605 381.372 252.009 381.867 251.883 382.53L251.5 384.543C251.406 385.036 250.977 385.412 250.445 385.484C249.925 385.554 249.409 385.322 249.157 384.892L248.006 382.933C247.692 382.398 247.032 382.123 246.396 382.262C245.664 382.422 245.186 383.076 245.294 383.77L245.814 387.108C245.983 388.195 247.15 388.888 248.3 388.645C253.745 387.494 259.603 387.543 265.375 389.043C266.4 389.305 267.477 388.73 267.669 387.757L268.363 384.241C268.499 383.55 268.046 382.874 267.318 382.685Z" fill="#242424"/>
<path d="M216.652 281.138C212.334 285.077 205.847 287.5 198.601 287.905C186.086 288.62 171.327 283.39 161.548 269.813C151.94 256.471 152.421 240.621 155.349 229.585C157.134 222.882 159.817 217.961 161.687 216.477C166.646 212.539 194.679 206.359 214.728 228.795C234.778 251.241 226.345 272.268 216.652 281.138Z" fill="#FBA3CB"/>
<path d="M298.026 281.352C302.322 285.322 308.788 287.767 316.044 288.215C328.549 288.994 343.34 283.839 353.194 270.315C362.866 257.026 362.47 241.165 359.606 230.118C357.864 223.405 355.214 218.473 353.343 216.979C348.406 213.008 320.405 206.679 300.238 229.019C280.06 251.359 288.386 272.439 298.026 281.352Z" fill="#FBA3CB"/>
<path d="M196.228 290.019C181.982 290.019 168.548 283.027 159.881 270.998C148.242 254.849 151.448 236.288 153.372 229.062C153.383 229.019 153.393 228.976 153.404 228.944C155.167 222.369 157.914 216.851 160.415 214.866C166.485 210.041 195.779 204.502 216.267 227.428C227.948 240.504 229.573 252.49 228.889 260.239C228.13 268.746 224.08 277.125 218.041 282.643C213.371 286.913 206.51 289.506 198.718 289.944C197.885 289.997 197.051 290.019 196.228 290.019ZM157.305 230.214C155.531 236.96 152.656 253.952 163.215 268.607C171.551 280.188 184.739 286.646 198.483 285.856C205.238 285.472 211.351 283.198 215.273 279.622C223.289 272.29 233.174 252.511 213.211 230.15C202.876 218.601 190.746 215.421 182.399 214.78C172.534 214.033 164.882 216.552 162.969 218.068C161.772 219.018 159.197 223.116 157.337 230.097C157.326 230.14 157.316 230.182 157.305 230.214Z" fill="#242424"/>
<path d="M216.652 281.138C212.334 285.077 205.847 287.5 198.601 287.905C210.763 267.487 200.941 233.246 186.065 224.771C170.012 215.613 155.691 229.254 155.36 229.585C157.134 222.882 159.816 217.961 161.687 216.477C166.646 212.539 194.679 206.359 214.728 228.795C234.778 251.241 226.345 272.268 216.652 281.138Z" fill="#5C546C"/>
<g opacity="0.6">
<path d="M155.478 229.254C155.52 229.211 155.83 228.912 156.375 228.453C157.872 224.643 159.549 221.932 160.843 220.896C165.78 216.926 193.781 210.607 213.948 232.936C224.368 244.474 227.179 255.682 226.142 265.042C228.836 254.849 227.104 241.742 214.846 228.165C194.679 205.814 166.678 212.155 161.74 216.114C159.87 217.609 157.22 222.551 155.478 229.254Z" fill="white"/>
</g>
<path d="M198.601 289.773C197.949 289.773 197.34 289.432 196.998 288.877C196.634 288.289 196.634 287.542 196.987 286.955C202.555 277.595 203.741 263.9 200.15 250.313C197.211 239.169 191.451 230.001 185.124 226.393C170.375 217.972 157.209 230.385 156.653 230.919C156.054 231.506 155.135 231.613 154.408 231.186C153.682 230.759 153.329 229.905 153.543 229.094C155.274 222.615 158.074 216.947 160.532 215.004C166.571 210.201 195.726 204.704 216.128 227.546C227.767 240.578 229.391 252.512 228.707 260.218C227.959 268.682 223.919 277.018 217.913 282.504C213.274 286.742 206.456 289.325 198.697 289.762C198.665 289.773 198.633 289.773 198.601 289.773ZM174.501 219.722C178.402 219.722 182.623 220.661 186.994 223.148C194.262 227.3 200.535 237.099 203.773 249.363C207.225 262.449 206.488 275.727 201.871 285.685C207.3 284.842 212.11 282.761 215.38 279.761C223.438 272.386 233.388 252.501 213.328 230.044C194.507 208.963 167.607 214.151 162.852 217.929C162.007 218.601 160.468 220.822 158.983 224.504C162.67 222.22 168.131 219.722 174.501 219.722Z" fill="#242424"/>
<g opacity="0.2">
<path d="M204.062 266.889C202.876 267.337 201.604 267.583 200.289 267.572C193.46 267.551 187.935 260.986 187.956 252.896C187.977 245.851 192.188 239.97 197.788 238.593C201.828 246.705 204.265 256.952 204.062 266.889Z" fill="#242424"/>
</g>
<path d="M200.311 269.621C200.3 269.621 200.29 269.621 200.279 269.621C192.327 269.6 185.883 262.096 185.904 252.885C185.926 245.072 190.714 238.22 197.297 236.597C198.227 236.362 199.199 236.811 199.627 237.675C203.955 246.363 206.317 257.026 206.103 266.932C206.082 267.764 205.558 268.511 204.778 268.799C203.357 269.354 201.85 269.621 200.311 269.621ZM196.72 241.123C192.766 242.937 190.019 247.612 190.008 252.896C189.987 259.844 194.604 265.512 200.29 265.523C200.877 265.523 201.454 265.469 202.01 265.352C201.957 257.144 200.065 248.477 196.72 241.123Z" fill="#242424"/>
<path d="M200.311 269.621C200.3 269.621 200.29 269.621 200.279 269.621C192.327 269.6 185.883 262.096 185.904 252.885C185.926 245.072 190.714 238.22 197.297 236.597C198.227 236.362 199.199 236.811 199.627 237.675C203.955 246.363 206.317 257.026 206.103 266.932C206.082 267.764 205.558 268.511 204.778 268.799C203.357 269.354 201.85 269.621 200.311 269.621ZM196.72 241.123C192.766 242.937 190.019 247.612 190.008 252.896C189.987 259.844 194.604 265.512 200.29 265.523C200.877 265.523 201.454 265.469 202.01 265.352C201.957 257.144 200.065 248.477 196.72 241.123Z" fill="#242424"/>
<path d="M318.641 290.349C317.733 290.349 316.835 290.317 315.916 290.264C308.125 289.784 301.285 287.147 296.636 282.857C290.63 277.296 286.611 268.906 285.906 260.389C285.254 252.64 286.953 240.664 298.699 227.653C319.315 204.832 348.577 210.521 354.626 215.389C357.116 217.385 359.831 222.914 361.562 229.499C361.573 229.542 361.583 229.574 361.594 229.617C363.475 236.853 366.585 255.436 354.861 271.532C346.172 283.444 332.792 290.349 318.641 290.349ZM299.426 279.847C303.326 283.444 309.429 285.749 316.173 286.176C329.917 287.03 343.126 280.658 351.526 269.12C362.16 254.518 359.371 237.504 357.64 230.759C357.629 230.716 357.618 230.684 357.608 230.641C355.791 223.65 353.236 219.541 352.05 218.591C350.148 217.064 342.506 214.503 332.642 215.196C324.284 215.784 312.144 218.9 301.755 230.406C281.663 252.64 291.442 272.471 299.426 279.847Z" fill="#242424"/>
<path d="M298.025 281.352C302.322 285.322 308.788 287.767 316.044 288.215C304 267.732 314.003 233.545 328.912 225.144C345.018 216.072 359.253 229.798 359.595 230.118C357.853 223.405 355.203 218.473 353.332 216.979C348.395 213.008 320.394 206.679 300.227 229.019C280.06 251.359 288.385 272.439 298.025 281.352Z" fill="#5C546C"/>
<g opacity="0.6">
<path d="M359.596 230.15C359.553 230.108 359.243 229.809 358.698 229.35C357.202 225.539 355.524 222.828 354.23 221.793C349.293 217.822 321.292 211.503 301.125 233.833C290.705 245.36 287.894 256.567 288.931 265.928C286.237 255.735 287.969 242.628 300.227 229.051C320.405 206.711 348.406 213.051 353.343 217.011C355.203 218.505 357.853 223.447 359.596 230.15Z" fill="white"/>
</g>
<path d="M316.044 290.083C316.002 290.083 315.97 290.083 315.927 290.083C308.179 289.602 301.371 286.987 296.754 282.729C290.78 277.2 286.782 268.842 286.077 260.378C285.436 252.661 287.124 240.738 298.827 227.77C319.358 205.046 348.481 210.692 354.498 215.527C356.934 217.481 359.713 223.159 361.402 229.649C361.615 230.46 361.252 231.314 360.525 231.73C359.799 232.146 358.879 232.039 358.281 231.452C357.736 230.919 344.633 218.431 329.831 226.767C323.494 230.342 317.68 239.468 314.687 250.601C311.032 264.167 312.144 277.872 317.658 287.254C318.011 287.852 318 288.588 317.637 289.175C317.295 289.752 316.696 290.083 316.044 290.083ZM299.297 279.985C302.557 282.995 307.356 285.109 312.774 285.984C308.211 275.993 307.548 262.715 311.075 249.651C314.377 237.398 320.704 227.642 328.004 223.533C339.525 217.043 350.084 221.323 355.994 225.048C354.53 221.355 353.012 219.124 352.168 218.452C347.433 214.641 320.565 209.305 301.616 230.278C281.439 252.629 291.282 272.567 299.297 279.985Z" fill="#242424"/>
<path d="M310.701 267.177C311.887 267.636 313.159 267.881 314.473 267.881C321.303 267.903 326.86 261.36 326.881 253.269C326.903 246.225 322.713 240.322 317.124 238.913C313.041 246.993 310.551 257.229 310.701 267.177Z" fill="#FBA3CB"/>
<g opacity="0.2">
<path d="M310.701 267.177C311.887 267.636 313.159 267.881 314.473 267.881C321.303 267.903 326.86 261.36 326.881 253.269C326.903 246.225 322.713 240.322 317.124 238.913C313.041 246.993 310.551 257.229 310.701 267.177Z" fill="#242424"/>
</g>
<path d="M314.495 269.931C314.484 269.931 314.473 269.931 314.463 269.931C312.913 269.931 311.395 269.643 309.963 269.088C309.183 268.789 308.67 268.042 308.649 267.209C308.499 257.304 310.914 246.662 315.286 237.995C315.713 237.141 316.686 236.693 317.626 236.928C324.199 238.593 328.955 245.467 328.933 253.28C328.923 257.678 327.448 261.819 324.797 264.946C322.061 268.159 318.406 269.931 314.495 269.931ZM312.753 265.651C313.319 265.768 313.896 265.832 314.473 265.832C317.188 265.832 319.71 264.583 321.666 262.289C323.696 259.898 324.819 256.685 324.829 253.259C324.84 247.965 322.125 243.279 318.171 241.443C314.783 248.786 312.849 257.432 312.753 265.651Z" fill="#242424"/>
<path d="M333.134 314.056C333.016 356.718 282.924 361.073 259.38 361.254C258.579 361.254 257.809 361.265 257.072 361.254C237.353 361.201 193.482 358.533 183.372 327.771C181.993 323.598 181.245 318.912 181.255 313.65C181.394 262.694 222.156 226.34 257.424 226.436C292.928 226.532 333.273 263.1 333.134 314.056Z" fill="#74698B"/>
<g opacity="0.6">
<path d="M332.973 312.487C329.542 265.299 291.335 232.125 257.531 232.029C222.284 231.933 181.576 268.212 181.351 319.094C181.191 317.461 181.105 315.774 181.116 314.013C181.255 263.057 222.017 226.713 257.285 226.799C292.329 226.895 332.107 262.534 332.973 312.487Z" fill="white"/>
</g>
<path d="M321.11 301.813C307.248 294.715 289.262 311.131 259.551 297.159H258.931C229.145 310.971 207.151 294.448 193.246 301.471C179.342 308.484 183.35 327.803 183.35 327.803C193.182 357.753 237.877 360.368 257.039 360.411C257.691 360.411 258.364 360.411 259.059 360.411C259.754 360.422 260.438 360.422 261.079 360.422C280.242 360.475 320.854 358.095 330.846 328.198C330.868 328.187 334.982 308.9 321.11 301.813Z" fill="#C7C3D1"/>
<path d="M257.586 300.042C256.186 302.433 254.305 304.578 252.135 306.393C249.955 308.207 247.454 309.67 244.825 310.79C239.535 313.021 233.774 313.854 228.142 313.864C222.36 313.822 216.739 312.477 211.545 310.267C208.958 309.147 206.458 307.78 204.181 306.105C203.625 305.656 203.059 305.24 202.525 304.781L201.744 304.066L201.36 303.703L200.996 303.308C200.013 302.305 199.179 301.131 198.57 299.893C200.515 301.857 202.835 303.212 205.229 304.386C207.633 305.539 210.134 306.478 212.667 307.247C217.743 308.773 222.98 309.734 228.142 309.776C233.432 309.766 238.701 309.275 243.724 307.78C248.747 306.297 253.45 303.735 257.586 300.042Z" fill="#A6A3AE"/>
<path d="M317.786 300.042C316.386 302.433 314.505 304.578 312.336 306.393C310.155 308.207 307.654 309.67 305.025 310.79C299.735 313.021 293.975 313.854 288.342 313.864C282.561 313.822 276.939 312.477 271.745 310.267C269.159 309.147 266.658 307.78 264.381 306.105C263.826 305.656 263.259 305.24 262.725 304.781L261.945 304.066L261.56 303.703L261.197 303.308C260.213 302.305 259.38 301.131 258.771 299.893C260.716 301.857 263.035 303.212 265.429 304.386C267.833 305.539 270.334 306.478 272.867 307.247C277.944 308.773 283.18 309.734 288.342 309.776C293.633 309.766 298.902 309.275 303.925 307.78C308.948 306.297 313.65 303.735 317.786 300.042Z" fill="#A6A3AE"/>
<g opacity="0.2">
<path d="M332.492 314.376C332.374 357.038 282.283 361.393 258.739 361.585C257.937 361.585 257.167 361.585 256.43 361.585C236.712 361.532 192.851 358.863 182.73 328.102C181.351 323.929 180.603 319.243 180.614 313.981C180.625 310.555 180.817 307.182 181.18 303.894C181.49 307.203 182.142 310.266 183.072 313.095C193.182 343.856 237.054 346.525 256.772 346.578C257.509 346.578 258.279 346.578 259.08 346.578C281.129 346.397 326.464 342.576 332.214 307.043C332.406 309.434 332.492 311.889 332.492 314.376Z" fill="#242424"/>
</g>
<path d="M257.552 363.314C257.392 363.314 257.221 363.314 257.061 363.314C215.038 363.197 188.886 351.136 181.416 328.422C179.93 323.918 179.193 318.944 179.203 313.65C179.267 289.57 188.309 266.782 204.671 249.502C219.559 233.779 239.213 224.397 257.296 224.397C257.339 224.397 257.392 224.397 257.435 224.397C275.625 224.451 295.332 233.939 310.134 249.79C326.347 267.134 335.239 289.965 335.175 314.077C335.121 333.471 325.246 347.411 305.827 355.491C293.708 360.539 278.083 363.176 259.391 363.325C258.76 363.314 258.151 363.314 257.552 363.314ZM257.296 228.485C222.455 228.485 183.446 264.85 183.318 313.65C183.307 318.506 183.98 323.043 185.327 327.131C193.995 353.505 229.135 359.13 257.082 359.205C257.819 359.205 258.578 359.205 259.38 359.205C277.527 359.056 292.628 356.537 304.256 351.691C322.008 344.305 331.039 331.635 331.081 314.045L333.133 314.056L331.081 314.045C331.145 290.99 322.638 269.152 307.142 252.565C293.088 237.526 274.502 228.528 257.424 228.474C257.381 228.485 257.339 228.485 257.296 228.485Z" fill="#242424"/>
<path d="M154.006 278.48C159.467 278.128 164.95 278.459 170.379 279.131C175.819 279.804 181.216 280.882 186.495 282.387C187.821 282.761 189.125 283.177 190.439 283.593C191.732 284.052 193.047 284.468 194.319 284.981C196.894 285.952 199.416 287.041 201.875 288.289C206.801 290.723 211.472 293.722 215.554 297.341C213.171 295.996 210.831 294.64 208.405 293.455C207.806 293.135 207.186 292.868 206.588 292.57C205.979 292.281 205.38 291.983 204.749 291.716C204.13 291.449 203.52 291.171 202.911 290.894L201.052 290.115C200.432 289.848 199.812 289.602 199.181 289.367C198.551 289.122 197.931 288.866 197.3 288.631C196.039 288.172 194.778 287.692 193.506 287.275C190.963 286.4 188.398 285.589 185.811 284.863C180.639 283.38 175.381 282.173 170.08 281.106C164.757 280.071 159.414 279.185 154.006 278.48Z" fill="#242424"/>
<path d="M150.575 300.255C155.759 298.515 161.145 297.437 166.574 296.69C172.003 295.942 177.497 295.612 182.99 295.708C184.358 295.729 185.737 295.793 187.105 295.857C188.473 295.964 189.851 296.039 191.209 296.199C193.945 296.476 196.67 296.892 199.352 297.458C204.739 298.547 210.018 300.244 214.902 302.699C212.252 302.005 209.644 301.301 206.994 300.778C206.342 300.618 205.669 300.521 205.006 300.383C204.343 300.265 203.681 300.127 203.018 300.03C202.355 299.934 201.693 299.817 201.03 299.7L199.032 299.422C198.369 299.326 197.696 299.251 197.033 299.177C196.36 299.102 195.697 299.016 195.024 298.952C193.688 298.835 192.352 298.686 191.005 298.611C188.323 298.419 185.64 298.291 182.947 298.248C177.571 298.141 172.174 298.312 166.788 298.654C161.38 299.038 155.983 299.55 150.575 300.255Z" fill="#242424"/>
<path d="M153.418 324.046C157.96 321.004 162.887 318.56 167.921 316.414C172.965 314.28 178.17 312.508 183.503 311.174C184.828 310.832 186.175 310.544 187.521 310.245C188.868 309.989 190.215 309.701 191.572 309.498C194.286 309.05 197.022 308.729 199.769 308.58C205.252 308.228 210.798 308.484 216.153 309.573C213.417 309.594 210.713 309.594 208.009 309.786C207.336 309.807 206.662 309.882 205.989 309.925C205.316 309.978 204.642 310.021 203.98 310.106C203.307 310.181 202.644 310.245 201.971 310.309L199.951 310.576C199.288 310.651 198.615 310.757 197.952 310.864C197.29 310.971 196.616 311.056 195.964 311.174C194.639 311.409 193.314 311.622 191.999 311.899C189.36 312.412 186.73 312.999 184.123 313.661C178.897 314.963 173.745 316.553 168.626 318.282C163.518 320.043 158.452 321.954 153.418 324.046Z" fill="#242424"/>
<path d="M358.177 279.879C352.769 280.583 347.426 281.469 342.114 282.494C336.813 283.55 331.555 284.757 326.382 286.251C323.796 286.977 321.231 287.788 318.687 288.663C317.405 289.079 316.154 289.57 314.893 290.019C314.263 290.253 313.643 290.51 313.012 290.755C312.382 290.99 311.751 291.235 311.142 291.502L309.282 292.281C308.673 292.559 308.064 292.847 307.444 293.103C306.824 293.359 306.215 293.669 305.606 293.957C304.997 294.256 304.377 294.523 303.789 294.843C301.352 296.028 299.012 297.373 296.639 298.728C300.732 295.11 305.392 292.111 310.319 289.677C312.777 288.439 315.299 287.34 317.875 286.368C319.157 285.867 320.461 285.44 321.754 284.981C323.069 284.564 324.373 284.148 325.698 283.775C330.978 282.27 336.375 281.192 341.815 280.519C347.222 279.868 352.716 279.526 358.177 279.879Z" fill="#242424"/>
<path d="M361.597 301.664C356.19 300.959 350.792 300.447 345.406 300.084C340.009 299.753 334.622 299.572 329.247 299.678C326.553 299.721 323.871 299.838 321.188 300.041C319.842 300.116 318.506 300.265 317.17 300.383C316.497 300.447 315.834 300.543 315.161 300.607C314.487 300.671 313.825 300.756 313.162 300.852L311.164 301.13C310.501 301.237 309.838 301.354 309.165 301.461C308.492 301.557 307.84 301.696 307.177 301.813C306.515 301.941 305.852 302.048 305.189 302.208C302.539 302.731 299.921 303.435 297.281 304.129C302.165 301.674 307.444 299.977 312.831 298.888C315.524 298.323 318.249 297.906 320.975 297.629C322.343 297.469 323.711 297.394 325.079 297.287C326.447 297.223 327.825 297.149 329.193 297.138C334.687 297.031 340.18 297.373 345.609 298.12C351.028 298.846 356.414 299.924 361.597 301.664Z" fill="#242424"/>
<path d="M358.765 325.455C353.732 323.363 348.655 321.452 343.557 319.681C338.438 317.951 333.287 316.361 328.06 315.059C325.453 314.386 322.824 313.81 320.195 313.298C318.88 313.02 317.555 312.817 316.23 312.572C315.567 312.455 314.904 312.369 314.242 312.262C313.579 312.156 312.916 312.049 312.243 311.974L310.245 311.718C309.571 311.654 308.909 311.59 308.235 311.515C307.562 311.43 306.889 311.387 306.226 311.334C305.553 311.291 304.88 311.216 304.206 311.195C301.502 311.003 298.798 311.003 296.062 310.982C301.417 309.893 306.964 309.637 312.446 309.989C315.193 310.138 317.929 310.459 320.643 310.907C322.001 311.11 323.347 311.398 324.694 311.654C326.041 311.953 327.376 312.241 328.712 312.583C334.035 313.917 339.25 315.689 344.295 317.823C349.296 319.969 354.212 322.413 358.765 325.455Z" fill="#242424"/>
<path d="M226.541 272.119C224.393 271.852 222.426 272.663 220.877 274.243C218.889 276.26 217.617 279.516 217.574 283.348C217.532 288.29 219.573 292.815 222.565 295.163C223.698 296.06 224.97 296.636 226.306 296.796C231.201 297.405 235.209 292.378 235.273 285.568C235.347 278.747 231.436 272.727 226.541 272.119Z" fill="white"/>
<path d="M227.129 297.223C226.84 297.223 226.562 297.202 226.274 297.17C224.885 296.999 223.57 296.423 222.341 295.451C219.178 292.975 217.158 288.215 217.2 283.337C217.232 279.548 218.472 276.132 220.61 273.976C222.288 272.268 224.414 271.468 226.595 271.745C231.66 272.386 235.732 278.587 235.668 285.578C235.636 289.634 234.172 293.317 231.778 295.409C230.389 296.604 228.796 297.223 227.129 297.223ZM225.729 272.439C224.051 272.439 222.469 273.144 221.144 274.499C219.145 276.527 217.981 279.751 217.948 283.348C217.906 288.001 219.808 292.527 222.801 294.864C223.912 295.74 225.109 296.273 226.359 296.423C228.123 296.647 229.822 296.092 231.265 294.832C233.509 292.868 234.867 289.41 234.899 285.557C234.963 278.939 231.19 273.069 226.488 272.482C226.242 272.46 225.985 272.439 225.729 272.439Z" fill="#242424"/>
<path d="M226.541 272.119C224.393 271.852 222.426 272.663 220.877 274.243C220.663 274.659 220.471 275.086 220.3 275.545C219.926 276.57 219.755 278.043 220.481 278.79C221.112 279.43 221.946 279.068 222.704 279.164C223.955 279.313 225.077 280.999 225.024 282.665C224.981 284.319 223.773 285.632 222.523 285.386C221.657 285.216 220.706 284.426 219.99 284.991C219.455 285.408 219.349 286.379 219.391 287.222C219.52 290.125 220.738 292.943 222.416 294.971C222.469 295.035 222.523 295.099 222.576 295.163C223.709 296.06 224.981 296.636 226.317 296.796C231.212 297.405 235.219 292.378 235.283 285.568C235.348 278.747 231.436 272.727 226.541 272.119Z" fill="#16B768"/>
<path d="M229.506 296.349C233.47 296.014 236.274 290.914 235.769 284.958C235.263 279.002 231.64 274.446 227.676 274.781C223.712 275.117 220.909 280.217 221.414 286.173C221.919 292.129 225.542 296.685 229.506 296.349Z" fill="#242424"/>
<path d="M222.801 278.811C222.042 278.715 221.197 279.078 220.578 278.438C219.851 277.691 220.022 276.218 220.396 275.193C220.567 274.734 220.759 274.296 220.973 273.891C218.985 275.908 217.713 279.164 217.671 282.995C217.628 287.937 219.669 292.463 222.662 294.811C222.608 294.747 222.555 294.683 222.501 294.619C220.834 292.591 219.605 289.773 219.477 286.87C219.445 286.016 219.552 285.055 220.075 284.639C220.791 284.073 221.742 284.863 222.608 285.034C223.859 285.28 225.066 283.967 225.109 282.312C225.173 280.647 224.051 278.961 222.801 278.811Z" fill="white"/>
<path d="M225.75 272.066C226.018 272.066 226.285 272.087 226.552 272.119C231.447 272.727 235.358 278.758 235.294 285.568C235.241 292.004 231.65 296.85 227.129 296.85C226.862 296.85 226.595 296.828 226.327 296.796C224.981 296.626 223.72 296.049 222.587 295.163C219.594 292.815 217.542 288.289 217.596 283.348C217.628 279.516 218.91 276.26 220.898 274.243C222.234 272.866 223.912 272.066 225.75 272.066ZM225.75 269.653C223.292 269.653 221.016 270.657 219.156 272.557C216.666 275.086 215.213 279.014 215.17 283.326C215.116 288.898 217.393 294.16 221.091 297.063C222.608 298.259 224.265 298.974 226.028 299.198C226.392 299.241 226.766 299.273 227.129 299.273C233.093 299.273 237.635 293.391 237.71 285.6C237.784 277.477 233.018 270.507 226.851 269.728C226.477 269.675 226.114 269.653 225.75 269.653Z" fill="#242424"/>
<path d="M288.924 272.119C291.072 271.852 293.038 272.663 294.588 274.243C296.576 276.26 297.847 279.516 297.89 283.348C297.933 288.289 295.892 292.815 292.899 295.163C291.766 296.06 290.495 296.636 289.159 296.796C284.264 297.405 280.256 292.377 280.192 285.568C280.117 278.747 284.039 272.727 288.924 272.119Z" fill="white"/>
<path d="M288.336 297.223C286.669 297.223 285.076 296.604 283.698 295.398C281.293 293.295 279.839 289.624 279.807 285.568C279.743 278.576 283.815 272.375 288.881 271.735C291.061 271.468 293.188 272.258 294.866 273.976C296.993 276.143 298.243 279.548 298.275 283.337C298.318 288.215 296.298 292.975 293.135 295.451C291.916 296.412 290.591 296.988 289.202 297.17C288.913 297.213 288.624 297.223 288.336 297.223ZM288.977 272.493C284.275 273.08 280.502 278.95 280.566 285.568C280.598 289.41 281.956 292.879 284.2 294.843C285.643 296.103 287.342 296.658 289.105 296.433C290.356 296.273 291.553 295.75 292.664 294.875C295.657 292.538 297.559 288.012 297.516 283.358C297.484 279.761 296.319 276.538 294.321 274.51C292.793 272.941 290.944 272.247 288.977 272.493Z" fill="#242424"/>
<path d="M288.924 272.119C291.072 271.852 293.038 272.663 294.588 274.243C294.802 274.659 294.994 275.086 295.165 275.545C295.539 276.57 295.71 278.043 294.983 278.79C294.353 279.43 293.519 279.068 292.76 279.164C291.51 279.313 290.388 280.999 290.441 282.665C290.484 284.319 291.692 285.632 292.942 285.386C293.808 285.216 294.759 284.426 295.475 284.991C296.009 285.408 296.116 286.379 296.074 287.222C295.945 290.125 294.727 292.943 293.049 294.971C292.996 295.035 292.942 295.099 292.889 295.163C291.756 296.06 290.484 296.636 289.148 296.796C284.253 297.405 280.246 292.378 280.181 285.568C280.117 278.747 284.04 272.727 288.924 272.119Z" fill="#16B768"/>
<path d="M294.056 286.174C294.561 280.218 291.757 275.118 287.793 274.782C283.829 274.447 280.206 279.003 279.701 284.959C279.196 290.915 282 296.015 285.963 296.35C289.927 296.686 293.55 292.129 294.056 286.174Z" fill="#242424"/>
<path d="M292.675 278.811C293.434 278.715 294.278 279.078 294.898 278.438C295.625 277.691 295.454 276.218 295.08 275.193C294.909 274.734 294.716 274.296 294.502 273.891C296.49 275.908 297.762 279.164 297.805 282.995C297.848 287.937 295.806 292.463 292.814 294.811C292.867 294.747 292.921 294.683 292.974 294.619C294.641 292.591 295.87 289.773 295.999 286.87C296.031 286.016 295.924 285.055 295.4 284.639C294.684 284.073 293.733 284.863 292.867 285.034C291.617 285.28 290.409 283.967 290.366 282.312C290.302 280.647 291.424 278.961 292.675 278.811Z" fill="white"/>
<path d="M289.725 272.066C291.563 272.066 293.241 272.866 294.588 274.243C296.576 276.26 297.848 279.516 297.89 283.348C297.933 288.289 295.892 292.815 292.899 295.163C291.766 296.06 290.495 296.636 289.159 296.796C288.892 296.828 288.624 296.85 288.357 296.85C283.836 296.85 280.256 292.004 280.192 285.568C280.128 278.747 284.039 272.727 288.934 272.119C289.191 272.087 289.458 272.066 289.725 272.066ZM289.725 269.653C289.362 269.653 288.988 269.675 288.624 269.717C282.458 270.486 277.691 277.456 277.766 285.589C277.841 293.381 282.383 299.262 288.346 299.262C288.71 299.262 289.084 299.241 289.447 299.187C291.211 298.963 292.867 298.248 294.385 297.053C298.083 294.16 300.348 288.898 300.295 283.326C300.252 279.014 298.799 275.086 296.298 272.557C294.46 270.657 292.183 269.653 289.725 269.653Z" fill="#242424"/>
<path d="M274.741 294.441C277.263 295.925 278.588 298.796 278.577 301.721C278.567 306.375 274.751 310.228 269.76 310.996C269.151 311.082 268.531 311.135 267.89 311.135C266.298 311.135 264.791 310.815 263.433 310.26C260.698 309.128 258.592 307.004 257.716 304.421C256.829 307.004 254.702 309.118 251.966 310.238C250.609 310.783 249.091 311.092 247.499 311.092C246.868 311.092 246.238 311.039 245.628 310.943C240.637 310.142 236.843 306.278 236.854 301.625C236.865 299.298 237.816 297.163 239.408 295.519C239.408 295.509 255.194 282.999 274.741 294.441Z" fill="white"/>
<g opacity="0.2">
<path d="M278.61 301.721C278.599 306.375 274.794 310.228 269.793 310.996C269.183 311.092 268.564 311.135 267.922 311.135C266.33 311.135 264.823 310.815 263.466 310.26C260.73 309.128 258.624 307.004 257.748 304.421C256.861 307.004 254.734 309.118 251.998 310.238C250.63 310.783 249.123 311.092 247.531 311.092C246.9 311.092 246.27 311.039 245.661 310.943C240.67 310.153 236.886 306.278 236.886 301.625C236.886 300.002 237.356 298.487 238.158 297.163C238.158 297.163 242.027 310.996 257.759 300.397C257.759 300.397 273.052 310.761 277.338 297.483C277.37 297.387 277.391 297.302 277.434 297.217C278.225 298.54 278.62 300.12 278.61 301.721Z" fill="#242424"/>
</g>
<path d="M269.761 310.996C269.109 316.013 267.73 320.421 265.838 323.719C263.647 327.562 260.772 329.878 257.652 329.878C254.52 329.867 251.667 327.53 249.497 323.676C247.627 320.378 246.259 315.959 245.639 310.932C246.248 311.028 246.868 311.082 247.509 311.082C252.319 311.092 256.391 308.285 257.727 304.411C259.041 308.285 263.102 311.114 267.912 311.135C268.531 311.135 269.151 311.092 269.761 310.996Z" fill="#242424"/>
<path d="M265.839 323.719C263.648 327.562 260.773 329.878 257.652 329.878C254.521 329.867 251.667 327.53 249.498 323.676C251.699 322.129 254.563 321.2 257.673 321.2C260.783 321.211 263.637 322.161 265.839 323.719Z" fill="#E34675"/>
<path d="M263.434 310.26C262.664 314.262 260.377 317.155 257.673 317.144C254.98 317.134 252.704 314.23 251.956 310.228C254.702 309.118 256.818 306.994 257.705 304.411C258.592 307.004 260.698 309.128 263.434 310.26Z" fill="white"/>
<path d="M274.901 294.217C276.365 294.911 277.691 296.064 278.61 297.537C279.54 299.01 280.042 300.824 279.978 302.639C279.903 304.464 279.304 306.3 278.246 307.794C277.733 308.563 277.114 309.235 276.44 309.854C275.756 310.452 274.997 310.964 274.207 311.412C272.614 312.266 270.829 312.747 269.045 312.885C267.26 313.003 265.454 312.779 263.754 312.202C262.055 311.626 260.473 310.708 259.127 309.491C257.801 308.264 256.711 306.716 256.102 304.944L259.298 304.955C258.731 306.641 257.727 308.146 256.476 309.352C255.226 310.559 253.73 311.477 252.116 312.085C250.513 312.683 248.792 312.96 247.082 312.917C246.227 312.885 245.383 312.779 244.538 312.587C244.111 312.512 243.705 312.362 243.299 312.245C242.893 312.096 242.486 311.946 242.102 311.775C240.531 311.06 239.088 310.046 237.955 308.712C236.811 307.399 235.956 305.798 235.647 304.069C235.305 302.351 235.486 300.557 236.149 299.01C236.79 297.451 237.902 296.16 239.205 295.317C239.334 295.231 239.515 295.263 239.601 295.402C239.665 295.498 239.665 295.616 239.612 295.701C238.105 298.263 237.773 301.016 238.607 303.322C238.992 304.475 239.654 305.521 240.509 306.396C240.712 306.62 240.958 306.812 241.183 307.015C241.439 307.196 241.664 307.399 241.931 307.559L242.315 307.815L242.722 308.04C242.989 308.2 243.277 308.306 243.555 308.445C245.853 309.395 248.536 309.502 250.908 308.691C253.27 307.901 255.311 306.108 256.102 303.856V303.845C256.412 302.97 257.374 302.5 258.261 302.81C258.763 302.991 259.137 303.386 259.298 303.856C259.704 305.04 260.42 306.14 261.392 307.004C262.354 307.88 263.541 308.52 264.802 308.904C267.345 309.683 270.188 309.363 272.497 308.189C273.651 307.591 274.698 306.791 275.489 305.787C276.301 304.795 276.825 303.621 277.081 302.351C277.317 301.08 277.252 299.714 276.804 298.391C276.365 297.067 275.596 295.797 274.559 294.644C274.452 294.527 274.463 294.345 274.581 294.239C274.677 294.185 274.805 294.175 274.901 294.217Z" fill="#242424"/>
<path d="M248.814 295.114C247.841 297.313 251.902 304.891 257.599 304.902C263.295 304.912 267.292 297.142 266.287 295.157C265.026 292.691 250.032 292.371 248.814 295.114Z" fill="#242424"/>
<path d="M257.663 331.554C257.652 331.554 257.652 331.554 257.641 331.554C254.008 331.543 250.588 329.045 248.023 324.498C246.013 320.944 244.603 316.322 243.961 311.135C243.897 310.612 244.079 310.089 244.453 309.726C244.827 309.363 245.361 309.192 245.874 309.278C246.419 309.363 246.954 309.406 247.488 309.406C247.499 309.406 247.51 309.406 247.52 309.406C251.464 309.406 255.001 307.132 256.124 303.866C256.359 303.194 256.989 302.735 257.705 302.735C258.421 302.735 259.063 303.194 259.287 303.866C260.399 307.143 263.936 309.438 267.89 309.448C268.414 309.459 268.959 309.406 269.504 309.331C270.028 309.256 270.552 309.427 270.926 309.79C271.3 310.153 271.481 310.676 271.417 311.199C270.744 316.386 269.312 320.997 267.281 324.541C264.716 329.067 261.296 331.554 257.663 331.554ZM247.595 312.757C248.268 316.675 249.412 320.133 250.951 322.855C252.896 326.302 255.279 328.202 257.652 328.202H257.663C260.035 328.202 262.418 326.313 264.385 322.887C265.945 320.175 267.11 316.728 267.794 312.811C263.648 312.768 259.928 310.911 257.705 307.944C255.472 310.9 251.742 312.736 247.595 312.757Z" fill="#242424"/>
<path d="M261.221 295.477C261.221 295.786 259.586 296.032 257.555 296.032C255.536 296.032 253.89 295.786 253.89 295.477C253.89 295.167 255.525 294.922 257.555 294.922C259.575 294.911 261.221 295.167 261.221 295.477Z" fill="white"/>
<path opacity="0.7" d="M474.486 241.492C474.486 250.391 468.384 258.973 457.097 266.863C445.825 274.744 429.481 281.861 409.24 287.846C368.764 299.815 312.818 307.225 251 307.225C189.182 307.225 133.236 299.815 92.7603 287.846C72.5191 281.861 56.1753 274.744 44.903 266.863C33.6165 258.973 27.5146 250.391 27.5146 241.492C27.5146 232.593 33.6165 224.012 44.903 216.122C56.1753 208.241 72.5191 201.124 92.7603 195.139C133.236 183.17 189.182 175.76 251 175.76C312.818 175.76 368.764 183.17 409.24 195.139C429.481 201.124 445.825 208.241 457.097 216.122C468.384 224.012 474.486 232.593 474.486 241.492Z" stroke="#2BD071"/>
<path opacity="0.7" d="M184 337.273C114.112 345.178 64.4814 365.196 64.4814 388.641C64.4814 419.004 147.724 443.619 250.408 443.619C353.092 443.619 436.334 419.004 436.334 388.641C436.334 366.525 392.172 347.459 328.5 338.733" stroke="#2BD071"/>
<path opacity="0.7" d="M190 469.559C188.48 469.814 186.98 470.079 185.5 470.353M322 471.37C354.099 477.994 375.099 488.996 375.099 501.448C375.099 521.69 319.604 538.1 251.148 538.1C182.692 538.1 127.197 521.69 127.197 501.448C127.197 491.709 140.044 482.856 161 476.292" stroke="#2BD071"/>
<defs>
<filter id="filter0_f_1239_342853" x="87.6812" y="525.193" width="337.896" height="130.2" filterUnits="userSpaceOnUse" color-interpolation-filters="sRGB">
<feFlood flood-opacity="0" result="BackgroundImageFix"/>
<feBlend mode="normal" in="SourceGraphic" in2="BackgroundImageFix" result="shape"/>
<feGaussianBlur stdDeviation="18.5" result="effect1_foregroundBlur_1239_342853"/>
</filter>
<filter id="filter1_f_1239_342853" x="108.55" y="174.654" width="296.157" height="494.893" filterUnits="userSpaceOnUse" color-interpolation-filters="sRGB">
<feFlood flood-opacity="0" result="BackgroundImageFix"/>
<feBlend mode="normal" in="SourceGraphic" in2="BackgroundImageFix" result="shape"/>
<feGaussianBlur stdDeviation="32.5" result="effect1_foregroundBlur_1239_342853"/>
</filter>
<filter id="filter2_f_1239_342853" x="0.333984" y="0.352936" width="500.406" height="637.429" filterUnits="userSpaceOnUse" color-interpolation-filters="sRGB">
<feFlood flood-opacity="0" result="BackgroundImageFix"/>
<feBlend mode="normal" in="SourceGraphic" in2="BackgroundImageFix" result="shape"/>
<feGaussianBlur stdDeviation="32.5" result="effect1_foregroundBlur_1239_342853"/>
</filter>
<linearGradient id="paint0_linear_1239_342853" x1="234.857" y1="65.3529" x2="234.857" y2="572.782" gradientUnits="userSpaceOnUse">
<stop stop-color="#2BD071" stop-opacity="0"/>
<stop offset="0.350975" stop-color="#2BD071"/>
<stop offset="1" stop-color="#2BD071"/>
</linearGradient>
</defs>
</svg>
