<svg width="501" height="670" viewBox="0 0 501 670" fill="none" xmlns="http://www.w3.org/2000/svg">
    <rect width="501" height="670" fill="#1E1E1E"/>
    <rect width="1920" height="1005" transform="translate(-1040 -107)" fill="#1E1E1E"/>
    <g style="mix-blend-mode:color-dodge" opacity="0.6" filter="url(#filter0_f_0_1)">
        <ellipse cx="256.614" cy="589.941" rx="131.948" ry="28.1" fill="#2BD071"/>
    </g>
    <g style="mix-blend-mode:color-dodge" filter="url(#filter1_f_0_1)">
        <ellipse cx="256.614" cy="421.748" rx="83.0783" ry="182.446" fill="#2BD071"/>
    </g>
    <g style="mix-blend-mode:color-dodge" opacity="0.45" filter="url(#filter2_f_0_1)">
        <path d="M66.9804 127.68C58.6713 95.9866 82.5813 65 115.346 65H385.701C418.201 65 442.063 95.5195 434.224 127.06L323.531 572.429H183.581L66.9804 127.68Z" fill="url(#paint0_linear_0_1)"/>
    </g>
    <g style="mix-blend-mode:color-dodge">
        <ellipse cx="258.243" cy="589.755" rx="122.988" ry="36.2449" fill="#2BD071"/>
    </g>
    <path d="M260.308 467.182L260.309 467.182L260.317 467.182L260.366 467.182C260.412 467.182 260.485 467.181 260.583 467.18C260.779 467.178 261.077 467.173 261.466 467.161C262.245 467.139 263.39 467.092 264.822 466.994C267.689 466.799 271.686 466.401 276.189 465.594C285.296 463.963 296.03 460.734 303.798 454.508L260.308 467.182ZM260.308 467.182L260.307 467.182M260.308 467.182L260.307 467.182M260.307 467.182L256.567 467.169M260.307 467.182L256.567 467.169M256.567 467.169L256.804 470.904M256.567 467.169L256.804 470.904M256.804 470.904L257.501 481.883L257.687 484.819L260.61 485.141L260.994 481.662M256.804 470.904L260.994 481.662M260.994 481.662C260.61 485.141 260.612 485.141 260.613 485.141L260.616 485.141L260.623 485.142L260.646 485.144L260.716 485.152C260.775 485.158 260.858 485.166 260.963 485.175C261.173 485.194 261.474 485.219 261.859 485.245C262.627 485.297 263.732 485.354 265.118 485.38C267.887 485.432 271.792 485.357 276.387 484.856C285.55 483.857 297.628 481.146 308.934 474.211C318.352 468.446 325.129 460.161 331.382 450.109C335.358 443.716 339.251 436.38 343.493 428.385C345.841 423.96 348.296 419.334 350.931 414.554L350.933 414.551C352.286 412.09 356.676 406.529 362.73 403.089C368.569 399.77 375.658 398.531 383.383 403.732L260.994 481.662ZM405.508 419.603L405.508 419.604C405.533 423.387 402.607 425.54 399.863 425.768C397.125 425.996 393.897 424.371 393.251 420.668L393.25 420.664C392.084 413.937 389.237 407.675 383.383 403.732L405.508 419.603ZM405.508 419.603C405.422 406.102 399.362 394.664 390.033 388.03C380.656 381.361 368.198 379.72 355.895 385.445M405.508 419.603L355.895 385.445M355.895 385.445C341.505 392.138 333.394 406.21 326.478 419.674M355.895 385.445L326.478 419.674M326.478 419.674C325.606 421.373 324.754 423.06 323.911 424.731M326.478 419.674L323.911 424.731M323.911 424.731C321.33 429.842 318.829 434.794 316.073 439.414M323.911 424.731L316.073 439.414M316.073 439.414C312.437 445.509 308.528 450.714 303.798 454.507L316.073 439.414Z" fill="#74698B" stroke="#242424" stroke-width="7"/>
    <g opacity="0.3">
        <path d="M347.86 412.876C332.82 440.155 324.616 460.508 307.105 471.227C285.644 484.384 260.983 481.655 260.983 481.655L260.644 476.149C266.555 476.485 286.962 476.699 305.065 465.596C322.564 454.871 330.768 434.517 345.814 407.227C349.073 401.327 365.125 382.946 383.286 395.192C389.118 399.121 392.279 404.911 393.886 410.986C392.04 407.066 389.3 403.516 385.32 400.834C367.159 388.588 351.107 406.969 347.86 412.876Z" fill="#242424"/>
    </g>
    <g opacity="0.3">
        <path d="M396.699 420.066C396.478 418.785 396.193 417.511 395.845 416.245C397.432 417.235 399.985 416.372 399.974 413.984C399.948 410.419 399.482 407.028 398.617 403.866C400.752 408.515 401.979 413.84 402.008 419.626C402.023 422.904 397.25 423.284 396.699 420.066Z" fill="#242424"/>
        <path d="M397.775 422.197C397.099 421.806 396.56 421.126 396.375 420.116C396.144 418.799 395.86 417.526 395.531 416.33L395.309 415.536L396.006 415.968C396.747 416.425 397.755 416.445 398.527 416.004C399.252 415.593 399.651 414.877 399.647 413.987C399.621 410.525 399.17 407.158 398.302 403.95L398.901 403.734C401.137 408.59 402.288 413.944 402.318 419.627C402.331 421.499 400.918 422.487 399.609 422.604C399.004 422.654 398.34 422.523 397.775 422.197ZM397.012 420.011C397.267 421.489 398.478 422.055 399.567 421.959C400.629 421.862 401.701 421.105 401.699 419.625C401.678 415.411 401.025 411.395 399.762 407.618C400.101 409.693 400.277 411.821 400.301 413.98C400.302 415.105 399.786 416.05 398.855 416.563C398.089 416.993 397.155 417.075 396.345 416.814C396.592 417.845 396.814 418.92 397.012 420.011Z" fill="#242424"/>
    </g>
    <g opacity="0.3">
        <path d="M395.839 416.256C395.258 415.906 394.813 415.294 394.658 414.435C394.453 413.281 394.201 412.13 393.903 410.982C394.713 412.677 395.346 414.448 395.839 416.256Z" fill="#74698B"/>
        <path d="M396.344 416.918L395.681 416.505C395.188 416.206 394.548 415.6 394.358 414.469C394.159 413.304 393.907 412.153 393.612 411.05L394.193 410.838C394.971 412.486 395.631 414.287 396.149 416.154L396.344 416.918ZM394.987 414.507C395.033 414.682 395.08 414.857 395.157 415.005C395.093 414.834 395.04 414.671 394.987 414.507Z" fill="#242424"/>
    </g>
    <path d="M185.455 454.903C185.317 461.925 184.683 470.133 181.181 473.168C180.988 473.347 180.753 473.444 180.519 473.485C179.94 473.595 179.306 473.306 179.016 472.726L178.989 472.671L175.887 466.546C175.625 466.022 175.115 465.746 174.591 465.746C174.287 465.746 173.984 465.843 173.722 466.036C173.033 466.532 172.633 467.333 172.633 468.174V480.562C172.633 481.61 171.944 482.562 170.937 482.838C167.532 483.748 163.575 479.127 161.797 473.306C155.8 471.085 154.49 464.684 155.414 456.311L155.441 456.159L155.62 454.738L155.689 454.228H182.587L185.455 454.903Z" fill="#FFBD99"/>
    <path d="M170.014 484.99C165.809 484.99 162.045 480.244 160.129 474.809C151.085 470.629 152.505 458.104 154.821 447.551C154.945 447.013 155.276 446.53 155.745 446.24C156.213 445.951 156.792 445.854 157.33 445.978L185.937 452.876C186.875 453.096 187.536 453.952 187.523 454.931C187.385 462.711 186.668 471.14 182.532 474.727C181.718 475.43 180.657 475.706 179.609 475.499C178.547 475.292 177.665 474.616 177.183 473.651L174.729 468.795V480.534C174.729 482.534 173.405 484.3 171.503 484.811C170.992 484.935 170.51 484.99 170.014 484.99ZM158.433 450.503C155.979 462.918 157.261 469.374 162.527 471.333C163.134 471.554 163.603 472.05 163.782 472.671C165.395 477.913 168.607 481.279 170.413 480.81C170.496 480.782 170.579 480.672 170.579 480.534V468.16C170.579 466.657 171.296 465.236 172.509 464.339C173.35 463.732 174.411 463.511 175.418 463.76C176.424 464.008 177.279 464.67 177.748 465.594L180.45 470.933C182.794 467.884 183.235 460.546 183.359 456.517L158.433 450.503Z" fill="#242424"/>
    <path d="M163.244 480.755C160.294 475.844 160.253 470.16 160.749 464.781C160.79 464.339 161.176 464.008 161.631 464.049C162.031 464.091 162.334 464.408 162.362 464.794C162.693 469.54 163.534 474.754 166.622 478.355C168.497 480.713 164.871 483.307 163.244 480.755Z" fill="#242424"/>
    <path d="M193.203 335.193L191.383 457.193C177.624 458.476 164.816 458.338 154.959 453.786C153.787 453.248 153.098 452.02 153.194 450.751L154.118 438.708L154.242 437.067C148.451 435.591 153.966 375.735 174.618 348.298C179.843 341.386 186.02 336.517 193.203 335.193Z" fill="#16B768"/>
    <g opacity="0.6">
        <path d="M159.522 453.8C158.35 453.262 157.661 452.034 157.757 450.765L158.681 438.722C158.929 438.57 159.177 438.405 159.426 438.253C158.943 437.715 158.254 436.874 157.62 435.756C154.807 430.818 155.676 425.507 156.062 422.969C158.929 404.622 154.848 418.085 158.971 400.262C162.569 384.716 164.361 376.949 167.822 367.238C174.756 347.787 179.54 343.18 183.566 340.545C187.233 338.158 190.804 337.082 193.175 336.558L193.189 335.179C185.992 336.517 179.83 341.373 174.618 348.284C153.98 375.735 148.465 435.605 154.256 437.067L154.132 438.708L153.208 450.751C153.111 452.034 153.801 453.248 154.972 453.786C162.114 457.083 170.813 458.062 180.298 457.856C172.578 457.69 165.505 456.559 159.522 453.8Z" fill="white"/>
    </g>
    <path d="M178.065 459.98C169.834 459.98 161.301 459.001 154.104 455.676C152.174 454.779 150.988 452.738 151.154 450.6L152.119 438.074C150.768 436.543 149.775 432.887 150.078 423.879C150.478 411.671 153.497 390.468 160.68 370.893C166.388 355.333 176.59 336.172 192.83 333.151C193.437 333.041 194.071 333.206 194.54 333.606C195.009 334.006 195.284 334.599 195.271 335.22L193.451 457.235C193.437 458.297 192.624 459.166 191.576 459.263C187.385 459.649 182.78 459.98 178.065 459.98ZM155.152 435.191C155.91 435.549 156.392 436.35 156.324 437.219L155.276 450.903C155.248 451.331 155.469 451.731 155.841 451.896C163.658 455.51 174.053 456.559 189.356 455.29L191.107 337.855C178.217 341.98 169.628 358.561 164.609 372.176C160.184 384.192 156.71 399.035 155.083 412.898C153.415 427.107 154.366 433.894 155.152 435.191Z" fill="#242424"/>
    <path d="M154.187 428.307C154.724 433.411 154.449 437.191 160.432 438.322C161.259 438.474 161.301 439.688 160.487 439.895C152.891 441.923 149.968 434.86 150.037 428.528C150.078 425.893 153.883 425.714 154.187 428.307Z" fill="#242424"/>
    <path d="M166.443 440.474C173.598 441.771 180.74 442.668 188.005 442.654C192.348 442.695 196.663 442.447 201.006 442.143C202.15 442.061 203.143 442.916 203.225 444.047C203.308 445.178 202.467 446.158 201.35 446.268C195.395 446.792 189.37 446.792 183.428 446.171C180.45 445.84 177.472 445.385 174.549 444.682C171.627 443.978 168.773 443.012 166.071 441.716C165.368 441.398 165.698 440.336 166.443 440.474Z" fill="#242424"/>
    <path d="M161.811 457.897C161.769 457.897 161.742 457.897 161.7 457.897C160.749 457.842 160.032 457.014 160.087 456.062L160.735 445.992C160.79 445.04 161.618 444.323 162.569 444.378C163.52 444.433 164.237 445.261 164.182 446.213L163.534 456.283C163.465 457.193 162.707 457.897 161.811 457.897Z" fill="#242424"/>
    <path d="M168.98 458.504C168.938 458.504 168.911 458.504 168.869 458.504C167.918 458.449 167.201 457.621 167.256 456.669L167.904 446.599C167.959 445.647 168.787 444.93 169.738 444.985C170.689 445.04 171.406 445.868 171.351 446.82L170.703 456.89C170.634 457.8 169.876 458.504 168.98 458.504Z" fill="#242424"/>
    <path d="M176.562 458.504C176.521 458.504 176.493 458.504 176.452 458.504C175.501 458.449 174.784 457.621 174.839 456.669L175.487 446.599C175.542 445.647 176.369 444.93 177.32 444.985C178.272 445.04 178.989 445.868 178.934 446.82L178.286 456.89C178.23 457.8 177.472 458.504 176.562 458.504Z" fill="#242424"/>
    <g opacity="0.2">
        <path d="M185.455 454.903C185.317 461.925 184.683 470.133 181.181 473.168C180.988 473.347 180.753 473.444 180.519 473.485C179.995 473.209 179.499 472.947 178.989 472.671L175.887 466.546C175.625 466.022 175.115 465.746 174.591 465.746C174.287 465.746 173.984 465.843 173.722 466.036C173.033 466.532 172.633 467.333 172.633 468.174V469.071C166.167 465.153 160.446 460.89 155.4 456.297L155.427 456.145L155.607 454.724L155.676 454.214H182.573L185.455 454.903Z" fill="#242424"/>
    </g>
    <path d="M391.358 354.006C391.358 354.006 389.439 387.587 363.921 396.19C361.849 396.889 359.633 397.424 357.232 397.753C347.977 399.058 341.102 395.933 336.465 392.346C331.499 388.512 329.108 384.154 329.108 384.154L325.343 368.551L321.013 350.553L319.033 342.36C319.033 342.36 329.539 352.721 340.497 356.021C344.345 357.182 348.264 357.47 351.794 356.134C356.431 354.376 360.412 349.802 362.752 340.706L391.358 354.006Z" fill="#F8C099"/>
    <path d="M363.921 396.18C361.849 396.879 359.633 397.413 357.242 397.742C347.987 399.048 341.113 395.923 336.475 392.336C331.509 388.502 329.118 384.144 329.118 384.144L325.343 368.551L321.013 350.553L319.033 342.36C319.033 342.36 329.539 352.721 340.497 356.021C344.345 357.182 348.264 357.47 351.794 356.134C351.147 360.174 349.259 374.286 352.379 383.989C355.026 392.264 357.837 395.676 363.921 396.18Z" fill="#16B768"/>
    <g opacity="0.25">
        <path d="M357.242 398.873C338.076 401.576 329.108 385.264 329.108 385.264C328.575 382.89 331.355 381.163 333.223 382.735C337.85 386.641 345.053 390.362 355.005 388.964C377.527 385.788 390.116 363.216 367.564 351.971L391.347 355.116C391.347 355.116 389.121 394.371 357.242 398.873Z" fill="#242424"/>
    </g>
    <path d="M353.056 399.891C335.88 399.891 327.59 385.202 327.497 385.038C327.005 384.144 327.333 383.023 328.226 382.53C329.118 382.036 330.237 382.365 330.729 383.26C331.068 383.876 339.358 398.4 356.985 395.923C369.503 394.155 378.768 386.631 384.524 373.546C387.992 365.683 389.09 358.046 389.408 355.137L363.942 343.296C361.377 351.591 357.088 356.638 351.147 358.282C336.803 362.27 318.509 344.437 317.74 343.676C317.011 342.957 317.001 341.795 317.719 341.065C318.437 340.336 319.597 340.325 320.325 341.045C320.5 341.22 337.87 358.138 350.173 354.716C355.231 353.307 358.863 348.435 360.977 340.243L361.531 338.095L393.266 352.855L393.194 354.109C393.174 354.52 392.558 364.378 387.941 374.934C381.723 389.129 371.196 397.65 357.498 399.582C355.949 399.798 354.472 399.891 353.056 399.891Z" fill="#242424"/>
    <path d="M363.634 397.465C360.382 397.465 357.601 396.344 355.344 394.114C345.668 384.524 349.844 356.997 350.019 355.826C350.173 354.818 351.117 354.13 352.122 354.284C353.128 354.438 353.815 355.384 353.661 356.391C352.502 363.822 351.014 384.627 357.94 391.483C359.92 393.436 362.444 394.134 365.666 393.59C366.661 393.425 367.615 394.104 367.79 395.111C367.954 396.118 367.277 397.064 366.271 397.239C365.368 397.383 364.486 397.465 363.634 397.465Z" fill="#242424"/>
    <path d="M359.838 340.932C362.814 359.197 381.005 358.878 386.064 358.036C396.621 356.288 400.91 346.76 400.91 346.76L393.369 335.052L390.096 328.782L385.756 327.107C382.749 320.477 375.855 312.686 371.391 314.916C371.391 314.916 357.273 325.185 359.838 340.932Z" fill="#F8C099"/>
    <g opacity="0.25">
        <path d="M402.89 342.206C402.47 347.798 394.785 352.321 379.189 349.299C373.7 348.24 369.421 344.005 369.842 338.424C370.263 332.832 375.126 328.638 380.697 329.06C386.279 329.471 403.311 336.615 402.89 342.206Z" fill="#242424"/>
    </g>
    <path d="M403.691 322.954C399.248 326.799 395.4 329.584 395.4 329.584L382.924 340.603L376.532 320.878C376.532 320.878 376.778 317.013 377.455 311.925C378.799 301.842 381.836 286.968 388.054 287.822C399.228 289.363 389.583 318.432 389.583 318.432C389.583 318.432 409.313 295.839 415.983 303.178C419.882 307.475 410.976 316.633 403.691 322.954Z" fill="#F8C099"/>
    <g opacity="0.25">
        <path d="M403.691 324.075C399.248 327.919 395.4 330.704 395.4 330.704L382.924 341.723L376.532 321.998C376.532 321.998 376.778 318.134 377.455 313.046C380.287 315.656 385.581 320.405 387.346 323.129C390.393 327.816 399.217 322.852 403.691 324.075Z" fill="#242424"/>
    </g>
    <path d="M382.914 342.453C382.749 342.453 382.585 342.433 382.431 342.391C381.836 342.227 381.354 341.775 381.169 341.178L374.777 321.443C374.705 321.217 374.675 320.991 374.695 320.755C374.87 317.959 376.634 293.238 383.817 287.359C385.171 286.249 386.72 285.776 388.311 285.992C390.496 286.29 392.271 287.452 393.451 289.353C396.662 294.534 395.072 304.74 393.379 311.771C398.581 306.673 406.564 299.92 412.433 299.868C412.463 299.868 412.484 299.868 412.515 299.868C414.444 299.868 416.116 300.588 417.347 301.934C418.435 303.137 418.917 304.689 418.743 306.436C417.84 315.266 399.053 329.214 396.56 331.023L384.145 341.98C383.796 342.289 383.365 342.453 382.914 342.453ZM378.389 320.642L383.806 337.365L394.179 328.207C394.22 328.166 394.272 328.135 394.313 328.094C402.039 322.481 414.505 311.545 415.069 306.066C415.162 305.162 414.875 304.72 414.618 304.432C414.074 303.836 413.387 303.569 412.463 303.569C406.307 303.63 394.867 315.204 390.968 319.665C390.393 320.323 389.429 320.487 388.67 320.056C387.91 319.624 387.562 318.709 387.839 317.877C389.675 312.336 393.697 296.774 390.311 291.327C389.706 290.35 388.906 289.826 387.798 289.672C387.438 289.62 386.884 289.631 386.135 290.237C381.19 294.277 378.892 313.21 378.389 320.642Z" fill="#242424"/>
    <path d="M403.188 344.848C400.1 349.124 388.269 350.337 384.186 346.647C380.708 343.501 384.668 340.13 385.786 339.277C385.961 339.143 386.063 339.071 386.063 339.071C386.063 339.071 381.682 337.355 381.18 333.511C381.149 333.264 381.128 333.007 381.139 332.729C381.19 328.34 393.112 325.442 398.335 326.696C402.244 327.631 403.629 329.358 403.865 331.105C404.122 332.976 403.085 334.867 402.408 335.875C402.1 336.337 401.864 336.604 401.864 336.604C401.864 336.604 405.661 341.425 403.188 344.848Z" fill="#F8C099"/>
    <g opacity="0.25">
        <path d="M402.419 336.995C399.176 338.362 392.712 340.623 385.787 340.387C385.961 340.253 386.064 340.181 386.064 340.181C386.064 340.181 381.682 338.465 381.18 334.621C385.253 335.844 396.56 338.424 403.865 332.215C404.132 334.086 403.096 335.988 402.419 336.995Z" fill="#242424"/>
    </g>
    <g opacity="0.25">
        <path d="M403.188 345.968C400.1 350.244 388.269 351.457 384.186 347.767C382.483 346.225 382.565 344.622 383.232 343.296C383.416 343.532 383.632 343.769 383.888 344.005C387.962 347.695 399.802 346.482 402.89 342.217C403.209 341.775 403.434 341.312 403.557 340.829C404.132 342.402 404.368 344.344 403.188 345.968Z" fill="#242424"/>
    </g>
    <path d="M391.881 350.686C388.095 350.686 384.863 349.741 382.955 348.014C381.159 346.39 380.872 344.673 380.964 343.522C381.087 341.867 382.011 340.428 382.944 339.38C381.231 338.115 379.261 335.957 379.302 332.709C379.312 331.64 379.743 330.047 381.723 328.495C385.889 325.236 394.456 323.859 398.776 324.887C402.439 325.76 404.696 327.426 405.476 329.841C406.348 332.514 405.076 335.155 404.132 336.635C405.302 338.588 407.097 342.587 404.696 345.917C402.962 348.312 399.125 350.039 394.436 350.532C393.564 350.645 392.712 350.686 391.881 350.686ZM395.4 328.238C391.676 328.238 386.494 329.44 383.981 331.403C383.345 331.897 382.985 332.39 382.975 332.74C382.955 335.792 386.71 337.334 386.751 337.345C387.387 337.601 387.828 338.187 387.9 338.866C387.972 339.544 387.664 340.212 387.1 340.593C386.341 341.107 384.73 342.576 384.637 343.779C384.617 344.087 384.678 344.581 385.427 345.259C386.915 346.606 390.383 347.253 394.046 346.863C397.545 346.493 400.623 345.239 401.7 343.748C403.291 341.549 400.459 337.766 400.428 337.735C399.884 337.046 399.905 336.06 400.479 335.392C401.023 334.744 402.48 332.524 401.967 330.972C401.516 329.594 399.515 328.854 397.914 328.474C397.216 328.32 396.365 328.238 395.4 328.238Z" fill="#242424"/>
    <path d="M389.501 341.137C388.311 341.137 387.079 341.065 385.828 340.891C384.822 340.757 384.114 339.822 384.247 338.814C384.381 337.807 385.315 337.098 386.32 337.231C394.138 338.28 401.003 334.98 401.074 334.939C401.988 334.487 403.096 334.867 403.537 335.782C403.988 336.697 403.609 337.797 402.696 338.249C402.419 338.393 396.775 341.137 389.501 341.137Z" fill="#242424"/>
    <path d="M371.391 314.916C377.311 311.956 387.51 326.634 387.254 332.853C387.059 337.601 381.159 341.137 374.921 334.59C368.6 327.96 362.095 319.573 371.391 314.916Z" fill="#16B768"/>
    <path d="M400.92 346.76C400.92 346.76 396.632 356.278 386.074 358.036C381.005 358.878 362.814 359.197 359.838 340.932C357.273 325.195 371.391 314.927 371.391 314.927C377.311 311.966 387.51 326.644 387.254 332.863C387.059 337.612 379.825 339.77 374.562 330.992C374.562 330.992 377.096 338.794 370.088 343.471L372.592 348.374L385.027 353.647L397.001 352.228L400.92 346.76Z" fill="#F8C099"/>
    <path d="M373.443 340.068L373.146 339.863C373.392 339.698 373.618 339.534 373.843 339.359C373.72 339.596 373.597 339.832 373.443 340.068Z" fill="#16B768"/>
    <g opacity="0.25">
        <path d="M374.921 330.715C374.315 327.59 382.513 336.039 387.233 334.384C386.73 338.218 381.498 340.068 376.798 335.083C376.675 332.606 374.921 330.715 374.921 330.715Z" fill="#242424"/>
    </g>
    <g opacity="0.25">
        <path d="M394.98 352.454L397.001 352.218C394.6 354.674 391.03 357.213 386.064 358.036C380.995 358.878 362.803 359.187 359.828 340.922C358.084 330.211 364.065 322.029 368.067 317.897C364.722 322.451 361.552 329.152 362.885 337.324C366.333 358.498 383.581 355.353 389.121 354.438C391.348 354.068 393.297 353.359 394.98 352.454Z" fill="#242424"/>
    </g>
    <path d="M400.91 346.77C400.869 346.863 400.531 347.592 399.843 348.641L399.535 348.682L400.91 346.77Z" fill="#16B768"/>
    <path d="M400.059 348.62C399.884 348.805 399.699 348.99 399.505 349.165C399.628 348.98 399.741 348.805 399.853 348.641L400.059 348.62Z" fill="#16B768"/>
    <path d="M365.994 354.109C364.363 353.05 362.906 351.653 361.736 350.039C361.141 349.237 360.638 348.374 360.187 347.49C359.735 346.606 359.366 345.681 359.048 344.745C357.807 341.014 357.458 336.944 358.094 333.007C358.402 331.044 358.945 329.122 359.674 327.282C360.413 325.452 361.326 323.694 362.383 322.05C363.439 320.405 364.64 318.863 365.943 317.414C366.6 316.695 367.277 315.996 367.985 315.327C368.344 314.988 368.703 314.659 369.072 314.341C369.452 314.012 369.801 313.714 370.263 313.375L370.314 313.333C370.386 313.282 370.458 313.241 370.529 313.21C370.847 313.076 371.166 312.933 371.494 312.84C371.832 312.768 372.171 312.665 372.499 312.655C372.828 312.634 373.177 312.604 373.495 312.645C373.813 312.665 374.141 312.696 374.428 312.768C375.629 313.025 376.645 313.518 377.547 314.063C378.461 314.618 379.251 315.245 380 315.913C380.749 316.571 381.436 317.28 382.082 318.01C383.375 319.47 384.514 321.022 385.53 322.656C386.535 324.301 387.428 326.017 388.136 327.878C388.485 328.813 388.782 329.779 388.977 330.838C389.018 331.105 389.08 331.362 389.101 331.65C389.131 331.928 389.162 332.205 389.152 332.514V332.956L389.111 333.439C389.07 333.757 389.018 334.076 388.926 334.395C388.588 335.669 387.777 336.831 386.73 337.612C385.674 338.393 384.412 338.814 383.191 338.866C381.959 338.948 380.79 338.681 379.743 338.27C378.686 337.858 377.763 337.262 376.942 336.594C375.29 335.258 374.09 333.603 373.084 331.917L376.224 330.489C376.337 330.92 376.378 331.218 376.429 331.568C376.48 331.907 376.511 332.236 376.532 332.575C376.562 332.904 376.552 333.243 376.562 333.572C376.562 333.901 376.542 334.24 376.532 334.569C376.439 335.895 376.152 337.221 375.649 338.455C375.526 338.763 375.403 339.071 375.239 339.369C375.075 339.657 374.931 339.966 374.757 340.243C374.377 340.788 374.018 341.343 373.556 341.816C373.135 342.33 372.633 342.731 372.15 343.152C371.915 343.378 371.637 343.532 371.371 343.717L370.581 344.242C370.181 344.509 369.647 344.396 369.38 343.995C369.134 343.625 369.206 343.142 369.534 342.864L369.616 342.792L370.242 342.247C370.447 342.062 370.673 341.908 370.837 341.692C371.196 341.292 371.576 340.901 371.863 340.449C372.192 340.027 372.417 339.544 372.664 339.092C372.776 338.855 372.858 338.609 372.951 338.362C373.053 338.126 373.115 337.869 373.177 337.622C373.443 336.625 373.546 335.577 373.495 334.528C373.474 334.271 373.454 334.004 373.423 333.747C373.382 333.49 373.361 333.233 373.3 332.976C373.248 332.719 373.197 332.472 373.125 332.226C373.064 332 372.971 331.712 372.92 331.578C372.551 330.704 372.951 329.697 373.823 329.327C374.592 328.998 375.465 329.276 375.916 329.944L376.06 330.149C376.942 331.558 377.989 332.853 379.199 333.788C380.39 334.734 381.775 335.289 382.965 335.186C383.56 335.155 384.083 334.939 384.483 334.631C384.873 334.312 385.161 333.901 385.284 333.408C385.325 333.284 385.335 333.151 385.356 333.027L385.376 332.822L385.366 332.585C385.376 332.431 385.345 332.257 385.325 332.082C385.314 331.917 385.273 331.722 385.243 331.547C385.099 330.807 384.863 330.036 384.576 329.255C383.365 326.161 381.446 323.15 379.22 320.611C378.656 319.973 378.071 319.377 377.455 318.833C376.839 318.288 376.203 317.784 375.557 317.394C374.911 317.003 374.254 316.705 373.679 316.581C373.094 316.458 372.653 316.499 372.263 316.684L372.53 316.52C372.253 316.725 371.884 317.023 371.566 317.291C371.237 317.568 370.909 317.856 370.591 318.154C369.955 318.75 369.339 319.367 368.744 320.015C367.554 321.299 366.477 322.677 365.522 324.136C364.568 325.596 363.727 327.117 363.07 328.7C362.413 330.293 361.921 331.938 361.623 333.624C361.018 336.985 361.295 340.48 362.177 343.82C362.619 345.485 363.234 347.089 364.055 348.589C364.876 350.1 365.902 351.498 367.113 352.793L367.123 352.804C367.451 353.153 367.431 353.708 367.082 354.037C366.764 354.294 366.323 354.315 365.994 354.109Z" fill="#242424"/>
    <path d="M402.501 347.479C402.295 347.973 402.121 348.332 401.905 348.733C401.7 349.124 401.475 349.494 401.239 349.864C401.013 350.234 400.746 350.584 400.49 350.933C400.223 351.282 399.956 351.611 399.679 351.951C398.55 353.277 397.237 354.438 395.811 355.435C395.113 355.959 394.344 356.36 393.595 356.802C392.805 357.162 392.035 357.573 391.214 357.83C389.603 358.457 387.89 358.724 386.217 358.889C385.735 358.93 385.315 358.58 385.273 358.108C385.232 357.696 385.489 357.326 385.869 357.203L385.94 357.182C387.418 356.699 388.854 356.206 390.168 355.445C390.845 355.127 391.45 354.664 392.086 354.284C392.681 353.821 393.287 353.4 393.841 352.886C394.959 351.909 395.975 350.81 396.898 349.648C397.124 349.35 397.34 349.052 397.576 348.764C397.781 348.456 398.007 348.158 398.212 347.86C398.417 347.551 398.622 347.243 398.817 346.935C399.012 346.636 399.217 346.287 399.361 346.061L399.453 345.917C399.956 345.105 401.023 344.848 401.834 345.352C402.542 345.783 402.819 346.698 402.501 347.479Z" fill="#242424"/>
    <path opacity="0.5" d="M258.598 598.766C318.562 598.766 367.173 593.832 367.173 587.747C367.173 581.661 318.562 576.728 258.598 576.728C198.634 576.728 150.023 581.661 150.023 587.747C150.023 593.832 198.634 598.766 258.598 598.766Z" fill="black"/>
    <path d="M243.027 578.035C243.055 579.084 242.903 580.119 242.517 581.098C240.876 585.25 237.706 588.285 233.446 590.534C232.605 590.975 231.695 591.278 230.757 591.416C217.108 593.403 204.122 593.444 191.769 591.568C190.073 591.306 188.488 590.52 187.316 589.264C184.159 585.912 182.987 581.305 183.952 575.332C184.131 574.256 184.476 573.221 184.958 572.255L186.433 569.276L202.564 536.637L242.228 542.211L242.683 561.758L243.027 578.035Z" fill="#50468F"/>
    <path d="M188.625 564.793C184.117 577.842 202.605 584.767 217.825 575.387C219.204 574.532 220.872 574.27 222.471 574.559L227.173 575.414C228.482 575.649 229.764 574.752 229.902 573.428C230.233 570.241 228.744 567.427 225.918 564.903C224.567 563.689 223.616 562.103 223.271 560.323C222.292 555.274 221.741 550.556 222.444 546.873L200.137 540.665L188.625 564.793Z" fill="white"/>
    <path d="M210.298 595.003C203.86 595.003 197.573 594.548 191.452 593.61C189.273 593.279 187.274 592.244 185.799 590.685C182.16 586.823 180.85 581.553 181.898 575.001C182.091 573.759 182.49 572.518 183.083 571.331L200.689 535.727C201.088 534.927 201.943 534.472 202.826 534.596L242.489 540.169C243.496 540.307 244.254 541.162 244.268 542.169L245.095 578.008C245.123 579.387 244.902 580.684 244.447 581.87C242.724 586.257 239.346 589.789 234.397 592.382C233.349 592.934 232.219 593.306 231.047 593.472C224.016 594.479 217.081 595.003 210.298 595.003ZM203.735 538.9L186.792 573.166C186.392 573.98 186.116 574.821 185.978 575.649C185.137 580.932 186.061 584.919 188.805 587.83C189.646 588.713 190.804 589.306 192.072 589.499C204.232 591.334 217.15 591.292 230.454 589.347C231.157 589.251 231.846 589.016 232.48 588.685C236.575 586.533 239.222 583.802 240.601 580.325C240.863 579.663 240.987 578.905 240.973 578.077L240.187 544.004L203.735 538.9Z" fill="#242424"/>
    <path d="M243.013 577.166C242.545 586.947 182.656 590.051 184.076 574.656C182.835 580.836 183.414 586.602 189.839 591.016C203.212 593.651 217.315 593.472 231.97 591.141C239.539 587.512 243.137 582.836 243.013 577.166Z" fill="white"/>
    <path d="M210.27 594.327C203.06 594.327 196.194 593.679 189.563 592.368C189.384 592.327 189.204 592.258 189.053 592.148C181.263 586.795 181.718 579.443 182.725 574.38C182.863 573.663 183.552 573.166 184.283 573.29C185.013 573.4 185.523 574.049 185.455 574.78C185.289 576.518 186.158 578.008 188.115 579.346C197.463 585.747 228.014 585.112 238.781 579.746C240.559 578.863 241.607 577.898 241.648 577.097C241.69 576.366 242.296 575.787 243.027 575.787H243.041C243.785 575.801 244.392 576.394 244.406 577.139C244.544 583.429 240.559 588.547 232.577 592.382C232.453 592.437 232.329 592.479 232.191 592.506C224.498 593.72 217.219 594.327 210.27 594.327ZM190.376 589.72C202.95 592.161 216.419 592.189 231.543 589.816C236.203 587.554 239.222 584.933 240.656 581.884C240.449 581.995 240.228 582.119 239.994 582.229C229.406 587.499 197.352 589.044 186.544 581.636C185.923 581.208 185.399 580.781 184.958 580.339C185.179 584.312 186.93 587.264 190.376 589.72Z" fill="#242424"/>
    <path d="M205.293 570.393C204.383 570.393 203.543 569.786 203.294 568.862C202.991 567.758 203.639 566.627 204.742 566.324L225.89 560.571C226.993 560.268 228.124 560.916 228.427 562.02C228.731 563.123 228.083 564.255 226.98 564.558L205.831 570.31C205.666 570.366 205.486 570.393 205.293 570.393Z" fill="#242424"/>
    <path d="M205.845 569.345C205.266 569.345 204.687 569.096 204.273 568.627L192.692 555.15C191.948 554.281 192.044 552.97 192.913 552.225C193.782 551.481 195.091 551.577 195.836 552.446L207.416 565.924C208.161 566.793 208.064 568.103 207.196 568.848C206.81 569.179 206.327 569.345 205.845 569.345Z" fill="#242424"/>
    <path d="M207.375 563.082C206.81 563.082 206.245 562.847 205.831 562.392L194.953 550.267C194.195 549.411 194.264 548.101 195.105 547.342C195.96 546.583 197.27 546.652 198.028 547.494L208.905 559.619C209.664 560.475 209.595 561.785 208.754 562.544C208.354 562.903 207.858 563.082 207.375 563.082Z" fill="#242424"/>
    <path d="M209.443 557.316C208.878 557.316 208.313 557.081 207.899 556.626L197.545 545.025C196.787 544.169 196.856 542.859 197.711 542.1C198.566 541.341 199.875 541.41 200.634 542.266L210.987 553.867C211.745 554.722 211.677 556.033 210.822 556.792C210.422 557.136 209.926 557.316 209.443 557.316Z" fill="#242424"/>
    <path d="M206.686 564.255C205.776 564.255 204.935 563.648 204.687 562.723C204.383 561.62 205.031 560.489 206.134 560.185L224.526 555.178C225.629 554.874 226.759 555.522 227.062 556.626C227.366 557.73 226.718 558.861 225.615 559.164L207.224 564.172C207.044 564.227 206.865 564.255 206.686 564.255Z" fill="#242424"/>
    <path d="M207.885 558.544C206.975 558.544 206.134 557.937 205.886 557.012C205.583 555.909 206.231 554.778 207.334 554.474L223.299 550.129C224.402 549.825 225.532 550.474 225.835 551.577C226.139 552.681 225.491 553.812 224.388 554.115L208.423 558.461C208.257 558.516 208.078 558.544 207.885 558.544Z" fill="#242424"/>
    <path d="M207.789 553.826C206.865 553.826 206.038 553.205 205.79 552.281C205.5 551.177 206.162 550.046 207.265 549.756L225.918 544.859C227.021 544.569 228.151 545.232 228.441 546.335C228.73 547.439 228.069 548.57 226.966 548.86L208.313 553.757C208.133 553.812 207.954 553.826 207.789 553.826Z" fill="#242424"/>
    <path d="M242.393 550.363L233.294 554.653C232.522 555.012 232.025 555.785 231.998 556.626C231.791 561.978 232.88 566.269 235.693 569.165C236.534 570.035 237.774 570.379 238.946 570.145L242.834 569.345L242.393 550.363Z" fill="#242424"/>
    <path d="M238.188 571.607C236.878 571.607 235.61 571.083 234.686 570.131C231.75 567.11 230.371 562.544 230.605 556.571C230.661 555.205 231.46 553.977 232.701 553.398L241.8 549.108C242.228 548.915 242.724 548.942 243.11 549.177C243.51 549.425 243.758 549.853 243.758 550.322L244.199 569.303C244.213 569.966 243.744 570.559 243.096 570.683L239.208 571.483C238.877 571.58 238.533 571.607 238.188 571.607ZM241.069 552.529L233.887 555.922C233.583 556.06 233.39 556.364 233.377 556.709C233.17 561.965 234.245 565.731 236.672 568.227C237.168 568.738 237.926 568.959 238.657 568.821L241.428 568.255L241.069 552.529Z" fill="#242424"/>
    <path d="M203.17 581.112C198.166 581.112 193.768 579.649 190.845 577.304C186.861 574.104 185.565 569.372 187.316 564.337C187.33 564.282 187.357 564.241 187.371 564.199L198.869 540.059C199.158 539.452 199.834 539.148 200.482 539.327L222.789 545.535C223.478 545.728 223.905 546.418 223.767 547.121C223.188 550.115 223.45 554.102 224.595 560.047C224.87 561.496 225.642 562.806 226.814 563.854C230.109 566.807 231.612 570.076 231.253 573.552C231.157 574.559 230.647 575.442 229.82 576.063C228.992 576.684 227.931 576.946 226.897 576.753L222.196 575.897C220.886 575.663 219.59 575.897 218.515 576.546C213.345 579.774 207.982 581.112 203.17 581.112ZM189.908 565.317C188.584 569.221 189.535 572.711 192.582 575.152C197.421 579.042 207.665 580.036 217.095 574.214C218.735 573.207 220.734 572.849 222.706 573.194L227.407 574.049C227.669 574.104 227.958 574.035 228.179 573.869C228.289 573.787 228.482 573.594 228.524 573.276C228.786 570.697 227.628 568.283 224.994 565.924C223.368 564.475 222.306 562.627 221.906 560.585C220.831 555.04 220.514 551.039 220.886 547.88L200.868 542.293L189.908 565.317Z" fill="#242424"/>
    <path d="M192.541 482.424L179.871 491.942L180.988 500.012L196.415 497.805L192.541 482.424Z" fill="#74698B"/>
    <g opacity="0.3">
        <path d="M192.541 482.424L179.871 491.942L180.988 500.012L196.415 497.805L192.541 482.424Z" fill="#242424"/>
    </g>
    <path d="M182.711 500.012L184.558 518.097C184.682 519.311 185.661 520.277 186.875 520.373L196.429 521.146L195.381 497.943L182.711 500.012Z" fill="#74698B"/>
    <g opacity="0.3">
        <path d="M182.711 500.012L184.558 518.097C184.682 519.311 185.661 520.277 186.875 520.373L196.429 521.146L195.381 497.943L182.711 500.012Z" fill="#242424"/>
    </g>
    <path d="M180.988 502.095C180.547 502.095 180.105 501.957 179.747 501.681C179.306 501.35 179.016 500.854 178.947 500.316L177.831 492.246C177.734 491.501 178.037 490.756 178.644 490.301L191.314 480.782C191.865 480.369 192.596 480.258 193.244 480.493C193.892 480.727 194.388 481.265 194.567 481.941L198.441 497.322C198.579 497.888 198.483 498.495 198.152 498.978C197.821 499.461 197.311 499.792 196.732 499.874L181.291 502.082C181.181 502.082 181.084 502.095 180.988 502.095ZM182.077 492.867L182.739 497.667L193.837 496.081L191.286 485.942L182.077 492.867Z" fill="#242424"/>
    <path d="M196.415 523.229C196.36 523.229 196.305 523.229 196.249 523.229L186.695 522.456C184.476 522.277 182.711 520.539 182.49 518.332L180.643 500.247C180.533 499.157 181.291 498.164 182.366 497.998L195.036 495.929C195.615 495.833 196.208 495.998 196.677 496.371C197.146 496.743 197.407 497.295 197.435 497.888L198.483 521.091C198.51 521.684 198.276 522.263 197.849 522.677C197.476 523.022 196.953 523.229 196.415 523.229ZM184.972 501.75L186.613 517.89C186.64 518.111 186.819 518.29 187.04 518.304L194.25 518.897L193.409 500.371L184.972 501.75Z" fill="#242424"/>
    <path d="M249.907 484.397L249.479 495.295L248.142 529.05C248.087 530.306 247.577 531.478 246.694 532.361L243.22 535.837C242.572 536.486 242.2 537.369 242.2 538.293V545.825C228.4 549.273 212.476 547.342 200.123 540.652V533.409C197.035 533.409 194.499 530.968 194.374 527.892L191.865 467.167L249.907 484.397Z" fill="#74698B"/>
    <g opacity="0.6">
        <path d="M247.494 497.805C247.053 497.819 246.846 502.288 244.971 519.09C244.902 519.753 244.585 522.415 243.551 525.712C242.848 527.947 242.407 529.381 241.442 530.65C239.705 532.927 237.002 533.754 232.908 534.444C228.979 535.106 223.299 535.741 216.185 535.396C226.083 537.203 233.335 536.693 237.623 536.072C240.215 535.699 242.82 535.134 244.833 533.065C247.535 530.306 247.673 526.415 247.728 523.808C247.977 510.814 248.238 497.778 247.494 497.805Z" fill="white"/>
    </g>
    <path d="M228.124 549.604C217.991 549.604 207.789 547.163 199.145 542.473C198.483 542.114 198.055 541.41 198.055 540.652V535.203C194.843 534.334 192.458 531.464 192.306 527.974L189.797 467.25C189.77 466.588 190.073 465.939 190.597 465.525C191.121 465.112 191.824 464.987 192.458 465.181L250.486 482.424C251.396 482.7 252.002 483.541 251.961 484.493L250.196 529.133C250.127 530.913 249.397 532.582 248.142 533.837L244.668 537.313C244.406 537.575 244.254 537.934 244.254 538.307V545.839C244.254 546.79 243.606 547.618 242.682 547.853C237.981 549.025 233.059 549.604 228.124 549.604ZM202.191 539.396C213.372 545.094 227.641 546.887 240.132 544.183V538.293C240.132 536.817 240.711 535.423 241.759 534.375L245.233 530.899C245.743 530.388 246.046 529.699 246.074 528.968L247.77 485.928L194.057 469.967L196.442 527.795C196.525 529.781 198.138 531.326 200.123 531.326C201.268 531.326 202.191 532.251 202.191 533.396V539.396V539.396Z" fill="#242424"/>
    <path d="M196.332 525.077C196.236 530.513 204.039 532.375 208.423 533.547C214.296 534.913 220.417 535.617 226.511 536.251C227.007 536.306 227.366 536.748 227.324 537.244C227.269 537.713 226.869 538.072 226.387 538.058C220.169 537.81 213.993 537.493 207.83 536.472C201.626 535.423 192.403 532.968 192.196 525.091C192.196 522.222 196.346 522.222 196.332 525.077Z" fill="#242424"/>
    <g opacity="0.3">
        <path d="M211.042 533.051C210.946 533.989 211.194 534.941 211.828 535.63C211.994 535.81 212.242 536.003 212.669 536.21C214.641 537.162 216.019 536.044 217.15 536.803C218.074 537.424 217.577 538.445 218.446 539.81C219.438 541.369 221.231 541.866 222.43 542.211C225.118 542.955 232.301 543.549 242.2 543.687V545.839C228.4 549.287 212.476 547.356 200.123 540.665V533.423C197.035 533.423 194.499 530.982 194.374 527.905L191.865 467.181L249.893 484.424L249.465 495.322C245.591 498.412 241.249 499.35 240.656 499.474C235.403 500.537 233.652 498.992 223.836 499.488C221.424 499.612 218.901 500.026 217.026 501.544C214.213 503.806 213.648 507.779 213.276 511.365L211.042 533.051Z" fill="#242424"/>
    </g>
    <g opacity="0.3">
        <path d="M242.655 561.758C241.221 563.358 239.705 564.517 238.092 565.358C224.498 572.462 208.106 557.523 191.645 565.772C189.604 566.793 187.867 568.02 186.406 569.276L202.536 536.637L242.2 542.211L242.655 561.758Z" fill="#242424"/>
    </g>
    <path d="M268.229 578.035C268.201 579.084 268.353 580.119 268.739 581.098C270.38 585.25 273.551 588.285 277.811 590.534C278.652 590.975 279.562 591.278 280.499 591.416C294.148 593.403 307.135 593.444 319.487 591.568C321.183 591.306 322.769 590.52 323.94 589.264C327.098 585.912 328.269 581.305 327.304 575.332C327.125 574.256 326.78 573.221 326.298 572.255L324.823 569.276L308.693 536.637L269.029 542.211L268.574 561.758L268.229 578.035Z" fill="#50468F"/>
    <path d="M322.644 564.793C327.153 577.842 308.665 584.767 293.445 575.387C292.066 574.532 290.398 574.27 288.799 574.559L284.097 575.414C282.788 575.649 281.505 574.752 281.368 573.428C281.037 570.241 282.526 567.427 285.352 564.903C286.703 563.689 287.654 562.103 287.999 560.323C288.978 555.274 289.529 550.556 288.826 546.873L311.133 540.665L322.644 564.793Z" fill="white"/>
    <path d="M300.958 595.003C294.175 595.003 287.241 594.493 280.21 593.458C279.038 593.292 277.907 592.92 276.859 592.368C271.924 589.775 268.546 586.243 266.823 581.857C266.354 580.67 266.133 579.374 266.175 577.994L267.002 542.155C267.03 541.134 267.774 540.293 268.78 540.155L308.444 534.582C309.327 534.458 310.195 534.913 310.581 535.713L328.187 571.317C328.78 572.504 329.179 573.745 329.372 574.987C330.42 581.539 329.11 586.823 325.471 590.671C323.996 592.23 321.997 593.265 319.818 593.596C313.697 594.534 307.397 595.003 300.958 595.003ZM271.083 544.018L270.297 578.091C270.283 578.918 270.407 579.677 270.669 580.339C272.034 583.815 274.695 586.561 278.79 588.699C279.424 589.03 280.113 589.251 280.816 589.361C294.134 591.306 307.038 591.361 319.198 589.513C320.466 589.32 321.624 588.726 322.465 587.844C325.209 584.933 326.133 580.946 325.292 575.663C325.154 574.821 324.892 573.994 324.478 573.166L307.534 538.9L271.083 544.018Z" fill="#242424"/>
    <path d="M268.257 577.166C268.725 586.947 328.614 590.051 327.194 574.656C328.435 580.836 327.856 586.602 321.431 591.016C308.058 593.651 293.955 593.472 279.3 591.141C271.731 587.512 268.133 582.836 268.257 577.166Z" fill="white"/>
    <path d="M301 594.327C294.037 594.327 286.772 593.72 279.079 592.492C278.941 592.465 278.817 592.437 278.693 592.368C270.711 588.547 266.726 583.415 266.864 577.125C266.878 576.38 267.485 575.787 268.229 575.773C268.946 575.732 269.594 576.339 269.621 577.084C269.663 577.884 270.697 578.849 272.489 579.732C283.256 585.085 313.807 585.733 323.155 579.332C325.099 577.994 325.981 576.504 325.815 574.766C325.746 574.035 326.27 573.373 326.987 573.276C327.718 573.166 328.393 573.649 328.545 574.366C329.552 579.429 330.007 586.781 322.217 592.134C322.065 592.244 321.886 592.313 321.707 592.354C315.076 593.679 308.196 594.327 301 594.327ZM279.713 589.802C294.837 592.189 308.306 592.148 320.88 589.706C324.326 587.264 326.077 584.298 326.298 580.325C325.857 580.767 325.333 581.208 324.712 581.622C313.904 589.03 281.85 587.485 271.262 582.215C271.028 582.105 270.821 581.981 270.6 581.87C272.034 584.919 275.053 587.54 279.713 589.802Z" fill="#242424"/>
    <path d="M305.963 570.393C305.784 570.393 305.604 570.366 305.411 570.324L284.263 564.572C283.16 564.268 282.512 563.137 282.815 562.034C283.118 560.93 284.249 560.282 285.352 560.585L306.5 566.338C307.603 566.641 308.251 567.772 307.948 568.876C307.714 569.786 306.873 570.393 305.963 570.393Z" fill="#242424"/>
    <path d="M305.411 569.345C304.929 569.345 304.46 569.179 304.06 568.848C303.192 568.103 303.095 566.793 303.84 565.924L315.42 552.446C316.165 551.577 317.475 551.481 318.343 552.225C319.212 552.97 319.308 554.281 318.564 555.15L306.983 568.627C306.583 569.096 306.004 569.345 305.411 569.345Z" fill="#242424"/>
    <path d="M303.895 563.082C303.398 563.082 302.902 562.903 302.516 562.558C301.661 561.799 301.592 560.489 302.364 559.633L313.242 547.508C314 546.652 315.31 546.583 316.165 547.356C317.02 548.115 317.089 549.425 316.316 550.28L305.439 562.406C305.025 562.847 304.46 563.082 303.895 563.082Z" fill="#242424"/>
    <path d="M301.827 557.316C301.331 557.316 300.848 557.136 300.448 556.792C299.593 556.033 299.524 554.722 300.283 553.867L310.636 542.266C311.395 541.41 312.704 541.341 313.559 542.1C314.414 542.859 314.483 544.169 313.725 545.025L303.371 556.626C302.957 557.081 302.392 557.316 301.827 557.316Z" fill="#242424"/>
    <path d="M304.584 564.255C304.405 564.255 304.226 564.227 304.033 564.186L285.641 559.178C284.538 558.875 283.891 557.743 284.194 556.64C284.497 555.536 285.628 554.888 286.731 555.191L305.122 560.199C306.225 560.502 306.873 561.634 306.569 562.737C306.335 563.648 305.494 564.255 304.584 564.255Z" fill="#242424"/>
    <path d="M303.371 558.543C303.192 558.543 303.012 558.516 302.833 558.475L286.868 554.129C285.765 553.826 285.118 552.695 285.421 551.591C285.724 550.487 286.855 549.839 287.958 550.142L303.922 554.488C305.025 554.791 305.673 555.922 305.37 557.026C305.122 557.937 304.281 558.543 303.371 558.543Z" fill="#242424"/>
    <path d="M303.481 553.826C303.302 553.826 303.137 553.798 302.957 553.757L284.304 548.873C283.201 548.584 282.539 547.452 282.829 546.349C283.119 545.245 284.249 544.583 285.352 544.873L304.005 549.77C305.108 550.06 305.77 551.191 305.48 552.294C305.232 553.205 304.391 553.826 303.481 553.826Z" fill="#242424"/>
    <path d="M268.863 550.363L277.962 554.653C278.734 555.012 279.231 555.785 279.258 556.626C279.465 561.978 278.376 566.269 275.563 569.165C274.722 570.035 273.482 570.379 272.31 570.145L268.422 569.345L268.863 550.363Z" fill="#242424"/>
    <path d="M273.068 571.607C272.723 571.607 272.393 571.58 272.048 571.497L268.16 570.697C267.512 570.559 267.043 569.979 267.057 569.317L267.498 550.336C267.512 549.867 267.76 549.439 268.146 549.191C268.546 548.942 269.042 548.915 269.456 549.122L278.555 553.412C279.796 553.991 280.596 555.205 280.651 556.585C280.885 562.558 279.506 567.124 276.57 570.145C275.646 571.097 274.392 571.607 273.068 571.607ZM269.842 568.227L272.613 568.793C273.344 568.945 274.102 568.724 274.598 568.2C277.025 565.703 278.1 561.937 277.893 556.681C277.88 556.336 277.687 556.047 277.383 555.895L270.201 552.501L269.842 568.227Z" fill="#242424"/>
    <path d="M308.086 581.112C303.288 581.112 297.911 579.774 292.714 576.559C291.652 575.897 290.343 575.677 289.033 575.911L284.332 576.766C283.312 576.946 282.25 576.697 281.409 576.077C280.596 575.456 280.085 574.573 279.975 573.566C279.617 570.09 281.106 566.834 284.414 563.868C285.586 562.82 286.345 561.509 286.634 560.061C287.778 554.115 288.04 550.129 287.461 547.135C287.323 546.432 287.751 545.742 288.44 545.549L310.747 539.341C311.395 539.162 312.07 539.465 312.36 540.072L323.858 564.213C323.885 564.255 323.899 564.31 323.913 564.351C325.65 569.386 324.368 574.118 320.384 577.318C317.488 579.649 313.104 581.112 308.086 581.112ZM290.039 573.056C291.501 573.056 292.935 573.442 294.162 574.201C303.592 580.022 313.835 579.029 318.674 575.139C321.721 572.697 322.672 569.193 321.349 565.303L310.375 542.293L290.37 547.866C290.742 551.039 290.425 555.04 289.35 560.571C288.95 562.613 287.889 564.461 286.262 565.91C283.615 568.283 282.457 570.683 282.732 573.262C282.76 573.58 282.953 573.759 283.077 573.856C283.298 574.021 283.573 574.09 283.849 574.035L288.55 573.18C289.047 573.111 289.543 573.056 290.039 573.056Z" fill="#242424"/>
    <path d="M318.729 482.424L331.399 491.942L330.282 500.012L314.841 497.805L318.729 482.424Z" fill="#74698B"/>
    <g opacity="0.3">
        <path d="M318.729 482.424L331.399 491.942L330.282 500.012L314.841 497.805L318.729 482.424Z" fill="#242424"/>
    </g>
    <path d="M328.559 500.012L326.712 518.097C326.588 519.311 325.609 520.277 324.395 520.373L314.841 521.146L315.889 497.943L328.559 500.012Z" fill="#74698B"/>
    <g opacity="0.3">
        <path d="M328.559 500.012L326.712 518.097C326.588 519.311 325.609 520.277 324.395 520.373L314.841 521.146L315.889 497.943L328.559 500.012Z" fill="#242424"/>
    </g>
    <path d="M330.282 502.095C330.186 502.095 330.089 502.095 329.993 502.068L314.566 499.861C313.987 499.778 313.463 499.447 313.146 498.964C312.815 498.481 312.718 497.874 312.856 497.309L316.73 481.927C316.896 481.251 317.392 480.713 318.054 480.479C318.702 480.244 319.432 480.355 319.984 480.769L332.654 490.287C333.26 490.742 333.564 491.487 333.467 492.232L332.35 500.302C332.281 500.854 331.978 501.337 331.551 501.668C331.165 501.944 330.724 502.095 330.282 502.095ZM317.406 496.081L328.504 497.667L329.166 492.867L319.956 485.942L317.406 496.081Z" fill="#242424"/>
    <path d="M314.841 523.229C314.304 523.229 313.794 523.022 313.408 522.65C312.98 522.236 312.746 521.656 312.773 521.063L313.821 497.86C313.849 497.267 314.124 496.715 314.579 496.343C315.034 495.97 315.627 495.805 316.22 495.901L328.89 497.971C329.965 498.15 330.723 499.129 330.613 500.219L328.766 518.304C328.545 520.511 326.767 522.249 324.561 522.429L315.007 523.201C314.952 523.229 314.896 523.229 314.841 523.229ZM317.847 500.371L317.006 518.897L324.216 518.304C324.437 518.29 324.616 518.111 324.644 517.89L326.284 501.75L317.847 500.371Z" fill="#242424"/>
    <path d="M261.363 484.397L261.791 495.295L263.128 529.05C263.183 530.306 263.693 531.478 264.576 532.361L268.05 535.837C268.698 536.486 269.07 537.369 269.07 538.293V545.825C282.87 549.273 298.794 547.342 311.147 540.652V533.409C314.235 533.409 316.771 530.968 316.896 527.892L319.405 467.167L261.363 484.397Z" fill="#74698B"/>
    <g opacity="0.6">
        <path d="M263.776 497.805C264.217 497.819 264.424 502.288 266.299 519.09C266.368 519.753 266.685 522.415 267.719 525.712C268.422 527.947 268.863 529.381 269.828 530.65C271.565 532.927 274.267 533.754 278.362 534.444C282.291 535.106 287.971 535.741 295.085 535.396C285.186 537.203 277.935 536.693 273.647 536.072C271.055 535.699 268.45 535.134 266.437 533.065C263.735 530.306 263.597 526.415 263.542 523.808C263.293 510.814 263.031 497.778 263.776 497.805Z" fill="white"/>
    </g>
    <path d="M283.146 549.604C278.21 549.604 273.289 549.025 268.56 547.839C267.636 547.604 266.988 546.777 266.988 545.825V538.293C266.988 537.92 266.837 537.562 266.575 537.3L263.1 533.823C261.846 532.568 261.115 530.899 261.046 529.119L259.282 484.479C259.24 483.528 259.847 482.686 260.757 482.41L318.784 465.167C319.418 464.974 320.122 465.112 320.645 465.512C321.169 465.925 321.473 466.56 321.445 467.236L318.936 527.961C318.798 531.451 316.399 534.32 313.187 535.189V540.638C313.187 541.397 312.773 542.1 312.098 542.459C303.481 547.163 293.279 549.604 283.146 549.604ZM271.124 544.183C283.601 546.887 297.884 545.094 309.065 539.396V533.396C309.065 532.251 309.988 531.326 311.133 531.326C313.118 531.326 314.731 529.781 314.814 527.795L317.199 469.967L263.486 485.928L265.182 528.968C265.21 529.699 265.513 530.388 266.023 530.899L269.497 534.375C270.545 535.423 271.124 536.817 271.124 538.293V544.183Z" fill="#242424"/>
    <path d="M319.074 525.077C318.853 532.968 309.658 535.41 303.44 536.458C297.277 537.493 291.087 537.796 284.883 538.044C284.387 538.058 283.959 537.672 283.946 537.175C283.932 536.693 284.29 536.293 284.759 536.237C290.867 535.603 296.974 534.899 302.847 533.534C307.024 532.402 313.159 530.968 314.745 526.678C314.897 526.153 314.952 525.588 314.938 525.022C314.924 523.877 315.834 522.939 316.964 522.912C318.15 522.898 319.115 523.891 319.074 525.077Z" fill="#242424"/>
    <g opacity="0.3">
        <path d="M300.214 533.051C300.31 533.989 300.062 534.941 299.428 535.63C299.262 535.81 299.014 536.003 298.587 536.21C296.615 537.162 295.237 536.044 294.106 536.803C293.183 537.424 293.679 538.445 292.81 539.81C291.818 541.369 290.026 541.866 288.826 542.21C286.138 542.955 278.955 543.549 269.056 543.687V545.839C282.857 549.287 298.78 547.356 311.133 540.665V533.423C314.221 533.423 316.758 530.982 316.882 527.905L319.391 467.181L261.363 484.424L261.791 495.322C265.665 498.412 270.007 499.35 270.6 499.474C275.853 500.537 277.604 498.991 287.42 499.488C289.833 499.612 292.355 500.026 294.23 501.544C297.043 503.806 297.608 507.779 297.98 511.365L300.214 533.051Z" fill="#242424"/>
    </g>
    <g opacity="0.3">
        <path d="M268.615 561.758C270.049 563.358 271.565 564.517 273.178 565.358C286.772 572.462 303.164 557.523 319.625 565.772C321.666 566.793 323.403 568.02 324.864 569.276L308.734 536.637L269.07 542.211L268.615 561.758Z" fill="#242424"/>
    </g>
    <path d="M323.485 359.996C329.62 407.312 333.329 450.751 319.005 465.594C323.389 482.796 299.69 492.163 255.311 492.163H255.89C211.511 492.163 187.812 482.796 192.196 465.594C177.872 450.751 181.581 407.312 187.716 359.996L193.12 325.716L316.827 326.957L323.485 359.996Z" fill="#16B768"/>
    <g opacity="0.6">
        <path d="M244.489 491.942C230.95 491.004 219.425 489.308 210.119 486.907C218.79 489.666 230.344 491.363 244.489 491.942Z" fill="white"/>
        <path d="M323.485 359.996C322.534 355.912 321.61 351.76 320.728 347.511C319.253 340.49 317.957 333.634 316.827 326.957C295.692 326.736 274.557 326.529 253.422 326.322L317.144 331.233C319.253 340.821 321.376 350.408 323.485 359.996C320.535 375.57 320.921 387.957 321.872 396.579C322.948 406.222 324.768 411.326 325.085 423.962C325.429 437.701 323.279 446.351 322.782 448.351C320.604 457.249 317.323 464.187 314.731 468.822C314.634 470.588 314.276 473.554 312.663 476.644C307.59 486.314 294.865 488.08 295.03 488.563C295.195 489.059 309.533 488.797 316.027 478.41C319.143 473.416 319.156 468.16 318.991 465.608C326.643 448.613 328.559 434.584 328.904 424.983C329.11 419.313 328.766 415.257 326.229 388.744C325.498 380.922 324.575 371.211 323.485 359.996Z" fill="white"/>
    </g>
    <path d="M324.478 359.871C326.767 368.645 327.359 377.653 328.49 386.606C330.503 407.877 335.88 450.6 320.48 467.029L320.99 465.084C322.479 470.464 321.004 476.492 316.964 480.41C307.024 490.246 288.137 492.329 274.764 493.543C268.27 494.025 261.777 494.232 255.283 494.232V490.094H255.862C257.007 490.094 257.93 491.018 257.93 492.163C257.93 493.308 257.007 494.232 255.862 494.232C249.369 494.219 242.876 494.025 236.382 493.543C221.879 492.26 191.272 489.018 189.618 470.519C189.508 468.657 189.742 466.822 190.156 465.084L190.666 467.029C175.142 450.682 180.395 407.891 182.449 386.578C183.455 377.598 184.503 368.645 186.75 359.871C186.875 359.361 187.398 359.057 187.909 359.195C188.336 359.306 188.625 359.692 188.625 360.12C188.432 373.666 186.268 386.937 185.482 400.4C184.489 417.699 181.829 450.834 193.671 464.16C194.168 464.712 194.333 465.443 194.181 466.105C193.065 470.216 194.099 474.547 197.173 477.541C206.245 486.369 224.429 488.301 236.699 489.418C243.069 489.887 249.465 490.094 255.862 490.094V494.232H255.283C254.139 494.232 253.215 493.308 253.215 492.163C253.215 491.018 254.139 490.094 255.283 490.094C261.68 490.08 268.091 489.887 274.447 489.418C287.13 488.356 321.542 484.797 316.964 466.105C316.799 465.387 317.02 464.656 317.475 464.16C320.218 461.208 322.079 457.318 323.361 453.22C327.098 440.516 326.973 427.01 326.601 413.781C326.132 400.373 324.85 386.937 323.375 373.583C322.865 369.128 322.396 364.658 322.451 360.12C322.451 359.554 322.92 359.113 323.472 359.113C323.968 359.126 324.368 359.444 324.478 359.871Z" fill="#242424"/>
    <path d="M187.467 452.31C191.727 467.581 209.884 471.816 223.63 474.285C232.88 475.858 242.2 476.685 251.561 477.554C252.195 477.61 252.664 478.175 252.609 478.81C252.554 479.403 252.057 479.844 251.478 479.858C249.893 479.9 248.321 479.913 246.736 479.913C245.536 479.913 243.179 479.886 241.993 479.844C226.828 479.306 208.519 477.582 195.381 469.374C189.646 465.829 185 460.021 183.455 453.345C182.849 450.682 186.709 449.675 187.467 452.31Z" fill="#242424"/>
    <path d="M327.787 453.345C322.176 476.258 288.771 479.113 269.249 479.844C266.189 479.941 262.811 479.941 259.75 479.858C258.344 479.817 258.22 477.706 259.667 477.554C265.927 476.975 272.172 476.423 278.362 475.637C290.384 474.023 303.012 472.174 313.476 465.705C318.426 462.587 322.245 457.98 323.761 452.31C324.519 449.689 328.393 450.655 327.787 453.345Z" fill="#242424"/>
    <g opacity="0.2">
        <path d="M196.263 479.555C241.745 496.426 284.263 491.046 309.106 472.174C266.533 481.127 210.119 477.954 190.68 463.842L196.263 479.555Z" fill="#242424"/>
    </g>
    <path d="M271.149 375.297C271.004 374.244 269.979 373.574 268.966 373.826V373.826C263.268 375.184 257.546 374.993 252.277 373.536C251.164 373.228 249.996 373.922 249.786 375.079L249.139 378.637C249.005 379.374 249.445 380.094 250.153 380.295V380.295C250.769 380.471 251.424 380.204 251.753 379.644L252.958 377.596C253.222 377.146 253.735 376.919 254.24 377.016V377.016C254.757 377.115 255.161 377.535 255.232 378.067L255.522 380.236C255.617 380.95 256.18 381.505 256.883 381.578V381.578C257.575 381.65 258.228 381.237 258.473 380.572L259.249 378.469C259.432 377.972 259.908 377.656 260.428 377.666V377.666C260.948 377.677 261.411 378.012 261.574 378.516L262.264 380.649C262.482 381.323 263.118 381.762 263.812 381.718V381.718C264.518 381.673 265.102 381.142 265.226 380.432L265.604 378.268C265.697 377.739 266.11 377.336 266.63 377.258V377.258C267.139 377.182 267.649 377.429 267.894 377.89L269.018 379.996C269.324 380.567 269.965 380.86 270.587 380.713V380.713C271.303 380.543 271.774 379.842 271.672 379.099L271.149 375.297Z" fill="#242424"/>
    <path d="M267.303 382.332C266.671 382.167 265.999 382.416 265.663 382.94L264.434 384.855C264.165 385.275 263.64 385.486 263.123 385.395V385.395C262.595 385.302 262.181 384.909 262.108 384.413L261.807 382.383C261.708 381.713 261.129 381.192 260.407 381.122V381.122C259.696 381.053 259.026 381.439 258.776 382.062L257.988 384.021C257.801 384.485 257.311 384.78 256.779 384.769V384.769C256.247 384.758 255.776 384.444 255.608 383.973L254.899 381.98C254.675 381.35 254.023 380.939 253.313 380.979V380.979C252.591 381.019 251.994 381.514 251.868 382.177L251.486 384.19C251.392 384.683 250.963 385.059 250.431 385.131V385.131C249.911 385.201 249.395 384.969 249.142 384.539L247.992 382.58C247.677 382.045 247.018 381.77 246.382 381.909V381.909C245.65 382.069 245.171 382.723 245.28 383.417L245.799 386.755C245.969 387.842 247.135 388.535 248.285 388.292C253.73 387.141 259.588 387.19 265.36 388.69V388.69C266.386 388.952 267.463 388.377 267.655 387.404L268.348 383.888C268.485 383.197 268.031 382.522 267.303 382.332V382.332Z" fill="#242424"/>
    <path d="M216.637 280.785C212.32 284.724 205.832 287.147 198.586 287.552C186.072 288.267 171.312 283.037 161.533 269.46C151.925 256.118 152.406 240.268 155.335 229.232C157.119 222.529 159.802 217.608 161.672 216.124C166.631 212.186 194.664 206.006 214.714 228.442C234.763 250.888 226.331 271.915 216.637 280.785Z" fill="#FBA3CB"/>
    <path d="M298.011 280.999C302.307 284.969 308.773 287.414 316.03 287.862C328.534 288.641 343.325 283.486 353.179 269.962C362.851 256.674 362.456 240.813 359.592 229.765C357.85 223.052 355.199 218.12 353.329 216.626C348.391 212.656 320.39 206.326 300.223 228.666C280.046 251.006 288.371 272.086 298.011 280.999Z" fill="#FBA3CB"/>
    <path d="M196.214 289.666C181.968 289.666 168.534 282.674 159.866 270.645C148.228 254.496 151.434 235.935 153.358 228.709C153.368 228.666 153.379 228.623 153.39 228.591C155.153 222.016 157.9 216.498 160.401 214.513C166.471 209.688 195.765 204.149 216.253 227.076C227.934 240.151 229.558 252.137 228.874 259.886C228.116 268.393 224.065 276.772 218.027 282.29C213.356 286.56 206.495 289.153 198.704 289.591C197.87 289.644 197.037 289.666 196.214 289.666ZM157.29 229.861C155.516 236.607 152.641 253.6 163.201 268.254C171.537 279.835 184.725 286.293 198.469 285.503C205.223 285.119 211.336 282.845 215.259 279.27C223.274 271.937 233.16 252.159 213.196 229.797C202.861 218.248 190.731 215.068 182.384 214.427C172.52 213.68 164.868 216.199 162.955 217.715C161.758 218.665 159.182 222.763 157.323 229.744C157.312 229.787 157.301 229.829 157.29 229.861Z" fill="#242424"/>
    <path d="M216.637 280.785C212.32 284.724 205.832 287.147 198.586 287.552C210.749 267.134 200.927 232.893 186.05 224.418C169.998 215.26 155.677 228.901 155.345 229.232C157.12 222.529 159.802 217.608 161.672 216.124C166.631 212.186 194.664 206.006 214.714 228.442C234.763 250.888 226.331 271.915 216.637 280.785Z" fill="#5C546C"/>
    <g opacity="0.6">
        <path d="M155.463 228.901C155.506 228.858 155.816 228.559 156.361 228.1C157.857 224.29 159.535 221.579 160.828 220.543C165.766 216.573 193.766 210.254 213.933 232.583C224.354 244.121 227.164 255.329 226.128 264.689C228.821 254.496 227.09 241.389 214.831 227.812C194.664 205.461 166.663 211.802 161.726 215.761C159.855 217.256 157.205 222.198 155.463 228.901Z" fill="white"/>
    </g>
    <path d="M198.586 289.42C197.935 289.42 197.325 289.079 196.983 288.524C196.62 287.937 196.62 287.189 196.973 286.602C202.541 277.242 203.727 263.547 200.136 249.96C197.197 238.817 191.437 229.648 185.11 226.04C170.361 217.619 157.194 230.032 156.639 230.566C156.04 231.153 155.121 231.26 154.394 230.833C153.667 230.406 153.315 229.552 153.529 228.741C155.26 222.262 158.06 216.594 160.518 214.651C166.556 209.848 195.712 204.351 216.114 227.193C227.752 240.225 229.377 252.159 228.693 259.865C227.945 268.329 223.905 276.665 217.899 282.151C213.26 286.389 206.442 288.972 198.683 289.41C198.651 289.42 198.619 289.42 198.586 289.42ZM174.486 219.369C178.387 219.369 182.609 220.308 186.98 222.795C194.247 226.947 200.521 236.746 203.759 249.01C207.211 262.096 206.474 275.374 201.857 285.332C207.286 284.489 212.095 282.408 215.366 279.408C223.424 272.033 233.374 252.148 213.314 229.691C194.493 208.61 167.593 213.798 162.837 217.576C161.993 218.248 160.454 220.469 158.968 224.151C162.656 221.867 168.117 219.369 174.486 219.369Z" fill="#242424"/>
    <g opacity="0.2">
        <path d="M204.048 266.536C202.861 266.984 201.59 267.23 200.275 267.219C193.446 267.198 187.921 260.633 187.942 252.543C187.963 245.498 192.174 239.617 197.774 238.24C201.814 246.352 204.251 256.599 204.048 266.536Z" fill="#242424"/>
    </g>
    <path d="M200.296 269.268C200.286 269.268 200.275 269.268 200.264 269.268C192.313 269.247 185.868 261.743 185.89 252.532C185.911 244.719 190.699 237.867 197.283 236.244C198.212 236.009 199.185 236.458 199.612 237.322C203.941 246.011 206.303 256.674 206.089 266.579C206.068 267.411 205.544 268.158 204.764 268.447C203.342 269.002 201.835 269.268 200.296 269.268ZM196.705 240.77C192.751 242.584 190.004 247.259 189.994 252.543C189.972 259.491 194.589 265.159 200.275 265.17C200.863 265.17 201.44 265.116 201.996 264.999C201.942 256.791 200.051 248.124 196.705 240.77Z" fill="#242424"/>
    <path d="M200.296 269.268C200.286 269.268 200.275 269.268 200.264 269.268C192.313 269.247 185.868 261.743 185.89 252.532C185.911 244.719 190.699 237.867 197.283 236.244C198.212 236.009 199.185 236.458 199.612 237.322C203.941 246.011 206.303 256.674 206.089 266.579C206.068 267.411 205.544 268.158 204.764 268.447C203.342 269.002 201.835 269.268 200.296 269.268ZM196.705 240.77C192.751 242.584 190.004 247.259 189.994 252.543C189.972 259.491 194.589 265.159 200.275 265.17C200.863 265.17 201.44 265.116 201.996 264.999C201.942 256.791 200.051 248.124 196.705 240.77Z" fill="#242424"/>
    <path d="M318.627 289.997C317.719 289.997 316.821 289.964 315.902 289.911C308.111 289.431 301.271 286.794 296.622 282.504C290.615 276.943 286.597 268.553 285.892 260.036C285.24 252.287 286.939 240.311 298.684 227.3C319.3 204.479 348.562 210.168 354.611 215.036C357.101 217.032 359.816 222.561 361.547 229.146C361.558 229.189 361.569 229.221 361.579 229.264C363.46 236.5 366.57 255.083 354.846 271.179C346.158 283.091 332.777 289.997 318.627 289.997ZM299.411 279.494C303.312 283.091 309.414 285.396 316.158 285.823C329.902 286.677 343.112 280.305 351.512 268.767C362.146 254.165 359.356 237.151 357.625 230.406C357.614 230.363 357.604 230.331 357.593 230.288C355.776 223.297 353.222 219.188 352.036 218.238C350.133 216.711 342.492 214.15 332.627 214.844C324.27 215.431 312.129 218.547 301.741 230.053C281.649 252.287 291.428 272.118 299.411 279.494Z" fill="#242424"/>
    <path d="M298.011 280.999C302.307 284.969 308.773 287.414 316.03 287.862C303.985 267.379 313.989 233.192 328.897 224.791C345.003 215.719 359.239 229.445 359.581 229.765C357.839 223.052 355.188 218.12 353.318 216.626C348.38 212.656 320.38 206.326 300.213 228.666C280.045 251.006 288.371 272.086 298.011 280.999Z" fill="#5C546C"/>
    <g opacity="0.6">
        <path d="M359.581 229.797C359.538 229.755 359.228 229.456 358.683 228.997C357.187 225.186 355.509 222.475 354.216 221.44C349.278 217.469 321.277 211.15 301.11 233.48C290.69 245.007 287.879 256.215 288.916 265.575C286.223 255.382 287.954 242.275 300.213 228.698C320.39 206.358 348.391 212.698 353.329 216.658C355.188 218.152 357.839 223.094 359.581 229.797Z" fill="white"/>
    </g>
    <path d="M316.03 289.73C315.987 289.73 315.955 289.73 315.912 289.73C308.164 289.249 301.356 286.634 296.739 282.376C290.765 276.847 286.768 268.489 286.063 260.025C285.421 252.308 287.11 240.386 298.813 227.417C319.343 204.693 348.466 210.339 354.483 215.174C356.92 217.128 359.698 222.806 361.387 229.296C361.601 230.107 361.237 230.961 360.511 231.377C359.784 231.793 358.865 231.687 358.266 231.099C357.721 230.566 344.619 218.078 329.817 226.414C323.479 229.989 317.665 239.115 314.673 250.248C311.018 263.814 312.129 277.519 317.644 286.901C317.996 287.499 317.986 288.235 317.622 288.822C317.28 289.399 316.682 289.73 316.03 289.73ZM299.283 279.632C302.542 282.642 307.341 284.756 312.76 285.631C308.196 275.641 307.533 262.363 311.06 249.298C314.363 237.045 320.69 227.289 327.989 223.18C339.51 216.69 350.069 220.97 355.979 224.695C354.515 221.002 352.998 218.771 352.153 218.099C347.419 214.289 320.551 208.952 301.602 229.925C281.424 252.276 291.267 272.214 299.283 279.632Z" fill="#242424"/>
    <path d="M310.686 266.824C311.873 267.283 313.144 267.529 314.459 267.529C321.288 267.55 326.846 261.007 326.867 252.916C326.888 245.872 322.699 239.969 317.109 238.56C313.027 246.64 310.537 256.876 310.686 266.824Z" fill="#FBA3CB"/>
    <g opacity="0.2">
        <path d="M310.686 266.824C311.873 267.283 313.144 267.529 314.459 267.529C321.288 267.55 326.846 261.007 326.867 252.916C326.888 245.872 322.699 239.969 317.109 238.56C313.027 246.64 310.537 256.876 310.686 266.824Z" fill="#242424"/>
    </g>
    <path d="M314.48 269.578C314.47 269.578 314.459 269.578 314.448 269.578C312.899 269.578 311.381 269.29 309.949 268.735C309.169 268.436 308.656 267.689 308.634 266.856C308.485 256.951 310.9 246.309 315.271 237.642C315.699 236.789 316.671 236.34 317.612 236.575C324.184 238.24 328.94 245.114 328.919 252.927C328.908 257.325 327.433 261.466 324.783 264.593C322.047 267.806 318.392 269.578 314.48 269.578ZM312.738 265.298C313.305 265.415 313.882 265.479 314.459 265.479C317.173 265.479 319.696 264.23 321.651 261.936C323.682 259.545 324.804 256.332 324.815 252.906C324.826 247.612 322.111 242.926 318.157 241.09C314.769 248.433 312.834 257.079 312.738 265.298Z" fill="#242424"/>
    <path d="M333.119 313.703C333.001 356.365 282.91 360.72 259.365 360.901C258.564 360.901 257.794 360.912 257.057 360.901C237.339 360.848 193.467 358.18 183.357 327.418C181.978 323.245 181.23 318.559 181.241 313.297C181.38 262.341 222.141 225.987 257.41 226.083C292.913 226.179 333.258 262.747 333.119 313.703Z" fill="#74698B"/>
    <g opacity="0.6">
        <path d="M332.959 312.134C329.528 264.946 291.321 231.772 257.517 231.676C222.27 231.58 181.561 267.859 181.337 318.741C181.177 317.108 181.091 315.421 181.102 313.66C181.241 262.704 222.002 226.36 257.271 226.446C292.315 226.542 332.093 262.181 332.959 312.134Z" fill="white"/>
    </g>
    <path d="M321.096 301.46C307.234 294.362 289.247 310.778 259.536 296.806H258.917C229.131 310.618 207.136 294.095 193.232 301.118C179.328 308.131 183.336 327.45 183.336 327.45C193.168 357.4 237.863 360.015 257.025 360.058C257.677 360.058 258.35 360.058 259.045 360.058C259.74 360.069 260.424 360.069 261.065 360.069C280.227 360.122 320.839 357.742 330.832 327.845C330.853 327.835 334.968 308.547 321.096 301.46Z" fill="#C7C3D1"/>
    <path d="M257.572 299.689C256.172 302.08 254.291 304.225 252.121 306.04C249.941 307.854 247.44 309.317 244.811 310.438C239.521 312.668 233.76 313.501 228.128 313.512C222.346 313.469 216.725 312.124 211.531 309.914C208.944 308.794 206.443 307.428 204.167 305.752C203.611 305.303 203.045 304.887 202.511 304.428L201.73 303.713L201.346 303.35L200.982 302.955C199.999 301.952 199.165 300.778 198.556 299.54C200.501 301.504 202.82 302.859 205.214 304.033C207.619 305.186 210.12 306.125 212.653 306.894C217.729 308.42 222.966 309.381 228.128 309.424C233.418 309.413 238.687 308.922 243.71 307.428C248.733 305.944 253.436 303.382 257.572 299.689Z" fill="#A6A3AE"/>
    <path d="M317.772 299.689C316.372 302.08 314.491 304.225 312.321 306.04C310.141 307.854 307.64 309.317 305.011 310.438C299.721 312.668 293.96 313.501 288.328 313.512C282.546 313.469 276.925 312.124 271.731 309.914C269.144 308.794 266.643 307.428 264.367 305.752C263.811 305.303 263.245 304.887 262.711 304.428L261.93 303.713L261.546 303.35L261.182 302.955C260.199 301.952 259.365 300.778 258.756 299.54C260.701 301.504 263.02 302.859 265.414 304.033C267.819 305.186 270.32 306.125 272.853 306.894C277.929 308.42 283.166 309.381 288.328 309.424C293.618 309.413 298.887 308.922 303.91 307.428C308.933 305.944 313.636 303.382 317.772 299.689Z" fill="#A6A3AE"/>
    <g opacity="0.2">
        <path d="M332.478 314.023C332.36 356.685 282.268 361.04 258.724 361.232C257.923 361.232 257.153 361.232 256.416 361.232C236.698 361.179 192.837 358.511 182.716 327.749C181.337 323.576 180.589 318.89 180.6 313.628C180.61 310.202 180.803 306.829 181.166 303.541C181.476 306.85 182.128 309.914 183.058 312.742C193.168 343.503 237.04 346.172 256.758 346.225C257.495 346.225 258.265 346.225 259.066 346.225C281.114 346.044 326.45 342.223 332.2 306.69C332.392 309.081 332.478 311.536 332.478 314.023Z" fill="#242424"/>
    </g>
    <path d="M257.538 362.961C257.378 362.961 257.207 362.961 257.046 362.961C215.024 362.844 188.872 350.783 181.401 328.069C179.916 323.565 179.178 318.591 179.189 313.297C179.253 289.217 188.295 266.429 204.657 249.149C219.544 233.426 239.198 224.044 257.281 224.044C257.324 224.044 257.378 224.044 257.42 224.044C275.61 224.098 295.318 233.586 310.12 249.437C326.332 266.781 335.224 289.612 335.16 313.724C335.107 333.118 325.232 347.058 305.813 355.138C293.693 360.186 278.068 362.823 259.376 362.972C258.746 362.961 258.136 362.961 257.538 362.961ZM257.281 228.132C222.441 228.132 183.432 264.497 183.304 313.297C183.293 318.154 183.966 322.69 185.313 326.778C193.98 353.152 229.12 358.777 257.068 358.852C257.805 358.852 258.564 358.852 259.365 358.852C277.513 358.703 292.614 356.184 304.242 351.338C321.993 343.952 331.024 331.282 331.067 313.692L333.119 313.703L331.067 313.692C331.131 290.637 322.624 268.799 307.127 252.212C293.073 237.173 274.488 228.175 257.41 228.122C257.367 228.132 257.324 228.132 257.281 228.132Z" fill="#242424"/>
    <path d="M153.991 278.127C159.452 277.775 164.935 278.106 170.364 278.779C175.804 279.451 181.201 280.529 186.481 282.034C187.806 282.408 189.11 282.824 190.424 283.24C191.718 283.699 193.032 284.115 194.304 284.628C196.88 285.599 199.402 286.688 201.86 287.937C206.787 290.37 211.457 293.369 215.54 296.988C213.156 295.643 210.816 294.287 208.39 293.103C207.791 292.782 207.172 292.515 206.573 292.217C205.964 291.928 205.365 291.63 204.735 291.363C204.115 291.096 203.506 290.818 202.897 290.541L201.037 289.762C200.417 289.495 199.797 289.249 199.167 289.015C198.536 288.769 197.916 288.513 197.286 288.278C196.025 287.819 194.764 287.339 193.492 286.923C190.948 286.047 188.383 285.236 185.797 284.51C180.624 283.027 175.366 281.821 170.065 280.753C164.743 279.718 159.399 278.832 153.991 278.127Z" fill="#242424"/>
    <path d="M150.561 299.902C155.744 298.162 161.13 297.084 166.56 296.337C171.989 295.59 177.482 295.259 182.975 295.355C184.343 295.376 185.722 295.44 187.09 295.504C188.458 295.611 189.837 295.686 191.194 295.846C193.93 296.123 196.655 296.539 199.338 297.105C204.724 298.194 210.004 299.891 214.888 302.346C212.237 301.652 209.63 300.948 206.979 300.425C206.327 300.265 205.654 300.169 204.991 300.03C204.329 299.912 203.666 299.774 203.003 299.678C202.341 299.581 201.678 299.464 201.016 299.347L199.017 299.069C198.354 298.973 197.681 298.898 197.019 298.824C196.345 298.749 195.683 298.664 195.009 298.599C193.673 298.482 192.338 298.333 190.991 298.258C188.308 298.066 185.626 297.938 182.933 297.895C177.557 297.788 172.16 297.959 166.773 298.301C161.366 298.685 155.968 299.197 150.561 299.902Z" fill="#242424"/>
    <path d="M153.403 323.693C157.946 320.651 162.872 318.207 167.906 316.061C172.951 313.927 178.155 312.155 183.488 310.821C184.814 310.479 186.16 310.191 187.507 309.892C188.853 309.636 190.2 309.348 191.557 309.145C194.272 308.697 197.008 308.376 199.754 308.227C205.237 307.875 210.784 308.131 216.138 309.22C213.402 309.241 210.698 309.241 207.994 309.433C207.321 309.455 206.648 309.529 205.975 309.572C205.301 309.625 204.628 309.668 203.965 309.753C203.292 309.828 202.629 309.892 201.956 309.956L199.936 310.223C199.274 310.298 198.6 310.404 197.938 310.511C197.275 310.618 196.602 310.703 195.95 310.821C194.625 311.056 193.299 311.269 191.985 311.547C189.345 312.059 186.716 312.646 184.108 313.308C178.882 314.61 173.731 316.2 168.611 317.929C163.503 319.691 158.437 321.601 153.403 323.693Z" fill="#242424"/>
    <path d="M358.163 279.526C352.755 280.23 347.411 281.116 342.099 282.141C336.799 283.197 331.54 284.404 326.368 285.898C323.781 286.624 321.216 287.435 318.673 288.31C317.39 288.726 316.14 289.217 314.879 289.666C314.248 289.9 313.628 290.157 312.998 290.402C312.367 290.637 311.737 290.882 311.128 291.149L309.268 291.928C308.659 292.206 308.05 292.494 307.43 292.75C306.81 293.007 306.201 293.316 305.591 293.604C304.982 293.903 304.362 294.17 303.775 294.49C301.338 295.675 298.997 297.02 296.625 298.375C300.718 294.757 305.378 291.758 310.305 289.324C312.763 288.086 315.285 286.987 317.861 286.015C319.143 285.514 320.447 285.087 321.74 284.628C323.055 284.211 324.358 283.795 325.684 283.422C330.963 281.917 336.36 280.839 341.8 280.166C347.208 279.515 352.701 279.173 358.163 279.526Z" fill="#242424"/>
    <path d="M361.583 301.311C356.175 300.606 350.778 300.094 345.391 299.731C339.994 299.4 334.608 299.219 329.232 299.325C326.539 299.368 323.856 299.485 321.174 299.688C319.827 299.763 318.491 299.912 317.155 300.03C316.482 300.094 315.819 300.19 315.146 300.254C314.473 300.318 313.81 300.403 313.147 300.499L311.149 300.777C310.486 300.884 309.824 301.001 309.15 301.108C308.477 301.204 307.825 301.343 307.162 301.46C306.5 301.588 305.837 301.695 305.175 301.855C302.524 302.378 299.906 303.082 297.266 303.776C302.15 301.321 307.43 299.624 312.816 298.535C315.509 297.97 318.235 297.553 320.96 297.276C322.328 297.116 323.696 297.041 325.064 296.934C326.432 296.87 327.81 296.796 329.178 296.785C334.672 296.678 340.165 297.02 345.594 297.767C351.013 298.493 356.399 299.571 361.583 301.311Z" fill="#242424"/>
    <path d="M358.75 325.102C353.717 323.01 348.64 321.099 343.542 319.328C338.423 317.599 333.272 316.008 328.046 314.706C325.438 314.034 322.809 313.457 320.18 312.945C318.865 312.667 317.54 312.465 316.215 312.219C315.552 312.102 314.89 312.016 314.227 311.909C313.564 311.803 312.902 311.696 312.228 311.621L310.23 311.365C309.557 311.301 308.894 311.237 308.221 311.162C307.547 311.077 306.874 311.034 306.211 310.981C305.538 310.938 304.865 310.863 304.191 310.842C301.488 310.65 298.784 310.65 296.048 310.629C301.402 309.54 306.949 309.284 312.431 309.636C315.178 309.785 317.914 310.106 320.629 310.554C321.986 310.757 323.333 311.045 324.679 311.301C326.026 311.6 327.362 311.888 328.698 312.23C334.02 313.564 339.235 315.336 344.28 317.47C349.281 319.616 354.198 322.06 358.75 325.102Z" fill="#242424"/>
    <path d="M226.527 271.766C224.379 271.499 222.412 272.31 220.862 273.89C218.875 275.907 217.603 279.163 217.56 282.995C217.517 287.937 219.559 292.462 222.551 294.81C223.684 295.707 224.956 296.283 226.292 296.443C231.186 297.052 235.194 292.025 235.258 285.215C235.333 278.394 231.421 272.374 226.527 271.766Z" fill="white"/>
    <path d="M227.114 296.87C226.826 296.87 226.548 296.849 226.259 296.817C224.87 296.646 223.556 296.07 222.327 295.099C219.163 292.622 217.143 287.862 217.186 282.984C217.218 279.195 218.458 275.779 220.595 273.623C222.273 271.915 224.4 271.115 226.58 271.392C231.646 272.033 235.718 278.234 235.654 285.225C235.622 289.281 234.157 292.964 231.763 295.056C230.374 296.251 228.782 296.87 227.114 296.87ZM225.714 272.086C224.037 272.086 222.455 272.791 221.13 274.146C219.131 276.174 217.966 279.398 217.934 282.995C217.891 287.648 219.794 292.174 222.786 294.511C223.898 295.387 225.095 295.92 226.345 296.07C228.108 296.294 229.808 295.739 231.25 294.479C233.495 292.516 234.852 289.057 234.884 285.204C234.948 278.586 231.176 272.716 226.473 272.129C226.227 272.108 225.971 272.086 225.714 272.086Z" fill="#242424"/>
    <path d="M226.527 271.766C224.378 271.499 222.412 272.31 220.862 273.89C220.649 274.306 220.456 274.733 220.285 275.192C219.911 276.217 219.74 277.69 220.467 278.437C221.097 279.077 221.931 278.715 222.69 278.811C223.94 278.96 225.062 280.646 225.009 282.312C224.966 283.966 223.759 285.279 222.508 285.033C221.642 284.863 220.691 284.073 219.975 284.638C219.441 285.055 219.334 286.026 219.377 286.869C219.505 289.772 220.723 292.59 222.401 294.618C222.455 294.682 222.508 294.746 222.562 294.81C223.694 295.707 224.966 296.283 226.302 296.443C231.197 297.052 235.205 292.025 235.269 285.215C235.333 278.394 231.421 272.374 226.527 271.766Z" fill="#16B768"/>
    <path d="M229.491 295.996C233.455 295.661 236.259 290.561 235.754 284.605C235.248 278.649 231.625 274.093 227.662 274.428C223.698 274.764 220.894 279.864 221.399 285.82C221.904 291.776 225.527 296.332 229.491 295.996Z" fill="#242424"/>
    <path d="M222.786 278.458C222.027 278.362 221.183 278.725 220.563 278.085C219.836 277.338 220.007 275.865 220.381 274.84C220.552 274.381 220.745 273.943 220.959 273.538C218.971 275.555 217.699 278.811 217.656 282.642C217.613 287.584 219.655 292.11 222.647 294.458C222.594 294.394 222.54 294.33 222.487 294.266C220.82 292.238 219.591 289.42 219.462 286.517C219.43 285.663 219.537 284.702 220.061 284.286C220.777 283.72 221.728 284.51 222.594 284.681C223.844 284.927 225.052 283.614 225.095 281.959C225.159 280.294 224.036 278.608 222.786 278.458Z" fill="white"/>
    <path d="M225.736 271.713C226.003 271.713 226.27 271.734 226.537 271.766C231.432 272.374 235.344 278.405 235.28 285.215C235.226 291.651 231.635 296.497 227.114 296.497C226.847 296.497 226.58 296.475 226.313 296.443C224.966 296.273 223.705 295.696 222.572 294.81C219.58 292.462 217.528 287.937 217.581 282.995C217.613 279.163 218.896 275.907 220.884 273.89C222.22 272.513 223.898 271.713 225.736 271.713ZM225.736 269.3C223.278 269.3 221.001 270.304 219.142 272.204C216.652 274.733 215.198 278.661 215.155 282.973C215.102 288.545 217.378 293.807 221.076 296.71C222.594 297.906 224.25 298.621 226.014 298.845C226.377 298.888 226.751 298.92 227.114 298.92C233.078 298.92 237.62 293.039 237.695 285.247C237.77 277.124 233.003 270.154 226.837 269.375C226.463 269.322 226.099 269.3 225.736 269.3Z" fill="#242424"/>
    <path d="M288.909 271.766C291.057 271.499 293.023 272.31 294.573 273.89C296.561 275.907 297.833 279.163 297.875 282.995C297.918 287.936 295.877 292.462 292.884 294.81C291.752 295.707 290.48 296.283 289.144 296.443C284.249 297.052 280.241 292.024 280.177 285.215C280.102 278.394 284.025 272.374 288.909 271.766Z" fill="white"/>
    <path d="M288.321 296.87C286.654 296.87 285.061 296.251 283.683 295.045C281.278 292.942 279.824 289.271 279.792 285.215C279.728 278.224 283.8 272.022 288.866 271.382C291.046 271.115 293.173 271.905 294.851 273.623C296.978 275.79 298.228 279.195 298.26 282.984C298.303 287.862 296.283 292.622 293.12 295.099C291.901 296.059 290.576 296.636 289.187 296.817C288.898 296.86 288.61 296.87 288.321 296.87ZM288.962 272.14C284.26 272.727 280.487 278.597 280.551 285.215C280.583 289.057 281.941 292.526 284.185 294.49C285.628 295.75 287.327 296.305 289.09 296.081C290.341 295.92 291.538 295.397 292.649 294.522C295.642 292.185 297.544 287.659 297.501 283.005C297.469 279.408 296.304 276.185 294.306 274.157C292.778 272.588 290.929 271.894 288.962 272.14Z" fill="#242424"/>
    <path d="M288.909 271.766C291.057 271.499 293.023 272.31 294.573 273.89C294.787 274.306 294.979 274.733 295.15 275.192C295.524 276.217 295.695 277.69 294.969 278.437C294.338 279.077 293.504 278.715 292.746 278.811C291.495 278.96 290.373 280.646 290.426 282.312C290.469 283.966 291.677 285.279 292.927 285.033C293.793 284.863 294.744 284.073 295.46 284.638C295.995 285.055 296.101 286.026 296.059 286.869C295.93 289.772 294.712 292.59 293.034 294.618C292.981 294.682 292.927 294.746 292.874 294.81C291.741 295.707 290.469 296.283 289.133 296.443C284.238 297.052 280.231 292.025 280.167 285.215C280.102 278.394 284.025 272.374 288.909 271.766Z" fill="#16B768"/>
    <path d="M294.041 285.821C294.546 279.865 291.743 274.765 287.779 274.429C283.815 274.094 280.192 278.65 279.686 284.606C279.181 290.562 281.985 295.662 285.949 295.997C289.913 296.333 293.536 291.777 294.041 285.821Z" fill="#242424"/>
    <path d="M292.66 278.458C293.419 278.362 294.263 278.725 294.883 278.085C295.61 277.338 295.439 275.865 295.065 274.84C294.894 274.381 294.701 273.943 294.488 273.538C296.475 275.555 297.747 278.811 297.79 282.642C297.833 287.584 295.791 292.11 292.799 294.458C292.852 294.394 292.906 294.33 292.959 294.266C294.627 292.238 295.856 289.42 295.984 286.517C296.016 285.663 295.909 284.702 295.385 284.286C294.669 283.72 293.718 284.51 292.852 284.681C291.602 284.927 290.394 283.614 290.352 281.959C290.287 280.294 291.41 278.608 292.66 278.458Z" fill="white"/>
    <path d="M289.71 271.713C291.549 271.713 293.226 272.513 294.573 273.89C296.561 275.907 297.833 279.163 297.875 282.995C297.918 287.937 295.877 292.462 292.884 294.81C291.752 295.707 290.48 296.283 289.144 296.443C288.877 296.475 288.61 296.497 288.342 296.497C283.822 296.497 280.241 291.651 280.177 285.215C280.113 278.394 284.025 272.374 288.919 271.766C289.176 271.734 289.443 271.713 289.71 271.713ZM289.71 269.3C289.347 269.3 288.973 269.322 288.61 269.364C282.443 270.133 277.676 277.103 277.751 285.236C277.826 293.028 282.368 298.909 288.332 298.909C288.695 298.909 289.069 298.888 289.432 298.834C291.196 298.61 292.852 297.895 294.37 296.7C298.068 293.807 300.334 288.545 300.28 282.973C300.237 278.661 298.784 274.733 296.283 272.204C294.445 270.304 292.168 269.3 289.71 269.3Z" fill="#242424"/>
    <path d="M274.726 294.088C277.249 295.572 278.574 298.443 278.563 301.368C278.553 306.022 274.737 309.875 269.746 310.643C269.137 310.729 268.517 310.782 267.876 310.782C266.283 310.782 264.777 310.462 263.419 309.907C260.683 308.775 258.578 306.651 257.701 304.068C256.814 306.651 254.688 308.765 251.952 309.885C250.594 310.43 249.077 310.739 247.484 310.739C246.854 310.739 246.223 310.686 245.614 310.59C240.623 309.789 236.829 305.926 236.84 301.272C236.85 298.945 237.802 296.81 239.394 295.167C239.394 295.156 255.179 282.646 274.726 294.088Z" fill="white"/>
    <g opacity="0.2">
        <path d="M278.595 301.368C278.585 306.022 274.78 309.875 269.778 310.643C269.169 310.739 268.549 310.782 267.908 310.782C266.315 310.782 264.809 310.462 263.451 309.907C260.715 308.775 258.61 306.651 257.734 304.068C256.846 306.651 254.72 308.765 251.984 309.885C250.616 310.43 249.109 310.739 247.516 310.739C246.886 310.739 246.255 310.686 245.646 310.59C240.655 309.8 236.872 305.926 236.872 301.272C236.872 299.649 237.342 298.134 238.144 296.81C238.144 296.81 242.012 310.643 257.744 300.044C257.744 300.044 273.038 310.408 277.323 297.13C277.355 297.034 277.377 296.949 277.42 296.864C278.21 298.187 278.606 299.767 278.595 301.368Z" fill="#242424"/>
    </g>
    <path d="M269.746 310.643C269.094 315.66 267.715 320.068 265.824 323.366C263.633 327.209 260.758 329.525 257.637 329.525C254.506 329.514 251.652 327.177 249.483 323.324C247.613 320.025 246.245 315.607 245.625 310.579C246.234 310.675 246.854 310.729 247.495 310.729C252.304 310.739 256.376 307.932 257.712 304.058C259.027 307.932 263.088 310.761 267.897 310.782C268.517 310.782 269.137 310.739 269.746 310.643Z" fill="#242424"/>
    <path d="M265.824 323.366C263.633 327.209 260.758 329.525 257.637 329.525C254.506 329.514 251.652 327.177 249.483 323.324C251.684 321.776 254.549 320.847 257.659 320.847C260.769 320.858 263.622 321.808 265.824 323.366Z" fill="#E34675"/>
    <path d="M263.419 309.907C262.65 313.909 260.363 316.802 257.659 316.791C254.966 316.781 252.689 313.877 251.941 309.875C254.688 308.765 256.804 306.641 257.691 304.058C258.578 306.651 260.683 308.775 263.419 309.907Z" fill="white"/>
    <path d="M274.887 293.864C276.351 294.558 277.676 295.711 278.595 297.184C279.525 298.657 280.027 300.471 279.963 302.286C279.888 304.111 279.29 305.947 278.232 307.441C277.719 308.21 277.099 308.882 276.426 309.501C275.742 310.099 274.983 310.611 274.192 311.06C272.6 311.913 270.815 312.394 269.03 312.533C267.245 312.65 265.439 312.426 263.74 311.849C262.041 311.273 260.459 310.355 259.112 309.138C257.787 307.911 256.697 306.363 256.088 304.591L259.283 304.602C258.717 306.288 257.712 307.793 256.462 309C255.211 310.206 253.715 311.124 252.101 311.732C250.498 312.33 248.777 312.607 247.068 312.565C246.213 312.533 245.368 312.426 244.524 312.234C244.096 312.159 243.69 312.01 243.284 311.892C242.878 311.743 242.472 311.593 242.087 311.422C240.516 310.707 239.073 309.693 237.941 308.359C236.797 307.046 235.942 305.445 235.632 303.716C235.29 301.998 235.472 300.204 236.134 298.657C236.776 297.098 237.887 295.807 239.191 294.964C239.319 294.878 239.501 294.91 239.586 295.049C239.65 295.145 239.65 295.263 239.597 295.348C238.09 297.91 237.759 300.663 238.592 302.969C238.977 304.122 239.64 305.168 240.495 306.043C240.698 306.267 240.944 306.459 241.168 306.662C241.425 306.843 241.649 307.046 241.916 307.206L242.301 307.463L242.707 307.687C242.974 307.847 243.263 307.954 243.541 308.092C245.838 309.042 248.521 309.149 250.894 308.338C253.255 307.548 255.297 305.755 256.088 303.503V303.492C256.398 302.617 257.359 302.147 258.246 302.457C258.749 302.638 259.123 303.033 259.283 303.503C259.689 304.687 260.405 305.787 261.378 306.651C262.34 307.527 263.526 308.167 264.787 308.551C267.331 309.33 270.174 309.01 272.482 307.836C273.636 307.238 274.684 306.438 275.475 305.435C276.287 304.442 276.81 303.268 277.067 301.998C277.302 300.727 277.238 299.361 276.789 298.038C276.351 296.714 275.581 295.444 274.545 294.291C274.438 294.174 274.449 293.992 274.566 293.886C274.662 293.832 274.791 293.822 274.887 293.864Z" fill="#242424"/>
    <path d="M248.799 294.761C247.826 296.96 251.888 304.538 257.584 304.549C263.28 304.559 267.277 296.789 266.273 294.804C265.012 292.338 250.017 292.018 248.799 294.761Z" fill="#242424"/>
    <path d="M257.648 331.201C257.637 331.201 257.637 331.201 257.627 331.201C253.993 331.19 250.573 328.692 248.008 324.145C245.999 320.591 244.588 315.969 243.947 310.782C243.883 310.259 244.064 309.736 244.438 309.373C244.812 309.01 245.347 308.839 245.86 308.925C246.405 309.01 246.939 309.053 247.474 309.053C247.484 309.053 247.495 309.053 247.506 309.053C251.449 309.053 254.987 306.779 256.109 303.513C256.344 302.841 256.975 302.382 257.691 302.382C258.407 302.382 259.048 302.841 259.272 303.513C260.384 306.79 263.921 309.085 267.876 309.096C268.399 309.106 268.944 309.053 269.49 308.978C270.013 308.903 270.537 309.074 270.911 309.437C271.285 309.8 271.467 310.323 271.403 310.846C270.729 316.033 269.297 320.644 267.267 324.188C264.702 328.714 261.282 331.201 257.648 331.201ZM247.58 312.404C248.254 316.322 249.397 319.78 250.936 322.502C252.881 325.949 255.265 327.849 257.637 327.849H257.648C260.021 327.849 262.404 325.96 264.37 322.534C265.931 319.823 267.096 316.375 267.78 312.458C263.633 312.415 259.914 310.558 257.691 307.591C255.457 310.547 251.727 312.383 247.58 312.404Z" fill="#242424"/>
    <path d="M261.207 295.124C261.207 295.433 259.572 295.679 257.541 295.679C255.521 295.679 253.875 295.433 253.875 295.124C253.875 294.814 255.511 294.569 257.541 294.569C259.561 294.558 261.207 294.814 261.207 295.124Z" fill="white"/>
    <path opacity="0.7" d="M474.471 241.14C474.471 250.039 468.369 258.62 457.083 266.51C445.81 274.391 429.466 281.508 409.225 287.493C368.75 299.462 312.803 306.872 250.986 306.872C189.168 306.872 133.221 299.462 92.7456 287.493C72.5045 281.508 56.1607 274.391 44.8884 266.51C33.6018 258.62 27.5 250.039 27.5 241.14C27.5 232.24 33.6018 223.659 44.8884 215.769C56.1607 207.888 72.5045 200.771 92.7456 194.786C133.221 182.817 189.168 175.407 250.986 175.407C312.803 175.407 368.75 182.817 409.225 194.786C429.466 200.771 445.81 207.888 457.083 215.769C468.369 223.659 474.471 232.24 474.471 241.14Z" stroke="#2BD071"/>
    <path opacity="0.7" d="M183.986 336.92C114.097 344.825 64.4666 364.843 64.4666 388.288C64.4666 418.652 147.709 443.266 250.393 443.266C353.077 443.266 436.32 418.652 436.32 388.288C436.32 366.172 392.157 347.106 328.486 338.38" stroke="#2BD071"/>
    <path opacity="0.7" d="M189.986 469.206C188.465 469.461 186.965 469.726 185.486 470M321.986 471.017C354.085 477.641 375.085 488.643 375.085 501.095C375.085 521.337 319.59 537.747 251.134 537.747C182.677 537.747 127.183 521.337 127.183 501.095C127.183 491.356 140.029 482.503 160.986 475.939" stroke="#2BD071"/>
    <defs>
        <filter id="filter0_f_0_1" x="87.6664" y="524.841" width="337.896" height="130.2" filterUnits="userSpaceOnUse" color-interpolation-filters="sRGB">
            <feFlood flood-opacity="0" result="BackgroundImageFix"/>
            <feBlend mode="normal" in="SourceGraphic" in2="BackgroundImageFix" result="shape"/>
            <feGaussianBlur stdDeviation="18.5" result="effect1_foregroundBlur_0_1"/>
        </filter>
        <filter id="filter1_f_0_1" x="108.536" y="174.301" width="296.157" height="494.893" filterUnits="userSpaceOnUse" color-interpolation-filters="sRGB">
            <feFlood flood-opacity="0" result="BackgroundImageFix"/>
            <feBlend mode="normal" in="SourceGraphic" in2="BackgroundImageFix" result="shape"/>
            <feGaussianBlur stdDeviation="32.5" result="effect1_foregroundBlur_0_1"/>
        </filter>
        <filter id="filter2_f_0_1" x="0.319275" y="0" width="500.406" height="637.429" filterUnits="userSpaceOnUse" color-interpolation-filters="sRGB">
            <feFlood flood-opacity="0" result="BackgroundImageFix"/>
            <feBlend mode="normal" in="SourceGraphic" in2="BackgroundImageFix" result="shape"/>
            <feGaussianBlur stdDeviation="32.5" result="effect1_foregroundBlur_0_1"/>
        </filter>
        <linearGradient id="paint0_linear_0_1" x1="234.842" y1="65" x2="234.842" y2="572.429" gradientUnits="userSpaceOnUse">
            <stop stop-color="#2BD071" stop-opacity="0"/>
            <stop offset="0.350975" stop-color="#2BD071"/>
            <stop offset="1" stop-color="#2BD071"/>
        </linearGradient>
    </defs>
</svg>
