<svg width="26" height="21" viewBox="0 0 26 21" fill="none" xmlns="http://www.w3.org/2000/svg">
<path fill-rule="evenodd" clip-rule="evenodd" d="M0 2.11109C0 1.29891 0.6467 0.640503 1.44444 0.640503H24.5556C25.3533 0.640503 26 1.29891 26 2.11109C26 2.92327 25.3533 3.58168 24.5556 3.58168H1.44444C0.6467 3.58168 0 2.92327 0 2.11109ZM0 10.6405C0 9.82832 0.6467 9.16992 1.44444 9.16992H24.5556C25.3533 9.16992 26 9.82832 26 10.6405C26 11.4527 25.3533 12.1111 24.5556 12.1111H1.44444C0.6467 12.1111 0 11.4527 0 10.6405ZM0 19.1699C0 18.3577 0.6467 17.6993 1.44444 17.6993H24.5556C25.3533 17.6993 26 18.3577 26 19.1699C26 19.9821 25.3533 20.6405 24.5556 20.6405H1.44444C0.6467 20.6405 0 19.9821 0 19.1699Z" fill="black"/>
</svg>
