<?xml version="1.0" standalone="no"?>
<!DOCTYPE svg PUBLIC "-//W3C//DTD SVG 20010904//EN"
 "http://www.w3.org/TR/2001/REC-SVG-20010904/DTD/svg10.dtd">
<svg version="1.0" xmlns="http://www.w3.org/2000/svg"
 width="700.000000pt" height="700.000000pt" viewBox="0 0 700.000000 700.000000"
 preserveAspectRatio="xMidYMid meet">
<metadata>
Created by potrace 1.14, written by Peter Selinger 2001-2017
</metadata>
<g transform="translate(0.000000,700.000000) scale(0.100000,-0.100000)"
fill="#000000" stroke="none">
<path d="M880 6128 c0 -2 845 -1184 1878 -2628 l1878 -2625 534 0 535 0 3
2628 2 2627 -330 0 -330 0 -2 -1105 -3 -1105 -789 1105 -790 1105 -398 0
c-219 0 -398 -3 -398 -7 0 -5 536 -757 1190 -1672 l1190 -1664 0 -634 0 -634
-37 3 -37 3 -1588 2220 c-873 1221 -1615 2257 -1648 2303 l-60 82 -400 0
c-220 0 -400 -1 -400 -2z"/>
</g>
</svg>
