<svg width="1080" height="1080" viewBox="0 0 1080 1080" fill="none" xmlns="http://www.w3.org/2000/svg">
<path d="M239.893 811.092C239.53 786.268 240.804 761.218 241.666 736.403C241.939 728.553 241.518 712.26 243.372 705.212C246.338 693.942 258.1 674.932 265.74 665.981C294.615 664.425 323.511 663.669 352.428 663.711C362.376 663.668 372.371 663.298 382.315 663.603C391.981 673.227 397.431 687.202 403.407 699.245C405.797 704.064 408.135 709.255 411.919 713.142C411.659 718.172 411.735 723.206 411.515 728.233C411.14 736.842 410.62 745.362 410.458 753.992C416.384 754.019 422.633 754.226 428.469 755.279C431.067 755.748 433.52 756.954 436.159 757.17C439.925 757.477 443.819 756.383 447.604 756.329C453.391 756.248 458.973 757.496 464.71 757.762C467.455 757.889 470.142 756.985 472.883 757.049C477.709 757.163 482.305 758.923 487.075 759.103C490.473 759.233 493.863 757.826 497.326 757.906C500.01 757.97 502.662 758.879 505.328 758.949C507.495 759.007 509.638 758.055 511.815 758.107C520.276 758.306 528.822 759.712 537.295 759.841C543.221 759.931 549.324 759.963 555.244 759.794C559.327 759.677 563.444 759.253 567.528 759.424C571.133 759.577 574.732 760.34 578.322 760.709C580.271 760.908 582.364 760.022 584.315 759.831C589.373 759.336 596.743 759.675 601.609 761.379C608.271 759.281 615.856 760.21 622.591 761.714C624.365 761.084 625.842 760.722 627.741 760.658C631.562 760.531 635.355 761.279 639.164 761.437C642.281 761.567 645.406 760.987 648.526 760.999C651.556 761.011 654.562 761.647 657.593 761.711C660.291 761.767 662.988 761.434 665.69 761.502C668.686 761.576 671.673 761.991 674.668 762.122C679.965 762.352 685.307 762.22 690.625 762.413C695.962 762.606 701.282 762.614 706.581 763.357C707.681 762.391 708.782 761.423 710.115 760.783C714.662 758.601 719.089 760.394 723.5 761.878C727.214 760.226 729.417 760.379 733.367 761.157C733.898 760.553 734.456 759.976 735.041 759.423C744.692 750.319 759.124 737.94 773.106 738.533C780.442 738.845 786.166 741.901 791.08 747.203C795.022 752.447 797.906 758.275 798.299 764.923C798.895 775.012 795.064 788.255 788.251 795.854C779.97 805.091 762.302 812.052 749.983 812.589C738.766 813.079 730.406 806.34 722.604 799.103C721.509 799.562 720.538 799.974 719.342 800.035C716.431 800.185 713.208 800.768 710.338 800.212C708.471 799.851 707.733 798.673 706.703 797.203C699.339 798.14 697.963 796.602 691.556 796.378C688.21 796.262 684.642 796.274 681.314 796.62C678.866 796.874 676.414 797.371 673.951 797.408C668.484 797.491 662.947 796.208 657.432 796.326C653.61 796.408 650.184 798.518 646.441 798.591C643.102 798.654 640.097 796.737 636.786 796.531C632.911 796.29 629.48 798.516 625.691 798.704C622.123 798.883 618.884 796.769 615.316 796.893C612.209 797.001 609.433 798.952 606.312 798.99C602.163 799.039 598.449 796.466 594.305 796.41C590.306 796.355 586.763 798.698 582.802 798.683C578.441 798.665 574.423 796.319 570.08 795.982C565.816 795.652 562.153 798.142 557.992 798.119C554.447 798.1 551.247 796.083 547.719 795.931C544.22 795.779 541.025 797.715 537.637 797.411C534.934 797.168 532.471 795.423 529.743 795.316C525.339 795.141 521.238 797.598 516.824 797.338C512.901 797.108 508.702 795.159 504.948 794.024C496.233 796.487 491.76 797.272 483.348 793.521C480.392 794.761 477.632 795.683 474.399 795.817C469.361 796.025 464.701 794.084 459.732 793.741C456.242 793.499 452.603 794.067 449.105 794.225C444.128 794.45 439.584 793.805 434.74 792.795C422.389 797.656 424.675 800.566 409.765 797.603C409.526 801.989 409.612 806.445 409.53 810.842C409.281 824.313 409.305 837.869 408.668 851.322C399.261 858.169 395.707 870.762 386.894 878.282C385.016 879.886 383.053 881.173 380.539 881.463C374.74 882.132 368.383 881.46 362.541 881.279L333.869 880.523L290.803 879.584C282.513 879.429 274.096 879.591 265.832 878.949C265.252 878.482 264.694 877.989 264.16 877.471C259.168 872.542 255.835 865.998 251.88 860.255C248.5 855.347 244.012 850.891 241.159 845.685C238.607 841.031 239.846 817.851 239.893 811.092ZM736.824 796.02C741.301 799.524 746.651 802.13 752.465 801.379C760.314 800.366 775.543 792.58 780.508 786.195C784.811 780.662 786.743 771.361 785.722 764.503C785.284 761.575 784.27 759.121 782.533 756.715C779.804 753.626 776.939 751.52 772.667 751.268C762.593 750.673 751.819 758.47 744.805 764.893C743.456 766.144 742.184 767.469 740.991 768.869C744.326 774.681 744.67 780.357 742.941 786.785C742.292 789.199 741.304 792.056 739.457 793.792C738.628 794.57 737.574 795.18 736.824 796.02Z" fill="#0D0B08"/>
<path d="M786.147 755.265C786.794 753.095 787.222 750.984 787.55 748.745L789.419 751.049L789.698 751.677C789.509 752.86 789.399 754.425 788.707 755.419C788.2 756.146 787.958 756.203 787.156 756.264L786.147 755.265Z" fill="#727272"/>
<path d="M743.94 808.743L744.279 804.212C745.357 804.49 746.444 804.598 747.055 805.556C747.428 806.261 747.923 807.039 748.092 807.821C748.237 808.489 748.149 808.568 747.776 809.081C746.504 809.394 745.203 808.989 743.94 808.743Z" fill="#727272"/>
<path d="M771.926 747.6C771.894 746.3 771.78 744.593 772.408 743.408C772.795 742.676 772.998 742.619 773.722 742.363C774.258 742.584 774.679 742.779 775.131 743.143C775.326 744.696 775.637 746.222 775.94 747.754L771.926 747.6Z" fill="#727272"/>
<path d="M736.723 805.887C736.926 804.264 737.44 802.614 737.823 801.022L740.941 802.807C740.785 804.474 740.876 806.194 740.884 807.867L736.723 805.887Z" fill="#727272"/>
<path d="M729.196 800.416C729.791 799.381 731.869 798.128 732.875 797.311C733.862 797.999 734.582 798.629 735.309 799.589C734.614 800.88 734.036 802.252 733.418 803.582L729.196 800.416Z" fill="#727272"/>
<path d="M751.934 750.542C753.645 749.485 755.445 748.478 757.055 747.277C757.779 748.525 758.471 749.81 759.276 751.008C757.532 751.581 755.972 752.324 754.505 753.435C753.545 752.517 752.716 751.615 751.934 750.542Z" fill="#727272"/>
<path d="M774.292 795.755C775.313 794.502 776.839 793.716 778.197 792.879C779.245 794.117 780.361 795.296 781.461 796.488C781.096 797.579 779.555 798.309 778.608 798.905C777.146 797.897 775.725 796.805 774.292 795.755Z" fill="#727272"/>
<path d="M753.988 805.339L754.254 804.8C755.895 803.948 757.696 803.649 759.487 803.251C760.069 804.181 760.727 805.077 761.347 805.984L761.455 806.175L761.127 806.705C759.614 807.452 757.965 807.733 756.328 808.097L753.988 805.339Z" fill="#727272"/>
<path d="M739.955 760.366C742.322 758.169 744.678 756.006 747.2 753.985L749.834 756.603C748.839 757.153 748.025 757.915 747.17 758.653C744.739 759.009 742.353 759.821 739.955 760.366Z" fill="#727272"/>
<path d="M764.723 801.421C765.058 800.774 765.298 800.567 765.851 800.099C766.737 799.348 767.363 798.83 768.578 798.999C770.228 799.229 770.909 800.37 771.857 801.582C771.984 801.775 771.949 802.036 771.974 802.266C770.927 803.254 769.494 803.688 768.177 804.223L764.723 801.421Z" fill="#727272"/>
<path d="M788.778 759.944C789.576 758.435 790.831 757.283 791.634 755.688L793.552 760.976C793.817 761.523 793.929 761.794 793.862 762.403C792.85 763.445 790.95 763.93 789.598 764.491L788.778 759.944Z" fill="#727272"/>
<path d="M779.385 744.916L779.542 744.273C781.267 744.016 783.458 745.742 784.916 746.621L784.41 750.556C784.412 750.902 784.296 751.134 784.176 751.455C783.07 751.303 781.851 750.316 781.055 749.516C779.488 747.94 779.371 747.039 779.385 744.916Z" fill="#727272"/>
<path d="M782.382 789.471C783.569 788.009 784.627 786.491 785.684 784.937L789.373 788.095C788.567 789.643 787.514 791.024 786.491 792.432L782.382 789.471Z" fill="#727272"/>
<path d="M787.317 780.371C787.816 778.875 788.316 777.393 788.704 775.862C790.355 775.692 791.989 775.534 793.615 775.194L791.23 782.939C789.981 781.869 788.798 781.085 787.317 780.371Z" fill="#727272"/>
<path d="M789.457 772.385C789.355 770.169 789.309 768.585 790.947 766.878C791.578 766.22 793.694 765.455 794.583 765.389C794.627 767.67 794.471 769.962 794.367 772.241C792.79 772.435 790.992 772.879 789.457 772.385Z" fill="#727272"/>
<path d="M763.839 748.92C763.024 747.664 762.345 746.275 761.619 744.963C764.128 744.054 766.581 743.243 769.177 742.624L769.116 747.5C767.267 747.847 765.586 748.197 763.839 748.92Z" fill="#727272"/>
<path d="M265.503 840.245C267.816 837.719 270.51 835.552 273.108 833.326C275.039 835.981 277.395 838.365 279.407 840.975C277.215 843.649 274.619 846.066 272.18 848.515C270.2 845.573 267.89 842.861 265.503 840.245Z" fill="#2C2E3D"/>
<path d="M271.147 855.706C268.267 851.08 261.62 844.372 258.228 840.134C263.339 835.959 267.994 831.055 272.686 826.414C277.091 830.858 281.146 835.568 285.984 839.566C286.142 841.868 286.014 842.537 285.064 843.452C284.573 843.925 282.935 845.498 282.326 846.083C281.527 846.85 281.109 847.252 280.196 848.129C278.371 849.883 274.099 854.572 273.491 855.156C267.77 857.728 274.159 851.589 272.334 853.343C273.226 851.221 282.064 842.289 283.541 840.447C280.151 836.457 276.702 832.518 273.193 828.632C269.009 832.17 265.235 836.304 261.288 840.115C264.877 843.098 269.727 849.501 272.334 853.343C272.334 853.343 272.334 856.028 271.147 855.706Z" fill="#5E6173"/>
<path d="M358.619 705.603C359.47 702.762 365.206 696.158 367.566 694.288C368.773 693.332 369.681 693.367 371.128 693.538C369.971 694.966 367.922 695.748 366.655 697.206C364.467 699.728 362.745 703.133 360.237 705.313C359.613 705.856 359.409 705.689 358.619 705.603Z" fill="#2C2E3D"/>
<path d="M372.268 694.119C372.386 693.819 372.619 693.583 372.816 693.332C375.499 693.625 382.797 703.09 384.976 705.467L384.856 706.049L384.285 706.201C381.042 704.783 374.792 696.957 372.268 694.119Z" fill="#2C2E3D"/>
<path d="M372.686 723.587C372.668 723.017 372.655 722.473 372.764 721.91C373.332 718.982 382.197 709.063 384.803 707.288C384.253 710.907 375.572 720.603 372.686 723.587Z" fill="#2C2E3D"/>
<path d="M358.833 707.66C358.866 707.628 358.895 707.589 358.937 707.566C359.303 707.35 359.591 707.128 360.017 707.273C362.62 708.164 371.348 719.826 372.536 722.586L372.084 723.153L371.525 723.178C367.015 718.312 363.038 712.8 358.833 707.66Z" fill="#2C2E3D"/>
<path d="M363.561 706.467C364.564 703.299 369.155 699.573 371.492 697.221C374.278 700.544 377.35 703.669 380.306 706.844C377.487 710.14 374.774 713.445 372.332 717.036C369.154 713.765 366.385 710.04 363.561 706.467Z" fill="#2C2E3D"/>
<path d="M262.971 703.967C263.006 703.854 263.033 703.738 263.075 703.627C264.284 700.441 271.757 689.604 274.646 688.335C274.265 690.098 273.037 691.801 272.071 693.299C270.626 695.539 266.172 702.704 264.08 703.724C263.74 703.889 263.341 703.886 262.971 703.967Z" fill="#2C2E3D"/>
<path d="M263.501 706.754C263.631 706.326 263.515 706.567 263.977 706.111C265.768 706.801 272.912 720.786 274.428 723.477L273.967 723.926L273.35 723.896C270 721.302 265.595 710.903 263.501 706.754Z" fill="#5E6173"/>
<path d="M275.516 689.603C275.725 689.353 276.029 689.22 276.308 689.054C278.791 689.614 286.191 700.521 288.166 703.153C287.743 703.559 287.73 703.645 287.135 703.805C283.555 701.673 278.046 693.091 275.516 689.603Z" fill="#2C2E3D"/>
<path d="M267.949 705.279C268.852 701.171 272.764 696.785 275.165 693.426C277.757 696.728 281.756 700.753 283.126 704.708C280.149 708.952 277.263 713.256 274.468 717.622C271.996 713.719 270.03 709.406 267.949 705.279Z" fill="#2C2E3D"/>
<path d="M372.096 858.078C366.851 855.872 361.186 852.296 357.123 848.253C356.426 847.558 355.812 846.86 355.801 845.846L356.394 845.469C358.741 846.755 360.756 848.682 362.921 850.255C365.839 852.374 368.873 854.324 371.897 856.285C373.663 854.877 375.444 853.527 377.293 852.232L377.59 853.724C375.803 855.258 374.021 856.722 372.096 858.078Z" fill="#4E4747"/>
<path d="M383.893 841.159C382 838.931 373.921 831.394 373.777 829.524L374.2 829.248C377.674 830.115 383.152 837.103 385.007 840.212C385.189 840.516 385.367 840.821 385.542 841.128C383.38 845.947 381.409 849.97 377.591 853.724L377.293 852.233C380.531 849.18 382.101 845.136 383.893 841.159Z" fill="#2C2E3D"/>
<path d="M355.831 842.668C355.817 842.374 355.807 842.079 355.801 841.784C355.793 841.093 355.707 839.807 356.08 839.228C357.375 837.219 360.231 835.49 361.991 833.802C364.049 831.831 365.929 829.675 367.956 827.671C369.274 826.373 370.486 824.976 372.449 825.003L372.493 825.688C371.273 828.888 359.065 839.744 355.831 842.668Z" fill="#4E4747"/>
<path d="M359.171 843.741C361.701 840.49 365.788 837.392 369.073 834.921L369.791 835.285C371.176 834.311 370.621 832.314 372.48 831.374C375.932 834.075 379.028 837.976 382.073 841.165C380.427 846.944 377.211 850.831 372.519 854.435C367.848 851.093 363.475 847.544 359.171 843.741Z" fill="#2C2E3D"/>
<path d="M273.042 679.614C273.068 677.486 272.771 673.11 274.302 671.493C274.371 671.562 274.449 671.622 274.508 671.698C275.607 673.151 275.036 676.181 274.907 677.897C274.841 680.22 275.056 682.651 274.848 684.956C274.771 685.806 274.545 686.554 273.888 687.125L273.34 686.837C272.652 684.859 273.045 681.731 273.042 679.614Z" fill="#5E6173"/>
<path d="M373.749 688.392C374.076 682.214 374.283 676.032 374.37 669.847L378.181 669.682C378.223 671.342 378.278 673.001 378.346 674.66C378.319 677.712 378.384 680.762 378.541 683.809C378.697 686.857 378.945 689.897 379.285 692.931C377.371 691.52 375.574 689.915 373.749 688.392Z" fill="#5E6173"/>
<path d="M245.558 840.911C245.732 840.041 245.65 839.253 246.513 838.79C248.834 837.545 253.521 838.317 255.93 839.133C256.012 839.775 256.015 840.146 255.809 840.762C253.482 842.199 248.311 841.144 245.558 840.911Z" fill="#5E6173"/>
<path d="M272.768 808.676C272.677 811.947 273.562 820.739 272.553 823.183C272.291 823.818 272.041 823.818 271.441 824.048L271.24 823.893C269.733 820.886 270.849 811.917 270.994 808.292C271.018 808.43 271.047 808.567 271.066 808.705C271.214 809.727 270.967 810.432 271.525 811.324L272.093 811.295C272.583 810.389 272.528 809.625 272.768 808.676Z" fill="#5E6173"/>
<path d="M270.437 870.608C270.577 867.867 270.121 857.977 271.721 856.383L272.237 856.633C272.759 857.551 272.778 858.118 272.754 859.134C272.595 863.336 273.213 869.797 271.587 873.624L271.132 873.555C270.569 872.625 270.546 871.661 270.437 870.608Z" fill="#5E6173"/>
<path d="M372.115 872.15C372.15 869.161 371.584 865.669 372.163 862.747C372.351 861.802 372.611 860.882 373.45 860.332L374.034 860.482C375.401 861.912 375.484 862.705 375.519 864.651C375.294 867.822 376.254 872.381 374.863 875.264C374.561 875.891 374.315 876.315 373.639 876.544C372.295 875.376 372.271 873.819 372.115 872.15Z" fill="#4E4747"/>
<path d="M289.382 702.1C296.041 701.467 302.992 701.736 309.691 701.669C325.675 701.507 341.785 701.759 357.751 701.04L355.745 703.538C350.644 704.37 345.44 703.711 340.298 703.687L307.123 703.588C303.624 703.607 293.528 704.812 290.801 703.799C289.785 703.422 289.784 703.011 289.382 702.1Z" fill="#8D95AF"/>
<path d="M289.125 706.66C289.311 705.117 289.414 703.661 289.381 702.101C289.783 703.013 289.784 703.423 290.8 703.801C293.527 704.814 303.623 703.609 307.121 703.589L340.297 703.688C345.439 703.712 350.643 704.372 355.744 703.539C354.973 704.319 354.341 705.302 353.689 706.186C344.658 706.652 335.599 706.409 326.558 706.438L289.125 706.66Z" fill="#5E6173"/>
<path d="M270.994 808.293C271.216 789.178 271.576 770.065 272.075 750.955C272.201 746.921 272.266 742.885 272.269 738.848C272.246 735.386 272.027 731.847 272.297 728.395C272.381 727.311 272.445 726.165 273.285 725.375C273.567 725.11 273.534 725.179 273.951 725.075C274.755 725.751 274.886 726.516 274.986 727.546C275.557 733.44 274.818 739.888 274.479 745.804C274.261 749.622 274.221 753.461 274.117 757.282L273.202 791.879C273.06 797.429 273.201 803.149 272.767 808.676C272.527 809.625 272.582 810.389 272.092 811.295L271.524 811.325C270.966 810.432 271.214 809.728 271.066 808.705C271.046 808.568 271.018 808.43 270.994 808.293Z" fill="url(#paint0_linear_647_191097)"/>
<path d="M373.859 753.129L374.191 727.682C375.361 726.593 376.359 725.313 377.392 724.096C377.263 747.326 376.916 770.553 376.351 793.778L375.681 822.694C374.71 821.801 373.639 821.005 372.606 820.187C373.588 812.077 373.044 803.926 373.168 795.782C373.383 781.569 373.827 767.343 373.859 753.129Z" fill="#5E6173"/>
<path d="M288.664 843.785C288.634 843.01 288.556 842.157 288.638 841.388C288.727 840.556 289.181 840.258 289.798 839.787C290.081 839.722 349.157 841.202 350.979 841.68C351.572 842.248 351.554 842.28 351.673 843.098C351.821 844.441 351.923 845.792 352.045 847.138C343.259 846.615 292.198 846.544 289.284 845.088C288.762 844.827 288.808 844.309 288.664 843.785Z" fill="#5E6173"/>
<path d="M463.782 790.604C464.219 789.911 464.649 789.397 465.218 788.818C466.284 788.6 466.465 788.782 467.435 789.202L467.617 790.106L467.22 790.674C466.133 791.05 464.902 790.752 463.782 790.604Z" fill="#A3A3A3"/>
<path d="M414.047 788.529C414.096 787.788 414.129 787.426 414.58 786.826L415.163 786.94C415.88 788.067 415.775 788.499 415.793 789.807C415.636 790.645 415.49 791.128 415.022 791.866L414.589 791.813C414.029 790.745 414.08 789.713 414.047 788.529Z" fill="#A3A3A3"/>
<path d="M428.907 791.474C428.203 790.881 428.032 790.791 427.755 789.929C427.915 788.639 428.68 787.721 429.518 786.762L432.241 790.03L428.907 791.474Z" fill="#A3A3A3"/>
<path d="M427.263 791.485C426.258 788.867 425.718 786.335 426.739 783.628C427.637 784.649 428.523 785.847 429.518 786.76C428.68 787.719 427.915 788.637 427.755 789.927C428.032 790.789 428.203 790.879 428.907 791.472C428.231 791.699 427.947 791.676 427.263 791.485Z" fill="#A3A3A3"/>
<path d="M412.781 769.899C412.739 768.932 412.706 768.063 413.1 767.153C413.452 766.345 413.858 766.036 414.629 765.689C415.501 765.759 415.812 766.05 416.475 766.566C416.442 767.48 416.37 768.33 416.112 769.212C415.828 770.176 415.476 770.65 414.596 771.114C413.606 770.885 413.47 770.617 412.781 769.899Z" fill="#A3A3A3"/>
<path d="M413.593 778.361C413.576 777.186 413.415 775.768 413.934 774.692C414.3 773.933 414.706 773.549 415.466 773.242L416.062 773.584C416.614 774.592 416.658 775.417 416.726 776.55C416.704 777.651 416.825 779.109 416.53 780.165C416.264 781.12 415.915 781.936 415.056 782.425L414.468 782C413.875 780.809 413.756 779.657 413.593 778.361Z" fill="#A3A3A3"/>
<path d="M419.243 763.499C419.287 762.815 419.86 762.09 420.202 761.495C420.938 761.077 420.996 761.054 421.837 761.129C423.932 762.743 423.486 766.482 424.528 768.815C424.579 768.928 424.632 769.039 424.683 769.152C424.904 769.779 424.943 769.908 424.828 770.557C423.962 771.315 422.627 771.337 421.517 771.496C420.359 768.846 419.651 766.363 419.243 763.499Z" fill="#A3A3A3"/>
<path d="M417.436 794.259C417.994 789.23 420.308 778.996 423.508 775.17C424.346 774.167 425.648 774.294 426.86 774.202C426.702 775.725 421.155 792.071 420.232 793.604C419.318 794.245 418.505 794.213 417.436 794.259Z" fill="#A3A3A3"/>
<path d="M734.39 767.94C734.45 767.741 734.64 767.607 734.773 767.447C735.078 767.479 735.118 767.464 735.442 767.607C737.234 768.398 739.084 771.664 739.647 773.502C741.632 779.981 741.705 785.476 738.528 791.572C737.707 791.976 737.113 792.219 736.176 792.283C733.408 790.683 738.054 778.564 737.381 774.288C737.028 772.046 735.574 769.828 734.39 767.94Z" fill="#A3A3A3"/>
<path d="M695.979 770.208C697.794 768.968 702.481 769.666 704.712 769.78C706.031 771.071 707.255 772.515 708.202 774.106C710.819 778.503 710.786 782.819 709.538 787.609C709.452 788.004 709.277 788.295 709.093 788.652C708.456 788.555 708.411 788.44 708.035 787.936C706.681 786.112 705.956 783.641 704.727 781.667C702.179 777.575 699.038 773.921 695.979 770.208Z" fill="#A3A3A3"/>
<path d="M449.202 766.855C449.503 766.551 449.771 766.438 450.219 766.41C450.956 766.363 451.764 766.612 452.376 767.013C456.772 769.897 463.345 776.504 467.592 780.21C471.542 783.658 475.841 786.652 479.962 789.89C477.581 790.45 475.078 790.473 472.646 790.533C464.283 783.091 456.921 774.936 449.202 766.855Z" fill="#A3A3A3"/>
<path d="M726.013 795.745C729.886 787.865 730.533 780.702 728.435 772.2C728.065 770.698 727.215 768.533 727.524 767.008C727.849 766.716 727.959 766.48 728.427 766.466C729.75 766.426 730.689 767.13 731.583 768.007C733.337 770.849 735.253 773.808 735.023 777.292C734.703 782.103 732.627 793.124 728.809 796.369C727.854 796.603 726.9 796.076 726.013 795.745Z" fill="#A3A3A3"/>
<path d="M555.923 768.339C557.206 767.361 560.398 767.743 561.998 767.746C568.308 776.796 575.256 785.505 584.291 791.988L583.993 792.505C583.024 792.918 581.799 792.727 580.778 792.546C572.468 791.077 560.93 775.019 555.923 768.339Z" fill="#A3A3A3"/>
<path d="M525.332 768.516C525.4 768.181 525.591 768.062 525.818 767.813C527.666 767.49 529.576 767.706 531.442 767.8C537.285 776.847 543.345 785.196 552.17 791.623L552.226 792.026C550.954 792.915 547.507 792.125 546.017 791.936C537.842 786.068 530.549 777.047 525.332 768.516Z" fill="#A3A3A3"/>
<path d="M655.355 769.904C655.432 769.831 655.502 769.746 655.59 769.685C656.911 768.775 660.267 769.328 661.842 769.407C669.25 776.928 671.332 784.537 680.848 791.198C680.803 791.263 680.767 791.336 680.712 791.395C679.821 792.342 674.695 791.75 673.262 791.685C665.557 784.604 661.281 778.279 655.355 769.904Z" fill="#A3A3A3"/>
<path d="M487.843 768.473L488.283 767.969C489.988 767.585 491.715 767.633 493.456 767.612C499.337 771.699 503.756 777.483 508.576 782.695C511.149 785.477 513.934 788.008 516.775 790.51L516.758 790.791C515.272 791.849 511.364 791.034 509.492 790.85C506.251 786.881 502.105 783.625 498.467 780.028C494.757 776.36 491.402 772.296 487.843 768.473Z" fill="#A3A3A3"/>
<path d="M587.971 768.599C588.008 768.563 588.04 768.523 588.08 768.491C589.082 767.702 593.506 768.163 594.936 768.17C601.658 776.862 607.726 785.742 616.574 792.46L616.461 792.74C615.602 793.203 614.76 793.068 613.792 793.001C603.416 792.273 594.244 776.041 587.971 768.599Z" fill="#A3A3A3"/>
<path d="M619.123 769.281C620.563 768.061 623.826 768.674 625.624 768.769C633.349 778.034 638.682 785.668 648.621 793.074L648.508 793.345C647.848 793.725 647.896 793.668 647.178 793.629C633.216 792.861 627.305 778.242 619.123 769.281Z" fill="#A3A3A3"/>
<path d="M665.364 769.792L665.753 769.239C667.176 768.764 668.634 768.923 670.114 768.968C675.401 773.058 679.338 778.122 683.941 782.889C686.96 786.014 690.229 788.652 693.791 791.126L693.958 791.502C693.009 792.083 691.404 791.818 690.288 791.687C677.579 790.196 672.473 778.866 665.364 769.792Z" fill="#A3A3A3"/>
<path d="M710.082 796.348C710.68 793.052 712.22 789.967 712.935 786.696C714.277 780.551 713.275 773.573 712.94 767.323C716.478 767.326 719.657 767.615 723.06 768.599C725.987 774.793 726.283 779.803 725.411 786.517C725.154 788.198 724.891 790.103 724.295 791.702C723.697 793.316 722.021 795.753 720.38 796.427C719.717 796.7 719.611 796.661 718.993 796.402C718.766 795.855 718.757 795.598 718.854 794.997C719.053 793.761 719.606 792.54 719.917 791.32C720.561 788.781 720.982 786.069 721.206 783.459C721.323 782.111 721.464 779.748 720.553 778.648L719.998 778.798C718.406 781.051 718.825 783.407 718.312 785.965C717.949 787.78 717.319 789.585 716.632 791.299C715.892 793.145 714.608 796.13 712.543 796.776C711.601 797.071 710.926 796.722 710.082 796.348Z" fill="#A3A3A3"/>
<path d="M675.123 769.745C676.987 768.443 689.565 769.763 692.215 769.914C698.294 776.355 703.33 783.097 706.854 791.277L706.654 791.642C706.13 792.078 705.632 792.098 704.974 792.112C692.509 792.358 683.25 777.483 675.123 769.745Z" fill="#A3A3A3"/>
<path d="M598.686 769.123L598.889 768.899C601.295 767.924 612.623 768.752 615.945 768.829C622.778 776.985 628.299 786.082 636.607 792.918C635.99 793.264 635.494 793.416 634.788 793.396C632.991 793.342 631.291 792.564 629.512 792.439C627.37 792.291 625.184 792.867 623.045 792.575C613.444 791.264 603.978 776.418 598.686 769.123Z" fill="#A3A3A3"/>
<path d="M534.803 768.422L535.034 767.951C539.535 766.839 547.493 767.727 552.357 767.851C557.095 773.522 561.277 779.878 566.326 785.259C568.213 787.27 572.359 789.196 573.16 791.833C571.496 791.97 570.505 791.086 569.106 791.09C568.384 791.093 567.49 791.539 566.804 791.788C564.45 792.643 561.952 792.586 559.532 792.037C548.568 789.546 540.509 777.339 534.803 768.422Z" fill="#A3A3A3"/>
<path d="M565.398 768.273C568.5 766.848 581.09 768.098 584.974 768.474C589.956 774.536 594.179 780.875 599.628 786.598C598.92 787.224 598.4 787.727 597.932 788.569L598.089 789.038C599.103 788.898 599.7 788.112 600.399 787.429C601.576 788.672 602.882 789.801 604.144 790.958L607.126 793.167C602.281 793.133 597.369 793.058 592.573 792.323C580.579 790.485 572.073 777.394 565.398 768.273Z" fill="#A3A3A3"/>
<path d="M629.038 768.889C633.94 767.637 646.347 768.955 651.859 769.251C655.27 773.79 658.074 778.795 661.635 783.223C663.981 786.142 668.129 788.523 669.611 791.983C662.595 791.336 658.744 792.053 652.043 792.254C642.594 787.09 635.194 777.552 629.038 768.889Z" fill="#A3A3A3"/>
<path d="M498.244 768.101C498.324 768.016 498.392 767.917 498.483 767.845C500.236 766.446 519.124 767.488 522.461 767.569C526.677 775.259 531.487 781.656 537.789 787.744C538.764 788.684 540.796 790.322 540.818 791.696L539.598 791.95C537.787 791.741 535.924 791.597 534.133 791.275C533.376 791.138 532.679 791.052 532.215 790.412C532.549 789.757 532.716 789.533 532.687 788.78L531.959 788.587C530.682 789.04 529.757 790.013 528.755 790.896C526.666 791.077 524.575 791.211 522.48 791.298C518.972 788.282 515.248 785.559 511.869 782.384C507.097 777.902 502.751 772.851 498.244 768.101Z" fill="#A3A3A3"/>
<path d="M427.491 767.669C427.591 767.311 427.571 767.194 427.822 766.927C429.669 764.97 441.652 765.938 444.423 766.041C451.174 772.819 457.714 779.795 464.042 786.969L461.97 789.773C455.762 787.988 450.672 781.957 445.129 778.62C446.858 782.359 449.364 784.565 452.469 787.152C453.527 787.766 454.517 788.782 455.461 789.573C449.895 789.582 444.394 789.508 438.845 789.033C441.578 787.093 444.132 785.449 446.095 782.651C442.885 784.138 440.185 785.916 437.562 788.285L434.489 785.777C436.451 783.819 438.308 781.751 439.695 779.338C437.526 781.21 435.487 783.144 433.674 785.367C431.701 783.782 429.812 782.062 427.896 780.408C429.343 778.154 430.989 776.007 432.559 773.837C430.31 771.9 428.763 770.386 427.491 767.669Z" fill="#A3A3A3"/>
<path d="M457.741 767.874C459.376 766.892 480.566 768.008 484.027 768.079C491.198 775.378 497.664 783.229 505.281 790.101C501.325 790.353 497.364 791 493.41 791.356L495.24 787.922C495.27 787.655 495.2 787.217 495.181 786.945L494.851 786.83C493.478 787.816 492.918 789.523 492.375 791.048C489.826 790.381 487.195 789.97 484.604 789.489C486.861 787.033 488.661 784.756 490.182 781.779C487.642 783.851 485.268 786.012 482.91 788.284C473.518 782.141 466 775.374 457.741 767.874Z" fill="#A3A3A3"/>
<path d="M382.301 795.162L382.745 776.754C382.844 771.975 382.215 766.12 383.576 761.563C384.268 760.866 384.392 760.912 385.378 760.765C385.836 766.526 385.216 772.174 384.945 777.923C384.697 783.199 384.734 788.481 384.4 793.757C383.867 794.618 383.207 794.742 382.301 795.162Z" fill="#2C2E3D"/>
<path d="M253.567 853.788C251.999 850.38 249.889 847.365 247.683 844.346C250.958 844.53 254.235 844.679 257.513 844.792C260.065 848.102 262.956 852.637 266.52 854.899C268.561 857.078 267.145 870.57 267.053 874.171C262.228 867.537 258.059 860.631 253.567 853.788Z" fill="#5E6173"/>
<path d="M383.746 682.774C383.636 680.155 383.787 677.485 383.832 674.863C388.127 679.957 390.795 687.296 393.708 693.26C396.422 698.82 399.3 704.294 402.341 709.681C400.121 708.933 397.91 708.159 395.708 707.356C390.52 705.82 387.286 702.564 383.648 698.775L383.772 692.563C387.225 695.134 390.888 697.542 394.576 699.761C391.431 696.181 387.684 693.371 383.791 690.67C383.85 688.036 383.802 685.408 383.746 682.774Z" fill="#2C2E3D"/>
<path d="M249.551 701.089C252.527 694.684 262.024 677.474 266.496 672.703C267.52 671.611 268.904 671.815 270.285 671.803C269.734 677.497 269.615 683.154 269.537 688.87C266.919 692.868 264.112 696.76 261.387 700.688C257.46 700.957 253.487 700.972 249.551 701.089Z" fill="#5E6173"/>
<path d="M381.546 870.974C381.362 866.961 381.513 862.909 381.562 858.89C385.853 854.241 389.671 849.2 393.456 844.14C396.965 843.799 400.556 843.18 404.013 842.482L403.873 847.598C403.879 849.181 403.961 850.733 403.071 852.115C401.738 854.185 399.332 855.666 397.721 857.562C392.192 864.063 387.041 870.997 381.741 877.694L381.546 870.974Z" fill="#2C2E3D"/>
<path d="M381.569 825.181C381.529 817.081 381.953 808.976 382.189 800.88C389.65 800.192 395.984 796.739 403.708 797.008L403.644 809.512C403.642 818.713 403.401 827.925 403.266 837.125C399.794 837.444 396.384 837.936 392.944 838.482C388.935 835.522 385.279 832.132 381.596 828.785L381.569 825.181Z" fill="#2C2E3D"/>
<path d="M383.502 750.939C383.57 745.486 384.114 740.086 384.262 734.645C384.431 728.417 384.286 722.194 384.554 715.963L388.758 710.127C393.92 711.899 398.909 713.981 404.283 715.058C405.168 728.327 404.089 741.291 403.558 754.538C399.675 754.981 395.7 754.968 391.798 754.973C389.212 753.267 386.373 752.068 383.502 750.939Z" fill="#2C2E3D"/>
<path d="M275.648 873.799C276.805 867.983 276.424 861.624 276.511 855.701C278.839 853.011 281.457 850.873 284.267 848.706L319.403 849.497C325.856 849.653 332.411 850.241 338.853 849.793C344.199 850.226 349.656 850.126 355.016 850.104C359.612 853.392 364.194 856.661 368.589 860.217L368.767 876.021C349.434 876.157 330.102 875.156 310.776 874.726C305.748 874.614 277.81 874.667 275.648 873.799Z" fill="#5E6173"/>
<path d="M278.529 687.58C278.401 682.207 278.535 676.841 278.93 671.481C299.636 670.879 320.392 670.241 341.103 669.947C351.458 669.801 361.815 670.001 372.174 669.826L371.983 680.709L371.841 687.842C367.48 690.761 363.801 693.6 360.392 697.612C349.391 697.401 338.369 697.788 327.366 697.911C314.234 698.056 301.178 697.985 288.06 698.769C285.012 694.922 281.98 691.081 278.529 687.58Z" fill="url(#paint1_linear_647_191097)"/>
<path d="M247.27 741.023C247.322 729.992 247.42 718.986 248.039 707.968C252.132 708.087 256.226 708.098 260.321 707.999C263.451 713.127 266.526 718.288 269.543 723.484C268.781 749.965 268.232 776.451 267.897 802.94C267.803 810.539 267.14 818.12 267.686 825.717C264.148 828.781 260.827 832.044 257.509 835.344L245.634 834.927C246.206 823.674 246.063 812.411 246.244 801.149L247.27 741.023Z" fill="#5E6173"/>
<path d="M276.237 818.889C275.861 788.033 278.288 757.21 278.205 726.363C281.361 720.929 284.83 715.677 288.228 710.394C296.822 710.396 305.447 710.034 314.042 709.882C328.216 709.64 342.392 709.515 356.569 709.508C360.782 715.812 366.017 721.015 370.743 726.88L369.174 821.023C363.379 826.34 357.501 831.397 352.21 837.242C330.589 836.983 308.975 836.431 287.37 835.588C283.409 832.138 279.858 828.166 276.183 824.411C276.281 822.58 276.232 820.724 276.237 818.889Z" fill="#5E6173"/>
<defs>
<linearGradient id="paint0_linear_647_191097" x1="284.707" y1="772.599" x2="260.354" y2="764.442" gradientUnits="userSpaceOnUse">
<stop stop-color="#54617D"/>
<stop offset="1" stop-color="#7E849D"/>
</linearGradient>
<linearGradient id="paint1_linear_647_191097" x1="330.423" y1="659.797" x2="318.292" y2="706.236" gradientUnits="userSpaceOnUse">
<stop stop-color="#4F5367"/>
<stop offset="1" stop-color="#67697A"/>
</linearGradient>
</defs>
</svg>
