<svg width="1080" height="1080" viewBox="0 0 1080 1080" fill="none" xmlns="http://www.w3.org/2000/svg">
<g clip-path="url(#clip0_473_321)">
<path d="M737.229 778.702C733.939 779.645 730.807 781.061 727.574 781.385C690.235 785.136 652.856 788.523 615.527 792.402C570.13 797.113 424.778 810.332 379.382 815.074C347.249 818.43 315.073 821.339 282.926 824.474C266.912 826.036 250.913 827.731 234.891 829.248C226.101 830.079 217.29 830.644 208.495 831.352C199.167 832.103 189.841 832.906 180.516 833.61C175.823 833.963 174.114 833.072 172.576 828.602C169.384 819.36 168.754 809.965 171.769 800.486C172.848 797.092 175.182 795.308 178.6 794.847C181.481 794.466 184.37 794.151 187.272 793.897C202.299 792.592 217.336 791.404 232.354 790.012C255.932 787.823 279.485 785.424 303.064 783.246C335.007 780.3 366.965 777.574 398.907 774.587C436.738 771.052 574.564 759.364 612.379 755.696C644.665 752.561 676.943 749.37 709.227 746.183C715.238 745.59 721.233 744.874 727.236 744.214C727.83 744.148 728.553 744.211 728.988 743.9C733.769 740.425 739.289 740.16 744.88 740.001C751.037 739.819 757.213 739.733 763.332 739.141C774.371 738.078 785.384 736.763 796.388 735.341C798.015 735.13 799.928 734.114 800.967 732.857C810.078 721.855 819.023 710.711 828.016 699.612C828.168 699.425 828.409 699.282 828.503 699.072C832.46 690.372 839.616 689.351 848.266 689.626C882.986 690.718 917.22 695.266 950.952 703.334C977.164 709.608 1003.22 716.522 1029.31 723.3C1033.85 724.481 1038.26 726.249 1042.64 727.993C1046.17 729.4 1046.35 731.204 1043.04 733.167C1037.95 736.192 1032.76 739.082 1027.45 741.694C998.411 755.969 969.551 770.658 940.17 784.195C913.783 796.348 885.445 802.634 857.149 808.671C855.109 809.105 852.309 808.336 850.51 807.145C835.601 797.234 820.88 787.032 805.976 777.105C804.119 775.87 801.485 775.135 799.256 775.237C792.02 775.562 784.817 776.57 777.577 776.941C773.906 777.129 770.192 776.516 766.499 776.298C765.694 776.249 764.865 776.227 764.084 776.377C757.265 777.709 750.489 779.337 743.619 780.305C741.47 780.61 739.081 779.201 737.234 778.696L737.229 778.702ZM326.005 811.59C325.193 811.484 324.375 811.235 323.574 811.289C317.454 811.722 311.332 812.242 305.207 812.691C287.971 813.949 270.733 815.176 253.497 816.444C251.579 816.585 249.666 816.87 247.746 817.088C247.774 817.401 247.798 817.719 247.826 818.032C248.963 818.021 250.112 818.071 251.246 817.988C272.576 816.448 293.908 814.949 315.229 813.301C318.835 813.023 322.393 812.089 325.979 811.467C327.482 811.606 328.994 811.97 330.477 811.853C344.302 810.736 358.123 809.516 371.947 808.358C379.208 807.749 386.475 807.187 393.742 806.603C393.755 806.299 393.764 806 393.777 805.696C391.816 805.561 389.846 805.21 387.901 805.337C382.524 805.693 377.155 806.265 371.782 806.724C360.015 807.73 348.239 808.649 336.487 809.757C332.961 810.088 329.493 810.957 325.994 811.58L326.005 811.59ZM195.324 802.111L195.337 802.311C196.277 801.15 197.217 799.99 198.803 798.031C194.652 798.3 191.774 798.753 188.923 798.619C181.989 798.283 179.159 802.763 177.558 810.352C179.845 809.779 182.018 809.19 184.21 808.698C188.57 807.719 191.972 808.94 194.415 812.362C194.464 812.427 194.643 812.393 195.221 812.452C195.606 810.059 196.144 807.639 196.326 805.187C196.398 804.196 195.686 803.145 195.329 802.116L195.324 802.111ZM634.771 781.588C641.33 781.43 647.889 781.262 654.448 781.104C654.418 780.396 654.379 779.687 654.349 778.978C649.347 779.571 644.345 780.164 639.378 780.75C639.014 778.804 638.757 777.431 638.36 775.307C646.728 774.215 654.848 773.113 662.984 772.154C663.706 772.067 665.018 772.682 665.243 773.275C666.481 776.578 668.789 775.917 671.215 775.225C670.928 774.002 670.652 772.809 670.371 771.622C670.616 771.313 670.86 771.005 671.11 770.701C672.538 771.373 674.48 771.689 675.273 772.814C676.502 774.548 677.778 775.803 679.603 774.636C680.27 774.213 679.836 772.044 679.908 770.569C685.437 769.749 686.531 770.47 686.091 775.253C687.521 774.988 688.905 774.73 689.226 774.671C689.653 772.178 689.346 769.485 690.393 768.778C692.554 767.299 694.15 768.946 695.435 771.147C696.083 772.257 698.012 772.62 699.363 773.32C699.076 770.23 697.959 767.976 701.918 767.648C709.393 767.02 716.846 766.192 724.978 765.377C724.543 761.202 724.113 757.042 723.661 752.702C723.491 752.694 723.026 752.641 722.569 752.675C706.395 753.843 690.183 754.631 674.053 756.255C627.579 760.944 481.152 774.151 434.666 778.799C406.478 781.616 378.218 783.685 350.01 786.266C323.735 788.669 297.478 791.277 271.22 793.844C260.751 794.868 250.288 795.928 239.842 797.153C234.471 797.781 231.222 800.977 229.985 806.281C229.631 807.793 229.077 809.082 231.221 809.672C233.397 810.272 233.595 808.833 233.956 807.357C235.215 802.211 236.398 800.958 241.648 800.386C255.232 798.909 268.838 797.58 282.44 796.277C283.731 796.152 285.077 796.59 286.396 796.767C286.395 797.122 286.399 797.472 286.399 797.827C285.296 798.037 284.202 798.334 283.09 798.447C269.369 799.838 255.651 801.192 241.935 802.597C240.638 802.728 238.838 802.741 238.208 803.544C236.956 805.139 236.354 807.253 235.485 809.141C236.857 809.455 238.247 810.102 239.597 810.031C245.867 809.715 252.122 809.179 258.387 808.771C277.358 807.529 296.35 806.543 315.298 805.014C331.863 803.681 348.369 801.692 364.913 800.123C375.015 799.165 385.132 798.341 395.259 797.732C398.672 797.524 402.459 796.652 405.18 799.997C407.18 795.721 407.441 795.448 411.761 794.534C413.766 794.106 415.818 793.851 417.863 793.649C433.599 792.077 549.324 782.347 565.087 781.057C578.815 779.929 592.579 779.19 606.339 778.606C608.044 778.536 609.837 780.463 611.587 781.481C613.158 782.394 614.697 784.018 616.311 784.101C620.699 784.316 625.138 784.034 629.525 783.616C631.119 783.463 632.616 782.341 634.152 781.66C634.356 781.621 634.566 781.597 634.771 781.588ZM1025.32 728.487C973.472 715.271 921.344 702.422 867.154 699.327C867.357 704.108 870.94 702.278 873.026 702.716C875.617 703.263 878.326 703.218 880.985 703.432C872.532 706.066 849.144 706.631 845.026 704.085C851.598 703.515 858.171 702.934 864.743 702.364L864.831 700.863C864.065 700.514 863.297 699.857 862.525 699.858C856.125 699.865 849.721 699.919 843.325 700.157C842.339 700.198 841.123 701.025 840.462 701.85C833.488 710.52 826.738 719.366 819.652 727.943C815.453 733.02 810.763 737.695 805.632 743.269C842.833 740.784 879.023 740.245 914.421 737.1C914.335 733.898 914.085 731.444 914.294 729.037C914.37 728.149 915.542 727.36 916.218 726.529C916.751 727.485 917.747 728.442 917.741 729.394C917.719 731.736 917.24 734.081 916.875 736.957C918.195 736.769 919.374 736.55 920.558 736.445C933.327 735.284 946.095 733.974 958.883 733.029C981.018 731.399 1003.17 729.989 1025.31 728.487L1025.32 728.487ZM758.766 744.444C752.724 745.167 746.745 745.78 740.82 746.699C739.7 746.874 738.07 748.15 737.895 749.135C737.357 752.167 737.265 755.304 737.346 758.393C737.363 759.041 738.946 760.252 739.689 760.164C745.521 759.486 751.322 758.551 756.856 757.736C757.491 753.311 758.095 749.133 758.766 744.434L758.766 744.444ZM851.633 750.16C836.68 753.5 821.686 757.228 807.066 762.278C807.206 762.792 807.356 763.305 807.495 763.819C818.848 760.772 830.196 757.72 841.6 754.65C836.977 762.678 828.506 767.746 824.69 776.368C825.46 776.464 825.917 776.302 826.181 775.972C831.665 769.221 837.1 762.426 842.632 755.719C843.445 754.728 844.717 754.12 845.775 753.335C846.029 753.628 846.283 753.922 846.542 754.209C843.008 764.07 833.067 769.919 829.673 779.918C833.303 776.866 836.779 773.712 839.481 769.994C842.782 765.443 845.435 760.424 848.359 755.606C849.424 753.859 850.468 752.102 851.628 750.166L851.633 750.16ZM571.687 790.226C571.644 789.564 571.602 788.912 571.559 788.25C546.703 792 421.431 800.046 396.748 805.388C421.728 802.997 546.702 792.612 571.687 790.226ZM771.155 740.433C767.514 740.244 765.313 741.143 764.135 744.011C760.774 752.203 762.785 760.012 765.831 767.738C765.865 767.819 766.249 767.767 767.069 767.81C766.505 758.526 764.826 749.025 771.149 740.428L771.155 740.433ZM770.438 748.361C777.244 747.462 783.638 746.668 790.009 745.705C790.766 745.591 791.38 744.526 792.059 743.907L791.684 742.909C786.94 742.791 782.167 742.952 777.454 742.468C773.3 742.043 771.503 744.015 770.438 748.361ZM221.723 796.342C218.798 796.417 216.175 796.433 213.566 796.561C208.811 796.789 207.415 798.251 207.261 802.981C209.386 802.98 211.53 803.067 213.661 802.953C219.842 802.625 219.841 802.595 221.723 796.342ZM844.131 790.995C844.601 790.914 845.071 790.833 845.546 790.746C850.293 779.621 855.041 768.496 860.036 756.78C859.205 757.329 858.91 757.413 858.82 757.597C853.604 767.727 848.358 777.849 843.279 788.046C842.946 788.718 843.823 789.999 844.137 791L844.131 790.995ZM203.001 819.159C204.018 811.28 205.085 802.983 206.125 794.909C200.133 797.219 198.319 810.847 203.001 819.159ZM850.108 794.185C850.773 794.461 851.448 794.737 852.113 795.013C856.401 784.967 860.693 774.916 864.975 764.865C864.603 764.7 864.226 764.53 863.854 764.366C858.413 773.914 853.493 783.703 850.108 794.185ZM865.252 795.843C861.038 795.344 860.902 795.149 862.381 791.115C863.079 789.198 863.824 787.294 864.485 785.363C865.848 781.371 867.164 777.355 868.506 773.353L867.137 772.843C863.655 780.854 860.179 788.86 856.439 797.463C859.743 796.858 862.5 796.353 865.263 795.853L865.252 795.843ZM217.412 811.308C216.385 812.843 215.638 813.954 214.679 815.383C216.096 815.443 217.277 815.502 218.581 815.556C219.061 811.749 219.449 808.667 219.933 804.824C215.456 807.293 209.493 804.947 206.411 811.418C210.531 811.377 213.637 811.341 217.407 811.303L217.412 811.308ZM771.831 754.941C778.496 753.863 784.65 752.867 790.232 751.968C790.608 750.367 790.848 749.323 791.08 748.352C784.101 749.535 777.734 750.611 771.133 751.728C771.374 752.83 771.57 753.722 771.837 754.946L771.831 754.941ZM917.19 773.594C916.769 773.483 916.348 773.372 915.926 773.26C915.026 775.515 914.017 777.728 913.336 780.046C913.205 780.499 914.49 781.969 914.852 781.877C918.677 780.942 922.447 779.777 926.235 778.679C926.041 778.106 925.848 777.532 925.654 776.959C923.329 777.95 921.008 778.937 918.196 780.133C917.815 777.638 917.505 775.613 917.195 773.589L917.19 773.594ZM836.442 784.974C836.913 784.903 837.388 784.827 837.864 784.761C840.895 779.932 843.932 775.099 846.964 770.271C846.699 770.086 846.429 769.897 846.164 769.712C842.845 773.822 839.457 777.877 836.272 782.089C835.833 782.673 836.36 783.989 836.442 784.974ZM965.873 741.173C965.775 740.668 965.682 740.157 965.578 739.647C958.075 740.744 950.572 741.831 943.069 742.929L943.303 744.36C950.823 743.298 958.348 742.24 965.868 741.178L965.873 741.173ZM608.987 784.306C608.971 783.776 608.954 783.247 608.937 782.718C602.194 782.904 595.451 783.08 588.708 783.266C588.73 783.918 588.746 784.566 588.768 785.219C595.506 784.919 602.244 784.61 608.983 784.311L608.987 784.306ZM791.263 755.141C785.046 756.098 779.264 756.99 773.486 757.877C779.149 760.067 790.449 758.107 791.263 755.141ZM191.98 813.075C191.158 811.863 190.509 810.357 190.126 810.419C185.849 811.136 181.608 812.094 177.358 812.984C177.466 813.479 177.58 813.979 177.688 814.473C182.141 814.037 186.594 813.601 191.985 813.069L191.98 813.075ZM988.714 742.585C988.062 744.614 987.317 746.626 986.785 748.685C986.11 751.286 984.477 751.857 982.148 751.146C981.085 750.819 980.067 750.347 979.026 749.942C978.77 751.219 978.509 752.49 978.257 753.73C985.34 753.067 989.907 750.393 988.709 742.591L988.714 742.585ZM862.095 748.704C858.541 749.108 854.561 747.796 853.452 753.476C852.863 756.51 850.442 759.193 848.851 762.038C849.131 762.206 849.41 762.364 849.69 762.533C850.711 760.963 851.748 759.407 852.753 757.832C855.096 754.149 855.839 748.736 862.056 749.261C862.067 749.143 862.072 749.019 862.095 748.704ZM718.089 772.13C718.08 771.646 718.07 771.163 718.06 770.68C713.186 771.015 708.312 771.35 703.438 771.686C703.446 771.881 703.464 772.076 703.472 772.271C708.348 772.224 713.218 772.172 718.094 772.124L718.089 772.13ZM869.736 766.145C870.16 766.307 870.588 766.475 871.012 766.637C872.679 761.897 874.345 757.145 876.011 752.405C875.573 752.248 875.134 752.091 874.69 751.929L869.736 766.145ZM936.303 767.077C934.999 769.868 933.694 772.66 932.261 775.719C935.562 774.653 936.909 771.772 936.303 767.077ZM928.254 772.128C928.759 769.154 929.218 766.444 929.677 763.734C925.718 766.661 925.206 770.212 928.254 772.128ZM1001.46 743.397C999.851 742.382 998.419 741.479 996.517 740.282C995.908 742.232 995.344 744.025 994.558 746.542C997.503 745.201 999.548 744.268 1001.46 743.397ZM940.973 750.1C940.514 749.955 940.056 749.809 939.602 749.668C938.583 753.76 937.563 757.841 936.543 761.932C936.986 762.053 937.433 762.179 937.876 762.299C938.907 758.238 939.943 754.172 940.974 750.111L940.973 750.1ZM876.887 791.385C877.305 791.553 877.729 791.726 878.143 791.899C881.014 789.157 879.382 785.164 880.603 781.96C880.234 781.857 879.869 781.748 879.499 781.645C878.625 784.892 877.751 788.139 876.881 791.38L876.887 791.385ZM907.868 769.261C907.031 771.169 906.34 772.756 905.541 774.59C906.683 774.96 907.601 775.251 908.847 775.647C908.835 773.353 911.509 771.328 907.868 769.261ZM920.73 767.237C920.715 765.01 920.698 762.978 920.686 760.941C920.101 761.104 919.049 761.184 919.003 761.438C918.649 763.444 918.497 765.488 918.277 767.519C918.917 767.446 919.568 767.373 920.73 767.237ZM944.582 765.824C944.203 765.989 943.824 766.164 943.445 766.329C943.134 768.138 942.823 769.946 942.517 771.76C942.91 771.934 943.303 772.108 943.696 772.282C944.454 770.954 945.447 769.694 945.856 768.262C946.04 767.622 945.038 766.649 944.582 765.824ZM901.864 786.442C904.571 785.595 906.364 785.032 908.157 784.469C908.136 784.202 908.12 783.94 908.103 783.668C906.612 783.066 905.115 782.459 903.43 781.778C902.936 783.249 902.569 784.345 901.864 786.442ZM830.266 761.401C829.92 761.112 829.579 760.828 829.232 760.538C827.317 762.995 825.406 765.446 823.491 767.902C823.645 768.014 823.804 768.131 823.963 768.237L830.261 761.396L830.266 761.401ZM898.115 782.517C898.395 782.192 898.68 781.871 898.96 781.546C897.837 780.393 896.724 779.241 895.601 778.088C895.277 778.333 894.947 778.573 894.623 778.818C894.613 779.945 894.593 781.073 894.576 782.293C895.995 782.384 897.053 782.458 898.105 782.528L898.115 782.517ZM755.81 764.808C755.817 764.339 755.828 763.866 755.834 763.397L746.214 763.553C746.219 763.913 746.223 764.263 746.227 764.623L755.805 764.813L755.81 764.808Z" fill="black"/>
<path d="M681.88 817.289C683.428 820.256 685.702 822.488 683.292 824.815C682.229 825.842 679.678 826.251 678.237 825.734C676.377 825.07 676.679 820.051 678.619 818.309C679.403 817.608 680.802 817.602 681.88 817.289Z" fill="black"/>
<path d="M984.263 808.969C984.582 807.217 984.51 805.223 985.383 803.813C985.788 803.159 988.031 803.653 989.44 803.625C989.415 805.401 989.783 807.321 989.194 808.884C988.92 809.61 986.791 809.636 985.509 809.977C985.093 809.634 984.678 809.302 984.263 808.959L984.263 808.969Z" fill="black"/>
<path d="M396.757 843.378C396.32 846.483 396.114 848.607 395.617 850.649C395.547 850.94 394.037 850.874 393.197 850.981C393.104 848.86 392.882 846.728 393.037 844.618C393.059 844.272 394.701 844.034 396.757 843.378Z" fill="black"/>
<path d="M667.69 715.891C665.484 715.56 663.64 715.75 663.316 715.135C662.708 713.992 662.986 712.381 662.887 710.965C664.064 711.06 665.665 710.716 666.314 711.353C667.107 712.123 667.096 713.713 667.69 715.891Z" fill="black"/>
<path d="M362.516 734.854C362.217 736.821 362.27 738.116 361.739 739.079C361.528 739.459 359.996 739.105 359.064 739.087C359.158 737.889 359.065 736.617 359.446 735.516C359.575 735.14 360.898 735.173 362.516 734.854Z" fill="black"/>
<path d="M634.148 781.656C632.606 782.332 631.109 783.454 629.521 783.612C625.139 784.035 620.7 784.316 616.307 784.096C614.693 784.014 613.165 782.389 611.583 781.477C609.838 780.464 608.04 778.531 606.334 778.602C592.574 779.186 578.81 779.924 565.083 781.053C549.325 782.347 533.6 784.078 517.859 785.644C515.814 785.847 513.761 786.102 511.757 786.529C507.437 787.443 507.181 787.722 505.176 791.993C502.454 788.648 498.663 789.525 495.255 789.727C485.128 790.336 475.01 791.161 464.909 792.119C448.365 793.687 331.858 803.677 315.294 805.01C296.35 806.534 277.354 807.525 258.383 808.767C252.117 809.175 245.862 809.711 239.593 810.027C238.237 810.093 236.852 809.451 235.481 809.137C236.349 807.239 236.952 805.135 238.203 803.54C238.834 802.737 240.634 802.724 241.93 802.593C255.646 801.188 269.369 799.838 283.086 798.443C284.198 798.33 285.292 798.033 286.394 797.823C286.395 797.468 286.391 797.118 286.392 796.763C285.072 796.586 283.727 796.147 282.435 796.273C268.828 797.581 255.228 798.905 241.643 800.382C236.393 800.954 235.21 802.207 233.951 807.353C233.585 808.835 233.392 810.268 231.217 809.668C229.073 809.078 229.626 807.789 229.981 806.277C231.218 800.973 234.466 797.777 239.837 797.149C250.284 795.935 260.746 794.864 271.216 793.84C297.474 791.273 423.731 780.664 450.006 778.261C478.214 775.68 506.479 773.616 534.662 770.795C581.148 766.146 627.57 760.935 674.049 756.251C690.174 754.622 706.39 753.839 722.565 752.671C723.022 752.637 723.492 752.695 723.657 752.698C724.109 757.037 724.538 761.198 724.973 765.373C716.846 766.182 709.389 767.015 701.913 767.643C697.95 767.977 699.072 770.236 699.359 773.316C698.008 772.616 696.079 772.253 695.431 771.143C694.151 768.937 692.55 767.295 690.388 768.773C689.348 769.485 689.649 772.174 689.222 774.666C688.901 774.726 687.517 774.984 686.087 775.249C686.527 770.466 685.432 769.745 679.904 770.565C679.831 772.039 680.271 774.203 679.599 774.632C677.769 775.793 676.498 774.544 675.269 772.809C674.471 771.69 672.529 771.374 671.106 770.697C670.862 771.005 670.617 771.314 670.367 771.618C670.643 772.81 670.924 773.997 671.211 775.22C668.795 775.912 666.476 776.574 665.239 773.27C665.014 772.678 663.712 772.063 662.98 772.149C654.844 773.108 646.724 774.21 638.356 775.302C638.758 777.421 639.01 778.79 639.374 780.745C644.345 780.154 649.343 779.567 654.345 778.974C654.375 779.683 654.414 780.391 654.443 781.1C647.885 781.258 641.326 781.426 634.767 781.584C636.23 779.007 635.117 776.985 631.713 776.915C627.027 776.82 622.32 777.092 617.648 777.445C616.278 777.548 614.978 778.466 613.647 778.999C613.661 779.349 613.686 779.697 613.701 780.047C615.466 780.565 617.221 781.45 619.005 781.53C624.041 781.749 629.105 781.638 634.148 781.656ZM465.946 784.101C466.012 784.715 466.079 785.33 466.151 785.939C474.542 784.81 482.944 783.681 491.336 782.552C491.259 781.938 491.182 781.324 491.1 780.715C482.612 780.993 474.145 781.421 465.951 784.106L465.946 784.101ZM458.407 787.448C458.368 786.986 458.328 786.525 458.293 786.058C455.087 784.421 441.152 785.871 438.239 788.961C444.958 788.457 451.683 787.947 458.402 787.443L458.407 787.448ZM314.089 797.012C314.034 796.557 313.984 796.106 313.93 795.65C307.092 795.66 300.211 795.255 293.696 798.082C293.752 798.578 293.814 799.07 293.87 799.567C300.612 798.717 307.348 797.862 314.089 797.012ZM647.064 766.134C647.02 765.688 646.976 765.242 646.926 764.791C640.597 764.775 634.201 764.026 628.111 766.433C628.164 766.987 628.218 767.54 628.277 768.089C634.538 767.439 640.803 766.784 647.059 766.129L647.064 766.134ZM543.291 775.28C543.221 774.969 543.152 774.668 543.083 774.357C534.463 774.624 529.934 775.63 529.495 777.373C534.169 776.665 538.73 775.973 543.301 775.279L543.291 775.28ZM713.498 764.335C713.616 761.232 713.691 759.187 713.771 757.135L712.384 757.193C709.931 759.826 709.966 761.301 713.492 764.33L713.498 764.335Z" fill="#33FFF5"/>
<path d="M1025.32 728.487C1003.18 729.989 981.021 731.394 958.892 733.029C946.103 733.974 933.34 735.278 920.567 736.444C919.377 736.555 918.198 736.774 916.883 736.957C917.248 734.081 917.722 731.741 917.749 729.394C917.756 728.441 916.764 727.479 916.226 726.529C915.555 727.364 914.379 728.149 914.302 729.037C914.088 731.449 914.338 733.893 914.43 737.099C879.031 740.245 842.836 740.779 805.64 743.268C810.776 737.689 815.461 733.019 819.661 727.942C826.752 719.37 833.497 710.52 840.47 701.85C841.131 701.025 842.347 700.198 843.333 700.157C849.729 699.918 856.133 699.864 862.533 699.857C863.305 699.856 864.068 700.509 864.839 700.863L864.752 702.364C858.179 702.934 851.607 703.514 845.034 704.084C849.147 706.626 872.535 706.061 880.993 703.432C878.334 703.217 875.625 703.263 873.035 702.716C870.953 702.283 867.371 704.113 867.163 699.326C921.352 702.422 973.48 715.271 1025.33 728.487L1025.32 728.487ZM895.791 735.426C899.098 736.75 900.33 735.691 900.209 732.763C900.149 731.325 900.217 729.845 899.933 728.447C899.772 727.667 899.009 727.014 898.522 726.298C897.935 726.925 896.985 727.463 896.835 728.184C896.334 730.51 896.134 732.896 895.796 735.431L895.791 735.426ZM856.931 735.247C856.866 734.544 856.801 733.842 856.736 733.14C850.889 733.834 845.047 734.523 839.2 735.218L839.36 736.848L856.921 735.247L856.931 735.247ZM975.872 722.721C975.85 723.185 975.828 723.649 975.811 724.117C981.315 724.559 986.828 725 992.331 725.441C992.362 725.075 992.399 724.713 992.425 724.352C986.954 723.307 981.539 721.771 975.872 722.721ZM942.622 729.533C944.547 728.559 946.738 727.789 945.767 724.958C945.586 724.435 943.736 723.869 943.194 724.2C941.096 725.491 940.88 727.347 942.617 729.539L942.622 729.533ZM932.219 724.71C930.373 725.224 928.927 725.227 928.652 725.794C928.168 726.792 928.404 728.135 928.335 729.337C929.315 729.25 930.767 729.529 931.167 729.009C931.817 728.164 931.77 726.787 932.214 724.715L932.219 724.71ZM862.892 715.258C860.786 715.473 858.855 715.672 856.928 715.875C857.003 716.427 857.082 716.975 857.161 717.532C859.016 717.214 860.871 716.905 862.72 716.572C862.756 716.565 862.757 716.349 862.887 715.263L862.892 715.258Z" fill="#33FFF5"/>
<path d="M758.767 744.444C758.086 749.144 757.492 753.321 756.857 757.747C751.324 758.562 745.517 759.491 739.69 760.175C738.947 760.262 737.369 759.046 737.348 758.404C737.266 755.315 737.352 752.173 737.896 749.145C738.072 748.16 739.706 746.879 740.821 746.709C746.746 745.79 752.726 745.178 758.767 744.455L758.767 744.444ZM739.261 757.152L739.618 758.557C744.478 757.636 749.333 756.709 754.362 755.756C753.636 753.131 753.084 751.121 752.377 748.572C751.892 749.539 751.384 750.059 751.439 750.515C751.83 753.998 749.802 754.611 746.921 754.983C744.321 755.316 741.813 756.398 739.261 757.152Z" fill="#33FFF5"/>
<path d="M851.634 750.16C850.474 752.097 849.425 753.859 848.365 755.6C845.441 760.419 842.783 765.443 839.488 769.988C836.786 773.707 833.309 776.86 829.679 779.912C833.068 769.919 843.009 764.07 846.548 754.204C846.294 753.911 846.04 753.618 845.781 753.33C844.723 754.115 843.451 754.723 842.638 755.714C837.101 762.426 831.671 769.215 826.187 775.966C825.928 776.291 825.467 776.459 824.696 776.362C828.512 767.741 836.978 762.678 841.606 754.645C830.207 757.709 818.854 760.756 807.501 763.814C807.362 763.3 807.212 762.786 807.072 762.272C821.687 757.228 836.686 753.495 851.639 750.155L851.634 750.16Z" fill="#33FFF5"/>
<path d="M195.322 802.111C195.678 803.141 196.396 804.187 196.319 805.183C196.142 807.629 195.599 810.054 195.214 812.447C194.635 812.389 194.457 812.422 194.408 812.357C191.965 808.949 188.563 807.728 184.202 808.694C182.01 809.186 179.838 809.774 177.551 810.347C179.151 802.759 181.981 798.279 188.916 798.615C191.762 798.754 194.645 798.296 198.796 798.026C197.21 799.985 196.27 801.146 195.33 802.306C191.545 802.597 187.77 802.886 183.985 803.177C184.104 803.82 184.223 804.453 184.342 805.096C187.995 804.102 191.659 803.106 195.312 802.112L195.322 802.111Z" fill="#33FFF5"/>
<path d="M425.991 803.467C422.41 804.094 418.852 805.028 415.241 805.311C393.92 806.959 372.583 808.463 351.258 809.998C350.124 810.081 348.974 810.031 347.838 810.042C347.809 809.729 347.786 809.411 347.758 809.098C349.678 808.88 351.585 808.59 353.509 808.454C370.74 807.191 387.982 805.959 405.219 804.701C411.344 804.253 417.461 803.737 423.586 803.299C424.386 803.245 425.209 803.489 426.017 803.6L426.006 803.472L425.991 803.467Z" fill="#33FFF5"/>
<path d="M571.688 790.226C546.708 792.617 521.734 795.002 496.749 797.388C521.432 792.046 546.698 791.995 571.56 788.25C571.603 788.912 571.645 789.564 571.688 790.226Z" fill="#33FFF5"/>
<path d="M426.003 803.59C429.501 802.967 432.975 802.103 436.496 801.767C448.253 800.653 460.024 799.74 471.791 798.734C477.164 798.275 482.522 797.703 487.91 797.347C489.855 797.22 491.825 797.571 493.785 797.706C493.772 798.01 493.764 798.309 493.751 798.613C486.484 799.196 479.221 799.754 471.956 800.368C458.132 801.526 444.311 802.746 430.485 803.862C429.008 803.985 427.491 803.616 425.993 803.472L426.003 803.59Z" fill="#33FFF5"/>
<path d="M771.153 740.433C764.83 749.03 766.504 758.526 767.073 767.816C766.253 767.772 765.864 767.83 765.835 767.743C762.783 760.013 760.778 752.208 764.139 744.016C765.317 741.148 767.523 740.244 771.158 740.438L771.153 740.433Z" fill="#33FFF5"/>
<path d="M634.145 781.655C629.091 781.638 624.038 781.749 619.002 781.53C617.214 781.455 615.463 780.565 613.698 780.046C613.683 779.697 613.659 779.348 613.644 778.999C614.975 778.455 616.28 777.542 617.645 777.444C622.323 777.097 627.024 776.82 631.711 776.914C635.115 776.985 636.227 779.007 634.764 781.584C634.554 781.587 634.344 781.611 634.145 781.655Z" fill="black"/>
<path d="M770.437 748.361C771.497 744.011 773.299 742.043 777.453 742.468C782.16 742.947 786.934 742.786 791.683 742.909L792.058 743.907C791.379 744.527 790.764 745.591 790.008 745.705C783.636 746.668 777.243 747.462 770.437 748.361Z" fill="#33FFF5"/>
<path d="M221.722 796.343C219.845 802.59 219.842 802.626 213.66 802.953C211.53 803.067 209.386 802.981 207.261 802.981C207.415 798.251 208.805 796.784 213.566 796.562C216.18 796.438 218.798 796.417 221.722 796.343Z" fill="#33FFF5"/>
<path d="M844.13 790.995C843.816 789.994 842.935 788.719 843.272 788.041C848.351 777.844 853.598 767.723 858.813 757.592C858.903 757.408 859.198 757.324 860.03 756.775C855.034 768.492 850.287 779.617 845.54 790.741C845.07 790.823 844.6 790.904 844.125 790.99L844.13 790.995Z" fill="#33FFF5"/>
<path d="M203 819.159C198.324 810.842 200.133 797.22 206.125 794.909C205.085 802.984 204.018 811.281 203 819.159Z" fill="#33FFF5"/>
<path d="M850.106 794.185C853.49 783.703 858.411 773.914 863.851 764.366C864.223 764.531 864.601 764.7 864.973 764.865C860.685 774.911 856.393 784.962 852.111 795.013C851.446 794.737 850.771 794.461 850.106 794.185Z" fill="#33FFF5"/>
<path d="M865.252 795.844C862.494 796.349 859.737 796.854 856.428 797.453C860.168 788.85 863.649 780.839 867.126 772.834L868.495 773.343C867.158 777.35 865.842 781.356 864.474 785.354C863.813 787.285 863.068 789.188 862.37 791.106C860.901 795.138 861.033 795.339 865.241 795.834L865.252 795.844Z" fill="#33FFF5"/>
<path d="M217.411 811.309C213.641 811.346 210.539 811.377 206.415 811.424C209.497 804.952 215.46 807.299 219.937 804.829C219.452 808.672 219.065 811.755 218.585 815.562C217.275 815.503 216.095 815.454 214.683 815.388C215.642 813.96 216.389 812.848 217.416 811.314L217.411 811.309Z" fill="#33FFF5"/>
<path d="M771.832 754.941C771.566 753.727 771.369 752.835 771.128 751.723C777.729 750.607 784.101 749.525 791.075 748.347C790.848 749.313 790.603 750.363 790.227 751.963C784.645 752.862 778.486 753.863 771.826 754.936L771.832 754.941Z" fill="#33FFF5"/>
<path d="M917.188 773.594C917.498 775.619 917.809 777.644 918.19 780.139C921.001 778.942 923.327 777.951 925.648 776.965C925.841 777.538 926.035 778.112 926.228 778.685C922.44 779.783 918.671 780.947 914.845 781.882C914.478 781.97 913.193 780.5 913.329 780.052C914.015 777.739 915.024 775.515 915.919 773.266C916.341 773.377 916.762 773.488 917.183 773.6L917.188 773.594Z" fill="#33FFF5"/>
<path d="M836.44 784.974C836.363 783.994 835.83 782.673 836.269 782.089C839.455 777.877 842.843 773.822 846.161 769.712C846.426 769.897 846.697 770.087 846.961 770.271C843.93 775.099 840.893 779.933 837.861 784.761C837.391 784.832 836.916 784.908 836.44 784.974Z" fill="#33FFF5"/>
<path d="M965.873 741.173C958.353 742.235 950.828 743.292 943.308 744.354L943.074 742.923C950.577 741.826 958.08 740.739 965.583 739.642C965.681 740.147 965.774 740.658 965.878 741.168L965.873 741.173Z" fill="#33FFF5"/>
<path d="M608.987 784.306C602.249 784.605 595.511 784.914 588.773 785.213C588.751 784.561 588.734 783.913 588.713 783.261C595.456 783.074 602.199 782.899 608.942 782.713C608.959 783.242 608.975 783.771 608.992 784.3L608.987 784.306Z" fill="#33FFF5"/>
<path d="M791.262 755.141C790.449 758.108 779.148 760.067 773.485 757.877C779.263 756.99 785.045 756.098 791.262 755.141Z" fill="#33FFF5"/>
<path d="M291.978 805.075C286.587 805.607 282.133 806.043 277.68 806.479C277.572 805.984 277.459 805.485 277.351 804.99C281.6 804.099 285.842 803.142 290.119 802.425C290.502 802.363 291.145 803.864 291.973 805.08L291.978 805.075Z" fill="#33FFF5"/>
<path d="M988.714 742.586C989.921 750.388 985.349 753.057 978.261 753.725C978.513 752.485 978.774 751.214 979.03 749.937C980.071 750.342 981.089 750.815 982.152 751.141C984.481 751.853 986.12 751.286 986.789 748.68C987.321 746.621 988.067 744.609 988.719 742.581L988.714 742.586Z" fill="#33FFF5"/>
<path d="M862.094 748.704C862.071 749.019 862.061 749.138 862.056 749.262C855.834 748.731 855.096 754.149 852.752 757.832C851.747 759.407 850.705 760.968 849.69 762.533C849.41 762.364 849.131 762.206 848.851 762.038C850.442 759.193 852.857 756.516 853.452 753.476C854.56 747.796 858.54 749.108 862.094 748.704Z" fill="#33FFF5"/>
<path d="M718.088 772.13C713.212 772.177 708.342 772.229 703.466 772.276C703.458 772.081 703.44 771.886 703.432 771.691C708.306 771.356 713.18 771.021 718.054 770.685C718.064 771.169 718.073 771.652 718.083 772.135L718.088 772.13Z" fill="#33FFF5"/>
<path d="M869.735 766.145L874.689 751.929C875.128 752.086 875.567 752.243 876.011 752.405C874.344 757.146 872.678 761.897 871.011 766.638C870.588 766.475 870.159 766.307 869.735 766.145Z" fill="#33FFF5"/>
<path d="M936.305 767.077C936.907 771.769 935.559 774.649 932.263 775.719C933.695 772.66 935 769.869 936.305 767.077Z" fill="#33FFF5"/>
<path d="M928.253 772.128C925.205 770.212 925.722 766.666 929.676 763.734C929.217 766.444 928.758 769.154 928.253 772.128Z" fill="#33FFF5"/>
<path d="M1001.46 743.397C999.547 744.268 997.502 745.202 994.558 746.543C995.349 744.03 995.908 742.232 996.516 740.282C998.418 741.48 999.85 742.383 1001.46 743.397Z" fill="#33FFF5"/>
<path d="M940.974 750.1C939.943 754.162 938.907 758.228 937.876 762.289C937.433 762.168 936.986 762.043 936.543 761.922C937.563 757.831 938.583 753.75 939.602 749.658C940.061 749.804 940.52 749.949 940.973 750.09L940.974 750.1Z" fill="#33FFF5"/>
<path d="M876.888 791.385C877.762 788.139 878.636 784.892 879.506 781.65C879.875 781.753 880.24 781.862 880.61 781.965C879.389 785.169 881.02 789.162 878.149 791.904C877.731 791.736 877.307 791.564 876.893 791.39L876.888 791.385Z" fill="#33FFF5"/>
<path d="M194.322 802.111C190.669 803.106 187.005 804.101 183.352 805.096C183.233 804.453 183.114 803.82 182.995 803.176C186.775 802.881 190.555 802.596 194.34 802.306L194.327 802.106L194.322 802.111Z" fill="black"/>
<path d="M907.867 769.261C911.508 771.328 908.834 773.353 908.847 775.647C907.595 775.246 906.677 774.955 905.541 774.59C906.34 772.756 907.041 771.168 907.867 769.261Z" fill="#33FFF5"/>
<path d="M920.728 767.238C919.566 767.373 918.92 767.441 918.275 767.519C918.495 765.488 918.652 763.449 919.001 761.438C919.047 761.184 920.099 761.105 920.684 760.941C920.696 762.979 920.714 765.02 920.728 767.238Z" fill="#33FFF5"/>
<path d="M944.582 765.825C945.043 766.644 946.041 767.622 945.856 768.262C945.447 769.694 944.455 770.955 943.697 772.283C943.304 772.108 942.911 771.934 942.518 771.76C942.829 769.952 943.14 768.143 943.446 766.33C943.825 766.165 944.203 765.989 944.582 765.825Z" fill="#33FFF5"/>
<path d="M901.864 786.442C902.57 784.345 902.936 783.249 903.431 781.778C905.122 782.464 906.613 783.066 908.104 783.668C908.126 783.935 908.142 784.197 908.158 784.469C906.365 785.032 904.572 785.595 901.864 786.442Z" fill="#33FFF5"/>
<path d="M830.265 761.401L823.967 768.242C823.814 768.13 823.654 768.013 823.496 767.907C825.411 765.45 827.321 763 829.237 760.543C829.583 760.833 829.924 761.117 830.271 761.406L830.265 761.401Z" fill="#33FFF5"/>
<path d="M898.115 782.517C897.063 782.448 896.01 782.378 894.586 782.282C894.603 781.062 894.613 779.935 894.633 778.807C894.957 778.562 895.287 778.322 895.611 778.077C896.734 779.23 897.847 780.383 898.97 781.535C898.69 781.861 898.405 782.181 898.125 782.507L898.115 782.517Z" fill="#33FFF5"/>
<path d="M755.812 764.808L746.233 764.617C746.229 764.257 746.225 763.908 746.22 763.548L755.84 763.392C755.834 763.86 755.823 764.334 755.816 764.803L755.812 764.808Z" fill="#33FFF5"/>
<path d="M465.943 784.1C474.137 781.426 482.609 780.993 491.092 780.71C491.169 781.324 491.246 781.938 491.327 782.547C482.936 783.676 474.534 784.805 466.142 785.934C466.076 785.319 466.009 784.705 465.938 784.095L465.943 784.1Z" fill="black"/>
<path d="M458.408 787.448C451.688 787.952 444.964 788.461 438.244 788.966C441.158 785.876 455.088 784.431 458.299 786.063C458.339 786.524 458.379 786.986 458.413 787.453L458.408 787.448Z" fill="black"/>
<path d="M414.087 789.012C407.346 789.862 400.61 790.716 393.869 791.566C393.812 791.069 393.751 790.578 393.694 790.081C400.205 787.26 407.09 787.66 413.928 787.65C413.983 788.106 414.032 788.556 414.087 789.012Z" fill="black"/>
<path d="M647.061 766.133C640.8 766.783 634.534 767.438 628.279 768.093C628.225 767.54 628.172 766.986 628.113 766.438C634.203 764.03 640.599 764.78 646.928 764.796C646.972 765.242 647.017 765.687 647.066 766.138L647.061 766.133Z" fill="black"/>
<path d="M543.29 775.28C538.724 775.967 534.158 776.666 529.484 777.373C529.927 775.633 534.456 774.628 543.072 774.357C543.141 774.668 543.21 774.969 543.28 775.28L543.29 775.28Z" fill="black"/>
<path d="M713.494 764.334C709.963 761.311 709.933 759.83 712.386 757.197L713.773 757.14C713.698 759.186 713.618 761.237 713.5 764.339L713.494 764.334Z" fill="black"/>
<path d="M895.792 735.426C896.13 732.901 896.335 730.51 896.83 728.179C896.986 727.463 897.931 726.92 898.517 726.293C899.01 727.004 899.778 727.661 899.928 728.442C900.213 729.841 900.145 731.31 900.205 732.758C900.326 735.696 899.088 736.751 895.787 735.421L895.792 735.426Z" fill="black"/>
<path d="M856.934 735.247L839.373 736.847L839.213 735.217C845.06 734.523 850.902 733.834 856.749 733.139C856.815 733.842 856.88 734.544 856.945 735.246L856.934 735.247Z" fill="black"/>
<path d="M975.872 722.721C981.539 721.771 986.958 723.302 992.425 724.352C992.393 724.718 992.357 725.08 992.331 725.441C986.828 725 981.314 724.559 975.811 724.117C975.833 723.653 975.855 723.189 975.872 722.721Z" fill="black"/>
<path d="M942.623 729.534C940.892 727.346 941.108 725.49 943.2 724.195C943.742 723.864 945.592 724.43 945.773 724.953C946.744 727.784 944.553 728.553 942.628 729.528L942.623 729.534Z" fill="black"/>
<path d="M932.221 724.71C931.777 726.782 931.818 728.154 931.174 729.003C930.769 729.53 929.322 729.255 928.342 729.331C928.411 728.13 928.175 726.786 928.659 725.789C928.934 725.222 930.38 725.218 932.226 724.705L932.221 724.71Z" fill="black"/>
<path d="M862.892 715.258C862.752 716.344 862.761 716.56 862.725 716.566C860.871 716.895 859.021 717.208 857.167 717.527C857.092 716.974 857.013 716.427 856.933 715.869C858.865 715.671 860.786 715.473 862.897 715.252L862.892 715.258Z" fill="black"/>
<path d="M739.259 757.151C741.811 756.398 744.318 755.316 746.918 754.983C749.805 754.616 751.827 753.998 751.436 750.515C751.387 750.054 751.89 749.539 752.375 748.572C753.077 751.116 753.634 753.131 754.36 755.756C749.326 756.715 744.471 757.631 739.616 758.557L739.259 757.151Z" fill="black"/>
</g>
<defs>
<clipPath id="clip0_473_321">
<rect width="1080" height="1080" fill="white"/>
</clipPath>
</defs>
</svg>
