<svg width="1080" height="1080" viewBox="0 0 1080 1080" fill="none" xmlns="http://www.w3.org/2000/svg">
<g clip-path="url(#clip0_611_202405)">
<g clip-path="url(#clip1_611_202405)">
<path d="M809.5 719L793.5 707.5L665.5 863L652.5 869L655.5 884.5L679 898L689 891L685 880L809.5 719Z" fill="#49F2C9"/>
<path d="M1061.5 420L1023.5 390.5L882.5 564L855.5 606L806.5 683.5L827 698.5L872 654L1061.5 420Z" fill="#E3C199"/>
<path d="M1031.4 375.224C1038 373.472 1046.19 376.199 1051.9 379.407C1060.05 383.984 1068.4 392.723 1070.93 401.898C1072.27 406.763 1072.33 412.597 1069.81 417.108C1067.96 420.438 1065.05 423.507 1062.66 426.492L1049.57 442.902C1031.19 466.153 1012.62 489.263 993.883 512.231L938.016 581.205C925.122 597.389 911.934 613.331 898.453 629.029C886.681 642.832 874.646 656.403 862.35 669.743C853.623 679.15 844.674 688.368 835.995 697.825C833.882 700.127 832.237 702.822 830.14 705.124C827.963 707.516 825.31 709.467 823.077 711.841C815.57 719.835 808.316 728.269 801.149 736.581C798.775 739.332 796.584 742.245 794.244 745.027C770.158 773.652 748.049 803.777 725.199 833.373C719.803 840.362 714.256 847.275 709.01 854.373C705.315 859.371 701.856 864.542 698.131 869.531C696.631 871.54 692.229 876.084 691.435 877.956C690.806 879.435 693.038 882.493 693.536 884.01C694.637 887.365 693.005 891.904 691.322 894.914C689.969 897.33 687.002 899.63 684.342 900.41C683.488 900.951 682.602 901.294 681.609 901.489C674.807 902.823 666.952 898.857 661.575 895.106C654.099 889.892 646.56 882.439 644.972 873.058C644.304 869.112 645.222 865.639 647.568 862.434C650.062 859.027 654.472 857.062 658.686 857.926C660.205 858.237 662.379 859.359 663.893 858.993C664.524 858.84 678.174 841.328 680.1 838.926C686.186 831.331 692.55 824.007 698.703 816.479C703.983 810.017 709.349 803.586 714.544 797.058C716.863 794.145 718.918 791.029 721.284 788.15L751.587 751.937C757.839 744.326 763.824 736.502 769.939 728.78C773.735 723.986 777.462 719.104 781.384 714.413C783.068 712.399 784.914 710.531 786.624 708.54C789.53 705.155 792.263 701.523 794.852 697.892C796.754 695.225 798.664 692.258 799.69 689.122C800.856 685.559 801.267 682.258 803.133 678.917C805.943 677.536 808.252 675.078 810.146 672.639C812.725 669.32 814.748 665.667 816.893 662.065C819.866 657.073 822.894 651.987 826.049 647.108C828.245 643.707 831.205 640.869 833.402 637.488C834.988 635.052 836.233 632.41 837.785 629.954L849.982 610.25C851.583 607.673 853.334 605.182 854.9 602.587C859.16 595.532 863.168 588.31 867.431 581.248C869.142 578.412 870.774 575.372 872.738 572.703C874.077 570.883 875.649 569.25 876.946 567.395C889.231 549.822 902.557 533.012 915.736 516.106C927.985 500.391 939.603 484.181 951.782 468.414C954.894 464.386 958.246 460.521 961.456 456.57L974.986 439.568L1006.89 398.948C1011.89 392.658 1016.74 385.723 1022.37 380.004C1024.75 377.587 1028.14 376.029 1031.4 375.224ZM1017.26 431.406C1016.15 432.737 1015.17 434.163 1014.16 435.575L1013.12 435.677L1012.87 435.398C1013.04 434.97 1013.16 434.596 1013.24 434.141C1013.27 434.015 1013.28 433.889 1013.3 433.763L1012.9 433.899C1012.33 434.364 1011.77 434.919 1011.07 435.176L1011.04 434.913C1010.58 435.161 1010.1 435.34 1009.58 435.419C1008.75 435.546 1007.86 435.386 1007.21 434.823C1006.04 433.788 1006.03 432.743 1005.95 431.285L1005.56 432.769C1005.26 433.98 1004.71 434.852 1003.97 435.843C1002.04 436.596 1000.36 437.326 999.455 439.325C998.88 440.593 998.651 442.056 997.921 443.248C996.846 445.002 994.723 445.38 993.524 446.886C991.772 449.085 990.773 451.866 989.02 454.144C987.993 455.48 986.27 456.009 985.173 457.246C984.049 458.513 984.268 460.335 983.261 461.576C981.545 463.691 978.709 464.967 977.198 467.095C976.22 468.471 976.381 470.268 975.346 471.674C975.274 471.771 975.206 471.871 975.133 471.967C973.865 473.621 971.961 474.637 970.658 476.241C969.326 477.881 968.331 479.836 967.09 481.553C965.645 483.551 963.805 485.414 962.094 487.191C960.994 488.141 960.188 489.625 959.26 490.774C957.485 492.975 955.627 495.112 953.866 497.324C951.748 499.987 949.277 503.833 946.622 505.923C946.88 505.15 947.501 504.369 947.978 503.706L948.228 503.361L947.857 503.403C947.58 503.616 947.343 503.761 947.023 503.914C946.914 503.967 946.803 504.016 946.693 504.067L946.606 503.777C947.505 503.132 948.187 502.162 948.89 501.314L948.541 499.249C948.412 498.265 948.089 497.445 947.722 496.526C947.563 496.314 947.551 496.259 947.313 496.108C946.237 495.424 943.946 496.041 942.739 496.212C941.156 498.278 939.843 500.53 938.213 502.552C936.787 504.321 935.033 505.879 933.669 507.677C932.452 509.148 931.501 510.806 930.375 512.344C929.091 514.1 927.6 515.728 926.38 517.522C925.36 519.02 924.559 520.696 923.486 522.15C922.558 523.409 921.159 524.281 920.185 525.531C918.796 527.316 917.66 529.293 916.243 531.054C914.7 532.966 912.868 534.693 911.405 536.661C910.642 537.688 910.222 538.943 909.511 540.003C908.438 541.604 906.931 542.91 905.749 544.43C904.47 546.075 903.509 547.951 902.225 549.588C900.87 551.317 899.173 552.751 897.809 554.459C896.913 555.58 896.445 557.001 895.588 558.152C894.253 559.95 892.517 561.456 891.174 563.263C889.534 565.473 888.35 568.004 886.763 570.243C885.897 571.464 884.576 572.251 883.757 573.504C882.892 574.826 881.378 577.151 881.507 578.725C881.559 579.364 882.084 579.959 882.587 580.34C883.339 580.909 884.41 581.348 885.367 581.203C886.876 580.974 888.371 579.302 889.228 578.123C889.969 577.1 890.392 575.885 890.172 574.618C889.958 573.387 888.609 572.18 888.678 571.023C889.094 570.674 889.172 570.57 889.749 570.605C890.617 570.658 891.604 571.2 892.366 571.605C893.527 571.02 894.712 570.462 895.837 569.809C894.82 571.686 893.75 573.583 892.446 575.277C890.278 578.098 887.443 580.092 886.455 583.684L886.876 583.572C886.876 583.895 886.773 584.691 886.874 584.958C887.321 586.134 888.553 586.405 887.461 587.837C886.037 588.2 884.271 586.807 883.309 588.278C882.909 588.887 882.804 589.603 882.343 590.207C881.333 591.365 880.052 592.405 880.091 594.028C880.229 594.233 880.421 594.608 880.617 594.751L883.286 597.353L883.603 597.728C884.456 597.701 885.49 597.394 886.193 597.872C886.216 597.888 886.234 597.911 886.254 597.93C883.459 601.663 880.479 605.29 877.541 608.912C877.402 608.625 877.239 608.355 877.079 608.08C876.428 608.035 875.806 608.07 875.157 608.116C874.882 608.403 874.71 608.733 874.462 609.014C874.377 609.11 874.251 609.161 874.147 609.237C873.257 609.885 872.607 611.175 872.062 612.124C871.898 612.408 871.974 612.295 871.725 612.562C870.846 613.713 869.847 614.873 869.085 616.1C869.034 616.175 869.002 616.268 868.931 616.326C868.647 616.558 868.235 616.749 867.871 616.686C866.678 616.477 865.625 614.847 864.883 613.956C864.324 612.669 864.571 611.909 864.939 610.611C863.717 611.69 863.239 613.217 862.296 614.524C861.175 616.077 859.724 617.403 858.636 618.938C858.359 619.33 858.145 619.695 858.089 620.175L858.006 620.271C857.157 620.686 856.774 621.333 856.226 622.076L855.943 622.458L855.776 622.688C854.776 625.914 852.052 626.826 850.119 629.394C848.974 630.916 849.134 632.882 848.107 634.37C846.479 636.734 844.021 638.361 842.495 640.855C841.312 642.787 841.635 646.163 839.505 647.287C838.028 648.065 836.505 648.63 835.903 650.373C835.869 650.487 835.837 650.6 835.802 650.714C835.675 651.116 835.481 651.411 835.256 651.764C834.712 652.621 834.675 653.242 834.88 654.22C835.076 655.164 835.584 656.006 836.438 656.492C837.109 656.874 838.038 657.046 838.777 656.756C839.57 656.446 840.343 655.601 840.951 655.007L840.741 655.381C838.775 658.841 836.249 662.052 833.963 665.316C832.342 667.633 830.775 670.249 828.916 672.366L828.576 672.251C828.392 670.793 829.091 668.85 827.612 667.912C826.807 667.401 825.875 667.397 824.989 667.664C823.732 668.043 822.362 669.029 821.795 670.242C821.323 671.25 821.361 673.498 821.822 674.507C822.11 675.134 822.275 675.241 822.847 675.548C824.001 675.559 825.221 674.692 826.266 674.977C826.466 675.383 826.436 675.165 826.338 675.611C825.959 677.328 825.427 678.574 826.51 680.152C827.115 681.034 828.077 681.715 829.142 681.897C829.199 681.907 829.257 681.915 829.315 681.921C829.373 681.929 829.431 681.934 829.489 681.938C829.547 681.941 829.605 681.943 829.664 681.944C829.722 681.944 829.78 681.944 829.838 681.942C829.896 681.939 829.954 681.934 830.013 681.929C830.071 681.923 830.128 681.915 830.186 681.907C830.243 681.898 830.3 681.888 830.357 681.875C830.414 681.863 830.471 681.85 830.528 681.834C830.584 681.82 830.639 681.803 830.695 681.785C830.75 681.767 830.805 681.747 830.859 681.726C830.914 681.705 830.968 681.683 831.022 681.66C831.075 681.635 831.127 681.61 831.179 681.583C831.231 681.556 831.281 681.528 831.331 681.498C831.382 681.469 831.431 681.439 831.479 681.407C831.528 681.374 831.576 681.341 831.623 681.306C831.67 681.271 831.715 681.235 831.76 681.198C832.708 680.411 833.275 678.933 833.293 677.719C833.309 676.645 833.063 675.493 832.905 674.432C835.378 671.272 839.174 667.782 840.909 664.216C851.625 651.416 861.855 638.193 872.944 625.709C873.406 626.355 873.758 627.073 874.132 627.772C874.164 627.736 874.204 627.706 874.228 627.664C874.755 626.718 874.033 625.611 874.102 624.624C874.151 623.914 874.355 623.851 874.881 623.455C875.849 622.803 876.162 621.97 876.628 620.934C876.97 620.699 877.251 620.463 877.531 620.156C877.832 619.823 878.124 619.477 878.446 619.161C879.654 617.977 880.533 617.939 882.153 617.954C881.655 617.439 881.377 617.318 881.308 616.589C883.228 613.843 885.634 611.472 887.713 608.846C895.276 599.283 903.118 590.002 910.82 580.56C912.582 578.4 918.787 569.759 920.3 568.665C920.482 568.533 920.726 568.524 920.939 568.453C920.789 567.802 920.638 567.21 920.781 566.536C921.178 564.669 923.489 562.233 925.058 561.316C925.781 560.895 926.605 561.18 927.374 561.345C928.087 561.497 928.565 561.616 929.164 562.067C930.084 562.403 930.924 562.964 931.772 563.453L959.081 530.095C961.103 527.588 966.501 521.602 967.801 519.149C967.81 518.403 967.767 518.413 967.292 517.826L967.39 517.391C968.127 517.277 968.591 517.507 969.253 517.794C969.692 517.985 970.122 518.032 970.589 517.861C971.082 517.68 971.542 517.341 971.77 516.855C972.188 515.967 972.562 514.225 972.164 513.293C971.934 512.756 971.769 512.263 971.608 511.701C971.406 511.287 971.158 511.167 970.794 510.901C969.9 510.219 969.048 509.491 968.188 508.769C970.21 505.917 972.661 503.218 974.847 500.475C980.789 493.073 986.783 485.715 992.828 478.398C995.625 474.948 998.373 471.461 1001.07 467.936C1002.13 466.561 1003.12 464.929 1004.29 463.666C1004.57 463.362 1004.85 463.18 1005.19 462.953C1005.08 462.253 1005.11 461.929 1005.45 461.297C1006.43 459.456 1009.12 456.015 1011.19 455.504C1011.45 454.239 1012.4 453.225 1013.16 452.211C1014.88 449.844 1016.89 447.603 1018.75 445.336C1020.85 442.603 1022.92 439.838 1024.94 437.042C1024.51 434.21 1024.63 431.472 1024.28 428.626C1023.91 428.465 1024.12 428.494 1023.65 428.626C1023.55 428.853 1023.43 429.076 1023.34 429.308C1023.3 429.406 1023.27 429.508 1023.23 429.608C1022.17 429.58 1021.17 429.479 1020.31 430.198C1020.22 430.501 1020.12 430.96 1019.96 431.248C1019.6 431.895 1019.42 431.876 1018.75 432.052C1018.26 431.815 1017.76 431.612 1017.26 431.406ZM1047.67 412.297C1048.61 413.029 1049.58 413.906 1050.62 414.489L1050.56 414.72C1050.44 415.243 1050.37 415.661 1050.35 416.202C1050.33 416.716 1050.24 416.886 1049.97 417.305C1049.12 417.798 1048.15 417.908 1047.2 418.089C1047.01 418.837 1046.94 419.734 1046.39 420.279L1045.87 420.013L1045.68 419.567C1044.2 418.561 1042.73 417.523 1041.22 416.567C1038.83 419.275 1035.67 422.506 1034.03 425.695C1030.96 429.41 1027.79 433.157 1024.94 437.042C1022.92 439.838 1020.85 442.603 1018.75 445.336C1016.89 447.603 1014.88 449.844 1013.16 452.211C1012.4 453.225 1011.45 454.239 1011.19 455.504C1009.12 456.015 1006.43 459.456 1005.45 461.297C1005.11 461.929 1005.08 462.253 1005.19 462.953C1004.85 463.18 1004.57 463.362 1004.29 463.666C1003.12 464.929 1002.13 466.561 1001.07 467.936C998.373 471.461 995.625 474.948 992.828 478.398C986.783 485.715 980.789 493.073 974.847 500.475C972.661 503.218 970.21 505.917 968.188 508.769C969.048 509.491 969.9 510.219 970.794 510.901C971.158 511.167 971.406 511.287 971.608 511.701C971.769 512.263 971.934 512.756 972.164 513.293C972.562 514.225 972.188 515.967 971.77 516.855C971.542 517.341 971.082 517.68 970.589 517.861C970.122 518.032 969.692 517.985 969.253 517.794C968.591 517.507 968.127 517.277 967.39 517.391L967.292 517.826C967.767 518.413 967.81 518.403 967.801 519.149C966.501 521.602 961.103 527.588 959.081 530.095L931.772 563.453C930.924 562.964 930.084 562.403 929.164 562.067C928.565 561.616 928.087 561.497 927.374 561.345C926.605 561.18 925.781 560.895 925.058 561.316C923.489 562.233 921.178 564.669 920.781 566.536C920.638 567.21 920.789 567.802 920.939 568.453C920.726 568.524 920.482 568.533 920.3 568.665C918.787 569.759 912.582 578.4 910.82 580.56C903.118 590.002 895.276 599.283 887.713 608.846C885.634 611.472 883.228 613.843 881.308 616.589C881.377 617.318 881.655 617.439 882.153 617.954C880.533 617.939 879.654 617.977 878.446 619.161C878.124 619.477 877.832 619.823 877.531 620.156C877.251 620.463 876.97 620.699 876.628 620.934C876.162 621.97 875.849 622.803 874.881 623.455C874.355 623.851 874.151 623.914 874.102 624.624C874.033 625.611 874.755 626.718 874.228 627.664C874.204 627.706 874.164 627.736 874.132 627.772C873.758 627.073 873.406 626.355 872.944 625.709C861.855 638.193 851.625 651.416 840.909 664.216C839.174 667.782 835.378 671.272 832.905 674.432C833.063 675.493 833.309 676.645 833.293 677.719C833.275 678.933 832.708 680.411 831.76 681.198C831.715 681.235 831.67 681.271 831.623 681.306C831.576 681.341 831.528 681.374 831.479 681.407C831.431 681.439 831.382 681.469 831.331 681.498C831.281 681.528 831.231 681.556 831.179 681.583C831.127 681.61 831.075 681.635 831.022 681.66C830.968 681.683 830.914 681.705 830.859 681.726C830.805 681.747 830.75 681.767 830.695 681.785C830.639 681.803 830.584 681.82 830.528 681.834C830.471 681.85 830.414 681.863 830.357 681.875C830.3 681.888 830.243 681.898 830.186 681.907C830.128 681.915 830.071 681.923 830.013 681.929C829.954 681.934 829.896 681.939 829.838 681.942C829.78 681.944 829.722 681.944 829.664 681.944C829.605 681.943 829.547 681.941 829.489 681.938C829.431 681.934 829.373 681.929 829.315 681.921C829.257 681.915 829.199 681.907 829.142 681.897C828.077 681.715 827.115 681.034 826.51 680.152C825.427 678.574 825.959 677.328 826.338 675.611C826.436 675.165 826.466 675.383 826.266 674.977C825.221 674.692 824.001 675.559 822.847 675.548C822.275 675.241 822.11 675.134 821.822 674.507C821.361 673.498 821.323 671.25 821.795 670.242C822.362 669.029 823.732 668.043 824.989 667.664C825.875 667.397 826.807 667.401 827.612 667.912C829.091 668.85 828.392 670.793 828.576 672.251L828.916 672.366C830.775 670.249 832.342 667.633 833.963 665.316C836.249 662.052 838.775 658.841 840.741 655.381L840.951 655.007C840.343 655.601 839.57 656.446 838.777 656.756C838.038 657.046 837.109 656.874 836.438 656.492C835.584 656.006 835.076 655.164 834.88 654.22C834.675 653.242 834.712 652.621 835.256 651.764C835.481 651.411 835.675 651.116 835.802 650.714C835.837 650.6 835.869 650.487 835.903 650.373L834.626 651.745C833.771 653.163 833.918 654.845 832.824 656.255C831.514 657.945 829.344 658.861 828.107 660.689C827.128 662.134 826.937 664.008 825.895 665.45C824.692 667.115 822.357 667.736 821.339 669.614C820.44 671.273 821.001 673.348 820.368 674.934C819.998 675.863 816.979 677.277 816.077 678.064C814.74 679.226 813.8 680.707 813.74 682.511C813.575 687.602 816.727 685.232 818.718 687.305C818.814 688.048 818.898 689.054 819.247 689.725C820.081 691.329 822.316 690.661 823.821 691.255C824.587 692.104 824.255 692.934 824.674 693.887C824.982 694.59 825.151 694.597 825.822 694.844C827.152 694.728 828.51 694.236 829.539 693.366C833.313 690.179 836.479 685.893 839.847 682.26C842.585 679.307 845.5 676.517 848.213 673.542C854.429 666.727 860.378 659.653 866.391 652.66L915.117 596.476C921.878 588.537 928.332 580.277 934.903 572.177C947.474 556.777 959.911 541.27 972.215 525.656L1053.94 423.16C1054.47 422.49 1056.8 420.001 1056.67 419.239C1056.3 417.069 1050.1 413.327 1048.25 411.875L1047.67 412.297ZM986.442 439C984.426 442.534 981.654 445.552 979.157 448.738C977.663 450.644 976.337 452.677 974.82 454.565C973.465 456.25 971.729 457.953 970.617 459.796C970.259 460.388 969.902 461.2 970.077 461.902C970.323 462.887 971.159 463.233 971.128 464.289C970.584 465.01 970.024 465.795 969.039 465.876C968.644 465.908 968.267 465.826 967.88 465.77C967.076 465.653 966.527 465.732 965.882 466.263C963.685 468.074 962.123 471.289 960.383 473.553L945.647 492.776C944.732 493.959 943.619 495.019 942.739 496.212C943.946 496.041 946.237 495.424 947.313 496.108C947.551 496.259 947.563 496.314 947.722 496.526C948.089 497.445 948.412 498.265 948.541 499.249L948.89 501.314C948.187 502.162 947.505 503.132 946.606 503.777L946.693 504.067C946.803 504.016 946.914 503.967 947.023 503.914C947.343 503.761 947.58 503.616 947.857 503.403L948.228 503.361L947.978 503.706C947.501 504.369 946.88 505.15 946.622 505.923C949.277 503.833 951.748 499.987 953.866 497.324C955.627 495.112 957.485 492.975 959.26 490.774C960.188 489.625 960.994 488.141 962.094 487.191C963.805 485.414 965.645 483.551 967.09 481.553C968.331 479.836 969.326 477.881 970.658 476.241C971.961 474.637 973.865 473.621 975.133 471.967C975.206 471.871 975.274 471.771 975.346 471.674C976.381 470.268 976.22 468.471 977.198 467.095C978.709 464.967 981.545 463.691 983.261 461.576C984.268 460.335 984.049 458.513 985.173 457.246C986.27 456.009 987.993 455.48 989.02 454.144C990.773 451.866 991.772 449.085 993.524 446.886C994.723 445.38 996.846 445.002 997.921 443.248C998.651 442.056 998.88 440.593 999.455 439.325C1000.36 437.326 1002.04 436.596 1003.97 435.843C1004.71 434.852 1005.26 433.98 1005.56 432.769L1005.95 431.285C1006.03 432.743 1006.04 433.788 1007.21 434.823C1007.86 435.386 1008.75 435.546 1009.58 435.419C1010.1 435.34 1010.58 435.161 1011.04 434.913L1011.07 435.176C1011.77 434.919 1012.33 434.364 1012.9 433.899L1013.3 433.763C1013.28 433.889 1013.27 434.015 1013.24 434.141C1013.16 434.596 1013.04 434.97 1012.87 435.398L1013.12 435.677L1014.16 435.575C1015.17 434.163 1016.15 432.737 1017.26 431.406C1017.76 431.612 1018.26 431.815 1018.75 432.052C1019.42 431.876 1019.6 431.895 1019.96 431.248C1020.12 430.96 1020.22 430.501 1020.31 430.198C1021.17 429.479 1022.17 429.58 1023.23 429.608C1023.27 429.508 1023.3 429.406 1023.34 429.308C1023.43 429.076 1023.55 428.853 1023.65 428.626C1024.12 428.494 1023.91 428.465 1024.28 428.626C1024.63 431.472 1024.51 434.21 1024.94 437.042C1027.79 433.157 1030.96 429.41 1034.03 425.695C1035.67 422.506 1038.83 419.275 1041.22 416.567C1042.73 417.523 1044.2 418.561 1045.68 419.567L1045.87 420.013L1046.39 420.279C1046.94 419.734 1047.01 418.837 1047.2 418.089C1048.15 417.908 1049.12 417.798 1049.97 417.305C1050.24 416.886 1050.33 416.716 1050.35 416.202C1050.37 415.661 1050.44 415.243 1050.56 414.72L1050.62 414.489C1049.58 413.906 1048.61 413.029 1047.67 412.297L1048.25 411.875C1044.33 408.608 1040.18 405.925 1036.12 402.891C1034.36 401.582 1032.74 400.109 1030.97 398.802C1029.33 398.043 1028.45 397.563 1027.59 395.941C1026.4 394.981 1025.04 393.6 1023.4 393.692C1022.69 393.731 1022.26 394.09 1021.8 394.574C1018.55 397.99 1015.71 402.226 1012.72 405.916C1011.25 407.724 1009.65 409.416 1008.19 411.224C1006.31 413.555 1004.62 416.05 1002.78 418.415C997.368 425.305 991.923 432.167 986.442 439ZM862.223 606.693C862.209 607.678 862.146 608.589 861.961 609.556C862.462 609.94 862.904 610.084 863.494 610.283C863.612 612.093 861.133 614.953 859.971 616.278C858.371 618.102 856.092 620.159 855.776 622.688L855.943 622.458L856.226 622.076C856.774 621.333 857.157 620.686 858.006 620.271L858.089 620.175C858.145 619.695 858.359 619.33 858.636 618.938C859.724 617.403 861.175 616.077 862.296 614.524C863.239 613.217 863.717 611.69 864.939 610.611C864.571 611.909 864.324 612.669 864.883 613.956C865.625 614.847 866.678 616.477 867.871 616.686C868.235 616.749 868.647 616.558 868.931 616.326C869.002 616.268 869.034 616.175 869.085 616.1C869.847 614.873 870.846 613.713 871.725 612.562C871.974 612.295 871.898 612.408 872.062 612.124C872.607 611.175 873.257 609.885 874.147 609.237C874.251 609.161 874.377 609.11 874.462 609.014C874.71 608.733 874.882 608.403 875.157 608.116C875.806 608.07 876.428 608.035 877.079 608.08C877.239 608.355 877.402 608.625 877.541 608.912C880.479 605.29 883.459 601.663 886.254 597.93C886.234 597.911 886.216 597.888 886.193 597.872C885.49 597.394 884.456 597.701 883.603 597.728L883.286 597.353L880.617 594.751C880.421 594.608 880.229 594.233 880.091 594.028C880.052 592.405 881.333 591.365 882.343 590.207C882.804 589.603 882.909 588.887 883.309 588.278C884.271 586.807 886.037 588.2 887.461 587.837C888.553 586.405 887.321 586.134 886.874 584.958C886.773 584.691 886.876 583.895 886.876 583.572L886.455 583.684C887.443 580.092 890.278 578.098 892.446 575.277C893.75 573.583 894.82 571.686 895.837 569.809C894.712 570.462 893.527 571.02 892.366 571.605C891.604 571.2 890.617 570.658 889.749 570.605C889.172 570.57 889.094 570.674 888.678 571.023C888.609 572.18 889.958 573.387 890.172 574.618C890.392 575.885 889.969 577.1 889.228 578.123C888.371 579.302 886.876 580.974 885.367 581.203C884.41 581.348 883.339 580.909 882.587 580.34C882.084 579.959 881.559 579.364 881.507 578.725C881.378 577.151 882.892 574.826 883.757 573.504C884.576 572.251 885.897 571.464 886.763 570.243C888.35 568.004 889.534 565.473 891.174 563.263C892.517 561.456 894.253 559.95 895.588 558.152C896.445 557.001 896.913 555.58 897.809 554.459C899.173 552.751 900.87 551.317 902.225 549.588C903.509 547.951 904.47 546.075 905.749 544.43C906.931 542.91 908.438 541.604 909.511 540.003C910.222 538.943 910.642 537.688 911.405 536.661C912.868 534.693 914.7 532.966 916.243 531.054C917.66 529.293 918.796 527.316 920.185 525.531C921.159 524.281 922.558 523.409 923.486 522.15C924.559 520.696 925.36 519.02 926.38 517.522C927.6 515.728 929.091 514.1 930.375 512.344C931.501 510.806 932.452 509.148 933.669 507.677C935.033 505.879 936.787 504.321 938.213 502.552C939.843 500.53 941.156 498.278 942.739 496.212C943.619 495.019 944.732 493.959 945.647 492.776L960.383 473.553C962.123 471.289 963.685 468.074 965.882 466.263C966.527 465.732 967.076 465.653 967.88 465.77C968.267 465.826 968.644 465.908 969.039 465.876C970.024 465.795 970.584 465.01 971.128 464.289C971.159 463.233 970.323 462.887 970.077 461.902C969.902 461.2 970.259 460.388 970.617 459.796C971.729 457.953 973.465 456.25 974.82 454.565C976.337 452.677 977.663 450.644 979.157 448.738C981.654 445.552 984.426 442.534 986.442 439C984.708 440.194 983.132 442.982 981.802 444.659C976.858 450.899 972.008 457.156 967.188 463.486L922.341 521.865L901.462 549.015C895.132 557.095 888.598 565.061 882.746 573.505C879.418 578.304 876.593 583.384 873.676 588.424C870.086 594.656 866.268 600.746 862.223 606.693ZM707.777 819.433C706.828 821.017 702.607 825.706 702.965 827.139C703.421 828.959 709.522 833.166 711.38 834.096C711.749 834.28 712.047 834.328 712.454 834.321C714.185 832.723 717.032 829.061 717.969 826.966C717.459 825.496 710.864 820.599 709.25 819.807C708.778 819.575 708.292 819.506 707.777 819.433ZM697.132 833.473C695.767 834.869 692.043 838.037 692.095 840.048C692.13 841.357 693.364 842.319 694.303 843.046C696.081 844.422 699.795 847.587 701.84 848.269C703.517 846.463 706.27 843.68 707.127 841.391C705.076 838.44 700.952 836.49 698.308 833.99C697.916 833.619 697.646 833.575 697.132 833.473ZM718.317 806.293C717.111 809.195 714.538 811.054 713.394 814.09C715.675 815.301 720.531 820.031 722.357 820.38C722.755 820.456 723.238 820.286 723.62 820.187C725.08 817.885 727.313 815.65 728.465 813.237C728.109 812.093 721.674 807.212 720.312 806.549C719.633 806.219 719.048 806.228 718.317 806.293ZM728.878 793.043C728.844 793.124 728.812 793.205 728.777 793.285C727.865 795.328 724.403 797.826 724.895 800.126C725.792 801.203 732.071 806.31 733.34 806.436L734.07 806.156C735.749 804.492 737.865 801.636 738.802 799.483C738.339 798.399 731.709 793.399 730.492 793.032C729.992 792.881 729.386 792.983 728.878 793.043ZM686.372 847.01C684.665 849.017 682.855 850.908 681.062 852.836C684.896 855.399 688.623 858.818 692.742 860.834C693.507 859.936 697.044 855.75 697.082 854.825C694.3 851.841 690.462 849.845 687.409 847.142L686.372 847.01ZM675.88 859.477C674.731 861.039 672.896 862.985 672.304 864.832C672.652 866.687 679.101 870.852 680.913 872.095C681.771 872.683 682.179 872.926 683.265 872.92C684.569 871.299 686.679 869.446 686.79 867.291C686.354 866.387 678.298 860.055 677.11 859.555C676.637 859.356 676.373 859.411 675.88 859.477ZM740.084 780.162C738.446 781.788 736.333 784.241 735.41 786.355C735.436 787.096 735.865 787.494 736.393 787.983C737.753 789.247 742.238 793.341 743.994 793.217C744.085 793.211 744.171 793.179 744.26 793.159C745.362 791.756 749.084 787.65 749.081 785.966C748.295 785.218 742.388 780.453 741.763 780.183C741.5 780.071 741.198 780.057 740.917 780.066C740.593 780.076 740.394 780.116 740.084 780.162ZM670.92 875.619C668.448 878.791 666.057 882.134 663.41 885.156C665.462 886.834 667.501 888.445 669.885 889.629C672.321 886.476 674.827 883.357 677.169 880.134C675.21 878.69 673.059 876.734 670.92 875.619ZM660.756 868.636C660.715 868.71 660.675 868.785 660.634 868.859C659.456 870.946 655.442 874.489 656.095 876.904C656.485 878.347 658.919 881.708 660.204 882.39C660.529 882.563 660.554 882.544 660.865 882.593C661.086 882.49 661.373 882.404 661.535 882.22C661.564 882.151 661.591 882.082 661.62 882.014C662.815 879.276 667.5 875.847 666.938 872.852C666.591 872.273 666.328 872.2 665.739 871.947C663.988 871.195 662.564 868.839 660.756 868.636ZM750.233 767.995C749.266 769.057 745.662 772.425 745.59 773.644C746.981 776.158 751.569 778.972 754.108 780.256C755.976 778.414 757.284 776.041 759.045 774.085C757.409 772.964 751.725 768.196 750.233 767.995ZM760.683 755.884C759.17 756.611 756.562 759.424 756.011 761.015C755.895 761.351 755.743 761.714 755.906 762.057C756.456 763.211 761.931 767.132 763.12 767.426C763.386 767.492 763.722 767.498 763.998 767.498C764.964 766.343 768.294 762.733 768.231 761.333C767.67 760.062 762.92 756.716 761.569 756.102C761.285 755.971 760.989 755.931 760.683 755.884ZM770.017 743.39C769.048 744.831 765.543 748.112 765.912 749.532C766.395 751.392 771.287 754.586 773.056 755.251C773.33 755.355 773.374 755.36 773.622 755.42C774.728 754.163 777.599 751.097 777.852 749.496C776.798 747.768 771.938 744.065 770.017 743.39ZM779.585 731.909C778.289 733.412 776.105 735.382 775.316 737.146C776.273 738.636 781.653 742.432 783.395 742.869C784.396 741.776 787.581 738.446 787.539 736.975C786.075 734.922 782.989 733.467 781.005 731.883C780.509 731.847 780.078 731.834 779.585 731.909ZM788.65 721.081C787.417 722.407 785.796 724.01 785.131 725.701C785.531 727.359 789.463 729.616 790.881 730.488C791.544 730.894 792.145 731.107 792.908 731.207C793.915 729.946 795.991 728.377 796.157 726.761C795.03 724.687 791.688 722.55 789.766 721.145C789.37 721.089 789.046 721.016 788.65 721.081ZM673.838 890.389C674.044 890.575 674.145 890.672 674.374 890.847C675.704 891.86 679.154 892.116 680.684 891.755C681.322 891.605 681.562 891.429 681.892 890.883C681.809 889.993 681.172 889.408 680.674 888.703L681.006 888.406C680.606 887.988 680.797 888.222 680.442 887.698L680.633 887.135L681.3 886.815C681.963 886.869 682.527 886.927 683.182 886.754C683.706 886.321 683.757 885.834 683.9 885.206C682.648 884.295 681.319 883.416 680.131 882.424C677.972 885.037 675.933 887.729 673.838 890.389ZM794.232 712.786C793.738 713.42 793.147 714.014 793.018 714.83C793.279 715.414 799.885 720.119 800.827 720.469C801.136 720.583 801.313 720.621 801.651 720.713C802.13 719.917 802.341 719.665 802.382 718.719C801.799 717.322 796.72 713.335 795.319 712.823C794.964 712.693 794.596 712.746 794.232 712.786ZM683.9 885.206C683.757 885.834 683.706 886.321 683.182 886.754C682.527 886.927 681.963 886.869 681.3 886.815L680.633 887.135L680.442 887.698C680.797 888.222 680.606 887.988 681.006 888.406L680.674 888.703C681.172 889.408 681.809 889.993 681.892 890.883C681.562 891.429 681.322 891.605 680.684 891.755C679.154 892.116 675.704 891.86 674.374 890.847C674.145 890.672 674.044 890.575 673.838 890.389C673.649 890.636 673.599 890.831 673.506 891.123C673.631 891.33 673.693 891.464 673.894 891.63C674.937 892.492 676.976 892.788 678.281 892.817C680.187 892.859 682.103 892.366 683.456 890.951C684.376 889.988 685.047 888.498 684.988 887.149C684.946 886.205 684.576 885.813 683.9 885.206Z" fill="#030202"/>
<path d="M1034.03 425.696C1035.67 422.507 1038.83 419.276 1041.22 416.568C1042.73 417.523 1044.2 418.562 1045.68 419.568L1045.87 420.014C1045.78 421.458 1045.12 422.117 1044.21 423.208L1043.08 424.72C1041.52 426.582 1039.96 428.437 1038.49 430.366C1035.88 433.324 1033.52 436.591 1031.03 439.663C1028.92 442.188 1023.57 448.212 1022.09 450.795C1020.85 452.359 1017.43 457.332 1015.78 457.75C1014.89 457.361 1014.03 456.863 1013.14 456.501C1012.49 456.162 1011.84 455.83 1011.19 455.504C1011.45 454.24 1012.4 453.226 1013.16 452.212C1014.88 449.844 1016.89 447.604 1018.75 445.337C1020.85 442.603 1022.92 439.839 1024.94 437.043C1027.79 433.158 1030.96 429.411 1034.03 425.696Z" fill="#030202"/>
<path d="M833.633 674.68C836.192 670.9 871.865 627.758 873.026 627.401C873.423 627.279 873.781 627.598 874.13 627.771C874.204 627.866 874.271 627.968 874.351 628.057C875.487 629.35 877.652 628.565 877.746 629.548C876.118 632.635 873.024 635.479 870.782 638.18C868.879 639.356 861.358 649.026 859.477 651.241C851.278 660.9 843.197 670.898 834.336 679.954C834.204 678.164 833.961 676.443 833.633 674.68Z" fill="#030202"/>
<path d="M1005.19 462.953C1006.73 463.97 1008.34 464.87 1009.89 465.861C1007.82 468.75 1005.71 471.605 1003.55 474.424C998.772 481.36 993.049 487.759 987.77 494.312C985.878 496.66 983.786 499.014 982.139 501.533C980.44 503.613 974.58 511.638 972.68 512.171L971.607 511.701C971.405 511.287 971.156 511.167 970.792 510.902C969.899 510.22 969.047 509.491 968.187 508.77C970.208 505.917 972.66 503.218 974.846 500.475C980.788 493.074 986.782 485.715 992.827 478.399C995.623 474.949 998.372 471.461 1001.07 467.936C1002.13 466.561 1003.12 464.929 1004.29 463.666C1004.57 463.363 1004.84 463.18 1005.19 462.953Z" fill="#030202"/>
<path d="M882.152 617.953C881.654 617.438 881.376 617.316 881.307 616.587C883.228 613.841 885.634 611.471 887.712 608.844C895.276 599.282 903.118 590.001 910.819 580.558C912.581 578.398 918.786 569.757 920.299 568.663C920.481 568.532 920.726 568.522 920.938 568.452C921.268 569.029 921.554 569.693 922.09 570.104C922.995 571.139 923.973 571.673 925.2 572.258C921.699 576.458 918.036 580.569 914.647 584.857C914.121 585.557 913.584 586.254 913.072 586.965C907.005 593.831 901.303 601.172 895.524 608.293C893.368 610.948 887.041 619.543 884.713 620.992C884.149 620.664 884.218 620.617 883.959 620.059C883.478 619.146 882.972 618.576 882.152 617.953Z" fill="#030202"/>
<path d="M963.432 514.984C964.689 515.977 965.976 516.908 967.29 517.826C967.765 518.414 967.808 518.403 967.799 519.15C966.499 521.603 961.102 527.589 959.08 530.096L931.77 563.454C930.922 562.965 930.082 562.404 929.162 562.067C928.563 561.617 928.085 561.497 927.372 561.345L927.126 560.83C927.146 560.619 927.094 560.387 927.186 560.197C928.025 558.458 934.457 551.138 936.177 548.991L951.423 530.065C955.402 525.03 959.222 519.828 963.432 514.984Z" fill="#030202"/>
</g>
</g>
<defs>
<clipPath id="clip0_611_202405">
<rect width="1080" height="1080" fill="white"/>
</clipPath>
<clipPath id="clip1_611_202405">
<rect width="517" height="517" fill="white" transform="translate(570 413.709) rotate(-6.96685)"/>
</clipPath>
</defs>
</svg>
