<svg width="1080" height="1080" viewBox="0 0 1080 1080" fill="none" xmlns="http://www.w3.org/2000/svg">
<g clip-path="url(#clip0_473_481)">
<path d="M900.653 836.655C900.589 835.985 900.528 835.38 900.419 834.248C899.658 840.832 895.042 844.505 891.454 848.714C887.689 853.133 883.438 857.152 879.252 861.193C874.293 865.98 868.623 869.807 862.787 873.507C855.802 877.939 849.245 883.048 842.594 887.989C840.238 889.741 838.155 891.858 835.931 893.785C835.486 894.171 834.979 894.501 834.463 894.783C816.987 904.289 798.275 910.4 778.965 914.832C771.243 916.603 763.545 918.513 755.757 919.94C749.148 921.15 742.444 921.968 735.748 922.537C731.606 922.889 727.392 922.494 723.214 922.359C719.557 922.24 715.901 922.038 712.246 921.826C710.776 921.739 709.945 922.297 709.427 923.725C707.193 929.894 704.866 936.029 702.449 942.497C696.259 939.935 690.276 937.85 684.658 935.032C677.646 931.512 670.984 927.303 664.079 923.56C660.542 921.642 656.851 919.973 653.141 918.417C649.502 916.892 648.3 915.083 649.802 911.51C650.79 909.16 652.429 907.031 654.047 905.019C656.531 901.941 659.319 899.116 661.839 896.063C664.094 893.325 664.936 890.538 663.23 886.841C658.902 877.449 656.12 867.508 653.542 857.502C652.107 851.944 649.861 846.586 648.511 841.014C646.855 834.176 645.709 827.217 644.44 820.292C644.075 818.291 644.073 816.226 643.871 814.195C643.717 812.691 644.343 812.461 645.538 813.114C645.889 813.307 646.196 813.583 646.783 814.005C646.36 812.661 646.052 811.684 645.729 810.652C644.847 811.372 644.205 811.899 642.984 812.9C642.466 806.149 641.927 800.153 641.571 794.144C641.19 787.658 640.741 781.165 640.753 774.672C640.769 766.025 641.18 757.377 641.47 748.732C641.541 746.569 641.897 744.415 641.952 742.252C642.21 732.35 644.366 722.728 646.044 713.028C646.942 707.831 647.144 702.511 648.11 697.333C649.01 692.52 650.562 687.836 651.717 683.067C652.819 678.516 653.794 673.934 654.794 669.361C655.224 667.394 656.225 665.643 656.564 663.609C656.942 661.353 657.838 659.163 658.721 657.032C659.066 656.2 659.98 655.607 660.625 654.911C658.75 653.756 661.034 652.585 660.951 650.545C662.368 651.488 663.257 652.483 664.274 652.635C665.262 652.785 666.377 652.075 667.145 651.834C665.476 651.218 663.824 650.611 662.167 650.002C664.94 648.274 665.051 647.803 663.485 645.473C663.271 645.152 663.35 644.529 663.477 644.094C664.282 641.343 664.836 638.468 666.031 635.895C669.727 627.92 670.794 619.169 673.639 610.962C677.088 601.013 680.749 591.141 684.264 581.214C687.258 572.767 690.299 564.325 693.058 555.799C694.098 552.587 694.413 549.138 695.166 545.237C698.084 546.662 701.104 548.012 703.997 549.599C705.683 550.525 707.01 551.282 709.135 550.325C710.573 549.677 712.698 549.96 714.261 550.525C714.759 550.704 714.439 553.138 714.504 554.903C717.583 556.68 721.196 558.429 724.44 560.712C731.156 565.429 737.871 570.193 744.237 575.363C756.88 585.634 771.301 592.347 786.703 597.074C794.04 599.324 801.517 601.265 809.06 602.627C818.847 604.398 828.399 602.476 837.73 599.32C841.199 598.148 844.696 596.998 848.251 596.152C850.445 595.634 852.146 594.853 853.043 592.689C853.765 590.953 854.837 590.903 856.405 591.845C858.574 593.149 860.85 594.302 863.166 595.323C865.581 596.39 866.695 598.029 866.691 600.714C866.69 601.938 867.203 603.323 867.896 604.361C870.963 608.953 874.569 613.224 877.254 618.021C882.799 627.929 890.37 635.894 899.069 643.027C904.724 647.667 909.756 653.062 915.44 657.661C927.63 667.521 941.158 674.999 956.15 679.853C964.935 682.694 973.891 684.494 982.971 685.96C987.523 686.695 991.933 688.199 996.66 687.722C998.726 687.515 999.001 689.168 998.253 690.411C995.919 694.281 996.78 698.336 996.954 702.43C997.014 703.907 996.419 705.649 995.566 706.883C993.074 710.481 989.954 713.674 987.711 717.406C982.904 725.408 978.528 733.67 973.904 741.788C972.696 743.907 971.204 745.862 969.9 747.931C969.177 749.075 968.511 749.987 966.88 749.414C966.19 749.171 965.315 749.439 964.015 749.497C965.425 750.047 966.377 750.42 967.853 750.992C966.971 751.629 966.386 752.049 965.587 752.625C965.738 753.594 964.007 756.925 962.503 757.338C961.725 757.553 960.254 758.778 960.247 756.337L956.849 762.222C957.462 761.871 958.294 761.392 959.124 760.916L959.761 761.808C958.114 764.363 956.635 767.052 954.79 769.457C947.975 778.339 941.055 787.134 934.148 795.942C931.531 799.28 928.836 802.563 926.193 805.882C924.097 808.515 922.182 811.32 919.893 813.775C916.968 816.909 914.849 820.795 911.568 823.502C907.164 827.131 905.022 832.414 901.22 836.428C901.13 836.521 900.968 836.541 900.664 836.672L900.653 836.655ZM701.388 888.627C701.413 888.89 701.523 889.203 701.456 889.471C700.375 893.851 701.851 895.186 706.511 895.942C710.483 896.586 714.51 896.945 718.522 897.311C734.336 898.755 749.927 897.393 765.115 892.775C770.069 891.268 774.831 888.934 779.448 886.537C785.876 883.205 792.026 879.339 798.408 875.907C809.216 870.094 819.862 864.103 829.209 856.003C833.88 851.957 838.809 848.175 843.845 844.594C850.354 839.97 857.273 835.915 863.689 831.175C880.568 818.71 894.838 803.728 906.742 786.39C912.496 778.015 917.478 769.351 921.656 760.083C925.911 750.636 931.014 741.564 935.874 732.4C939.01 726.482 943.587 721.396 945.627 714.815C946.335 712.537 945.934 711.47 944.081 710.213C939.821 707.318 935.765 704.115 931.523 701.189C925.127 696.781 918.698 692.421 912.169 688.215C908.968 686.155 905.578 684.369 902.167 682.664C894.176 678.673 887.622 672.731 880.801 667.154C872.254 660.171 863.08 653.878 856.733 644.503C854.985 641.922 852.588 639.729 848.797 640.668C848.644 639.335 848.482 638.158 848.372 636.974C847.609 628.867 841.382 623.778 833.46 624.692C827.251 625.407 821.056 625.316 814.991 623.588C811.077 622.475 807.272 620.869 803.304 620.119C799.303 619.364 795.159 619.135 791.076 619.143C784.46 619.151 778.335 617.347 772.556 614.451C757.986 607.149 743.591 599.528 730.082 590.344C727.991 588.924 725.928 587.463 723.709 585.923C723.25 586.529 722.833 587.035 722.461 587.572C718.697 592.967 714.861 598.309 711.202 603.774C706.032 611.489 701.275 619.459 697.956 628.165C694.68 636.751 692.064 645.614 688.363 654.001C685.461 660.583 683.365 667.241 682.291 674.297C681.909 676.81 681.624 679.353 680.978 681.802C679.263 688.296 677.28 694.724 675.583 701.223C673.86 707.812 672.065 714.399 670.813 721.079C669.494 728.118 668.542 735.25 667.87 742.382C667.094 750.612 666.744 758.885 666.32 767.141C666.151 770.482 666.266 773.842 666.251 776.888C665.359 777.255 664.666 777.54 663.522 778.01C665.587 778.497 665.526 778.503 665.785 781.111C666.154 784.867 666.665 788.611 667.012 792.369C667.099 793.322 666.785 794.308 666.635 795.44C666.741 795.47 667.195 795.602 668.224 795.896C667.114 796.318 666.561 796.528 666.012 796.735C668.278 797.151 668.072 798.873 668.257 800.36C668.862 805.253 669.386 810.161 670.115 815.037C671.332 823.157 672.629 831.266 674.017 839.36C674.416 841.696 674.977 844.079 675.916 846.245C678.776 852.823 681.894 859.286 684.836 865.829C687.687 872.164 690.23 878.643 693.313 884.862C695.693 889.665 695.971 889.525 701.117 888.549C701.182 888.534 701.259 888.589 701.398 888.628L701.388 888.627ZM847.191 615.13C849.703 619.443 851.932 624.102 854.917 628.216C861.453 637.218 868.37 645.947 875.135 654.785C880.387 661.651 886.031 668.099 893.804 672.28C899.136 675.151 904.556 677.871 909.769 680.948C917.738 685.653 925.567 690.598 933.437 695.464C937.254 697.823 941.156 700.071 944.797 702.681C947.872 704.887 950.537 707.317 954.861 706.946C957.533 706.714 957.806 707.661 957.073 710.297C956.934 710.798 956.694 711.375 956.822 711.828C957.776 715.174 955.557 716.761 953.3 718.316C948.745 721.459 945.421 725.526 943.371 730.722C940.32 738.452 936.07 745.542 931.48 752.451C929.672 755.168 928.198 758.108 926.563 760.94C925.047 763.566 923.623 766.229 922.276 768.958C918.886 775.828 915.188 782.557 911.43 789.236C910.448 790.982 908.797 792.358 907.483 793.871C907.39 793.807 907.68 794.006 907.972 794.2C907.297 794.391 906.621 794.582 906.508 794.615C905.845 796.141 905.569 797.662 904.693 798.64C901.131 802.616 897.646 806.729 893.655 810.244C882.17 820.367 870.508 830.293 858.808 840.167C851.449 846.38 843.637 852.072 836.507 858.526C829.921 864.485 822.951 869.755 815.121 873.871C808.91 877.131 802.571 880.157 796.277 883.256C792.259 885.236 788.334 887.487 784.147 889.022C778.978 890.919 774.177 893.349 769.578 896.342C767.632 897.61 765.34 898.605 763.068 899.062C758.679 899.951 754.171 900.227 749.756 901.024C738.28 903.096 726.824 905.268 715.382 907.505C713.282 907.916 711.844 907.647 710.649 905.717C708.589 902.401 705.475 901.142 701.564 900.996C697.946 900.862 694.358 899.994 690.741 899.581C688.644 899.34 688.531 898.232 689.13 896.638C690.129 893.963 689.792 891.346 688.767 888.763C687.828 886.4 686.846 884.054 685.95 881.68C683.279 874.63 681.327 867.289 677.251 860.812C670.129 849.491 666.279 836.889 663.788 823.937C662.219 815.779 661.882 807.384 661.106 799.084C661 797.954 661.811 796.757 661.775 795.606C661.74 794.471 662.813 793.052 661.152 792.119C660.864 791.953 660.762 791.24 660.777 790.782C660.805 789.683 660.955 788.587 661.059 787.444C663.031 786.798 663.249 786.374 662.219 784.789C661.973 785.456 661.748 786.052 661.527 786.651C661.347 786.604 661.167 786.557 660.986 786.51C661.165 785.715 661.504 784.921 661.493 784.131C661.424 779.335 661.151 774.54 661.17 769.743C661.202 762.282 661.618 754.82 661.494 747.368C661.322 737.025 662.777 726.999 665.763 717.099C668.626 707.601 671.613 698.086 673.611 688.389C675.586 678.792 677.42 669.208 680.427 659.865C686.221 641.847 692.302 623.962 701.595 607.346C706.195 599.125 710.511 590.751 714.958 582.447C715.795 580.881 716.361 579.486 714.905 577.775C714.343 577.113 714.46 575.355 714.964 574.509C715.275 573.989 716.902 574.109 717.921 574.178C719.044 574.256 720.146 574.602 721.26 574.83C721.379 574.562 721.498 574.293 721.616 574.025C721.077 573.376 720.642 572.575 719.974 572.106C718.018 570.739 715.935 569.546 713.96 568.204C712.5 567.21 711.498 567.498 710.722 569.031C709.105 572.227 707.406 575.385 705.854 578.612C697.979 594.968 690.183 611.364 682.27 627.703C678.043 636.435 675.607 645.724 673.284 655.078C671.277 663.156 669.259 671.244 666.893 679.225C663.606 690.32 659.531 701.198 656.675 712.392C654.729 720.013 654.498 728.054 653.14 735.844C651.156 747.198 650.7 758.522 652.14 769.987C652.718 774.568 654.067 779.17 653 783.885C652.95 784.106 653.452 784.406 653.572 784.719C653.778 785.252 654.016 785.82 654.009 786.371C653.964 789.613 653.85 792.857 653.758 796.325C653.288 795.924 652.794 795.504 652.3 795.084C652.156 795.224 652.013 795.364 651.868 795.509C652.567 796.229 653.267 796.949 654.168 797.879C654.19 798.245 654.218 798.987 654.266 799.731C654.731 806.809 654.775 813.95 655.765 820.954C657.472 832.998 659.601 844.994 661.874 856.95C664.437 870.432 668.839 883.238 676.952 894.55C679.516 898.126 681.777 901.921 684.24 905.574C685.872 907.988 688.139 908.727 691.06 908.313C693.468 907.971 695.962 908.02 698.401 908.163C702.861 908.42 707.333 909.357 711.756 909.147C721.375 908.683 730.966 907.711 740.56 906.876C746.737 906.334 752.952 905.96 759.057 904.967C765.168 903.972 771.182 902.346 777.216 900.902C778.937 900.491 780.574 899.714 782.278 899.198C786.057 898.055 789.834 896.896 793.653 895.9C796.035 895.279 798.66 895.353 800.884 894.422C808.859 891.07 817.041 888.008 824.514 883.729C832.382 879.225 839.795 873.801 846.915 868.155C857.852 859.485 868.685 850.626 878.957 841.193C887.391 833.443 894.851 824.648 902.926 816.494C907.713 811.665 912.461 806.828 917.06 801.812C920.232 798.348 922.465 794.31 925.463 790.771C928.567 787.112 930.902 782.797 933.577 778.776C938.058 772.048 942.755 765.449 946.97 758.562C952.305 749.843 957.254 740.884 962.372 732.029C967.157 723.749 971.895 715.437 976.766 707.206C978.43 704.396 980.445 701.795 982.671 698.551C980.48 697.655 978.606 696.568 976.59 696.114C968.934 694.391 961.188 693.057 953.563 691.227C946.303 689.484 938.83 687.84 932.9 682.975C918.744 671.363 904.536 659.794 890.872 647.616C883.202 640.776 876.688 632.653 869.419 625.344C867.216 623.128 864.362 621.403 861.539 620.001C858.26 618.372 855.653 616.893 856.113 612.465C856.444 609.295 853.48 607.345 850.526 608.264C844.551 610.12 838.488 610.987 832.189 610.815C827.208 610.678 822.198 611.105 817.215 611.485C809.412 612.084 801.624 613.889 793.791 612.121C785.92 610.341 778.173 608.182 771.371 603.497C768.378 601.437 765.225 599.555 761.973 597.942C756.231 595.088 750.128 592.897 744.602 589.697C739.262 586.604 734.465 582.573 729.413 578.972C728.32 578.196 727.164 577.502 726.04 576.771C725.866 576.955 725.692 577.14 725.522 577.327C725.952 577.866 726.319 578.472 726.821 578.933C729.51 581.403 732.229 583.839 734.949 586.281C735.838 587.08 736.661 587.991 737.658 588.618C743.077 592.032 748.554 595.345 753.968 598.766C754.622 599.18 755.007 600.014 755.297 600.384C755.833 600.362 756.491 600.14 756.966 600.341C759.235 601.309 761.421 602.467 763.693 603.421C771.682 606.778 779.683 610.106 787.707 613.375C788.929 613.873 790.282 614.172 791.598 614.283C795.08 614.572 798.599 614.508 802.056 614.937C808.794 615.778 815.478 617.163 822.235 617.755C827.558 618.224 833.097 618.59 838.141 616.243C841.04 614.898 843.807 614.078 847.191 615.12L847.191 615.13ZM698.797 917.059C695.214 915.446 691.358 915.59 687.489 915.955C683.68 916.314 679.88 916.749 675.504 917.21C677.264 912.785 676.773 909.276 674.357 905.894C673.231 904.321 672.217 903.875 670.706 904.901C668.794 906.199 666.967 907.629 665.12 909.021C663.706 910.087 663.893 911.201 664.987 912.424C667.699 915.448 671.043 917.565 674.807 918.929C680.899 921.14 687.062 923.157 693.198 925.247C694.628 925.736 695.688 925.347 696.24 923.861C697.07 921.642 697.907 919.429 698.803 917.057L698.797 917.059ZM701.617 572.083C696.549 577.311 687.462 595.628 687.264 600.825C692.176 598.412 702.33 578.299 701.617 572.083ZM696.227 570.642C698.265 567.265 700.212 563.83 704.521 562.568C703.482 560.951 702.667 559.676 701.82 558.357C698.151 561.836 696.669 565.031 696.227 570.642ZM751.901 914.305C750.049 911.312 748.854 911.773 745.388 914.181C747.559 914.843 749.585 915.909 751.901 914.305Z" fill="black"/>
<path d="M701.388 888.627C701.252 888.585 701.172 888.534 701.107 888.548C695.957 889.522 695.682 889.658 693.303 884.862C690.224 878.644 687.677 872.163 684.827 865.829C681.884 859.286 678.766 852.822 675.906 846.244C674.967 844.078 674.411 841.698 674.007 839.359C672.619 831.265 671.322 823.157 670.105 815.037C669.376 810.16 668.852 805.252 668.247 800.359C668.062 798.873 668.274 797.149 666.002 796.734C666.552 796.528 667.1 796.315 668.214 795.895C667.185 795.602 666.732 795.47 666.625 795.439C666.775 794.307 667.09 793.322 667.002 792.369C666.655 788.61 666.144 784.866 665.775 781.11C665.52 778.505 665.581 778.498 663.512 778.009C664.656 777.539 665.349 777.255 666.241 776.888C666.256 773.841 666.139 770.485 666.311 767.141C666.736 758.88 667.084 750.611 667.86 742.382C668.533 735.249 669.489 728.12 670.804 721.078C672.057 714.395 673.849 707.805 675.573 701.223C677.274 694.726 679.253 688.296 680.969 681.801C681.614 679.353 681.899 676.81 682.281 674.297C683.353 667.245 685.447 660.58 688.353 654.001C692.054 645.613 694.67 636.75 697.946 628.164C701.265 619.458 706.026 611.491 711.192 603.774C714.851 598.308 718.688 592.966 722.451 587.572C722.823 587.035 723.24 586.528 723.699 585.922C725.918 587.462 727.981 588.923 730.072 590.343C743.575 599.529 757.976 607.149 772.546 614.45C778.326 617.346 784.451 619.15 791.066 619.142C795.15 619.134 799.297 619.366 803.295 620.118C807.268 620.867 811.074 622.472 814.981 623.587C821.046 625.315 827.241 625.406 833.45 624.691C841.373 623.778 847.605 628.865 848.362 636.973C848.473 638.157 848.634 639.334 848.787 640.668C852.576 639.722 854.978 641.918 856.724 644.503C863.066 653.875 872.24 660.168 880.791 667.153C887.619 672.729 894.166 678.672 902.157 682.663C905.565 684.366 908.959 686.154 912.159 688.215C918.688 692.42 925.115 696.784 931.513 701.189C935.757 704.111 939.809 707.311 944.071 710.213C945.922 711.473 946.323 712.54 945.618 714.814C943.575 721.399 938.998 726.485 935.864 732.399C931.004 741.564 925.901 750.635 921.646 760.082C917.472 769.353 912.486 778.015 906.733 786.389C894.824 803.725 880.558 818.71 863.679 831.174C857.263 835.914 850.341 839.967 843.835 844.593C838.795 848.172 833.866 851.955 829.199 856.003C819.852 864.102 809.204 870.097 798.398 875.907C792.016 879.338 785.866 883.205 779.438 886.537C774.818 888.931 770.06 891.267 765.105 892.774C749.917 897.392 734.33 898.756 718.512 897.311C714.5 896.944 710.473 896.585 706.501 895.941C701.841 895.186 700.365 893.851 701.447 889.47C701.513 889.202 701.407 888.892 701.378 888.627L701.388 888.627ZM694.942 725.657C695.237 725.677 695.529 725.701 695.824 725.72C696.201 724.403 696.863 723.094 696.892 721.767C696.957 719.03 696.847 716.264 696.506 713.547C696.127 710.527 694.785 709.84 691.882 710.752C690.525 711.178 689.988 711.749 690.65 713.335C691.646 715.726 692.263 718.271 693.094 720.732C693.658 722.39 694.321 724.018 694.938 725.655L694.942 725.657ZM904.496 727.167C910.337 729.165 915.752 729.61 917.923 726.309C915.634 724.988 913.356 723.631 911.03 722.366C910.564 722.112 909.771 721.976 909.353 722.196C907.246 723.329 905.599 724.951 904.498 727.163L904.496 727.167ZM698.157 808.935C700.335 810.26 702.532 809.78 703.9 807.707C704.246 807.18 703.381 805.488 702.664 804.706C701.574 803.511 700.231 802.44 698.791 801.718C697.993 801.319 696.318 801.353 695.869 801.888C695.178 802.708 694.628 804.424 695.047 805.236C695.863 806.833 697.386 808.069 698.161 808.937L698.157 808.935ZM701.511 822.541C700.912 819.219 699.05 816.8 697.345 814.342C695.934 812.309 692.427 812.784 691.541 815.11C691.351 815.602 691.535 816.549 691.914 816.891C694.622 819.363 697.512 821.576 701.515 822.544L701.511 822.541ZM718.067 866.669C721.362 869.231 726.753 868.692 729.113 865.567C723.976 863.193 720.897 863.501 718.067 866.669ZM913.623 733.775C910.642 732.412 908.068 732.377 905.73 733.694C904.901 734.159 904.681 735.708 904.188 736.761C905.37 737.112 906.823 738.075 907.681 737.694C909.707 736.799 911.454 735.266 913.627 733.777L913.623 733.775ZM728.559 640.196C730.963 636.356 730.122 633.183 726.415 631.66C723.942 634.703 724.312 636.255 728.559 640.196ZM902.383 718.701C907.932 718.834 909.116 718.014 909.946 713.737C905.76 712.69 904.576 716.171 902.383 718.701ZM717.236 638.804C718.881 639.333 719.796 639.628 721.044 640.027C720.848 638.498 720.702 637.366 720.453 635.443C719.227 636.722 718.438 637.548 717.236 638.804Z" fill="#3D3D47"/>
<path d="M847.192 615.13C843.808 614.089 841.041 614.908 838.142 616.253C833.1 618.596 827.561 618.23 822.236 617.765C815.479 617.173 808.795 615.788 802.057 614.948C798.596 614.516 795.077 614.58 791.599 614.294C790.281 614.186 788.93 613.883 787.708 613.385C779.683 610.116 771.683 606.789 763.694 603.431C761.422 602.477 759.232 601.317 756.967 600.351C756.492 600.15 755.83 600.37 755.297 600.394C755.005 600.028 754.623 599.19 753.969 598.776C748.555 595.355 743.078 592.042 737.659 588.628C736.662 588.001 735.839 587.09 734.95 586.292C732.233 583.852 729.514 581.416 726.822 578.943C726.32 578.482 725.953 577.876 725.523 577.337C725.697 577.152 725.871 576.968 726.041 576.781C727.165 577.513 728.323 578.202 729.414 578.982C734.465 582.583 739.259 586.611 744.602 589.707C750.128 592.907 756.23 595.102 761.974 597.952C765.23 599.567 768.382 601.45 771.372 603.507C778.174 608.192 785.918 610.355 793.792 612.131C801.624 613.899 809.413 612.094 817.216 611.495C822.199 611.115 827.209 610.688 832.19 610.825C838.489 610.997 844.553 610.136 850.527 608.274C853.481 607.355 856.445 609.305 856.114 612.475C855.656 616.899 858.261 618.383 861.54 620.011C864.367 621.415 867.215 623.142 869.42 625.354C876.689 632.663 883.203 640.786 890.873 647.626C904.533 659.802 918.742 671.377 932.901 682.985C938.831 687.851 946.304 689.494 953.564 691.238C961.193 693.07 968.935 694.401 976.591 696.124C978.607 696.578 980.483 697.661 982.672 698.561C980.445 701.799 978.43 704.406 976.766 707.217C971.895 715.447 967.161 723.756 962.373 732.039C957.255 740.895 952.306 749.853 946.971 758.572C942.754 765.463 938.055 772.055 933.578 778.786C930.901 782.811 928.567 787.122 925.464 790.782C922.466 794.32 920.233 798.358 917.06 801.822C912.462 806.838 907.714 811.675 902.927 816.505C894.85 824.652 887.392 833.453 878.958 841.203C868.684 850.64 857.849 859.493 846.916 868.165C839.795 873.811 832.382 879.235 824.515 883.739C817.044 888.015 808.86 891.08 800.885 894.432C798.659 895.367 796.034 895.293 793.653 895.91C789.835 896.906 786.058 898.065 782.279 899.208C780.575 899.724 778.942 900.503 777.216 900.912C771.181 902.35 765.169 903.983 759.058 904.977C752.949 905.968 746.736 906.348 740.561 906.886C730.964 907.725 721.37 908.695 711.757 909.157C707.332 909.371 702.86 908.434 698.402 908.173C695.963 908.031 693.469 907.981 691.061 908.323C688.139 908.737 685.872 907.999 684.241 905.584C681.776 901.935 679.517 898.136 676.953 894.56C668.844 883.25 664.436 870.446 661.875 856.96C659.602 845.005 657.473 833.008 655.766 820.964C654.772 813.958 654.732 806.819 654.267 799.741C654.219 798.997 654.185 798.257 654.169 797.889C653.268 796.96 652.568 796.239 651.869 795.519C652.012 795.378 652.155 795.238 652.301 795.094C652.795 795.514 653.293 795.937 653.758 796.335C653.853 792.863 653.965 789.623 654.01 786.381C654.016 785.83 653.777 785.256 653.573 784.729C653.453 784.416 652.947 784.114 653.001 783.895C654.068 779.18 652.716 774.582 652.141 769.997C650.701 758.532 651.161 747.211 653.141 735.854C654.499 728.064 654.734 720.026 656.676 712.402C659.534 701.205 663.609 690.326 666.894 679.235C669.26 671.254 671.282 663.169 673.285 655.088C675.608 645.734 678.042 636.449 682.271 627.713C690.184 611.374 697.98 594.978 705.855 578.622C707.407 575.395 709.106 572.237 710.723 569.041C711.497 567.512 712.502 567.226 713.961 568.214C715.936 569.557 718.015 570.746 719.974 572.116C720.643 572.585 721.074 573.384 721.617 574.035C721.498 574.303 721.38 574.572 721.261 574.84C720.147 574.612 719.043 574.26 717.922 574.188C716.903 574.119 715.276 573.999 714.965 574.52C714.465 575.367 714.348 577.125 714.906 577.785C716.362 579.497 715.802 580.89 714.959 582.457C710.508 590.759 706.19 599.137 701.596 607.356C692.303 623.972 686.222 641.857 680.427 659.875C677.42 669.218 675.591 678.805 673.612 688.399C671.614 698.096 668.627 707.611 665.764 717.109C662.78 727.005 661.322 737.035 661.495 747.378C661.619 754.83 661.2 762.296 661.171 769.753C661.152 774.55 661.421 779.343 661.494 784.141C661.505 784.931 661.163 785.729 660.987 786.52C661.168 786.567 661.348 786.614 661.528 786.661C661.749 786.063 661.97 785.464 662.22 784.799C663.248 786.378 663.031 786.808 661.06 787.454C660.955 788.597 660.805 789.693 660.778 790.792C660.765 791.246 660.865 791.963 661.153 792.129C662.81 793.06 661.737 794.479 661.776 795.616C661.812 796.768 661.001 797.965 661.107 799.094C661.878 807.392 662.22 815.79 663.789 823.947C666.282 836.895 670.13 849.501 677.252 860.822C681.328 867.299 683.28 874.64 685.951 881.69C686.851 884.067 687.832 886.412 688.768 888.773C689.793 891.357 690.126 893.971 689.13 896.648C688.536 898.245 688.645 899.35 690.742 899.591C694.359 900.004 697.947 900.872 701.565 901.006C705.476 901.153 708.592 902.407 710.65 905.727C711.847 907.653 713.285 907.922 715.383 907.515C726.827 905.274 738.283 903.102 749.757 901.034C754.171 900.237 758.679 899.961 763.069 899.072C765.337 898.613 767.629 897.618 769.579 896.353C774.177 893.359 778.983 890.931 784.148 889.032C788.335 887.497 792.26 885.246 796.278 883.266C802.572 880.167 808.911 877.142 815.121 873.881C822.951 869.765 829.922 864.495 836.508 858.536C843.638 852.082 851.452 846.386 858.809 840.177C870.508 830.303 882.171 820.377 893.656 810.255C897.649 806.735 901.132 802.626 904.694 798.65C905.57 797.672 905.844 796.155 906.509 794.625C906.622 794.592 907.297 794.401 907.973 794.21C907.681 794.016 907.388 793.821 907.484 793.881C908.798 792.368 910.446 790.996 911.431 789.246C915.188 782.567 918.887 775.838 922.277 768.968C923.624 766.239 925.048 763.576 926.564 760.95C928.199 758.118 929.677 755.18 931.481 752.461C936.071 745.552 940.321 738.462 943.372 730.732C945.422 725.536 948.746 721.469 953.3 718.326C955.554 716.769 957.776 715.184 956.823 711.838C956.695 711.386 956.935 710.808 957.074 710.307C957.807 707.671 957.534 706.724 954.862 706.956C950.536 707.332 947.873 704.897 944.798 702.691C941.157 700.081 937.255 697.833 933.438 695.474C925.564 690.606 917.739 685.663 909.77 680.958C904.56 677.883 899.137 675.161 893.804 672.29C886.032 668.109 880.39 661.657 875.136 654.795C868.371 645.957 861.452 637.232 854.918 628.226C851.933 624.112 849.704 619.453 847.191 615.14L847.192 615.13Z" fill="#3D3D47"/>
<path d="M698.799 917.059C697.908 919.429 697.065 921.644 696.236 923.862C695.68 925.346 694.623 925.738 693.193 925.249C687.057 923.159 680.897 921.137 674.802 918.931C671.038 917.567 667.698 915.452 664.982 912.426C663.888 911.203 663.701 910.089 665.115 909.023C666.962 907.63 668.789 906.201 670.701 904.903C672.212 903.877 673.23 904.325 674.352 905.896C676.773 909.28 677.263 912.789 675.499 917.212C679.875 916.751 683.676 916.315 687.484 915.957C691.353 915.592 695.209 915.448 698.793 917.061L698.799 917.059Z" fill="#3D3D47"/>
<path d="M701.618 572.084C702.331 578.299 692.177 598.412 687.265 600.825C687.463 595.629 696.55 577.311 701.618 572.084Z" fill="#3D3D47"/>
<path d="M696.228 570.642C696.67 565.031 698.152 561.836 701.821 558.357C702.664 559.674 703.482 560.945 704.522 562.568C700.213 563.83 698.266 567.265 696.228 570.642Z" fill="#3D3D47"/>
<path d="M751.903 914.306C749.593 915.907 747.563 914.839 745.39 914.181C748.85 911.775 750.049 911.316 751.903 914.306Z" fill="#3D3D47"/>
<path d="M694.941 725.657C694.321 724.018 693.661 722.392 693.098 720.734C692.26 718.274 691.65 715.728 690.653 713.337C689.991 711.752 690.529 711.18 691.885 710.755C694.788 709.843 696.126 710.527 696.509 713.549C696.85 716.266 696.96 719.032 696.895 721.77C696.866 723.096 696.204 724.405 695.827 725.723C695.532 725.703 695.24 725.679 694.945 725.659L694.941 725.657Z" fill="black"/>
<path d="M904.495 727.167C905.6 724.957 907.243 723.333 909.35 722.2C909.77 721.976 910.561 722.116 911.027 722.37C913.353 723.635 915.631 724.992 917.92 726.313C915.75 729.614 910.334 729.169 904.493 727.171L904.495 727.167Z" fill="black"/>
<path d="M698.159 808.935C697.385 808.063 695.867 806.829 695.044 805.233C694.63 804.424 695.179 802.708 695.867 801.886C696.315 801.351 697.99 801.317 698.788 801.715C700.224 802.436 701.571 803.509 702.662 804.704C703.378 805.486 704.247 807.18 703.897 807.705C702.529 809.778 700.332 810.258 698.155 808.933L698.159 808.935Z" fill="black"/>
<path d="M701.511 822.541C697.511 821.57 694.619 819.361 691.91 816.889C691.536 816.549 691.351 815.602 691.537 815.108C692.427 812.784 695.931 812.307 697.341 814.34C699.046 816.798 700.913 819.219 701.507 822.539L701.511 822.541Z" fill="black"/>
<path d="M718.066 866.669C720.897 863.501 723.975 863.193 729.112 865.567C726.757 868.694 721.364 869.227 718.066 866.669Z" fill="black"/>
<path d="M913.625 733.775C911.452 735.264 909.71 736.799 907.679 737.692C906.821 738.073 905.369 737.11 904.186 736.759C904.683 735.708 904.903 734.159 905.728 733.692C908.066 732.375 910.641 732.41 913.621 733.772L913.625 733.775Z" fill="black"/>
<path d="M728.561 640.196C724.317 636.257 723.943 634.703 726.416 631.66C730.124 633.183 730.965 636.356 728.561 640.196Z" fill="black"/>
<path d="M902.385 718.701C904.578 716.171 905.763 712.69 909.948 713.737C909.122 718.016 907.934 718.834 902.385 718.701Z" fill="black"/>
<path d="M717.237 638.804C718.439 637.548 719.227 636.722 720.454 635.443C720.703 637.366 720.849 638.498 721.045 640.027C719.799 639.624 718.884 639.329 717.237 638.804Z" fill="black"/>
<path d="M84.6446 458.519C85.3718 459.356 86.2222 460.121 86.799 461.05C88.6208 463.995 90.2417 467.059 92.1154 469.973C94.8102 474.167 97.6633 478.258 100.437 482.401C104.703 488.771 108.924 495.168 113.236 501.507C117.506 507.779 121.871 513.977 126.155 520.237C126.374 520.558 126.214 521.131 126.225 521.595C128.909 521.667 129.346 522.752 128.509 527.072C128.949 526.417 129.288 525.638 129.863 525.139C130.395 524.678 131.183 524.52 131.852 524.227C131.982 524.508 132.116 524.796 132.246 525.077C131.565 525.669 130.88 526.254 130.228 526.821C144.675 547.234 159.123 567.647 173.623 588.134C174.234 587.979 175.104 587.76 176.433 587.424C175.318 589.03 174.614 590.05 174.32 590.462C175.846 591.732 177.016 592.41 177.792 593.397C181.931 598.668 186.049 603.962 190.011 609.364C192.607 612.905 194.881 616.687 197.375 620.301C198.516 621.955 199.878 623.456 201.092 625.063C202.154 626.47 203.378 627.826 204.107 629.399C204.979 631.285 205.964 632.546 208.19 632.899C210.621 633.289 211.071 634.708 209.778 636.514C213.657 641.284 217.502 646.04 221.377 650.765C223.445 653.291 225.593 655.744 227.648 658.277C228.92 659.849 230.082 661.508 231.287 663.128C234.08 666.88 236.886 670.625 239.666 674.384C240.588 675.635 241.437 676.932 242.351 678.191C245.165 682.053 247.959 685.931 250.854 689.732C251.252 690.253 252.454 690.807 252.853 690.581C254.731 689.526 255.382 690.486 255.652 691.665C259.729 691.236 263.666 690.82 267.6 690.414C271.15 690.046 274.731 689.856 278.249 689.276C280.734 688.867 282.369 689.632 283.833 691.567C285.399 693.638 287.159 695.573 288.904 697.504C290.384 699.141 290.472 704.321 289.184 706.085C287.676 708.148 286.598 710.543 284.98 712.501C283.018 714.869 280.768 717.02 278.489 719.091C276.978 720.467 276.594 721.247 278.364 722.931C280.183 724.662 281.168 727.235 282.818 729.191C284.75 731.478 286.237 734.023 288.573 736.152C291.593 738.903 293.307 743.088 295.581 746.662C295.72 746.885 295.748 747.265 295.934 747.352C299.945 749.29 300.277 754.187 303.653 756.795C305.635 758.32 306.632 761.078 308.211 763.181C311.942 768.143 315.763 773.035 319.522 777.972C320.485 779.233 321.413 780.523 322.27 781.856C323.093 783.129 323.855 784.168 325.594 783.098C325.935 782.885 326.663 783.299 327.212 783.425C326.904 784.378 326.603 785.327 326.062 787.004C328.13 789.343 330.747 792.187 333.231 795.139C335.153 797.424 336.793 799.948 338.775 802.171C340.71 804.344 341.164 807.796 344.476 808.788C344.752 808.871 345.058 809.258 345.13 809.551C346.107 813.716 349.441 816.296 351.884 819.452C353.429 821.452 355.627 822.951 357.121 824.981C358.926 827.439 360.73 830.071 361.711 832.913C362.422 834.976 361.838 837.5 361.709 839.812C361.686 840.239 361.169 840.896 360.764 840.999C356.661 842.054 355.509 846.319 352.469 848.528C348.361 851.508 345.629 856.165 340.703 858.192C339.505 858.682 338.558 859.831 337.347 860.242C333.155 861.663 329.71 859.004 326.015 857.836C322.899 856.85 319.873 855.559 316.798 854.436C315.248 853.868 312.688 853.763 313.218 851.616C313.797 849.284 315.856 851.252 317.248 851.328C319.333 851.442 321.266 853.158 323.832 851.946C321.296 848.98 318.86 846.244 316.556 843.399C314.876 841.325 312.952 839.304 311.907 836.918C310.936 834.694 308.593 835.744 307.764 834.496C306.981 833.32 307.848 831.656 306.466 830.105C300.798 823.738 295.503 817.04 290.016 810.506C288.636 808.863 287.623 806.737 285.093 806.349C284.749 806.298 284.173 805.154 284.323 804.913C285.529 803.041 283.915 802.319 283.013 801.266C280.263 798.069 277.547 794.843 274.569 791.339C274.409 791.511 274.225 791.881 273.939 791.988C273.233 792.255 272.481 792.4 271.744 792.593C271.702 791.78 271.302 790.638 271.687 790.211C273.036 788.721 272.315 787.815 271.264 786.663C269.3 784.516 267.466 782.254 265.518 779.963C264.79 780.334 264.278 780.739 263.709 780.838C263.197 780.925 262.233 780.79 262.159 780.546C262 780.015 262.222 779.331 262.41 778.754C262.623 778.085 262.967 777.455 263.257 776.805C262.568 776.604 261.833 776.495 261.2 776.182C260.412 775.791 259.553 775.354 259.038 774.693C258.817 774.404 259.379 773.507 259.772 772.335C258.484 770.588 256.958 768.22 255.138 766.11C251.562 761.968 247.853 757.939 244.105 753.95C243.662 753.478 242.6 753.378 241.851 753.43C237.94 753.705 234.123 755.059 230.088 754.054C228.954 753.771 227.065 753.005 226.566 755.583C226.367 756.603 224.692 757.107 223.863 755.65C223.081 754.282 222.105 754.172 220.641 754.077C219.517 754.005 218.286 752.844 217.445 751.873C216.093 750.314 214.977 748.541 213.848 746.797C212.816 745.211 211.449 743.642 211.076 741.886C210.776 740.463 211.262 738.381 212.205 737.269C215.993 732.794 220.094 728.592 224.058 724.267C224.502 723.783 224.774 723.14 225.122 722.582C223.993 721.981 223.07 721.494 222.154 721.004C223.557 718.182 222.826 716.449 220.008 713.723C218.433 712.199 217.538 709.978 215.978 708.436C213.168 705.657 211.986 701.411 207.847 699.754C206.718 699.301 206.027 697.606 205.282 696.391C204.232 694.684 203.35 692.879 202.32 691.155C202.114 690.805 201.591 690.642 201.215 690.396C200.726 690.082 200.035 689.886 199.777 689.44C196.768 684.237 192.391 680.051 189.073 675.169C186.916 671.993 184.191 669.5 181.909 666.551C181.399 665.891 180.653 665.423 179.902 664.761C180.105 664.127 180.381 663.276 180.738 662.177C180.099 662.461 179.71 662.646 179.315 662.812C176.088 664.198 176.151 664 175.701 660.489C175.47 658.693 174.14 656.92 172.979 655.383C168.198 649.032 163.334 642.743 158.416 636.494C154.943 632.082 151.254 627.844 147.835 623.397C146.089 621.131 144.837 618.487 143.155 616.166C139.014 610.438 134.776 604.784 130.525 599.137C129.394 597.635 127.983 596.345 126.889 594.825C123.284 589.824 119.764 584.768 116.055 579.509C115.407 579.972 114.68 580.723 113.791 581.057C113.041 581.341 112.107 581.153 111.256 581.173C111.489 580.404 111.601 579.571 111.991 578.893C112.269 578.415 112.915 578.149 113.741 577.529C111.959 574.853 110.198 572.286 108.544 569.648C108.213 569.123 108.304 568.328 108.264 568.081C106.604 566.184 104.992 564.397 103.439 562.554C102.51 561.456 102.411 559.47 100.161 559.736C99.9623 559.762 99.5341 557.816 99.5236 556.715C94.0482 548.256 87.4844 540.371 82.2991 530.796C79.4087 530.188 79.3134 526.264 77.3325 523.931C75.3681 521.619 73.8261 518.95 72.0283 516.483C71.785 516.151 71.0949 516.186 70.7041 515.914C70.1545 515.535 69.1943 514.791 69.2811 514.605C70.7735 511.335 67.6164 509.724 66.5401 507.587C64.2493 503.065 61.141 498.962 58.3307 494.705C56.4118 491.796 54.3737 488.965 52.495 486.027C51.4794 484.439 50.7453 482.678 49.7894 481.051C46.0251 474.673 42.1145 468.373 38.4669 461.928C35.9561 457.491 33.8121 452.847 31.4555 448.324C31.1591 447.753 30.4958 447.388 30.1502 446.837C29.7665 446.221 29.2243 445.454 29.319 444.836C30.3318 438.189 31.085 431.464 32.6627 424.948C34.2447 418.395 36.5433 412 38.7877 405.624C40.178 401.668 41.9643 397.837 43.7735 394.045C44.2192 393.111 45.5962 391.871 46.3131 392.008C47.2128 392.181 48.1096 393.507 48.5966 394.529C51.5086 400.613 54.1046 406.857 57.2007 412.847C59.8584 417.986 63.0551 422.848 66.0044 427.838C70.3553 435.192 74.6854 442.562 79.0623 449.901C80.4553 452.234 81.9973 454.481 83.4162 456.799C83.801 457.432 83.9706 458.195 84.2439 458.898L84.6499 458.498L84.6446 458.519ZM249.15 694.304C246.948 691.173 245.052 688.219 242.899 685.468C239.032 680.525 234.943 675.755 231.069 670.816C228.539 667.594 226.347 664.108 223.789 660.911C220.606 656.926 217.083 653.214 213.947 649.197C210.369 644.615 207.103 639.79 203.612 635.131C201.465 632.272 199.206 629.488 196.882 626.764C196.214 625.976 195.158 625.515 194.417 625.004C193.867 623.823 193.445 622.488 192.688 621.385C190.906 618.796 188.922 616.347 187.093 613.79C183.473 608.736 179.976 603.593 176.246 598.63C175.507 597.647 173.994 597.128 172.74 596.67C170.682 595.921 168.531 595.45 166.459 594.736C166.045 594.596 165.815 593.915 165.499 593.482C166.008 593.257 166.522 592.825 167.017 592.843C168.398 592.895 169.777 593.253 171.152 593.226C171.605 593.217 172.487 592.084 172.429 592.009C171.034 590.108 169.624 588.199 168.039 586.457C166.342 584.594 164.19 583.09 162.721 581.072C160.331 577.798 158.307 574.256 156.198 570.786C155.733 570.018 155.568 569.068 155.172 567.949C155.047 567.988 154.464 568.161 153.937 568.326C151.859 565.353 149.847 562.485 147.843 559.608C145.898 556.818 143.376 554.245 142.183 551.161C141.019 548.157 138.035 546.788 136.866 543.952C136.415 544.104 135.764 544.325 135.326 544.469C134.182 541.915 133.348 539.523 132.101 537.37C129.231 532.433 126.162 527.61 123.15 522.752C122.91 522.366 122.581 521.879 122.194 521.762C120.471 521.226 118.695 520.875 116.978 520.335C114.88 519.68 112.823 518.91 110.511 518.106C112.702 514.385 115.333 517.81 118.027 516.763C117.522 515.748 117.14 514.682 116.521 513.79C114.299 510.609 111.75 507.629 109.766 504.313C106.822 499.39 103.48 494.77 100.105 490.147C96.8343 485.656 93.8878 480.93 90.8725 476.258C87.3944 470.872 84.0264 465.422 80.5678 460.025C75.9676 452.848 71.3273 445.699 66.7142 438.53C65.3985 436.491 64.1165 434.428 62.8202 432.377L61.9099 432.943C64.2798 437.14 66.6807 441.323 68.9806 445.556C69.3812 446.298 69.3542 447.268 69.5255 448.131C68.7567 447.75 67.7346 447.562 67.2722 446.953C65.5219 444.641 63.9365 442.203 62.329 439.786C60.5333 437.078 58.783 434.344 57.0133 431.621C56.6778 431.792 56.3461 431.97 56.0106 432.141C56.3364 433.022 56.5339 433.974 57.005 434.761C60.8251 441.092 64.7281 447.379 68.5482 453.71C72.4497 460.173 76.233 466.709 80.1669 473.152C82.2741 476.605 84.6499 479.892 86.7779 483.328C87.2035 484.016 87.0676 485.046 87.1924 485.919C86.9276 485.965 86.6694 486.008 86.4046 486.055C82.6138 481.154 79.4562 475.697 74.4041 471.529C74.091 472.205 73.8379 472.524 73.9091 472.63C78.8008 480.207 83.7185 487.768 88.6195 495.308C87.9861 495.907 87.4371 496.435 86.8894 496.957C88.6544 496.696 89.5621 496.987 90.3902 498.767C91.5117 501.174 93.2663 503.299 94.8711 505.452C97.1 508.437 99.9234 510.994 100.998 514.766C101.302 515.834 102.122 516.761 102.756 517.722C106.298 523.075 109.972 528.341 113.345 533.793C114.559 535.756 117.015 536.894 116.972 539.871C116.959 540.917 119.265 541.829 120.117 543.072C124.975 550.123 129.622 557.312 134.526 564.332C136.984 567.854 139.809 571.12 142.51 574.469C143.782 576.041 143.535 578.893 146.41 579.118C146.324 581.497 147.807 582.936 149.216 584.659C153.145 589.47 156.658 594.617 160.481 599.521C164.143 604.219 167.092 609.423 170.96 613.982C173.777 617.306 176.275 620.905 178.908 624.385C186.635 634.598 194.355 644.821 202.093 655.032C204.465 658.164 206.602 661.548 209.367 664.288C212.075 666.969 213.219 670.6 215.863 673.297C218.872 676.369 221.467 679.845 224.239 683.152C228.653 688.424 233.113 693.664 237.438 699.006C238.261 700.021 238.68 700.185 239.867 699.571C240.902 699.032 242.249 699.091 243.841 698.818C243.026 697.327 242.178 695.772 241.329 694.217C241.469 693.995 241.609 693.773 241.751 693.546C243.076 694.324 244.404 695.109 245.776 695.916L246.204 694.269C247.123 694.283 247.901 694.293 249.138 694.307L249.15 694.304ZM214.02 691.109C218.444 696.427 222.849 701.713 227.258 707.005C227.503 706.822 227.752 706.645 227.998 706.461L223.431 698.541C223.758 698.362 224.085 698.184 224.411 698.005C226.007 700.193 227.576 702.397 229.219 704.549C229.571 705.014 230.19 705.274 230.686 705.628C230.75 705.485 230.821 705.339 230.886 705.196C229.554 702.691 228.215 700.191 226.883 697.686C227.069 697.586 227.252 697.491 227.433 697.389C230.427 700.304 233.421 703.218 236.415 706.133C236.757 705.876 237.105 705.615 237.446 705.357C236.843 704.635 236.233 703.916 235.648 703.187C233.291 700.252 230.754 697.439 228.638 694.335C226.557 691.29 222.95 689.128 222.985 685.523C221.839 684.945 220.847 684.726 220.292 684.115C218.855 682.522 217.626 680.742 216.29 679.054C209.483 670.436 202.674 661.824 195.853 653.218C194.392 651.378 192.824 649.614 191.418 647.732C189.535 645.211 187.747 642.621 185.945 640.044C184.712 638.279 183.606 636.426 182.29 634.727C181.496 633.703 180.284 632.998 179.503 631.965C174.676 625.598 169.87 619.213 165.151 612.769C157.614 602.479 150.14 592.138 142.658 581.802C139.677 577.677 136.811 573.466 133.864 569.312C131.597 566.114 129.644 562.701 127.48 559.425C126.738 558.304 125.844 557.264 124.911 556.291C124.517 555.881 123.855 555.726 123.316 555.454C123.753 554.87 124.184 554.29 124.621 553.706C123.691 553.206 122.279 552.911 121.694 552.056C118.234 547.021 114.988 541.844 111.622 536.745C109.849 534.055 107.99 531.424 106.169 528.77C105.13 527.253 104.056 525.761 103.051 524.22C98.6171 517.438 94.2368 510.62 89.75 503.874C88.6729 502.248 87.2636 500.844 86.0075 499.337C85.8114 499.478 85.6154 499.62 85.4181 499.766C85.634 500.267 85.7837 500.811 86.08 501.256C88.961 505.537 91.8874 509.79 94.7541 514.083C95.4218 515.086 96.6816 516.199 94.7752 517.384C94.486 517.144 94.1678 516.974 93.9795 516.705C90.2793 511.35 86.6142 505.965 82.8816 500.628C82.2568 499.736 81.3452 499.037 80.5659 498.253C80.3825 498.43 80.1977 498.613 80.0194 498.792C80.808 502.204 84.6088 504.466 84.308 508.288C84.0163 508.459 83.7181 508.634 83.4264 508.806C80.0292 504.441 76.637 500.077 73.2398 495.712C73.0788 495.824 72.9193 495.931 72.7583 496.043C73.2468 497.461 73.7302 498.877 74.456 500.988C69.615 498.818 69.0686 493.332 64.8866 491.141C67.6149 496.327 70.1881 500.988 72.5268 505.77C73.3595 507.47 75.7582 508.829 74.1879 511.321C74.1028 511.458 74.4897 512.147 74.6933 512.167C77.0959 512.39 78.4797 513.343 77.7096 516.032C77.6789 516.15 77.8537 516.344 77.953 516.49C79.1741 518.302 80.355 520.141 81.6371 521.907C85.9242 527.794 90.2879 533.619 94.5426 539.525C96.8953 542.795 99.0922 546.178 101.349 549.499C101.8 549.347 102.035 549.227 102.285 549.193C103.158 549.069 104.031 548.966 104.905 548.858C104.653 549.594 104.289 550.318 104.168 551.078C104.014 552.076 103.632 553.355 104.073 554.068C106.081 557.353 108.456 560.409 110.464 563.693C111.502 565.385 112.422 565.756 113.991 564.538C114.356 564.254 114.891 564.179 115.925 563.794C115.416 565.079 115.171 565.872 114.801 566.6C113.682 568.813 115.782 569.903 116.577 571.389C116.729 571.671 118.293 571.297 119.164 571.073C120.305 570.782 121.412 570.35 122.531 569.976C122.679 570.25 122.831 570.532 122.979 570.806C121.472 572.233 119.964 573.659 118.428 575.111C119.426 576.046 120.385 576.712 121.044 577.598C124.516 582.268 127.919 586.991 131.343 591.698C135.53 597.444 139.629 603.249 143.926 608.908C147.204 613.225 149.918 617.935 153.807 621.845C156.333 624.385 158.072 627.693 160.252 630.589C164.717 636.511 169.204 642.411 173.766 648.254C174.808 649.591 176.045 650.665 173.519 652.249C176.414 650.788 177.389 652.469 178.391 654.235C177.934 654.665 177.507 655.059 177.171 655.379L181.2 656.425C180.229 657.393 179.754 657.868 178.938 658.683C180.316 658.602 181.153 658.55 181.902 658.503C184.128 662.448 187.517 665.366 190.108 668.945C195.67 676.624 201.731 683.95 207.794 691.248C208.669 692.3 210.359 694.903 212.338 691.896C212.581 691.531 213.241 691.444 213.984 691.099L214.02 691.109ZM283.422 695.601C272.386 714.781 256.411 728.614 241.027 743.05C241.812 743.962 242.453 744.706 243.095 745.449C240.194 742.493 237.872 745.322 235.025 746.005C236.247 746.586 237.468 746.772 237.951 747.468C239.539 749.749 241.298 749.069 242.951 747.905C246.017 745.747 248.9 743.338 251.953 741.165C258.606 736.423 263.467 729.87 269.24 724.246C270.048 723.462 271.051 722.855 271.754 721.988C276.503 716.142 281.212 710.258 285.884 704.348C286.252 703.884 286.509 703 286.323 702.49C285.515 700.292 284.529 698.169 283.427 695.603L283.422 695.601ZM337.057 855.377C338.491 854.739 340.016 854.366 341.169 853.501C347.547 848.721 353.451 843.439 357.566 836.478C358.418 835.04 359.321 833.446 356.851 832.403C356.228 832.137 355.882 831.228 355.397 830.619C354.027 828.896 352.651 827.176 351.103 825.247C350.437 826.54 349.951 827.545 349.413 828.515C348.189 830.713 347.29 833.242 345.586 834.98C344.249 836.341 344.059 837.115 345.022 838.123C342.125 841.199 338.967 843.861 336.801 847.165C335.801 848.69 335.393 850.386 332.934 850.867C334.431 852.503 335.672 853.858 337.057 855.377ZM324.736 819.061C322.502 822.924 320.517 826.357 318.196 830.368C323.269 829.527 327.531 828.855 331.771 828.073C332.187 827.994 332.504 827.258 332.813 826.789C333.122 826.32 333.321 825.784 333.635 825.316C335.174 823.03 337.102 820.873 335.754 817.309C332.257 818.23 328.744 819.152 325.19 820.085C325.206 820.128 325.045 819.756 324.738 819.056L324.736 819.061ZM297.765 782.245C301.935 781.905 305.698 781.669 309.441 781.258C310.526 781.139 312.05 780.815 312.509 780.061C313.367 778.642 313.698 776.965 312.238 775.333C309.877 772.687 307.751 769.833 305.737 767.333C303.293 771.899 300.664 776.818 297.759 782.248L297.765 782.245ZM300.78 807.679C303.789 807.406 306.485 807.222 309.17 806.909C314.324 806.309 317.597 802.271 317.48 796.973C314.672 797.062 311.841 796.986 309.056 797.306C307.817 797.445 306.204 798.07 305.573 799.021C303.806 801.654 302.455 804.571 300.78 807.679ZM272.242 771.818C276.146 770.41 280.278 771.143 281.704 766.268C281.917 767.773 282.057 768.776 282.217 769.894C287.058 769.801 287.671 765.835 289.353 763.252C288.536 762.062 287.875 761.099 287.258 760.197C286.3 760.289 285.308 760.196 284.466 760.499C282.4 761.242 279.734 760.022 278.199 762.485C276.38 765.406 274.499 768.29 272.241 771.823L272.242 771.818ZM315.83 780.386C313.315 784.972 310.782 789.603 307.982 794.714C312.165 794.302 315.61 794 319.045 793.612C320.595 793.438 321.38 792.703 320.941 790.925C320.769 790.232 321.289 789.373 321.528 788.452C319.801 786.009 317.907 783.32 315.834 780.392L315.83 780.386ZM328.181 841.256C336.12 841.374 342.305 837.082 344.64 829.467C342.776 828.439 341.551 829.01 340.47 830.783C339.152 832.94 337.611 834.957 336.166 837.031C335.837 836.797 335.508 836.563 335.179 836.329L340.317 829.469C338.235 829.511 335.736 829.575 334.733 830.836C332.179 834.05 330.295 837.79 328.181 841.256ZM316.923 802.711C316.694 803.02 316.466 803.329 316.237 803.637C316.865 804.031 317.539 804.821 318.112 804.75C321.53 804.342 325.002 804.025 328.295 803.101C330.938 802.36 331.179 799.72 329.232 797.698C328.363 796.797 327.756 795.645 326.872 794.756C326.022 793.904 324.98 793.243 323.965 792.457C322.054 796.597 320.352 800.274 318.582 804.104C317.675 803.346 317.296 803.028 316.918 802.71L316.923 802.711ZM245.557 711.749C247.135 711.593 248.431 711.468 249.872 711.332C249.724 710.486 249.554 709.514 249.402 708.639C251.135 707.761 252.696 706.974 253.671 706.48C254.099 705.295 254.149 704.111 254.702 703.799C256.893 702.556 257.183 705.476 259.035 705.6C257.669 703.922 256.304 702.243 254.806 700.398C257.86 699.066 255.928 697.812 254.902 696.436C250.948 700.725 247.139 704.855 243.339 708.975C244.197 710.05 244.905 710.937 245.555 711.754L245.557 711.749ZM290.725 768.562C293.774 768.306 296.805 768.099 299.816 767.755C300.53 767.672 301.717 767.184 301.775 766.748C301.975 765.367 303.475 764.158 301.963 762.452C300.451 760.747 299.537 758.515 298.287 756.559C297.971 756.065 297.388 755.749 297.025 755.435C294.868 759.933 292.852 764.139 290.729 768.569L290.725 768.562ZM333.429 802.897C331.441 807.61 329.645 811.861 327.972 815.826C328.774 815.633 329.997 815.325 331.232 815.053C333.784 814.491 336.393 814.109 338.88 813.332C340.32 812.883 340.759 811.618 339.628 810.264C337.743 808.005 335.844 805.76 333.436 802.893L333.429 802.897ZM280.698 733.589C278.068 738.173 275.698 742.303 273.27 746.533C275.3 747.473 276.986 746.713 278.336 745.235C279.541 743.917 280.516 742.385 281.593 740.946C281.739 741.017 281.886 741.088 282.033 741.153C281.202 742.684 280.374 744.221 279.542 745.752C280.121 745.765 280.644 745.868 281.135 745.775C286.366 744.795 286.447 742.454 284.448 739.386C283.322 737.654 282.207 735.92 280.703 733.59L280.698 733.589ZM268.521 732.699C268.652 736.001 268.957 736.223 271.987 735.319C272.714 735.101 273.389 734.618 274.125 734.512C276.942 734.113 277.367 732.097 276.864 729.973C276.432 728.147 275.322 726.48 274.292 724.273C272.231 726.473 270.639 728.312 268.894 729.995C267.038 731.792 265.037 733.447 262.838 735.397C266.553 737.208 266.582 733.547 268.517 732.693L268.521 732.699ZM343.011 815.065C342.097 816.634 341.553 817.503 341.07 818.411C340.142 820.163 339.3 821.966 338.32 823.689C337.926 824.382 337.253 824.922 336.708 825.538C337.71 825.826 338.714 826.378 339.706 826.345C341.769 826.271 343.82 825.903 345.875 825.624C346.631 825.524 347.859 825.535 348.029 825.135C348.447 824.161 348.869 822.662 348.403 821.942C346.946 819.663 345.082 817.64 343.009 815.07L343.011 815.065ZM316.288 808.704C315.743 809.682 314.894 811.28 313.971 812.825C313.008 814.437 311.96 815.999 310.865 817.719C313.981 818.6 316.609 817.196 319.266 816.31C320.072 816.042 320.868 815.177 321.267 814.38C322.293 812.357 323.095 810.22 324.05 807.985C321.832 808.189 319.463 808.408 316.288 808.704ZM304.234 785.529L303.433 784.871C299.791 788.231 296.154 791.597 292.512 794.957C292.688 795.168 292.858 795.382 293.034 795.593C296.357 795.253 299.68 794.936 303.002 794.541C303.563 794.473 304.356 794.234 304.589 793.822C306.23 790.909 307.751 787.931 309.551 784.511C304.115 785.416 304.191 791.357 299.863 792.775C301.32 790.358 302.776 787.946 304.234 785.529ZM285.326 756.026C287.706 757.584 290.311 757.091 292.801 756.43C293.456 756.254 294.413 754.537 294.173 754.107C292.561 751.161 290.672 748.369 288.791 745.397C286.715 749.856 284.939 753.668 282.933 757.964C283.913 757.175 284.567 756.642 285.326 756.026ZM74.2699 469.297C74.4448 469.067 74.6249 468.84 74.8011 468.605C74.5047 467.886 74.3212 467.091 73.899 466.454C69.421 459.737 64.9157 453.041 60.3651 446.372C60.019 445.864 59.2812 445.618 58.7224 445.253C58.7424 446.719 58.9803 447.77 59.5241 448.636C63.4822 454.965 67.452 461.291 71.5488 467.53C72.0918 468.357 73.3457 468.71 74.2726 469.286L74.2699 469.297ZM298.694 771.358C296.81 771.418 295.193 771.069 294.029 771.64C293.216 772.038 293.041 773.706 292.545 774.791C292.403 775.106 292.144 775.363 291.929 775.642C289.993 778.144 288.058 780.645 285.703 783.686C287.063 783.523 287.814 783.531 288.492 783.329C289.819 782.937 291.15 782.509 292.403 781.933C293.176 781.58 293.807 780.925 294.498 780.402C297.47 778.158 295.906 774.011 298.688 771.356L298.694 771.358ZM63.3353 481.659C60.9912 475.228 46.0149 450.338 43.1216 449.488C43.7098 450.585 44.1004 451.428 44.5896 452.209C46.2772 454.889 48.1074 457.484 49.6913 460.225C53.5446 466.872 57.2566 473.598 61.1229 480.238C61.5138 480.911 62.5776 481.193 63.3302 481.658L63.3353 481.659ZM273.846 738.757C270.028 737.721 267.509 738.983 265.873 742.194C264.766 744.362 263.115 746.256 261.677 748.322C266.069 749.155 268.451 748.082 270.318 744.684C271.423 742.67 272.668 740.73 273.852 738.753L273.846 738.757ZM278.957 751.938C278.83 751.729 278.697 751.519 278.57 751.31C279.09 750.621 279.608 749.938 280.128 749.249C279.903 748.971 279.679 748.693 279.455 748.415C278.229 749.222 276.55 749.764 275.864 750.904C274.678 752.869 274.109 755.204 273.274 757.382C277.114 758.841 278.823 758.33 280.146 755.246C281.008 753.24 281.765 751.19 282.556 749.204C281.393 750.088 280.175 751.013 278.955 751.943L278.957 751.938ZM275.474 749.616C268.681 750.855 266.67 752.783 264.836 759.144C268.975 758.687 267.971 753.505 271.595 751.733C270.689 754.48 269.97 756.677 269.016 759.566C273.43 757.164 272.781 752.811 275.474 749.616ZM292.082 772.661C291.935 772.403 291.793 772.146 291.645 771.894C290.52 772.162 288.939 772.053 288.349 772.762C285.548 776.143 283.017 779.753 280.388 783.277C280.637 783.479 280.892 783.683 281.143 783.88C286.72 782.055 288.021 775.989 292.079 772.654L292.082 772.661ZM224.241 710.055C224.57 709.844 224.9 709.633 225.229 709.422C221.79 704.437 218.357 699.447 214.863 694.376C214.235 694.68 213.841 694.841 213.482 695.061C213.196 695.234 212.957 695.474 212.373 695.948C216.389 700.721 220.317 705.389 224.246 710.056L224.241 710.055ZM56.213 431.023C53.7596 427.486 51.3686 424.047 48.9827 420.609C48.6494 420.814 48.3175 421.013 47.9842 421.218C50.0381 425.003 52.0972 428.789 54.1865 432.65C54.6645 432.269 55.3595 431.708 56.2116 431.028L56.213 431.023ZM265.21 739.864C260.813 741.078 259.582 745.52 256.813 748.629C258.245 748.424 259.956 748.265 260.665 747.334C262.423 745.028 263.722 742.377 265.21 739.864ZM267.652 703.258C271.289 703.951 273.8 702.719 274.115 700.197C274.206 699.468 273.652 698.66 273.391 697.889C272.807 698.171 272.087 698.319 271.662 698.753C270.337 700.111 269.125 701.581 267.653 703.253L267.652 703.258ZM322.466 815.664C323.611 815.401 324.729 815.434 324.879 815.066C326.016 812.275 328.226 809.773 327.716 806.493L326.833 806.11C325.48 809.076 324.12 812.046 322.471 815.665L322.466 815.664ZM71.945 495.452C72.2847 495.244 72.6297 495.037 72.968 494.834C70.683 491.368 68.3966 487.906 66.1115 484.44C65.8274 484.624 65.5485 484.81 65.2644 484.994C67.49 488.478 69.7156 491.962 71.945 495.452ZM80.6321 490.937C80.4282 491.087 80.2193 491.236 80.0155 491.387C81.2406 495.423 83.3755 497.692 86.1027 497.533C84.2001 495.237 82.4135 493.086 80.6269 490.936L80.6321 490.937ZM220.535 736.978C220.706 737.188 220.877 737.397 221.048 737.606C222.481 736.891 223.977 736.269 225.303 735.394C225.587 735.21 225.515 733.9 225.165 733.513C224.858 733.175 223.637 733.116 223.326 733.425C222.275 734.492 221.446 735.776 220.535 736.978ZM265.012 697.437C263.356 696.518 261.885 696.278 261.013 698.155C260.788 698.641 261.215 699.999 261.547 700.074C263.605 700.548 264.268 698.99 265.012 697.437ZM45.7011 445.077C43.7119 442.1 41.7241 439.117 39.7401 436.141C39.5519 436.273 39.3573 436.41 39.1691 436.542C41.7072 439.14 41.7937 443.458 45.7011 445.077ZM229.882 742.461C229.9 742.751 229.919 743.036 229.937 743.326C232.363 743.166 234.787 743.01 237.212 742.849C237.201 742.533 237.189 742.223 237.177 741.907C234.704 740.539 232.324 742.595 229.882 742.461ZM235.211 733.431C234.982 733.191 234.75 732.944 234.521 732.703C232.205 732.716 231.424 734.051 232.095 736.692C233.135 735.605 234.175 734.519 235.211 733.431ZM295.39 791.113C297.187 789.355 298.982 787.603 300.779 785.845C297.331 785.905 296.521 788.639 295.39 791.113ZM238.394 735.11C238.535 735.328 238.671 735.544 238.812 735.762C240.919 735.541 242.639 734.9 242.022 731.757C240.814 732.877 239.601 733.995 238.394 735.11Z" fill="black"/>
<path d="M249.15 694.304C247.907 694.289 247.136 694.275 246.215 694.267L245.788 695.913C244.415 695.106 243.091 694.328 241.762 693.544C241.622 693.765 241.482 693.987 241.341 694.214C242.189 695.769 243.037 697.324 243.852 698.816C242.267 699.085 240.915 699.025 239.878 699.568C238.691 700.183 238.272 700.019 237.449 699.003C233.119 693.66 228.664 688.421 224.25 683.149C221.479 679.842 218.883 676.367 215.875 673.295C213.236 670.599 212.085 666.971 209.378 664.285C206.613 661.545 204.477 658.162 202.105 655.03C194.366 644.818 186.646 634.596 178.919 624.382C176.286 620.902 173.788 617.304 170.972 613.979C167.103 609.421 164.154 604.216 160.492 599.519C156.669 594.615 153.157 589.467 149.227 584.657C147.818 582.934 146.336 581.494 146.421 579.116C143.546 578.891 143.793 576.038 142.521 574.467C139.821 571.118 137 567.853 134.537 564.329C129.638 557.311 124.986 550.121 120.129 543.069C119.271 541.825 116.965 540.913 116.984 539.869C117.027 536.892 114.569 535.759 113.356 533.79C109.984 528.333 106.31 523.067 102.767 517.72C102.131 516.764 101.314 515.831 101.009 514.764C99.9295 510.99 97.1112 508.434 94.8823 505.449C93.2724 503.295 91.5178 501.17 90.4014 498.765C89.5733 496.984 88.6643 496.699 86.9007 496.955C87.4483 496.432 87.996 495.91 88.6308 495.306C83.7297 487.765 78.8121 480.204 73.9203 472.628C73.8505 472.516 74.1035 472.197 74.4153 471.526C79.4623 475.693 82.62 481.15 86.4159 486.052C86.6806 486.006 86.9389 485.963 87.2036 485.916C87.0789 485.043 87.2148 484.013 86.7891 483.326C84.6611 479.889 82.2867 476.598 80.1781 473.15C76.2443 466.706 72.4609 460.17 68.5595 453.708C64.7394 447.377 60.8363 441.09 57.0162 434.758C56.54 433.97 56.3438 433.013 56.0218 432.138C56.3573 431.967 56.689 431.79 57.0246 431.619C58.7943 434.341 60.5432 437.081 62.3402 439.783C63.9477 442.2 65.5331 444.639 67.2834 446.95C67.7459 447.559 68.7679 447.748 69.5367 448.129C69.3655 447.266 69.3938 446.29 68.9919 445.554C66.692 441.32 64.291 437.137 61.9211 432.94L62.8315 432.375C64.1278 434.425 65.4097 436.489 66.7254 438.528C71.3385 445.697 75.9841 452.847 80.579 460.022C84.0377 465.419 87.4108 470.871 90.8837 476.255C93.8991 480.927 96.8443 485.658 100.117 490.145C103.49 494.772 106.833 499.387 109.778 504.31C111.761 507.627 114.303 510.611 116.532 513.788C117.157 514.68 117.534 515.745 118.039 516.761C115.346 517.802 112.714 514.383 110.522 518.103C112.834 518.907 114.897 519.679 116.99 520.333C118.707 520.867 120.487 521.225 122.205 521.759C122.591 521.882 122.922 522.363 123.162 522.749C126.168 527.606 129.237 532.43 132.112 537.367C133.365 539.522 134.194 541.912 135.337 544.467C135.775 544.323 136.426 544.102 136.877 543.95C138.053 546.782 141.031 548.154 142.194 551.159C143.387 554.243 145.91 556.815 147.854 559.605C149.858 562.482 151.874 565.357 153.949 568.324C154.479 568.165 155.063 567.987 155.183 567.947C155.574 569.064 155.739 570.014 156.209 570.784C158.318 574.254 160.342 577.795 162.732 581.069C164.202 583.082 166.35 584.585 168.05 586.455C169.635 588.196 171.045 590.106 172.441 592.006C172.498 592.082 171.621 593.216 171.163 593.223C169.788 593.251 168.41 592.892 167.028 592.841C166.528 592.821 166.014 593.253 165.511 593.479C165.826 593.913 166.057 594.588 166.47 594.734C168.543 595.443 170.695 595.914 172.751 596.668C174.005 597.125 175.519 597.64 176.257 598.628C179.986 603.595 183.483 608.739 187.104 613.788C188.933 616.345 190.917 618.794 192.699 621.382C193.458 622.48 193.875 623.813 194.429 625.001C195.168 625.517 196.218 625.977 196.893 626.762C199.212 629.484 201.473 632.263 203.623 635.129C207.115 639.782 210.382 644.608 213.958 649.195C217.094 653.212 220.622 656.924 223.8 660.908C226.352 664.109 228.55 667.591 231.08 670.813C234.954 675.753 239.043 680.523 242.911 685.466C245.068 688.218 246.963 691.176 249.161 694.302L249.15 694.304ZM85.6056 475.62C86.2436 472.298 72.667 451.661 69.3598 450.818C74.3224 459.369 78.9608 468.132 85.6056 475.62ZM219.918 664.728C219.653 664.945 219.394 665.163 219.127 665.384C222.524 671.76 228.59 678.916 231.324 678.858C227.323 673.902 223.621 669.315 219.913 664.726L219.918 664.728ZM196.244 642.621C196.513 641.586 196.711 641.248 196.619 641.114C194.382 638.012 192.132 634.917 189.812 631.881C189.635 631.654 188.909 631.85 188.437 631.848C188.462 632.321 188.311 632.925 188.546 633.244C189.839 634.991 191.209 636.693 192.59 638.376C193.675 639.696 194.816 640.97 196.238 642.624L196.244 642.621ZM187.208 619.791C187.451 619.574 187.693 619.362 187.936 619.145C185.493 616.077 183.053 613.016 180.61 609.947C179.789 613.107 184.491 619.255 187.208 619.791ZM158.272 586.353C158.838 583.754 156.866 580.308 154.001 577.784C153.572 577.404 152.785 577.43 152.168 577.27C152.048 577.458 151.926 577.652 151.806 577.84C153.827 580.502 155.845 583.157 158.272 586.353ZM141.47 558.787C142.681 561.337 143.82 563.737 144.96 566.136C146.644 563.355 143.964 558.935 141.47 558.787ZM90.3028 482.064C89.1389 484.112 89.9704 485.668 92.8228 487.184C93.6701 484.641 91.5406 483.748 90.3028 482.064Z" fill="#3D3D47"/>
<path d="M214.019 691.109C213.281 691.455 212.616 691.541 212.373 691.906C210.394 694.913 208.704 692.309 207.829 691.258C201.766 683.96 195.705 676.634 190.143 668.955C187.551 665.381 184.163 662.458 181.937 658.512C181.183 658.558 180.346 658.61 178.973 658.692C179.789 657.877 180.264 657.402 181.235 656.435L177.206 655.388C177.541 655.074 177.967 654.68 178.426 654.244C177.424 652.479 176.449 650.797 173.554 652.259C176.075 650.673 174.84 649.594 173.801 648.264C169.239 642.421 164.747 636.519 160.287 630.598C158.107 627.703 156.368 624.395 153.842 621.855C149.959 617.945 147.239 613.235 143.961 608.917C139.664 603.258 135.559 597.452 131.378 591.708C127.953 587.006 124.551 582.277 121.079 577.607C120.42 576.722 119.461 576.055 118.463 575.12C119.999 573.668 121.507 572.242 123.014 570.816C122.866 570.541 122.714 570.26 122.565 569.985C121.447 570.359 120.339 570.796 119.199 571.082C118.323 571.305 116.764 571.68 116.612 571.399C115.817 569.913 113.712 568.822 114.836 566.609C115.206 565.881 115.451 565.088 115.96 563.803C114.926 564.188 114.392 564.258 114.026 564.548C112.457 565.766 111.536 565.4 110.499 563.703C108.491 560.418 106.116 557.362 104.107 554.078C103.668 553.359 104.05 552.08 104.203 551.087C104.324 550.328 104.686 549.609 104.939 548.867C104.066 548.975 103.193 549.078 102.32 549.203C102.07 549.237 101.835 549.357 101.384 549.509C99.1271 546.187 96.9302 542.804 94.5776 539.534C90.3229 533.628 85.9591 527.804 81.672 521.917C80.3886 520.155 79.209 518.311 77.9879 516.5C77.8887 516.353 77.7073 516.163 77.7446 516.041C78.5147 513.352 77.1309 512.399 74.7282 512.176C74.5247 512.156 74.1391 511.463 74.2229 511.331C75.7918 508.844 73.3931 507.484 72.5617 505.78C70.2282 500.999 67.6512 496.331 64.9216 491.151C69.1035 493.341 69.6499 498.828 74.4909 500.997C73.7651 498.886 73.2818 497.47 72.7933 496.052C72.9542 495.94 73.1138 495.833 73.2747 495.721C76.672 500.086 80.0641 504.45 83.4614 508.815C83.7531 508.644 84.0513 508.469 84.343 508.297C84.6452 504.47 80.8443 502.209 80.0543 498.801C80.2378 498.624 80.4225 498.441 80.6009 498.262C81.3801 499.047 82.2917 499.745 82.9166 500.638C86.6492 505.974 90.3143 511.359 94.0144 516.715C94.1976 516.982 94.521 517.154 94.8102 517.394C96.7165 516.208 95.4581 515.09 94.7891 514.093C91.9224 509.8 88.996 505.546 86.115 501.266C85.8186 500.821 85.6689 500.276 85.4531 499.776C85.6491 499.634 85.8451 499.493 86.0424 499.346C87.2986 500.854 88.7078 502.258 89.785 503.884C94.2717 510.63 98.6521 517.447 103.086 524.229C104.093 525.765 105.165 527.263 106.204 528.78C108.025 531.433 109.884 534.064 111.657 536.755C115.016 541.857 118.268 547.035 121.729 552.065C122.319 552.922 123.726 553.216 124.656 553.715C124.219 554.299 123.788 554.879 123.351 555.463C123.89 555.735 124.552 555.891 124.946 556.301C125.873 557.278 126.773 558.314 127.515 559.434C129.674 562.709 131.632 566.123 133.899 569.321C136.846 573.476 139.707 577.685 142.693 581.811C150.169 592.147 157.651 602.483 165.186 612.779C169.905 619.223 174.711 625.607 179.538 631.975C180.319 633.007 181.532 633.707 182.325 634.737C183.635 636.439 184.746 638.293 185.98 640.053C187.782 642.63 189.57 645.221 191.452 647.742C192.859 649.623 194.428 651.382 195.888 653.228C202.709 661.833 209.518 670.446 216.325 679.064C217.661 680.751 218.89 682.532 220.327 684.124C220.881 684.741 221.873 684.96 223.02 685.533C222.986 689.132 226.597 691.301 228.673 694.345C230.79 697.444 233.326 700.261 235.683 703.197C236.272 703.932 236.883 704.646 237.481 705.367C237.14 705.624 236.792 705.885 236.45 706.142C233.456 703.228 230.462 700.313 227.468 697.399C227.282 697.499 227.098 697.594 226.918 697.695C228.25 700.2 229.589 702.701 230.921 705.206C230.856 705.348 230.785 705.494 230.721 705.637C230.225 705.283 229.606 705.023 229.254 704.558C227.611 702.407 226.043 700.198 224.446 698.014C224.119 698.193 223.793 698.372 223.466 698.551L228.032 706.471C227.787 706.654 227.538 706.831 227.292 707.015C222.889 701.724 218.486 696.433 214.055 691.118L214.019 691.109ZM154.422 607.977C154.561 607.673 154.702 607.363 154.841 607.059C152.553 603.965 150.298 600.847 147.962 597.791C144.983 593.886 141.972 590 138.884 586.177C138.489 585.69 137.566 585.626 136.888 585.362C137.06 586.011 137.144 586.702 137.436 587.289C137.825 588.077 138.331 588.813 138.856 589.52C143.232 595.469 147.588 601.428 152.059 607.303C152.457 607.824 153.615 607.762 154.418 607.971L154.422 607.977ZM136.332 590.672C135.983 590.916 135.638 591.167 135.289 591.411C136.693 593.512 138.05 595.644 139.522 597.696C141.055 599.83 142.626 601.941 144.319 603.946C145.843 605.754 147.552 607.4 149.183 609.115C149.414 608.879 149.651 608.643 149.883 608.407C146.213 601.835 141.242 596.275 136.334 590.666L136.332 590.672ZM111.758 548.711C111.403 548.998 111.047 549.29 110.696 549.583C114.093 554.332 117.489 559.082 121.003 563.993C121.756 563.25 122.235 562.781 122.788 562.238C118.737 557.956 116.207 552.514 111.757 548.716L111.758 548.711ZM90.5464 522.262C90.1854 522.531 89.8194 522.798 89.4598 523.062C91.9965 527.483 95.0928 531.484 99.124 534.784C96.3613 530.534 94.5449 525.602 90.5477 522.257L90.5464 522.262ZM207.216 674.379C206.952 674.635 206.689 674.885 206.42 675.139C208.91 678.175 211.381 681.223 213.928 684.208C214.045 684.349 214.803 683.947 215.451 683.736C213.019 680.056 210.506 676.854 207.211 674.378L207.216 674.379ZM103.602 536.068C104.394 533.187 99.7304 526.213 97.1917 526.345C99.3038 529.547 101.309 532.589 103.602 536.068ZM152.542 616.65C152.757 616.476 152.978 616.302 153.192 616.133C152.875 613.612 150.862 611.276 147.937 610.549C149.656 612.83 151.098 614.743 152.542 616.65ZM170.841 631.412C170.436 631.703 170.025 631.997 169.62 632.287C170.463 633.374 171.306 634.466 172.144 635.552C172.483 635.305 172.816 635.056 173.154 634.815C172.383 633.681 171.612 632.546 170.841 631.412Z" fill="#3D3D47"/>
<path d="M283.423 695.601C284.525 698.167 285.516 700.292 286.319 702.489C286.505 702.999 286.248 703.882 285.88 704.347C281.208 710.257 276.499 716.141 271.75 721.987C271.049 722.848 270.044 723.461 269.236 724.245C263.463 729.869 258.597 736.42 251.949 741.163C248.896 743.336 246.013 745.745 242.947 747.904C241.294 749.067 239.539 749.754 237.947 747.467C237.464 746.77 236.248 746.586 235.021 746.004C237.861 745.325 240.19 742.491 243.091 745.448C242.449 744.704 241.808 743.961 241.023 743.048C256.407 728.612 272.382 714.78 283.418 695.6L283.423 695.601ZM263.79 724.972C264.087 725.247 264.382 725.527 264.679 725.802L269.101 720.03C268.869 719.843 268.639 719.652 268.407 719.465C266.87 721.301 265.328 723.136 263.79 724.972Z" fill="#3D3D47"/>
<path d="M337.056 855.377C335.669 853.863 334.43 852.503 332.933 850.867C335.392 850.386 335.8 848.69 336.8 847.165C338.966 843.861 342.124 841.199 345.021 838.123C344.058 837.115 344.253 836.342 345.585 834.98C347.289 833.242 348.188 830.713 349.412 828.515C349.951 827.54 350.436 826.54 351.102 825.247C352.643 827.18 354.021 828.894 355.396 830.619C355.881 831.228 356.227 832.137 356.85 832.403C359.32 833.446 358.416 835.04 357.565 836.478C353.45 843.439 347.551 848.722 341.168 853.501C340.015 854.366 338.49 854.739 337.056 855.377Z" fill="#3D3D47"/>
<path d="M324.736 819.061C325.044 819.756 325.211 820.129 325.188 820.09C328.742 819.157 332.257 818.23 335.752 817.315C337.1 820.878 335.171 823.036 333.633 825.322C333.32 825.784 333.119 826.325 332.811 826.794C332.502 827.263 332.185 827.999 331.769 828.078C327.528 828.86 323.267 829.533 318.193 830.373C320.515 826.362 322.5 822.929 324.734 819.066L324.736 819.061Z" fill="#3D3D47"/>
<path d="M297.765 782.245C300.67 776.815 303.301 771.89 305.744 767.329C307.757 769.835 309.882 772.688 312.245 775.329C313.705 776.961 313.372 778.643 312.516 780.057C312.061 780.812 310.533 781.135 309.447 781.254C305.704 781.665 301.935 781.905 297.772 782.241L297.765 782.245Z" fill="#3D3D47"/>
<path d="M300.779 807.679C302.455 804.571 303.801 801.653 305.572 799.021C306.207 798.076 307.82 797.452 309.055 797.306C311.84 796.986 314.671 797.062 317.479 796.973C317.591 802.27 314.324 806.304 309.169 806.909C306.484 807.222 303.789 807.406 300.779 807.679Z" fill="#3D3D47"/>
<path d="M272.242 771.818C274.5 768.285 276.379 765.406 278.2 762.479C279.73 760.015 282.402 761.231 284.467 760.494C285.314 760.192 286.301 760.284 287.258 760.192C287.881 761.095 288.541 762.063 289.354 763.246C287.672 765.83 287.059 769.796 282.218 769.889C282.058 768.771 281.916 767.773 281.704 766.263C280.277 771.143 276.145 770.41 272.243 771.813L272.242 771.818Z" fill="#3D3D47"/>
<path d="M315.828 780.386C317.9 783.319 319.795 786.003 321.522 788.445C321.283 789.366 320.768 790.227 320.935 790.918C321.377 792.703 320.594 793.433 319.039 793.606C315.604 793.993 312.159 794.295 307.976 794.708C310.775 789.602 313.314 784.967 315.824 780.379L315.828 780.386Z" fill="#3D3D47"/>
<path d="M328.182 841.256C330.296 837.79 332.181 834.045 334.734 830.836C335.737 829.575 338.237 829.511 340.318 829.469L335.18 836.329C335.509 836.563 335.838 836.797 336.168 837.031C337.613 834.957 339.154 832.935 340.471 830.783C341.553 829.01 342.783 828.44 344.642 829.467C342.305 837.087 336.12 841.38 328.182 841.256Z" fill="#3D3D47"/>
<path d="M316.921 802.711C317.3 803.029 317.679 803.348 318.586 804.105C320.355 800.275 322.053 796.597 323.968 792.459C324.983 793.244 326.025 793.905 326.875 794.757C327.754 795.645 328.366 796.798 329.236 797.7C331.182 799.721 330.94 802.366 328.299 803.103C325.005 804.026 321.534 804.344 318.116 804.752C317.542 804.823 316.869 804.033 316.241 803.639C316.469 803.33 316.698 803.021 316.926 802.713L316.921 802.711Z" fill="#3D3D47"/>
<path d="M245.555 711.749C244.9 710.93 244.195 710.05 243.339 708.97C247.139 704.85 250.947 700.72 254.902 696.431C255.93 697.802 257.866 699.057 254.806 700.393C256.309 702.239 257.669 703.917 259.035 705.595C257.183 705.471 256.888 702.549 254.702 703.794C254.154 704.107 254.099 705.29 253.67 706.475C252.696 706.969 251.134 707.761 249.402 708.634C249.555 709.503 249.724 710.481 249.872 711.327C248.429 711.468 247.134 711.593 245.557 711.744L245.555 711.749Z" fill="#3D3D47"/>
<path d="M290.723 768.562C292.846 764.132 294.867 759.928 297.019 755.429C297.383 755.743 297.97 756.06 298.282 756.553C299.531 758.509 300.445 760.74 301.957 762.446C303.47 764.152 301.968 765.365 301.769 766.742C301.706 767.176 300.524 767.665 299.811 767.749C296.798 768.098 293.769 768.299 290.719 768.556L290.723 768.562Z" fill="#3D3D47"/>
<path d="M333.428 802.897C335.836 805.764 337.733 808.015 339.62 810.268C340.751 811.622 340.312 812.886 338.872 813.336C336.385 814.113 333.777 814.489 331.224 815.056C329.989 815.329 328.761 815.636 327.964 815.83C329.638 811.86 331.435 807.608 333.421 802.901L333.428 802.897Z" fill="#3D3D47"/>
<path d="M280.697 733.589C282.206 735.92 283.321 737.654 284.442 739.385C286.439 742.458 286.358 744.799 281.128 745.774C280.638 745.866 280.11 745.762 279.536 745.75C280.368 744.22 281.196 742.683 282.027 741.152C281.881 741.081 281.735 741.01 281.587 740.944C280.51 742.384 279.54 743.917 278.33 745.234C276.978 746.717 275.292 747.476 273.264 746.532C275.692 742.302 278.062 738.172 280.692 733.588L280.697 733.589Z" fill="#3D3D47"/>
<path d="M268.519 732.699C266.583 733.553 266.549 737.213 262.84 735.404C265.038 733.454 267.039 731.798 268.895 730.001C270.635 728.317 272.234 726.475 274.293 724.28C275.323 726.486 276.433 728.154 276.865 729.979C277.369 732.099 276.943 734.119 274.126 734.519C273.39 734.624 272.717 735.103 271.989 735.325C268.957 736.235 268.653 736.008 268.522 732.706L268.519 732.699Z" fill="#3D3D47"/>
<path d="M343.011 815.065C345.083 817.641 346.947 819.663 348.405 821.937C348.865 822.66 348.447 824.161 348.031 825.13C347.861 825.53 346.634 825.519 345.877 825.619C343.822 825.898 341.771 826.266 339.708 826.34C338.722 826.374 337.712 825.821 336.71 825.533C337.254 824.922 337.926 824.383 338.322 823.684C339.303 821.961 340.144 820.158 341.072 818.406C341.555 817.498 342.101 816.624 343.013 815.059L343.011 815.065Z" fill="#3D3D47"/>
<path d="M316.29 808.704C319.47 808.409 321.834 808.189 324.051 807.985C323.097 810.22 322.294 812.356 321.269 814.38C320.864 815.176 320.068 816.04 319.268 816.31C316.61 817.196 313.982 818.6 310.866 817.719C311.961 815.999 313.004 814.436 313.972 812.825C314.9 811.281 315.744 809.682 316.29 808.704Z" fill="#3D3D47"/>
<path d="M304.233 785.529C302.776 787.946 301.319 790.358 299.862 792.775C304.196 791.358 304.114 785.416 309.551 784.51C307.745 787.93 306.224 790.907 304.588 793.822C304.354 794.239 303.561 794.478 303.001 794.541C299.686 794.932 296.358 795.248 293.033 795.593C292.857 795.382 292.688 795.168 292.512 794.957C296.153 791.597 299.791 788.231 303.432 784.871L304.233 785.529Z" fill="#3D3D47"/>
<path d="M285.324 756.026C284.565 756.642 283.905 757.173 282.931 757.964C284.932 753.667 286.713 749.856 288.789 745.397C290.67 748.369 292.565 751.157 294.171 754.106C294.41 754.542 293.453 756.26 292.799 756.43C290.309 757.091 287.704 757.584 285.324 756.026Z" fill="#3D3D47"/>
<path d="M74.2694 469.296C73.3425 468.721 72.0899 468.362 71.5456 467.54C67.4501 461.296 63.479 454.975 59.5209 448.646C58.9822 447.781 58.7392 446.729 58.7192 445.263C59.278 445.628 60.0158 445.875 60.3619 446.382C64.9125 453.051 69.4127 459.746 73.8958 466.464C74.3194 467.096 74.5028 467.891 74.7979 468.615C74.623 468.845 74.4429 469.072 74.2667 469.307L74.2694 469.296Z" fill="#3D3D47"/>
<path d="M298.694 771.358C295.912 774.013 297.476 778.16 294.504 780.403C293.813 780.927 293.177 781.58 292.409 781.935C291.155 782.51 289.825 782.939 288.498 783.33C287.814 783.531 287.069 783.524 285.708 783.687C288.064 780.647 289.999 778.145 291.934 775.643C292.15 775.364 292.408 775.107 292.551 774.793C293.047 773.708 293.222 772.04 294.034 771.641C295.199 771.07 296.817 771.414 298.699 771.359L298.694 771.358Z" fill="#3D3D47"/>
<path d="M63.3335 481.659C62.581 481.194 61.5172 480.913 61.1263 480.24C57.26 473.6 53.5429 466.872 49.6947 460.226C48.1095 457.491 46.2806 454.89 44.593 452.211C44.1025 451.435 43.7132 450.587 43.125 449.489C46.0183 450.34 60.9946 475.229 63.3387 481.661L63.3335 481.659Z" fill="#3D3D47"/>
<path d="M273.844 738.762C272.661 740.734 271.416 742.674 270.309 744.693C268.448 748.093 266.06 749.164 261.669 748.331C263.113 746.262 264.757 744.371 265.864 742.203C267.502 738.987 270.025 737.732 273.837 738.766L273.844 738.762Z" fill="#3D3D47"/>
<path d="M278.958 751.938C280.176 751.013 281.394 750.088 282.559 749.199C281.774 751.181 281.012 753.23 280.148 755.241C278.825 758.324 277.116 758.836 273.282 757.378C274.112 755.199 274.685 752.866 275.872 750.9C276.556 749.765 278.23 749.222 279.462 748.411C279.687 748.689 279.911 748.967 280.135 749.245C279.616 749.934 279.098 750.618 278.578 751.307C278.705 751.515 278.837 751.725 278.964 751.934L278.958 751.938Z" fill="#3D3D47"/>
<path d="M275.473 749.616C272.781 752.811 273.429 757.164 269.015 759.566C269.964 756.676 270.688 754.48 271.594 751.733C267.97 753.505 268.973 758.692 264.835 759.144C266.669 752.783 268.68 750.855 275.473 749.616Z" fill="#3D3D47"/>
<path d="M292.083 772.661C288.031 775.997 286.724 782.062 281.147 783.886C280.898 783.684 280.643 783.481 280.392 783.284C283.022 779.759 285.552 776.149 288.353 772.768C288.944 772.06 290.525 772.168 291.649 771.9C291.796 772.158 291.938 772.415 292.087 772.667L292.083 772.661Z" fill="#3D3D47"/>
<path d="M224.241 710.055C220.312 705.387 216.384 700.72 212.368 695.947C212.952 695.472 213.191 695.232 213.477 695.059C213.836 694.84 214.235 694.68 214.858 694.375C218.352 699.446 221.791 704.431 225.224 709.421C224.894 709.632 224.565 709.843 224.236 710.054L224.241 710.055Z" fill="#3D3D47"/>
<path d="M56.2142 431.023C55.3672 431.704 54.6671 432.264 54.189 432.645C52.0932 428.788 50.0393 425.003 47.9868 421.213C48.32 421.008 48.652 420.809 48.9852 420.604C51.3763 424.043 53.7608 427.486 56.2155 431.018L56.2142 431.023Z" fill="#3D3D47"/>
<path d="M265.211 739.864C263.728 742.378 262.425 745.028 260.667 747.334C259.959 748.259 258.247 748.424 256.815 748.629C259.582 745.525 260.808 741.081 265.211 739.864Z" fill="#3D3D47"/>
<path d="M267.649 703.258C269.122 701.587 270.333 700.116 271.658 698.758C272.084 698.325 272.805 698.171 273.388 697.894C273.649 698.665 274.202 699.474 274.112 700.203C273.797 702.724 271.286 703.956 267.648 703.263L267.649 703.258Z" fill="#3D3D47"/>
<path d="M322.467 815.664C324.122 812.041 325.475 809.075 326.828 806.109L327.712 806.492C328.222 809.772 326.012 812.274 324.875 815.065C324.724 815.432 323.607 815.4 322.462 815.663L322.467 815.664Z" fill="#3D3D47"/>
<path d="M71.9433 495.453C69.7177 491.969 67.4921 488.485 65.2627 484.995C65.5467 484.81 65.8308 484.626 66.1097 484.44C68.3948 487.907 70.6812 491.368 72.9663 494.834C72.6266 495.042 72.2817 495.249 71.9433 495.453Z" fill="#3D3D47"/>
<path d="M80.632 490.937C82.4186 493.088 84.2039 495.243 86.1079 497.534C83.3806 497.693 81.2457 495.425 80.0206 491.388C80.2244 491.238 80.4334 491.089 80.6372 490.939L80.632 490.937Z" fill="#3D3D47"/>
<path d="M220.537 736.979C221.448 735.776 222.276 734.492 223.327 733.425C223.64 733.111 224.865 733.171 225.167 733.513C225.515 733.905 225.588 735.21 225.304 735.394C223.973 736.268 222.482 736.891 221.049 737.606C220.878 737.397 220.708 737.188 220.537 736.979Z" fill="#3D3D47"/>
<path d="M265.01 697.437C264.267 698.985 263.604 700.543 261.545 700.074C261.213 699.999 260.786 698.641 261.011 698.156C261.883 696.278 263.353 696.518 265.01 697.437Z" fill="#3D3D47"/>
<path d="M45.7019 445.077C41.7945 443.458 41.7042 439.134 39.1699 436.542C39.3581 436.41 39.5528 436.273 39.7409 436.141C41.7301 439.119 43.7179 442.101 45.7019 445.077Z" fill="#3D3D47"/>
<path d="M229.881 742.461C232.323 742.596 234.703 740.539 237.176 741.907C237.187 742.223 237.2 742.534 237.211 742.85C234.786 743.01 232.362 743.166 229.936 743.327C229.918 743.036 229.899 742.751 229.881 742.461Z" fill="#3D3D47"/>
<path d="M235.21 733.431C234.17 734.518 233.13 735.604 232.094 736.692C231.424 734.051 232.206 732.711 234.521 732.703C234.749 732.943 234.981 733.191 235.21 733.431Z" fill="#3D3D47"/>
<path d="M295.388 791.113C296.52 788.639 297.329 785.905 300.777 785.845C298.98 787.603 297.185 789.355 295.388 791.113Z" fill="#3D3D47"/>
<path d="M238.395 735.11C239.603 733.99 240.817 732.872 242.024 731.757C242.635 734.899 240.92 735.541 238.813 735.762C238.672 735.544 238.536 735.328 238.395 735.11Z" fill="#3D3D47"/>
<path d="M85.6041 475.62C78.9593 468.132 74.3209 459.369 69.3582 450.818C72.6655 451.661 86.242 472.298 85.6041 475.62Z" fill="black"/>
<path d="M219.918 664.728C223.62 669.315 227.327 673.903 231.329 678.859C228.59 678.916 222.529 671.761 219.132 665.386C219.397 665.169 219.657 664.951 219.923 664.729L219.918 664.728Z" fill="black"/>
<path d="M196.245 642.621C194.819 640.965 193.678 639.691 192.598 638.372C191.217 636.69 189.845 634.993 188.554 633.24C188.318 632.921 188.47 632.318 188.444 631.844C188.916 631.846 189.643 631.65 189.82 631.878C192.14 634.914 194.39 638.008 196.626 641.11C196.719 641.239 196.52 641.583 196.251 642.617L196.245 642.621Z" fill="black"/>
<path d="M187.208 619.791C184.489 619.261 179.793 613.108 180.609 609.948C183.052 613.016 185.492 616.077 187.936 619.145C187.692 619.362 187.451 619.574 187.208 619.791Z" fill="black"/>
<path d="M158.27 586.353C155.843 583.158 153.82 580.501 151.804 577.84C151.924 577.652 152.046 577.458 152.166 577.27C152.783 577.43 153.57 577.404 153.999 577.784C156.867 580.315 158.836 583.754 158.27 586.353Z" fill="black"/>
<path d="M141.469 558.787C143.961 558.94 146.643 563.355 144.959 566.136C143.819 563.737 142.681 561.332 141.469 558.787Z" fill="black"/>
<path d="M90.3047 482.064C91.5476 483.749 93.6772 484.643 92.8247 487.184C89.9737 485.663 89.1357 484.111 90.3047 482.064Z" fill="black"/>
<path d="M154.423 607.977C153.62 607.768 152.457 607.828 152.064 607.309C147.593 601.435 143.237 595.475 138.861 589.526C138.338 588.814 137.83 588.083 137.442 587.296C137.15 586.704 137.072 586.013 136.893 585.368C137.573 585.627 138.496 585.691 138.89 586.183C141.977 590.006 144.983 593.891 147.967 597.797C150.297 600.857 152.552 603.975 154.847 607.065C154.707 607.37 154.566 607.679 154.427 607.983L154.423 607.977Z" fill="black"/>
<path d="M136.334 590.671C141.242 596.28 146.214 601.835 149.883 608.412C149.651 608.649 149.414 608.884 149.182 609.12C147.553 607.4 145.844 605.754 144.319 603.951C142.626 601.946 141.055 599.835 139.522 597.701C138.05 595.649 136.693 593.517 135.289 591.416C135.638 591.172 135.983 590.921 136.332 590.677L136.334 590.671Z" fill="black"/>
<path d="M111.757 548.711C116.208 552.509 118.738 557.95 122.788 562.233C122.235 562.775 121.756 563.244 121.003 563.988C117.489 559.076 114.093 554.327 110.697 549.578C111.053 549.286 111.407 548.999 111.758 548.706L111.757 548.711Z" fill="black"/>
<path d="M90.546 522.262C94.5446 525.602 96.3596 530.539 99.1223 534.789C95.086 531.488 91.9948 527.488 89.4581 523.067C89.819 522.798 90.1851 522.53 90.5447 522.267L90.546 522.262Z" fill="black"/>
<path d="M207.218 674.379C210.507 676.854 213.027 680.052 215.458 683.737C214.805 683.947 214.052 684.35 213.935 684.209C211.388 681.224 208.917 678.177 206.427 675.14C206.691 674.885 206.954 674.634 207.223 674.38L207.218 674.379Z" fill="black"/>
<path d="M103.603 536.068C101.31 532.589 99.3047 529.546 97.1925 526.345C99.7313 526.213 104.395 533.187 103.603 536.068Z" fill="black"/>
<path d="M152.541 616.65C151.099 614.738 149.657 612.825 147.936 610.549C150.857 611.275 152.873 613.617 153.192 616.133C152.976 616.307 152.755 616.481 152.541 616.65Z" fill="black"/>
<path d="M170.841 631.412C171.612 632.546 172.383 633.68 173.154 634.815C172.815 635.062 172.482 635.31 172.144 635.552C171.301 634.465 170.458 633.373 169.62 632.287C170.025 631.997 170.436 631.703 170.841 631.412Z" fill="black"/>
<path d="M263.788 724.972C265.325 723.136 266.867 721.301 268.404 719.465C268.636 719.652 268.866 719.843 269.098 720.03L264.676 725.802C264.38 725.527 264.084 725.247 263.788 724.972Z" fill="black"/>
</g>
<defs>
<clipPath id="clip0_473_481">
<rect width="1080" height="1080" fill="white"/>
</clipPath>
</defs>
</svg>
