<svg width="1080" height="1080" viewBox="0 0 1080 1080" fill="none" xmlns="http://www.w3.org/2000/svg">
<path d="M356.16 627.206C356.59 627.237 356.596 627.263 356.921 627.553C357.854 629.886 358.527 638.738 359.02 641.833C360.314 649.952 361.216 660.469 360.515 668.652C359.499 680.514 355.624 692.326 351.847 703.556C348.61 713.183 345.511 722.826 344.202 732.941C343.893 735.328 343.427 742.24 343.988 744.337C344.103 744.765 344.351 745.148 344.618 745.495C344.46 745.06 344.386 744.939 344.581 744.5C345.238 743.022 345.314 741.504 345.706 739.948C346.41 737.056 347.229 734.198 348.165 731.372C350.852 723.097 354.017 714.777 358.273 707.167C359.686 704.64 361.419 702.251 362.9 699.749C363.387 698.926 364.271 697.332 365.226 697.087C365.893 698.717 364.299 709.24 364.091 711.446C363.593 716.751 363.61 722.171 363.824 727.49C363.881 728.815 363.955 730.138 364.047 731.461C364.138 732.785 364.247 734.107 364.373 735.427C364.5 736.747 364.644 738.065 364.805 739.382C364.967 740.698 365.146 742.012 365.341 743.324C365.537 744.636 365.75 745.945 365.981 747.25C366.212 748.557 366.459 749.86 366.724 751.159C366.989 752.458 367.271 753.754 367.571 755.047C367.87 756.338 368.186 757.626 368.519 758.91C369.29 761.782 370.568 764.521 371.45 767.363C372.118 769.518 372.467 771.832 372.931 774.04C373.384 776.19 373.959 778.334 374.274 780.509C374.915 784.921 375.474 789.422 375.532 793.884C375.761 811.579 370.303 830.244 359.656 844.458C357.221 847.709 354.326 850.208 351.196 852.75C349.885 853.815 348.654 854.995 347.285 855.986C342.461 859.479 336.354 862.547 330.611 864.084C327.923 864.803 324.983 865.232 322.222 865.622C317.81 866.245 312.039 866.292 307.613 865.658C300.9 864.696 289.847 860.496 284.454 856.352C281.64 854.189 279.015 851.498 276.379 849.105C275.668 848.459 275.039 847.622 274.266 847.07C274.164 846.998 274.06 846.929 273.956 846.858C273.486 845.841 272.656 844.953 271.988 844.051C270.734 842.355 269.465 840.566 268.541 838.667C263.534 828.38 261.486 818.143 261.269 806.75C261.197 802.97 261.527 799.205 261.424 795.406C261.16 785.647 267.47 768.181 271.293 759.004C275.097 749.869 279.565 740.815 284.595 732.286C287.462 727.448 290.391 722.647 293.381 717.885C294.691 715.776 296.093 713.731 297.332 711.577C301.695 703.986 305.425 696.134 309.051 688.167C310.708 684.524 312.204 680.853 313.625 677.114C314.871 673.838 320.478 656.7 321.792 655.31C322.541 656.223 322.02 660.515 322.017 661.818C322.014 663.186 322.148 664.556 322.115 665.922C322.051 668.635 321.695 671.383 321.475 674.088C320.956 680.444 320.411 686.475 319.141 692.742C318.413 696.334 317.77 700.029 316.78 703.554C315.021 709.817 312.273 716.424 311.87 722.941C311.748 724.908 312.019 727.03 312.208 728.989C312.334 730.298 312.973 735.46 313.787 736.132C313.958 736.017 313.968 736.021 314.135 735.845C315.354 734.549 316.615 730.421 317.514 728.537C319.608 724.155 321.734 719.677 324.058 715.416C324.735 714.174 325.616 713.009 326.339 711.78C327.54 709.739 328.565 707.588 329.779 705.561C330.48 704.39 331.353 703.321 332.094 702.174C334 699.222 335.828 696.158 337.57 693.107C340.688 687.648 342.875 682.68 345.331 676.953C346.955 673.166 348.734 669.467 350.077 665.565C353.657 655.167 355.232 643.956 355.84 633.022C355.948 631.087 356.163 629.142 356.16 627.206ZM343.017 700.16C342.718 700.688 342.488 701.101 342 701.486L341.365 701.607C341.187 701.448 341.027 701.293 340.864 701.122C338.365 704.631 336.097 708.541 334.111 712.355C331.899 715.462 328.973 721.634 327.146 725.206C322.775 733.752 318.408 742.413 314.641 751.244C312.883 755.367 311.354 759.619 309.772 763.814C307.857 768.893 307.316 774.379 304.673 779.185C302.199 773.82 304.686 767.872 305.798 762.46C306.537 758.861 307.166 755.183 307.324 751.508C307.548 746.33 306.703 741.252 306.094 736.131C305.371 730.046 305.006 724.017 305.556 717.902L305.182 717.617C303.82 718.132 302.454 720.596 301.682 720.231C301.552 720.17 301.284 719.967 301.163 719.878C299.656 721.642 296.975 727.594 295.237 728.345C293.678 730.839 292.397 733.417 290.993 735.992C289.202 739.277 287.386 742.511 285.682 745.845C275.874 765.028 269.227 781.11 268.083 802.832C267.871 806.872 267.664 811.138 268.221 815.152C269.974 827.809 274.59 836.694 284.838 844.514C283.901 843.058 283.016 841.648 282.329 840.051C278.942 832.188 279.693 821.176 282.852 813.372C286.389 804.632 293.622 796.74 302.379 793.093C302.656 792.979 302.933 792.869 303.212 792.762C303.491 792.655 303.771 792.551 304.053 792.451C304.335 792.351 304.618 792.254 304.902 792.162C305.186 792.069 305.471 791.979 305.758 791.893C306.043 791.807 306.33 791.724 306.619 791.645C306.908 791.566 307.197 791.491 307.487 791.419C307.777 791.347 308.068 791.279 308.36 791.214C308.651 791.149 308.944 791.088 309.237 791.031C309.531 790.973 309.825 790.919 310.119 790.868C310.414 790.819 310.709 790.772 311.005 790.728C311.3 790.685 311.597 790.646 311.893 790.61C312.19 790.575 312.487 790.543 312.785 790.514C313.082 790.486 313.38 790.461 313.679 790.44C313.977 790.418 314.275 790.4 314.573 790.387C314.872 790.373 315.171 790.363 315.47 790.357C315.769 790.35 316.068 790.347 316.366 790.348C316.665 790.349 316.964 790.353 317.263 790.362C317.562 790.37 317.86 790.382 318.159 790.397C318.457 790.413 318.756 790.432 319.054 790.454C319.352 790.478 319.649 790.504 319.946 790.535C320.244 790.565 320.541 790.598 320.837 790.635C321.134 790.673 321.43 790.715 321.726 790.759C322.021 790.804 322.316 790.852 322.61 790.904C322.904 790.956 323.198 791.011 323.491 791.071C323.784 791.13 324.077 791.193 324.368 791.259C324.659 791.326 324.95 791.396 325.24 791.469C325.529 791.543 325.818 791.619 326.106 791.7C326.394 791.781 326.68 791.865 326.966 791.953C327.252 792.041 327.537 792.132 327.82 792.226C328.104 792.321 328.386 792.419 328.667 792.521C328.949 792.622 329.229 792.727 329.507 792.836C329.785 792.944 330.063 793.056 330.338 793.171C338.831 796.677 346.351 803.26 349.906 811.849C353.48 820.485 353.152 830.981 349.692 839.597C348.644 842.207 347.014 844.517 345.984 847.089C345.961 847.147 345.939 847.206 345.916 847.264C346.882 846.42 347.826 845.551 348.747 844.657C354.976 838.567 359.239 830.316 362.319 822.236C368.57 805.843 369.356 789.952 364.884 773.016C363.314 767.071 361.138 761.398 359.817 755.366C357.986 747.018 357.397 738.509 357.51 729.98C356.798 732.101 356.319 734.353 355.761 736.522C353.989 743.405 352.371 750.342 352.281 757.488C352.231 761.567 352.948 765.454 353.1 769.491C353.27 773.967 352.199 783.823 351.224 788.261C350.956 789.481 350.507 791.978 349.432 792.669C349.021 792.429 348.959 792.222 348.855 791.773C348.06 788.337 348.809 783.837 348.118 780.019C346.916 773.379 342.26 769.884 339.334 764.171C337.362 760.32 337.109 756.813 336.731 752.586C336.669 751.838 336.614 751.089 336.567 750.34C336.52 749.589 336.481 748.839 336.449 748.089C336.417 747.339 336.394 746.588 336.378 745.837C336.361 745.086 336.352 744.335 336.351 743.584C336.35 742.833 336.356 742.082 336.37 741.331C336.384 740.58 336.406 739.83 336.435 739.079C336.464 738.328 336.501 737.578 336.546 736.828C336.59 736.079 336.643 735.329 336.703 734.58C336.763 733.832 336.83 733.084 336.905 732.337C336.98 731.59 337.062 730.843 337.153 730.097C337.243 729.352 337.341 728.607 337.446 727.863C337.552 727.12 337.664 726.377 337.785 725.636C337.905 724.894 338.033 724.154 338.168 723.416C338.304 722.677 338.447 721.939 338.597 721.204C338.748 720.468 338.906 719.733 339.071 719C339.236 718.268 339.409 717.537 339.589 716.808C340.879 711.54 342.892 706.485 344.529 701.322C344.512 700.561 344.604 699.833 344.697 699.079C344.214 699.55 343.821 699.84 343.19 700.093C343.132 700.116 343.075 700.137 343.017 700.16ZM348.6 688.299C347.471 689.979 346.527 691.809 345.467 693.538C343.928 696.05 342.258 698.527 340.864 701.122C341.027 701.293 341.187 701.448 341.365 701.607L342 701.486C342.488 701.101 342.718 700.688 343.017 700.16C343.075 700.137 343.132 700.116 343.19 700.093C343.821 699.84 344.214 699.55 344.697 699.079C344.604 699.833 344.512 700.561 344.529 701.322C346.101 698.023 348.105 691.889 348.6 688.299ZM295.237 728.345C296.975 727.594 299.656 721.642 301.163 719.878C301.284 719.967 301.552 720.17 301.682 720.231C302.454 720.596 303.82 718.132 305.182 717.617L305.556 717.902C305.786 715.875 306.07 713.857 306.406 711.845C303.648 714.655 296.816 724.903 295.237 728.345Z" fill="#040504"/>
<path d="M304.251 799.871C304.825 799.608 305.406 799.363 305.995 799.136C306.584 798.909 307.18 798.7 307.782 798.509C308.383 798.318 308.99 798.145 309.603 797.991C310.215 797.837 310.832 797.702 311.453 797.586C319.15 796.116 327.266 797.479 333.757 801.974C339.542 805.979 343.777 811.896 345.026 818.878C346.471 826.964 344.237 835.766 339.499 842.429C339.31 842.691 339.118 842.95 338.922 843.207C338.726 843.463 338.527 843.717 338.324 843.967C338.121 844.218 337.914 844.465 337.703 844.709C337.493 844.954 337.279 845.195 337.062 845.434C336.844 845.672 336.623 845.906 336.399 846.138C336.174 846.37 335.947 846.598 335.716 846.824C335.484 847.049 335.25 847.271 335.013 847.489C334.775 847.708 334.535 847.923 334.291 848.134C334.047 848.346 333.801 848.554 333.552 848.758C333.302 848.962 333.049 849.163 332.793 849.36C332.538 849.556 332.279 849.75 332.018 849.939C331.757 850.129 331.494 850.314 331.227 850.496C330.96 850.677 330.691 850.855 330.42 851.029C330.148 851.203 329.873 851.373 329.596 851.539C329.32 851.704 329.041 851.866 328.76 852.024C328.478 852.182 328.195 852.336 327.909 852.485C326.839 853.055 325.678 853.732 324.473 853.937L324.344 853.797C324.708 852.896 324.704 852.542 324.345 851.627L324.265 851.428C323.992 851.152 323.714 850.868 323.406 850.631C322.05 849.584 319.872 849.273 318.223 849.584C317.265 849.765 316.227 850.221 315.683 851.072C315.369 851.562 315.288 852.11 315.453 852.666C315.854 854.013 317.212 854.681 318.371 855.268C314.115 855.776 309.911 855.371 305.878 853.881C298.568 851.18 291.721 845.758 288.446 838.585C285.457 832.035 285.489 824.038 288.005 817.335C288.094 817.097 288.187 816.859 288.282 816.622C288.377 816.386 288.475 816.151 288.576 815.917C288.677 815.683 288.781 815.45 288.888 815.218C288.995 814.987 289.104 814.757 289.217 814.528C289.329 814.299 289.444 814.072 289.562 813.846C289.68 813.62 289.8 813.395 289.924 813.172C290.047 812.949 290.173 812.728 290.302 812.507C290.431 812.288 290.562 812.07 290.696 811.853C290.83 811.636 290.967 811.42 291.106 811.207C291.246 810.994 291.388 810.782 291.532 810.572C291.677 810.362 291.824 810.154 291.973 809.947C292.123 809.741 292.275 809.536 292.43 809.334C292.585 809.131 292.741 808.931 292.9 808.732C293.06 808.533 293.222 808.336 293.386 808.141C293.551 807.946 293.718 807.753 293.887 807.562C294.055 807.371 294.226 807.183 294.4 806.997C294.574 806.81 294.75 806.626 294.928 806.443C295.106 806.26 295.286 806.08 295.468 805.902C295.651 805.724 295.836 805.549 296.023 805.375C296.209 805.202 296.398 805.031 296.59 804.862C296.781 804.693 296.974 804.527 297.169 804.362C297.364 804.198 297.561 804.037 297.76 803.878C297.959 803.718 298.16 803.562 298.363 803.407C298.565 803.252 298.77 803.1 298.977 802.951C299.183 802.802 299.391 802.655 299.602 802.51C299.812 802.367 300.024 802.225 300.237 802.086C300.451 801.947 300.666 801.81 300.882 801.676C301.1 801.542 301.318 801.411 301.539 801.283C301.758 801.154 301.98 801.028 302.204 800.905C302.427 800.781 302.651 800.661 302.877 800.543C303.103 800.426 303.331 800.311 303.56 800.199C303.789 800.087 304.019 799.978 304.251 799.871Z" fill="#F4414E"/>
<path d="M291.051 816.542C291.299 816.456 291.553 816.357 291.814 816.317C292.463 816.217 293.229 816.357 293.705 816.834C294.184 817.314 294.243 817.985 294.164 818.624C294.022 819.772 293.273 820.374 292.415 821.052C291.895 821.245 291.383 821.381 290.821 821.353C290.333 821.33 289.844 821.129 289.549 820.726C289.266 820.339 289.228 819.851 289.267 819.389C289.375 818.099 290.127 817.357 291.051 816.542Z" fill="#040504"/>
<path d="M301.98 811.507C302.541 811.268 303.119 811.03 303.732 810.972C304.546 810.896 305.478 811.138 306.09 811.697C306.526 812.097 306.739 812.618 306.725 813.208C306.7 814.258 305.865 814.998 305.125 815.614C304.557 815.88 303.957 816.155 303.327 816.223C302.559 816.305 301.698 816.036 301.125 815.516C300.69 815.121 300.466 814.567 300.488 813.983C300.53 812.916 301.235 812.181 301.98 811.507Z" fill="#040504"/>
<path d="M334.927 809.144C335.148 809.033 335.415 808.879 335.659 808.814C336.39 808.62 337.194 808.806 337.856 809.142C338.993 809.718 339.83 810.827 340.215 812.028C340.57 813.133 340.415 813.875 339.913 814.893C339.68 815.022 339.405 815.195 339.147 815.281C338.525 815.489 337.913 815.412 337.321 815.152C336.053 814.598 335.141 813.303 334.714 812.024C334.333 810.884 334.379 810.202 334.927 809.144Z" fill="#040504"/>
<path d="M325.148 841.141C325.968 840.845 326.828 840.621 327.706 840.636C328.574 840.651 329.662 840.916 330.226 841.631C330.522 842.005 330.608 842.472 330.494 842.931C330.227 844.004 329.172 844.617 328.314 845.18C327.385 845.547 326.404 845.835 325.395 845.755C324.567 845.689 323.513 845.351 323.03 844.623C322.752 844.204 322.73 843.772 322.869 843.302C323.168 842.291 324.309 841.637 325.148 841.141Z" fill="#040504"/>
<path d="M293.786 838.403C294.03 838.367 294.149 838.341 294.379 838.327C295.927 838.228 297.942 839.606 299.094 840.586C300.3 841.612 301.946 843.289 302.007 844.949C302.033 845.668 301.753 845.989 301.282 846.459C299.829 846.749 298.527 846.3 297.277 845.55C295.527 844.499 293.695 842.568 293.293 840.504C293.127 839.656 293.334 839.112 293.786 838.403Z" fill="#040504"/>
<path d="M323.608 800.481C324.068 800.323 324.53 800.17 325.015 800.114C327.449 799.83 330.333 800.85 332.238 802.362C332.983 802.954 333.634 803.682 333.689 804.677C333.734 805.492 333.398 805.967 332.862 806.537C332.826 806.535 332.79 806.534 332.755 806.533C330.901 806.5 325.855 805.077 324.238 804.141C323.555 803.747 322.829 803.16 322.725 802.323C322.622 801.504 323.09 801.024 323.608 800.481Z" fill="#040504"/>
<path d="M336.12 817.911C336.466 817.781 336.834 817.631 337.203 817.595C337.903 817.529 338.624 817.839 339.13 818.307C340.267 819.355 340.548 821.208 340.62 822.677C340.719 824.735 340.481 826.673 339.048 828.244C338.716 828.379 338.358 828.529 338.002 828.58C337.478 828.654 336.898 828.482 336.476 828.173C335.598 827.528 335.259 826.303 335.129 825.277C334.842 823.02 334.67 819.771 336.12 817.911Z" fill="#040504"/>
<path d="M296.769 827.777C297.917 827.463 298.804 827.624 299.831 828.223C302.256 829.638 304.225 832.887 304.856 835.589C305.147 836.841 305.186 837.926 304.5 839.04C303.677 839.106 302.864 839.083 302.086 838.768C299.681 837.792 297.738 835.139 296.825 832.761C296.17 831.055 296.021 829.461 296.769 827.777Z" fill="#040504"/>
<path d="M300.602 804.825C302.45 803.918 304.729 803.116 306.812 803.22C307.66 803.261 308.55 803.487 309.1 804.182C309.474 804.656 309.65 805.233 309.491 805.832C308.878 808.135 303.523 808.685 301.243 810.267L301.03 810.418C299.916 811.407 298.811 812.673 297.576 813.485C297.003 813.862 296.365 814.154 295.665 813.938C295.16 813.784 294.816 813.456 294.549 813.012C294.168 812.377 294.22 811.506 294.426 810.825C295.243 808.126 298.251 806.095 300.602 804.825Z" fill="#040504"/>
<path d="M343 697.501C343.205 697.14 344.5 695.001 344.5 695.001C345 694.501 348.018 688.471 348.501 688C349.5 689.501 345.92 698.97 345 701.501C343 707.001 341.5 711.501 339.59 716.807C339.41 717.536 339.237 718.266 339.072 718.999C338.907 719.732 338.749 720.466 338.598 721.202C338.448 721.938 338.305 722.675 338.17 723.415C338.034 724.153 337.906 724.893 337.786 725.634C337.666 726.376 337.553 727.118 337.447 727.862C337.342 728.606 337.244 729.35 337.154 730.096C337.063 730.841 336.981 731.588 336.906 732.336C336.831 733.083 336.764 733.83 336.704 734.579C336.644 735.328 336.591 736.077 336.547 736.827C336.503 737.577 336.466 738.327 336.436 739.078C336.407 739.828 336.385 740.579 336.371 741.33C336.357 742.081 336.351 742.832 336.352 743.582C336.353 744.333 336.362 745.085 336.379 745.836C336.395 746.586 336.418 747.337 336.45 748.087C336.482 748.838 336.521 749.588 336.568 750.338C336.615 751.087 336.67 751.836 336.732 752.585C337.111 756.811 337.363 760.319 339.335 764.169C342.261 769.883 346.917 773.377 348.119 780.018C348.81 783.836 348.061 788.335 348.856 791.771C348.96 792.221 349.023 792.428 349.434 792.668C350.508 791.977 350.957 789.48 351.226 788.259C352.2 783.821 353.271 773.966 353.101 769.489C352.949 765.452 352.232 761.566 352.282 757.487C352.372 750.34 353.99 743.403 355.762 736.52C356.321 734.351 356.799 732.099 357.511 729.979C357.398 738.508 357.987 747.017 359.818 755.365C361.139 761.397 363.315 767.07 364.885 773.015C369.357 789.951 368.572 805.841 362.32 822.235C359.24 830.315 354.977 838.565 348.748 844.655C347.827 845.549 346.883 846.418 345.917 847.263C345.94 847.204 345.962 847.146 345.985 847.087C347.015 844.516 348.645 842.205 349.693 839.595C353.153 830.98 353.481 820.483 349.907 811.847C346.352 803.258 338.832 796.676 330.339 793.17C330.064 793.055 329.787 792.943 329.508 792.834C329.23 792.726 328.95 792.621 328.669 792.519C328.387 792.418 328.105 792.319 327.821 792.225C327.538 792.13 327.253 792.039 326.967 791.951C326.682 791.863 326.395 791.779 326.107 791.698C325.819 791.618 325.53 791.541 325.241 791.468C324.951 791.394 324.661 791.324 324.369 791.257C324.078 791.191 323.785 791.128 323.492 791.069C323.199 791.01 322.906 790.954 322.611 790.902C322.317 790.85 322.022 790.802 321.727 790.758C321.431 790.713 321.135 790.672 320.838 790.634C320.542 790.597 320.245 790.563 319.947 790.533C319.65 790.503 319.353 790.476 319.055 790.453C318.757 790.431 318.458 790.411 318.16 790.396C317.862 790.38 317.563 790.368 317.264 790.36C316.965 790.352 316.666 790.348 316.367 790.347C316.069 790.346 315.77 790.349 315.471 790.355C315.172 790.361 314.873 790.371 314.574 790.385C314.276 790.399 313.978 790.417 313.68 790.438C313.381 790.459 313.084 790.484 312.786 790.512C312.489 790.541 312.191 790.573 311.894 790.609C311.598 790.645 311.301 790.684 311.006 790.727C310.71 790.77 310.415 790.817 310.12 790.867C309.826 790.918 309.532 790.972 309.238 791.029C308.945 791.087 308.652 791.148 308.361 791.213C308.069 791.278 307.777 791.346 307.487 791.418C307.198 791.489 306.909 791.564 306.62 791.643C306.332 791.723 306.044 791.805 305.759 791.891C305.472 791.978 305.187 792.067 304.903 792.16C304.619 792.253 304.336 792.349 304.054 792.449C303.773 792.55 303.492 792.653 303.213 792.76C302.934 792.867 302.657 792.977 302.38 793.091C293.623 796.738 286.39 804.631 282.853 813.37C279.694 821.174 278.943 832.187 282.33 840.049C283.017 841.647 283.902 843.057 284.839 844.513C274.592 836.693 269.976 827.807 268.222 815.151C267.665 811.137 267.872 806.871 268.084 802.831C269.228 781.108 275.875 765.027 285.683 745.843C287.387 742.51 289.204 739.276 290.994 735.991C292.398 733.416 293.441 730.993 295 728.5C296.153 726.655 300.493 719.264 302 717.5L303 716L306.501 711.501C305.951 717.617 305.372 730.044 306.095 736.13C306.704 741.251 307.549 746.328 307.325 751.507C307.167 755.181 306.538 758.86 305.799 762.459C304.687 767.871 302.2 773.819 304.674 779.184C307.317 774.377 307.858 768.892 309.773 763.812C311.355 759.617 312.884 755.366 314.642 751.242C318.409 742.412 322.776 733.751 327.148 725.204C328.974 721.633 333 713.501 335 710.501C335 710.501 338.366 704.63 340.865 701.12C341.028 701.292 341.188 701.447 341.366 701.605L342.001 701.485C342.489 701.1 342.701 698.029 343 697.501ZM340.865 701.12C338.366 704.63 335 710.501 335 710.501C335.958 708.86 338.316 704.618 339.242 703.501L340.865 701.001C341.366 700.092 341.366 700.158 342 699.001L343 697.501C342.701 698.029 342.489 701.1 342.001 701.485L341.366 701.605C341.188 701.447 341.028 701.292 340.865 701.12Z" fill="#FDB675"/>
<path d="M297.323 741.805C297.461 741.435 297.601 741.306 297.9 741.073C299.097 740.135 300.166 738.702 301.086 737.484C301.089 742.006 300.751 746.899 299.574 751.265C297.291 759.739 292.707 768.48 289.562 776.77C287.127 783.185 285.582 790.084 282.949 796.365C282.265 797.997 281.523 799.189 280.279 800.449C279.127 801.616 276.779 803.936 275.026 803.878C274.524 803.862 274.41 803.792 274.072 803.469C272.953 800.257 276.914 779.412 278.656 776.021C279.351 774.669 280.831 772.542 282.063 771.713C283.529 760.501 290.4 750.403 297.323 741.805Z" fill="#F4414E"/>
<path d="M297.323 741.807L297.537 742.138C297.162 743.459 296.614 744.74 296.177 746.043C294.3 751.635 292.111 757.1 290.115 762.648C287.376 770.26 285.382 777.837 283.659 785.734C281.697 780.728 281.802 776.972 282.063 771.715C283.529 760.503 290.401 750.404 297.323 741.807Z" fill="#040504"/>
<path d="M857.244 606C857.42 606.078 857.553 606.123 857.701 606.266C859.924 608.399 858.587 615.438 858.183 618.218C856.488 629.914 853.334 644.781 848.335 655.46C845.409 661.712 841.38 667.78 837.492 673.47C835.91 675.786 834.11 678.085 832.674 680.483C832.04 681.543 831.632 682.732 831.047 683.818C824.841 695.324 820.058 705.005 817.224 717.953C816.578 720.901 815.872 723.998 815.909 727.026C818.968 724.225 821.034 720.352 823.387 716.962C826.914 711.88 831.709 705.933 836.112 701.589C838.938 698.803 841.984 696.233 844.977 693.632C846.151 692.611 847.892 690.517 849.384 690.25L849.609 690.509L849.561 691.069C848.08 692.864 847.068 695.013 846.048 697.091C842.747 703.815 840.831 710.302 839.244 717.6C838.267 722.092 837.429 726.496 837.022 731.082C836.637 735.417 836.782 739.916 836.889 744.263C836.957 747.036 837.348 749.745 837.554 752.506C837.962 757.989 838.1 763.988 837.595 769.464C836.932 776.649 834.493 784.668 831.866 791.365C825.417 807.808 811.401 822.499 795.174 829.538C782.591 834.994 769.907 835.505 757.089 830.375C744.751 825.436 733.964 815.011 728.702 802.777C728.704 802.186 726.813 797.947 726.467 796.875C724.437 790.614 722.534 780.926 723.102 774.364C724.937 753.214 735.66 730.802 748.505 714.131C754.182 706.763 760.495 699.935 766.565 692.898C771.228 687.491 775.738 681.836 780.029 676.129C785.056 669.445 789.728 662.4 794.46 655.502C796.031 653.212 797.512 649.98 799.631 648.189C799.785 646.992 800.249 646.207 800.94 645.228L801.378 645.255C802.124 646.949 800.499 651.117 800.023 652.846C797.995 660.22 795.919 667.555 793.24 674.73C788.515 687.387 778.569 707.069 778.689 720.404C783.224 717.195 788.46 707.396 791.403 702.46C796.11 694.566 801.376 684.559 807.039 677.506C810.309 673.435 814.477 669.815 818.318 666.297C820.683 664.133 822.97 661.844 825.404 659.758C831.454 654.571 838.044 649.199 842.442 642.443C847.954 633.976 853.532 622.101 856.13 612.372C856.648 610.431 856.607 608.343 857.128 606.415L857.244 606ZM776.391 694.578C767.293 704.319 758.959 714.457 751.361 725.419C748.995 728.832 746.526 732.153 744.366 735.706C743.054 737.866 741.944 740.147 740.784 742.39C734.972 753.618 730.789 765.555 731.274 778.376C731.54 785.45 733.123 793.199 736.475 799.475C735.279 789.161 737.773 777.042 744.331 768.806C750.408 761.175 760.365 755.732 770.056 754.686C779.57 753.658 788.815 755.896 796.287 762.019C803.522 767.946 808.699 777.221 809.575 786.573C810.663 798.192 807.029 807.39 800.624 816.782C810.576 810.871 818.023 801.343 822.441 790.708C823.569 787.99 824.372 785.175 825.273 782.379C825.994 780.137 826.853 777.952 827.431 775.665C830.433 763.786 829.176 751.452 828.608 739.36C827.962 738.484 828.356 732.314 828.375 730.86C827.53 731.242 827.619 732.589 826.773 732.779C826.519 732.836 825.891 732.573 825.685 732.666C825.587 732.709 825.533 732.818 825.462 732.897C824.516 733.942 824.768 735.082 823.432 736.007C823.374 736.047 823.315 736.085 823.256 736.125C821.494 740.847 820.098 745.515 819.155 750.472C818.117 755.938 817.603 761.716 815.64 766.944C814.665 769.539 813.217 771.875 811.762 774.221C812.245 766.602 812.044 759.776 809.599 752.439C808.353 748.7 806.748 745.172 806.212 741.232C805.384 735.139 806.27 729.184 807.359 723.195C810.277 707.135 816.661 692.267 824.779 678.171C827.318 673.763 830.186 669.525 832.692 665.113C826.41 670.459 819.647 675.158 814.546 681.725C801.725 698.236 795.359 718.866 779.417 733.02C778.499 733.835 776.494 735.862 775.218 735.817C774.815 735.802 774.366 735.287 774.135 734.986C769.264 728.623 769.844 719.399 771.049 711.964C771.984 706.198 773.997 699.906 776.391 694.578ZM772.598 762.709C764.285 763.252 757.021 766.732 751.53 773.019C746.275 779.036 743.135 787.395 743.679 795.407C744.187 802.88 747.57 809.431 753.213 814.34C758.84 819.237 766.174 821.548 773.567 821.445C781.813 820.783 789.314 817.411 794.744 811.05C800.103 804.769 802.623 796.261 801.952 788.073C801.356 780.813 797.797 773.589 792.202 768.901C786.578 764.187 779.827 762.413 772.598 762.709ZM828.981 725.262C826.605 728.364 824.501 732.432 823.256 736.125C823.315 736.085 823.374 736.047 823.432 736.007C824.768 735.082 824.516 733.942 825.462 732.897C825.533 732.818 825.587 732.709 825.685 732.666C825.891 732.573 826.519 732.836 826.773 732.779C827.619 732.589 827.53 731.242 828.375 730.86C828.356 732.314 827.962 738.484 828.608 739.36C828.817 737.624 828.639 735.677 828.65 733.918C828.669 731.024 828.807 728.149 828.981 725.262Z" fill="#040504"/>
<path d="M772.597 762.709C779.826 762.413 786.578 764.187 792.202 768.901C797.797 773.589 801.355 780.813 801.951 788.073C802.623 796.262 800.103 804.77 794.743 811.05C789.314 817.411 781.813 820.783 773.566 821.445C766.174 821.548 758.839 819.237 753.212 814.34C747.57 809.431 744.186 802.88 743.678 795.407C743.134 787.395 746.274 779.036 751.529 773.019C757.021 766.732 764.284 763.252 772.597 762.709ZM753.126 796.955C753.096 798.075 752.954 798.707 752.433 799.69C752.309 799.922 752.189 800.161 752.073 800.396C752.009 800.527 751.948 800.66 751.889 800.794L751.635 800.927L752.422 801.731C753.991 803.323 751.635 800.927 751.635 800.927C751.618 800.065 752.697 797.728 753.126 796.955C753.814 796.554 756.997 804.204 757.772 804.251C758.01 804.238 758.374 804.241 758.607 804.155C759.336 803.883 759.845 803.213 760.096 802.497C760.787 800.52 760.092 797.578 759.24 795.746C758.649 794.474 757.14 792.008 755.616 791.7C755.146 791.605 754.764 791.614 754.371 791.922C753.147 792.88 753.139 795.532 753.126 796.955ZM765.337 765.053C762.328 765.77 758.474 767.143 756.812 769.981C756.668 770.226 756.624 770.436 756.611 770.715C756.901 771.162 757.134 771.291 757.665 771.404C758.739 771.635 760.095 771.329 761.173 771.159C763.73 770.405 768.168 769.345 769.702 766.929C770.012 766.44 769.999 766.22 769.861 765.677C768.928 764.88 767.502 764.86 766.332 764.951C766 764.978 765.668 765.012 765.337 765.053ZM783.768 767.104C783.339 767.531 783.028 767.694 783.046 768.367C783.088 769.853 784.562 771.086 785.648 771.914C787.744 773.512 789.707 774.064 792.297 773.971C792.842 773.272 793.083 772.73 792.984 771.828C792.854 770.644 791.963 769.758 791.061 769.076C788.927 767.465 786.424 766.761 783.768 767.104ZM752.505 775.007C749.619 776.8 747.098 780.395 746.352 783.719C746.194 784.426 746.172 784.929 746.395 785.616C746.81 786.063 746.919 786.268 747.542 786.362C747.621 786.373 747.701 786.367 747.781 786.369C750.597 784.499 753.174 780.504 753.8 777.174C753.911 776.585 753.972 776.137 753.792 775.551C753.36 775.125 753.307 775.035 752.683 774.997C752.624 774.994 752.564 775.004 752.505 775.007ZM770.47 815.642C769.117 815.921 767.924 816.069 766.931 817.116C766.774 817.601 766.646 817.843 766.911 818.338C767.503 819.444 769.28 820.035 770.432 820.2C771.52 820.356 772.7 820.24 773.775 820.054C775.174 819.66 776.616 819.416 777.602 818.266C777.73 817.798 777.838 817.58 777.522 817.139C776.636 815.899 774.18 815.599 772.776 815.559C772.009 815.538 771.235 815.594 770.47 815.642Z" fill="#F4414E"/>
<path d="M770.469 815.642C771.235 815.594 772.009 815.538 772.775 815.559C774.18 815.599 776.635 815.899 777.522 817.139C777.837 817.58 777.73 817.798 777.601 818.266C776.615 819.416 775.174 819.66 773.775 820.054C772.699 820.24 771.519 820.356 770.431 820.2C769.28 820.035 767.503 819.444 766.911 818.338C766.646 817.843 766.774 817.601 766.931 817.116C767.924 816.069 769.116 815.921 770.469 815.642Z" fill="#040504"/>
<path d="M752.505 775.006C752.564 775.003 752.624 774.994 752.683 774.997C753.307 775.035 753.36 775.124 753.792 775.55C753.972 776.137 753.911 776.585 753.8 777.173C753.174 780.504 750.597 784.498 747.781 786.368C747.701 786.366 747.621 786.373 747.543 786.361C746.919 786.267 746.81 786.063 746.395 785.616C746.172 784.928 746.194 784.425 746.352 783.719C747.098 780.394 749.619 776.8 752.505 775.006Z" fill="#040504"/>
<path d="M783.769 767.104C786.425 766.762 788.928 767.465 791.062 769.076C791.964 769.758 792.855 770.644 792.985 771.828C793.085 772.731 792.843 773.273 792.298 773.972C789.708 774.065 787.745 773.512 785.649 771.915C784.563 771.087 783.089 769.853 783.048 768.368C783.029 767.695 783.34 767.531 783.769 767.104Z" fill="#040504"/>
<path d="M782.285 805.887C783.11 805.805 783.966 805.695 784.79 805.827C785.493 805.94 785.925 806.189 786.337 806.782C786.489 807.39 786.456 807.797 786.233 808.373C785.276 810.844 782.829 812.43 780.487 813.378C779.688 813.536 778.847 813.691 778.032 813.57C777.312 813.465 777.014 813.185 776.591 812.619C776.447 811.824 776.566 811.253 776.911 810.52C777.98 808.244 779.998 806.767 782.285 805.887Z" fill="#040504"/>
<path d="M765.337 765.053C765.668 765.013 765.999 764.978 766.332 764.951C767.502 764.86 768.928 764.88 769.861 765.677C769.999 766.221 770.012 766.44 769.702 766.929C768.168 769.345 763.73 770.405 761.173 771.159C760.095 771.329 758.739 771.635 757.665 771.404C757.134 771.291 756.901 771.163 756.611 770.715C756.624 770.436 756.668 770.226 756.812 769.982C758.473 767.143 762.328 765.77 765.337 765.053Z" fill="#040504"/>
<path d="M755.94 807.177C756.21 808.113 756.499 809.093 756.321 810.071C756.203 810.717 755.992 811.11 755.444 811.498C755.143 811.557 754.874 811.604 754.569 811.526C752.633 811.03 750.665 808.586 749.723 806.875C748.957 805.485 747.983 803.066 748.523 801.458C748.755 800.766 749.156 800.508 749.77 800.221C750.508 800.209 751.019 800.574 751.636 800.927L752.424 801.731C753.993 803.323 754.992 805.182 755.94 807.177Z" fill="#040504"/>
<path d="M792.429 779.462C793.374 779.408 794.029 779.507 794.786 780.121C796.142 781.22 796.655 783.123 796.856 784.783C797.151 787.224 796.722 789.783 795.189 791.746C794.248 791.716 793.722 791.562 793.011 790.925C791.435 789.516 790.848 787.113 790.75 785.067C790.649 782.977 791.023 781.052 792.429 779.462Z" fill="#040504"/>
<path d="M766.961 770.515C768.607 770.341 770.914 770.214 772.433 770.922C773.021 771.197 773.163 771.479 773.353 772.049C773.299 772.524 773.226 772.864 772.974 773.277C771.369 775.906 767.642 777.128 764.792 777.749C763.267 777.995 760.795 778.18 759.397 777.427C758.954 777.187 758.631 776.915 758.532 776.406C758.402 775.739 758.621 775.23 758.981 774.685C760.701 772.082 764.07 771.05 766.961 770.515Z" fill="#040504"/>
<path d="M753.126 796.955C753.139 795.531 753.147 792.88 754.371 791.921C754.764 791.613 755.146 791.605 755.616 791.7C757.14 792.008 758.649 794.474 759.24 795.746C760.092 797.578 760.787 800.52 760.096 802.497C759.845 803.213 759.336 803.882 758.608 804.154C758.375 804.241 758.01 804.238 757.772 804.25C756.997 804.204 756.813 804.128 756.124 804.53C755.696 805.303 755.922 806.314 755.939 807.176C754.991 805.181 753.991 803.322 752.422 801.73L751.635 800.927L751.889 800.794C751.948 800.66 752.009 800.527 752.073 800.395C752.189 800.16 752.31 799.922 752.433 799.69C752.954 798.706 753.096 798.075 753.126 796.955ZM753.126 796.955C753.096 798.075 752.954 798.706 752.433 799.69C752.31 799.922 752.189 800.16 752.073 800.395C752.009 800.527 751.948 800.66 751.889 800.794L751.635 800.927L752.422 801.73C753.991 803.322 754.991 805.181 755.939 807.176C755.922 806.314 755.696 805.303 756.124 804.53C756.813 804.128 756.997 804.204 757.772 804.25C757.547 804.129 757.33 804.009 757.117 803.868C754.532 802.161 753.743 799.83 753.126 796.955Z" fill="#040504"/>
<path d="M776.39 694.578C773.996 699.906 771.983 706.198 771.048 711.964C769.843 719.399 769.263 728.623 774.134 734.986C774.365 735.287 774.814 735.802 775.217 735.817C776.493 735.862 778.498 733.835 779.416 733.02C795.358 718.866 801.724 698.236 814.545 681.725C819.646 675.158 826.409 670.459 832.691 665.113C830.186 669.525 827.318 673.763 824.779 678.171C816.66 692.267 810.276 707.135 807.358 723.195C806.269 729.184 805.383 735.139 806.211 741.232C806.747 745.172 808.352 748.7 809.598 752.439C812.043 759.776 812.244 766.602 811.761 774.221C813.216 771.875 814.664 769.539 815.639 766.944C817.602 761.716 818.116 755.938 819.154 750.472C820.097 745.515 821.493 740.847 823.255 736.125C823.011 736.625 823.314 736.085 823.255 736.125C823.755 734.625 823.999 734 824.577 732.666C824.649 732.587 825.499 730.5 825.499 730.5C826.499 728.5 828.154 725.383 828.999 725C828.98 726.454 828.943 738.302 828.999 739.5C829.567 751.592 830.432 763.786 827.43 775.665C826.853 777.952 825.993 780.138 825.272 782.379C824.371 785.175 823.568 787.99 822.44 790.708C818.022 801.343 810.575 810.871 800.623 816.782C807.028 807.39 810.662 798.192 809.574 786.573C808.698 777.221 803.521 767.946 796.286 762.019C788.814 755.896 779.569 753.658 770.055 754.686C760.364 755.732 750.407 761.175 744.33 768.806C737.772 777.042 735.278 789.161 736.474 799.475C733.122 793.2 731.539 785.45 731.273 778.376C730.788 765.555 734.971 753.618 740.783 742.39C741.943 740.147 743.053 737.866 744.365 735.706C746.525 732.154 748.994 728.832 751.36 725.419C758.958 714.457 767.292 704.319 776.39 694.578ZM798.764 716.585C794.882 721.395 781.258 737.091 782.431 742.931C782.493 743.234 782.581 743.442 782.751 743.692C787.519 742.614 790.688 739.098 793.222 735.1C796.181 730.43 797.63 725.618 798.554 720.223C798.735 719.17 799.107 717.841 798.968 716.789L798.764 716.585Z" fill="#FDB675"/>
<path d="M798.764 716.586L798.967 716.789C799.106 717.842 798.734 719.17 798.554 720.224C797.629 725.619 796.18 730.43 793.222 735.1C790.688 739.099 787.518 742.615 782.75 743.693C782.581 743.443 782.492 743.235 782.431 742.931C781.257 737.092 794.881 721.396 798.764 716.586Z" fill="#F4414E"/>
<path d="M759.59 724.073C759.68 723.175 761.33 721.491 761.932 720.746C762.046 726.382 761.179 731.269 758.222 736.162C760.966 734.622 763.619 732.861 766.41 731.421C763.183 741.642 757.683 752.467 747.8 757.643C746.706 758.216 744.858 759.391 743.594 759.062C743.274 758.979 743.041 758.761 742.878 758.473C741.907 756.761 743.434 752.589 744.194 750.908C745.954 747.017 748.771 743.077 752.106 740.377C752.991 739.661 755.145 738.636 755.164 737.544L754.996 737.993C754.329 737.836 753.221 737.71 752.842 737.104C752.294 736.226 752.489 734.886 752.798 733.954C753.036 733.231 753.804 731.354 754.486 730.985C755.938 728.573 757.886 726.323 759.59 724.073Z" fill="#F4414E"/>
<path d="M759.589 724.074C760.39 723.509 761.025 722.495 761.634 721.727C761.58 726.277 760.97 732.817 757.464 736.169C756.705 736.895 755.519 737.713 754.427 737.763C753.835 737.789 753.656 737.583 753.216 737.239C752.787 736.375 752.602 735.554 752.899 734.605C753.259 733.462 754.367 732.11 754.484 730.986C755.936 728.574 757.885 726.324 759.589 724.074Z" fill="#040504"/>
</svg>
