<svg width="1080" height="1080" viewBox="0 0 1080 1080" fill="none" xmlns="http://www.w3.org/2000/svg">
<path d="M404.315 655.619L405.769 653.182C410.998 644.414 403.588 633.536 393.514 635.194L381.506 637.17C380.188 637.387 378.942 637.919 377.873 638.72C367.187 646.735 359.049 657.672 354.443 670.211L352.5 675.5L397.7 660.89C400.472 659.994 402.823 658.121 404.315 655.619Z" fill="#313335"/>
<path d="M379.5 750.5L391.206 833.379C391.709 836.937 393.779 840.083 396.849 841.951L420.739 856.494C424.317 858.671 426.5 862.556 426.5 866.744V894.712C426.5 900.41 422.493 905.322 416.911 906.467L408.82 908.127C407.614 908.374 406.377 908.434 405.152 908.306L369 904.5L355.618 899.228C353.578 898.425 351.358 898.195 349.197 898.565L322.107 903.199C317.473 903.991 312.804 902.006 310.16 898.118L308.077 895.054C306.724 893.064 306 890.713 306 888.307V820.5C306 813.873 311.373 808.5 318 808.5H328.199C330.359 808.5 332.48 807.917 334.337 806.812L349.876 797.562C351.598 796.537 353.036 795.097 354.058 793.374L379.5 750.5Z" fill="#313335"/>
<path d="M506.5 895.619V888C506.5 881.373 511.873 876 518.5 876H570.226C575.9 876 580.5 880.6 580.5 886.274C580.5 889.833 578.657 893.139 575.63 895.012L547.122 912.642C544.184 914.459 540.606 914.921 537.303 913.912L514.993 907.095C509.947 905.553 506.5 900.896 506.5 895.619Z" fill="#313335"/>
<path d="M654 895.619V865.681C654 862.085 655.613 858.678 658.394 856.399L686.165 833.643C688.621 831.63 690.179 828.726 690.498 825.567L695 781V741L722 789L744.543 805.281C747.373 807.325 750.952 808.035 754.348 807.227L755.221 807.019C762.761 805.224 770 810.941 770 818.693V894.813C770 896.902 769.455 898.954 768.419 900.767L765.454 905.956C762.368 911.357 755.666 913.504 750.015 910.902L722 898L694.433 913.076C691.598 914.626 688.258 914.968 685.168 914.024L662.493 907.095C657.447 905.553 654 900.896 654 895.619Z" fill="#313335"/>
<path d="M667.639 653.213L669.067 655.537C670.632 658.087 673.094 659.959 675.969 660.788L727 675.5L716.625 660.547C712.223 654.204 707.102 648.391 701.362 643.226L697.64 639.876C695.917 638.325 693.781 637.307 691.492 636.944L679.744 635.081C669.623 633.477 662.277 644.479 667.639 653.213Z" fill="#313335"/>
<path d="M379.5 750.5L391.206 833.379C391.709 836.937 393.779 840.083 396.849 841.951L420.739 856.494C424.317 858.671 426.5 862.556 426.5 866.744V894.712C426.5 900.41 422.493 905.322 416.911 906.467L408.82 908.127C407.614 908.374 406.377 908.434 405.152 908.306L369 904.5M379.5 750.5L362.042 815.967C361.683 817.312 361.561 818.709 361.682 820.096L369 904.5M379.5 750.5L354.058 793.374C353.036 795.097 351.598 796.537 349.876 797.562L334.337 806.812C332.48 807.917 330.359 808.5 328.199 808.5H318C311.373 808.5 306 813.873 306 820.5V888.307C306 890.713 306.724 893.064 308.077 895.054L310.16 898.118C312.804 902.006 317.473 903.991 322.107 903.199L349.197 898.565C351.358 898.195 353.578 898.425 355.618 899.228L369 904.5M722 898L694.433 913.076C691.598 914.626 688.258 914.968 685.168 914.024L662.493 907.095C657.447 905.553 654 900.896 654 895.619V865.681C654 862.085 655.613 858.678 658.394 856.399L686.165 833.643C688.621 831.63 690.179 828.726 690.498 825.567L695 781V741L722 789M722 898V861.409C722 860.473 721.89 859.54 721.674 858.629L717.468 840.964C717.158 839.664 717.068 838.321 717.201 836.991L722 789M722 898L750.015 910.902C755.666 913.504 762.368 911.357 765.454 905.956L768.419 900.767C769.455 898.954 770 896.902 770 894.813V818.693C770 810.941 762.761 805.224 755.221 807.019L754.348 807.227C750.952 808.035 747.373 807.325 744.543 805.281L722 789M352.5 675.5L397.7 660.89C400.472 659.994 402.823 658.121 404.315 655.619L405.769 653.182C410.998 644.414 403.588 633.536 393.514 635.194L381.506 637.17C380.188 637.387 378.942 637.919 377.873 638.72V638.72C367.187 646.735 359.049 657.672 354.443 670.211L352.5 675.5ZM727 675.5L716.625 660.547C712.223 654.204 707.101 648.391 701.362 643.226L697.64 639.876C695.917 638.325 693.781 637.307 691.492 636.944L679.744 635.081C669.623 633.477 662.277 644.479 667.639 653.213L669.067 655.537C670.632 658.087 673.094 659.959 675.969 660.788L727 675.5ZM580.5 886.274V886.274C580.5 889.834 578.657 893.14 575.63 895.012L547.122 912.642C544.184 914.459 540.606 914.921 537.303 913.912L514.993 907.095C509.947 905.553 506.5 900.896 506.5 895.619V888C506.5 881.373 511.873 876 518.5 876H570.226C575.9 876 580.5 880.6 580.5 886.274Z" stroke="black" stroke-width="10"/>
<path d="M534 869.501V669.501C534 666.463 536.462 664.001 539.5 664.001C542.538 664.001 545 666.463 545 669.501V869.501C545 872.538 542.538 875.001 539.5 875.001C536.462 875.001 534 872.538 534 869.501Z" fill="black"/>
<path d="M575.739 880.859C553.539 881.519 531.979 882.159 511.349 882.769C511.349 893.909 511.749 905.019 511.189 916.089C510.879 922.089 509.339 928.139 507.499 933.889C506.799 936.059 503.969 938.179 501.629 939.099C486.839 944.909 471.319 944.939 455.849 943.519C448.369 942.829 440.989 940.699 433.689 938.769C431.449 938.179 429.539 936.149 427.589 934.629C422.339 930.559 420.239 925.219 420.489 918.539C421.129 901.609 421.299 884.659 422.049 867.729C422.189 864.589 421.649 863.059 418.729 862.289C417.769 862.039 416.899 861.479 415.949 861.189C391.549 853.539 381.109 835.369 379.049 811.369C377.689 795.499 377.179 779.559 376.269 763.349C375.179 765.369 374.089 767.579 372.829 769.689C366.979 779.539 361.749 789.839 355.079 799.099C342.129 817.079 320.969 821.069 303.069 809.799C290.599 801.949 281.979 781.329 284.429 766.489C287.299 749.039 295.529 734.159 306.029 720.429C320.259 701.829 335.979 684.499 356.389 672.559C365.449 667.259 375.649 663.729 385.659 660.359C389.649 659.009 394.519 660.439 398.969 660.209C400.829 660.109 403.299 659.529 404.359 658.229C412.579 648.199 420.429 637.869 428.649 627.839C429.679 626.579 432.359 625.769 434.039 626.069C481.639 634.609 529.649 636.509 577.799 634.139C596.519 633.219 615.119 629.709 633.779 627.479C640.989 626.619 647.289 629.149 652.119 634.269C659.629 642.249 666.619 650.729 673.949 658.879C674.789 659.809 676.519 660.659 677.659 660.479C693.469 657.909 707.399 663.449 720.279 671.359C750.149 689.699 773.399 714.549 789.209 745.889C798.909 765.099 798.039 784.029 783.549 800.849C769.459 817.209 745.569 817.759 729.219 802.589C719.859 793.909 714.619 782.459 708.709 771.489C706.209 766.859 704.089 762.019 701.229 756.119C701.229 758.589 701.179 759.949 701.229 761.299C702.109 780.439 702.449 799.539 699.469 818.579C696.159 839.719 684.689 853.789 664.199 860.139C659.969 861.449 658.899 863.219 659.279 867.789C660.649 884.359 661.479 900.969 662.169 917.589C662.339 921.619 662.659 927.389 660.339 929.419C655.259 933.859 648.769 936.989 642.409 939.559C638.069 941.309 632.989 941.409 628.209 941.889C614.879 943.219 601.599 943.169 589.099 937.539C580.429 933.639 574.409 927.469 574.679 917.049C574.919 907.739 575.089 898.429 575.329 889.119C575.399 886.319 575.609 883.529 575.749 880.859H575.739ZM653.389 800.189C664.829 797.159 675.729 794.349 686.549 791.239C687.559 790.949 688.669 788.749 688.649 787.439C688.489 775.339 688.799 763.179 687.589 751.179C685.889 734.359 683.779 717.499 680.439 700.939C676.209 679.979 664.279 662.919 649.959 647.419C647.829 645.109 645.839 644.449 642.599 645.069C633.639 646.789 624.599 648.429 615.519 649.189C598.139 650.629 580.709 651.619 563.279 652.479C531.719 654.029 500.139 654.679 468.759 650.019C463.889 649.299 461.639 650.559 460.049 654.729C451.779 676.299 443.759 698.089 442.889 721.369C441.949 746.439 442.689 771.559 442.509 796.659C442.479 801.469 444.719 803.149 449.069 803.429C472.589 804.929 496.079 807.199 519.629 807.879C558.719 809.009 597.809 808.349 636.689 803.199C644.629 802.149 645.339 801.869 645.489 793.939C645.879 773.659 644.989 756.379 645.279 736.099C645.309 733.969 645.419 731.709 646.199 729.789C646.719 728.489 648.439 726.919 649.679 726.869C650.879 726.819 652.849 728.329 653.259 729.559C654.339 732.829 655.229 736.309 655.329 739.729C655.599 749.039 656.779 755.379 656.319 764.679C655.749 776.089 654.479 787.469 653.399 800.209L653.389 800.189ZM646.149 811.729C642.009 812.159 639.089 812.519 636.159 812.759C616.599 814.349 597.059 816.959 577.479 817.259C546.899 817.719 516.289 816.779 485.699 816.059C474.419 815.799 463.149 814.699 451.919 813.569C445.099 812.879 444.369 813.179 444.689 820.069C444.729 821.039 445.079 821.999 445.299 822.959C447.729 833.799 450.299 844.609 452.499 855.489C453.129 858.599 454.389 859.869 457.509 860.529C486.129 866.589 515.039 868.729 544.239 867.699C552.549 867.409 560.889 867.669 569.199 867.259C578.289 866.809 587.519 866.669 596.409 864.949C607.589 862.789 618.449 859.009 629.529 856.259C633.379 855.299 635.369 853.549 636.319 849.599C639.299 837.249 642.679 824.989 646.149 811.729ZM389.359 768.109C389.359 768.559 389.379 770.389 389.359 772.219C389.339 774.219 389.319 776.209 389.229 778.209C388.879 785.719 389.719 787.659 396.549 790.339C406.109 794.089 415.799 797.539 425.569 800.689C432.459 802.899 433.909 801.629 433.789 794.519C433.479 776.259 432.749 758.009 432.789 739.749C432.849 714.229 438.219 689.679 447.559 665.969C449.259 661.649 450.529 657.159 452.139 652.799C453.379 649.439 452.179 647.739 448.809 647.249C443.399 646.459 437.899 646.019 432.589 644.769C428.819 643.889 426.479 644.909 424.769 648.049C418.439 659.729 411.429 671.099 405.999 683.179C394.099 709.669 390.089 737.919 389.359 768.109ZM304.579 745.179C306.399 746.579 306.749 746.949 307.169 747.159C322.309 754.689 337.869 761.479 348.949 775.189C352.079 779.059 356.769 778.069 358.899 773.369C364.459 761.139 369.859 748.829 375.089 736.459C376.449 733.249 377.099 729.549 373.759 726.869C362.939 718.149 352.049 709.519 340.049 699.949C327.859 715.499 316.329 730.199 304.569 745.189L304.579 745.179ZM736.319 701.939C726.489 709.749 716.579 717.769 706.489 725.549C702.889 728.319 702.499 730.999 704.659 734.919C711.139 746.699 717.319 758.639 723.669 770.489C726.859 776.439 727.539 776.549 732.599 771.889C741.769 763.449 750.809 754.869 762.679 750.149C766.179 748.759 769.569 747.119 773.009 745.589C768.199 734.619 746.479 708.659 736.319 701.949V701.939ZM430.789 898.369C430.189 898.869 429.599 899.369 428.999 899.869C430.019 908.849 430.949 917.839 432.189 926.789C432.349 927.969 433.909 929.389 435.149 929.899C440.639 932.159 446.109 934.769 451.849 936.069C466.069 939.289 479.869 935.859 493.509 932.069C495.049 931.639 496.899 930.199 497.459 928.779C500.819 920.249 499.919 911.369 499.739 901.829C476.039 907.659 453.339 904.679 430.799 898.369H430.789ZM652.259 898.729C648.599 899.199 646.659 899.339 644.759 899.709C632.839 902.029 620.959 903.899 608.749 901.359C602.779 900.119 596.619 899.579 590.519 899.189C589.239 899.109 586.699 901.029 586.669 902.079C586.499 909.199 586.549 916.369 587.219 923.449C587.399 925.409 589.539 928.079 591.419 928.859C609.379 936.239 627.459 934.209 645.429 928.689C647.049 928.189 649.209 926.369 649.419 924.909C650.609 916.619 651.289 908.249 652.259 898.729ZM389.439 796.569C391.189 809.849 392.479 821.909 397.759 833.039C400.259 838.309 404.259 842.279 409.789 844.439C419.679 848.309 429.599 852.119 439.529 855.879C440.449 856.229 441.569 856.059 442.429 856.119C441.369 851.229 440.269 846.779 439.449 842.269C437.799 833.179 436.009 824.089 434.879 814.929C434.349 810.619 431.789 810.159 428.579 809.409C422.149 807.899 415.699 806.379 409.439 804.319C403.029 802.209 396.829 799.459 389.439 796.569ZM301.739 755.999C295.759 766.159 295.879 782.339 301.669 790.229C313.659 806.569 332.669 804.489 346.399 793.699C349.229 791.469 348.909 787.849 346.269 785.339C333.259 772.979 317.969 764.079 301.739 755.999ZM688.589 801.339C674.599 804.949 661.839 808.229 649.449 811.429C649.449 814.319 649.789 816.809 649.379 819.169C648.429 824.709 647.059 830.179 645.969 835.699C644.899 841.099 643.969 846.519 642.709 853.379C656.659 849.469 668.999 845.439 678.239 835.919C687.359 826.539 686.279 813.649 688.589 801.329V801.339ZM781.689 768.599C781.129 766.219 780.329 762.689 779.489 759.169C778.659 755.669 776.779 755.039 773.689 756.859C767.839 760.319 761.799 763.479 756.019 767.049C748.329 771.809 739.739 775.529 734.599 783.519C733.609 785.069 733.149 787.959 733.929 789.479C738.409 798.269 754.059 803.179 763.059 799.179C775.839 793.509 780.639 782.949 781.689 768.599ZM475.009 895.429C480.969 894.989 486.949 894.719 492.879 894.059C498.999 893.379 500.399 891.269 498.299 885.519C497.749 883.999 495.589 882.649 493.879 882.059C491.569 881.269 488.949 881.439 486.519 880.959C478.389 879.329 470.219 877.859 462.199 875.829C454.689 873.929 447.379 871.239 439.909 869.179C436.419 868.219 433.469 869.529 432.749 873.349C432.049 877.049 432.009 880.869 431.599 884.629C431.179 888.509 433.009 890.319 436.689 891.219C449.289 894.289 461.939 896.609 475.019 895.429H475.009ZM647.079 870.909C638.939 872.769 630.939 874.929 622.809 876.379C612.699 878.169 602.479 879.329 592.319 880.859C589.459 881.289 586.559 881.989 586.849 885.919C587.099 889.419 588.869 890.839 592.509 891.449C606.419 893.759 620.229 893.459 634.089 891.229C652.829 888.219 651.229 891.229 647.529 871.559C647.479 871.269 647.159 871.029 647.079 870.919V870.909ZM347.759 693.659C350.599 695.509 351.959 696.359 353.289 697.269C359.139 701.279 365.029 705.239 370.809 709.349C373.769 711.459 376.439 713.989 379.429 716.049C380.399 716.719 382.369 717.119 383.199 716.579C386.119 714.679 387.969 702.659 385.729 699.939C380.489 693.579 375.009 687.409 369.119 680.559C362.129 684.839 355.569 688.869 347.769 693.649L347.759 693.659ZM729.119 694.099C723.689 690.229 718.019 686.009 712.089 682.179C711.249 681.639 708.749 682.609 707.729 683.609C704.539 686.739 701.969 690.529 698.649 693.489C690.939 700.349 690.819 700.219 694.959 709.669C695.429 710.729 695.909 711.789 696.369 712.859C697.599 715.689 699.529 716.099 701.919 714.339C710.789 707.779 719.639 701.169 729.119 694.109V694.099ZM379.489 675.819C383.619 681.799 386.999 686.689 391.269 692.889C393.969 684.859 396.139 678.429 398.299 672.009C397.969 671.579 397.639 671.149 397.309 670.709C391.769 672.299 386.219 673.889 379.489 675.819ZM689.399 687.549C692.879 683.439 695.869 679.909 699.829 675.239C693.019 673.899 687.629 672.839 682.239 671.779C683.329 675.119 684.989 676.999 686.119 679.149C687.329 681.429 688.039 683.979 689.399 687.539V687.549Z" fill="black"/>
<path d="M602.684 665.548C609.933 673.392 617.15 681.263 624.386 689.115C629.901 695.1 635.436 701.074 640.964 707.049C642.758 708.975 641.493 696.105 638.664 693.078C629.688 683.47 620.795 673.776 611.883 664.107C610.717 662.822 610.858 662.56 612.511 662.26C613.584 662.066 614.72 662.09 615.724 661.73C619.465 660.376 621.909 661.831 624.327 664.74C628.658 669.936 633.3 675.07 638.204 679.736C629.492 598.847 614.44 644.456 631.998 642.5C634.398 642.234 637.63 641.924 640.007 641.5C641.052 641.317 645.428 657.44 645.604 658.583C646.601 665.148 652.593 702.021 650.498 716.422C649.651 722.243 637.962 713.5 637.962 713.5C637.962 713.5 617.682 694.498 607.581 683.548C602.679 678.256 597.748 672.961 592.829 667.65C589.687 664.282 600.211 662.892 602.684 665.548Z" fill="black"/>
<path d="M301.649 716.878L289.767 739.184C288.774 741.049 289.401 743.364 291.2 744.471L361.296 787.632C363.341 788.891 366.026 788.077 367.028 785.895L376.568 765.119C377.392 763.325 376.783 761.198 375.135 760.111L307.382 715.42C305.414 714.122 302.757 714.798 301.649 716.878Z" fill="black"/>
<path d="M791.389 739.961L780.066 720.966C778.928 719.057 776.452 718.442 774.552 719.596L704.647 762.088C702.869 763.169 702.216 765.433 703.147 767.295L711.631 784.262C712.65 786.3 715.162 787.076 717.153 785.969L789.898 745.504C791.87 744.408 792.545 741.898 791.389 739.961Z" fill="black"/>
<path d="M380.274 636.381L376.295 631.122C373.061 626.85 376.623 620.804 381.928 621.562L539 644.001L696.863 621.047C701.511 620.372 705.098 625.056 703.234 629.366L700.668 635.3C699.931 637.004 698.448 638.27 696.65 638.731L639 653.501L590 670.001L557.884 675.983C545.409 678.307 532.605 678.235 520.157 675.771L491 670.001L437.5 653.501L383.458 638.543C382.188 638.191 381.069 637.432 380.274 636.381Z" fill="#3D3D47" stroke="black" stroke-width="10"/>
</svg>
