<svg width="1080" height="1080" viewBox="0 0 1080 1080" fill="none" xmlns="http://www.w3.org/2000/svg">
<path d="M575.739 880.863C553.539 881.523 531.979 882.163 511.349 882.773C511.349 893.913 511.749 905.023 511.189 916.093C510.879 922.093 509.339 928.143 507.499 933.893C506.799 936.063 503.969 938.183 501.629 939.103C486.839 944.913 471.319 944.943 455.849 943.523C448.369 942.833 440.989 940.703 433.689 938.773C431.449 938.183 429.539 936.153 427.589 934.633C422.339 930.563 420.239 925.223 420.489 918.543C421.129 901.613 421.299 884.663 422.049 867.733C422.189 864.593 421.649 863.063 418.729 862.293C417.769 862.043 416.899 861.483 415.949 861.193C391.549 853.543 381.109 835.373 379.049 811.373C377.689 795.503 377.179 779.563 376.269 763.353C375.179 765.373 374.089 767.583 372.829 769.693C366.979 779.543 361.749 789.843 355.079 799.103C342.129 817.083 320.969 821.073 303.069 809.803C290.599 801.953 281.979 781.333 284.429 766.493C287.299 749.043 295.529 734.163 306.029 720.433C320.259 701.833 335.979 684.503 356.389 672.563C365.449 667.263 375.649 663.733 385.659 660.363C389.649 659.013 394.519 660.443 398.969 660.213C400.829 660.113 403.299 659.533 404.359 658.233C412.579 648.203 420.429 637.873 428.649 627.843C429.679 626.583 432.359 625.773 434.039 626.073C481.639 634.613 529.649 636.513 577.799 634.143C596.519 633.223 615.119 629.713 633.779 627.483C640.989 626.623 647.289 629.153 652.119 634.273C659.629 642.253 666.619 650.733 673.949 658.883C674.789 659.813 676.519 660.663 677.659 660.483C693.469 657.913 707.399 663.453 720.279 671.363C750.149 689.703 773.399 714.553 789.209 745.893C798.909 765.103 798.039 784.033 783.549 800.853C769.459 817.213 745.569 817.763 729.219 802.593C719.859 793.913 714.619 782.463 708.709 771.493C706.209 766.863 704.089 762.023 701.229 756.123C701.229 758.593 701.179 759.953 701.229 761.303C702.109 780.443 702.449 799.543 699.469 818.583C696.159 839.723 684.689 853.793 664.199 860.143C659.969 861.453 658.899 863.223 659.279 867.793C660.649 884.363 661.479 900.973 662.169 917.593C662.339 921.623 662.659 927.393 660.339 929.423C655.259 933.863 648.769 936.993 642.409 939.563C638.069 941.313 632.989 941.413 628.209 941.893C614.879 943.223 601.599 943.173 589.099 937.543C580.429 933.643 574.409 927.473 574.679 917.053C574.919 907.743 575.089 898.433 575.329 889.123C575.399 886.323 575.609 883.533 575.749 880.863H575.739ZM653.389 800.193C664.829 797.163 675.729 794.353 686.549 791.243C687.559 790.953 688.669 788.753 688.649 787.443C688.489 775.343 688.799 763.183 687.589 751.183C685.889 734.363 683.779 717.503 680.439 700.943C676.209 679.983 664.279 662.923 649.959 647.423C647.829 645.113 645.839 644.453 642.599 645.073C633.639 646.793 624.599 648.433 615.519 649.193C598.139 650.633 580.709 651.623 563.279 652.483C531.719 654.033 500.139 654.683 468.759 650.023C463.889 649.303 461.639 650.563 460.049 654.733C451.779 676.303 443.759 698.093 442.889 721.373C441.949 746.443 442.689 771.563 442.509 796.663C442.479 801.473 444.719 803.153 449.069 803.433C511.756 807.43 574.064 811.498 636.689 803.203C644.629 802.153 645.339 801.873 645.489 793.943C645.879 773.663 646.769 746.523 640.429 718.023C634.089 689.523 607.429 611.803 619.929 647.253C613.929 614.634 628.289 645.123 629.529 645.073C630.729 645.023 648.879 709.593 649.959 712.863C651.039 716.133 653.983 726.069 655.399 734.923C657.234 746.399 656.319 764.683 656.319 764.683C656.319 764.683 654.479 787.473 653.399 800.213L653.389 800.193ZM646.149 811.733C642.009 812.163 639.089 812.523 636.159 812.763C574.697 817.759 513.496 819.769 451.919 813.573C445.099 812.883 444.369 813.183 444.689 820.073C444.729 821.043 445.079 822.003 445.299 822.963C447.729 833.803 450.299 844.613 452.499 855.493C453.129 858.603 454.389 859.873 457.509 860.533C486.129 866.593 515.039 868.733 544.239 867.703C552.549 867.413 560.889 867.673 569.199 867.263C578.289 866.813 587.519 866.673 596.409 864.953C607.589 862.793 618.449 859.013 629.529 856.263C633.379 855.303 635.369 853.553 636.319 849.603C639.299 837.253 642.679 824.993 646.149 811.733ZM389.359 768.113C389.359 768.563 389.379 770.393 389.359 772.223C389.339 774.223 389.319 776.213 389.229 778.213C388.879 785.723 389.719 787.663 396.549 790.343C406.109 794.093 415.799 797.543 425.569 800.693C432.459 802.903 433.909 801.633 433.789 794.523C433.479 776.263 432.749 758.013 432.789 739.753C432.849 714.233 438.219 689.683 447.559 665.973C449.259 661.653 450.529 657.163 452.139 652.803C453.379 649.443 452.179 647.743 448.809 647.253C443.399 646.463 437.899 646.023 432.589 644.773C428.819 643.893 426.479 644.913 424.769 648.053C418.439 659.733 411.429 671.103 405.999 683.183C394.099 709.673 390.089 737.923 389.359 768.113ZM304.579 745.183C306.399 746.583 306.749 746.953 307.169 747.163C322.309 754.693 337.869 761.483 348.949 775.193C352.079 779.063 356.769 778.073 358.899 773.373C364.459 761.143 369.859 748.833 375.089 736.463C376.449 733.253 377.099 729.553 373.759 726.873C362.939 718.153 352.049 709.523 340.049 699.953C327.859 715.503 316.329 730.203 304.569 745.193L304.579 745.183ZM736.319 701.943C726.489 709.753 716.579 717.773 706.489 725.553C702.889 728.323 702.499 731.003 704.659 734.923C711.139 746.703 717.319 758.643 723.669 770.493C726.859 776.443 727.539 776.553 732.599 771.893C741.769 763.453 750.809 754.873 762.679 750.153C766.179 748.763 769.569 747.123 773.009 745.593C768.199 734.623 746.479 708.663 736.319 701.953V701.943ZM430.789 898.373C430.189 898.873 429.599 899.373 428.999 899.873C430.019 908.853 430.949 917.843 432.189 926.793C432.349 927.973 433.909 929.393 435.149 929.903C440.639 932.163 446.109 934.773 451.849 936.073C466.069 939.293 479.869 935.863 493.509 932.073C495.049 931.643 496.899 930.203 497.459 928.783C500.819 920.253 499.919 911.373 499.739 901.833C476.039 907.663 453.339 904.683 430.799 898.373H430.789ZM652.259 898.733C648.599 899.203 646.659 899.343 644.759 899.713C632.839 902.033 620.959 903.903 608.749 901.363C602.779 900.123 596.619 899.583 590.519 899.193C589.239 899.113 586.699 901.033 586.669 902.083C586.499 909.203 586.549 916.373 587.219 923.453C587.399 925.413 589.539 928.083 591.419 928.863C609.379 936.243 627.459 934.213 645.429 928.693C647.049 928.193 649.209 926.373 649.419 924.913C650.609 916.623 651.289 908.253 652.259 898.733ZM389.439 796.573C391.189 809.853 392.479 821.913 397.759 833.043C400.259 838.313 404.259 842.283 409.789 844.443C419.679 848.313 429.599 852.123 439.529 855.883C440.449 856.233 441.569 856.063 442.429 856.123C441.369 851.233 440.269 846.783 439.449 842.273C437.799 833.183 436.009 824.093 434.879 814.933C434.349 810.623 431.789 810.163 428.579 809.413C422.149 807.903 415.699 806.383 409.439 804.323C403.029 802.213 396.829 799.463 389.439 796.573ZM301.739 756.003C295.759 766.163 295.879 782.343 301.669 790.233C313.659 806.573 332.669 804.493 346.399 793.703C349.229 791.473 348.909 787.853 346.269 785.343C333.259 772.983 317.969 764.083 301.739 756.003ZM688.589 801.343C674.599 804.953 661.839 808.233 649.449 811.433C649.449 814.323 649.789 816.813 649.379 819.173C648.429 824.713 647.059 830.183 645.969 835.703C644.899 841.103 643.969 846.523 642.709 853.383C656.659 849.473 668.999 845.443 678.239 835.923C687.359 826.543 686.279 813.653 688.589 801.333V801.343ZM781.689 768.603C781.129 766.223 780.329 762.693 779.489 759.173C778.659 755.673 776.779 755.043 773.689 756.863C767.839 760.323 761.799 763.483 756.019 767.053C748.329 771.813 739.739 775.533 734.599 783.523C733.609 785.073 733.149 787.963 733.929 789.483C738.409 798.273 754.059 803.183 763.059 799.183C775.839 793.513 780.639 782.953 781.689 768.603ZM475.009 895.433C480.969 894.993 486.949 894.723 492.879 894.063C498.999 893.383 500.399 891.273 498.299 885.523C497.749 884.003 495.589 882.653 493.879 882.063C491.569 881.273 488.949 881.443 486.519 880.963C478.389 879.333 470.219 877.863 462.199 875.833C454.689 873.933 447.379 871.243 439.909 869.183C436.419 868.223 433.469 869.533 432.749 873.353C432.049 877.053 432.009 880.873 431.599 884.633C431.179 888.513 433.009 890.323 436.689 891.223C449.289 894.293 461.939 896.613 475.019 895.433H475.009ZM647.079 870.913C638.939 872.773 630.939 874.933 622.809 876.383C612.699 878.173 602.479 879.333 592.319 880.863C589.459 881.293 586.559 881.993 586.849 885.923C587.099 889.423 588.869 890.843 592.509 891.453C606.419 893.763 620.229 893.463 634.089 891.233C652.829 888.223 651.229 891.233 647.529 871.563C647.479 871.273 647.159 871.033 647.079 870.923V870.913ZM347.759 693.663C350.599 695.513 351.959 696.363 353.289 697.273C359.139 701.283 365.029 705.243 370.809 709.353C373.769 711.463 376.439 713.993 379.429 716.053C380.399 716.723 382.369 717.123 383.199 716.583C386.119 714.683 387.969 702.663 385.729 699.943C380.489 693.583 375.009 687.413 369.119 680.563C362.129 684.843 355.569 688.873 347.769 693.653L347.759 693.663ZM729.119 694.103C723.689 690.233 718.019 686.013 712.089 682.183C711.249 681.643 708.749 682.613 707.729 683.613C704.539 686.743 701.969 690.533 698.649 693.493C690.939 700.353 690.819 700.223 694.959 709.673C695.429 710.733 695.909 711.793 696.369 712.863C697.599 715.693 699.529 716.103 701.919 714.343C710.789 707.783 719.639 701.173 729.119 694.113V694.103ZM379.489 675.823C383.619 681.803 386.999 686.693 391.269 692.893C393.969 684.863 396.139 678.433 398.299 672.013C397.969 671.583 397.639 671.153 397.309 670.713C391.769 672.303 386.219 673.893 379.489 675.823ZM689.399 687.553C692.879 683.443 695.869 679.913 699.829 675.243C693.019 673.903 687.629 672.843 682.239 671.783C683.329 675.123 684.989 677.003 686.119 679.153C687.329 681.433 688.039 683.983 689.399 687.543V687.553Z" fill="black"/>
<path d="M576.306 668.364C579.906 673.698 583.484 679.046 587.075 684.385C589.813 688.453 592.563 692.517 595.309 696.582C596.931 698.964 596.26 689.578 595.217 688.05C590.75 681.507 586.34 674.92 581.916 668.347C581.031 667.009 587.728 667.297 589.269 669.862C591.374 673.353 593.669 676.835 596.163 680.062C596.269 677.71 594.456 667.167 597.245 667.282C598.328 667.328 602.504 666.492 602.504 668.141C602.499 671.65 603.456 702.682 601.655 702.647C599.58 702.62 593.921 703.846 592.611 701.881C585.172 690.814 577.715 679.76 570.245 668.715C568.681 666.421 575.076 666.556 576.306 668.364Z" fill="black"/>
<path d="M542.655 671.363C546.642 679.751 548.859 702.883 546.887 712.205C545.257 714.287 543.378 715.286 541.103 716.574L537.702 717.958C518.575 724.192 498.516 723.448 478.706 722.095C475.312 721.864 443.776 719.004 443.247 720.313C442.8 721.414 442.913 722.433 442.933 723.592C441.562 733.786 441.661 744.338 441.494 754.61C441.334 756.584 441.105 758.564 441.146 760.544C441.034 761.7 441.248 761.161 440.396 762.115C438.39 762.511 436.736 761.485 434.945 760.694L434.73 760.135L435.464 753.315C436.016 742.528 437.237 731.771 436.903 720.96C436.422 705.265 437.565 700.064 441.573 682.808L442.913 690.647L444.247 698.278C447.057 700.327 460.878 702.327 463.975 703.922C479.641 712 505.494 713.34 521.927 707.627C528.875 705.214 532.876 700.879 536.14 694.448C536.174 690.603 539.708 686.663 540.062 682.686C540.189 681.264 540.049 681.885 540.407 680.494C540.472 680.238 540.55 679.983 540.622 679.727C540.994 676.721 541.536 674.185 542.655 671.363ZM536.14 694.448C532.876 700.879 528.875 705.214 521.927 707.627C505.494 713.34 479.641 712 463.975 703.922C460.878 702.327 447.057 700.327 444.247 698.278C445.802 704.686 443.056 710.095 447.865 714.587C468.415 719.812 511.947 717.825 532.624 713.95C532.402 713.769 532.166 713.602 531.958 713.408C528.493 710.197 536.263 699.393 536.14 694.448ZM536.14 694.448C536.263 699.393 528.493 710.197 531.958 713.408C532.166 713.602 532.402 713.769 532.624 713.95C535.069 713.605 536.812 713.759 538.643 712.024C542.136 702.917 541.911 689.25 540.622 679.727C540.55 679.983 540.472 680.238 540.407 680.494C540.049 681.885 540.189 681.264 540.062 682.686C539.708 686.663 536.174 690.603 536.14 694.448Z" fill="#09090A" fill-opacity="0.972549"/>
<path d="M637.236 671C637.348 685.577 643.89 699.633 642.802 714.067L638.999 717.5C633.33 718.587 611.135 720.256 605.828 722.233C588.477 723.917 564.752 723.835 548.643 716.824L548.281 715.406C549.482 713.924 550.106 713.024 552.221 713.031C557.275 713.044 562.774 714.878 567.839 715.553C584.473 717.772 616.171 717.976 632.399 713.293C639.688 704.261 632.304 695.519 634.101 684.221C635.568 680.127 635.957 675.267 637.236 671Z" fill="#09090A" fill-opacity="0.972549"/>
<path d="M542.194 721C546.858 729.403 549.451 752.575 547.145 761.913C545.238 764 543.04 765 540.379 766.291L536.402 767.677C514.032 773.921 490.572 773.177 467.404 771.822C463.435 771.589 446.433 768.725 445.815 770.036C445.293 771.139 445.424 772.16 445.448 773.321C443.845 783.533 443.96 794.103 443.765 804.394C443.577 806.371 443.31 808.355 443.358 810.338C443.226 811.496 443.478 810.956 442.48 811.912C440.135 812.308 438.2 811.281 436.106 810.489L435.855 809.929L436.712 803.097C437.358 792.29 438.786 781.515 438.396 770.685C437.833 754.962 432.153 749.752 436.84 732.465L438.408 740.318L439.967 747.963C443.254 750.015 446.553 752.019 450.175 753.617C468.497 761.709 498.734 763.05 517.953 757.328C526.079 754.911 530.758 750.568 534.575 744.125C534.615 740.274 538.748 736.327 539.163 732.342C539.31 730.919 539.147 731.54 539.566 730.147C539.641 729.891 539.733 729.635 539.817 729.379C540.252 726.367 540.886 723.827 542.194 721ZM534.575 744.125C530.758 750.568 526.079 754.911 517.953 757.328C498.734 763.05 468.497 761.709 450.175 753.617C446.553 752.019 443.254 750.015 439.967 747.963C441.786 754.382 445.592 759.8 451.216 764.3C475.25 769.534 506.281 767.544 530.463 763.662C530.203 763.481 529.928 763.313 529.685 763.119C525.632 759.902 534.719 749.079 534.575 744.125ZM534.575 744.125C534.719 749.079 525.632 759.902 529.685 763.119C529.928 763.313 530.203 763.481 530.463 763.662C533.323 763.317 535.361 763.47 537.503 761.732C541.588 752.609 541.325 738.918 539.817 729.379C539.733 729.635 539.641 729.891 539.566 730.147C539.147 731.54 539.31 730.919 539.163 732.342C538.748 736.327 534.615 740.274 534.575 744.125Z" fill="#09090A" fill-opacity="0.972549"/>
<path d="M542.193 771C546.856 778.572 549.449 799.452 547.143 807.867C545.237 809.747 543.039 810.648 540.378 811.811L536.401 813.06C514.03 818.688 491.667 815.221 468.499 814C464.53 813.791 445.617 810.819 444.999 812C444.436 797.832 431.999 797 436.838 781.331L438.406 788.407L439.966 795.296C443.253 797.145 446.552 798.951 450.174 800.391C468.495 807.682 498.732 808.892 517.952 803.735C526.077 801.557 530.756 797.643 534.574 791.838C534.614 788.367 538.746 784.811 539.161 781.221C539.309 779.938 539.145 780.497 539.564 779.242C539.64 779.011 539.732 778.781 539.816 778.55C540.25 775.836 540.885 773.547 542.193 771ZM534.574 791.838C530.756 797.643 526.077 801.557 517.952 803.735C498.732 808.892 468.495 807.682 450.174 800.391C446.552 798.951 443.253 797.145 439.966 795.296C441.785 801.08 445.59 805.963 451.215 810.018C475.249 814.734 506.28 812.94 530.461 809.442C530.202 809.279 529.927 809.128 529.683 808.953C525.63 806.055 534.718 796.302 534.574 791.838ZM534.574 791.838C534.718 796.302 525.63 806.055 529.683 808.953C529.927 809.128 530.202 809.279 530.461 809.442C533.321 809.132 535.36 809.27 537.502 807.704C541.587 799.483 541.323 787.146 539.816 778.55C539.732 778.781 539.64 779.011 539.564 779.242C539.145 780.497 539.309 779.938 539.161 781.221C538.746 784.811 534.614 788.367 534.574 791.838Z" fill="#09090A" fill-opacity="0.972549"/>
<path d="M648.75 721C648.873 734.42 656.061 747.36 654.866 760.649L650.687 763.809C644.458 764.81 620.068 766.347 614.236 768.167C595.17 769.717 569.099 769.642 551.397 763.187L551 761.882C552.319 760.517 553.005 759.689 555.329 759.695C560.883 759.707 566.925 761.396 572.491 762.017C590.77 764.06 625.602 764.248 643.435 759.936C651.444 751.621 643.33 743.573 645.305 733.171C646.917 729.403 647.344 724.928 648.75 721Z" fill="#09090A" fill-opacity="0.972549"/>
</svg>
