<svg width="1080" height="1080" viewBox="0 0 1080 1080" fill="none" xmlns="http://www.w3.org/2000/svg">
<path d="M192.744 576.048L187.665 572.277C186.506 571.417 186.274 569.777 187.147 568.628L211.382 536.751C211.532 536.553 211.71 536.378 211.91 536.231L213.099 535.358C214.138 534.594 215.581 534.711 216.484 535.632L220.77 540.004C221.24 540.483 221.505 541.124 221.511 541.795L221.543 545.317C221.548 545.877 221.372 546.423 221.04 546.874L208.91 563.392C208.824 563.51 208.727 563.62 208.622 563.722L196.089 575.831C195.178 576.712 193.762 576.804 192.744 576.048Z" fill="#3D3D47"/>
<path d="M206.448 567.468L197.581 575.371C196.363 576.457 196.439 578.385 197.74 579.371L282.369 643.496C283.494 644.348 285.093 644.144 285.967 643.037L305.569 618.216C306.43 617.126 306.278 615.551 305.225 614.646L241.191 559.586L229.509 549.74L225.073 544.843C223.745 543.378 221.332 543.879 220.698 545.752L218.256 552.965C218.155 553.264 218 553.542 217.799 553.785L206.722 567.185C206.638 567.286 206.546 567.381 206.448 567.468Z" fill="#E82E3B"/>
<path d="M307.813 617.4L284.601 644.623L330.346 679.9L338.895 686.326L342.648 689.227L347.84 691.041L366.165 670.432L364.794 666.775L362.15 663.733L351.898 654.915L307.813 617.4Z" fill="#3D3D47"/>
<path d="M184.746 570.297L183.919 567.731C183.618 566.798 183.64 565.789 183.983 564.87V564.87C185.449 560.931 187.366 557.175 189.695 553.676L194.909 545.844C195.057 545.621 195.222 545.41 195.403 545.213L204.511 535.282C205.584 534.112 207.135 533.498 208.718 533.617L213.494 533.976C214.86 534.079 216.13 534.719 217.026 535.755L222.413 541.988M184.746 570.297L186.349 569.369C192.298 565.925 197.526 561.362 201.743 555.933V555.933C204.529 552.347 206.846 548.42 208.637 544.247L213.059 533.944M184.746 570.297L194.86 577.926M330.445 680.208L337.942 685.994M330.445 680.208L322.385 674.129M330.445 680.208L352.504 655.74M337.942 685.994L342.863 689.795C345.025 691.465 348.112 691.17 349.919 689.121L364.274 672.836C366.192 670.66 365.951 667.334 363.739 665.457L359.274 661.669M337.942 685.994L359.274 661.669M359.274 661.669L352.504 655.74M352.504 655.74L344.149 648.565M194.86 577.926L204.119 569.461C207.141 566.699 209.894 563.657 212.341 560.376L218.865 551.626C219.189 551.193 219.442 550.711 219.617 550.199L222.413 541.988M194.86 577.926L212.875 591.516M222.413 541.988L228.946 549.548C229.114 549.742 229.296 549.924 229.49 550.091L239.858 558.995M212.875 591.516L227.006 574.709L239.858 558.995M212.875 591.516L228.815 603.542M239.858 558.995L254.262 571.366M228.815 603.542L240.776 591.029L251.881 577.037C252.22 576.611 252.489 576.133 252.679 575.622L254.262 571.366M228.815 603.542L244.795 615.597M254.262 571.366L271.26 585.965M244.795 615.597L259.946 599.822L271.26 585.965M244.795 615.597L264.074 630.14M271.26 585.965L289.122 601.305M264.074 630.14L289.122 601.305M264.074 630.14L283.353 644.684M289.122 601.305L306.852 616.533M283.353 644.684L306.852 616.533M283.353 644.684L285.25 646.114M306.852 616.533L309.001 618.378M294.099 652.79L316.203 624.564M294.099 652.79L304.845 660.896M294.099 652.79L285.25 646.114M316.203 624.564L325.999 632.976M316.203 624.564L309.001 618.378M304.845 660.896L325.999 632.976M304.845 660.896L314.326 668.049M325.999 632.976L335.794 641.389M314.326 668.049L335.794 641.389M314.326 668.049L322.385 674.129M335.794 641.389L344.149 648.565M322.385 674.129L344.149 648.565M285.25 646.114L309.001 618.378" stroke="black" stroke-width="2.59118"/>
<path d="M307.751 618.309L306.862 617.531C306.317 617.055 305.489 617.116 305.021 617.667L284.11 642.283C283.611 642.869 283.731 643.759 284.368 644.192L285.269 644.806C285.815 645.178 286.554 645.079 286.983 644.577L307.883 620.126C308.345 619.586 308.286 618.776 307.751 618.309Z" fill="black"/>
<path d="M334.667 683.261L331.991 680.746C331.482 680.268 331.444 679.472 331.905 678.947L351.421 656.722C351.86 656.222 352.606 656.136 353.147 656.522L355.585 658.262L358.668 660.948C359.208 661.418 359.264 662.237 358.794 662.776L339.223 685.241C338.772 685.758 337.997 685.834 337.454 685.415L334.667 683.261Z" fill="black"/>
<path d="M211 533.963L206.606 533.854C206.222 533.844 205.854 534.005 205.6 534.294L191.897 549.884C191.838 549.951 191.786 550.024 191.742 550.103L183.642 564.465C183.465 564.78 183.427 565.155 183.538 565.499L184.869 569.628C184.925 569.801 185.02 569.959 185.147 570.089C185.6 570.551 186.342 570.558 186.805 570.105L197.345 559.771L207.269 547.838C207.356 547.734 207.426 547.616 207.476 547.49L212.171 535.738C212.505 534.9 211.902 533.985 211 533.963Z" fill="black"/>
<path d="M886.018 576.049L891.097 572.278C892.255 571.418 892.488 569.778 891.615 568.629L867.38 536.752C867.23 536.554 867.052 536.379 866.851 536.232L865.663 535.358C864.623 534.595 863.181 534.712 862.278 535.632L857.991 540.005C857.522 540.483 857.256 541.125 857.25 541.795L857.219 545.318C857.214 545.878 857.39 546.424 857.721 546.875L869.851 563.393C869.938 563.51 870.034 563.621 870.139 563.722L882.672 575.832C883.584 576.713 885 576.805 886.018 576.049Z" fill="#3D3D47"/>
<path d="M872.313 567.469L881.181 575.372C882.399 576.458 882.322 578.386 881.022 579.372L796.393 643.497C795.268 644.349 793.669 644.144 792.794 643.037L773.193 618.217C772.332 617.127 772.484 615.552 773.537 614.646L837.57 559.587L849.253 549.741L853.689 544.844C855.016 543.379 857.43 543.88 858.064 545.753L860.506 552.966C860.607 553.265 860.762 553.543 860.963 553.786L872.04 567.186C872.124 567.287 872.215 567.382 872.313 567.469Z" fill="#E82E3B"/>
<path d="M770.948 617.401L794.161 644.624L748.416 679.901L739.867 686.327L736.113 689.227L730.921 691.042L712.597 670.433L713.967 666.776L716.612 663.734L726.864 654.916L770.948 617.401Z" fill="#3D3D47"/>
<path d="M894.015 570.298L894.843 567.732C895.144 566.798 895.121 565.79 894.779 564.871V564.871C893.312 560.932 891.396 557.175 889.067 553.676L883.853 545.845C883.705 545.622 883.539 545.411 883.358 545.213L874.251 535.283C873.178 534.113 871.627 533.499 870.043 533.618L865.268 533.977C863.902 534.08 862.631 534.719 861.735 535.756L856.349 541.989M894.015 570.298L892.413 569.37C886.463 565.925 881.236 561.363 877.018 555.934V555.934C874.232 552.348 871.916 548.421 870.125 544.248L865.703 533.944M894.015 570.298L883.902 577.927M748.317 680.209L740.82 685.995M748.317 680.209L756.376 674.129M748.317 680.209L726.258 655.741M740.82 685.995L735.898 689.796C733.736 691.466 730.649 691.171 728.843 689.122L714.487 672.837C712.569 670.661 712.81 667.335 715.022 665.458L719.488 661.67M740.82 685.995L719.488 661.67M719.488 661.67L726.258 655.741M726.258 655.741L734.613 648.565M883.902 577.927L874.642 569.462C871.621 566.7 868.868 563.658 866.421 560.376L859.896 551.627C859.573 551.193 859.319 550.712 859.145 550.2L856.349 541.989M883.902 577.927L865.887 591.517M856.349 541.989L849.816 549.549C849.648 549.743 849.466 549.925 849.271 550.092L838.904 558.995M865.887 591.517L851.755 574.71L838.904 558.995M865.887 591.517L849.946 603.543M838.904 558.995L824.499 571.367M849.946 603.543L837.986 591.029L826.881 577.038C826.542 576.611 826.272 576.134 826.082 575.623L824.499 571.367M849.946 603.543L833.966 615.597M824.499 571.367L807.502 585.965M833.966 615.597L818.816 599.823L807.502 585.965M833.966 615.597L814.687 630.141M807.502 585.965L789.639 601.306M814.687 630.141L789.639 601.306M814.687 630.141L795.408 644.685M789.639 601.306L771.909 616.533M795.408 644.685L771.909 616.533M795.408 644.685L793.512 646.115M771.909 616.533L769.761 618.379M784.663 652.791L762.558 624.565M784.663 652.791L773.917 660.897M784.663 652.791L793.512 646.115M762.558 624.565L752.763 632.977M762.558 624.565L769.761 618.379M773.917 660.897L752.763 632.977M773.917 660.897L764.436 668.05M752.763 632.977L742.968 641.39M764.436 668.05L742.968 641.39M764.436 668.05L756.376 674.129M742.968 641.39L734.613 648.565M756.376 674.129L734.613 648.565M793.512 646.115L769.761 618.379" stroke="black" stroke-width="2.59118"/>
<path d="M771.01 618.31L771.9 617.532C772.444 617.056 773.272 617.117 773.74 617.668L794.652 642.283C795.151 642.87 795.03 643.76 794.394 644.193L793.493 644.807C792.946 645.179 792.208 645.08 791.778 644.578L770.878 620.127C770.417 619.587 770.476 618.777 771.01 618.31Z" fill="black"/>
<path d="M744.095 683.262L746.77 680.747C747.279 680.269 747.317 679.473 746.857 678.948L727.341 656.722C726.902 656.223 726.156 656.136 725.614 656.523L723.177 658.263L720.094 660.949C719.554 661.419 719.498 662.238 719.968 662.777L739.539 685.241C739.989 685.758 740.765 685.835 741.308 685.415L744.095 683.262Z" fill="black"/>
<path d="M867.762 533.963L872.156 533.854C872.54 533.845 872.908 534.006 873.161 534.294L886.865 549.884C886.924 549.952 886.976 550.025 887.02 550.103L895.12 564.466C895.297 564.781 895.335 565.155 895.224 565.5L893.893 569.629C893.837 569.802 893.742 569.96 893.614 570.09C893.161 570.552 892.419 570.559 891.957 570.106L881.417 559.771L871.493 547.839C871.406 547.734 871.336 547.617 871.285 547.491L866.591 535.739C866.256 534.901 866.86 533.986 867.762 533.963Z" fill="black"/>
<path d="M575.735 880.862C553.535 881.522 531.975 882.162 511.345 882.772C511.345 893.912 511.745 905.022 511.185 916.092C510.875 922.092 509.335 928.142 507.495 933.892C506.795 936.062 503.965 938.182 501.625 939.102C486.835 944.912 471.315 944.942 455.845 943.522C448.365 942.832 440.985 940.702 433.685 938.772C431.445 938.182 429.535 936.152 427.585 934.632C422.335 930.562 420.235 925.222 420.485 918.542C421.125 901.612 421.295 884.662 422.045 867.732C422.185 864.592 421.645 863.062 418.725 862.292C417.765 862.042 416.895 861.482 415.945 861.192C391.545 853.542 381.105 835.372 379.045 811.372C377.685 795.502 377.175 779.562 376.265 763.352C375.175 765.372 374.085 767.582 372.825 769.692C366.975 779.542 361.745 789.842 355.075 799.102C342.125 817.082 320.965 821.072 303.065 809.802C290.595 801.952 281.975 781.332 284.425 766.492C287.295 749.042 295.525 734.162 306.025 720.432C320.255 701.832 335.975 684.502 356.385 672.562C365.445 667.262 375.645 663.732 385.655 660.362C389.645 659.012 394.515 660.442 398.965 660.212C400.825 660.112 403.295 659.532 404.355 658.232C412.575 648.202 420.425 637.872 428.645 627.842C429.675 626.582 432.355 625.772 434.035 626.072C481.635 634.612 529.645 636.512 577.795 634.142C596.515 633.222 615.115 629.712 633.775 627.482C640.985 626.622 647.285 629.152 652.115 634.272C659.625 642.252 666.615 650.732 673.945 658.882C674.785 659.812 676.515 660.662 677.655 660.482C693.465 657.912 707.395 663.452 720.275 671.362C750.145 689.702 773.395 714.552 789.205 745.892C798.905 765.102 798.035 784.032 783.545 800.852C769.455 817.212 745.565 817.762 729.215 802.592C719.855 793.912 714.615 782.462 708.705 771.492C706.205 766.862 704.085 762.022 701.225 756.122C701.225 758.592 701.175 759.952 701.225 761.302C702.105 780.442 702.445 799.542 699.465 818.582C696.155 839.722 684.685 853.792 664.195 860.142C659.965 861.452 658.895 863.222 659.275 867.792C660.645 884.362 661.475 900.972 662.165 917.592C662.335 921.622 662.655 927.392 660.335 929.422C655.255 933.862 648.765 936.992 642.405 939.562C638.065 941.312 632.985 941.412 628.205 941.892C614.875 943.222 601.595 943.172 589.095 937.542C580.425 933.642 574.405 927.472 574.675 917.052C574.915 907.742 575.085 898.432 575.325 889.122C575.395 886.322 575.605 883.532 575.745 880.862H575.735ZM653.385 800.192C664.825 797.162 675.725 794.352 686.545 791.242C687.555 790.952 688.665 788.752 688.645 787.442C688.485 775.342 688.795 763.182 687.585 751.182C685.885 734.362 683.775 717.502 680.435 700.942C676.205 679.982 664.275 662.922 649.955 647.422C647.825 645.112 645.835 644.452 642.595 645.072C633.635 646.792 624.595 648.432 615.515 649.192C598.135 650.632 580.705 651.622 563.275 652.482C531.715 654.032 500.135 654.682 468.755 650.022C463.885 649.302 461.635 650.562 460.045 654.732C451.775 676.302 443.755 698.092 442.885 721.372C441.945 746.442 442.685 771.562 442.505 796.662C442.475 801.472 444.715 803.152 449.065 803.432C511.752 807.43 574.06 811.498 636.685 803.202C644.625 802.152 645.335 801.872 645.485 793.942C645.875 773.662 646.765 746.522 640.425 718.022C634.085 689.522 607.425 611.802 619.925 647.252C613.925 614.634 628.285 645.122 629.525 645.072C630.725 645.022 648.875 709.592 649.955 712.862C651.035 716.132 653.979 726.069 655.395 734.922C657.23 746.399 656.315 764.682 656.315 764.682C656.315 764.682 654.475 787.472 653.395 800.212L653.385 800.192ZM646.145 811.732C642.005 812.162 639.085 812.522 636.155 812.762C574.693 817.758 513.492 819.768 451.915 813.572C445.095 812.882 444.365 813.182 444.685 820.072C444.725 821.042 445.075 822.002 445.295 822.962C447.725 833.802 450.295 844.612 452.495 855.492C453.125 858.602 454.385 859.872 457.505 860.532C486.125 866.592 515.035 868.732 544.235 867.702C552.545 867.412 560.885 867.672 569.195 867.262C578.285 866.812 587.515 866.672 596.405 864.952C607.585 862.792 618.445 859.012 629.525 856.262C633.375 855.302 635.365 853.552 636.315 849.602C639.295 837.252 642.675 824.992 646.145 811.732ZM389.355 768.112C389.355 768.562 389.375 770.392 389.355 772.222C389.335 774.222 389.315 776.212 389.225 778.212C388.875 785.722 389.715 787.662 396.545 790.342C406.105 794.092 415.795 797.542 425.565 800.692C432.455 802.902 433.905 801.632 433.785 794.522C433.475 776.262 432.745 758.012 432.785 739.752C432.845 714.232 438.215 689.682 447.555 665.972C449.255 661.652 450.525 657.162 452.135 652.802C453.375 649.442 452.175 647.742 448.805 647.252C443.395 646.462 437.895 646.022 432.585 644.772C428.815 643.892 426.475 644.912 424.765 648.052C418.435 659.732 411.425 671.102 405.995 683.182C394.095 709.672 390.085 737.922 389.355 768.112ZM304.575 745.182C306.395 746.582 306.745 746.952 307.165 747.162C322.305 754.692 337.865 761.482 348.945 775.192C352.075 779.062 356.765 778.072 358.895 773.372C364.455 761.142 369.855 748.832 375.085 736.462C376.445 733.252 377.095 729.552 373.755 726.872C362.935 718.152 352.045 709.522 340.045 699.952C327.855 715.502 316.325 730.202 304.565 745.192L304.575 745.182ZM736.315 701.942C726.485 709.752 716.575 717.772 706.485 725.552C702.885 728.322 702.495 731.002 704.655 734.922C711.135 746.702 717.315 758.642 723.665 770.492C726.855 776.442 727.535 776.552 732.595 771.892C741.765 763.452 750.805 754.872 762.675 750.152C766.175 748.762 769.565 747.122 773.005 745.592C768.195 734.622 746.475 708.662 736.315 701.952V701.942ZM430.785 898.372C430.185 898.872 429.595 899.372 428.995 899.872C430.015 908.852 430.945 917.842 432.185 926.792C432.345 927.972 433.905 929.392 435.145 929.902C440.635 932.162 446.105 934.772 451.845 936.072C466.065 939.292 479.865 935.862 493.505 932.072C495.045 931.642 496.895 930.202 497.455 928.782C500.815 920.252 499.915 911.372 499.735 901.832C476.035 907.662 453.335 904.682 430.795 898.372H430.785ZM652.255 898.732C648.595 899.202 646.655 899.342 644.755 899.712C632.835 902.032 620.955 903.902 608.745 901.362C602.775 900.122 596.615 899.582 590.515 899.192C589.235 899.112 586.695 901.032 586.665 902.082C586.495 909.202 586.545 916.372 587.215 923.452C587.395 925.412 589.535 928.082 591.415 928.862C609.375 936.242 627.455 934.212 645.425 928.692C647.045 928.192 649.205 926.372 649.415 924.912C650.605 916.622 651.285 908.252 652.255 898.732ZM389.435 796.572C391.185 809.852 392.475 821.912 397.755 833.042C400.255 838.312 404.255 842.282 409.785 844.442C419.675 848.312 429.595 852.122 439.525 855.882C440.445 856.232 441.565 856.062 442.425 856.122C441.365 851.232 440.265 846.782 439.445 842.272C437.795 833.182 436.005 824.092 434.875 814.932C434.345 810.622 431.785 810.162 428.575 809.412C422.145 807.902 415.695 806.382 409.435 804.322C403.025 802.212 396.825 799.462 389.435 796.572ZM301.735 756.002C295.755 766.162 295.875 782.342 301.665 790.232C313.655 806.572 332.665 804.492 346.395 793.702C349.225 791.472 348.905 787.852 346.265 785.342C333.255 772.982 317.965 764.082 301.735 756.002ZM688.585 801.342C674.595 804.952 661.835 808.232 649.445 811.432C649.445 814.322 649.785 816.812 649.375 819.172C648.425 824.712 647.055 830.182 645.965 835.702C644.895 841.102 643.965 846.522 642.705 853.382C656.655 849.472 668.995 845.442 678.235 835.922C687.355 826.542 686.275 813.652 688.585 801.332V801.342ZM781.685 768.602C781.125 766.222 780.325 762.692 779.485 759.172C778.655 755.672 776.775 755.042 773.685 756.862C767.835 760.322 761.795 763.482 756.015 767.052C748.325 771.812 739.735 775.532 734.595 783.522C733.605 785.072 733.145 787.962 733.925 789.482C738.405 798.272 754.055 803.182 763.055 799.182C775.835 793.512 780.635 782.952 781.685 768.602ZM475.005 895.432C480.965 894.992 486.945 894.722 492.875 894.062C498.995 893.382 500.395 891.272 498.295 885.522C497.745 884.002 495.585 882.652 493.875 882.062C491.565 881.272 488.945 881.442 486.515 880.962C478.385 879.332 470.215 877.862 462.195 875.832C454.685 873.932 447.375 871.242 439.905 869.182C436.415 868.222 433.465 869.532 432.745 873.352C432.045 877.052 432.005 880.872 431.595 884.632C431.175 888.512 433.005 890.322 436.685 891.222C449.285 894.292 461.935 896.612 475.015 895.432H475.005ZM647.075 870.912C638.935 872.772 630.935 874.932 622.805 876.382C612.695 878.172 602.475 879.332 592.315 880.862C589.455 881.292 586.555 881.992 586.845 885.922C587.095 889.422 588.865 890.842 592.505 891.452C606.415 893.762 620.225 893.462 634.085 891.232C652.825 888.222 651.225 891.232 647.525 871.562C647.475 871.272 647.155 871.032 647.075 870.922V870.912ZM347.755 693.662C350.595 695.512 351.955 696.362 353.285 697.272C359.135 701.282 365.025 705.242 370.805 709.352C373.765 711.462 376.435 713.992 379.425 716.052C380.395 716.722 382.365 717.122 383.195 716.582C386.115 714.682 387.965 702.662 385.725 699.942C380.485 693.582 375.005 687.412 369.115 680.562C362.125 684.842 355.565 688.872 347.765 693.652L347.755 693.662ZM729.115 694.102C723.685 690.232 718.015 686.012 712.085 682.182C711.245 681.642 708.745 682.612 707.725 683.612C704.535 686.742 701.965 690.532 698.645 693.492C690.935 700.352 690.815 700.222 694.955 709.672C695.425 710.732 695.905 711.792 696.365 712.862C697.595 715.692 699.525 716.102 701.915 714.342C710.785 707.782 719.635 701.172 729.115 694.112V694.102ZM379.485 675.822C383.615 681.802 386.995 686.692 391.265 692.892C393.965 684.862 396.135 678.432 398.295 672.012C397.965 671.582 397.635 671.152 397.305 670.712C391.765 672.302 386.215 673.892 379.485 675.822ZM689.395 687.552C692.875 683.442 695.865 679.912 699.825 675.242C693.015 673.902 687.625 672.842 682.235 671.782C683.325 675.122 684.985 677.002 686.115 679.152C687.325 681.432 688.035 683.982 689.395 687.542V687.552Z" fill="black"/>
<path d="M420.681 647.002L419.438 646.955L418.526 647.802C418.375 647.943 418.206 648.093 418.025 648.255C416.799 649.349 415.008 650.947 414.16 653.435L413.943 654.073L414.019 654.743C414.195 656.284 414.89 657.626 415.641 658.699C416.403 659.789 417.352 660.783 418.285 661.648C419.584 662.854 421.125 664.042 422.282 664.935C422.72 665.273 423.102 665.568 423.396 665.805L423.398 665.807C431.95 672.711 441.19 678.887 450.277 684.961C454.187 687.575 458.068 690.169 461.855 692.795C470.5 698.838 479.013 705.069 487.394 711.49L487.395 711.49C495.777 717.91 504.018 724.513 512.118 731.3L513.932 732.819L515.832 731.409L524.126 725.256L524.15 725.238L524.173 725.22L533.835 717.752L536.895 715.386L533.843 713.011C504.95 690.525 473.892 669.58 440.664 654.001L440.663 654C439.817 653.604 438.912 653.163 437.969 652.704C435.886 651.69 433.617 650.586 431.376 649.661C428.064 648.295 424.422 647.143 420.681 647.002Z" fill="url(#paint0_linear_647_191100)" stroke="black" stroke-width="6"/>
<path d="M565.666 733.04L563.871 731.814L562.146 733.139C556.51 737.47 550.901 741.839 545.321 746.244L542.402 748.549L545.272 750.914C550.852 755.513 556.451 760.085 562.047 764.653C586.231 784.397 610.352 804.09 632.592 825.782L641.327 834.569C643.977 837.47 649.596 842.567 654.163 846.637C655.646 847.959 657.05 849.202 658.227 850.243C658.659 850.625 659.06 850.98 659.424 851.302L659.226 851.55L661.705 853.403C661.772 853.453 661.904 853.551 662.046 853.64C662.087 853.666 662.159 853.71 662.249 853.758C662.302 853.786 662.524 853.906 662.829 853.995C662.965 854.035 663.338 854.137 663.826 854.113C664.325 854.087 665.436 853.883 666.171 852.783C666.336 852.536 666.45 852.29 666.528 852.054C668.348 849.956 671.071 847.392 674.01 844.756C675.24 843.652 676.516 842.53 677.75 841.443C679.745 839.688 681.634 838.026 683.058 836.684L685.519 834.365L682.924 832.198L642.447 798.387C637.821 794.3 633.202 790.176 628.574 786.042C612.52 771.707 596.353 757.269 579.383 743.945L579.383 743.945C577.916 742.793 576.386 741.516 574.811 740.201C571.875 737.75 568.785 735.17 565.666 733.04Z" fill="url(#paint1_linear_647_191100)" stroke="black" stroke-width="6"/>
<path d="M609.873 670.256C609.932 670.224 610.006 670.184 610.096 670.134C610.377 669.979 610.79 669.75 611.317 669.456C612.371 668.869 613.87 668.03 615.667 667.023C619.262 665.009 624.044 662.324 628.826 659.639L629.473 659.276C634.037 656.714 638.554 654.178 641.989 652.252C643.788 651.244 645.292 650.403 646.351 649.811C646.88 649.516 647.302 649.282 647.595 649.12C647.741 649.04 647.861 648.974 647.948 648.926C647.99 648.903 648.036 648.879 648.077 648.857C648.095 648.848 648.131 648.83 648.172 648.809C648.19 648.8 648.234 648.779 648.29 648.755C648.317 648.743 648.379 648.717 648.425 648.699C648.407 648.706 648.396 648.711 648.393 648.712L648.373 648.72L648.474 648.677C648.568 648.637 648.702 648.579 648.866 648.509C649.193 648.369 649.63 648.182 650.067 647.994L651.269 647.478L651.666 647.308L651.777 647.26L651.806 647.248L651.813 647.245L651.815 647.244L651.816 647.243L651.816 647.243L652.115 647.94L651.816 647.243L651.846 647.23L651.876 647.218C654.404 646.197 656.39 647.552 657.394 648.517C657.906 649.01 658.346 649.558 658.687 650.002C658.862 650.23 658.998 650.413 659.121 650.577C659.213 650.699 659.296 650.811 659.383 650.925C660.049 651.448 660.789 652.117 661.435 652.905C662.169 653.801 662.969 655.081 663.16 656.657C663.16 656.657 663.16 656.657 663.16 656.658L660.182 657.019C660.277 657.801 659.585 658.469 659.032 659.003C658.987 659.047 658.943 659.089 658.9 659.131L609.873 670.256ZM609.873 670.256C606.644 671.447 600.299 674.708 594.322 677.928C588.121 681.268 581.989 684.743 579.411 686.29C578.095 687.08 576.742 687.875 575.368 688.682C568.453 692.744 560.993 697.125 554.942 702.877C542.3 709.848 530.242 720.06 519.229 729.387C517.555 730.805 515.904 732.203 514.28 733.566C508.576 737.326 503.238 741.773 498.104 746.051C497.008 746.965 495.921 747.87 494.842 748.76L494.836 748.765L494.83 748.77C483.545 758.17 472.34 767.665 461.215 777.255C459.469 778.747 457.681 780.421 455.934 782.057C455.011 782.921 454.099 783.775 453.212 784.585C450.556 787.008 447.96 789.193 445.274 790.838L445.262 790.845L445.251 790.852L444.584 791.269L444.267 791.467L444.008 791.736C435.042 801.083 423.441 812.685 413.609 820.671L413.488 820.769L413.379 820.879C411.941 822.317 410.581 823.648 409.283 824.919C406.216 827.923 403.498 830.584 400.919 833.504L398.453 835.807L395.994 838.103L398.555 840.284L412.055 851.784L413.968 853.413L415.907 851.816C422.507 846.381 427.302 841.583 431.994 836.812C432.331 836.47 432.668 836.127 433.004 835.785C437.349 831.361 441.698 826.935 447.499 821.888C459.063 811.886 470.773 802.057 482.628 792.403C485.217 790.32 487.862 788.244 490.525 786.153C496.131 781.752 501.814 777.291 507.204 772.584C513.458 768.687 519.508 763.742 525.302 759.007C528.012 756.793 530.665 754.624 533.258 752.629C533.259 752.629 533.26 752.628 533.26 752.627L585.784 712.512C588.389 711.167 590.827 709.47 593.098 707.774C594.091 707.032 595.02 706.317 595.923 705.621C597.244 704.603 598.51 703.629 599.843 702.675C601.942 701.176 604.096 699.742 606.299 698.276L606.419 698.197C608.649 696.713 610.928 695.195 613.16 693.59L609.873 670.256ZM620.532 688.129C618.134 689.934 615.706 691.761 613.16 693.59L620.532 688.129ZM620.532 688.129C624.082 685.458 627.566 682.836 631.273 680.328L620.532 688.129ZM648.633 648.628C648.671 648.617 648.762 648.594 648.854 648.573C648.7 648.611 648.518 648.666 648.446 648.691C648.454 648.688 648.461 648.686 648.469 648.683L648.471 648.682C648.485 648.677 648.549 648.653 648.633 648.628Z" fill="url(#paint2_linear_647_191100)" stroke="black" stroke-width="6"/>
<path fill-rule="evenodd" clip-rule="evenodd" d="M731.661 728.749C723.693 703.396 721 707.782 721 707.782L716.207 710.481C716.207 710.481 734.939 739.18 731.661 728.749ZM599.501 809.064C599.501 809.064 604.001 806.564 598.501 832.564C596.238 843.262 594.001 809.064 594.001 809.064H599.501ZM490.501 835.564C496.001 809.564 491.501 812.064 491.501 812.064H486.001C486.001 812.064 488.238 846.262 490.501 835.564ZM490.501 851.072C496.001 877.072 491.501 874.572 491.501 874.572H486.001C486.001 874.572 488.238 840.374 490.501 851.072ZM750.061 768.98C750.061 768.98 747.367 773.367 739.4 748.014C736.122 737.582 754.853 766.281 754.853 766.281L750.061 768.98ZM346.4 731.873C354.367 706.52 357.061 710.907 357.061 710.907L361.853 713.606C361.853 713.606 343.122 742.305 346.4 731.873ZM328.823 766.98C328.823 766.98 331.517 771.367 339.485 746.014C342.763 735.582 324.031 764.281 324.031 764.281L328.823 766.98ZM598.501 854.072C604.001 880.072 599.501 877.572 599.501 877.572H594.001C594.001 877.572 596.238 843.374 598.501 854.072ZM542.982 815.999C542.982 815.999 543.48 876.999 539.493 876.999C535.506 876.999 537.5 815.999 537.5 815.999H542.982Z" fill="black"/>
<rect x="506" y="694" width="74" height="74" rx="37" fill="#49F2C9"/>
<rect x="506" y="694" width="74" height="74" rx="37" stroke="black" stroke-width="6"/>
<path d="M526.058 709.743C530.658 716.559 535.23 723.392 539.818 730.213C543.316 735.412 546.83 740.605 550.339 745.798C552.411 748.843 551.555 736.849 550.222 734.897C544.514 726.537 538.878 718.12 533.226 709.72C532.096 708.011 540.652 708.379 542.622 711.657C545.311 716.117 548.244 720.566 551.43 724.69C551.566 721.684 549.249 708.213 552.813 708.361C554.197 708.419 559.534 707.35 559.534 709.457C559.527 713.941 560.749 753.593 558.448 753.549C555.797 753.514 548.566 755.081 546.892 752.57C537.387 738.429 527.858 724.304 518.313 710.19C516.315 707.26 524.486 707.432 526.058 709.743Z" fill="black"/>
<defs>
<linearGradient id="paint0_linear_647_191100" x1="477.127" y1="658.578" x2="468.263" y2="720.491" gradientUnits="userSpaceOnUse">
<stop stop-color="#393F42"/>
<stop offset="1" stop-color="#55585C"/>
</linearGradient>
<linearGradient id="paint1_linear_647_191100" x1="614.707" y1="820.371" x2="574.255" y2="731.888" gradientUnits="userSpaceOnUse">
<stop stop-color="#252F2F"/>
<stop offset="1" stop-color="#595D65"/>
</linearGradient>
<linearGradient id="paint2_linear_647_191100" x1="542.286" y1="757.883" x2="519.6" y2="731.521" gradientUnits="userSpaceOnUse">
<stop stop-color="#232322"/>
<stop offset="1" stop-color="#444B50"/>
</linearGradient>
</defs>
</svg>
