<svg width="1080" height="1080" viewBox="0 0 1080 1080" fill="none" xmlns="http://www.w3.org/2000/svg">
<path d="M575.727 880.853C553.527 881.513 531.967 882.153 511.337 882.763C511.337 893.903 511.737 905.013 511.177 916.083C510.867 922.083 509.327 928.133 507.487 933.883C506.787 936.053 503.957 938.173 501.617 939.093C486.827 944.903 471.307 944.933 455.837 943.513C448.357 942.823 440.977 940.693 433.677 938.763C431.437 938.173 429.527 936.143 427.577 934.623C422.327 930.553 420.227 925.213 420.477 918.533C421.117 901.603 421.287 884.653 422.037 867.723C422.177 864.583 421.637 863.053 418.717 862.283C417.757 862.033 416.887 861.473 415.937 861.183C391.537 853.533 381.097 835.363 379.037 811.363C377.677 795.493 377.167 779.553 376.257 763.343C375.167 765.363 374.077 767.573 372.817 769.683C366.967 779.533 361.737 789.833 355.067 799.093C342.117 817.073 320.957 821.063 303.057 809.793C290.587 801.943 281.967 781.323 284.417 766.483C287.287 749.033 295.517 734.153 306.017 720.423C320.247 701.823 335.967 684.493 356.377 672.553C365.437 667.253 375.637 663.723 385.647 660.353C389.637 659.003 394.507 660.433 398.957 660.203C400.817 660.103 403.287 659.523 404.347 658.223C412.567 648.193 420.417 637.863 428.637 627.833C429.667 626.573 432.347 625.763 434.027 626.063C481.627 634.603 529.637 636.503 577.787 634.133C596.507 633.213 615.107 629.703 633.767 627.473C640.977 626.613 647.277 629.143 652.107 634.263C659.617 642.243 666.607 650.723 673.937 658.873C674.777 659.803 676.507 660.653 677.647 660.473C693.457 657.903 707.387 663.443 720.267 671.353C750.137 689.693 773.387 714.543 789.197 745.883C798.897 765.093 798.027 784.023 783.537 800.843C769.447 817.203 745.557 817.753 729.207 802.583C719.847 793.903 714.607 782.453 708.697 771.483C706.197 766.853 704.077 762.013 701.217 756.113C701.217 758.583 701.167 759.943 701.217 761.293C702.097 780.433 702.437 799.533 699.457 818.573C696.147 839.713 684.677 853.783 664.187 860.133C659.957 861.443 658.887 863.213 659.267 867.783C660.637 884.353 661.467 900.963 662.157 917.583C662.327 921.613 662.647 927.383 660.327 929.413C655.247 933.853 648.757 936.983 642.397 939.553C638.057 941.303 632.977 941.403 628.197 941.883C614.867 943.213 601.587 943.163 589.087 937.533C580.417 933.633 574.397 927.463 574.667 917.043C574.907 907.733 575.077 898.423 575.317 889.113C575.387 886.313 575.597 883.523 575.737 880.853H575.727ZM653.377 790.183C664.817 787.153 675.717 784.343 686.537 781.233C687.547 780.943 687.657 778.743 687.637 777.433C687.477 765.333 687.637 764 686.577 751.173C684.877 734.353 683.767 717.493 680.427 700.933C676.197 679.973 664.267 672.913 649.947 657.413C647.817 655.103 645.827 654.443 642.587 655.063C633.627 656.783 624.587 658.423 615.507 659.183C598.127 660.623 557.93 674.953 540.5 675.813C523.5 675.813 500.127 664.673 468.747 660.013C463.877 659.293 461.627 660.553 460.037 664.723C451.767 686.293 443.747 698.083 442.877 721.363C441.937 746.433 442.677 761.553 442.497 786.653C442.467 791.463 444.707 793.143 449.057 793.423C511.745 797.42 574.052 801.488 636.677 793.193C644.617 792.143 645.327 791.863 645.477 783.933C645.867 763.653 646.757 746.513 640.417 718.013C634.077 689.513 607.417 611.793 619.917 647.243C613.917 614.624 628.277 645.113 629.517 645.063C630.717 645.013 648.867 709.583 649.947 712.853C651.027 716.123 653.53 725.988 654.387 734.913C655.5 746.5 653.387 790.203 653.387 790.203L653.377 790.183ZM642.137 821.723C637.997 822.153 636.147 822.753 636.147 822.753C574.685 827.749 513.485 829.759 451.907 823.563C445.087 822.873 445.287 822.953 445.287 822.953C445.067 821.993 445.327 823.923 445.287 822.953C447.717 833.793 450.287 844.603 452.487 855.483C453.117 858.593 454.377 859.863 457.497 860.523C486.117 866.583 515.027 868.723 544.227 867.693C552.537 867.403 560.877 867.663 569.187 867.253C578.277 866.803 587.507 866.663 596.397 864.943C607.577 862.783 618.437 859.003 629.517 856.253C633.367 855.293 635.357 853.543 636.307 849.593C639.287 837.243 638.667 834.983 642.137 821.723ZM389.347 768.103C389.347 768.553 389.367 766.273 389.347 768.103C390.13 775.9 389.707 777.653 396.537 780.333C406.097 784.083 415.787 787.533 425.557 790.683C432.447 792.893 432.777 791.5 432.777 784.513C432.777 784.513 432.737 758.003 432.777 739.743C432.837 714.223 438.207 689.673 447.547 665.963C447.547 665.963 451 658.043 448.797 657.243C443.387 656.453 437.887 656.013 432.577 654.763C428.807 653.883 421.467 654.903 419.757 658.043C413.427 669.723 411.417 671.093 405.987 683.173C394.087 709.663 390.077 737.913 389.347 768.103ZM304.567 745.173C306.387 746.573 306.737 746.943 307.157 747.153C322.297 754.683 337.857 761.473 348.937 775.183C352.067 779.053 356.757 778.063 358.887 773.363C364.447 761.133 369.847 748.823 375.077 736.453C376.437 733.243 377.087 729.543 373.747 726.863C362.927 718.143 352.037 709.513 340.037 699.943C327.847 715.493 316.317 730.193 304.557 745.183L304.567 745.173ZM736.307 701.933C726.477 709.743 716.567 717.763 706.477 725.543C702.877 728.313 702.487 730.993 704.647 734.913C711.127 746.693 717.307 758.633 723.657 770.483C726.847 776.433 727.527 776.543 732.587 771.883C741.757 763.443 750.797 754.863 762.667 750.143C766.167 748.753 769.557 747.113 772.997 745.583C768.187 734.613 746.467 708.653 736.307 701.943V701.933ZM430.777 898.363C430.177 898.863 429.587 899.363 428.987 899.863C430.007 908.843 430.937 917.833 432.177 926.783C432.337 927.963 433.897 929.383 435.137 929.893C440.627 932.153 446.097 934.763 451.837 936.063C466.057 939.283 479.857 935.853 493.497 932.063C495.037 931.633 496.887 930.193 497.447 928.773C500.807 920.243 499.907 911.363 499.727 901.823C476.027 907.653 453.327 904.673 430.787 898.363H430.777ZM652.247 898.723C648.587 899.193 646.647 899.333 644.747 899.703C632.827 902.023 620.947 903.893 608.737 901.353C602.767 900.113 596.607 899.573 590.507 899.183C589.227 899.103 586.687 901.023 586.657 902.073C586.487 909.193 586.537 916.363 587.207 923.443C587.387 925.403 589.527 928.073 591.407 928.853C609.367 936.233 627.447 934.203 645.417 928.683C647.037 928.183 649.197 926.363 649.407 924.903C650.597 916.613 651.277 908.243 652.247 898.723ZM391 807C393.5 819.403 394 821.5 397.747 833.033C400.247 838.303 404.247 842.273 409.777 844.433C419.667 848.303 429.587 852.113 439.517 855.873C440.437 856.223 441.557 856.053 442.417 856.113C441.357 851.223 440.257 846.773 439.437 842.263C437.787 833.173 437.5 834 434.867 824.923C434.019 822 431.777 820.153 428.567 819.403C422.137 817.893 415.687 816.373 409.427 814.313C403.017 812.203 398.39 809.89 391 807ZM301.727 755.993C295.747 766.153 295.867 782.333 301.657 790.223C313.647 806.563 332.657 804.483 346.387 793.693C349.217 791.463 348.897 787.843 346.257 785.333C333.247 772.973 317.957 764.073 301.727 755.993ZM687 811.5C673.01 815.11 661.39 817.8 649 821C649 823.89 647.777 826.803 647.367 829.163C646.417 834.703 647.047 830.173 645.957 835.693C644.887 841.093 643.957 846.513 642.697 853.373C656.647 849.463 668.987 845.433 678.227 835.913C685 825.5 684.69 823.82 687 811.5ZM781.677 768.593C781.117 766.213 780.317 762.683 779.477 759.163C778.647 755.663 776.767 755.033 773.677 756.853C767.827 760.313 761.787 763.473 756.007 767.043C748.317 771.803 739.727 775.523 734.587 783.513C733.597 785.063 733.137 787.953 733.917 789.473C738.397 798.263 754.047 803.173 763.047 799.173C775.827 793.503 780.627 782.943 781.677 768.593ZM474.997 895.423C480.957 894.983 486.937 894.713 492.867 894.053C498.987 893.373 500.387 891.263 498.287 885.513C497.737 883.993 495.577 882.643 493.867 882.053C491.557 881.263 488.937 881.433 486.507 880.953C478.377 879.323 470.207 877.853 462.187 875.823C454.677 873.923 447.367 871.233 439.897 869.173C436.407 868.213 433.457 869.523 432.737 873.343C432.037 877.043 431.997 880.863 431.587 884.623C431.167 888.503 432.997 890.313 436.677 891.213C449.277 894.283 461.927 896.603 475.007 895.423H474.997ZM647.067 870.903C638.927 872.763 630.927 874.923 622.797 876.373C612.687 878.163 602.467 879.323 592.307 880.853C589.447 881.283 586.547 881.983 586.837 885.913C587.087 889.413 588.857 890.833 592.497 891.443C606.407 893.753 620.217 893.453 634.077 891.223C652.817 888.213 651.217 891.223 647.517 871.553C647.467 871.263 647.147 871.023 647.067 870.913V870.903ZM347.747 693.653C350.587 695.503 351.947 696.353 353.277 697.263C359.127 701.273 365.017 705.233 370.797 709.343C373.757 711.453 376.427 713.983 379.417 716.043C380.387 716.713 382.357 717.113 383.187 716.573C386.107 714.673 387.957 702.653 385.717 699.933C380.477 693.573 374.997 687.403 369.107 680.553C362.117 684.833 355.557 688.863 347.757 693.643L347.747 693.653ZM729.107 694.093C723.677 690.223 718.007 686.003 712.077 682.173C711.237 681.633 708.737 682.603 707.717 683.603C704.527 686.733 701.957 690.523 698.637 693.483C690.927 700.343 690.807 700.213 694.947 709.663C695.417 710.723 695.897 711.783 696.357 712.853C697.587 715.683 699.517 716.093 701.907 714.333C710.777 707.773 719.627 701.163 729.107 694.103V694.093ZM379.477 675.813C383.607 681.793 386.987 686.683 391.257 692.883C393.957 684.853 396.127 678.423 398.287 672.003C397.957 671.573 397.627 671.143 397.297 670.703C391.757 672.293 386.207 673.883 379.477 675.813ZM689.387 687.543C692.867 683.433 695.857 679.903 699.817 675.233C693.007 673.893 687.617 672.833 682.227 671.773C683.317 675.113 684.977 676.993 686.107 679.143C687.317 681.423 688.027 683.973 689.387 687.533V687.543Z" fill="black"/>
<path d="M545 699H536V721H545V699Z" fill="black"/>
<path d="M545 669H536V691H545V669Z" fill="black"/>
<path d="M545 729H536V751H545V729Z" fill="black"/>
<path d="M545 759H536V781H545V759Z" fill="black"/>
<path d="M545 789H536V811H545V789Z" fill="black"/>
<path d="M574.466 712.264C580.44 721.117 586.378 729.991 592.339 738.851C596.881 745.604 601.446 752.349 606.003 759.094C608.694 763.048 607.582 747.471 605.85 744.935C598.437 734.076 591.117 723.144 583.776 712.235C582.308 710.015 593.422 710.492 595.98 714.749C599.473 720.542 603.282 726.321 607.42 731.677C607.597 727.774 604.587 710.276 609.216 710.468C611.014 710.544 617.945 709.156 617.945 711.893C617.936 717.716 619.524 769.217 616.535 769.161C613.092 769.115 603.7 771.151 601.526 767.889C589.18 749.522 576.805 731.176 564.406 712.845C561.811 709.039 572.424 709.263 574.466 712.264Z" fill="black"/>
</svg>
