<svg width="1080" height="1080" viewBox="0 0 1080 1080" fill="none" xmlns="http://www.w3.org/2000/svg">
<g clip-path="url(#clip0_473_658)">
<path d="M250.664 249.974L250.911 210.175L276.829 205.89L328.938 189.41L378.305 156.45L426.602 60.3166L470.868 15.134L498.98 14.6945L520.975 4.50439H554.929L579.749 14.7769L619.627 17.7982L642.884 45.622L693.321 129.78L718.388 170.183L764.299 190.866L789.477 208.307L831.027 212.125L822.607 244.343L815.586 281.917L705.224 262.965L636.823 244.453L559.317 238.85L488.009 244.343L416.701 252.583L326.195 269.063L262.485 281.945L254.888 247.09L250.664 249.974Z" fill="#3D3D47"/>
<path d="M507.541 115.978C503.717 111.566 499.895 107.153 497.09 103.116C494.285 99.0785 492.499 95.4159 494.678 91.0572C496.858 86.6984 503.004 81.6427 509.149 76.5869" stroke="black" stroke-width="6" stroke-linecap="round" stroke-linejoin="round"/>
<path d="M509.148 76.5869C516.258 72.6928 526.799 70.1911 536.481 69.3518C546.163 68.5125 554.989 69.3341 563.814 70.1557" stroke="black" stroke-width="6" stroke-linecap="round" stroke-linejoin="round"/>
<path d="M563.812 70.1558C568.981 70.29 568.234 70.2225 571.048 71.7636C573.861 73.3046 580.235 76.4527 583.91 82.2143C587.585 87.9759 588.561 96.3493 589.537 104.724" stroke="black" stroke-width="6" stroke-linecap="round" stroke-linejoin="round"/>
<path d="M589.539 104.724C590.664 109.619 590.664 110.601 587.127 113.567C583.59 116.532 576.516 121.48 569.441 126.429" stroke="black" stroke-width="6" stroke-linecap="round" stroke-linejoin="round"/>
<path d="M569.441 126.429C565.689 133.262 565.153 143.914 564.617 154.565" stroke="black" stroke-width="6" stroke-linecap="round" stroke-linejoin="round"/>
<path d="M564.616 154.566C563.365 159.443 562.652 157.566 560.597 155.369C558.542 153.172 555.148 150.653 551.754 148.134" stroke="black" stroke-width="6" stroke-linecap="round" stroke-linejoin="round"/>
<path d="M551.756 148.134C550.529 148.512 551.883 153.076 551.756 155.369C551.629 157.663 550.021 157.688 546.932 157.781C543.844 157.874 539.275 158.038 537.286 156.977C535.297 155.917 535.889 153.634 536.482 151.35" stroke="black" stroke-width="6" stroke-linecap="round" stroke-linejoin="round"/>
<path d="M536.481 151.35C536.299 151.56 536.246 154.901 534.069 156.977C531.892 159.054 527.59 159.867 524.423 158.585C521.255 157.303 519.221 153.924 517.188 150.546" stroke="black" stroke-width="6" stroke-linecap="round" stroke-linejoin="round"/>
<path d="M517.187 150.546C516.232 149.93 517.462 152.412 516.384 154.566C515.305 156.719 511.919 158.546 509.148 157.781C506.377 157.016 504.222 153.658 503.521 150.546C502.82 147.434 503.573 144.569 504.325 141.703" stroke="black" stroke-width="6" stroke-linecap="round" stroke-linejoin="round"/>
<path d="M504.324 141.703C504.726 135.808 505.329 125.491 505.932 115.174" stroke="black" stroke-width="6" stroke-linecap="round" stroke-linejoin="round"/>
<path d="M550.953 148.938C552.36 151.416 553.767 153.896 555.777 154.565C557.786 155.235 560.399 154.097 563.012 152.958" stroke="black" stroke-width="6" stroke-linecap="round" stroke-linejoin="round"/>
<path d="M563.012 152.958C565.021 148.938 566.428 139.693 567.835 130.448" stroke="black" stroke-width="6" stroke-linecap="round" stroke-linejoin="round"/>
<path d="M567.832 130.448C568.636 125.893 568.234 125.759 567.832 125.625" stroke="black" stroke-width="6" stroke-linecap="round" stroke-linejoin="round"/>
<path d="M528.444 99.0963C526.754 98.5472 525.065 97.9973 523.621 99.0963C522.176 100.195 520.978 102.942 520.405 105.527C519.833 108.113 519.887 110.537 520.405 112.763C520.923 114.988 521.903 117.014 524.425 118.39C526.946 119.766 531.009 120.492 534.071 119.194C537.134 117.896 539.196 114.574 539.699 111.959C540.202 109.344 539.147 107.436 538.091 105.527" stroke="black" stroke-width="6" stroke-linecap="round" stroke-linejoin="round"/>
<path d="M538.088 105.527C535.256 102.882 528.98 99.4837 525.225 99.9001C521.47 100.317 520.236 104.549 519.598 107.939C518.961 111.329 518.922 113.878 521.206 115.978C523.49 118.078 528.098 119.728 530.853 119.194C533.608 118.659 534.511 115.94 534.872 113.566C535.233 111.193 535.053 109.164 534.872 107.135" stroke="black" stroke-width="6" stroke-linecap="round" stroke-linejoin="round"/>
<path d="M534.872 107.135C534.84 105.417 534.76 104.337 531.657 103.919C528.553 103.502 522.425 103.748 519.598 104.723C516.771 105.698 517.243 107.402 517.99 109.547C518.738 111.692 519.76 114.276 522.01 115.978C524.259 117.68 527.734 118.497 530.049 117.586C532.363 116.674 533.517 114.032 532.46 111.155C531.404 108.277 528.139 105.165 526.029 105.527C523.919 105.89 522.965 109.728 522.01 113.566" stroke="black" stroke-width="6" stroke-linecap="round" stroke-linejoin="round"/>
<path d="M522.012 113.567C522.641 115.871 526.226 117.613 528.443 116.782C530.66 115.951 531.511 112.546 530.855 110.351C530.198 108.156 528.035 107.171 526.835 107.135C525.636 107.099 525.401 108.012 525.227 109.547C525.054 111.082 524.94 113.24 526.031 114.37C527.122 115.501 529.416 115.602 530.855 114.37C532.293 113.139 532.873 110.573 532.462 109.547C532.052 108.521 530.649 109.034 529.247 109.547" stroke="black" stroke-width="6" stroke-linecap="round" stroke-linejoin="round"/>
<path d="M529.248 109.547C528.426 108.975 527.979 107.546 527.64 107.939C527.301 108.332 527.068 110.547 526.836 112.762" stroke="black" stroke-width="6" stroke-linecap="round" stroke-linejoin="round"/>
<path d="M526.835 112.763C526.768 113.165 526.701 113.567 526.835 112.763Z" stroke="black" stroke-width="6" stroke-linecap="round" stroke-linejoin="round"/>
<path d="M554.166 102.312C552.372 101.67 550.578 101.029 550.147 103.919C549.716 106.809 550.649 113.231 552.558 115.978C554.468 118.725 557.353 117.796 559.793 116.782C562.234 115.767 564.229 114.667 566.225 113.566" stroke="black" stroke-width="6" stroke-linecap="round" stroke-linejoin="round"/>
<path d="M566.225 113.566C567.712 111.774 568.215 108.901 567.029 106.331C565.843 103.762 562.969 101.497 558.99 101.508C555.012 101.519 549.929 103.808 547.735 105.527C545.542 107.247 546.237 108.396 546.932 109.547" stroke="black" stroke-width="6" stroke-linecap="round" stroke-linejoin="round"/>
<path d="M546.934 109.547C546.699 111.069 546.514 112.864 546.934 114.37C547.354 115.877 548.381 117.095 550.954 117.586C553.526 118.077 557.644 117.842 560.6 115.978C563.556 114.115 565.35 110.622 564.62 107.939C563.89 105.256 560.637 103.382 557.385 101.508" stroke="black" stroke-width="6" stroke-linecap="round" stroke-linejoin="round"/>
<path d="M557.383 101.508C554.436 100.038 550.685 99.581 548.54 102.312C546.396 105.043 545.861 110.963 547.737 114.37C549.612 117.778 553.9 118.674 556.58 117.586C559.259 116.498 560.331 113.424 561.403 110.351" stroke="black" stroke-width="6" stroke-linecap="round" stroke-linejoin="round"/>
<path d="M561.403 110.351C560.892 107.557 557.202 104.187 554.972 103.116C552.742 102.044 551.973 103.271 550.952 104.724C549.932 106.176 548.66 107.856 550.149 109.547C551.637 111.238 555.884 112.943 558.188 112.763C560.491 112.583 560.848 110.519 560.599 108.743C560.35 106.967 559.495 105.479 558.188 105.527C556.88 105.576 555.122 107.159 553.364 108.743" stroke="black" stroke-width="6" stroke-linecap="round" stroke-linejoin="round"/>
<path d="M553.364 108.743C552.366 110.195 552.281 112.216 552.56 111.154C552.839 110.093 553.48 105.947 553.364 105.527C553.248 105.108 552.374 108.413 553.364 110.351C554.354 112.288 557.207 112.856 558.187 111.958C559.168 111.06 558.276 108.695 557.384 106.331" stroke="black" stroke-width="6" stroke-linecap="round" stroke-linejoin="round"/>
<path d="M557.382 106.331C556.779 106.594 555.675 110.066 555.774 110.351M555.774 110.351C555.874 110.635 557.176 107.733 556.578 106.331C555.98 104.929 553.48 105.026 553.362 106.331C553.245 107.637 555.511 110.15 555.774 110.351ZM555.774 110.351C556.037 110.552 554.298 108.441 552.559 106.331" stroke="black" stroke-width="6" stroke-linecap="round" stroke-linejoin="round"/>
<path d="M552.56 106.331C552.137 107.571 552.689 112.682 554.168 113.566C555.647 114.45 558.053 111.109 558.187 109.547M558.187 109.547C558.322 107.984 556.182 108.199 555.776 109.547C555.369 110.895 556.693 113.377 557.383 113.566C558.074 113.755 558.13 111.651 558.187 109.547Z" stroke="black" stroke-width="6" stroke-linecap="round" stroke-linejoin="round"/>
<path d="M558.185 109.547C558.375 108.073 558.447 106.399 557.381 104.724C556.315 103.048 554.111 101.372 552.558 103.116C551.005 104.859 550.103 110.023 550.146 112.763C550.189 115.502 551.178 115.819 553.362 116.782C555.545 117.745 558.924 119.354 560.597 118.39C562.27 117.426 562.238 113.888 562.205 110.351" stroke="black" stroke-width="6" stroke-linecap="round" stroke-linejoin="round"/>
<path d="M562.208 110.351C561.074 108.469 557.437 107.782 554.973 107.939C552.509 108.096 551.218 109.094 550.953 111.155C550.689 113.215 551.452 116.337 553.365 117.586C555.278 118.834 558.341 118.211 561.404 117.586" stroke="black" stroke-width="6" stroke-linecap="round" stroke-linejoin="round"/>
<path d="M561.402 117.586C563.153 117.907 563.51 118.711 563.814 117.586C564.118 116.46 564.368 113.405 564.618 110.351" stroke="black" stroke-width="6" stroke-linecap="round" stroke-linejoin="round"/>
<path d="M535.676 130.448C538.087 128.64 540.499 126.831 542.107 127.233C543.715 127.635 544.519 130.248 545.323 132.86" stroke="black" stroke-width="6" stroke-linecap="round" stroke-linejoin="round"/>
<path d="M545.326 132.86C545.46 132.86 544.187 130.047 542.914 127.233" stroke="black" stroke-width="6" stroke-linecap="round" stroke-linejoin="round"/>
<path d="M542.912 127.233C541.438 126.965 538.959 129.108 536.48 131.252" stroke="black" stroke-width="6" stroke-linecap="round" stroke-linejoin="round"/>
<path d="M474.582 160.997C480.276 164.614 485.971 168.232 497.895 172.251C509.82 176.271 527.975 180.692 546.129 185.114" stroke="black" stroke-width="6" stroke-linecap="round" stroke-linejoin="round"/>
<path d="M546.129 185.114C557.116 187.927 560.465 188.53 563.815 189.133" stroke="black" stroke-width="6" stroke-linecap="round" stroke-linejoin="round"/>
<path d="M563.812 189.133C568.601 190.545 571.726 192.063 573.459 191.545C575.193 191.027 575.532 188.472 575.871 185.917" stroke="black" stroke-width="6" stroke-linecap="round" stroke-linejoin="round"/>
<path d="M575.871 185.918C578.747 185.364 584.732 186.793 587.126 188.329C589.52 189.866 588.323 191.51 587.126 193.153" stroke="black" stroke-width="6" stroke-linecap="round" stroke-linejoin="round"/>
<path d="M587.127 193.153C585.876 193.581 582.751 192.242 582.304 193.957C581.857 195.672 584.09 200.442 586.323 205.211" stroke="black" stroke-width="6" stroke-linecap="round" stroke-linejoin="round"/>
<path d="M586.323 205.211C584.769 207.212 578.873 206.587 575.872 205.211C572.871 203.836 572.763 201.71 572.656 199.584" stroke="black" stroke-width="6" stroke-linecap="round" stroke-linejoin="round"/>
<path d="M572.656 199.584C572.406 199.709 573.388 202.835 566.225 201.996C559.061 201.156 543.751 196.351 528.441 191.545" stroke="black" stroke-width="6" stroke-linecap="round" stroke-linejoin="round"/>
<path d="M528.443 191.545C515.715 187.928 502.785 184.109 489.855 180.291" stroke="black" stroke-width="6" stroke-linecap="round" stroke-linejoin="round"/>
<path d="M489.855 180.29C479.405 176.94 472.571 174.194 465.738 171.447" stroke="black" stroke-width="6" stroke-linecap="round" stroke-linejoin="round"/>
<path d="M465.738 171.447C460.12 170.299 458.135 171.849 456.091 171.447C454.048 171.045 451.947 168.691 451.268 166.624C450.588 164.557 451.33 162.776 452.072 160.997" stroke="black" stroke-width="6" stroke-linecap="round" stroke-linejoin="round"/>
<path d="M452.07 160.997C453.767 161.014 457.608 163.873 459.305 164.212C461.002 164.552 460.556 162.372 460.109 160.193" stroke="black" stroke-width="6" stroke-linecap="round" stroke-linejoin="round"/>
<path d="M460.109 160.193C460.136 158.14 459.802 155.018 460.913 152.958C462.025 150.897 464.583 149.899 467.345 149.742C470.106 149.585 473.072 150.272 474.58 151.35C476.088 152.428 476.138 153.899 476.187 155.369" stroke="black" stroke-width="6" stroke-linecap="round" stroke-linejoin="round"/>
<path d="M476.19 155.369C476.19 156.709 475.386 158.049 474.582 159.389" stroke="black" stroke-width="6" stroke-linecap="round" stroke-linejoin="round"/>
<path d="M531.656 179.487C540.968 178.415 550.28 177.343 558.185 175.467C566.09 173.592 572.589 170.911 579.087 168.232" stroke="black" stroke-width="6" stroke-linecap="round" stroke-linejoin="round"/>
<path d="M579.09 168.232C584.27 166.463 586.772 165.659 587.933 164.212C589.094 162.765 588.915 160.675 588.737 158.585" stroke="black" stroke-width="6" stroke-linecap="round" stroke-linejoin="round"/>
<path d="M588.734 158.585C588.992 156.853 589.237 155.336 590.342 154.565C591.448 153.795 593.414 153.771 595.166 155.369C596.917 156.967 598.453 160.188 599.989 163.408" stroke="black" stroke-width="6" stroke-linecap="round" stroke-linejoin="round"/>
<path d="M599.988 163.408C599.844 164.566 597.074 163.442 597.576 164.212C598.079 164.982 601.854 167.648 602.4 169.036C602.946 170.423 600.261 170.533 597.576 170.643" stroke="black" stroke-width="6" stroke-linecap="round" stroke-linejoin="round"/>
<path d="M550.953 183.506L580.698 178.683" stroke="black" stroke-width="6" stroke-linecap="round" stroke-linejoin="round"/>
<path d="M580.695 178.682C587.796 176.94 590.677 174.998 593.558 173.055" stroke="black" stroke-width="6" stroke-linecap="round" stroke-linejoin="round"/>
<path d="M593.559 173.055C595.836 172.117 595.1 172.587 594.362 173.055" stroke="black" stroke-width="6" stroke-linecap="round" stroke-linejoin="round"/>
<path d="M598.383 172.251C601.688 173.394 604.993 174.537 606.422 173.859C607.851 173.18 607.404 170.679 606.422 169.035C605.439 167.392 603.921 166.606 602.402 165.82" stroke="black" stroke-width="6" stroke-linecap="round" stroke-linejoin="round"/>
<path d="M602.402 165.82C601.598 165.284 601.598 165.552 601.598 165.82" stroke="black" stroke-width="6" stroke-linecap="round" stroke-linejoin="round"/>
<path d="M531.657 192.349L496.285 201.192" stroke="black" stroke-width="6" stroke-linecap="round" stroke-linejoin="round"/>
<path d="M496.287 201.192C489.99 204.675 491.932 208.963 493.875 213.25" stroke="black" stroke-width="6" stroke-linecap="round" stroke-linejoin="round"/>
<path d="M493.873 213.251C492.212 214.984 489.265 213.286 487.442 211.643C485.62 210 484.924 208.409 484.227 206.819" stroke="black" stroke-width="6" stroke-linecap="round" stroke-linejoin="round"/>
<path d="M484.227 206.819C484.048 205.426 485.209 204.353 483.423 204.407C481.636 204.461 476.902 205.64 472.168 206.819" stroke="black" stroke-width="6" stroke-linecap="round" stroke-linejoin="round"/>
<path d="M472.167 206.819C469.574 206.159 468.717 203.302 468.148 201.192C467.579 199.082 467.296 197.718 469.756 197.172C472.216 196.627 477.417 196.9 482.618 197.172" stroke="black" stroke-width="6" stroke-linecap="round" stroke-linejoin="round"/>
<path d="M482.621 197.172C489.052 195.564 498.699 191.545 508.346 187.525" stroke="black" stroke-width="6" stroke-linecap="round" stroke-linejoin="round"/>
<path d="M508.344 187.525C512.631 185.918 510.488 186.722 508.344 187.525Z" stroke="black" stroke-width="6" stroke-linecap="round" stroke-linejoin="round"/>
<path d="M250.661 249.974C252.252 253.517 253.349 257.17 253.842 261.016C253.952 261.895 254.144 262.774 254.473 263.598C256.311 268.047 257.435 272.634 257.655 277.496C257.764 280.16 259.794 281.78 262.482 281.945C263.414 282 264.374 282.028 265.306 281.918C274.686 280.599 284.011 279.171 293.391 277.963C299.37 277.194 305.403 276.782 311.602 276.177C311.602 276.452 311.602 276.644 311.602 276.891L371.747 264.312C371.939 263.652 372.597 263.213 373.859 262.993C383.924 261.208 394.072 259.807 404.027 257.582C421.717 253.6 439.681 252.226 457.7 251.265C458.88 251.21 460.059 251.1 461.54 250.99L484.413 248.381C484.715 248.326 485.017 248.299 485.346 248.271C501.445 247.035 517.571 245.882 533.643 244.261C537.949 243.822 542.09 244.041 546.341 244.398C558.299 245.415 570.257 246.074 582.187 247.172C595.955 248.436 609.668 250.084 623.409 251.402C634.763 252.474 646.2 253.023 657.527 254.341C664.657 255.165 671.624 257.088 678.699 258.379C687.503 259.999 696.362 261.455 705.166 262.993C707.332 263.378 707.799 264.202 706.893 266.289L815.528 281.945C819.258 282.247 821.15 280.352 821.534 276.644C821.699 274.886 821.754 273.101 821.946 271.343C822.028 270.602 822.247 269.887 822.467 269.173C823.399 266.097 824.387 263.048 825.292 259.972C826.169 257.033 826.745 253.957 827.925 251.128C832.148 240.8 833.382 230.033 832.861 219.019C832.752 216.684 831.874 214.35 830.969 212.125C830.612 211.274 829.378 210.422 828.418 210.23C821.342 208.719 814.212 207.263 807.081 205.973C799.182 204.544 791.338 203.061 783.988 199.628C777.461 196.579 770.796 193.915 764.269 190.893C760.21 189.026 756.206 186.993 752.393 184.658C746.524 181.06 740.902 177.105 735.115 173.37C724.062 166.228 714.161 157.769 705.906 147.441C693.619 132.087 684.157 114.893 674.01 98.166C668.415 88.9372 663.697 79.159 658.13 69.9303C651.493 58.8887 644.444 48.0943 637.423 37.2999C632.569 29.8564 626.892 23.0996 619.596 17.8535C608.736 10.0255 597.08 8.15778 584.491 12.8546C582.9 13.4588 581.364 14.1455 579.746 14.8322C579.472 14.2828 579.253 13.761 578.951 13.294C578.649 12.8271 578.293 12.3602 577.854 12.0031C572.807 7.85564 567.542 4.09271 561.124 2.25245C556.599 0.961516 551.881 1.12632 547.329 0.467116C540.061 -0.576616 532.985 0.52205 525.854 0.769249C516.776 1.09885 509.206 5.46605 502.322 11.0418C501.143 12.0031 500.238 13.294 498.977 14.7223C498.428 14.4751 497.879 14.2004 497.331 13.9807C484.112 8.07538 471.55 9.25644 459.73 17.6612C454.958 21.0671 450.597 24.9399 447.251 29.7466C440.202 39.8543 433.017 49.8796 426.599 60.3444C414.093 80.7521 403.342 102.176 390.424 122.364C382.992 133.982 375.477 145.518 365.905 155.516C359.981 161.696 353.399 167.08 346.186 171.722C336.258 178.066 327.015 185.537 316.127 190.344C308.64 193.667 301.18 197.101 293.583 200.177C289.387 201.88 285.026 203.336 280.638 204.297C270.792 206.439 260.836 208.17 250.963 210.175C249.893 210.395 248.467 211.274 248.083 212.207C247.15 214.46 246.437 216.877 246.218 219.294C245.916 222.233 246.026 225.227 246.273 228.166C246.904 235.609 247.589 243.052 250.688 249.974H250.661ZM525.086 8.78951C528.213 8.26764 531.284 7.11404 534.192 5.76818C537.839 4.09271 541.185 4.03778 544.833 5.74071C547.713 7.08658 550.812 8.13031 553.938 8.78951C558.409 9.75084 562.715 11.0692 566.719 13.3215C569.297 14.7498 571.93 16.1231 574.7 17.6063C560.877 25.9562 551.251 38.5359 539.403 48.5337C533.506 42.9031 527.308 37.1351 521.329 31.1748C516.419 26.3132 511.318 21.7263 505.285 18.293C505.01 18.1282 504.791 17.9084 504.407 17.6338C511.126 14.0356 517.462 10.053 525.086 8.78951ZM254.72 215.091C259.629 214.267 264.484 212.812 269.42 212.427C284.176 211.246 297.669 205.588 311.574 201.303C322.654 197.897 333.433 193.777 343.635 188.339C362.066 178.533 377.068 164.855 387.928 146.919C392.947 138.652 397.39 130.055 402.245 121.732C412.228 104.648 420.538 86.6849 429.314 68.9964C430.905 65.7828 432.77 62.6791 434.662 59.6028C438.42 53.5327 442.232 47.49 446.181 41.5572C451.063 34.2236 456.932 27.8514 464.475 23.1546C474.211 17.1394 484.249 16.4527 494.561 21.534C501.856 25.1322 508.439 29.6916 514.555 35.0751C520.259 40.1289 526.485 44.606 532.409 49.4127C536.194 52.4889 542.639 52.3241 546.698 49.4127C553.801 44.2489 560.658 38.7831 567.13 32.8503C572.78 27.6866 579.307 23.8138 586.246 20.7375C595.571 16.645 604.731 17.4415 613.48 22.5503C622.531 27.8514 629.141 35.5695 634.653 44.3588C637.341 48.6436 640.166 52.8185 642.771 57.1583C645.541 61.8276 648.366 66.4969 650.752 71.331C660.242 90.5302 669.786 109.674 680.29 128.352C686.105 138.734 691.782 149.144 699.187 158.483C709.499 171.529 722.252 181.61 736.98 189.163C749.157 195.398 762.075 199.765 775.129 203.693C782.48 205.918 789.72 208.637 797.207 210.312C806.423 212.372 815.83 213.581 825.155 215.146C826.828 215.421 828.418 218.744 827.321 220.31C823.783 225.391 822.796 231.352 821.15 237.12C820.218 240.443 818.956 243.712 817.42 246.788C813.608 254.506 812.813 262.444 815.062 270.711C815.281 271.508 815.089 272.414 815.089 273.788C810.07 273.128 805.49 272.744 800.965 271.92C789.446 269.86 777.845 268.844 766.189 268.075C754.505 267.306 743.096 264.834 731.632 262.581C716.301 259.532 700.887 256.813 685.556 253.737C679.495 252.528 673.516 250.935 667.619 249.123C655.415 245.387 642.881 243.684 630.292 242.119C621.105 240.992 611.917 239.674 602.674 238.823C584.409 237.12 566.198 234.455 547.795 234.263C528.953 234.071 510.221 234.895 491.517 237.284C477.063 239.125 462.555 240.471 448.074 242.201C434.662 243.794 421.306 245.744 408.416 250.056C399.53 253.023 390.232 254.204 381.044 255.879C368.154 258.242 355.291 260.906 342.456 263.652C327.481 266.839 312.287 268.157 297.038 269.366C288.564 270.052 280.171 271.728 271.752 272.909C269.256 273.266 266.76 273.376 263.908 273.65C263.908 272.497 263.716 271.535 263.935 270.711C265.992 263.103 265.608 255.605 262.152 248.546C259.574 243.272 257.764 237.806 256.475 232.121C255.57 228.138 254.226 224.375 251.95 220.942C250.359 218.552 251.895 215.558 254.638 215.091H254.72Z" fill="#191919"/>
</g>
<defs>
<clipPath id="clip0_473_658">
<rect width="587" height="282" fill="white" transform="translate(246)"/>
</clipPath>
</defs>
</svg>
