<svg width="1080" height="1080" viewBox="0 0 1080 1080" fill="none" xmlns="http://www.w3.org/2000/svg">
<path d="M361.323 143.541C367.1 140.167 372.545 135.391 378.166 131.651C393.209 121.647 409.324 111.889 425.78 104.399C434.576 100.396 442.431 97.6939 451.957 94.3644C452.652 94.1214 453.344 93.8698 454.037 93.6198C455.514 93.0867 458.366 92.0852 461.251 91.2254C464.384 90.2917 467.562 89.517 470.711 88.642C475.031 87.4419 481.696 85.7003 488 84.4995C501 80.9995 514.595 78.7324 527.916 77.7199C566.122 74.8159 602.757 79.9308 638.318 94.4096C651.707 99.8599 663.681 107.211 676.44 113.793C696.671 127.1 716.133 139.963 734.598 155.775C754.281 172.629 773.481 190.739 790.644 210.174C805.043 226.483 818.395 244.196 831.745 261.391C845.902 279.627 860.351 298.136 872.071 318.081C875.29 323.557 877.861 329.524 880.675 335.23C890.417 354.989 899.662 375.195 904.218 396.887C908.985 419.576 906.778 450.373 893.758 470.206C889.015 477.431 880.933 485.773 873.666 490.469C867.743 494.295 862.565 496.89 857.453 499.915C847.491 505.809 840.761 515.566 835.579 525.915C830.625 535.81 825.472 545.26 818.5 553C813 560.5 806.102 568.14 799.5 574.5C777.742 595.456 751.143 607.06 727.202 625.417C718.996 631.708 710.997 638.173 702.902 644.588C693.478 652.053 665.948 667.219 665.948 667.219L635.452 680.867L579 696.898L545.015 701.193L496.481 698.229C484.42 697.492 472.593 694.575 461.573 689.621L433.5 677L412.441 666.08L399.353 658.086C396.727 656.158 375.384 642.36 372.629 640.361C356.553 628.705 339.565 618.371 324.076 605.857C320.733 603.189 317 601.5 313.152 598.726C309.5 596.5 308.5 595.812 304 593C300 590.5 297.624 589.421 294.5 586.5C291.375 583.578 287.546 581 284.5 578C281.452 574.997 276.646 570.769 273.679 567.689C270.71 564.608 268.5 562 264.896 557.334C263.772 555.878 262.385 554.109 261.108 552.488C258.62 549.328 256.312 546.04 254.197 542.618C249.85 535.583 242.305 523.431 239.978 520.059C236.305 514.732 232.926 507.481 228.321 503.041C227.482 502.233 226.513 501.589 225.476 501.038C220.923 498.618 215.81 497.377 211.173 495.12C203.22 491.251 195.201 485.137 191 479C186.767 471.167 182.959 462.877 181.015 454.189C180.827 453.346 180.654 452.456 180.5 451.5C179.915 447.861 178.268 431.5 178.268 425.131C176.703 394.224 183.835 366.014 196.48 338.035L202.004 326.444C201.979 326.586 205.201 320.101 205.481 319.538C205.495 319.51 205.513 319.489 205.539 319.47C210.769 310.272 226.162 285.952 226.162 285.952C228.728 282.912 230.61 279.735 230.61 279.735C232.624 277.818 234.948 273.929 236.422 271.548C245.841 259.227 255.563 247.151 265.589 235.32C284.394 212.648 304.76 192.135 326.449 172.246C338.191 162.794 349.326 152.745 361.323 143.541ZM220.471 477.079C223.223 478.617 226.313 476.981 227.554 474.082C227.772 473.571 228.009 473.16 228.292 472.816C229.278 471.617 231.326 471.014 232.48 472.052C233.774 473.212 238.394 483.949 239.931 486.728C275.922 551.799 347.427 612.847 410.476 651.238C416.86 655.124 423.642 658.428 430.149 662.125C430.808 662.581 431.516 662.959 432.248 663.286C435.354 664.673 438.394 666.451 441.442 667.936C477.035 685.275 531.523 688.764 570.507 684.11C580.516 682.913 590.071 680.461 599.935 678.536C609.048 676.761 618.221 676.632 626.948 673.049C638.002 668.511 648.741 661.35 658.85 655.03C674.757 645.084 689.882 634.047 704.922 622.843C741.751 595.413 776.566 565.787 806.525 530.79C816.091 519.616 825.095 508.177 833.39 496.027C838.487 488.563 842.983 480.231 848.644 473.209C850.118 471.382 851.926 469.397 854.268 468.73C855.199 468.463 856.303 468.521 857.129 469.046C858.389 469.848 858.985 471.037 859.333 472.447C860.092 475.523 863.719 479.051 866.331 477.259C874.423 471.707 881.492 465.096 885.687 455.783C898.061 428.301 887.121 393.747 876.767 367.05C863.417 332.638 840.937 301.253 818.445 272.294C778.876 221.345 735.428 174.327 681.26 138.581C666.502 128.842 651.989 120.092 635.774 112.957C592.995 94.1317 548.14 89.8984 502.034 95.7978C490.812 97.2338 478.588 98.675 468.026 102.817C414.004 123.998 352.838 170.14 312.111 211.251C306.841 216.655 301.665 222.149 296.583 227.733C291.503 233.317 286.522 238.986 281.638 244.742C276.754 250.498 271.97 256.337 267.287 262.258C262.604 268.179 258.026 274.179 253.551 280.26C236.645 303.014 220.796 326.534 209.459 352.619C202.339 368.998 195.457 395.642 195.619 413.474C195.755 428.422 199.713 444.96 205.256 458.844C208.859 467.87 213.09 472.955 220.471 477.079ZM230.61 279.735C230.61 279.735 228.728 282.912 226.162 285.952C226.162 285.952 210.769 310.272 205.539 319.47C211.761 307.898 219.091 297.011 226.162 285.952C226.162 285.952 229.107 281.968 230.61 279.735ZM665.948 667.219L635.452 680.867C645.337 676.308 665.948 667.219 665.948 667.219ZM205.539 319.47C205.513 319.489 205.495 319.51 205.481 319.538C205.201 320.101 201.979 326.586 202.004 326.444C203.206 324.131 204.385 321.806 205.539 319.47ZM579 696.898L545.015 701.193C556.219 698.398 579 696.898 579 696.898ZM433.5 677L412.441 666.08C416.277 668.105 433.5 677 433.5 677ZM412.441 666.08L399.353 658.086C402 659.5 412.441 666.08 412.441 666.08Z" fill="black"/>
<path d="M225.74 479.656C214.954 474.973 209.64 469.826 205.257 458.844C199.714 444.959 195.756 428.422 195.62 413.474C195.458 395.642 202.339 368.998 209.459 352.619C220.796 326.534 236.646 303.014 253.551 280.259C258.026 274.179 262.605 268.179 267.288 262.258C271.97 256.337 276.754 250.498 281.639 244.742C286.522 238.986 291.504 233.317 296.584 227.733C301.666 222.149 306.842 216.655 312.112 211.251C352.839 170.139 414.005 123.998 468.026 102.817C478.589 98.6749 490.813 97.2336 502.035 95.7977C548.14 89.8983 592.996 94.1315 635.774 112.957C651.99 120.092 666.503 128.842 681.26 138.581C735.429 174.327 778.877 221.345 818.446 272.294C840.937 301.253 863.418 332.638 876.768 367.05C887.122 393.746 898.062 428.301 885.688 455.783C879.816 468.819 868.312 476.56 856.257 483.513C858.435 479.891 860.428 476.879 859.334 472.447C858.986 471.037 858.39 469.847 857.13 469.046C856.304 468.521 855.199 468.463 854.269 468.729C851.927 469.396 850.118 471.382 848.645 473.209C842.984 480.231 838.488 488.563 833.391 496.027C825.096 508.177 816.804 531.326 807.237 542.5C777.279 577.497 741.752 595.413 704.922 622.843C689.882 634.046 674.758 645.084 658.851 655.029C648.742 661.35 638.002 668.511 626.949 673.049C618.222 676.632 609.049 676.761 599.936 678.536C590.072 680.461 580.517 682.913 570.508 684.11C531.524 688.764 477.036 685.275 441.443 667.936C438.034 666.275 434.635 664.247 431.141 662.81C424.634 659.114 416.861 655.124 410.477 651.238C347.428 612.847 267.288 557.5 239.932 486.728C238.394 483.949 233.775 473.212 232.481 472.052C231.862 471.495 231.011 471.588 230.227 471.49C228.855 472.068 228.138 472.716 227.555 474.082C226.795 475.856 226.353 477.821 225.74 479.656ZM259.369 424.087C263.928 438.175 266.473 452.991 271.62 466.876C297.95 537.898 438.862 650.581 438.862 650.581C487.694 669.679 542.229 677.057 593.566 663.739C599.723 662.091 629.855 651.752 629.855 651.752L652.971 641.769C651.413 642.592 654.643 641.205 652.971 641.769C664.878 635.489 676.343 627.808 687.425 620.185C717.012 599.835 744.125 575.862 765.245 546.621C772.573 536.475 779.03 525.63 785.387 514.864C791.343 504.784 797.64 494.422 802.729 483.869C804.598 479.999 805.513 475.682 807.237 471.735C813.737 456.856 820.084 443.243 824.893 427.61C829.594 426.476 835.566 424.675 838.596 420.67C840.102 418.679 840.687 416.206 840.318 413.751C838.783 403.56 825.792 387.956 819.398 379.558C808.358 365.056 797.3 350.341 785.152 336.738C755.956 304.053 721.402 275.89 685.561 250.808C672.206 241.464 658.516 232.187 644.489 223.887C634.374 217.904 623.877 212.534 613.626 206.787C596.245 197.045 578.391 186.118 559.104 180.635C549.535 177.914 539.777 176.973 529.95 178.758C516.703 181.164 503.68 187.832 491.454 193.358C424.513 223.614 356.96 271.542 307.121 325.556C284.925 349.613 266.926 376.624 248.388 403.486C245.807 407.228 242.399 411.592 243.446 416.42C244.119 419.52 246.102 422.096 248.839 423.689C252.003 425.527 255.358 425.258 258.743 424.277C258.952 424.216 259.16 424.15 259.369 424.087ZM438.862 650.581L475.501 662.338C475.501 662.338 558.144 671.923 593.566 663.739C603.058 661.547 620.687 655 629.855 651.752C629.855 651.752 642.501 645.303 652.971 641.769L629.855 651.752C629.855 651.752 599.723 662.091 593.566 663.739C542.229 677.057 487.694 669.679 438.862 650.581Z" fill="#313335"/>
<path d="M259.367 424.087C259.158 424.15 258.95 424.216 258.741 424.277C255.356 425.258 252 425.527 248.837 423.689C246.1 422.096 244.117 419.52 243.444 416.42C242.397 411.592 245.805 407.228 248.386 403.486C266.924 376.624 284.922 349.613 307.118 325.556C356.958 271.542 424.51 223.614 491.451 193.358C503.678 187.832 516.701 181.164 529.947 178.758C539.774 176.973 549.533 177.914 559.102 180.635C578.389 186.118 596.242 197.045 613.624 206.788C623.875 212.534 634.372 217.904 644.486 223.887C658.514 232.187 672.204 241.464 685.559 250.808C721.4 275.89 755.954 304.053 785.15 336.738C797.297 350.341 808.356 365.056 819.396 379.558C825.79 387.956 838.781 403.56 840.316 413.751C840.685 416.206 840.099 418.679 838.594 420.67C835.564 424.675 829.592 426.476 824.891 427.61C820.081 443.243 813.735 456.856 807.235 471.735C805.511 475.682 804.596 479.999 802.727 483.87C797.638 494.422 791.341 504.784 785.385 514.864C779.028 525.63 772.57 536.475 765.243 546.621C744.123 575.862 717.009 599.835 687.423 620.185C676.341 627.808 664.876 635.489 652.969 641.769C651.41 642.592 654.64 641.205 652.969 641.769C652.969 641.769 635.738 649.39 629.853 651.752C623.925 654.097 617.935 656.27 611.881 658.27C605.827 660.269 599.721 662.091 593.563 663.739C542.227 677.057 487.691 669.679 438.859 650.581C428.26 646.436 417.499 640 408.273 634.961C344.37 594.232 297.948 537.899 271.618 466.876C266.471 452.991 263.926 438.175 259.367 424.087ZM500.999 212L468.999 227L419.999 258L397.948 273.367L348.876 307.5L305.879 359.841L291.396 378.517L275.818 400.317L279.992 433C279.992 433 292.499 470 295.999 476.5C298.849 483.99 304.069 492.085 306.999 499.5C308.654 503.692 311.97 509.011 313.465 513.269C317.006 523.36 334.223 548.762 341.999 556C347.069 560.719 368.816 581.397 368.219 580.88C371.28 583.796 391.499 602 391.499 602C391.933 602.557 402.999 611 402.999 611L423.499 624.214L448.999 627.5L489.999 632.5L543.999 634.79L586.499 631.5C586.499 631.5 631.742 624.401 633.499 624.214L638.499 627.5L672.604 607.186L687.423 597.355L700.166 587.453L734.999 557.5L759.499 526L774.999 499.149L786.999 475.5L801.213 442L807.235 425C807.235 425 811.949 411.718 808.999 403.5C807.709 399.908 804.499 390 804.499 390L803.494 387.247C801.984 383.11 799.801 379.252 797.034 375.826L789.499 366.5L778.999 353.5L754.999 328L733.499 308L714.499 292.5L685.559 271.5L669.999 262L653.069 250.808L634.999 239.5C634.999 239.5 615.501 228.872 613.624 227L577.999 206.788C577.999 206.788 558.499 199.5 552.499 197.5C548.999 195 539.999 196 539.999 196C532.499 196 525.999 199.5 525.999 199.5L500.999 212ZM397.948 273.367C362.168 301.538 334.735 324.166 305.879 359.841C301.117 365.729 291.396 378.517 291.396 378.517L305.879 359.841L348.876 307.5L397.948 273.367ZM700.166 587.453L687.423 597.355L672.604 607.186L638.499 627.5L633.499 624.214C633.499 624.214 649.765 621.675 672.604 607.186C682.07 601.18 691.686 594.809 700.166 587.453ZM368.219 580.88C371.589 584.122 387.367 599.054 391.499 602C395.406 604.784 399.08 608.239 402.999 611C420.499 628 489.999 632.5 489.999 632.5L448.999 627.5L423.499 624.214L402.999 611C402.999 611 391.933 602.557 391.499 602C391.499 602 371.28 583.796 368.219 580.88ZM291.396 378.517C286.038 385.675 281.068 393.087 275.818 400.317C277.312 406.188 277.31 412 278.14 418.5L279.992 433L275.818 400.317L291.396 378.517ZM489.999 632.5C489.999 632.5 515.286 636.648 543.999 634.79C556.874 634.993 586.499 631.5 586.499 631.5L543.999 634.79L489.999 632.5Z" fill="black"/>
</svg>
