<svg width="1080" height="1080" viewBox="0 0 1080 1080" fill="none" xmlns="http://www.w3.org/2000/svg">
<path d="M296.629 194.539C294.665 195.754 292.784 197.328 291.373 199.151C288.635 202.714 290.156 207.133 294.471 208.376C296.491 208.956 298.731 208.818 300.888 208.956C301.469 208.984 302.05 208.901 302.88 208.846C301.635 210.254 300.501 211.387 299.561 212.63C298.15 214.536 297.597 216.69 298.897 218.872C300.197 221.082 302.354 221.717 304.678 221.22C307.333 220.64 309.933 219.783 312.533 218.927C313.999 218.43 315.41 217.712 316.82 217.077C316.876 217.077 316.931 217.132 316.986 217.16L320.527 215.751C320.776 215.281 321.135 214.812 321.578 214.563C326.197 211.884 330.844 209.26 335.518 206.636C335.712 206.526 335.961 206.47 335.85 206.526C336.32 208.266 336.791 209.951 337.344 212.022C335.85 213.541 335.02 215.668 336.542 218.264C336.763 218.623 336.403 219.342 336.265 219.894C334.937 224.866 337.648 228.622 342.765 228.208C345.448 227.987 348.435 227.241 350.648 225.749C355.544 222.49 360.025 218.623 364.672 214.978C365.308 214.48 365.861 213.873 366.746 213.486C366.58 213.928 366.442 214.37 366.276 214.812C365.861 215.999 365.308 217.16 365.031 218.402C364.008 223.098 367.493 226.771 372.195 225.667C374.159 225.197 376.04 224.009 377.699 222.822C379.082 221.855 380.327 220.529 381.212 219.121C382.65 216.856 384.559 215.696 387.214 215.613C387.214 216.276 387.159 216.966 387.214 217.657C387.38 219.424 387.353 221.247 387.85 222.932C388.735 225.943 390.478 228.401 393.88 228.815C397.172 229.23 399.412 227.379 400.85 224.755C402.427 221.883 403.616 218.789 404.972 215.751C405.359 214.895 405.608 214.011 405.912 213.127C406.106 213.127 406.272 213.099 406.465 213.099C406.714 213.79 407.019 214.508 407.212 215.199C407.876 217.436 408.18 219.866 409.259 221.883C411.804 226.633 417.253 227.13 420.876 223.126C421.872 222.021 422.674 220.695 423.448 219.645C425.108 220.391 426.685 221.109 428.51 221.938C428.344 222.242 428.012 222.794 427.68 223.346C425.744 226.55 423.67 229.699 421.955 233.014C421.125 234.643 420.655 236.632 420.599 238.482C420.489 242.377 423.974 244.669 427.542 243.067C429.119 242.349 430.474 241.106 431.912 240.057C432.521 239.615 433.019 239.035 433.821 238.261C433.738 239.256 433.655 239.891 433.599 240.554C433.323 245.194 436.67 248.15 441.151 246.962C443.004 246.465 444.912 245.553 446.323 244.283C449.006 241.88 451.385 239.118 453.846 236.494C454.621 235.665 455.257 234.726 456.308 233.4C456.225 234.919 456.004 235.941 456.142 236.936C456.391 238.924 456.502 241.051 457.276 242.846C458.991 246.769 463.804 247.652 466.791 244.587C468.395 242.957 469.64 240.83 470.58 238.731C471.963 235.555 472.931 232.185 474.176 228.65C474.508 229.561 474.702 230.252 475.034 230.914C475.67 232.24 476.223 233.594 477.025 234.809C478.574 237.129 480.593 238.897 483.636 238.51C486.595 238.151 488.117 236.052 489.14 233.511C489.693 232.157 490.246 230.749 490.44 229.34C490.744 227.13 491.823 225.584 493.953 224.424C496.802 227.158 500.121 229.312 504.657 228.953C504.436 230.942 504.159 232.737 504.049 234.533C503.938 236.3 503.8 238.096 503.993 239.863C504.436 244.034 506.289 245.774 510.521 246.271C510.659 246.851 510.798 247.431 510.936 248.039C512.098 252.624 516.551 254.475 520.395 251.685C522.193 250.387 523.742 248.536 525.015 246.686C526.453 244.531 527.421 242.073 528.693 239.808C528.998 239.283 529.744 238.648 530.27 238.648C532.898 238.648 535.027 237.599 536.632 235.665C538.374 233.566 539.868 231.274 541.527 228.981C541.749 229.34 542.025 229.782 542.33 230.196C543.768 232.185 545.123 234.284 546.727 236.162C548.083 237.737 549.964 238.731 552.121 238.565C553.393 238.482 553.864 239.035 554.334 240.084C555.385 242.322 556.491 244.559 557.791 246.658C558.759 248.205 559.949 249.669 561.304 250.884C565.674 254.778 570.819 253.066 572.064 247.349C572.119 247.045 572.174 246.713 572.23 246.409C577.125 245.829 579.089 243.454 578.979 237.212C578.923 234.505 578.508 231.826 578.259 228.898C582.657 229.257 585.949 227.213 588.881 224.396C590.789 225.418 591.923 226.716 592.366 228.871C592.808 231.025 593.528 233.207 594.579 235.113C596.847 239.228 601.521 239.808 604.564 236.218C606.362 234.091 607.496 231.412 608.934 229.036C609.487 230.749 609.985 232.793 610.76 234.698C611.921 237.516 613.111 240.333 614.632 242.929C616.126 245.443 618.532 246.851 621.602 246.106C624.645 245.36 626.111 243.067 626.443 240.14C626.691 238.096 626.498 235.969 626.498 233.373C627.162 234.174 627.521 234.616 627.936 235.03C630.785 238.096 633.496 241.3 636.538 244.172C637.866 245.415 639.719 246.327 641.517 246.824C646.275 248.15 649.76 245.028 649.289 240.14C649.234 239.587 649.151 239.062 649.068 238.151C649.843 238.897 650.341 239.477 650.949 239.919C652.415 240.996 653.826 242.294 655.485 243.012C658.998 244.559 662.428 242.322 662.345 238.51C662.317 236.659 661.847 234.698 661.017 233.041C659.579 230.086 657.753 227.324 656.038 224.479C655.485 223.567 654.849 222.684 654.324 221.855C656.066 221.109 657.698 220.391 659.551 219.618C660.132 220.419 660.796 221.551 661.626 222.573C665.47 227.269 671.362 226.689 674.017 221.247C674.902 219.397 675.151 217.242 675.732 215.254C675.953 214.508 676.202 213.79 676.424 213.044H676.977C677.226 213.707 677.447 214.425 677.751 215.088C679.272 218.43 680.628 221.883 682.37 225.087C683.698 227.545 685.938 229.119 688.953 228.788C692.134 228.429 694.043 226.357 694.845 223.512C695.564 220.999 695.675 218.292 696.062 215.613C698.136 215.751 699.879 216.607 701.483 218.651C703.364 221.054 705.798 223.126 708.37 224.81C710.86 226.468 713.792 226.412 716.198 224.341C718.632 222.269 718.494 219.535 717.498 216.8C717.083 215.613 716.53 214.48 716.253 213.072C716.724 213.486 717.166 213.928 717.664 214.342C721.951 217.822 726.128 221.468 730.554 224.755C733.375 226.854 736.639 228.235 740.29 228.263C745.351 228.291 748.007 224.81 746.79 219.922C746.568 219.038 746.679 217.961 746.956 217.077C747.73 214.784 746.707 213.155 745.6 211.939C746.154 209.978 746.651 208.321 747.177 206.443C747.315 206.526 747.841 206.802 748.339 207.078C752.266 209.315 756.139 211.635 760.149 213.707C761.394 214.342 762.141 215.199 762.666 216.248L767.313 220.944C766.815 219.673 766.345 218.43 765.847 217.16C767.922 217.767 769.609 218.679 771.407 219.231C774.062 220.06 776.773 220.999 779.511 221.192C783.632 221.496 786.039 217.574 784.186 213.873C783.522 212.547 782.388 211.442 781.447 210.254C781.088 209.813 780.673 209.426 780.037 208.735C782.803 208.735 785.126 209.039 787.366 208.68C792.871 207.796 794.807 202.41 791.073 198.267C789.524 196.555 787.588 195.091 785.569 193.931C779.732 190.534 773.786 187.357 767.894 184.098C767.341 183.794 766.788 183.435 766.234 183.131C768.53 183.408 770.632 184.153 772.817 184.512C777.63 185.313 782.471 186.087 787.311 186.612C789.303 186.832 791.1 185.893 791.903 183.877C792.705 181.888 792.124 180.01 790.686 178.629C789.33 177.331 787.809 176.061 786.122 175.26C777.935 171.448 769.692 167.802 761.449 164.073C760.841 163.797 760.232 163.549 759.707 163.328C762.694 162.72 765.654 162.306 768.503 161.532C771.407 160.731 772.845 158.881 772.845 156.643C772.845 154.406 771.434 152.445 768.613 151.617C765.515 150.733 762.307 149.849 759.126 149.656C750.745 149.186 742.337 149.103 733.956 148.882C733.236 148.882 732.517 148.882 731.798 148.882C732.822 148.164 733.928 147.86 734.951 147.391C737.717 146.12 740.511 144.85 743.194 143.441C744.66 142.668 745.351 141.231 744.881 139.547C744.383 137.806 743.083 136.978 741.285 136.978C740.456 136.978 739.626 137.061 738.824 137.254C725.215 140.486 711.607 143.745 697.998 147.004C697.5 147.114 696.975 147.225 696.449 147.335C696.864 146.7 697.362 146.369 697.887 146.037C702.396 143.192 706.932 140.348 711.441 137.475C713.045 136.453 714.594 135.348 716.115 134.161C717.526 133.056 717.941 131.537 717.277 129.879C716.641 128.277 715.258 127.559 713.598 127.697C712.409 127.78 711.219 128.084 710.085 128.498C705.715 130.1 701.4 131.758 697.058 133.387C696.504 133.608 695.924 133.774 695.343 133.967C694.568 130.156 692.743 128.996 689.507 130.266C680.821 133.663 671.777 135.79 662.649 137.503C661.46 137.724 660.602 137.806 659.717 136.619C659.192 135.901 657.864 135.597 656.841 135.486C654.96 135.321 653.079 135.431 651.115 135.431C653.023 130.018 651.502 127.67 645.777 127.338C642.679 127.145 639.553 127.338 636.428 127.338C634.906 127.338 633.357 127.338 631.587 127.338C634.27 126.095 636.732 125.073 639.055 123.775C640.632 122.891 642.264 121.814 643.398 120.433C645.666 117.699 644.311 114.163 640.853 113.335C639.802 113.086 638.696 112.948 637.645 113.059C634.049 113.39 630.398 113.694 626.857 114.357C621.823 115.296 616.817 116.566 611.728 117.699C612.198 117.091 612.723 116.539 613.138 115.931C614.964 113.28 613.608 110.076 610.4 109.634C609.487 109.496 608.491 109.606 607.579 109.799C599.889 111.429 592.56 114.108 585.423 117.395C583.791 118.141 582.021 118.527 580.306 119.08C580.196 118.914 580.113 118.721 580.002 118.555C580.583 116.953 581.33 115.406 581.717 113.749C582.436 110.711 580.14 108.308 577.098 109.081C575.217 109.551 573.447 110.545 571.704 111.429C570.266 112.147 568.966 113.086 567.583 113.915C567.693 113.059 567.998 112.451 568.385 111.871C570.847 108.004 573.308 104.165 575.77 100.298C575.881 100.132 575.991 99.9943 576.102 99.8285C577.153 98.1437 576.987 96.5417 575.687 95.575C574.387 94.6083 572.672 94.8845 571.51 96.4312C569.27 99.4419 567.168 102.563 564.9 105.546C562.245 109.026 559.479 112.396 556.823 115.765C553.504 114.025 551.955 114.44 550.019 117.34C549.023 118.859 548.027 120.378 546.755 122.284C546.617 121.124 546.479 120.461 546.451 119.798C546.368 116.76 546.313 113.694 546.285 110.656C546.23 107.314 544.957 105.877 541.97 105.877C538.181 105.877 536.881 107.065 536.825 110.573C536.825 112.285 536.908 113.998 536.825 115.71C536.742 117.754 536.576 119.77 536.438 121.787C535.11 120.433 534.225 119.052 533.313 117.699C531.127 114.357 529.966 113.998 526.287 115.627C525.872 115.13 525.402 114.633 524.987 114.081C520.617 108.308 516.246 102.535 511.849 96.7627C510.493 94.9674 508.861 94.5254 507.451 95.5198C506.012 96.5417 505.929 98.1989 507.146 100.077C509.138 103.115 511.129 106.126 513.093 109.192C514.034 110.656 514.864 112.202 515.721 113.694C514.864 113.583 514.31 113.197 513.702 112.865C511.461 111.65 509.276 110.352 506.981 109.302C505.404 108.584 503.689 108.612 502.361 109.965C501.034 111.291 500.978 112.921 501.587 114.578C502.057 115.931 502.638 117.257 503.412 119.163C501.338 118.555 499.651 118.279 498.157 117.561C491.325 114.357 484.3 111.816 476.97 110.048C475.753 109.744 474.453 109.551 473.208 109.579C471.576 109.579 470.249 110.352 469.529 111.871C468.783 113.418 469.17 114.826 470.166 116.152C470.553 116.677 470.968 117.174 471.355 117.644C465.574 116.401 459.904 114.937 454.151 113.998C450.361 113.39 446.406 113.086 442.589 113.39C438.716 113.694 437.416 117.892 439.961 120.848C440.653 121.649 441.538 122.394 442.451 122.891C444.912 124.217 447.457 125.377 449.974 126.593C450.389 126.786 450.776 127.035 451.468 127.394C450.002 127.394 448.923 127.394 447.844 127.394C443.834 127.394 439.823 127.228 435.84 127.532C431.663 127.836 430.087 130.957 431.857 134.713C431.94 134.906 431.94 135.155 431.968 135.459C430.059 135.459 428.289 135.459 426.491 135.459C425.025 135.459 423.78 135.818 422.867 137.144C422.619 137.503 421.789 137.724 421.291 137.641C412.219 135.956 403.201 133.995 394.572 130.625C390.367 128.996 388.929 129.686 387.684 133.995C387.104 133.774 386.523 133.553 385.942 133.332C381.655 131.73 377.395 130.073 373.08 128.498C371.891 128.084 370.618 127.753 369.374 127.67C367.797 127.559 366.497 128.305 365.861 129.824C365.197 131.399 365.584 132.835 366.829 133.995C367.244 134.382 367.714 134.713 368.184 135.044C373.855 138.718 379.525 142.364 385.167 146.01C385.693 146.341 386.246 146.7 386.772 147.059C386.108 147.253 385.638 147.142 385.14 147.032C375.652 144.656 366.165 142.198 356.623 139.906C351.865 138.773 347.052 137.834 342.212 137.033C340.193 136.702 338.616 137.862 338.201 139.519C337.731 141.397 338.506 142.833 340.165 143.634C343.235 145.126 346.389 146.507 349.514 147.915C350.095 148.192 350.731 148.385 351.34 148.606C345.642 148.91 340.027 148.606 334.467 148.993C328.216 149.407 321.937 150.18 315.769 151.258C311.98 151.92 310.237 154.075 310.237 156.643C310.237 159.24 311.98 161.035 315.825 161.974C318.314 162.582 320.859 162.858 323.597 163.328C322.85 163.631 322.269 163.88 321.716 164.129C313.363 167.885 305.01 171.614 296.712 175.481C295.08 176.254 293.614 177.497 292.342 178.767C290.903 180.204 290.378 182.054 291.235 184.043C292.065 185.949 293.752 186.75 295.716 186.694C298.261 186.639 300.833 186.556 303.295 186.087C307.831 185.23 312.312 184.043 316.82 183.021C314.774 184.43 312.588 185.59 310.431 186.777C305.812 189.346 301.137 191.804 296.656 194.566L296.629 194.539ZM756.222 202.051C758.296 202.935 759.956 204.537 761.643 206.084C759.707 205.007 757.771 203.902 755.862 202.825C755.973 202.576 756.111 202.3 756.222 202.051ZM707.209 161.505C708.232 161.891 709.311 162.168 710.279 162.665C712.353 163.742 714.373 164.985 716.475 166.007C717.664 166.587 717.802 167.194 716.862 168.41C713.57 166.366 710.279 164.322 706.96 162.278C707.043 162.029 707.126 161.781 707.209 161.532V161.505ZM654.379 146.59C652.166 147.059 650.064 148.606 647.63 147.335C649.87 147.087 652.138 146.838 654.379 146.59ZM618.532 233.842C617.564 231.163 616.623 228.484 615.655 225.805C615.821 225.749 615.987 225.694 616.153 225.639C618.477 227.849 618.062 230.997 619.03 233.676C618.864 233.732 618.698 233.787 618.532 233.842ZM625.115 136.398C622.847 136.646 620.551 136.923 618.283 137.171C618.283 137.005 618.255 136.812 618.228 136.646C620.496 136.37 622.792 136.122 625.06 135.845C625.06 136.039 625.115 136.204 625.115 136.398ZM621.491 123.665C619.334 124.411 617.149 125.184 614.991 125.93C614.909 125.709 614.826 125.46 614.77 125.239C616.845 124.245 619.168 123.913 621.491 123.665ZM600.387 228.705C600.221 227.545 599.945 226.854 600.083 226.274C600.608 224.341 600 222.711 599.198 220.999C598.479 219.452 598.091 217.74 597.538 216.11C597.732 216.055 597.925 215.999 598.147 215.944C602.351 219.949 602.987 223.07 600.387 228.732V228.705ZM600.719 138.442C601.632 138.911 602.96 138.911 604.038 138.773C607.385 138.331 610.677 137.696 613.996 137.144C614.051 137.392 614.134 137.641 614.189 137.889C612.862 138.248 611.534 138.884 610.206 138.939C605.891 139.077 601.577 138.994 597.372 138.994C598.202 138.248 599.142 137.668 600.719 138.497V138.442ZM567.776 220.17C568.468 221.303 569.242 222.076 569.408 222.96C570.238 226.771 570.874 230.638 571.593 234.477C571.345 234.533 571.096 234.588 570.819 234.643C569.491 230.058 566.117 225.97 567.749 220.143L567.776 220.17ZM559.755 226.468C560.944 230.307 562.134 234.174 563.462 238.482C561.636 236.659 558.787 230.003 559.755 226.468ZM562.327 127.863C562.493 128.001 562.687 128.139 562.853 128.277C561.581 129.907 560.336 131.537 559.064 133.166C558.87 133.028 558.676 132.862 558.483 132.724C559.755 131.095 561.055 129.493 562.327 127.863ZM559.091 158.107C560.723 159.074 559.451 160.842 559.672 162.195C559.257 160.925 558.87 159.654 558.455 158.384C558.676 158.301 558.898 158.19 559.091 158.107ZM523.493 161.974C523.438 160.621 522.553 159.019 523.77 158.08C524.047 158.163 524.323 158.245 524.6 158.328C524.24 159.544 523.853 160.759 523.493 161.974ZM521.059 128.305C522.221 129.741 523.355 131.178 524.517 132.614C524.323 132.752 524.157 132.918 523.964 133.056C522.802 131.62 521.64 130.211 520.478 128.775C520.672 128.609 520.866 128.443 521.059 128.305ZM523.327 226.44C524.047 230.887 522.027 234.533 520.257 238.234C520.091 238.179 519.925 238.123 519.732 238.068C520.921 234.174 522.11 230.307 523.3 226.412L523.327 226.44ZM515.527 220.474C515.638 222.159 516.081 223.678 515.721 224.976C514.753 228.291 513.425 231.494 512.098 234.671C511.378 231.135 513.564 222.186 515.527 220.474ZM464.606 233.594C464.44 233.538 464.274 233.483 464.136 233.4C464.883 230.749 464.772 227.793 466.846 225.584C467.04 225.639 467.234 225.722 467.4 225.777C466.459 228.373 465.546 230.97 464.606 233.566V233.594ZM484.134 220.502C483.193 222.435 482.308 224.258 483.027 226.468C483.193 226.937 482.917 227.545 482.778 228.567C480.012 223.595 480.759 219.894 485.406 216.027C484.991 217.519 484.797 219.121 484.134 220.502ZM479.017 138.773C480.04 138.911 481.285 138.966 482.142 138.525C483.663 137.724 484.742 138.027 485.683 138.911C480.98 138.911 476.168 138.966 471.355 138.856C470.525 138.856 469.723 138.027 469.059 137.144C472.378 137.696 475.697 138.304 479.044 138.773H479.017ZM461.757 123.278C463.942 123.886 466.127 124.466 468.312 125.073C468.229 125.35 468.146 125.626 468.063 125.902C465.906 125.156 463.776 124.438 461.619 123.692C461.674 123.554 461.702 123.416 461.757 123.278ZM458.051 135.845C460.319 136.122 462.587 136.37 464.855 136.646C464.855 136.812 464.827 137.005 464.8 137.171C462.531 136.923 460.263 136.674 457.995 136.425C457.995 136.232 458.051 136.066 458.051 135.873V135.845ZM435.397 147.308C432.991 148.634 430.916 146.976 428.704 146.617C430.944 146.838 433.157 147.087 435.397 147.308ZM365.861 166.421C368.378 164.957 370.867 163.438 373.44 162.085C374.159 161.698 375.127 161.781 375.984 161.67C376.04 161.836 376.123 162.002 376.178 162.168C372.886 164.239 369.595 166.283 366.082 168.493C365.778 167.774 365.612 167.333 365.418 166.891C365.584 166.697 365.695 166.532 365.833 166.449L365.861 166.421ZM326.695 201.968C326.861 202.245 327.027 202.493 327.193 202.769C325.284 203.874 323.376 205.007 321.467 206.111C321.384 205.973 321.329 205.808 321.246 205.67C323.071 204.427 324.869 203.211 326.695 201.968Z" fill="black"/>
</svg>
