<svg width="1080" height="1080" viewBox="0 0 1080 1080" fill="none" xmlns="http://www.w3.org/2000/svg">
<path d="M230.264 494.865C224.617 495.107 218.161 494.981 212.684 493.488C204.008 491.129 197.057 481.386 192.821 473.979C192.339 473.12 191.872 472.252 191.422 471.377C190.971 470.5 190.537 469.616 190.119 468.724C189.701 467.831 189.3 466.931 188.915 466.024C188.531 465.117 188.163 464.203 187.812 463.282C187.461 462.361 187.127 461.435 186.81 460.503C186.493 459.57 186.194 458.631 185.912 457.687C185.63 456.743 185.365 455.794 185.118 454.839C184.871 453.885 184.642 452.927 184.43 451.965C182.063 440.678 182.238 416.776 185.323 405.831C189.404 391.353 201.51 372.01 215.276 365.006C218.876 363.174 223.256 363.253 226.851 361.254C227.839 359.757 227.845 358.531 227.838 356.796C227.834 355.812 227.756 354.858 228.013 353.887C229.468 348.424 234.184 339.934 236.481 334.297C240.467 324.517 244.322 314.795 249.33 305.472C256.203 292.679 264.701 280.966 273.453 269.415C281.184 259.209 289.336 248.366 297.987 238.956C314.625 220.856 333.984 205.588 354.279 191.805C359.734 188.1 365.714 184.95 371.465 181.703C373.671 180.458 375.892 179.238 378.128 178.043C380.362 176.848 382.609 175.678 384.87 174.534C387.131 173.39 389.403 172.271 391.689 171.177C393.974 170.084 396.271 169.017 398.581 167.975C400.891 166.934 403.213 165.918 405.547 164.929C407.88 163.94 410.223 162.977 412.577 162.04C414.93 161.103 417.295 160.194 419.669 159.31C422.044 158.427 424.429 157.57 426.823 156.74C429.217 155.911 431.62 155.108 434.032 154.332C436.445 153.557 438.866 152.808 441.293 152.087C443.722 151.366 446.16 150.672 448.605 150.006C451.05 149.339 453.502 148.701 455.961 148.089C458.419 147.478 460.884 146.895 463.357 146.339C465.829 145.783 468.306 145.255 470.79 144.755C473.274 144.255 475.763 143.783 478.257 143.339C480.753 142.895 483.253 142.479 485.756 142.092C490.442 141.345 495.182 141.363 499.881 140.777C507.709 139.801 515.461 137.793 523.364 137.395C535.872 136.765 549.818 136.4 562.3 137.494C570.996 138.257 579.536 140.009 588.19 140.975C591.868 141.386 595.602 141.302 599.293 141.605C604.216 142.01 609.149 142.981 614.003 143.878C624.26 145.773 634.058 148.925 643.993 152.014C696.346 168.289 740.276 195.678 778.69 234.816C796.67 253.133 812.596 273.286 825.133 295.753C831.053 306.361 836.999 317.216 841.782 328.388C844.271 334.21 852.998 360.321 854.826 362.734C854.826 362.734 877.681 376.579 881.53 380.669C882.983 382.182 884.402 383.574 885.398 385.449L885.298 385.747C888.465 390.757 891.726 396.747 893.506 402.414C898.131 417.15 897.034 438.291 893.78 453.205C891.297 464.593 885.517 478.741 875.268 485.309C869.984 488.695 862.353 490.736 856.244 491.798C855.39 491.946 854.77 492.218 854.011 492.618C851.522 492.281 849.054 492.581 846.66 491.667C845.357 490.156 845.513 487 844.772 484.99C844.706 484.808 844.635 484.629 844.566 484.45L843.793 485.644L842.148 485.855C840.099 491.609 837.684 497.077 835.353 502.709C829.684 514.762 819.596 536.926 810.144 545.79C809.013 547.235 807.436 548.836 806.626 550.46C806.555 556.762 801.419 558.673 801.216 566.404C794.877 573.679 796.594 574.567 796.662 574.501C796.594 574.567 796.731 574.435 796.662 574.501C796.662 574.501 770.87 592.638 766.499 595.001C759.021 599.04 750.562 600.336 742.754 603.761C726.134 611.25 709.332 618.306 692.348 624.929C685.023 627.756 677.356 630.943 669.77 632.976C666.181 633.939 633.117 642.31 633.117 642.31C633.117 642.31 605.173 646.062 591.14 647.433C591.14 647.433 564.663 649.168 561.649 649.427C544.829 650.866 528.244 650.5 511.406 649.482L456.415 643.228L405.291 632.251C348.974 615.653 292.469 587.108 257.799 538.874C255.539 535.772 253.38 532.601 251.321 529.361C249.262 526.121 247.307 522.82 245.457 519.458C240.246 509.952 238.43 502.825 230.264 494.865ZM276.029 327.017L258.529 333.413L245.477 338.819L289.379 371.514L317.064 387.202C346.292 402.696 376.348 415.537 407.68 426.189C470.281 447.473 541.507 454.689 606.855 443.644C610.357 443.238 613.851 442.777 617.339 442.262C620.825 441.746 624.302 441.175 627.772 440.551C631.241 439.925 634.699 439.246 638.148 438.513C641.595 437.78 645.031 436.993 648.455 436.153C651.877 435.313 655.287 434.419 658.683 433.471C662.077 432.524 665.456 431.524 668.821 430.471C672.185 429.418 675.532 428.312 678.861 427.154C682.191 425.996 685.501 424.785 688.791 423.523C697.345 420.167 705.664 416.093 714.017 412.267C742.907 399.036 769.493 383.603 793.994 363.2C804.301 354.618 813.252 345.044 822.613 335.483C810.407 327.76 798.503 320.235 785.535 313.841L785.029 313.983L784.871 313.638L784.676 311.386C781.754 306.677 758.435 301.269 752.041 299.305C740.226 294.189 718.022 291.442 704.968 289.53C683.518 286.008 661.783 281.876 639.967 282.161L638.833 282.09C620.87 278.485 593.263 280.898 574.371 281.32C553.727 281.583 533.103 282.35 512.498 283.619C491.891 284.888 471.328 286.659 450.809 288.932C434.008 290.941 417.341 293.868 400.656 296.644C382.447 299.674 364.269 302.677 346.287 306.88C332.419 310.164 318.669 313.878 305.035 318.023C295.353 321 285.83 324.43 276.029 327.017ZM231.392 366.784C237.377 382.375 243.482 398.045 251.967 412.481C283.522 466.175 341.05 509.868 397.321 534.851C463.5 564.232 537.66 569.257 608.767 559.493C632.906 556.176 656.974 551.483 679.774 542.687C727.164 524.404 789.525 477.76 814.803 433.646C825.16 416.771 833.065 399.693 839.598 381.022C832.835 387.875 826.064 394.757 818.605 400.863C805.437 411.647 790.4 420.23 775.684 428.707C773.132 430.194 770.564 431.655 767.98 433.089C765.396 434.522 762.798 435.927 760.186 437.305C757.572 438.683 754.944 440.034 752.302 441.358C749.66 442.68 747.004 443.974 744.334 445.239C741.665 446.507 738.983 447.744 736.287 448.952C733.592 450.161 730.884 451.342 728.163 452.495C725.442 453.647 722.709 454.769 719.965 455.863C717.22 456.956 714.463 458.02 711.697 459.056C708.93 460.091 706.152 461.097 703.365 462.075C700.575 463.05 697.776 463.997 694.969 464.914C692.16 465.832 689.342 466.719 686.513 467.575C683.687 468.433 680.85 469.261 678.005 470.059C675.16 470.855 672.307 471.621 669.446 472.358C666.586 473.094 663.717 473.801 660.84 474.478C657.964 475.153 655.081 475.798 652.191 476.413C649.301 477.027 646.405 477.61 643.503 478.164C634.053 479.944 624.527 481.067 615.005 482.369C608.487 483.261 602.02 484.503 595.48 485.254C588.04 486.042 580.584 486.634 573.113 487.031C565.643 487.428 558.167 487.631 550.685 487.638C457.459 488.328 364.174 465.062 286.431 412.747C272.941 403.671 259 394.815 247.439 383.271C242.722 378.562 237.315 369.552 231.392 366.784ZM858.949 381.399C860.523 383.698 861.056 386.216 862.316 388.645C861.85 394.78 864.091 401.375 864.539 407.545C865.486 420.612 856.64 463.076 854.826 476.001C853.011 488.926 856.244 484.45 870.499 482.501C881.81 462.391 891.935 428.235 885.541 405.699C884.085 400.571 882.303 394.915 879.964 390.116C878.192 386.881 876.162 384.262 873.446 381.779C871.809 380.141 869.786 378.839 867.917 377.478C865.713 375.279 863.988 373.584 860.732 373.484C859.013 373.433 857.707 373.718 856.437 374.926C856.02 376.355 855.93 377.014 856.611 378.393C857.148 379.479 858.005 380.64 858.949 381.399ZM225.452 413.403C225.391 415.516 225.376 417.629 225.407 419.742C225.439 421.855 225.516 423.966 225.639 426.076C225.762 428.185 225.932 430.291 226.147 432.393C226.362 434.495 226.623 436.592 226.93 438.684C227.131 440.011 227.343 441.337 227.567 442.66C227.791 443.984 228.027 445.305 228.274 446.623C228.521 447.944 228.78 449.26 229.051 450.573C229.321 451.888 229.604 453.2 229.897 454.51C230.191 455.819 230.496 457.126 230.813 458.431C231.129 459.735 231.457 461.037 231.797 462.336C232.136 463.635 232.487 464.93 232.849 466.222C233.212 467.514 233.585 468.804 233.97 470.09C234.355 471.375 234.752 472.658 235.159 473.937C235.567 475.215 235.985 476.49 236.415 477.763C236.845 479.034 237.287 480.301 237.739 481.565C238.191 482.829 238.655 484.089 239.129 485.344C239.604 486.599 240.089 487.849 240.586 489.096C241.082 490.344 241.59 491.587 242.108 492.824C242.626 494.062 243.156 495.295 243.696 496.523C244.236 497.752 244.786 498.976 245.348 500.196C245.91 501.414 246.482 502.628 247.065 503.838C247.648 505.047 248.241 506.251 248.846 507.45C249.45 508.649 250.065 509.841 250.69 511.028C251.315 512.216 251.951 513.398 252.596 514.574C253.242 515.752 253.899 516.923 254.565 518.086C255.232 519.252 255.909 520.411 256.596 521.564C257.283 522.717 257.98 523.864 258.687 525.005C259.394 526.146 260.111 527.281 260.838 528.409C261.565 529.536 262.302 530.657 263.049 531.774C263.796 532.888 264.552 533.996 265.318 535.099C266.085 536.201 266.861 537.296 267.647 538.384C268.432 539.472 269.228 540.553 270.033 541.627C270.838 542.701 271.652 543.768 272.475 544.828C273.299 545.888 274.132 546.941 274.974 547.987C275.816 549.031 276.667 550.069 277.527 551.101C278.386 552.131 279.255 553.153 280.134 554.167C286.251 561.126 292.553 568.166 300.002 573.721V571.815C299.451 570.663 299.105 570.42 299.298 569.117C300.838 569.015 302.24 570.001 303.382 570.961C304.366 571.788 305.249 572.777 306.119 573.721L307.588 573.146C276.24 539.375 252.678 504.009 238.638 459.778C233.781 444.475 230.661 428.565 225.452 413.403ZM222.313 369.795C215.035 372.321 207.705 378.633 203.328 384.961C201.948 386.96 200.946 389.183 199.614 391.208C191.625 401.42 189.973 422.313 190.508 434.798C192.453 436.941 192.45 441.484 192.801 444.274C197.892 435.966 203.99 428.689 212.891 424.409C213.022 420.652 213.181 416.913 214.01 413.232C214.899 411.795 215.126 408.715 215.789 406.92C217.35 399.811 219.169 392.769 221.245 385.794C222.771 380.742 225.333 375.174 225.9 369.966C224.558 369.157 223.832 369.563 222.313 369.795ZM853.834 406.735C849.251 425.01 846.13 458.528 837.782 473.51C832.946 494.221 816.335 516.523 806.632 535.341C806.79 535.222 806.951 535.104 807.106 534.98C808.912 533.582 810.523 532.04 811.831 530.157C813.313 528.024 815.831 520.504 818.289 520.525C818.808 522.35 817.698 522.785 818.906 524.499L819.952 524.702C821.199 523.787 822.101 522.793 823.095 521.625L823.412 521.733C821.16 530.432 812.414 537.021 810.144 545.79C819.596 536.926 829.684 514.762 835.353 502.709C837.684 497.077 840.099 491.609 842.148 485.855L843.793 485.644L844.566 484.45C851.495 470.509 854.137 445.685 853.159 429.975C853.905 422.313 854.654 414.413 853.834 406.735ZM806.632 535.341C797.445 547.423 787.732 558.223 777.625 569.468C777.361 571.137 775.27 572.906 775.489 574.046C777.533 573.505 781.662 571.702 783.486 572.308L779.571 575.43L779.895 577.639C781.794 576.382 804.068 560.156 805.499 557.798C807.499 554.501 796.594 574.567 796.662 574.501C796.594 574.567 796.731 574.435 796.662 574.501C796.594 574.567 794.877 573.679 801.216 566.404C801.419 558.673 806.555 556.762 806.626 550.46C807.436 548.836 809.013 547.235 810.144 545.79C812.414 537.021 821.16 530.432 823.412 521.733L823.095 521.625C822.101 522.793 821.199 523.787 819.952 524.702L818.906 524.499C817.698 522.785 818.808 522.35 818.289 520.525C815.831 520.504 813.313 528.024 811.831 530.157C810.523 532.04 808.912 533.582 807.106 534.98C806.951 535.104 806.79 535.222 806.632 535.341ZM751.258 587.696C750.699 589.462 749.934 591.108 750.425 592.967C751.411 593.863 751.917 594.182 753.299 594.082C761.019 593.52 773.736 582.552 779.895 577.639L779.571 575.43L783.486 572.308C781.662 571.702 777.533 573.505 775.489 574.046C775.27 572.906 777.361 571.137 777.625 569.468C787.732 558.223 797.445 547.423 806.632 535.341C816.335 516.523 832.946 494.221 837.782 473.51C832.321 479.696 825.938 497.778 821.366 506.488C820.494 508.179 819.602 509.858 818.689 511.526C817.777 513.194 816.845 514.852 815.892 516.499C814.941 518.144 813.969 519.778 812.976 521.401C811.984 523.023 810.973 524.634 809.943 526.234C808.911 527.832 807.861 529.416 806.792 530.988C805.722 532.561 804.633 534.121 803.526 535.668C802.42 537.213 801.295 538.745 800.151 540.264C799.006 541.784 797.843 543.29 796.662 544.781C795.481 546.271 794.282 547.747 793.066 549.208C791.849 550.67 790.615 552.118 789.364 553.55C788.112 554.981 786.843 556.397 785.556 557.798C784.271 559.199 782.969 560.585 781.649 561.956C780.33 563.326 778.994 564.678 777.641 566.014C776.289 567.352 774.921 568.673 773.535 569.977C772.152 571.281 770.753 572.569 769.338 573.84C767.921 575.109 766.49 576.361 765.045 577.597C760.687 581.326 755.587 584.044 751.258 587.696ZM300.002 571.815V573.721C313.262 583.593 326.337 592.906 341.852 599.023C336.433 594.646 330.614 590.86 325.016 586.728C319.1 582.362 313.386 577.668 307.588 573.146L306.119 573.721C305.249 572.777 304.366 571.788 303.382 570.961C302.24 570.001 300.838 569.015 299.298 569.117C299.105 570.42 299.451 570.663 300.002 571.815ZM867.917 377.478C869.786 378.839 871.809 380.141 873.446 381.779C876.162 384.262 878.192 386.881 879.964 390.116C881.667 391.793 882.862 393.541 884.117 395.571C883.998 393.844 883.51 392.283 883.139 390.606C882.725 388.74 882.598 387.761 883.626 386.124L885.298 385.747L885.398 385.449C884.402 383.574 882.983 382.182 881.53 380.669C880.663 381.23 879.376 382.314 878.416 382.596C878.097 382.691 877.749 382.746 877.42 382.688C877.343 382.672 870.353 376.194 868.61 375.34L867.798 375.635L867.917 377.478Z" fill="#010101"/>
<path fill-rule="evenodd" clip-rule="evenodd" d="M315.856 235.015C309.576 241.45 303.296 247.885 295.483 252.479C297.967 249.328 300 246.455 301.837 242.889C295.43 248.596 290.276 255.588 285.196 262.481C284.72 263.127 284.244 263.773 283.768 264.416C267.275 286.705 252.789 309.657 242.007 335.283C247.992 333.26 254.027 331.35 260.062 329.441C264.532 328.026 269.003 326.611 273.453 325.151C274.792 324.711 276.13 324.271 277.468 323.831C294.508 318.227 311.539 312.627 328.975 308.344C341.664 305.342 354.412 302.608 367.217 300.144C380.023 297.679 392.875 295.487 405.772 293.565C413.1 292.361 420.44 291.232 427.791 290.177C435.142 289.122 442.504 288.142 449.876 287.237C457.246 286.33 464.626 285.499 472.014 284.743C479.402 283.987 486.797 283.306 494.199 282.699C501.601 282.093 509.008 281.562 516.419 281.107C523.832 280.65 531.249 280.268 538.67 279.962C546.09 279.657 553.512 279.426 560.937 279.272C568.362 279.117 575.788 279.037 583.215 279.032C617.753 278.844 652.004 279.923 686.271 284.616C694.73 285.743 703.159 287.053 711.56 288.548C719.962 290.042 728.327 291.72 736.654 293.581C737.818 293.844 739.024 294.094 740.247 294.347C743.911 295.105 747.729 295.896 751.06 297.183C751.176 297.228 751.283 297.268 751.383 297.305C752.17 297.599 752.497 297.721 752.909 298.641L752.041 299.305C753.277 299.685 755.144 300.193 757.374 300.8C766.685 303.333 782.319 307.588 784.676 311.387L784.871 313.639L785.029 313.984L785.536 313.842C785.526 313.762 785.517 313.691 785.508 313.624C785.454 313.214 785.426 313 785.546 312.46C785.889 310.923 786.738 309.989 787.946 309.122C794.239 309.229 813.972 321.318 827.04 329.324C831.044 331.777 834.422 333.846 836.596 335.07C831.664 323.543 825.216 313.298 818.623 302.824C817.588 301.18 816.549 299.53 815.512 297.868C813.882 295.256 812.274 292.622 810.664 289.985C806.024 282.384 801.372 274.763 796.13 267.596C776.125 240.251 749.278 217.138 721.421 198.143C718.66 196.271 715.839 194.492 712.96 192.805C710.081 191.119 707.149 189.529 704.167 188.035C702.378 187.152 700.54 186.315 698.694 185.475C693.583 183.148 688.409 180.793 684.048 177.347L683.447 176.866L678 176.371L674.64 172.559C674.546 172.549 674.448 172.537 674.353 172.529C674.078 172.503 673.798 172.481 673.514 172.458C672.346 172.364 671.123 172.266 670.029 171.963C667.572 171.284 665.147 170.101 662.72 168.918C660.784 167.974 658.847 167.029 656.893 166.34C654.729 165.576 652.472 165.051 650.216 164.527C647.075 163.797 643.935 163.067 641.049 161.693C635.464 159.036 631.198 158.686 625.054 158.401L625.16 158.74L624.363 158.417L624.153 158.658C625.405 160.068 628.236 160.445 631.162 160.835C633.741 161.178 636.394 161.532 638.103 162.611L638.043 163.187C637.141 163.53 636.408 163.714 635.435 163.768C630.631 164.037 604.077 159.112 601.195 156.511L601.479 155.79C603.74 154.884 606.204 154.717 608.636 154.551C609.151 154.516 609.665 154.481 610.175 154.44C602.359 152.315 594.182 152.149 586.026 151.982C582.157 151.903 578.293 151.825 574.474 151.537C568.635 151.097 562.727 150.503 556.793 149.906C544.03 148.624 531.147 147.329 518.573 147.526C499.702 147.822 480.964 152.129 462.623 156.345C461.6 156.58 460.578 156.815 459.558 157.049C457.236 157.581 454.895 158.092 452.549 158.604C446.525 159.918 440.466 161.24 434.599 162.953C432.168 163.662 429.805 164.585 427.443 165.507C425.609 166.223 423.776 166.939 421.911 167.555C420.164 168.132 418.409 168.591 416.658 169.049C414.018 169.739 411.388 170.427 408.809 171.512C400.147 175.155 350.234 197.691 347.469 204.446C347.826 204.46 348.278 204.556 348.689 204.642C348.857 204.678 349.019 204.712 349.164 204.738C349.151 204.817 349.142 204.897 349.133 204.977C349.114 205.136 349.096 205.296 349.045 205.447C348.122 208.242 343.072 211.755 339.608 214.165C338.778 214.743 338.039 215.257 337.47 215.683C334.519 217.869 331.65 220.16 328.864 222.555C326.078 224.949 323.382 227.442 320.777 230.032C319.119 231.672 317.488 233.343 315.856 235.015ZM825.462 342.541L825.544 342.449C826.84 341.012 828.139 339.571 830.265 339.606C834.253 339.672 837.714 344.301 840.142 347.548C840.295 347.754 840.444 347.953 840.589 348.146L840.698 348.289C840.787 348.408 840.876 348.524 840.962 348.637L844.092 352.753C841.218 363.795 829.632 375.16 820.026 380.902C818.42 381.863 816.692 382.484 814.959 383.108C814.019 383.447 813.076 383.786 812.151 384.18C811.99 384.525 811.831 384.875 811.671 385.227C810.665 387.436 809.62 389.731 808.056 391.56C804.092 396.187 798.914 399.52 793.807 402.807C792.829 403.436 791.854 404.064 790.891 404.699C763.93 422.462 735.556 436.018 705.245 447.132C657.104 464.782 598.56 478.3 547.118 478.06C535.97 478.01 524.637 477.419 513.532 476.505C511.28 476.319 509.055 476.09 506.844 475.863C499.956 475.156 493.193 474.462 486.133 475.104C486.067 475.101 486 475.1 485.933 475.098C485.869 475.096 485.805 475.094 485.741 475.091C485.694 475.089 485.648 475.087 485.601 475.083C477.997 474.535 470.225 473.061 462.571 471.61C459.736 471.073 456.917 470.538 454.129 470.055C391.214 459.144 321.296 431.72 270.769 392.19C257.205 381.58 245.095 369.82 233.567 357.051C233.915 355.996 234.244 354.91 234.576 353.814L234.576 353.814L234.576 353.814L234.576 353.813C235.493 350.787 236.433 347.686 237.847 344.974C238.827 343.097 239.65 342.098 241.692 341.476C243.971 342.158 245.915 344.669 247.367 346.546L247.435 346.633C249.926 348.646 252.437 350.633 254.967 352.595C257.497 354.556 260.047 356.493 262.616 358.406C265.184 360.317 267.772 362.203 270.379 364.064C272.984 365.924 275.608 367.758 278.252 369.567C280.894 371.376 283.553 373.158 286.231 374.914C288.91 376.67 291.605 378.399 294.317 380.101C297.03 381.804 299.758 383.479 302.502 385.126C305.248 386.775 308.009 388.396 310.786 389.989C313.564 391.583 316.357 393.149 319.166 394.687C321.975 396.225 324.798 397.735 327.635 399.217C330.474 400.701 333.327 402.155 336.194 403.581C339.061 405.006 341.942 406.403 344.837 407.771C347.732 409.14 350.64 410.48 353.562 411.792C356.483 413.103 359.417 414.384 362.363 415.636C365.311 416.889 368.27 418.113 371.241 419.306C374.212 420.502 377.195 421.667 380.19 422.802C383.184 423.936 386.189 425.041 389.205 426.117C392.221 427.193 395.247 428.239 398.283 429.255C401.321 430.271 404.368 431.256 407.425 432.21C410.48 433.165 413.545 434.089 416.619 434.984C419.695 435.879 422.778 436.743 425.869 437.576C428.961 438.409 432.061 439.212 435.168 439.983C438.276 440.755 441.391 441.496 444.513 442.206C447.636 442.916 450.766 443.596 453.902 444.244C457.038 444.893 460.179 445.51 463.326 446.095C466.474 446.681 469.628 447.235 472.789 447.759C475.948 448.283 479.111 448.775 482.279 449.236C485.448 449.696 488.622 450.125 491.8 450.522C494.976 450.921 498.157 451.288 501.342 451.622C504.525 451.958 507.713 452.261 510.905 452.531C514.096 452.804 517.288 453.044 520.482 453.251C523.678 453.46 526.875 453.637 530.074 453.781C612.258 457.175 703.671 434.873 771.825 387.921C784.684 379.062 797.538 369.346 809.021 358.754C811.824 356.168 814.495 353.448 817.168 350.726L817.169 350.725L817.169 350.725C819.849 347.996 822.53 345.265 825.347 342.667L825.462 342.541ZM219.825 371.093C217.141 371.952 214.759 373.53 212.766 375.523L203.329 384.961L199.614 391.208C191.626 401.42 187.464 421.016 187.999 433.501L190.508 444.001C190.508 444.001 199.614 487.501 225.499 483.001C225.555 481.406 223.345 469.263 220.845 455.53C217.455 436.903 213.533 415.351 214.01 413.232C214.534 412.386 214.828 410.972 215.116 409.585C215.318 408.615 215.516 407.659 215.789 406.92C217.35 399.811 219.169 392.769 221.245 385.794C221.724 384.21 222.304 382.574 222.894 380.915L222.894 380.914C224.182 377.284 225.511 373.54 225.901 369.966C225.18 369.532 222.32 370.294 219.825 371.093ZM853.834 406.734C854.654 414.413 855.745 434.838 854.999 442.5C853.302 456.34 850.458 463.77 846.545 473.991C845.204 477.494 843.737 481.325 842.148 485.854C840.59 490.229 838.821 494.439 837.037 498.682L837.037 498.684C836.475 500.02 835.912 501.359 835.353 502.708C829.684 514.761 808.951 556.135 799.499 565C770.854 604.21 718.499 612.5 758.499 577.5C762.735 569.285 772.832 559.803 783.268 550.002C796.739 537.351 810.774 524.17 813.499 512.5C821.847 497.518 849.252 425.009 853.834 406.734ZM225.452 413.402C228.299 421.688 230.522 430.198 232.745 438.71C234.59 445.773 236.435 452.837 238.638 459.777C245.896 482.641 264.626 509.778 285.358 535.326C285.316 535.266 285.273 535.206 285.23 535.146L285.139 535.017C284.536 534.164 283.939 533.307 283.349 532.446C282.758 531.585 282.175 530.718 281.598 529.846C281.021 528.976 280.452 528.101 279.889 527.22C279.327 526.339 278.771 525.455 278.223 524.567C277.673 523.678 277.131 522.785 276.596 521.889C274.103 517.776 271.883 513.508 269.663 509.241C268.251 506.525 266.838 503.81 265.356 501.135C253.414 479.596 245.1 463.425 238.934 439.256C233.99 419.879 229.279 398.704 229.317 378.617C237.031 398.593 245.814 417.712 257.69 435.615C289.885 484.144 342.277 520.931 394.903 544.258C462.477 574.212 537.228 579.076 609.746 568.237C636.21 564.279 662.517 558.436 687.513 548.744C732.938 531.13 784.27 494.177 813.495 455.082C814.648 453.507 815.78 451.917 816.889 450.312C818 448.706 819.087 447.084 820.15 445.447C821.214 443.811 822.255 442.159 823.272 440.493C824.29 438.828 825.284 437.149 826.254 435.454C827.225 433.76 828.17 432.053 829.091 430.334C830.014 428.613 830.913 426.88 831.786 425.134C832.66 423.389 833.509 421.632 834.333 419.863C835.158 418.093 835.958 416.313 836.733 414.521C838.748 409.925 840.45 405.22 842.152 400.514L842.153 400.513C843.365 397.161 844.577 393.809 845.903 390.496C845.938 401.62 845.371 412.42 843.356 423.399C835 468.972 806.967 521.625 774.345 554.457C753.283 575.651 727.976 592.115 701.459 605.647L701.458 605.647C698.048 608.7 693.665 610.2 689.347 611.677L689.346 611.678C687.985 612.144 686.631 612.607 685.316 613.116C683.962 613.64 682.612 614.173 681.263 614.705L681.263 614.705L681.263 614.705L681.263 614.705L681.262 614.705L681.262 614.705C676.121 616.733 670.99 618.757 665.67 620.319C636.329 628.934 601.036 631.686 570.461 633.16C510.813 636.04 456.763 628.47 399.188 613.353C397.388 612.881 395.556 612.412 393.702 611.937C377.41 607.769 359.402 603.16 346.952 591.862L346.952 591.862C346.052 591.331 345.156 590.794 344.265 590.251C343.374 589.706 342.486 589.155 341.602 588.598C340.719 588.04 339.841 587.475 338.968 586.902C338.092 586.331 337.222 585.753 336.357 585.167C335.493 584.582 334.632 583.989 333.776 583.39C332.92 582.792 332.069 582.187 331.224 581.573C330.376 580.962 329.534 580.344 328.698 579.72C327.861 579.094 327.03 578.462 326.203 577.824C325.377 577.184 324.555 576.539 323.738 575.889C322.921 575.238 322.109 574.581 321.304 573.916C320.497 573.252 319.696 572.581 318.9 571.905C318.103 571.23 317.313 570.547 316.529 569.858C315.744 569.169 314.963 568.474 314.188 567.773C313.414 567.071 312.646 566.365 311.883 565.653C311.119 564.939 310.361 564.22 309.611 563.496C309.064 562.969 308.521 562.439 307.98 561.907C318.599 573.895 328.859 584.936 337.53 594.266L337.532 594.268L337.532 594.268C338.718 595.545 339.875 596.789 340.999 598L327.999 593.5C327.504 592.963 322.061 589.743 317.282 586.915C313.662 584.773 310.423 582.857 309.999 582.5L298.999 574C293.308 569.756 288.873 564.482 284.368 559.126C282.977 557.471 281.578 555.809 280.135 554.166C279.256 553.152 278.386 552.13 277.527 551.1C276.667 550.068 275.816 549.03 274.975 547.986C274.133 546.94 273.299 545.887 272.475 544.827C271.652 543.767 270.838 542.7 270.033 541.626C269.228 540.552 268.433 539.471 267.647 538.383C266.861 537.295 266.085 536.2 265.319 535.097C264.552 533.995 263.796 532.887 263.05 531.773C262.303 530.656 261.566 529.535 260.839 528.408C260.111 527.28 259.394 526.145 258.687 525.004C257.98 523.863 257.283 522.716 256.596 521.563C255.909 520.41 255.232 519.251 254.565 518.085C253.899 516.922 253.243 515.751 252.597 514.573C251.951 513.397 251.315 512.215 250.69 511.027C250.065 509.84 249.45 508.648 248.846 507.449C248.242 506.25 247.648 505.046 247.065 503.837C246.482 502.627 245.91 501.413 245.348 500.195C244.787 498.975 244.236 497.751 243.696 496.522C243.156 495.294 242.627 494.06 242.108 492.823C241.59 491.585 241.082 490.343 240.586 489.095C240.089 487.848 239.604 486.598 239.129 485.343C238.655 484.087 238.192 482.828 237.739 481.564C237.287 480.3 236.846 479.033 236.416 477.762C235.986 476.489 235.567 475.214 235.16 473.936C234.752 472.656 234.356 471.374 233.971 470.089C233.586 468.802 233.212 467.513 232.85 466.221C232.487 464.929 232.137 463.634 231.797 462.335C231.457 461.036 231.129 459.734 230.813 458.43C230.496 457.125 230.191 455.818 229.897 454.509C229.604 453.199 229.322 451.887 229.051 450.572C228.781 449.259 228.522 447.942 228.275 446.622C228.027 445.304 227.792 443.983 227.568 442.659C227.343 441.336 227.131 440.01 226.93 438.683C226.624 436.591 226.363 434.494 226.147 432.392C225.932 430.29 225.763 428.184 225.639 426.074C225.516 423.965 225.439 421.854 225.408 419.741C225.376 417.628 225.391 415.515 225.452 413.402ZM857.466 379.49L858.95 381.398L864.539 407.544C865.228 417.044 860.039 446.574 856.457 466.956L856.457 466.957C855.112 474.609 853.994 480.972 853.499 484.5C859.677 491.572 872.499 478.5 874.499 473C885.811 452.89 891.935 428.234 885.541 405.698C884.085 400.569 882.303 394.914 879.964 390.115C878.27 387.022 869.336 375.571 861.766 373.681C861.095 373.513 860.395 373.62 859.753 373.88L858.872 374.238C857.717 374.708 856.911 375.77 856.769 377.009C856.668 377.896 856.918 378.786 857.466 379.49ZM231.393 366.783C235.34 368.628 239.058 373.246 242.495 377.514C244.216 379.651 245.866 381.7 247.439 383.271C257.746 393.561 269.944 401.717 282.027 409.796C283.498 410.779 284.967 411.762 286.431 412.746C364.175 465.062 457.459 488.328 550.686 487.637C558.167 487.63 565.643 487.428 573.113 487.031C580.584 486.633 588.04 486.041 595.481 485.254C599.294 484.815 603.083 484.21 606.872 483.605L606.874 483.605C609.582 483.173 612.289 482.74 615.006 482.369C617.03 482.092 619.054 481.823 621.078 481.555L621.079 481.555C628.574 480.559 636.063 479.565 643.503 478.163C646.405 477.61 649.301 477.026 652.191 476.413C655.081 475.797 657.964 475.152 660.84 474.477C663.717 473.801 666.586 473.094 669.446 472.357C672.308 471.621 675.161 470.854 678.005 470.058C680.851 469.26 683.687 468.432 686.513 467.574C689.342 466.718 692.16 465.832 694.969 464.914C697.777 463.996 700.575 463.05 703.365 462.074C706.153 461.097 708.93 460.091 711.697 459.055C714.464 458.02 717.22 456.955 719.966 455.862C722.709 454.769 725.442 453.646 728.163 452.495C730.884 451.342 733.592 450.161 736.287 448.951C738.983 447.744 741.666 446.506 744.334 445.239C747.004 443.973 749.66 442.679 752.302 441.358C754.944 440.034 757.572 438.683 760.186 437.305C762.798 435.927 765.396 434.521 767.98 433.089C770.564 431.654 773.132 430.194 775.685 428.707L776.734 428.102C791.114 419.82 805.75 411.391 818.605 400.863C825.96 394.842 832.645 388.067 839.314 381.31L839.599 381.021C833.065 399.692 825.16 416.77 814.803 433.645C789.525 477.76 727.164 524.404 679.774 542.687C656.974 551.483 632.906 556.176 608.767 559.493C537.66 569.257 463.5 564.231 397.321 534.85C341.051 509.867 283.523 466.174 251.967 412.48C243.482 398.044 237.377 382.374 231.393 366.783Z" fill="#3D3D47"/>
</svg>
