<svg width="1080" height="1080" viewBox="0 0 1080 1080" fill="none" xmlns="http://www.w3.org/2000/svg">
<path d="M550 651.369C508.31 653.039 475.72 648.389 443.23 642.609C404.2 635.659 366.71 623.909 330.61 607.459C295.02 591.239 267.28 566.649 248.18 532.459C242.42 522.139 236.87 511.709 231 501.449C230.1 499.869 228.09 498.089 226.43 497.909C204.96 495.569 190.51 484.509 184.28 463.729C176.5 437.769 176.67 412.099 189.21 387.439C195.5 375.069 205.65 367.009 219.2 363.719C223 362.799 224.51 360.929 225.56 357.319C234.11 327.999 246.6 300.329 264.23 275.449C304.88 218.079 358.04 177.329 425.14 154.539C463.8 141.409 503.3 133.999 543.77 135.109C609.51 136.909 672.15 151.469 728.19 188.029C751.94 203.529 772.45 222.629 791.42 243.619C806.88 260.719 821.17 278.539 831.98 299.049C842.1 318.269 850.67 338.059 856.5 359.019C857.01 360.849 858.92 363.179 860.61 363.639C879.39 368.639 891.01 380.549 896.4 399.089C902.41 419.799 902.86 440.439 896.41 461.089C890.01 481.589 874.64 491.789 854.88 496.639C851.26 497.529 849.1 498.809 847.23 502.379C839.66 516.819 831.89 531.199 823.46 545.149C809.08 568.939 787.93 585.599 763.85 598.569C732.78 615.319 699.48 626.339 665.86 636.869C645.35 643.289 624.52 644.359 603.64 646.539C582.96 648.699 562.21 650.279 549.99 651.369H550ZM545.06 634.059C549.23 634.059 553.39 634.059 557.56 634.059C589.01 634.029 619.93 629.219 650.77 623.709C692.19 616.309 730.99 601.509 767.38 580.759C794.68 565.199 814.88 542.419 829.26 514.439C847.41 479.119 857.67 442.189 851.26 402.189C841.91 343.859 819.83 291.669 776.94 249.489C759.81 232.639 742.9 215.659 722.7 202.399C687.55 179.329 649.2 164.849 607.85 157.059C565.2 149.019 522.66 148.609 480.22 156.149C407.38 169.089 344.95 201.499 295.82 257.859C272.2 284.959 254.3 315.409 242.57 349.269C229.28 387.639 226.79 427.049 233.7 467.049C240.52 506.519 259.53 539.329 289.58 565.339C320.74 592.299 358.16 607.439 397.53 617.399C445.86 629.629 495.17 634.849 545.06 634.059ZM219.98 376.449C212.56 378.739 206.15 382.869 201.96 389.919C196.69 398.789 193.56 408.429 193.65 418.789C193.73 427.909 194.14 437.059 195.03 446.129C196.89 465.269 207.01 478.559 226.22 487.029C219.73 468.589 215.06 450.789 215.55 432.459C216.05 413.939 218.4 395.479 219.98 376.439V376.449ZM854.93 484.259C865.54 479.659 875.52 473.459 879.25 461.029C881.96 451.989 884.83 442.819 885.9 433.509C887.44 420.079 886.39 406.559 881.36 393.739C877.83 384.739 868.71 377.959 860.18 378.099C869.7 414.139 865.59 449.349 854.93 484.259Z" fill="black"/>
<g clip-path="url(#clip0_473_216)">
<path d="M649.713 474.733C632.246 475.538 614.786 476.494 597.319 477.095C586.153 477.477 574.967 477.156 563.801 477.484C551.418 477.846 539.042 478.57 526.667 479.163C518.111 479.573 509.555 480.105 500.993 480.413C488.815 480.85 476.631 481.034 464.454 481.505C455.864 481.839 447.294 482.488 438.711 482.952C436.928 483.048 435.131 482.966 433.347 482.993C428.024 483.061 424.224 479.791 423.534 474.521C423.158 471.695 425.933 468.719 430.313 468.193C438.472 467.21 446.666 466.548 454.859 465.92C466.107 465.06 477.362 464.329 488.617 463.592C497.521 463.012 506.432 462.588 515.33 461.947C521.371 461.51 527.391 460.656 533.432 460.295C541.195 459.824 548.985 459.694 556.755 459.346C570.545 458.731 584.336 458.035 598.126 457.421C606.599 457.038 615.066 456.622 623.547 456.438C633.394 456.226 643.248 455.973 653.082 456.301C658.077 456.465 663.291 457.195 667.91 458.963C670.227 459.851 672.885 463.64 672.865 466.09C672.81 472.555 671.997 472.815 666.27 473.395C665.368 473.484 664.487 473.75 663.585 473.825C658.972 474.187 654.353 474.508 649.733 474.849C649.733 474.815 649.733 474.781 649.733 474.747L649.713 474.733Z" fill="black"/>
<path d="M403.456 386.819C403.558 393.98 407.658 399.449 411.328 405.579C410.296 405.026 409.155 404.616 408.26 403.893C401.242 398.227 398.7 390.321 397.62 381.836C395.994 369.077 397.49 356.632 402.547 344.774C409.217 329.127 419.207 316.109 434.187 307.569C437.884 305.459 442.291 304.531 446.446 303.289C450.854 301.971 455.337 300.879 459.806 299.786C466.311 298.203 472.359 300.36 478.42 302.23C482.418 303.466 486.341 305.009 490.413 305.876C501.675 308.272 509.971 314.75 516.354 323.987C528.477 341.552 530.178 360.632 524.001 380.593C521.923 387.311 518.828 393.714 516.197 400.261C515.807 400.165 515.411 400.077 515.021 399.981C514.734 399.339 514.44 398.698 513.942 397.585C504.06 410.078 490.325 415.894 475.926 420.679C472.093 421.956 468.539 424.038 464.794 425.608C455.815 429.377 440.357 428.667 431.87 419.69C426.67 414.18 420.793 409.313 415.503 403.886C410.631 398.889 406.169 393.503 403.456 386.812V386.819ZM516.798 349.334C516.572 347.088 516.62 345.136 516.156 343.313C513.832 334.234 507.197 328.11 500.91 321.823C498.696 319.611 496.236 317.386 493.461 316.054C488.227 313.549 482.78 311.364 477.238 309.651C472.53 308.197 467.596 306.982 462.703 306.722C452.685 306.19 443.617 309.863 435.389 315.181C425.747 321.413 417.437 328.759 413.87 340.542C410.699 351.007 408.485 361.492 408.697 372.415C408.766 376.026 409.75 379.214 412.804 381.972C419.235 387.768 425.474 393.851 431.18 400.35C434.795 404.459 438.403 407.572 444.054 408.125C446.453 408.357 448.892 409.313 451.066 410.419C462.717 416.365 473.924 413.327 484.407 407.927C492.723 403.647 499.659 397.305 505.338 389.495C509.185 384.205 511.871 378.771 512.998 372.442C513.156 371.555 513.128 370.579 513.504 369.794C516.661 363.165 516.477 356.052 516.791 349.327L516.798 349.334ZM429.232 405.401C429.519 405.142 429.813 404.883 430.1 404.623C424.92 399.21 419.74 393.789 414.554 388.376C416.686 396.179 420.519 403.087 429.232 405.401ZM435.909 411.607C435.786 411.935 435.663 412.262 435.533 412.59C439.735 417.28 450.129 420.29 455.05 418.058C448.53 415.86 442.216 413.737 435.902 411.607H435.909Z" fill="black"/>
<path d="M682.971 365.356C682.404 377.863 677.887 392.11 667.5 403.715C663.338 408.364 657.468 411.689 651.94 414.85C642.667 420.147 632.109 422.161 621.783 423.806C613.351 425.151 604.597 423.847 596.67 419.894C583.515 413.334 571.795 405.019 564.401 391.864C560.725 385.324 558.436 378.286 558.607 370.661C558.784 362.571 558.436 354.407 559.461 346.419C560.493 338.33 564.736 331.169 568.59 324.035C568.905 323.455 569.493 322.635 569.985 322.615C572.574 322.512 573.142 320.437 574.174 318.744C577.666 313.03 582.859 309.119 588.34 305.521C595.542 300.79 603.982 299.855 612.059 297.793C626.102 294.209 639.011 297.793 651.332 304.292C654.605 306.019 657.947 308.142 657.783 312.907C657.749 313.918 659.477 315.119 660.578 316.007C667.158 321.304 673.022 327.4 676.801 334.889C681.099 343.409 683.293 352.693 682.978 365.35L682.971 365.356ZM675.249 365.548C675.523 365.554 675.803 365.561 676.076 365.575C676.274 364.353 676.766 363.097 676.609 361.923C675.844 356.011 675.174 350.058 673.965 344.228C672.42 336.794 669.208 329.967 663.878 324.492C656.382 316.805 647.546 311.003 637.405 307.289C630.763 304.859 624.209 301.657 616.931 302.367C607.235 303.316 598.173 305.712 590.151 312.156C582.552 318.259 577.433 326.001 572.315 333.892C568.105 340.391 566.007 347.703 565.939 355.39C565.891 360.612 566.048 366.025 567.388 371.009C568.953 376.839 571.563 382.484 574.379 387.864C576.224 391.38 578.868 394.691 581.814 397.38C586.734 401.872 592.576 404.794 599.096 406.842C608.553 409.812 617.82 412.665 627.94 411.32C635.539 410.303 642.728 408.241 649.213 404.166C656.983 399.278 662.19 392.131 666.468 384.157C669.865 377.829 673.056 371.507 672.823 364.039C672.796 363.192 673.37 362.325 673.664 361.465C673.896 361.506 674.129 361.54 674.361 361.581C674.655 362.906 674.949 364.23 675.236 365.554L675.249 365.548Z" fill="black"/>
<path d="M656.499 284.126C651.169 283.116 645.845 282.092 640.508 281.102C634.973 280.078 629.451 278.918 623.882 278.119C615.784 276.951 607.639 276.146 599.548 274.917C598.509 274.76 597.183 273.142 596.903 271.982C595.434 265.858 593.52 259.721 594.996 253.311C595.263 252.143 595.939 250.464 596.8 250.184C598.044 249.788 599.903 250.034 601.024 250.751C609.292 256.041 617.212 262.22 626.834 264.67C634.317 266.575 642.182 266.985 649.884 268.029C654.196 268.616 658.631 268.739 662.799 269.852C666.162 270.753 667.576 279.935 665.048 282.344C664.528 282.843 663.701 283.191 662.977 283.266C660.852 283.485 658.713 283.525 656.574 283.635C656.547 283.799 656.526 283.956 656.499 284.119V284.126Z" fill="black"/>
<path d="M408.672 292.503C409.171 288.557 411.433 286.311 414.829 284.754C423.836 280.631 433.027 276.801 441.658 271.995C446.551 269.272 450.494 264.841 454.867 261.196C455.728 260.479 456.603 259.776 457.505 259.12C459.575 257.619 461.967 256.431 463.662 254.587C465.247 252.854 466.388 252.56 468.158 253.973C472.129 257.154 475.101 260.991 475.689 266.179C475.792 267.094 474.951 268.555 474.117 269.067C469.238 272.084 464.25 274.924 459.261 277.764C455.926 279.662 452.462 281.327 449.195 283.334C440.27 288.809 430.512 292.25 420.528 295.104C416.25 296.326 412.355 294.769 408.672 292.509V292.503Z" fill="black"/>
<path d="M516.799 349.335C516.485 356.059 516.676 363.172 513.512 369.801C513.137 370.586 513.164 371.562 513.007 372.45C511.879 378.778 509.194 384.205 505.346 389.502C499.668 397.312 492.725 403.654 484.415 407.934C473.932 413.334 462.725 416.365 451.074 410.426C448.901 409.32 446.461 408.364 444.062 408.132C438.411 407.579 434.796 404.466 431.188 400.357C425.482 393.858 419.236 387.782 412.812 381.979C409.758 379.222 408.774 376.034 408.705 372.422C408.494 361.506 410.708 351.021 413.878 340.549C417.446 328.766 425.755 321.42 435.397 315.188C443.625 309.87 452.693 306.197 462.711 306.729C467.604 306.989 472.538 308.197 477.246 309.658C482.789 311.372 488.235 313.549 493.469 316.061C496.244 317.393 498.704 319.618 500.918 321.83C507.205 328.117 513.84 334.234 516.164 343.32C516.629 345.143 516.581 347.095 516.806 349.341L516.799 349.335ZM446.495 386.055C446.721 385.823 446.946 385.584 447.172 385.352C448.573 386.198 449.912 387.175 451.388 387.857C453.199 388.697 455.078 389.543 457.012 389.96C464.338 391.537 470.946 388.929 477.164 385.659C483.445 382.355 488.481 377.638 489.116 369.924C489.547 364.742 490.456 359.438 489.786 354.373C489.137 349.492 487.88 343.873 484.859 340.289C479.338 333.742 471.841 329.421 462.568 330.773C459.39 331.237 456.062 331.995 453.267 333.483C449.14 335.681 444.766 337.245 441.343 341.156C438.165 344.788 438.165 349.232 435.924 352.918C435.069 354.332 434.318 355.956 434.072 357.567C433.026 364.415 431.687 371.364 436.607 377.481C436.88 377.822 436.956 378.32 437.167 378.716C438.855 381.884 440.427 385.12 442.286 388.185C443.543 390.26 445.286 391.858 448.32 390.438C447.65 388.847 447.069 387.454 446.482 386.055H446.495Z" fill="white"/>
<path d="M429.233 405.402C420.527 403.087 416.694 396.179 414.555 388.376C419.735 393.79 424.914 399.21 430.101 404.623C429.814 404.883 429.52 405.142 429.233 405.402Z" fill="white"/>
<path d="M435.912 411.607C442.226 413.73 448.54 415.86 455.06 418.058C450.14 420.297 439.746 417.287 435.543 412.59C435.666 412.262 435.789 411.935 435.919 411.607H435.912Z" fill="white"/>
<path d="M675.249 365.548C674.955 364.223 674.662 362.899 674.375 361.575C674.142 361.534 673.91 361.499 673.677 361.458C673.384 362.319 672.81 363.179 672.837 364.032C673.069 371.494 669.878 377.822 666.482 384.15C662.204 392.124 656.997 399.271 649.227 404.159C642.742 408.235 635.553 410.296 627.954 411.313C617.84 412.665 608.567 409.812 599.109 406.835C592.59 404.787 586.747 401.865 581.827 397.373C578.882 394.691 576.237 391.38 574.392 387.857C571.577 382.478 568.966 376.839 567.401 371.002C566.062 366.019 565.905 360.598 565.953 355.383C566.021 347.696 568.112 340.385 572.328 333.886C577.447 325.994 582.565 318.253 590.164 312.15C598.187 305.705 607.248 303.309 616.945 302.36C624.223 301.65 630.776 304.852 637.418 307.282C647.559 310.996 656.402 316.799 663.892 324.485C669.222 329.954 672.434 336.787 673.978 344.221C675.188 350.051 675.857 356.004 676.623 361.916C676.773 363.09 676.281 364.346 676.09 365.568C675.816 365.561 675.536 365.554 675.263 365.541L675.249 365.548ZM619.583 387.4C625.357 387.331 629.444 387.209 632.498 383.939C633.551 382.812 633.94 380.969 635.109 380.061C639.755 376.436 643.131 372.217 645.065 366.415C647.334 359.602 646.22 353.389 643.992 347.02C642.585 342.992 638.642 340.03 639.339 335.012C639.503 333.838 637.767 331.558 636.482 331.162C630.851 329.421 625.186 327.551 619.063 328.834C610.665 330.595 603.503 334.548 598.235 341.231C594.982 345.354 592.159 350.058 592.508 355.717C592.72 359.055 593.451 362.36 593.786 365.698C594.62 373.931 600.23 379.235 606.271 383.331C610.35 386.096 616.098 386.41 619.576 387.393L619.583 387.4Z" fill="white"/>
<path d="M446.495 386.055C447.083 387.447 447.663 388.847 448.333 390.437C445.299 391.857 443.556 390.26 442.299 388.185C440.44 385.119 438.869 381.884 437.181 378.716C436.969 378.313 436.894 377.822 436.62 377.48C431.693 371.364 433.039 364.421 434.085 357.567C434.331 355.956 435.076 354.331 435.937 352.918C438.178 349.232 438.178 344.788 441.356 341.156C444.78 337.244 449.153 335.681 453.281 333.483C456.076 331.995 459.404 331.237 462.581 330.773C471.854 329.428 479.351 333.742 484.872 340.289C487.893 343.873 489.157 349.484 489.799 354.372C490.469 359.438 489.56 364.742 489.13 369.923C488.487 377.638 483.458 382.348 477.178 385.659C470.952 388.936 464.344 391.537 457.025 389.96C455.085 389.543 453.212 388.703 451.401 387.857C449.925 387.174 448.586 386.198 447.185 385.352C446.96 385.584 446.734 385.823 446.508 386.055H446.495ZM463.039 340.999C466.169 343.88 468.998 346.61 471.984 349.164C472.715 349.785 474.67 350.297 474.827 350.058C475.743 348.665 477.198 346.72 476.795 345.525C475.51 341.743 467.33 339.128 463.039 340.999ZM483.471 370.565C479.61 374.129 476.05 377.419 472.319 380.86C479.727 379.003 482.815 376.245 483.471 370.565Z" fill="black"/>
<path d="M619.583 387.4C616.097 386.417 610.357 386.103 606.278 383.338C600.237 379.242 594.626 373.937 593.793 365.705C593.451 362.366 592.72 359.062 592.515 355.724C592.159 350.071 594.982 345.368 598.241 341.238C603.51 334.555 610.672 330.602 619.07 328.841C625.186 327.557 630.851 329.435 636.489 331.169C637.774 331.564 639.509 333.845 639.345 335.019C638.648 340.036 642.591 342.999 643.999 347.027C646.227 353.396 647.348 359.601 645.072 366.421C643.138 372.224 639.762 376.443 635.115 380.068C633.947 380.976 633.557 382.819 632.505 383.945C629.457 387.215 625.371 387.338 619.589 387.406L619.583 387.4ZM635.628 346.44C636.988 349.034 635.539 353.437 640.623 353.935C640.425 350.413 638.621 348.078 635.628 346.44Z" fill="black"/>
<path d="M463.039 340.999C467.331 339.129 475.51 341.75 476.795 345.525C477.198 346.713 475.743 348.659 474.827 350.058C474.663 350.304 472.715 349.792 471.984 349.164C468.998 346.611 466.162 343.88 463.039 340.999Z" fill="white"/>
<path d="M483.473 370.565C482.817 376.245 479.728 379.003 472.32 380.86C476.051 377.419 479.612 374.129 483.473 370.565Z" fill="white"/>
<path d="M635.629 346.44C638.622 348.085 640.426 350.413 640.624 353.936C635.54 353.43 636.982 349.034 635.629 346.44Z" fill="white"/>
</g>
<defs>
<clipPath id="clip0_473_216">
<rect width="286" height="233" fill="white" transform="translate(397 250)"/>
</clipPath>
</defs>
</svg>
