<svg width="1080" height="1080" viewBox="0 0 1080 1080" fill="none" xmlns="http://www.w3.org/2000/svg">
<path d="M550 651.369C508.31 653.039 475.72 648.389 443.23 642.609C404.2 635.659 366.71 623.909 330.61 607.459C295.02 591.239 267.28 566.649 248.18 532.459C242.42 522.139 236.87 511.709 231 501.449C230.1 499.869 228.09 498.089 226.43 497.909C204.96 495.569 190.51 484.509 184.28 463.729C176.5 437.769 176.67 412.099 189.21 387.439C195.5 375.069 205.65 367.009 219.2 363.719C223 362.799 224.51 360.929 225.56 357.319C234.11 327.999 246.6 300.329 264.23 275.449C304.88 218.079 358.04 177.329 425.14 154.539C463.8 141.409 503.3 133.999 543.77 135.109C609.51 136.909 672.15 151.469 728.19 188.029C751.94 203.529 772.45 222.629 791.42 243.619C806.88 260.719 821.17 278.539 831.98 299.049C842.1 318.269 850.67 338.059 856.5 359.019C857.01 360.849 858.92 363.179 860.61 363.639C879.39 368.639 891.01 380.549 896.4 399.089C902.41 419.799 902.86 440.439 896.41 461.089C890.01 481.589 874.64 491.789 854.88 496.639C851.26 497.529 849.1 498.809 847.23 502.379C839.66 516.819 831.89 531.199 823.46 545.149C809.08 568.939 787.93 585.599 763.85 598.569C732.78 615.319 699.48 626.339 665.86 636.869C645.35 643.289 624.52 644.359 603.64 646.539C582.96 648.699 562.21 650.279 549.99 651.369H550ZM545.06 634.059C549.23 634.059 553.39 634.059 557.56 634.059C589.01 634.029 619.93 629.219 650.77 623.709C692.19 616.309 730.99 601.509 767.38 580.759C794.68 565.199 814.88 542.419 829.26 514.439C847.41 479.119 857.67 442.189 851.26 402.189C841.91 343.859 819.83 291.669 776.94 249.489C759.81 232.639 742.9 215.659 722.7 202.399C687.55 179.329 649.2 164.849 607.85 157.059C565.2 149.019 522.66 148.609 480.22 156.149C407.38 169.089 344.95 201.499 295.82 257.859C272.2 284.959 254.3 315.409 242.57 349.269C229.28 387.639 226.79 427.049 233.7 467.049C240.52 506.519 259.53 539.329 289.58 565.339C320.74 592.299 358.16 607.439 397.53 617.399C445.86 629.629 495.17 634.849 545.06 634.059ZM219.98 376.449C212.56 378.739 206.15 382.869 201.96 389.919C196.69 398.789 193.56 408.429 193.65 418.789C193.73 427.909 194.14 437.059 195.03 446.129C196.89 465.269 207.01 478.559 226.22 487.029C219.73 468.589 215.06 450.789 215.55 432.459C216.05 413.939 218.4 395.479 219.98 376.439V376.449ZM854.93 484.259C865.54 479.659 875.52 473.459 879.25 461.029C881.96 451.989 884.83 442.819 885.9 433.509C887.44 420.079 886.39 406.559 881.36 393.739C877.83 384.739 868.71 377.959 860.18 378.099C869.7 414.139 865.59 449.349 854.93 484.259Z" fill="black"/>
<g clip-path="url(#clip0_473_195)">
<path d="M551.398 383.688C552.001 379.405 552.255 373.588 553.731 368.102C555.993 359.699 558.943 351.442 565.002 344.807C566.868 342.763 568.935 340.898 570.866 338.908C571.701 338.052 572.385 337.054 573.204 336.182C573.746 335.607 573.838 334.062 575.341 335.162C575.569 335.33 576.713 334.566 577.19 334.018C579.686 331.14 582.983 329.98 586.569 329.177C588.098 328.836 589.612 328.082 590.941 327.22C596.218 323.821 602.332 323.463 608.228 322.39C612.448 321.62 616.76 320.905 621.023 320.926C625.2 320.948 629.49 321.512 633.526 322.607C638.251 323.886 642.883 325.724 647.32 327.806C655.521 331.655 662.952 336.691 667.905 344.498C670.741 348.976 673.649 353.6 675.336 358.566C677.375 364.578 678.438 370.969 679.426 377.274C681.302 389.255 678.238 400.645 674.631 411.927C672.954 417.169 670.156 421.766 667.015 426.233C662.274 432.983 656.465 438.523 649.636 443.164C647.352 444.714 645.958 447.533 643.93 449.533C642.753 450.694 641.966 452.943 639.33 451.751C638.636 451.436 637.318 452.651 636.238 453.003C632.539 454.207 628.818 455.334 625.108 456.5C624.424 456.711 623.529 456.755 623.122 457.221C621.577 458.983 619.938 458.468 618.214 457.709C617.888 457.562 617.525 457.302 617.21 457.345C612.61 457.926 608.347 456.413 604.089 455.112C601.176 454.217 598.404 452.851 595.568 451.697C594.548 451.279 593.566 450.688 592.508 450.477C590.458 450.059 589.514 448.796 588.413 447.067C587.393 445.462 585.332 444.248 583.477 443.5C576.393 440.632 570.855 435.666 565.74 430.31C563.326 427.784 562.041 424.2 560.164 421.148C555.038 412.821 553.899 403.296 552.071 393.999C551.507 391.115 551.659 388.09 551.398 383.682V383.688ZM669.434 380.619C668.886 376.813 668.848 373.967 668.029 371.36C666.315 365.911 664.455 360.479 662.166 355.253C659.736 349.713 656.188 344.693 651.496 340.898C645.226 335.835 637.48 333.498 629.897 331.21C622.287 328.917 614.433 328.966 606.6 330.365C605.537 330.554 604.333 330.332 603.4 330.755C596.338 333.981 589.286 337.233 582.322 340.654C579.203 342.188 576.822 344.476 575.167 347.783C573.54 351.046 570.871 353.773 568.962 356.923C567.497 359.335 566.358 361.981 565.333 364.621C564.254 367.402 563.082 370.248 562.675 373.165C562.079 377.421 562.079 381.763 561.916 386.073C561.78 389.7 561.205 393.435 561.84 396.937C563.511 406.207 565.735 415.391 572.602 422.514C577.011 427.095 581.671 431.383 587.551 434.078C591.353 435.823 595.313 437.298 598.92 439.385C603.319 441.933 608.211 441.965 612.93 442.621C616.001 443.05 619.26 442.28 622.417 441.879C625.113 441.537 627.993 441.456 630.418 440.399C637.057 437.498 643.81 434.885 649.598 430.136C653.362 427.046 656.351 423.598 658.743 419.505C660.815 415.96 663.066 412.458 664.607 408.685C666.38 404.342 667.97 399.799 668.696 395.197C669.505 390.09 669.261 384.815 669.429 380.619H669.434Z" fill="black"/>
<path d="M604.998 513.444C597.692 513.845 590.396 514.376 583.085 514.604C578.002 514.761 572.909 514.414 567.821 514.469C564.089 514.506 560.352 515.07 556.631 514.984C551.033 514.848 545.452 514.176 539.859 514.051C535.205 513.948 530.541 514.42 525.881 514.42C517.078 514.42 508.269 514.235 499.465 514.181C494.177 514.149 488.861 514.555 483.605 514.149C477.541 513.682 471.471 512.831 465.521 511.59C462.125 510.88 459.918 507.584 459.429 504.58C458.936 501.571 460.97 498.395 463.796 496.725C466.096 495.364 468.802 494.475 471.439 493.949C478.04 492.637 484.684 491.45 491.356 490.594C496.737 489.905 502.194 489.769 507.618 489.385C513.449 488.973 519.269 488.414 525.106 488.181C534.717 487.796 544.345 487.341 553.957 487.422C565.217 487.514 576.473 488.111 587.722 488.55C591.389 488.696 595.094 488.767 598.701 489.374C604.109 490.279 609.484 491.461 614.789 492.86C617.382 493.543 619.817 494.893 622.253 496.074C628.914 499.316 627.406 507.166 622.253 509.676C619.98 510.782 617.441 511.416 614.963 512.024C611.703 512.82 608.383 513.373 605.091 514.035C605.058 513.84 605.025 513.639 604.993 513.444H604.998Z" fill="black"/>
<path d="M399 394.454C399.759 380.007 400.855 367.782 406.583 356.609C408.655 352.57 411.508 348.916 414.123 345.17C417.556 340.242 421.321 335.455 426.653 332.576C431.274 330.077 435.559 327.112 440.696 325.252C448.827 322.314 457.077 320.84 465.506 320.46C471.332 320.2 477.39 320.531 483.021 321.907C488.505 323.252 493.728 325.968 498.783 328.624C504.69 331.725 509.708 336.219 513.662 341.532C516.922 345.913 519.368 350.916 521.988 355.747C523.122 357.839 524.055 360.122 524.602 362.426C525.893 367.89 527.217 373.382 527.955 378.939C529.81 392.99 526.49 406.196 520.1 418.584C517.67 423.295 514.291 427.616 510.798 431.643C507.484 435.465 503.66 438.935 499.657 442.052C497.178 443.982 494.026 445.126 491.059 446.324C486.682 448.091 482.218 449.647 477.754 451.203C470.811 453.626 463.667 453.166 456.513 452.618C445.87 451.805 436.318 447.875 427.195 442.616C418.088 437.368 410.852 430.245 406.328 420.785C403.931 415.77 402.298 410.333 400.817 404.949C399.694 400.878 399.358 396.585 399.005 394.454H399ZM463.385 443.895C469.493 443.651 474.966 442.692 479.907 440.41C483.612 438.696 487.3 436.935 490.983 435.173C492.904 434.251 494.807 433.286 496.7 432.31C497.482 431.909 498.355 431.551 498.957 430.95C502.613 427.285 505.938 423.409 508.634 418.904C513.543 410.707 517.144 402.185 517.459 392.502C517.481 391.884 517.616 391.256 517.779 390.654C518.961 386.23 519.119 381.785 518.072 377.312C517.562 375.138 517.291 372.878 516.515 370.801C514.269 364.768 512.55 358.371 509.274 352.928C505.602 346.829 500.302 341.76 494.227 337.754C487.289 333.178 479.701 330.533 471.402 329.801C465.842 329.313 460.396 330.207 454.896 330.5C447.151 330.907 441.016 335.097 434.366 337.981C430.119 339.825 426.777 343.267 424.228 347.393C421.657 351.556 418.332 355.275 415.951 359.531C413.933 363.141 412.631 367.185 411.297 371.132C410.054 374.824 408.536 378.602 408.302 382.419C407.885 389.239 407.977 396.07 409.371 402.922C411.259 412.203 415.929 419.82 422.047 426.645C428.15 433.454 436.221 437.542 444.704 440.334C450.676 442.296 457.142 442.768 463.391 443.906L463.385 443.895Z" fill="black"/>
<path d="M610.121 273.068C611.884 273.068 613.652 273.019 615.415 273.079C620.676 273.252 625.688 274.451 630.196 277.226C635.002 280.186 639.867 283.108 644.402 286.458C647.212 288.535 649.43 291.403 651.963 293.864C655.142 296.949 655.478 298.96 653.07 302.809C651.361 305.541 648.258 306.436 645.514 307.233C642.373 308.138 640.182 306.132 638.457 303.362C637.068 301.134 635.175 299.122 633.168 297.398C629.898 294.596 626.421 292.015 622.911 289.505C618.843 286.599 614.205 285.987 609.356 286.724C606.791 287.114 604.252 287.933 601.686 288.02C600.081 288.074 598.231 287.413 596.913 286.475C596.371 286.09 596.805 284.106 597.049 282.908C597.38 281.292 597.58 279.438 598.529 278.224C599.528 276.939 601.242 276.05 602.815 275.405C605.147 274.445 607.626 273.854 610.121 273.079V273.068Z" fill="black"/>
<path d="M437.876 298.065C438.109 294.503 437.615 291.37 438.684 288.919C439.611 286.789 442.22 285.309 444.244 283.742C449.538 279.655 455.992 278.017 462.062 275.578C463.266 275.09 464.671 275.112 465.957 274.814C467.54 274.445 469.092 273.886 470.686 273.583C473.648 273.019 476.615 272.428 479.609 272.146C481.893 271.929 484.252 271.94 486.509 272.287C487.93 272.504 489.205 273.567 490.577 274.179C492.101 274.857 491.922 276.142 492.372 277.47C493.701 281.422 490.441 283.298 489.243 285.992C488.489 287.678 486.623 288.735 484.29 287.683C481.985 286.643 479.588 286.626 477.385 288.209C477.195 288.35 476.843 288.475 476.664 288.394C473.447 286.903 470.719 288.865 467.757 289.478C463.402 290.378 460.169 293.381 456.226 294.98C455.906 295.11 455.439 294.807 455.054 294.85C454.126 294.953 452.949 294.834 452.331 295.349C450.009 297.274 447.91 299.464 445.638 301.453C445.187 301.849 443.815 302.033 443.766 301.93C442.633 299.323 437.946 303.128 437.919 298.688C437.919 298.239 437.854 297.789 437.876 298.07V298.065Z" fill="black"/>
<path d="M631.931 455.942C633.487 455.638 635.049 455.329 637.414 454.863C636.346 455.79 635.695 456.749 634.843 456.988C633.905 457.254 632.782 456.858 631.746 456.749C631.806 456.478 631.871 456.207 631.931 455.936V455.942Z" fill="black"/>
<path d="M669.435 380.619C669.261 384.815 669.511 390.09 668.703 395.197C667.97 399.799 666.381 404.342 664.613 408.685C663.072 412.463 660.821 415.96 658.749 419.505C656.357 423.593 653.374 427.046 649.604 430.136C643.816 434.885 637.063 437.498 630.424 440.399C627.999 441.456 625.119 441.537 622.423 441.879C619.267 442.274 616.007 443.05 612.937 442.621C608.223 441.96 603.33 441.933 598.926 439.385C595.324 437.298 591.359 435.823 587.557 434.078C581.677 431.383 577.018 427.095 572.608 422.514C565.741 415.385 563.517 406.202 561.846 396.937C561.211 393.435 561.792 389.7 561.922 386.073C562.079 381.763 562.085 377.421 562.681 373.165C563.088 370.248 564.26 367.402 565.339 364.621C566.364 361.981 567.498 359.335 568.968 356.923C570.877 353.779 573.546 351.046 575.173 347.783C576.828 344.476 579.209 342.188 582.328 340.654C589.292 337.233 596.344 333.981 603.406 330.755C604.339 330.332 605.549 330.549 606.606 330.365C614.439 328.966 622.293 328.917 629.903 331.21C637.486 333.498 645.232 335.835 651.502 340.898C656.194 344.687 659.742 349.713 662.172 355.253C664.461 360.479 666.321 365.911 668.035 371.36C668.854 373.967 668.892 376.813 669.44 380.619H669.435ZM646.138 422.471C644.711 422.124 643.751 419.57 641.804 421.631C639.634 423.935 637.042 425.274 633.771 425.545C629.833 425.87 625.927 426.542 622.017 427.155C621.122 427.296 620.286 427.811 618.8 428.407C626.47 432.397 633.049 432.142 639.591 427.968C639.103 427.09 638.761 426.477 638.154 425.387C641.945 426.51 644.223 424.916 646.084 422.395C646.501 421.853 646.832 420.942 647.353 420.817C651.123 419.901 648.221 417.814 648.823 416.068C645.075 417.5 645.324 419.885 646.133 422.465L646.138 422.471ZM636.391 382.289C636.071 378.288 635.582 374.087 632.55 370.899C629.594 367.793 626.334 364.974 621.957 363.96C619.559 363.407 617.162 362.469 614.754 362.431C611.754 362.382 608.716 362.935 605.749 363.515C603.498 363.96 600.813 364.263 599.23 365.662C592.601 371.522 588.886 378.922 589.374 387.997C589.461 389.57 590.697 391.239 590.383 392.638C589.737 395.495 591.766 397.289 592.91 398.997C594.456 401.312 597.185 402.949 599.636 404.51C603.26 406.82 607.501 408.137 611.646 408.078C620.747 407.947 627.473 403.025 632.567 395.793C635.349 391.841 636.06 387.19 636.391 382.289ZM595.948 426.548L596.084 426.206C588.766 420.736 581.444 415.266 573.877 409.612C573.969 410.669 573.687 412.143 574.262 413.098C575.613 415.347 577.197 417.51 578.992 419.424C584.611 425.42 591.023 430.375 598.703 433.508C599.821 433.964 601.052 434.132 602.235 434.435L602.419 433.839C598.617 431.269 594.814 428.694 591.012 426.125C591.186 425.821 591.359 425.518 591.538 425.214C593.008 425.653 594.478 426.098 595.953 426.537L595.948 426.548ZM630.088 340.426C632.295 343.056 633.776 345.555 635.924 347.176C638.056 348.78 640.855 349.501 643.366 350.607L643.746 349.81C640.144 345.766 637.204 340.795 630.088 340.426Z" fill="white"/>
<path d="M463.385 443.895C457.136 442.757 450.67 442.285 444.698 440.323C436.22 437.531 428.144 433.443 422.041 426.634C415.928 419.809 411.253 412.192 409.365 402.911C407.971 396.059 407.879 389.228 408.297 382.408C408.53 378.597 410.049 374.813 411.291 371.121C412.62 367.174 413.921 363.125 415.945 359.52C418.326 355.264 421.651 351.545 424.222 347.382C426.771 343.256 430.113 339.814 434.36 337.97C441.01 335.086 447.145 330.896 454.89 330.489C460.39 330.202 465.842 329.302 471.396 329.79C479.701 330.522 487.289 333.173 494.221 337.743C500.296 341.749 505.596 346.818 509.268 352.917C512.544 358.36 514.264 364.757 516.509 370.79C517.279 372.867 517.556 375.127 518.066 377.301C519.113 381.774 518.955 386.219 517.773 390.643C517.61 391.245 517.475 391.868 517.453 392.491C517.133 402.174 513.537 410.696 508.628 418.893C505.927 423.398 502.607 427.274 498.951 430.939C498.349 431.54 497.476 431.898 496.695 432.299C494.802 433.275 492.898 434.24 490.977 435.162C487.294 436.929 483.606 438.686 479.901 440.399C474.96 442.686 469.487 443.646 463.379 443.884L463.385 443.895ZM459.067 362.49C459.04 362.631 459.013 362.772 458.986 362.913C458.628 362.913 458.259 362.87 457.906 362.919C450.394 363.965 442.892 370.557 440.907 377.805C440.695 378.581 440.316 379.307 440.001 380.05C437.598 385.72 436.942 391.364 440.619 396.769C441.59 398.195 443.104 399.246 444.167 400.623C447.752 405.275 452.379 407.828 458.286 407.926C460.683 407.969 463.227 407.427 465.446 408.056C469.368 409.172 472.573 407.427 475.226 405.54C481.344 401.203 483.823 394.72 484.376 387.298C484.783 381.79 483.118 376.699 480.411 372.4C478.42 369.234 474.624 366.735 471.087 365.147C467.42 363.499 463.103 363.309 459.067 362.48V362.49ZM414.865 393.137C414.437 393.185 414.008 393.24 413.574 393.288C413.84 397.192 414.106 401.1 414.383 405.004C414.393 405.177 414.453 405.378 414.562 405.508C416.992 408.37 417.23 412.788 421.071 414.675C421.374 414.827 421.423 415.466 421.618 415.868C423.88 420.562 427.373 424.352 431.094 427.843C437.05 433.432 445.051 435.362 452.276 438.821C450.388 436.593 448.322 434.598 446.141 432.738C442.312 429.48 438.113 426.596 434.642 422.997C432.022 420.281 430.221 416.746 428.198 413.488C424.792 408.001 421.494 402.445 418.071 396.79C415.901 399.512 420.669 402.103 418.63 405.215C415.364 401.745 415.326 397.365 414.854 393.142L414.865 393.137ZM474.656 430.51C473.533 430.884 472.709 431.155 471.884 431.443C469.801 432.18 467.74 433.454 465.63 433.535C462.945 433.638 460.228 432.69 457.505 432.391C456.832 432.321 456.078 433.026 455.362 433.373C455.802 433.915 456.149 434.793 456.702 434.95C461.041 436.203 465.326 437.672 469.986 436.094C474.602 434.538 474.656 434.69 474.656 430.505V430.51ZM424.244 362.046C426.343 358.902 428.42 356.061 430.156 353.025C430.72 352.038 430.395 350.542 430.471 349.279C429.37 349.729 427.916 349.886 427.243 350.694C425.73 352.515 424.33 354.548 423.408 356.711C422.698 358.376 421.429 360.62 424.238 362.041L424.244 362.046ZM495.322 354.89L495.843 354.239C493.375 350.249 490.104 346.959 486.21 344.313C485.716 343.977 484.485 344.725 483.601 344.975C483.85 345.869 483.812 347.154 484.398 347.593C487.164 349.659 490.099 351.502 492.979 353.415C493.749 353.925 494.541 354.402 495.322 354.895V354.89Z" fill="white"/>
<path d="M636.391 382.289C636.06 387.19 635.349 391.841 632.567 395.793C627.473 403.02 620.747 407.942 611.646 408.078C607.496 408.137 603.254 406.82 599.637 404.511C597.185 402.949 594.456 401.307 592.911 398.997C591.771 397.29 589.743 395.495 590.383 392.638C590.697 391.24 589.455 389.57 589.374 387.998C588.891 378.923 592.601 371.528 599.23 365.662C600.808 364.264 603.499 363.96 605.75 363.515C608.711 362.93 611.754 362.382 614.754 362.431C617.162 362.469 619.56 363.407 621.957 363.96C626.334 364.974 629.6 367.793 632.55 370.899C635.583 374.087 636.071 378.288 636.391 382.289Z" fill="black"/>
<path d="M595.948 426.548C594.478 426.108 593.008 425.664 591.532 425.225C591.359 425.528 591.185 425.832 591.006 426.136C594.808 428.705 598.611 431.28 602.413 433.85L602.229 434.446C601.052 434.143 599.815 433.975 598.698 433.519C591.017 430.386 584.606 425.431 578.986 419.435C577.191 417.521 575.607 415.358 574.256 413.108C573.681 412.149 573.963 410.68 573.871 409.623C581.438 415.277 588.76 420.747 596.078 426.217L595.942 426.558L595.948 426.548Z" fill="black"/>
<path d="M646.11 422.433C644.228 424.921 641.95 426.515 638.158 425.393C638.766 426.482 639.107 427.095 639.596 427.973C633.054 432.142 626.474 432.402 618.805 428.412C620.291 427.816 621.126 427.301 622.021 427.16C625.927 426.547 629.837 425.875 633.775 425.55C637.041 425.279 639.639 423.94 641.809 421.636C643.751 419.57 644.716 422.129 646.143 422.476L646.115 422.438L646.11 422.433Z" fill="black"/>
<path d="M630.086 340.426C637.202 340.795 640.142 345.766 643.744 349.81L643.364 350.607C640.858 349.501 638.054 348.78 635.922 347.176C633.774 345.555 632.288 343.056 630.086 340.426Z" fill="black"/>
<path d="M646.135 422.471C645.321 419.89 645.077 417.505 648.825 416.074C648.223 417.819 651.125 419.907 647.355 420.823C646.835 420.947 646.504 421.853 646.097 422.417C646.108 422.433 646.135 422.471 646.135 422.471Z" fill="black"/>
<path d="M459.068 362.491C463.104 363.32 467.422 363.51 471.088 365.158C474.625 366.746 478.422 369.246 480.412 372.412C483.119 376.711 484.784 381.801 484.378 387.309C483.83 394.731 481.345 401.214 475.227 405.551C472.569 407.433 469.369 409.178 465.447 408.067C463.229 407.433 460.685 407.975 458.287 407.937C452.38 407.839 447.753 405.286 444.168 400.634C443.105 399.257 441.592 398.211 440.621 396.78C436.943 391.375 437.599 385.731 440.002 380.061C440.317 379.318 440.697 378.592 440.908 377.816C442.893 370.568 450.395 363.976 457.908 362.93C458.26 362.881 458.629 362.924 458.987 362.924C459.014 362.783 459.041 362.643 459.068 362.502V362.491Z" fill="black"/>
<path d="M414.866 393.137C415.333 397.365 415.376 401.74 418.641 405.21C420.675 402.103 415.907 399.512 418.083 396.785C421.505 402.44 424.798 407.996 428.21 413.483C430.233 416.741 432.034 420.275 434.653 422.991C438.12 426.591 442.323 429.475 446.153 432.733C448.339 434.593 450.405 436.588 452.288 438.816C445.057 435.357 437.062 433.427 431.106 427.838C427.385 424.347 423.897 420.557 421.63 415.862C421.435 415.461 421.386 414.822 421.082 414.67C417.242 412.783 417.003 408.365 414.573 405.503C414.465 405.378 414.41 405.172 414.394 404.998C414.118 401.095 413.852 397.192 413.586 393.283C414.014 393.234 414.443 393.18 414.877 393.131L414.866 393.137Z" fill="black"/>
<path d="M474.657 430.511C474.657 434.696 474.608 434.539 469.987 436.1C465.322 437.672 461.037 436.208 456.703 434.956C456.15 434.799 455.808 433.921 455.363 433.379C456.079 433.032 456.839 432.327 457.506 432.397C460.229 432.69 462.946 433.639 465.631 433.541C467.736 433.46 469.797 432.186 471.885 431.449C472.704 431.161 473.534 430.89 474.657 430.516V430.511Z" fill="black"/>
<path d="M424.242 362.046C421.427 360.62 422.702 358.381 423.412 356.717C424.334 354.549 425.734 352.521 427.247 350.7C427.92 349.892 429.373 349.735 430.475 349.285C430.393 350.548 430.724 352.044 430.16 353.031C428.424 356.067 426.347 358.907 424.248 362.052L424.242 362.046Z" fill="black"/>
<path d="M495.323 354.89C494.542 354.397 493.75 353.925 492.98 353.41C490.1 351.497 487.165 349.659 484.399 347.588C483.808 347.149 483.851 345.864 483.602 344.969C484.491 344.72 485.722 343.972 486.211 344.308C490.1 346.954 493.376 350.244 495.844 354.234L495.323 354.885V354.89Z" fill="black"/>
</g>
<defs>
<clipPath id="clip0_473_195">
<rect width="281" height="243" fill="white" transform="translate(399 272)"/>
</clipPath>
</defs>
</svg>
