<svg width="1080" height="1080" viewBox="0 0 1080 1080" fill="none" xmlns="http://www.w3.org/2000/svg">
<path d="M550 651.369C508.31 653.039 475.72 648.389 443.23 642.609C404.2 635.659 366.71 623.909 330.61 607.459C295.02 591.239 267.28 566.649 248.18 532.459C242.42 522.139 236.87 511.709 231 501.449C230.1 499.869 228.09 498.089 226.43 497.909C204.96 495.569 190.51 484.509 184.28 463.729C176.5 437.769 176.67 412.099 189.21 387.439C195.5 375.069 205.65 367.009 219.2 363.719C223 362.799 224.51 360.929 225.56 357.319C234.11 327.999 246.6 300.329 264.23 275.449C304.88 218.079 358.04 177.329 425.14 154.539C463.8 141.409 503.3 133.999 543.77 135.109C609.51 136.909 672.15 151.469 728.19 188.029C751.94 203.529 772.45 222.629 791.42 243.619C806.88 260.719 821.17 278.539 831.98 299.049C842.1 318.269 850.67 338.059 856.5 359.019C857.01 360.849 858.92 363.179 860.61 363.639C879.39 368.639 891.01 380.549 896.4 399.089C902.41 419.799 902.86 440.439 896.41 461.089C890.01 481.589 874.64 491.789 854.88 496.639C851.26 497.529 849.1 498.809 847.23 502.379C839.66 516.819 831.89 531.199 823.46 545.149C809.08 568.939 787.93 585.599 763.85 598.569C732.78 615.319 699.48 626.339 665.86 636.869C645.35 643.289 624.52 644.359 603.64 646.539C582.96 648.699 562.21 650.279 549.99 651.369H550ZM545.06 634.059C549.23 634.059 553.39 634.059 557.56 634.059C589.01 634.029 619.93 629.219 650.77 623.709C692.19 616.309 730.99 601.509 767.38 580.759C794.68 565.199 814.88 542.419 829.26 514.439C847.41 479.119 857.67 442.189 851.26 402.189C841.91 343.859 819.83 291.669 776.94 249.489C759.81 232.639 742.9 215.659 722.7 202.399C687.55 179.329 649.2 164.849 607.85 157.059C565.2 149.019 522.66 148.609 480.22 156.149C407.38 169.089 344.95 201.499 295.82 257.859C272.2 284.959 254.3 315.409 242.57 349.269C229.28 387.639 226.79 427.049 233.7 467.049C240.52 506.519 259.53 539.329 289.58 565.339C320.74 592.299 358.16 607.439 397.53 617.399C445.86 629.629 495.17 634.849 545.06 634.059ZM219.98 376.449C212.56 378.739 206.15 382.869 201.96 389.919C196.69 398.789 193.56 408.429 193.65 418.789C193.73 427.909 194.14 437.059 195.03 446.129C196.89 465.269 207.01 478.559 226.22 487.029C219.73 468.589 215.06 450.789 215.55 432.459C216.05 413.939 218.4 395.479 219.98 376.439V376.449ZM854.93 484.259C865.54 479.659 875.52 473.459 879.25 461.029C881.96 451.989 884.83 442.819 885.9 433.509C887.44 420.079 886.39 406.559 881.36 393.739C877.83 384.739 868.71 377.959 860.18 378.099C869.7 414.139 865.59 449.349 854.93 484.259Z" fill="black"/>
<g clip-path="url(#clip0_473_233)">
<path d="M693.922 425.037V422.246C694.899 423.565 697.477 424.296 695.479 426.798C695.002 426.352 694.624 425.999 694.241 425.64C694.133 425.439 694.03 425.238 693.922 425.037Z" fill="black"/>
<path d="M696.846 311.32C693.364 294.64 684.854 281.105 672.021 269.944C672.871 270.204 673.765 270.371 674.565 270.739C679.663 273.089 683.238 277.2 686.774 281.365C695.707 291.893 700.185 304.315 702.965 317.658C705.705 330.821 703.928 343.767 702.322 356.787C702.233 357.504 702.189 358.225 702.243 358.956C705.966 345.018 708.74 331.1 705.573 316.515C702.513 302.421 697.259 289.347 689.278 277.318C689.47 277.141 689.661 276.97 689.853 276.793C690.899 277.632 692.122 278.324 692.962 279.334C698.309 285.785 701.963 293.115 704.807 301.003C707.488 308.45 709.413 316.02 710.493 323.815C711.986 334.623 712.851 345.479 711.579 356.365C710.778 363.219 709.958 370.107 708.431 376.823C707.287 381.851 705.008 386.625 703.25 391.516C703.068 392.026 702.965 392.561 702.749 393.365C703.407 393.081 703.8 392.914 704.399 392.659C704.36 393.287 704.497 393.9 704.271 394.322C702.263 398.124 702.101 402.431 700.863 406.4C699.969 409.275 699.989 412.189 699.243 415.015C698.751 416.879 698.481 418.812 697.872 420.632C697.627 421.363 696.728 421.878 696.129 422.491C695.864 422.368 695.599 422.251 695.333 422.128C695.333 420.494 694.7 418.439 695.456 417.301C697.426 414.338 695.569 411.374 696.355 408.274C693.246 413.244 690.511 418.091 687.319 422.614C681.504 430.855 675.047 438.518 667.071 444.876C662.082 448.855 656.881 452.397 651.076 454.943C647.801 456.381 644.216 457.136 640.749 458.122C640.248 458.264 639.614 457.955 638.873 457.46C657.215 450.121 673.406 440.461 680.876 420.848C678.533 423.904 676.338 427.083 673.814 429.977C671.221 432.955 668.324 435.663 665.539 438.469C662.259 441.776 657.318 444.518 655.776 443.763C657.235 442.065 658.674 440.392 660.108 438.72L659.695 437.94C646.991 450.65 632.4 451.19 617.245 444.248C610.802 441.295 605.474 436.325 602.277 429.683C602.439 429.497 602.606 429.315 602.768 429.129C603.775 430.056 604.816 430.949 605.778 431.925C613.591 439.833 622.77 445.058 634.07 445.588C643.612 446.034 651.734 442.639 658.133 435.423C658.394 435.133 658.575 434.77 658.865 434.334C655.472 435.217 652.284 436.262 649.009 436.85C640.881 438.317 632.877 436.919 624.99 435.124C619.136 433.789 613.228 432.327 607.703 430.056C603.691 428.407 600.224 425.39 596.585 422.884C593.251 420.588 589.999 418.159 586.719 415.78C580.477 411.247 575.414 405.571 571.024 399.291C568.004 394.974 565.155 390.539 562.287 386.114C561.482 384.873 560.883 383.5 560.352 382.504C560.622 384.628 560.794 386.993 561.266 389.298C561.482 390.363 562.189 391.369 562.832 392.291C564.644 394.906 566.55 397.457 568.392 400.052C568.833 400.67 569.182 401.357 569.32 402.215C566.417 401.156 564.885 398.727 563.255 396.417C557.17 387.787 555.196 377.755 554.194 367.619C553.227 357.813 553.074 347.913 552.804 338.052C552.623 331.439 554.096 325.007 555.623 318.595C558.074 308.313 562.877 299.159 568.986 290.676C580.03 275.351 594.95 265.696 613.277 261.256C627.126 257.901 640.69 258.264 653.851 264.357C661.635 267.958 668.269 273.177 674.492 278.907C682.221 286.026 688.512 294.302 693.119 303.79C694.145 305.904 695.014 308.097 695.996 310.236C696.183 310.643 696.556 310.962 696.841 311.32H696.846ZM697.092 384.736C695.928 388.047 694.744 391.354 693.605 394.675C692.77 397.108 692.078 399.591 691.179 401.995C689.932 405.34 688.552 408.637 687.23 411.953C686.695 413.298 686.165 414.642 685.443 416.477C686.297 416.113 686.607 416.084 686.695 415.932C689.475 410.913 692.534 406.012 694.887 400.802C696.36 397.54 698.688 394.346 697.98 390.348C697.922 390.019 698.285 389.288 698.437 389.293C700.804 389.352 699.748 387.38 700.058 387.002C698.914 386.124 697.971 385.398 697.038 384.677C698.776 384.441 699.522 382.754 698.963 379.619C698.241 381.601 697.671 383.171 697.096 384.741L697.092 384.736ZM686.067 334.024C685.546 329.334 685.413 324.561 684.407 319.974C682.973 313.439 681.215 306.934 679.015 300.621C676.25 292.693 669.438 288.17 663.059 283.445C657.853 279.584 652.034 276.724 645.959 274.6C641.289 272.966 636.388 271.666 631.487 271.063C621.955 269.886 613.071 272.868 604.919 277.387C599.6 280.33 594.64 284.161 590.127 288.263C581.563 296.053 574.677 305.193 569.884 315.853C567.272 321.667 565.666 327.544 566.132 333.975C566.879 344.263 568.799 354.251 572.944 363.759C577.064 373.217 582.476 381.856 590.368 388.543C602.783 399.056 617.496 402.941 633.544 401.828C644.481 401.072 654.229 396.951 662.882 390.265C671.491 383.612 677.708 375.106 681.161 364.862C684.515 354.928 686.381 344.65 686.057 334.024H686.067ZM665.726 423.58C654.269 426.946 642.91 430.282 631.418 433.652C633.324 433.873 635.219 434.133 637.12 434.299C644.471 434.937 651.489 433.416 658.374 431.008C662.082 429.708 664.297 427.019 665.721 423.585L665.726 423.58ZM707.704 348.433C705.268 360.472 702.828 372.515 700.392 384.554C700.696 384.613 701.001 384.667 701.305 384.726C705.263 372.942 707.999 360.923 707.704 348.433ZM570.326 381.243C571.697 389.239 586.365 403.795 591.095 402.098C582.702 396.77 576.76 389.058 570.326 381.243ZM569.487 309.824C574.894 299.291 581.946 290.559 590.608 283.102C582.825 285.569 570.002 301.754 569.487 309.824ZM593.805 412.748C597.287 417.168 614.402 422.118 617.604 420.234C609.933 417.821 602.007 415.329 593.805 412.748ZM636.118 414.171C643.627 415.005 652.122 414.029 659.636 408.259C651.278 410.359 643.077 412.419 636.118 414.171ZM655.285 423.87L655.58 424.625C659.675 422.962 663.771 421.309 667.857 419.626C669.546 418.929 670.303 417.683 669.91 415.667C664.95 418.449 660.117 421.162 655.285 423.87ZM683.513 406.67C680.154 406.9 674.074 415.338 674.153 419.386C677.384 414.995 680.247 411.105 683.513 406.67ZM619.372 415.878C619.347 416.089 619.322 416.295 619.298 416.506C624.224 418.4 632.228 418.949 634.64 417.379C629.385 416.864 624.381 416.374 619.377 415.878H619.372ZM608.661 426.401C613.483 429.271 618.709 430.811 623.831 430.434C619.111 429.178 613.886 427.789 608.661 426.401ZM667.813 431.145C667.577 430.934 667.341 430.718 667.106 430.507C664.444 432.568 661.6 434.456 660.25 437.729C660.471 437.935 660.687 438.146 660.908 438.352C663.211 435.953 665.51 433.549 667.813 431.15V431.145ZM635.735 425.92C635.695 425.592 635.656 425.263 635.622 424.934C631.163 425.322 626.704 425.704 622.244 426.092C622.264 426.352 622.284 426.617 622.303 426.877C626.782 426.558 631.256 426.239 635.735 425.92ZM694.081 321.622C694.405 321.514 694.729 321.402 695.054 321.294C693.973 317.933 692.893 314.573 691.807 311.212L691.194 311.408C692.156 314.813 693.119 318.218 694.076 321.622H694.081ZM662.317 280.546C662.45 280.33 662.578 280.109 662.71 279.893C660.486 278.579 658.256 277.269 656.032 275.954C655.948 276.096 655.865 276.234 655.786 276.376C657.966 277.764 660.142 279.158 662.322 280.546H662.317Z" fill="black"/>
<path d="M413.522 274.62C414.622 274.688 415.722 274.757 417.146 274.845C415.177 277.362 413.193 279.894 411.209 282.425C411.327 282.523 411.444 282.616 411.567 282.714C414.745 280.453 417.897 278.162 421.104 275.944C427.537 271.49 434.324 267.703 442.074 266.093C451.488 264.141 460.858 263.979 470.434 265.789C484.106 268.37 495.907 274.296 506.274 283.357C513.694 289.847 519.362 297.628 522.765 306.89C525.716 314.931 528.476 323.045 531.049 331.208C532.046 334.368 532.292 337.768 533.191 341.045C532.97 338.067 532.876 335.069 532.493 332.111C532.1 329.05 531.565 325.994 530.843 322.991C530.131 320.018 529.203 317.089 528.186 314.205C527.175 311.325 525.937 308.524 525.073 305.536C528.663 308.411 529.591 312.993 532.14 316.545C531.428 310.545 529.247 305.016 526.527 299.762C523.781 294.464 520.516 289.435 517.535 284.382C523.673 285.349 535.307 308.71 534.384 319.273C533.765 318.463 533.284 317.83 532.547 316.859C533.343 321.255 534.487 325.169 534.654 329.128C534.88 334.446 534.438 339.799 534.124 345.126C533.873 349.399 533.146 353.653 533.048 357.926C532.852 366.506 530.853 374.581 526.993 382.219C526.144 383.897 525.515 385.707 524.498 387.262C521.193 392.315 517.982 397.457 514.303 402.235C510.586 407.057 506.853 412.081 502.227 415.937C496.251 420.926 489.822 425.812 482.8 429.006C471.156 434.304 458.677 436.782 445.703 434.574C444.529 434.373 443.336 434.265 441.44 434.025C444.834 437.591 448.723 439.058 452.568 440.393C456.492 441.756 460.598 442.61 464.62 443.684C464.639 443.988 464.659 444.288 464.674 444.592C463.775 444.862 462.862 445.416 461.987 445.352C457.897 445.073 453.771 444.847 449.754 444.116C448.36 443.861 447.23 442.178 445.963 441.168C442.236 438.205 438.705 434.932 434.698 432.416C432.1 430.782 428.809 430.262 425.828 429.242C425.745 429.457 425.661 429.668 425.578 429.884C427.135 431.003 428.687 432.121 430.243 433.24C430.062 433.505 429.88 433.775 429.698 434.039C420.171 431.062 412.672 424.704 404.687 418.954C406.877 421.314 409.072 423.669 411.263 426.028C411.106 426.19 410.948 426.352 410.791 426.514C408.935 424.763 406.887 423.168 405.262 421.225C401.912 417.227 398.661 413.131 395.621 408.897C393.716 406.238 392.272 403.251 390.622 400.415C390.416 400.498 390.205 400.582 389.999 400.66C389.999 401.151 389.856 401.69 390.018 402.117C393.294 410.781 397.443 419.033 403.332 426.195C409.357 433.529 416.581 439.637 424.915 444.293C427.017 445.465 429.394 446.147 431.569 447.197C432.203 447.501 432.591 448.311 433.092 448.889C432.399 449.091 431.677 449.547 431.029 449.458C425.21 448.688 420.461 445.603 415.81 442.311C409.465 437.817 404.024 432.371 398.981 426.504C395.931 422.957 392.842 419.445 389.9 415.805C389.08 414.789 388.731 413.386 388.604 411.846C389.129 412.179 389.66 412.513 390.165 412.836C388.344 408.338 386.178 403.962 384.798 399.35C383.04 393.468 380.535 387.817 380.147 381.478C379.725 374.625 378.399 367.826 377.029 361.036C377.029 366.619 376.857 372.206 377.068 377.784C377.402 386.674 377.559 395.602 378.605 404.418C379.47 411.713 381.552 418.861 383.005 426.092C383.442 428.265 383.595 430.497 383.585 432.759C377.702 420.431 375.433 406.999 370.969 394.258C371.239 394.072 371.509 393.885 371.774 393.704C372.432 394.386 373.095 395.068 373.979 395.985C373.788 394.057 373.537 392.296 373.449 390.53C373.051 382.587 372.241 374.63 372.452 366.702C372.688 357.823 373.567 348.933 374.735 340.122C375.693 332.911 377.387 325.788 378.939 318.664C380.142 313.15 381.385 307.621 383.05 302.23C384.965 296.014 387.941 290.255 391.482 284.75C395.518 278.481 400.238 272.883 406.047 268.213C406.912 267.516 407.928 266.927 408.969 266.569C409.573 266.363 410.369 266.721 411.076 266.829C410.796 267.492 410.678 268.326 410.202 268.787C407.314 271.573 404.132 274.08 401.451 277.048C398.318 280.517 395.371 284.078 393.755 288.749C392.582 292.138 389.969 295.033 388.383 298.354C392.194 293.62 395.877 288.778 399.855 284.191C403.788 279.653 407.899 275.199 414.018 273.688C414.136 273.864 414.253 274.041 414.371 274.217C414.101 274.365 413.831 274.512 413.566 274.674C412.147 276.131 410.718 277.578 409.289 279.025C408.915 279.153 408.414 279.172 408.184 279.427C404.79 283.234 401.092 286.83 398.151 290.966C394.305 296.372 390.927 302.132 387.627 307.896C385.947 310.83 384.872 314.107 383.526 317.232C387.985 309.814 392.076 302.23 396.78 295.048C399.884 290.313 403.891 286.173 407.452 281.733C408.134 280.88 408.626 279.874 409.205 278.937C410.325 278.309 411.39 277.529 412.579 277.087C413.988 276.562 413.92 275.709 413.522 274.615V274.62ZM432.979 416.702C433.136 417.031 433.229 417.59 433.46 417.649C437.575 418.768 441.705 419.847 445.845 420.882C446.297 420.995 446.827 420.804 447.323 420.75C447.333 420.612 447.338 420.475 447.348 420.337L432.92 416.756C432.777 416.57 432.674 416.32 432.488 416.207C427.297 413.175 422.101 410.148 416.886 407.151C416.547 406.954 416.075 406.999 415.133 406.842C415.776 407.68 416.007 408.24 416.424 408.485C421.32 411.355 426.226 414.2 431.181 416.962C431.599 417.198 432.37 416.805 432.974 416.702H432.979ZM517.613 335.364C516.665 328.226 516.543 320.852 514.598 313.994C511.047 301.46 504.054 290.878 494.007 282.263C485.103 274.63 474.879 270.96 463.363 270.288C451.517 269.596 440.389 271.956 430.086 277.961C419.876 283.911 412.358 292.457 406.627 302.598C401.411 311.826 397.566 321.559 396.879 332.332C396.24 342.32 397.109 352.102 400.243 361.629C400.827 363.41 401.642 365.152 402.615 366.756C403.891 368.866 405.596 370.715 406.818 372.849C411.43 380.89 417.303 387.9 424.935 393.081C434.216 399.385 444.947 401.597 456.001 401.754C464.32 401.877 472.62 401.151 480.492 398.006C489.788 394.292 496.771 387.606 502.664 379.884C512.634 366.83 516.916 351.774 517.613 335.364ZM503.494 412.155C503.357 412.071 503.214 411.983 503.077 411.899C498.628 414.087 494.326 416.697 489.685 418.356C483.969 420.401 478.046 422.472 472.07 423.05C464.423 423.791 456.919 424.969 449.455 426.632C448.286 426.892 447.166 427.368 446.007 427.706C444.868 428.04 443.709 428.319 442.56 428.623C443.051 429.256 443.429 429.389 443.822 429.453C453.992 431.116 464.114 430.846 474.112 428.363C483.158 426.121 492.106 423.546 499.168 416.952C500.734 415.486 502.056 413.759 503.49 412.15L503.494 412.155ZM402.384 398.835C402.698 398.644 403.012 398.453 403.327 398.266L391.143 377.981C390.887 378.133 390.627 378.28 390.372 378.432C391.639 386.811 396.422 393.164 402.389 398.84L402.384 398.835ZM423.196 418.542C425.504 420.382 427.483 421.888 429.384 423.487C433.617 427.049 438.066 426.48 442.481 424.522C436.289 422.604 430.022 420.656 423.196 418.542ZM498.584 403.751C491.261 408.048 483.846 412.4 476.43 416.756C486.051 414.671 497.837 407.322 498.584 403.751ZM400.081 403.251C400.901 407.317 411.474 417.737 415.53 418.331C411.484 412.017 405.767 407.715 400.081 403.251ZM513.483 395.337C507.821 401.033 501.805 407.087 496.521 412.405C501.476 410.168 512.678 398.958 513.483 395.337ZM447.594 404.649C447.569 404.85 447.549 405.051 447.525 405.252H461.231L461.251 404.649H447.589H447.594Z" fill="black"/>
<path d="M546.233 422.599C553.089 422.378 559.684 423.644 565.833 426.592C572.241 429.668 577.894 433.921 581.641 440.063C584.533 444.798 586.959 449.836 587.411 455.571C587.632 458.382 586.866 460.854 585.294 463.082C583.767 465.245 580.6 465.191 578.169 463.062C575.664 460.874 573.322 458.47 570.645 456.523C560.121 448.865 548.374 447.947 536.068 450.709C527.866 452.549 520.981 456.841 514.582 462.135C512.986 463.454 510.924 464.833 508.979 464.985C505.36 465.27 503.115 461.428 503.724 457.077C504.707 450.052 507.751 444.081 512.387 438.719C519.925 429.997 529.315 424.806 540.674 423.109C542.516 422.834 544.387 422.766 546.243 422.604L546.233 422.599Z" fill="black"/>
<path d="M462.584 247.677C469.528 247.902 476.339 248.825 482.856 251.13C485.857 252.19 488.67 253.907 491.352 255.659C492.128 256.164 492.152 257.817 492.526 258.945C491.283 259.019 489.756 259.603 488.847 259.088C476.737 252.215 463.826 251.876 450.532 253.981C442.695 255.222 435.598 258.19 429.086 262.659C428.635 262.968 428.036 263.4 427.589 263.321C426.508 263.13 425.281 262.88 424.514 262.203C424.22 261.943 424.74 260.187 425.354 259.588C426.739 258.234 428.32 257.017 429.99 256.022C436.9 251.896 444.418 249.467 452.399 248.53C455.782 248.133 459.19 247.961 462.589 247.682L462.584 247.677Z" fill="black"/>
<path d="M662.87 260.79C661.46 260.442 660.036 260.142 658.641 259.73C651.963 257.768 645.387 255.266 638.58 253.966C633.242 252.946 627.599 253.019 622.129 253.299C614.988 253.667 607.951 255.04 601.508 258.416C599.224 259.608 597.152 261.222 594.829 262.301C593.921 262.723 592.575 262.208 591.426 262.124C591.578 261.133 591.372 259.647 591.946 259.235C595.016 257.017 598.114 254.736 601.503 253.098C609.724 249.124 618.627 247.981 627.634 248.128C637.824 248.3 647.464 250.959 656.476 255.742C658.798 256.973 661.062 258.317 663.351 259.613C663.189 260.005 663.032 260.398 662.87 260.79Z" fill="black"/>
<path d="M714.601 379.192C716.54 352.544 716.423 326.003 710.5 299.762C710.883 299.659 711.261 299.561 711.644 299.458C712.356 300.802 713.388 302.068 713.736 303.505C716.757 315.996 719.074 328.623 719.011 341.511C718.957 351.994 718.333 362.473 717.94 372.952C717.881 374.483 717.857 376.058 717.473 377.524C717.272 378.295 716.334 378.874 715.73 379.541C715.357 379.428 714.979 379.31 714.606 379.197L714.601 379.192Z" fill="black"/>
<path d="M371.499 304.81C366.711 320.671 364.084 336.84 364.206 353.24C361.721 353.986 361.078 353.172 361.034 351.092C360.808 339.475 361.653 328 365.306 316.873C366.48 313.302 367.727 309.75 369.014 306.218C369.27 305.512 369.864 304.933 370.301 304.295C370.704 304.467 371.101 304.638 371.504 304.81H371.499Z" fill="black"/>
<path d="M369.839 343.4C369.741 341.128 369.48 338.852 369.569 336.585C369.976 326.214 372.884 316.408 376.591 306.807C377.441 304.609 378.394 302.451 379.445 300.341C379.7 299.831 380.52 299.6 381.08 299.242C381.055 299.865 381.159 300.523 380.992 301.101C378.841 308.598 376.424 316.03 374.548 323.59C373.173 329.128 372.515 334.844 371.504 340.471C371.322 341.476 370.973 342.448 370.703 343.434C370.418 343.419 370.129 343.404 369.844 343.39L369.839 343.4Z" fill="black"/>
<path d="M669.313 256.262C662.831 253.132 656.447 249.762 649.832 246.941C643.222 244.12 636.263 242.403 628.734 242.393C629.432 242.094 630.1 241.657 630.831 241.52C636.209 240.495 641.483 241.049 646.684 242.653C653.146 244.645 659.437 247.014 664.771 251.322C666.499 252.715 668.017 254.373 669.627 255.909C669.524 256.026 669.416 256.149 669.313 256.267V256.262Z" fill="black"/>
<path d="M500.923 273.418C496.788 271.397 492.776 269.032 488.484 267.438C482.66 265.274 476.678 263.429 470.633 261.992C467.745 261.305 464.558 261.874 461.047 261.874C463.276 261.153 465.231 260.197 467.284 259.907C474.748 258.852 481.692 261.124 488.337 264.072C492.143 265.76 495.59 268.276 499.111 270.558C500.005 271.137 500.565 272.24 501.277 273.104C501.159 273.207 501.041 273.315 500.923 273.418Z" fill="black"/>
<path d="M530.094 290.245C535.854 293.62 541.973 316.692 539.051 325.576C537.986 319.611 537.244 313.562 535.761 307.704C534.273 301.822 532.038 296.127 530.099 290.245H530.094Z" fill="black"/>
<path d="M473.105 436.997C481.803 433.058 491.241 430.556 498.323 423.58C496.643 430.797 480.216 439.612 473.105 436.997Z" fill="black"/>
<path d="M697.87 282.68C694.914 273.055 691.952 263.434 688.996 253.809C689.315 253.711 689.635 253.613 689.954 253.52C695.42 262.384 697.885 272.157 698.715 282.425C698.435 282.508 698.15 282.596 697.87 282.68Z" fill="black"/>
<path d="M538.535 347.476C541.638 352.088 539.119 369.371 534.164 375.812C535.637 366.27 537.091 356.846 538.535 347.476Z" fill="black"/>
<path d="M701.831 273.894C704.959 276.18 708.824 294.949 707.704 301.641C706.565 300.616 701.512 277.033 701.831 273.894Z" fill="black"/>
<path d="M399.461 445.421C396.961 443.296 395.07 440.917 395.07 437.36C395.07 435.467 394.56 433.578 394.191 431.101C397.595 435.741 399.23 440.314 399.402 445.406C399.412 445.411 399.461 445.426 399.461 445.426V445.421Z" fill="black"/>
<path d="M541.273 309.471C544.466 314.946 545.34 320.69 543.027 326.724C542.442 320.975 541.858 315.22 541.273 309.471Z" fill="black"/>
<path d="M420.312 433.534C424.133 435.521 427.954 437.508 431.721 439.465C430.007 440.172 422.13 436.394 420.312 433.534Z" fill="black"/>
<path d="M370.33 408.715C370.968 411.257 371.611 413.798 372.363 416.781C372.073 416.697 370.993 416.653 370.904 416.334C370.231 413.916 369.755 411.443 369.215 408.99C369.588 408.897 369.956 408.809 370.33 408.715Z" fill="black"/>
<path d="M514.394 268.07C514.679 270.111 514.959 272.152 515.243 274.193C512.744 272.78 512.4 270.612 513.588 268.159C513.858 268.129 514.124 268.1 514.394 268.07Z" fill="black"/>
<path d="M544.374 289.661C542.832 288.704 542.769 287.537 544.61 286.065C544.816 287.193 545.023 288.322 545.229 289.45L544.374 289.661Z" fill="black"/>
<path d="M686.067 334.024C686.391 344.65 684.52 354.928 681.171 364.862C677.714 375.105 671.501 383.612 662.893 390.264C654.24 396.951 644.491 401.067 633.555 401.827C617.506 402.941 602.798 399.056 590.378 388.542C582.486 381.856 577.075 373.217 572.954 363.758C568.809 354.251 566.889 344.263 566.143 333.975C565.676 327.543 567.282 321.666 569.895 315.853C574.688 305.188 581.573 296.053 590.138 288.263C594.646 284.161 599.611 280.33 604.929 277.386C613.081 272.873 621.965 269.89 631.497 271.063C636.398 271.666 641.294 272.966 645.97 274.6C652.044 276.724 657.859 279.584 663.069 283.445C669.449 288.174 676.26 292.697 679.025 300.62C681.225 306.934 682.983 313.439 684.417 319.974C685.424 324.556 685.556 329.334 686.077 334.024H686.067ZM640.533 336.595C640.666 328.284 634.954 322.544 627.731 322.348C620.079 322.142 613.764 327.74 613.676 337.139C613.607 344.508 618.606 350.002 626.125 350.719C635.004 351.562 640.857 343.517 640.533 336.595ZM668.766 358.612C666.291 360.673 656.729 384.981 657.805 387.282C663.551 379.398 665.579 370.371 668.722 361.865C669.036 361.011 668.766 359.937 668.766 358.612Z" fill="white"/>
<path d="M517.614 335.364C516.916 351.774 512.634 366.83 502.665 379.884C496.772 387.606 489.789 394.292 480.492 398.006C472.62 401.151 464.321 401.872 456.002 401.754C444.942 401.592 434.217 399.38 424.935 393.081C417.304 387.9 411.43 380.89 406.819 372.849C405.596 370.715 403.892 368.861 402.615 366.756C401.643 365.152 400.828 363.41 400.243 361.629C397.115 352.102 396.241 342.32 396.879 332.332C397.567 321.554 401.412 311.825 406.627 302.598C412.358 292.457 419.877 283.911 430.087 277.961C440.39 271.956 451.518 269.601 463.363 270.288C474.884 270.96 485.104 274.629 494.007 282.263C504.055 290.878 511.048 301.459 514.598 313.994C516.543 320.852 516.671 328.226 517.614 335.364ZM458.953 349.797C467.523 350.218 472.443 343.08 472.267 335.53C472.07 326.94 466.958 321.637 458.025 321.765C451.867 321.853 445.428 328.805 445.757 337.684C446.003 344.317 452.476 350.429 458.948 349.801L458.953 349.797ZM412.997 365.039C413.296 364.98 413.601 364.916 413.9 364.857C412.525 358.602 411.15 352.348 409.761 346.044C406.765 347.707 409.201 361.477 412.997 365.044V365.039Z" fill="white"/>
<path d="M640.534 336.595C640.858 343.522 635.005 351.562 626.126 350.719C618.602 350.002 613.608 344.508 613.676 337.139C613.76 327.74 620.08 322.142 627.731 322.348C634.955 322.545 640.667 328.279 640.534 336.595Z" fill="black"/>
<path d="M668.768 358.612C668.768 359.937 669.043 361.006 668.724 361.865C665.581 370.372 663.552 379.398 657.807 387.282C656.731 384.981 666.298 360.673 668.768 358.612Z" fill="black"/>
<path d="M458.953 349.796C452.48 350.429 446.008 344.312 445.762 337.679C445.433 328.795 451.866 321.848 458.03 321.76C466.962 321.632 472.075 326.94 472.271 335.525C472.443 343.075 467.527 350.213 458.958 349.791L458.953 349.796Z" fill="black"/>
<path d="M412.996 365.039C409.2 361.472 406.764 347.702 409.759 346.039C411.144 352.343 412.524 358.597 413.899 364.852C413.6 364.911 413.295 364.975 412.996 365.034V365.039Z" fill="black"/>
</g>
<defs>
<clipPath id="clip0_473_233">
<rect width="358" height="224" fill="white" transform="translate(361 241)"/>
</clipPath>
</defs>
</svg>
