<svg width="1080" height="1080" viewBox="0 0 1080 1080" fill="none" xmlns="http://www.w3.org/2000/svg">
<path d="M550 651.369C508.31 653.039 475.72 648.389 443.23 642.609C404.2 635.659 366.71 623.909 330.61 607.459C295.02 591.239 267.28 566.649 248.18 532.459C242.42 522.139 236.87 511.709 231 501.449C230.1 499.869 228.09 498.089 226.43 497.909C204.96 495.569 190.51 484.509 184.28 463.729C176.5 437.769 176.67 412.099 189.21 387.439C195.5 375.069 205.65 367.009 219.2 363.719C223 362.799 224.51 360.929 225.56 357.319C234.11 327.999 246.6 300.329 264.23 275.449C304.88 218.079 358.04 177.329 425.14 154.539C463.8 141.409 503.3 133.999 543.77 135.109C609.51 136.909 672.15 151.469 728.19 188.029C751.94 203.529 772.45 222.629 791.42 243.619C806.88 260.719 821.17 278.539 831.98 299.049C842.1 318.269 850.67 338.059 856.5 359.019C857.01 360.849 858.92 363.179 860.61 363.639C879.39 368.639 891.01 380.549 896.4 399.089C902.41 419.799 902.86 440.439 896.41 461.089C890.01 481.589 874.64 491.789 854.88 496.639C851.26 497.529 849.1 498.809 847.23 502.379C839.66 516.819 831.89 531.199 823.46 545.149C809.08 568.939 787.93 585.599 763.85 598.569C732.78 615.319 699.48 626.339 665.86 636.869C645.35 643.289 624.52 644.359 603.64 646.539C582.96 648.699 562.21 650.279 549.99 651.369H550ZM545.06 634.059C549.23 634.059 553.39 634.059 557.56 634.059C589.01 634.029 619.93 629.219 650.77 623.709C692.19 616.309 730.99 601.509 767.38 580.759C794.68 565.199 814.88 542.419 829.26 514.439C847.41 479.119 857.67 442.189 851.26 402.189C841.91 343.859 819.83 291.669 776.94 249.489C759.81 232.639 742.9 215.659 722.7 202.399C687.55 179.329 649.2 164.849 607.85 157.059C565.2 149.019 522.66 148.609 480.22 156.149C407.38 169.089 344.95 201.499 295.82 257.859C272.2 284.959 254.3 315.409 242.57 349.269C229.28 387.639 226.79 427.049 233.7 467.049C240.52 506.519 259.53 539.329 289.58 565.339C320.74 592.299 358.16 607.439 397.53 617.399C445.86 629.629 495.17 634.849 545.06 634.059ZM219.98 376.449C212.56 378.739 206.15 382.869 201.96 389.919C196.69 398.789 193.56 408.429 193.65 418.789C193.73 427.909 194.14 437.059 195.03 446.129C196.89 465.269 207.01 478.559 226.22 487.029C219.73 468.589 215.06 450.789 215.55 432.459C216.05 413.939 218.4 395.479 219.98 376.439V376.449ZM854.93 484.259C865.54 479.659 875.52 473.459 879.25 461.029C881.96 451.989 884.83 442.819 885.9 433.509C887.44 420.079 886.39 406.559 881.36 393.739C877.83 384.739 868.71 377.959 860.18 378.099C869.7 414.139 865.59 449.349 854.93 484.259Z" fill="black"/>
<path d="M672.137 405.599C668.53 405.421 662.387 405.225 656.274 404.773C652.583 404.499 648.875 404.035 645.256 403.286C640.822 402.37 636.381 401.318 632.102 399.867C628.006 398.481 623.905 396.864 620.197 394.682C616.876 392.725 613.12 391.441 610.275 388.628C609.114 387.481 607.417 386.904 606.054 385.941C604.929 385.15 603.947 384.163 602.876 383.288C598.227 379.489 594.495 374.963 591.596 369.677C589.364 365.61 588.352 361.15 586.739 356.892C585.096 352.558 584.876 348.014 583.84 343.602C583.293 341.277 583.323 338.786 583.329 336.371C583.335 331.62 583.168 326.833 583.704 322.136C584.281 317.064 584.68 311.908 586.555 307.038C587.329 305.016 587.59 302.798 588.4 300.794C589.745 297.458 591.209 294.158 592.858 290.971C595.941 285.007 600.447 280.172 605.346 275.647C608.054 273.149 610.911 270.92 614.173 269.201C618.227 267.066 622.161 264.694 626.31 262.773C629.87 261.12 633.756 260.168 637.328 258.533C642.018 256.381 646.935 256.042 651.941 256C653.113 255.988 654.298 256.184 655.47 256.357C657.375 256.636 659.268 257.041 661.179 257.284C665.833 257.873 670.155 259.58 674.518 261.15C675.262 261.417 676 261.703 676.762 261.911C679.952 262.773 683.226 263.385 686.321 264.503C689.785 265.752 693.107 267.399 696.446 268.969C698.857 270.099 701.339 271.169 703.529 272.656C707.077 275.058 710.702 277.407 713.541 280.713C718.207 286.154 723.094 291.458 726.082 298.095C727.517 301.276 728.785 304.552 729.922 307.853C731.844 313.418 732.701 319.21 733.761 324.99C735.511 334.57 734.927 344.137 734.838 353.705C734.791 359.11 734.035 364.557 733.029 369.879C731.993 375.35 730.035 380.535 727.088 385.423C724.297 390.055 720.404 393.272 716.029 396.097C711.672 398.91 707.178 401.449 701.934 402.299C699.071 402.763 696.13 403.078 693.392 403.964C687.238 405.956 680.934 405.26 672.143 405.599H672.137ZM673.851 394.164C673.863 394.045 673.881 393.927 673.893 393.808C678.988 393.707 684.095 393.879 689.107 392.583C690.869 392.131 692.744 392.149 694.529 391.768C697.321 391.173 700.22 390.739 702.821 389.651C705.797 388.408 708.553 386.612 711.303 384.894C715.606 382.206 718.362 378.222 719.707 373.417C720.755 369.677 721.957 365.931 721.868 361.941C721.844 360.823 722.19 359.699 722.38 358.575C722.713 356.625 723.35 354.674 723.338 352.73C723.303 344.827 724.023 336.889 722.344 329.057C721.035 322.927 719.975 316.736 718.356 310.689C717.446 307.288 715.957 303.928 714.124 300.925C711.952 297.369 709.148 294.194 706.565 290.899C705.898 290.049 704.91 289.443 704.291 288.568C702.458 285.964 699.684 284.543 697.172 282.842C694.857 281.278 692.244 280.16 689.767 278.828C686.779 277.217 683.643 276.105 680.244 275.712C678.976 275.564 677.726 275.213 676.506 274.826C674.143 274.083 671.863 272.977 669.458 272.531C665.327 271.764 661.125 271.389 656.952 270.848C654.893 270.581 652.774 270.539 650.78 270.016C646.828 268.981 643.119 268.261 639.185 270.557C636.292 272.246 632.84 272.965 629.727 274.315C626.965 275.516 624.143 276.735 621.667 278.406C618.161 280.767 614.578 283.009 611.566 286.13C608.215 289.609 605.102 293.207 602.852 297.47C601.614 299.819 600.596 302.293 599.674 304.784C598.68 307.46 597.525 310.172 597.138 312.966C596.251 319.424 595.763 325.941 595.162 332.441C594.596 338.601 596.066 344.583 597.316 350.5C598.215 354.74 600.334 358.712 601.745 362.863C602.769 365.866 604.65 368.244 606.739 370.498C610.983 375.076 616.06 378.537 621.453 381.641C626.721 384.674 632.084 387.493 637.947 389.134C641.738 390.198 645.619 390.947 649.482 391.738C650.929 392.036 652.435 392.047 653.917 392.19C660.56 392.844 667.208 393.504 673.851 394.158V394.164Z" fill="black"/>
<path d="M561.743 485.716C561.582 486.489 561.6 486.941 561.398 487.226C561.16 487.559 560.743 487.928 560.368 487.969C559.463 488.071 558.529 487.928 557.612 488.011C555.475 488.201 551.814 485.847 550.576 483.492C549.118 480.721 548.07 477.855 547.57 474.721C546.838 470.13 545.344 469.69 541.737 472.604C537.719 475.845 532.999 476.713 528.184 475.429C523.821 474.263 521.214 470.963 519.66 466.652C518.541 463.548 518.285 460.402 518.22 457.221C518.023 447.825 517.541 438.406 519.19 429.082C520.011 424.42 521.011 419.788 522.166 415.198C522.827 412.551 523.851 409.977 524.916 407.461C525.493 406.1 527.523 405.695 529.535 406.224C530.815 406.557 531.922 407.895 532.011 409.227C532.196 411.921 531.97 414.561 530.874 417.077C530.72 417.433 530.69 417.838 530.606 418.224C530.154 420.288 529.684 422.345 529.261 424.409C529.035 425.521 528.946 426.656 528.72 427.762C528.357 429.534 527.916 431.288 527.547 433.061C527.315 434.167 527.011 435.29 527.005 436.408C526.964 443.978 526.773 451.554 527.124 459.112C527.232 461.347 528.749 463.607 529.946 465.671C530.767 467.086 532.577 466.842 533.755 466.289C535.779 465.343 537.827 464.19 539.428 462.674C541.237 460.961 542.267 458.678 542.874 456.109C543.487 453.504 544.963 451.12 545.785 448.551C546.398 446.636 547.469 445.257 549.094 444.186C550.862 443.027 552.064 443.098 554.118 444.561C555.475 445.53 556.118 447.623 555.838 449.175C555.344 451.928 554.767 454.705 554.695 457.488C554.606 460.842 554.993 464.208 555.213 467.561C555.249 468.085 555.493 468.602 555.642 469.119C556.082 470.683 556.445 472.277 556.987 473.811C557.624 475.607 558.38 477.361 559.183 479.086C559.302 479.347 559.945 479.496 560.344 479.484C562.177 479.436 564.011 479.347 565.832 479.193C566.404 479.145 566.963 478.872 567.499 478.628C568.034 478.384 568.505 477.932 569.058 477.783C572.743 476.79 573.85 473.9 574.022 470.63C574.261 465.992 574.195 461.33 574.207 456.68C574.207 456.168 573.945 455.639 573.737 455.151C572.969 453.391 572.022 451.697 571.439 449.877C570.957 448.378 571.457 446.928 572.761 445.905C574.142 444.822 575.659 444.067 577.421 444.894C579.344 445.792 580.469 447.409 581.385 449.306C582.933 452.511 582.951 455.883 582.921 459.302C582.885 464.006 583.028 468.709 582.879 473.407C582.76 477.195 581.32 480.489 578.409 483.07C577.54 483.843 576.903 484.996 576.094 484.705C574.677 485.502 573.737 486.096 572.743 486.584C570.534 487.66 568.177 488.189 565.719 488.065C565.142 488.035 564.564 487.565 564.023 487.238C563.326 486.816 562.665 486.334 561.749 485.716H561.743Z" fill="black"/>
<path d="M416.284 390.876C411.826 390.876 407.362 391.007 402.904 390.841C397.719 390.644 392.523 390.359 387.368 389.752C385.672 389.556 383.94 388.48 382.517 387.415C377.35 383.562 372.493 379.305 368.541 374.197C366.41 371.443 364.726 368.322 363.011 365.271C362.487 364.332 362.535 363.071 362.321 361.959C361.226 356.286 360.97 350.572 361.529 344.821C361.892 341.081 362.112 337.311 362.755 333.618C363.214 331.014 364.214 328.493 365.089 325.971C366.011 323.313 366.922 320.638 368.095 318.087C369.386 315.28 370.952 312.604 372.422 309.875C373.517 307.835 374.624 305.801 375.767 303.791C377.475 300.788 379.047 297.69 380.993 294.854C383.219 291.613 385.612 288.438 388.279 285.554C391.047 282.551 394.094 279.756 397.267 277.181C399.969 274.987 402.868 272.912 405.975 271.384C409.094 269.855 412.54 268.951 415.915 268.012C417.891 267.459 419.987 267.168 422.04 267.102C429.314 266.882 436.593 266.733 443.873 266.728C447.581 266.728 451.343 266.745 454.98 267.358C458.153 267.893 461.194 269.231 464.266 270.295C465.748 270.813 467.188 271.473 468.611 272.145C474.206 274.773 477.884 279.423 481.259 284.335C482.027 285.447 482.414 286.82 482.986 288.075C484.867 292.208 486.313 296.454 487.456 300.878C488.527 305.01 489.075 309.209 489.95 313.353C490.366 315.333 490.605 317.349 490.86 319.359C491.313 322.885 491.712 326.417 492.134 329.944C492.241 330.83 492.277 331.722 492.42 332.596C492.747 334.588 493.14 336.568 493.479 338.554C493.801 340.451 494.289 342.348 494.343 344.257C494.474 348.758 494.533 353.271 494.337 357.767C494.235 360.11 493.539 362.423 493.099 364.748C493.003 365.229 492.765 365.693 492.712 366.175C492.313 369.814 490.408 372.728 488.325 375.582C485.587 379.328 481.938 381.82 477.718 383.622C474.2 385.126 470.593 386.22 466.819 386.821C460.813 387.778 454.843 388.997 448.808 389.681C443.355 390.299 437.837 390.478 432.344 390.632C426.998 390.787 421.647 390.668 416.296 390.668C416.296 390.734 416.296 390.805 416.296 390.87L416.284 390.876ZM443.308 344.251C443.32 344.322 443.331 344.393 443.349 344.465C444.492 344.239 445.706 344.197 446.748 343.745C447.944 343.228 448.974 342.324 450.105 341.64C452.129 340.415 452.718 339.095 452.242 336.794C452.022 335.729 451.831 334.659 451.683 333.589C451.337 331.115 449.26 329.391 446.754 329.408C445.04 329.42 443.314 329.373 441.605 329.212C438.689 328.939 436.23 330.99 436.439 333.904C436.593 336.051 437.052 338.191 437.57 340.284C438.314 343.293 439.326 344.031 442.421 344.203C442.718 344.221 443.016 344.239 443.308 344.257V344.251Z" fill="white"/>
<path d="M673.853 394.164C667.21 393.51 660.562 392.85 653.919 392.196C652.443 392.047 650.931 392.041 649.484 391.744C645.621 390.953 641.74 390.198 637.949 389.139C632.08 387.492 626.723 384.68 621.455 381.647C616.068 378.543 610.985 375.082 606.741 370.503C604.652 368.25 602.771 365.871 601.747 362.868C600.336 358.718 598.217 354.751 597.318 350.506C596.069 344.589 594.598 338.607 595.164 332.447C595.759 325.947 596.253 319.43 597.14 312.972C597.521 310.177 598.682 307.472 599.676 304.79C600.598 302.298 601.622 299.825 602.854 297.476C605.098 293.212 608.211 289.615 611.568 286.136C614.574 283.014 618.163 280.772 621.669 278.412C624.151 276.741 626.967 275.522 629.729 274.321C632.842 272.971 636.294 272.251 639.187 270.563C643.121 268.261 646.83 268.987 650.782 270.021C652.776 270.545 654.895 270.586 656.954 270.854C661.127 271.389 665.329 271.77 669.46 272.537C671.871 272.983 674.151 274.095 676.508 274.832C677.728 275.213 678.984 275.569 680.246 275.718C683.645 276.11 686.781 277.222 689.769 278.834C692.24 280.166 694.859 281.284 697.174 282.848C699.686 284.548 702.466 285.97 704.293 288.574C704.912 289.448 705.9 290.055 706.567 290.905C709.15 294.205 711.954 297.375 714.126 300.931C715.959 303.94 717.448 307.299 718.358 310.695C719.977 316.742 721.037 322.932 722.346 329.063C724.025 336.9 723.305 344.839 723.34 352.736C723.346 354.68 722.709 356.631 722.382 358.581C722.192 359.699 721.846 360.829 721.87 361.947C721.953 365.931 720.757 369.683 719.709 373.423C718.364 378.228 715.608 382.206 711.305 384.9C708.555 386.618 705.793 388.414 702.823 389.657C700.216 390.745 697.323 391.179 694.531 391.774C692.746 392.154 690.871 392.13 689.109 392.588C684.097 393.879 678.99 393.706 673.895 393.813C673.883 393.932 673.865 394.051 673.853 394.17V394.164ZM651.222 336.228C651.211 338.863 654.764 342.092 657.669 342.163C659.187 342.199 660.776 342.127 662.204 342.544C664.508 343.215 666.651 342.674 668.311 340.552C670.008 338.387 670.067 336.859 668.436 334.665C666.93 332.649 665.383 330.669 663.817 328.7C662.55 327.107 660.068 326.809 658.371 327.957C657.889 328.284 657.371 328.665 656.823 328.772C653.068 329.509 651.466 332.839 651.222 336.223V336.228Z" fill="white"/>
<path d="M414.862 405.599C418.469 405.421 424.612 405.225 430.725 404.773C434.415 404.499 438.124 404.035 441.743 403.286C446.177 402.37 450.617 401.318 454.897 399.867C458.992 398.481 463.093 396.864 466.802 394.682C470.123 392.725 473.879 391.441 476.724 388.628C477.885 387.481 479.581 386.904 480.944 385.941C482.069 385.15 483.051 384.163 484.123 383.288C488.772 379.489 492.504 374.963 495.402 369.677C497.635 365.61 498.646 361.15 500.259 356.892C501.902 352.558 502.123 348.014 503.158 343.602C503.706 341.277 503.676 338.786 503.67 336.371C503.664 331.62 503.831 326.833 503.295 322.136C502.718 317.064 502.319 311.908 500.444 307.038C499.67 305.016 499.408 302.798 498.599 300.794C497.254 297.458 495.789 294.158 494.141 290.971C491.057 285.007 486.551 280.172 481.653 275.647C478.944 273.149 476.087 270.92 472.825 269.201C468.772 267.066 464.837 264.694 460.689 262.773C457.129 261.12 453.242 260.168 449.671 258.533C444.981 256.381 440.064 256.042 435.058 256C433.886 255.988 432.701 256.184 431.528 256.357C429.624 256.636 427.731 257.041 425.82 257.284C421.165 257.873 416.844 259.58 412.481 261.15C411.737 261.417 410.999 261.703 410.237 261.911C407.047 262.773 403.773 263.385 400.678 264.503C397.213 265.752 393.892 267.399 390.553 268.969C388.142 270.099 385.66 271.169 383.47 272.656C379.922 275.058 376.297 277.407 373.458 280.713C368.791 286.154 363.904 291.458 360.916 298.095C359.482 301.276 358.214 304.552 357.077 307.853C355.155 313.418 354.297 319.21 353.238 324.99C351.488 334.57 352.071 344.137 352.161 353.705C352.208 359.11 352.964 364.557 353.97 369.879C355.006 375.35 356.964 380.535 359.91 385.423C362.702 390.055 366.595 393.272 370.97 396.097C375.327 398.91 379.821 401.449 385.065 402.299C387.928 402.763 390.868 403.078 393.606 403.964C399.761 405.956 406.065 405.26 414.856 405.599H414.862ZM413.148 394.164C413.136 394.045 413.118 393.927 413.106 393.808C408.011 393.707 402.904 393.879 397.892 392.583C396.13 392.131 394.255 392.149 392.469 391.768C389.678 391.173 386.779 390.739 384.178 389.651C381.202 388.408 378.446 386.612 375.696 384.894C371.392 382.206 368.637 378.222 367.291 373.417C366.244 369.677 365.041 365.931 365.131 361.941C365.154 360.823 364.809 359.699 364.619 358.575C364.285 356.625 363.649 354.674 363.66 352.73C363.696 344.827 362.976 336.889 364.654 329.057C365.964 322.927 367.023 316.736 368.642 310.689C369.553 307.288 371.041 303.928 372.875 300.925C375.047 297.369 377.851 294.194 380.434 290.899C381.101 290.049 382.089 289.443 382.708 288.568C384.541 285.964 387.315 284.543 389.827 282.842C392.142 281.278 394.755 280.16 397.231 278.828C400.219 277.217 403.356 276.105 406.755 275.712C408.023 275.564 409.273 275.213 410.493 274.826C412.856 274.083 415.136 272.977 417.541 272.531C421.671 271.764 425.874 271.389 430.046 270.848C432.106 270.581 434.225 270.539 436.219 270.016C440.171 268.981 443.879 268.261 447.814 270.557C450.707 272.246 454.159 272.965 457.272 274.315C460.034 275.516 462.855 276.735 465.331 278.406C468.837 280.767 472.421 283.009 475.432 286.13C478.784 289.609 481.897 293.207 484.147 297.47C485.385 299.819 486.403 302.293 487.325 304.784C488.319 307.46 489.474 310.172 489.861 312.966C490.748 319.424 491.236 325.941 491.837 332.441C492.402 338.601 490.932 344.583 489.682 350.5C488.783 354.74 486.664 358.712 485.254 362.863C484.23 365.866 482.349 368.244 480.26 370.498C476.016 375.076 470.939 378.537 465.546 381.641C460.278 384.674 454.915 387.493 449.052 389.134C445.26 390.198 441.379 390.947 437.516 391.738C436.07 392.036 434.564 392.047 433.082 392.19C426.439 392.844 419.79 393.504 413.148 394.158V394.164Z" fill="black"/>
<path d="M443.307 344.25C443.009 344.233 442.712 344.215 442.42 344.197C439.325 344.025 438.313 343.287 437.569 340.278C437.051 338.185 436.593 336.044 436.438 333.898C436.23 330.984 438.688 328.939 441.605 329.206C443.313 329.367 445.039 329.414 446.753 329.402C449.259 329.385 451.337 331.115 451.682 333.583C451.831 334.659 452.021 335.729 452.241 336.788C452.712 339.089 452.122 340.409 450.105 341.634C448.974 342.318 447.95 343.222 446.747 343.739C445.706 344.191 444.486 344.233 443.349 344.459C443.337 344.387 443.325 344.316 443.307 344.245V344.25Z" fill="black"/>
<path d="M651.223 336.229C651.467 332.845 653.068 329.515 656.824 328.778C657.371 328.671 657.889 328.29 658.371 327.963C660.068 326.816 662.55 327.113 663.818 328.707C665.383 330.675 666.931 332.655 668.437 334.671C670.074 336.859 670.014 338.393 668.312 340.558C666.645 342.681 664.508 343.222 662.205 342.55C660.776 342.134 659.187 342.205 657.669 342.169C654.764 342.098 651.211 338.875 651.223 336.235V336.229Z" fill="black"/>
</svg>
