<svg width="1080" height="1080" viewBox="0 0 1080 1080" fill="none" xmlns="http://www.w3.org/2000/svg">
<path d="M550 651.369C508.31 653.039 475.72 648.389 443.23 642.609C404.2 635.659 366.71 623.909 330.61 607.459C295.02 591.239 267.28 566.649 248.18 532.459C242.42 522.139 236.87 511.709 231 501.449C230.1 499.869 228.09 498.089 226.43 497.909C204.96 495.569 190.51 484.509 184.28 463.729C176.5 437.769 176.67 412.099 189.21 387.439C195.5 375.069 205.65 367.009 219.2 363.719C223 362.799 224.51 360.929 225.56 357.319C234.11 327.999 246.6 300.329 264.23 275.449C304.88 218.079 358.04 177.329 425.14 154.539C463.8 141.409 503.3 133.999 543.77 135.109C609.51 136.909 672.15 151.469 728.19 188.029C751.94 203.529 772.45 222.629 791.42 243.619C806.88 260.719 821.17 278.539 831.98 299.049C842.1 318.269 850.67 338.059 856.5 359.019C857.01 360.849 858.92 363.179 860.61 363.639C879.39 368.639 891.01 380.549 896.4 399.089C902.41 419.799 902.86 440.439 896.41 461.089C890.01 481.589 874.64 491.789 854.88 496.639C851.26 497.529 849.1 498.809 847.23 502.379C839.66 516.819 831.89 531.199 823.46 545.149C809.08 568.939 787.93 585.599 763.85 598.569C732.78 615.319 699.48 626.339 665.86 636.869C645.35 643.289 624.52 644.359 603.64 646.539C582.96 648.699 562.21 650.279 549.99 651.369H550ZM545.06 634.059C549.23 634.059 553.39 634.059 557.56 634.059C589.01 634.029 619.93 629.219 650.77 623.709C692.19 616.309 730.99 601.509 767.38 580.759C794.68 565.199 814.88 542.419 829.26 514.439C847.41 479.119 857.67 442.189 851.26 402.189C841.91 343.859 819.83 291.669 776.94 249.489C759.81 232.639 742.9 215.659 722.7 202.399C687.55 179.329 649.2 164.849 607.85 157.059C565.2 149.019 522.66 148.609 480.22 156.149C407.38 169.089 344.95 201.499 295.82 257.859C272.2 284.959 254.3 315.409 242.57 349.269C229.28 387.639 226.79 427.049 233.7 467.049C240.52 506.519 259.53 539.329 289.58 565.339C320.74 592.299 358.16 607.439 397.53 617.399C445.86 629.629 495.17 634.849 545.06 634.059ZM219.98 376.449C212.56 378.739 206.15 382.869 201.96 389.919C196.69 398.789 193.56 408.429 193.65 418.789C193.73 427.909 194.14 437.059 195.03 446.129C196.89 465.269 207.01 478.559 226.22 487.029C219.73 468.589 215.06 450.789 215.55 432.459C216.05 413.939 218.4 395.479 219.98 376.439V376.449ZM854.93 484.259C865.54 479.659 875.52 473.459 879.25 461.029C881.96 451.989 884.83 442.819 885.9 433.509C887.44 420.079 886.39 406.559 881.36 393.739C877.83 384.739 868.71 377.959 860.18 378.099C869.7 414.139 865.59 449.349 854.93 484.259Z" fill="black"/>
<path d="M674.291 310.057C666.932 306.287 659.579 302.517 652.219 298.747C652.099 298.947 651.974 299.147 651.854 299.352C652.773 300.495 653.685 301.637 654.604 302.779C654.421 303.031 654.244 303.288 654.062 303.539C651.734 302.66 649.327 301.946 647.096 300.866C640.61 297.724 633.901 298.016 627.061 299.147C619.091 300.466 611.315 302.345 604.23 306.407C601.075 308.217 597.983 310.154 594.868 312.033C594.971 312.239 595.079 312.444 595.182 312.656C596.323 312.181 597.452 311.685 598.599 311.239C616.569 304.236 635.059 302.522 653.811 306.932C664.376 309.417 672.894 315.974 679.934 324.045C687.31 332.499 693.796 341.781 696.62 352.8C698.44 359.888 699.205 367.331 699.684 374.665C700.306 384.09 697.864 393.161 694.047 401.672C691.834 406.618 688.656 411.194 685.513 415.655C679.432 424.28 670.931 430.278 662.368 436.155C662.288 436.207 662.226 436.298 662.14 436.327C654.495 438.68 648.876 444.535 641.928 448.036C635.515 451.269 628.498 451.972 621.333 452.206C612.542 452.498 603.773 452.88 595.108 451.115C591.571 450.395 587.902 449.504 584.77 447.802C577.89 444.061 570.862 440.331 564.775 435.487C560.399 432.003 557.444 426.736 553.884 422.235C553.645 421.932 553.696 421.396 553.879 420.773C559.458 426.685 564.393 433.254 571.906 436.812C572.088 436.63 572.277 436.452 572.459 436.27C569.293 432.831 566.429 429.038 562.909 426.011C549.617 414.564 542.201 399.77 538.561 383.022C537.169 376.625 537.294 369.867 537.032 363.264C536.952 361.333 537.922 359.363 538.407 357.409C538.761 357.421 539.114 357.438 539.468 357.449C539.554 358.826 539.748 360.208 539.702 361.579C539.434 369.662 539.827 377.687 542.121 385.495C545.914 398.399 551.482 410.257 562.59 418.739C561.54 417.237 560.593 415.649 559.429 414.244C550.758 403.814 547.751 391.579 547.769 378.315C547.774 373.129 547.472 367.937 547.415 362.75C547.335 354.799 549.606 347.339 553.097 340.359C556.206 334.144 559.469 327.855 563.679 322.383C571.775 311.873 581.279 302.797 594.32 298.484C596.174 297.873 598.126 297.559 600.208 297.067C597.418 295.811 581.718 300.855 574.753 304.842C566.811 309.394 560.713 315.78 555.87 323.526C555.579 323.348 555.282 323.166 554.991 322.989C555.807 321.098 556.423 319.082 557.478 317.339C563.999 306.607 573.714 299.861 585.25 295.542C594.058 292.241 603.18 290.773 612.593 290.139C622.56 289.465 632.018 292.001 641.717 293.018C651.848 294.08 660.206 298.547 668.261 304.07C670.583 305.658 672.517 307.817 674.622 309.714C674.503 309.828 674.388 309.948 674.269 310.062L674.291 310.057ZM673.727 359.883C673.304 356.513 673.048 353.108 672.432 349.772C671.171 342.986 670.161 336.081 665.825 330.334C662.385 325.776 658.865 321.315 653.799 318.385C649.064 315.643 644.523 312.941 638.893 311.702C634.112 310.651 629.634 310.285 625.064 311.296C619.045 312.627 613.175 314.615 607.168 316.003C595.981 318.585 587.087 324.577 580.281 333.71C573.92 342.244 569.658 351.64 569.978 362.533C570.092 366.417 570.16 370.644 571.678 374.083C578.484 389.494 589.791 400.975 603.808 410.171C613.283 416.392 623.295 416.517 633.821 414.924C640.307 413.947 646.326 411.611 651.854 408.304C657.496 404.928 662.551 400.598 665.591 394.578C671.08 383.702 673.373 372.021 673.727 359.877V359.883ZM602.524 300.74C600.39 301.226 598.154 301.454 596.135 302.243C583.475 307.201 573.566 315.409 567.433 327.701C561.66 339.274 558.437 351.543 558.06 364.532C557.878 370.821 558.26 377.007 560.433 383.022C559.755 366.56 558.876 350.018 567.656 335.092C576.185 320.595 587.617 308.914 602.524 300.74ZM661.09 419.196C640.952 433.579 618.104 436.041 594.492 435.373C610.288 440.12 625.509 436.207 640.718 431.946C633.576 436.721 625.714 439.348 617.437 441.251C622.303 441.445 627.272 441.759 631.87 440.594C636.166 439.503 640.165 437.029 644.107 434.824C650.856 431.049 656.72 426.165 661.09 419.202V419.196ZM684.743 357.129C684.383 352.451 684.737 347.568 683.482 343.141C681.81 337.246 678.616 331.905 673.749 327.792C672.255 326.524 671.085 324.874 669.762 323.394C669.961 323.16 670.167 322.932 670.366 322.697C672.243 323.925 674.12 325.148 675.991 326.37C671.496 319.727 657.16 309.451 649.258 310.251C669.243 319.721 677.903 337.463 684.737 357.129H684.743ZM680.15 415.381C695.462 397.017 699.045 376.253 692.718 353.468C696.312 375.694 687.612 395.411 680.15 415.381ZM678.61 408.503C678.279 408.332 677.948 408.155 677.617 407.984C674.919 410.126 672.209 412.251 669.539 414.421C669.117 414.764 668.866 415.318 668.518 415.763C665.386 419.796 662.505 424.063 659.048 427.782C656.07 430.986 652.43 433.574 648.985 436.515C657.16 435.453 663.954 431.289 669.032 425.565C673.259 420.796 675.495 414.255 678.61 408.498V408.503ZM602.341 413.941C596.654 409.058 590.047 404.231 584.514 398.382C578.991 392.55 574.542 385.69 570.155 379.978C573.178 397.799 588.039 411.611 602.341 413.941ZM574.838 433.494C579.956 443.855 594.509 448.922 605.576 448.408C594.041 446.06 585.084 438.463 574.838 433.494ZM657.473 413.776C668.358 411.411 681.103 394.498 678.736 385.118C674.052 396.891 667.109 406.344 657.473 413.776ZM576.418 416.42C586.145 431.369 595.929 432.266 606.786 430.106C595.108 428.975 585.067 424.274 576.418 416.42ZM595.884 417.814C608.862 423.629 622.08 426.485 635.943 421.407C622.428 422.184 608.942 422.664 595.884 417.814ZM646.697 443.381C646.617 442.998 646.537 442.616 646.463 442.227C633.667 446.825 620.62 446.654 607.459 444.358C614.875 448.025 622.913 447.248 630.598 447.505C635.915 447.682 641.329 444.861 646.697 443.381ZM565.545 408.269C568.392 416.449 572.893 423.366 580.794 427.65C575.66 421.121 570.6 414.695 565.545 408.269ZM676.545 349.487V373.317C680.344 365.606 678.621 357.918 676.545 349.487ZM552.435 388.454C552.121 388.557 551.808 388.666 551.494 388.768C552.515 395.96 555.601 402.352 558.904 408.658L559.88 408.286C557.398 401.678 554.917 395.063 552.435 388.454ZM588.524 415.118C588.621 414.969 588.718 414.815 588.815 414.667C585.717 412.268 582.426 410.074 579.573 407.412C576.67 404.705 574.194 401.529 570.959 397.925C572.573 400.935 573.315 403.888 575.198 405.505C579.334 409.063 584.046 411.954 588.524 415.118ZM605.764 425.468C599.649 423.395 593.533 421.321 587.417 419.248C592.894 423.223 599.118 424.977 605.764 425.468ZM605.291 295.428C613.415 296.782 615.292 296.57 619.821 294.183C614.641 294.628 609.969 295.028 605.291 295.428Z" fill="black"/>
<path d="M510.511 315.34C516.901 318.253 527.25 335.207 530.085 354.519C533.034 349.87 528.453 323.189 523.559 314.118C516.741 301.494 505.902 293.08 493.865 285.809C494.099 285.489 494.338 285.164 494.572 284.844C495.97 285.369 497.476 285.718 498.754 286.455C507.254 291.361 515.612 296.473 520.729 305.327C523.735 310.531 527.175 315.557 529.532 321.047C532.607 328.198 533.24 336.001 533.987 343.741C535.014 354.365 533.268 364.692 531.266 374.997C529.52 383.993 527.518 392.944 525.356 401.849C523.587 409.143 519.405 415.101 513.404 420.779C514.63 420.373 515.167 420.19 515.903 419.95C515.492 424.709 512.366 427.639 509.428 430.421C503.044 436.464 495.502 440.377 486.682 441.685C485.393 441.873 484.086 442.816 483.054 443.718C477.714 448.385 471.393 450.15 464.485 450.361C462.807 450.413 461.136 450.59 459.459 450.71C459.459 451.052 459.459 451.395 459.459 451.738C464.233 451.789 469.048 452.235 473.778 451.789C478.541 451.344 483.231 450.019 488.223 449.636C487.281 450.184 486.363 450.784 485.393 451.275C473.167 457.478 460.919 455.931 448.682 451.332C442.509 449.013 436.451 446.357 430.187 444.335C424.761 442.587 419.011 441.827 413.603 440.028C410.471 438.983 407.63 436.898 404.84 435.019C397.418 430.015 391.422 423.583 386.641 416.021C386.447 415.718 386.322 415.358 386.236 415.01C386.202 414.872 386.379 414.684 386.544 414.358C392.346 419.813 397.829 425.582 403.95 430.552C410.191 435.619 417.71 438.452 425.646 440.2C422.291 437.669 419.73 434.23 415.326 432.934C407.578 430.66 401.668 425.463 395.935 419.985C388.364 412.759 383.201 404.117 380.115 394.201C379.619 392.601 379.881 390.762 380.104 388.843C385.945 403.397 394.024 416.141 408.468 424.68C406.551 422.024 405.045 419.779 403.38 417.66C398.108 410.965 393.299 404.042 391.337 395.526C391.108 394.526 390.104 393.721 389.534 392.778C385.289 385.792 384.12 378.036 384.827 370.136C385.295 364.921 386.465 359.614 388.279 354.702C392.455 343.409 399.204 333.664 408.012 325.433C411.789 321.903 415.599 318.351 419.747 315.289C423.01 312.878 426.513 310.982 431.145 311.296C433.992 311.49 437.124 309.794 439.879 308.429C448.3 304.265 457.285 302.311 466.515 301.723C470.48 301.471 474.668 302.14 478.513 303.242C484.292 304.899 490.476 306.361 495.405 309.577C509.604 318.83 519.126 331.551 522.8 348.664C524.831 358.129 525.641 367.445 524.865 376.99C524.585 380.435 523.998 383.856 524.112 387.226C531.871 361.077 526.103 337.354 510.534 315.352L510.511 315.34ZM456.098 314.563C456.064 314.666 456.036 314.775 456.001 314.878C454.415 315.02 452.812 315.06 451.243 315.317C445.453 316.26 439.44 316.203 434.078 319.11C428.635 322.063 422.987 324.554 418.252 328.809C411.19 335.161 406.494 342.952 403.516 351.743C401.594 357.421 401.343 363.493 401.406 369.536C401.514 379.789 404.829 388.9 410.511 397.319C414.995 403.962 421.561 407.39 428.926 409.463C433.747 410.823 438.539 412.405 443.713 412.296C448.18 412.199 452.79 413.399 457.108 412.679C465.563 411.274 474.189 410.291 482.17 406.727C489.267 403.563 495.861 399.804 499.872 392.721C503.272 386.718 505.143 380.235 506.792 373.546C510.129 360.003 507.151 347.625 500.745 335.829C495.821 326.764 487.812 321.081 478.079 318.419C470.931 316.466 463.429 315.797 456.087 314.552L456.098 314.563ZM403.499 397.394C403.499 398.016 403.437 398.233 403.511 398.376C411.395 413.57 422.885 424.326 440.039 428.079C448.522 429.935 456.578 428.564 464.308 424.8C465.922 424.017 467.491 423.138 469.807 421.921C445.767 422.801 424.219 424.474 403.505 397.388L403.499 397.394ZM512.4 338.965L513.159 338.228C510.061 333.944 506.895 329.706 503.877 325.371C498.942 318.293 492.564 313.21 484.497 309.994C474.32 305.933 464.022 305.55 453.525 308.086C450.325 308.857 447.222 310.005 444.067 310.976C444.112 311.25 444.158 311.525 444.204 311.799C472.083 307.863 495.759 314.546 512.4 338.965ZM390.755 390.385C392.768 371.895 393.978 354.102 403.197 338.148C395.855 347.945 388.883 357.981 387.6 370.656C386.932 377.247 388.113 383.702 390.749 390.391L390.755 390.385ZM434.311 438.56C445.174 446.586 455.174 448.825 464.542 442.576C454.256 441.211 444.284 439.885 434.311 438.56ZM500.363 418.917C495.125 422.538 489.449 426.159 484.132 430.249C481.154 432.54 478.77 435.607 475.797 438.652C481.77 439.051 485.815 437.138 489.455 433.179C493.671 428.593 497.807 424.063 500.363 418.911V418.917ZM394.993 378.67C393.653 387.957 394.394 396.851 399.415 405.082C404.606 413.587 414.401 422.784 419.154 423.218C403.984 412.188 396.693 396.988 394.993 378.67ZM495.901 415.227C490.556 417.414 485.342 419.573 480.104 421.681C477.76 422.624 475.227 423.183 473.036 424.383C470.047 426.017 467.303 428.09 464.268 430.095C476.636 428.633 487.407 424.269 495.901 415.227ZM504.105 423.709C504.339 423.88 504.573 424.046 504.807 424.217C511.692 419.196 520.21 407.767 520.883 402.854C515.389 409.686 509.747 416.695 504.105 423.709ZM457.804 436.847C466.584 439.554 471.947 438.263 474.628 433.357C469.031 434.516 463.418 435.681 457.804 436.847ZM508.771 338.645C511.168 344.06 513.564 349.475 515.96 354.885C515.914 348.396 512.674 343.369 508.771 338.645ZM477.537 443.695C477.452 443.461 477.366 443.227 477.281 442.993C473.162 442.776 468.552 444.489 466.487 447.699C470.172 446.369 473.852 445.032 477.537 443.701V443.695ZM511.128 423.549C509.285 425.051 507.499 426.634 505.588 428.039C503.614 429.484 501.549 430.803 499.467 432.083C497.533 433.271 495.53 434.333 493.557 435.453C500.596 433.219 506.661 429.524 511.133 423.549H511.128Z" fill="black"/>
<path d="M665.873 460.327C664.994 459.687 664.475 459.047 663.836 458.893C662.153 458.487 660.687 457.659 661.64 455.9C662.376 454.535 663.939 452.987 665.353 452.741C669.21 452.061 672.701 453.558 676.073 455.534C681.932 458.973 687.711 462.463 691.704 468.158C692.999 469.997 694.203 471.956 695.093 474.013C696.24 476.674 695.39 479.131 693.581 481.307C691.739 483.529 689.2 483.643 686.747 483.243C685.8 483.089 684.933 481.775 684.242 480.833C681.863 477.588 679.621 474.241 677.237 471.002C675.97 469.283 674.498 469.477 672.844 470.705C665.308 476.275 657.909 482.067 650.093 487.213C642.237 492.377 634.017 497.004 625.819 501.619C617.889 506.086 609.377 509.233 600.603 511.621C597.232 512.535 593.814 513.277 590.42 514.094C584.726 515.471 579.073 517.093 573.317 518.132C569.106 518.892 564.765 518.904 560.475 519.206C556.715 519.469 552.956 519.772 549.191 519.875C543.794 520.023 538.38 520.2 532.989 520C526.765 519.772 520.535 519.349 514.351 518.646C508.954 518.035 503.592 517.059 498.263 515.99C487.858 513.9 477.458 511.792 467.126 509.364C462.203 508.205 457.302 506.657 452.67 504.646C447.29 502.31 442.144 499.403 437.033 496.507C431.921 493.611 426.895 490.555 421.995 487.316C417.705 484.483 413.631 481.324 409.495 478.268C408.925 477.845 408.52 477.2 407.767 476.355C405.217 479.673 402.661 482.906 400.208 486.219C398.976 487.887 397.943 489.704 396.791 491.434C395.792 492.931 394.851 494.605 392.575 493.496C390.298 492.383 388.33 490.823 389.157 488.024C390.213 484.443 391.422 480.844 393.105 477.526C397.281 469.277 403.157 462.286 410.003 456.117C412.262 454.083 414.904 453.792 417.265 455.357C419.256 456.677 420.996 458.505 419.907 460.944C418.943 463.091 417.1 464.839 415.354 467.153C417.568 468.432 419.775 469.723 422.006 470.985C427.859 474.304 433.661 477.708 439.583 480.89C445.647 484.152 451.666 487.487 458.34 489.481C466.242 491.846 473.96 494.856 481.924 496.946C487.909 498.517 494.127 499.374 500.294 500.031C513.341 501.425 526.417 502.481 539.487 503.675C550.583 504.686 561.542 503.213 572.484 501.756C575.89 501.305 579.21 500.122 582.524 499.128C592.24 496.227 602.075 493.634 611.591 490.172C617.718 487.944 623.468 484.58 629.207 481.398C639.653 475.606 649.967 469.569 660.333 463.622C662.119 462.6 663.876 461.52 665.884 460.321L665.873 460.327Z" fill="black"/>
<path d="M701.683 321.96C702.807 323.354 704.131 324.628 705.026 326.153C709.294 333.43 712.083 341.273 712.945 349.67C713.561 355.644 714.28 361.71 713.892 367.668C713.002 381.331 709.334 394.349 701.974 405.996C698.483 411.525 694.227 416.615 689.977 421.613C688.226 423.675 685.567 424.966 683.325 426.605C683.046 426.285 682.772 425.965 682.492 425.645C683.565 424.206 684.5 422.635 685.733 421.344C692.293 414.495 698.101 407.053 702.265 398.542C709.961 382.828 713.207 366.314 710.104 348.818C708.518 339.896 705.608 331.477 701.204 323.566C701.039 323.269 701.022 322.886 700.936 322.543L701.678 321.966L701.683 321.96Z" fill="black"/>
<path d="M384.291 359.083C385.118 354.422 385.574 349.658 386.847 345.123C389.459 335.846 392.449 326.679 397.732 318.448C403.271 309.811 409.889 302.277 419.176 297.599C423.289 295.525 427.625 293.812 431.995 292.366C433.832 291.761 436.04 292.264 438.076 292.264C438.145 292.664 438.213 293.058 438.282 293.457C437.717 293.755 437.187 294.166 436.593 294.326C426.781 296.965 417.396 300.569 410.585 308.52C406.306 313.512 402.278 318.813 398.821 324.4C394.092 332.031 390.817 340.382 388.604 349.138C387.742 352.543 386.396 355.821 385.266 359.157L384.285 359.077L384.291 359.083Z" fill="black"/>
<path d="M395.809 314.546C383.538 335.601 375.546 357.483 382.483 382.348C379.573 379.977 378.672 376.607 378.044 373.437C375.871 362.476 377.286 351.72 380.48 341.073C382.951 332.842 386.562 325.239 391.531 318.27C392.586 316.791 393.927 315.523 395.136 314.158C395.359 314.283 395.581 314.415 395.809 314.54V314.546Z" fill="black"/>
<path d="M616.73 277.755C598.474 277.235 582.661 283.216 568.986 296.599C568.564 293.235 570.076 291.67 571.587 290.556C576.625 286.849 581.628 282.999 587.053 279.931C593.614 276.224 601.019 274.945 608.515 275.002C611.339 275.025 614.157 276.064 616.975 276.641C616.896 277.012 616.81 277.384 616.73 277.755Z" fill="black"/>
<path d="M658.73 295.668C662.889 294.828 666.637 295.788 670.129 297.964C676.085 301.677 681.413 306.132 685.794 311.61C690.781 317.836 693.41 325.148 694.911 332.905C694.974 333.23 694.763 333.607 694.015 334.23C693.074 332.299 691.973 330.426 691.225 328.421C687.997 319.796 683.781 311.702 676.307 306.121C671.161 302.277 665.257 299.444 659.695 296.159C659.387 295.976 659.056 295.828 658.736 295.668H658.73Z" fill="black"/>
<path d="M490.543 297.61C497.109 296.142 516.295 307.246 517.573 314.118C515.97 313.421 514.646 313.084 513.602 312.353C509.181 309.263 504.942 305.91 500.447 302.945C497.543 301.026 494.308 299.609 490.543 297.61Z" fill="black"/>
<path d="M673.727 359.882C673.379 372.026 671.085 383.702 665.592 394.583C662.551 400.609 657.491 404.939 651.854 408.309C646.332 411.616 640.308 413.947 633.821 414.929C623.296 416.517 613.284 416.392 603.808 410.177C589.791 400.98 578.484 389.499 571.678 374.088C570.16 370.65 570.092 366.423 569.978 362.538C569.658 351.646 573.92 342.249 580.281 333.716C587.087 324.582 595.981 318.59 607.168 316.008C613.175 314.62 619.045 312.632 625.064 311.302C629.634 310.291 634.106 310.656 638.893 311.707C644.523 312.947 649.065 315.648 653.8 318.39C658.86 321.32 662.385 325.782 665.825 330.34C670.167 336.086 671.177 342.992 672.432 349.778C673.048 353.114 673.31 356.518 673.727 359.888V359.882ZM596.26 363.801C596.739 366.76 596.888 371.187 598.268 375.196C599.443 378.606 601.412 382.274 604.116 384.513C610.015 389.402 617.191 391.59 624.979 391.35C632.184 391.127 638.67 389.088 643.514 383.485C649.458 376.613 651.21 368.502 650.673 359.523C649.818 345.083 639.937 336.789 627.683 335.612C620.186 334.892 613.118 336.303 607.088 340.85C600.025 346.179 597.224 353.868 596.254 363.807L596.26 363.801Z" fill="white"/>
<path d="M602.343 413.941C588.041 411.611 573.18 397.799 570.156 379.978C574.543 385.695 578.993 392.55 584.515 398.382C590.049 404.225 596.655 409.057 602.343 413.941Z" fill="white"/>
<path d="M595.887 417.814C608.945 422.658 622.432 422.178 635.946 421.407C622.084 426.485 608.865 423.629 595.887 417.814Z" fill="white"/>
<path d="M676.547 349.487C678.623 357.918 680.346 365.606 676.547 373.317V349.487Z" fill="white"/>
<path d="M456.1 314.563C463.442 315.809 470.944 316.477 478.092 318.431C487.825 321.092 495.834 326.776 500.758 335.841C507.164 347.636 510.136 360.014 506.805 373.557C505.156 380.246 503.285 386.729 499.885 392.733C495.874 399.816 489.279 403.568 482.183 406.739C474.201 410.297 465.576 411.285 457.121 412.69C452.797 413.41 448.193 412.211 443.726 412.308C438.552 412.422 433.759 410.834 428.939 409.475C421.574 407.401 415.002 403.974 410.524 397.331C404.841 388.911 401.527 379.806 401.419 369.547C401.356 363.504 401.607 357.432 403.529 351.755C406.507 342.964 411.202 335.167 418.265 328.821C423 324.565 428.648 322.075 434.09 319.122C439.453 316.214 445.466 316.271 451.256 315.329C452.825 315.072 454.428 315.032 456.014 314.889C456.048 314.786 456.077 314.678 456.111 314.575L456.1 314.563ZM456.488 394.549C458.268 394.172 460.475 393.738 462.66 393.224C470.972 391.282 476.352 385.701 479.849 378.367C482.348 373.129 482.673 367.48 481.92 361.528C480.791 352.611 476.506 346.088 468.827 342.067C460.35 337.629 451.838 339.948 443.966 343.992C437.816 347.151 434.41 353.017 432.145 359.397C430.439 364.207 429.783 369.233 430.667 374.3C431.723 380.349 434.855 385.193 439.63 389.094C444.445 393.024 449.933 394.532 456.488 394.538V394.549Z" fill="white"/>
<path d="M596.262 363.801C597.232 353.862 600.033 346.174 607.095 340.844C613.125 336.298 620.194 334.887 627.69 335.606C639.944 336.783 649.825 345.077 650.681 359.517C651.211 368.502 649.465 376.607 643.521 383.479C638.672 389.083 632.191 391.116 624.986 391.344C617.199 391.584 610.022 389.397 604.123 384.507C601.419 382.268 599.451 378.601 598.276 375.191C596.895 371.187 596.747 366.76 596.267 363.795L596.262 363.801ZM626.201 342.707C638.82 348.876 638.495 360.38 638.814 371.564C641.347 368.405 641.136 364.515 641.564 360.757C642.505 352.48 637.696 344.951 630.097 343.112C628.837 342.809 627.502 342.832 626.201 342.701V342.707Z" fill="black"/>
<path d="M456.487 394.549C449.932 394.543 444.444 393.035 439.629 389.105C434.854 385.204 431.722 380.366 430.667 374.311C429.782 369.244 430.438 364.212 432.144 359.408C434.409 353.028 437.821 347.162 443.965 344.003C451.837 339.959 460.343 337.64 468.827 342.078C476.505 346.099 480.79 352.622 481.919 361.539C482.672 367.491 482.347 373.14 479.848 378.378C476.351 385.712 470.977 391.293 462.66 393.235C460.469 393.749 458.261 394.177 456.487 394.56V394.549ZM468.41 371.506C471.417 365.223 471.314 359.42 469.454 353.234C467.954 348.236 460.418 345.648 456.236 347.127C467.651 351.394 468.821 360.916 468.41 371.506Z" fill="black"/>
<path d="M626.199 342.707C627.5 342.832 628.835 342.809 630.096 343.118C637.7 344.951 642.504 352.48 641.562 360.762C641.135 364.527 641.346 368.411 638.813 371.569C638.493 360.385 638.818 348.881 626.199 342.712V342.707Z" fill="white"/>
<path d="M468.409 371.507C468.814 360.916 467.65 351.394 456.234 347.128C460.422 345.648 467.952 348.236 469.453 353.234C471.312 359.426 471.415 365.223 468.409 371.507Z" fill="white"/>
</svg>
