<svg width="24" height="24" viewBox="0 0 24 24" fill="none" xmlns="http://www.w3.org/2000/svg">
    <path d="M22.9805 4C22.4141 4.18545 21.8396 4.36284 21.257 4.52411C15.4148 6.08031 9.50783 5.78197 4.17539 4L3.13965 10.5957L5.2354 11.1601L7.16932 7.62845C7.68719 7.73327 8.20506 7.82196 8.73102 7.90259L9.32981 11.8778L11.4903 12.0632L12.7769 8.24931C13.3028 8.26544 13.8369 8.26544 14.3629 8.24931L15.6494 12.0632L17.8099 11.8778L18.4087 7.89453C18.9266 7.8139 19.4445 7.7252 19.9704 7.62038L21.9043 11.1601L24.0001 10.6038L22.9805 4Z" fill="currentColor"/>
    <path d="M18.7728 12.0789L16.8389 15.6186C16.321 15.5138 15.8031 15.4251 15.2772 15.3445L14.6784 11.3612L12.5098 11.1758L11.2232 14.9897C10.6892 14.9736 10.1632 14.9736 9.63723 14.9897L8.35065 11.1758L6.19016 11.3612L5.59137 15.3364C5.06541 15.417 4.54754 15.5057 4.02967 15.6105L2.09575 12.0789L0 12.6433L1.03574 19.2309C6.36818 17.449 12.2751 17.1506 18.1173 18.7149C18.6999 18.8681 19.2745 19.0455 19.8409 19.239L20.8766 12.6433L18.7728 12.0789Z" fill="currentColor"/>
</svg>
