<svg width="92" height="60" viewBox="0 0 92 60" fill="none" xmlns="http://www.w3.org/2000/svg">
  <g clip-path="url(#clip0_11_1755)">
    <path
        d="M17.9287 22.1352L12.0764 0H7.94296L17.9287 37.7691V52.1831L4.13341 0H0L15.862 60H17.9287H19.9941H22.0608V0H17.9287V22.1352Z"
        fill="currentColor"/>
    <path
        d="M91.4937 60L75.6318 0H73.5651H71.4983H69.4316V59.9987H73.5651L84.4745 49.0843L87.3603 59.9987H91.4937V60ZM80.8073 35.2084L73.5663 42.4494V7.81694L80.8073 35.2084ZM73.5651 54.1502V48.2941L82.0285 39.8307L83.2534 44.4619L73.5651 54.1502Z"
        fill="currentColor"/>
    <path
        d="M30.7689 0H28.7022H26.6355V59.9987H30.7689L41.6783 49.0843L44.5642 59.9987H48.6976L32.8344 0H30.7689ZM38.0099 35.2083L30.7689 42.4494V7.81694L38.0099 35.2083ZM30.7689 54.1502V48.2941L39.2323 39.8307L40.4572 44.4619L30.7689 54.1502Z"
        fill="currentColor"/>
    <path
        d="M65.8568 37.0722L56.0563 0H53.9896H51.9229H49.8562V59.9987H53.9896V48.8725L57.7866 45.0756L61.7322 59.9987L65.8568 59.9685L61.0555 41.8067L62.574 40.2882L65.8568 37.0722ZM53.9896 43.0278V7.81694L61.3516 35.6658L53.9896 43.0278Z"
        fill="currentColor"/>
  </g>
  <defs>
    <clipPath id="clip0_11_1755">
      <rect width="91.6667" height="60" fill="white"/>
    </clipPath>
  </defs>
</svg>
