<svg width="1080" height="1080" viewBox="0 0 1080 1080" fill="none" xmlns="http://www.w3.org/2000/svg">
<path fill-rule="evenodd" clip-rule="evenodd" d="M545.06 634.069C495.17 634.859 445.86 629.629 397.53 617.409C358.16 607.449 320.73 592.319 289.58 565.349C259.53 539.339 240.52 506.529 233.7 467.059C226.78 427.059 229.28 387.639 242.57 349.279C254.3 315.419 272.2 284.969 295.82 257.869C344.95 201.509 407.38 169.099 480.22 156.159C522.67 148.619 565.21 149.019 607.85 157.069C649.2 164.869 687.55 179.339 722.7 202.409C741.891 215.007 758.112 230.971 774.373 246.974C775.229 247.816 776.084 248.658 776.94 249.499C819.83 291.679 841.92 343.859 851.26 402.199C857.67 442.199 847.41 479.129 829.26 514.449C814.88 542.429 794.69 565.209 767.38 580.769C730.98 601.509 692.19 616.309 650.77 623.719C619.93 629.229 589.01 634.039 557.56 634.069H545.06ZM219.98 376.449L219.979 376.459C212.56 378.75 206.15 382.879 201.96 389.929C196.69 398.809 193.56 408.439 193.65 418.799C193.73 427.919 194.15 437.069 195.03 446.139C196.89 465.279 207.01 478.569 226.22 487.039C219.72 468.599 215.06 450.789 215.55 432.469C215.897 419.646 217.13 406.846 218.38 393.868C218.935 388.106 219.494 382.309 219.979 376.459L219.98 376.459V376.449ZM860.18 378.099C869.7 414.139 865.59 449.349 854.93 484.259C865.54 479.659 875.52 473.469 879.25 461.029C879.417 460.473 879.584 459.915 879.752 459.357C882.306 450.859 884.896 442.246 885.9 433.509C887.45 420.079 886.39 406.559 881.36 393.739C877.83 384.729 868.71 377.959 860.18 378.099Z" fill="currentColor"/>
<path d="M301.738 755.999C317.968 764.079 333.258 772.979 346.268 785.339C348.898 787.839 349.228 791.469 346.398 793.699C332.668 804.499 313.658 806.569 301.668 790.229C295.878 782.339 295.758 766.149 301.738 755.999Z" fill="currentColor"/>
<path d="M781.688 768.599C780.638 782.949 775.838 793.509 763.058 799.179C754.058 803.179 738.398 798.269 733.928 789.479C733.158 787.959 733.608 785.069 734.598 783.519C739.738 775.539 748.318 771.809 756.018 767.049C761.798 763.479 767.838 760.319 773.688 756.859C776.778 755.029 778.648 755.669 779.488 759.169C780.328 762.689 781.138 766.219 781.688 768.599Z" fill="currentColor"/>
</svg>
