<svg width="1080" height="1080" viewBox="0 0 1080 1080" fill="none" xmlns="http://www.w3.org/2000/svg">
<g clip-path="url(#clip0_611_202404)">
<path d="M960.586 640.563L952.398 637.581L947.761 669.785L960.586 640.563Z" fill="#4D4C4C"/>
<path d="M885.095 664.651L890.557 655.167L849.186 651.111L847.488 661.154L885.095 664.651Z" fill="#4D4C4C"/>
<path d="M820.893 678.525L811.446 675.149L798.926 698.108L795.227 736.136L805.027 735.96L810.789 696.644L820.893 678.525Z" fill="#4D4C4C"/>
<path d="M822.636 740.859L802.619 741.218L802.892 756.439L822.909 756.08L822.636 740.859Z" fill="#4D4C4C"/>
<path d="M754.656 776.702L731.453 808.822L724.663 825.63L724.226 859.427L736.403 887.159L757.643 908.47L791.911 923.499L831.021 917.793L861.124 898.272L881.668 869.12L888.584 836.041L876.551 793.08L845.678 769.647L810.48 760.892L786.524 762.573L754.656 776.702Z" fill="#4D4C4C"/>
<path d="M1037.85 629.573C1038.62 629.523 1039.43 629.437 1040.2 629.491C1042.09 629.624 1044.22 631.059 1045.43 632.451C1046.64 633.838 1047.19 635.25 1047.05 637.077L1045.9 638.621C1045.29 639.212 1044.85 639.484 1043.97 639.517C1042.65 639.568 1041.44 638.786 1040.51 637.918C1038.9 636.404 1036.95 633.885 1036.94 631.6C1036.93 630.681 1037.25 630.218 1037.85 629.573Z" fill="#070706"/>
<path d="M957.774 575.014C960.41 574.924 962.806 575.08 965.318 575.945C966.587 576.382 968.567 577.313 969.047 578.667C969.204 579.111 969.14 579.52 968.925 579.928C968.385 580.957 967.828 581.519 966.714 581.872C965.69 582.57 964.541 582.613 963.333 582.641C960.647 582.704 957.884 581.577 955.953 579.753C955.845 578.707 955.551 577.182 956.092 576.222C956.493 575.508 957.005 575.207 957.774 575.014Z" fill="#212121"/>
<path d="M1073.58 578.899C1075.39 579.312 1076.62 580.339 1077.85 581.662L1077.86 584.016C1077.81 584.083 1077.76 584.149 1077.71 584.217C1077.41 584.634 1077.12 585.067 1076.77 585.445C1075.46 586.847 1072.1 588.012 1070.25 588.111C1069.61 588.147 1068.95 588.206 1068.32 588.106C1066.77 587.86 1066.05 586.671 1065.2 585.5C1065.54 584.818 1065.89 584.146 1066.3 583.504C1067.95 580.934 1070.67 579.546 1073.58 578.899Z" fill="#070706"/>
<path d="M1052.18 540.295C1052.59 540.251 1053.07 540.368 1053.46 540.503C1053.99 540.682 1054.33 540.931 1054.51 541.486C1055.12 543.388 1053.39 547.055 1052.48 548.755C1051.26 551.016 1049.45 552.925 1046.93 553.66C1046.18 553.416 1045.53 552.916 1044.87 552.48L1043.86 550.536C1044.22 549.331 1044.56 548.112 1045.08 546.964C1046.16 544.565 1048.17 541.857 1050.69 540.9C1051.19 540.71 1051.68 540.499 1052.18 540.295Z" fill="#070706"/>
<path d="M1003.34 634.399C1003.89 634.352 1004.49 634.299 1005.03 634.361C1006.34 634.509 1007.18 635.856 1007.91 636.809C1007.9 638.748 1008.31 640.671 1008.14 642.616C1008.08 643.436 1008.05 644.243 1008.04 645.066C1007.22 646.367 1006.38 647.354 1005.27 648.405C1004.98 648.504 1004.73 648.576 1004.42 648.568C1003.51 648.546 1002.8 648.207 1002.2 647.529C1000.74 645.884 1000.3 643.08 1000.43 640.974C1000.6 638.392 1001.38 636.145 1003.34 634.399Z" fill="#070706"/>
<path d="M1008.12 523.356C1008.32 523.333 1008.52 523.308 1008.73 523.296C1009.65 523.238 1010.36 523.497 1011.04 524.115C1013.69 526.547 1013.54 531.516 1013.57 534.813C1012.61 536.342 1012.53 537.088 1010.76 537.791L1010.28 538.063C1009.36 537.93 1008.6 537.717 1007.94 537.024C1006.07 535.078 1005.77 532.115 1005.82 529.545C1005.86 527.128 1006.34 525.083 1008.12 523.356Z" fill="#070706"/>
<path d="M966.611 538.767C966.957 538.687 967.162 538.663 967.508 538.744C969.425 539.195 977.06 545.838 978.154 547.681C978.594 548.421 978.898 549.413 978.589 550.255C978.27 551.123 977.193 551.973 976.37 552.325C975.913 552.347 975.381 552.406 974.93 552.341C972.214 551.949 965.109 545.553 963.556 543.242L963.485 540.325C964.05 539.731 964.496 539.263 965.337 539.089C965.78 538.998 966.177 538.896 966.611 538.767Z" fill="#212121"/>
<path d="M998.515 555.201C1003.86 555.086 1007.78 565.374 1010.49 566.57C1012.28 567.362 1018.16 557.38 1021.48 555.971C1022.38 555.588 1023.36 555.543 1024.26 555.96C1025.18 556.385 1026.16 557.177 1026.52 558.143C1026.73 558.717 1027.02 559.197 1027.34 559.717C1027.47 562.281 1025.7 568.951 1026.08 570.289C1026.8 570.842 1027.75 570.074 1028.5 569.771C1031.87 568.41 1035.4 567.828 1039 567.828C1039.8 568.29 1040.97 568.809 1041.49 569.599C1041.88 570.198 1041.9 570.89 1041.78 571.571C1041.35 573.876 1035.58 580.717 1033.55 582.105C1033.26 582.305 1033.02 582.446 1032.8 582.728C1032.55 583.045 1032.62 582.881 1032.68 583.361C1033.72 583.962 1040.85 584.722 1042.79 585.225C1045.36 585.886 1049.91 587.013 1051.34 589.465C1051.74 593.342 1043.59 594.296 1042.38 596.543C1043.23 597.911 1048.28 599.368 1050.06 601.023C1051.4 602.271 1051.55 603.094 1051.59 604.824C1050.92 605.512 1050.21 606.131 1049.49 606.76C1048.14 606.874 1046.88 607.453 1045.52 607.655C1041.93 608.19 1038.65 608.157 1035.04 608.028C1033.92 607.987 1032.13 607.77 1031.2 608.465C1031.06 608.923 1030.97 609.133 1031.12 609.611C1031.34 610.363 1031.97 610.964 1032.3 611.675C1033.04 613.286 1033.72 615.832 1033.55 617.612C1033.42 618.937 1032.91 620.024 1031.83 620.83C1031.05 621.411 1030.19 621.567 1029.25 621.303C1028.96 621.219 1022.41 617.474 1021.93 617.128C1020.63 616.19 1019 613.825 1017.29 613.909C1017.23 613.912 1016.86 613.961 1016.78 614.045C1016.18 614.659 1015.79 616.051 1015.46 616.869C1013.99 620.511 1012.61 623.975 1009.72 626.739C1009.19 626.848 1008.64 626.962 1008.1 627.032C1007.09 627.162 1006.17 626.972 1005.4 626.288C1004.66 625.643 1002.64 619.961 1002.56 618.881C1002.56 618.808 1002.54 618.31 1002.52 618.217C1002.44 617.671 1002.2 617.501 1001.77 617.206C999.989 617.176 997.13 621.827 995.095 622.83C994.572 623.087 994.121 623.398 993.644 623.732L990.93 623.771C990.693 623.608 990.461 623.441 990.226 623.273C989.46 622.72 988.966 622.057 988.402 621.314C988.125 616.639 988.75 612.51 990.356 608.079C990.52 607.628 990.464 607.632 990.362 607.19C990.135 607.026 990 606.827 989.701 606.871C988.263 607.087 985.483 610.017 984.287 611.022C974.153 619.527 968.318 631.091 963.979 643.347C963.48 644.754 962.725 646.145 962.31 647.566C962.155 648.093 962.274 648.655 962.112 649.18C961.628 650.744 960.822 652.272 960.205 653.792C957.895 659.479 954.842 666.971 951.095 671.848C948.709 674.954 944.402 677.225 940.89 678.843C938.518 679.936 935.846 680.903 933.27 681.368C924.048 683.036 911.775 680.864 903.204 677.314C896.428 674.508 890.02 670.719 883.002 668.552C874.1 665.802 869.574 665.072 860.258 665.244C857.77 665.289 855.189 665.244 852.728 665.619C851.063 665.872 849.053 666.184 847.486 666.789C845.886 667.406 844.361 668.456 842.777 669.181C835.295 672.606 828.445 675.911 823.405 682.753C814.772 694.472 811.318 709.438 809.331 723.617C808.965 726.23 808.06 729.603 808.518 732.193C808.567 732.469 808.672 732.922 808.926 733.083C811.45 734.69 822.524 732.366 827.45 736.155C831.416 739.206 830.498 746.264 830.166 750.708C830.072 751.95 829.837 753.32 830.04 754.553C830.205 755.557 830.821 755.864 831.683 756.226C834.426 757.381 837.263 758.249 839.984 759.495C846.261 762.369 852.377 766.313 858.047 770.224C862.821 773.516 868.454 778.304 872.287 782.675C882.48 794.3 889.098 809.755 891.763 824.883C892.156 827.106 892.253 829.439 892.436 831.693C894.118 852.423 887.545 872.391 875.767 889.335C875.271 890.241 874.793 891.188 874.189 892.027C872.474 894.412 870.032 896.55 867.963 898.64C854.17 912.578 835.913 923.349 816.344 926.315C791.088 930.142 770.989 923.419 750.665 908.431C748.355 906.726 746.287 904.594 744.233 902.595C743.828 902.204 743.427 901.809 743.03 901.41C742.633 901.011 742.24 900.608 741.851 900.201C741.462 899.793 741.078 899.382 740.697 898.967C740.317 898.552 739.941 898.134 739.569 897.711C739.198 897.288 738.83 896.861 738.467 896.431C738.104 896.001 737.746 895.567 737.391 895.13C737.037 894.692 736.688 894.25 736.342 893.805C735.997 893.361 735.657 892.913 735.321 892.462C734.985 892.009 734.653 891.554 734.327 891.096C734 890.638 733.678 890.176 733.361 889.71C733.044 889.245 732.731 888.777 732.424 888.305C732.116 887.834 731.813 887.36 731.515 886.883C731.217 886.405 730.924 885.924 730.636 885.44C730.348 884.957 730.065 884.47 729.787 883.981C729.509 883.492 729.235 882.999 728.967 882.504C728.699 882.009 728.436 881.512 728.178 881.011C727.92 880.511 727.668 880.008 727.42 879.502C727.172 878.997 726.93 878.488 726.693 877.978C726.455 877.468 726.223 876.955 725.997 876.44C725.77 875.925 725.548 875.407 725.332 874.886C725.116 874.367 724.905 873.845 724.7 873.321C724.494 872.797 724.294 872.271 724.099 871.742C723.904 871.215 723.715 870.685 723.531 870.153C723.347 869.621 723.169 869.087 722.996 868.551C722.823 868.015 722.655 867.478 722.493 866.938C722.331 866.4 722.175 865.859 722.024 865.317C721.873 864.774 721.728 864.23 721.588 863.685C721.448 863.14 721.314 862.593 721.185 862.044C721.056 861.497 720.933 860.948 720.816 860.397C720.699 859.846 720.587 859.295 720.481 858.742C720.374 858.189 720.274 857.635 720.179 857.08C720.084 856.525 719.995 855.969 719.912 855.413C719.775 854.445 719.655 853.476 719.551 852.505C719.447 851.534 719.359 850.561 719.287 849.587C719.215 848.613 719.159 847.637 719.12 846.661C719.08 845.685 719.057 844.709 719.05 843.732C719.043 842.755 719.052 841.779 719.077 840.802C719.102 839.825 719.143 838.85 719.201 837.874C719.259 836.899 719.333 835.925 719.422 834.952C719.512 833.98 719.619 833.009 719.741 832.04C719.863 831.071 720.001 830.104 720.155 829.14C720.31 828.175 720.48 827.213 720.666 826.254C720.852 825.295 721.054 824.339 721.272 823.387C721.49 822.435 721.723 821.486 721.973 820.542C722.222 819.597 722.487 818.658 722.767 817.722C723.048 816.786 723.344 815.856 723.655 814.93C723.967 814.004 724.293 813.084 724.635 812.169C724.977 811.253 725.334 810.344 725.706 809.441C726.078 808.538 726.465 807.641 726.867 806.751C727.269 805.86 727.686 804.977 728.117 804.1C728.548 803.224 728.994 802.355 729.454 801.493C729.914 800.631 730.388 799.778 730.876 798.931C731.365 798.085 731.867 797.248 732.383 796.419C732.899 795.589 733.429 794.768 733.972 793.956C734.515 793.145 735.072 792.343 735.642 791.549C736.212 790.756 736.795 789.972 737.391 789.198C737.987 788.424 738.596 787.661 739.217 786.907C739.838 786.153 740.472 785.409 741.118 784.677C741.764 783.944 742.422 783.222 743.092 782.512C743.762 781.801 744.444 781.101 745.137 780.412C745.83 779.724 746.534 779.047 747.25 778.382C747.965 777.718 748.692 777.065 749.429 776.424C750.166 775.783 750.914 775.155 751.672 774.539C752.43 773.923 753.199 773.32 753.977 772.729C757.403 770.129 761.105 767.381 764.789 765.174C767.387 763.617 770.315 762.326 772.798 760.633C773.178 760.375 773.469 759.954 773.741 759.59C773.795 759.517 773.848 759.444 773.901 759.371L773.742 758.827C772.755 755.546 772.29 744.506 773.431 741.359C776.19 733.746 785.601 736.098 791.209 733.505C791.96 729.887 791.478 726.119 791.807 722.465C792.718 712.349 794.836 702.992 798.182 693.422C800.114 687.893 802.326 682.537 805.461 677.565C806.439 676.013 807.754 674.719 808.909 673.302C815.957 664.646 823.146 658.95 833.217 654.117C837.675 651.978 842.213 649.978 846.986 648.638C861.461 644.572 877.023 646.177 890.965 651.461C899.191 654.579 907.105 658.528 915.412 661.426C920.525 663.209 925.628 664.225 931.009 663.062C940.011 661.116 943.139 653.713 945.93 645.823C947.114 642.474 948.282 639.107 949.613 635.815C953.339 626.593 958.286 616.983 964.884 609.474C969.632 604.072 975.56 598.701 982.163 595.687C984.095 594.805 986.397 594.576 988.257 593.574C988.908 593.223 989.288 592.872 989.501 592.181C989.105 591.177 987.151 590.801 986.178 590.301C984.806 589.597 982.604 587.77 982.165 586.261C981.832 585.117 982.091 584.425 982.645 583.42L982.778 583.181C983.533 582.782 984.217 582.401 985.074 582.274C986.098 582.122 987.198 582.023 988.14 581.575C988.25 580.323 984.888 577.264 984.129 575.936C983.422 574.697 982.769 573.194 983.213 571.751C983.404 571.133 983.575 570.805 984.158 570.496C984.676 570.222 985.12 569.912 985.59 569.56C986.57 569.549 987.586 569.508 988.556 569.662C990.972 570.043 994.004 571.422 996.41 571.113C996.486 570.994 996.585 570.887 996.638 570.756C996.667 570.682 995.216 561.591 995.829 558.76C996 557.975 996.385 557.191 996.708 556.457C997.328 556.06 997.92 555.635 998.515 555.201ZM768.98 774.474C770.067 776.845 771.494 779.126 772.717 781.437C770.199 779.966 767.749 778.39 765.367 776.709C762.551 778.41 759.979 780.659 757.419 782.715C758.378 784.686 759.581 786.583 760.633 788.511C758.65 787.397 756.69 786.246 754.751 785.057C751.057 788.713 747.543 792.4 744.456 796.593C746.357 798.933 748.31 801.229 750.314 803.48L742.227 799.324C739.208 803.744 736.958 808.36 734.832 813.254C735.12 815.341 735.183 818.275 736.031 820.177C739.497 817.81 743.396 815.86 747.049 813.787C743.816 818.327 740.274 822.339 736.269 826.208C737.685 827.804 738.99 829.511 740.328 831.174C743.362 828.848 746.697 826.699 750.026 824.822C748.201 828.35 745.551 831.528 743.041 834.588C744.457 836.26 745.863 837.932 747.204 839.666L757.37 833.015C755.521 836.974 753.393 840.573 750.607 843.956L754.796 849.374C757.805 847.448 760.902 845.556 764.13 844.021C762.746 847.255 760.824 850.786 758.342 853.3L761.742 857.398C764.652 855.43 767.962 853.886 771.074 852.252C769.379 855.361 767.708 858.494 765.46 861.243C766.588 862.968 767.819 864.528 769.139 866.107C771.874 863.942 774.856 861.791 778.039 860.351C776.591 863.988 775.302 866.851 772.875 869.967C773.87 871.085 774.918 872.153 775.958 873.229C777.992 871.642 780.018 870.077 782.161 868.637C781.302 867.661 780.533 866.571 779.74 865.541C780.869 866.246 781.936 867.074 783.012 867.859C785.424 866.037 788.011 864.404 790.52 862.717C789.283 865.647 787.877 868.309 786.169 870.992L791.55 875.05C794.223 873.002 796.973 871.063 799.8 869.234C798.479 872.28 797.032 875.174 795.341 878.03C796.765 878.994 798.115 880.02 799.46 881.092C801.485 879.134 803.506 877.179 805.609 875.305C804.111 873.249 802.749 871.086 801.349 868.962C803.314 870.56 805.312 872.066 807.379 873.53C809.088 871.864 810.858 870.253 812.597 868.619C811.354 865.871 809.451 863.362 807.942 860.743C810.174 862.7 812.344 864.685 814.722 866.468C817.262 864.126 819.756 861.727 822.615 859.773C821.235 857.216 819.497 854.783 817.951 852.316C820.344 854.045 822.799 855.7 825.224 857.385C827.686 854.669 830.184 851.986 832.719 849.337C831.604 847.396 830.502 845.468 829.522 843.454C826.19 846.49 822.888 849.637 819.347 852.43C824.207 846.589 828.928 840.508 834.144 834.982C832.166 832.21 829.837 829.686 827.815 826.939C830.845 828.437 833.659 830.4 836.61 832.052L840.42 827.315C837.456 824.089 834.597 820.768 831.607 817.565L835.131 819.01C836.801 816.824 838.433 814.595 840.23 812.51C837.715 809.874 835.186 807.252 832.644 804.642C830.136 806.883 827.608 809.102 825.06 811.298C826.96 808.314 828.893 805.351 830.859 802.41L817.771 790.784C815.578 792.708 813.249 794.508 810.989 796.355C812.452 793.866 813.997 791.429 815.623 789.043L807.293 782.29C804.968 784.423 802.613 786.522 800.227 788.588C802.75 783.626 805.899 778.211 809.165 773.706L804.188 770.603C801.991 772.215 799.975 774.277 797.942 776.096C795.519 778.261 793.013 780.299 790.474 782.326C792.549 779.006 794.594 775.667 796.609 772.311C795.689 771.641 793.347 769.613 792.236 769.701C790.557 769.835 784.841 775.62 783.134 776.908L782.846 777.124C784.738 773.656 786.865 770.346 788.988 767.018C782.143 768.418 774.921 770.753 768.98 774.474ZM824.937 784.341L820.454 788.368C824.825 791.72 829.335 794.888 833.688 798.262L834.082 798.299C835.255 797.139 836.274 795.792 837.322 794.517C835.256 792.71 826.786 784.886 824.937 784.341ZM807.414 693.64C807.084 693.679 806.654 693.623 806.422 693.886C805.621 694.792 803.624 701.254 803.734 702.429C803.737 702.459 803.738 702.49 803.741 702.52C803.51 702.796 803.278 703.057 803.151 703.401C802.714 704.576 799.808 720.004 799.892 721.104C799.899 721.182 799.915 721.259 799.926 721.337C799.522 722.949 798.64 732.824 799.147 733.801C799.566 734.089 799.798 734.167 800.303 734.214C801.025 732.978 800.547 728.485 800.674 726.78C800.758 725.65 801.037 724.689 801.281 723.604C801.33 723.383 801.318 723.15 801.277 722.93C801.305 722.454 801.269 722.627 801.365 722.26C801.77 720.733 801.448 719.058 801.664 717.465C801.965 715.248 802.869 713.166 803.27 710.977C803.446 710.01 803.221 709.027 803.381 708.055C803.698 706.127 804.871 704.672 804.822 702.628L805.113 702.668L805.381 702.284C805.643 699.272 806.898 696.612 807.759 693.766L807.414 693.64ZM840.235 797.204C839.037 798.475 837.714 799.724 836.622 801.082C839.39 803.211 842.038 805.436 844.717 807.671C845.914 806.911 847.078 805.238 847.965 804.113C846.019 802.534 841.943 798.067 840.235 797.204ZM812.745 775.996C811.654 777.54 810.723 779.148 809.897 780.849C812.027 781.644 816.51 785.527 817.248 785.707C817.534 785.776 817.58 785.743 817.77 785.671C818.727 784.163 819.665 782.637 820.718 781.192C818.238 779.489 815.493 777.222 812.745 775.996ZM785.183 907.091C782.609 908.939 779.732 910.441 777.264 912.41C778.812 913.056 780.381 913.604 781.969 914.141L784.406 914.866C785.879 913.084 787.323 911.278 788.738 909.449C787.893 908.811 786.178 907.185 785.183 907.091ZM853.72 894.379C850.402 897.044 846.884 899.148 843.457 901.619L845.758 903.917C849.164 901.379 852.983 898.725 855.885 895.601C855.259 895.165 854.49 894.466 853.72 894.379ZM878.713 821.887C879.093 824.25 879.455 826.637 879.707 829.017C879.888 830.715 879.936 832.459 880.249 834.138L882.868 834.417C883.102 830.162 882.097 825.875 881.544 821.676C880.602 821.743 879.652 821.787 878.713 821.887ZM793.803 912.871C791.525 913.56 789.706 913.935 787.934 915.617C791.795 916.803 796.16 917.274 800.188 917.385C801.547 917.448 802.761 917.509 803.959 916.744L804.107 916.37L803.936 916.08C802.741 915.943 801.661 916.555 800.512 916.515C798.704 916.452 795.824 913.392 793.803 912.871ZM880.121 841.117C879.879 844.029 879.543 846.959 878.896 849.812L879.065 850.39C879.646 850.914 880.703 851.057 881.45 851.256C882.44 847.517 882.739 843.336 882.994 839.481C882.153 839.247 881.37 838.943 880.523 839.211C880.079 839.752 880.152 840.45 880.121 841.117ZM873.768 806.852C874.626 808.708 875.505 810.529 876.037 812.51L876.626 814.047C876.944 815.144 877.238 816.258 877.6 817.341C878.454 817.261 879.316 817.038 880.159 816.87C879.072 812.914 877.646 809.158 876.08 805.371C875.275 805.602 874.151 805.732 873.622 806.378L873.768 806.852ZM866.232 793.695C867.602 795.721 868.876 797.837 870.258 799.845C870.628 800.486 870.977 801.148 871.381 801.769C872.257 801.669 872.965 801.175 873.717 800.746C872.592 798.462 870.223 794.381 868.417 792.717C868.063 792.389 867.915 792.392 867.446 792.47C866.848 792.57 866.337 792.892 865.981 793.377L866.232 793.695ZM863.817 883.339C861.78 885.972 859.636 888.503 857.205 890.785C857.881 891.299 858.633 892.048 859.508 892.114C861.848 889.489 864.146 886.882 866.223 884.041C865.464 883.781 864.619 883.399 863.817 883.339ZM803.67 742.643C803.686 746.243 804.056 749.827 804.19 753.422L803.545 754.062C803.893 754.355 805.104 754.215 805.608 754.247L806.034 753.957C805.933 750.447 806.194 746.371 805.55 742.94C805.062 742.546 804.293 742.64 803.67 742.643ZM876.929 857.502C875.868 860.452 874.677 863.367 873.65 866.324C874.383 866.687 875.242 867.33 876.048 867.297C876.365 866.951 876.542 866.66 876.737 866.234C876.507 866.085 876.43 865.967 876.273 865.747C876.439 864.719 877.125 863.85 877.408 862.844C877.682 861.875 877.681 860.4 878.14 859.563C878.171 859.505 878.215 859.455 878.252 859.401L877.942 859.144L878.029 858.921C878.028 858.553 878.068 858.211 877.901 857.873C877.773 857.613 877.204 857.572 876.929 857.502ZM870.922 871.897C869.751 874.303 868.445 876.633 867.004 878.886C867.748 879.194 868.519 879.589 869.322 879.695C870.747 877.463 872.074 875.184 873.392 872.888C872.589 872.466 871.838 871.987 870.922 871.897ZM814.134 742.627C814.012 744.373 813.967 752.551 814.726 753.709C815.114 753.808 815.479 753.896 815.877 753.954C815.843 751.956 816.008 744.022 815.261 742.886C814.881 742.788 814.52 742.693 814.134 742.627ZM876.929 857.502C877.204 857.572 877.773 857.613 877.901 857.873C878.068 858.211 878.028 858.553 878.029 858.921L877.942 859.144L878.252 859.401C878.215 859.455 878.171 859.505 878.14 859.563C877.681 860.4 877.682 861.875 877.408 862.844C877.125 863.85 876.439 864.719 876.273 865.747C876.43 865.967 876.507 866.085 876.737 866.234C877.88 863.569 880.137 858.725 880.266 855.955C879.929 855.447 879.227 855.245 878.688 855C878.174 855.03 877.866 854.953 877.562 855.448C877.235 855.98 877.093 856.897 876.929 857.502ZM795.724 898.528C793.796 900.286 791.832 902.002 789.833 903.678L791.455 905.152C791.62 905.111 791.803 905.114 791.952 905.03C792.585 904.672 796.077 900.354 796.456 899.639C796.522 899.515 796.567 899.382 796.622 899.252L795.724 898.528ZM818.793 742.687C818.839 744.702 818.741 752.454 819.548 753.775L820.262 753.992C820.415 750.504 820.428 746.646 820.041 743.179C819.635 742.747 819.355 742.795 818.793 742.687ZM809.028 742.616C808.971 744.384 809.044 752.838 809.818 753.994L810.285 754.206C810.927 753.04 810.355 744.603 810.085 742.879C809.711 742.723 809.435 742.642 809.028 742.616ZM809.701 686.776C810.103 687.107 810.478 687.418 810.939 687.667C811.974 685.805 812.929 683.867 813.969 681.99C814.313 681.366 814.778 680.624 814.565 679.89L814.247 679.828C812.223 681.621 811.014 684.455 809.701 686.776ZM954.38 644.555C953.479 645.78 952.122 647.85 952.364 649.438C952.427 649.855 952.885 650.187 953.222 650.393C954.845 649.286 954.988 647.683 955.291 645.816C955.34 645.515 955.308 645.257 955.24 644.963C954.939 644.737 954.75 644.629 954.38 644.555ZM796.163 766.115L794.333 767.487L798.006 769.818L799.494 767.649C798.494 767.015 797.398 766.072 796.163 766.115ZM852.512 655.504C851.95 655.95 851.653 656.225 851.384 656.896C851.458 657.255 851.385 657.375 851.723 657.581C852.038 657.774 852.343 657.878 852.719 657.815C853.16 657.741 853.644 657.405 854.026 657.182C854.806 657.083 855.447 657.02 856.137 656.626L856.296 656.274C856 655.798 855.411 655.617 854.889 655.485C854.166 655.302 853.246 655.454 852.512 655.504ZM880.747 656.613C880.584 657.278 880.516 657.371 880.76 657.997C881.657 658.758 882.799 659.054 883.972 658.967C884.044 658.962 884.116 658.949 884.188 658.94C884.453 658.37 884.606 658.098 884.515 657.452C884.179 656.977 883.995 656.749 883.406 656.613C882.562 656.416 881.599 656.532 880.747 656.613ZM814.055 900.524C813.094 901.281 811.625 901.991 811.007 903.004C811.01 903.449 810.922 903.374 811.271 903.72C811.486 903.934 811.702 904.132 811.938 904.322C812.793 903.496 814.42 902.25 814.767 901.107C814.516 900.742 814.461 900.707 814.055 900.524Z" fill="#070706"/>
<path d="M1020.08 566.037C1020.3 568.821 1018.4 572.131 1018.9 575.35C1019.04 576.251 1019.42 577.36 1020.2 577.903C1022.35 579.394 1026.55 577.135 1028.72 576.424C1029.64 576.12 1030.61 575.938 1031.56 575.754C1029.19 577.909 1022.67 581.768 1022.27 584.918C1022.16 585.746 1022.39 586.463 1022.93 587.089C1025.37 589.875 1036.21 590.496 1040.06 590.63C1037.71 591.755 1033.38 593.414 1032.24 595.83C1031.93 596.477 1031.91 597.153 1032.19 597.814C1033.2 600.202 1037.7 601.459 1039.98 602.28C1036.26 602.346 1027.34 600.782 1024.41 602.206C1023.7 602.551 1023.18 603.051 1022.96 603.825C1022.38 605.765 1024.99 609.941 1025.87 611.756C1023.36 610.003 1020.68 607.458 1017.87 606.273C1016.85 605.839 1015.71 605.671 1014.67 606.138C1012.81 606.971 1012.13 609.218 1011.42 610.949C1010.41 613.123 1009.37 615.282 1008.29 617.426C1007.72 614.717 1007.17 609.348 1005 607.448C1004.48 606.992 1003.89 606.828 1003.2 606.879C1000.66 607.065 996.963 612.271 995.399 614.062C996.021 609.387 996.974 604.739 997.649 600.065C998.632 599.499 999.566 598.762 1000.28 597.882C1000.88 597.15 1001.26 596.207 1001.11 595.253C1000.74 592.802 994.705 588.914 992.623 587.32C994.122 587.217 996.008 587.037 997.332 586.277C998.01 585.887 998.442 585.391 998.616 584.608C999.161 582.16 995.394 579.12 994.044 577.303C995.572 577.502 997.15 577.777 998.69 577.819C999.938 577.854 1001.54 577.737 1002.46 576.779C1004.14 575.038 1002.77 569.313 1002.63 566.975C1004.24 568.745 1005.52 570.769 1007.3 572.418C1008.36 573.396 1009.66 574.33 1011.17 574.209C1014.25 573.964 1018.12 568.291 1020.08 566.037Z" fill="#FA417C"/>
<path d="M748.052 864.475C748.901 863.78 749.636 862.978 750.39 862.183C750.556 863.401 751.72 864.388 752.536 865.292L750.507 866.867C749.77 865.982 748.907 865.242 748.052 864.475Z" fill="#4D4C4C"/>
<path d="M755.594 872.99C756.188 872.298 756.842 871.649 757.472 870.988C758.214 871.782 759.101 873.031 760.017 873.542C759.263 874.15 758.544 874.782 757.827 875.432C757.052 874.646 756.308 873.832 755.594 872.99Z" fill="#4D4C4C"/>
<path d="M860.156 784.344C861.003 784.417 861.414 784.83 862.009 785.373C862.661 785.97 864.02 787.103 864.065 788.005L862.773 788.849C862.615 788.945 862.394 788.945 862.211 788.973C860.984 788.056 859.573 786.771 859.099 785.287C859.328 784.68 859.602 784.654 860.156 784.344Z" fill="#4D4C4C"/>
<path d="M787.183 890.854L788.581 892.061C786.527 893.907 784.595 895.933 782.769 898.002L781.36 896.672C783.391 894.818 785.28 892.837 787.183 890.854Z" fill="#4D4C4C"/>
<path d="M734.829 813.254C735.117 815.34 735.18 818.274 736.028 820.177C735.181 820.59 733.772 821.863 732.856 821.672C732.82 821.609 732.775 821.55 732.748 821.482C732.147 819.968 734.287 814.891 734.829 813.254Z" fill="#4D4C4C"/>
<path d="M734.255 843.558C735.066 842.692 735.874 841.853 736.756 841.058C737.369 842.262 738.517 844.918 739.671 845.525C739.556 845.75 739.63 845.665 739.396 845.831C738.525 846.445 737.694 847.083 736.858 847.745C736.192 846.24 735.201 844.895 734.255 843.558Z" fill="#4D4C4C"/>
<path d="M740.529 854.008C741.393 853.362 742.161 852.584 743 851.904C743.751 852.95 745.376 855.837 746.51 856.238C746.014 856.968 744.846 857.793 744.172 858.43C743.013 856.9 741.501 855.677 740.529 854.008Z" fill="#4D4C4C"/>
<path d="M802.331 889.44C803.206 889.788 804.049 891.052 804.661 891.755C803.213 892.962 801.857 894.24 800.515 895.562C799.686 895.319 798.89 894.279 798.266 893.667L802.331 889.44Z" fill="#4D4C4C"/>
<path d="M809.684 881.628C810.511 882.426 811.25 883.442 812.003 884.318L807.926 888.129L805.465 886.074L809.684 881.628Z" fill="#4D4C4C"/>
<path d="M735.537 826.84C736.294 827.25 737.541 831.764 737.907 832.788C737.12 833.45 736.251 834.036 735.42 834.645C735.194 834.774 735.344 834.72 734.945 834.677C734.107 833.013 733.852 830.657 733.305 828.839C734.054 828.179 734.799 827.513 735.537 826.84Z" fill="#4D4C4C"/>
<path d="M817.002 873.765C817.959 874.682 818.771 875.952 819.588 877.005C818.388 878.136 817.194 879.275 816.008 880.422L813.027 877.958C814.427 876.653 815.698 875.167 817.002 873.765Z" fill="#4D4C4C"/>
<path d="M805.646 906.946C806.389 907.214 807.116 908.016 807.725 908.532C806.35 909.942 804.647 912.223 802.977 913.175L802.469 912.991C801.391 912.365 800.366 911.585 799.342 910.872C801.561 909.762 803.601 908.343 805.646 906.946Z" fill="#4D4C4C"/>
<path d="M765.337 879.012C766.797 877.467 768.162 874.992 769.872 873.83C770.694 874.82 771.543 875.761 772.434 876.69C770.816 878.037 769.111 879.563 767.721 881.147C766.812 880.821 766 879.708 765.337 879.012Z" fill="#4D4C4C"/>
<path d="M777.981 882.176C778.798 882.83 779.562 883.693 780.315 884.427C778.62 886.29 776.767 888.043 774.99 889.83C774.165 889.472 773.367 888.431 772.72 887.787C774.548 885.986 776.302 884.116 777.981 882.176Z" fill="#4D4C4C"/>
<path d="M843.03 830.537C844.201 830.834 846.028 833.481 846.669 834.548C846.049 835.228 845.409 836.059 844.657 836.588C844.261 836.866 844.273 836.766 843.831 836.686C842.426 835.664 840.894 834.781 839.422 833.857C840.609 832.733 841.812 831.626 843.03 830.537Z" fill="#4D4C4C"/>
<path d="M730.985 846.737C731.129 846.781 731.27 846.814 731.4 846.898C732.045 847.313 733.325 849.432 733.373 850.221C733.455 851.562 731.068 853.024 730.112 853.922C729.733 854.255 729.773 854.326 729.24 854.364C728.312 853.244 728.313 850.658 728.149 849.214L730.985 846.737Z" fill="#4D4C4C"/>
<path d="M843.207 845.826C844.291 847.038 845.385 848.241 846.489 849.433C845.526 850.468 844.238 852.196 842.967 852.77L839.202 849.756C840.47 848.385 841.859 847.118 843.207 845.826Z" fill="#4D4C4C"/>
<path d="M757.468 870.988C759.064 869.335 760.543 867.585 762.112 865.909C763.038 867.043 763.975 868.169 764.922 869.286C763.257 870.668 761.554 872.02 760.014 873.542C759.097 873.031 758.211 871.782 757.468 870.988Z" fill="#4D4C4C"/>
<path d="M793.807 880.242C794.905 881.345 795.885 882.643 796.962 883.786L792.679 887.865L792.324 888.045C791.413 887.699 790.528 886.582 789.827 885.9C791.169 884.025 792.495 882.139 793.807 880.242Z" fill="#4D4C4C"/>
<path d="M754.293 857.405C755.387 858.682 756.466 859.974 757.606 861.21C756.706 861.82 755.832 862.465 754.985 863.146C754.139 863.828 753.322 864.543 752.534 865.292C751.719 864.388 750.554 863.401 750.389 862.183C751.784 860.67 753.026 859.025 754.293 857.405Z" fill="#4D4C4C"/>
<path d="M736.753 841.058C737.939 839.901 739.111 838.729 740.268 837.542L743.444 842.745C742.204 843.629 740.778 844.489 739.668 845.525C738.514 844.919 737.366 842.262 736.753 841.058Z" fill="#4D4C4C"/>
<path d="M743 851.904L747.191 847.909C748.283 849.491 749.354 851.093 750.478 852.651C749.158 853.836 747.768 854.989 746.51 856.238C745.376 855.837 743.751 852.95 743 851.904Z" fill="#4D4C4C"/>
<path d="M826.025 864.028C827.095 864.996 828.019 866.418 828.96 867.536C827.151 869.389 825.313 871.215 823.447 873.012L819.943 870.57L826.025 864.028Z" fill="#4D4C4C"/>
<path d="M785.511 872.014C786.976 873.098 788.296 875.251 789.617 876.603C787.916 877.926 786.246 879.287 784.607 880.686L784.287 880.944C783.391 880.776 781.823 878.81 781.143 878.116C782.679 876.145 784.077 874.059 785.511 872.014Z" fill="#4D4C4C"/>
<path d="M744.524 868.386C745.369 868.772 746.219 869.984 746.848 870.674C744.205 873.74 741.224 876.606 738.488 879.6L738.144 879.575C737.358 878.657 736.839 877.465 736.27 876.401C738.798 873.548 741.821 871.082 744.524 868.386Z" fill="#4D4C4C"/>
<path d="M835.584 853.61C836.796 854.789 837.82 856.186 838.878 857.503C836.932 859.352 835.032 861.641 832.844 863.195C831.645 862.257 830.375 861.405 829.126 860.533C831.173 858.145 833.422 855.896 835.584 853.61Z" fill="#4D4C4C"/>
<path d="M842.773 815.151C843.86 815.541 846.269 818.55 847.215 819.568C846.124 820.734 845.138 822.034 844.12 823.265L841.904 822.215C839.96 821.304 838.023 820.376 836.094 819.432C838.198 817.873 840.553 816.544 842.773 815.151Z" fill="#4D4C4C"/>
<path d="M836.209 837.344C837.572 838.511 838.734 840.429 839.82 841.874C838.849 842.923 836.321 846.282 834.955 846.701C834.668 846.789 834.434 846.575 834.184 846.451C832.75 845.305 831.206 844.267 829.716 843.194C831.936 841.308 834.004 839.248 836.209 837.344Z" fill="#4D4C4C"/>
<path d="M736.905 857.658C737.945 858.092 739.494 860.764 740.254 861.74C738.13 863.676 736.045 865.653 734 867.671C733.715 867.968 733.544 868.13 733.151 868.262C732.027 867.542 731.428 864.21 731.05 862.96C733.038 861.233 734.99 859.466 736.905 857.658Z" fill="#4D4C4C"/>
<path d="M776.98 900.841C777.825 901.244 778.627 902.049 779.364 902.637C777.268 905.338 775.304 908.14 773.226 910.856L770.831 909.674C769.738 909.064 768.594 908.523 767.476 907.958C770.472 905.354 773.709 903.082 776.98 900.841Z" fill="#4D4C4C"/>
<path d="M759.645 885.049C760.426 885.181 761.343 886.491 761.88 887.079C760.356 888.86 754.192 896.183 752.677 897.174L752.283 896.967L749.383 894.198C752.526 890.931 756.113 887.889 759.645 885.049Z" fill="#4D4C4C"/>
<path d="M751.826 876.81C752.75 877.443 753.595 878.511 754.374 879.326C751.218 882.695 748.122 886.119 745.087 889.597C744.11 888.454 743.225 887.202 742.31 886.008C745.394 882.869 748.65 879.858 751.826 876.81Z" fill="#4D4C4C"/>
<path d="M767.981 892.797C768.885 893.434 769.607 894.353 770.35 895.168C769.08 896.809 763.94 904.36 762.831 905.093L761.806 904.525C760.654 903.696 759.508 902.858 758.369 902.01C761.462 898.857 764.818 895.891 767.981 892.797Z" fill="#4D4C4C"/>
<path d="M838.709 904.298C839.71 905.043 840.539 906.035 841.395 906.94C831.611 913.382 819.683 916.106 808.233 917.429L807.711 917.211L808.004 916.824C807.708 916.179 806.346 915.572 805.712 915.176C809.066 914.4 812.269 913.29 815.579 912.371C823.413 910.193 831.543 908.284 838.709 904.298Z" fill="#4D4C4C"/>
<path d="M790.7 742.566L792.83 742.527C792.916 744.685 792.658 752.337 793.231 753.893C793.391 754.326 793.395 754.317 793.837 754.505C794.086 754.447 794.76 754.376 794.941 754.247C796.25 753.329 793.765 744.711 794.925 742.924C795.468 742.543 795.903 742.535 796.538 742.493C798.425 743.782 796.521 751.886 798.129 753.694L798.54 753.683C800.242 752.059 797.355 744.664 799.035 742.439C799.555 742.452 800.195 742.395 800.673 742.615C800.947 742.742 800.934 743.014 801.017 743.28C801.05 745.767 800.777 751.463 801.326 753.542C801.752 753.661 802.114 753.786 802.506 753.992L802.49 754.142C801.396 754.589 794.684 755.139 792.925 755.391C791.124 755.646 789.333 755.957 787.552 756.324C785.771 756.691 784.003 757.112 782.247 757.588C782 754.859 781.244 746.298 781.921 744.189C784.551 743.144 787.905 742.979 790.7 742.566Z" fill="#4D4C4C"/>
<path d="M777.461 780.657C777.723 780.678 777.755 780.67 778.049 780.756C779.066 781.056 780.014 781.741 780.513 782.684C780.54 782.734 780.564 782.784 780.588 782.835C780.612 782.886 780.634 782.937 780.655 782.989C780.676 783.042 780.695 783.095 780.713 783.148C780.731 783.201 780.748 783.255 780.763 783.308C780.779 783.362 780.793 783.417 780.805 783.471C780.817 783.526 780.828 783.581 780.838 783.637C780.847 783.692 780.856 783.748 780.862 783.803C780.869 783.859 780.874 783.915 780.877 783.971C780.881 784.027 780.883 784.083 780.884 784.14C780.885 784.196 780.884 784.252 780.882 784.308C780.88 784.364 780.876 784.42 780.871 784.476C780.865 784.531 780.859 784.587 780.851 784.643C780.843 784.699 780.833 784.754 780.822 784.809C780.811 784.864 780.798 784.919 780.785 784.974C780.771 785.027 780.755 785.081 780.739 785.135C780.722 785.189 780.704 785.242 780.684 785.295C780.355 786.158 772.862 792.325 771.544 793.585C766.579 798.327 761.987 804.023 758.232 809.76C756.803 811.943 755.781 814.721 754.171 816.725C753.627 817.403 752.906 817.716 752.133 818.076C751.323 817.733 750.505 817.408 749.68 817.103L748.356 815.016C749.468 812.995 750.355 810.876 751.539 808.884C756.819 800 764.896 790.187 773.025 783.7C774.419 782.587 776.015 781.711 777.461 780.657Z" fill="url(#paint0_linear_611_202404)"/>
</g>
<defs>
<linearGradient id="paint0_linear_611_202404" x1="760.895" y1="796.693" x2="767.365" y2="801.574" gradientUnits="userSpaceOnUse">
<stop stop-color="white" stop-opacity="0.0313726"/>
<stop offset="1" stop-color="white" stop-opacity="0.0745098"/>
</linearGradient>
<clipPath id="clip0_611_202404">
<rect width="1080" height="1080" fill="white"/>
</clipPath>
</defs>
</svg>
