<svg width="1080" height="1080" viewBox="0 0 1080 1080" fill="none" xmlns="http://www.w3.org/2000/svg">
<g clip-path="url(#clip0_611_202407)">
<g clip-path="url(#clip1_611_202407)">
<path d="M348.184 651.625L336.706 651.409L308.985 831.141L320.342 832.541L348.184 651.625Z" fill="#E82E3B"/>
<path d="M664.418 811.18L660.834 801.709L738.365 779.209L741.76 788.181L664.418 811.18Z" fill="#E82E3B"/>
<path d="M335.749 602.196L320.162 604.676L312.241 646.991L344.871 648.89L349.747 610.576L335.749 602.196Z" fill="#D9D3D3"/>
<path d="M794.541 807.194C808.836 799.886 798.263 768.21 786.552 762.736C781.038 760.159 775.929 764.191 770.572 765.439C762.465 767.325 754.344 767.543 746.361 770.524C745.362 772.189 744.254 773.664 743.025 775.167C724.964 778.128 706.295 784.525 688.75 789.679L602.69 814.672C596.727 816.431 590.732 818.399 584.594 819.451C581.209 820.031 578.525 818.461 575.255 818.523L574.831 818.533C568.834 820.66 562.931 823.06 556.97 825.288C544.491 829.953 536.215 831.286 538.15 846.907C534.903 848.438 531.316 849.648 527.906 850.784C525.89 849.46 524.064 847.8 522.052 846.44C502.612 833.294 477.065 843.505 461.105 857.421C454.004 863.613 448.415 871.742 442.437 878.993L424.088 900.812C417.837 908.183 399.286 931.915 389.629 933.597C375.835 935.997 348.829 908.973 337.876 900.696C329.996 894.741 321.509 889.735 313.529 883.964C314.126 878.198 315.082 872.466 315.751 866.705C320.106 865.14 322.539 864.479 323.629 859.491C325.596 850.492 323.806 843.476 324.834 835.684C326.186 825.438 328.438 814.614 329.955 804.098L355.454 622.873C356.134 618.29 358.153 612.464 355.383 608.298C348.072 597.302 330.733 593.063 319.683 600.645C312.622 605.655 313.007 619.288 311.836 627L293.47 744.549C290.043 767.06 286.132 789.481 283.563 812.117C283.032 816.791 279.137 830.191 283.244 833.654C283.559 835.466 282.128 838.345 281.916 840.272C281.259 846.275 281.513 852.176 280.381 858.165C282.522 859.891 284.985 861.31 287.298 862.797C286.321 872.73 283.096 880.283 288.141 889.755C296.329 905.128 299.832 897.941 307.281 902.967C325.141 915.017 358.308 946.711 376.997 952.237C403.589 960.099 416.32 940.678 431.184 922.307C440.726 910.514 450.401 899.066 460.615 887.849C472.339 874.973 488.766 854.388 508.885 860.387C503.879 864.426 492.298 866.98 491.676 874.768C491.246 880.162 497.755 883.144 502.247 883.351C512.453 883.82 514.358 877.919 520.741 872.392L521.049 872.128C528.649 870.512 536.405 868.137 543.632 865.276C550.022 878.667 555.868 877.045 568.875 873.924C574.707 872.525 580.479 871.287 586.446 870.663C591.112 870.175 591.949 870.106 594.068 865.676C601.116 863.098 608.533 861.172 615.73 859.054L742.674 820.327C747.874 818.766 753.263 817.57 758.336 815.629C764.798 820.636 764.86 816.885 770.706 814.509C776.414 812.188 788.801 808.343 794.541 807.194ZM334.076 645.123C328.34 645.576 322.299 646.158 316.645 644.846C316.754 641.56 317.673 638.496 318.126 635.269C323.212 636.197 328.793 637.683 333.501 638.467C333.722 640.686 333.923 642.9 334.076 645.123ZM319.225 631.902C319.215 628.631 320.248 625.334 320.461 622.058C323.937 622.506 342.015 628.631 345.437 629.302C345.437 629.302 344.072 634.236 344.66 635.864C339.715 635.122 324.215 632.227 319.225 631.902ZM301.51 858.861C300.314 858.841 299.087 858.879 297.896 858.787C293.816 858.186 291.238 857.159 288.159 854.332C290.987 851.174 293.778 849.966 297.937 849.419C299.554 849.299 301.088 849.517 302.687 849.725C304.016 852.777 304.284 856.497 301.51 858.861ZM298.168 843.372C294.927 843.655 291.866 844.346 288.732 845.2C289.054 837.842 289.579 836.033 297.112 834.992C297.735 837.593 298.858 840.727 298.168 843.372ZM460.77 877.907L458.89 869.94C460.331 867.718 463.254 863.93 465.399 862.406C465.914 865.26 466.634 868.246 466.908 871.126C465.012 873.566 463.028 875.798 460.77 877.907ZM472.303 865.466C471.93 862.882 471.636 860.289 471.336 857.696C473.832 855.704 476.461 853.961 479.185 852.3C479.679 854.707 479.888 856.914 479.316 859.351C477.33 862.211 475.32 863.81 472.303 865.466ZM403.378 942.413C402.641 939.761 401.948 937.107 401.29 934.434L407.38 928.628C409.896 935.578 410.541 938.776 403.378 942.413ZM414.745 932.181C414.277 929.317 413.559 926.253 413.745 923.344C415.405 920.883 417.461 918.828 419.516 916.7C420.239 919.836 420.441 923.001 420.437 926.215C418.719 928.615 417.047 930.347 414.745 932.181ZM366.974 939.12C363.211 937.899 360.173 935.743 357.019 933.406C359.288 932.541 361.55 931.646 363.836 930.827C366.165 930.379 370.551 934.549 372.609 935.722C370.56 936.657 368.867 937.933 366.974 939.12ZM436.85 904.977C436.627 902.379 436.272 899.797 435.933 897.212C437.366 894.323 439.688 892.777 441.525 890.283C442.52 892.604 443.542 894.889 444.194 897.336C441.572 899.757 439.214 902.302 436.85 904.977ZM448.298 891.42C447.119 884.135 449.123 881.367 453.568 876.174C454.13 878.81 454.732 881.443 455.124 884.11C453.075 886.685 451.068 889.572 448.298 891.42ZM509.279 853.657C505.981 853.587 502.73 853.242 499.443 853.098C500.23 850.862 500.851 848.972 500.763 846.561C503.852 847.129 507.049 847.071 510.094 847.704C510.088 848.959 510.508 852.994 509.279 853.657ZM320.702 618.867C321.077 616.885 321.439 614.901 321.896 612.936C325 613.038 341.225 613.655 346.716 619.13C346.577 621.297 346.619 621.287 346.043 623.374C342.93 622.778 323.89 618.713 320.702 618.867ZM383.279 946.606C379.687 945.928 376.26 944.896 372.97 943.281C374.053 942.239 375.141 941.29 376.336 940.375C379.009 938.313 382.178 940.194 384.768 941.556C384.385 943.02 384.079 945.378 383.279 946.606ZM493.876 853.841C491.236 854.698 488.636 855.734 486.071 856.795L485.894 849.761C491.925 848.026 493.179 846.935 495.238 853.354C494.735 853.775 494.537 853.75 493.876 853.841ZM425.458 918.912C426.029 915.306 425.43 911.68 425.976 908.104C427.271 906.815 428.558 905.522 429.809 904.19L432.144 910.362C430.178 913.478 427.982 916.23 425.458 918.912ZM352.501 927.67C349.262 927.847 346.577 925.527 344.326 923.484L350.092 921.303C352.541 920.789 355.82 923.184 357.321 925.045L357.284 925.515C356.031 926.559 354.042 927.142 352.501 927.67ZM343.225 916.493C340.545 917.193 338.37 918.073 335.784 916.622C335.485 916.454 328.022 911.678 331.739 912.984C335.156 913.197 338.062 912.284 341.356 911.556C342.401 912.857 343.686 914.204 344.345 915.737L344.235 916.2L343.225 916.493ZM396.942 946.438C394.266 947.039 391.554 947.461 388.849 947.911C389.54 945.994 390.165 944.055 391.361 942.382C392.461 940.917 393.815 939.87 395.193 938.688C395.814 940.197 398.119 944.819 397.595 946.239L396.942 946.438ZM333.612 906.237C331.236 906.652 318.806 907.629 320.21 904.378C322.713 903.677 325.06 902.655 327.446 901.64C329.613 902.772 331.554 904.388 333.507 905.85L333.612 906.237ZM334.076 645.123C333.923 642.9 333.722 640.686 333.501 638.467C336.068 639.939 341.315 641.712 342.91 643.903L342.807 644.551C340.667 645.857 336.474 645.325 334.076 645.123ZM505.639 876.498C499.476 877.924 499.163 873.617 505.304 872.603C511.774 870.789 509.659 875.133 505.639 876.498ZM313.403 899.768C311.952 897.406 313.052 895.328 314.512 893.22L317.457 894.346C318.508 895.215 319.409 896.386 320.594 897.046C318.204 897.958 315.821 898.935 313.403 899.768ZM715.035 792.148L709.386 793.735C712.221 790.234 715.35 789.528 719.461 788.13C720.892 787.826 722.957 787.15 724.315 787.826C723.438 789.615 717.026 791.42 715.035 792.148ZM539.446 858.592C537.594 859.316 530.566 862.877 529.027 861.231C529.175 860.357 529.44 860.069 530.216 859.741C532.176 858.974 538.823 855.864 540.433 856.435C540.997 857.583 540.572 858.221 539.446 858.592ZM333.119 605.364C336.383 605.376 346.078 609.577 345.692 610.401C332.705 606.198 324.648 609.769 322.505 608.29C323.276 604.275 330.32 605.245 333.119 605.364ZM316.537 815.072C316.42 807.444 320.899 806.743 319.825 814.521C319.221 818.138 317.732 818.552 316.537 815.072ZM333.71 706.226C333.561 704.809 332.597 697.036 334.717 697.104C337.203 699.763 338.069 704.957 333.71 706.226ZM324.906 774.529C323.582 772.431 322.637 766.887 323.729 764.538L324.042 764.479C326.753 767.443 327.752 771.192 324.906 774.529ZM664.186 807.331C666.495 803.451 669.927 802.188 673.869 800.515C673.05 805.51 668.389 805.939 664.186 807.331ZM320.124 803.627C317.13 802.106 318.503 798.083 319.603 795.645C321.565 796.424 323.544 802.348 320.124 803.627ZM306.468 874.079C306.016 872.245 305.037 866.226 308.262 866.611C310.389 868.821 309.393 873.062 306.468 874.079ZM341.937 660.761C339.237 658.654 337.428 655.152 341.776 653.727C343.454 654.674 343.151 659.7 341.937 660.761ZM687.175 800.347C685.019 801.18 682.863 802.005 680.693 802.8C681.31 801.527 681.879 800.2 682.677 799.029C684.695 797.859 688.056 796.063 687.805 800.089L687.175 800.347ZM698.39 796.784C693.071 798.188 697.124 794.242 698.883 792.897C702.441 792.352 703.118 796.096 698.39 796.784ZM515.015 856.181C514.589 854.578 515.426 850.216 517.716 851.9C521.51 854.899 518.09 855.2 515.015 856.181ZM306.266 883.832C303.571 882.554 303.86 881.058 305.512 878.915L306.116 878.78C307.092 879.674 307.533 882.045 306.906 883.272L306.266 883.832ZM733.564 786.729C728.716 788.699 733.168 785.403 734.957 784.059L735.455 783.883C737.845 785.857 735.074 786.469 733.564 786.729ZM315.604 830.164C313.568 829.058 313.038 827.331 314.716 825.397C316.577 826.543 317.939 828.593 315.604 830.164ZM323.053 787.449C320.875 785.778 321.977 783.803 323.163 781.798C324.162 783.355 324.54 786.029 323.053 787.449ZM336.11 689.729C335.544 687.339 335.229 686.717 337.904 687.536L338.466 688.048C338.157 689.099 337.025 689.366 336.11 689.729Z" fill="#010101"/>
<path d="M549.187 835.41L545.605 836.765C545.16 836.934 544.881 837.377 544.92 837.851L545.811 848.501C545.819 848.599 545.841 848.696 545.876 848.789L547.649 853.472C547.689 853.579 547.712 853.692 547.717 853.807L547.84 856.883C547.843 856.962 547.855 857.04 547.875 857.117L549.199 862.05C549.221 862.133 549.253 862.213 549.295 862.289L550.968 865.324C551.023 865.425 551.094 865.515 551.178 865.593L553.458 867.697C553.602 867.83 553.78 867.921 553.972 867.959L558.469 868.856C558.562 868.875 558.657 868.881 558.752 868.874L563.499 868.54C563.828 868.517 564.042 868.183 563.925 867.874C563.842 867.654 563.616 867.524 563.384 867.562L561.963 867.798C561.462 867.881 560.972 867.599 560.792 867.124L559.592 863.953L558.668 860.132C558.612 859.902 558.635 859.66 558.732 859.444L559.006 858.836C559.273 858.245 560.001 858.027 560.549 858.374L561.531 858.997C561.682 859.093 561.807 859.226 561.893 859.383L563.52 862.335C563.56 862.408 563.591 862.485 563.613 862.564L564.87 867.085C565.028 867.654 565.618 867.986 566.186 867.825L575.508 865.195C576.227 864.992 576.52 864.132 576.074 863.533L574.681 861.663L573.295 859.448C573.258 859.389 573.227 859.326 573.202 859.26L571.73 855.371L569.278 848.891L566.826 842.411L565.169 838.031C565.142 837.961 565.123 837.888 565.112 837.814L564.181 831.684C564.08 831.014 563.385 830.607 562.75 830.847L556.895 833.063C556.389 833.255 556.107 833.794 556.238 834.318L558.198 842.173C558.211 842.224 558.22 842.276 558.225 842.329L558.797 848.299L559.252 852.177C559.288 852.486 559.188 852.795 558.977 853.024L558.214 853.851C557.903 854.188 557.411 854.288 556.992 854.099L556.613 853.928C556.421 853.842 556.259 853.7 556.147 853.522L554.933 851.581C554.896 851.522 554.864 851.459 554.84 851.393L553.934 848.999L552.829 846.08C552.811 846.032 552.797 845.984 552.786 845.935L550.604 836.175C550.463 835.542 549.794 835.181 549.187 835.41Z" fill="#D9D3D3"/>
<path d="M583.667 862.821L580.619 863.974C580.091 864.174 579.499 863.928 579.269 863.413L575.974 856.045L572.829 847.733C572.788 847.626 572.765 847.513 572.761 847.398L572.7 845.887L572.377 842.02L571.676 837.157L570.815 831.966C570.796 831.853 570.796 831.738 570.814 831.624L571.392 827.985C571.436 827.708 571.591 827.461 571.821 827.301C572.468 826.852 573.358 827.265 573.433 828.049L573.835 832.247C573.842 832.314 573.855 832.38 573.874 832.445L575.799 839.016L584.287 861.447C584.495 861.997 584.217 862.613 583.667 862.821Z" fill="#D9D3D3"/>
<path d="M580.491 829.797C582.856 828.966 583.826 828.36 582.669 825.885C581.511 826.795 581.007 828.459 580.491 829.797Z" fill="#E82E3B"/>
<path d="M746.499 784.353C747.47 783.808 745.936 781.839 745.256 781.599L744.875 781.948C743.788 784.351 743.732 784.734 746.499 784.353Z" fill="#E82E3B"/>
<path d="M649.246 811.68C651.896 811.047 657.867 810.155 655.624 806.397C651.824 807.112 648.993 807.227 649.246 811.68Z" fill="#E82E3B"/>
<path d="M605.967 824.478L605.979 824.08C601.551 819.479 595.122 823.75 591.336 827.3C588.881 830.425 593.754 826.302 594.697 825.951C598.193 824.651 602.265 824.251 605.967 824.478Z" fill="#E82E3B"/>
<path d="M331.511 734.177C332.416 732.49 333.962 724.253 331.44 723.604C329.859 725.824 328.931 728.074 328.635 730.793C329.52 732.028 330.436 733.103 331.511 734.177Z" fill="#E82E3B"/>
<path d="M620.534 819.677L623.658 818.495L622.524 815.501C619.978 816.408 617.477 817.295 614.833 817.892C613.729 818.426 612.57 818.792 611.41 819.187C612.822 819.941 614.367 820.295 615.904 820.72C617.496 820.57 619.001 820.108 620.534 819.677Z" fill="#E82E3B"/>
<path d="M339.176 678.721C340.793 676.624 340.92 671.868 340.921 669.291C340.431 668.361 340.008 667.391 339.246 666.653L338.843 666.809C337.32 670.327 336.906 673.938 336.561 677.717C337.41 678.101 338.301 678.4 339.176 678.721Z" fill="#E82E3B"/>
<path d="M327.922 756.763C330.436 754.855 329.869 743.693 328.365 741.719C325.633 744.735 324.485 753.672 327.922 756.763Z" fill="#E82E3B"/>
<path d="M755.583 774.708L754.779 774.869C754.265 774.971 753.901 775.433 753.922 775.957L754.155 781.783L755.66 790.226C755.672 790.291 755.69 790.355 755.713 790.416L757.753 795.807L761.117 804.697C761.137 804.752 761.163 804.805 761.192 804.855L762.663 807.384C762.739 807.514 762.841 807.627 762.964 807.714L763.041 807.769C763.898 808.383 765.031 807.511 764.658 806.525L763.713 804.028C763.665 803.901 763.641 803.766 763.644 803.631L763.69 801.185C763.693 801.041 763.725 800.899 763.784 800.767L764.442 799.308C764.558 799.05 764.772 798.849 765.036 798.749L765.585 798.541C765.919 798.415 766.293 798.464 766.583 798.671L767.419 799.27C767.59 799.392 767.721 799.563 767.796 799.759L768.625 801.95L770.071 807.006C770.243 807.606 770.89 807.931 771.473 807.71L777.69 805.358C778.098 805.203 778.37 804.816 778.379 804.381L778.462 799.963C778.469 799.59 778.669 799.249 778.991 799.061L780.282 798.31C780.818 797.999 781.506 798.208 781.777 798.766L783.423 802.152C783.664 802.648 784.243 802.878 784.759 802.683L787.968 801.468C788.464 801.281 788.747 800.757 788.631 800.239L787.21 793.879C787.196 793.817 787.188 793.753 787.185 793.689L787.033 789.891C787.008 789.268 787.521 788.756 788.144 788.783L790.206 788.872C790.697 788.894 791.109 789.247 791.205 789.729L792.292 795.187C792.303 795.24 792.318 795.293 792.337 795.344L792.573 795.966C792.883 796.785 794.086 796.628 794.175 795.757C794.179 795.718 794.18 795.679 794.179 795.639L793.982 790.737C793.98 790.676 793.973 790.617 793.96 790.558L792.524 783.789L789.807 773.663C789.768 773.518 789.699 773.382 789.604 773.266L789.333 772.932C788.748 772.215 787.586 772.616 787.569 773.541C787.567 773.646 787.581 773.749 787.612 773.849L789.844 781.19C789.879 781.305 789.894 781.426 789.889 781.546L789.741 784.978C789.728 785.261 789.605 785.527 789.396 785.718L788.124 786.884C787.81 787.172 787.354 787.246 786.966 787.07L786.035 786.651C785.727 786.512 785.503 786.235 785.432 785.904L783.285 775.972C783.274 775.921 783.259 775.87 783.24 775.82L781.66 771.644C781.601 771.489 781.507 771.35 781.386 771.238L780.256 770.195C779.984 769.944 779.603 769.852 779.247 769.951L775.272 771.056C774.668 771.224 774.339 771.874 774.561 772.46L776.222 776.851L780.051 786.969C780.137 787.196 780.143 787.444 780.068 787.675L779.29 790.078C779.191 790.386 778.956 790.632 778.654 790.747L777.857 791.048C777.428 791.211 776.943 791.08 776.654 790.725L776.184 790.148C776.111 790.059 776.054 789.959 776.013 789.852L775.131 787.521L774.377 785.527L770.089 774.195C769.862 773.595 769.161 773.33 768.594 773.63L766.085 774.956C765.939 775.033 765.812 775.143 765.716 775.278L763.839 777.901C763.701 778.094 763.631 778.327 763.641 778.564L763.821 783.078C763.826 783.192 763.849 783.305 763.889 783.413L765.028 786.421C765.106 786.628 765.118 786.856 765.061 787.07L764.019 791.013C763.991 791.119 763.947 791.219 763.888 791.312L763.044 792.642C762.76 793.09 762.19 793.26 761.706 793.042L761.577 792.984C761.319 792.868 761.118 792.654 761.018 792.39L760.42 790.809L759.32 787.9C759.299 787.846 759.273 787.792 759.244 787.742L757.702 785.092C757.673 785.041 757.648 784.988 757.627 784.933L756.752 782.622C756.728 782.557 756.709 782.489 756.698 782.419L756.298 780.007C756.28 779.898 756.279 779.787 756.294 779.678L756.846 775.908C756.953 775.179 756.306 774.565 755.583 774.708Z" fill="#D9D3D3"/>
<path d="M641.143 813.719C644.907 813.124 642.595 808.484 631.042 813.474C629.576 814.308 629.905 815.612 630.118 817.07C633.866 816.25 637.511 814.933 641.143 813.719Z" fill="#E82E3B"/>
<path d="M304.044 843.212C309.036 843.376 313.429 844.052 318.239 845.442C317.418 843.222 316.64 840.974 315.723 838.793C311.222 838.276 300.989 835.967 296.645 834.67C287.538 834.697 287.335 843.187 288.131 845.3L304.044 843.212Z" fill="#D9D3D3"/>
<path d="M298.465 859.055C303.107 859.418 311.036 859.391 315.666 858.812C316.272 856.912 316.478 855.197 316.489 853.193C312.397 851.451 308.164 848.547 302.923 848.251C292.132 848.345 277.38 855.249 298.465 859.055Z" fill="#D9D3D3"/>
<path d="M300.042 893.544C300.284 892.853 298.9 891.792 298.497 891.348C295.537 888.085 300.17 871.426 300.506 865.686L298.103 865.459L294.058 865.091C292.135 873.208 290.514 889.015 300.042 893.544Z" fill="#D9D3D3"/>
<path d="M753.788 809.817C756.57 808.678 749.78 795.015 748.728 792.126C731.031 795.274 713.954 801.529 696.663 806.289C665.801 814.786 635.245 823.691 604.717 833.296C597.887 835.445 590.884 837.042 584.106 839.35C581.503 839.783 588.613 854.988 590.299 859.411C598.78 856.56 607.458 854.185 616.027 851.608L717.121 820.493C729.25 816.701 741.394 812.663 753.788 809.817Z" fill="#E82E3B"/>
<path d="M709.729 809.421C716.041 809.004 714.971 804.568 708.552 806.309C701.398 808.844 703.284 812.009 709.729 809.421Z" fill="#010101"/>
<path d="M745.088 801.932C751.409 799.82 745.118 796.572 739.984 797.343C734.519 800.309 739.396 803.251 745.088 801.932Z" fill="#010101"/>
<path d="M657.335 827.98C663.097 825.925 666.796 821.221 657.969 822.01C656.666 822.721 649.023 825.358 653.746 828.413C654.931 828.695 656.172 828.251 657.335 827.98Z" fill="#010101"/>
<path d="M689.504 817.071C696.352 816.066 699.284 809.57 691.646 812.163C684.566 813.411 681.906 819.955 689.504 817.071Z" fill="#010101"/>
<path d="M602.714 843.714C607.807 844.451 610.192 837.792 601.075 839.382C593.362 841.588 594.654 846.636 602.714 843.714Z" fill="#010101"/>
<path d="M645.484 831.194C647.042 830.771 648.785 824.488 635.007 829.994C633.777 830.738 632.003 832.655 634.091 833.803C636.441 835.095 642.972 832.083 645.484 831.194Z" fill="#010101"/>
<path d="M672.531 823.493C679.261 821.666 682.774 816.092 673.204 817.039C667.545 819.528 661.529 825.879 672.531 823.493Z" fill="#010101"/>
<path d="M624.605 838.073C630.282 836.986 630.855 831.775 617.352 834.894C615.562 835.506 610.938 837.754 614.437 839.882C616.318 841.026 622.476 838.671 624.605 838.073Z" fill="#010101"/>
<path d="M722.912 806.352C731.705 803.993 729.872 798.526 719.949 801.453C717.331 802.243 712.107 806.041 716.125 808.242C718.189 808.269 720.941 806.981 722.912 806.352Z" fill="#010101"/>
<path d="M307.065 828.292C307.301 828.222 307.338 828.251 307.493 828.067C308.136 827.302 316.807 779.88 317.466 775.602L323.119 736.801C324.621 726.309 327.054 716.045 328.449 705.983C330.827 688.83 333.31 671.268 333.982 653.964C328.297 653.595 322.129 653.009 316.575 651.745C315.339 652.241 312.595 674.497 312.076 677.81L296.307 777.663L291.932 808.743C291.127 814.484 290.692 820.555 289.126 826.136C294.552 826.864 301.743 827.833 307.065 828.292Z" fill="#E82E3B"/>
<path d="M318.56 715.806C322.209 714.02 321.872 707.348 317.295 708.706C313.557 711.196 314.283 715.097 318.56 715.806Z" fill="#010101"/>
<path d="M323.811 703.447C327.106 701.224 326.81 695.599 322.586 694.848C317.572 696.382 319.683 701.991 323.811 703.447Z" fill="#010101"/>
<path d="M319.951 727.949C324.452 727.314 322.397 720.28 318.878 719.111C314.162 721.652 315.757 726.175 319.951 727.949Z" fill="#010101"/>
<path d="M325.044 688.94C329.106 686.889 328.686 680.655 323.819 680.088C321.256 681.829 321.443 683.839 321.849 686.689C322.822 687.999 323.285 688.83 325.044 688.94Z" fill="#010101"/>
<path d="M317.047 745.998C320.23 743.717 318.896 737.188 314.649 736.083C308.69 737.443 314.152 744.405 317.047 745.998Z" fill="#010101"/>
<path d="M306.388 814.12C310.777 812.181 308.767 805.797 305.599 803.722C302.61 804.198 300.476 811.894 306.388 814.12Z" fill="#010101"/>
<path d="M312.849 766.015C317.904 763.593 315.423 756.675 311.365 754.328C308.187 754.81 310.344 763.294 312.849 766.015Z" fill="#010101"/>
<path d="M311.765 787.433C313.878 785.404 314.444 776.545 309.647 775.938C304.914 780.264 306.152 785.043 311.765 787.433Z" fill="#010101"/>
<path d="M326.289 674.829C331.439 673.22 330.903 665.167 326.505 664.344C321.485 666.74 321.085 671.816 326.289 674.829Z" fill="#010101"/>
</g>
</g>
<defs>
<clipPath id="clip0_611_202407">
<rect width="1080" height="1080" fill="white"/>
</clipPath>
<clipPath id="clip1_611_202407">
<rect width="555.339" height="555.339" fill="white" transform="matrix(0.935278 -0.353915 -0.353915 -0.935278 347.293 1105.55)"/>
</clipPath>
</defs>
</svg>
