<svg width="1080" height="1080" viewBox="0 0 1080 1080" fill="none" xmlns="http://www.w3.org/2000/svg">
<g clip-path="url(#clip0_473_559)">
<g clip-path="url(#clip1_473_559)">
<path d="M830.242 662.934C834.042 656.888 837.725 650.765 841.666 644.816C848.538 634.442 855.384 624.042 862.593 613.902C867.691 606.724 873.562 600.099 878.72 592.964C883.108 586.903 886.749 580.304 891.131 574.239C897.394 565.572 904.032 557.177 910.503 548.66C919.022 537.445 927.56 526.247 936.048 515.003C944.48 503.832 952.73 492.516 961.307 481.461C967.056 474.053 973.27 467.009 979.23 459.764C981.109 457.476 982.849 455.075 984.65 452.722C993.159 441.606 1001.56 430.405 1010.25 419.429C1012.44 416.656 1015.33 414.246 1018.31 412.312C1024.31 408.415 1030.68 408.472 1036.63 412.472C1042.66 416.522 1046.22 421.883 1045.35 429.721C1044.63 436.229 1041 441.202 1037.71 446.386C1033.08 453.675 1028.36 460.915 1023.48 468.039C1020.83 471.901 1017.71 475.436 1014.9 479.199C1005.35 492.016 995.698 504.755 986.382 517.741C979.994 526.641 974.117 535.905 967.997 544.993C958.646 558.871 949.367 572.8 939.899 586.596C928.427 603.308 916.831 619.929 905.207 636.536C893.723 652.942 882.179 669.304 870.554 685.613C868.997 687.799 869.009 689.424 870.569 691.499C871.635 692.917 872.454 694.608 873.025 696.295C874.085 699.448 873.831 702.463 871.325 704.996C865.782 710.608 861.615 717.548 854.896 722.018C853.887 722.691 852.723 723.128 851.652 723.723C851.107 724.022 850.448 724.31 850.123 724.791C846.218 730.576 842.281 736.347 838.523 742.227C833.916 749.435 829.466 756.742 824.951 764.007C824.17 765.27 823.501 766.611 822.635 767.806C821.277 769.683 820.296 771.397 820.788 774.03C821.106 775.744 820.368 778.05 819.329 779.558C814.202 787.015 808.929 794.381 803.492 801.608C797.805 809.171 791.849 816.531 786.054 824.014C785.052 825.307 784.209 826.74 783.391 828.167C782.45 829.807 781.917 831.317 782.845 833.416C783.946 835.908 783.408 838.668 781.633 840.879C777.663 845.828 773.828 850.92 769.497 855.544C765.519 859.792 760.426 862.045 754.361 861.324C753.796 861.259 753.185 861.557 752.595 861.688C750.384 862.195 748.133 863.271 745.972 863.115C732.011 862.091 720.737 856.293 713.18 844.071C710.358 839.507 707.445 835.043 706.38 829.657C706.254 829.025 705.594 828.423 705.046 827.97C701.361 824.914 700.537 821.949 703.088 817.814C706.237 812.706 709.699 807.767 713.316 802.971C715.99 799.433 718.952 796.067 722.113 792.953C724.693 790.409 727.71 788.291 731.577 787.918C732.207 787.859 733.005 787.411 733.364 786.897C737.767 780.54 741.903 773.99 746.505 767.784C751.299 761.311 756.577 755.198 761.52 748.835C762.855 747.119 763.686 745.017 764.862 743.167C765.805 741.684 766.848 740.245 767.981 738.899C769.721 736.837 771.73 734.982 773.361 732.836C778.886 725.545 784.329 718.195 789.73 710.818C793.817 705.233 797.81 699.583 801.779 693.916C802.119 693.432 801.949 692.607 802.082 691.953C802.489 689.928 802.355 687.489 803.461 685.962C807.614 680.227 812.115 674.739 816.596 669.251C819.673 665.482 823.627 663.373 828.644 663.647C829.293 663.68 829.949 663.525 830.603 663.461C830.486 663.283 830.362 663.101 830.245 662.923L830.242 662.934ZM861.336 679.436C864.054 675.817 867.063 671.997 869.878 668.04C881.727 651.392 893.421 634.634 905.366 618.057C914.952 604.757 924.899 591.717 934.531 578.443C939.551 571.523 944.156 564.301 949.098 557.322C956.793 546.449 964.769 535.766 972.339 524.802C978.269 516.214 983.804 507.349 989.439 498.554C992.052 494.477 994.236 490.109 997.034 486.17C1008.29 470.307 1019.7 454.567 1031.05 438.776C1032.96 436.123 1034.27 433.259 1034.36 429.894C1034.46 426.432 1033.19 423.792 1030.1 422.154C1026.97 420.49 1023.83 420.444 1021.18 422.993C1017.38 426.642 1013.39 430.18 1010.14 434.282C1001.34 445.393 992.846 456.739 984.318 468.057C976.14 478.918 968.108 489.891 959.949 500.768C951.595 511.903 943.17 522.982 934.779 534.084C924.994 547.031 915.097 559.9 905.462 572.962C898.381 582.566 891.645 592.422 884.76 602.173C879.25 609.976 873.716 617.77 868.248 625.606C860.989 635.994 853.765 646.401 846.565 656.828C844.435 659.911 842.452 663.095 840.599 665.929C848.088 670.809 855.097 675.369 861.336 679.436ZM765.767 796.503C769.229 791.416 772.64 786.183 776.284 781.12C779.267 776.977 782.524 773.029 785.673 769.003C786.773 767.593 788.142 766.553 789.898 767.712C791.695 768.899 791.418 770.644 790.527 772.309C790.104 773.104 789.552 773.835 789.039 774.582C783.701 782.416 778.333 790.226 773.042 798.091C770.995 801.137 771.082 801.24 774.171 803.515C774.401 803.306 774.676 803.117 774.866 802.861C781.083 794.537 787.29 786.211 793.501 777.878C794.832 776.092 795.964 774.105 797.553 772.589C798.373 771.808 800.255 771.274 801.161 771.693C802.078 772.121 802.814 773.85 802.846 775.036C802.879 776.222 802.134 777.564 801.411 778.618C798.757 782.496 796.057 786.349 793.214 790.095C788.974 795.675 784.568 801.138 780.305 806.703C779.732 807.453 779.561 808.515 779.204 809.432C779.442 809.555 779.679 809.673 779.916 809.796C780.286 809.528 780.701 809.311 781.02 808.992C783.984 806.03 787.011 803.126 789.838 800.036C790.96 798.809 791.623 797.166 792.503 795.721C793.904 793.42 795.218 791.061 796.751 788.855C797.772 787.385 799.189 786.188 800.292 784.768C802.152 782.362 803.94 779.896 805.676 777.405C805.996 776.944 806.258 776.056 806.034 775.658C803.919 771.974 802.446 767.405 799.328 764.914C792.807 759.702 785.414 755.58 778.339 751.069C777.675 750.645 776.736 750.358 775.981 750.448C774.761 750.589 773.056 750.708 772.472 751.505C769.482 755.615 766.555 759.813 764.052 764.231C762.158 767.574 760.982 771.315 759.398 774.836C758.519 776.781 757.004 777.65 754.776 777.215C754.17 777.097 753.131 777.281 752.848 777.703C750.584 781.092 748.455 784.574 746.394 787.845C753.024 790.815 759.264 793.613 765.746 796.522L765.767 796.503ZM801.044 715.511C809.866 717.291 816.414 722.315 821.958 728.896C822.32 729.327 822.818 729.659 823.298 729.974C825.591 731.478 826.449 733.505 825.825 736.05C825.123 738.919 822.683 739.913 820.425 738.038C819.192 737.013 818.168 735.627 817.354 734.228C813.722 727.971 808.121 724.303 801.463 722.102C796.851 720.582 796.794 720.725 794.446 725.081C794.377 725.212 794.409 725.392 794.395 725.542C794.449 725.611 794.483 725.7 794.543 725.723C794.927 725.867 795.317 725.993 795.707 726.12C802.706 728.428 809.193 731.462 813.227 738.127C813.573 738.698 814.436 738.934 815.006 739.393C816.176 740.335 817.502 741.173 818.418 742.329C819.975 744.293 821.269 746.472 822.946 748.963C823.588 747.809 823.967 747.119 824.352 746.438C826.708 742.293 829.001 738.109 831.444 734.017C833.255 730.979 835.354 728.11 837.119 725.047C837.521 724.347 837.444 722.872 836.952 722.25C834.159 718.711 831.404 715.089 828.201 711.938C824.273 708.072 819.987 704.528 814.636 702.659C810.773 701.312 809.734 701.865 808.375 706.114C810.193 706.32 811.957 706.634 813.725 706.699C816.701 706.808 818.924 707.952 820.297 710.687C820.613 711.314 821.29 712.12 821.875 712.186C825.321 712.562 827.441 714.779 829.492 717.217C830.932 718.932 831.526 720.806 829.893 722.523C828.344 724.157 826.367 723.498 824.654 722.547C823.975 722.171 823.299 721.517 822.974 720.826C821.734 718.22 819.776 717.209 816.902 717.225C813.845 717.239 811.267 716.113 810.09 712.908C809.919 712.448 809.398 711.979 808.927 711.783C804.655 710.02 802.993 710.762 801.044 715.511ZM853.405 711.624C853.677 711.765 853.949 711.906 854.225 712.046C857.335 709.544 859.909 706.628 861.312 702.79C861.894 701.194 861.78 699.857 860.576 698.508C856.955 694.458 853.541 690.213 849.838 686.235C844.56 680.575 837.647 677.608 830.427 675.432C826.955 674.389 825.063 675.264 823.559 678.567C821.814 682.415 820.593 686.498 819.184 690.383C822.948 692.498 822.975 692.457 824.97 689.478C826.068 687.841 827.234 686.236 828.495 684.722C830.281 682.569 832.267 682.074 833.829 683.223C835.295 684.3 835.283 686.618 833.972 688.845C832.692 691.024 831.556 693.291 830.22 695.785C832.004 696.787 833.52 697.638 834.481 698.177C836.665 695.21 838.605 692.555 840.559 689.913C841.378 688.809 842.454 687.555 843.782 688.576C844.857 689.396 845.914 690.921 845.977 692.182C846.041 693.473 845.005 694.895 844.238 696.13C842.855 698.351 841.315 700.473 839.766 702.744C840.859 703.702 841.761 704.496 842.772 705.38C843.152 704.669 843.384 704.151 843.685 703.675C845.185 701.338 846.373 698.687 848.294 696.77C850.852 694.215 854.559 694.709 857.12 697.32C859.38 699.624 859.395 702.366 857.135 705.339C856.586 706.059 855.803 706.625 855.37 707.397C854.618 708.75 854.054 710.211 853.416 711.627L853.405 711.624ZM813.788 762.179C817.169 757.489 817.005 755.637 813.466 751.838C810.694 748.866 807.328 746.304 806.484 741.914C806.31 741.024 805.548 740.145 804.849 739.481C800.731 735.573 796.078 732.529 790.534 731.049C789.93 730.89 789.003 731.006 788.545 731.383C785.329 734.058 783.637 737.794 781.426 741.344C793.57 746.533 804.539 752.86 813.788 762.179ZM764.32 826.539C764.202 826.21 764.185 825.935 764.036 825.774C761.721 823.254 759.558 820.561 757.027 818.272C749.663 811.592 741.398 806.239 732.192 802.425C730.273 801.628 728.465 801.86 727.199 803.763C726.469 804.859 725.656 805.917 725.094 807.094C724.441 808.462 723.401 810.137 725.124 811.309C726.571 812.294 728.185 812.912 729.99 811.266C732.371 809.102 737.572 809.778 737.684 814.32C737.7 814.938 737.979 815.553 738.16 816.259C742.516 815.067 745.678 816.619 748.148 819.992C749.353 821.639 750.62 822.707 753.051 822.014C755.653 821.27 757.814 822.846 758.556 825.317C758.881 826.402 759.254 827.478 759.604 828.558C760.739 828.107 761.877 827.665 763.005 827.2C763.448 827.018 763.867 826.769 764.32 826.539ZM722.706 836.511C724.906 834.354 726.683 834.685 728.483 836.498C729.084 837.107 730.117 837.263 730.861 837.756C732.836 839.068 734.908 840.288 736.671 841.851C738.701 843.651 738.324 845.943 735.511 850.496C737.701 850.717 739.697 850.983 741.704 851.1C746.419 851.381 747.564 849.699 745.644 845.414C745.513 845.123 745.267 844.885 745.108 844.605C742.456 840.036 738.856 836.482 734.294 833.732C730.114 831.213 725.816 829.597 720.873 829.832C719.466 829.9 718.947 830.204 719.768 831.561C720.696 833.094 721.608 834.645 722.714 836.504L722.706 836.511ZM750.385 800.261C750.187 800.625 749.993 800.984 749.795 801.348C753.733 805.045 758.52 807.586 762.984 810.568C763.347 810.812 764.257 810.245 764.911 810.06C764.622 809.538 764.455 808.85 764.021 808.514C761.946 806.91 759.884 805.248 757.644 803.9C755.33 802.512 752.813 801.464 750.386 800.266L750.385 800.261ZM767.095 834.677C767.295 834.883 767.494 835.09 767.689 835.298C768.573 834.61 769.509 833.972 770.311 833.205C770.51 833.017 770.291 832.395 770.264 831.971C769.852 832.006 769.264 831.879 769.058 832.104C768.331 832.895 767.74 833.806 767.095 834.677Z" fill="black"/>
<path d="M903.691 474.401C906.321 473.475 908.502 475.098 909.99 477.141C913.888 482.505 917.559 488.046 921.116 493.647C922.456 495.756 921.66 498.271 919.782 500.104C917.867 501.975 915.893 501.452 913.925 500.316C913.081 499.828 912.195 499.262 911.593 498.522C906.963 492.845 902.688 486.922 900.067 480.002C898.966 477.089 900.345 474.925 903.686 474.402L903.691 474.401Z" fill="black"/>
<path d="M861.1 570.812C861.495 573.289 860.884 575.209 859.006 576.476C857.107 577.762 855.046 577.303 853.536 575.891C850.9 573.431 848.478 570.736 846.046 568.068C843.176 564.914 840.411 561.658 837.562 558.484C836.426 557.217 835.525 555.548 836.671 554.311C837.837 553.049 839.73 552.103 841.442 551.821C842.694 551.613 844.448 552.373 845.482 553.267C850.996 558.06 856.47 562.926 860.313 569.276C860.651 569.833 860.911 570.437 861.099 570.808L861.1 570.812Z" fill="black"/>
<path d="M900.189 680.589C900.97 680.918 902.659 681.191 903.712 682.152C907.889 685.977 911.923 689.967 915.884 694.023C916.731 694.89 917.484 696.261 917.523 697.431C917.643 700.909 914.082 703.211 911.453 701.053C906.474 696.97 901.761 692.482 897.449 687.705C895.128 685.13 896.623 681.223 900.189 680.589Z" fill="black"/>
<path d="M798.029 639.706C801.16 639.733 804.766 639.662 808.363 639.84C810.723 639.955 812.382 641.969 812.448 644.326C812.519 646.924 811.274 648.733 808.886 649.17C807.283 649.465 805.614 649.415 803.993 649.648C801.399 650.016 798.798 650.396 796.238 650.934C793.282 651.554 790.437 650.487 789.526 648.228C788.635 646.016 789.961 643.104 792.69 641.722C794.211 640.954 795.892 640.501 798.034 639.705L798.029 639.706Z" fill="black"/>
<path d="M963.252 594.737C965.109 595.304 967.289 595.355 968.523 596.46C972.487 600.011 976.142 603.907 979.824 607.758C981.519 609.532 981.289 611.505 979.746 613.315C978.216 615.116 976.336 615.074 974.396 614.099C973.595 613.698 972.8 613.205 972.144 612.597C968.888 609.584 965.645 606.557 962.467 603.457C960.726 601.758 959.553 599.751 960.916 597.286C961.395 596.419 962.278 595.772 963.251 594.732L963.252 594.737Z" fill="black"/>
<path d="M1037.67 508.439C1033.94 508.031 1030.17 507.796 1026.49 507.12C1025.18 506.88 1023.83 505.767 1022.92 504.703C1020.97 502.425 1022.01 499.02 1025 498.606C1029.6 497.972 1034.29 497.692 1038.93 497.791C1042.01 497.859 1043.24 499.384 1043.44 501.74C1043.65 504.229 1042.1 506.554 1039.62 507.446C1039 507.669 1038.35 507.813 1037.72 507.993C1037.7 508.144 1037.69 508.289 1037.67 508.439Z" fill="black"/>
<path d="M975.699 568.553C975.218 565.801 976.085 563.606 977.956 562.846C980.508 561.809 983.158 562.572 984.685 564.901C986.029 566.954 987.261 569.081 988.552 571.17C989.72 573.057 989.268 574.839 988.067 576.446C986.83 578.097 985.046 577.929 983.35 577.379C980.141 576.337 976.278 571.801 975.704 568.552L975.699 568.553Z" fill="black"/>
<path d="M958.936 428.342C958.515 425.517 958.386 423.643 960.69 422.698C963.091 421.712 964.536 422.026 965.901 424.378C967.427 426.996 968.728 429.75 969.993 432.502C971.008 434.699 970.162 437.123 968.193 438.216C966.324 439.254 963.597 438.537 962.463 436.35C960.998 433.513 959.867 430.506 958.932 428.348L958.936 428.342Z" fill="black"/>
<path d="M880.205 535.709C881.13 533.896 881.539 532.128 882.649 531.156C884.204 529.794 886.3 530.251 887.468 531.891C889.645 534.945 891.633 538.16 893.448 541.445C894.447 543.251 892.917 544.557 891.704 545.642C890.431 546.774 888.721 546.843 887.681 545.602C885.135 542.548 882.86 539.266 880.206 535.714L880.205 535.709Z" fill="black"/>
<path d="M939.951 650.865C939.125 652.426 938.796 654.04 937.847 654.59C936.772 655.211 934.774 655.456 933.82 654.849C930.225 652.573 928.138 648.949 926.933 644.971C926.648 644.029 927.617 642.035 928.541 641.561C929.703 640.968 932.074 640.818 932.763 641.56C935.348 644.333 937.457 647.548 939.95 650.86L939.951 650.865Z" fill="black"/>
<path d="M840.112 611.875C839.731 612.651 839.38 614.382 838.322 615.211C837.36 615.966 835.212 616.388 834.315 615.815C831.733 614.159 829.208 612.187 827.254 609.846C825.421 607.655 827.187 604.592 830.08 604.253C833.127 603.898 839.205 608.114 840.111 611.87L840.112 611.875Z" fill="black"/>
<path d="M939.472 463.111C938.77 459.757 939.779 457.588 942.431 457.253C943.584 457.106 945.384 457.6 945.983 458.442C947.535 460.624 948.701 463.113 949.782 465.584C950.521 467.282 949.899 469.094 948.334 469.866C947.181 470.433 945.388 470.514 944.205 470.025C941.164 468.767 940.453 465.663 939.467 463.112L939.472 463.111Z" fill="black"/>
<path d="M1013.02 550.63C1012.35 550.415 1010.89 550.256 1009.8 549.53C1007.69 548.125 1005.72 546.49 1003.84 544.79C1002.21 543.316 1002.51 541.499 1003.7 539.91C1004.95 538.242 1006.57 538.136 1008.23 539.38C1010.78 541.29 1013.55 542.994 1015.79 545.222C1017.81 547.242 1016.62 549.894 1013.03 550.634L1013.02 550.63Z" fill="black"/>
<path d="M861.338 679.436C855.093 675.37 848.089 670.804 840.601 665.929C842.454 663.095 844.438 659.916 846.567 656.828C853.767 646.401 860.996 635.993 868.249 625.605C873.724 617.774 879.252 609.981 884.762 602.172C891.646 592.422 898.382 582.566 905.464 572.962C915.094 559.901 924.991 547.032 934.781 534.084C943.171 522.982 951.602 511.902 959.951 500.768C968.109 489.891 976.142 478.918 984.32 468.057C992.847 456.734 1001.34 445.388 1010.14 434.282C1013.39 430.179 1017.39 426.641 1021.18 422.993C1023.84 420.444 1026.97 420.49 1030.1 422.153C1033.19 423.791 1034.46 426.431 1034.37 429.893C1034.28 433.258 1032.96 436.123 1031.05 438.775C1019.71 454.567 1008.29 470.312 997.036 486.17C994.238 490.113 992.053 494.476 989.44 498.554C983.805 507.349 978.271 516.214 972.34 524.802C964.771 535.765 956.799 546.448 949.1 557.321C944.157 564.3 939.553 571.523 934.533 578.442C924.9 591.712 914.952 604.752 905.367 618.057C893.423 634.634 881.73 651.396 869.88 668.039C867.065 671.997 864.055 675.817 861.338 679.436Z" fill="#33FFF5"/>
<path d="M765.767 796.502C759.287 793.598 753.046 790.8 746.415 787.825C748.472 784.555 750.605 781.072 752.87 777.683C753.152 777.261 754.191 777.077 754.797 777.195C757.026 777.63 758.541 776.762 759.419 774.816C761.004 771.295 762.184 767.553 764.074 764.212C766.576 759.793 769.498 755.596 772.494 751.486C773.073 750.689 774.783 750.569 776.003 750.429C776.764 750.342 777.703 750.629 778.361 751.049C785.43 755.561 792.824 759.683 799.349 764.894C802.467 767.385 803.936 771.955 806.055 775.638C806.283 776.031 806.022 776.924 805.698 777.385C803.956 779.877 802.175 782.347 800.314 784.748C799.212 786.173 797.799 787.364 796.772 788.835C795.24 791.041 793.926 793.4 792.524 795.701C791.644 797.146 790.983 798.794 789.859 800.017C787.032 803.102 784.005 806.006 781.041 808.973C780.723 809.291 780.308 809.513 779.938 809.776C779.7 809.654 779.463 809.536 779.226 809.413C779.583 808.495 779.753 807.434 780.327 806.683C784.59 801.118 788.991 795.661 793.235 790.075C796.079 786.334 798.778 782.477 801.432 778.598C802.155 777.544 802.9 776.203 802.868 775.016C802.837 773.835 802.101 772.106 801.182 771.674C800.277 771.254 798.39 771.79 797.574 772.569C795.986 774.085 794.853 776.072 793.522 777.858C787.316 786.19 781.105 794.517 774.887 802.841C774.696 803.093 774.421 803.281 774.192 803.495C771.109 801.219 771.017 801.117 773.064 798.071C778.355 790.206 783.723 782.397 789.06 774.563C789.569 773.816 790.126 773.084 790.548 772.289C791.434 770.626 791.711 768.88 789.919 767.693C788.163 766.533 786.795 767.574 785.695 768.983C782.545 773.01 779.289 776.957 776.305 781.101C772.657 786.165 769.245 791.397 765.788 796.483L765.767 796.502Z" fill="white"/>
<path d="M801.046 715.511C802.995 710.762 804.652 710.021 808.93 711.782C809.4 711.979 809.926 712.446 810.092 712.908C811.269 716.112 813.844 717.245 816.904 717.225C819.778 717.209 821.736 718.22 822.976 720.826C823.306 721.516 823.982 722.17 824.656 722.547C826.369 723.498 828.346 724.157 829.895 722.523C831.527 720.801 830.935 718.932 829.494 717.217C827.448 714.778 825.328 712.561 821.877 712.186C821.293 712.124 820.61 711.315 820.299 710.687C818.926 707.952 816.703 706.808 813.727 706.699C811.954 706.635 810.195 706.32 808.377 706.113C809.736 701.865 810.775 701.312 814.638 702.659C819.99 704.528 824.275 708.072 828.203 711.938C831.406 715.089 834.161 718.711 836.954 722.25C837.441 722.872 837.518 724.348 837.121 725.046C835.356 728.11 833.262 730.978 831.446 734.017C829.003 738.109 826.71 742.293 824.354 746.438C823.964 747.12 823.585 747.81 822.948 748.962C821.271 746.472 819.978 744.293 818.42 742.329C817.504 741.173 816.179 740.339 815.008 739.393C814.438 738.934 813.575 738.698 813.23 738.127C809.195 731.462 802.709 728.427 795.709 726.12C795.319 725.993 794.933 725.861 794.545 725.723C794.485 725.7 794.452 725.611 794.397 725.541C794.411 725.392 794.379 725.211 794.448 725.081C796.791 720.721 796.852 720.577 801.465 722.102C808.122 724.298 813.723 727.966 817.356 734.228C818.17 735.627 819.194 737.013 820.427 738.038C822.685 739.913 825.126 738.924 825.828 736.05C826.452 733.51 825.594 731.483 823.3 729.974C822.821 729.659 822.322 729.327 821.96 728.896C816.417 722.32 809.869 717.296 801.046 715.511Z" fill="white"/>
<path d="M853.408 711.624C854.051 710.207 854.61 708.747 855.363 707.394C855.795 706.622 856.579 706.056 857.128 705.336C859.393 702.367 859.373 699.621 857.113 697.317C854.551 694.706 850.844 694.212 848.286 696.767C846.366 698.684 845.178 701.335 843.677 703.672C843.375 704.144 843.144 704.666 842.765 705.377C841.758 704.492 840.851 703.699 839.759 702.741C841.307 700.465 842.847 698.343 844.23 696.127C844.997 694.892 846.039 693.469 845.97 692.179C845.907 690.918 844.845 689.398 843.775 688.573C842.447 687.553 841.364 688.802 840.551 689.91C838.599 692.557 836.653 695.208 834.473 698.175C833.512 697.635 831.997 696.784 830.212 695.783C831.55 693.293 832.685 691.026 833.964 688.842C835.275 686.615 835.283 684.298 833.821 683.22C832.26 682.071 830.273 682.566 828.487 684.719C827.228 686.238 826.061 687.838 824.962 689.475C822.967 692.454 822.944 692.489 819.177 690.38C820.587 686.5 821.802 682.413 823.552 678.564C825.05 675.262 826.948 674.386 830.42 675.429C837.644 677.604 844.552 680.572 849.831 686.232C853.537 690.204 856.946 694.45 860.569 698.505C861.777 699.853 861.892 701.195 861.305 702.787C859.903 706.63 857.328 709.541 854.218 712.043C853.946 711.902 853.674 711.761 853.397 711.621L853.408 711.624Z" fill="white"/>
<path d="M813.788 762.179C804.539 752.859 793.575 746.527 781.426 741.344C783.637 737.794 785.33 734.058 788.545 731.383C788.999 731.007 789.929 730.885 790.535 731.049C796.079 732.529 800.736 735.572 804.85 739.481C805.548 740.145 806.311 741.024 806.484 741.914C807.329 746.304 810.694 748.866 813.466 751.837C817.01 755.636 817.17 757.488 813.788 762.179Z" fill="white"/>
<path d="M764.323 826.539C763.87 826.769 763.45 827.017 763.008 827.2C761.881 827.67 760.742 828.107 759.606 828.558C759.257 827.478 758.884 826.402 758.559 825.317C757.817 822.846 755.656 821.27 753.053 822.014C750.622 822.707 749.355 821.639 748.151 819.992C745.681 816.619 742.523 815.066 738.163 816.258C737.982 815.553 737.703 814.938 737.687 814.319C737.574 809.773 732.372 809.097 729.993 811.266C728.187 812.907 726.573 812.289 725.127 811.309C723.404 810.137 724.449 808.461 725.097 807.094C725.658 805.917 726.472 804.859 727.202 803.763C728.469 801.864 730.276 801.628 732.195 802.425C741.402 806.244 749.665 811.591 757.03 818.272C759.555 820.562 761.724 823.254 764.039 825.774C764.183 825.936 764.204 826.21 764.323 826.539Z" fill="white"/>
<path d="M722.707 836.511C721.601 834.652 720.694 833.1 719.761 831.568C718.94 830.211 719.459 829.907 720.866 829.839C725.808 829.598 730.107 831.219 734.287 833.739C738.848 836.483 742.448 840.038 745.101 844.612C745.265 844.891 745.511 845.129 745.637 845.421C747.562 849.705 746.412 851.388 741.697 851.106C739.69 850.989 737.693 850.719 735.504 850.503C738.318 845.955 738.694 843.658 736.664 841.857C734.901 840.295 732.829 839.074 730.854 837.763C730.11 837.269 729.082 837.112 728.476 836.504C726.676 834.692 724.899 834.361 722.699 836.518L722.707 836.511Z" fill="white"/>
<path d="M750.387 800.261C752.814 801.459 755.331 802.507 757.645 803.895C759.89 805.242 761.947 806.905 764.022 808.509C764.456 808.845 764.622 809.528 764.913 810.055C764.259 810.245 763.349 810.812 762.985 810.563C758.526 807.58 753.735 805.04 749.796 801.343C749.994 800.979 750.188 800.62 750.386 800.256L750.387 800.261Z" fill="white"/>
<path d="M767.098 834.677C767.744 833.811 768.334 832.895 769.061 832.103C769.267 831.879 769.855 832.005 770.267 831.971C770.294 832.395 770.513 833.017 770.314 833.205C769.507 833.973 768.576 834.61 767.691 835.297C767.492 835.091 767.293 834.884 767.098 834.677Z" fill="white"/>
</g>
<path d="M267.334 705.919C271.539 710.217 275.741 714.462 279.883 718.77C281.152 720.093 282.182 721.643 283.454 722.958C283.928 723.447 284.79 723.831 285.461 723.81C287.546 723.742 288.968 724.494 290.283 726.184C292.2 728.643 294.599 730.721 296.602 733.119C301.335 738.793 306.588 744.018 310.723 750.223C312.287 752.572 314.964 754.158 317.031 756.197C324.366 763.439 332.043 770.353 338.198 778.714C339.385 780.325 340.764 781.876 342.329 783.112C344.499 784.83 344.766 786.962 344.139 789.307C343.84 790.426 344.104 791.046 344.834 791.791C348.601 795.647 352.344 799.529 356.065 803.428C357.807 805.256 358.292 807.444 357.415 809.804C355.826 814.077 353.434 817.83 350.095 820.998C343.843 826.933 336.876 831.776 328.924 835.137C327.295 835.825 325.56 836.27 323.86 836.78C321.821 837.389 320.071 836.698 318.71 835.237C315.035 831.291 311.439 827.275 307.825 823.272C306.955 822.31 306.221 821.369 304.649 821.355C303.883 821.348 302.996 820.51 302.379 819.847C298.359 815.506 294.424 811.08 290.407 806.735C286.872 802.911 283.301 799.119 279.673 795.383C275.257 790.836 270.766 786.366 266.307 781.861C261.56 777.064 256.791 772.288 252.083 767.456C250.208 765.531 250.062 762.993 251.723 760.869C252.44 759.953 252.497 759.23 251.841 758.367C250.622 756.767 249.439 755.135 248.152 753.588C244.663 749.407 241.127 745.262 237.609 741.103C236.968 740.347 236.437 739.945 235.236 740.44C232.107 741.741 228.197 740.583 225.941 737.888C221.226 732.253 216.549 726.586 211.845 720.941C209.799 718.485 207.718 716.058 205.647 713.62C205.458 713.396 205.241 713.186 205.002 713.011C202.35 711.058 202.19 708.485 204.767 706.464C206.043 705.462 206.317 704.878 205.166 703.424C201.342 698.594 197.888 693.469 194.007 688.686C188.668 682.111 183.129 675.692 177.562 669.308C173.984 665.206 170.174 661.307 166.514 657.273C165.523 656.182 164.65 654.97 163.801 653.762C159.838 648.099 155.091 643.188 149.855 638.683C147.318 636.501 145.122 633.903 142.898 631.38C139.22 627.21 135.571 623.004 132.046 618.706C127.612 613.299 123.471 607.647 118.919 602.347C110.166 592.15 101.234 582.107 92.3171 572.049C90.5565 570.064 88.5178 568.324 86.6324 566.446C82.2237 562.059 78.4102 557.24 76.4321 551.246C75.2453 547.653 74.5325 543.896 73.2066 540.361C70.6298 533.493 72.4938 527.527 76.9418 522.362C81.3933 517.18 87.2134 515.006 94.174 516.425C100.311 517.672 105.215 520.937 109.335 525.445C117.127 533.974 124.839 542.571 132.534 551.185C139.045 558.47 145.496 565.805 151.962 573.132C158.858 580.948 165.733 588.779 172.622 596.598C177.833 602.514 183.165 608.327 188.237 614.358C195.169 622.602 201.915 631.006 208.73 639.345C211.838 643.152 214.81 647.079 218.057 650.761C221.896 655.116 225.984 659.251 229.933 663.513C232.306 666.076 234.651 668.674 236.939 671.311C237.784 672.284 238.451 672.648 239.773 671.978C242.303 670.695 245.75 672.791 246.872 675.346C247.624 677.057 249.424 678.336 250.843 679.716C256.442 685.169 262.223 690.44 267.63 696.075C270.228 698.783 269.95 701.756 267.818 704.988C267.69 705.184 267.597 705.402 267.334 705.915V705.919ZM232.887 678.194C228.892 673.977 225.249 669.85 221.29 666.044C218.2 663.075 215.32 660.035 212.886 656.464C209.728 651.83 206.46 647.165 202.578 643.155C196.302 636.672 190.261 630.054 185.107 622.63C183.258 619.968 181.169 617.466 179.102 614.964C177.94 613.56 176.564 612.337 175.356 610.968C173.795 609.201 172.384 607.294 170.766 605.583C167.312 601.923 163.727 598.387 160.269 594.731C154.417 588.54 148.59 582.321 142.813 576.058C138.001 570.844 133.19 565.63 128.549 560.263C125.812 557.094 123.324 553.694 120.883 550.287C116.392 544.018 110.629 538.982 105.141 533.675C102.717 531.33 100.457 528.778 97.8378 526.678C90.6277 520.894 83.7669 525.003 81.2792 530.877C79.7574 534.473 80.488 537.969 81.8708 541.377C83.1931 544.641 84.6009 547.874 86.1263 551.046C86.914 552.682 87.8977 554.271 89.0346 555.686C92.1211 559.514 95.4178 563.174 98.4829 567.016C103.465 573.268 108.042 579.865 113.313 585.856C119.304 592.667 125.31 599.389 130.506 606.888C134.533 612.697 139.534 617.851 144.288 623.129C149.085 628.45 154.079 633.6 159.051 638.761C162.123 641.951 165.377 644.962 168.435 648.167C169.86 649.656 170.93 651.481 172.302 653.031C176.817 658.135 181.415 663.168 185.938 668.264C187.192 669.676 188.294 671.226 189.473 672.705C191.911 675.759 194.135 679.021 196.84 681.818C201.776 686.922 207.023 691.726 212.084 696.716C213.057 697.675 213.695 697.564 214.571 696.677C217.857 693.352 221.197 690.083 224.49 686.765C227.199 684.039 229.872 681.277 232.884 678.201L232.887 678.194ZM287.175 733.323C286.344 734.37 285.756 735.179 285.101 735.931C283.853 737.364 283.233 738.726 284.947 740.319C285.845 741.156 286.434 742.322 287.307 743.195C294.221 750.109 301.289 756.874 308.071 763.913C313.16 769.195 317.961 774.762 322.766 780.311C324.822 782.681 326.554 785.319 329.494 786.766C330.692 787.357 330.656 788.266 330.168 789.456C329.331 791.499 327.548 792.108 325.745 792.607C325.043 792.8 323.913 792.618 323.414 792.147C321.75 790.568 320.274 788.786 318.749 787.065C312.465 779.987 306.25 772.852 299.891 765.845C296.634 762.252 293.162 758.848 289.72 755.43C286.911 752.643 283.978 749.985 281.148 747.219C280.104 746.196 279.206 745.03 278.372 744.079C276.775 745.615 275.503 746.834 274.123 748.163C277.203 752.212 281.052 755.345 285.742 757.433C287.97 758.424 288.9 759.885 288.155 761.664C287.781 762.559 287.089 763.325 286.295 764.519C286.637 764.747 287.114 764.993 287.506 765.338C290.219 767.726 292.991 770.054 295.6 772.552C299.92 776.69 304.204 780.874 308.363 785.172C311.86 788.786 315.16 792.589 318.556 796.303C320.695 798.637 320.631 799.967 318.243 802.127C316.514 803.691 316.126 803.777 314.308 802.241C312.095 800.366 309.906 798.445 307.889 796.367C305.209 793.605 302.85 790.526 300.102 787.842C294.389 782.261 288.515 776.84 282.698 771.365C279.077 767.954 275.467 764.533 271.789 761.183C269.893 759.458 267.861 757.882 265.862 756.214C263.727 758.064 263.684 758.189 265.737 760.274C267.9 762.469 270.149 764.583 272.359 766.736C276.647 770.916 281.109 774.936 285.183 779.32C291.641 786.267 297.846 793.445 304.136 800.544C305.826 802.451 307.44 804.422 309.047 806.4C309.643 807.134 309.956 807.979 309.083 808.767C308.352 809.422 307.59 809.989 306.585 809.205C305.48 808.346 304.175 807.665 303.274 806.632C297.165 799.618 291.291 792.39 285.033 785.511C279.89 779.858 274.301 774.609 268.948 769.148C266.518 766.668 264.176 764.105 261.809 761.596C260.352 762.68 260.484 763.531 261.635 764.665C267.034 769.993 272.363 775.396 277.705 780.782C279.79 782.884 281.896 784.966 283.914 787.133C289.809 793.466 295.707 799.792 301.509 806.211C303.452 808.36 305.077 810.791 306.898 813.054C307.444 813.731 308.117 814.512 309.119 813.671C310.206 812.758 311.282 811.832 312.316 810.862C316.557 806.899 320.773 802.911 325.007 798.944C328.589 795.587 332.175 792.236 335.781 788.904C336.73 788.027 336.487 787.418 335.66 786.566C333.518 784.356 331.487 782.043 329.423 779.759C326.337 776.341 323.286 772.891 320.171 769.498C314.725 763.564 309.236 757.669 303.773 751.749C300.757 748.484 297.739 745.219 294.763 741.919C292.271 739.157 289.841 736.345 287.186 733.33L287.175 733.323ZM267.936 740.369C268.61 739.585 269.187 738.836 269.843 738.163C272.519 735.4 275.253 732.688 277.876 729.876C278.347 729.374 278.806 728.262 278.564 727.805C277.773 726.308 276.875 724.733 275.624 723.635C271.575 720.096 267.337 716.775 263.207 713.328C262.048 712.362 261.218 712.312 260.099 713.503C254.621 719.316 249.064 725.057 243.519 730.803C241.223 733.18 241.081 734.324 242.888 737.079C243.148 737.475 243.412 737.874 243.704 738.245C246.758 742.083 249.791 745.943 252.903 749.735C253.765 750.786 254.874 751.642 255.868 752.586C255.993 752.469 256.118 752.355 256.246 752.237C255.911 751.809 255.501 751.424 255.255 750.95C254.482 749.468 253.566 748.006 253.131 746.424C252.938 745.722 253.544 744.385 254.193 743.961C255.227 743.288 255.775 744.407 256.31 745.216C257.297 746.713 258.359 748.163 258.93 748.979C260.869 747.45 262.729 746.164 264.354 744.624C265.17 743.851 265.57 742.728 264.768 741.424C264.087 740.315 264.85 739.453 266.175 739.674C266.731 739.766 267.248 740.084 267.94 740.365L267.936 740.369ZM348.594 808.517C348.11 807.957 347.657 807.419 347.194 806.895C345.084 804.5 343.002 802.08 340.835 799.739C340.222 799.076 339.559 798.074 338.333 799.09C336.605 800.519 334.691 801.735 333.012 803.217C327.798 807.822 322.662 812.516 317.487 817.167C316.3 818.233 316.154 819.826 317.195 821.038C319.266 823.45 321.333 825.867 323.45 828.237C323.749 828.572 324.405 828.914 324.776 828.811C326.116 828.437 327.556 828.105 328.675 827.342C331.344 825.521 333.978 823.604 336.394 821.465C340.835 817.538 345.946 814.198 348.591 808.517H348.594ZM240.065 720.111C243.743 716.432 247.314 712.9 250.839 709.322C253.623 706.492 256.353 703.613 259.079 700.729C259.657 700.116 260.555 699.439 259.607 698.484C256.816 695.668 254.09 692.785 251.153 690.126C248.612 687.824 245.8 685.824 243.155 683.629C242.457 683.048 242.047 683.041 241.391 683.689C236.722 688.308 231.996 692.867 227.324 697.482C225.039 699.742 222.829 702.08 220.52 704.45C221.161 705.052 221.568 705.434 222.024 705.865C222.673 705.291 223.225 704.853 223.72 704.357C228.731 699.318 233.76 694.296 238.725 689.21C242.104 685.742 242.656 685.81 246.694 688.832C246.741 688.868 246.794 688.9 246.837 688.939C248.248 690.23 248.344 691.352 246.969 692.685C245.358 694.246 243.537 695.601 241.979 697.208C236.833 702.515 231.732 707.868 226.696 713.278C225.666 714.387 225.47 715.869 226.215 717.53C226.657 717.167 226.996 716.956 227.252 716.668C228.945 714.779 230.549 712.811 232.317 710.994C234.708 708.535 237.31 706.275 239.648 703.769C242.032 701.218 244.15 698.416 246.509 695.839C247.115 695.18 248.291 694.453 249.025 694.61C251.153 695.062 252.661 696.648 253.516 698.58C254.229 700.198 253.138 701.485 252.055 702.65C247.379 707.676 242.72 712.715 238.012 717.794C238.525 718.371 239.195 719.116 240.076 720.107L240.065 720.111ZM222.334 721.853C222.22 721.971 222.106 722.089 221.992 722.206C224.804 725.393 227.612 728.575 230.442 731.783C234.149 727.93 234.356 726.547 232.135 724.548C231.814 725.532 231.437 726.686 231.062 727.841C229.861 727.378 228.66 726.929 227.47 726.444C227.263 726.358 227.113 726.137 226.939 725.977C225.406 724.601 223.874 723.229 222.341 721.853H222.334Z" fill="black"/>
<path d="M169.482 558.666C169.076 558.605 168.659 558.573 168.26 558.473C164.852 557.622 163.993 555.152 166.449 552.636C169.336 549.681 172.398 546.883 175.502 544.157C177.587 542.325 179.814 540.642 182.092 539.06C184.661 537.278 187.049 538.91 187.869 541.89C188.528 544.296 187.217 545.065 185.973 546.16C182.067 549.599 178.157 553.042 174.151 556.364C172.839 557.451 171.218 558.167 169.739 559.054L169.486 558.666H169.482Z" fill="black"/>
<path d="M83.4517 612.53C83.4696 612.473 83.523 611.984 83.7404 611.585C85.9537 607.551 88.6267 603.908 92.6185 601.428C94.3684 600.34 95.3058 600.465 96.5782 602.055C99.0302 605.109 99.6753 604.607 96.4677 608.014C94.3292 610.288 92.2407 612.619 89.9597 614.746C88.6802 615.94 87.0336 616.414 85.1981 615.669C83.9044 615.142 83.3519 614.283 83.4482 612.526L83.4517 612.53Z" fill="black"/>
<path d="M140.062 532.189C140.38 531.611 140.615 530.82 141.132 530.314C144.24 527.238 147.308 524.109 150.598 521.233C153.367 518.809 155.384 519.49 156.489 523.022C156.671 523.603 156.364 524.69 155.898 525.064C152.358 527.901 149.301 531.18 146.717 534.883C145.626 536.448 144.464 536.212 143.042 535.621C141.524 534.99 140.458 534.024 140.062 532.185V532.189Z" fill="black"/>
<path d="M106.449 637.328C106.838 632.659 108.894 628.614 112.522 625.46C114.461 623.774 117.601 624.893 118.35 627.388C118.471 627.791 118.211 628.375 117.986 628.803C116.924 630.817 115.759 632.781 114.732 634.812C114.016 636.234 113.535 637.77 112.829 639.199C112.098 640.682 111.189 642.019 109.158 641.523C107.301 641.071 106.471 639.845 106.449 637.328Z" fill="black"/>
<path d="M203.475 579.551C204.159 580.795 203.129 581.134 202.174 581.583C199.982 582.613 197.829 583.728 195.623 584.734C193.688 585.614 191.742 585.478 189.778 584.673C188.413 584.113 187.711 583.183 187.579 581.743C187.451 580.357 188.317 579.73 189.393 579.224C192.269 577.876 195.049 576.237 198.043 575.242C201.639 574.048 203.304 575.513 203.475 579.551Z" fill="black"/>
<path d="M69.1473 589.695C67.9105 589.199 66.8627 588.935 65.9895 588.39C64.8454 587.674 64.6744 585.974 65.5761 585.154C67.7537 583.183 69.9064 581.176 72.1945 579.337C75.0493 577.042 77.4943 577.513 79.5294 580.56C80.538 582.067 80.2992 583.122 78.7952 584.106C76.9704 585.3 75.2204 586.612 73.3493 587.72C72.0092 588.515 70.5265 589.06 69.1473 589.695Z" fill="black"/>
<path d="M232.889 678.194C229.873 681.273 227.204 684.035 224.495 686.758C221.202 690.073 217.859 693.344 214.576 696.67C213.7 697.557 213.062 697.671 212.089 696.709C207.028 691.719 201.781 686.915 196.845 681.811C194.14 679.013 191.916 675.752 189.478 672.698C188.299 671.219 187.197 669.672 185.943 668.257C181.42 663.16 176.822 658.128 172.307 653.024C170.935 651.474 169.865 649.653 168.44 648.159C165.382 644.959 162.128 641.944 159.056 638.754C154.084 633.593 149.09 628.447 144.293 623.122C139.539 617.843 134.535 612.69 130.511 606.88C125.315 599.382 119.309 592.66 113.318 585.849C108.047 579.858 103.47 573.261 98.4879 567.009C95.4228 563.164 92.1261 559.507 89.0396 555.679C87.8991 554.264 86.9154 552.678 86.1313 551.039C84.6059 547.867 83.1981 544.631 81.8759 541.369C80.4966 537.962 79.7624 534.466 81.2842 530.87C83.7719 524.996 90.6327 520.887 97.8428 526.671C100.462 528.774 102.718 531.326 105.146 533.668C110.634 538.974 116.397 544.014 120.888 550.28C123.329 553.687 125.817 557.087 128.554 560.255C133.191 565.623 138.006 570.837 142.818 576.051C148.595 582.313 154.422 588.529 160.274 594.723C163.732 598.38 167.317 601.916 170.771 605.576C172.389 607.29 173.796 609.194 175.361 610.961C176.569 612.33 177.949 613.552 179.107 614.957C181.174 617.459 183.266 619.961 185.112 622.623C190.266 630.047 196.303 636.665 202.583 643.148C206.468 647.158 209.733 651.823 212.891 656.456C215.325 660.028 218.205 663.068 221.295 666.037C225.254 669.84 228.897 673.97 232.892 678.187L232.889 678.194ZM170.91 643.23C170.585 643.997 170.097 644.585 170.222 644.984C170.475 645.793 170.949 646.602 171.53 647.229C173.854 649.731 176.405 652.037 178.587 654.657C181.691 658.388 184.514 662.355 187.525 666.165C188.17 666.978 188.944 668.254 190.273 667.305C191.556 666.39 190.989 665.142 190.319 664.137C189.24 662.519 188.12 660.901 186.848 659.432C182.315 654.211 178.262 648.519 172.578 644.389C172.168 644.093 171.747 643.808 170.917 643.227L170.91 643.23ZM116.198 580.706C115.987 581.693 115.531 582.524 115.745 583.108C116.126 584.131 116.829 585.079 117.552 585.924C121.508 590.546 125.486 595.155 129.545 599.688C129.919 600.109 130.91 599.977 131.612 600.102C131.694 599.524 131.976 598.879 131.812 598.38C131.52 597.496 131.092 596.584 130.482 595.889C126.32 591.145 122.096 586.451 117.873 581.757C117.573 581.426 117.096 581.258 116.198 580.702V580.706ZM159.412 627.06C161.615 625.121 161.7 625.057 160.813 623.899C157.391 619.444 153.93 615.017 150.427 610.626C150.135 610.259 149.297 609.953 148.934 610.113C148.538 610.288 148.103 611.122 148.207 611.535C148.502 612.704 148.852 613.969 149.564 614.903C151.756 617.769 154.137 620.488 156.425 623.275C157.423 624.49 158.375 625.738 159.416 627.06H159.412ZM128.729 585.46C127.335 585.503 126.847 586.637 127.838 587.806C130.507 590.949 133.295 594 136.149 596.979C136.545 597.389 137.75 597.507 138.27 597.215C139.314 596.627 138.847 595.618 138.224 594.944C135.412 591.915 132.553 588.925 129.684 585.945C129.42 585.671 128.968 585.575 128.733 585.46H128.729ZM102.647 549.913C102.326 549.285 102.273 549.107 102.162 548.972C99.3789 545.514 96.6132 542.043 93.7691 538.636C93.5018 538.315 92.7427 538.408 92.2152 538.308C92.119 538.953 91.702 539.808 91.9728 540.204C94.318 543.668 96.7736 547.054 99.2221 550.444C99.4181 550.714 99.8672 551.082 100.07 551.017C100.944 550.736 101.767 550.305 102.647 549.913ZM187.978 649.959C187.515 651.018 186.848 651.809 186.937 652.504C187.076 653.559 187.557 654.689 188.217 655.53C189.788 657.526 191.513 659.404 193.263 661.247C193.606 661.607 194.71 661.867 194.846 661.692C195.295 661.111 195.619 660.324 195.683 659.593C195.719 659.187 195.152 658.716 194.828 658.296C193.035 655.95 191.243 653.609 189.425 651.281C189.154 650.932 188.766 650.676 187.974 649.963L187.978 649.959ZM215.881 693.266C215.072 692.453 214.366 691.751 213.668 691.042C211.483 688.829 209.327 686.583 207.092 684.417C206.575 683.914 205.791 683.686 205.128 683.333C205.035 684.085 204.882 684.834 204.879 685.586C204.879 685.892 205.135 686.259 205.374 686.498C208.257 689.342 211.158 692.165 214.245 695.18C214.847 694.474 215.303 693.94 215.881 693.263V693.266ZM175.037 639.328C175.258 640.037 175.265 640.611 175.554 640.91C177.596 643.02 179.677 645.091 181.805 647.112C182.001 647.297 182.757 647.176 183.027 646.937C183.362 646.641 183.591 646.085 183.615 645.629C183.633 645.283 183.313 644.866 183.049 644.563C181.185 642.446 179.321 640.326 177.385 638.273C177.111 637.984 176.32 637.809 176.028 637.995C175.561 638.29 175.311 638.928 175.033 639.328H175.037ZM156.657 609.774C157.12 610.69 157.416 611.699 158.04 612.426C159.501 614.126 161.069 615.744 162.705 617.277C163.083 617.63 163.913 617.501 164.533 617.594C164.612 616.895 165.025 615.919 164.715 615.545C162.787 613.235 160.713 611.043 158.635 608.866C158.368 608.584 157.715 608.392 157.391 608.523C157.07 608.655 156.942 609.247 156.653 609.774H156.657ZM150.334 625.827C150.666 626.522 150.805 627.224 151.229 627.634C152.925 629.263 154.668 630.849 156.497 632.324C156.803 632.574 157.869 632.403 158.122 632.071C158.443 631.654 158.585 630.617 158.3 630.293C156.596 628.357 154.786 626.508 152.918 624.733C152.551 624.384 151.692 624.259 151.197 624.43C150.808 624.565 150.63 625.31 150.334 625.831V625.827ZM140.116 592.029C142.629 589.545 142.639 589.52 140.825 587.232C139.949 586.127 139.111 584.958 138.074 584.021C137.607 583.6 136.345 583.326 136.046 583.614C135.536 584.103 135.062 585.382 135.347 585.81C136.762 587.93 138.43 589.883 140.113 592.025L140.116 592.029ZM94.7813 551.973C94.6993 551.634 94.7029 551.499 94.6423 551.409C93.1668 549.36 91.7376 547.272 90.148 545.311C89.87 544.969 88.6476 544.905 88.3232 545.208C87.8813 545.618 87.4928 546.787 87.753 547.143C89.2285 549.178 90.8751 551.092 92.5502 552.974C92.7783 553.227 93.5767 553.216 93.958 553.024C94.3572 552.824 94.5746 552.258 94.7849 551.973H94.7813ZM202.594 674.177C204.536 673.193 205.139 672.213 204.091 670.695C203.221 669.44 202.466 668.093 201.482 666.942C201.047 666.432 200.171 666.3 199.493 665.997C199.304 666.853 198.695 667.926 199.005 668.528C200.007 670.481 201.347 672.267 202.598 674.177H202.594ZM146.97 619.162C146.956 619.048 146.984 618.895 146.92 618.82C145.452 617.156 144.094 615.356 142.433 613.905C141.716 613.278 140.74 614.012 141.039 615.103C141.634 617.27 142.903 619.045 144.835 620.228C145.737 620.78 146.909 620.117 146.97 619.162ZM168.76 634.431C168.864 632.923 166.059 629.562 164.975 629.441C163.913 629.323 163.101 630.264 163.728 631.07C164.79 632.435 166.109 633.614 167.424 634.751C167.645 634.944 168.393 634.527 168.76 634.431ZM151.995 605.79C153.881 604.425 153.905 604.321 152.893 602.846C152.498 602.265 152.163 601.591 151.628 601.174C151.193 600.836 150.505 600.825 149.932 600.672C149.796 601.292 149.351 602.083 149.579 602.504C150.213 603.655 151.129 604.653 151.995 605.79Z" fill="#FF69B4"/>
<path d="M287.176 733.323C289.831 736.338 292.262 739.153 294.753 741.912C297.729 745.212 300.752 748.473 303.763 751.742C309.227 757.662 314.716 763.556 320.162 769.491C323.277 772.884 326.327 776.334 329.414 779.752C331.477 782.036 333.513 784.349 335.651 786.559C336.474 787.411 336.72 788.02 335.772 788.897C332.165 792.229 328.58 795.58 324.998 798.937C320.764 802.904 316.544 806.892 312.306 810.855C311.269 811.825 310.193 812.751 309.109 813.664C308.108 814.505 307.434 813.724 306.889 813.047C305.068 810.784 303.443 808.353 301.5 806.204C295.701 799.785 289.799 793.459 283.904 787.126C281.887 784.959 279.781 782.877 277.696 780.774C272.353 775.389 267.025 769.986 261.625 764.658C260.474 763.521 260.342 762.669 261.8 761.589C264.167 764.098 266.508 766.664 268.939 769.141C274.292 774.605 279.881 779.851 285.024 785.504C291.282 792.383 297.152 799.61 303.264 806.625C304.166 807.658 305.47 808.339 306.575 809.198C307.58 809.982 308.343 809.415 309.074 808.759C309.951 807.975 309.637 807.127 309.038 806.393C307.431 804.418 305.816 802.444 304.127 800.537C297.84 793.434 291.631 786.256 285.173 779.313C281.099 774.933 276.637 770.909 272.35 766.728C270.14 764.576 267.895 762.462 265.728 760.267C263.675 758.182 263.718 758.061 265.852 756.207C267.852 757.875 269.883 759.451 271.779 761.176C275.458 764.526 279.068 767.947 282.689 771.358C288.506 776.833 294.379 782.254 300.092 787.835C302.84 790.519 305.2 793.598 307.88 796.36C309.897 798.438 312.085 800.359 314.299 802.234C316.116 803.773 316.505 803.684 318.233 802.12C320.621 799.96 320.685 798.634 318.547 796.296C315.15 792.586 311.854 788.779 308.354 785.165C304.191 780.867 299.911 776.683 295.591 772.545C292.982 770.047 290.209 767.719 287.497 765.331C287.105 764.986 286.627 764.74 286.285 764.512C287.08 763.318 287.771 762.551 288.146 761.657C288.89 759.878 287.96 758.417 285.733 757.426C281.042 755.341 277.193 752.205 274.114 748.156C275.497 746.83 276.766 745.608 278.362 744.072C279.196 745.023 280.094 746.189 281.139 747.212C283.969 749.977 286.902 752.636 289.71 755.423C293.153 758.841 296.625 762.248 299.882 765.837C306.24 772.844 312.46 779.983 318.739 787.058C320.268 788.779 321.744 790.558 323.405 792.14C323.9 792.614 325.034 792.792 325.736 792.6C327.539 792.105 329.321 791.495 330.159 789.449C330.647 788.255 330.683 787.347 329.485 786.758C326.548 785.311 324.813 782.674 322.756 780.304C317.948 774.758 313.151 769.188 308.062 763.906C301.279 756.867 294.212 750.102 287.297 743.188C286.424 742.315 285.836 741.149 284.938 740.312C283.227 738.719 283.844 737.357 285.091 735.924C285.747 735.172 286.335 734.363 287.165 733.315L287.176 733.323Z" fill="white"/>
<path d="M267.937 740.369C267.245 740.091 266.729 739.77 266.173 739.677C264.847 739.456 264.084 740.319 264.765 741.427C265.567 742.732 265.168 743.854 264.351 744.628C262.726 746.167 260.866 747.454 258.927 748.983C258.357 748.167 257.295 746.716 256.307 745.219C255.773 744.41 255.224 743.288 254.19 743.965C253.538 744.389 252.936 745.726 253.128 746.428C253.563 748.014 254.479 749.471 255.252 750.954C255.498 751.428 255.908 751.813 256.243 752.241C256.118 752.358 255.994 752.472 255.865 752.59C254.871 751.645 253.763 750.79 252.9 749.739C249.789 745.947 246.759 742.087 243.701 738.248C243.405 737.877 243.145 737.482 242.885 737.083C241.078 734.328 241.221 733.18 243.516 730.806C249.065 725.061 254.618 719.319 260.096 713.506C261.215 712.316 262.045 712.366 263.204 713.332C267.334 716.778 271.572 720.1 275.621 723.639C276.872 724.733 277.77 726.309 278.561 727.809C278.804 728.265 278.34 729.377 277.873 729.88C275.25 732.692 272.517 735.4 269.84 738.166C269.188 738.84 268.607 739.588 267.933 740.372L267.937 740.369ZM248.648 735.254C247.91 735.365 245.961 735.639 246.592 737.008C247.451 738.861 249.218 740.404 250.886 741.712C251.432 742.14 252.879 741.427 253.912 741.235C254.076 740.978 254.237 740.722 254.401 740.461C255.562 741.873 256.61 743.409 257.947 744.624C258.431 745.066 259.804 745.073 260.431 744.703C261.511 744.068 260.748 743.167 260.174 742.486C257.747 739.595 255.352 736.673 252.829 733.868C252.287 733.266 251.168 732.713 250.476 732.866C249.849 733.005 249.446 734.142 248.645 735.251L248.648 735.254ZM252.815 725.321C252.33 725.995 251.457 726.665 251.499 727.271C251.564 728.226 252.055 729.317 252.711 730.029C253.734 731.141 255.035 732 256.243 732.931C256.799 733.362 257.377 733.836 258.025 734.05C258.396 734.171 259.037 733.932 259.351 733.636C259.593 733.405 259.729 732.667 259.551 732.446C257.818 730.293 256.026 728.194 254.212 726.109C253.966 725.824 253.524 725.71 252.815 725.325V725.321ZM259.469 719.487C258.029 719.53 257.209 721.094 258.089 722.324C258.987 723.582 260.274 724.598 261.525 725.542C261.928 725.849 263.108 725.835 263.307 725.542C263.656 725.029 263.835 723.978 263.528 723.525C262.644 722.217 261.511 721.069 260.42 719.915C260.164 719.644 259.69 719.58 259.472 719.487H259.469ZM273.272 732.257C273.376 730.5 270.004 727.285 268.799 727.388C267.598 727.492 266.768 728.629 267.459 729.616C268.375 730.92 269.573 732.132 270.902 732.991C271.387 733.305 272.599 732.489 273.272 732.257Z" fill="white"/>
<path d="M348.593 808.517C345.945 814.198 340.838 817.538 336.397 821.465C333.98 823.604 331.347 825.521 328.677 827.342C327.558 828.105 326.115 828.437 324.778 828.811C324.411 828.914 323.755 828.572 323.452 828.237C321.335 825.867 319.268 823.45 317.197 821.038C316.157 819.826 316.303 818.233 317.49 817.167C322.665 812.516 327.8 807.826 333.015 803.217C334.693 801.735 336.607 800.519 338.336 799.09C339.562 798.074 340.221 799.076 340.838 799.739C343.005 802.08 345.086 804.5 347.196 806.895C347.659 807.419 348.112 807.957 348.597 808.517H348.593ZM324.842 813.072C325.43 814.098 325.787 814.986 326.375 815.684C327.708 817.267 329.098 818.806 330.584 820.243C331.019 820.663 331.846 820.681 332.491 820.884C332.626 820.1 333.15 819.063 332.829 818.571C331.357 816.297 329.689 814.141 327.986 812.028C327.69 811.66 326.788 811.461 326.325 811.625C325.772 811.824 325.395 812.498 324.839 813.068L324.842 813.072ZM319.539 817.926C319.624 818.414 319.667 818.703 319.728 818.992C320.448 822.335 322.779 824.459 325.405 826.309C325.673 826.498 326.521 826.273 326.763 825.97C327.045 825.617 327.216 824.783 326.995 824.48C325.234 822.05 323.392 819.676 321.51 817.334C321.285 817.053 320.619 816.893 320.277 817.01C319.927 817.131 319.728 817.673 319.539 817.926ZM336.048 806.842C337.256 808.652 338.414 810.463 339.662 812.209C340.143 812.883 340.816 813.489 341.725 812.715C342.548 812.013 343.183 811.162 342.438 810.121C341.312 808.542 340.096 807.017 338.81 805.569C338.514 805.234 337.683 805.067 337.256 805.234C336.825 805.402 336.589 806.076 336.048 806.838V806.842ZM333.257 809.119C332.854 809.864 332.074 810.627 332.148 811.29C332.423 813.663 334.408 814.914 336.069 816.287C336.358 816.525 337.284 816.133 337.822 815.852C338.043 815.734 338.207 815 338.058 814.775C336.91 813.061 335.691 811.397 334.462 809.743C334.308 809.536 333.955 809.472 333.26 809.123L333.257 809.119Z" fill="white"/>
<path d="M240.064 720.111C239.18 719.123 238.513 718.375 238 717.798C242.708 712.719 247.367 707.679 252.043 702.654C253.126 701.488 254.22 700.202 253.504 698.584C252.648 696.648 251.141 695.066 249.013 694.613C248.279 694.456 247.103 695.18 246.497 695.843C244.138 698.42 242.02 701.217 239.636 703.773C237.298 706.278 234.696 708.538 232.305 710.997C230.541 712.811 228.933 714.782 227.24 716.671C226.984 716.96 226.642 717.17 226.203 717.534C225.458 715.873 225.654 714.39 226.684 713.282C231.72 707.872 236.824 702.518 241.967 697.212C243.525 695.604 245.346 694.25 246.957 692.689C248.332 691.356 248.236 690.233 246.825 688.943C246.782 688.904 246.729 688.872 246.682 688.836C242.644 685.814 242.092 685.749 238.713 689.214C233.752 694.303 228.719 699.321 223.708 704.361C223.217 704.856 222.661 705.295 222.012 705.869C221.556 705.437 221.149 705.056 220.508 704.454C222.817 702.084 225.027 699.746 227.312 697.486C231.984 692.87 236.706 688.308 241.379 683.693C242.035 683.044 242.445 683.051 243.143 683.632C245.788 685.824 248.6 687.827 251.141 690.13C254.074 692.789 256.804 695.672 259.595 698.487C260.543 699.446 259.648 700.12 259.067 700.733C256.341 703.616 253.611 706.496 250.827 709.326C247.306 712.908 243.731 716.436 240.053 720.114L240.064 720.111Z" fill="white"/>
<path d="M222.334 721.854C223.866 723.229 225.399 724.601 226.931 725.977C227.109 726.134 227.256 726.358 227.462 726.444C228.653 726.929 229.857 727.378 231.055 727.841C231.433 726.686 231.807 725.535 232.128 724.548C234.352 726.547 234.141 727.927 230.435 731.783C227.605 728.579 224.796 725.393 221.984 722.206C222.098 722.089 222.212 721.971 222.327 721.854H222.334Z" fill="white"/>
<path d="M170.91 643.23C171.741 643.811 172.161 644.093 172.571 644.392C178.259 648.523 182.308 654.211 186.841 659.436C188.117 660.904 189.233 662.519 190.313 664.141C190.983 665.146 191.55 666.393 190.267 667.309C188.937 668.257 188.164 666.981 187.519 666.168C184.507 662.359 181.684 658.392 178.58 654.66C176.402 652.041 173.847 649.738 171.523 647.233C170.942 646.605 170.468 645.796 170.215 644.987C170.09 644.588 170.582 644 170.903 643.234L170.91 643.23Z" fill="black"/>
<path d="M116.197 580.706C117.099 581.262 117.577 581.43 117.873 581.761C122.096 586.451 126.316 591.145 130.482 595.893C131.092 596.584 131.519 597.5 131.812 598.384C131.976 598.879 131.694 599.524 131.612 600.105C130.906 599.98 129.919 600.109 129.545 599.692C125.485 595.158 121.508 590.554 117.552 585.927C116.828 585.083 116.126 584.135 115.745 583.112C115.527 582.531 115.984 581.697 116.197 580.71V580.706Z" fill="black"/>
<path d="M159.412 627.06C158.371 625.738 157.416 624.487 156.422 623.275C154.134 620.484 151.753 617.765 149.561 614.903C148.848 613.969 148.499 612.704 148.203 611.535C148.1 611.122 148.534 610.291 148.93 610.113C149.294 609.953 150.131 610.259 150.423 610.626C153.927 615.017 157.391 619.444 160.809 623.899C161.7 625.057 161.615 625.125 159.408 627.06H159.412Z" fill="black"/>
<path d="M128.729 585.46C128.964 585.574 129.417 585.671 129.68 585.945C132.55 588.925 135.408 591.911 138.22 594.944C138.844 595.618 139.311 596.627 138.266 597.215C137.746 597.507 136.538 597.393 136.146 596.979C133.294 594 130.504 590.949 127.834 587.806C126.843 586.637 127.332 585.503 128.725 585.46H128.729Z" fill="black"/>
<path d="M102.646 549.913C101.765 550.305 100.942 550.736 100.069 551.018C99.8658 551.085 99.4168 550.715 99.2207 550.444C96.7722 547.051 94.313 543.668 91.9714 540.204C91.7041 539.809 92.1176 538.95 92.2138 538.308C92.7448 538.408 93.5004 538.319 93.7677 538.636C96.6118 542.043 99.3776 545.515 102.161 548.972C102.268 549.107 102.325 549.282 102.646 549.913Z" fill="black"/>
<path d="M187.975 649.959C188.767 650.668 189.152 650.929 189.426 651.278C191.24 653.605 193.036 655.95 194.829 658.292C195.15 658.712 195.717 659.183 195.685 659.589C195.624 660.323 195.3 661.107 194.847 661.688C194.712 661.863 193.61 661.603 193.265 661.243C191.515 659.4 189.786 657.522 188.218 655.526C187.555 654.685 187.077 653.555 186.938 652.5C186.846 651.809 187.516 651.014 187.979 649.956L187.975 649.959Z" fill="black"/>
<path d="M215.881 693.266C215.304 693.943 214.848 694.474 214.245 695.184C211.155 692.168 208.254 689.346 205.374 686.502C205.132 686.263 204.875 685.896 204.879 685.589C204.883 684.837 205.036 684.089 205.128 683.337C205.791 683.69 206.575 683.918 207.092 684.42C209.327 686.584 211.483 688.829 213.668 691.046C214.366 691.755 215.072 692.457 215.881 693.27V693.266Z" fill="black"/>
<path d="M175.035 639.328C175.31 638.928 175.559 638.29 176.03 637.995C176.322 637.809 177.113 637.984 177.387 638.273C179.323 640.326 181.187 642.446 183.051 644.563C183.314 644.863 183.635 645.28 183.617 645.629C183.592 646.085 183.364 646.641 183.029 646.937C182.758 647.176 182.003 647.3 181.807 647.112C179.676 645.094 177.598 643.02 175.556 640.91C175.267 640.611 175.256 640.037 175.039 639.328H175.035Z" fill="black"/>
<path d="M156.656 609.774C156.941 609.25 157.073 608.655 157.394 608.523C157.718 608.392 158.371 608.584 158.638 608.866C160.716 611.047 162.79 613.235 164.718 615.545C165.028 615.915 164.615 616.895 164.536 617.594C163.916 617.501 163.086 617.63 162.708 617.277C161.072 615.744 159.5 614.13 158.043 612.426C157.419 611.699 157.123 610.69 156.66 609.774H156.656Z" fill="black"/>
<path d="M150.332 625.827C150.628 625.31 150.806 624.562 151.195 624.426C151.69 624.255 152.549 624.38 152.916 624.729C154.787 626.508 156.598 628.354 158.298 630.289C158.583 630.614 158.44 631.651 158.12 632.068C157.863 632.399 156.801 632.57 156.494 632.321C154.666 630.845 152.923 629.259 151.227 627.63C150.802 627.224 150.663 626.518 150.332 625.823V625.827Z" fill="black"/>
<path d="M140.117 592.029C138.434 589.887 136.766 587.934 135.352 585.813C135.066 585.382 135.54 584.106 136.05 583.618C136.349 583.333 137.608 583.604 138.078 584.024C139.119 584.958 139.953 586.127 140.829 587.235C142.644 589.524 142.629 589.545 140.12 592.033L140.117 592.029Z" fill="black"/>
<path d="M94.7798 551.973C94.5696 552.258 94.3521 552.824 93.953 553.024C93.5716 553.216 92.7733 553.227 92.5452 552.974C90.8701 551.096 89.227 549.178 87.7479 547.143C87.4878 546.787 87.8763 545.618 88.3182 545.208C88.6461 544.905 89.865 544.969 90.143 545.311C91.7326 547.268 93.1618 549.36 94.6373 551.409C94.7014 551.499 94.6979 551.634 94.7763 551.973H94.7798Z" fill="black"/>
<path d="M202.593 674.177C201.342 672.263 200.006 670.481 199.001 668.528C198.69 667.926 199.3 666.856 199.489 665.998C200.166 666.301 201.043 666.432 201.478 666.942C202.461 668.097 203.22 669.44 204.086 670.695C205.134 672.21 204.532 673.19 202.59 674.177H202.593Z" fill="black"/>
<path d="M146.967 619.162C146.906 620.114 145.737 620.78 144.832 620.224C142.9 619.041 141.631 617.266 141.036 615.099C140.737 614.009 141.713 613.274 142.429 613.902C144.09 615.352 145.445 617.152 146.917 618.816C146.981 618.888 146.952 619.041 146.967 619.159V619.162Z" fill="black"/>
<path d="M168.76 634.431C168.392 634.527 167.644 634.944 167.423 634.751C166.108 633.615 164.789 632.435 163.727 631.07C163.1 630.261 163.912 629.32 164.975 629.441C166.058 629.562 168.866 632.923 168.76 634.431Z" fill="black"/>
<path d="M151.994 605.79C151.128 604.653 150.212 603.655 149.577 602.504C149.346 602.083 149.791 601.296 149.93 600.672C150.504 600.829 151.192 600.839 151.627 601.174C152.161 601.588 152.496 602.265 152.892 602.846C153.904 604.321 153.879 604.425 151.994 605.79Z" fill="black"/>
<path d="M248.646 735.254C249.448 734.146 249.851 733.009 250.478 732.87C251.17 732.717 252.293 733.273 252.831 733.871C255.354 736.676 257.749 739.595 260.176 742.489C260.75 743.174 261.509 744.075 260.433 744.706C259.806 745.077 258.433 745.07 257.949 744.628C256.612 743.409 255.564 741.873 254.402 740.465C254.238 740.722 254.078 740.978 253.914 741.238C252.881 741.431 251.434 742.147 250.888 741.716C249.22 740.408 247.453 738.865 246.594 737.011C245.959 735.643 247.912 735.368 248.65 735.258L248.646 735.254Z" fill="black"/>
<path d="M252.813 725.321C253.518 725.71 253.96 725.824 254.21 726.105C256.02 728.19 257.817 730.293 259.549 732.442C259.727 732.663 259.595 733.401 259.349 733.633C259.036 733.928 258.394 734.171 258.023 734.046C257.375 733.832 256.797 733.358 256.241 732.927C255.033 731.993 253.732 731.134 252.709 730.026C252.054 729.313 251.562 728.222 251.498 727.267C251.455 726.658 252.328 725.988 252.813 725.318V725.321Z" fill="black"/>
<path d="M259.467 719.487C259.684 719.579 260.162 719.644 260.415 719.915C261.505 721.073 262.639 722.217 263.523 723.525C263.829 723.978 263.651 725.029 263.302 725.542C263.102 725.834 261.922 725.845 261.52 725.542C260.269 724.598 258.982 723.578 258.084 722.324C257.207 721.094 258.027 719.53 259.463 719.487H259.467Z" fill="black"/>
<path d="M273.271 732.257C272.594 732.489 271.386 733.301 270.901 732.991C269.572 732.132 268.374 730.92 267.458 729.616C266.767 728.629 267.597 727.492 268.798 727.388C270.007 727.285 273.375 730.5 273.271 732.257Z" fill="black"/>
<path d="M324.844 813.072C325.396 812.502 325.778 811.825 326.33 811.629C326.793 811.461 327.695 811.664 327.991 812.031C329.694 814.145 331.359 816.301 332.834 818.575C333.152 819.067 332.631 820.104 332.496 820.888C331.851 820.685 331.024 820.667 330.589 820.246C329.106 818.81 327.713 817.267 326.38 815.688C325.795 814.993 325.439 814.102 324.847 813.076L324.844 813.072Z" fill="black"/>
<path d="M319.539 817.926C319.728 817.673 319.928 817.131 320.277 817.01C320.619 816.889 321.285 817.053 321.51 817.334C323.392 819.676 325.234 822.046 326.995 824.48C327.216 824.787 327.049 825.621 326.763 825.97C326.521 826.273 325.673 826.498 325.406 826.309C322.779 824.459 320.448 822.338 319.728 818.992C319.667 818.703 319.625 818.411 319.539 817.926Z" fill="black"/>
<path d="M336.051 806.842C336.593 806.079 336.828 805.406 337.259 805.238C337.683 805.074 338.514 805.238 338.813 805.573C340.1 807.024 341.315 808.549 342.441 810.124C343.182 811.165 342.552 812.017 341.728 812.719C340.819 813.492 340.146 812.886 339.665 812.213C338.417 810.466 337.263 808.656 336.051 806.845V806.842Z" fill="black"/>
<path d="M333.258 809.119C333.953 809.469 334.305 809.533 334.459 809.739C335.688 811.393 336.907 813.061 338.055 814.772C338.205 814.996 338.041 815.731 337.82 815.848C337.285 816.133 336.355 816.522 336.066 816.283C334.405 814.911 332.42 813.66 332.146 811.286C332.071 810.623 332.848 809.864 333.254 809.116L333.258 809.119Z" fill="black"/>
</g>
<defs>
<clipPath id="clip0_473_559">
<rect width="1080" height="1080" fill="white"/>
</clipPath>
<clipPath id="clip1_473_559">
<rect width="417" height="389" fill="white" transform="translate(633.016 490.118) rotate(-11.652)"/>
</clipPath>
</defs>
</svg>
