<svg width="1080" height="1080" viewBox="0 0 1080 1080" fill="none" xmlns="http://www.w3.org/2000/svg">
<path d="M575.739 880.863C553.539 881.523 531.979 882.163 511.349 882.773C511.349 893.913 511.749 905.023 511.189 916.093C510.879 922.093 509.339 928.143 507.499 933.893C506.799 936.063 503.969 938.183 501.629 939.103C486.839 944.913 471.319 944.943 455.849 943.523C448.369 942.833 440.989 940.703 433.689 938.773C431.449 938.183 429.539 936.153 427.589 934.633C422.339 930.563 420.239 925.223 420.489 918.543C421.129 901.613 421.299 884.663 422.049 867.733C422.189 864.593 421.649 863.063 418.729 862.293C417.769 862.043 416.899 861.483 415.949 861.193C391.549 853.543 381.109 835.373 379.049 811.373C377.689 795.503 377.179 779.563 376.269 763.353C375.179 765.373 374.089 767.583 372.829 769.693C366.979 779.543 361.749 789.843 355.079 799.103C342.129 817.083 320.969 821.073 303.069 809.803C290.599 801.953 281.979 781.333 284.429 766.493C287.299 749.043 295.529 734.163 306.029 720.433C320.259 701.833 335.979 684.503 356.389 672.563C365.449 667.263 375.649 663.733 385.659 660.363C389.649 659.013 394.519 660.443 398.969 660.213C400.829 660.113 403.299 659.533 404.359 658.233C412.579 648.203 420.429 637.873 428.649 627.843C429.679 626.583 432.359 625.773 434.039 626.073C481.639 634.613 529.649 636.513 577.799 634.143C596.519 633.223 615.119 629.713 633.779 627.483C640.989 626.623 647.289 629.153 652.119 634.273C659.629 642.253 666.619 650.733 673.949 658.883C674.789 659.813 676.519 660.663 677.659 660.483C693.469 657.913 707.399 663.453 720.279 671.363C750.149 689.703 773.399 714.553 789.209 745.893C798.909 765.103 798.039 784.033 783.549 800.853C769.459 817.213 745.569 817.763 729.219 802.593C719.859 793.913 714.619 782.463 708.709 771.493C706.209 766.863 704.089 762.023 701.229 756.123C701.229 758.593 701.179 759.953 701.229 761.303C702.109 780.443 702.449 799.543 699.469 818.583C696.159 839.723 684.689 853.793 664.199 860.143C659.969 861.453 658.899 863.223 659.279 867.793C660.649 884.363 661.479 900.973 662.169 917.593C662.339 921.623 662.659 927.393 660.339 929.423C655.259 933.863 648.769 936.993 642.409 939.563C638.069 941.313 632.989 941.413 628.209 941.893C614.879 943.223 601.599 943.173 589.099 937.543C580.429 933.643 574.409 927.473 574.679 917.053C574.919 907.743 575.089 898.433 575.329 889.123C575.399 886.323 575.609 883.533 575.749 880.863H575.739ZM653.389 800.193C664.829 797.163 675.729 794.353 686.549 791.243C687.559 790.953 688.669 788.753 688.649 787.443C688.489 775.343 688.799 763.183 687.589 751.183C685.889 734.363 683.779 717.503 680.439 700.943C676.209 679.983 664.279 662.923 649.959 647.423C647.829 645.113 645.839 644.453 642.599 645.073C633.639 646.793 624.599 648.433 615.519 649.193C598.139 650.633 580.709 651.623 563.279 652.483C531.719 654.033 500.139 654.683 468.759 650.023C463.889 649.303 461.639 650.563 460.049 654.733C451.779 676.303 443.759 698.093 442.889 721.373C441.949 746.443 442.689 771.563 442.509 796.663C442.479 801.473 444.719 803.153 449.069 803.433C511.756 807.43 574.064 811.498 636.689 803.203C644.629 802.153 645.339 801.873 645.489 793.943C645.879 773.663 646.769 746.523 640.429 718.023C634.089 689.523 607.429 611.803 619.929 647.253C613.929 614.634 628.289 645.123 629.529 645.073C630.729 645.023 648.879 709.593 649.959 712.863C651.039 716.133 653.983 726.069 655.399 734.923C657.234 746.399 656.319 764.683 656.319 764.683C656.319 764.683 654.479 787.473 653.399 800.213L653.389 800.193ZM646.149 811.733C642.009 812.163 639.089 812.523 636.159 812.763C574.697 817.759 513.496 819.769 451.919 813.573C445.099 812.883 444.369 813.183 444.689 820.073C444.729 821.043 445.079 822.003 445.299 822.963C447.729 833.803 450.299 844.613 452.499 855.493C453.129 858.603 454.389 859.873 457.509 860.533C486.129 866.593 515.039 868.733 544.239 867.703C552.549 867.413 560.889 867.673 569.199 867.263C578.289 866.813 587.519 866.673 596.409 864.953C607.589 862.793 618.449 859.013 629.529 856.263C633.379 855.303 635.369 853.553 636.319 849.603C639.299 837.253 642.679 824.993 646.149 811.733ZM389.359 768.113C389.359 768.563 389.379 770.393 389.359 772.223C389.339 774.223 389.319 776.213 389.229 778.213C388.879 785.723 389.719 787.663 396.549 790.343C406.109 794.093 415.799 797.543 425.569 800.693C432.459 802.903 433.909 801.633 433.789 794.523C433.479 776.263 432.749 758.013 432.789 739.753C432.849 714.233 438.219 689.683 447.559 665.973C449.259 661.653 450.529 657.163 452.139 652.803C453.379 649.443 452.179 647.743 448.809 647.253C443.399 646.463 437.899 646.023 432.589 644.773C428.819 643.893 426.479 644.913 424.769 648.053C418.439 659.733 411.429 671.103 405.999 683.183C394.099 709.673 390.089 737.923 389.359 768.113ZM304.579 745.183C306.399 746.583 306.749 746.953 307.169 747.163C322.309 754.693 337.869 761.483 348.949 775.193C352.079 779.063 356.769 778.073 358.899 773.373C364.459 761.143 369.859 748.833 375.089 736.463C376.449 733.253 377.099 729.553 373.759 726.873C362.939 718.153 352.049 709.523 340.049 699.953C327.859 715.503 316.329 730.203 304.569 745.193L304.579 745.183ZM736.319 701.943C726.489 709.753 716.579 717.773 706.489 725.553C702.889 728.323 702.499 731.003 704.659 734.923C711.139 746.703 717.319 758.643 723.669 770.493C726.859 776.443 727.539 776.553 732.599 771.893C741.769 763.453 750.809 754.873 762.679 750.153C766.179 748.763 769.569 747.123 773.009 745.593C768.199 734.623 746.479 708.663 736.319 701.953V701.943ZM430.789 898.373C430.189 898.873 429.599 899.373 428.999 899.873C430.019 908.853 430.949 917.843 432.189 926.793C432.349 927.973 433.909 929.393 435.149 929.903C440.639 932.163 446.109 934.773 451.849 936.073C466.069 939.293 479.869 935.863 493.509 932.073C495.049 931.643 496.899 930.203 497.459 928.783C500.819 920.253 499.919 911.373 499.739 901.833C476.039 907.663 453.339 904.683 430.799 898.373H430.789ZM652.259 898.733C648.599 899.203 646.659 899.343 644.759 899.713C632.839 902.033 620.959 903.903 608.749 901.363C602.779 900.123 596.619 899.583 590.519 899.193C589.239 899.113 586.699 901.033 586.669 902.083C586.499 909.203 586.549 916.373 587.219 923.453C587.399 925.413 589.539 928.083 591.419 928.863C609.379 936.243 627.459 934.213 645.429 928.693C647.049 928.193 649.209 926.373 649.419 924.913C650.609 916.623 651.289 908.253 652.259 898.733ZM389.439 796.573C391.189 809.853 392.479 821.913 397.759 833.043C400.259 838.313 404.259 842.283 409.789 844.443C419.679 848.313 429.599 852.123 439.529 855.883C440.449 856.233 441.569 856.063 442.429 856.123C441.369 851.233 440.269 846.783 439.449 842.273C437.799 833.183 436.009 824.093 434.879 814.933C434.349 810.623 431.789 810.163 428.579 809.413C422.149 807.903 415.699 806.383 409.439 804.323C403.029 802.213 396.829 799.463 389.439 796.573ZM301.739 756.003C295.759 766.163 295.879 782.343 301.669 790.233C313.659 806.573 332.669 804.493 346.399 793.703C349.229 791.473 348.909 787.853 346.269 785.343C333.259 772.983 317.969 764.083 301.739 756.003ZM688.589 801.343C674.599 804.953 661.839 808.233 649.449 811.433C649.449 814.323 649.789 816.813 649.379 819.173C648.429 824.713 647.059 830.183 645.969 835.703C644.899 841.103 643.969 846.523 642.709 853.383C656.659 849.473 668.999 845.443 678.239 835.923C687.359 826.543 686.279 813.653 688.589 801.333V801.343ZM781.689 768.603C781.129 766.223 780.329 762.693 779.489 759.173C778.659 755.673 776.779 755.043 773.689 756.863C767.839 760.323 761.799 763.483 756.019 767.053C748.329 771.813 739.739 775.533 734.599 783.523C733.609 785.073 733.149 787.963 733.929 789.483C738.409 798.273 754.059 803.183 763.059 799.183C775.839 793.513 780.639 782.953 781.689 768.603ZM475.009 895.433C480.969 894.993 486.949 894.723 492.879 894.063C498.999 893.383 500.399 891.273 498.299 885.523C497.749 884.003 495.589 882.653 493.879 882.063C491.569 881.273 488.949 881.443 486.519 880.963C478.389 879.333 470.219 877.863 462.199 875.833C454.689 873.933 447.379 871.243 439.909 869.183C436.419 868.223 433.469 869.533 432.749 873.353C432.049 877.053 432.009 880.873 431.599 884.633C431.179 888.513 433.009 890.323 436.689 891.223C449.289 894.293 461.939 896.613 475.019 895.433H475.009ZM647.079 870.913C638.939 872.773 630.939 874.933 622.809 876.383C612.699 878.173 602.479 879.333 592.319 880.863C589.459 881.293 586.559 881.993 586.849 885.923C587.099 889.423 588.869 890.843 592.509 891.453C606.419 893.763 620.229 893.463 634.089 891.233C652.829 888.223 651.229 891.233 647.529 871.563C647.479 871.273 647.159 871.033 647.079 870.923V870.913ZM347.759 693.663C350.599 695.513 351.959 696.363 353.289 697.273C359.139 701.283 365.029 705.243 370.809 709.353C373.769 711.463 376.439 713.993 379.429 716.053C380.399 716.723 382.369 717.123 383.199 716.583C386.119 714.683 387.969 702.663 385.729 699.943C380.489 693.583 375.009 687.413 369.119 680.563C362.129 684.843 355.569 688.873 347.769 693.653L347.759 693.663ZM729.119 694.103C723.689 690.233 718.019 686.013 712.089 682.183C711.249 681.643 708.749 682.613 707.729 683.613C704.539 686.743 701.969 690.533 698.649 693.493C690.939 700.353 690.819 700.223 694.959 709.673C695.429 710.733 695.909 711.793 696.369 712.863C697.599 715.693 699.529 716.103 701.919 714.343C710.789 707.783 719.639 701.173 729.119 694.113V694.103ZM379.489 675.823C383.619 681.803 386.999 686.693 391.269 692.893C393.969 684.863 396.139 678.433 398.299 672.013C397.969 671.583 397.639 671.153 397.309 670.713C391.769 672.303 386.219 673.893 379.489 675.823ZM689.399 687.553C692.879 683.443 695.869 679.913 699.829 675.243C693.019 673.903 687.629 672.843 682.239 671.783C683.329 675.123 684.989 677.003 686.119 679.153C687.329 681.433 688.039 683.983 689.399 687.543V687.553Z" fill="black"/>
<path d="M515.52 686.972C521.495 695.825 527.433 704.699 533.393 713.56C537.936 720.312 542.501 727.057 547.058 733.802C549.749 737.757 548.637 722.179 546.905 719.643C539.491 708.784 532.172 697.853 524.831 686.943C523.363 684.723 534.476 685.2 537.035 689.458C540.528 695.251 544.336 701.03 548.475 706.386C548.651 702.482 545.642 684.985 550.27 685.177C552.068 685.252 559 683.864 559 686.601C558.991 692.425 560.579 743.926 557.59 743.869C554.146 743.823 544.755 745.859 542.58 742.597C530.235 724.23 517.859 705.884 505.461 687.553C502.866 683.747 513.478 683.971 515.52 686.972Z" fill="black"/>
<path fill-rule="evenodd" clip-rule="evenodd" d="M731.661 728.749C723.693 703.396 721 707.783 721 707.783L716.207 710.482C716.207 710.482 734.939 739.181 731.661 728.749ZM599.501 809.065C599.501 809.065 604.001 806.565 598.501 832.565C596.238 843.263 594.001 809.065 594.001 809.065H599.501ZM490.501 835.565C496.001 809.565 491.501 812.065 491.501 812.065H486.001C486.001 812.065 488.238 846.263 490.501 835.565ZM490.501 851.072C496.001 877.072 491.501 874.572 491.501 874.572H486.001C486.001 874.572 488.238 840.374 490.501 851.072ZM750.061 768.981C750.061 768.981 747.367 773.367 739.4 748.014C736.122 737.582 754.853 766.282 754.853 766.282L750.061 768.981ZM346.4 731.874C354.367 706.521 357.061 710.908 357.061 710.908L361.853 713.607C361.853 713.607 343.122 742.306 346.4 731.874ZM328.823 766.981C328.823 766.981 331.517 771.367 339.485 746.014C342.763 735.582 324.031 764.282 324.031 764.282L328.823 766.981ZM598.501 854.072C604.001 880.072 599.501 877.572 599.501 877.572H594.001C594.001 877.572 596.238 843.374 598.501 854.072ZM542.982 816C542.982 816 543.48 877 539.493 877C535.506 877 537.5 816 537.5 816H542.982Z" fill="black"/>
</svg>
