<svg width="1080" height="1080" viewBox="0 0 1080 1080" fill="none" xmlns="http://www.w3.org/2000/svg">
<g clip-path="url(#clip0_473_624)">
<g clip-path="url(#clip1_473_624)">
<path d="M683.898 230.971C683.898 230.971 683.966 231.024 683.996 231.069C683.996 231.069 683.921 231.054 683.928 231.016C683.928 231.016 683.928 231.016 683.891 231.009L683.898 230.971Z" fill="black"/>
<path d="M828.079 269.43C828.079 269.43 828.095 269.355 828.11 269.281C828.095 269.355 828.034 269.459 827.981 269.526C827.989 269.489 827.997 269.452 828.012 269.377L828.079 269.43Z" fill="black"/>
<path d="M508.586 135.772C508.571 135.846 508.593 135.929 508.615 136.011C508.63 135.936 508.608 135.854 508.586 135.772Z" fill="black"/>
<path d="M673.809 43.3299C673.809 43.3299 673.772 43.3222 673.727 43.3518C673.727 43.3518 673.727 43.3518 673.764 43.3596L673.809 43.3299Z" fill="black"/>
<path d="M670.539 25.9708C670.539 25.9708 670.622 25.9488 670.667 25.9192C670.667 25.9192 670.63 25.9114 670.585 25.9411C670.585 25.9411 670.585 25.9411 670.547 25.9334L670.539 25.9708Z" fill="black"/>
<path d="M663.116 39.731C663.743 39.705 664.292 39.1194 664.273 38.4559C664.24 37.6729 664.236 36.9349 664.277 36.1673C664.377 35.6834 664.41 35.1469 664.547 34.6706C664.7 33.9261 664.928 33.1969 665.193 32.4754C665.383 31.9324 665.647 31.4047 665.911 30.8771C666.183 30.3122 666.522 29.7999 666.861 29.2876C666.808 29.3544 666.748 29.4584 666.658 29.5174C666.997 29.0051 667.365 28.5378 667.771 28.078C668.124 27.6851 668.515 27.2999 668.935 26.9595C668.935 26.9595 668.882 27.0263 668.845 27.0186C668.935 26.9595 668.987 26.8927 669.077 26.8337C669.31 26.6487 669.535 26.501 669.797 26.361C670.067 26.1837 670.329 26.0436 670.591 25.9036C670.591 25.9036 670.628 25.9113 670.673 25.8818C670.718 25.8522 670.8 25.8303 670.845 25.8008C670.845 25.8008 670.763 25.8227 670.718 25.8522C671.018 25.7199 671.31 25.6247 671.639 25.5373C672.013 25.4203 672.379 25.3405 672.783 25.2684C673.067 25.2105 673.352 24.9588 673.481 24.7136C673.616 24.4312 673.648 24.0884 673.598 23.7676C673.502 23.4763 673.324 23.2068 673.041 23.0709C672.899 23.003 672.787 22.9799 672.676 22.9569C672.526 22.9261 672.324 22.9622 672.123 22.9982C671.764 23.0408 671.352 23.1501 670.978 23.2671C670.604 23.384 670.267 23.5087 669.886 23.6629C669.077 24.0009 668.358 24.4736 667.623 25.0208C666.333 25.9969 665.333 27.2655 664.474 28.6021C663.51 30.0722 662.889 31.7681 662.424 33.4574C661.967 35.1096 661.846 36.8308 661.927 38.5161C661.983 39.1873 662.496 39.7197 663.123 39.6938L663.116 39.731Z" fill="black"/>
<path d="M668.883 27.027C668.883 27.027 668.974 26.9677 669.027 26.9006C669.019 26.938 668.936 26.96 668.883 27.027Z" fill="black"/>
<path d="M551.784 30.2326C551.629 29.8515 551.474 29.4704 551.356 29.0969C551.128 28.5066 551.027 27.8649 550.926 27.2232C550.868 26.7457 550.811 26.2683 550.784 25.8358C550.765 25.1722 550.775 24.5535 550.831 23.9053C550.902 23.1827 551.018 22.4304 551.209 21.6936C551.416 20.6885 551.764 19.7513 552.12 18.777C552.182 18.4792 552.139 18.1211 551.961 17.8516C551.82 17.5899 551.553 17.3795 551.254 17.318C551.217 17.3104 551.142 17.295 551.105 17.2873C550.844 17.2335 550.597 17.2991 550.372 17.4468C550.065 17.6164 549.974 17.8693 549.83 18.189C549.656 18.6576 549.474 19.1634 549.337 19.6396C549.109 20.3688 548.956 21.1133 548.765 21.8501C548.489 23.1903 548.445 24.5393 548.438 25.896C548.476 27.2231 548.745 28.5592 549.104 29.8361C549.493 31.1579 550.137 32.3769 550.84 33.492C551.196 34.0309 551.89 34.2513 552.429 33.8968C552.969 33.5422 553.205 32.7759 552.849 32.237C552.471 31.6159 552.093 30.9949 551.768 30.3071L551.784 30.2326Z" fill="black"/>
<path d="M789.632 89.5694C790.259 89.5434 790.763 88.9874 790.789 88.2943C790.77 87.6307 790.788 86.9748 790.851 86.2894C790.929 85.7233 791.014 85.12 791.137 84.5244C791.267 83.8916 791.465 83.3113 791.662 82.731C791.662 82.731 791.662 82.731 791.654 82.7683C791.654 82.7683 791.67 82.6938 791.677 82.6566C791.677 82.6566 791.693 82.5821 791.7 82.5449C791.7 82.5449 791.7 82.5449 791.693 82.5821C791.799 82.2548 791.943 81.9351 792.123 81.6231C792.35 81.0878 792.682 80.6127 793.013 80.1376C793.013 80.1376 793.013 80.1376 793.005 80.1749C793.276 79.8038 793.539 79.4699 793.84 79.1438C794.095 78.8471 794.373 78.6326 794.658 78.3809C794.98 78.1369 795.34 77.9006 795.692 77.7014C796.232 77.3469 796.43 76.5728 796.112 76.0416C795.912 75.69 795.599 75.5092 795.256 75.4773C794.995 75.4235 794.748 75.4891 794.523 75.6368C794.036 75.9246 793.623 76.2277 793.166 76.5604C792.648 76.997 792.205 77.449 791.754 77.9383C791.401 78.3312 791.07 78.8063 790.784 79.2518C790.4 79.7937 790.113 80.433 789.833 81.0351C788.783 83.3024 788.456 85.8349 788.488 88.325C788.507 88.9885 789.057 89.5286 789.684 89.5026L789.632 89.5694Z" fill="black"/>
<path d="M642.911 80.8165C642.961 81.1373 643.012 81.4582 643.28 81.6686C643.54 81.9162 643.823 82.0521 644.182 82.0095C644.809 81.9835 645.403 81.3684 645.384 80.7049C645.342 80.153 645.337 79.6087 645.333 79.0645C645.313 78.5948 645.367 78.1404 645.422 77.686C645.522 77.202 645.539 76.74 645.676 76.2637C645.814 75.5936 646.064 74.9466 646.277 74.2919C646.451 73.8233 646.662 73.3624 646.911 72.9092C647.115 72.4856 647.349 72.1068 647.62 71.7357C647.898 71.3274 648.177 70.9191 648.522 70.5634C648.988 69.9997 649.045 69.1577 648.495 68.6176C648.302 68.4226 648.019 68.2867 647.713 68.2625C647.302 68.1779 646.875 68.3617 646.612 68.6956C646.033 69.43 645.499 70.135 644.987 70.922C644.354 71.9171 643.93 73.0327 643.551 74.1187C643.187 75.1303 643.047 76.188 642.915 77.2085C642.781 78.4228 642.813 79.5933 642.956 80.7869L642.911 80.8165Z" fill="black"/>
<path d="M591.759 59.1472C591.759 59.1472 591.908 59.1779 591.945 59.1856C591.834 59.1625 591.729 59.1023 591.625 59.042C591.662 59.0497 591.7 59.0574 591.737 59.065L591.759 59.1472Z" fill="black"/>
<path d="M655.416 46.915C655.416 46.915 655.401 46.9897 655.356 47.0194C655.356 47.0194 655.364 46.982 655.371 46.9446C655.371 46.9446 655.371 46.9446 655.379 46.9072L655.416 46.915Z" fill="black"/>
<path d="M576.871 94.8082C578.054 101.532 578.421 108.437 578.37 115.295C578.339 122.623 577.89 129.903 577.395 137.213C577.434 137.027 577.427 136.87 577.42 136.714C577.034 141.989 576.648 147.265 576.299 152.548C576.144 155 575.997 157.414 575.924 159.844C575.829 162.385 575.771 164.934 575.675 167.476C575.657 168.132 576.244 168.679 576.804 168.795C577.177 168.871 577.543 168.792 577.858 168.585C578.135 168.37 578.444 168.007 578.483 167.627C578.724 164.378 579.077 161.153 579.401 157.882C579.762 154.425 580.087 150.961 580.374 147.489C580.987 140.359 581.458 133.16 581.615 125.975C581.772 118.79 581.579 111.61 580.832 104.471C580.186 97.9743 578.921 91.4662 576.884 85.3037C576.744 84.8481 576.343 84.5326 575.925 84.4853C575.775 84.4546 575.574 84.4906 575.409 84.5343C574.825 84.7246 574.441 85.4602 574.661 86.0878C575.587 88.956 576.312 91.8602 576.864 94.8455L576.871 94.8082Z" fill="black"/>
<path d="M700.074 193.402C700.633 193.711 701.463 193.455 701.713 192.808C704.317 186.398 707.128 180.108 710.261 173.963C713.469 167.638 717.019 161.54 720.852 155.577C720.837 155.652 720.747 155.711 720.694 155.778C727.321 145.695 734.929 136.318 743.571 127.97C744.014 127.518 743.914 126.682 743.498 126.247C743.297 126.09 743.089 125.969 742.857 125.96C742.782 125.945 742.708 125.93 742.67 125.922C742.349 125.972 742.087 126.112 741.884 126.342C739.512 128.609 737.199 130.965 734.952 133.374C732.706 135.783 730.564 138.252 728.49 140.774C724.445 145.685 720.69 150.887 717.211 156.263C710.034 167.319 704.19 179.271 699.576 191.669C699.469 191.997 699.445 192.302 699.533 192.631C699.621 192.959 699.836 193.236 700.157 193.38L700.074 193.402Z" fill="black"/>
<path d="M648.1 102.645C648.1 102.645 647.779 102.502 647.622 102.508C647.018 102.423 646.329 102.746 646.079 103.394C638.668 122.007 632.755 141.472 631.155 161.515C631.124 161.858 631.145 162.134 631.322 162.403C631.493 162.71 631.768 162.883 632.067 162.945C632.365 163.006 632.686 162.956 632.919 162.771C633.152 162.586 633.407 162.289 633.431 161.984C633.997 155.271 635.055 148.62 636.569 142.025C638.09 135.392 640.014 128.881 642.154 122.453C642.124 122.602 642.101 122.714 642.033 122.855C644.104 116.762 646.391 110.753 648.783 104.804C648.942 104.41 649.019 104.038 648.872 103.619C648.762 103.209 648.48 102.879 648.122 102.728L648.1 102.645Z" fill="black"/>
<path d="M632.523 171.498L632.449 171.483C631.882 171.405 631.244 171.855 631.159 172.459C630.838 175.342 630.404 178.202 629.889 181.083C629.751 181.753 630.166 182.382 630.8 182.513C631.397 182.636 632.071 182.193 632.164 181.552C632.672 178.707 633.113 175.81 633.472 172.935C633.565 172.295 633.232 171.644 632.561 171.506L632.523 171.498Z" fill="black"/>
<path d="M621.508 119.793C621.791 119.929 622.097 119.953 622.397 119.821C622.651 119.718 622.966 119.511 623.065 119.221C624.24 115.777 625.371 112.362 626.659 108.941C628.001 105.259 629.566 101.623 631.362 98.19C631.686 97.5583 631.422 96.7665 630.826 96.4498C630.677 96.4191 630.572 96.3588 630.415 96.3653C629.885 96.295 629.398 96.5827 629.142 97.0732C627.467 100.298 626.082 103.622 624.832 107.051C623.453 110.725 622.29 114.483 621.016 118.217C620.909 118.544 620.818 118.797 620.944 119.133C621.039 119.425 621.254 119.702 621.537 119.838L621.508 119.793Z" fill="black"/>
<path d="M615.417 150.319C616.088 150.458 616.651 149.991 616.781 149.359C617.345 147.185 617.798 144.989 618.13 142.807C618.268 142.137 617.853 141.508 617.219 141.377C617.219 141.377 617.182 141.37 617.144 141.362C616.54 141.276 615.948 141.698 615.855 142.338C615.477 144.55 615.025 146.746 614.468 148.882C614.33 149.552 614.782 150.189 615.379 150.312L615.417 150.319Z" fill="black"/>
<path d="M613.588 168.646C613.588 168.646 613.513 168.631 613.476 168.623C612.871 168.538 612.308 169.004 612.186 169.6C611.748 171.915 611.318 174.194 610.842 176.502C610.321 179.033 609.658 181.497 608.839 183.967C608.846 183.929 608.854 183.892 608.869 183.818C608.391 185.194 607.876 186.562 607.331 187.886C607.052 188.488 607.257 189.19 607.816 189.499C608.382 189.771 609.13 189.537 609.373 188.927C610.568 186.146 611.472 183.267 612.271 180.327C613.163 176.941 613.801 173.463 614.432 170.023C614.57 169.353 614.155 168.724 613.513 168.631L613.588 168.646Z" fill="black"/>
<path d="M576.744 177.785C576.718 178.478 577.417 179.049 578.052 178.985C578.366 178.972 578.673 178.803 578.876 178.573C579.132 178.276 579.193 177.979 579.232 177.599C579.282 176.6 579.303 175.556 579.398 174.528C579.398 174.528 579.398 174.528 579.39 174.566C579.407 174.297 579.423 174.029 579.447 173.724C579.479 173.381 579.465 173.068 579.258 172.753C579.08 172.484 578.775 172.266 578.439 172.197C578.402 172.189 578.364 172.181 578.327 172.174C578.066 172.12 577.774 172.215 577.504 172.392C577.272 172.577 576.964 172.941 576.977 173.254C576.857 174.781 576.782 176.279 576.744 177.785Z" fill="black"/>
<path d="M693.876 203.495C694.435 203.804 695.153 203.525 695.433 202.923C695.773 202.217 696.105 201.548 696.4 200.871C696.679 200.269 696.481 199.53 695.915 199.258C695.803 199.235 695.662 199.167 695.542 199.181C695.049 199.118 694.57 199.369 694.358 199.83C694.019 200.536 693.686 201.205 693.391 201.881C693.112 202.484 693.31 203.223 693.876 203.495Z" fill="black"/>
<path d="M562.692 176.521L561.914 88.7012L557.368 42.5966L547.546 35.3355L542.982 21.2408L547.909 10.3425L558.844 10.4987L564.038 15.6815L565.27 24.4333L564.098 36.92L570.588 44.3099L589.038 52.9207L606.499 57.8355L636.258 59.3068L657.529 49.8724L657.244 41.6259L657.534 27.5608L668.448 17.4296L681.07 16.381L687.041 25.9146L686.728 35.7453L677.804 45.2774L669.137 55.4447L669.164 66.0826L683.639 86.2536L706.565 102.965L733.933 107.359L779.4 103.372L785.011 76.1229L795.808 68.4509L805.993 70.5482L810.41 75.7263L811.457 88.398L804.921 96.9086L784.731 103.927L773.365 110.395L752.574 133.743L733.684 160.509L702.653 212.054L666.071 215.387L613.896 206.622L585.821 197.349L560.937 182.213L562.692 176.521Z" fill="#FFD700"/>
<path d="M544.079 35.1652C544.464 35.7491 544.902 36.2661 545.348 36.7459C545.339 36.9769 545.331 37.208 545.449 37.3876C545.62 37.6943 545.865 37.8225 546.156 37.9212C546.38 37.9673 546.551 38.0802 546.767 38.1635C546.998 38.3662 547.183 38.5984 547.422 38.7639C548.091 39.2898 548.776 39.7412 549.513 40.1259C549.797 40.2618 550.132 40.331 550.453 40.4745C550.616 40.6246 550.788 40.7375 550.951 40.8876C551.404 41.3302 551.775 41.7946 552.146 42.2591C552.443 42.7082 552.739 43.1573 553.036 43.6063C553.354 44.1376 553.628 44.6983 553.901 45.2591C554.292 46.1933 554.601 47.1494 554.902 48.1427C554.924 48.2248 555.028 48.2851 555.087 48.3749C555.723 51.1444 556.193 53.9577 556.627 56.7632C556.612 56.6439 556.598 56.5245 556.591 56.3679C557.895 65.5227 558.243 74.7909 557.977 84.0106L560.51 108.164C560.47 110.057 560.43 111.95 560.39 113.844C560.128 125.315 559.56 136.761 558.761 148.199C557.999 159.451 557.044 170.702 556.208 181.938L567.459 190.192C568.032 190.62 568.56 191.078 569.14 191.47L598.588 205.217C601.108 206.201 603.627 207.186 606.17 208.058C617.802 212.006 629.767 215.09 641.871 217.311C647.946 218.407 654.112 219.25 660.264 219.779C666.185 220.3 672.174 220.486 678.136 220.433C681.407 220.408 684.665 220.264 687.938 220.045L704.695 216.666C705.276 215.544 705.865 214.385 706.446 213.263C708.16 209.851 709.873 206.44 711.579 203.066C715.067 196.14 718.77 189.297 722.578 182.514C730.352 168.748 738.855 155.404 747.983 142.615C747.878 142.749 747.773 142.883 747.667 143.016C748.156 142.341 748.638 141.703 749.119 141.064L772.578 116.287C774.411 114.181 776.304 112.165 778.294 110.246C779.911 109.57 781.534 109.051 783.255 108.629C785.259 108.149 787.307 107.834 789.304 107.391C790.77 107.072 792.221 106.634 793.659 106.076C794.145 105.982 794.66 105.933 795.154 105.802C797.697 105.161 800.174 104.275 802.585 103.141C804.734 102.148 806.78 100.901 808.589 99.294C809.444 98.5389 810.225 97.7684 810.955 96.8708C811.736 95.9065 812.414 94.8819 813.032 93.7675C813.546 92.7866 813.962 91.7082 814.296 90.6517C814.729 89.3051 814.93 87.9496 815.057 86.5787C815.192 85.1706 815.132 83.7613 814.997 82.3367C814.85 80.5988 814.425 78.8817 813.686 77.3714C813.399 76.6912 813.058 76.0779 812.681 75.4569C812.54 75.1951 812.347 75.0001 812.199 74.7755C811.95 73.7155 811.575 72.7068 811.109 71.7572C810.576 70.7551 809.827 69.8634 809.062 69.0462C808.267 68.184 807.314 67.5222 806.309 66.9272C805.453 66.3629 804.439 65.9988 803.5 65.6502C802.419 65.2336 801.254 65.0327 800.12 64.8767C800.008 64.8536 799.859 64.8229 799.747 64.7998C797.388 64.5469 795.048 64.7637 792.707 65.3681C791.728 65.5933 790.792 65.9826 789.848 66.4092C788.725 66.954 787.706 67.5591 786.694 68.3207C784.518 70.0071 782.781 72.2105 781.566 74.7153C780.425 77.0416 779.844 79.677 779.517 82.2096C779.168 84.66 778.968 87.1411 778.731 89.6146C778.473 91.8121 778.185 93.9648 777.442 96.0624C777.049 97.0291 776.551 97.9355 775.986 98.7894C775.723 99.1232 775.385 99.4417 775.092 99.7307C769.039 101.744 762.905 103.391 756.647 104.508C747.466 106.033 738.194 106.49 728.958 105.636C721.612 104.861 714.45 103.192 707.547 100.451C701.92 98.1285 696.587 95.1291 691.706 91.4465C687.116 87.8627 683.037 83.6856 679.447 79.0269C675.879 74.2565 672.948 69.0353 670.542 63.5341C670.336 62.8321 670.176 62.1006 669.978 61.3613C670.241 61.0275 670.355 60.6629 670.373 60.2008C670.403 60.0519 670.404 59.8581 670.398 59.7015C670.497 59.2176 670.522 58.7183 670.652 58.2793C670.79 57.6092 671.047 56.9249 671.26 56.2702C671.555 55.5937 671.895 54.8875 672.227 54.2187C672.596 53.5575 673.04 52.9116 673.44 52.2953C673.424 52.3698 673.342 52.3916 673.289 52.4584C673.552 52.1246 673.816 51.7907 674.079 51.4569C676.06 51.0888 677.991 50.3998 679.811 49.494C682.148 48.3454 684.18 46.7849 686.072 44.9626C687.048 43.9994 687.898 42.8939 688.636 41.7653C688.975 41.253 689.306 40.7779 689.608 40.2579C690.09 39.426 690.438 38.4888 690.779 37.5889C691.711 35.142 692.061 32.4978 691.903 29.8653C691.74 26.6887 690.643 23.7076 689.268 20.941C688.411 19.2511 687.261 17.6562 685.954 16.2617C685.315 15.5869 684.579 15.0084 683.805 14.4222C683.165 13.9412 682.473 13.5269 681.727 13.1795C680.349 12.5076 678.947 12.1412 677.461 11.9905C677.237 11.9444 677.006 11.9356 676.774 11.9267C675.169 11.7902 673.606 12.0117 672.013 12.3822C670.54 12.7385 669.08 13.4079 667.724 14.1377C666.286 14.8892 665.011 15.7909 663.743 16.8492C658.589 21.1041 654.523 27.2517 653.807 34.1279C653.517 36.862 654.003 39.6008 655.17 42.053C655.17 42.053 655.17 42.053 655.162 42.0902C655.221 42.3739 655.324 42.628 655.427 42.882C655.567 43.3376 655.632 43.7778 655.726 44.263C655.755 44.5017 655.746 44.7327 655.782 44.9342C655.81 45.3668 655.793 45.8288 655.746 46.246C655.723 46.3577 655.707 46.4321 655.684 46.5438C655.616 46.685 655.519 46.7814 655.451 46.9226C655.451 46.9226 655.458 46.8854 655.503 46.8558C655.496 46.893 655.451 46.9226 655.398 46.9894C655.39 47.0266 655.338 47.0933 655.293 47.1229C655.293 47.1229 655.301 47.0857 655.308 47.0484C654.398 48.258 653.354 49.3623 652.221 50.332C650.683 51.5675 649.034 52.5862 647.267 53.4252C644.265 54.786 641.168 55.6616 637.967 56.2832C630.468 57.5718 622.835 57.4357 615.287 56.6964C610.068 56.1651 604.956 55.3064 599.845 54.2539C596.45 53.5548 593.101 52.6324 589.767 51.6355C584.967 49.6382 580.356 47.2917 575.82 44.7667C573.861 43.7036 571.925 42.5289 569.981 41.3914C569.469 40.859 568.986 40.3715 568.518 39.8095C567.754 38.7985 567.088 37.6912 566.519 36.4875C566.187 35.6431 565.938 34.7768 565.77 33.8887C566.232 32.7808 566.611 31.6948 566.923 30.5561C567.434 28.6434 567.683 26.6769 567.821 24.6874C567.981 22.5862 567.79 20.4902 567.48 18.4085C567.191 16.6027 566.572 14.8844 565.819 13.2547C565.066 11.625 563.931 10.1495 562.599 9.06049C561.238 7.92654 559.681 7.17903 557.965 6.82564C557.666 6.76418 557.331 6.69504 557.025 6.67081C555.203 6.45096 553.357 6.73042 551.621 7.22674C550.641 7.45185 549.735 7.88614 548.829 8.32043C548.05 8.70332 547.331 9.17602 546.641 9.69363C545.073 10.8843 543.825 12.4123 542.808 14.143C541.918 15.6285 541.327 17.3692 540.982 19.0444C540.591 20.943 540.491 22.9402 540.608 24.8269C540.857 28.5259 542.056 32.1487 544.042 35.1576L544.079 35.1652ZM786.141 81.0125C786.944 79.0047 787.962 77.0802 789.189 75.2762C789.829 74.4377 790.527 73.6891 791.293 72.993C791.885 72.5717 792.477 72.1504 793.166 71.8266C794.057 71.4668 794.933 71.1814 795.822 71.0154C796.346 70.9291 796.883 70.9622 797.391 70.9504C798.526 71.1064 799.6 71.3664 800.651 71.7381C801.471 72.101 802.238 72.5305 802.99 73.0346C803.727 73.6131 804.373 74.2507 804.959 74.9923C805.501 75.7634 805.952 76.5936 806.358 77.4534C806.763 78.5069 807.041 79.6119 807.245 80.7015C807.439 82.216 807.446 83.692 807.296 85.1746C807.087 86.5673 806.729 87.9293 806.304 89.2387C806.054 89.8858 805.774 90.4879 805.457 91.0823C805.389 91.2235 805.329 91.3275 805.261 91.4688C805.246 91.5432 805.156 91.6023 805.133 91.714C804.125 93.0198 803.066 94.1986 801.835 95.2646C800.688 96.1149 799.518 96.883 798.29 97.5613C796.957 98.1794 795.58 98.6332 794.159 98.9227C793.756 98.9948 793.322 99.0219 792.881 99.0863C792.695 99.0479 792.522 99.1289 792.365 99.1354C791.604 99.0562 790.865 98.8653 790.135 98.6372C789.456 98.3423 788.831 97.9807 788.221 97.5446C788.221 97.5446 788.183 97.5369 788.154 97.492C788.058 97.2007 787.873 96.9685 787.642 96.7658C787.323 96.4284 787.003 96.091 786.721 95.7613C786.336 95.1774 785.995 94.5641 785.692 93.9584C785.317 92.9497 785.023 91.9192 784.894 90.845C784.73 89.3754 784.76 87.9071 784.91 86.4245C785.166 84.6146 785.601 82.8803 786.193 81.1396L786.141 81.0125ZM781.158 96.9051C781.158 96.9051 781.402 97.2272 781.521 97.4068C781.184 97.5315 780.892 97.6266 780.556 97.7513C780.766 97.4842 780.947 97.1722 781.158 96.9051ZM629.836 115.416C626.305 124.817 623.864 134.597 621.765 144.409C619.766 153.932 618.206 163.583 616.878 173.244C616.84 173.43 616.801 173.616 616.8 173.81C615.787 178.917 614.625 183.994 613.023 188.942C612.811 189.597 612.561 190.244 612.318 190.853C611.702 191.58 611.093 192.27 610.38 192.899C609.72 193.462 609.023 194.016 608.295 194.526C607.523 195.066 606.737 195.486 605.942 195.943C604.392 196.672 602.798 197.236 601.16 197.636C600.472 197.766 599.785 197.896 599.112 197.952C599.037 197.936 598.977 198.04 598.895 198.062C598.142 197.752 597.336 197.508 596.584 197.198C589.741 194.354 583.171 190.944 576.956 186.754C575.392 185.85 573.843 184.871 572.453 183.692C572.386 183.64 572.326 183.55 572.297 183.505C572.297 183.505 572.334 183.513 572.371 183.52C572.371 183.52 572.371 183.52 572.334 183.513C571.828 183.137 571.465 182.635 571.056 182.163C570.938 181.983 570.774 181.833 570.656 181.654C570.241 181.025 569.916 180.337 569.673 179.627C569.599 179.418 569.481 179.239 569.37 179.022C568.841 177.244 568.432 175.453 568.233 173.588C568.264 173.439 568.228 173.238 568.221 173.081C568.221 173.081 568.229 173.044 568.236 173.006C568.429 170.369 568.578 167.761 568.696 165.107C568.952 158.951 569.089 152.81 569.197 146.623C569.352 134.16 569.118 121.694 568.564 109.279C568.311 103.329 567.894 97.4223 567.44 91.508C567.25 89.2183 567.023 86.9209 566.788 84.6607C566.665 79.7847 566.459 74.9305 565.976 70.0969C565.331 63.4062 564.157 56.6452 562.047 50.2736C562.025 50.1914 562.01 50.0721 561.988 49.9899C566.864 54.6415 571.837 59.1968 577.081 63.381C583.702 68.6248 590.767 73.2226 598.307 76.832C605.84 80.4785 613.871 83.0248 622.096 84.2529C625.94 84.8503 629.823 85.0678 633.715 85.0543C634.834 88.1175 636.912 90.6797 639.427 92.6332C636.784 98.1037 634.416 103.747 632.339 109.49C631.5 111.49 630.705 113.46 629.94 115.476L629.836 115.416ZM739.603 116.831C745.771 115.773 751.889 114.394 757.94 112.768C760.985 111.96 764.045 111.076 767.075 110.148C768.444 109.731 769.821 109.278 771.205 108.787C757.969 123.019 745.907 138.346 734.782 154.41C727.421 165.04 720.528 176.038 714.053 187.278C710.901 192.76 707.847 198.34 704.971 203.995C704.382 205.154 703.831 206.321 703.28 207.488C702.927 207.687 702.613 207.894 702.253 208.131C702.141 208.107 702.066 208.092 701.954 208.069C700.581 209.261 698.866 210.033 697.021 210.119C695.878 210.194 694.787 210.202 693.674 210.128C693.547 210.18 693.383 210.223 693.218 210.267C692.425 210.531 691.639 210.757 690.854 210.983C690.607 211.049 690.36 211.114 690.113 211.18C688.887 211.471 687.676 211.687 686.48 211.829C686.48 211.829 686.405 211.813 686.36 211.843C686.039 211.893 685.725 211.906 685.411 211.919C684.417 212.025 683.386 212.123 682.407 212.154C681.779 212.18 681.159 212.169 680.569 212.203C679.83 212.206 679.082 212.246 678.351 212.211C677.268 212.182 676.214 212.198 675.139 212.132C673.87 212.065 672.637 212.005 671.375 211.9C666.895 211.56 662.424 210.989 657.953 210.417C655.415 210.088 652.899 209.842 650.383 209.596C649.435 209.478 648.479 209.398 647.531 209.28C646.239 209.13 644.985 208.989 643.694 208.839C641.798 208.604 639.872 208.324 637.984 208.051C637.201 207.696 636.381 207.333 635.659 206.874C634.305 205.897 633.063 204.749 631.972 203.438C630.37 201.4 629.037 199.185 627.929 196.823C627.161 195.074 626.566 193.244 626.082 191.437C626.008 189.908 625.859 188.364 625.822 186.843C625.599 180.938 625.608 175.041 625.975 169.102L625.96 169.177C625.983 169.065 625.998 168.991 626.021 168.879C626.021 168.879 626.037 168.805 626.044 168.767C626.349 164.833 626.773 160.885 627.272 156.952C627.856 152.416 628.634 147.88 629.479 143.398C629.564 142.988 629.371 142.6 629.074 142.344C629.78 138.726 630.524 135.115 631.379 131.527C633.648 122.021 636.55 112.646 640.303 103.679C641.573 100.72 642.977 97.8657 644.456 95.027C645.225 95.2628 646.03 95.5063 646.829 95.5932C649.247 95.9359 651.549 95.7114 653.912 95.1891C654.076 95.3392 654.21 95.4444 654.373 95.5945C657.541 98.3422 661.032 100.652 664.704 102.65C666.596 103.66 668.511 104.559 670.434 105.421C671.841 106.331 673.203 107.272 674.625 108.108C684.12 113.555 694.762 116.833 705.542 118.122C716.896 119.451 728.382 118.634 739.634 116.682L739.603 116.831ZM718.997 113.403C718.139 113.226 717.244 113.042 716.386 112.865C717.67 113.052 718.953 113.239 720.245 113.388C719.812 113.415 719.386 113.405 718.997 113.403ZM659.693 31.4206C660.358 29.889 661.165 28.4253 662.106 27.0669C663.332 25.4567 664.684 23.989 666.193 22.7085C667.535 21.6656 668.929 20.7498 670.434 20.0508C671.407 19.6691 672.365 19.3618 673.345 19.1367C674.19 19.0002 675.056 18.9459 675.938 19.0109C676.534 19.1338 677.131 19.2567 677.713 19.4541C678.279 19.7259 678.801 20.0273 679.314 20.3659C679.909 20.8764 680.451 21.4538 680.986 22.0683C681.668 23.1012 682.267 24.1559 682.769 25.307C683.218 26.5249 683.556 27.7196 683.803 28.9735C683.91 29.9656 683.942 30.9424 683.855 31.9333C683.678 32.7895 683.502 33.6457 683.222 34.4417C682.791 35.4007 682.293 36.3071 681.766 37.1686C680.968 38.2074 680.119 39.1191 679.166 39.9706C677.494 41.2947 675.71 42.402 673.845 43.3374C674.017 43.2564 674.235 43.1459 674.407 43.065C674.197 43.1383 674.017 43.2564 673.808 43.3297C673.718 43.3888 673.591 43.4402 673.501 43.4993C673.591 43.4402 673.673 43.4183 673.763 43.3592C672.647 43.8668 671.539 44.3371 670.424 44.8447C669.143 45.396 667.745 45.7676 666.406 46.0353C666.645 46.0069 666.855 45.9336 667.094 45.9053C666.81 45.9632 666.526 46.0211 666.249 46.0418C666.079 45.7351 665.819 45.4875 665.498 45.3439C664.433 44.8528 663.383 44.2873 662.43 43.6255C661.664 43.0021 660.98 42.3569 660.364 41.5704C659.971 41.0238 659.66 40.4553 659.365 39.8124C659.114 39.14 658.939 38.4829 658.815 37.7591C658.715 36.9235 658.727 36.1111 658.784 35.269C658.94 33.9431 659.283 32.6555 659.738 31.391L659.693 31.4206ZM659.186 46.9156C659.186 46.9156 659.186 46.9156 659.193 46.8783C659.193 46.8783 659.193 46.8783 659.231 46.886L659.186 46.9156ZM657.211 53.1057C658.327 52.5982 659.435 52.1278 660.55 51.6203C661.187 51.3633 661.823 51.1062 662.451 50.8864C664.805 60.8005 668.758 70.3069 674.354 78.638C679.616 86.5123 686.394 93.069 694.173 98.1633C701.409 102.874 709.587 106.032 717.943 107.947C714.479 107.583 711.046 107.07 707.621 106.326C705.606 105.911 703.577 105.377 701.593 104.813C699.654 104.22 697.701 103.507 695.822 102.81C690.15 100.517 684.825 97.48 679.914 93.7526C679.981 93.8052 680.078 93.9027 680.145 93.9553C679.245 93.2267 678.337 92.5353 677.482 91.7772C677.289 91.5822 677.036 91.4912 676.767 91.4746C676.431 91.4055 676.094 91.5301 675.839 91.8268C675.433 92.2865 675.376 93.1285 675.837 93.5339C678.284 95.6286 680.798 97.5822 683.41 99.4394C686.253 101.499 689.269 103.284 692.36 104.891C692.71 105.08 693.031 105.223 693.389 105.375C690.005 103.863 686.682 102.247 683.435 100.453C678.691 97.8078 674.105 94.7682 669.768 91.4692C669.663 91.4089 669.522 91.3409 669.365 91.3474C669.178 91.309 668.976 91.3451 668.849 91.3965C668.557 91.4916 668.317 91.7138 668.152 91.9513C668.016 92.2337 667.976 92.6137 668.072 92.905C668.16 93.2335 668.353 93.4285 668.621 93.6389C672.757 96.7802 677.112 99.6171 681.596 102.209C686.116 104.808 690.825 107.059 695.67 109.026C699.576 110.645 703.58 111.974 707.622 113.117C706.973 113.061 706.345 113.087 705.703 112.994C698.559 112.182 691.554 110.507 684.83 107.842C678.346 105.149 672.314 101.578 666.659 97.3095C664.584 95.6792 662.598 93.9898 660.673 92.1964C662.75 90.8001 664.53 88.9548 665.967 86.8838C667.307 84.909 668.267 82.7009 668.862 80.3787C669.564 77.5353 669.378 74.6641 668.944 71.8586C667.969 65.6429 664.101 59.6855 658.572 57.0724C657.082 56.3775 655.538 55.9432 653.977 55.7771C653.067 55.6672 652.133 55.6689 651.184 55.7451C653.19 54.8777 655.205 53.9731 657.219 53.0685L657.211 53.1057ZM642.626 65.1975C643.097 65.178 643.486 64.9866 643.958 64.7733C643.958 64.7733 643.958 64.7733 643.995 64.781C645.148 64.2811 646.316 63.9006 647.535 63.6471C648.536 63.5041 649.515 63.4728 650.516 63.5237C651.837 63.7181 653.09 64.0537 654.357 64.5087C655.535 65.0228 656.615 65.6333 657.664 66.3926C658.527 67.1135 659.299 67.8935 660.02 68.7402C660.62 69.6012 661.138 70.484 661.567 71.4259C661.891 72.3075 662.132 73.211 662.292 74.1363C662.405 75.285 662.444 76.4184 662.326 77.5582C662.157 78.571 661.912 79.5684 661.593 80.5505C661.147 81.5839 660.597 82.5571 659.972 83.5149C659.19 84.4793 658.378 85.3987 657.433 86.2129C656.458 86.9823 655.431 87.6245 654.345 88.177C653.192 88.6769 652.025 89.0574 650.798 89.3481C649.595 89.5271 648.422 89.5572 647.235 89.468C646.294 89.3131 645.369 89.0838 644.422 88.7724C643.498 88.3493 642.634 87.8222 641.786 87.2207C641.028 86.5601 640.322 85.8327 639.669 85.0385C639.157 84.3123 638.728 83.5642 638.381 82.7943C638.027 81.8677 637.756 80.9193 637.604 79.9568C637.461 78.7631 637.467 77.6003 637.518 76.4079C637.751 74.7096 638.17 73.0498 638.776 71.4284C639.465 69.7851 640.324 68.2547 641.333 66.7551C641.754 66.2209 642.176 65.6868 642.634 65.1603L642.626 65.1975ZM564.464 43.6314C566.772 45.0767 569.133 46.4553 571.501 47.7967C575.784 50.2307 580.224 52.4643 584.763 54.4079C589.19 56.3284 593.686 57.9138 598.317 59.2168C603.143 60.521 608.099 61.3862 613.093 61.8714C618.014 62.3413 622.958 62.5056 627.934 62.1334C631.925 61.8298 635.888 61.0936 639.808 59.9994C640.675 59.7512 641.521 59.4209 642.352 59.1651C641.797 59.594 641.279 60.0307 640.746 60.5418C640.506 60.764 640.333 61.0388 640.189 61.3584C637.396 63.9654 635.324 67.4191 633.99 71.0637C633.293 72.938 632.865 74.8289 632.653 76.8031C632.567 77.6002 632.6 78.3831 632.596 79.1584C630.901 79.0809 629.243 79.0112 627.563 78.8593C623.345 78.3788 619.136 77.6673 614.988 76.658C611.101 75.7024 607.276 74.4491 603.526 73.0173C603.526 73.0173 603.489 73.0096 603.451 73.0019C603.451 73.0019 603.414 72.9942 603.377 72.9865C603.377 72.9865 603.377 72.9865 603.339 72.9788C603.265 72.9635 603.19 72.9481 603.123 72.8955C603.123 72.8955 603.198 72.9109 603.235 72.9186C603.086 72.8878 602.952 72.7827 602.803 72.7519C602.915 72.775 603.027 72.798 603.131 72.8583C598.398 70.9136 593.808 68.6492 589.407 66.0356C589.057 65.8471 588.76 65.5918 588.41 65.4033C590.042 66.1662 591.652 66.8469 593.306 67.4981C596.832 68.8838 600.397 70.0834 604.066 71.1495C607.773 72.2232 611.51 73.148 615.279 73.9239C615.913 74.0545 616.535 73.6781 616.71 73.0157C616.84 72.3829 616.478 71.6874 615.851 71.5196C612.083 70.7436 608.308 69.8112 604.602 68.7374C601.074 67.7393 597.554 66.5102 594.133 65.1848C590.868 63.8528 587.671 62.3797 584.55 60.7281C584.55 60.7281 584.55 60.7281 584.513 60.7204C586.272 61.4319 588.084 62.0766 589.858 62.7136C592.87 63.7607 595.958 64.6294 599.062 65.4236C602.389 66.2639 605.709 66.9476 609.09 67.5274C615.449 68.5651 621.862 69.1484 628.293 69.2697C628.913 69.2809 629.432 68.6504 629.413 67.9869C629.401 67.2861 628.873 66.8281 628.216 66.8092C625.736 66.7642 623.235 66.6371 620.756 66.3984C618.472 66.1608 616.24 65.8564 613.986 65.47C611.351 65.0439 608.792 64.4393 606.204 63.7899C603.831 63.2238 601.482 62.546 599.111 61.7861C596.665 61.0108 594.249 60.0865 591.834 59.1623L591.909 59.1777C591.797 59.1547 591.722 59.1393 591.618 59.079C591.543 59.0637 591.469 59.0483 591.394 59.0329L591.469 59.0483C586.407 56.9972 581.431 54.5366 576.657 51.8462C571.853 49.1109 567.156 46.0482 562.714 42.6889C563.235 42.9902 563.756 43.2916 564.278 43.593L564.464 43.6314ZM546.401 18.414C546.771 17.559 547.216 16.7194 547.728 15.9323C548.21 15.2942 548.75 14.7458 549.366 14.2128C549.958 13.7915 550.543 13.4075 551.149 13.1055C552.085 12.7162 552.998 12.4385 554.015 12.221C554.777 12.1064 555.487 12.0586 556.256 12.1005C556.853 12.2234 557.413 12.3387 557.965 12.4911C558.427 12.7027 558.844 12.9438 559.246 13.2593C559.677 13.6198 560.056 14.047 560.435 14.4742C560.879 15.1478 561.279 15.851 561.663 16.6286C562.172 17.9363 562.478 19.28 562.74 20.6532C563.034 23.0032 563.051 25.3739 562.83 27.7729C562.527 30 562.074 32.1963 561.324 34.3312C561.165 34.7253 561.006 35.1195 560.817 35.4687C560.519 35.4072 560.235 35.4651 559.98 35.5679C558.864 36.0755 557.734 36.4637 556.56 36.6876C555.843 36.7727 555.141 36.7833 554.409 36.749C553.775 36.6184 553.103 36.4802 552.484 36.2751C551.776 35.9353 551.151 35.5737 550.503 35.1299C549.804 34.5591 549.195 33.9292 548.638 33.2325C547.941 32.2741 547.371 31.2642 546.891 30.1953C546.361 28.8055 545.995 27.372 545.749 25.9243C545.577 24.492 545.554 23.0904 545.696 21.645C545.881 20.5578 546.133 19.5231 546.468 18.4666L546.401 18.414Z" fill="black"/>
</g>
</g>
<defs>
<clipPath id="clip0_473_624">
<rect width="1080" height="1080" fill="white"/>
</clipPath>
<clipPath id="clip1_473_624">
<rect width="344" height="222" fill="white" transform="translate(539.922 -16.4087) rotate(11.6354)"/>
</clipPath>
</defs>
</svg>
