<svg width="1080" height="1080" viewBox="0 0 1080 1080" fill="none" xmlns="http://www.w3.org/2000/svg">
<path d="M179.5 417.185L171 412.67C171 412.67 170.5 411.97 151.216 408.717C122.715 403.909 107.611 399.099 86.2531 383.455C77.8804 377.322 71.9366 369.483 72.0005 360.624C72.0083 359.411 72.109 358.203 72.3025 356.999C72.4961 355.795 72.7813 354.604 73.158 353.424C83.019 322.94 147.649 304.199 184.5 295.861C193.596 293.802 212.591 291.647 219.658 287.995C221.786 286.894 223.36 285.314 224.671 283.683C230.989 275.819 235.99 267.106 241.796 258.999C252.609 244.174 264.049 229.616 276.118 215.324C279.58 211.34 283.102 207.384 286.685 203.457C290.265 199.53 293.908 195.633 297.612 191.767C301.314 187.901 305.075 184.065 308.894 180.261C312.714 176.457 316.592 172.685 320.528 168.945C324.463 165.205 328.455 161.498 332.505 157.825C336.554 154.151 340.661 150.511 344.823 146.905C348.984 143.3 353.201 139.729 357.472 136.193C361.742 132.657 366.067 129.157 370.445 125.692C376.202 121.066 381.336 115.842 387.389 111.459C415.426 91.1665 445.845 70.575 476.866 52.8253C505.875 36.227 565.424 5.55827 602.387 6.00482C633.327 6.37865 657.327 21.6416 677.269 37.4068C681.903 41.0694 686.777 44.7463 691.007 48.6649C694.447 51.8527 697.038 55.743 700.012 59.1838C706.642 66.8612 713.349 74.4785 719.689 82.2906C743.518 111.658 762.927 140.884 782.681 171.74C789.381 182.212 796.391 192.577 802.867 203.129C814.926 222.778 826.147 242.845 838.885 262.246C842.088 267.121 853.524 290.111 856.572 292.327C862.721 296.801 880.877 299.375 889.435 301.546C926.388 310.914 959.704 320.774 987.174 342.035C997.478 350.01 1005.36 358.898 1004.99 370.267C1001.65 373.717 999.487 377.639 996.615 381.298C989.547 390.295 978.011 396.677 964.93 400.339C964.93 400.339 915 426.609 901 425.321C901 425.321 899 417 899 413.5C899 413.5 897.015 404.688 897 404.5L893.5 391.5C888 381.298 885.935 381 882.5 376C881.5 373 859.5 363.5 859.5 363.5C857 361.5 855.114 359.801 855 355C854 351.5 852.51 344.146 850.572 342.035C846.077 338.319 820.606 334.835 810.928 332.789C804.804 331.411 798.458 330.446 792.232 329.345C786.284 328.119 779.935 326.998 773.82 326.375L773.262 326.236C771.534 325.831 769.748 325.595 767.974 325.319C751.904 322.566 732.48 319.272 716.024 318.798C695.239 315.701 673.946 315.298 652.918 313.877C638.334 312.933 623.731 312.17 609.109 311.587C594.49 311.005 579.862 310.604 565.224 310.384C550.584 310.165 535.944 310.126 521.304 310.268C506.664 310.412 492.032 310.736 477.406 311.24C462.345 311.829 447.542 313.136 432.552 314.004C418.413 314.822 404.24 315.18 390.125 316.202C356.294 318.649 321.478 322.713 288.165 327.639C278.969 328.998 270.155 331.506 260.973 333.024C249.265 334.957 206.675 338.429 198 342.536C198 342.536 198 342.766 196.867 345.421C195.981 347.495 195.441 349.707 194.899 351.896C194.475 353.61 194 355.323 194 357.99C194 361.424 197.991 368.952 198 374C198.5 379.151 190 385.5 187.5 392C182.889 399.948 181.604 413.573 179.5 417.185ZM241.361 281.207C250.709 280.384 260.597 278.151 269.871 276.667C287.489 273.824 305.163 271.187 322.895 268.757C351.049 264.868 379.291 261.361 407.621 258.236C435.95 255.111 464.349 252.37 492.816 250.014C519.142 247.988 545.525 246.515 571.965 245.593C585.079 245.106 598.342 245.072 611.426 244.361C614.675 244.184 617.609 242.99 620.768 242.845C626.661 242.578 632.75 243.153 638.68 243.054C652.748 242.82 671.237 240.6 684.278 236.454C685.287 236.42 686.327 236.39 687.323 236.245C691.062 235.704 693.114 233.214 695.147 231.1C695.304 231.043 695.458 230.991 695.616 230.935L696.384 230.645C697.189 230.346 697.979 230.049 698.763 229.72C717.634 221.775 733.763 205.186 739.295 189.872C746.789 169.124 739.97 146.584 725.399 128.32L724.113 127.998C719.572 130.55 717.483 136.309 710.788 136.256C708.317 135.552 706.747 134.317 705.689 132.523C704.001 129.67 703.56 126.176 702.52 123.157C697.97 121.414 692.497 119.741 690.63 115.894C689.865 114.32 690.066 112.618 691.102 111.138C693.882 107.16 700.614 105.504 705.858 103.849C706.003 99.0065 707.197 92.6319 705.34 87.9792C701.036 77.2011 669.331 47.4046 657.592 38.3703C643.135 27.2445 624.223 17.3708 602.405 17.118C591.052 16.9864 578.817 20.8622 568.583 24.1569C503.626 45.068 439.009 90.2915 388.601 126.74C363.417 144.95 341.211 165.819 320.744 186.922C313.309 194.587 305.695 202.143 298.612 209.989C288.338 221.533 278.428 233.243 268.88 245.12C259.335 256.995 250.162 269.024 241.361 281.207ZM725.399 128.32C739.97 146.584 746.789 169.124 739.295 189.872C733.763 205.186 717.634 221.775 698.763 229.72C697.979 230.049 697.189 230.346 696.384 230.645L695.616 230.935C695.458 230.991 695.304 231.043 695.147 231.1C693.114 233.214 691.062 235.704 687.323 236.245C686.327 236.39 685.287 236.42 684.278 236.454C671.237 240.6 652.748 242.82 638.68 243.054C632.75 243.153 626.661 242.578 620.768 242.845C617.609 242.99 614.675 244.184 611.426 244.361C598.342 245.072 585.079 245.106 571.965 245.593C545.525 246.515 519.142 247.988 492.816 250.014C464.349 252.37 435.95 255.111 407.621 258.236C379.291 261.361 351.049 264.868 322.895 268.757C305.163 271.187 287.489 273.824 269.871 276.667C260.597 278.151 250.709 280.384 241.361 281.207L238.393 285.67C247.655 284.179 256.937 282.759 266.24 281.409C275.542 280.06 284.862 278.781 294.2 277.573C303.538 276.366 312.892 275.229 322.262 274.163C331.633 273.098 341.016 272.105 350.414 271.184C359.813 270.261 369.224 269.41 378.646 268.633C388.067 267.855 397.5 267.148 406.942 266.512C416.385 265.878 425.835 265.315 435.294 264.824C444.753 264.333 454.217 263.915 463.687 263.569C505.15 261.815 546.408 261.047 587.924 262.364C605.507 263.006 623.064 263.907 640.596 265.069C658.128 266.232 675.621 267.653 693.077 269.333C741.926 273.73 790.927 279.607 838.046 290.269C830.218 278.857 822.827 267.293 815.873 255.578C805.961 239.145 747.116 136.135 739.696 131.702C734.319 131.694 730.166 129.932 725.399 128.32ZM715.465 99.3302C714.99 102.894 715.731 106.784 711.717 109.425C708.737 111.387 702.708 112.486 698.951 113.67C702.853 115.416 707.092 117.056 710.742 119.066C711.738 121.551 712.667 124.021 713.454 126.546L717.693 122.79C719.103 121.618 720.167 120.786 722.478 120.719C726.479 120.604 731.036 122.805 734.741 123.849C730.909 116.381 726.562 109.246 721.756 102.093C719.723 101.11 717.714 100.024 715.465 99.3302Z" fill="black"/>
<path d="M712.5 92C714.574 92.6882 725 104 726.5 105.5C730.932 112.596 739.967 119.591 743.5 127C740.084 125.965 727.19 120.886 723.5 121C721.342 121.067 721 121 719 122L716 124.5L711.5 129.5C710.775 126.995 711.69 121.558 710.771 119.094C707.406 117.1 702.098 115.233 698.5 113.5C701.965 112.326 708.023 111.235 710.771 109.289C714.472 106.669 712.062 95.5351 712.5 92Z" fill="#FAD06B"/>
<path d="M900.689 415.935C905.211 416.13 911.355 413.829 915.633 412.602C936.736 406.54 942.999 400.5 955.499 386C958.455 383.898 958.977 380.274 960.999 377.549C945.207 367.608 913.429 355.747 893.861 353.972C889.999 353.621 893.861 353.972 878.435 350.551C878.435 350.551 863.456 347.913 863 348.002C858.817 355.527 875.151 367.404 880.609 371.089C881.748 371.858 882.828 372.697 883.819 373.648L892 381.5C892.684 383.302 895.72 388.99 898.013 394.271C900.334 399.617 900.185 406.172 900.995 411.943C901.243 413.709 901.294 415.227 900.689 415.935Z" fill="#514B4B"/>
<path d="M109 383.346C110.602 375.407 114.479 371.019 122.072 365.854C126.833 362.612 132.23 360.137 137.879 357.989C147.178 354.455 224 334 232.5 336.5C232 341 226 360 223 362C219.5 365.5 210 368 205 371.5C205 371.5 201.5 374.5 195.5 380.5C195.5 380.5 193.282 383.363 189 390.5C184.5 398 184 401.5 184 401.5C158.175 399.647 131.574 393.338 109 383.346Z" fill="#514B4B"/>
<path d="M88.3042 357.94L88.854 359.685L89.2153 359.233L89.1789 360.032C92.8898 357.792 96.334 355.251 100.157 353.122C107.218 349.189 115.626 345.987 123.504 343.028C147.584 333.98 172.949 327.538 198.7 321.678C267.557 306.015 334.464 298.608 405.811 294.006C417.02 293.283 428.241 292.657 439.472 292.129C450.702 291.603 461.939 291.173 473.183 290.84C484.427 290.509 495.674 290.276 506.924 290.141C518.176 290.005 529.429 289.967 540.681 290.028C551.933 290.09 563.182 290.25 574.428 290.507C585.676 290.762 596.918 291.117 608.154 291.571C619.39 292.023 630.618 292.574 641.837 293.223C653.055 293.872 664.261 294.619 675.456 295.463C691.783 296.784 708.083 298.84 724.31 300.721C737 302.145 749.659 303.707 762.285 305.409C774.912 307.111 787.502 308.952 800.056 310.931C812.609 312.908 825.121 315.023 837.591 317.276C850.06 319.528 862.482 321.917 874.856 324.442C887.216 327.009 907.894 331.786 918.769 336.595C921.483 337.793 923.218 340.353 925.879 341.789C933.885 346.117 960.826 358.455 969.41 360.271C971.047 360.618 971.619 360.618 973.063 359.978C973.696 358.292 972.543 356.885 971.754 355.267C976.646 360.125 978.126 364.773 977.992 370.766C976.144 372.961 974.207 374.987 972.017 377C958.761 364.56 939.515 355.012 920.467 348C899.529 340.294 877.108 335.197 854.805 330.213C847.757 328.628 840.685 327.1 833.592 325.629C826.498 324.16 819.385 322.749 812.25 321.395C805.114 320.041 797.959 318.746 790.786 317.51C783.611 316.274 776.419 315.096 769.212 313.976C762.002 312.858 754.777 311.799 747.536 310.799C740.296 309.799 733.041 308.858 725.773 307.976C718.506 307.094 711.225 306.272 703.932 305.509C696.639 304.747 689.335 304.044 682.021 303.401C675.234 302.856 668.441 302.35 661.643 301.881C654.843 301.413 648.04 300.984 641.234 300.592C634.426 300.2 627.615 299.847 620.801 299.534C613.987 299.219 607.17 298.943 600.35 298.706C593.529 298.47 586.707 298.272 579.883 298.111C573.059 297.952 566.233 297.831 559.407 297.748C552.581 297.666 545.753 297.623 538.925 297.617C532.098 297.612 525.272 297.645 518.446 297.716C511.617 297.789 504.791 297.9 497.967 298.05C491.142 298.198 484.32 298.386 477.5 298.613C470.68 298.84 463.861 299.105 457.045 299.407C450.229 299.711 443.417 300.054 436.609 300.435C429.801 300.816 422.997 301.235 416.197 301.692C409.397 302.151 402.604 302.647 395.816 303.181C389.026 303.717 382.243 304.29 375.465 304.901C368.688 305.512 361.917 306.162 355.152 306.85C323.977 309.939 292.387 313.432 261.693 318.524C244.309 321.408 227.499 325.697 210.345 329.181C177.435 335.864 141.162 341.598 113.927 357.767C106.184 362.365 100.725 367.628 96.0021 374.045C91.3727 371.402 88.9846 368.175 88.2351 363.854C87.8888 361.857 87.9362 359.928 88.3042 357.94Z" fill="#5687B5"/>
<path d="M88 358.445C88.0723 358.215 88.1412 357.982 88.2168 357.749C93.0334 343.008 110.634 333.757 127.346 326.416C166.429 309.248 216.815 300.828 261.053 293.901C274.992 291.764 288.975 289.799 303.001 288.008C317.029 286.214 331.094 284.595 345.193 283.148C359.293 281.7 373.422 280.427 387.579 279.327C401.736 278.229 415.914 277.305 430.114 276.554C462.376 274.557 494.692 273.38 527.064 273.022C620.221 272.518 718.365 280.551 808.563 297.679C854.912 306.481 919.746 321.417 956.891 343.761C962.502 347.136 968.791 351.131 972.506 355.78C973.296 357.393 974.451 358.796 973.817 360.477C972.371 361.115 971.798 361.115 970.16 360.769C961.565 358.959 933.423 347.734 926.5 342.451C923.835 341.019 922.042 339.539 919.5 337.706C908.611 332.912 887.867 327.611 875.492 325.052C863.104 322.535 850.667 320.154 838.182 317.908C825.698 315.662 813.171 313.554 800.603 311.583C788.034 309.61 775.429 307.775 762.787 306.078C750.145 304.382 737.472 302.824 724.766 301.405C708.521 299.529 692.201 297.48 675.854 296.163C664.645 295.321 653.426 294.577 642.195 293.93C630.962 293.283 619.721 292.734 608.471 292.283C597.222 291.831 585.967 291.477 574.705 291.222C563.446 290.966 552.183 290.807 540.918 290.745C529.652 290.685 518.386 290.722 507.121 290.858C495.857 290.992 484.597 291.225 473.339 291.555C462.082 291.887 450.831 292.315 439.588 292.84C428.343 293.366 417.109 293.99 405.886 294.711C334.455 299.299 267.467 306.683 198.528 322.297C172.746 328.138 147.351 334.56 123.242 343.58C115.354 346.53 106.937 349.722 99.8672 353.643C96.0394 355.765 92.5911 358.298 88.8757 360.531L88.9121 359.735L88.5504 360.185L88 358.445Z" fill="#8CB4DA"/>
<path d="M735.865 130C740.271 131.613 744.11 133.375 749.081 133.383C755.94 137.817 810.339 240.86 819.503 257.298C825.931 269.016 832.764 280.584 840 292C796.442 281.335 714.746 274.369 669.588 269.97C653.451 268.29 637.28 266.868 621.073 265.705C604.866 264.543 588.636 263.641 572.381 262.999C534.002 261.682 495.863 262.45 457.532 264.204C448.779 264.55 440.03 264.969 431.285 265.46C422.541 265.951 413.805 266.514 405.076 267.148C396.347 267.785 387.627 268.492 378.918 269.27C370.208 270.048 361.508 270.898 352.819 271.822C344.132 272.743 335.457 273.737 326.795 274.802C318.133 275.869 309.485 277.006 300.853 278.213C292.221 279.421 277.653 280.651 269.053 282C260.454 283.351 245.562 285.009 237 286.5L241.507 279.5C250.149 278.677 269.546 277.11 278.119 275.626C294.405 272.782 310.744 270.145 327.135 267.714C353.163 263.823 379.27 260.315 405.459 257.189C431.648 254.063 457.9 251.322 484.216 248.965C508.553 246.938 532.942 245.465 557.384 244.543C569.507 244.056 581.768 244.022 593.863 243.31C596.867 243.133 599.579 241.939 602.499 241.794C607.946 241.526 613.576 242.102 619.058 242.002C632.063 241.769 649.155 239.548 661.21 235.4C662.142 235.366 663.104 235.337 664.025 235.192C667.481 234.65 669.378 232.16 671.257 230.045C671.403 229.988 671.545 229.936 671.691 229.88L672.401 229.59C673.145 229.29 673.875 228.994 674.6 228.665C692.045 220.717 743.597 206.89 748.71 191.571C755.638 170.817 749.335 148.27 735.865 130ZM787.056 244.506C783.619 244.645 779.863 245.155 777.388 247.258C775.149 249.162 774.901 251.265 775.132 253.74C775.198 254.433 775.278 255.126 775.371 255.818C777.67 257.418 780.103 258.592 782.721 259.811C785.664 259.924 788.317 259.301 790.493 257.647C792.364 256.223 793.268 254.138 793.27 252.108C793.276 249.862 791.497 246.721 789.255 245.309C788.65 244.928 787.786 244.67 787.056 244.506Z" fill="#787474"/>
<path d="M240 282C244.89 269.413 253.797 256.536 263.361 244.531C272.928 232.523 282.405 221.287 292.699 209.615C299.797 201.683 308.611 191.791 316.061 184.042C336.568 162.707 362.298 144.243 387.532 125.832C438.04 88.9825 502.785 43.2611 567.871 22.1197C578.125 18.7887 590.385 14.8702 601.76 15.0033C623.622 15.2589 642.571 25.2413 657.056 36.4896C668.818 45.6233 700.587 75.7479 704.899 86.6447C707.5 91 706.145 99.1039 706 104C700.745 105.673 693.785 107.479 691 111.5C689.961 112.996 690.233 114.909 691 116.5C693.5 120 697.94 121.238 702.5 123C704 126 703.558 128.794 705.249 131.679C706.309 133.493 707.882 134.741 710.358 135.453C717.066 135.507 719.45 130.079 724 127.5L736 130C750.6 148.465 756.509 170.523 749 191.5C743.457 206.982 717.218 221.913 698.309 229.947C697.523 230.279 696.732 230.579 695.925 230.881L695.156 231.174C694.998 231.232 694.843 231.284 694.686 231.341C692.649 233.479 690.593 235.996 686.846 236.543C685.848 236.69 684.806 236.72 683.795 236.754C670.729 240.946 652.203 243.191 638.107 243.427C632.166 243.527 626.064 242.946 620.159 243.216C616.994 243.362 614.054 244.57 610.799 244.748C597.689 245.468 584.4 245.502 571.259 245.994C544.767 246.926 518.332 248.415 491.954 250.463C463.43 252.845 434.975 255.616 406.589 258.776C378.204 261.935 349.906 265.481 321.695 269.413C303.929 271.87 286.219 274.536 268.566 277.41C259.274 278.91 249.366 281.169 240 282ZM649.566 185.899C642.017 185.302 628.209 183.614 621.513 186.742C619.844 187.522 618.765 188.653 618.475 190.119C617.133 196.905 627.523 204.771 632.682 209.638C630.271 215.266 627.996 221.774 629.464 227.715C631.013 230.189 632.453 231.729 636.07 232.61C645.337 234.869 654.633 228.288 662.957 226.327C663.152 226.428 663.35 226.527 663.545 226.63C670.627 230.334 675.032 234.977 683.795 236.754C684.806 236.72 685.848 236.69 686.846 236.543C690.593 235.996 692.649 233.479 694.686 231.341C695.789 226.03 692.525 220.195 694.231 215.154C695.969 210.012 709.845 209.377 713.595 203.275C714.3 202.127 715.038 199.789 714.321 198.616C711.817 194.52 694.983 190.188 689.1 188.414C686.423 182.927 684.961 175.099 677.876 171.721C675.359 170.522 672.543 170.182 669.631 170.668C660.812 172.137 654.036 180.654 649.566 185.899ZM563.401 51.0857C555.012 53.5593 551.145 59.5918 546.514 64.9584C538.9 66.4807 526.514 68.3885 522.362 73.8809C520.996 75.6911 520.851 77.7659 521.772 79.7123C523.932 84.284 530.637 87.4766 535.429 90.4938C533.926 96.0175 529.497 106.293 534.066 111.307C534.134 111.381 534.204 111.455 534.276 111.526C534.348 111.598 534.423 111.668 534.501 111.737C534.58 111.806 534.66 111.873 534.742 111.938C534.825 112.004 534.909 112.068 534.996 112.13C535.083 112.193 535.172 112.253 535.265 112.312C535.356 112.371 535.448 112.428 535.543 112.483C535.64 112.539 535.738 112.592 535.837 112.643C535.936 112.695 536.037 112.744 536.14 112.791C536.243 112.839 536.347 112.884 536.452 112.928C536.557 112.971 536.664 113.012 536.773 113.051C536.883 113.09 536.993 113.127 537.104 113.162C537.216 113.197 537.329 113.23 537.444 113.26C537.558 113.291 537.672 113.319 537.787 113.345C537.903 113.371 538.019 113.395 538.137 113.416C538.254 113.437 538.373 113.456 538.492 113.473C538.612 113.49 538.731 113.504 538.851 113.516C546.48 114.316 557.951 107.882 564.363 105.053C569.525 107.307 584.196 115.746 589.748 114.252C591.964 113.655 593.12 111.992 593.831 110.443C596.62 104.393 594.783 96.4037 593.315 90.2414C598.249 86.808 605.448 82.6341 605.457 77.1619C605.461 74.9538 604.032 72.9637 601.903 71.4689C596.975 68.0115 589.062 66.7088 582.61 65.6877C579.29 61.1739 574.728 52.7832 567.494 51.3033C566.128 51.0236 564.795 51.0442 563.401 51.0857ZM354.366 203.687C348.511 205.398 344.833 207.984 340.434 211.196C335.3 211.599 325.692 211.587 322.319 214.813C321.098 215.979 321.098 217.458 321.54 218.826C322.969 223.224 327.117 227.383 329.503 231.573C327.185 235.155 323.16 240.421 325.37 244.531C326.017 245.738 326.876 246.386 328.468 246.933C336.814 249.799 347.587 242.144 354.542 244.815C359.547 246.929 366.505 250.642 372.543 249.426C374.907 248.947 376.71 247.772 377.841 246.175C380.843 241.94 379.414 235.684 379.452 230.991C383.455 229.179 389.69 226.863 390.716 223.079C391.127 221.568 390.837 220.25 389.656 218.986C386.231 215.31 378.181 214.561 372.7 213.573C369.764 209.854 366.743 205.073 360.722 203.726C358.66 203.266 356.462 203.506 354.366 203.687ZM451.183 127.157C444.346 128.551 439.19 131.187 433.567 134.275C425.112 133.092 414.052 130.294 406.314 134.388C404.846 135.166 404.045 136.083 403.659 137.399C402.957 139.772 405.245 143.169 407.143 144.984C408.282 146.059 409.452 147.115 410.651 148.154C407.844 151.366 402.562 155.831 403.634 159.961C403.996 161.357 404.849 162.373 406.506 163.127C411.483 165.392 418.902 164.754 424.534 164.642L427.217 168.01C428.809 170.596 430.645 174.86 434.618 175.943C436.206 176.377 437.693 176.194 439.165 175.616C443.783 173.805 448.095 167.548 451.493 164.487C456.457 164.759 462.34 163.624 466.222 161.2C468.739 159.628 470.321 157.48 470.42 155.02C470.621 150.15 465.613 146.584 461.406 143.357C462.47 139.055 463.613 134.043 459.802 130.242C458.231 128.673 455.449 127.454 452.825 127.205C451.959 127.123 451.941 127.141 451.183 127.157ZM628.132 39.6335C624.877 40.8594 622.49 42.0212 621.204 44.6657C620.234 46.6624 620.264 48.8904 621.513 50.8172C621.59 50.9319 621.669 51.0452 621.751 51.1569C621.834 51.2687 621.92 51.3789 622.011 51.4875C622.102 51.596 622.196 51.7029 622.295 51.8082C622.392 51.9134 622.493 52.0167 622.598 52.1181C622.701 52.2196 622.809 52.3192 622.92 52.4168C623.031 52.5143 623.146 52.6099 623.263 52.7033C623.38 52.7968 623.501 52.888 623.625 52.977C623.748 53.0661 623.874 53.1528 624.002 53.2372C624.132 53.3217 624.263 53.4037 624.397 53.4833C624.533 53.563 624.671 53.6402 624.809 53.7148C624.949 53.7895 625.091 53.8616 625.235 53.9311C625.382 54.0005 625.529 54.0674 625.677 54.1315C625.826 54.1956 625.976 54.257 626.128 54.3156C626.283 54.3741 626.439 54.43 626.595 54.4831C626.752 54.5361 626.91 54.5862 627.068 54.6334C627.229 54.6805 627.391 54.7248 627.554 54.7662C629.275 55.2053 631.17 55.1387 632.969 55.1077C636.531 53.8103 639.019 52.5155 640.228 49.5861C641.072 47.5408 640.861 45.3263 639.433 43.45C638.085 41.6822 635.64 40.2343 632.945 39.7796C631.405 39.5194 629.705 39.6021 628.132 39.6335ZM481.02 63.888C479.787 64.5752 478.621 65.2296 477.555 66.0654C476.009 67.0765 474.754 68.0885 473.453 69.2638C472.312 70.2915 471.366 70.9249 471.49 72.3725C471.681 74.6045 473.369 77.6491 475.731 79.094C477.267 80.0348 479.215 80.481 481.196 80.2521C481.326 80.2367 481.455 80.219 481.583 80.199C481.71 80.1788 481.838 80.1564 481.966 80.1317C482.092 80.1068 482.217 80.0797 482.343 80.0503C482.467 80.0209 482.59 79.9892 482.714 79.9553C482.838 79.9214 482.959 79.8852 483.079 79.8467C483.198 79.8082 483.317 79.7676 483.434 79.7248C483.552 79.6821 483.668 79.6372 483.784 79.5902C483.899 79.5431 484.012 79.494 484.124 79.4429C484.235 79.3917 484.344 79.3385 484.451 79.2832C484.558 79.2281 484.665 79.171 484.77 79.1119C484.873 79.0528 484.975 78.9918 485.076 78.9289C485.175 78.8661 485.273 78.8015 485.369 78.7351C485.464 78.6687 485.557 78.6005 485.648 78.5305C485.738 78.4608 485.827 78.3893 485.913 78.3162C486 78.243 486.085 78.1684 486.167 78.0924C486.247 78.0162 486.326 77.9385 486.402 77.8594C490.448 73.7352 484.043 70.6054 483.206 66.6014C483.184 66.5048 483.054 65.7209 482.995 65.6007C482.507 64.5994 482.226 64.4247 481.02 63.888ZM538.582 181.255C539.964 182.915 541.846 185.032 544.483 185.639C546.322 186.063 548.23 186.075 549.951 185.384C551.803 184.642 553.005 183.273 553.553 181.793C554.622 178.9 552.746 176.655 550.891 174.208C548.393 173.474 546.072 173.057 543.466 173.809C541.284 174.439 539.271 175.435 538.22 177.03C537.713 177.804 537.373 179.65 537.92 180.491C538.096 180.764 538.359 181 538.582 181.255ZM464.12 225.523C461.555 226.884 459.15 228.219 458.738 230.702C458.479 232.258 459.082 233.74 460.491 234.91C462.303 236.415 464.952 237.228 467.654 237.26C468.776 237.274 468.819 237.258 469.827 237.208C472.006 236.14 474.052 235.132 474.717 233.144C474.75 233.042 474.78 232.939 474.807 232.835C474.833 232.73 474.856 232.625 474.875 232.521C474.895 232.416 474.911 232.31 474.921 232.205C474.933 232.1 474.942 231.994 474.946 231.887C474.95 231.781 474.95 231.676 474.946 231.571C474.942 231.464 474.934 231.358 474.924 231.252C474.912 231.147 474.896 231.042 474.878 230.938C474.859 230.833 474.838 230.728 474.813 230.625C474.786 230.519 474.756 230.415 474.723 230.313C474.688 230.211 474.651 230.108 474.612 230.006C474.571 229.905 474.525 229.805 474.476 229.704C474.429 229.604 474.377 229.506 474.321 229.408C474.268 229.31 474.21 229.214 474.148 229.12C474.084 229.023 474.018 228.93 473.95 228.838C473.882 228.745 473.81 228.653 473.734 228.563C473.66 228.473 473.582 228.384 473.499 228.297C472.216 226.957 470.222 225.759 467.987 225.489C466.708 225.333 465.4 225.441 464.12 225.523ZM654.685 140.016C654.741 141.538 654.364 143.562 655.696 144.738C658.089 145.024 660.234 143.427 662.144 143.696C664.413 144.017 665.387 145.829 667.699 145.473C668.917 144.423 669.059 143.74 669.341 142.438L669.502 141.718C669.536 141.558 669.563 141.397 669.594 141.236C668.76 139.609 667.91 138.126 665.999 137.028C664.355 136.085 662.719 135.735 660.642 136.068C657.764 136.529 656.265 138.366 654.685 140.016ZM669.594 141.236C669.563 141.397 669.536 141.558 669.502 141.718L669.341 142.438C669.059 143.74 668.917 144.423 667.699 145.473C665.387 145.829 664.413 144.017 662.144 143.696C660.234 143.427 658.089 145.024 655.696 144.738C654.364 143.562 654.741 141.538 654.685 140.016C653.644 141.578 653.081 142.704 653.767 144.486C654.33 145.945 656.064 147.097 657.857 147.723C660.311 148.58 663.387 148.679 665.891 147.88C667.826 147.263 669.437 146.043 669.953 144.496C670.333 143.355 670.043 142.327 669.594 141.236Z" fill="#9E95A4"/>
<path d="M451.451 127.014C452.22 126.998 452.239 126.979 453.118 127.063C455.785 127.317 458.611 128.559 460.206 130.159C464.079 134.034 462.917 139.145 461.836 143.531C466.111 146.822 471.198 150.457 470.994 155.423C470.894 157.931 469.286 160.121 466.729 161.724C462.785 164.195 456.808 165.353 451.765 165.075C448.313 168.196 443.933 174.576 439.241 176.423C437.746 177.012 436.235 177.198 434.621 176.756C430.585 175.651 428.72 171.304 427.103 168.667L424.377 165.234C418.655 165.348 411.118 165.998 406.061 163.689C404.378 162.92 403.511 161.884 403.144 160.46C402.054 156.25 407.421 151.697 410.273 148.423C409.054 147.363 407.866 146.286 406.708 145.19C404.78 143.339 402.456 139.876 403.169 137.457C403.562 136.115 404.375 135.18 405.867 134.387C413.727 130.212 424.964 133.065 433.553 134.271C439.266 131.123 444.504 128.435 451.451 127.014ZM450.465 135.244C446.913 136.72 443.731 138.659 440.189 140.072C431.276 143.63 423.152 140.156 414.004 139.345C417.028 142.281 421.145 145.523 420.498 149.517C420.018 152.487 417.245 154.993 415.034 157.389C420.448 157.449 425.108 157.439 430.183 159.049C433.531 161.139 435.183 163.696 437.162 166.534C440.767 162.962 445.688 157.168 452.217 156.616C454.811 156.397 457.352 156.866 459.779 155.966C460.206 155.224 460.461 155.208 460.078 154.391C458.536 151.108 452.487 148.884 451.419 145.47C450.43 142.306 453.209 138.781 452.371 135.556C451.008 135.162 451.652 135.227 450.465 135.244Z" fill="#020202"/>
<path d="M450.831 135.014C452.062 134.998 451.394 134.935 452.809 135.313C453.679 138.404 450.795 141.782 451.821 144.814C452.929 148.085 459.205 150.217 460.805 153.363C461.202 154.146 460.939 154.162 460.495 154.872C457.977 155.735 455.34 155.285 452.649 155.495C445.875 156.024 440.769 161.577 437.028 165C434.975 162.28 433.261 159.83 429.788 157.827C424.522 156.284 419.618 157.884 414 157.827C416.294 155.531 419.24 151.539 419.739 148.692C420.41 144.865 416.138 141.758 413 138.945C422.492 139.721 430.922 143.05 440.169 139.641C443.845 138.287 447.145 136.428 450.831 135.014Z" fill="#FAD06B"/>
<path d="M354.751 203.235C356.888 203.047 359.13 202.798 361.232 203.276C367.373 204.675 370.453 209.641 373.448 213.506C379.037 214.531 387.246 215.31 390.739 219.129C391.943 220.442 392.24 221.811 391.82 223.381C390.774 227.312 384.415 229.718 380.333 231.6C380.295 236.476 381.751 242.975 378.69 247.375C377.537 249.033 375.699 250.254 373.287 250.752C367.13 252.015 360.034 248.158 354.931 245.961C347.838 243.187 336.851 251.139 328.34 248.163C326.716 247.594 325.84 246.92 325.181 245.666C322.927 241.397 325.104 235.795 329 231.5C326.5 227.5 322.732 223.531 321.275 218.962C320.824 217.542 320.824 216.004 322.069 214.793C325.509 211.443 335.307 211.455 340.543 211.036C345.029 207.7 348.78 205.013 354.751 203.235ZM354.199 211.507L350.438 214.608C344.663 219.207 340.757 219.35 332.624 220.024L339.345 229.552C339.014 233.207 338.071 236.85 337.296 240.467C342.718 239.268 348.161 238.125 353.625 237.04C359.426 238.906 364.845 241.478 370.292 243.86C369.756 240.069 368.382 235.229 369.406 231.508C370.586 227.229 375.071 225.373 379.504 223.117C375.04 222.194 370.563 221.332 366.26 220.028C363.537 217.178 361.897 213.097 358.918 210.622C357.969 209.834 357.91 209.689 356.459 209.649L354.199 211.507Z" fill="#020202"/>
<path d="M351 214L356.5 209.5C357.706 209.538 358.211 209.763 359 210.5C361.478 212.815 364 217 366 220.001C369.58 221.221 376.286 222.137 380 223.001C376.313 225.111 370.981 226.999 370 231.001C369.148 234.482 370.054 240.455 370.5 244.001C365.968 241.773 358.454 238.746 353.629 237.001C349.083 238.016 341.511 239.379 337 240.501C337.645 237.118 338.316 233.036 338.591 229.617L332 219.5C338.766 218.87 341 220.001 347.5 216.5L351 214Z" fill="#FAD06B"/>
<path d="M563.58 50.0253C564.986 49.9821 566.33 49.9606 567.708 50.2519C575.004 51.7933 579.606 60.5327 582.955 65.2341C589.462 66.2977 597.444 67.6544 602.414 71.2555C604.563 72.8125 606.003 74.8853 606 77.1851C605.991 82.8848 598.729 87.2321 593.753 90.8081C595.234 97.2266 597.086 105.547 594.273 111.849C593.556 113.463 592.39 115.195 590.154 115.817C584.554 117.373 569.757 108.583 564.55 106.236C558.083 109.181 546.512 115.884 538.817 115.05C538.696 115.038 538.576 115.023 538.455 115.005C538.335 114.988 538.215 114.968 538.097 114.946C537.978 114.923 537.861 114.899 537.744 114.872C537.628 114.845 537.512 114.815 537.398 114.784C537.282 114.752 537.167 114.718 537.055 114.682C536.943 114.645 536.832 114.607 536.721 114.566C536.611 114.525 536.503 114.482 536.397 114.437C536.291 114.392 536.186 114.345 536.082 114.295C535.978 114.246 535.877 114.194 535.777 114.141C535.677 114.087 535.578 114.032 535.481 113.974C535.385 113.917 535.291 113.857 535.2 113.796C535.106 113.735 535.016 113.672 534.929 113.607C534.841 113.542 534.756 113.475 534.673 113.407C534.59 113.339 534.509 113.269 534.43 113.197C534.351 113.125 534.275 113.052 534.202 112.977C534.129 112.903 534.059 112.827 533.99 112.749C529.382 107.527 532.563 97.1267 534.929 91C530.096 87.8575 523.769 84.6032 521.59 79.8415C520.661 77.8143 520.807 75.6532 522.185 73.7678C526.373 68.0471 538.867 66.06 546.546 64.4744C551.217 58.8848 555.118 52.6016 563.58 50.0253ZM564.88 58.4344C560.671 62.7629 557.163 67.8062 552.689 71.9097C545.174 73.3856 538.15 74.7514 531.246 77.5521C536.304 80.7337 542.24 83.7844 546.718 87.4065C545.483 93.6952 543.765 99.9285 543.104 106.274C550.013 103.384 556.821 100.358 563.527 97.1977C568.232 96.5609 580.52 104.314 585.265 106.221C584.424 100.049 582.84 93.6009 582.603 87.4277C586.952 84.0986 591.776 81.2505 595.626 77.5549C589.122 75.4958 582.587 73.621 575.734 72.3489C572.41 67.8625 569.457 62.2113 564.88 58.4344Z" fill="#020202"/>
<path d="M564.733 58C568.644 61.5527 571.66 66.4553 574.5 70.6754C580.355 71.872 590.444 75.5631 596 77.5C592.71 80.9762 586.716 84.3685 583 87.5C583.202 93.3067 585.281 101.194 586 107C581.946 105.207 567.52 96.901 563.5 97.5C557.771 100.473 548.903 104.281 543 107C543.565 101.031 545.445 93.4154 546.5 87.5C542.675 84.0929 535.321 80.4928 531 77.5C536.897 74.8656 547.08 72.0637 553.5 70.6754C557.322 66.8155 561.137 62.0716 564.733 58Z" fill="#FAD06B"/>
<path d="M650.1 183.281C654.697 177.073 661.666 166.992 670.736 165.252C673.731 164.678 676.627 165.08 679.215 166.499C686.502 170.498 688.006 179.763 690.759 186.257C696.81 188.357 714.124 193.486 716.699 198.333C717.437 199.722 716.677 202.49 715.952 203.848C712.096 211.071 697.824 211.822 696.037 217.909C694.282 223.876 697.639 230.782 696.504 237.069C694.409 239.599 692.295 242.578 688.442 243.226C687.415 243.4 686.343 243.435 685.304 243.476C676.29 241.372 671.76 235.876 664.476 231.492C664.276 231.37 664.072 231.253 663.872 231.134C655.31 233.455 645.75 241.244 636.219 238.571C632.499 237.527 631.017 235.705 629.425 232.777C627.914 225.744 629.02 217.9 631.5 211.239C626.194 205.478 616.743 196.308 618.122 188.276C618.421 186.541 619.531 185.203 621.247 184.279C628.134 180.577 642.336 182.575 650.1 183.281ZM672.469 173.133C665.974 178.707 660.33 186.417 652.621 190.648C644.068 190.183 635.701 190.195 627.151 190.801L627.727 191.433C633.822 198.079 646.803 202.834 645.741 212.399C645.118 218.012 642.466 223.947 640.581 229.358C649.136 226.839 656.786 222.339 666.091 222.561C674.51 225.299 680.433 231.261 687.536 235.8C686.372 228.688 682.722 217.458 688.095 211.239C692.228 206.451 700.599 203.412 706.65 200.581C695.91 196.406 684.302 195.69 679.67 185.132C678.471 182.402 676.271 174.047 673.238 173.226C672.99 173.16 672.727 173.164 672.469 173.133Z" fill="#020202"/>
<path d="M670.5 172.5C670.5 172.5 671.751 172.434 672 172.5C676.855 172.5 678.799 182.267 680 185.001C684.643 195.578 696.235 196.318 707 200.501C700.936 203.337 692.143 206.704 688 211.501C683 218 686.37 228.877 687.537 236.001C680.418 231.454 673.938 225.243 665.5 222.5C656 222.5 649.075 226.977 640.5 229.5C642.39 224.079 644.459 217.68 645.084 212.057C646.148 202.475 633.137 197.711 627.028 191.053L626.451 190.42C635.02 189.813 643.407 189.801 651.98 190.267C659.707 186.028 668 172.5 670.5 172.5Z" fill="#FAD06B"/>
<path d="M785.591 244.091C786.641 244.011 787.712 244.069 788.693 244.45C789.018 244.577 789.326 244.723 789.589 244.89C792.051 246.457 794.006 249.944 794 252.436C793.997 254.69 793.004 257.004 790.949 258.584C789.175 259.946 787.114 260.678 784.848 260.914C783.247 261.081 781.657 260.642 780.213 259.933C778.861 259.269 777.554 258.585 776.285 257.819C775.018 257.055 774.216 255.721 774.076 254.247C773.823 251.501 774.095 249.166 776.554 247.054C778.897 245.042 782.284 244.344 785.591 244.091Z" fill="#FAF5F5"/>
<path d="M627.91 39.0412C629.546 39.0069 631.313 38.9164 632.913 39.2011C635.715 39.6987 638.257 41.2831 639.658 43.2177C641.142 45.2709 641.361 47.6943 640.484 49.9325C639.227 53.1382 636.641 54.5552 632.939 55.9749C631.069 56.0087 629.099 56.0817 627.31 55.6012C627.14 55.5559 626.972 55.5074 626.805 55.4558C626.64 55.4041 626.476 55.3493 626.313 55.2913C626.151 55.2332 625.989 55.172 625.828 55.1079C625.67 55.0437 625.513 54.9765 625.359 54.9063C625.205 54.8363 625.052 54.7633 624.9 54.6873C624.75 54.6112 624.602 54.5323 624.456 54.4506C624.313 54.3689 624.17 54.2844 624.029 54.1972C623.89 54.1101 623.753 54.0204 623.618 53.928C623.485 53.8356 623.354 53.7407 623.226 53.6432C623.097 53.5458 622.972 53.446 622.85 53.3437C622.728 53.2414 622.609 53.1369 622.493 53.0301C622.377 52.9233 622.266 52.8144 622.159 52.7033C622.05 52.5923 621.945 52.4793 621.844 52.3641C621.741 52.249 621.643 52.132 621.548 52.0132C621.454 51.8944 621.364 51.7738 621.278 51.6515C621.193 51.5292 621.11 51.4053 621.031 51.2798C619.733 49.1712 619.701 46.733 620.71 44.548C622.046 41.6541 624.527 40.3827 627.91 39.0412Z" fill="#FAF5F5"/>
<path d="M483.804 66.8264L483.626 65.7566C483.544 65.2645 483.31 64.8104 482.958 64.4576C482.12 63.6198 480.795 63.521 479.842 64.2253L473.194 69.1393C471.347 70.5041 470.749 72.9986 471.776 75.0523C471.925 75.3499 472.105 75.631 472.313 75.8909L473.633 77.5412C475.129 79.4113 477.394 80.5 479.789 80.5C480.262 80.5 480.734 80.4574 481.199 80.3728L483.764 79.9066C485.179 79.6492 486.405 78.7708 487.104 77.513C487.964 75.9656 487.903 74.0708 486.945 72.5818L484.643 69.0009C484.219 68.3405 483.933 67.6007 483.804 66.8264Z" fill="#FAF5F5"/>
<path d="M655.807 138.831L654.489 140.413C654.165 140.802 653.904 141.239 653.716 141.709L653.543 142.143C653.194 143.014 653.194 143.986 653.543 144.857C653.839 145.599 654.371 146.222 655.056 146.633L655.797 147.078C656.264 147.358 656.765 147.576 657.288 147.725L658.384 148.038C659.456 148.345 660.566 148.5 661.681 148.5H663.012C664.319 148.5 665.609 148.196 666.778 147.611L667.162 147.419C667.717 147.141 668.224 146.776 668.662 146.338L668.841 146.159C669.276 145.724 669.618 145.205 669.846 144.634C670.267 143.583 670.28 142.412 669.882 141.352L669.681 140.817C669.238 139.636 668.435 138.623 667.385 137.923L665.964 136.976C665.002 136.335 663.9 135.933 662.751 135.806C660.98 135.609 659.198 136.073 657.748 137.109L657.38 137.371C656.796 137.789 656.267 138.279 655.807 138.831Z" fill="#FAF5F5"/>
<path d="M546.199 173.1L543.927 173.384C543.311 173.461 542.703 173.599 542.113 173.796L541.218 174.094C540.417 174.361 539.689 174.811 539.092 175.408L538.851 175.649C537.986 176.514 537.5 177.687 537.5 178.911C537.5 179.627 537.667 180.334 537.987 180.974L538.03 181.06C538.34 181.68 538.775 182.229 539.307 182.673L540.651 183.792C541.215 184.263 541.832 184.666 542.489 184.994C543.811 185.656 545.27 186 546.749 186H547.891C548.944 186 549.977 185.714 550.88 185.172C551.617 184.73 552.248 184.129 552.725 183.413L553.373 182.44C553.782 181.827 554 181.107 554 180.37C554 180.124 553.976 179.879 553.928 179.638L553.673 178.366C553.558 177.791 553.367 177.234 553.105 176.71C552.104 174.708 550.157 173.351 547.933 173.104L547.802 173.089C547.269 173.03 546.731 173.034 546.199 173.1Z" fill="#FAF5F5"/>
<path d="M467.08 225H466.736C464.96 225 463.232 225.576 461.811 226.642L459.897 228.077C458.724 228.957 458.112 230.398 458.294 231.853C458.426 232.909 458.965 233.872 459.796 234.537L460.483 235.086C460.827 235.361 461.199 235.599 461.592 235.796L464.433 237.216C465.463 237.732 466.6 238 467.752 238C469.218 238 470.651 237.566 471.87 236.753L473.116 235.922C474.013 235.325 474.685 234.445 475.026 233.422C475.335 232.496 475.356 231.497 475.088 230.558L475.014 230.298C474.68 229.13 473.983 228.098 473.024 227.352L472.305 226.793C470.811 225.631 468.972 225 467.08 225Z" fill="#FAF5F5"/>
</svg>
