<svg width="1081" height="1080" viewBox="0 0 1081 1080" fill="none" xmlns="http://www.w3.org/2000/svg">
<path d="M222.254 214.953C222.254 220.404 214.903 248.197 213.935 255.302C213.256 260.281 213.321 265.4 213.166 270.403C212.495 292.03 213.413 313.406 224.357 333.623C226.626 337.814 229.212 342.41 232.904 345.97C237.792 347.146 251.018 337.037 255.437 334.682C262.238 331.058 274.208 325.885 282.283 324.211C282.093 324.231 287.218 323.022 289.391 322.29C301.624 318.171 313.82 313.62 326.619 310.63L327.152 310.499C335.836 307.8 345.809 305.359 355.029 304.092C355.12 304.055 355.205 304.006 355.305 303.98C370.06 299.974 394.941 297.005 410.539 295.262C423.016 293.867 435.61 292.328 448.162 291.437C507.238 287.237 568.021 288.649 626.978 293.05C642.341 294.196 657.84 295.22 673.089 297.065C684.97 298.502 696.871 300.662 708.627 302.633C720.045 304.547 733.091 306.074 743.93 309.369C753.312 310.788 762.66 313.221 771.724 315.558C780.016 317.021 789.083 320.2 796.827 322.921C797.06 322.943 797.295 322.95 797.525 322.985C804.812 324.093 822.335 332.407 829.043 335.751C832.888 337.666 837.266 340.432 841.577 341.615C843.076 342.028 844.187 341.875 845.524 341.2C852.371 337.748 856.761 319.573 857.843 313.119C860.753 295.782 863.377 251.98 857.385 236.319C856.218 233.26 854.887 230.309 852.839 227.53C848.85 222.107 843.706 217.492 837.677 214.496C824.626 208.01 802.045 196.924 799.377 196.525C795.381 195.927 791.795 194.523 787.922 193.651C784.622 192.91 781.149 192.545 777.881 191.722C777.881 191.722 755.657 188.535 746.065 186.604C743.895 186.167 741.754 186.037 739.69 185.315C738.174 185.041 736.745 184.735 735.283 184.315C728 182.214 720.353 181.363 712.846 180.319C704.229 179.12 695.738 177.761 695.738 177.761C689.107 176.87 647.608 171.523 647.608 171.523C647.563 171.526 651.055 172.322 647.608 171.523C639.211 171.066 629.521 170.23 621.566 169.329C599.07 168.146 576.603 166.043 554.07 165.383C534.334 164.805 513.906 164.862 494.184 165.683C487.287 165.97 480.426 166.669 473.531 167.003C467.585 167.29 461.437 166.875 455.548 167.294C429.761 169.221 404.237 171.341 378.709 175.118C366.149 176.976 353.352 179.73 339.814 182.497C319.364 185.181 297.244 189.794 263.518 195.382C222.254 206.147 222.254 214.953 222.254 214.953ZM241.216 314.148C242.397 288.618 260.852 268.642 284.097 251.824C316.024 228.726 358.099 211.652 399.586 201.663C420.14 196.715 441.418 193.32 462.627 190.597C491.58 186.88 520.525 184.801 549.893 185.653C584.454 186.655 620.39 191.654 653.146 200.332C659.2 201.937 665.578 203.541 671.257 205.839C688.835 212.952 728.181 239.131 742.282 250.954C760.959 266.613 778.73 285.694 788.407 305.809L788.123 306.789C783.449 305.44 778.754 304.136 774.039 302.878C769.323 301.62 764.587 300.408 759.832 299.241C755.076 298.074 750.303 296.954 745.511 295.882C740.722 294.808 735.915 293.78 731.091 292.798C726.268 291.818 721.429 290.885 716.575 289.998C711.721 289.11 706.854 288.271 701.973 287.479C697.091 286.686 692.199 285.941 687.295 285.244C682.39 284.545 677.475 283.894 672.549 283.292C654.063 280.984 635.844 279.9 617.207 278.81C562.123 275.587 512.943 275.682 457.848 279.004C439.245 280.125 420.941 281.092 402.48 283.379C395.546 284.257 388.634 285.232 381.745 286.305C374.856 287.379 367.994 288.551 361.16 289.821C354.326 291.089 347.523 292.455 340.752 293.917C333.982 295.379 327.249 296.936 320.553 298.59C301.303 303.183 282.331 309.539 264.478 316.781C260.565 318.368 249.033 324.554 245.319 324.342C242.068 322.109 241.579 317.357 241.216 314.148Z" fill="#010101"/>
<path d="M788.123 306.789C802.494 311.6 815.653 316.5 829.21 322.646C832.774 300.717 841.599 254.873 830.349 235.276C824.03 224.272 802.125 217.187 788.526 212.885C766.851 206.028 743.557 201.552 720.763 197.619C715.267 196.69 709.76 195.804 704.242 194.959C698.724 194.115 693.196 193.312 687.658 192.551C682.121 191.791 676.574 191.072 671.018 190.395C665.462 189.718 659.897 189.083 654.324 188.49C648.752 187.897 643.173 187.347 637.587 186.839C632 186.332 626.409 185.867 620.813 185.445C615.215 185.021 609.612 184.64 604.005 184.303C598.397 183.965 592.786 183.669 587.171 183.416C581.556 183.163 575.939 182.953 570.321 182.785C564.7 182.617 559.078 182.492 553.456 182.41C547.833 182.327 542.21 182.288 536.586 182.291C530.961 182.294 525.338 182.339 519.715 182.427C514.093 182.516 508.471 182.647 502.85 182.82C497.232 182.994 491.615 183.21 486 183.469C480.387 183.727 474.776 184.028 469.169 184.372C463.562 184.716 457.96 185.102 452.364 185.531C434.105 186.806 415.576 187.872 397.482 190.234C372.731 193.465 347.845 199.958 323.75 205.364C297.673 211.212 270.225 216.434 245.225 224.596C238.515 241.836 237.225 296.797 241.215 314.147C242.397 288.617 260.851 268.641 284.097 251.823C316.023 228.726 358.099 211.652 399.586 201.662C420.139 196.714 441.417 193.319 462.627 190.596C491.58 186.879 520.524 184.8 549.892 185.652C584.454 186.654 620.39 191.653 653.145 200.331C659.199 201.936 665.577 203.541 671.256 205.838C688.834 212.952 728.18 239.13 742.282 250.953C760.958 266.613 778.729 285.693 788.407 305.809L788.123 306.789Z" fill="#4C4A4B"/>
<path d="M241.217 314.148C241.58 317.357 242.069 322.109 245.32 324.342C249.034 324.554 260.566 318.368 264.479 316.781C282.332 309.539 301.304 303.183 320.554 298.59C327.25 296.936 333.983 295.379 340.753 293.918C347.524 292.455 354.327 291.09 361.161 289.821C367.995 288.551 374.857 287.379 381.746 286.305C388.635 285.233 395.547 284.257 402.481 283.379C420.942 281.092 439.246 280.125 457.849 279.004C512.944 275.683 562.124 275.588 617.208 278.81C635.845 279.9 654.064 280.984 672.55 283.293C677.476 283.894 682.391 284.545 687.296 285.244C692.2 285.941 697.092 286.686 701.975 287.479C706.855 288.271 711.722 289.11 716.576 289.998C721.43 290.885 726.269 291.819 731.093 292.799C735.916 293.78 740.723 294.808 745.512 295.882C750.304 296.954 755.077 298.074 759.833 299.241C764.588 300.408 769.324 301.62 774.04 302.878C778.755 304.136 783.45 305.44 788.124 306.789L788.408 305.809C778.731 285.694 760.96 266.614 742.284 250.954C728.182 239.131 688.836 212.952 671.258 205.839C665.579 203.541 659.201 201.937 653.147 200.332C620.391 191.654 584.455 186.655 549.894 185.653C520.526 184.801 491.581 186.88 462.628 190.597C441.419 193.32 420.141 196.715 399.588 201.663C358.1 211.652 316.025 228.727 284.099 251.824C260.853 268.642 242.398 288.618 241.217 314.148Z" fill="#717171"/>
<path d="M520.466 206.264C526.44 215.117 532.378 223.991 538.339 232.851C542.881 239.604 547.446 246.349 552.003 253.094C554.694 257.048 553.582 241.471 551.85 238.935C544.437 228.076 537.117 217.144 529.776 206.235C528.308 204.015 539.422 204.492 541.98 208.749C545.473 214.542 549.282 220.321 553.42 225.677C553.597 221.774 550.587 204.276 555.216 204.468C557.014 204.544 563.945 203.156 563.945 205.893C563.936 211.716 565.524 263.217 562.535 263.161C559.092 263.115 549.7 265.151 547.526 261.889C535.18 243.522 522.805 225.176 510.406 206.845C507.811 203.039 518.424 203.263 520.466 206.264Z" fill="black"/>
<path d="M783.39 405.021L719.708 439.311C714.828 441.939 712.861 447.929 715.234 452.939C717.813 458.383 724.461 460.51 729.721 457.574L792.877 422.325C799.077 418.864 799.702 410.184 794.062 405.871C790.98 403.514 786.805 403.182 783.39 405.021Z" fill="#717171"/>
<path d="M827.315 444.04L751.712 491.191C747.35 493.911 741.631 492.842 738.547 488.729C735.038 484.051 736.325 477.367 741.321 474.327L817.431 427.999C821.254 425.671 826.187 426.356 829.233 429.636C833.261 433.973 832.338 440.908 827.315 444.04Z" fill="#717171"/>
<path d="M306.182 406.094L363.39 443.975C369.146 447.786 370.507 455.657 366.365 461.18L366.095 461.54C362.16 466.787 354.741 467.903 349.437 464.045L293.96 423.698C288.063 419.409 288.077 410.611 293.989 406.341C297.606 403.729 302.462 403.63 306.182 406.094Z" fill="#717171"/>
<path d="M258.159 440.548L330.341 500.039C335.398 504.207 342.988 502.839 346.271 497.167C348.968 492.51 347.751 486.572 343.44 483.351L268.506 427.366C265.78 425.33 262.094 425.143 259.177 426.894C254.213 429.872 253.691 436.867 258.159 440.548Z" fill="#717171"/>
</svg>
