<svg width="1080" height="1080" viewBox="0 0 1080 1080" fill="none" xmlns="http://www.w3.org/2000/svg">
<g clip-path="url(#clip0_473_655)">
<path d="M268.667 245.81C269.968 246.788 271.855 247.179 273.514 247.44C280.378 248.45 287.242 249.264 294.106 250.177C290.268 250.633 286.396 250.698 282.558 251.057C279.76 251.317 276.962 251.708 274.295 252.523C273.384 252.784 272.343 254.413 272.31 255.456C272.31 256.205 273.742 257.085 274.62 257.802C274.945 258.062 275.466 258.03 275.954 258.128C274.262 261.484 274.23 261.94 275.596 263.569C276.182 262.885 276.702 261.745 277.483 261.484C282.07 260.018 286.722 258.747 291.374 257.411C290.853 260.213 289.715 261.745 287.405 262.494C282.46 264.091 277.58 265.85 272.733 267.74C270.001 268.815 268.764 270.868 269.025 273.312C269.317 275.886 270.911 277.255 273.319 277.809C273.579 277.874 273.839 278.037 274.165 278.2C273.091 280.22 272.083 282.11 271.042 284.065H272.115L294.952 274.518C297.067 271.455 299.214 268.392 301.459 265.394C303.345 262.885 306.306 261.191 308.746 259.138C309.429 258.551 310.112 257.997 311.348 256.955H308.063C307.997 256.759 307.9 256.564 307.835 256.335C308.681 255.912 309.526 255.358 310.437 255.13C313.17 254.445 316.033 254.185 318.635 253.207C321.661 252.034 324.621 250.47 327.321 248.678C329.891 246.984 329.468 244.312 326.606 243.171C324.719 242.422 322.702 241.998 320.815 241.086C325.467 240.597 330.151 240.206 334.803 239.522C336.17 239.326 338.447 238.446 338.545 237.664C338.772 235.546 336.495 235.807 335.096 235.416C332.494 234.699 329.859 234.112 327.224 233.461C327.224 233.168 327.224 232.874 327.224 232.581H346.059C346.124 232.288 346.19 231.962 346.255 231.669C344.726 229.029 341.603 228.443 339.325 226.879C340.659 226.064 341.928 225.282 343.392 224.402C344.108 225.706 344.856 227.139 345.669 228.573C346.255 229.583 346.84 230.593 347.523 231.506C349.313 233.917 351.427 234.764 353.477 233.917C355.591 233.037 356.632 230.789 356.014 227.791C355.526 225.445 354.745 223.164 354.062 220.85C353.802 220.003 353.509 219.156 353.216 218.309C356.795 216.81 357.413 215.735 356.925 211.987C356.665 210.032 356.274 208.077 355.982 206.089C355.884 205.503 355.982 204.916 355.982 204.33C356.242 204.265 356.502 204.199 356.795 204.134C357.38 205.698 358.064 207.197 358.552 208.794C359.007 210.228 359.755 211.499 361.284 210.814C362.065 210.456 362.651 208.892 362.651 207.882C362.651 205.829 362.032 203.776 361.935 201.723C361.87 200.615 362.39 199.475 362.618 198.367C362.976 198.367 363.334 198.367 363.724 198.367C364.18 199.735 364.537 201.136 365.155 202.44C365.448 203.026 366.262 203.385 366.815 203.841C367.075 203.157 367.628 202.44 367.563 201.788C367.4 200.061 367.01 198.399 367.075 196.575C367.53 197.813 367.856 199.149 368.474 200.289C368.864 200.941 369.742 201.658 370.426 201.69C370.914 201.69 371.759 200.713 371.922 200.061C372.377 198.041 372.54 195.988 372.898 193.251C373.223 194.424 373.288 195.108 373.614 195.662C374.037 196.346 374.687 196.9 375.24 197.52C375.793 196.9 376.639 196.346 376.867 195.63C377.42 193.837 377.713 191.915 378.201 189.634C378.721 190.546 378.949 191.263 379.404 191.719C379.957 192.241 380.803 192.86 381.356 192.73C381.909 192.599 382.495 191.622 382.625 190.937C382.853 189.83 382.723 188.624 382.82 187.483C382.983 184.974 383.048 184.909 385.878 183.834C386.203 186.408 386.399 188.982 386.919 191.459C387.114 192.371 388.155 193.088 388.838 193.87C389.522 193.186 390.465 192.599 390.823 191.752C391.376 190.481 391.539 189.047 391.864 187.679C392.124 186.506 392.189 185.3 393.848 184.974C394.401 184.877 394.792 183.736 395.15 183.019C395.963 181.292 396.679 179.565 397.232 178.262C398.175 179.142 399.216 180.836 400.094 180.738C401.233 180.641 402.274 179.174 403.25 178.197C403.705 177.74 404.031 177.056 404.161 176.437C404.877 172.462 408.097 171.452 411.22 170.376C413.009 169.757 414.473 171.093 414.115 172.983C413.92 174.058 413.432 175.101 413.497 176.144C413.595 177.61 413.628 179.565 414.506 180.315C415.254 180.966 417.206 180.25 419.06 180.119C421.11 182.628 421.858 182.465 425.502 178.066C426.282 178.685 427.031 179.663 427.876 179.761C428.82 179.859 430.121 179.435 430.804 178.783C433.407 176.274 436.074 173.733 438.254 170.865C441.507 166.596 444.37 162.067 447.558 157.44C448.632 158.092 449.575 158.678 450.779 159.428C448.469 162.947 446.257 166.303 443.979 169.627C442.678 171.549 441.149 173.309 439.946 175.297C439.49 176.079 439.718 177.284 439.62 178.294C440.661 178.164 442.06 178.392 442.646 177.806C445.02 175.525 447.233 173.048 449.315 170.474C451.071 168.291 452.535 165.847 454.259 163.631C454.943 162.751 455.951 162.1 456.699 161.285C457.317 160.601 458.098 159.819 458.326 158.972C459.042 156.039 460.636 154.247 463.694 153.595C468.541 152.585 473.355 151.379 478.17 150.141C479.797 149.717 480.578 149.978 481.326 151.673C482.985 155.452 485.002 159.069 486.889 162.751C487.084 163.11 487.344 163.436 487.604 163.762C489.816 166.759 491.996 167.835 493.948 166.955C495.77 166.14 496.095 164.576 495.64 160.373C496.193 161.481 496.746 162.621 497.299 163.729C498.502 166.042 500.227 166.987 502.016 166.303C503.805 165.619 504.586 163.696 503.87 161.252C502.634 157.049 501.333 152.846 500.064 148.642C499.836 147.925 499.706 147.208 499.511 146.491C499.674 146.263 499.836 146.068 500.031 145.84C500.78 146.361 501.853 146.687 502.211 147.404C503.675 150.271 504.879 153.269 506.31 156.169C507.286 158.189 508.327 160.177 509.563 162.035C510.084 162.784 511.157 163.468 512.036 163.566C512.426 163.599 513.012 162.165 513.63 161.643C514.898 160.503 516.167 159.363 517.468 158.157C519.648 161.481 523.779 160.34 527.195 161.285C527.943 161.513 529.505 160.894 529.83 160.242C531.262 157.375 534.059 157.114 536.076 156.397C537.475 156.919 538.842 157.896 539.525 157.538C540.338 157.114 540.663 155.583 540.989 154.475C541.216 153.693 541.184 152.846 541.151 151.998C541.119 150.141 540.989 148.381 543.461 147.827C544.047 147.697 544.437 146.752 544.925 146.231C547.137 143.917 548.796 143.885 551.041 146.263C551.431 146.687 551.692 147.436 552.114 147.567C555.107 148.381 554.847 150.728 554.782 153.008C554.782 153.66 554.782 154.377 554.977 154.964C555.335 155.909 555.725 157.277 556.409 157.505C557.222 157.766 558.328 156.951 559.857 156.43C560.41 156.56 561.679 156.723 562.882 157.114C563.468 157.31 564.054 157.831 564.444 158.385C566.363 161.22 568.413 161.937 571.666 160.699C572.121 160.536 572.642 160.21 573.065 160.308C575.537 160.829 577.196 159.623 578.335 157.994C579.669 159.232 580.97 160.405 582.271 161.611C582.304 161.546 582.369 161.481 582.401 161.383C582.922 162.132 583.507 163.533 583.898 163.501C584.809 163.37 585.947 162.719 586.338 161.937C588.42 157.994 590.307 153.953 592.291 149.945C592.779 148.968 593.137 147.925 593.787 147.111C594.275 146.491 595.154 146.198 595.837 145.775C596.065 145.97 596.26 146.198 596.488 146.394C595.186 150.728 593.885 155.061 592.584 159.395C592.291 160.34 591.966 161.285 591.803 162.263C591.543 164.087 592.063 165.619 593.918 166.271C595.772 166.922 597.171 166.075 598.114 164.478C598.927 163.077 599.578 161.546 600.619 159.493C600.391 161.383 600.099 162.588 600.099 163.762C600.099 166.499 602.441 168.063 604.881 166.759C606.214 166.042 607.516 164.902 608.264 163.599C610.541 159.656 612.656 155.615 614.575 151.51C615.291 149.945 616.039 149.652 617.568 150.043C622.708 151.347 627.848 152.552 633.021 153.725C635.623 154.312 636.632 156.267 637.51 158.483C637.933 159.525 638.746 160.438 639.494 161.318C640.145 162.132 641.023 162.784 641.674 163.599C644.992 167.835 648.245 172.103 651.596 176.307C652.149 177.024 652.865 177.773 653.646 178.066C654.426 178.36 655.435 178.131 656.346 178.099C656.313 177.219 656.606 176.079 656.183 175.46C653.092 170.832 649.872 166.336 646.716 161.774C646.196 161.024 645.773 160.275 645.155 159.297C646.228 158.613 647.172 158.027 648.31 157.277C648.961 158.189 649.514 158.972 650.067 159.754C653.32 164.446 656.476 169.203 659.924 173.765C661.388 175.72 663.372 177.349 665.324 178.816C667.569 180.478 668.61 180.119 669.879 178.099C671.505 179.207 673.034 180.478 674.791 181.292C675.246 181.52 676.385 180.217 677.426 179.5C677.524 179.598 677.882 180.021 678.304 180.119C679.28 180.315 680.549 180.771 681.232 180.347C681.948 179.924 682.534 178.588 682.534 177.675C682.534 176.144 681.948 174.58 681.785 173.048C681.72 172.331 681.818 171.223 682.273 170.93C682.956 170.474 684.128 170.181 684.876 170.409C688.096 171.386 691.122 172.69 691.805 176.6C691.903 177.219 692.26 177.903 692.716 178.36C693.659 179.272 694.733 180.641 695.774 180.641C696.685 180.641 697.628 179.076 698.604 178.164C699.092 179.239 699.613 180.869 700.491 182.302C701.142 183.41 702.215 184.225 703.028 185.235C703.354 185.659 703.647 186.18 703.777 186.701C704.232 188.396 704.427 190.155 705.078 191.752C705.403 192.567 706.444 193.121 707.127 193.772C707.746 193.023 708.754 192.339 708.917 191.491C709.437 188.982 709.6 186.441 709.958 183.704C711.942 184.192 713.146 185.072 713.048 187.223C712.983 188.298 712.918 189.406 713.178 190.449C713.406 191.296 714.089 191.98 714.577 192.762C715.26 192.273 716.009 191.85 716.627 191.296C717.017 190.937 717.18 190.351 717.635 189.504C718.091 191.557 718.318 193.251 718.871 194.848C719.197 195.793 720.075 196.542 720.693 197.389C721.246 196.575 721.832 195.793 722.385 194.978C722.58 194.685 722.645 194.294 722.97 193.251C723.328 195.825 723.426 197.682 723.881 199.475C724.076 200.289 724.922 200.974 725.475 201.69C726.191 201.039 727.134 200.485 727.622 199.703C728.208 198.758 728.403 197.585 729.151 196.575C728.891 198.139 728.501 199.735 728.403 201.299C728.371 202.114 728.891 202.961 729.151 203.776C729.737 203.189 730.485 202.701 730.81 202.016C731.396 200.876 731.721 199.605 732.144 198.367C732.469 198.334 732.795 198.302 733.088 198.269C733.38 199.344 733.966 200.42 733.933 201.495C733.836 203.646 733.185 205.764 733.185 207.882C733.185 208.859 734.096 209.869 734.617 210.847C735.495 210.195 736.666 209.674 737.187 208.794C738.032 207.36 738.455 205.666 739.041 204.069C739.269 204.069 739.529 204.134 739.757 204.167C739.822 204.721 739.952 205.275 739.887 205.796C739.594 208.012 739.106 210.195 738.878 212.411C738.52 215.702 739.334 216.875 742.684 218.016C742.034 220.036 741.253 221.991 740.733 224.044C740.277 225.803 739.887 227.595 739.757 229.388C739.626 231.375 740.57 233.265 742.489 233.591C743.986 233.852 746.165 233.428 747.141 232.418C748.93 230.561 750.102 228.084 751.501 225.836C751.858 225.282 752.151 224.695 752.444 224.174C753.81 224.989 755.079 225.771 756.38 226.553C754.136 227.986 751.761 229.485 749.353 231.017C749.484 231.408 749.614 231.832 749.711 232.223H768.547C768.547 232.548 768.612 232.907 768.612 233.233C766.823 233.689 765.066 234.145 763.277 234.569C762.138 234.862 760.935 234.927 759.926 235.416C758.885 235.937 758.007 236.817 757.063 237.566C758.072 238.153 759.015 239.098 760.056 239.261C764.969 239.913 769.881 240.369 774.923 241.281C773.362 241.705 771.768 242.128 770.206 242.585C768.58 243.073 766.888 243.692 766.855 245.745C766.855 247.766 768.319 248.645 770.011 249.427C772.483 250.535 774.728 252.165 777.266 253.077C779.803 253.989 782.568 254.283 785.236 254.934C786.179 255.162 787.057 255.716 787.968 256.107C787.903 256.303 787.838 256.531 787.773 256.726C786.96 256.661 786.114 256.629 785.301 256.564C785.171 256.792 785.041 256.987 784.878 257.215C786.342 258.388 787.871 259.464 789.237 260.767C791.775 263.211 794.54 265.492 796.622 268.327C797.76 269.891 798.866 271.455 799.973 273.052L822.224 277.744C822.875 277.548 823.493 277.353 824.046 277.092C825.803 276.212 826.779 274.713 826.779 272.726C826.779 270.282 825.477 268.555 823.33 267.74C818.418 265.85 813.473 263.993 808.463 262.364C806.154 261.614 805.015 260.083 803.941 257.671C809.179 258.421 814.059 259.073 818.516 261.419C819.231 261.777 819.622 262.82 820.24 263.634C822.192 261.777 820.695 259.887 819.817 257.932C821.639 257.606 823.688 257.508 823.656 255.097C823.623 252.784 821.801 252.197 819.947 251.806C819.069 251.611 818.158 251.415 817.247 251.35C812.074 250.959 806.902 250.6 801.371 250.209C807.292 249.395 812.855 248.711 818.385 247.798C821.443 247.309 824.566 246.723 827.429 245.55C828.6 245.061 829.836 242.976 829.739 241.705C829.641 240.467 828.112 238.87 826.811 238.283C824.989 237.436 822.81 237.11 820.793 237.013C811.033 236.687 801.274 236.491 791.547 236.263C790.603 236.263 789.628 236.263 788.684 236.263C789.074 235.644 789.53 235.481 790.018 235.448C798.248 234.666 806.446 233.852 814.677 233.102C816.076 232.972 817.507 233.168 818.906 233.005C820.955 232.777 822.289 231.603 822.452 229.485C822.615 227.498 821.573 226.129 819.752 225.51C818.743 225.184 817.637 224.989 816.596 225.054C810.903 225.412 805.21 225.803 799.55 226.292C795.808 226.618 792.1 227.139 788.359 227.595C788.977 226.781 789.693 226.455 790.408 226.064C793.629 224.402 796.915 222.805 800.07 221.013C802.575 219.58 803.388 216.973 802.412 214.627C801.436 212.281 798.997 211.107 796.231 211.759C795.255 211.987 794.345 212.378 793.401 212.704C791.384 213.356 789.4 214.008 786.83 214.855C789.497 211.173 791.84 208.077 794.052 204.884C795.776 202.407 795.711 200.029 793.987 198.302C792.328 196.64 789.79 196.412 787.415 198.171C784.618 200.224 781.95 202.472 779.315 204.721C776.908 206.774 774.598 208.957 772.191 211.14C775.769 205.242 779.478 199.572 782.698 193.642C785.691 188.135 784.292 184.844 778.502 182.4C778.859 180.901 779.282 179.402 779.64 177.903C780.258 175.134 780.519 172.397 777.981 170.376C775.541 168.421 773.362 169.757 770.857 171.517C771.28 169.725 771.8 168.356 771.865 167.02C772.06 163.827 772.321 160.601 771.963 157.473C771.833 156.332 770.141 154.964 768.84 154.507C767.116 153.888 766.172 155.518 765.717 156.984C763.96 162.295 762.268 167.672 760.577 173.016C760.284 173.928 759.926 174.808 759.568 175.72C759.21 174.677 759.341 173.765 759.406 172.853C759.471 171.875 759.568 170.865 759.438 169.887C759.08 166.596 757.584 165.619 754.428 166.499C751.761 160.275 751.793 159.46 752.314 152.878C752.574 149.424 752.444 145.938 752.119 142.484C751.988 141.017 751.143 139.453 750.199 138.28C748.703 136.423 746.881 136.814 746.1 139.062C745.45 140.919 744.994 142.875 744.701 144.83C743.237 153.888 741.839 162.947 740.407 172.038C740.18 172.038 739.984 171.973 739.757 171.94C740.017 169.822 740.277 167.737 740.505 165.619C741.188 159.102 741.806 152.552 740.31 146.068C739.724 143.494 738.911 140.952 736.243 139.127C735.527 142.027 734.714 144.699 734.194 147.436C733.673 150.206 733.445 153.041 733.218 155.061C731.851 149.392 730.29 143.103 728.631 136.26C728.24 139.062 727.948 141.213 727.655 143.363C726.809 140.822 726.646 138.345 726.289 135.901C725.605 131.307 724.792 126.712 721.702 122.965C720.498 121.466 718.904 120.456 716.919 121.206C714.87 121.955 715.325 123.845 715.39 125.474C715.39 126.289 715.553 127.136 715.651 127.951C716.009 131.014 716.399 134.044 716.822 137.596C715.748 133.946 714.968 130.72 713.861 127.625C713.243 125.865 712.267 124.138 711.096 122.704C710.511 121.955 709.112 121.401 708.201 121.564C707.648 121.662 707.16 123.226 707.03 124.203C706.867 125.246 707.062 126.354 707.258 127.397C709.567 140.463 711.649 153.53 712.007 166.825C712.007 167.672 712.007 168.486 712.007 169.334C711.682 169.366 711.324 169.431 710.999 169.464C710.771 168.552 710.413 167.672 710.348 166.727C709.86 159.688 709.535 152.65 708.917 145.644C708.233 137.856 706.835 130.199 703.484 123.063C701.955 119.804 700.166 116.676 697.075 114.656C696.782 114.754 696.49 114.819 696.197 114.917C697.466 126.354 698.767 137.791 700.068 149.457C698.116 144.439 696.392 139.616 694.342 134.956C692.293 130.329 689.3 126.256 685.657 122.639C687.218 130.297 688.812 137.987 690.374 145.644C687.511 134.142 681.655 124.529 672.319 117.491C672.319 118.11 672.254 119.12 672.156 120.749C668.773 115.373 666.43 109.768 659.827 107.911C662.234 116.155 664.511 123.878 666.788 131.633C666.008 131.079 665.65 130.395 665.259 129.71C662.884 125.735 660.64 121.662 658.005 117.849C656.638 115.862 654.752 114.102 652.767 112.636C651.824 111.919 650.197 112.147 648.896 111.951C648.896 113.287 648.506 114.786 649.026 115.894C651.401 121.043 654.036 126.061 656.541 131.144C656.899 131.861 657.191 132.61 657.647 133.718C654.882 130.036 652.572 126.582 649.839 123.486C648.538 122.02 646.651 120.782 644.797 120.163C642.52 119.381 641.056 121.01 641.771 123.356C642.357 125.246 643.268 127.038 644.179 128.798C645.383 131.144 646.716 133.392 647.92 135.608C645.252 137.107 643.593 136.195 641.869 134.142C639.592 131.405 637.152 128.602 632.988 128.407C633.769 126.191 634.712 124.203 635.103 122.118C635.298 121.01 634.907 119.185 634.127 118.664C633.216 118.045 631.329 118.045 630.353 118.599C628.987 119.348 628.011 120.847 626.97 122.151C625.798 123.617 624.725 125.181 623.619 126.712C623.456 125.507 623.716 124.562 623.944 123.617C625.05 119.022 626.221 114.46 627.262 109.866C627.653 108.074 627.1 106.477 625.245 105.825C623.391 105.141 622.025 105.988 621.081 107.585C620.593 108.367 620.203 109.182 619.78 109.996C617.763 113.907 615.811 117.817 613.729 121.694C611.94 125.018 609.988 128.276 608.101 131.568C607.874 130.297 608.134 129.287 608.394 128.244C610.216 121.434 612.038 114.656 613.827 107.846C614.055 106.966 614.445 105.956 614.185 105.174C613.827 104.098 613.111 102.73 612.2 102.404C611.289 102.078 609.858 102.632 608.882 103.219C608.199 103.61 607.906 104.685 607.483 105.5C604.913 110.681 602.376 115.862 599.806 121.043C599.676 118.794 600.099 116.709 600.261 114.591C600.326 113.678 599.936 112.701 599.676 111.788C599.415 110.778 598.83 109.768 598.862 108.758C598.992 104.88 599.513 101.003 599.546 97.1253C599.546 94.8769 598.472 92.8892 596.032 92.2701C593.722 91.7162 592.258 92.987 591.152 94.8117C590.99 95.105 590.86 95.3983 590.794 95.5612C583.898 92.6937 583.963 99.1455 581.816 101.72C581.816 97.8747 581.881 93.8342 581.816 89.7936C581.816 88.1318 581.653 86.47 581.263 84.8733C580.742 82.7227 579.441 81.1586 577.131 80.7024C574.789 80.2462 573.032 81.289 571.894 83.1789C570.82 84.9385 570.104 86.8936 569.259 88.7835C568.933 89.5004 568.641 90.2824 568.283 91.1948C567.697 86.8936 567.242 82.9508 566.558 79.0406C566.201 77.0855 565.55 74.8697 563.013 74.9675C560.54 75.0652 560.345 77.3136 559.955 79.1709C559.662 80.6047 559.434 82.0384 559.174 83.5373C554.294 81.3541 549.447 84.189 548.959 89.4352C548.796 91.3251 548.731 93.2476 548.699 95.1376C548.601 103.414 548.569 111.723 548.471 120C548.471 121.173 548.243 122.346 548.113 123.486C547.918 123.486 547.69 123.486 547.495 123.486C547.397 122.281 547.202 121.075 547.202 119.87C547.04 109.996 547.072 100.156 546.747 90.2824C546.552 84.3194 542.095 81.4845 536.532 83.407C536.076 81.3215 535.816 79.1709 535.133 77.1507C534.808 76.2383 533.604 75.0326 532.791 75.0326C531.815 75.0326 530.513 75.945 529.928 76.8248C529.212 77.9653 528.887 79.4316 528.692 80.8002C528.204 84.1564 527.878 87.5453 527.456 91.1622C526.317 88.5554 525.406 86.1441 524.235 83.8958C523.096 81.7126 521.34 80.2137 518.639 80.6047C516.297 80.9305 514.443 82.6901 514.215 85.5902C513.89 89.6959 514.02 93.8668 513.987 97.9725C513.987 98.6242 514.15 99.2759 514.183 99.9601C514.215 100.612 514.183 101.296 514.183 102.306C511.678 98.7219 511.548 92.5959 504.911 95.3657C504.488 94.7791 504.13 94.2252 503.707 93.7364C501.528 91.1948 498.014 91.6184 496.648 94.714C496.128 95.887 495.867 97.2882 495.932 98.559C496.063 101.948 496.485 105.337 496.713 108.693C496.778 109.475 496.973 110.713 496.583 111.006C494.631 112.408 495.217 114.232 495.444 115.992C495.64 117.589 495.965 119.185 496.225 120.749C494.729 118.794 493.623 116.676 492.582 114.558C490.857 111.072 489.198 107.552 487.474 104.066C486.628 102.404 485.23 101.589 483.375 102.241C481.586 102.86 481.196 104.359 481.423 106.086C481.521 106.738 481.716 107.39 481.879 108.009C483.701 114.884 485.555 121.759 487.409 128.635C487.637 129.515 487.832 130.427 488.027 131.339C485.392 127.69 483.213 123.91 481.131 120.065C478.886 115.894 476.804 111.658 474.592 107.52C473.713 105.891 472.282 105.076 470.428 105.728C468.573 106.412 468.085 107.976 468.378 109.768C468.671 111.397 469.061 112.994 469.452 114.623C470.428 118.566 471.436 122.509 472.445 126.452C470.232 124.171 468.476 121.694 466.491 119.381C465.223 117.882 463.498 117.132 461.644 118.371C459.887 119.576 460.115 121.303 460.766 123.063C461.416 124.822 462.002 126.582 462.685 128.439C458.358 128.537 456.049 131.437 453.804 134.109C452.047 136.195 450.388 137.009 447.753 135.576C448.144 134.859 448.566 134.077 448.989 133.295C450.453 130.525 452.112 127.82 453.316 124.92C453.837 123.682 453.967 121.531 453.251 120.652C451.982 119.088 449.835 119.837 448.599 121.075C445.866 123.812 443.394 126.81 440.922 129.775C439.978 130.916 439.295 132.252 438.482 133.523C440.824 127.56 443.752 121.955 446.484 116.22C447.037 115.014 446.81 113.45 446.907 112.049C445.541 112.212 443.914 111.984 442.841 112.636C441.149 113.711 439.523 115.21 438.384 116.872C435.554 121.043 433.016 125.409 430.381 129.71C429.991 130.329 429.666 131.014 429.308 131.665C429.178 131.6 429.047 131.535 428.885 131.47C431.13 123.747 433.407 116.057 435.782 107.911C429.113 109.768 426.835 115.438 423.322 120.032V117.132C421.63 118.729 419.939 120.195 418.345 121.759C414.669 125.376 411.448 129.352 409.529 134.24C408.26 137.465 407.056 140.724 405.82 143.95C405.755 143.95 405.69 143.95 405.625 143.917C407.056 136.781 408.52 129.612 409.951 122.476C407.544 124.953 405.43 127.592 403.738 130.492C401.981 133.458 400.452 136.618 399.086 139.812C397.817 142.842 396.906 146.003 395.865 149.098C395.768 149.098 395.67 149.033 395.54 149.001C396.809 137.628 398.11 126.224 399.379 114.851C399.053 114.721 398.728 114.591 398.403 114.428C397.264 115.634 395.963 116.709 395.019 118.045C390.01 124.985 388.123 133.066 387.179 141.343C386.236 149.717 385.878 158.189 385.195 166.596C385.13 167.541 384.674 168.454 384.414 169.399C384.154 169.334 383.926 169.268 383.666 169.203C383.633 168.649 383.471 168.095 383.536 167.541C384.674 156.756 385.813 145.97 387.017 135.184C387.44 131.405 388.155 127.657 388.513 123.878C388.578 123.063 387.96 121.597 387.375 121.434C386.561 121.206 385.162 121.694 384.642 122.346C383.438 123.878 382.365 125.637 381.714 127.462C380.608 130.46 379.827 133.62 378.819 137.042C379.307 132.61 379.892 128.537 380.153 124.431C380.218 123.389 379.599 121.694 378.819 121.336C377.843 120.88 376.021 121.075 375.208 121.759C373.776 122.998 372.247 124.692 371.759 126.452C370.458 131.111 369.677 135.934 368.701 140.724C368.539 141.539 368.506 142.353 368.409 143.168C368.181 143.168 367.986 143.168 367.758 143.168C367.53 141.05 367.27 138.932 367.042 136.814C366.945 136.814 366.88 136.749 366.782 136.716C365.253 142.907 363.757 149.131 362.455 154.344C361.642 149.978 360.634 144.602 359.625 139.225C359.17 139.225 358.747 139.225 358.291 139.258C351.655 149.554 355.103 160.894 355.461 171.973C354.322 166.466 353.346 160.927 352.371 155.42C351.427 150.043 350.646 144.634 349.508 139.29C348.922 136.586 346.71 136.26 345.018 138.476C344.238 139.486 343.587 140.822 343.457 142.06C343.164 145.416 342.644 148.903 343.197 152.194C344.075 157.277 343.132 161.839 341.115 166.336C337.764 165.521 336.235 166.596 336.04 170.181C335.942 171.973 336.17 173.765 336.267 175.557C335.389 174.124 334.869 172.657 334.381 171.158C332.819 166.368 331.42 161.546 329.663 156.821C329.273 155.778 327.549 154.312 326.768 154.475C325.499 154.768 323.808 156.104 323.548 157.245C322.995 159.754 323.092 162.458 323.255 165.065C323.385 167.053 324.036 169.008 324.524 171.223C319.709 168.421 316.293 169.366 315.61 173.439C315.382 174.71 315.545 176.079 315.773 177.382C316.065 179.076 316.586 180.706 316.976 182.368C311.381 184.518 309.787 187.972 312.584 193.153C315.48 198.53 318.961 203.613 322.181 208.794C322.539 209.348 322.864 209.902 323.222 210.456C320.425 208.468 318.05 206.187 315.545 204.037C312.877 201.788 310.177 199.605 307.314 197.65C305.297 196.249 302.857 196.705 301.426 198.334C299.832 200.126 299.865 202.081 300.971 204.069C301.328 204.721 301.784 205.307 302.239 205.926C304.256 208.696 306.273 211.466 308.713 214.855C305.232 213.682 302.467 212.639 299.637 211.824C296.091 210.782 292.903 212.802 292.708 216.126C292.545 218.7 293.976 220.296 296.123 221.404C299.832 223.327 303.541 225.249 307.282 227.172C304.419 227.172 301.621 226.879 298.856 226.651C291.959 226.064 285.03 225.38 278.101 225.021C274.913 224.858 272.896 226.781 272.993 229.192C273.059 231.603 274.848 232.907 278.133 233.005C282.753 233.135 287.405 233.102 292.024 233.493C297.002 233.917 301.914 234.797 306.891 235.448C306.891 235.677 306.891 235.905 306.859 236.133C305.981 236.133 305.07 236.133 304.191 236.133C296.091 236.198 287.958 236.133 279.858 236.459C276.182 236.589 272.473 237.338 268.829 238.023C267.04 238.349 265.316 239.652 265.641 241.574C265.869 243.073 267.04 244.735 268.276 245.648L268.667 245.81ZM660.477 160.764C661.16 161.383 662.039 161.872 662.429 162.654C664.609 166.825 666.691 171.028 668.773 175.231C668.578 175.329 668.415 175.46 668.22 175.557C665.389 170.865 662.527 166.14 659.696 161.448C659.957 161.22 660.217 160.992 660.445 160.764H660.477ZM650.197 139.127C650.88 140.3 651.596 141.31 652.051 142.418C652.279 142.94 652.084 144.178 651.889 144.211C651.206 144.373 650.165 144.439 649.709 144.048C648.831 143.233 648.278 142.093 647.367 140.789C648.44 140.17 649.189 139.746 650.197 139.16V139.127ZM635.883 136.52C636.534 137.694 637.022 138.541 637.738 139.779C636.241 140.235 634.972 140.626 633.704 141.05C633.606 140.854 633.476 140.659 633.378 140.431C634.159 139.258 634.907 138.052 635.916 136.52H635.883ZM631.784 125.246C633.053 129.547 631.492 133.034 630.516 136.716C631.134 136.26 631.752 135.771 632.858 134.956C632.337 136.912 631.947 138.41 631.426 140.463C628.629 139.323 626.059 138.247 623.196 137.074C626.091 133.099 628.824 129.352 631.817 125.246H631.784ZM562.655 86.307C562.85 86.307 563.045 86.3396 563.24 86.3722V106.314C563.045 106.314 562.85 106.314 562.655 106.314V86.307ZM532.856 86.307C533.051 86.307 533.214 86.307 533.409 86.307V106.347C533.214 106.347 533.051 106.347 532.856 106.347V86.307ZM463.433 125.898C463.791 125.767 464.182 125.67 464.539 125.539C467.272 129.287 470.037 133.066 472.933 137.042C470.167 138.215 467.63 139.29 464.767 140.496C464.214 138.606 463.759 137.074 463.108 134.956C464.247 135.804 464.897 136.292 465.613 136.814C464.865 133.099 464.149 129.515 463.401 125.93L463.433 125.898ZM460.213 136.52C461.221 138.085 461.969 139.225 462.718 140.366C462.653 140.561 462.588 140.757 462.522 140.952C461.254 140.626 459.985 140.3 458.358 139.877C459.107 138.573 459.595 137.661 460.245 136.52H460.213ZM445.574 138.964C446.907 139.714 447.656 140.17 448.957 140.887C447.623 142.255 446.549 143.494 445.313 144.569C445.118 144.732 443.882 144.08 443.882 144.015C444.337 142.451 444.89 140.887 445.541 138.964H445.574ZM436.562 161.122C433.537 166.14 430.674 170.93 427.844 175.688C429.893 168.519 434.253 161.35 436.562 161.122Z" fill="black"/>
</g>
<defs>
<clipPath id="clip0_473_655">
<rect width="564" height="209" fill="white" transform="translate(266 75)"/>
</clipPath>
</defs>
</svg>
