<svg width="1080" height="1080" viewBox="0 0 1080 1080" fill="none" xmlns="http://www.w3.org/2000/svg">
<g clip-path="url(#clip0_611_202408)">
<path d="M244.366 233.01C248.271 231.509 257.038 229.374 259.683 225.518C260.9 223.744 261.26 220.747 261.598 218.58C262.174 214.886 262.509 210.743 263.63 207.236C265.4 201.695 268.443 196.13 270.823 190.905C274.322 183.073 277.974 175.342 281.78 167.713C285.585 160.083 289.54 152.562 293.644 145.151C333.877 73.6883 390.565 28.268 460.81 7.57623C465.612 6.11754 470.47 4.98555 475.383 4.18026C485.976 2.55464 528.619 0.22546 528.619 0.22546C528.619 0.22546 543.796 0.593183 549.119 0.224671C549.119 0.224671 556.916 -0.170817 569.09 0.0853708C576.459 0.240469 583.763 1.45781 590.967 3.01965C593.953 3.66701 596.939 4.31797 599.905 5.0947C608.85 7.34042 617.725 9.91864 626.53 12.8294C635.336 15.7401 644.056 18.9776 652.688 22.5417L664.719 28.3352C669.401 31.0461 675.146 33.6927 680.119 36.2252C687.646 42.1927 699.476 49.9081 707.347 56.3185C710.146 58.6127 712.912 60.9616 715.645 63.365C718.378 65.7684 721.076 68.2249 723.74 70.7346C726.404 73.2445 729.032 75.8062 731.622 78.4198C734.212 81.0332 736.765 83.697 739.282 86.4113C741.796 89.1255 744.272 91.8885 746.709 94.7003C749.147 97.5123 751.544 100.372 753.9 103.278C756.255 106.185 758.569 109.137 760.842 112.134C763.114 115.132 765.343 118.174 767.529 121.26C769.3 123.725 771.042 126.219 772.754 128.742C774.465 131.264 776.146 133.815 777.798 136.393C779.449 138.972 781.068 141.578 782.656 144.21C784.246 146.842 785.804 149.5 787.33 152.184C788.855 154.869 790.348 157.577 791.809 160.311C793.271 163.044 794.698 165.801 796.093 168.583C797.489 171.363 798.852 174.167 800.181 176.993C801.509 179.819 802.803 182.667 804.064 185.536C806.7 191.644 809.109 197.874 811.291 204.226C813.407 210.451 815.206 217.662 818.413 223.23C819.323 224.805 820.574 225.969 821.842 227.121L828.539 227.136L832.544 230.899C832.356 247.89 835.411 254.672 835.709 271.62C835.709 279.725 852.604 282.093 854.131 289.965C859.773 319.016 874.455 341.463 898.667 351.304C907.158 354.756 917.408 357.221 924.957 363.032C926.882 364.514 929.446 367.078 929.607 370.032C930.319 383.117 903.119 466.725 869.759 503.037C818.413 569.725 786.349 588.937 736.04 611.617C727.124 615.636 700.412 627.516 691.6 631.609C688.913 632.974 687.251 633.999 684 635.499C681.274 636.756 675.256 639.147 675.256 639.147C675.256 639.147 669.722 641.385 666.932 642.418C664.141 643.454 661.335 644.433 658.515 645.356C655.696 646.278 652.865 647.142 650.021 647.949C647.178 648.758 644.323 649.509 641.457 650.202C638.59 650.895 635.715 651.53 632.831 652.107C629.947 652.686 627.055 653.206 624.156 653.666C616.264 654.927 608.501 655.148 600.577 655.761C581.485 657.233 562.789 657.999 543.658 657.987C530.021 657.98 516.323 658.562 502.697 657.93C496.501 657.644 490.379 656.493 484.212 655.826C477.849 655.139 471.432 654.883 465.091 653.947C460.688 653.256 436 648.999 430.051 647.846C423.5 646.577 418.641 645.92 413.188 644.494C390.908 638.661 369.054 629.383 348.021 619.028C343.816 616.958 339.446 614.749 335.592 611.863C328.293 607.677 302.119 593.225 294.684 587.281C281.068 580.328 268.243 570.437 256.491 559.833C236.195 541.519 216.708 520.258 202.046 495.424C196.555 486.124 191.248 480.805 186.119 471.225C181.26 462.15 167.312 433.802 157.934 417.395C154.587 411.539 151.657 405.424 149.771 398.948C149.631 398.468 149.549 397.98 149.449 397.49C148.612 393.364 143.399 377.354 144.057 375.335C144.815 373.01 147.752 371.339 149.561 370.337C153.213 368.31 157.427 367.153 161.281 365.693C168.619 362.914 165.619 365.693 188.619 351.725C209.125 333.484 211.619 334.725 219.619 309.376C219.437 302.034 241.464 291.816 240.195 284.754C237.222 268.224 240.114 248.864 244.366 233.01ZM346.619 312.225L325.619 309.376C317.624 308.726 303.211 305.209 295.688 305.013C295.667 314.699 295.343 334.574 295.789 344.235C296.105 351.123 297.118 358.129 297.878 364.977C299.927 383.499 307.619 398.225 307.619 398.225C309.119 402.225 310.119 404.725 311.619 408.725C313.119 411.725 315.619 416.225 317.119 419.225C319.119 422.225 319.694 422.676 321.119 425.225C321.957 426.725 328.619 436.725 333.619 441.225C345.119 453.725 358.308 460.756 372.032 467.946C418.685 492.397 469.293 503.306 520.121 505.491C592.904 508.619 671.463 497.113 733.687 449.131C749.331 437.071 763.166 422.586 776.819 407.602C779.441 404.725 785.619 402.225 788.219 368.725C788.211 364.486 788.219 360.725 788.219 354.225C788.219 348.725 788.219 336.225 788.219 336.225C788.219 336.225 788.209 321.729 788.219 315.091V307.225C783.387 307.172 773.619 309.376 773.619 309.376L760.119 310.725L738.119 314.182L708.619 317.225C696.119 318.589 688.119 319.225 673.119 320.225C667.92 320.344 639.318 324.113 634.119 324.225C593.247 325.103 565.985 325.716 525.119 325.725L493.619 324.225L464.119 323.225L432.619 320.725L390.119 317.225L346.619 312.225ZM538.796 21.0328C513.379 47.2606 484.233 46.3381 472.292 84.9326C473.655 91.0507 474.951 97.2027 476.53 103.248C483.096 96.5388 485.201 86.8386 489.139 78.1092C499.505 55.1357 519.077 36.251 538.272 24.2218C557.946 34.6369 575.648 51.1029 587.462 72.6322C592.213 81.2879 594.173 92.8248 602.062 98.3864C604.31 79.5938 602.207 66.9872 592.419 51.6613C577.603 28.4641 557.727 39.2756 538.796 21.0328ZM474.507 25.5928L475.307 26.216L474.779 26.7756L474.391 26.6231C473.687 28.0255 473.724 28.0255 473.94 29.6446C475.961 31.1644 477.886 30.6754 480.155 30.4597C482.486 28.0809 484.256 25.5757 486.129 22.7089C482.234 23.5488 478.36 24.5101 474.507 25.5928Z" fill="black"/>
<path d="M539.187 6.5C575.5 21.5 591.5 39 598.5 56.5C608.319 71.7963 605.254 79.7438 603 98.5C595.086 92.9492 591.469 92.5565 588 83C574.969 62.0697 558.923 44.5217 539.187 34.1268C519.932 46.1327 500.299 64.9808 489.9 87.9099C485.949 96.6224 487.086 105.304 480.5 112C477.5 107.5 472.368 92.6063 471 86.5C482 47.28 500 18 539.187 6.5Z" fill="#A3A3A3"/>
<path d="M796 449.359C804.433 425.202 808.849 381.045 809.753 354.873C810.111 344.506 809.826 334.07 809.905 323.694C809.942 318.905 809.302 304.243 812.096 301C812.096 301 822.5 301 838 291.5C838 302.5 839.392 305.679 839.852 307.344C840.312 309.009 840.81 310.657 841.346 312.288C841.879 313.922 842.449 315.538 843.055 317.136C843.66 318.733 844.301 320.31 844.977 321.869C856.067 347.529 877.485 364.878 900.5 373.5L904 374.211C904.492 378.459 880.738 410.733 878.531 414.161C870.543 426.572 848.303 441.135 835.649 446.915C826.618 451.042 816.018 454.452 806.426 455.754C803.766 456.114 799.898 456.365 797.62 454.365C796.329 453.232 796.182 451.107 796 449.359Z" fill="#727272"/>
<path d="M255.179 294L271.632 301.464C271.598 340.366 273.126 379.001 279.761 417.208C281.216 425.593 282.619 434.531 285 442.616C284.586 445.254 284.077 447.256 282.11 448.823C277.668 452.361 270.074 450.773 265.105 449.695C242.233 444.743 178.093 403.168 164.5 380C187.585 370.781 218.788 354.005 230 327C234.5 308.5 239 307 255.179 294Z" fill="#727272"/>
<path d="M904 374.5H916.5C890.5 476 789 582.5 725.516 597.525C725.178 597.686 724.5 598 724.5 598C740.5 583 776 535.5 796 449C796.182 450.749 796.206 452.866 797.5 454C799.784 456 803.119 455.683 805.786 455.323C815.401 454.021 826.028 450.61 835.08 446.482C847.766 440.701 890.062 395.136 898.069 382.723C900.282 379.293 901.5 377 904 374.5Z" fill="#49494A"/>
<path d="M596 25C612.316 29.6119 628.625 34.0906 644.375 41.0277C704.463 67.4948 750.131 120.07 783.322 183.811C791.476 199.469 798.195 215.793 802 233.699C796.239 235.005 790.468 236.234 784.789 238C780.286 235.826 779.323 231.821 777.864 226.702C776.303 221.229 775.036 215.634 773.219 210.263C765.882 188.56 754.381 168.335 741.782 150.429C741.008 149.332 740.228 148.242 739.442 147.158C738.654 146.074 737.86 144.997 737.062 143.927C736.261 142.857 735.454 141.794 734.639 140.738C733.827 139.681 733.007 138.632 732.18 137.59C731.355 136.547 730.523 135.512 729.684 134.484C728.845 133.456 728 132.436 727.149 131.422C726.297 130.408 725.44 129.402 724.576 128.403C723.713 127.404 722.843 126.413 721.967 125.429C721.091 124.445 720.209 123.468 719.321 122.5C718.433 121.531 717.538 120.569 716.638 119.616C715.739 118.662 714.834 117.716 713.923 116.778C713.012 115.84 712.095 114.91 711.172 113.987C710.249 113.065 709.32 112.15 708.386 111.244C707.453 110.337 706.513 109.439 705.569 108.548C704.623 107.658 703.673 106.776 702.718 105.901C701.761 105.027 700.8 104.161 699.835 103.304C698.867 102.446 697.896 101.596 696.92 100.755C695.942 99.9142 694.96 99.0815 693.974 98.2572C692.987 97.4329 691.996 96.6171 690.999 95.8098C690.002 95.0025 688.999 94.2037 687.992 93.4133C686.984 92.6232 685.972 91.8417 684.956 91.0688C683.94 90.2959 682.919 89.5319 681.894 88.7766C680.869 88.0211 679.838 87.2745 678.803 86.5369C677.767 85.799 676.728 85.0701 675.685 84.3501C674.641 83.6302 673.592 82.9194 672.539 82.2174C671.488 81.5152 670.431 80.8222 669.369 80.1384C668.307 79.4545 667.242 78.7797 666.173 78.1139C665.104 77.4482 664.03 76.7918 662.953 76.1445C661.875 75.497 660.794 74.8589 659.709 74.2301C658.624 73.6013 657.535 72.9818 656.441 72.3716C655.35 71.7615 654.253 71.1607 653.153 70.5692C652.052 69.9777 650.948 69.3958 649.841 68.8233C637.403 62.5608 624.391 60.3494 613.006 51.1866C607.59 42.1613 602.237 33.274 596 25Z" fill="#A3A3A3"/>
<path d="M776.646 424.247C782.996 418.984 789.447 413.901 796 409C766 534.49 721.061 602.63 666.898 621.825C596.065 646.926 451.267 649.432 385.163 607.529C324 582.5 300 439.5 294 405.5C303.169 413.806 346.573 517.797 346.808 517.084C346.877 516.84 347.043 516.37 346.808 517.084C346.108 519.602 346.739 521.989 347.716 524.264C350.113 529.846 354.422 534.649 358.002 539.199C379.048 565.949 405.721 584.609 434.799 596.542C507.686 626.459 608.557 618.957 677.888 579.08C679.28 578.296 680.665 577.491 682.041 576.664C683.416 575.839 684.781 574.993 686.136 574.124C687.493 573.258 688.84 572.37 690.178 571.46C691.514 570.552 692.84 569.623 694.156 568.673C695.473 567.722 696.779 566.751 698.074 565.762C699.37 564.773 700.654 563.765 701.926 562.736C703.2 561.705 704.462 560.657 705.712 559.591C706.962 558.523 708.2 557.437 709.427 556.331C710.652 555.226 711.865 554.102 713.067 552.959C714.268 551.816 715.456 550.655 716.631 549.475C717.809 548.297 718.972 547.1 720.121 545.884C721.271 544.671 722.407 543.439 723.53 542.188C724.651 540.939 725.759 539.673 726.854 538.389C727.948 537.107 729.029 535.807 730.096 534.49C731.162 533.173 732.214 531.84 733.251 530.491C734.287 529.143 735.309 527.779 736.316 526.399C739.632 521.917 775.611 434.507 777.018 428.672C777.475 426.774 777.374 425.979 776.646 424.247Z" fill="#49494A"/>
<path d="M350 595.5C333.5 591 325.669 586.858 316.409 581.408C294.726 568.646 272.046 554.877 255 534.5C252.467 531.481 246.369 525.7 244 522.5C241.632 519.3 230.696 506.366 228.5 503C221.078 491.609 183 439.5 177 423.5C177 423.5 160.5 394.5 164.5 380C178.216 403.171 242.804 442.42 265.5 449.5C271 450 277 452 282 449C283.985 447.433 284.582 445.138 285 442.5C286.363 450.368 289.629 459.362 291.857 466.971C299 500 315 555.5 350 595.5Z" fill="#49494A"/>
<path d="M276 236.177C284.174 211.245 293.042 186.012 304.966 163.222C342.509 91.4536 406.671 44.1555 475.342 25.0002L487 22C481.91 28.6201 471.635 43.916 467.145 51.1011C452.291 57.1499 437.183 62.6258 422.918 70.4691C421.417 71.3048 419.925 72.1592 418.442 73.0323C416.957 73.9057 415.479 74.7975 414.01 75.7077C412.542 76.6181 411.082 77.547 409.629 78.4942C408.177 79.4413 406.734 80.4066 405.3 81.3901C403.866 82.3736 402.441 83.3751 401.024 84.3947C399.608 85.414 398.2 86.451 396.801 87.5058C395.404 88.5607 394.016 89.633 392.637 90.7227C391.259 91.8126 389.891 92.9197 388.533 94.044C387.173 95.1681 385.824 96.3092 384.487 97.4675C383.148 98.6257 381.82 99.8006 380.504 100.992C379.188 102.184 377.882 103.392 376.585 104.616C375.291 105.841 374.007 107.082 372.735 108.338C371.463 109.595 370.202 110.868 368.951 112.157C367.702 113.445 366.464 114.749 365.238 116.069C364.012 117.389 362.797 118.724 361.594 120.074C360.392 121.425 359.202 122.79 358.024 124.17C356.847 125.55 355.682 126.945 354.53 128.355C353.378 129.764 352.238 131.189 351.111 132.627C349.985 134.065 348.872 135.518 347.77 136.984C346.669 138.45 345.582 139.93 344.507 141.424C343.434 142.918 342.374 144.425 341.328 145.945C340.281 147.466 339.248 148.999 338.228 150.546C337.21 152.092 336.205 153.651 335.213 155.223C334.223 156.795 333.246 158.379 332.282 159.975C331.32 161.571 330.372 163.18 329.439 164.8C328.505 166.42 327.586 168.052 326.682 169.695C325.779 171.339 324.889 172.993 324.013 174.659C323.14 176.324 322.281 178.001 321.437 179.688C320.593 181.376 319.764 183.074 318.95 184.782C318.138 186.489 317.34 188.207 316.556 189.936C315.774 191.664 315.007 193.403 314.257 195.152C313.505 196.899 312.769 198.656 312.05 200.421C306.829 213.097 305.528 230.854 295.798 240C289.225 238.532 282.626 237.258 276 236.177Z" fill="#A3A3A3"/>
<path d="M260.549 252C271.211 255.91 282.485 257.612 293.495 259.631C308.915 262.53 324.376 265.07 339.879 267.25C347.274 268.3 354.675 269.292 362.082 270.225C369.487 271.159 376.899 272.034 384.316 272.85C391.732 273.666 399.152 274.424 406.577 275.123C414.002 275.821 421.43 276.461 428.861 277.043C436.295 277.625 443.73 278.148 451.167 278.611C458.606 279.077 466.046 279.483 473.488 279.829C480.932 280.175 488.377 280.462 495.823 280.692C503.268 280.92 510.715 281.09 518.162 281.202C525.612 281.313 533.06 281.366 540.507 281.36C547.957 281.354 555.405 281.289 562.853 281.164C570.3 281.04 577.747 280.857 585.192 280.615C592.638 280.372 600.083 280.072 607.527 279.714C614.969 279.354 622.409 278.935 629.846 278.459C637.283 277.981 644.717 277.445 652.148 276.85C659.58 276.256 667.008 275.603 674.433 274.89C681.856 274.178 689.275 273.408 696.691 272.58C720.421 270.064 744.061 266.668 767.61 262.392C781.762 259.659 796.311 253.376 810.69 253.447C812.954 253.46 815.355 253.401 816.93 255.556C820.4 260.305 818.569 271.064 818.078 276.94C780.259 288.827 741.27 292.964 702.414 297.253C693.204 298.274 683.988 299.206 674.765 300.048C665.543 300.891 656.315 301.645 647.08 302.309C637.847 302.974 628.61 303.549 619.368 304.033C610.128 304.518 600.885 304.913 591.638 305.22C582.391 305.524 573.143 305.739 563.892 305.866C554.642 305.992 545.391 306.029 536.141 305.977C526.89 305.924 517.641 305.781 508.392 305.549C499.145 305.317 489.899 304.995 480.654 304.583C471.411 304.171 462.171 303.67 452.935 303.08C443.696 302.49 434.464 301.809 425.236 301.039C416.01 300.269 406.79 299.41 397.575 298.461C388.359 297.513 379.151 296.475 369.95 295.349C360.749 294.221 351.556 293.004 342.373 291.7C333.189 290.395 324.015 289.002 314.851 287.519C305.687 286.034 296.533 284.462 287.39 282.801C278.249 281.141 269.119 279.392 260 277.555C260.126 269.035 260.309 260.516 260.549 252Z" fill="#A3A3A3"/>
<path d="M476.5 103.5C483.09 96.7795 485.703 86.7225 489.655 77.9784C500.06 54.9661 519.705 36.0495 538.971 24C558.72 34.4327 576.487 50.9265 588.346 72.4922C593.114 81.1624 595.081 92.929 603 98.5C588.947 146.452 572.844 186.952 539.895 221C518.18 195.585 499.639 167.291 486.769 134.419C482.848 124.409 480 113 476.5 103.5Z" fill="#727272"/>
<path d="M777 424C782.5 423.5 746.18 507.538 745.724 509.444C744.32 515.301 739.351 522.737 736.041 527.236C735.036 528.621 734.017 529.991 732.982 531.344C731.947 532.698 730.898 534.036 729.833 535.359C728.769 536.681 727.69 537.986 726.598 539.273C725.505 540.562 724.399 541.833 723.28 543.087C722.16 544.343 721.026 545.58 719.879 546.798C718.732 548.018 717.571 549.219 716.395 550.402C715.222 551.587 714.036 552.753 712.838 553.9C711.639 555.047 710.427 556.176 709.205 557.286C707.98 558.395 706.745 559.486 705.497 560.558C704.25 561.628 702.991 562.681 701.719 563.715C700.449 564.748 699.168 565.761 697.875 566.754C696.582 567.746 695.278 568.721 693.965 569.676C692.651 570.629 691.327 571.562 689.994 572.473C688.659 573.387 687.314 574.278 685.96 575.148C684.607 576.02 683.245 576.87 681.873 577.698C680.499 578.528 679.118 579.337 677.728 580.123C608.533 620.157 507.859 626.688 435.115 596.654C406.094 584.674 381.005 570.356 360 543.501C356.427 538.933 350.893 532.105 348.5 526.501C347.525 524.217 305.802 431.028 306.5 428.5C306.569 428.256 303 420 303 420C307.265 423.717 318.787 459 363.551 480.066C368.942 482.901 374.381 485.601 379.867 488.166C385.352 490.734 390.88 493.165 396.451 495.46C402.023 497.754 407.631 499.91 413.277 501.927C498.579 532.318 600.544 531.138 684.405 494.593C705.627 485.344 744 466 777 424Z" fill="#727272"/>
<path d="M612.5 50.5C623.899 59.7181 637.435 61.4429 649.888 67.7432C650.997 68.3191 652.102 68.9046 653.204 69.4996C654.306 70.0947 655.403 70.6991 656.496 71.313C657.591 71.9268 658.682 72.55 659.768 73.1826C660.854 73.8152 661.937 74.4571 663.016 75.1083C664.095 75.7596 665.169 76.4202 666.24 77.0899C667.31 77.7597 668.377 78.4386 669.44 79.1267C670.503 79.8145 671.561 80.5117 672.614 81.2181C673.668 81.9244 674.718 82.6395 675.764 83.3637C676.808 84.0881 677.848 84.8213 678.885 85.5634C679.922 86.3057 680.954 87.0569 681.98 87.817C683.006 88.5768 684.028 89.3455 685.046 90.123C686.063 90.9006 687.076 91.6868 688.085 92.4817C689.094 93.2768 690.098 94.0804 691.096 94.8926C692.094 95.7048 693.087 96.5255 694.075 97.3548C695.062 98.1841 696.046 99.0218 697.024 99.868C698.001 100.714 698.974 101.569 699.943 102.432C700.909 103.294 701.871 104.166 702.829 105.045C703.785 105.925 704.737 106.812 705.684 107.708C706.63 108.604 707.57 109.508 708.505 110.42C709.44 111.332 710.369 112.252 711.294 113.18C712.218 114.108 713.136 115.044 714.048 115.988C714.961 116.931 715.867 117.883 716.766 118.842C717.668 119.802 718.563 120.769 719.453 121.744C720.342 122.718 721.225 123.7 722.102 124.69C722.979 125.68 723.85 126.678 724.714 127.683C725.579 128.688 726.437 129.7 727.29 130.72C728.142 131.739 728.988 132.766 729.828 133.801C730.668 134.835 731.501 135.876 732.327 136.925C733.155 137.973 733.976 139.029 734.79 140.092C735.605 141.154 736.413 142.224 737.215 143.301C738.014 144.377 738.809 145.461 739.598 146.551C740.385 147.641 741.166 148.738 741.941 149.842C754.555 167.856 766.07 188.203 773.417 210.037C775.236 215.44 776.504 221.069 778.067 226.575C779.527 231.725 780.492 235.754 785 237.941C741 247.825 696.671 252.868 652.033 256.422C644.614 257.023 637.19 257.564 629.763 258.046C622.338 258.528 614.91 258.951 607.478 259.316C600.047 259.679 592.615 259.983 585.181 260.229C577.746 260.476 570.31 260.663 562.874 260.793C555.437 260.92 547.999 260.989 540.562 260.999C533.125 261.007 525.688 260.957 518.252 260.849C510.815 260.743 503.378 260.576 495.943 260.348C488.509 260.121 481.076 259.835 473.644 259.491C466.212 259.147 458.782 258.743 451.355 258.28C443.928 257.819 436.504 257.298 429.083 256.716C421.663 256.136 414.246 255.497 406.831 254.798C399.416 254.1 392.006 253.342 384.6 252.527C377.195 251.711 369.794 250.836 362.399 249.902C355.004 248.97 347.614 247.978 340.229 246.927C332.844 245.875 325.467 244.766 318.096 243.598C310.724 242.43 303.358 241.203 296 239.919C305.706 230.758 307.003 212.972 312.212 200.276C312.929 198.507 313.663 196.748 314.413 194.998C315.162 193.246 315.927 191.505 316.707 189.773C317.489 188.042 318.285 186.321 319.095 184.611C319.907 182.901 320.734 181.2 321.576 179.51C322.418 177.82 323.274 176.14 324.146 174.472C325.019 172.804 325.907 171.146 326.808 169.5C327.71 167.855 328.627 166.22 329.558 164.597C330.489 162.974 331.435 161.363 332.394 159.764C333.356 158.166 334.33 156.579 335.318 155.005C336.307 153.431 337.31 151.869 338.326 150.32C339.343 148.771 340.374 147.235 341.418 145.712C342.462 144.189 343.519 142.68 344.589 141.184C345.661 139.688 346.746 138.205 347.845 136.736C348.943 135.268 350.054 133.813 351.177 132.373C352.302 130.932 353.439 129.505 354.588 128.094C355.737 126.682 356.899 125.285 358.073 123.902C359.249 122.52 360.436 121.152 361.634 119.8C362.835 118.447 364.047 117.11 365.27 115.788C366.493 114.466 367.727 113.16 368.973 111.869C370.221 110.578 371.48 109.304 372.748 108.045C374.017 106.786 375.298 105.543 376.589 104.317C377.883 103.09 379.186 101.88 380.499 100.687C381.811 99.4933 383.136 98.3165 384.471 97.1565C385.805 95.9964 387.15 94.8534 388.507 93.7275C389.862 92.6014 391.227 91.4925 392.601 90.4009C393.977 89.3094 395.362 88.2355 396.756 87.179C398.151 86.1224 399.555 85.0836 400.968 84.0626C402.381 83.0415 403.803 82.0383 405.233 81.0532C406.664 80.0681 408.103 79.1013 409.551 78.1527C411.001 77.2039 412.458 76.2736 413.922 75.3617C415.388 74.45 416.861 73.5568 418.343 72.682C419.823 71.8075 421.311 70.9517 422.809 70.1147C437.038 62.2588 452.682 56.5585 467.5 50.5C461.376 66.8338 455.547 82.8944 458.794 100.977C460.616 111.111 463.972 121.01 467.051 130.689C481.81 177.067 504.914 219.617 540.367 247.211C541.362 246.312 542.35 245.404 543.333 244.486C544.313 243.567 545.288 242.637 546.256 241.699C547.224 240.76 548.186 239.811 549.14 238.852C550.094 237.894 551.041 236.926 551.982 235.945C552.922 234.967 553.854 233.979 554.779 232.982C555.705 231.985 556.623 230.978 557.533 229.96C558.444 228.945 559.347 227.918 560.243 226.882C561.138 225.847 562.025 224.803 562.906 223.75C563.786 222.695 564.659 221.631 565.523 220.559C566.388 219.489 567.245 218.408 568.094 217.318C568.943 216.229 569.783 215.131 570.614 214.023C571.447 212.916 572.271 211.8 573.087 210.676C573.904 209.551 574.712 208.42 575.512 207.281C576.311 206.14 577.102 204.991 577.884 203.833C578.666 202.676 579.441 201.511 580.207 200.339C580.973 199.164 581.73 197.983 582.477 196.794C583.225 195.605 583.965 194.409 584.696 193.205C585.425 192.002 586.147 190.79 586.86 189.57C587.574 188.352 588.278 187.126 588.972 185.891C589.666 184.658 590.351 183.417 591.028 182.168C591.705 180.921 592.373 179.667 593.032 178.405C593.689 177.143 594.337 175.875 594.977 174.6C595.617 173.325 596.247 172.043 596.867 170.755C597.487 169.467 598.098 168.173 598.699 166.872C599.302 165.571 599.894 164.265 600.476 162.952C601.059 161.639 601.632 160.32 602.195 158.995C602.757 157.67 603.311 156.34 603.855 155.003C604.399 153.667 604.932 152.325 605.456 150.978C605.979 149.631 606.493 148.278 606.998 146.92C607.5 145.562 607.994 144.199 608.479 142.831C608.963 141.463 609.436 140.09 609.9 138.711C610.364 137.334 610.818 135.951 611.26 134.564C617.099 116.29 623.289 93.4097 620.134 73.8872C618.776 65.4878 615.5 58.5 612.5 50.5Z" fill="#727272"/>
</g>
<defs>
<clipPath id="clip0_611_202408">
<rect width="1080" height="1080" fill="white"/>
</clipPath>
</defs>
</svg>
