<svg width="120" height="120" viewBox="0 0 120 120" fill="none" xmlns="http://www.w3.org/2000/svg">
<path fill-rule="evenodd" clip-rule="evenodd" d="M60.5624 70.4521C55.019 70.5399 49.5402 69.9588 44.1702 68.601C39.7957 67.4944 35.6368 65.8133 32.1757 62.8166C28.8368 59.9266 26.7246 56.281 25.9668 51.8955C25.1979 47.451 25.4757 43.071 26.9524 38.8088C28.2557 35.0466 30.2446 31.6633 32.869 28.6521C38.3279 22.3899 45.2646 18.7888 53.3579 17.351C58.0746 16.5133 62.8013 16.5577 67.539 17.4521C72.1335 18.3188 76.3946 19.9266 80.3002 22.4899C82.4325 23.8896 84.2348 25.6634 86.0416 27.4416L86.3268 27.7221C91.0924 32.4088 93.5468 38.2066 94.5846 44.6888C95.2968 49.1333 94.1568 53.2366 92.1402 57.161C90.5424 60.2699 88.299 62.801 85.2646 64.5299C81.2202 66.8344 76.9102 68.4788 72.3079 69.3021C68.8813 69.9144 65.4457 70.4488 61.9513 70.4521H60.5624ZM24.4424 41.8277L24.4423 41.8288C23.6179 42.0833 22.9057 42.5422 22.4401 43.3255C21.8546 44.3121 21.5068 45.3821 21.5168 46.5332C21.5257 47.5466 21.5724 48.5632 21.6701 49.571C21.8768 51.6977 23.0013 53.1743 25.1357 54.1155C24.4135 52.0666 23.8957 50.0877 23.9501 48.0521C23.9886 46.6273 24.1256 45.2051 24.2646 43.7631L24.2646 43.7631C24.3262 43.1229 24.3883 42.4788 24.4423 41.8288L24.4424 41.8288V41.8277ZM95.5756 42.011C96.6334 46.0155 96.1768 49.9277 94.9923 53.8066C96.1712 53.2955 97.2801 52.6077 97.6945 51.2255C97.7131 51.1636 97.7317 51.1016 97.7503 51.0396C98.0342 50.0954 98.3219 49.1384 98.4334 48.1677C98.6056 46.6755 98.4879 45.1732 97.929 43.7488C97.5367 42.7477 96.5234 41.9955 95.5756 42.011Z" fill="#C9B7FE"/>
<path d="M61.111 72.3744C56.4787 72.5599 52.8576 72.0433 49.2476 71.401C44.911 70.6288 40.7454 69.3233 36.7343 67.4955C32.7798 65.6933 29.6976 62.961 27.5754 59.1621C26.9354 58.0155 26.3187 56.8566 25.6665 55.7166C25.5665 55.541 25.3432 55.3433 25.1587 55.3233C22.7732 55.0633 21.1676 53.8344 20.4754 51.5255C19.611 48.641 19.6298 45.7888 21.0232 43.0488C21.7221 41.6744 22.8498 40.7788 24.3554 40.4133C24.7776 40.311 24.9454 40.1033 25.0621 39.7021C26.0121 36.4444 27.3998 33.3699 29.3587 30.6055C33.8754 24.231 39.7821 19.7033 47.2376 17.171C51.5332 15.7121 55.9221 14.8888 60.4187 15.0121C67.7232 15.2121 74.6832 16.8299 80.9098 20.8921C83.5487 22.6144 85.8276 24.7366 87.9354 27.0688C89.6532 28.9688 91.241 30.9488 92.4421 33.2277C93.5665 35.3633 94.5187 37.5621 95.1665 39.891C95.2232 40.0944 95.4354 40.3533 95.6232 40.4044C97.7098 40.9599 99.001 42.2833 99.5998 44.3433C100.268 46.6444 100.318 48.9377 99.601 51.2321C98.8898 53.5099 97.1821 54.6433 94.9865 55.1821C94.5843 55.281 94.3443 55.4233 94.1365 55.8199C93.2954 57.4244 92.4321 59.0221 91.4954 60.5721C89.8976 63.2155 87.5476 65.0666 84.8721 66.5077C81.4198 68.3688 77.7198 69.5933 73.9843 70.7633C71.7054 71.4766 69.391 71.5955 67.071 71.8377C64.7732 72.0777 62.4676 72.2533 61.1098 72.3744H61.111ZM60.5621 70.451C61.0254 70.451 61.4876 70.451 61.951 70.451C65.4454 70.4477 68.881 69.9132 72.3076 69.301C76.9098 68.4788 81.221 66.8344 85.2643 64.5288C88.2976 62.7999 90.5421 60.2688 92.1398 57.1599C94.1565 53.2355 95.2965 49.1321 94.5843 44.6877C93.5454 38.2066 91.0921 32.4077 86.3265 27.721C84.4232 25.8488 82.5443 23.9621 80.2998 22.4888C76.3943 19.9255 72.1332 18.3166 67.5387 17.451C62.7998 16.5577 58.0732 16.5121 53.3576 17.3499C45.2643 18.7877 38.3276 22.3888 32.8687 28.651C30.2443 31.6621 28.2554 35.0455 26.9521 38.8077C25.4754 43.071 25.1987 47.4499 25.9665 51.8944C26.7243 56.2799 28.8365 59.9255 32.1754 62.8155C35.6376 65.811 39.7954 67.4933 44.1698 68.5999C49.5398 69.9588 55.0187 70.5388 60.5621 70.451ZM24.4421 41.8277C23.6176 42.0821 22.9054 42.541 22.4398 43.3244C21.8543 44.3099 21.5065 45.381 21.5165 46.5321C21.5254 47.5455 21.571 48.5621 21.6698 49.5699C21.8765 51.6966 23.001 53.1733 25.1354 54.1144C24.4143 52.0655 23.8954 50.0877 23.9498 48.051C24.0054 45.9932 24.2665 43.9421 24.4421 41.8266V41.8277ZM94.9921 53.8066C96.171 53.2955 97.2798 52.6066 97.6943 51.2255C97.9954 50.221 98.3143 49.2021 98.4332 48.1677C98.6043 46.6755 98.4876 45.1733 97.9287 43.7488C97.5365 42.7488 96.5232 41.9955 95.5754 42.011C96.6332 46.0155 96.1765 49.9277 94.9921 53.8066Z" fill="black"/>
<g clip-path="url(#clip0_960_13121)">
<path d="M61.2666 42.632C61.3335 42.1561 61.3618 41.5098 61.5258 40.9002C61.7771 39.9666 62.1049 39.0492 62.7781 38.3119C62.9855 38.0848 63.2151 37.8776 63.4296 37.6565C63.5225 37.5613 63.5984 37.4505 63.6894 37.3535C63.7497 37.2897 63.7599 37.118 63.9269 37.2403C63.9522 37.259 64.0793 37.174 64.1324 37.1132C64.4096 36.7933 64.7761 36.6644 65.1744 36.5753C65.3444 36.5373 65.5125 36.4536 65.6602 36.3578C66.2466 35.9802 66.9258 35.9404 67.581 35.8211C68.0499 35.7356 68.529 35.6561 69.0027 35.6585C69.4668 35.6609 69.9435 35.7236 70.3919 35.8452C70.9168 35.9874 71.4315 36.1916 71.9245 36.4229C72.8358 36.8506 73.6615 37.4102 74.2117 38.2775C74.5269 38.7751 74.85 39.2889 75.0374 39.8407C75.264 40.5087 75.3821 41.2188 75.4918 41.9194C75.7004 43.2506 75.3598 44.5161 74.9591 45.7696C74.7728 46.3521 74.4618 46.8629 74.1129 47.3593C73.5861 48.1092 72.9407 48.7248 72.1819 49.2404C71.9281 49.4127 71.7733 49.7259 71.5478 49.9482C71.4171 50.0771 71.3297 50.3271 71.0368 50.1946C70.9596 50.1596 70.8132 50.2945 70.6932 50.3337C70.2822 50.4674 69.8688 50.5927 69.4565 50.7222C69.3806 50.7457 69.2811 50.7505 69.2359 50.8023C69.0642 50.9981 68.8822 50.9409 68.6905 50.8565C68.6543 50.8403 68.614 50.8114 68.579 50.8162C68.0679 50.8806 67.5942 50.7126 67.1211 50.568C66.7975 50.4686 66.4895 50.3168 66.1743 50.1885C66.061 50.1421 65.9519 50.0765 65.8344 50.053C65.6066 50.0066 65.5017 49.8663 65.3793 49.6741C65.266 49.4958 65.037 49.3609 64.8309 49.2778C64.0438 48.9591 63.4284 48.4074 62.8601 47.8122C62.5919 47.5315 62.4491 47.1334 62.2405 46.7943C61.671 45.869 61.5444 44.8107 61.3413 43.7777C61.2787 43.4572 61.2955 43.1211 61.2666 42.6314V42.632ZM74.3817 42.291C74.3208 41.8682 74.3166 41.552 74.2256 41.2622C74.0351 40.6569 73.8284 40.0533 73.5741 39.4726C73.3041 38.857 72.9099 38.2992 72.3886 37.8776C71.6919 37.315 70.8313 37.0554 69.9887 36.8012C69.1431 36.5464 68.2704 36.5518 67.4002 36.7072C67.282 36.7283 67.1482 36.7036 67.0446 36.7506C66.2599 37.109 65.4764 37.4704 64.7025 37.8505C64.356 38.0209 64.0914 38.2751 63.9076 38.6426C63.7268 39.0052 63.4303 39.3082 63.2181 39.6581C63.0554 39.9262 62.9288 40.2201 62.8149 40.5135C62.695 40.8225 62.5648 41.1387 62.5196 41.4628C62.4533 41.9357 62.4533 42.4181 62.4352 42.897C62.4201 43.3 62.3563 43.715 62.4268 44.1041C62.6124 45.1342 62.8595 46.1546 63.6225 46.946C64.1125 47.455 64.6302 47.9315 65.2835 48.2309C65.706 48.4248 66.146 48.5887 66.5467 48.8206C67.0355 49.1037 67.5792 49.1073 68.1035 49.1802C68.4446 49.2278 68.8068 49.1422 69.1576 49.0977C69.4571 49.0597 69.7772 49.0507 70.0466 48.9332C70.7842 48.611 71.5346 48.3206 72.1777 47.793C72.5959 47.4496 72.928 47.0665 73.1938 46.6117C73.424 46.2178 73.6741 45.8287 73.8453 45.4094C74.0424 44.927 74.219 44.4222 74.2997 43.9108C74.3895 43.3434 74.3624 42.7573 74.3811 42.291H74.3817Z" fill="black"/>
<path d="M67.2221 57.0493C66.4103 57.0939 65.5997 57.153 64.7872 57.1783C64.2225 57.1957 63.6566 57.1572 63.0913 57.1632C62.6766 57.1674 62.2614 57.2301 61.8479 57.2204C61.226 57.2054 60.6058 57.1307 59.9844 57.1168C59.4673 57.1054 58.949 57.1578 58.4313 57.1578C57.4531 57.1578 56.4744 57.1373 55.4962 57.1313C54.9086 57.1277 54.318 57.1728 53.734 57.1277C53.0601 57.0759 52.3857 56.9813 51.7246 56.8433C51.3473 56.7644 51.102 56.3982 51.0478 56.0645C50.9929 55.7302 51.2189 55.3772 51.5329 55.1917C51.7885 55.0405 52.0892 54.9417 52.3821 54.8833C53.1156 54.7375 53.8539 54.6056 54.5952 54.5104C55.1931 54.4339 55.7994 54.4189 56.402 54.3761C57.0499 54.3303 57.6966 54.2683 58.3451 54.2424C59.4131 54.1996 60.4828 54.149 61.5508 54.158C62.802 54.1683 64.0526 54.2345 65.3025 54.2833C65.71 54.2996 66.1216 54.3074 66.5224 54.3749C67.1233 54.4755 67.7205 54.6068 68.3099 54.7622C68.598 54.8381 68.8686 54.9881 69.1392 55.1194C69.8793 55.4796 69.7118 56.3518 69.1392 56.6307C68.8867 56.7536 68.6047 56.8241 68.3292 56.8915C67.967 56.9801 67.5982 57.0415 67.2323 57.115C67.2287 57.0933 67.2251 57.071 67.2215 57.0493H67.2221Z" fill="black"/>
<path d="M44.3335 43.8283C44.4179 42.223 44.5396 40.8647 45.1761 39.6232C45.4063 39.1745 45.7233 38.7685 46.0138 38.3523C46.3953 37.8047 46.8136 37.2728 47.406 36.953C47.9195 36.6753 48.3956 36.3458 48.9664 36.1392C49.8698 35.8127 50.7865 35.6489 51.723 35.6067C52.3703 35.5778 53.0435 35.6146 53.6691 35.7676C54.2784 35.9169 54.8588 36.2187 55.4205 36.5139C56.0769 36.8584 56.6343 37.3578 57.0737 37.9481C57.4359 38.4348 57.7077 38.9908 57.9988 39.5275C58.1248 39.76 58.2285 40.0136 58.2893 40.2696C58.4328 40.8767 58.5798 41.4869 58.6618 42.1043C58.8679 43.6656 58.4991 45.133 57.7891 46.5094C57.5191 47.0328 57.1436 47.5129 56.7555 47.9604C56.3872 48.3851 55.9624 48.7706 55.5176 49.117C55.2421 49.3314 54.892 49.4585 54.5623 49.5916C54.0759 49.788 53.5799 49.9609 53.0839 50.1337C52.3125 50.403 51.5187 50.3518 50.7238 50.291C49.5413 50.2006 48.48 49.7639 47.4663 49.1796C46.4544 48.5965 45.6504 47.805 45.1477 46.7539C44.8813 46.1967 44.6999 45.5926 44.5354 44.9944C44.4106 44.5421 44.3733 44.065 44.3341 43.8283H44.3335ZM51.4874 49.3218C52.166 49.2947 52.7741 49.188 53.3232 48.9345C53.7348 48.7441 54.1446 48.5483 54.5539 48.3526C54.7672 48.2502 54.9788 48.143 55.1891 48.0345C55.2759 47.99 55.3729 47.9502 55.4398 47.8833C55.846 47.4761 56.2155 47.0455 56.515 46.5449C57.0604 45.6341 57.4606 44.6872 57.4956 43.6114C57.498 43.5428 57.5131 43.4729 57.5311 43.406C57.6625 42.9145 57.68 42.4206 57.5637 41.9236C57.507 41.6821 57.4769 41.4309 57.3907 41.2002C57.1412 40.5298 56.9502 39.819 56.5861 39.2142C56.1781 38.5366 55.5893 37.9734 54.9143 37.5282C54.1434 37.0199 53.3003 36.7259 52.3782 36.6446C51.7604 36.5904 51.1553 36.6898 50.5442 36.7223C49.6836 36.7675 49.0019 37.2331 48.263 37.5535C47.7911 37.7583 47.4199 38.1408 47.1366 38.5992C46.8509 39.0618 46.4815 39.4751 46.2169 39.9479C45.9927 40.3491 45.848 40.7984 45.6998 41.2369C45.5618 41.6471 45.393 42.067 45.3671 42.491C45.3207 43.2488 45.3309 44.0078 45.4858 44.7692C45.6956 45.8004 46.2145 46.6467 46.8943 47.4051C47.5723 48.1616 48.4691 48.6158 49.4117 48.926C50.0753 49.1441 50.7937 49.1965 51.488 49.323L51.4874 49.3218Z" fill="black"/>
<path d="M67.7909 30.3408C67.9868 30.3408 68.1833 30.3354 68.3792 30.342C68.9638 30.3613 69.5207 30.4944 70.0215 30.8028C70.5555 31.1317 71.0961 31.4564 71.5999 31.8287C71.9121 32.0594 72.1586 32.378 72.4401 32.6515C72.7933 32.9942 72.8306 33.2177 72.563 33.6454C72.3732 33.9489 72.0284 34.0483 71.7235 34.1369C71.3745 34.2375 71.131 34.0146 70.9394 33.7068C70.7851 33.4592 70.5748 33.2358 70.3518 33.0442C69.9883 32.7328 69.602 32.4461 69.2121 32.1672C68.7601 31.8443 68.2448 31.7762 67.706 31.8582C67.4209 31.9015 67.1388 31.9925 66.8538 32.0021C66.6754 32.0082 66.4699 31.9347 66.3234 31.8305C66.2631 31.7877 66.3114 31.5672 66.3385 31.4341C66.3752 31.2546 66.3975 31.0486 66.503 30.9137C66.6139 30.7709 66.8043 30.6721 66.9791 30.6004C67.2383 30.4938 67.5137 30.4282 67.7909 30.342V30.3408Z" fill="black"/>
<path d="M48.6528 33.1184C48.6788 32.7226 48.6239 32.3745 48.7426 32.1022C48.8457 31.8655 49.1356 31.701 49.3604 31.5269C49.9486 31.0728 50.6658 30.8909 51.3402 30.6198C51.474 30.5656 51.6301 30.568 51.7729 30.5349C51.9489 30.4939 52.1213 30.4319 52.2985 30.3981C52.6276 30.3355 52.9572 30.2698 53.2899 30.2385C53.5436 30.2144 53.8058 30.2156 54.0565 30.2542C54.2144 30.2783 54.3561 30.3963 54.5085 30.4644C54.6779 30.5397 54.658 30.6824 54.708 30.83C54.8557 31.2691 54.4935 31.4775 54.3603 31.7769C54.2765 31.9643 54.0692 32.0817 53.81 31.9649C53.5539 31.8492 53.2875 31.8474 53.0428 32.0233C53.0217 32.0389 52.9825 32.0528 52.9627 32.0438C52.6053 31.8781 52.3021 32.0962 51.973 32.1642C51.4891 32.2642 51.1299 32.5979 50.6917 32.7756C50.6562 32.7901 50.6043 32.7564 50.5615 32.7612C50.4585 32.7726 50.3277 32.7594 50.259 32.8166C50.001 33.0304 49.7678 33.2738 49.5153 33.4948C49.4653 33.5388 49.3128 33.5593 49.3074 33.5478C49.1814 33.2581 48.6607 33.681 48.6577 33.1876C48.6577 33.1376 48.6504 33.0876 48.6528 33.119V33.1184Z" fill="black"/>
<path d="M70.2143 50.6602C70.3873 50.6264 70.5609 50.5921 70.8237 50.5403C70.7049 50.6433 70.6326 50.7499 70.538 50.7764C70.4337 50.8059 70.309 50.762 70.1938 50.7499C70.2005 50.7198 70.2077 50.6897 70.2143 50.6596V50.6602Z" fill="black"/>
<path d="M74.3817 42.291C74.3624 42.7572 74.3901 43.3433 74.3003 43.9107C74.219 44.4221 74.0424 44.9269 73.8459 45.4094C73.6748 45.8292 73.4246 46.2178 73.1944 46.6117C72.9286 47.0659 72.5971 47.4496 72.1783 47.7929C71.5352 48.3206 70.7849 48.6109 70.0472 48.9332C69.7778 49.0506 69.4577 49.0597 69.1582 49.0976C68.8074 49.1416 68.4452 49.2277 68.1041 49.1801C67.5804 49.1067 67.0368 49.1036 66.5474 48.8205C66.1472 48.5886 65.7066 48.4248 65.2841 48.2308C64.6308 47.9315 64.1131 47.455 63.6231 46.946C62.8601 46.1539 62.613 45.1335 62.4274 44.1041C62.3569 43.715 62.4214 43.2999 62.4358 42.897C62.4533 42.4181 62.4539 41.9356 62.5202 41.4628C62.5654 41.1387 62.6956 40.8225 62.8155 40.5135C62.9294 40.2201 63.0554 39.9262 63.2187 39.6581C63.4309 39.3087 63.7274 39.0052 63.9082 38.6425C64.092 38.2751 64.3566 38.0209 64.7031 37.8504C65.477 37.4703 66.2605 37.1089 67.0452 36.7505C67.1489 36.7035 67.2833 36.7276 67.4008 36.7072C68.2711 36.5518 69.1437 36.5463 69.9893 36.8011C70.8319 37.0553 71.6925 37.3149 72.3892 37.8775C72.9105 38.2986 73.3047 38.857 73.5747 39.4726C73.829 40.0533 74.0358 40.6568 74.2262 41.2622C74.3172 41.5519 74.3214 41.8681 74.3823 42.291H74.3817ZM71.7932 46.9412C71.6347 46.9026 71.528 46.6189 71.3116 46.8478C71.0705 47.1038 70.7825 47.2526 70.419 47.2827C69.9815 47.3189 69.5475 47.3936 69.113 47.4616C69.0136 47.4773 68.9208 47.5345 68.7556 47.6008C69.6078 48.0441 70.3389 48.0158 71.0657 47.552C71.0115 47.4544 70.9735 47.3863 70.906 47.2653C71.3273 47.3899 71.5804 47.2129 71.7871 46.9328C71.8335 46.8725 71.8703 46.7713 71.9282 46.7575C72.347 46.6557 72.0246 46.4238 72.0915 46.2298C71.675 46.3888 71.7028 46.6539 71.7926 46.9406L71.7932 46.9412ZM70.7101 42.4765C70.6746 42.032 70.6203 41.5652 70.2834 41.211C69.955 40.8658 69.5927 40.5526 69.1064 40.44C68.84 40.3785 68.5736 40.2743 68.306 40.2701C67.9727 40.2647 67.6352 40.3261 67.3056 40.3906C67.0554 40.44 66.7571 40.4737 66.5811 40.6291C65.8446 41.2802 65.4318 42.1025 65.486 43.1108C65.4957 43.2855 65.6331 43.471 65.5981 43.6264C65.5264 43.9439 65.7518 44.1432 65.879 44.333C66.0508 44.5902 66.3539 44.7721 66.6263 44.9456C67.0289 45.2022 67.5002 45.3486 67.9607 45.3419C68.972 45.3275 69.7193 44.7805 70.2852 43.977C70.5944 43.5379 70.6734 43.0211 70.7101 42.4765ZM66.2165 47.3942L66.2316 47.3562C65.4185 46.7484 64.6049 46.1407 63.7642 45.5124C63.7744 45.6299 63.7431 45.7937 63.8069 45.8997C63.957 46.1497 64.133 46.39 64.3325 46.6027C64.9569 47.2689 65.6693 47.8194 66.5227 48.1676C66.6468 48.2182 66.7836 48.2369 66.915 48.2706L66.9355 48.2043C66.513 47.9188 66.0905 47.6327 65.668 47.3472C65.6873 47.3134 65.7066 47.2797 65.7265 47.246C65.8898 47.2948 66.0532 47.3442 66.2171 47.393L66.2165 47.3942ZM70.0098 37.8251C70.2551 38.1173 70.4196 38.395 70.6583 38.5751C70.8952 38.7534 71.2061 38.8335 71.4852 38.9564L71.5274 38.8678C71.1272 38.4185 70.8005 37.8661 70.0098 37.8251Z" fill="white"/>
<path d="M51.4875 49.3218C50.7932 49.1953 50.0748 49.1429 49.4112 48.9248C48.4692 48.6146 47.5718 48.1604 46.8938 47.4039C46.2145 46.6455 45.695 45.7992 45.4853 44.768C45.3304 44.0066 45.3202 43.2476 45.3666 42.4898C45.3925 42.0664 45.5612 41.6459 45.6992 41.2357C45.8469 40.7972 45.9915 40.3473 46.2163 39.9467C46.4809 39.4738 46.8504 39.0606 47.1361 38.598C47.4193 38.1396 47.7906 37.7571 48.2625 37.5523C49.0014 37.2319 49.683 36.7663 50.5436 36.7211C51.1548 36.6892 51.7605 36.5892 52.3776 36.6434C53.3003 36.7247 54.1435 37.0192 54.9137 37.527C55.5887 37.9722 56.1776 38.5354 56.5856 39.213C56.9496 39.8178 57.1407 40.5286 57.3902 41.199C57.4758 41.4297 57.5065 41.6809 57.5631 41.9224C57.6795 42.4194 57.662 42.9133 57.5306 43.4048C57.5125 43.4717 57.4975 43.541 57.495 43.6102C57.4595 44.686 57.0599 45.6329 56.5145 46.5437C56.2143 47.0443 55.8455 47.4749 55.4393 47.8821C55.3724 47.949 55.2753 47.9888 55.1886 48.0333C54.9782 48.1418 54.7667 48.249 54.5533 48.3514C54.1441 48.5477 53.7343 48.7429 53.3226 48.9332C52.7736 49.1874 52.1655 49.2941 51.4869 49.3206L51.4875 49.3218ZM51.0077 40.2768C51.0047 40.2925 51.0017 40.3081 50.9987 40.3238C50.9589 40.3238 50.9179 40.319 50.8787 40.3244C50.044 40.4406 49.2105 41.1731 48.9899 41.9784C48.9664 42.0646 48.9242 42.1453 48.8893 42.2278C48.6223 42.8579 48.5494 43.4849 48.958 44.0855C49.0659 44.2439 49.234 44.3608 49.3521 44.5138C49.7505 45.0306 50.2646 45.3143 50.9209 45.3251C51.1873 45.33 51.47 45.2697 51.7165 45.3396C52.1522 45.4637 52.5084 45.2697 52.8031 45.0601C53.483 44.5782 53.7584 43.8578 53.8199 43.0332C53.8651 42.4212 53.68 41.8556 53.3793 41.3779C53.1581 41.0261 52.7362 40.7484 52.3433 40.5719C51.9359 40.3888 51.4561 40.3677 51.0077 40.2756V40.2768ZM46.0964 43.6819C46.0488 43.6873 46.0012 43.6934 45.953 43.6988C45.9825 44.1325 46.012 44.5668 46.0428 45.0005C46.044 45.0197 46.0506 45.042 46.0627 45.0565C46.3327 45.3745 46.3592 45.8654 46.7859 46.0751C46.8196 46.0919 46.8251 46.163 46.8468 46.2076C47.0981 46.7292 47.4862 47.1503 47.8997 47.5382C48.5614 48.1592 49.4504 48.3737 50.2531 48.758C50.0434 48.5104 49.8138 48.2887 49.5715 48.0821C49.146 47.7201 48.6795 47.3996 48.2938 46.9997C48.0027 46.6979 47.8026 46.3052 47.5778 45.9432C47.1993 45.3336 46.8329 44.7162 46.4526 44.0879C46.2115 44.3903 46.7413 44.6782 46.5147 45.024C46.1519 44.6384 46.1476 44.1517 46.0952 43.6825L46.0964 43.6819ZM52.7398 47.8346C52.6151 47.8761 52.5235 47.9062 52.4319 47.9382C52.2004 48.0201 51.9714 48.1616 51.737 48.1707C51.4386 48.1821 51.1367 48.0767 50.8341 48.0436C50.7594 48.0357 50.6756 48.114 50.5961 48.1526C50.6449 48.2128 50.6835 48.3104 50.7449 48.3279C51.2271 48.467 51.7032 48.6303 52.2209 48.455C52.7338 48.2821 52.7398 48.299 52.7398 47.8339V47.8346ZM47.1385 40.2274C47.3717 39.878 47.6025 39.5624 47.7954 39.2251C47.8581 39.1154 47.8219 38.9492 47.8303 38.8088C47.708 38.8588 47.5465 38.8763 47.4717 38.9661C47.3036 39.1685 47.1481 39.3943 47.0456 39.6347C46.9667 39.8196 46.8257 40.069 47.1379 40.2268L47.1385 40.2274ZM55.0361 39.4323L55.0939 39.36C54.8197 38.9167 54.4563 38.551 54.0236 38.2571C53.9687 38.2197 53.8319 38.3029 53.7337 38.3306C53.7614 38.43 53.7572 38.5727 53.8223 38.6215C54.1296 38.851 54.4557 39.0558 54.7757 39.2684C54.8613 39.3251 54.9493 39.3781 55.0361 39.4329V39.4323Z" fill="white"/>
<path d="M70.7097 42.4765C70.6729 43.0211 70.594 43.5379 70.2848 43.977C69.7189 44.78 68.9716 45.3269 67.9603 45.3419C67.4992 45.3486 67.0279 45.2022 66.6259 44.9456C66.3535 44.7721 66.0503 44.5896 65.8786 44.333C65.752 44.1433 65.5266 43.9439 65.5977 43.6264C65.6327 43.471 65.4947 43.2855 65.4856 43.1108C65.432 42.1025 65.8442 41.2809 66.5807 40.6291C66.7561 40.4737 67.055 40.44 67.3051 40.3906C67.6342 40.3255 67.9723 40.2647 68.3056 40.2701C68.5732 40.2743 68.8396 40.3785 69.106 40.44C69.5923 40.5526 69.9551 40.8658 70.283 41.211C70.6199 41.5652 70.6742 42.032 70.7097 42.4765Z" fill="black"/>
<path d="M66.2161 47.3942C66.0528 47.3454 65.8895 47.296 65.7255 47.2473C65.7062 47.281 65.687 47.3147 65.6671 47.3484C66.0896 47.634 66.512 47.9201 66.9345 48.2056L66.914 48.2719C66.7833 48.2381 66.6458 48.2195 66.5217 48.1689C65.6683 47.8207 64.9559 47.2701 64.3315 46.6039C64.132 46.3913 63.956 46.151 63.806 45.901C63.7421 45.7944 63.7734 45.6311 63.7632 45.5137C64.6039 46.1419 65.4176 46.7497 66.2306 47.3575L66.2155 47.3954L66.2161 47.3942Z" fill="black"/>
<path d="M71.7898 46.937C71.5807 47.2135 71.3275 47.3906 70.9062 47.2659C70.9737 47.387 71.0117 47.4551 71.066 47.5527C70.3391 48.0159 69.6081 48.0448 68.7559 47.6014C68.921 47.5352 69.0138 47.478 69.1133 47.4623C69.5472 47.3942 69.9817 47.3195 70.4193 47.2834C70.7821 47.2533 71.0708 47.1045 71.3119 46.8485C71.5276 46.619 71.6349 46.9033 71.7934 46.9419L71.7904 46.9376L71.7898 46.937Z" fill="black"/>
<path d="M70.0098 37.8252C70.8005 37.8662 71.1271 38.4185 71.5273 38.8679L71.4851 38.9564C71.2067 38.8335 70.8951 38.7534 70.6583 38.5751C70.4196 38.395 70.2545 38.1173 70.0098 37.8252Z" fill="black"/>
<path d="M71.7932 46.9412C71.7028 46.6545 71.6756 46.3895 72.0921 46.2305C72.0252 46.4244 72.3476 46.6563 71.9288 46.7581C71.8709 46.772 71.8341 46.8726 71.7889 46.9352C71.7901 46.937 71.7932 46.9412 71.7932 46.9412Z" fill="black"/>
<path d="M51.0074 40.2767C51.4558 40.3689 51.9355 40.39 52.3429 40.5731C52.7359 40.7496 53.1578 41.0273 53.3789 41.379C53.6797 41.8567 53.8647 42.4223 53.8195 43.0343C53.7586 43.8589 53.4826 44.5794 52.8028 45.0612C52.5075 45.2703 52.1519 45.4642 51.7161 45.3407C51.4696 45.2703 51.187 45.3305 50.9206 45.3263C50.2643 45.3154 49.7502 45.0317 49.3518 44.5149C49.2337 44.3619 49.0655 44.2457 48.9576 44.0866C48.549 43.4861 48.6219 42.859 48.8889 42.229C48.9239 42.1464 48.9661 42.0657 48.9896 41.9796C49.2102 41.1742 50.0437 40.4418 50.8784 40.3255C50.9176 40.3201 50.9586 40.3249 50.9983 40.3249C51.0013 40.3093 51.0044 40.2936 51.0074 40.2779V40.2767Z" fill="black"/>
<path d="M46.0963 43.6819C46.1482 44.1517 46.153 44.6378 46.5158 45.0233C46.7418 44.6782 46.2121 44.3902 46.4537 44.0873C46.834 44.7155 47.1999 45.3329 47.5789 45.9425C47.8037 46.3045 48.0038 46.6973 48.2949 46.9991C48.6801 47.399 49.1471 47.7195 49.5726 48.0815C49.8155 48.2881 50.0451 48.5098 50.2543 48.7573C49.4509 48.373 48.5625 48.1586 47.9008 47.5376C47.4873 47.1496 47.0998 46.7286 46.8479 46.207C46.8262 46.1624 46.8208 46.0913 46.787 46.0744C46.3603 45.8648 46.3338 45.3739 46.0638 45.0559C46.0517 45.042 46.0457 45.0191 46.0439 44.9998C46.0132 44.5661 45.9836 44.1324 45.9541 43.6981C46.0017 43.6927 46.0493 43.6867 46.0975 43.6813L46.0963 43.6819Z" fill="black"/>
<path d="M52.7395 47.8345C52.7395 48.2995 52.734 48.282 52.2205 48.4555C51.7022 48.6302 51.2261 48.4675 50.7446 48.3284C50.6831 48.3109 50.6451 48.2134 50.5957 48.1531C50.6753 48.1146 50.7596 48.0363 50.8338 48.0441C51.1363 48.0766 51.4383 48.182 51.7366 48.1712C51.9704 48.1622 52.1995 48.0206 52.4315 47.9387C52.5225 47.9068 52.6147 47.8766 52.7395 47.8351V47.8345Z" fill="black"/>
<path d="M47.1384 40.2274C46.8256 40.069 46.9672 39.8202 47.0462 39.6353C47.1486 39.3943 47.3041 39.1691 47.4723 38.9667C47.547 38.8769 47.7085 38.8594 47.8309 38.8094C47.8219 38.9498 47.8586 39.116 47.7959 39.2257C47.6031 39.563 47.3722 39.8786 47.139 40.228L47.1384 40.2274Z" fill="black"/>
<path d="M55.0358 39.4322C54.949 39.3774 54.861 39.325 54.7754 39.2678C54.4554 39.0552 54.1294 38.851 53.822 38.6209C53.7563 38.5721 53.7611 38.4293 53.7334 38.3299C53.8322 38.3022 53.969 38.2191 54.0233 38.2564C54.4554 38.5504 54.8194 38.916 55.0937 39.3593L55.0358 39.4316V39.4322Z" fill="black"/>
</g>
<g clip-path="url(#clip1_960_13121)">
<path d="M29.8518 27.3122C29.9964 27.4209 30.206 27.4643 30.3904 27.4933C31.1531 27.6055 31.9158 27.696 32.6784 27.7974C32.2519 27.8481 31.8218 27.8553 31.3953 27.8952C31.0844 27.9241 30.7735 27.9676 30.4771 28.0581C30.3759 28.087 30.2603 28.2681 30.2566 28.3839C30.2566 28.4672 30.4157 28.565 30.5133 28.6446C30.5494 28.6736 30.6073 28.67 30.6615 28.6808C30.4735 29.0537 30.4699 29.1044 30.6217 29.2854C30.6868 29.2094 30.7446 29.0827 30.8314 29.0537C31.341 28.8908 31.8579 28.7496 32.3748 28.6012C32.317 28.9125 32.1905 29.0827 31.9338 29.166C31.3844 29.3434 30.8422 29.5389 30.3036 29.7489C30 29.8684 29.8627 30.0965 29.8916 30.368C29.9241 30.654 30.1012 30.8061 30.3687 30.8676C30.3976 30.8749 30.4265 30.893 30.4627 30.9111C30.3434 31.1356 30.2313 31.3455 30.1157 31.5628H30.235L32.7724 30.502C33.0074 30.1616 33.2459 29.8213 33.4953 29.4882C33.705 29.2094 34.0339 29.0211 34.305 28.7931C34.3809 28.7279 34.4568 28.6663 34.5942 28.5505H34.2291C34.2219 28.5288 34.211 28.507 34.2038 28.4817C34.2978 28.4346 34.3918 28.3731 34.493 28.3477C34.7966 28.2717 35.1147 28.2427 35.4039 28.1341C35.74 28.0038 36.069 27.83 36.369 27.6309C36.6545 27.4426 36.6075 27.1457 36.2894 27.019C36.0798 26.9357 35.8557 26.8886 35.646 26.7873C36.1629 26.733 36.6834 26.6895 37.2003 26.6135C37.3521 26.5918 37.6052 26.494 37.616 26.4071C37.6413 26.1718 37.3883 26.2007 37.2329 26.1573C36.9437 26.0776 36.6509 26.0125 36.3581 25.9401C36.3581 25.9075 36.3581 25.8749 36.3581 25.8423H38.451C38.4582 25.8097 38.4655 25.7735 38.4727 25.7409C38.3028 25.4477 37.9558 25.3825 37.7028 25.2087C37.851 25.1182 37.9919 25.0313 38.1546 24.9335C38.2341 25.0784 38.3173 25.2377 38.4076 25.397C38.4727 25.5092 38.5377 25.6215 38.6137 25.7228C38.8125 25.9907 39.0474 26.0849 39.2751 25.9907C39.5101 25.893 39.6257 25.6432 39.5571 25.3101C39.5028 25.0494 39.4161 24.796 39.3402 24.5389C39.3113 24.4448 39.2787 24.3506 39.2462 24.2565C39.6438 24.09 39.7125 23.9705 39.6583 23.5541C39.6294 23.3369 39.586 23.1196 39.5535 22.8988C39.5426 22.8336 39.5535 22.7685 39.5535 22.7033C39.5824 22.696 39.6113 22.6888 39.6438 22.6816C39.7089 22.8553 39.7848 23.0219 39.839 23.1993C39.8896 23.3586 39.9727 23.4998 40.1426 23.4238C40.2294 23.384 40.2944 23.2102 40.2944 23.0979C40.2944 22.8698 40.2258 22.6417 40.2149 22.4136C40.2077 22.2905 40.2655 22.1638 40.2908 22.0407C40.3306 22.0407 40.3704 22.0407 40.4137 22.0407C40.4643 22.1928 40.5041 22.3485 40.5728 22.4933C40.6053 22.5585 40.6957 22.5983 40.7571 22.649C40.786 22.5729 40.8475 22.4933 40.8403 22.4209C40.8222 22.229 40.7788 22.0443 40.786 21.8416C40.8366 21.9792 40.8728 22.1276 40.9415 22.2543C40.9848 22.3267 41.0824 22.4064 41.1583 22.41C41.2126 22.41 41.3065 22.3014 41.3246 22.229C41.3752 22.0045 41.3933 21.7764 41.4331 21.4723C41.4692 21.6026 41.4764 21.6787 41.5126 21.7402C41.5596 21.8163 41.6319 21.8778 41.6933 21.9466C41.7548 21.8778 41.8487 21.8163 41.874 21.7366C41.9355 21.5375 41.968 21.3239 42.0222 21.0704C42.0801 21.1718 42.1054 21.2514 42.156 21.3021C42.2174 21.3601 42.3114 21.4289 42.3729 21.4144C42.4343 21.3999 42.4994 21.2913 42.5138 21.2152C42.5391 21.0921 42.5247 20.9582 42.5355 20.8315C42.5536 20.5527 42.5608 20.5454 42.8753 20.426C42.9114 20.712 42.9331 20.998 42.991 21.2732C43.0126 21.3745 43.1283 21.4542 43.2042 21.5411C43.2801 21.4651 43.3849 21.3999 43.4247 21.3058C43.4862 21.1646 43.5042 21.0052 43.5404 20.8532C43.5693 20.7228 43.5765 20.5889 43.7609 20.5527C43.8223 20.5418 43.8657 20.4151 43.9055 20.3354C43.9958 20.1436 44.0753 19.9517 44.1368 19.8068C44.2416 19.9046 44.3573 20.0929 44.4549 20.082C44.5814 20.0711 44.6971 19.9082 44.8055 19.7996C44.8561 19.7489 44.8922 19.6729 44.9067 19.6041C44.9862 19.1624 45.3441 19.0501 45.6911 18.9307C45.8899 18.8619 46.0525 19.0103 46.0128 19.2203C45.9911 19.3398 45.9369 19.4557 45.9441 19.5715C45.9549 19.7344 45.9586 19.9517 46.0562 20.0349C46.1393 20.1074 46.3562 20.0277 46.5622 20.0132C46.7899 20.292 46.8731 20.2739 47.2779 19.7851C47.3646 19.8539 47.4478 19.9625 47.5418 19.9734C47.6466 19.9843 47.7912 19.9372 47.8671 19.8648C48.1562 19.586 48.4526 19.3036 48.6948 18.985C49.0563 18.5107 49.3744 18.0074 49.7286 17.4933C49.8479 17.5657 49.9527 17.6309 50.0865 17.7142C49.8298 18.1052 49.584 18.4781 49.331 18.8474C49.1864 19.061 49.0165 19.2565 48.8828 19.4774C48.8322 19.5643 48.8575 19.6982 48.8466 19.8105C48.9623 19.796 49.1177 19.8213 49.1828 19.7562C49.4467 19.5027 49.6925 19.2276 49.9238 18.9415C50.119 18.699 50.2816 18.4274 50.4732 18.1812C50.5491 18.0835 50.6612 18.011 50.7443 17.9205C50.813 17.8445 50.8997 17.7576 50.925 17.6635C51.0046 17.3376 51.1817 17.1385 51.5215 17.0661C52.06 16.9538 52.595 16.8199 53.13 16.6823C53.3107 16.6352 53.3974 16.6642 53.4806 16.8525C53.6649 17.2725 53.889 17.6743 54.0987 18.0835C54.1204 18.1233 54.1493 18.1595 54.1782 18.1957C54.424 18.5288 54.6662 18.6483 54.8831 18.5505C55.0855 18.46 55.1216 18.2862 55.071 17.8192C55.1325 17.9423 55.1939 18.069 55.2554 18.1921C55.3891 18.4491 55.5807 18.5541 55.7795 18.4781C55.9783 18.4021 56.065 18.1885 55.9855 17.9169C55.8482 17.4499 55.7036 16.9828 55.5626 16.5158C55.5373 16.4361 55.5228 16.3565 55.5012 16.2768C55.5192 16.2515 55.5373 16.2297 55.559 16.2044C55.6421 16.2623 55.7614 16.2985 55.8012 16.3782C55.9638 16.6968 56.0976 17.0299 56.2566 17.3521C56.3651 17.5766 56.4807 17.7974 56.6181 18.0038C56.6759 18.0871 56.7952 18.1631 56.8928 18.174C56.9362 18.1776 57.0012 18.0183 57.0699 17.9604C57.2109 17.8336 57.3518 17.7069 57.4964 17.573C57.7386 17.9423 58.1977 17.8155 58.5772 17.9205C58.6603 17.9459 58.8338 17.8771 58.87 17.8047C59.029 17.4861 59.3399 17.4571 59.564 17.3775C59.7194 17.4354 59.8712 17.544 59.9471 17.5042C60.0375 17.4571 60.0737 17.2869 60.1098 17.1638C60.1351 17.0769 60.1315 16.9828 60.1279 16.8887C60.1243 16.6823 60.1098 16.4868 60.3845 16.4252C60.4496 16.4108 60.4929 16.3058 60.5472 16.2478C60.793 15.9908 60.9773 15.9872 61.2267 16.2515C61.2701 16.2985 61.299 16.3818 61.346 16.3963C61.6785 16.4868 61.6496 16.7475 61.6424 17.0009C61.6424 17.0733 61.6424 17.153 61.6641 17.2181C61.7038 17.3231 61.7472 17.4752 61.8231 17.5006C61.9135 17.5295 62.0364 17.439 62.2063 17.3811C62.2677 17.3956 62.4087 17.4137 62.5424 17.4571C62.6075 17.4788 62.6726 17.5368 62.7159 17.5983C62.9292 17.9133 63.1569 17.9929 63.5184 17.8554C63.569 17.8373 63.6268 17.8011 63.6738 17.8119C63.9485 17.8698 64.1329 17.7359 64.2594 17.5549C64.4076 17.6924 64.5522 17.8228 64.6968 17.9567C64.7004 17.9495 64.7076 17.9423 64.7112 17.9314C64.769 18.0147 64.8341 18.1704 64.8775 18.1667C64.9787 18.1523 65.1052 18.0798 65.1486 17.9929C65.3799 17.5549 65.5896 17.1059 65.8101 16.6606C65.8643 16.552 65.904 16.4361 65.9763 16.3456C66.0305 16.2768 66.1281 16.2442 66.204 16.1972C66.2294 16.2189 66.251 16.2442 66.2763 16.2659C66.1318 16.7475 65.9872 17.229 65.8426 17.7105C65.8101 17.8155 65.7739 17.9205 65.7558 18.0292C65.7269 18.2319 65.7848 18.4021 65.9908 18.4745C66.1968 18.5469 66.3522 18.4528 66.4571 18.2753C66.5474 18.1197 66.6197 17.9495 66.7354 17.7214C66.7101 17.9314 66.6776 18.0654 66.6776 18.1957C66.6776 18.4998 66.9378 18.6736 67.2089 18.5288C67.3571 18.4491 67.5017 18.3224 67.5848 18.1776C67.8379 17.7395 68.0728 17.2906 68.2861 16.8344C68.3656 16.6606 68.4487 16.628 68.6186 16.6714C69.1897 16.8163 69.7608 16.9502 70.3356 17.0806C70.6247 17.1457 70.7368 17.363 70.8344 17.6092C70.8814 17.725 70.9717 17.8264 71.0549 17.9242C71.1272 18.0147 71.2248 18.0871 71.2971 18.1776C71.6657 18.6483 72.0272 19.1226 72.3995 19.5896C72.461 19.6693 72.5405 19.7525 72.6272 19.7851C72.714 19.8177 72.826 19.7924 72.9272 19.7887C72.9236 19.691 72.9562 19.5643 72.9092 19.4955C72.5658 18.9814 72.2079 18.4817 71.8573 17.9748C71.7995 17.8916 71.7525 17.8083 71.6838 17.6997C71.8031 17.6237 71.9079 17.5585 72.0344 17.4752C72.1067 17.5766 72.1682 17.6635 72.2296 17.7504C72.5911 18.2717 72.9417 18.8003 73.3249 19.3072C73.4875 19.5244 73.708 19.7055 73.9249 19.8684C74.1743 20.053 74.29 20.0132 74.4309 19.7887C74.6117 19.9118 74.7815 20.053 74.9767 20.1436C75.0273 20.1689 75.1539 20.0241 75.2695 19.9444C75.2804 19.9553 75.3201 20.0024 75.3671 20.0132C75.4756 20.0349 75.6165 20.0856 75.6924 20.0386C75.7719 19.9915 75.837 19.843 75.837 19.7417C75.837 19.5715 75.7719 19.3977 75.7539 19.2276C75.7466 19.1479 75.7575 19.0248 75.8081 18.9922C75.884 18.9415 76.0141 18.9089 76.0973 18.9343C76.4551 19.0429 76.7913 19.1877 76.8672 19.6222C76.878 19.691 76.9178 19.767 76.9684 19.8177C77.0732 19.9191 77.1925 20.0711 77.3082 20.0711C77.4094 20.0711 77.5142 19.8974 77.6226 19.796C77.6769 19.9155 77.7347 20.0965 77.8323 20.2558C77.9046 20.3789 78.0239 20.4694 78.1142 20.5816C78.1504 20.6287 78.1829 20.6866 78.1974 20.7446C78.248 20.9328 78.2696 21.1283 78.3419 21.3058C78.3781 21.3963 78.4938 21.4578 78.5697 21.5302C78.6383 21.447 78.7504 21.3709 78.7685 21.2768C78.8263 20.998 78.8444 20.7156 78.8841 20.4115C79.1046 20.4658 79.2384 20.5635 79.2275 20.8025C79.2203 20.922 79.2131 21.0451 79.242 21.1609C79.2673 21.2551 79.3432 21.3311 79.3974 21.418C79.4733 21.3637 79.5565 21.3166 79.6251 21.2551C79.6685 21.2152 79.6866 21.1501 79.7372 21.0559C79.7878 21.284 79.8131 21.4723 79.8745 21.6497C79.9107 21.7547 80.0083 21.838 80.077 21.9321C80.1384 21.8416 80.2035 21.7547 80.2649 21.6642C80.2866 21.6316 80.2938 21.5882 80.33 21.4723C80.3697 21.7583 80.3806 21.9647 80.4312 22.1638C80.4529 22.2543 80.5469 22.3304 80.6083 22.41C80.6878 22.3376 80.7927 22.2761 80.8469 22.1892C80.9119 22.0842 80.9336 21.9538 81.0168 21.8416C80.9878 22.0154 80.9445 22.1928 80.9336 22.3666C80.93 22.4571 80.9878 22.5512 81.0168 22.6417C81.0818 22.5766 81.165 22.5223 81.2011 22.4462C81.2662 22.3195 81.3023 22.1783 81.3493 22.0407C81.3855 22.0371 81.4216 22.0335 81.4541 22.0299C81.4867 22.1493 81.5517 22.2688 81.5481 22.3883C81.5373 22.6273 81.465 22.8626 81.465 23.0979C81.465 23.2065 81.5662 23.3188 81.624 23.4274C81.7216 23.355 81.8517 23.2971 81.9096 23.1993C82.0036 23.04 82.0505 22.8517 82.1156 22.6743C82.1409 22.6743 82.1698 22.6816 82.1951 22.6852C82.2024 22.7467 82.2168 22.8083 82.2096 22.8662C82.1771 23.1124 82.1228 23.355 82.0975 23.6012C82.0578 23.9669 82.1481 24.0972 82.5204 24.2239C82.4482 24.4484 82.3614 24.6656 82.3036 24.8937C82.253 25.0892 82.2096 25.2884 82.1951 25.4875C82.1807 25.7083 82.2855 25.9183 82.4988 25.9545C82.665 25.9835 82.9072 25.9364 83.0156 25.8242C83.2145 25.6178 83.3446 25.3427 83.5 25.0929C83.5398 25.0313 83.5723 24.9661 83.6048 24.9082C83.7566 24.9987 83.8976 25.0856 84.0422 25.1725C83.7928 25.3318 83.5289 25.4984 83.2614 25.6685C83.2759 25.712 83.2904 25.759 83.3012 25.8025H85.3941C85.3941 25.8387 85.4013 25.8785 85.4013 25.9147C85.2025 25.9654 85.0073 26.0161 84.8085 26.0632C84.682 26.0957 84.5482 26.103 84.4362 26.1573C84.3205 26.2152 84.2229 26.313 84.1181 26.3962C84.2302 26.4614 84.335 26.5664 84.4506 26.5845C84.9965 26.6569 85.5423 26.7076 86.1025 26.809C85.929 26.8561 85.7519 26.9031 85.5784 26.9538C85.3977 27.0081 85.2097 27.0769 85.2061 27.305C85.2061 27.5295 85.3688 27.6272 85.5567 27.7141C85.8314 27.8372 86.0808 28.0183 86.3628 28.1196C86.6447 28.221 86.952 28.2536 87.2484 28.326C87.3532 28.3513 87.4508 28.4129 87.552 28.4563C87.5448 28.4781 87.5375 28.5034 87.5303 28.5251C87.4399 28.5179 87.346 28.5143 87.2556 28.507C87.2411 28.5324 87.2267 28.5541 87.2086 28.5794C87.3713 28.7098 87.5412 28.8293 87.693 28.9741C87.9749 29.2456 88.2822 29.4991 88.5135 29.8141C88.64 29.9878 88.7629 30.1616 88.8858 30.339L91.3582 30.8604C91.4305 30.8387 91.4992 30.8169 91.5606 30.788C91.7558 30.6902 91.8642 30.5237 91.8642 30.3028C91.8642 30.0313 91.7197 29.8394 91.4811 29.7489C90.9353 29.5389 90.3859 29.3325 89.8292 29.1515C89.5726 29.0682 89.4461 28.8981 89.3268 28.6301C89.9087 28.7134 90.4509 28.7858 90.9461 29.0465C91.0256 29.0863 91.069 29.2022 91.1377 29.2927C91.3546 29.0863 91.1883 28.8763 91.0907 28.6591C91.2931 28.6229 91.5208 28.612 91.5172 28.3441C91.5136 28.087 91.3112 28.0219 91.1052 27.9784C91.0076 27.9567 90.9064 27.935 90.8052 27.9277C90.2304 27.8843 89.6557 27.8445 89.0412 27.801C89.6991 27.7105 90.3172 27.6345 90.9317 27.5331C91.2714 27.4788 91.6184 27.4136 91.9365 27.2833C92.0667 27.229 92.204 26.9973 92.1932 26.8561C92.1823 26.7185 92.0124 26.5411 91.8679 26.4759C91.6654 26.3818 91.4233 26.3456 91.1991 26.3347C90.1148 26.2985 89.0304 26.2768 87.9496 26.2514C87.8448 26.2514 87.7363 26.2514 87.6315 26.2514C87.6749 26.1826 87.7255 26.1645 87.7797 26.1609C88.6942 26.074 89.6051 25.9835 90.5196 25.9002C90.675 25.8858 90.8341 25.9075 90.9895 25.8894C91.2172 25.864 91.3654 25.7337 91.3835 25.4984C91.4016 25.2775 91.2859 25.1254 91.0835 25.0566C90.9714 25.0204 90.8485 24.9987 90.7329 25.006C90.1003 25.0458 89.4677 25.0892 88.8388 25.1435C88.4231 25.1797 88.0111 25.2377 87.5954 25.2884C87.6641 25.1978 87.7436 25.1616 87.8231 25.1182C88.1809 24.9335 88.546 24.7561 88.8966 24.557C89.175 24.3977 89.2653 24.1081 89.1569 23.8474C89.0485 23.5867 88.7774 23.4564 88.4701 23.5288C88.3617 23.5541 88.2605 23.5976 88.1556 23.6338C87.9315 23.7062 87.711 23.7786 87.4255 23.8727C87.7219 23.4636 87.9821 23.1196 88.2279 22.7648C88.4195 22.4897 88.4123 22.2254 88.2207 22.0335C88.0364 21.8488 87.7544 21.8235 87.4905 22.019C87.1797 22.2471 86.8833 22.4969 86.5905 22.7467C86.323 22.9748 86.0664 23.2174 85.7989 23.46C86.1965 22.8047 86.6086 22.1747 86.9664 21.5157C87.299 20.9039 87.1435 20.5382 86.5001 20.2667C86.5399 20.1001 86.5869 19.9336 86.6267 19.767C86.6953 19.4593 86.7243 19.1551 86.4423 18.9307C86.1712 18.7134 85.929 18.8619 85.6507 19.0574C85.6977 18.8583 85.7555 18.7062 85.7628 18.5578C85.7844 18.2029 85.8134 17.8445 85.7736 17.4969C85.7591 17.3702 85.5712 17.2181 85.4266 17.1675C85.235 17.0987 85.1302 17.2797 85.0796 17.4426C84.8844 18.0328 84.6964 18.6302 84.5085 19.2239C84.476 19.3253 84.4362 19.4231 84.3964 19.5244C84.3567 19.4086 84.3711 19.3072 84.3784 19.2058C84.3856 19.0972 84.3964 18.985 84.382 18.8764C84.3422 18.5107 84.1759 18.4021 83.8253 18.4998C83.5289 17.8083 83.5325 17.7178 83.5904 16.9864C83.6193 16.6027 83.6048 16.2153 83.5687 15.8315C83.5542 15.6686 83.4602 15.4948 83.3554 15.3644C83.1891 15.1581 82.9867 15.2015 82.9 15.4513C82.8277 15.6577 82.7771 15.8749 82.7445 16.0922C82.5819 17.0987 82.4265 18.1052 82.2674 19.1153C82.2421 19.1153 82.2204 19.1081 82.1951 19.1045C82.224 18.8691 82.253 18.6374 82.2783 18.4021C82.3542 17.678 82.4229 16.9502 82.2566 16.2297C82.1915 15.9437 82.1012 15.6613 81.8048 15.4586C81.7252 15.7808 81.6349 16.0777 81.577 16.3818C81.5192 16.6895 81.4939 17.0045 81.4686 17.229C81.3168 16.599 81.1433 15.9003 80.9589 15.14C80.9156 15.4513 80.883 15.6903 80.8505 15.9292C80.7565 15.6468 80.7384 15.3717 80.6987 15.1001C80.6228 14.5896 80.5324 14.0791 80.189 13.6628C80.0553 13.4962 79.8782 13.384 79.6577 13.4673C79.4299 13.5505 79.4805 13.7605 79.4878 13.9415C79.4878 14.0321 79.5059 14.1262 79.5167 14.2167C79.5565 14.557 79.5998 14.8938 79.6468 15.2884C79.5275 14.8829 79.4408 14.5245 79.3179 14.1805C79.2492 13.985 79.1408 13.7931 79.0107 13.6338C78.9456 13.5505 78.7902 13.489 78.6889 13.5071C78.6275 13.5179 78.5733 13.6917 78.5588 13.8003C78.5407 13.9162 78.5624 14.0393 78.5841 14.1552C78.8408 15.607 79.0721 17.0588 79.1119 18.536C79.1119 18.6302 79.1119 18.7207 79.1119 18.8148C79.0757 18.8184 79.0359 18.8257 78.9998 18.8293C78.9745 18.7279 78.9347 18.6302 78.9275 18.5252C78.8733 17.7431 78.8371 16.9611 78.7685 16.1827C78.6926 15.3174 78.5371 14.4665 78.1648 13.6736C77.9949 13.3116 77.7961 12.964 77.4527 12.7395C77.4202 12.7504 77.3877 12.7576 77.3552 12.7685C77.4961 14.0393 77.6407 15.3101 77.7853 16.6063C77.5684 16.0487 77.3768 15.5129 77.1491 14.9951C76.9214 14.481 76.5889 14.0284 76.184 13.6266C76.3575 14.4774 76.5346 15.3318 76.7081 16.1827C76.39 14.9046 75.7394 13.8366 74.702 13.0545C74.702 13.1233 74.6948 13.2355 74.6839 13.4166C74.308 12.8192 74.0478 12.1964 73.314 11.9901C73.5815 12.9061 73.8345 13.7641 74.0875 14.6258C74.0008 14.5643 73.961 14.4883 73.9177 14.4122C73.6538 13.9705 73.4044 13.5179 73.1116 13.0943C72.9598 12.8735 72.7501 12.678 72.5296 12.5151C72.4248 12.4354 72.2441 12.4607 72.0995 12.439C72.0995 12.5875 72.0561 12.754 72.114 12.8771C72.3778 13.4492 72.6706 14.0067 72.9489 14.5715C72.9887 14.6512 73.0212 14.7344 73.0718 14.8575C72.7646 14.4484 72.5079 14.0646 72.2043 13.7207C72.0597 13.5578 71.8501 13.4202 71.6441 13.3514C71.391 13.2645 71.2284 13.4455 71.3079 13.7062C71.373 13.9162 71.4742 14.1153 71.5754 14.3108C71.7091 14.5715 71.8573 14.8213 71.9911 15.0675C71.6947 15.2341 71.5103 15.1327 71.3187 14.9046C71.0657 14.6005 70.7946 14.2891 70.3319 14.2674C70.4187 14.0212 70.5235 13.8003 70.5669 13.5686C70.5886 13.4455 70.5452 13.2428 70.4585 13.1849C70.3573 13.1161 70.1476 13.1161 70.0392 13.1776C69.8873 13.2609 69.7789 13.4274 69.6632 13.5723C69.5331 13.7352 69.4138 13.909 69.2909 14.0791C69.2729 13.9452 69.3018 13.8402 69.3271 13.7352C69.45 13.2247 69.5801 12.7178 69.6958 12.2073C69.7392 12.0082 69.6777 11.8308 69.4717 11.7584C69.2656 11.6823 69.1138 11.7765 69.009 11.9539C68.9548 12.0408 68.9114 12.1313 68.8644 12.2218C68.6403 12.6563 68.4234 13.0907 68.1921 13.5216C67.9933 13.8909 67.7764 14.2529 67.5668 14.6186C67.5415 14.4774 67.5704 14.3652 67.5993 14.2493C67.8017 13.4926 68.0041 12.7395 68.2029 11.9828C68.2282 11.8851 68.2716 11.7728 68.2427 11.6859C68.2029 11.5665 68.1234 11.4144 68.0222 11.3782C67.921 11.342 67.762 11.4035 67.6535 11.4687C67.5776 11.5122 67.5451 11.6316 67.4981 11.7222C67.2125 12.2978 66.9306 12.8735 66.645 13.4492C66.6306 13.1993 66.6776 12.9676 66.6956 12.7323C66.7029 12.6309 66.6595 12.5223 66.6306 12.4209C66.6017 12.3087 66.5366 12.1964 66.5402 12.0842C66.5547 11.6534 66.6125 11.2225 66.6161 10.7917C66.6161 10.5419 66.4968 10.321 66.2257 10.2522C65.9691 10.1907 65.8064 10.3319 65.6835 10.5346C65.6655 10.5672 65.651 10.5998 65.6438 10.6179C64.8775 10.2993 64.8847 11.0161 64.6461 11.3022C64.6461 10.8749 64.6534 10.426 64.6461 9.97704C64.6461 9.7924 64.6281 9.60775 64.5847 9.43034C64.5269 9.19138 64.3823 9.0176 64.1256 8.96691C63.8654 8.91622 63.6702 9.03208 63.5437 9.24207C63.4244 9.43758 63.3449 9.65481 63.2509 9.86481C63.2148 9.94446 63.1822 10.0314 63.1425 10.1327C63.0774 9.65481 63.0268 9.21673 62.9509 8.78226C62.9111 8.56503 62.8388 8.31883 62.5569 8.32969C62.2822 8.34055 62.2605 8.59037 62.2171 8.79674C62.1846 8.95605 62.1593 9.11535 62.1304 9.2819C61.5882 9.03932 61.0496 9.35431 60.9954 9.93722C60.9773 10.1472 60.9701 10.3608 60.9665 10.5708C60.9556 11.4904 60.952 12.4137 60.9412 13.3333C60.9412 13.4636 60.9159 13.594 60.9014 13.7207C60.8797 13.7207 60.8544 13.7207 60.8327 13.7207C60.8219 13.5867 60.8002 13.4528 60.8002 13.3188C60.7821 12.2218 60.7857 11.1284 60.7496 10.0314C60.7279 9.36879 60.2327 9.0538 59.6146 9.26742C59.564 9.0357 59.5351 8.79674 59.4592 8.57227C59.423 8.47089 59.2893 8.33693 59.1989 8.33693C59.0905 8.33693 58.9459 8.43831 58.8808 8.53606C58.8013 8.66278 58.7652 8.82571 58.7435 8.97777C58.6893 9.35069 58.6531 9.72723 58.6061 10.1291C58.4796 9.83946 58.3784 9.57154 58.2483 9.32172C58.1218 9.07915 57.9266 8.9126 57.6266 8.95605C57.3663 8.99225 57.1603 9.18776 57.135 9.50999C57.0988 9.96618 57.1133 10.4296 57.1097 10.8858C57.1097 10.9582 57.1277 11.0306 57.1314 11.1067C57.135 11.1791 57.1314 11.2551 57.1314 11.3673C56.853 10.9691 56.8386 10.2884 56.1012 10.5962C56.0542 10.531 56.0144 10.4694 55.9674 10.4151C55.7253 10.1327 55.3349 10.1798 55.1831 10.5237C55.1252 10.6541 55.0963 10.8098 55.1035 10.951C55.118 11.3275 55.165 11.704 55.1903 12.077C55.1975 12.1639 55.2192 12.3014 55.1758 12.334C54.959 12.4897 55.024 12.6925 55.0493 12.888C55.071 13.0654 55.1072 13.2428 55.1361 13.4166C54.9698 13.1993 54.8469 12.964 54.7312 12.7287C54.5397 12.3413 54.3553 11.9502 54.1637 11.5628C54.0698 11.3782 53.9143 11.2877 53.7083 11.3601C53.5095 11.4289 53.4661 11.5954 53.4914 11.7873C53.5023 11.8597 53.524 11.9321 53.542 12.0009C53.7445 12.7649 53.9505 13.5288 54.1565 14.2927C54.1818 14.3905 54.2035 14.4919 54.2252 14.5932C53.9324 14.1877 53.6902 13.7678 53.4589 13.3405C53.2095 12.8771 52.9782 12.4064 52.7324 11.9466C52.6348 11.7656 52.4757 11.6751 52.2697 11.7475C52.0637 11.8235 52.0094 11.9973 52.042 12.1964C52.0745 12.3775 52.1179 12.5549 52.1612 12.7359C52.2697 13.174 52.3817 13.6121 52.4938 14.0502C52.248 13.7967 52.0528 13.5216 51.8323 13.2645C51.6913 13.098 51.4998 13.0147 51.2937 13.1523C51.0986 13.2862 51.1239 13.4781 51.1961 13.6736C51.2684 13.8691 51.3335 14.0646 51.4094 14.271C50.9287 14.2819 50.672 14.6041 50.4226 14.901C50.2274 15.1327 50.0431 15.2232 49.7503 15.0639C49.7937 14.9843 49.8407 14.8974 49.8877 14.8105C50.0503 14.5027 50.2347 14.2022 50.3684 13.88C50.4262 13.7424 50.4407 13.5035 50.3612 13.4057C50.2202 13.2319 49.9816 13.3152 49.8443 13.4528C49.5406 13.7569 49.2659 14.09 48.9912 14.4195C48.8864 14.5462 48.8105 14.6946 48.7201 14.8358C48.9804 14.1733 49.3057 13.5505 49.6093 12.9133C49.6708 12.7794 49.6455 12.6056 49.6563 12.4499C49.5045 12.468 49.3238 12.4426 49.2045 12.5151C49.0165 12.6345 48.8358 12.8011 48.7093 12.9857C48.3948 13.4492 48.1129 13.9343 47.8201 14.4122C47.7767 14.481 47.7406 14.557 47.7008 14.6295C47.6863 14.6222 47.6719 14.615 47.6538 14.6077C47.9032 13.7497 48.1562 12.8952 48.4201 11.9901C47.6791 12.1964 47.4261 12.8264 47.0357 13.3369V13.0147C46.8478 13.1921 46.6598 13.355 46.4827 13.5288C46.0742 13.9307 45.7164 14.3724 45.5031 14.9155C45.3621 15.2739 45.2284 15.636 45.0911 15.9944C45.0838 15.9944 45.0766 15.9944 45.0694 15.9908C45.2284 15.1979 45.3911 14.4014 45.5501 13.6085C45.2826 13.8836 45.0477 14.1769 44.8597 14.4991C44.6645 14.8286 44.4946 15.1798 44.3428 15.5346C44.2019 15.8713 44.1006 16.2225 43.985 16.5664C43.9741 16.5664 43.9633 16.5592 43.9488 16.5556C44.0898 15.292 44.2344 14.0248 44.3754 12.7612C44.3392 12.7468 44.3031 12.7323 44.2669 12.7142C44.1404 12.8481 43.9958 12.9676 43.891 13.1161C43.3343 13.8872 43.1247 14.7851 43.0199 15.7048C42.915 16.6352 42.8753 17.5766 42.7994 18.5107C42.7922 18.6157 42.7415 18.7171 42.7126 18.8221C42.6837 18.8148 42.6584 18.8076 42.6295 18.8003C42.6259 18.7388 42.6078 18.6772 42.615 18.6157C42.7415 17.4173 42.8681 16.2189 43.0018 15.0205C43.0488 14.6005 43.1283 14.1841 43.1681 13.7641C43.1753 13.6736 43.1066 13.5107 43.0416 13.4926C42.9512 13.4673 42.7958 13.5216 42.7379 13.594C42.6042 13.7641 42.4849 13.9597 42.4126 14.1624C42.2897 14.4955 42.203 14.8467 42.0909 15.2268C42.1451 14.7344 42.2102 14.2819 42.2391 13.8257C42.2463 13.7098 42.1777 13.5216 42.0909 13.4817C41.9825 13.4311 41.7801 13.4528 41.6897 13.5288C41.5307 13.6664 41.3608 13.8547 41.3065 14.0502C41.162 14.5679 41.0752 15.1037 40.9668 15.636C40.9487 15.7265 40.9451 15.817 40.9342 15.9075C40.9089 15.9075 40.8872 15.9075 40.8619 15.9075C40.8366 15.6722 40.8077 15.4368 40.7824 15.2015C40.7716 15.2015 40.7643 15.1943 40.7535 15.1906C40.5836 15.8785 40.4173 16.5701 40.2728 17.1494C40.1824 16.6642 40.0703 16.0668 39.9583 15.4694C39.9077 15.4694 39.8607 15.4694 39.8101 15.473C39.0727 16.6171 39.4559 17.8771 39.4956 19.1081C39.3691 18.4962 39.2607 17.8807 39.1522 17.2688C39.0474 16.6714 38.9607 16.0704 38.8341 15.4767C38.7691 15.1762 38.5233 15.14 38.3353 15.3861C38.2486 15.4984 38.1763 15.6468 38.1618 15.7844C38.1293 16.1573 38.0715 16.5447 38.1329 16.9104C38.2305 17.4752 38.1257 17.9821 37.9016 18.4817C37.5293 18.3912 37.3594 18.5107 37.3377 18.9089C37.3268 19.1081 37.3521 19.3072 37.363 19.5063C37.2654 19.347 37.2076 19.1841 37.1533 19.0176C36.9798 18.4853 36.8244 17.9495 36.6292 17.4245C36.5858 17.3087 36.3943 17.1457 36.3075 17.1638C36.1666 17.1964 35.9786 17.3449 35.9497 17.4716C35.8882 17.7504 35.8991 18.0509 35.9171 18.3405C35.9316 18.5614 36.0039 18.7786 36.0581 19.0248C35.5231 18.7134 35.1436 18.8184 35.0677 19.271C35.0424 19.4122 35.0605 19.5643 35.0858 19.7091C35.1183 19.8974 35.1761 20.0784 35.2195 20.263C34.5978 20.502 34.4207 20.8858 34.7315 21.4614C35.0532 22.0588 35.44 22.6236 35.7979 23.1993C35.8376 23.2609 35.8738 23.3224 35.9135 23.384C35.6027 23.1631 35.3388 22.9097 35.0605 22.6707C34.7641 22.4209 34.4641 22.1783 34.146 21.9611C33.9219 21.8054 33.6508 21.8561 33.4917 22.0371C33.3146 22.2362 33.3182 22.4535 33.4411 22.6743C33.4809 22.7467 33.5315 22.8119 33.5821 22.8807C33.8062 23.1884 34.0303 23.4962 34.3014 23.8727C33.9146 23.7424 33.6074 23.6265 33.2929 23.536C32.8989 23.4202 32.5447 23.6446 32.523 24.0139C32.5049 24.3 32.664 24.4774 32.9026 24.6005C33.3146 24.8141 33.7267 25.0277 34.1424 25.2413C33.8243 25.2413 33.5134 25.2087 33.2062 25.1834C32.4399 25.1182 31.67 25.0422 30.9001 25.0023C30.5458 24.9842 30.3217 25.1978 30.3326 25.4658C30.3398 25.7337 30.5386 25.8785 30.9037 25.8894C31.4169 25.9039 31.9338 25.9002 32.4471 25.9437C33.0001 25.9907 33.546 26.0885 34.099 26.1609C34.099 26.1863 34.099 26.2116 34.0954 26.2369C33.9978 26.2369 33.8966 26.2369 33.799 26.2369C32.8989 26.2442 31.9953 26.2369 31.0952 26.2732C30.6868 26.2876 30.2747 26.3709 29.8699 26.4469C29.6711 26.4831 29.4795 26.628 29.5157 26.8416C29.541 27.0081 29.6711 27.1928 29.8084 27.2941L29.8518 27.3122ZM73.3863 17.8626C73.4622 17.9314 73.5598 17.9857 73.6032 18.0726C73.8454 18.536 74.0767 19.0031 74.308 19.4701C74.2863 19.481 74.2683 19.4955 74.2466 19.5063C73.9321 18.985 73.614 18.46 73.2995 17.9386C73.3285 17.9133 73.3574 17.888 73.3827 17.8626H73.3863ZM72.2441 15.4586C72.32 15.5889 72.3995 15.7011 72.4501 15.8242C72.4754 15.8822 72.4537 16.0197 72.432 16.0234C72.3561 16.0415 72.2405 16.0487 72.1899 16.0053C72.0923 15.9148 72.0308 15.788 71.9296 15.6432C72.0489 15.5744 72.132 15.5274 72.2441 15.4622V15.4586ZM70.6536 15.1689C70.7259 15.2993 70.7802 15.3934 70.8597 15.531C70.6934 15.5817 70.5524 15.6251 70.4115 15.6722C70.4006 15.6504 70.3862 15.6287 70.3753 15.6034C70.4621 15.473 70.5452 15.3391 70.6573 15.1689H70.6536ZM70.1982 13.9162C70.3392 14.3941 70.1657 14.7815 70.0572 15.1906C70.1259 15.14 70.1946 15.0856 70.3175 14.9951C70.2597 15.2124 70.2163 15.3789 70.1584 15.607C69.8476 15.4803 69.562 15.3608 69.2439 15.2305C69.5656 14.7888 69.8693 14.3724 70.2018 13.9162H70.1982ZM62.5171 9.58964C62.5388 9.58964 62.5605 9.59327 62.5822 9.59689V11.8127C62.5605 11.8127 62.5388 11.8127 62.5171 11.8127V9.58964ZM59.2061 9.58964C59.2278 9.58964 59.2459 9.58964 59.2676 9.58964V11.8163C59.2459 11.8163 59.2278 11.8163 59.2061 11.8163V9.58964ZM51.4925 13.9886C51.5323 13.9741 51.5757 13.9633 51.6154 13.9488C51.9191 14.3652 52.2263 14.7851 52.548 15.2268C52.2408 15.3572 51.9588 15.4767 51.6407 15.6106C51.5793 15.4006 51.5287 15.2305 51.4564 14.9951C51.5829 15.0893 51.6552 15.1436 51.7347 15.2015C51.6516 14.7888 51.5721 14.3905 51.4889 13.9922L51.4925 13.9886ZM51.1347 15.1689C51.2467 15.3427 51.3299 15.4694 51.413 15.5961C51.4058 15.6179 51.3986 15.6396 51.3913 15.6613C51.2504 15.6251 51.1094 15.5889 50.9287 15.5418C51.0118 15.397 51.066 15.2956 51.1383 15.1689H51.1347ZM49.5081 15.4405C49.6563 15.5237 49.7395 15.5744 49.884 15.6541C49.7358 15.8061 49.6166 15.9437 49.4792 16.0632C49.4575 16.0813 49.3202 16.0089 49.3202 16.0016C49.3708 15.8279 49.4322 15.6541 49.5045 15.4405H49.5081ZM48.5069 17.9024C48.1707 18.46 47.8526 18.9922 47.5381 19.5208C47.7659 18.7243 48.2502 17.9278 48.5069 17.9024Z" fill="black"/>
</g>
<defs>
<clipPath id="clip0_960_13121">
<rect width="31.2222" height="27" fill="white" transform="translate(44.3335 30.2222)"/>
</clipPath>
<clipPath id="clip1_960_13121">
<rect width="62.6667" height="23.2222" fill="white" transform="translate(29.5557 8.33337)"/>
</clipPath>
</defs>
</svg>
