<svg width="367" height="479" viewBox="0 0 367 479" fill="none" xmlns="http://www.w3.org/2000/svg">
<g clip-path="url(#clip0_112_15612)">
<path d="M163.821 152.428C196.421 148.528 320.021 126.428 344.321 101.528C368.621 76.7281 239.721 84.8281 161.721 100.128C83.821 115.528 29.921 133.028 36.721 150.428C43.521 167.828 110.121 158.928 163.821 152.428Z" fill="#DD713A"/>
<mask id="mask0_112_15612" style="mask-type:luminance" maskUnits="userSpaceOnUse" x="36" y="85" width="312" height="76">
<path d="M163.821 152.428C196.421 148.528 320.021 126.428 344.321 101.528C368.621 76.7281 239.721 84.8281 161.721 100.128C83.821 115.528 29.921 133.028 36.721 150.428C43.521 167.828 110.121 158.928 163.821 152.428Z" fill="white"/>
</mask>
<g mask="url(#mask0_112_15612)">
<path d="M174.921 130.828C201.321 128.028 297.721 110.228 305.921 86.028C314.221 61.828 205.921 65.328 145.921 77.928C85.9211 90.528 47.9211 106.328 62.9211 124.128C77.9211 141.928 131.321 135.428 174.921 130.828Z" fill="#B55024"/>
</g>
<path d="M154.621 286.128C136.721 291.628 103.821 286.228 97.721 276.328C91.121 265.628 98.721 235.728 90.521 213.328C84.821 197.728 45.021 204.928 41.221 242.928C38.521 269.428 45.921 311.528 80.121 325.028C103.721 334.328 159.021 317.528 166.421 301.828C172.421 289.228 172.621 280.628 154.621 286.128Z" fill="#68AF3E"/>
<mask id="mask1_112_15612" style="mask-type:luminance" maskUnits="userSpaceOnUse" x="40" y="205" width="131" height="123">
<path d="M154.621 286.128C136.721 291.628 103.821 286.228 97.721 276.328C91.121 265.628 98.721 235.728 90.521 213.328C84.821 197.728 45.021 204.928 41.221 242.928C38.521 269.428 45.921 311.528 80.121 325.028C103.721 334.328 159.021 317.528 166.421 301.828C172.421 289.228 172.621 280.628 154.621 286.128Z" fill="white"/>
</mask>
<g mask="url(#mask1_112_15612)">
<path opacity="0.49" d="M155.721 282.828C155.721 282.828 107.521 309.228 85.5209 300.028C63.6209 290.828 61.9209 225.628 61.9209 225.628C61.9209 225.628 44.5209 267.728 65.9209 298.828C65.9209 298.828 53.0209 300.928 41.1209 263.328C29.2209 225.728 -5.97905 313.128 46.1209 339.928C98.2209 366.728 148.021 361.628 148.021 361.628C148.021 361.628 175.221 297.028 175.821 290.828C177.121 276.328 155.721 282.828 155.721 282.828Z" fill="url(#paint0_radial_112_15612)"/>
</g>
<mask id="mask2_112_15612" style="mask-type:luminance" maskUnits="userSpaceOnUse" x="40" y="205" width="131" height="123">
<path d="M154.621 286.128C136.721 291.628 103.821 286.228 97.721 276.328C91.121 265.628 98.721 235.728 90.521 213.328C84.821 197.728 45.021 204.928 41.221 242.928C38.521 269.428 45.921 311.528 80.121 325.028C103.721 334.328 159.021 317.528 166.421 301.828C172.421 289.228 172.621 280.628 154.621 286.128Z" fill="white"/>
</mask>
<g mask="url(#mask2_112_15612)">
<path opacity="0.72" d="M116.321 285.828C116.321 285.828 72.5211 305.828 72.3211 243.328C72.2211 209.828 56.2211 212.128 52.5211 216.728C48.8211 221.328 38.6211 188.928 38.6211 188.928L68.4211 173.628L82.2211 187.228L96.8211 211.828L116.321 285.828Z" fill="#9EF255"/>
</g>
<path d="M45.421 277.628C48.721 277.428 32.821 266.128 32.821 266.128C32.821 266.128 39.021 277.928 45.421 277.628Z" fill="#A2D152"/>
<path d="M45.8212 277.428C42.9212 279.028 44.9212 264.128 44.9212 264.128C44.9212 264.128 51.4212 274.328 45.8212 277.428Z" fill="#A2D152"/>
<path d="M90.4209 259.428C93.2209 261.428 87.1209 242.328 87.1209 242.328C87.1209 242.328 85.0209 255.428 90.4209 259.428Z" fill="#D5F794"/>
<path d="M90.8209 259.528C87.5209 258.928 97.9209 248.828 97.9209 248.828C97.9209 248.828 97.2209 260.828 90.8209 259.528Z" fill="#D5F794"/>
<path d="M73.7212 228.828C72.5212 232.028 67.2212 212.728 67.2212 212.728C67.2212 212.728 76.0212 222.628 73.7212 228.828Z" fill="#D5F794"/>
<path d="M73.4211 229.228C75.8211 226.928 61.6211 224.128 61.6211 224.128C61.6211 224.128 68.7211 233.728 73.4211 229.228Z" fill="#D5F794"/>
<path d="M72.1212 230.128C69.2212 231.828 74.2212 217.028 74.2212 217.028C74.2212 217.028 79.3212 225.928 72.1212 230.128Z" fill="#D5F794"/>
<path d="M84.921 309.528C87.121 312.228 68.521 307.828 68.521 307.828C68.521 307.828 80.621 304.328 84.921 309.528Z" fill="#A2D152"/>
<path d="M85.121 310.028C84.121 306.628 75.821 318.728 75.821 318.728C75.821 318.728 87.021 316.528 85.121 310.028Z" fill="#A2D152"/>
<path d="M85.3211 311.728C85.5211 315.228 75.1211 303.528 75.1211 303.528C75.1211 303.528 84.8211 302.928 85.3211 311.728Z" fill="#A2D152"/>
<path d="M184.621 438.728H124.521C124.521 438.728 88.621 52.628 192.321 47.628C296.021 42.628 184.621 438.728 184.621 438.728Z" fill="#68AF3E"/>
<mask id="mask3_112_15612" style="mask-type:luminance" maskUnits="userSpaceOnUse" x="118" y="47" width="119" height="392">
<path d="M184.621 438.728H124.521C124.521 438.728 88.621 52.628 192.321 47.628C296.021 42.628 184.621 438.728 184.621 438.728Z" fill="white"/>
</mask>
<g mask="url(#mask3_112_15612)">
<path opacity="0.72" d="M93.521 81.1281C93.521 48.6281 127.121 22.3281 168.621 22.3281C210.121 22.3281 243.721 48.6281 243.721 81.1281C243.721 87.6281 238.421 86.6281 230.721 84.6281C236.421 138.128 209.121 216.928 209.121 216.928C217.821 177.228 215.321 110.328 214.121 87.8281C213.921 83.9281 210.721 81.0281 207.021 81.4281C206.921 81.4281 206.721 81.4281 206.621 81.5281C195.321 82.9281 186.221 92.2281 184.021 104.028C142.921 328.028 161.521 162.628 171.021 89.5281C156.521 89.6281 111.821 219.128 112.521 175.128C112.721 160.828 115.321 143.728 119.921 126.928C103.621 116.228 93.521 99.7281 93.521 81.1281Z" fill="#9EF255"/>
</g>
<mask id="mask4_112_15612" style="mask-type:luminance" maskUnits="userSpaceOnUse" x="118" y="47" width="119" height="392">
<path d="M184.621 438.728H124.521C124.521 438.728 88.621 52.628 192.321 47.628C296.021 42.628 184.621 438.728 184.621 438.728Z" fill="white"/>
</mask>
<g mask="url(#mask4_112_15612)">
<path d="M122.321 201.328C122.321 201.328 118.121 413.728 128.321 414.928C138.521 416.128 139.121 138.528 171.021 89.5281C171.021 89.5281 143.321 379.328 154.821 379.128C166.321 379.028 188.421 114.728 214.221 88.5281C214.221 88.5281 221.121 157.428 209.121 216.828C197.121 276.328 215.121 244.928 218.721 235.328C222.321 225.728 236.621 121.128 229.921 81.4281C223.321 41.7281 303.921 89.4281 303.921 89.4281C303.921 89.4281 241.421 489.728 197.521 491.628C153.621 493.528 89.9209 437.928 89.9209 437.928L122.321 201.328Z" fill="url(#paint1_radial_112_15612)"/>
</g>
<path d="M127.321 242.228C128.321 246.528 109.621 230.828 109.621 230.828C109.621 230.828 125.421 233.828 127.321 242.228Z" fill="#A2D152"/>
<path d="M127.321 242.828C128.121 238.428 112.021 247.228 112.021 247.228C112.021 247.228 125.821 251.228 127.321 242.828Z" fill="#A2D152"/>
<path d="M189.321 78.9283C186.721 82.4283 187.221 57.0283 187.221 57.0283C187.221 57.0283 194.421 72.2283 189.321 78.9283Z" fill="#D5F794"/>
<path d="M188.821 79.2281C192.621 77.2281 176.321 68.8281 176.321 68.8281C176.321 68.8281 181.521 83.0281 188.821 79.2281Z" fill="#D5F794"/>
<path d="M150.621 86.5282C154.621 88.3282 140.221 56.9282 140.221 56.9282C140.221 56.9282 142.821 83.1282 150.621 86.5282Z" fill="#D5F794"/>
<path d="M151.221 86.6282C147.121 87.8282 155.621 61.4282 155.621 61.4282C155.621 61.4282 159.221 84.3282 151.221 86.6282Z" fill="#D5F794"/>
<path d="M153.121 85.5283C157.021 82.8283 138.921 73.5283 138.921 73.5283C138.921 73.5283 143.521 92.2283 153.121 85.5283Z" fill="#D5F794"/>
<path d="M127.621 196.928C130.421 195.628 108.621 187.928 108.621 187.928C108.621 187.928 122.121 199.428 127.621 196.928Z" fill="#A2D152"/>
<path d="M127.921 196.628C126.421 199.428 118.221 181.928 118.221 181.928C118.221 181.928 130.821 191.328 127.921 196.628Z" fill="#A2D152"/>
<path d="M128.421 195.128C129.021 191.728 115.821 196.728 115.821 196.728C115.821 196.728 126.721 203.528 128.421 195.128Z" fill="#A2D152"/>
<path d="M162.321 271.428C165.121 270.128 143.321 262.428 143.321 262.428C143.321 262.428 156.921 273.928 162.321 271.428Z" fill="#A2D152"/>
<path d="M162.621 271.128C161.121 273.928 152.921 256.428 152.921 256.428C152.921 256.428 165.521 265.828 162.621 271.128Z" fill="#A2D152"/>
<path d="M163.121 269.628C163.721 266.228 150.521 271.228 150.521 271.228C150.521 271.228 161.521 278.028 163.121 269.628Z" fill="#A2D152"/>
<path d="M201.421 232.328C225.121 232.528 263.021 214.328 266.821 200.028C270.921 184.628 251.021 151.228 253.021 121.128C254.421 100.228 305.121 94.628 323.321 139.428C336.021 170.628 342.121 224.228 305.621 252.828C280.421 272.528 207.421 272.028 192.721 255.628C181.021 242.428 177.721 232.128 201.421 232.328Z" fill="#68AF3E"/>
<mask id="mask5_112_15612" style="mask-type:luminance" maskUnits="userSpaceOnUse" x="183" y="105" width="151" height="163">
<path d="M201.421 232.328C225.121 232.528 263.021 214.328 266.821 200.028C270.921 184.628 251.021 151.228 253.021 121.128C254.421 100.228 305.121 94.628 323.321 139.428C336.021 170.628 342.121 224.228 305.621 252.828C280.421 272.528 207.421 272.028 192.721 255.628C181.021 242.428 177.721 232.128 201.421 232.328Z" fill="white"/>
</mask>
<g mask="url(#mask5_112_15612)">
<path opacity="0.49" d="M198.921 228.728C198.921 228.728 266.821 243.528 290.121 224.528C313.421 205.528 292.121 126.028 292.121 126.028C292.121 126.028 328.321 170.828 313.421 216.128C313.421 216.128 329.821 214.128 330.821 164.228C331.821 114.428 405.621 207.628 352.121 258.728C298.621 309.828 236.621 321.428 236.621 321.428C236.621 321.428 180.621 252.928 177.621 245.528C170.721 228.528 198.921 228.728 198.921 228.728Z" fill="url(#paint2_radial_112_15612)"/>
</g>
<mask id="mask6_112_15612" style="mask-type:luminance" maskUnits="userSpaceOnUse" x="183" y="105" width="151" height="163">
<path d="M201.421 232.328C225.121 232.528 263.021 214.328 266.821 200.028C270.921 184.628 251.021 151.228 253.021 121.128C254.421 100.228 305.121 94.628 323.321 139.428C336.021 170.628 342.121 224.228 305.621 252.828C280.421 272.528 207.421 272.028 192.721 255.628C181.021 242.428 177.721 232.128 201.421 232.328Z" fill="white"/>
</mask>
<g mask="url(#mask6_112_15612)">
<path opacity="0.72" d="M247.721 218.328C247.721 218.328 307.921 226.928 285.921 151.128C274.121 110.428 294.321 107.528 300.421 111.828C306.621 116.128 307.221 73.128 307.221 73.128L265.721 65.228L253.821 86.728L244.921 121.728L247.721 218.328Z" fill="#9EF255"/>
</g>
<path d="M324.721 194.428C321.421 195.228 333.821 179.428 333.821 179.428C333.821 179.428 331.221 192.928 324.721 194.428Z" fill="#A2D152"/>
<path d="M324.321 194.428C327.621 195.228 321.321 181.128 321.321 181.128C321.321 181.128 317.921 192.928 324.321 194.428Z" fill="#A2D152"/>
<path d="M275.321 189.628C273.221 192.428 273.621 171.928 273.621 171.928C273.621 171.928 279.421 184.128 275.321 189.628Z" fill="#D5F794"/>
<path d="M274.921 189.928C277.921 188.328 264.821 181.528 264.821 181.528C264.821 181.528 269.021 192.928 274.921 189.928Z" fill="#D5F794"/>
<path d="M267.021 137.928C269.121 140.728 268.721 120.228 268.721 120.228C268.721 120.228 262.821 132.528 267.021 137.928Z" fill="#D5F794"/>
<path d="M267.321 138.228C264.321 136.628 277.421 129.828 277.421 129.828C277.421 129.828 273.221 141.328 267.321 138.228Z" fill="#D5F794"/>
<path d="M268.921 138.828C272.221 139.628 263.121 126.628 263.121 126.628C263.121 126.628 260.621 136.728 268.921 138.828Z" fill="#D5F794"/>
<path d="M295.221 237.328C293.821 240.628 310.821 230.928 310.821 230.928C310.821 230.928 297.921 230.928 295.221 237.328Z" fill="#A2D152"/>
<path d="M295.121 237.728C295.121 234.128 306.721 243.528 306.721 243.528C306.721 243.528 295.221 244.728 295.121 237.728Z" fill="#A2D152"/>
<path d="M295.421 239.528C296.221 243.028 303.021 228.528 303.021 228.528C303.021 228.528 293.421 230.728 295.421 239.528Z" fill="#A2D152"/>
<path d="M191.221 299.728C189.521 303.828 210.521 291.828 210.521 291.828C210.521 291.828 194.521 291.928 191.221 299.728Z" fill="#A2D152"/>
<path d="M191.121 300.328C191.121 295.828 205.421 307.528 205.421 307.528C205.421 307.528 191.221 308.928 191.121 300.328Z" fill="#A2D152"/>
<path d="M191.421 302.528C192.421 306.828 200.821 288.928 200.821 288.928C200.821 288.928 189.021 291.628 191.421 302.528Z" fill="#A2D152"/>
<path d="M195.821 380.828C194.121 384.928 215.121 372.928 215.121 372.928C215.121 372.928 199.221 373.028 195.821 380.828Z" fill="#A2D152"/>
<path d="M195.721 381.428C195.721 376.928 210.021 388.628 210.021 388.628C210.021 388.628 195.821 390.028 195.721 381.428Z" fill="#A2D152"/>
<path d="M196.121 383.628C197.121 387.928 205.521 370.028 205.521 370.028C205.521 370.028 193.621 372.728 196.121 383.628Z" fill="#A2D152"/>
<path d="M148.421 449.128C148.421 449.128 185.821 466.428 205.521 464.128C225.221 461.728 248.221 454.928 248.221 454.928L229.021 404.928L191.221 399.928L153.521 414.828L148.421 449.128Z" fill="#C6AFA1"/>
<mask id="mask7_112_15612" style="mask-type:luminance" maskUnits="userSpaceOnUse" x="148" y="399" width="101" height="66">
<path d="M148.421 449.128C148.421 449.128 185.821 466.428 205.521 464.128C225.221 461.728 248.221 454.928 248.221 454.928L229.021 404.928L191.221 399.928L153.521 414.828L148.421 449.128Z" fill="white"/>
</mask>
<g mask="url(#mask7_112_15612)">
<path d="M229.021 404.928C229.021 404.928 192.621 426.628 188.221 425.628C183.821 424.628 153.521 414.828 153.521 414.828L138.121 455.628L198.221 480.228L269.921 454.228L229.021 404.928Z" fill="#9B7E6F"/>
</g>
<mask id="mask8_112_15612" style="mask-type:luminance" maskUnits="userSpaceOnUse" x="148" y="399" width="101" height="66">
<path d="M148.421 449.128C148.421 449.128 185.821 466.428 205.521 464.128C225.221 461.728 248.221 454.928 248.221 454.928L229.021 404.928L191.221 399.928L153.521 414.828L148.421 449.128Z" fill="white"/>
</mask>
<g mask="url(#mask8_112_15612)">
<path d="M177.521 476.328L208.721 464.328L191.121 438.728L205.521 418.228L188.221 425.628L144.021 411.428L129.521 460.628L177.521 476.328Z" fill="#7F5C4C"/>
</g>
<path d="M190.021 459.628C143.021 474.128 97.6211 475.328 54.1211 459.628C54.1211 459.628 65.5211 445.028 81.3211 441.728C81.3211 441.728 61.2211 420.028 61.5211 399.928C61.5211 399.928 92.2211 419.628 99.8211 432.328C99.8211 432.328 121.921 407.728 143.321 405.728C143.321 405.728 129.121 428.328 127.321 439.228C127.321 439.228 161.621 419.428 184.421 418.328C184.421 418.328 164.621 439.428 152.821 445.428C152.821 445.528 174.321 437.428 190.021 459.628Z" fill="url(#paint3_radial_112_15612)"/>
<path d="M256.921 65.328C256.921 65.328 183.221 2.32802 167.421 0.0280224C151.621 -2.37198 115.921 65.928 114.821 82.828L256.921 65.328Z" fill="#ED8E48"/>
<mask id="mask9_112_15612" style="mask-type:luminance" maskUnits="userSpaceOnUse" x="114" y="-1" width="143" height="84">
<path d="M256.921 65.328C256.921 65.328 183.221 2.32802 167.421 0.0280224C151.621 -2.37198 115.921 65.928 114.821 82.828L256.921 65.328Z" fill="white"/>
</mask>
<g mask="url(#mask9_112_15612)">
<path d="M125.521 42.1279C125.521 42.1279 166.421 7.42786 224.921 27.9279C224.921 27.9279 175.021 -11.0721 160.521 -7.17214C146.121 -3.17214 125.521 42.1279 125.521 42.1279Z" fill="#FFF4E3"/>
</g>
<path d="M347.321 96.4284C347.321 96.4284 356.321 65.6284 353.321 63.3284C282.621 10.2284 -6.07899 73.2284 12.621 123.728C15.421 131.228 31.621 147.428 38.321 153.128C26.821 115.928 302.421 67.7284 347.321 96.4284Z" fill="#ED8E48"/>
<mask id="mask10_112_15612" style="mask-type:luminance" maskUnits="userSpaceOnUse" x="14" y="-64" width="305" height="204">
<path d="M318.151 -28.669C318.151 -28.669 314.982 -60.6011 311.34 -61.6127C225.911 -84.4282 -18.3024 81.9492 17.9238 121.796C23.3251 127.705 44.4078 136.674 52.7533 139.455C28.1779 109.252 265.775 -38.5002 318.151 -28.669Z" fill="white"/>
</mask>
<g mask="url(#mask10_112_15612)">
<path d="M17.5853 127.108C27.5228 123.102 32.3312 111.798 28.3251 101.861C24.319 91.9232 13.0155 87.1148 3.07797 91.1209C-6.85956 95.1269 -11.668 106.43 -7.66187 116.368C-3.65578 126.306 7.64776 131.114 17.5853 127.108Z" fill="#DB5D3B"/>
</g>
<mask id="mask11_112_15612" style="mask-type:luminance" maskUnits="userSpaceOnUse" x="19" y="-15" width="323" height="168">
<path d="M340.774 25.351C340.774 25.351 342.399 -6.69477 338.949 -8.23771C257.879 -43.5263 -8.38385 84.5941 21.4983 129.391C25.9584 136.039 45.468 148.048 53.3053 152.042C33.5063 118.516 290.452 7.82597 340.774 25.351Z" fill="white"/>
</mask>
<g mask="url(#mask11_112_15612)">
<path d="M45.709 107.595C56.1319 105.114 62.5706 94.6543 60.0902 84.2314C57.6099 73.8085 47.1497 67.3698 36.7268 69.8502C26.3039 72.3306 19.8652 82.7907 22.3456 93.2136C24.826 103.637 35.2861 110.075 45.709 107.595Z" fill="#DB5D3B"/>
</g>
<mask id="mask12_112_15612" style="mask-type:luminance" maskUnits="userSpaceOnUse" x="68" y="-167" width="173" height="321">
<path d="M240.217 -143.723C240.217 -143.723 219.129 -167.907 215.574 -166.621C132.739 -135.703 30.1597 141.403 82.7719 152.878C90.5979 154.564 112.975 149.653 121.387 147.083C83.858 136.714 191.84 -121.381 240.217 -143.723Z" fill="white"/>
</mask>
<g mask="url(#mask12_112_15612)">
<path d="M90.6842 84.6878C96.4603 75.6642 93.8277 63.6666 84.8041 57.8906C75.7805 52.1145 63.783 54.7471 58.0069 63.7707C52.2308 72.7943 54.8634 84.7918 63.887 90.5679C72.9106 96.344 84.9081 93.7114 90.6842 84.6878Z" fill="#DB5D3B"/>
</g>
<mask id="mask13_112_15612" style="mask-type:luminance" maskUnits="userSpaceOnUse" x="97" y="-150" width="157" height="328">
<path d="M253.755 -128.415C253.755 -128.415 231.284 -151.322 227.811 -149.829C146.928 -114.105 60.773 168.551 113.97 176.922C121.881 178.145 143.933 171.931 152.18 168.872C114.106 160.721 206.77 -103.273 253.755 -128.415Z" fill="white"/>
</mask>
<g mask="url(#mask13_112_15612)">
<path d="M125.611 73.2875C130.848 63.9403 127.516 52.1173 118.169 46.8802C108.822 41.643 96.9992 44.9748 91.762 54.322C86.5249 63.6692 89.8567 75.4921 99.2039 80.7293C108.551 85.9665 120.374 82.6346 125.611 73.2875Z" fill="#DB5D3B"/>
</g>
<mask id="mask14_112_15612" style="mask-type:luminance" maskUnits="userSpaceOnUse" x="109" y="-112" width="186" height="314">
<path d="M294.993 -86.9279C294.993 -86.9279 275.159 -112.153 271.543 -111.048C187.24 -84.3744 70.7166 187.185 122.682 201.318C130.413 203.398 153.012 199.63 161.545 197.49C124.587 185.228 245.541 -67.0687 294.993 -86.9279Z" fill="white"/>
</mask>
<g mask="url(#mask14_112_15612)">
<path d="M158.839 66.8937C165.066 58.1744 163.045 46.0579 154.326 39.8307C145.607 33.6035 133.49 35.6238 127.263 44.3431C121.036 53.0624 123.056 65.179 131.776 71.4061C140.495 77.6333 152.611 75.613 158.839 66.8937Z" fill="#DB5D3B"/>
</g>
<mask id="mask15_112_15612" style="mask-type:luminance" maskUnits="userSpaceOnUse" x="49" y="-6" width="304" height="205">
<path d="M352.782 29.9521C352.782 29.9521 349.513 -1.96914 345.867 -2.96923C260.37 -25.516 16.6856 141.623 53.0358 181.355C58.4554 187.247 79.5657 196.149 87.9196 198.905C63.2502 168.779 300.377 20.2856 352.782 29.9521Z" fill="white"/>
</mask>
<g mask="url(#mask15_112_15612)">
<path d="M187.429 67.2018C197.354 63.1647 202.127 51.8463 198.09 41.9217C194.053 31.997 182.734 27.2242 172.81 31.2614C162.885 35.2985 158.112 46.6168 162.149 56.5415C166.186 66.4662 177.505 71.239 187.429 67.2018Z" fill="#DB5D3B"/>
</g>
<mask id="mask16_112_15612" style="mask-type:luminance" maskUnits="userSpaceOnUse" x="33" y="25" width="323" height="167">
<path d="M354.83 65.1015C354.83 65.1015 356.455 33.0557 353.004 31.5128C271.934 -3.77585 5.67133 124.345 35.5534 169.142C40.0135 175.79 59.5232 187.799 67.3605 191.793C47.5615 158.267 304.507 47.5765 354.83 65.1015Z" fill="white"/>
</mask>
<g mask="url(#mask16_112_15612)">
<path d="M222.106 67.5968C232.529 65.1164 238.968 54.6563 236.487 44.2334C234.007 33.8105 223.547 27.3718 213.124 29.8522C202.701 32.3325 196.262 42.7927 198.743 53.2156C201.223 63.6385 211.683 70.0772 222.106 67.5968Z" fill="#DB5D3B"/>
</g>
<mask id="mask17_112_15612" style="mask-type:luminance" maskUnits="userSpaceOnUse" x="34" y="34" width="323" height="167">
<path d="M356.195 73.6301C356.195 73.6301 357.781 41.5828 354.328 40.0441C273.216 4.85625 7.11533 133.304 37.0524 178.064C41.5207 184.706 61.0449 196.691 68.8871 200.675C49.0469 167.174 305.852 56.1675 356.195 73.6301Z" fill="white"/>
</mask>
<g mask="url(#mask17_112_15612)">
<path d="M259.62 66.2015C270.04 63.7083 276.465 53.2403 273.972 42.8207C271.479 32.401 261.011 25.9753 250.591 28.4685C240.171 30.9618 233.746 41.4297 236.239 51.8494C238.732 62.2691 249.2 68.6948 259.62 66.2015Z" fill="#DB5D3B"/>
</g>
<mask id="mask18_112_15612" style="mask-type:luminance" maskUnits="userSpaceOnUse" x="11" y="43" width="343" height="111">
<path d="M347.321 96.4284C347.321 96.4284 356.321 65.6284 353.321 63.3284C282.621 10.2284 -6.07899 73.2284 12.621 123.728C15.421 131.228 31.621 147.428 38.321 153.128C26.821 115.928 302.421 67.7284 347.321 96.4284Z" fill="white"/>
</mask>
<g mask="url(#mask18_112_15612)">
<path d="M311.021 47.3283C312.421 56.2283 305.021 64.8283 294.521 66.5283C283.921 68.2283 274.221 62.4283 272.821 53.5283C271.421 44.6283 278.821 36.0283 289.321 34.3283C299.921 32.6283 309.621 38.5283 311.021 47.3283Z" fill="#DB5D3B"/>
</g>
<mask id="mask19_112_15612" style="mask-type:luminance" maskUnits="userSpaceOnUse" x="11" y="43" width="343" height="111">
<path d="M347.321 96.4284C347.321 96.4284 356.321 65.6284 353.321 63.3284C282.621 10.2284 -6.07899 73.2284 12.621 123.728C15.421 131.228 31.621 147.428 38.321 153.128C26.821 115.928 302.421 67.7284 347.321 96.4284Z" fill="white"/>
</mask>
<g mask="url(#mask19_112_15612)">
<path d="M345.721 50.2283C347.121 59.1283 339.721 67.7283 329.221 69.4283C318.621 71.1283 308.921 65.3283 307.521 56.4283C306.121 47.5283 313.521 38.9283 324.021 37.2283C334.521 35.4283 344.321 41.3283 345.721 50.2283Z" fill="#DB5D3B"/>
</g>
<mask id="mask20_112_15612" style="mask-type:luminance" maskUnits="userSpaceOnUse" x="24" y="54" width="331" height="149">
<path d="M352.668 97.7632C352.668 97.7632 356.682 65.9275 353.356 64.1311C275.147 22.8849 0.0509779 130.763 26.5045 177.669C30.4557 184.631 49.0144 198.064 56.5317 202.633C39.2916 167.721 303.794 76.528 352.668 97.7632Z" fill="white"/>
</mask>
<g mask="url(#mask20_112_15612)">
<path d="M361.002 79.6163C371.582 77.9212 379.003 69.3414 377.579 60.4526C376.155 51.5637 366.424 45.732 355.845 47.427C345.266 49.122 337.844 57.7019 339.268 66.5907C340.692 75.4795 350.423 81.3113 361.002 79.6163Z" fill="#DB5D3B"/>
</g>
<mask id="mask21_112_15612" style="mask-type:luminance" maskUnits="userSpaceOnUse" x="11" y="43" width="343" height="111">
<path d="M347.321 96.4284C347.321 96.4284 356.321 65.6284 353.321 63.3284C282.621 10.2284 -6.07899 73.2284 12.621 123.728C15.421 131.228 31.621 147.428 38.321 153.128C26.821 115.928 302.421 67.7284 347.321 96.4284Z" fill="white"/>
</mask>
<g mask="url(#mask21_112_15612)">
<path d="M10.8209 124.428C10.8209 124.428 -17.379 77.8284 179.521 46.3284C376.421 14.8284 364.921 75.2284 364.921 75.2284C364.921 75.2284 335.321 30.9284 181.021 55.6284C26.7209 80.3284 19.5209 100.828 11.4209 123.928" fill="#FFF4E3"/>
</g>
<mask id="mask22_112_15612" style="mask-type:luminance" maskUnits="userSpaceOnUse" x="11" y="43" width="343" height="111">
<path d="M347.321 96.4284C347.321 96.4284 356.321 65.6284 353.321 63.3284C282.621 10.2284 -6.07899 73.2284 12.621 123.728C15.421 131.228 31.621 147.428 38.321 153.128C26.821 115.928 302.421 67.7284 347.321 96.4284Z" fill="white"/>
</mask>
<g mask="url(#mask22_112_15612)">
<path d="M34.021 160.128C34.021 160.128 17.721 147.728 18.121 140.328C18.521 132.928 83.721 100.528 187.921 82.3282C292.021 64.1282 341.021 80.0282 363.721 97.3282C386.521 114.528 334.921 158.628 334.921 158.628C334.921 158.628 210.321 209.228 208.521 209.228C206.721 209.328 34.021 160.128 34.021 160.128Z" fill="#FFE9C5"/>
</g>
<path d="M132.021 157.328C132.021 157.328 135.521 180.428 147.621 162.228C162.521 139.928 197.021 202.228 221.121 177.928C206.021 229.228 157.121 215.528 139.821 185.628C139.821 185.628 131.521 210.728 104.821 203.528C74.6212 195.428 74.7212 158.828 74.7212 158.828C74.7212 158.828 107.921 179.128 132.021 157.328Z" fill="#543012"/>
<mask id="mask23_112_15612" style="mask-type:luminance" maskUnits="userSpaceOnUse" x="74" y="157" width="148" height="56">
<path d="M132.021 157.328C132.021 157.328 135.521 180.428 147.621 162.228C162.521 139.928 197.021 202.228 221.121 177.928C206.021 229.228 157.121 215.528 139.821 185.628C139.821 185.628 131.521 210.728 104.821 203.528C74.6212 195.428 74.7212 158.828 74.7212 158.828C74.7212 158.828 107.921 179.128 132.021 157.328Z" fill="white"/>
</mask>
<g mask="url(#mask23_112_15612)">
<path d="M74.7211 158.828C74.7211 158.828 93.8211 212.828 137.621 178.928C137.621 178.928 162.921 197.928 182.221 184.028C182.221 184.028 181.621 189.028 178.721 191.728C178.721 191.728 209.721 200.928 218.021 186.628L209.221 215.728L113.721 217.328L80.4211 208.228L69.4211 185.728L72.5211 165.528L74.7211 158.828Z" fill="#351D0B"/>
</g>
<path d="M219.121 372.228L217.921 358.928C217.921 358.928 224.621 357.228 224.721 354.728C224.821 352.328 223.321 342.528 220.821 342.128C218.421 341.728 198.321 339.828 186.121 350.528C186.121 350.528 186.121 362.428 189.221 363.528C190.721 364.128 195.821 364.428 195.821 364.428L199.821 374.428L219.121 372.228Z" fill="#F49540"/>
<mask id="mask24_112_15612" style="mask-type:luminance" maskUnits="userSpaceOnUse" x="186" y="341" width="39" height="34">
<path d="M219.121 372.228L217.921 358.928C217.921 358.928 224.621 357.228 224.721 354.728C224.821 352.328 223.321 342.528 220.821 342.128C218.421 341.728 198.321 339.828 186.121 350.528C186.121 350.528 186.121 362.428 189.221 363.528C190.721 364.128 195.821 364.428 195.821 364.428L199.821 374.428L219.121 372.228Z" fill="white"/>
</mask>
<g mask="url(#mask24_112_15612)">
<path d="M213.021 347.128C213.021 353.528 208.821 358.728 203.521 358.728C198.221 358.728 194.021 353.628 193.921 347.228C193.821 340.828 198.121 335.628 203.421 335.628C208.721 335.628 213.021 340.728 213.021 347.128Z" fill="#F9B480"/>
</g>
<mask id="mask25_112_15612" style="mask-type:luminance" maskUnits="userSpaceOnUse" x="183" y="340" width="40" height="36">
<path d="M220.42 369.832L216.566 357.046C216.566 357.046 222.786 354.032 222.381 351.563C221.995 349.192 218.552 339.895 216.023 340.007C213.592 340.098 193.521 342.285 183.726 355.223C183.726 355.223 186.123 366.879 189.381 367.332C190.971 367.618 196.027 366.885 196.027 366.885L201.959 375.874L220.42 369.832Z" fill="white"/>
</mask>
<g mask="url(#mask25_112_15612)">
<path d="M210.313 375.79C222.539 373.276 231.431 366.283 230.174 360.17C228.917 354.057 217.987 351.139 205.761 353.653C193.536 356.167 184.644 363.16 185.901 369.273C187.157 375.386 198.087 378.303 210.313 375.79Z" fill="#BA6825"/>
</g>
<mask id="mask26_112_15612" style="mask-type:luminance" maskUnits="userSpaceOnUse" x="186" y="341" width="39" height="34">
<path d="M219.121 372.228L217.921 358.928C217.921 358.928 224.621 357.228 224.721 354.728C224.821 352.328 223.321 342.528 220.821 342.128C218.421 341.728 198.321 339.828 186.121 350.528C186.121 350.528 186.121 362.428 189.221 363.528C190.721 364.128 195.821 364.428 195.821 364.428L199.821 374.428L219.121 372.228Z" fill="white"/>
</mask>
<g mask="url(#mask26_112_15612)">
<path d="M192.421 354.728C192.421 355.628 189.821 356.328 186.621 356.328C183.421 356.328 180.821 355.628 180.821 354.728C180.821 353.828 183.421 353.128 186.621 353.128C189.921 353.128 192.421 353.828 192.421 354.728Z" fill="#BA6825"/>
</g>
<mask id="mask27_112_15612" style="mask-type:luminance" maskUnits="userSpaceOnUse" x="186" y="341" width="39" height="34">
<path d="M219.121 372.228L217.921 358.928C217.921 358.928 224.621 357.228 224.721 354.728C224.821 352.328 223.321 342.528 220.821 342.128C218.421 341.728 198.321 339.828 186.121 350.528C186.121 350.528 186.121 362.428 189.221 363.528C190.721 364.128 195.821 364.428 195.821 364.428L199.821 374.428L219.121 372.228Z" fill="white"/>
</mask>
<g mask="url(#mask27_112_15612)">
<path d="M215.421 344.228C215.921 345.428 214.021 347.428 211.121 348.728C208.221 350.028 205.421 350.028 204.921 348.828C204.421 347.628 206.321 345.628 209.221 344.328C212.121 343.028 214.921 343.028 215.421 344.228Z" fill="#BA6825"/>
</g>
<mask id="mask28_112_15612" style="mask-type:luminance" maskUnits="userSpaceOnUse" x="186" y="341" width="39" height="34">
<path d="M219.121 372.228L217.921 358.928C217.921 358.928 224.621 357.228 224.721 354.728C224.821 352.328 223.321 342.528 220.821 342.128C218.421 341.728 198.321 339.828 186.121 350.528C186.121 350.528 186.121 362.428 189.221 363.528C190.721 364.128 195.821 364.428 195.821 364.428L199.821 374.428L219.121 372.228Z" fill="white"/>
</mask>
<g mask="url(#mask28_112_15612)">
<path d="M202.421 345.628C202.921 346.828 202.021 348.428 200.221 349.128C198.521 349.928 196.721 349.528 196.121 348.328C195.621 347.128 196.521 345.528 198.321 344.828C200.121 344.028 201.921 344.428 202.421 345.628Z" fill="#BA6825"/>
</g>
<mask id="mask29_112_15612" style="mask-type:luminance" maskUnits="userSpaceOnUse" x="186" y="341" width="39" height="34">
<path d="M219.121 372.228L217.921 358.928C217.921 358.928 224.621 357.228 224.721 354.728C224.821 352.328 223.321 342.528 220.821 342.128C218.421 341.728 198.321 339.828 186.121 350.528C186.121 350.528 186.121 362.428 189.221 363.528C190.721 364.128 195.821 364.428 195.821 364.428L199.821 374.428L219.121 372.228Z" fill="white"/>
</mask>
<g mask="url(#mask29_112_15612)">
<path d="M217.421 347.128C218.121 346.328 219.621 346.528 220.721 347.628C221.821 348.628 222.121 350.128 221.421 350.928C220.721 351.728 219.221 351.528 218.121 350.428C217.021 349.328 216.721 347.928 217.421 347.128Z" fill="#BA6825"/>
</g>
<path d="M203.021 402.728L196.721 370.128C192.221 368.228 195.921 365.728 195.921 365.728C195.821 363.928 225.921 356.128 219.821 365.628L227.121 402.528L203.021 402.728Z" fill="#B6DDD9"/>
<mask id="mask30_112_15612" style="mask-type:luminance" maskUnits="userSpaceOnUse" x="194" y="361" width="34" height="42">
<path d="M203.021 402.728L196.721 370.128C192.221 368.228 195.921 365.728 195.921 365.728C195.821 363.928 225.921 356.128 219.821 365.628L227.121 402.528L203.021 402.728Z" fill="white"/>
</mask>
<g mask="url(#mask30_112_15612)">
<path d="M216.021 366.028C216.021 366.028 204.221 365.328 195.621 370.628C195.621 370.628 200.421 369.228 201.421 370.228C202.421 371.328 205.121 382.028 204.421 383.028C203.721 384.028 215.621 380.228 215.621 380.228C215.621 380.228 210.821 379.628 209.921 371.828C209.221 366.928 216.021 366.028 216.021 366.028Z" fill="#769995"/>
</g>
<mask id="mask31_112_15612" style="mask-type:luminance" maskUnits="userSpaceOnUse" x="194" y="361" width="34" height="42">
<path d="M203.021 402.728L196.721 370.128C192.221 368.228 195.921 365.728 195.921 365.728C195.821 363.928 225.921 356.128 219.821 365.628L227.121 402.528L203.021 402.728Z" fill="white"/>
</mask>
<g mask="url(#mask31_112_15612)">
<path d="M212.921 361.228C212.921 361.228 219.221 361.928 216.021 366.128C216.021 366.128 220.221 378.428 221.221 380.028C222.221 381.628 229.221 375.628 229.221 375.628L226.921 358.828L212.921 361.228Z" fill="#EEFFFD"/>
</g>
<path d="M226.921 377.228C216.521 378.128 202.821 379.928 190.621 383.328C181.821 385.828 176.421 394.628 178.121 403.628L191.021 471.028C192.021 476.328 197.021 480.028 202.421 479.328C214.721 477.828 236.221 474.928 251.321 470.428C256.421 468.928 259.521 463.828 258.521 458.628L245.821 391.628C244.121 382.628 235.921 376.428 226.921 377.228Z" fill="#B6DDD9"/>
<mask id="mask32_112_15612" style="mask-type:luminance" maskUnits="userSpaceOnUse" x="177" y="377" width="82" height="103">
<path d="M226.921 377.228C216.521 378.128 202.821 379.928 190.621 383.328C181.821 385.828 176.421 394.628 178.121 403.628L191.021 471.028C192.021 476.328 197.021 480.028 202.421 479.328C214.721 477.828 236.221 474.928 251.321 470.428C256.421 468.928 259.521 463.828 258.521 458.628L245.821 391.628C244.121 382.628 235.921 376.428 226.921 377.228Z" fill="white"/>
</mask>
<g mask="url(#mask32_112_15612)">
<path d="M179.521 392.528C179.521 392.528 189.321 382.028 216.421 381.928C226.421 381.928 241.121 454.828 240.521 459.028C239.921 463.228 219.521 469.228 219.521 469.228C219.521 469.228 244.021 459.428 258.621 461.928C258.621 461.928 248.821 459.828 248.121 457.628C247.521 455.428 227.821 381.828 229.021 380.228C230.221 378.628 238.421 380.328 238.421 380.328C238.421 380.328 235.021 374.628 228.821 374.228C222.621 373.828 178.821 374.228 174.321 382.128C169.821 389.928 179.521 392.528 179.521 392.528Z" fill="#EEFFFD"/>
</g>
<mask id="mask33_112_15612" style="mask-type:luminance" maskUnits="userSpaceOnUse" x="177" y="377" width="82" height="103">
<path d="M226.921 377.228C216.521 378.128 202.821 379.928 190.621 383.328C181.821 385.828 176.421 394.628 178.121 403.628L191.021 471.028C192.021 476.328 197.021 480.028 202.421 479.328C214.721 477.828 236.221 474.928 251.321 470.428C256.421 468.928 259.521 463.828 258.521 458.628L245.821 391.628C244.121 382.628 235.921 376.428 226.921 377.228Z" fill="white"/>
</mask>
<g mask="url(#mask33_112_15612)">
<path d="M172.221 394.028C197.421 388.828 189.921 465.628 199.621 473.328C202.921 476.028 222.121 467.628 231.121 465.428C240.121 463.228 255.221 458.028 260.321 463.328C265.421 468.728 202.321 494.428 186.221 492.128C170.121 489.928 164.121 434.028 164.121 434.028L172.221 394.028Z" fill="#769995"/>
<mask id="mask34_112_15612" style="mask-type:luminance" maskUnits="userSpaceOnUse" x="164" y="393" width="97" height="100">
<path d="M172.221 394.028C197.421 388.828 189.921 465.628 199.621 473.328C202.921 476.028 222.121 467.628 231.121 465.428C240.121 463.228 255.221 458.028 260.321 463.328C265.421 468.728 202.321 494.428 186.221 492.128C170.121 489.928 164.121 434.028 164.121 434.028L172.221 394.028Z" fill="white"/>
</mask>
<g mask="url(#mask34_112_15612)">
<path d="M264.221 497.128C265.521 504.028 254.321 509.528 235.721 512.528C217.121 515.428 203.421 519.728 199.721 518.628C196.021 517.428 170.321 451.728 172.421 440.828C174.521 429.728 256.721 458.128 264.221 497.128Z" fill="#5B7C7A"/>
</g>
</g>
<mask id="mask35_112_15612" style="mask-type:luminance" maskUnits="userSpaceOnUse" x="177" y="377" width="82" height="103">
<path d="M226.921 377.228C216.521 378.128 202.821 379.928 190.621 383.328C181.821 385.828 176.421 394.628 178.121 403.628L191.021 471.028C192.021 476.328 197.021 480.028 202.421 479.328C214.721 477.828 236.221 474.928 251.321 470.428C256.421 468.928 259.521 463.828 258.521 458.628L245.821 391.628C244.121 382.628 235.921 376.428 226.921 377.228Z" fill="white"/>
</mask>
<g mask="url(#mask35_112_15612)">
<path d="M235.121 400.328C235.121 400.328 210.621 404.528 197.521 408.728L208.221 458.828C208.221 458.828 241.021 453.128 246.221 450.428L235.121 400.328Z" fill="#DB5D3B"/>
<mask id="mask36_112_15612" style="mask-type:luminance" maskUnits="userSpaceOnUse" x="197" y="400" width="50" height="59">
<path d="M234.985 400.214C234.985 400.214 210.502 404.512 197.419 408.765L208.321 458.822C208.321 458.822 241.098 452.99 246.287 450.269L234.985 400.214Z" fill="white"/>
</mask>
<g mask="url(#mask36_112_15612)">
<path d="M206.021 483.831C222.811 483.764 236.333 461.637 236.223 434.409C236.114 407.181 222.414 385.164 205.625 385.231C188.835 385.299 175.314 407.426 175.423 434.654C175.533 461.881 189.232 483.899 206.021 483.831Z" fill="#AF3828"/>
</g>
<mask id="mask37_112_15612" style="mask-type:luminance" maskUnits="userSpaceOnUse" x="197" y="400" width="50" height="59">
<path d="M235.121 400.328C235.121 400.328 210.621 404.528 197.521 408.728L208.221 458.828C208.221 458.828 241.021 453.128 246.221 450.428L235.121 400.328Z" fill="white"/>
</mask>
<g mask="url(#mask37_112_15612)">
<path d="M234.021 403.428L201.221 410.828L209.921 454.928L243.721 448.128L234.021 403.428Z" fill="#EF843C"/>
<mask id="mask38_112_15612" style="mask-type:luminance" maskUnits="userSpaceOnUse" x="201" y="403" width="43" height="52">
<path d="M234.021 403.428L201.221 410.828L209.921 454.928L243.721 448.128L234.021 403.428Z" fill="white"/>
</mask>
<g mask="url(#mask38_112_15612)">
<path d="M216.821 429.728C216.921 453.128 225.521 472.128 235.921 472.028C246.421 472.028 254.821 452.928 254.721 429.528C254.621 406.128 246.021 387.128 235.621 387.228C225.121 387.328 216.721 406.328 216.821 429.728Z" fill="url(#paint4_radial_112_15612)"/>
</g>
</g>
<path d="M226.521 403.328C226.521 405.828 223.821 405.628 221.321 405.628C218.821 405.628 217.521 405.828 217.521 403.428C217.521 400.928 219.521 398.928 222.021 398.928C224.521 398.828 226.521 400.828 226.521 403.328Z" fill="#AF3828"/>
<path d="M220.321 400.428C220.321 402.928 218.321 404.928 215.821 404.928C213.321 404.928 211.321 402.928 211.321 400.428C211.321 397.928 213.321 395.928 215.821 395.928C218.321 395.928 220.321 397.928 220.321 400.428Z" fill="#AF3828"/>
<path d="M215.321 405.828C215.321 408.328 212.921 407.828 210.421 407.828C207.921 407.828 206.321 408.328 206.321 405.928C206.321 403.428 208.321 401.428 210.821 401.428C213.321 401.428 215.321 403.428 215.321 405.828Z" fill="#AF3828"/>
</g>
</g>
<defs>
<radialGradient id="paint0_radial_112_15612" cx="0" cy="0" r="1" gradientUnits="userSpaceOnUse" gradientTransform="translate(97.6495 295.854) rotate(-16.4578) scale(75.017 79.7646)">
<stop offset="0.1273" stop-color="#124F23"/>
<stop offset="0.8372" stop-color="#387A29"/>
</radialGradient>
<radialGradient id="paint1_radial_112_15612" cx="0" cy="0" r="1" gradientUnits="userSpaceOnUse" gradientTransform="translate(131.715 453.164) rotate(180) scale(466.662 496.155)">
<stop offset="0.1273" stop-color="#124F23"/>
<stop offset="0.1751" stop-color="#175524"/>
<stop offset="0.4274" stop-color="#2F7028"/>
<stop offset="0.5757" stop-color="#387A29"/>
<stop offset="0.8627" stop-color="#68AF3E"/>
</radialGradient>
<radialGradient id="paint2_radial_112_15612" cx="0" cy="0" r="1" gradientUnits="userSpaceOnUse" gradientTransform="translate(273.967 223.738) rotate(180) scale(94.7633 100.752)">
<stop offset="0.1273" stop-color="#124F23"/>
<stop offset="0.8372" stop-color="#387A29"/>
</radialGradient>
<radialGradient id="paint3_radial_112_15612" cx="0" cy="0" r="1" gradientUnits="userSpaceOnUse" gradientTransform="translate(118.504 404.238) rotate(90) scale(100.906 184.862)">
<stop stop-color="#52D88C"/>
<stop offset="0.0797973" stop-color="#4DC383"/>
<stop offset="0.2789" stop-color="#42946E"/>
<stop offset="0.4554" stop-color="#3A725F"/>
<stop offset="0.6007" stop-color="#355E56"/>
<stop offset="0.697" stop-color="#335653"/>
</radialGradient>
<radialGradient id="paint4_radial_112_15612" cx="0" cy="0" r="1" gradientUnits="userSpaceOnUse" gradientTransform="translate(250.635 437.772) rotate(179.771) scale(71.8616)">
<stop offset="0.1237" stop-color="#FFFBF0"/>
<stop offset="0.2544" stop-color="#FFE9A1"/>
<stop offset="0.4144" stop-color="#FDE28B"/>
<stop offset="0.4965" stop-color="#FCDE7E"/>
<stop offset="0.5447" stop-color="#FBD276"/>
<stop offset="0.7634" stop-color="#F8A155"/>
<stop offset="0.8717" stop-color="#F78E48"/>
</radialGradient>
<clipPath id="clip0_112_15612">
<rect width="367" height="479" fill="white"/>
</clipPath>
</defs>
</svg>
