<svg width="40" height="40" viewBox="0 0 40 40" fill="none" xmlns="http://www.w3.org/2000/svg">
<g clip-path="url(#clip0_234_16684)">
<rect width="40" height="40" rx="20" fill="white"/>
<path d="M9.54002 25.601L9.22415 46.7771C6.83596 46.9997 4.61288 46.9758 2.9019 46.1856C2.6985 46.0923 2.57885 45.8792 2.5956 45.6589L2.75593 43.5686L2.77747 43.2836C1.77242 43.0274 2.72961 32.6381 6.31429 27.8756C7.22123 26.676 8.29328 25.8308 9.54002 25.601Z" fill="#FFCC3E"/>
<g opacity="0.6">
<path d="M3.69397 46.188C3.49057 46.0947 3.37092 45.8816 3.38767 45.6613L3.548 43.571C3.59107 43.5446 3.63415 43.5159 3.67722 43.4896C3.59347 43.3962 3.47382 43.2501 3.36374 43.0562C2.87557 42.199 3.02633 41.2771 3.09333 40.8366C3.59107 37.652 2.88275 39.9889 3.59825 36.8954C4.22282 34.1969 4.53391 32.8488 5.13454 31.1632C6.33821 27.7871 7.16858 26.9873 7.86733 26.53C8.50386 26.1158 9.12364 25.929 9.53523 25.838L9.53762 25.5986C8.28849 25.8308 7.21883 26.6737 6.31428 27.8733C2.73199 32.6381 1.7748 43.0298 2.77985 43.2836L2.75832 43.5686L2.59799 45.6589C2.58124 45.8816 2.70089 46.0923 2.90429 46.1856C4.14385 46.7579 5.65382 46.9279 7.30019 46.892C5.96012 46.8633 4.73252 46.6669 3.69397 46.188Z" fill="white"/>
</g>
<path d="M6.91252 47.2606C5.48391 47.2606 4.00266 47.0906 2.75353 46.5135C2.41851 46.3579 2.21271 46.0035 2.24143 45.6324L2.40894 43.4582C2.17443 43.1925 2.00213 42.558 2.05478 40.9944C2.12417 38.8754 2.64824 35.1952 3.89498 31.7975C4.88567 29.0966 6.65647 25.7708 9.4754 25.2464C9.58069 25.2273 9.69077 25.256 9.77213 25.3254C9.85349 25.3949 9.90135 25.4978 9.89896 25.6056L9.58308 46.7841C9.58069 46.9684 9.43951 47.1193 9.25764 47.136C8.53017 47.2031 7.73092 47.2606 6.91252 47.2606ZM2.93539 42.9578C3.06701 43.0201 3.15076 43.1589 3.1388 43.3098L2.95693 45.685C2.95214 45.7593 2.99043 45.8287 3.05504 45.8574C4.41186 46.4848 6.21617 46.6667 8.87237 46.4465L9.17628 26.0629C6.93884 26.7788 5.44802 29.6569 4.57698 32.0202C3.80883 34.1057 3.2058 36.6821 2.92343 39.0885C2.63388 41.5547 2.79899 42.7327 2.93539 42.9578Z" fill="#242424"/>
<path d="M31.2132 25.601L31.5291 46.7771C33.9173 46.9997 36.1403 46.9758 37.8513 46.1856C38.0547 46.0923 38.1744 45.8792 38.1576 45.6589L37.9973 43.5686L37.9757 43.2836C38.9808 43.0274 38.0236 32.6381 34.4389 27.8756C33.5344 26.676 32.4623 25.8308 31.2132 25.601Z" fill="#FFCC3E"/>
<g opacity="0.6">
<path d="M37.0616 46.188C37.265 46.0946 37.3847 45.8815 37.3679 45.6613L37.2076 43.5709C37.1645 43.5446 37.1215 43.5159 37.0784 43.4895C37.1621 43.3962 37.2818 43.2501 37.3919 43.0561C37.88 42.2013 37.7293 41.2795 37.6623 40.8389C37.1669 37.652 37.8753 39.9913 37.1574 36.8954C36.5328 34.1969 36.2217 32.8488 35.6211 31.1655C34.4174 27.7894 33.587 26.9897 32.8883 26.5324C32.2518 26.1181 31.632 25.9314 31.2204 25.8404L31.218 25.601C32.4671 25.8332 33.5368 26.676 34.4413 27.8756C38.026 32.6381 38.9832 43.0298 37.9781 43.2836L37.9997 43.5686L38.16 45.6589C38.1768 45.8815 38.0571 46.0923 37.8537 46.1856C36.6142 46.7579 35.1042 46.9279 33.4578 46.892C34.7955 46.8632 36.0231 46.6669 37.0616 46.188Z" fill="white"/>
</g>
<path d="M33.8431 47.2606C33.0247 47.2606 32.2231 47.2055 31.4956 47.136C31.3137 47.1193 31.1725 46.966 31.1701 46.7841L30.8543 25.6056C30.8519 25.4978 30.8997 25.3949 30.9811 25.3254C31.0625 25.256 31.1725 25.2273 31.2778 25.2464C34.0968 25.7684 35.87 29.0966 36.8606 31.7975C38.1074 35.1952 38.6315 38.8754 38.7008 40.9944C38.7511 42.5603 38.5812 43.1949 38.3491 43.4582L38.5166 45.6324C38.5453 46.0035 38.3395 46.3579 38.0045 46.5135C36.753 47.0882 35.2717 47.2606 33.8431 47.2606ZM31.8833 46.4489C34.5395 46.6715 36.3438 46.4872 37.7006 45.8598C37.7652 45.8311 37.8035 45.7593 37.7987 45.6874L37.6168 43.3122C37.6049 43.1613 37.6886 43.0225 37.8202 42.9602C37.9542 42.7327 38.1194 41.5547 37.8298 39.0909C37.5474 36.6845 36.9444 34.1081 36.1763 32.0226C35.3052 29.6569 33.8168 26.7788 31.577 26.0629L31.8833 46.4489Z" fill="#242424"/>
<path d="M32.6871 30.7167C33.8016 39.3127 34.4754 47.2045 31.8731 49.9011C32.6695 53.0262 28.3641 54.7279 20.3016 54.7279H20.4068C12.3444 54.7279 8.03895 53.0262 8.83542 49.9011C6.2331 47.2045 6.90685 39.3127 8.02141 30.7167L9.00323 24.4889L31.4773 24.7145L32.6871 30.7167Z" fill="#FFCC3E"/>
<g opacity="0.6">
<path d="M32.6871 30.7164C32.5142 29.9746 32.3464 29.2203 32.1861 28.4484C31.9181 27.1728 31.6827 25.9272 31.4773 24.7143C27.6377 24.6742 23.7981 24.6366 19.9585 24.599L31.5349 25.4912C31.9181 27.2329 32.3038 28.9747 32.6871 30.7164C32.1511 33.5459 32.2212 35.7964 32.394 37.3627C32.5894 39.1145 32.92 40.0417 32.9776 42.3374C33.0402 44.8335 32.6495 46.4048 32.5593 46.7682C32.1636 48.3846 31.5675 49.6452 31.0966 50.4873C31.0791 50.8081 31.014 51.3469 30.7209 51.9083C29.7992 53.665 27.4874 53.9858 27.5175 54.0735C27.5475 54.1638 30.1524 54.1161 31.332 52.229C31.8981 51.3218 31.9006 50.367 31.8705 49.9033C33.2606 46.8158 33.6088 44.2671 33.6714 42.5228C33.7089 41.4928 33.6463 40.756 33.1855 35.9392C33.0527 34.5182 32.8849 32.7539 32.6871 30.7164Z" fill="white"/>
</g>
<path d="M32.8674 30.6942C33.2832 32.2881 33.3909 33.9246 33.5962 35.5511C33.9619 39.4155 34.9387 47.177 32.141 50.1618L32.2337 49.8084C32.5042 50.7858 32.2362 51.881 31.5024 52.5927C29.6965 54.3796 26.2652 54.758 23.8357 54.9786C22.656 55.0663 21.4763 55.1039 20.2966 55.1039V54.352H20.4018C20.6097 54.352 20.7775 54.5199 20.7775 54.7279C20.7775 54.936 20.6097 55.1039 20.4018 55.1039C19.2221 55.1014 18.0425 55.0663 16.8628 54.9786C14.2279 54.7455 8.6676 54.1566 8.36704 50.7958C8.34701 50.4575 8.38959 50.1242 8.46472 49.8084L8.5574 50.1618C5.73718 47.192 6.69144 39.418 7.06463 35.5461C7.24747 33.9146 7.43782 32.2881 7.84608 30.6942C7.86862 30.6015 7.9638 30.5463 8.05647 30.5714C8.13411 30.5914 8.18671 30.6616 8.18671 30.7393C8.15165 33.2003 7.75842 35.6112 7.61565 38.0572C7.43532 41.1999 6.95192 47.2196 9.10341 49.6405C9.19357 49.7408 9.22363 49.8736 9.19608 49.9939C8.9932 50.7407 9.18105 51.5276 9.73958 52.0715C11.3876 53.6754 14.6912 54.0262 16.9204 54.2292C18.0775 54.3144 19.2397 54.352 20.4018 54.352V55.1039H20.2966C20.0887 55.1039 19.9209 54.936 19.9209 54.7279C19.9209 54.5199 20.0887 54.352 20.2966 54.352C21.4588 54.3495 22.6234 54.3144 23.7781 54.2292C26.0823 54.0363 32.3339 53.3897 31.5024 49.9939C31.4723 49.8636 31.5124 49.7307 31.595 49.6405C32.0935 49.1042 32.4316 48.3975 32.6645 47.6532C33.3433 45.345 33.3207 42.8915 33.2531 40.4881C33.1679 38.0522 32.935 35.6112 32.667 33.1853C32.5744 32.3758 32.4892 31.5638 32.4992 30.7393C32.4992 30.6365 32.5844 30.5564 32.6846 30.5564C32.7747 30.5589 32.8474 30.6165 32.8674 30.6942Z" fill="#242424"/>
<path d="M23.1789 33.4964C23.1526 33.3051 22.9664 33.1834 22.7825 33.2291C21.7473 33.4759 20.7077 33.4412 19.7504 33.1765C19.5482 33.1206 19.336 33.2466 19.2978 33.4568L19.1803 34.1031C19.156 34.2372 19.2359 34.3679 19.3645 34.4045C19.4764 34.4363 19.5954 34.3879 19.6552 34.2862L19.8741 33.9141C19.9222 33.8324 20.0154 33.7912 20.1071 33.8087C20.201 33.8267 20.2743 33.903 20.2872 33.9996L20.3399 34.3937C20.3573 34.5235 20.4595 34.6242 20.5872 34.6375C20.713 34.6506 20.8316 34.5756 20.8762 34.4548L21.017 34.0727C21.0502 33.9825 21.1368 33.9249 21.2313 33.9268C21.3257 33.9287 21.4099 33.9897 21.4395 34.0812L21.5648 34.4688C21.6043 34.5912 21.7199 34.671 21.8461 34.663C21.9742 34.6548 22.0804 34.5583 22.1029 34.4293L22.1717 34.0361C22.1885 33.9401 22.2635 33.8668 22.3581 33.8527C22.4505 33.8388 22.5431 33.8838 22.5877 33.9674L22.7919 34.35C22.8473 34.4538 22.9639 34.5072 23.0768 34.4803C23.207 34.4494 23.2925 34.3222 23.274 34.1872L23.1789 33.4964Z" fill="#242424"/>
<path d="M22.4803 34.7746C22.3654 34.7447 22.2434 34.7899 22.1823 34.8851L21.9591 35.2331C21.9101 35.3093 21.8148 35.3477 21.7209 35.3311C21.6249 35.3142 21.5498 35.2428 21.5364 35.1526L21.4818 34.7838C21.4638 34.6621 21.3586 34.5674 21.2274 34.5548C21.0982 34.5423 20.9766 34.6124 20.9311 34.7255L20.7879 35.0815C20.7541 35.1657 20.665 35.2193 20.5684 35.2173C20.4717 35.2154 20.3861 35.1582 20.3557 35.0727L20.2268 34.7106C20.1861 34.5962 20.0677 34.5215 19.9386 34.5287C19.8075 34.5361 19.6991 34.626 19.6762 34.7465L19.6067 35.1121C19.5897 35.2017 19.5117 35.27 19.415 35.2831C19.3206 35.2958 19.2269 35.2537 19.181 35.1755L18.9719 34.8196C18.9148 34.7224 18.795 34.6725 18.6794 34.6978C18.5464 34.7269 18.4596 34.8457 18.4792 34.9717L18.5737 35.5781C18.6044 35.7757 18.8164 35.9016 19.0252 35.8574C20.0145 35.6483 21.0787 35.6572 22.1273 35.9297C22.3136 35.9773 22.5093 35.8728 22.5442 35.6961L22.6702 35.0573C22.6949 34.9317 22.6126 34.809 22.4803 34.7746Z" fill="#242424"/>
<path d="M13.2758 16.3263C12.4914 17.0418 11.3128 17.482 9.9964 17.5556C7.72279 17.6856 5.04144 16.7354 3.26487 14.2689C1.51938 11.845 1.60675 8.96542 2.13875 6.96039C2.46299 5.74264 2.95034 4.84871 3.29012 4.57917C4.19102 3.86364 9.28383 2.7409 12.9263 6.8169C16.5687 10.8948 15.0368 14.7149 13.2758 16.3263Z" fill="#FBA3CB"/>
<path d="M28.0591 16.3651C28.8396 17.0865 30.0142 17.5305 31.3326 17.612C33.6043 17.7535 36.2914 16.8169 38.0816 14.3601C39.8387 11.9459 39.7669 9.0644 39.2465 7.05743C38.9301 5.83773 38.4485 4.94187 38.1088 4.67039C37.2118 3.94904 32.1248 2.79916 28.461 6.8577C24.7952 10.9162 26.3077 14.746 28.0591 16.3651Z" fill="#FBA3CB"/>
<path d="M9.56534 17.9399C6.97718 17.9399 4.53659 16.6698 2.96196 14.4845C0.847558 11.5506 1.43004 8.17849 1.77953 6.86572C1.78147 6.85796 1.78341 6.85021 1.78535 6.84439C2.10571 5.6499 2.6047 4.64738 3.05904 4.28671C4.16187 3.41024 9.48379 2.40384 13.2058 6.56904C15.328 8.94444 15.6231 11.122 15.4989 12.5298C15.361 14.0753 14.6251 15.5975 13.5281 16.6C12.6797 17.3757 11.4332 17.8469 10.0177 17.9264C9.86628 17.9361 9.71484 17.9399 9.56534 17.9399ZM2.49403 7.07514C2.17173 8.30066 1.64944 11.3877 3.56774 14.0501C5.08218 16.154 7.47812 17.3272 9.97501 17.1837C11.2021 17.1139 12.3127 16.7008 13.0253 16.0512C14.4815 14.7191 16.2774 11.1259 12.6505 7.06351C10.773 4.9654 8.56929 4.38755 7.05291 4.2712C5.26081 4.13546 3.87063 4.59309 3.52308 4.86844C3.30562 5.04102 2.8377 5.78564 2.49986 7.05381C2.49792 7.06157 2.49597 7.06932 2.49403 7.07514Z" fill="#242424"/>
<path d="M13.2758 16.3263C12.4914 17.0418 11.3128 17.482 9.9964 17.5556C12.2059 13.8461 10.4216 7.6255 7.7189 6.08586C4.80262 4.42211 2.20088 6.90028 2.14069 6.96039C2.46299 5.74264 2.95033 4.84871 3.29011 4.57917C4.19101 3.86364 9.28383 2.7409 12.9263 6.8169C16.5687 10.8948 15.0368 14.7149 13.2758 16.3263Z" fill="#5C546C"/>
<g opacity="0.6">
<path d="M2.16199 6.90024C2.16975 6.89248 2.22606 6.83819 2.32508 6.75481C2.59691 6.06255 2.90174 5.57001 3.13667 5.38192C4.03369 4.66058 9.12068 3.51263 12.7845 7.56923C14.6775 9.6654 15.1882 11.7015 14.9998 13.4021C15.4891 11.5502 15.1746 9.16899 12.9476 6.70245C9.28377 2.64197 4.19678 3.7938 3.29976 4.5132C2.95998 4.78468 2.47847 5.68248 2.16199 6.90024Z" fill="white"/>
</g>
<path d="M9.99636 17.8951C9.87793 17.8951 9.76726 17.833 9.70513 17.7322C9.63911 17.6255 9.63911 17.4898 9.70318 17.3832C10.7148 15.6826 10.9303 13.1947 10.2779 10.7262C9.74396 8.70179 8.69743 7.0361 7.54801 6.38068C4.8686 4.85073 2.47655 7.10591 2.37559 7.20286C2.26686 7.30951 2.09988 7.3289 1.96785 7.25134C1.83582 7.17377 1.77175 7.01865 1.81058 6.87127C2.12512 5.69424 2.63382 4.66458 3.08039 4.31166C4.17739 3.43906 9.47408 2.44042 13.1806 6.5901C15.295 8.95775 15.5901 11.1257 15.4658 12.5257C15.3299 14.0634 14.596 15.5778 13.5048 16.5745C12.6622 17.3444 11.4234 17.8136 10.0138 17.8931C10.008 17.8951 10.0022 17.8951 9.99636 17.8951ZM5.61806 5.16874C6.32674 5.16874 7.09367 5.33938 7.88779 5.79119C9.20808 6.54551 10.3478 8.3256 10.9361 10.5536C11.5632 12.931 11.4293 15.3432 10.5905 17.1524C11.5768 16.9992 12.4505 16.6211 13.0447 16.0762C14.5086 14.7363 16.3163 11.1237 12.6719 7.04385C9.25273 3.21413 4.36573 4.15653 3.50172 4.84297C3.34833 4.96514 3.06874 5.36847 2.79886 6.03746C3.46871 5.62249 4.46087 5.16874 5.61806 5.16874Z" fill="#242424"/>
<g opacity="0.2">
<path d="M10.9886 13.7379C10.773 13.8194 10.542 13.864 10.3032 13.862C9.0625 13.8582 8.05869 12.6656 8.06257 11.1958C8.06646 9.91597 8.83145 8.84753 9.84884 8.59738C10.5828 10.0711 11.0255 11.9326 10.9886 13.7379Z" fill="#242424"/>
</g>
<path d="M10.307 14.2342C10.3051 14.2342 10.3032 14.2342 10.3012 14.2342C8.85667 14.2303 7.68588 12.8671 7.68977 11.1936C7.69365 9.77422 8.56349 8.52931 9.75951 8.23457C9.92843 8.19191 10.1051 8.27335 10.1828 8.43042C10.9691 10.0088 11.3982 11.946 11.3594 13.7455C11.3555 13.8967 11.2604 14.0325 11.1186 14.0848C10.8604 14.1857 10.5866 14.2342 10.307 14.2342ZM9.65467 9.05675C8.93627 9.3864 8.43728 10.2357 8.43534 11.1956C8.43146 12.4579 9.27023 13.4876 10.3032 13.4895C10.4099 13.4895 10.5148 13.4798 10.6158 13.4585C10.606 11.9673 10.2624 10.3928 9.65467 9.05675Z" fill="#242424"/>
<path d="M10.307 14.2342C10.3051 14.2342 10.3032 14.2342 10.3012 14.2342C8.85667 14.2303 7.68588 12.8671 7.68977 11.1936C7.69365 9.77422 8.56349 8.52931 9.75951 8.23457C9.92843 8.19191 10.1051 8.27335 10.1828 8.43042C10.9691 10.0088 11.3982 11.946 11.3594 13.7455C11.3555 13.8967 11.2604 14.0325 11.1186 14.0848C10.8604 14.1857 10.5866 14.2342 10.307 14.2342ZM9.65467 9.05675C8.93627 9.3864 8.43728 10.2357 8.43534 11.1956C8.43146 12.4579 9.27023 13.4876 10.3032 13.4895C10.4099 13.4895 10.5148 13.4798 10.6158 13.4585C10.606 11.9673 10.2624 10.3928 9.65467 9.05675Z" fill="#242424"/>
<path d="M31.8044 17.9996C31.6394 17.9996 31.4763 17.9938 31.3093 17.9841C29.8939 17.8969 28.6513 17.4179 27.8067 16.6384C26.7155 15.6281 25.9854 14.104 25.8573 12.5566C25.7389 11.1488 26.0476 8.97312 28.1814 6.60936C31.9267 2.46356 37.2428 3.4971 38.3418 4.38133C38.7942 4.74394 39.2873 5.7484 39.6019 6.94482C39.6038 6.95258 39.6058 6.9584 39.6077 6.96615C39.9494 8.28086 40.5144 11.6568 38.3845 14.581C36.806 16.745 34.3751 17.9996 31.8044 17.9996ZM28.3134 16.0916C29.0221 16.745 30.1308 17.1639 31.3559 17.2415C33.8528 17.3966 36.2526 16.2389 37.7787 14.1428C39.7106 11.4901 39.2039 8.39915 38.8893 7.17364C38.8874 7.16588 38.8854 7.16006 38.8835 7.15231C38.5534 5.88219 38.0894 5.13564 37.8739 4.96306C37.5283 4.68577 36.14 4.22038 34.3479 4.34643C32.8296 4.45308 30.6239 5.01929 28.7367 7.10965C25.0865 11.1488 26.863 14.7516 28.3134 16.0916Z" fill="#242424"/>
<path d="M28.0591 16.3651C28.8396 17.0865 30.0143 17.5305 31.3326 17.612C29.1444 13.8908 30.9618 7.67988 33.6703 6.15381C36.5963 4.50557 39.1825 6.99925 39.2446 7.05743C38.9281 5.83773 38.4466 4.94187 38.1068 4.67039C37.2098 3.94904 32.1228 2.79916 28.459 6.8577C24.7952 10.9162 26.3077 14.746 28.0591 16.3651Z" fill="#5C546C"/>
<g opacity="0.6">
<path d="M39.2446 7.06323C39.2368 7.05548 39.1805 7.00118 39.0815 6.9178C38.8097 6.22554 38.5049 5.73301 38.2699 5.54492C37.3729 4.82357 32.2859 3.67562 28.6221 7.73222C26.7291 9.82645 26.2184 11.8625 26.4068 13.5631C25.9175 11.7113 26.232 9.33004 28.459 6.86351C32.1248 2.80496 37.2118 3.95679 38.1088 4.6762C38.4466 4.94767 38.9281 5.84548 39.2446 7.06323Z" fill="white"/>
</g>
<path d="M31.3326 17.9516C31.3248 17.9516 31.319 17.9516 31.3113 17.9516C29.9036 17.8643 28.6668 17.3893 27.828 16.6156C26.7427 15.6111 26.0165 14.0928 25.8884 12.5551C25.7719 11.1531 26.0786 8.98713 28.2047 6.63112C31.9345 2.50277 37.2254 3.52855 38.3185 4.40697C38.7612 4.76182 39.266 5.79343 39.5728 6.9724C39.6116 7.11977 39.5456 7.2749 39.4135 7.35053C39.2815 7.42615 39.1145 7.40676 39.0058 7.30011C38.9068 7.20315 36.5264 4.9344 33.8373 6.44884C32.6859 7.09844 31.6297 8.75638 31.086 10.7789C30.422 13.2435 30.6239 15.7333 31.6258 17.4377C31.6899 17.5463 31.6879 17.6801 31.6219 17.7868C31.5598 17.8915 31.4511 17.9516 31.3326 17.9516ZM28.2901 16.1172C28.8823 16.664 29.7541 17.048 30.7385 17.207C29.9094 15.392 29.789 12.9797 30.4298 10.6063C31.0297 8.38019 32.1792 6.60785 33.5053 5.8613C35.5983 4.68232 37.5166 5.4599 38.5903 6.13665C38.3243 5.46572 38.0486 5.06045 37.8952 4.93828C37.0351 4.24602 32.1539 3.27647 28.7115 7.08681C25.0457 11.1473 26.8339 14.7695 28.2901 16.1172Z" fill="#242424"/>
<path d="M30.3618 13.7901C30.5773 13.8735 30.8084 13.9181 31.0472 13.9181C32.2879 13.922 33.2975 12.7333 33.3014 11.2635C33.3053 9.98365 32.5442 8.91133 31.5287 8.65536C30.787 10.1233 30.3346 11.9829 30.3618 13.7901Z" fill="#FBA3CB"/>
<g opacity="0.2">
<path d="M30.3618 13.7901C30.5773 13.8735 30.8084 13.9181 31.0472 13.9181C32.2879 13.922 33.2975 12.7333 33.3014 11.2635C33.3053 9.98365 32.5442 8.91133 31.5287 8.65536C30.787 10.1233 30.3346 11.9829 30.3618 13.7901Z" fill="#242424"/>
</g>
<path d="M31.0511 14.2901C31.0491 14.2901 31.0472 14.2901 31.0452 14.2901C30.7637 14.2901 30.488 14.2378 30.2278 14.1369C30.0861 14.0826 29.9929 13.9469 29.989 13.7956C29.9618 11.9962 30.4006 10.0629 31.1947 8.48832C31.2724 8.33319 31.4491 8.25175 31.62 8.29441C32.814 8.59691 33.6781 9.84569 33.6742 11.2651C33.6722 12.064 33.4043 12.8164 32.9228 13.3846C32.4257 13.9682 31.7617 14.2901 31.0511 14.2901ZM30.7346 13.5125C30.8375 13.5339 30.9423 13.5455 31.0472 13.5455C31.5404 13.5455 31.9986 13.3186 32.3539 12.9017C32.7228 12.4674 32.9267 11.8837 32.9286 11.2612C32.9305 10.2994 32.4374 9.44818 31.719 9.11465C31.1035 10.4488 30.7521 12.0194 30.7346 13.5125Z" fill="#242424"/>
<path d="M34.4372 22.3066C34.4159 30.0572 25.3156 30.8483 21.0383 30.8813C20.8926 30.8813 20.7528 30.8832 20.6189 30.8813C17.0366 30.8716 9.06636 30.3868 7.22961 24.7983C6.97914 24.0401 6.84323 23.1889 6.84517 22.2329C6.87042 12.9756 14.2757 6.37104 20.6829 6.38849C27.1329 6.40594 34.4625 13.0493 34.4372 22.3066Z" fill="#74698B"/>
<g opacity="0.6">
<path d="M34.4081 22.0217C33.7848 13.4489 26.8436 7.42217 20.7023 7.40472C14.2989 7.38726 6.90338 13.9783 6.86261 23.222C6.83349 22.9253 6.81795 22.6189 6.8199 22.299C6.84514 13.0417 14.2504 6.43904 20.6577 6.45456C27.0242 6.47201 34.2508 12.9467 34.4081 22.0217Z" fill="white"/>
</g>
<path d="M32.253 20.0827C29.7347 18.7932 26.467 21.7755 21.0694 19.2372H20.9567C15.5455 21.7464 11.5497 18.7447 9.02367 20.0206C6.49765 21.2946 7.22575 24.8044 7.22575 24.8044C9.01202 30.2455 17.1318 30.7206 20.6131 30.7284C20.7315 30.7284 20.8538 30.7284 20.98 30.7284C21.1062 30.7303 21.2305 30.7303 21.347 30.7303C24.8283 30.74 32.2064 30.3076 34.0218 24.8761C34.0256 24.8742 34.7732 21.3702 32.253 20.0827Z" fill="white"/>
<g opacity="0.2">
<path d="M34.3207 22.3649C34.2994 30.1155 25.1991 30.9066 20.9218 30.9415C20.7762 30.9415 20.6364 30.9415 20.5024 30.9415C16.9201 30.9318 8.95182 30.4471 7.11313 24.8586C6.86266 24.1004 6.72675 23.2491 6.72869 22.2931C6.73063 21.6707 6.76558 21.0579 6.83159 20.4607C6.8879 21.0618 7.00634 21.6183 7.17526 22.1322C9.01201 27.7207 16.9823 28.2055 20.5645 28.2152C20.6985 28.2152 20.8383 28.2152 20.9839 28.2152C24.9894 28.1822 33.2257 27.488 34.2703 21.0327C34.3052 21.4671 34.3207 21.9131 34.3207 22.3649Z" fill="#242424"/>
</g>
<path d="M20.7062 31.2556C20.6771 31.2556 20.646 31.2556 20.6169 31.2556C12.9826 31.2343 8.23146 29.0431 6.87428 24.9167C6.6044 24.0984 6.47043 23.1948 6.47237 22.233C6.48402 17.8583 8.12661 13.7184 11.0992 10.579C13.8039 7.72266 17.3745 6.01819 20.6596 6.01819C20.6674 6.01819 20.6771 6.01819 20.6849 6.01819C23.9895 6.02788 27.5698 7.75175 30.2589 10.6313C33.2043 13.7824 34.8197 17.9301 34.8081 22.3105C34.7984 25.8339 33.0043 28.3663 29.4764 29.8342C27.2747 30.7514 24.436 31.2304 21.0402 31.2575C20.9256 31.2556 20.815 31.2556 20.7062 31.2556ZM20.6596 6.76086C14.33 6.76086 7.24319 13.3674 7.21989 22.233C7.21795 23.1153 7.34027 23.9394 7.58491 24.6821C9.15955 29.4736 15.5435 30.4955 20.6208 30.5091C20.7548 30.5091 20.8926 30.5091 21.0382 30.5091C24.3351 30.4819 27.0786 30.0243 29.191 29.1439C32.416 27.8021 34.0567 25.5004 34.0644 22.3047L34.4372 22.3067L34.0644 22.3047C34.0761 18.1163 32.5306 14.1488 29.7153 11.1355C27.1621 8.40328 23.7856 6.76862 20.6829 6.75893C20.6752 6.76086 20.6674 6.76086 20.6596 6.76086Z" fill="#242424"/>
<path d="M25.9855 28.7445C25.7311 29.1789 25.3894 29.5686 24.9952 29.8983C24.5992 30.2279 24.1448 30.4936 23.6672 30.6972C22.7061 31.1025 21.6596 31.2537 20.6364 31.2557C19.5859 31.2479 18.5647 31.0036 17.621 30.6022C17.1512 30.3986 16.6968 30.1504 16.2833 29.8459C16.1823 29.7645 16.0794 29.6889 15.9823 29.6055L15.8406 29.4756L15.7707 29.4096L15.7047 29.3379C15.5261 29.1556 15.3746 28.9423 15.2639 28.7174C15.6173 29.0742 16.0386 29.3204 16.4736 29.5337C16.9104 29.7432 17.3648 29.9138 17.8249 30.0534C18.7472 30.3307 19.6986 30.5052 20.6364 30.513C21.5974 30.511 22.5546 30.4218 23.4672 30.1504C24.3798 29.8808 25.2341 29.4155 25.9855 28.7445Z" fill="#242424"/>
<path d="M1.79706 15.8433C2.78922 15.7793 3.78526 15.8394 4.77159 15.9616C5.75986 16.0838 6.74037 16.2796 7.69952 16.553C7.94028 16.6209 8.17715 16.6965 8.41597 16.7721C8.6509 16.8555 8.88972 16.9311 9.12077 17.0242C9.58869 17.2007 10.0469 17.3985 10.4935 17.6253C11.3886 18.0675 12.237 18.6124 12.9787 19.2697C12.5458 19.0254 12.1205 18.7791 11.6798 18.5639C11.5711 18.5057 11.4585 18.4572 11.3497 18.4029C11.2391 18.3506 11.1303 18.2963 11.0158 18.2478C10.9032 18.1993 10.7925 18.1489 10.6818 18.0985L10.344 17.9569C10.2314 17.9085 10.1188 17.8639 10.0042 17.8212C9.88964 17.7766 9.77703 17.7301 9.66248 17.6874C9.43337 17.604 9.20426 17.5168 8.97321 17.4411C8.51111 17.2821 8.04512 17.1348 7.57526 17.0029C6.63552 16.7334 5.68026 16.5142 4.71722 16.3203C3.75031 16.1322 2.77951 15.9713 1.79706 15.8433Z" fill="#242424"/>
<path d="M1.1738 19.7988C2.11547 19.4828 3.09404 19.2869 4.08037 19.1512C5.0667 19.0154 6.06469 18.9553 7.06267 18.9728C7.31119 18.9767 7.56166 18.9883 7.81018 18.9999C8.05871 19.0193 8.30917 19.0329 8.55576 19.062C9.05281 19.1124 9.54791 19.188 10.0353 19.2908C11.0138 19.4886 11.973 19.7969 12.8603 20.2429C12.3788 20.1169 11.905 19.9889 11.4235 19.8939C11.3051 19.8648 11.1827 19.8473 11.0624 19.8221C10.942 19.8008 10.8216 19.7756 10.7012 19.7581C10.5808 19.7407 10.4605 19.7193 10.3401 19.698L9.97701 19.6476C9.85663 19.6301 9.73431 19.6166 9.61393 19.603C9.49161 19.5894 9.37123 19.5739 9.24891 19.5623C9.00621 19.5409 8.76351 19.5138 8.51887 19.5002C8.03153 19.4653 7.54418 19.442 7.0549 19.4343C6.07828 19.4149 5.09777 19.4459 4.1192 19.508C3.13675 19.5778 2.15625 19.6709 1.1738 19.7988Z" fill="#242424"/>
<path d="M1.69025 24.1213C2.51543 23.5686 3.4105 23.1246 4.325 22.7348C5.24143 22.347 6.18699 22.0251 7.15585 21.7827C7.39661 21.7206 7.64125 21.6683 7.88589 21.614C8.13053 21.5675 8.37517 21.5151 8.62175 21.4783C9.11492 21.3968 9.61197 21.3386 10.111 21.3115C11.107 21.2475 12.1147 21.294 13.0874 21.4918C12.5904 21.4957 12.0992 21.4957 11.6079 21.5306C11.4856 21.5345 11.3633 21.5481 11.241 21.5558C11.1187 21.5655 10.9963 21.5733 10.876 21.5888C10.7536 21.6024 10.6333 21.614 10.5109 21.6256L10.144 21.6741C10.0236 21.6877 9.90127 21.7071 9.78089 21.7265C9.66051 21.7459 9.53819 21.7614 9.41975 21.7827C9.17899 21.8254 8.93824 21.8641 8.69942 21.9146C8.21984 22.0076 7.74221 22.1143 7.26846 22.2345C6.31902 22.4711 5.38317 22.76 4.45314 23.0741C3.52506 23.3941 2.60474 23.7412 1.69025 24.1213Z" fill="#242424"/>
<path d="M38.8894 16.097C37.9069 16.225 36.9361 16.386 35.9711 16.5721C35.0081 16.7641 34.0528 16.9832 33.1131 17.2547C32.6432 17.3865 32.1772 17.5339 31.7151 17.6929C31.4822 17.7685 31.255 17.8577 31.0259 17.9392C30.9113 17.9818 30.7987 18.0284 30.6842 18.073C30.5696 18.1156 30.455 18.1602 30.3444 18.2087L30.0065 18.3503C29.8959 18.4007 29.7852 18.453 29.6726 18.4996C29.56 18.5461 29.4493 18.6023 29.3386 18.6547C29.228 18.709 29.1153 18.7575 29.0086 18.8156C28.5659 19.0309 28.1407 19.2752 27.7096 19.5215C28.4533 18.8641 29.2998 18.3192 30.1949 17.8771C30.6414 17.6522 31.0997 17.4525 31.5676 17.276C31.8006 17.1849 32.0374 17.1073 32.2724 17.0239C32.5112 16.9483 32.7481 16.8727 32.9888 16.8048C33.948 16.5314 34.9285 16.3355 35.9168 16.2134C36.8992 16.0951 37.8972 16.033 38.8894 16.097Z" fill="#242424"/>
<path d="M39.5107 20.0551C38.5282 19.9271 37.5477 19.834 36.5692 19.7681C35.5887 19.708 34.6101 19.675 33.6335 19.6944C33.1442 19.7022 32.6568 19.7235 32.1695 19.7604C31.9249 19.7739 31.6822 19.8011 31.4395 19.8224C31.3171 19.834 31.1968 19.8515 31.0744 19.8631C30.9521 19.8748 30.8317 19.8903 30.7114 19.9077L30.3483 19.9581C30.2279 19.9775 30.1075 19.9989 29.9852 20.0183C29.8629 20.0357 29.7444 20.0609 29.6241 20.0823C29.5037 20.1055 29.3833 20.1249 29.2629 20.154C28.7814 20.249 28.3057 20.377 27.8261 20.503C28.7135 20.057 29.6726 19.7487 30.6512 19.5509C31.1405 19.4482 31.6356 19.3725 32.1307 19.3221C32.3792 19.293 32.6277 19.2795 32.8762 19.2601C33.1248 19.2484 33.3752 19.2349 33.6238 19.2329C34.6217 19.2135 35.6197 19.2756 36.6061 19.4113C37.5904 19.5432 38.569 19.739 39.5107 20.0551Z" fill="#242424"/>
<path d="M38.9962 24.3771C38.0817 23.997 37.1594 23.6499 36.2333 23.328C35.3033 23.0139 34.3674 22.7249 33.418 22.4884C32.9442 22.3662 32.4666 22.2615 31.989 22.1684C31.7501 22.118 31.5094 22.0812 31.2686 22.0366C31.1482 22.0152 31.0279 21.9997 30.9075 21.9803C30.7871 21.9609 30.6667 21.9416 30.5444 21.928L30.1813 21.8814C30.059 21.8698 29.9386 21.8582 29.8163 21.8446C29.694 21.8291 29.5717 21.8213 29.4513 21.8116C29.329 21.8039 29.2066 21.7903 29.0843 21.7864C28.5931 21.7515 28.1019 21.7515 27.6048 21.7476C28.5776 21.5499 29.5853 21.5033 30.5813 21.5673C31.0803 21.5945 31.5773 21.6526 32.0705 21.7341C32.3171 21.7709 32.5617 21.8233 32.8064 21.8698C33.051 21.9241 33.2937 21.9765 33.5364 22.0385C34.5033 22.2809 35.4508 22.6028 36.3673 22.9906C37.2759 23.3804 38.1691 23.8244 38.9962 24.3771Z" fill="#242424"/>
<path d="M23.7313 18.6456C24.1895 18.9152 24.4303 19.4368 24.4284 19.9681C24.4264 20.8135 23.7333 21.5136 22.8265 21.6532C22.7159 21.6687 22.6033 21.6784 22.4868 21.6784C22.1975 21.6784 21.9237 21.6202 21.6771 21.5194C21.1801 21.3138 20.7976 20.9279 20.6384 20.4587C20.4772 20.9279 20.0908 21.3119 19.5938 21.5155C19.3472 21.6144 19.0715 21.6706 18.7822 21.6706C18.6676 21.6706 18.5531 21.6609 18.4424 21.6435C17.5357 21.498 16.8464 20.7961 16.8484 19.9506C16.8503 19.5279 17.0231 19.1401 17.3124 18.8415C17.3124 18.8395 20.1801 16.5669 23.7313 18.6456Z" fill="white"/>
<g opacity="0.2">
<path d="M24.4342 19.9678C24.4322 20.8132 23.741 21.5133 22.8324 21.6529C22.7217 21.6703 22.6091 21.6781 22.4926 21.6781C22.2033 21.6781 21.9295 21.6199 21.6829 21.5191C21.1859 21.3135 20.8034 20.9277 20.6442 20.4584C20.483 20.9277 20.0967 21.3116 19.5996 21.5152C19.3511 21.6141 19.0773 21.6703 18.788 21.6703C18.6735 21.6703 18.5589 21.6606 18.4482 21.6432C17.5415 21.4997 16.8542 20.7958 16.8542 19.9503C16.8542 19.6556 16.9396 19.3802 17.0852 19.1398C17.0852 19.1398 17.7881 21.6529 20.6461 19.7273C20.6461 19.7273 23.4246 21.6102 24.2031 19.198C24.209 19.1805 24.2128 19.165 24.2206 19.1495C24.3643 19.3899 24.4361 19.6769 24.4342 19.9678Z" fill="#242424"/>
</g>
<path d="M22.8266 21.6529C22.7081 22.5643 22.4577 23.3652 22.114 23.9643C21.716 24.6624 21.1937 25.0832 20.6267 25.0832C20.0578 25.0813 19.5394 24.6566 19.1453 23.9566C18.8055 23.3574 18.557 22.5546 18.4444 21.6413C18.555 21.6588 18.6677 21.6685 18.7841 21.6685C19.6579 21.6704 20.3976 21.1604 20.6403 20.4565C20.8791 21.1604 21.6169 21.6743 22.4907 21.6781C22.6033 21.6781 22.7159 21.6704 22.8266 21.6529Z" fill="#242424"/>
<path d="M22.114 23.9645C21.7159 24.6626 21.1937 25.0834 20.6267 25.0834C20.0578 25.0814 19.5394 24.6568 19.1453 23.9568C19.5452 23.6756 20.0656 23.5069 20.6306 23.5069C21.1956 23.5088 21.714 23.6814 22.114 23.9645Z" fill="#E34675"/>
<path d="M21.6771 21.5191C21.5373 22.2463 21.1218 22.7718 20.6306 22.7699C20.1413 22.7679 19.7277 22.2405 19.5918 21.5133C20.0908 21.3117 20.4753 20.9258 20.6364 20.4565C20.7976 20.9277 21.1801 21.3136 21.6771 21.5191Z" fill="white"/>
<path d="M23.7604 18.6046C24.0264 18.7306 24.2672 18.94 24.4342 19.2076C24.6031 19.4752 24.6943 19.8049 24.6827 20.1345C24.6691 20.4661 24.5604 20.7996 24.3682 21.0711C24.275 21.2107 24.1623 21.3329 24.04 21.4454C23.9158 21.554 23.7779 21.647 23.6342 21.7285C23.3449 21.8836 23.0207 21.9709 22.6964 21.9961C22.3722 22.0174 22.0441 21.9767 21.7353 21.872C21.4266 21.7673 21.1393 21.6005 20.8946 21.3794C20.6539 21.1564 20.4558 20.8753 20.3452 20.5534L20.9257 20.5553C20.8228 20.8617 20.6403 21.1351 20.4131 21.3542C20.186 21.5733 19.9141 21.7401 19.6209 21.8506C19.3297 21.9592 19.0171 22.0096 18.7065 22.0019C18.5511 21.9961 18.3977 21.9767 18.2444 21.9418C18.1667 21.9282 18.0929 21.9011 18.0191 21.8797C17.9453 21.8526 17.8716 21.8254 17.8017 21.7944C17.5163 21.6645 17.2541 21.4803 17.0483 21.2379C16.8406 20.9994 16.6852 20.7085 16.6289 20.3944C16.5668 20.0822 16.5998 19.7564 16.7202 19.4752C16.8367 19.1921 17.0386 18.9575 17.2755 18.8043C17.2988 18.7888 17.3318 18.7946 17.3473 18.8198C17.359 18.8373 17.359 18.8586 17.3493 18.8741C17.0755 19.3395 17.0153 19.8398 17.1668 20.2586C17.2367 20.4681 17.357 20.6581 17.5124 20.8171C17.5493 20.8578 17.5939 20.8927 17.6347 20.9296C17.6813 20.9625 17.7221 20.9994 17.7706 21.0285L17.8405 21.075L17.9143 21.1157C17.9628 21.1448 18.0152 21.1642 18.0657 21.1894C18.4832 21.362 18.9705 21.3814 19.4015 21.234C19.8306 21.0905 20.2015 20.7647 20.3452 20.3556V20.3536C20.4015 20.1946 20.5762 20.1093 20.7374 20.1656C20.8286 20.1985 20.8966 20.2703 20.9257 20.3556C20.9995 20.5708 21.1296 20.7706 21.3063 20.9276C21.481 21.0866 21.6965 21.203 21.9256 21.2728C22.3877 21.4143 22.9042 21.3562 23.3236 21.1429C23.5333 21.0343 23.7235 20.8888 23.8672 20.7066C24.0148 20.5262 24.1099 20.3129 24.1565 20.0822C24.1992 19.8514 24.1876 19.6032 24.106 19.3628C24.0264 19.1223 23.8866 18.8916 23.6983 18.6821C23.6789 18.6608 23.6808 18.6278 23.7022 18.6085C23.7197 18.5988 23.743 18.5968 23.7604 18.6046Z" fill="#242424"/>
<path d="M19.021 18.7675C18.8443 19.167 19.5821 20.5437 20.617 20.5457C21.6519 20.5476 22.378 19.1359 22.1955 18.7753C21.9664 18.3273 19.2423 18.2691 19.021 18.7675Z" fill="#242424"/>
<path d="M20.6286 25.3876C20.6267 25.3876 20.6267 25.3876 20.6248 25.3876C19.9646 25.3857 19.3433 24.9319 18.8773 24.1059C18.5123 23.4601 18.256 22.6205 18.1395 21.6781C18.1279 21.5831 18.1609 21.4881 18.2288 21.4221C18.2968 21.3562 18.3939 21.3252 18.4871 21.3407C18.5861 21.3562 18.6832 21.364 18.7802 21.364C18.7822 21.364 18.7841 21.364 18.7861 21.364C19.5025 21.364 20.1452 20.9509 20.349 20.3576C20.3918 20.2354 20.5063 20.152 20.6364 20.152C20.7665 20.152 20.883 20.2354 20.9238 20.3576C21.1257 20.9529 21.7684 21.3698 22.4867 21.3717C22.5819 21.3737 22.6809 21.364 22.7799 21.3504C22.8751 21.3368 22.9702 21.3678 23.0382 21.4338C23.1061 21.4997 23.1391 21.5947 23.1275 21.6897C23.0052 22.6321 22.745 23.4698 22.3761 24.1136C21.9101 24.9358 21.2888 25.3876 20.6286 25.3876ZM18.7997 21.9728C18.922 22.6845 19.1297 23.3128 19.4093 23.8072C19.7627 24.4336 20.1957 24.7787 20.6267 24.7787H20.6286C21.0597 24.7787 21.4927 24.4355 21.8499 23.8131C22.1334 23.3205 22.345 22.6942 22.4693 21.9825C21.7159 21.9748 21.0403 21.6374 20.6364 21.0983C20.2306 21.6354 19.553 21.969 18.7997 21.9728Z" fill="#242424"/>
<path d="M21.2752 18.8334C21.2752 18.8897 20.9781 18.9343 20.6092 18.9343C20.2422 18.9343 19.9432 18.8897 19.9432 18.8334C19.9432 18.7772 20.2403 18.7326 20.6092 18.7326C20.9762 18.7306 21.2752 18.7772 21.2752 18.8334Z" fill="white"/>
<path d="M14.9746 14.6872C14.5843 14.6387 14.2271 14.7861 13.9456 15.073C13.5844 15.4395 13.3534 16.031 13.3456 16.7271C13.3378 17.6249 13.7087 18.4471 14.2523 18.8737C14.4581 19.0366 14.6892 19.1413 14.9319 19.1704C15.8211 19.2809 16.5492 18.3676 16.5609 17.1304C16.5745 15.8913 15.8639 14.7977 14.9746 14.6872Z" fill="white"/>
<path d="M15.0814 19.248C15.029 19.248 14.9785 19.2441 14.9261 19.2383C14.6737 19.2073 14.4349 19.1026 14.2116 18.9261C13.6369 18.4762 13.2699 17.6114 13.2777 16.7252C13.2835 16.0369 13.5087 15.4163 13.897 15.0246C14.2019 14.7144 14.5883 14.569 14.9843 14.6194C15.9047 14.7357 16.6444 15.8623 16.6328 17.1325C16.6269 17.8693 16.3609 18.5383 15.926 18.9184C15.6736 19.1355 15.3843 19.248 15.0814 19.248ZM14.8271 14.7454C14.5222 14.7454 14.2349 14.8734 13.9941 15.1197C13.631 15.4881 13.4194 16.0737 13.4136 16.7272C13.4058 17.5726 13.7514 18.3948 14.2951 18.8195C14.497 18.9785 14.7145 19.0754 14.9416 19.1026C15.262 19.1433 15.5707 19.0425 15.8328 18.8137C16.2406 18.4569 16.4871 17.8286 16.493 17.1286C16.5046 15.9263 15.8192 14.8598 14.9649 14.7532C14.9203 14.7493 14.8737 14.7454 14.8271 14.7454Z" fill="#242424"/>
<path d="M14.9746 14.6873C14.5843 14.6389 14.2271 14.7862 13.9456 15.0732C13.9067 15.1489 13.8718 15.2264 13.8407 15.3098C13.7728 15.496 13.7417 15.7635 13.8737 15.8993C13.9883 16.0156 14.1397 15.9497 14.2776 15.9672C14.5047 15.9943 14.7086 16.3007 14.6989 16.6032C14.6911 16.9037 14.4717 17.1423 14.2446 17.0977C14.0873 17.0666 13.9145 16.9231 13.7844 17.0259C13.6873 17.1015 13.6679 17.278 13.6757 17.4312C13.699 17.9586 13.9203 18.4705 14.2251 18.839C14.2349 18.8506 14.2446 18.8622 14.2543 18.8739C14.4601 19.0368 14.6911 19.1415 14.9338 19.1706C15.8231 19.2811 16.5512 18.3678 16.5628 17.1306C16.5745 15.8915 15.8639 14.7979 14.9746 14.6873Z" fill="#16B768"/>
<path d="M15.5132 19.0889C16.2333 19.0279 16.7427 18.1014 16.6509 17.0194C16.5591 15.9373 15.9009 15.1096 15.1808 15.1705C14.4606 15.2315 13.9513 16.158 14.0431 17.24C14.1349 18.322 14.7931 19.1498 15.5132 19.0889Z" fill="#242424"/>
<path d="M14.295 15.9027C14.1572 15.8852 14.0038 15.9512 13.8912 15.8348C13.7592 15.6991 13.7902 15.4315 13.8582 15.2453C13.8892 15.1619 13.9242 15.0824 13.963 15.0088C13.6019 15.3752 13.3708 15.9667 13.3631 16.6628C13.3553 17.5606 13.7261 18.3828 14.2698 18.8094C14.2601 18.7978 14.2504 18.7861 14.2407 18.7745C13.9378 18.4061 13.7145 17.8941 13.6912 17.3667C13.6854 17.2116 13.7048 17.0371 13.7999 16.9614C13.93 16.8587 14.1028 17.0022 14.2601 17.0332C14.4873 17.0778 14.7067 16.8393 14.7144 16.5387C14.7261 16.2362 14.5222 15.9298 14.295 15.9027Z" fill="white"/>
<path d="M14.8309 14.6772C14.8795 14.6772 14.928 14.6811 14.9765 14.6869C15.8658 14.7974 16.5764 15.893 16.5648 17.1302C16.5551 18.2994 15.9027 19.1798 15.0814 19.1798C15.0328 19.1798 14.9843 19.1759 14.9358 19.1701C14.6911 19.1391 14.462 19.0344 14.2562 18.8734C13.7126 18.4468 13.3398 17.6246 13.3495 16.7268C13.3553 16.0307 13.5883 15.4393 13.9494 15.0728C14.1921 14.8226 14.497 14.6772 14.8309 14.6772ZM14.8309 14.239C14.3844 14.239 13.9708 14.4212 13.633 14.7664C13.1806 15.226 12.9165 15.9395 12.9087 16.7229C12.899 17.7352 13.3126 18.6911 13.9844 19.2186C14.2601 19.4357 14.561 19.5657 14.8814 19.6064C14.9474 19.6141 15.0154 19.62 15.0814 19.62C16.1648 19.62 16.99 18.5515 17.0036 17.136C17.0172 15.6603 16.1512 14.3941 15.0309 14.2525C14.9629 14.2428 14.8969 14.239 14.8309 14.239Z" fill="#242424"/>
<path d="M26.3078 14.6871C26.6981 14.6386 27.0553 14.786 27.3368 15.073C27.698 15.4395 27.929 16.0309 27.9368 16.727C27.9446 17.6248 27.5737 18.447 27.0301 18.8736C26.8243 19.0365 26.5932 19.1412 26.3505 19.1703C25.4613 19.2808 24.7332 18.3675 24.7215 17.1304C24.7079 15.8913 25.4205 14.7976 26.3078 14.6871Z" fill="white"/>
<path d="M26.201 19.2479C25.8981 19.2479 25.6088 19.1354 25.3583 18.9163C24.9215 18.5343 24.6574 17.8673 24.6516 17.1304C24.6399 15.8603 25.3797 14.7337 26.3 14.6173C26.6961 14.5688 27.0825 14.7123 27.3873 15.0245C27.7737 15.4182 28.0009 16.0367 28.0067 16.7251C28.0144 17.6113 27.6475 18.4761 27.0728 18.926C26.8514 19.1005 26.6107 19.2052 26.3583 19.2382C26.3058 19.246 26.2534 19.2479 26.201 19.2479ZM26.3175 14.755C25.4632 14.8616 24.7778 15.9282 24.7894 17.1304C24.7953 17.8285 25.0419 18.4587 25.4496 18.8155C25.7117 19.0443 26.0204 19.1451 26.3408 19.1044C26.568 19.0753 26.7854 18.9803 26.9873 18.8213C27.531 18.3966 27.8766 17.5745 27.8688 16.729C27.863 16.0755 27.6514 15.4899 27.2883 15.1215C27.0106 14.8364 26.6747 14.7104 26.3175 14.755Z" fill="#242424"/>
<path d="M26.3078 14.6873C26.6981 14.6389 27.0553 14.7862 27.3368 15.0732C27.3757 15.1489 27.4106 15.2264 27.4417 15.3098C27.5096 15.496 27.5407 15.7635 27.4087 15.8993C27.2941 16.0156 27.1427 15.9497 27.0048 15.9672C26.7777 15.9943 26.5738 16.3007 26.5835 16.6032C26.5913 16.9037 26.8107 17.1423 27.0378 17.0977C27.1951 17.0666 27.3679 16.9231 27.498 17.0259C27.5951 17.1015 27.6145 17.278 27.6067 17.4312C27.5834 17.9586 27.3621 18.4705 27.0572 18.839C27.0475 18.8506 27.0378 18.8622 27.0281 18.8739C26.8223 19.0368 26.5913 19.1415 26.3486 19.1706C25.4593 19.2811 24.7312 18.3678 24.7196 17.1306C24.7079 15.8915 25.4205 14.7979 26.3078 14.6873Z" fill="#16B768"/>
<path d="M27.2402 17.2402C27.332 16.1582 26.8226 15.2316 26.1025 15.1707C25.3823 15.1097 24.7241 15.9375 24.6323 17.0195C24.5405 18.1015 25.0499 19.0281 25.7701 19.089C26.4902 19.15 27.1484 18.3222 27.2402 17.2402Z" fill="#242424"/>
<path d="M26.9893 15.9027C27.1271 15.8852 27.2805 15.9512 27.3931 15.8348C27.5252 15.6991 27.4941 15.4315 27.4261 15.2453C27.3951 15.1619 27.3601 15.0824 27.3213 15.0088C27.6824 15.3752 27.9135 15.9667 27.9213 16.6628C27.929 17.5606 27.5582 18.3828 27.0145 18.8094C27.0242 18.7978 27.0339 18.7861 27.0437 18.7745C27.3465 18.4061 27.5698 17.8941 27.5931 17.3667C27.599 17.2116 27.5795 17.0371 27.4844 16.9614C27.3543 16.8587 27.1815 17.0022 27.0242 17.0332C26.7971 17.0778 26.5777 16.8393 26.5699 16.5387C26.5583 16.2362 26.7621 15.9298 26.9893 15.9027Z" fill="white"/>
<path d="M26.4534 14.6772C26.7874 14.6772 27.0922 14.8226 27.3368 15.0728C27.698 15.4393 27.929 16.0307 27.9368 16.7268C27.9446 17.6246 27.5737 18.4468 27.0301 18.8734C26.8243 19.0363 26.5932 19.141 26.3505 19.1701C26.302 19.1759 26.2534 19.1798 26.2049 19.1798C25.3836 19.1798 24.7332 18.2994 24.7215 17.1302C24.7099 15.8911 25.4205 14.7974 26.3097 14.6869C26.3563 14.6811 26.4049 14.6772 26.4534 14.6772ZM26.4534 14.239C26.3874 14.239 26.3194 14.2428 26.2534 14.2506C25.1331 14.3902 24.2672 15.6564 24.2808 17.134C24.2944 18.5496 25.1195 19.618 26.203 19.618C26.269 19.618 26.3369 19.6141 26.4029 19.6044C26.7233 19.5637 27.0242 19.4338 27.3 19.2166C27.9717 18.6911 28.3834 17.7352 28.3737 16.7229C28.3659 15.9395 28.1018 15.226 27.6475 14.7664C27.3135 14.4212 26.9 14.239 26.4534 14.239Z" fill="#242424"/>
</g>
<defs>
<clipPath id="clip0_234_16684">
<rect width="40" height="40" rx="20" fill="white"/>
</clipPath>
</defs>
</svg>
