<svg width="36" height="35" viewBox="0 0 36 35" fill="none" xmlns="http://www.w3.org/2000/svg">
<g clip-path="url(#clip0_250_118270)">
<path d="M30.3749 29.8752C37.2093 23.0409 37.2093 11.9602 30.3749 5.1258C23.5405 -1.70858 12.4598 -1.70858 5.62546 5.1258C-1.20892 11.9602 -1.20892 23.0409 5.62546 29.8752C12.4598 36.7096 23.5405 36.7096 30.3749 29.8752Z" fill="#FEE475"/>
<path d="M30.0583 29.5588C36.7179 22.8992 36.7179 12.1019 30.0583 5.44226C23.3987 -1.21734 12.6014 -1.21734 5.94181 5.44226C-0.717787 12.1019 -0.717787 22.8992 5.94181 29.5588C12.6014 36.2184 23.3987 36.2184 30.0583 29.5588Z" fill="#FED425"/>
<g style="mix-blend-mode:soft-light">
<path d="M30.0922 5.47714L5.97705 29.5912C7.60705 31.2121 9.54767 32.4871 11.6825 33.3396L33.8395 11.1826C32.9867 9.04813 31.7122 7.10761 30.0922 5.47714Z" fill="white"/>
</g>
<g style="mix-blend-mode:soft-light">
<path d="M34.624 21.2971L21.7971 34.124C24.9244 33.4073 27.7865 31.8238 30.0552 29.5551C32.3239 27.2865 33.9073 24.4244 34.624 21.2971Z" fill="white"/>
</g>
<g style="mix-blend-mode:soft-light">
<path d="M9.62574 2.64706L3.14691 9.1259C2.42352 10.4027 1.86941 11.7682 1.49854 13.188L13.6878 0.998688C12.268 1.36956 10.9025 1.92368 9.62574 2.64706Z" fill="white"/>
</g>
<g style="mix-blend-mode:soft-light">
<path d="M27.8454 3.58038L4.08032 27.3455C4.35689 27.7357 4.64855 28.1159 4.95731 28.481L28.9809 4.45737C28.6158 4.14861 28.2357 3.85796 27.8454 3.58038Z" fill="white"/>
</g>
<g style="mix-blend-mode:soft-light">
<path d="M18.3353 30.1726C25.1594 30.1726 30.6915 24.6405 30.6915 17.8163C30.6915 10.9921 25.1594 5.46005 18.3353 5.46005C11.5111 5.46005 5.979 10.9921 5.979 17.8163C5.979 24.6405 11.5111 30.1726 18.3353 30.1726Z" fill="white"/>
</g>
<path d="M26.7375 26.2377C31.5629 21.4123 31.5629 13.5887 26.7375 8.76333C21.912 3.93791 14.0885 3.93791 9.26307 8.76333C4.43765 13.5887 4.43765 21.4123 9.26307 26.2377C14.0885 31.0631 21.912 31.0631 26.7375 26.2377Z" fill="#FEB724"/>
<path d="M6.31498 18.1713C6.31469 15.7679 7.01543 13.4167 8.33135 11.4055C9.64727 9.39443 11.5212 7.81081 13.7236 6.84869C15.926 5.88658 18.3612 5.58776 20.7309 5.98885C23.1006 6.38993 25.3018 7.47349 27.065 9.10679C25.9358 7.886 24.5718 6.90572 23.0548 6.22471C21.5377 5.54369 19.8988 5.17596 18.2362 5.14355C16.5736 5.11114 14.9215 5.41471 13.3791 6.03608C11.8366 6.65745 10.4354 7.58382 9.25959 8.75968C8.08373 9.93554 7.15736 11.3367 6.53599 12.8791C5.91462 14.4216 5.61105 16.0736 5.64346 17.7362C5.67587 19.3988 6.0436 21.0378 6.72462 22.5549C7.40563 24.0719 8.3859 25.4359 9.6067 26.5651C7.4871 24.2843 6.31084 21.2849 6.31498 18.1713Z" fill="#FB9D12"/>
<g style="mix-blend-mode:soft-light">
<path d="M17.9995 0.67083C27.5538 0.67083 35.3109 8.32635 35.4909 17.8354C35.4909 17.7238 35.499 17.6132 35.499 17.5005C35.4991 15.2024 35.0465 12.9269 34.1671 10.8037C33.2877 8.68055 31.9988 6.75138 30.3739 5.12636C28.7489 3.50133 26.8198 2.21227 24.6967 1.33278C22.5736 0.453288 20.2981 0.000584842 18 0.000518806C15.7019 0.00045277 13.4264 0.453025 11.3032 1.3324C9.18003 2.21177 7.25086 3.50072 5.62584 5.12565C2.34395 8.40734 0.500133 12.8584 0.5 17.4995C0.5 17.6122 0.506034 17.7228 0.508046 17.8344C0.688069 8.32636 8.44517 0.67083 17.9995 0.67083Z" fill="white"/>
</g>
<g style="mix-blend-mode:luminosity">
<path d="M21.2895 16.2046L17.6877 10.8618H15.1438L21.2895 19.9782V23.4573L12.7993 10.8618H10.2554L20.0175 25.3441H21.2895H22.5606H23.8326V10.8618H21.2895V16.2046Z" fill="#6B4C0B"/>
</g>
</g>
<defs>
<clipPath id="clip0_250_118270">
<rect width="35" height="35" fill="white" transform="translate(0.5)"/>
</clipPath>
</defs>
</svg>
