<svg width="458" height="494" viewBox="0 0 458 494" fill="none" xmlns="http://www.w3.org/2000/svg">
<path d="M456.5 458.5V35.5V35.431C456.5 29.8889 456.5 25.6381 456.223 22.2419C455.942 18.8141 455.372 16.125 454.157 13.7392C452.095 9.69372 448.806 6.40464 444.761 4.34336C442.375 3.12772 439.686 2.55753 436.258 2.27747C432.862 1.99999 428.611 2 423.069 2H423H407.5H357C336.543 2 317.486 12.3899 306.404 29.5852L290.866 53.6936C277.973 73.6996 255.801 85.7878 232 85.7878C204.459 85.7878 178.803 71.8 163.883 48.6502L155.861 36.2025C142.12 14.8823 118.492 2 93.1274 2H77H35H34.9305C29.3887 2 25.138 1.99999 21.7419 2.27747C18.3141 2.55753 15.625 3.12772 13.2392 4.34336C9.19372 6.40464 5.90464 9.69372 3.84336 13.7392C2.62821 16.1241 2.05771 18.8036 1.77752 22.215C1.49999 25.594 1.5 29.8187 1.5 35.3254V35.3951V458.538V458.608C1.5 464.137 1.49999 468.378 1.77748 471.768C2.05759 475.19 2.6279 477.875 3.84336 480.261C5.90464 484.306 9.19372 487.595 13.2392 489.657C15.625 490.872 18.3141 491.442 21.7419 491.723C25.1381 492 29.389 492 34.931 492H35H423H423.069C428.611 492 432.862 492 436.258 491.723C439.686 491.442 442.375 490.872 444.761 489.657C448.806 487.595 452.095 484.306 454.157 480.261C455.372 477.875 455.942 475.186 456.223 471.758C456.5 468.362 456.5 464.111 456.5 458.569V458.5Z" fill="url(#paint0_linear_1_34974)" stroke="url(#paint1_linear_1_34974)" stroke-width="3"/>
<defs>
<linearGradient id="paint0_linear_1_34974" x1="440" y1="18.5" x2="2.99991" y2="451.5" gradientUnits="userSpaceOnUse">
<stop stop-color="#242424"/>
<stop offset="1" stop-color="#131313"/>
</linearGradient>
<linearGradient id="paint1_linear_1_34974" x1="445" y1="12.5" x2="2.83641" y2="309.769" gradientUnits="userSpaceOnUse">
<stop stop-color="#16B768"/>
<stop offset="0.609375" stop-color="#9FE6FC"/>
<stop offset="1" stop-color="#3975E9"/>
</linearGradient>
</defs>
</svg>
