<svg width="92" height="92" viewBox="0 0 92 92" fill="none" xmlns="http://www.w3.org/2000/svg">
<g clip-path="url(#clip0_171_3215587)">
<rect x="4" y="4" width="84" height="84" rx="42" fill="url(#paint0_linear_171_3215587)"/>
<path d="M27.2791 59.0698L26.7472 94.7307C22.7254 95.1057 18.9817 95.0654 16.1004 93.7348C15.7579 93.5775 15.5564 93.2186 15.5846 92.8477L15.8546 89.3275L15.8908 88.8477C14.1983 88.4163 15.8103 70.9205 21.8469 62.9004C23.3742 60.8803 25.1796 59.4569 27.2791 59.0698Z" fill="#16B768"/>
<g opacity="0.6">
<path d="M17.4339 93.7387C17.0914 93.5814 16.8899 93.2225 16.9181 92.8516L17.1881 89.3315C17.2606 89.2871 17.3332 89.2387 17.4057 89.1944C17.2646 89.0371 17.0632 88.7911 16.8778 88.4645C16.0557 87.021 16.3096 85.4686 16.4224 84.7267C17.2606 79.3638 16.0678 83.2993 17.2727 78.0897C18.3245 73.5453 18.8484 71.2752 19.8598 68.4365C21.8868 62.7511 23.2852 61.4044 24.4619 60.6342C25.5338 59.9366 26.5775 59.6221 27.2707 59.4689L27.2747 59.0657C25.1711 59.4568 23.3698 60.8761 21.8465 62.8963C15.8139 70.9204 14.202 88.4202 15.8945 88.8476L15.8582 89.3274L15.5882 92.8476C15.56 93.2225 15.7615 93.5774 16.1041 93.7346C18.1915 94.6983 20.7343 94.9846 23.5068 94.9241C21.2501 94.8758 19.1828 94.5451 17.4339 93.7387Z" fill="white"/>
</g>
<path d="M22.8535 95.5453C20.4477 95.5453 17.9532 95.259 15.8497 94.2873C15.2855 94.0252 14.9389 93.4284 14.9873 92.8034L15.2694 89.1422C14.8744 88.6946 14.5843 87.6261 14.673 84.993C14.7898 81.4245 15.6723 75.227 17.7719 69.5053C19.4402 64.957 22.4223 59.3562 27.1694 58.4732C27.3467 58.4409 27.5321 58.4893 27.6691 58.6062C27.8061 58.7232 27.8867 58.8965 27.8827 59.078L27.3507 94.7429C27.3467 95.0534 27.109 95.3074 26.8027 95.3356C25.5776 95.4485 24.2317 95.5453 22.8535 95.5453ZM16.1559 88.2994C16.3776 88.4043 16.5186 88.6381 16.4985 88.8922L16.1922 92.8921C16.1841 93.0171 16.2486 93.1341 16.3574 93.1824C18.6423 94.2389 21.6808 94.5453 26.1539 94.1744L26.6657 59.8481C22.8978 61.0538 20.3872 65.9005 18.9204 69.8803C17.6268 73.3923 16.6113 77.731 16.1358 81.7834C15.6482 85.9366 15.9262 87.9204 16.1559 88.2994Z" fill="#242424"/>
<path d="M15.8754 86.2873C16.0325 87.7792 15.9519 88.884 17.7009 89.2146C17.9427 89.259 17.9548 89.6138 17.717 89.6743C15.4966 90.2671 14.6422 88.2026 14.6624 86.3518C14.6745 85.5816 15.7867 85.5292 15.8754 86.2873Z" fill="#242424"/>
<path d="M63.778 59.0706L64.3099 94.7314C68.3317 95.1064 72.0754 95.0661 74.9567 93.7355C75.2992 93.5782 75.5007 93.2194 75.4725 92.8484L75.2025 89.3283L75.1663 88.8484C76.8588 88.417 75.2469 70.9212 69.2102 62.9012C67.6869 60.881 65.8816 59.4576 63.778 59.0706Z" fill="#16B768"/>
<g opacity="0.6">
<path d="M73.6244 93.7381C73.9669 93.5808 74.1684 93.2219 74.1402 92.851L73.8702 89.3308C73.7977 89.2865 73.7251 89.2381 73.6526 89.1937C73.7936 89.0365 73.9951 88.7905 74.1805 88.4639C75.0026 87.0244 74.7487 85.472 74.6359 84.7301C73.8017 79.3632 74.9945 83.3027 73.7856 78.089C72.7338 73.5447 72.2099 71.2746 71.1984 68.44C69.1714 62.7545 67.7731 61.4078 66.5964 60.6376C65.5245 59.94 64.4807 59.6255 63.7876 59.4723L63.7836 59.0691C65.8871 59.4602 67.6885 60.8796 69.2117 62.8997C75.2484 70.9198 76.8603 88.4196 75.1678 88.847L75.2041 89.3268L75.4741 92.8469C75.5023 93.2219 75.3008 93.5768 74.9582 93.734C72.8708 94.6977 70.328 94.984 67.5555 94.9235C69.8081 94.8751 71.8754 94.5445 73.6244 93.7381Z" fill="white"/>
</g>
<path d="M68.2044 95.5443C66.8262 95.5443 65.4762 95.4516 64.2512 95.3347C63.9449 95.3064 63.7071 95.0484 63.7031 94.7419L63.1712 59.077C63.1671 58.8956 63.2477 58.7222 63.3847 58.6052C63.5218 58.4883 63.7071 58.4399 63.8844 58.4722C68.6316 59.3512 71.6177 64.956 73.286 69.5043C75.3855 75.226 76.2681 81.4235 76.3849 84.992C76.4695 87.6291 76.1834 88.6976 75.7925 89.1412L76.0746 92.8024C76.123 93.4274 75.7764 94.0242 75.2122 94.2863C73.1046 95.254 70.6102 95.5443 68.2044 95.5443ZM64.904 94.1774C69.3771 94.5524 72.4156 94.2419 74.7005 93.1855C74.8093 93.1371 74.8737 93.0161 74.8657 92.8952L74.5594 88.8952C74.5393 88.6412 74.6803 88.4073 74.9019 88.3025C75.1276 87.9194 75.4057 85.9356 74.9181 81.7864C74.4426 77.7341 73.427 73.3954 72.1335 69.8833C70.6666 65.8995 68.1601 61.0528 64.3882 59.8472L64.904 94.1774Z" fill="#242424"/>
<path d="M76.3927 86.352C76.4129 88.2068 75.5626 90.2673 73.3381 89.6745C73.1084 89.6141 73.1165 89.2713 73.3422 89.2189C73.7089 89.1262 74.0514 89.0294 74.3053 88.8681C75.1596 88.3278 75.0549 87.1947 75.1838 86.2835C75.2805 85.5254 76.3847 85.5899 76.3927 86.352Z" fill="#242424"/>
<path d="M66.2594 67.6836C68.1364 82.1595 69.271 95.4494 64.8886 99.9905C66.2299 105.253 58.9794 108.119 45.4022 108.119H45.5793C32.0021 108.119 24.7516 105.253 26.0929 99.9905C21.7105 95.4494 22.8451 82.1595 24.7221 67.6836L26.3755 57.196L64.2222 57.5759L66.2594 67.6836Z" fill="#16B768"/>
<g opacity="0.6">
<path d="M66.2568 67.6832C65.9658 66.434 65.6832 65.1637 65.4132 63.8638C64.9619 61.7157 64.5655 59.6181 64.2196 57.5755C57.7536 57.508 51.2877 57.4447 44.8217 57.3813L64.3166 58.8838C64.9619 61.8169 65.6115 64.7501 66.2568 67.6832C65.3542 72.448 65.4723 76.2379 65.7633 78.8756C66.0923 81.8257 66.6491 83.3872 66.7461 87.253C66.8515 91.4565 66.1935 94.1027 66.0417 94.7146C65.3753 97.4368 64.3714 99.5596 63.5785 100.978C63.549 101.518 63.4393 102.425 62.9458 103.371C61.3936 106.329 57.5006 106.869 57.5512 107.017C57.6018 107.169 61.9884 107.089 63.975 103.911C64.9282 102.383 64.9324 100.775 64.8818 99.9943C67.2227 94.7948 67.809 90.5027 67.9144 87.5653C67.9777 85.8308 67.8722 84.59 67.0962 76.4785C66.8726 74.0855 66.59 71.1144 66.2568 67.6832Z" fill="white"/>
</g>
<path d="M66.5628 67.6472C67.2629 70.3313 67.4443 73.0872 67.7902 75.8262C68.406 82.334 70.0509 95.4045 65.3396 100.431L65.4956 99.8358C65.9512 101.482 65.4999 103.326 64.264 104.525C61.223 107.534 55.4445 108.171 51.3532 108.542C49.3666 108.69 47.38 108.753 45.3934 108.753V107.487H45.5705C45.9206 107.487 46.2032 107.77 46.2032 108.12C46.2032 108.471 45.9206 108.753 45.5705 108.753C43.5839 108.749 41.5973 108.69 39.6107 108.542C35.1735 108.15 25.8099 107.158 25.3038 101.499C25.27 100.929 25.3417 100.368 25.4683 99.8358L25.6243 100.431C20.875 95.4298 22.482 82.3382 23.1105 75.8178C23.4184 73.0703 23.739 70.3313 24.4265 67.6472C24.4644 67.491 24.6247 67.3982 24.7808 67.4404C24.9115 67.4741 25.0001 67.5923 25.0001 67.7231C24.941 71.8675 24.2788 75.9275 24.0384 80.0466C23.7347 85.3389 22.9207 95.4762 26.5438 99.5531C26.6957 99.7219 26.7463 99.9456 26.6999 100.148C26.3582 101.406 26.6746 102.731 27.6152 103.647C30.3905 106.348 35.9538 106.939 39.7077 107.281C41.6564 107.424 43.6134 107.487 45.5705 107.487V108.753H45.3934C45.0433 108.753 44.7607 108.471 44.7607 108.12C44.7607 107.77 45.0433 107.487 45.3934 107.487C47.3505 107.483 49.3118 107.424 51.2562 107.281C55.1366 106.956 65.6644 105.867 64.264 100.148C64.2134 99.9287 64.2809 99.705 64.4201 99.5531C65.2594 98.6499 65.8289 97.4598 66.2211 96.2063C67.3642 92.3194 67.3262 88.1876 67.2123 84.1403C67.0689 80.0381 66.6766 75.9275 66.2253 71.8422C66.0693 70.479 65.9259 69.1116 65.9427 67.7231C65.9427 67.5501 66.0861 67.415 66.2549 67.415C66.4067 67.4193 66.529 67.5163 66.5628 67.6472Z" fill="#242424"/>
<path d="M50.2436 72.3658C50.1993 72.0438 49.8858 71.8387 49.576 71.9157V71.9157C47.8327 72.3313 46.082 72.273 44.4699 71.8272C44.1294 71.733 43.7721 71.9452 43.7078 72.2991L43.5099 73.3876C43.4689 73.6133 43.6035 73.8335 43.8201 73.8951V73.8951C44.0086 73.9487 44.209 73.8672 44.3097 73.696L44.6783 73.0692C44.7592 72.9317 44.9162 72.8623 45.0707 72.8918V72.8918C45.2287 72.9221 45.3522 73.0507 45.3739 73.2132L45.4627 73.8769C45.492 74.0955 45.664 74.2651 45.8791 74.2875V74.2875C46.0909 74.3096 46.2908 74.1832 46.3657 73.9798L46.6029 73.3363C46.6589 73.1844 46.8047 73.0874 46.9637 73.0907V73.0907C47.1228 73.0939 47.2645 73.1966 47.3143 73.3507L47.5253 74.0033C47.592 74.2095 47.7866 74.3439 47.999 74.3304V74.3304C48.2149 74.3167 48.3936 74.1541 48.4316 73.9368L48.5474 73.2747C48.5757 73.1131 48.7021 72.9897 48.8613 72.9658V72.9658C49.0169 72.9425 49.1728 73.0183 49.248 73.1591L49.5919 73.8033C49.6852 73.9782 49.8815 74.068 50.0716 74.0228V74.0228C50.2909 73.9707 50.4349 73.7565 50.4037 73.5292L50.2436 72.3658Z" fill="#242424"/>
<path d="M49.0682 74.5183C48.8747 74.4679 48.6692 74.5441 48.5664 74.7044L48.1904 75.2903C48.108 75.4187 47.9474 75.4834 47.7893 75.4555V75.4555C47.6276 75.4269 47.5011 75.3067 47.4786 75.1549L47.3867 74.5338C47.3563 74.3288 47.1792 74.1694 46.9582 74.1481V74.1481C46.7408 74.1271 46.5358 74.2452 46.4593 74.4356L46.2182 75.0351C46.1612 75.1769 46.0112 75.2671 45.8485 75.2638V75.2638C45.6857 75.2605 45.5415 75.1643 45.4902 75.0203L45.2732 74.4106C45.2046 74.2178 45.0053 74.092 44.7879 74.1042V74.1042C44.5671 74.1166 44.3845 74.2681 44.346 74.4709L44.2289 75.0867C44.2003 75.2375 44.0689 75.3525 43.9062 75.3745V75.3745C43.7471 75.396 43.5893 75.325 43.512 75.1935L43.1599 74.5941C43.0638 74.4304 42.8621 74.3464 42.6674 74.389V74.389C42.4434 74.4379 42.2972 74.638 42.3302 74.8502L42.4893 75.8713C42.5412 76.2041 42.898 76.4161 43.2498 76.3417C44.9157 75.9895 46.7078 76.0045 48.4737 76.4635V76.4635C48.7874 76.5437 49.117 76.3677 49.1757 76.0701L49.3879 74.9944C49.4296 74.7829 49.2909 74.5763 49.0682 74.5183V74.5183Z" fill="#242424"/>
<path d="M33.5674 43.4521C32.2465 44.6571 30.2618 45.3983 28.0449 45.5224C24.2161 45.7412 19.7007 44.1411 16.7089 39.9874C13.7695 35.9056 13.9166 31.0564 14.8125 27.6799C15.3585 25.6291 16.1792 24.1237 16.7514 23.6698C18.2686 22.4649 26.8449 20.5742 32.9789 27.4382C39.1128 34.3055 36.533 40.7385 33.5674 43.4521Z" fill="#FBA3CB"/>
<path d="M58.4618 43.5175C59.7762 44.7323 61.7543 45.4801 63.9744 45.6172C67.8 45.8556 72.3252 44.2784 75.3399 40.141C78.2989 36.0755 78.1779 31.223 77.3017 27.8432C76.7687 25.7892 75.9578 24.2806 75.3856 23.8234C73.875 22.6086 65.3085 20.6722 59.1386 27.5069C52.9654 34.3415 55.5125 40.7908 58.4618 43.5175Z" fill="#FBA3CB"/>
<path d="M27.3194 46.1694C22.9609 46.1694 18.8509 44.0305 16.1992 40.3503C12.6385 35.4097 13.6194 29.731 14.208 27.5203C14.2112 27.5072 14.2145 27.4941 14.2178 27.4844C14.7573 25.4728 15.5976 23.7846 16.3627 23.1772C18.2199 21.7012 27.1821 20.0064 33.45 27.0207C37.0238 31.0209 37.5208 34.688 37.3115 37.0587C37.0794 39.6613 35.8402 42.2247 33.9928 43.913C32.564 45.2192 30.4648 46.0127 28.0812 46.1466C27.8262 46.1629 27.5711 46.1694 27.3194 46.1694ZM15.4112 27.8729C14.8684 29.9367 13.9889 35.1354 17.2193 39.6189C19.7697 43.1619 23.8045 45.1375 28.0093 44.8959C30.0757 44.7783 31.946 44.0828 33.146 42.9889C35.5982 40.7455 38.6227 34.6945 32.5149 27.8534C29.3531 24.3201 25.642 23.347 23.0884 23.1511C20.0705 22.9225 17.7294 23.6931 17.1441 24.1568C16.7779 24.4475 15.9899 25.7014 15.421 27.837C15.4177 27.8501 15.4145 27.8631 15.4112 27.8729Z" fill="#242424"/>
<path d="M33.5659 43.4521C32.245 44.6571 30.2603 45.3983 28.0434 45.5224C31.7643 39.2756 28.7595 28.7999 24.2081 26.2071C19.297 23.4053 14.9156 27.5786 14.8143 27.6799C15.357 25.6291 16.1777 24.1237 16.7499 23.6698C18.2671 22.4649 26.8434 20.5742 32.9774 27.4382C39.1113 34.3055 36.5315 40.7385 33.5659 43.4521Z" fill="#5C546C"/>
<g opacity="0.6">
<path d="M14.8522 27.5779C14.8653 27.5648 14.9601 27.4734 15.1269 27.333C15.5846 26.1672 16.098 25.3378 16.4936 25.021C18.0042 23.8063 26.5708 21.8731 32.7407 28.7045C35.9286 32.2345 36.7885 35.6632 36.4714 38.5271C37.2953 35.4085 36.7657 31.3985 33.0153 27.2448C26.8454 20.4069 18.2789 22.3466 16.7683 23.5581C16.1961 24.0153 15.3852 25.5272 14.8522 27.5779Z" fill="white"/>
</g>
<path d="M28.0453 46.0935C27.8459 46.0935 27.6595 45.989 27.5549 45.8192C27.4437 45.6396 27.4437 45.411 27.5516 45.2314C29.2551 42.3676 29.618 38.178 28.5194 34.021C27.6202 30.6118 25.8579 27.8068 23.9222 26.7031C19.4101 24.1266 15.3818 27.9244 15.2118 28.0876C15.0287 28.2672 14.7475 28.2999 14.5252 28.1693C14.3028 28.0386 14.1949 27.7774 14.2603 27.5292C14.79 25.5471 15.6467 23.8131 16.3987 23.2188C18.2461 21.7493 27.1658 20.0676 33.4076 27.0557C36.9683 31.0429 37.4653 34.6937 37.256 37.0514C37.0271 39.6409 35.7912 42.1912 33.9536 43.8697C32.5346 45.1661 30.4485 45.9563 28.0747 46.0902C28.0649 46.0935 28.0551 46.0935 28.0453 46.0935ZM20.6722 24.6621C21.8656 24.6621 23.1571 24.9495 24.4944 25.7104C26.7178 26.9806 28.6371 29.9783 29.6278 33.7304C30.6839 37.7339 30.4583 41.7961 29.0458 44.8428C30.7068 44.5848 32.1782 43.9481 33.1787 43.0305C35.6441 40.774 38.6881 34.6904 32.5509 27.8199C26.793 21.3705 18.5632 22.9576 17.1082 24.1135C16.8499 24.3193 16.3791 24.9985 15.9246 26.1251C17.0526 25.4263 18.7234 24.6621 20.6722 24.6621Z" fill="#242424"/>
<g opacity="0.2">
<path d="M29.7159 39.0936C29.353 39.2307 28.9639 39.3058 28.5617 39.3025C26.4724 39.296 24.782 37.2877 24.7885 34.8125C24.7951 32.6573 26.0833 30.858 27.7966 30.4368C29.0326 32.9185 29.7781 36.0534 29.7159 39.0936Z" fill="#242424"/>
</g>
<path d="M28.5695 39.9285C28.5663 39.9285 28.563 39.9285 28.5597 39.9285C26.1271 39.922 24.1555 37.6263 24.162 34.8082C24.1685 32.4179 25.6334 30.3215 27.6475 29.8251C27.9319 29.7533 28.2295 29.8904 28.3603 30.1549C29.6845 32.813 30.4071 36.0752 30.3417 39.1056C30.3352 39.3603 30.175 39.5889 29.9363 39.6771C29.5014 39.8469 29.0404 39.9285 28.5695 39.9285ZM27.4709 31.2097C26.2611 31.7648 25.4208 33.1951 25.4176 34.8115C25.411 36.9373 26.8235 38.6713 28.563 38.6746C28.7428 38.6746 28.9194 38.6582 29.0894 38.6223C29.0731 36.1112 28.4943 33.4596 27.4709 31.2097Z" fill="#242424"/>
<path d="M28.5695 39.9285C28.5663 39.9285 28.563 39.9285 28.5597 39.9285C26.1271 39.922 24.1555 37.6263 24.162 34.8082C24.1685 32.4179 25.6334 30.3215 27.6475 29.8251C27.9319 29.7533 28.2295 29.8904 28.3603 30.1549C29.6845 32.813 30.4071 36.0752 30.3417 39.1056C30.3352 39.3603 30.175 39.5889 29.9363 39.6771C29.5014 39.8469 29.0404 39.9285 28.5695 39.9285ZM27.4709 31.2097C26.2611 31.7648 25.4208 33.1951 25.4176 34.8115C25.411 36.9373 26.8235 38.6713 28.563 38.6746C28.7428 38.6746 28.9194 38.6582 29.0894 38.6223C29.0731 36.1112 28.4943 33.4596 27.4709 31.2097Z" fill="#242424"/>
<path d="M64.77 46.2698C64.4921 46.2698 64.2174 46.26 63.9362 46.2437C61.5526 46.0968 59.46 45.2902 58.0377 43.9775C56.2002 42.2761 54.9708 39.7095 54.755 37.1036C54.5555 34.7329 55.0754 31.069 58.6688 27.0884C64.976 20.1068 73.9284 21.8473 75.779 23.3364C76.5409 23.947 77.3714 25.6385 77.901 27.6533C77.9043 27.6664 77.9076 27.6762 77.9109 27.6892C78.4863 29.9032 79.4378 35.5884 75.851 40.5128C73.1927 44.1571 69.0991 46.2698 64.77 46.2698ZM58.8911 43.0566C60.0845 44.1571 61.9515 44.8624 64.0147 44.993C68.2195 45.2543 72.2608 43.3048 74.8308 39.7748C78.0842 35.3076 77.2308 30.1024 76.7011 28.0386C76.6978 28.0256 76.6945 28.0158 76.6913 28.0027C76.1354 25.8638 75.354 24.6066 74.991 24.316C74.409 23.849 72.0712 23.0653 69.0533 23.2776C66.4964 23.4572 62.782 24.4107 59.6039 27.9309C53.4569 34.7329 56.4487 40.8001 58.8911 43.0566Z" fill="#242424"/>
<path d="M58.4623 43.5175C59.7767 44.7323 61.7549 45.4801 63.975 45.6172C60.29 39.3508 63.3505 28.8914 67.9117 26.3215C72.8391 23.5458 77.1943 27.7452 77.2989 27.8432C76.766 25.7892 75.9551 24.2806 75.3829 23.8234C73.8723 22.6086 65.3057 20.6722 59.1359 27.5069C52.966 34.3415 55.513 40.7908 58.4623 43.5175Z" fill="#5C546C"/>
<g opacity="0.6">
<path d="M77.2989 27.8533C77.2858 27.8403 77.191 27.7488 77.0242 27.6084C76.5665 26.4426 76.0531 25.6132 75.6575 25.2965C74.1469 24.0817 65.5803 22.1485 59.4104 28.9799C56.2225 32.5066 55.3626 35.9354 55.6797 38.7992C54.8558 35.6807 55.3855 31.6707 59.1358 27.517C65.309 20.6823 73.8755 22.622 75.3861 23.8335C75.955 24.2907 76.7659 25.8026 77.2989 27.8533Z" fill="white"/>
</g>
<path d="M63.9769 46.1883C63.9638 46.1883 63.954 46.1883 63.9409 46.1883C61.5704 46.0414 59.4876 45.2413 58.0751 43.9384C56.2474 42.2469 55.0245 39.69 54.8087 37.1005C54.6125 34.7395 55.1291 31.092 58.7094 27.1244C64.9905 20.1722 73.9004 21.8997 75.7412 23.3789C76.4867 23.9765 77.3368 25.7138 77.8534 27.6992C77.9188 27.9473 77.8077 28.2086 77.5853 28.3359C77.363 28.4633 77.0818 28.4306 76.8987 28.251C76.7319 28.0878 72.7233 24.2671 68.1948 26.8175C66.2559 27.9114 64.4772 30.7034 63.5617 34.1093C62.4434 38.2597 62.7835 42.4526 64.4706 45.323C64.5785 45.5058 64.5753 45.7311 64.4641 45.9107C64.3595 46.0871 64.1764 46.1883 63.9769 46.1883ZM58.8533 43.0992C59.8506 44.02 61.3187 44.6666 62.9764 44.9344C61.5802 41.8779 61.3775 37.8156 62.4565 33.8187C63.4668 30.0699 65.4025 27.0853 67.6357 25.828C71.1604 23.8426 74.3909 25.1521 76.199 26.2917C75.751 25.1619 75.2867 24.4794 75.0284 24.2737C73.58 23.1079 65.36 21.4752 59.5628 27.8918C53.3897 34.7297 56.4011 40.8297 58.8533 43.0992Z" fill="#242424"/>
<path d="M62.3396 39.1812C62.7025 39.3216 63.0916 39.3967 63.4938 39.3967C65.5831 39.4032 67.2834 37.4015 67.2899 34.9263C67.2964 32.771 66.0147 30.9652 64.3047 30.5342C63.0557 33.0061 62.2938 36.1377 62.3396 39.1812Z" fill="#FBA3CB"/>
<g opacity="0.2">
<path d="M62.3396 39.1812C62.7025 39.3216 63.0916 39.3967 63.4938 39.3967C65.5831 39.4032 67.2834 37.4015 67.2899 34.9263C67.2964 32.771 66.0147 30.9652 64.3047 30.5342C63.0557 33.0061 62.2938 36.1377 62.3396 39.1812Z" fill="#242424"/>
</g>
<path d="M63.5008 40.0233C63.4975 40.0233 63.4943 40.0233 63.491 40.0233C63.0169 40.0233 62.5526 39.9351 62.1144 39.7653C61.8758 39.6739 61.7188 39.4453 61.7123 39.1906C61.6665 36.1602 62.4054 32.9046 63.7427 30.253C63.8735 29.9918 64.1711 29.8546 64.4588 29.9264C66.4697 30.4359 67.9247 32.5388 67.9181 34.9292C67.9149 36.2745 67.4636 37.5415 66.6528 38.4983C65.8157 39.4812 64.6975 40.0233 63.5008 40.0233ZM62.9678 38.7139C63.1411 38.7498 63.3177 38.7694 63.4943 38.7694C64.3248 38.7694 65.0964 38.3873 65.6948 37.6852C66.316 36.9538 66.6593 35.9709 66.6626 34.9226C66.6658 33.303 65.8353 31.8694 64.6256 31.3077C63.5891 33.5544 62.9973 36.1994 62.9678 38.7139Z" fill="#242424"/>
<path d="M69.2042 53.5227C69.1682 66.5748 53.8432 67.9071 46.6401 67.9626C46.3949 67.9626 46.1595 67.9659 45.9339 67.9626C39.9013 67.9463 26.4793 67.13 23.3861 57.7188C22.9644 56.442 22.7355 55.0085 22.7387 53.3986C22.7812 37.8092 35.2518 26.687 46.0418 26.7164C56.9037 26.7458 69.2467 37.9333 69.2042 53.5227Z" fill="#74698B"/>
<g opacity="0.6">
<path d="M69.1557 53.0427C68.1061 38.606 56.417 28.4569 46.075 28.4275C35.2916 28.3981 22.8373 39.4975 22.7687 55.0641C22.7196 54.5644 22.6935 54.0485 22.6967 53.5097C22.7393 37.9203 35.2098 26.8013 45.9998 26.8274C56.7211 26.8568 68.8908 37.7603 69.1557 53.0427Z" fill="white"/>
</g>
<path d="M65.5258 49.7782C61.285 47.6067 55.7821 52.629 46.6924 48.3545H46.5027C37.3901 52.58 30.6611 47.5251 26.4073 49.6737C22.1534 51.8192 23.3795 57.7297 23.3795 57.7297C26.3876 66.8926 40.0615 67.6927 45.924 67.7057C46.1235 67.7057 46.3294 67.7057 46.542 67.7057C46.7545 67.709 46.9638 67.709 47.1599 67.709C53.0225 67.7253 65.4473 66.9971 68.5044 57.8505C68.511 57.8472 69.7698 51.9465 65.5258 49.7782Z" fill="white"/>
<g opacity="0.2">
<path d="M69.0087 53.6217C68.9727 66.6739 53.6477 68.0062 46.4446 68.065C46.1993 68.065 45.9639 68.065 45.7383 68.065C39.7058 68.0486 26.287 67.2323 23.1906 57.8211C22.7688 56.5443 22.5399 55.1108 22.5432 53.5009C22.5465 52.4527 22.6053 51.4208 22.7165 50.415C22.8113 51.4273 23.0108 52.3645 23.2952 53.2299C26.3883 62.641 39.8104 63.4574 45.843 63.4737C46.0686 63.4737 46.304 63.4737 46.5492 63.4737C53.2946 63.4182 67.1646 62.2491 68.9237 51.3784C68.9825 52.1098 69.0087 52.8609 69.0087 53.6217Z" fill="#242424"/>
</g>
<path d="M46.0811 68.593C46.0321 68.593 45.9798 68.593 45.9307 68.593C33.0743 68.5571 25.0734 64.8671 22.7879 57.9181C22.3334 56.5401 22.1078 55.0184 22.1111 53.3987C22.1307 46.0318 24.8968 39.06 29.9027 33.7732C34.4574 28.9631 40.4703 26.0928 46.0026 26.0928C46.0157 26.0928 46.0321 26.0928 46.0451 26.0928C51.6102 26.1091 57.6394 29.0121 62.168 33.8613C67.1281 39.1678 69.8485 46.1526 69.8288 53.5293C69.8125 59.4627 66.7913 63.7274 60.8503 66.1994C57.1425 67.744 52.3622 68.5505 46.6435 68.5963C46.4506 68.593 46.2642 68.593 46.0811 68.593ZM46.0026 27.3435C35.3435 27.3435 23.4091 38.4689 23.3699 53.3987C23.3666 54.8845 23.5726 56.2723 23.9846 57.523C26.6363 65.592 37.387 67.3129 45.9372 67.3358C46.1629 67.3358 46.395 67.3358 46.6402 67.3358C52.1922 67.2901 56.8122 66.5194 60.3696 65.0369C65.8006 62.7772 68.5635 58.901 68.5765 53.5195L69.2043 53.5228L68.5765 53.5195C68.5962 46.4661 65.9935 39.7849 61.2524 34.7104C56.9528 30.1093 51.2668 27.3565 46.0419 27.3402C46.0288 27.3435 46.0157 27.3435 46.0026 27.3435Z" fill="#242424"/>
<path d="M54.9696 64.3653C54.5412 65.0968 53.9658 65.7531 53.302 66.3083C52.635 66.8634 51.8699 67.3108 51.0656 67.6536C49.4471 68.3361 47.6847 68.5908 45.9616 68.5941C44.1927 68.581 42.4728 68.1696 40.8838 67.4936C40.0925 67.1508 39.3274 66.7328 38.631 66.2201C38.4609 66.0829 38.2876 65.9556 38.1242 65.8152L37.8855 65.5964L37.7678 65.4854L37.6566 65.3645C37.3558 65.0576 37.1007 64.6984 36.9144 64.3196C37.5095 64.9204 38.219 65.3351 38.9514 65.6944C39.6871 66.047 40.4522 66.3344 41.2271 66.5695C42.7802 67.0365 44.3823 67.3304 45.9616 67.3434C47.5801 67.3402 49.192 67.1899 50.7288 66.7328C52.2655 66.2789 53.7042 65.4952 54.9696 64.3653Z" fill="#242424"/>
<path d="M14.2394 42.6381C15.9102 42.5304 17.5875 42.6316 19.2485 42.8373C20.9128 43.0431 22.564 43.3729 24.1792 43.8333C24.5847 43.9476 24.9836 44.075 25.3857 44.2023C25.7814 44.3427 26.1835 44.4701 26.5726 44.6268C27.3606 44.924 28.1323 45.2571 28.8843 45.6391C30.3916 46.3837 31.8205 47.3013 33.0695 48.4083C32.3403 47.9968 31.6243 47.5821 30.8821 47.2196C30.699 47.1217 30.5093 47.04 30.3262 46.9486C30.1399 46.8604 29.9567 46.769 29.7638 46.6873C29.5742 46.6057 29.3878 46.5208 29.2015 46.4359L28.6325 46.1975C28.4429 46.1159 28.2532 46.0408 28.0603 45.9689C27.8674 45.8938 27.6778 45.8155 27.4849 45.7436C27.099 45.6032 26.7132 45.4563 26.3241 45.3289C25.5459 45.0611 24.7612 44.813 23.97 44.5909C22.3874 44.137 20.7787 43.768 19.157 43.4415C17.5287 43.1247 15.8938 42.8537 14.2394 42.6381Z" fill="#242424"/>
<path d="M13.1875 49.2991C14.7733 48.7669 16.4212 48.437 18.0822 48.2085C19.7432 47.9799 21.4238 47.8787 23.1045 47.908C23.523 47.9146 23.9448 47.9342 24.3633 47.9538C24.7818 47.9864 25.2036 48.0093 25.6188 48.0583C26.4559 48.1432 27.2896 48.2705 28.1103 48.4436C29.7583 48.7767 31.3735 49.2959 32.8677 50.0469C32.0568 49.8347 31.259 49.6192 30.4482 49.4591C30.2487 49.4102 30.0427 49.3808 29.84 49.3383C29.6373 49.3024 29.4346 49.2599 29.2318 49.2306C29.0291 49.2012 28.8264 49.1652 28.6237 49.1293L28.0122 49.0444C27.8095 49.015 27.6035 48.9922 27.4008 48.9693C27.1948 48.9465 26.9921 48.9203 26.7861 48.9007C26.3774 48.8648 25.9687 48.8191 25.5567 48.7963C24.736 48.7375 23.9153 48.6983 23.0914 48.6852C21.4467 48.6526 19.7955 48.7048 18.1476 48.8093C16.4932 48.9269 14.842 49.0836 13.1875 49.2991Z" fill="#242424"/>
<path d="M14.0567 56.5792C15.4463 55.6485 16.9536 54.9007 18.4937 54.2444C20.037 53.5913 21.6293 53.0492 23.2609 52.641C23.6663 52.5365 24.0783 52.4483 24.4903 52.3569C24.9022 52.2785 25.3142 52.1904 25.7295 52.1283C26.56 51.9912 27.397 51.8932 28.2373 51.8475C29.9147 51.7397 31.6116 51.8181 33.2497 52.1512C32.4127 52.1577 31.5855 52.1577 30.7582 52.2165C30.5523 52.223 30.3463 52.2459 30.1403 52.2589C29.9343 52.2753 29.7283 52.2883 29.5256 52.3145C29.3196 52.3373 29.1169 52.3569 28.9109 52.3765L28.2929 52.4581C28.0902 52.481 27.8842 52.5137 27.6815 52.5463C27.4788 52.579 27.2728 52.6051 27.0733 52.641C26.6679 52.7128 26.2624 52.7782 25.8603 52.8631C25.0526 53.0198 24.2483 53.1994 23.4505 53.4019C21.8516 53.8003 20.2756 54.2868 18.7095 54.8158C17.1466 55.3546 15.5967 55.9391 14.0567 56.5792Z" fill="#242424"/>
<path d="M76.7006 43.0669C75.0462 43.2824 73.4113 43.5534 71.7863 43.8669C70.1645 44.1902 68.5558 44.5592 66.9733 45.0164C66.182 45.2384 65.3973 45.4866 64.6191 45.7544C64.2268 45.8817 63.8442 46.0319 63.4584 46.1691C63.2655 46.2409 63.0758 46.3193 62.8829 46.3944C62.69 46.4662 62.4971 46.5413 62.3107 46.623L61.7418 46.8614C61.5554 46.9463 61.3691 47.0344 61.1794 47.1128C60.9898 47.1912 60.8034 47.2859 60.617 47.374C60.4307 47.4655 60.241 47.5471 60.0612 47.6451C59.3157 48.0075 58.5996 48.419 57.8738 48.8337C59.1261 47.7267 60.5517 46.8091 62.059 46.0646C62.811 45.6858 63.5826 45.3494 64.3706 45.0523C64.763 44.8988 65.1619 44.7682 65.5575 44.6278C65.9597 44.5004 66.3586 44.3731 66.7641 44.2588C68.3793 43.7983 70.0305 43.4685 71.6947 43.2628C73.3492 43.0636 75.0298 42.9591 76.7006 43.0669Z" fill="#242424"/>
<path d="M77.7491 49.732C76.0946 49.5164 74.4435 49.3597 72.7955 49.2487C71.1443 49.1474 69.4964 49.0919 67.8518 49.1246C67.0278 49.1377 66.2071 49.1736 65.3864 49.2356C64.9744 49.2585 64.5657 49.3042 64.157 49.3401C63.951 49.3597 63.7483 49.3891 63.5423 49.4087C63.3363 49.4283 63.1336 49.4544 62.9309 49.4838L62.3195 49.5687C62.1167 49.6014 61.914 49.6373 61.708 49.6699C61.502 49.6993 61.3026 49.7418 61.0999 49.7777C60.8972 49.8169 60.6944 49.8495 60.4917 49.8985C59.6808 50.0585 58.8798 50.274 58.0721 50.4863C59.5664 49.7352 61.1816 49.216 62.8295 48.8829C63.6535 48.7099 64.4873 48.5825 65.321 48.4976C65.7396 48.4486 66.1581 48.4258 66.5766 48.3931C66.9951 48.3735 67.4169 48.3507 67.8354 48.3474C69.516 48.3148 71.1967 48.4192 72.8577 48.6478C74.5154 48.8699 76.1633 49.1997 77.7491 49.732Z" fill="#242424"/>
<path d="M76.8823 57.0098C75.3423 56.3698 73.7892 55.7853 72.2296 55.2432C70.6634 54.7142 69.0874 54.2277 67.4885 53.8293C66.6907 53.6235 65.8864 53.4472 65.082 53.2905C64.6799 53.2056 64.2744 53.1435 63.869 53.0684C63.6663 53.0325 63.4635 53.0064 63.2608 52.9737C63.0581 52.9411 62.8554 52.9084 62.6494 52.8855L62.038 52.8072C61.832 52.7876 61.6293 52.768 61.4233 52.7451C61.2173 52.719 61.0113 52.7059 60.8086 52.6896C60.6026 52.6765 60.3966 52.6537 60.1906 52.6472C59.3634 52.5884 58.5361 52.5884 57.6991 52.5818C59.3372 52.2488 61.0342 52.1704 62.7115 52.2782C63.5518 52.3239 64.3889 52.4218 65.2194 52.559C65.6346 52.621 66.0466 52.7092 66.4586 52.7876C66.8706 52.879 67.2793 52.9672 67.688 53.0717C69.3163 53.4799 70.9119 54.0219 72.4552 54.675C73.9854 55.3314 75.4894 56.0792 76.8823 57.0098Z" fill="#242424"/>
<path d="M51.174 47.3577C51.9457 47.8116 52.3511 48.69 52.3479 49.5847C52.3446 51.0085 51.1773 52.1873 49.6504 52.4224C49.464 52.4486 49.2744 52.4649 49.0782 52.4649C48.591 52.4649 48.13 52.3669 47.7147 52.1971C46.8777 51.851 46.2336 51.2011 45.9654 50.4109C45.6941 51.2011 45.0434 51.8477 44.2063 52.1906C43.7911 52.3571 43.3268 52.4518 42.8396 52.4518C42.6467 52.4518 42.4538 52.4355 42.2674 52.4061C40.7405 52.1612 39.5797 50.9791 39.583 49.5553C39.5863 48.8435 39.8773 48.1904 40.3645 47.6875C40.3645 47.6842 45.1938 43.8571 51.174 47.3577Z" fill="white"/>
<g opacity="0.2">
<path d="M52.3583 49.5836C52.355 51.0073 51.191 52.1862 49.6608 52.4213C49.4744 52.4507 49.2848 52.4637 49.0886 52.4637C48.6014 52.4637 48.1404 52.3658 47.7252 52.196C46.8881 51.8498 46.244 51.2 45.9759 50.4097C45.7045 51.2 45.0538 51.8465 44.2168 52.1894C43.7983 52.356 43.3372 52.4507 42.8501 52.4507C42.6571 52.4507 42.4642 52.4343 42.2779 52.4049C40.7509 52.1633 39.5934 50.9779 39.5934 49.5542C39.5934 49.0578 39.7373 48.5941 39.9825 48.1892C39.9825 48.1892 41.1662 52.4213 45.9791 49.1786C45.9791 49.1786 50.6581 52.3494 51.9692 48.2872C51.979 48.2578 51.9855 48.2317 51.9986 48.2055C52.2406 48.6105 52.3616 49.0937 52.3583 49.5836Z" fill="#242424"/>
</g>
<path d="M49.6507 52.4223C49.4512 53.957 49.0294 55.3057 48.4507 56.3147C47.7804 57.4903 46.9009 58.1989 45.9461 58.1989C44.9881 58.1956 44.1151 57.4805 43.4514 56.3017C42.8792 55.2926 42.4606 53.9407 42.271 52.4027C42.4574 52.4321 42.647 52.4484 42.8432 52.4484C44.3145 52.4517 45.5603 51.5928 45.969 50.4075C46.3712 51.5928 47.6137 52.4582 49.085 52.4647C49.2747 52.4647 49.4643 52.4517 49.6507 52.4223Z" fill="#242424"/>
<path d="M48.4522 56.3148C47.7819 57.4904 46.9024 58.199 45.9477 58.199C44.9896 58.1958 44.1166 57.4806 43.4529 56.3018C44.1264 55.8283 45.0027 55.5442 45.9542 55.5442C46.9057 55.5475 47.7787 55.8381 48.4522 56.3148Z" fill="#E34675"/>
<path d="M47.7151 52.197C47.4797 53.4215 46.78 54.3065 45.9528 54.3032C45.1288 54.2999 44.4324 53.4117 44.2035 52.1872C45.0438 51.8475 45.6912 51.1977 45.9626 50.4075C46.234 51.201 46.8781 51.8508 47.7151 52.197Z" fill="white"/>
<path d="M51.2259 47.2898C51.6738 47.5021 52.0793 47.8547 52.3605 48.3054C52.6449 48.756 52.7986 49.3111 52.779 49.8663C52.7561 50.4247 52.573 50.9863 52.2493 51.4435C52.0923 51.6786 51.9027 51.8843 51.6967 52.0737C51.4874 52.2566 51.2553 52.4133 51.0133 52.5505C50.5262 52.8117 49.9801 52.9587 49.4341 53.0011C48.888 53.037 48.3355 52.9685 47.8156 52.7921C47.2957 52.6158 46.8118 52.335 46.3998 51.9627C45.9944 51.5872 45.6609 51.1137 45.4745 50.5716L46.4521 50.5749C46.2788 51.0908 45.9715 51.5512 45.5889 51.9202C45.2064 52.2892 44.7486 52.5701 44.2549 52.7562C43.7645 52.9391 43.238 53.024 42.7149 53.0109C42.4533 53.0011 42.195 52.9685 41.9367 52.9097C41.8059 52.8868 41.6817 52.8411 41.5574 52.8052C41.4332 52.7595 41.3089 52.7138 41.1912 52.6615C40.7106 52.4427 40.2692 52.1325 39.9226 51.7243C39.5727 51.3227 39.3111 50.8328 39.2163 50.3038C39.1117 49.7781 39.1673 49.2295 39.37 48.756C39.5662 48.2792 39.9062 47.8841 40.3051 47.6261C40.3444 47.6 40.3999 47.6098 40.4261 47.6523C40.4457 47.6817 40.4457 47.7176 40.4294 47.7437C39.9684 48.5274 39.867 49.3699 40.122 50.0753C40.2397 50.4279 40.4425 50.7479 40.704 51.0157C40.7662 51.0843 40.8414 51.1431 40.91 51.2051C40.9885 51.2606 41.0572 51.3227 41.1389 51.3716L41.2566 51.45L41.3809 51.5186C41.4626 51.5676 41.5509 51.6002 41.6359 51.6427C42.3389 51.9333 43.1596 51.966 43.8854 51.7178C44.608 51.4761 45.2325 50.9275 45.4745 50.2385V50.2353C45.5693 49.9675 45.8636 49.8238 46.135 49.9185C46.2886 49.974 46.4031 50.0948 46.4521 50.2385C46.5764 50.601 46.7955 50.9373 47.093 51.2018C47.3873 51.4696 47.7502 51.6655 48.136 51.7831C48.9142 52.0215 49.7839 51.9235 50.4902 51.5643C50.8433 51.3814 51.1637 51.1365 51.4057 50.8296C51.6542 50.5259 51.8144 50.1667 51.8929 49.7781C51.9648 49.3895 51.9452 48.9715 51.8079 48.5666C51.6738 48.1617 51.4384 47.7731 51.1212 47.4204C51.0885 47.3845 51.0918 47.329 51.1278 47.2963C51.1572 47.28 51.1964 47.2767 51.2259 47.2898Z" fill="#242424"/>
<path d="M43.2439 47.563C42.9463 48.2357 44.1888 50.5541 45.9315 50.5574C47.6743 50.5607 48.8972 48.1834 48.5898 47.576C48.204 46.8217 43.6166 46.7237 43.2439 47.563Z" fill="#242424"/>
<path d="M45.9475 58.7108C45.9442 58.7108 45.9442 58.7108 45.941 58.7108C44.8293 58.7076 43.783 57.9435 42.9982 56.5524C42.3835 55.465 41.9519 54.051 41.7558 52.464C41.7361 52.304 41.7917 52.144 41.9062 52.0329C42.0206 51.9219 42.1841 51.8697 42.341 51.8958C42.5078 51.9219 42.6713 51.935 42.8348 51.935C42.838 51.935 42.8413 51.935 42.8446 51.935C44.0511 51.935 45.1334 51.2394 45.4767 50.2402C45.5486 50.0345 45.7415 49.894 45.9606 49.894C46.1797 49.894 46.3758 50.0345 46.4445 50.2402C46.7845 51.2427 47.8668 51.9448 49.0766 51.948C49.2368 51.9513 49.4036 51.935 49.5703 51.9121C49.7305 51.8893 49.8907 51.9415 50.0052 52.0525C50.1196 52.1636 50.1752 52.3236 50.1556 52.4836C49.9496 54.0706 49.5115 55.4813 48.8902 56.5654C48.1055 57.95 47.0592 58.7108 45.9475 58.7108ZM42.8675 52.9603C43.0735 54.1588 43.4233 55.2168 43.8941 56.0495C44.4892 57.1042 45.2184 57.6855 45.9442 57.6855H45.9475C46.6734 57.6855 47.4025 57.1075 48.0041 56.0593C48.4815 55.2298 48.8379 54.1751 49.0472 52.9767C47.7785 52.9636 46.6407 52.3954 45.9606 51.4876C45.2772 52.3921 44.1361 52.9538 42.8675 52.9603Z" fill="#242424"/>
<path d="M47.0374 47.6741C47.0374 47.7688 46.5372 47.8439 45.9159 47.8439C45.298 47.8439 44.7944 47.7688 44.7944 47.6741C44.7944 47.5794 45.2947 47.5042 45.9159 47.5042C46.5339 47.501 47.0374 47.5794 47.0374 47.6741Z" fill="white"/>
<path d="M36.4273 40.6916C35.7701 40.61 35.1685 40.8581 34.6944 41.3414C34.0862 41.9586 33.6971 42.9546 33.684 44.1269C33.671 45.6388 34.2955 47.0234 35.211 47.7418C35.5576 48.0161 35.9467 48.1924 36.3554 48.2414C37.8529 48.4275 39.079 46.8895 39.0986 44.8061C39.1215 42.7195 37.9248 40.8777 36.4273 40.6916Z" fill="white"/>
<path d="M36.6083 48.3722C36.52 48.3722 36.435 48.3657 36.3467 48.3559C35.9217 48.3037 35.5195 48.1273 35.1435 47.8302C34.1757 47.0726 33.5577 45.6162 33.5708 44.1239C33.5806 42.9646 33.9599 41.9197 34.6138 41.26C35.1271 40.7375 35.7778 40.4926 36.4448 40.5775C37.9946 40.7735 39.2404 42.6707 39.2208 44.8096C39.211 46.0505 38.763 47.1771 38.0306 47.8171C37.6055 48.1828 37.1184 48.3722 36.6083 48.3722ZM36.18 40.7898C35.6666 40.7898 35.1827 41.0053 34.7773 41.42C34.1658 42.0405 33.8094 43.0267 33.7996 44.1271C33.7866 45.5509 34.3686 46.9354 35.2841 47.6506C35.6241 47.9183 35.9903 48.0816 36.3729 48.1273C36.9124 48.1959 37.4323 48.0261 37.8737 47.6408C38.5603 47.0399 38.9755 45.9819 38.9854 44.8031C39.005 42.7785 37.8508 40.9825 36.4121 40.8029C36.3369 40.7963 36.2584 40.7898 36.18 40.7898Z" fill="#242424"/>
<path d="M36.4266 40.6916C35.7694 40.61 35.1678 40.8581 34.6937 41.3414C34.6283 41.4688 34.5694 41.5994 34.5171 41.7398C34.4027 42.0533 34.3503 42.504 34.5727 42.7325C34.7656 42.9285 35.0206 42.8174 35.2528 42.8468C35.6353 42.8925 35.9786 43.4085 35.9623 43.9179C35.9492 44.4241 35.5797 44.8257 35.1972 44.7506C34.9323 44.6984 34.6413 44.4567 34.4223 44.6298C34.2588 44.7571 34.2261 45.0543 34.2392 45.3123C34.2784 46.2005 34.6511 47.0626 35.1645 47.683C35.1808 47.7026 35.1972 47.7222 35.2135 47.7418C35.5601 48.0161 35.9492 48.1924 36.3579 48.2414C37.8554 48.4275 39.0816 46.8895 39.1012 44.8061C39.1208 42.7195 37.9241 40.8777 36.4266 40.6916Z" fill="#16B768"/>
<path d="M37.3356 48.1037C38.5484 48.0011 39.4062 46.4407 39.2516 44.6186C39.097 42.7964 37.9886 41.4025 36.7759 41.5051C35.5631 41.6077 34.7053 43.1681 34.8599 44.9902C35.0145 46.8123 36.1229 48.2063 37.3356 48.1037Z" fill="#242424"/>
<path d="M35.2839 42.7383C35.0517 42.7089 34.7934 42.8199 34.6038 42.624C34.3815 42.3954 34.4338 41.9448 34.5482 41.6313C34.6005 41.4909 34.6594 41.357 34.7248 41.2329C34.1166 41.8501 33.7275 42.8461 33.7144 44.0184C33.7014 45.5303 34.3259 46.9148 35.2414 47.6333C35.225 47.6137 35.2087 47.5941 35.1923 47.5745C34.6823 46.954 34.3062 46.0919 34.267 45.2037C34.2572 44.9425 34.2899 44.6486 34.4501 44.5212C34.6692 44.3482 34.9602 44.5898 35.225 44.6421C35.6076 44.7172 35.9771 44.3155 35.9901 43.8094C36.0098 43.3 35.6664 42.784 35.2839 42.7383Z" fill="white"/>
<path d="M36.1864 40.6748C36.2681 40.6748 36.3498 40.6813 36.4316 40.6911C37.9291 40.8772 39.1258 42.7222 39.1062 44.8056C39.0898 46.7747 37.9912 48.2572 36.6082 48.2572C36.5264 48.2572 36.4447 48.2507 36.3629 48.2409C35.9509 48.1886 35.5651 48.0123 35.2185 47.7413C34.303 47.0229 33.6752 45.6383 33.6916 44.1264C33.7014 42.9541 34.0938 41.9581 34.7019 41.3409C35.1106 40.9197 35.624 40.6748 36.1864 40.6748ZM36.1864 39.9368C35.4343 39.9368 34.7379 40.2437 34.169 40.825C33.4071 41.5989 32.9625 42.8006 32.9494 44.1198C32.933 45.8244 33.6295 47.4343 34.7608 48.3225C35.2251 48.6883 35.7319 48.907 36.2714 48.9756C36.3825 48.9887 36.497 48.9985 36.6082 48.9985C38.4326 48.9985 39.8223 47.1992 39.8451 44.8154C39.868 42.3304 38.4098 40.198 36.5231 39.9596C36.4087 39.9433 36.2975 39.9368 36.1864 39.9368Z" fill="#242424"/>
<path d="M55.5114 40.6921C56.1686 40.6105 56.7702 40.8586 57.2443 41.3419C57.8525 41.9591 58.2416 42.9551 58.2546 44.1274C58.2677 45.6393 57.6432 47.0239 56.7277 47.7423C56.3811 48.0166 55.992 48.1929 55.5833 48.2419C54.0858 48.428 52.8597 46.89 52.84 44.8066C52.8172 42.72 54.0171 40.8782 55.5114 40.6921Z" fill="white"/>
<path d="M55.3333 48.3719C54.8232 48.3719 54.3361 48.1825 53.9143 47.8135C53.1786 47.1702 52.7339 46.0468 52.7241 44.806C52.7045 42.6671 53.9502 40.7698 55.5001 40.5739C56.1671 40.4923 56.8178 40.7339 57.3311 41.2596C57.9818 41.9225 58.3643 42.9642 58.3741 44.1235C58.3872 45.6158 57.7692 47.0722 56.8014 47.8298C56.4287 48.1237 56.0232 48.3 55.5982 48.3555C55.5099 48.3686 55.4216 48.3719 55.3333 48.3719ZM55.5295 40.8057C54.0908 40.9853 52.9366 42.7814 52.9563 44.806C52.9661 45.9815 53.3813 47.0428 54.0679 47.6437C54.5094 48.029 55.0292 48.1988 55.5687 48.1302C55.9513 48.0812 56.3175 47.9212 56.6575 47.6535C57.573 46.9383 58.1551 45.5537 58.142 44.13C58.1322 43.0295 57.7758 42.0434 57.1643 41.4229C56.6968 40.9429 56.1311 40.7306 55.5295 40.8057Z" fill="#242424"/>
<path d="M55.515 40.6919C56.1723 40.6102 56.7739 40.8584 57.248 41.3417C57.3134 41.469 57.3722 41.5997 57.4245 41.7401C57.539 42.0536 57.5913 42.5042 57.369 42.7328C57.176 42.9287 56.921 42.8177 56.6889 42.8471C56.3063 42.8928 55.963 43.4087 55.9793 43.9181C55.9924 44.4243 56.3619 44.826 56.7445 44.7508C57.0093 44.6986 57.3003 44.457 57.5194 44.63C57.6829 44.7574 57.7155 45.0545 57.7025 45.3125C57.6632 46.2007 57.2905 47.0628 56.7771 47.6832C56.7608 47.7028 56.7445 47.7224 56.7281 47.742C56.3815 48.0163 55.9924 48.1927 55.5837 48.2416C54.0862 48.4278 52.8601 46.8897 52.8404 44.8064C52.8208 42.7197 54.0208 40.878 55.515 40.6919Z" fill="#16B768"/>
<path d="M57.0828 44.992C57.2374 43.1699 56.3796 41.6095 55.1669 41.5069C53.9542 41.4043 52.8457 42.7983 52.6912 44.6204C52.5366 46.4425 53.3944 48.0029 54.6071 48.1055C55.8198 48.2081 56.9282 46.8142 57.0828 44.992Z" fill="#242424"/>
<path d="M56.6621 42.7395C56.8943 42.7101 57.1526 42.8212 57.3422 42.6252C57.5646 42.3966 57.5122 41.946 57.3978 41.6325C57.3455 41.4921 57.2866 41.3582 57.2212 41.2341C57.8294 41.8513 58.2185 42.8473 58.2316 44.0196C58.2447 45.5315 57.6201 46.9161 56.7046 47.6345C56.721 47.6149 56.7373 47.5953 56.7537 47.5757C57.2638 46.9553 57.6398 46.0932 57.679 45.205C57.6888 44.9437 57.6561 44.6498 57.4959 44.5225C57.2768 44.3494 56.9858 44.591 56.721 44.6433C56.3384 44.7184 55.969 44.3167 55.9559 43.8106C55.9363 43.3012 56.2796 42.7852 56.6621 42.7395Z" fill="white"/>
<path d="M55.7574 40.6745C56.3198 40.6745 56.8332 40.9194 57.2451 41.3407C57.8533 41.9579 58.2424 42.9538 58.2555 44.1261C58.2685 45.6381 57.644 47.0226 56.7285 47.741C56.3819 48.0153 55.9928 48.1917 55.5841 48.2406C55.5024 48.2504 55.4207 48.257 55.3389 48.257C53.9558 48.257 52.8605 46.7744 52.8409 44.8054C52.8213 42.7187 54.018 40.877 55.5155 40.6909C55.5939 40.6811 55.6757 40.6745 55.7574 40.6745ZM55.7574 39.9365C55.6463 39.9365 55.5318 39.9431 55.4207 39.9561C53.534 40.1912 52.0758 42.3236 52.0987 44.8119C52.1215 47.1957 53.5112 48.995 55.3356 48.995C55.4468 48.995 55.5613 48.9884 55.6724 48.9721C56.2119 48.9035 56.7187 48.6847 57.183 48.319C58.3143 47.4341 59.0075 45.8242 58.9911 44.1196C58.9781 42.8004 58.5334 41.5987 57.7683 40.8247C57.2059 40.2435 56.5095 39.9365 55.7574 39.9365Z" fill="#242424"/>
</g>
<rect x="2" y="2" width="88" height="88" rx="44" stroke="url(#paint1_linear_171_3215587)" stroke-width="4"/>
<defs>
<linearGradient id="paint0_linear_171_3215587" x1="73.72" y1="10.72" x2="25" y2="80.44" gradientUnits="userSpaceOnUse">
<stop stop-color="#19B66E"/>
<stop offset="1" stop-color="#377ADD"/>
</linearGradient>
<linearGradient id="paint1_linear_171_3215587" x1="74.56" y1="10.72" x2="14.92" y2="82.12" gradientUnits="userSpaceOnUse">
<stop stop-color="#17B769"/>
<stop offset="1" stop-color="#3A76E9"/>
</linearGradient>
<clipPath id="clip0_171_3215587">
<rect x="4" y="4" width="84" height="84" rx="42" fill="white"/>
</clipPath>
</defs>
</svg>
