<svg width="56" height="56" viewBox="0 0 56 56" fill="none" xmlns="http://www.w3.org/2000/svg">
<path d="M41.2125 44.2999C40.7191 45.0326 39.9336 45.3919 39.0812 45.5397L39.0807 45.5398C38.5758 45.6279 38.3542 46.0692 38.3852 46.4414C38.4163 46.8145 38.7101 47.2148 39.2262 47.2115L39.2262 47.2115C40.9688 47.2003 42.4481 46.4179 43.307 45.2101C44.1709 43.9953 44.3826 42.3818 43.6425 40.7912C42.7779 38.9324 40.9617 37.888 39.2407 37.0041C39.0227 36.8921 38.8063 36.7829 38.5923 36.6748C37.9391 36.345 37.3079 36.0263 36.7187 35.6748C35.9415 35.2111 35.2818 34.7149 34.8022 34.1169C34.0139 33.1336 33.6029 31.7709 33.3948 30.6091C33.292 30.0354 33.2413 29.5261 33.2164 29.1608C33.204 28.9784 33.198 28.8327 33.1952 28.7336C33.1937 28.6841 33.1931 28.6463 33.1928 28.6215L33.1925 28.5942L33.1925 28.5881L33.1925 28.5873L33.1925 28.5871L33.1925 28.5871L33.1925 28.587L33.1944 28.0527L32.6609 28.0866L31.2565 28.1757L30.8372 28.2023L30.7912 28.62L31.2882 28.6747C30.7912 28.62 30.7912 28.6201 30.7911 28.6203L30.7911 28.6207L30.791 28.6217L30.7907 28.6247L30.7897 28.634L30.7867 28.6661C30.7842 28.6933 30.781 28.7322 30.7777 28.7818C30.7709 28.8809 30.7635 29.0231 30.7602 29.2013C30.7536 29.5573 30.7632 30.0589 30.8276 30.6493C30.9559 31.8259 31.3042 33.3789 32.1964 34.8337C32.9399 36.0484 34.0074 36.9204 35.2964 37.7223C36.1154 38.2317 37.0567 38.7312 38.0805 39.2745C38.6461 39.5746 39.237 39.8882 39.8464 40.2241L39.8469 40.2244C40.1543 40.3934 40.8581 40.9485 41.2927 41.7133C41.7099 42.4475 41.864 43.3323 41.2125 44.2999ZM41.2125 44.2999L41.6272 44.5792M41.2125 44.2999L41.6272 44.5792M41.6272 44.5792C43.1929 42.254 40.8419 40.2008 40.0878 39.7863L39.223 46.7115C38.8052 46.7141 38.7542 46.1043 39.1666 46.0323C40.096 45.8713 41.0304 45.4654 41.6272 44.5792Z" fill="#74698B" stroke="#242424"/>
<g opacity="0.3">
<path d="M40.0864 39.7855C36.5972 37.8617 33.9939 36.8125 32.6229 34.5727C30.9399 31.8276 31.289 28.6733 31.289 28.6733L31.9933 28.63C31.9504 29.386 31.923 31.9963 33.3431 34.3117C34.7149 36.55 37.3183 37.5993 40.8089 39.5239C41.5635 39.9407 43.9146 41.9938 42.3483 44.3168C41.8457 45.0627 41.1052 45.467 40.328 45.6725C40.8295 45.4364 41.2835 45.086 41.6266 44.577C43.1929 42.254 40.8419 40.2008 40.0864 39.7855Z" fill="#242424"/>
</g>
<g opacity="0.3">
<path d="M39.1666 46.0324C39.3305 46.0041 39.4934 45.9677 39.6554 45.9232C39.5288 46.1261 39.6392 46.4527 39.9446 46.4513C40.4006 46.448 40.8343 46.3883 41.2388 46.2777C40.6441 46.5507 39.9631 46.7077 39.223 46.7115C38.8037 46.7133 38.755 46.1029 39.1666 46.0324Z" fill="#242424"/>
<path d="M38.8942 46.17C38.9442 46.0835 39.0312 46.0146 39.1604 45.9909C39.3287 45.9614 39.4917 45.925 39.6447 45.8829L39.7462 45.8546L39.6909 45.9437C39.6324 46.0384 39.6299 46.1674 39.6864 46.2662C39.7388 46.3589 39.8305 46.4099 39.9443 46.4094C40.3871 46.4061 40.8177 46.3484 41.2281 46.2375L41.2558 46.314C40.6346 46.6 39.9498 46.7473 39.2229 46.7511C38.9835 46.7528 38.857 46.572 38.8421 46.4045C38.8357 46.3271 38.8525 46.2423 38.8942 46.17ZM39.1739 46.0724C38.9847 46.105 38.9124 46.2599 38.9246 46.3993C38.937 46.535 39.0338 46.6722 39.2232 46.6719C39.7621 46.6692 40.2758 46.5857 40.7589 46.4241C40.4935 46.4675 40.2213 46.49 39.9451 46.4931C39.8013 46.4933 39.6804 46.4273 39.6149 46.3081C39.5598 46.2101 39.5493 46.0907 39.5827 45.987C39.4508 46.0187 39.3134 46.0471 39.1739 46.0724Z" fill="#242424"/>
</g>
<g opacity="0.3">
<path d="M39.6539 45.9224C39.6988 45.848 39.777 45.7911 39.8868 45.7713C40.0345 45.745 40.1817 45.7128 40.3286 45.6747C40.1118 45.7783 39.8853 45.8593 39.6539 45.9224Z" fill="#74698B"/>
<path d="M39.5693 45.9869L39.6221 45.9021C39.6604 45.8391 39.7379 45.7572 39.8825 45.7329C40.0316 45.7074 40.1788 45.6752 40.3198 45.6375L40.3469 45.7118C40.1362 45.8113 39.9058 45.8957 39.667 45.962L39.5693 45.9869ZM39.8777 45.8133C39.8553 45.8193 39.833 45.8253 39.814 45.8352C39.8358 45.8269 39.8567 45.8201 39.8777 45.8133Z" fill="#242424"/>
</g>
<path d="M19.1157 35.9918C19.0981 36.8899 19.017 37.9398 18.5691 38.3279C18.5444 38.3509 18.5144 38.3632 18.4844 38.3685C18.4104 38.3826 18.3292 38.3456 18.2922 38.2715L18.2887 38.2644L17.8919 37.481C17.8584 37.414 17.7932 37.3787 17.7262 37.3787C17.6874 37.3787 17.6486 37.391 17.6151 37.4157C17.5269 37.4792 17.4758 37.5816 17.4758 37.6892V39.2737C17.4758 39.4078 17.3876 39.5295 17.2589 39.5648C16.8233 39.6813 16.3172 39.0902 16.0897 38.3456C15.3226 38.0615 15.1551 37.2428 15.2733 36.1718L15.2768 36.1524L15.2997 35.9706L15.3085 35.9053H18.7489L19.1157 35.9918Z" fill="#FFBD99"/>
<path d="M17.1406 39.8401C16.6028 39.8401 16.1214 39.2331 15.8763 38.5379C14.7195 38.0033 14.9011 36.4012 15.1974 35.0514C15.2132 34.9825 15.2555 34.9208 15.3155 34.8837C15.3755 34.8467 15.4495 34.8343 15.5183 34.8502L19.1773 35.7324C19.2972 35.7607 19.3819 35.8701 19.3801 35.9953C19.3625 36.9905 19.2708 38.0686 18.7418 38.5273C18.6377 38.6173 18.502 38.6526 18.3679 38.6261C18.2322 38.5997 18.1193 38.5132 18.0576 38.3897L17.7437 37.7686V39.2701C17.7437 39.526 17.5744 39.7518 17.3311 39.8171C17.2658 39.833 17.2041 39.8401 17.1406 39.8401ZM15.6594 35.4289C15.3455 37.0169 15.5095 37.8427 16.1831 38.0933C16.2607 38.1215 16.3206 38.185 16.3436 38.2644C16.5499 38.9349 16.9607 39.3654 17.1918 39.3054C17.2023 39.3019 17.2129 39.2878 17.2129 39.2701V37.6874C17.2129 37.4951 17.3046 37.3134 17.4598 37.1987C17.5674 37.1211 17.7031 37.0928 17.8319 37.1246C17.9606 37.1563 18.0699 37.241 18.1299 37.3593L18.4755 38.0421C18.7753 37.6521 18.8317 36.7135 18.8476 36.1982L15.6594 35.4289Z" fill="#242424"/>
<path d="M16.2747 39.2984C15.8974 38.6702 15.8921 37.9433 15.9555 37.2551C15.9608 37.1987 16.0102 37.1563 16.0684 37.1616C16.1195 37.1669 16.1583 37.2075 16.1619 37.2569C16.2042 37.8639 16.3118 38.5308 16.7068 38.9914C16.9466 39.2931 16.4828 39.6248 16.2747 39.2984Z" fill="#242424"/>
<path d="M20.1066 20.6799L19.8738 36.2847C18.1139 36.4488 16.4757 36.4312 15.2149 35.8489C15.065 35.7801 14.9768 35.623 14.9892 35.4607L15.1073 33.9203L15.1232 33.7104C14.3826 33.5216 15.0879 25.8657 17.7295 22.3562C18.3978 21.4722 19.1878 20.8493 20.1066 20.6799Z" fill="#16B768"/>
<g opacity="0.6">
<path d="M15.7988 35.8507C15.6489 35.7818 15.5607 35.6248 15.5731 35.4625L15.6912 33.9221C15.723 33.9027 15.7547 33.8815 15.7865 33.8621C15.7247 33.7933 15.6366 33.6857 15.5555 33.5428C15.1957 32.9111 15.3068 32.2318 15.3562 31.9071C15.723 29.5604 15.201 31.2825 15.7283 29.0028C16.1885 27.0143 16.4178 26.0209 16.8604 24.7788C17.7474 22.2909 18.3593 21.7016 18.8742 21.3646C19.3432 21.0593 19.7999 20.9217 20.1033 20.8546L20.105 20.6782C19.1845 20.8493 18.3963 21.4704 17.7297 22.3544C15.0899 25.8657 14.3846 33.5233 15.1252 33.7104L15.1093 33.9204L14.9912 35.4607C14.9788 35.6248 15.067 35.7801 15.2169 35.8489C16.1303 36.2706 17.243 36.3959 18.4562 36.3694C17.4687 36.3482 16.5641 36.2035 15.7988 35.8507Z" fill="white"/>
</g>
<path d="M18.1704 36.6411C17.1177 36.6411 16.0262 36.5158 15.1057 36.0906C14.8588 35.9759 14.7071 35.7148 14.7283 35.4413L14.8517 33.8392C14.6789 33.6433 14.552 33.1757 14.5908 32.0236C14.6419 30.462 15.0281 27.7501 15.9468 25.2463C16.6769 23.256 17.9818 20.8052 20.059 20.4188C20.1366 20.4047 20.2178 20.4259 20.2777 20.477C20.3377 20.5282 20.3729 20.6041 20.3712 20.6835L20.1384 36.29C20.1366 36.4259 20.0326 36.537 19.8986 36.5494C19.3625 36.5988 18.7735 36.6411 18.1704 36.6411ZM15.2397 33.4704C15.3367 33.5163 15.3984 33.6186 15.3896 33.7298L15.2556 35.4801C15.252 35.5348 15.2802 35.586 15.3279 35.6072C16.3277 36.0694 17.6573 36.2035 19.6147 36.0412L19.8386 21.0205C18.1898 21.5481 17.0913 23.6689 16.4494 25.4104C15.8833 26.9473 15.4389 28.8458 15.2309 30.6191C15.0175 32.4364 15.1392 33.3046 15.2397 33.4704Z" fill="#242424"/>
<path d="M15.1161 32.59C15.1849 33.2428 15.1496 33.7263 15.915 33.8709C16.0208 33.8904 16.0261 34.0456 15.922 34.0721C14.9504 34.3315 14.5765 33.4281 14.5854 32.6182C14.5906 32.2812 15.0773 32.2582 15.1161 32.59Z" fill="#242424"/>
<path d="M16.6839 34.1462C17.5991 34.3121 18.5125 34.4267 19.4418 34.425C19.9973 34.4303 20.5492 34.3985 21.1047 34.3597C21.2511 34.3491 21.378 34.4585 21.3886 34.6032C21.3992 34.7479 21.2916 34.8732 21.1488 34.8873C20.387 34.9543 19.6164 34.9543 18.8564 34.8749C18.4755 34.8326 18.0946 34.7743 17.7207 34.6844C17.3469 34.5944 16.9819 34.4709 16.6363 34.305C16.5463 34.2644 16.5886 34.1286 16.6839 34.1462Z" fill="#242424"/>
<path d="M16.0914 36.3747C16.0861 36.3747 16.0826 36.3747 16.0773 36.3747C15.9556 36.3676 15.8639 36.2618 15.871 36.14L15.9539 34.852C15.9609 34.7302 16.0667 34.6385 16.1884 34.6455C16.3101 34.6526 16.4018 34.7585 16.3947 34.8802L16.3118 36.1683C16.303 36.2847 16.206 36.3747 16.0914 36.3747Z" fill="#242424"/>
<path d="M17.0084 36.4523C17.0031 36.4523 16.9996 36.4523 16.9943 36.4523C16.8726 36.4453 16.7809 36.3394 16.788 36.2177L16.8709 34.9296C16.8779 34.8079 16.9837 34.7161 17.1054 34.7232C17.2271 34.7302 17.3188 34.8361 17.3117 34.9578L17.2288 36.2459C17.22 36.3623 17.123 36.4523 17.0084 36.4523Z" fill="#242424"/>
<path d="M17.9781 36.4523C17.9728 36.4523 17.9693 36.4523 17.964 36.4523C17.8423 36.4453 17.7507 36.3394 17.7577 36.2177L17.8406 34.9296C17.8476 34.8079 17.9534 34.7161 18.0751 34.7232C18.1968 34.7302 18.2885 34.8361 18.2814 34.9578L18.1986 36.2459C18.1915 36.3623 18.0945 36.4523 17.9781 36.4523Z" fill="#242424"/>
<g opacity="0.2">
<path d="M19.1157 35.9918C19.0981 36.8899 19.0169 37.9398 18.569 38.3279C18.5443 38.3509 18.5144 38.3632 18.4844 38.3685C18.4174 38.3332 18.3539 38.2997 18.2887 38.2644L17.8919 37.481C17.8584 37.414 17.7931 37.3787 17.7261 37.3787C17.6873 37.3787 17.6485 37.391 17.615 37.4157C17.5269 37.4792 17.4757 37.5816 17.4757 37.6892V37.8039C16.6487 37.3028 15.9169 36.7576 15.2715 36.17L15.275 36.1506L15.2979 35.9689L15.3068 35.9036H18.7471L19.1157 35.9918Z" fill="#242424"/>
</g>
<path d="M37.0706 35.9918C37.0882 36.8899 37.1693 37.9398 37.6172 38.3279C37.6419 38.3509 37.6719 38.3632 37.7019 38.3685H37.7036C37.7777 38.3826 37.8588 38.3456 37.8958 38.2715L37.8994 38.2644L38.2961 37.481C38.3296 37.414 38.3949 37.3787 38.4619 37.3787C38.5007 37.3787 38.5395 37.391 38.573 37.4157C38.6611 37.4792 38.7123 37.5816 38.7123 37.6892V39.2737C38.7123 39.4078 38.8004 39.5295 38.9292 39.5648C39.3647 39.6813 39.8708 39.0902 40.0983 38.3456C40.8654 38.0615 41.0329 37.2428 40.9148 36.1718L40.913 36.1524L40.8901 35.9706L40.8813 35.9053H37.4409L37.0706 35.9918Z" fill="#FFBD99"/>
<path d="M39.0437 39.8401C38.982 39.8401 38.9185 39.8312 38.8551 39.8154C38.6117 39.7501 38.4424 39.526 38.4424 39.2684V37.7668L38.1285 38.3879C38.0668 38.5114 37.9522 38.5979 37.8164 38.6244C37.6824 38.6508 37.5449 38.6155 37.4426 38.5255C36.9118 38.0686 36.8219 36.9887 36.8042 35.9936C36.8025 35.8701 36.8853 35.7607 37.007 35.7307L40.6661 34.8484C40.7348 34.8308 40.8089 34.8432 40.8689 34.882C40.9288 34.919 40.9711 34.9808 40.987 35.0496C41.2833 36.3994 41.4666 38.0015 40.3063 38.5379C40.0647 39.2331 39.5833 39.8401 39.0437 39.8401ZM38.4583 37.1105C38.5535 37.1105 38.647 37.1405 38.7246 37.1987C38.8797 37.3116 38.9714 37.4951 38.9714 37.6857V39.2684C38.9714 39.2843 38.9803 39.3001 38.9926 39.3037C39.2236 39.3672 39.6345 38.9331 39.8408 38.2626C39.8655 38.1832 39.9237 38.1215 40.0013 38.0915C40.6749 37.8427 40.8389 37.0169 40.525 35.4272L37.3385 36.1965C37.3544 36.7117 37.4126 37.6504 37.7106 38.0403L38.0562 37.3575C38.1162 37.2393 38.2238 37.1528 38.3525 37.1228C38.3878 37.1158 38.423 37.1105 38.4583 37.1105Z" fill="#242424"/>
<path d="M39.4793 38.9914C39.8761 38.5308 39.9819 37.8639 40.0242 37.2569C40.033 37.1334 40.2164 37.1299 40.2287 37.2552C40.2922 37.945 40.2869 38.6755 39.906 39.3037C39.6962 39.6213 39.2412 39.2896 39.4793 38.9914Z" fill="#242424"/>
<path d="M36.0776 20.6799L36.3104 36.2847C38.0703 36.4488 39.7085 36.4312 40.9693 35.8489C41.1192 35.7801 41.2074 35.623 41.195 35.4607L41.0769 33.9203L41.061 33.7104C41.8016 33.5216 41.0963 25.8657 38.4547 22.3562C37.7881 21.4722 36.9981 20.8493 36.0776 20.6799Z" fill="#16B768"/>
<g opacity="0.6">
<path d="M40.3875 35.8507C40.5374 35.7818 40.6256 35.6248 40.6132 35.4625L40.4951 33.9221C40.4633 33.9027 40.4316 33.8815 40.3999 33.8621C40.4616 33.7933 40.5497 33.6857 40.6309 33.5428C40.9906 32.9129 40.8795 32.2335 40.8301 31.9089C40.4651 29.5604 40.9871 31.2843 40.458 29.0028C39.9978 27.0143 39.7686 26.0209 39.3259 24.7805C38.439 22.2927 37.8271 21.7033 37.3122 21.3663C36.8431 21.0611 36.3864 20.9234 36.0831 20.8564L36.0813 20.6799C37.0018 20.8511 37.79 21.4722 38.4566 22.3562C41.0982 25.8657 41.8035 33.5233 41.0629 33.7104L41.0788 33.9203L41.1969 35.4607C41.2093 35.6248 41.1211 35.7801 40.9712 35.8489C40.0578 36.2706 38.9451 36.3959 37.7318 36.3694C38.7176 36.3482 39.6222 36.2035 40.3875 35.8507Z" fill="white"/>
</g>
<path d="M38.0158 36.6411C37.4127 36.6411 36.822 36.6005 36.2859 36.5494C36.1519 36.537 36.0478 36.4241 36.0461 36.29L35.8133 20.6835C35.8115 20.6041 35.8468 20.5282 35.9068 20.477C35.9667 20.4259 36.0478 20.4047 36.1254 20.4188C38.2027 20.8035 39.5094 23.256 40.2394 25.2463C41.1581 27.7501 41.5443 30.462 41.5955 32.0236C41.6325 33.1775 41.5073 33.6451 41.3363 33.8392L41.4597 35.4413C41.4808 35.7148 41.3292 35.9759 41.0823 36.0906C40.1601 36.5141 39.0685 36.6411 38.0158 36.6411ZM36.5716 36.043C38.5289 36.2071 39.8585 36.0712 40.8584 35.6089C40.906 35.5877 40.9342 35.5348 40.9307 35.4819L40.7967 33.7316C40.7878 33.6204 40.8496 33.5181 40.9465 33.4722C41.0453 33.3046 41.167 32.4364 40.9536 30.6208C40.7455 28.8476 40.3011 26.949 39.7351 25.4122C39.0932 23.6689 37.9964 21.5481 36.3458 21.0205L36.5716 36.043Z" fill="#242424"/>
<path d="M41.599 32.6182C41.6078 33.4298 41.2357 34.3315 40.2623 34.0721C40.1618 34.0456 40.1653 33.8956 40.2641 33.8727C40.4246 33.8321 40.5745 33.7898 40.6855 33.7192C41.0594 33.4828 41.0135 32.987 41.07 32.5882C41.1123 32.2565 41.5955 32.2847 41.599 32.6182Z" fill="#242424"/>
<path d="M39.5534 34.3032C38.5077 34.7937 37.328 34.9208 36.1853 34.9331C35.8027 34.9367 35.42 34.919 35.0409 34.8855C34.8945 34.8731 34.7869 34.7443 34.801 34.5979C34.8134 34.4532 34.9404 34.3473 35.085 34.3579C35.4553 34.3862 35.8238 34.4056 36.1941 34.4179C36.5627 34.4285 36.933 34.4267 37.3015 34.4109C37.6701 34.3967 38.0369 34.3632 38.4037 34.3156C38.7705 34.2697 39.1355 34.2115 39.5058 34.1444C39.5957 34.1285 39.6398 34.2644 39.5534 34.3032Z" fill="#242424"/>
<path d="M40.0947 36.3747C39.9801 36.3747 39.8831 36.2847 39.8743 36.1683L39.7914 34.8802C39.7843 34.7585 39.876 34.6544 39.9977 34.6455C40.1194 34.6385 40.2234 34.7302 40.2322 34.852L40.3151 36.14C40.3222 36.2618 40.2305 36.3659 40.1088 36.3747C40.1035 36.3747 40.1 36.3747 40.0947 36.3747Z" fill="#242424"/>
<path d="M39.1777 36.4523C39.0631 36.4523 38.9661 36.3623 38.9573 36.2459L38.8744 34.9578C38.8674 34.8361 38.959 34.732 39.0807 34.7232C39.2006 34.7161 39.3064 34.8079 39.3153 34.9296L39.3981 36.2177C39.4052 36.3394 39.3135 36.4435 39.1918 36.4523C39.1865 36.4523 39.183 36.4523 39.1777 36.4523Z" fill="#242424"/>
<path d="M38.208 36.4523C38.0934 36.4523 37.9964 36.3623 37.9876 36.2459L37.9047 34.9578C37.8976 34.8361 37.9893 34.732 38.111 34.7232C38.2327 34.7161 38.3367 34.8079 38.3455 34.9296L38.4284 36.2177C38.4355 36.3394 38.3438 36.4435 38.2221 36.4523C38.2168 36.4523 38.2115 36.4523 38.208 36.4523Z" fill="#242424"/>
<g opacity="0.2">
<path d="M37.0706 35.9918C37.0882 36.8899 37.1693 37.9398 37.6172 38.3279C37.6419 38.3509 37.6719 38.3632 37.7019 38.3685H37.7036C37.7706 38.3332 37.8341 38.2997 37.8994 38.2644L38.2961 37.481C38.3296 37.414 38.3949 37.3787 38.4619 37.3787C38.5007 37.3787 38.5395 37.391 38.573 37.4157C38.6611 37.4792 38.7123 37.5816 38.7123 37.6892V37.8039C39.5393 37.3028 40.2711 36.7576 40.9165 36.17L40.9148 36.1506L40.8918 35.9689L40.883 35.9036H37.4426L37.0706 35.9918Z" fill="#242424"/>
</g>
<path opacity="0.5" d="M28.4026 53.5678C36.0725 53.5678 42.2901 52.9368 42.2901 52.1584C42.2901 51.38 36.0725 50.749 28.4026 50.749C20.7328 50.749 14.5151 51.38 14.5151 52.1584C14.5151 52.9368 20.7328 53.5678 28.4026 53.5678Z" fill="black"/>
<path d="M26.4109 50.9162C26.4145 51.0503 26.3951 51.1827 26.3457 51.308C26.1358 51.8391 25.7303 52.2272 25.1854 52.5148C25.0778 52.5713 24.9614 52.6101 24.8415 52.6278C23.0957 52.8818 21.4346 52.8871 19.8546 52.6472C19.6377 52.6136 19.4349 52.5131 19.285 52.3525C18.8812 51.9237 18.7313 51.3344 18.8548 50.5704C18.8777 50.4328 18.9218 50.3005 18.9835 50.1769L19.1722 49.7958L21.2354 45.6211L26.3087 46.334L26.3668 48.8342L26.4109 50.9162Z" fill="#50468F"/>
<path d="M19.4525 49.2224C18.8759 50.8916 21.2406 51.7773 23.1874 50.5775C23.3637 50.4681 23.5771 50.4346 23.7816 50.4716L24.383 50.581C24.5505 50.611 24.7145 50.4963 24.7321 50.3269C24.7744 49.9193 24.584 49.5594 24.2225 49.2365C24.0497 49.0812 23.928 48.8783 23.8839 48.6507C23.7587 48.0049 23.6882 47.4015 23.7781 46.9304L20.9249 46.1364L19.4525 49.2224Z" fill="white"/>
<path d="M22.2247 53.0865C21.4012 53.0865 20.5971 53.0283 19.8141 52.9083C19.5355 52.866 19.2798 52.7336 19.0911 52.5343C18.6256 52.0402 18.4581 51.3662 18.5921 50.5281C18.6168 50.3693 18.6679 50.2105 18.7437 50.0587L20.9956 45.5047C21.0467 45.4024 21.1561 45.3441 21.2689 45.36L26.3422 46.0728C26.4709 46.0905 26.5679 46.1999 26.5697 46.3287L26.6755 50.9127C26.679 51.0892 26.6508 51.255 26.5926 51.4068C26.3722 51.9679 25.9401 52.4196 25.3071 52.7513C25.1731 52.8219 25.0285 52.8695 24.8786 52.8907C23.9792 53.0195 23.0923 53.0865 22.2247 53.0865ZM21.3853 45.9105L19.2181 50.2934C19.1669 50.3975 19.1317 50.5051 19.114 50.611C19.0065 51.2868 19.1246 51.7967 19.4755 52.169C19.5831 52.2819 19.7312 52.3578 19.8935 52.3825C21.4488 52.6172 23.1011 52.6119 24.8028 52.3631C24.8927 52.3507 24.9809 52.3208 25.062 52.2784C25.5857 52.0032 25.9243 51.6538 26.1006 51.2091C26.1341 51.1245 26.15 51.0274 26.1482 50.9215L26.0477 46.5634L21.3853 45.9105Z" fill="#242424"/>
<path d="M26.4093 50.8051C26.3493 52.0561 18.6891 52.4531 18.8708 50.484C18.7121 51.2744 18.7861 52.012 19.6079 52.5766C21.3184 52.9136 23.1223 52.8907 24.9968 52.5925C25.9649 52.1284 26.4252 51.5303 26.4093 50.8051Z" fill="white"/>
<path d="M22.2212 53.0001C21.2989 53.0001 20.4208 52.9171 19.5726 52.7495C19.5497 52.7442 19.5267 52.7354 19.5073 52.7213C18.511 52.0367 18.5692 51.0962 18.6979 50.4487C18.7156 50.3569 18.8037 50.2934 18.8972 50.3093C18.9907 50.3234 19.0559 50.4063 19.0471 50.4998C19.0259 50.7222 19.137 50.9127 19.3874 51.0839C20.583 51.9026 24.4907 51.8214 25.8679 51.135C26.0954 51.0221 26.2294 50.8986 26.2347 50.7963C26.24 50.7028 26.3176 50.6286 26.411 50.6286H26.4128C26.508 50.6304 26.5856 50.7063 26.5874 50.8016C26.605 51.6062 26.0954 52.2608 25.0744 52.7513C25.0585 52.7583 25.0426 52.7636 25.025 52.7672C24.041 52.9224 23.11 53.0001 22.2212 53.0001ZM19.6766 52.4107C21.2848 52.723 23.0077 52.7266 24.9421 52.4231C25.5382 52.1337 25.9243 51.7985 26.1077 51.4085C26.0813 51.4226 26.0531 51.4385 26.0231 51.4526C24.6688 52.1267 20.5689 52.3243 19.1864 51.3768C19.107 51.3221 19.04 51.2674 18.9836 51.2109C19.0118 51.7191 19.2358 52.0967 19.6766 52.4107Z" fill="#242424"/>
<path d="M21.5846 49.9387C21.4682 49.9387 21.3606 49.8611 21.3289 49.7429C21.2901 49.6017 21.373 49.4571 21.514 49.4182L24.2191 48.6825C24.3602 48.6436 24.5048 48.7266 24.5436 48.8677C24.5824 49.0089 24.4995 49.1536 24.3584 49.1924L21.6534 49.9282C21.6322 49.9352 21.6093 49.9387 21.5846 49.9387Z" fill="#242424"/>
<path d="M21.655 49.8046C21.5809 49.8046 21.5069 49.7729 21.454 49.7129L19.9727 47.989C19.8775 47.8779 19.8898 47.7103 20.0009 47.615C20.112 47.5197 20.2795 47.532 20.3748 47.6432L21.856 49.3671C21.9512 49.4782 21.9389 49.6459 21.8278 49.7411C21.7784 49.7835 21.7167 49.8046 21.655 49.8046Z" fill="#242424"/>
<path d="M21.8508 49.0036C21.7785 49.0036 21.7062 48.9736 21.6533 48.9154L20.262 47.3644C20.165 47.255 20.1738 47.0874 20.2814 46.9904C20.3907 46.8933 20.5582 46.9021 20.6552 47.0098L22.0465 48.5607C22.1435 48.6701 22.1347 48.8377 22.0271 48.9348C21.976 48.9807 21.9125 49.0036 21.8508 49.0036Z" fill="#242424"/>
<path d="M22.1154 48.2661C22.0431 48.2661 21.9708 48.2361 21.9179 48.1778L20.5936 46.6939C20.4966 46.5845 20.5054 46.4169 20.6147 46.3199C20.7241 46.2228 20.8916 46.2316 20.9886 46.341L22.3129 47.8249C22.4099 47.9343 22.401 48.102 22.2917 48.199C22.2406 48.2431 22.1771 48.2661 22.1154 48.2661Z" fill="#242424"/>
<path d="M21.7626 49.1536C21.6462 49.1536 21.5386 49.0759 21.5069 48.9577C21.4681 48.8166 21.551 48.6719 21.692 48.6331L24.0444 47.9926C24.1855 47.9537 24.3301 48.0367 24.3689 48.1778C24.4077 48.319 24.3248 48.4637 24.1837 48.5025L21.8313 49.143C21.8084 49.15 21.7855 49.1536 21.7626 49.1536Z" fill="#242424"/>
<path d="M21.9161 48.4231C21.7997 48.4231 21.6922 48.3455 21.6604 48.2272C21.6216 48.0861 21.7045 47.9414 21.8456 47.9026L23.8876 47.3468C24.0287 47.308 24.1733 47.3909 24.2121 47.532C24.2509 47.6732 24.168 47.8179 24.0269 47.8567L21.9849 48.4125C21.9637 48.4196 21.9408 48.4231 21.9161 48.4231Z" fill="#242424"/>
<path d="M21.9038 47.8196C21.7856 47.8196 21.6798 47.7402 21.6481 47.622C21.6111 47.4809 21.6957 47.3362 21.8368 47.2991L24.2227 46.6728C24.3637 46.6357 24.5083 46.7204 24.5454 46.8616C24.5824 47.0027 24.4977 47.1474 24.3567 47.1844L21.9708 47.8108C21.9479 47.8179 21.925 47.8196 21.9038 47.8196Z" fill="#242424"/>
<path d="M26.3298 47.3768L25.166 47.9255C25.0672 47.9714 25.0037 48.0702 25.0002 48.1778C24.9738 48.8624 25.1131 49.4112 25.4728 49.7817C25.5804 49.8929 25.7391 49.937 25.889 49.907L26.3862 49.8046L26.3298 47.3768Z" fill="#242424"/>
<path d="M25.792 50.094C25.6245 50.094 25.4622 50.027 25.3441 49.9052C24.9685 49.5188 24.7921 48.9348 24.8221 48.1708C24.8292 47.9961 24.9314 47.8391 25.0902 47.7649L26.254 47.2162C26.3087 47.1915 26.3721 47.195 26.4215 47.225C26.4727 47.2568 26.5044 47.3115 26.5044 47.3715L26.5608 49.7994C26.5626 49.884 26.5026 49.9599 26.4198 49.9758L25.9225 50.0781C25.8802 50.0905 25.8361 50.094 25.792 50.094ZM26.1605 47.6538L25.2418 48.0878C25.203 48.1055 25.1783 48.1443 25.1766 48.1884C25.1501 48.8607 25.2877 49.3424 25.598 49.6617C25.6615 49.727 25.7585 49.7552 25.8519 49.7376L26.2064 49.6653L26.1605 47.6538Z" fill="#242424"/>
<path d="M21.313 51.3097C20.6729 51.3097 20.1104 51.1227 19.7366 50.8227C19.2269 50.4134 19.0612 49.8082 19.2851 49.1642C19.2869 49.1571 19.2904 49.1518 19.2922 49.1465L20.7629 46.0587C20.7999 45.9811 20.8863 45.9423 20.9692 45.9652L23.8224 46.7592C23.9105 46.7839 23.9652 46.8721 23.9476 46.9621C23.8735 47.345 23.907 47.8549 24.0534 48.6154C24.0886 48.8007 24.1874 48.9683 24.3373 49.1024C24.7587 49.48 24.9509 49.8982 24.9051 50.3428C24.8927 50.4716 24.8275 50.5845 24.7217 50.6639C24.6159 50.7433 24.4801 50.7769 24.3478 50.7522L23.7465 50.6428C23.579 50.6128 23.4132 50.6428 23.2757 50.7257C22.6144 51.1386 21.9285 51.3097 21.313 51.3097ZM19.6167 49.2894C19.4474 49.7888 19.569 50.2352 19.9588 50.5475C20.5777 51.0451 21.8879 51.1721 23.0941 50.4275C23.3039 50.2987 23.5596 50.2528 23.8118 50.2969L24.4131 50.4063C24.4466 50.4134 24.4836 50.4046 24.5118 50.3834C24.526 50.3728 24.5506 50.3481 24.5559 50.3075C24.5894 49.9776 24.4413 49.6688 24.1045 49.3671C23.8964 49.1818 23.7606 48.9454 23.7095 48.6842C23.572 47.9749 23.5314 47.4632 23.579 47.0592L21.0186 46.3446L19.6167 49.2894Z" fill="#242424"/>
<path d="M19.9533 38.6869L18.3328 39.9043L18.4756 40.9365L20.4488 40.6542L19.9533 38.6869Z" fill="#74698B"/>
<g opacity="0.3">
<path d="M19.9533 38.6869L18.3328 39.9043L18.4756 40.9365L20.4488 40.6542L19.9533 38.6869Z" fill="#242424"/>
</g>
<path d="M18.696 40.9365L18.9323 43.2497C18.9482 43.405 19.0734 43.5285 19.2286 43.5409L20.4506 43.6397L20.3166 40.6719L18.696 40.9365Z" fill="#74698B"/>
<g opacity="0.3">
<path d="M18.696 40.9365L18.9323 43.2497C18.9482 43.405 19.0734 43.5285 19.2286 43.5409L20.4506 43.6397L20.3166 40.6719L18.696 40.9365Z" fill="#242424"/>
</g>
<path d="M18.4757 41.203C18.4192 41.203 18.3628 41.1853 18.3169 41.15C18.2605 41.1077 18.2235 41.0442 18.2147 40.9754L18.0718 39.9432C18.0595 39.8479 18.0983 39.7526 18.1759 39.6944L19.7964 38.4769C19.867 38.424 19.9604 38.4099 20.0433 38.4399C20.1262 38.4698 20.1897 38.5387 20.2126 38.6251L20.7081 40.5925C20.7257 40.6648 20.7134 40.7425 20.6711 40.8042C20.6288 40.866 20.5635 40.9083 20.4895 40.9189L18.5144 41.2012C18.5003 41.2012 18.488 41.203 18.4757 41.203ZM18.615 40.0226L18.6996 40.6366L20.1191 40.4337L19.7929 39.1368L18.615 40.0226Z" fill="#242424"/>
<path d="M20.4489 43.9061C20.4418 43.9061 20.4348 43.9061 20.4277 43.9061L19.2057 43.8073C18.9218 43.7844 18.696 43.562 18.6678 43.2797L18.4315 40.9665C18.4174 40.8271 18.5144 40.7001 18.652 40.6789L20.2725 40.4143C20.3466 40.4019 20.4224 40.4231 20.4824 40.4707C20.5423 40.5184 20.5758 40.5889 20.5794 40.6648L20.7134 43.6326C20.7169 43.7085 20.6869 43.7826 20.6323 43.8355C20.5846 43.8796 20.5176 43.9061 20.4489 43.9061ZM18.9852 41.1589L19.1951 43.2233C19.1986 43.2515 19.2215 43.2744 19.2498 43.2762L20.172 43.3521L20.0644 40.9824L18.9852 41.1589Z" fill="#242424"/>
<path d="M27.2908 38.9392L27.2362 40.3331L27.0651 44.6507C27.0581 44.8113 26.9928 44.9612 26.88 45.0742L26.4356 45.5188C26.3527 45.6017 26.3051 45.7147 26.3051 45.8329V46.7963C24.5399 47.2374 22.5032 46.9904 20.9232 46.1346V45.2083C20.5282 45.2083 20.2038 44.896 20.1879 44.5025L19.8669 36.7354L27.2908 38.9392Z" fill="#74698B"/>
<g opacity="0.6">
<path d="M26.9822 40.6542C26.9258 40.656 26.8993 41.2277 26.6595 43.3768C26.6507 43.4615 26.6101 43.802 26.4779 44.2237C26.3879 44.5095 26.3315 44.6931 26.2081 44.8554C25.9859 45.1465 25.6403 45.2524 25.1165 45.3406C24.614 45.4253 23.8875 45.5065 22.9775 45.4623C24.2437 45.6935 25.1712 45.6282 25.7196 45.5488C26.0511 45.5012 26.3844 45.4288 26.6419 45.1642C26.9875 44.8113 27.0051 44.3137 27.0122 43.9802C27.0439 42.3181 27.0774 40.6507 26.9822 40.6542Z" fill="white"/>
</g>
<path d="M24.5048 47.2797C23.2087 47.2797 21.9037 46.9674 20.7981 46.3675C20.7135 46.3216 20.6588 46.2316 20.6588 46.1346V45.4376C20.2479 45.3265 19.9429 44.9595 19.9235 44.5131L19.6025 36.746C19.599 36.6613 19.6378 36.5784 19.7048 36.5254C19.7718 36.4725 19.8617 36.4566 19.9429 36.4813L27.365 38.6869C27.4814 38.7222 27.559 38.8298 27.5537 38.9515L27.328 44.6613C27.3191 44.8889 27.2257 45.1024 27.0652 45.263L26.6208 45.7076C26.5873 45.7411 26.5679 45.787 26.5679 45.8346V46.798C26.5679 46.9198 26.4851 47.0256 26.3669 47.0556C25.7656 47.2056 25.1361 47.2797 24.5048 47.2797ZM21.1878 45.974C22.6179 46.7028 24.443 46.9321 26.0407 46.5863V45.8329C26.0407 45.6441 26.1147 45.4659 26.2488 45.3318L26.6931 44.8871C26.7584 44.8219 26.7972 44.7336 26.8007 44.6401L27.0176 39.135L20.1474 37.0936L20.4525 44.4901C20.4631 44.7442 20.6694 44.9418 20.9233 44.9418C21.0697 44.9418 21.1878 45.0601 21.1878 45.2065V45.974Z" fill="#242424"/>
<path d="M20.4382 44.1425C20.4259 44.8377 21.4239 45.0759 21.9847 45.2259C22.7359 45.4006 23.5189 45.4906 24.2983 45.5717C24.3618 45.5788 24.4076 45.6353 24.4023 45.6988C24.3953 45.7588 24.3441 45.8047 24.2824 45.8029C23.4871 45.7711 22.6971 45.7305 21.9089 45.6C21.1153 45.4659 19.9356 45.1518 19.9092 44.1443C19.9092 43.7773 20.44 43.7773 20.4382 44.1425Z" fill="#242424"/>
<g opacity="0.3">
<path d="M22.3198 45.1624C22.3075 45.2824 22.3392 45.4041 22.4203 45.4923C22.4415 45.5153 22.4732 45.54 22.5279 45.5665C22.7801 45.6882 22.9564 45.5453 23.101 45.6423C23.2192 45.7217 23.1557 45.8523 23.2668 46.027C23.3937 46.2264 23.623 46.2899 23.7764 46.334C24.1203 46.4293 25.039 46.5051 26.3051 46.5228V46.798C24.5399 47.2392 22.5032 46.9921 20.9232 46.1364V45.21C20.5282 45.21 20.2038 44.8977 20.1879 44.5043L19.8669 36.7372L27.2891 38.9427L27.2344 40.3366C26.7389 40.7319 26.1834 40.8519 26.1076 40.8677C25.4357 41.0036 25.2118 40.806 23.9563 40.8695C23.6477 40.8854 23.325 40.9383 23.0851 41.1324C22.7254 41.4218 22.6531 41.9299 22.6055 42.3887L22.3198 45.1624Z" fill="#242424"/>
</g>
<g opacity="0.3">
<path d="M26.3634 48.8342C26.18 49.0389 25.986 49.1871 25.7797 49.2947C24.041 50.2034 21.9443 48.2925 19.8388 49.3477C19.5778 49.4782 19.3556 49.6353 19.1687 49.7958L21.2319 45.6211L26.3052 46.334L26.3634 48.8342Z" fill="#242424"/>
</g>
<path d="M29.6344 50.9163C29.6309 51.0504 29.6503 51.1827 29.6997 51.308C29.9095 51.8391 30.3151 52.2272 30.86 52.5148C30.9676 52.5713 31.0839 52.6101 31.2039 52.6278C32.9496 52.8818 34.6107 52.8871 36.1907 52.6472C36.4076 52.6137 36.6104 52.5131 36.7603 52.3525C37.1641 51.9238 37.314 51.3344 37.1906 50.5704C37.1677 50.4328 37.1236 50.3005 37.0619 50.177L36.8732 49.7958L34.81 45.6212L29.7367 46.334L29.6785 48.8342L29.6344 50.9163Z" fill="#50468F"/>
<path d="M36.5945 49.2224C37.1711 50.8916 34.8064 51.7773 32.8596 50.5775C32.6833 50.4681 32.4699 50.4346 32.2654 50.4716L31.6641 50.581C31.4965 50.611 31.3325 50.4963 31.3149 50.3269C31.2726 49.9193 31.463 49.5594 31.8245 49.2365C31.9973 49.0812 32.119 48.8783 32.1631 48.6507C32.2883 48.0049 32.3588 47.4015 32.2689 46.9304L35.1221 46.1364L36.5945 49.2224Z" fill="white"/>
<path d="M33.8208 53.0865C32.9532 53.0865 32.0662 53.0212 31.1669 52.8889C31.017 52.8677 30.8724 52.8201 30.7384 52.7495C30.1071 52.4178 29.675 51.9661 29.4546 51.405C29.3946 51.2533 29.3664 51.0874 29.3717 50.911L29.4775 46.3269C29.4811 46.1964 29.5763 46.0887 29.705 46.0711L34.7783 45.3582C34.8911 45.3424 35.0022 45.4006 35.0516 45.5029L37.3035 50.057C37.3793 50.2087 37.4304 50.3675 37.4551 50.5263C37.5891 51.3644 37.4216 52.0402 36.9561 52.5325C36.7674 52.7319 36.5117 52.8642 36.2331 52.9065C35.4501 53.0265 34.6443 53.0865 33.8208 53.0865ZM29.9995 46.5651L29.899 50.9233C29.8972 51.0292 29.9131 51.1262 29.9466 51.2109C30.1212 51.6556 30.4615 52.0067 30.9852 52.2802C31.0663 52.3225 31.1545 52.3507 31.2444 52.3649C32.9479 52.6137 34.5984 52.6207 36.1537 52.3843C36.316 52.3596 36.4641 52.2837 36.5717 52.1708C36.9226 51.7985 37.0407 51.2886 36.9332 50.6128C36.9155 50.5051 36.882 50.3993 36.8291 50.2934L34.6619 45.9105L29.9995 46.5651Z" fill="#242424"/>
<path d="M29.6381 50.8051C29.698 52.0561 37.3582 52.4531 37.1766 50.484C37.3353 51.2744 37.2613 52.012 36.4395 52.5766C34.729 52.9136 32.9251 52.8907 31.0506 52.5925C30.0825 52.1284 29.6222 51.5303 29.6381 50.8051Z" fill="white"/>
<path d="M33.8261 53.0001C32.9356 53.0001 32.0063 52.9224 31.0223 52.7654C31.0046 52.7619 30.9888 52.7583 30.9729 52.7495C29.9519 52.2608 29.4423 51.6044 29.4599 50.7998C29.4617 50.7045 29.5393 50.6286 29.6345 50.6269C29.7262 50.6216 29.8091 50.6992 29.8126 50.7945C29.8179 50.8968 29.9501 51.0204 30.1794 51.1333C31.5566 51.8179 35.4643 51.9008 36.6599 51.0821C36.9085 50.911 37.0214 50.7204 37.0002 50.4981C36.9914 50.4046 37.0584 50.3199 37.1501 50.3075C37.2435 50.2934 37.33 50.3552 37.3493 50.4469C37.4781 51.0945 37.5363 52.0349 36.54 52.7195C36.5206 52.7336 36.4976 52.7425 36.4747 52.7477C35.6265 52.9171 34.7466 53.0001 33.8261 53.0001ZM31.1034 52.4213C33.0378 52.7266 34.7607 52.7213 36.3689 52.409C36.8098 52.0967 37.0337 51.7173 37.0619 51.2092C37.0055 51.2656 36.9385 51.3221 36.8591 51.375C35.4766 52.3225 31.3767 52.1249 30.0224 51.4509C29.9925 51.4368 29.966 51.4209 29.9378 51.4068C30.1212 51.7967 30.5074 52.132 31.1034 52.4213Z" fill="#242424"/>
<path d="M34.4608 49.9388C34.4378 49.9388 34.4149 49.9352 34.3902 49.9299L31.6852 49.1942C31.5441 49.1553 31.4612 49.0107 31.5 48.8695C31.5388 48.7283 31.6834 48.6454 31.8245 48.6842L34.5295 49.42C34.6706 49.4588 34.7535 49.6035 34.7147 49.7447C34.6847 49.8611 34.5772 49.9388 34.4608 49.9388Z" fill="#242424"/>
<path d="M34.3903 49.8046C34.3286 49.8046 34.2686 49.7835 34.2175 49.7411C34.1064 49.6459 34.094 49.4782 34.1893 49.3671L35.6705 47.6432C35.7657 47.532 35.9333 47.5197 36.0443 47.615C36.1554 47.7103 36.1678 47.8779 36.0726 47.989L34.5913 49.7129C34.5402 49.7729 34.4661 49.8046 34.3903 49.8046Z" fill="#242424"/>
<path d="M34.1963 49.0036C34.1328 49.0036 34.0693 48.9807 34.02 48.9365C33.9106 48.8395 33.9018 48.6719 34.0006 48.5625L35.3919 47.0115C35.4889 46.9021 35.6564 46.8933 35.7657 46.9921C35.8751 47.0892 35.8839 47.2568 35.7851 47.3662L34.3938 48.9171C34.3409 48.9736 34.2686 49.0036 34.1963 49.0036Z" fill="#242424"/>
<path d="M33.9319 48.2661C33.8685 48.2661 33.8067 48.2431 33.7556 48.199C33.6463 48.102 33.6374 47.9343 33.7344 47.8249L35.0587 46.341C35.1557 46.2316 35.3233 46.2228 35.4326 46.3199C35.5419 46.4169 35.5507 46.5845 35.4537 46.6939L34.1294 48.1778C34.0765 48.2361 34.0042 48.2661 33.9319 48.2661Z" fill="#242424"/>
<path d="M34.2846 49.1536C34.2617 49.1536 34.2388 49.15 34.2141 49.1447L31.8617 48.5043C31.7206 48.4654 31.6377 48.3208 31.6765 48.1796C31.7153 48.0384 31.8599 47.9555 32.001 47.9943L34.3534 48.6348C34.4944 48.6736 34.5773 48.8183 34.5385 48.9595C34.5086 49.0759 34.401 49.1536 34.2846 49.1536Z" fill="#242424"/>
<path d="M34.1292 48.4231C34.1063 48.4231 34.0834 48.4196 34.0605 48.4143L32.0184 47.8585C31.8774 47.8197 31.7945 47.675 31.8333 47.5338C31.8721 47.3927 32.0167 47.3097 32.1577 47.3485L34.1998 47.9043C34.3408 47.9432 34.4237 48.0878 34.3849 48.229C34.3532 48.3455 34.2456 48.4231 34.1292 48.4231Z" fill="#242424"/>
<path d="M34.1434 47.8196C34.1205 47.8196 34.0993 47.8161 34.0764 47.8108L31.6905 47.1862C31.5495 47.1492 31.4648 47.0045 31.5019 46.8633C31.5389 46.7222 31.6835 46.6375 31.8246 46.6745L34.2104 47.3009C34.3515 47.338 34.4362 47.4826 34.3991 47.6238C34.3674 47.7402 34.2598 47.8196 34.1434 47.8196Z" fill="#242424"/>
<path d="M29.7156 47.3768L30.8794 47.9255C30.9782 47.9714 31.0417 48.0702 31.0452 48.1778C31.0717 48.8624 30.9324 49.4112 30.5726 49.7817C30.4651 49.8929 30.3063 49.937 30.1565 49.907L29.6592 49.8047L29.7156 47.3768Z" fill="#242424"/>
<path d="M30.2535 50.094C30.2094 50.094 30.1671 50.0905 30.123 50.0799L29.6257 49.9776C29.5428 49.9599 29.4829 49.8858 29.4847 49.8011L29.5411 47.3732C29.5428 47.3133 29.5746 47.2586 29.624 47.2268C29.6751 47.195 29.7386 47.1915 29.7915 47.218L30.9553 47.7667C31.114 47.8408 31.2163 47.9961 31.2234 48.1725C31.2533 48.9365 31.077 49.5206 30.7014 49.907C30.5833 50.0287 30.4228 50.094 30.2535 50.094ZM29.8409 49.6617L30.1953 49.7341C30.2888 49.7535 30.3858 49.7253 30.4492 49.6582C30.7596 49.3388 30.8971 48.8571 30.8707 48.1849C30.8689 48.1408 30.8442 48.1037 30.8054 48.0843L29.8867 47.6503L29.8409 49.6617Z" fill="#242424"/>
<path d="M34.7324 51.3097C34.1187 51.3097 33.431 51.1386 32.7662 50.7275C32.6304 50.6428 32.4629 50.6145 32.2954 50.6445L31.694 50.7539C31.5635 50.7769 31.4278 50.7451 31.3202 50.6657C31.2162 50.5863 31.1509 50.4734 31.1368 50.3446C31.091 49.8999 31.2814 49.4835 31.7046 49.1042C31.8545 48.9701 31.9515 48.8025 31.9885 48.6172C32.1349 47.8567 32.1684 47.3468 32.0943 46.9639C32.0767 46.8739 32.1314 46.7857 32.2195 46.761L35.0727 45.967C35.1556 45.944 35.242 45.9829 35.279 46.0605L36.7497 49.1483C36.7532 49.1536 36.755 49.1606 36.7567 49.1659C36.9789 49.81 36.8149 50.4152 36.3053 50.8245C35.935 51.1227 35.3742 51.3097 34.7324 51.3097ZM32.4241 50.2793C32.611 50.2793 32.7944 50.3287 32.9513 50.4257C34.1575 51.1703 35.4677 51.0433 36.0867 50.5457C36.4764 50.2334 36.598 49.7852 36.4288 49.2877L35.0251 46.3446L32.4664 47.0574C32.514 47.4632 32.4735 47.9749 32.3359 48.6825C32.2848 48.9436 32.149 49.18 31.9409 49.3653C31.6023 49.6688 31.4542 49.9758 31.4895 50.3058C31.493 50.3463 31.5177 50.3693 31.5336 50.3816C31.5618 50.4028 31.597 50.4116 31.6323 50.4046L32.2336 50.2952C32.2971 50.2864 32.3606 50.2793 32.4241 50.2793Z" fill="#242424"/>
<path d="M36.094 38.6869L37.7145 39.9043L37.5717 40.9365L35.5967 40.6542L36.094 38.6869Z" fill="#74698B"/>
<g opacity="0.3">
<path d="M36.094 38.6869L37.7145 39.9043L37.5717 40.9365L35.5967 40.6542L36.094 38.6869Z" fill="#242424"/>
</g>
<path d="M37.3513 40.9365L37.115 43.2497C37.0991 43.405 36.9739 43.5285 36.8187 43.5409L35.5967 43.6397L35.7307 40.6719L37.3513 40.9365Z" fill="#74698B"/>
<g opacity="0.3">
<path d="M37.3513 40.9365L37.115 43.2497C37.0991 43.405 36.9739 43.5285 36.8187 43.5409L35.5967 43.6397L35.7307 40.6719L37.3513 40.9365Z" fill="#242424"/>
</g>
<path d="M37.5717 41.203C37.5593 41.203 37.547 41.203 37.5346 41.1994L35.5614 40.9171C35.4873 40.9065 35.4203 40.8642 35.3798 40.8024C35.3375 40.7407 35.3251 40.6631 35.3427 40.5907L35.8383 38.6234C35.8594 38.5369 35.9229 38.4681 36.0075 38.4381C36.0904 38.4081 36.1839 38.4222 36.2544 38.4751L37.875 39.6926C37.9526 39.7508 37.9914 39.8461 37.979 39.9414L37.8362 40.9736C37.8274 41.0442 37.7886 41.1059 37.7339 41.1483C37.6845 41.1836 37.6281 41.203 37.5717 41.203ZM35.9247 40.4337L37.3442 40.6366L37.4288 40.0226L36.2509 39.1368L35.9247 40.4337Z" fill="#242424"/>
<path d="M35.5966 43.9061C35.5278 43.9061 35.4626 43.8796 35.4132 43.832C35.3585 43.7791 35.3285 43.705 35.3321 43.6291L35.4661 40.6613C35.4696 40.5854 35.5049 40.5148 35.5631 40.4672C35.6213 40.4196 35.6971 40.3984 35.7729 40.4107L37.3935 40.6754C37.531 40.6983 37.628 40.8236 37.6139 40.963L37.3776 43.2762C37.3494 43.5585 37.1219 43.7808 36.8398 43.8038L35.6177 43.9026C35.6107 43.9061 35.6036 43.9061 35.5966 43.9061ZM35.981 40.9824L35.8734 43.3521L36.7957 43.2762C36.8239 43.2744 36.8468 43.2515 36.8504 43.2233L37.0602 41.1589L35.981 40.9824Z" fill="#242424"/>
<path d="M28.7563 38.9392L28.811 40.3331L28.9821 44.6507C28.9891 44.8113 29.0544 44.9613 29.1672 45.0742L29.6116 45.5188C29.6945 45.6017 29.7421 45.7147 29.7421 45.8329V46.7963C31.5072 47.2374 33.544 46.9904 35.124 46.1346V45.2083C35.519 45.2083 35.8434 44.896 35.8593 44.5025L36.1802 36.7354L28.7563 38.9392Z" fill="#74698B"/>
<g opacity="0.6">
<path d="M29.0648 40.6542C29.1212 40.656 29.1477 41.2277 29.3875 43.3768C29.3963 43.4615 29.4369 43.802 29.5691 44.2237C29.6591 44.5095 29.7155 44.6931 29.8389 44.8554C30.0611 45.1465 30.4068 45.2524 30.9305 45.3406C31.433 45.4253 32.1596 45.5065 33.0695 45.4623C31.8034 45.6935 30.8758 45.6282 30.3274 45.5488C29.9959 45.5012 29.6626 45.4288 29.4051 45.1642C29.0595 44.8113 29.0419 44.3137 29.0348 43.9802C29.0031 42.3181 28.9696 40.6507 29.0648 40.6542Z" fill="white"/>
</g>
<path d="M31.5424 47.2797C30.9111 47.2797 30.2816 47.2056 29.6768 47.0539C29.5586 47.0239 29.4757 46.918 29.4757 46.7963V45.8329C29.4757 45.7852 29.4563 45.7394 29.4228 45.7058L28.9785 45.2612C28.818 45.1006 28.7245 44.8871 28.7157 44.6595L28.49 38.9498C28.4847 38.828 28.5623 38.7204 28.6787 38.6851L36.1008 36.4796C36.1819 36.4549 36.2719 36.4725 36.3389 36.5237C36.4059 36.5766 36.4447 36.6578 36.4412 36.7442L36.1202 44.5113C36.1026 44.9577 35.7958 45.3247 35.3849 45.4359V46.1328C35.3849 46.2299 35.332 46.3199 35.2456 46.3657C34.1434 46.9674 32.8385 47.2797 31.5424 47.2797ZM30.0048 46.5863C31.6006 46.9321 33.4275 46.7028 34.8576 45.974V45.2065C34.8576 45.0601 34.9758 44.9418 35.1221 44.9418C35.3761 44.9418 35.5824 44.7442 35.593 44.4901L35.898 37.0936L29.0278 39.135L29.2447 44.6401C29.2483 44.7336 29.2871 44.8219 29.3523 44.8871L29.7967 45.3318C29.9307 45.4659 30.0048 45.6441 30.0048 45.8329V46.5863Z" fill="#242424"/>
<path d="M36.138 44.1425C36.1097 45.1518 34.9336 45.4641 34.1383 45.5982C33.35 45.7305 32.5583 45.7694 31.7647 45.8011C31.7013 45.8029 31.6466 45.7535 31.6448 45.69C31.6431 45.6282 31.6889 45.577 31.7489 45.57C32.53 45.4888 33.3112 45.3988 34.0624 45.2242C34.5967 45.0795 35.3815 44.896 35.5843 44.3472C35.6036 44.2802 35.6107 44.2078 35.6089 44.1355C35.6072 43.989 35.7236 43.8691 35.8682 43.8655C36.0198 43.8638 36.1432 43.9908 36.138 44.1425Z" fill="#242424"/>
<g opacity="0.3">
<path d="M33.7256 45.1624C33.7379 45.2824 33.7062 45.4041 33.6251 45.4923C33.6039 45.5153 33.5722 45.54 33.5175 45.5665C33.2654 45.6882 33.089 45.5453 32.9444 45.6423C32.8263 45.7217 32.8897 45.8523 32.7787 46.027C32.6517 46.2264 32.4224 46.2899 32.269 46.334C31.9252 46.4293 31.0064 46.5051 29.7403 46.5228V46.798C31.5055 47.2392 33.5422 46.9921 35.1222 46.1364V45.21C35.5172 45.21 35.8417 44.8977 35.8575 44.5043L36.1785 36.7372L28.7563 38.9427L28.811 40.3366C29.3065 40.7319 29.862 40.8519 29.9378 40.8677C30.6097 41.0036 30.8336 40.806 32.0892 40.8695C32.3978 40.8854 32.7205 40.9383 32.9603 41.1324C33.32 41.4218 33.3923 41.9299 33.4399 42.3887L33.7256 45.1624Z" fill="#242424"/>
</g>
<g opacity="0.3">
<path d="M29.6838 48.8342C29.8672 49.0389 30.0612 49.1871 30.2675 49.2947C32.0062 50.2034 34.1029 48.2925 36.2084 49.3477C36.4694 49.4782 36.6916 49.6353 36.8785 49.7958L34.8153 45.6212L29.742 46.334L29.6838 48.8342Z" fill="#242424"/>
</g>
<path d="M36.7022 23.0274C37.4869 29.0795 37.9612 34.6357 36.1291 36.5343C36.6898 38.7345 33.6585 39.9326 27.9822 39.9326H28.0562C22.3799 39.9326 19.3486 38.7345 19.9093 36.5343C18.0772 34.6357 18.5515 29.0795 19.3362 23.0274L20.0275 18.6428L35.8504 18.8016L36.7022 23.0274Z" fill="#16B768"/>
<g opacity="0.6">
<path d="M26.598 39.9044C24.8664 39.7844 23.3922 39.5673 22.2019 39.2603C23.3111 39.6132 24.7888 39.8302 26.598 39.9044Z" fill="white"/>
<path d="M36.7023 23.0274C36.5806 22.5051 36.4625 21.9741 36.3496 21.4306C36.1609 20.5325 35.9952 19.6556 35.8506 18.8016C33.1473 18.7733 30.444 18.7469 27.7407 18.7204L35.8911 19.3486C36.1609 20.5748 36.4325 21.8011 36.7023 23.0274C36.3249 25.0195 36.3743 26.604 36.496 27.7067C36.6335 28.9401 36.8663 29.5929 36.9069 31.2092C36.9509 32.9665 36.6758 34.0729 36.6124 34.3287C36.3338 35.4668 35.9141 36.3543 35.5825 36.9471C35.5702 37.173 35.5244 37.5523 35.318 37.9476C34.6691 39.1845 33.0415 39.4103 33.0627 39.4721C33.0838 39.5356 34.9177 39.5021 35.7483 38.1734C36.1468 37.5347 36.1486 36.8624 36.1274 36.536C37.1061 34.3622 37.3512 32.5678 37.3953 31.3397C37.4218 30.6145 37.3777 30.0958 37.0532 26.7045C36.9598 25.7041 36.8416 24.4619 36.7023 23.0274Z" fill="white"/>
</g>
<path d="M36.8292 23.0115C37.122 24.1337 37.1978 25.2859 37.3424 26.431C37.5998 29.1518 38.2876 34.6163 36.3179 36.7178L36.3831 36.469C36.5736 37.1571 36.3849 37.9282 35.8682 38.4293C34.5968 39.6873 32.1809 39.9538 30.4704 40.109C29.6399 40.1708 28.8093 40.1972 27.9788 40.1972V39.6679H28.0528C28.1992 39.6679 28.3173 39.7861 28.3173 39.9326C28.3173 40.079 28.1992 40.1972 28.0528 40.1972C27.2223 40.1955 26.3917 40.1708 25.5611 40.109C23.7061 39.9449 19.7913 39.5303 19.5797 37.1642C19.5656 36.926 19.5956 36.6913 19.6485 36.469L19.7137 36.7178C17.7281 34.6269 18.4 29.1536 18.6627 26.4275C18.7915 25.2789 18.9255 24.1337 19.2129 23.0115C19.2288 22.9463 19.2958 22.9074 19.361 22.9251C19.4157 22.9392 19.4527 22.9886 19.4527 23.0433C19.4281 24.776 19.1512 26.4734 19.0507 28.1955C18.9237 30.4081 18.5834 34.6463 20.0981 36.3508C20.1616 36.4213 20.1828 36.5148 20.1634 36.5995C20.0206 37.1253 20.1528 37.6794 20.5461 38.0623C21.7064 39.1915 24.0323 39.4385 25.6017 39.5815C26.4164 39.6414 27.2346 39.6679 28.0528 39.6679V40.1972H27.9788C27.8324 40.1972 27.7143 40.079 27.7143 39.9326C27.7143 39.7861 27.8324 39.6679 27.9788 39.6679C28.797 39.6661 29.617 39.6414 30.4299 39.5815C32.0522 39.4456 36.4536 38.9904 35.8682 36.5995C35.847 36.5078 35.8752 36.4143 35.9334 36.3508C36.2844 35.9732 36.5224 35.4756 36.6864 34.9515C37.1643 33.3265 37.1484 31.5991 37.1008 29.907C37.0409 28.192 36.8769 26.4734 36.6882 24.7654C36.6229 24.1955 36.563 23.6238 36.57 23.0433C36.57 22.971 36.63 22.9145 36.7005 22.9145C36.764 22.9163 36.8151 22.9568 36.8292 23.0115Z" fill="#242424"/>
<path d="M19.3046 34.8351C19.8495 36.7883 22.1719 37.33 23.93 37.6459C25.1132 37.847 26.3053 37.9529 27.5026 38.064C27.5837 38.0711 27.6437 38.1434 27.6366 38.2246C27.6296 38.3005 27.5661 38.3569 27.492 38.3587C27.2892 38.364 27.0882 38.3658 26.8854 38.3658C26.732 38.3658 26.4305 38.3622 26.2788 38.3569C24.3391 38.2881 21.9973 38.0676 20.3168 37.0177C19.5832 36.5643 18.9889 35.8214 18.7914 34.9674C18.7138 34.6269 19.2076 34.4981 19.3046 34.8351Z" fill="#242424"/>
<path d="M37.2524 34.9674C36.5347 37.8982 32.262 38.2634 29.765 38.3569C29.3736 38.3693 28.9415 38.3693 28.5501 38.3587C28.3702 38.3534 28.3543 38.0834 28.5395 38.064C29.3401 37.9899 30.1389 37.9193 30.9307 37.8188C32.4683 37.6123 34.0836 37.3759 35.422 36.5484C36.0551 36.1496 36.5435 35.5603 36.7375 34.8351C36.8345 34.4998 37.33 34.6234 37.2524 34.9674Z" fill="#242424"/>
<g opacity="0.2">
<path d="M20.4298 38.3199C26.2472 40.4778 31.6855 39.7897 34.8631 37.3759C29.4178 38.521 22.202 38.1152 19.7156 36.3102L20.4298 38.3199Z" fill="#242424"/>
</g>
<path d="M30.0079 24.9846C29.9893 24.8499 29.8583 24.7642 29.7287 24.7964C28.9999 24.9701 28.268 24.9457 27.594 24.7594C27.4516 24.72 27.3023 24.8087 27.2754 24.9567L27.1926 25.4118C27.1755 25.5061 27.2318 25.5982 27.3223 25.6239C27.4011 25.6463 27.4849 25.6122 27.527 25.5407L27.6811 25.2786C27.7149 25.2211 27.7806 25.1921 27.8452 25.2045C27.9112 25.2171 27.9629 25.2709 27.972 25.3388L28.0091 25.6163C28.0213 25.7077 28.0932 25.7786 28.1832 25.788C28.2717 25.7972 28.3553 25.7444 28.3866 25.6593L28.4858 25.3903C28.5092 25.3268 28.5701 25.2863 28.6366 25.2876C28.7031 25.289 28.7624 25.3319 28.7832 25.3963L28.8714 25.6692C28.8993 25.7554 28.9806 25.8115 29.0694 25.8059C29.1597 25.8002 29.2344 25.7322 29.2503 25.6414L29.2987 25.3645C29.3105 25.297 29.3634 25.2454 29.4299 25.2354C29.495 25.2257 29.5602 25.2573 29.5916 25.3162L29.7354 25.5856C29.7744 25.6587 29.8565 25.6962 29.936 25.6773C30.0276 25.6555 30.0879 25.566 30.0748 25.4709L30.0079 24.9846Z" fill="#242424"/>
<path d="M29.5161 25.8844C29.4352 25.8634 29.3493 25.8952 29.3063 25.9622L29.1491 26.2072C29.1147 26.2609 29.0476 26.2879 28.9815 26.2762C28.9139 26.2643 28.861 26.214 28.8516 26.1506L28.8131 25.8909C28.8004 25.8052 28.7264 25.7386 28.634 25.7296C28.5431 25.7209 28.4574 25.7702 28.4254 25.8498L28.3246 26.1005C28.3008 26.1598 28.238 26.1975 28.17 26.1961C28.102 26.1947 28.0417 26.1545 28.0203 26.0943L27.9295 25.8394C27.9009 25.7588 27.8175 25.7062 27.7266 25.7113C27.6343 25.7165 27.558 25.7798 27.5419 25.8646L27.4929 26.122C27.481 26.1851 27.426 26.2332 27.358 26.2424C27.2915 26.2514 27.2255 26.2217 27.1932 26.1667L27.046 25.9161C27.0058 25.8477 26.9215 25.8126 26.8401 25.8304C26.7465 25.8508 26.6853 25.9345 26.6991 26.0232L26.7656 26.4501C26.7873 26.5892 26.9365 26.6779 27.0836 26.6468C27.78 26.4995 28.5293 26.5058 29.2676 26.6977C29.3987 26.7312 29.5365 26.6576 29.5611 26.5332L29.6498 26.0835C29.6672 25.995 29.6092 25.9087 29.5161 25.8844Z" fill="#242424"/>
<path d="M23.0354 12.8959C22.4831 13.3996 21.6533 13.7095 20.7265 13.7614C19.1258 13.8529 17.238 13.1839 15.9872 11.4474C14.7582 9.74082 14.8198 7.71346 15.1943 6.30181C15.4226 5.44444 15.7657 4.81507 16.0049 4.6253C16.6392 4.12153 20.2248 3.33106 22.7893 6.20078C25.3538 9.07186 24.2752 11.7614 23.0354 12.8959Z" fill="#FBA3CB"/>
<path d="M33.4437 12.9232C33.9932 13.431 34.8203 13.7437 35.7484 13.801C37.3478 13.9007 39.2397 13.2413 40.5001 11.5115C41.7372 9.81182 41.6866 7.78309 41.3203 6.37007C41.0975 5.51134 40.7585 4.88061 40.5192 4.68948C39.8877 4.18161 36.3062 3.37203 33.7267 6.22946C31.1458 9.08688 32.2107 11.7832 33.4437 12.9232Z" fill="#FBA3CB"/>
<path d="M20.4231 14.0317C18.6009 14.0317 16.8826 13.1375 15.774 11.5989C14.2853 9.53331 14.6954 7.15917 14.9415 6.23491C14.9428 6.22945 14.9442 6.22399 14.9456 6.21989C15.1711 5.37891 15.5224 4.67309 15.8423 4.41916C16.6188 3.80207 20.3657 3.09352 22.9862 6.02603C24.4803 7.69844 24.6881 9.23159 24.6006 10.2228C24.5035 11.3108 23.9854 12.3825 23.2131 13.0884C22.6157 13.6345 21.7381 13.9662 20.7416 14.0222C20.635 14.029 20.5283 14.0317 20.4231 14.0317ZM15.4445 6.38236C15.2176 7.24518 14.8499 9.41863 16.2005 11.2931C17.2667 12.7744 18.9536 13.6003 20.7115 13.4993C21.5754 13.4502 22.3574 13.1594 22.8591 12.702C23.8843 11.7641 25.1488 9.23432 22.5952 6.37417C21.2733 4.89699 19.7218 4.49015 18.6542 4.40823C17.3925 4.31267 16.4137 4.63486 16.169 4.82872C16.0159 4.95023 15.6865 5.47448 15.4486 6.36734C15.4472 6.3728 15.4459 6.37826 15.4445 6.38236Z" fill="#242424"/>
<path d="M23.0355 12.8959C22.4832 13.3996 21.6535 13.7095 20.7266 13.7614C22.2823 11.1497 21.026 6.77008 19.1232 5.68609C17.0699 4.51472 15.2382 6.25948 15.1958 6.30181C15.4227 5.44444 15.7658 4.81507 16.0051 4.6253C16.6393 4.12153 20.2249 3.33106 22.7894 6.20078C25.3539 9.07186 24.2753 11.7614 23.0355 12.8959Z" fill="#5C546C"/>
<g opacity="0.6">
<path d="M15.2107 6.25948C15.2162 6.25402 15.2558 6.2158 15.3255 6.15709C15.5169 5.6697 15.7315 5.32294 15.8969 5.19051C16.5285 4.68264 20.11 3.87443 22.6895 6.73049C24.0223 8.2063 24.3818 9.6398 24.2492 10.8371C24.5937 9.53331 24.3722 7.8568 22.8043 6.12023C20.2248 3.26144 16.6433 4.07238 16.0117 4.57889C15.7725 4.77002 15.4335 5.40212 15.2107 6.25948Z" fill="white"/>
</g>
<path d="M20.7265 14.0003C20.6431 14.0003 20.5652 13.9567 20.5214 13.8857C20.4749 13.8106 20.4749 13.715 20.52 13.6399C21.2322 12.4426 21.384 10.691 20.9247 8.95308C20.5487 7.52778 19.8119 6.35505 19.0027 5.8936C17.1162 4.81644 15.4321 6.4042 15.361 6.47246C15.2845 6.54755 15.1669 6.5612 15.074 6.50659C14.981 6.45198 14.9359 6.34276 14.9632 6.23901C15.1847 5.41031 15.5428 4.68537 15.8572 4.4369C16.6296 3.82255 20.3587 3.11945 22.9683 6.04105C24.457 7.70799 24.6648 9.23432 24.5773 10.22C24.4816 11.3026 23.9649 12.3689 23.1966 13.0706C22.6033 13.6126 21.7312 13.943 20.7388 13.999C20.7347 14.0003 20.7306 14.0003 20.7265 14.0003ZM17.6439 5.04033C18.1428 5.04033 18.6828 5.16047 19.2419 5.47857C20.1715 6.00965 20.9739 7.26293 21.3881 8.83158C21.8296 10.5053 21.7353 12.2037 21.1448 13.4775C21.8392 13.3696 22.4543 13.1034 22.8726 12.7198C23.9033 11.7764 25.176 9.23295 22.6102 6.36051C20.2029 3.66418 16.7622 4.32768 16.1539 4.81097C16.0459 4.89698 15.849 5.18095 15.659 5.65196C16.1306 5.3598 16.8292 5.04033 17.6439 5.04033Z" fill="#242424"/>
<g opacity="0.2">
<path d="M21.425 11.0733C21.2733 11.1306 21.1106 11.162 20.9425 11.1607C20.069 11.1579 19.3623 10.3183 19.365 9.28347C19.3677 8.38242 19.9063 7.63018 20.6226 7.45406C21.1393 8.49164 21.451 9.80226 21.425 11.0733Z" fill="#242424"/>
</g>
<path d="M20.9452 11.4228C20.9439 11.4228 20.9425 11.4228 20.9411 11.4228C19.9241 11.4201 19.0998 10.4603 19.1025 9.28211C19.1053 8.28276 19.7177 7.40628 20.5598 7.19877C20.6787 7.16873 20.8031 7.22607 20.8578 7.33666C21.4114 8.44795 21.7135 9.81182 21.6862 11.0788C21.6834 11.1852 21.6164 11.2808 21.5166 11.3177C21.3348 11.3887 21.1421 11.4228 20.9452 11.4228ZM20.4859 7.77763C19.9802 8.00971 19.6288 8.60769 19.6275 9.28348C19.6247 10.1722 20.2153 10.8972 20.9425 10.8985C21.0177 10.8985 21.0915 10.8917 21.1626 10.8767C21.1558 9.82684 20.9138 8.71827 20.4859 7.77763Z" fill="#242424"/>
<path d="M20.9452 11.4228C20.9439 11.4228 20.9425 11.4228 20.9411 11.4228C19.9241 11.4201 19.0998 10.4603 19.1025 9.28211C19.1053 8.28276 19.7177 7.40628 20.5598 7.19877C20.6787 7.16873 20.8031 7.22607 20.8578 7.33666C21.4114 8.44795 21.7135 9.81182 21.6862 11.0788C21.6834 11.1852 21.6164 11.2808 21.5166 11.3177C21.3348 11.3887 21.1421 11.4228 20.9452 11.4228ZM20.4859 7.77763C19.9802 8.00971 19.6288 8.60769 19.6275 9.28348C19.6247 10.1722 20.2153 10.8972 20.9425 10.8985C21.0177 10.8985 21.0915 10.8917 21.1626 10.8767C21.1558 9.82684 20.9138 8.71827 20.4859 7.77763Z" fill="#242424"/>
<path d="M36.0806 14.0741C35.9644 14.0741 35.8496 14.07 35.732 14.0631C34.7355 14.0017 33.8606 13.6645 33.266 13.1157C32.4977 12.4044 31.9837 11.3313 31.8935 10.2419C31.8101 9.2507 32.0275 7.71891 33.5298 6.0547C36.1667 3.13584 39.9095 3.8635 40.6832 4.48605C41.0018 4.74135 41.349 5.44854 41.5704 6.29088C41.5718 6.29634 41.5732 6.30044 41.5745 6.3059C41.8151 7.23153 42.2129 9.60839 40.7133 11.6672C39.602 13.1908 37.8905 14.0741 36.0806 14.0741ZM33.6228 12.7307C34.1217 13.1908 34.9023 13.4856 35.7648 13.5403C37.5228 13.6495 39.2124 12.8344 40.2868 11.3586C41.647 9.49098 41.2902 7.31481 41.0687 6.45198C41.0674 6.44652 41.066 6.44242 41.0646 6.43696C40.8322 5.54274 40.5055 5.01712 40.3538 4.89562C40.1105 4.70039 39.1331 4.37273 37.8714 4.46147C36.8024 4.53656 35.2495 4.93521 33.9208 6.40693C31.3508 9.2507 32.6016 11.7873 33.6228 12.7307Z" fill="#242424"/>
<path d="M33.4437 12.9232C33.9932 13.431 34.8202 13.7437 35.7484 13.801C34.2078 11.1811 35.4873 6.80831 37.3943 5.73388C39.4543 4.57343 41.2752 6.32912 41.3189 6.37007C41.0961 5.51134 40.7571 4.88061 40.5178 4.68948C39.8863 4.18161 36.3048 3.37203 33.7253 6.22946C31.1458 9.08688 32.2107 11.7832 33.4437 12.9232Z" fill="#5C546C"/>
<g opacity="0.6">
<path d="M41.3189 6.37416C41.3134 6.3687 41.2738 6.33047 41.204 6.27177C41.0127 5.78438 40.7981 5.43761 40.6326 5.30518C40.0011 4.79732 36.4196 3.9891 33.8401 6.84516C32.5073 8.31961 32.1478 9.7531 32.2803 10.9504C31.9359 9.64662 32.1573 7.97011 33.7253 6.23354C36.3061 3.37611 39.8876 4.18706 40.5192 4.69356C40.757 4.88469 41.0961 5.51679 41.3189 6.37416Z" fill="white"/>
</g>
<path d="M35.7484 14.0399C35.7429 14.0399 35.7388 14.0399 35.7334 14.0399C34.7423 13.9785 33.8715 13.644 33.281 13.0993C32.5168 12.3921 32.0056 11.3231 31.9154 10.2405C31.8334 9.25343 32.0493 7.72847 33.5462 6.06972C36.1722 3.16314 39.8972 3.88535 40.6668 4.5038C40.9785 4.75363 41.3339 5.47994 41.5499 6.31C41.5772 6.41375 41.5308 6.52297 41.4378 6.57622C41.3449 6.62946 41.2273 6.61581 41.1507 6.54072C41.081 6.47246 39.4051 4.87514 37.5118 5.94138C36.7012 6.39874 35.9576 7.56601 35.5748 8.98994C35.1073 10.7252 35.2495 12.4781 35.9548 13.6781C35.9999 13.7546 35.9986 13.8488 35.9521 13.9239C35.9083 13.9976 35.8318 14.0399 35.7484 14.0399ZM33.6063 12.7484C34.0233 13.1334 34.637 13.4037 35.3301 13.5157C34.7464 12.2378 34.6616 10.5395 35.1128 8.86844C35.5352 7.30115 36.3444 6.05333 37.2781 5.52772C38.7517 4.69766 40.1023 5.24512 40.8582 5.72158C40.6709 5.24921 40.4768 4.96388 40.3688 4.87787C39.7632 4.39048 36.3266 3.70787 33.903 6.39055C31.3221 9.24934 32.5811 11.7996 33.6063 12.7484Z" fill="#242424"/>
<path d="M35.0648 11.1101C35.2165 11.1689 35.3792 11.2003 35.5473 11.2003C36.4208 11.203 37.1317 10.3661 37.1344 9.33125C37.1371 8.4302 36.6013 7.67523 35.8863 7.49502C35.3642 8.5285 35.0456 9.83775 35.0648 11.1101Z" fill="#FBA3CB"/>
<g opacity="0.2">
<path d="M35.0648 11.1101C35.2165 11.1689 35.3792 11.2003 35.5473 11.2003C36.4208 11.203 37.1317 10.3661 37.1344 9.33125C37.1371 8.4302 36.6013 7.67523 35.8863 7.49502C35.3642 8.5285 35.0456 9.83775 35.0648 11.1101Z" fill="#242424"/>
</g>
<path d="M35.5501 11.4624C35.5487 11.4624 35.5474 11.4624 35.546 11.4624C35.3478 11.4624 35.1537 11.4255 34.9705 11.3545C34.8707 11.3163 34.8051 11.2207 34.8024 11.1142C34.7832 9.84731 35.0922 8.48618 35.6513 7.37761C35.7059 7.26839 35.8303 7.21105 35.9506 7.24109C36.7913 7.45406 37.3996 8.33327 37.3969 9.33262C37.3955 9.8951 37.2069 10.4248 36.8679 10.8248C36.5179 11.2358 36.0504 11.4624 35.5501 11.4624ZM35.3273 10.9149C35.3997 10.9299 35.4735 10.9381 35.5474 10.9381C35.8946 10.9381 36.2172 10.7784 36.4673 10.4849C36.7271 10.1791 36.8706 9.76813 36.872 9.32989C36.8733 8.65274 36.5261 8.0534 36.0203 7.81858C35.587 8.75786 35.3396 9.8637 35.3273 10.9149Z" fill="#242424"/>
<path d="M37.9341 17.1062C37.9191 22.5631 31.512 23.1201 28.5005 23.1433C28.398 23.1433 28.2996 23.1447 28.2052 23.1433C25.6831 23.1365 20.0717 22.7952 18.7785 18.8606C18.6021 18.3268 18.5065 17.7274 18.5078 17.0544C18.5256 10.5368 23.7393 5.88678 28.2503 5.89906C32.7915 5.91135 37.9519 10.5886 37.9341 17.1062Z" fill="#74698B"/>
<g opacity="0.6">
<path d="M37.9136 16.9056C37.4748 10.8699 32.5879 6.62673 28.2641 6.61445C23.7557 6.60216 18.5489 11.2426 18.5202 17.7506C18.4997 17.5418 18.4887 17.326 18.4901 17.1008C18.5079 10.5832 23.7216 5.93456 28.2326 5.94548C32.715 5.95777 37.8029 10.5163 37.9136 16.9056Z" fill="white"/>
</g>
<path d="M36.3963 15.5403C34.6233 14.6324 32.3227 16.7322 28.5224 14.9451H28.4432C24.6334 16.7117 21.8201 14.5983 20.0417 15.4966C18.2632 16.3936 18.7758 18.8647 18.7758 18.8647C20.0335 22.6955 25.7502 23.03 28.2012 23.0354C28.2846 23.0354 28.3707 23.0354 28.4596 23.0354C28.5484 23.0368 28.6359 23.0368 28.7179 23.0368C31.1689 23.0436 36.3635 22.7392 37.6416 18.9152C37.6444 18.9138 38.1707 16.4468 36.3963 15.5403Z" fill="#C7C3D1"/>
<path d="M28.2712 15.3138C28.0921 15.6196 27.8515 15.894 27.574 16.1261C27.2951 16.3582 26.9753 16.5453 26.639 16.6886C25.9623 16.9739 25.2255 17.0804 24.5051 17.0818C23.7656 17.0763 23.0465 16.9043 22.3822 16.6217C22.0514 16.4784 21.7315 16.3036 21.4403 16.0893C21.3692 16.0319 21.2968 15.9787 21.2284 15.92L21.1287 15.8285L21.0794 15.7821L21.033 15.7316C20.9072 15.6033 20.8006 15.4531 20.7227 15.2947C20.9714 15.5459 21.2681 15.7193 21.5743 15.8695C21.8819 16.0169 22.2017 16.1371 22.5257 16.2354C23.175 16.4306 23.8449 16.5535 24.5051 16.5589C25.1818 16.5575 25.8557 16.4947 26.4982 16.3036C27.1407 16.1138 27.7421 15.7862 28.2712 15.3138Z" fill="#A6A3AE"/>
<path d="M35.9711 15.3138C35.792 15.6196 35.5515 15.894 35.274 16.1261C34.9951 16.3582 34.6752 16.5453 34.3389 16.6886C33.6623 16.9739 32.9255 17.0804 32.2051 17.0818C31.4655 17.0763 30.7465 16.9043 30.0821 16.6217C29.7513 16.4784 29.4314 16.3036 29.1403 16.0893C29.0692 16.0319 28.9967 15.9787 28.9284 15.92L28.8286 15.8285L28.7794 15.7821L28.7329 15.7316C28.6072 15.6033 28.5005 15.4531 28.4226 15.2947C28.6714 15.5459 28.968 15.7193 29.2742 15.8695C29.5818 16.0169 29.9017 16.1371 30.2257 16.2354C30.875 16.4306 31.5448 16.5535 32.2051 16.5589C32.8817 16.5575 33.5556 16.4947 34.1981 16.3036C34.8406 16.1138 35.4421 15.7862 35.9711 15.3138Z" fill="#A6A3AE"/>
<g opacity="0.2">
<path d="M37.8521 17.1472C37.837 22.604 31.43 23.161 28.4185 23.1856C28.316 23.1856 28.2175 23.1856 28.1232 23.1856C25.6011 23.1788 19.991 22.8375 18.6965 18.9029C18.5201 18.3691 18.4244 17.7698 18.4258 17.0967C18.4272 16.6585 18.4518 16.227 18.4982 15.8065C18.5379 16.2298 18.6213 16.6216 18.7402 16.9834C20.0334 20.918 25.6449 21.2593 28.167 21.2661C28.2613 21.2661 28.3597 21.2661 28.4622 21.2661C31.2823 21.2429 37.0811 20.7541 37.8165 16.2093C37.8411 16.5151 37.8521 16.8291 37.8521 17.1472Z" fill="#242424"/>
</g>
<path d="M28.2668 23.4068C28.2463 23.4068 28.2244 23.4068 28.2039 23.4068C22.8289 23.3918 19.4839 21.8491 18.5283 18.9438C18.3383 18.3677 18.244 17.7315 18.2454 17.0544C18.2536 13.9744 19.41 11.0596 21.5029 8.84933C23.4071 6.83834 25.921 5.63831 28.234 5.63831C28.2394 5.63831 28.2463 5.63831 28.2517 5.63831C30.5783 5.64513 33.0991 6.85882 34.9923 8.88619C37.0661 11.1047 38.2034 14.0249 38.1952 17.109C38.1884 19.5896 36.9253 21.3726 34.4415 22.4061C32.8913 23.0518 30.8927 23.389 28.5019 23.4081C28.4212 23.4068 28.3433 23.4068 28.2668 23.4068ZM28.234 6.16119C23.7776 6.16119 18.7881 10.8125 18.7717 17.0544C18.7703 17.6755 18.8564 18.2558 19.0287 18.7787C20.1373 22.1521 24.6319 22.8716 28.2066 22.8812C28.3009 22.8812 28.398 22.8812 28.5005 22.8812C30.8217 22.8621 32.7532 22.5399 34.2405 21.92C36.5111 20.9753 37.6662 19.3548 37.6716 17.1049L37.9341 17.1062L37.6716 17.1049C37.6798 14.156 36.5917 11.3627 34.6096 9.24115C32.812 7.31754 30.4348 6.16665 28.2504 6.15982C28.2449 6.16119 28.2394 6.16119 28.234 6.16119Z" fill="#242424"/>
<path d="M15.0225 12.5559C15.721 12.5109 16.4223 12.5532 17.1167 12.6392C17.8125 12.7252 18.5028 12.8631 19.1781 13.0556C19.3476 13.1034 19.5144 13.1566 19.6825 13.2099C19.8479 13.2686 20.0161 13.3218 20.1787 13.3874C20.5082 13.5116 20.8308 13.6508 21.1452 13.8106C21.7754 14.1218 22.3728 14.5055 22.8949 14.9683C22.5901 14.7963 22.2907 14.6229 21.9804 14.4713C21.9039 14.4304 21.8246 14.3963 21.748 14.358C21.6701 14.3212 21.5936 14.2829 21.5129 14.2488C21.4336 14.2147 21.3557 14.1792 21.2778 14.1437L21.0399 14.044C20.9607 14.0099 20.8814 13.9785 20.8007 13.9485C20.7201 13.9171 20.6408 13.8843 20.5601 13.8543C20.3988 13.7956 20.2375 13.7341 20.0748 13.6809C19.7495 13.5689 19.4214 13.4652 19.0906 13.3723C18.429 13.1826 17.7564 13.0283 17.0784 12.8918C16.3977 12.7593 15.7142 12.646 15.0225 12.5559Z" fill="#242424"/>
<path d="M14.5837 15.341C15.2467 15.1185 15.9357 14.9806 16.6301 14.885C17.3246 14.7895 18.0272 14.7471 18.7298 14.7594C18.9048 14.7621 19.0811 14.7703 19.2561 14.7785C19.4311 14.7922 19.6074 14.8017 19.781 14.8222C20.131 14.8577 20.4796 14.911 20.8227 14.9833C21.5116 15.1226 22.1869 15.3396 22.8116 15.6536C22.4726 15.5649 22.1391 15.4748 21.8001 15.4079C21.7167 15.3874 21.6306 15.3751 21.5458 15.3574C21.4611 15.3424 21.3763 15.3246 21.2916 15.3123C21.2068 15.3 21.122 15.285 21.0373 15.27L20.7817 15.2345C20.6969 15.2222 20.6108 15.2127 20.526 15.2031C20.4399 15.1936 20.3552 15.1826 20.269 15.1744C20.0982 15.1594 19.9273 15.1403 19.7551 15.1308C19.4119 15.1062 19.0688 15.0898 18.7243 15.0843C18.0368 15.0707 17.3464 15.0925 16.6575 15.1362C15.9658 15.1854 15.2754 15.2509 14.5837 15.341Z" fill="#242424"/>
<path d="M14.9473 18.3841C15.5282 17.995 16.1584 17.6824 16.8023 17.408C17.4475 17.1349 18.1132 16.9083 18.7953 16.7376C18.9648 16.6939 19.1371 16.6571 19.3093 16.6189C19.4816 16.5861 19.6538 16.5492 19.8274 16.5233C20.1746 16.466 20.5246 16.425 20.8759 16.4059C21.5772 16.3608 22.2866 16.3936 22.9715 16.5328C22.6215 16.5356 22.2757 16.5356 21.9298 16.5602C21.8437 16.5629 21.7576 16.5724 21.6715 16.5779C21.5854 16.5847 21.4992 16.5902 21.4145 16.6011C21.3284 16.6107 21.2436 16.6189 21.1575 16.627L20.8991 16.6612C20.8144 16.6707 20.7283 16.6844 20.6435 16.698C20.5588 16.7117 20.4726 16.7226 20.3892 16.7376C20.2197 16.7677 20.0502 16.795 19.8821 16.8305C19.5444 16.896 19.2082 16.9711 18.8746 17.0557C18.2062 17.2223 17.5473 17.4257 16.8925 17.6469C16.2391 17.8721 15.5911 18.1165 14.9473 18.3841Z" fill="#242424"/>
<path d="M41.1375 12.7348C40.4458 12.8249 39.7623 12.9382 39.0829 13.0693C38.4049 13.2044 37.7323 13.3587 37.0707 13.5498C36.7399 13.6427 36.4118 13.7464 36.0865 13.8584C35.9224 13.9116 35.7625 13.9744 35.6012 14.0317C35.5205 14.0618 35.4412 14.0945 35.3606 14.1259C35.2799 14.156 35.1993 14.1874 35.1214 14.2215L34.8835 14.3212C34.8056 14.3567 34.7277 14.3935 34.6484 14.4263C34.5691 14.4591 34.4912 14.4987 34.4133 14.5355C34.3353 14.5737 34.2561 14.6079 34.1809 14.6488C33.8692 14.8004 33.5698 14.9724 33.2664 15.1458C33.7899 14.683 34.3859 14.2993 35.0161 13.9881C35.3305 13.8297 35.6531 13.6891 35.9826 13.5648C36.1466 13.5007 36.3134 13.4461 36.4788 13.3874C36.6469 13.3341 36.8137 13.2809 36.9832 13.2331C37.6585 13.0406 38.3488 12.9027 39.0446 12.8167C39.7363 12.7334 40.4389 12.6897 41.1375 12.7348Z" fill="#242424"/>
<path d="M41.5749 15.5212C40.8832 15.4311 40.1929 15.3656 39.5039 15.3192C38.8136 15.2768 38.1246 15.2536 37.4371 15.2673C37.0926 15.2727 36.7495 15.2878 36.4063 15.3137C36.2341 15.3233 36.0632 15.3424 35.8924 15.3574C35.8062 15.3656 35.7215 15.3779 35.6354 15.3861C35.5492 15.3942 35.4645 15.4052 35.3797 15.4175L35.1241 15.453C35.0394 15.4666 34.9546 15.4816 34.8685 15.4953C34.7824 15.5076 34.699 15.5253 34.6142 15.5403C34.5295 15.5567 34.4447 15.5704 34.36 15.5908C34.0209 15.6577 33.686 15.7478 33.3484 15.8366C33.9731 15.5226 34.6484 15.3055 35.3374 15.1663C35.6818 15.0939 36.0304 15.0407 36.379 15.0052C36.554 14.9847 36.729 14.9751 36.9039 14.9615C37.0789 14.9533 37.2552 14.9437 37.4302 14.9424C38.1328 14.9287 38.8355 14.9724 39.5299 15.068C40.223 15.1608 40.9119 15.2987 41.5749 15.5212Z" fill="#242424"/>
<path d="M41.2127 18.5643C40.5689 18.2967 39.9196 18.0523 39.2675 17.8257C38.6127 17.6045 37.9538 17.4011 37.2854 17.2346C36.9518 17.1486 36.6156 17.0748 36.2793 17.0093C36.1111 16.9738 35.9416 16.9479 35.7721 16.9165C35.6874 16.9015 35.6026 16.8905 35.5179 16.8769C35.4331 16.8632 35.3484 16.8496 35.2622 16.84L35.0066 16.8073C34.9205 16.7991 34.8357 16.7909 34.7496 16.7813C34.6635 16.7704 34.5774 16.7649 34.4926 16.7581C34.4065 16.7526 34.3204 16.7431 34.2343 16.7404C33.8884 16.7158 33.5426 16.7158 33.1926 16.7131C33.8775 16.5738 34.587 16.541 35.2882 16.5861C35.6395 16.6052 35.9895 16.6462 36.3367 16.7035C36.5103 16.7294 36.6825 16.7663 36.8548 16.7991C37.027 16.8373 37.1979 16.8741 37.3688 16.9178C38.0495 17.0885 38.7166 17.3151 39.3618 17.5882C40.0016 17.8626 40.6304 18.1752 41.2127 18.5643Z" fill="#242424"/>
<path d="M24.3003 11.7423C24.0255 11.7081 23.774 11.8119 23.5758 12.0139C23.3215 12.272 23.1589 12.6884 23.1534 13.1785C23.1479 13.8106 23.409 14.3894 23.7918 14.6898C23.9367 14.8045 24.0994 14.8782 24.2702 14.8987C24.8963 14.9765 25.4089 14.3335 25.4171 13.4624C25.4267 12.5901 24.9264 11.8201 24.3003 11.7423Z" fill="white"/>
<path d="M24.3755 14.9533C24.3386 14.9533 24.303 14.9505 24.2661 14.9464C24.0884 14.9246 23.9203 14.8509 23.7631 14.7266C23.3584 14.4099 23.1001 13.801 23.1056 13.1771C23.1097 12.6925 23.2682 12.2556 23.5416 11.9798C23.7562 11.7614 24.0283 11.659 24.3071 11.6945C24.9551 11.7764 25.4759 12.5696 25.4677 13.4638C25.4636 13.9826 25.2763 14.4536 24.9701 14.7212C24.7924 14.8741 24.5887 14.9533 24.3755 14.9533ZM24.1964 11.7832C23.9818 11.7832 23.7795 11.8733 23.61 12.0467C23.3543 12.3061 23.2053 12.7184 23.2012 13.1785C23.1958 13.7737 23.4391 14.3526 23.8219 14.6516C23.964 14.7635 24.1171 14.8318 24.2771 14.8509C24.5026 14.8796 24.72 14.8086 24.9045 14.6475C25.1916 14.3963 25.3652 13.9539 25.3693 13.4611C25.3775 12.6146 24.8949 11.8638 24.2935 11.7887C24.262 11.7859 24.2292 11.7832 24.1964 11.7832Z" fill="#242424"/>
<path d="M24.3004 11.7423C24.0256 11.7081 23.7741 11.8119 23.5759 12.0139C23.5485 12.0672 23.5239 12.1218 23.502 12.1805C23.4542 12.3116 23.4323 12.5 23.5253 12.5955C23.6059 12.6774 23.7126 12.631 23.8096 12.6433C23.9696 12.6624 24.1131 12.8781 24.1063 13.0911C24.1008 13.3027 23.9463 13.4706 23.7864 13.4392C23.6757 13.4174 23.554 13.3164 23.4624 13.3887C23.3941 13.442 23.3804 13.5662 23.3859 13.6741C23.4023 14.0454 23.5581 14.4058 23.7727 14.6652C23.7795 14.6734 23.7864 14.6816 23.7932 14.6898C23.9381 14.8045 24.1008 14.8782 24.2717 14.8987C24.8977 14.9765 25.4104 14.3335 25.4186 13.4625C25.4268 12.5901 24.9264 11.8201 24.3004 11.7423Z" fill="#16B768"/>
<path d="M24.6794 14.8415C25.1864 14.7986 25.5451 14.1463 25.4804 13.3845C25.4158 12.6227 24.9524 12.0399 24.4454 12.0828C23.9384 12.1257 23.5797 12.778 23.6444 13.5398C23.709 14.3016 24.1724 14.8844 24.6794 14.8415Z" fill="#242424"/>
<path d="M23.8218 12.5983C23.7247 12.586 23.6167 12.6324 23.5374 12.5505C23.4445 12.4549 23.4663 12.2665 23.5142 12.1354C23.5361 12.0767 23.5607 12.0208 23.588 11.9689C23.3338 12.2269 23.1711 12.6433 23.1656 13.1334C23.1601 13.7655 23.4212 14.3444 23.804 14.6447C23.7972 14.6365 23.7903 14.6283 23.7835 14.6202C23.5702 14.3608 23.413 14.0003 23.3966 13.629C23.3925 13.5198 23.4062 13.3969 23.4732 13.3437C23.5648 13.2713 23.6864 13.3723 23.7972 13.3942C23.9571 13.4256 24.1116 13.2577 24.117 13.046C24.1252 12.8331 23.9817 12.6174 23.8218 12.5983Z" fill="white"/>
<path d="M24.1991 11.7354C24.2333 11.7354 24.2675 11.7382 24.3017 11.7423C24.9277 11.8201 25.4281 12.5914 25.4199 13.4624C25.413 14.2857 24.9537 14.9055 24.3755 14.9055C24.3413 14.9055 24.3071 14.9028 24.273 14.8987C24.1007 14.8768 23.9394 14.8031 23.7945 14.6898C23.4118 14.3894 23.1493 13.8106 23.1561 13.1785C23.1602 12.6884 23.3243 12.272 23.5785 12.0139C23.7494 11.8378 23.964 11.7354 24.1991 11.7354ZM24.1991 11.4269C23.8847 11.4269 23.5936 11.5552 23.3557 11.7982C23.0372 12.1218 22.8513 12.6242 22.8458 13.1757C22.839 13.8884 23.1302 14.5615 23.6031 14.9328C23.7972 15.0857 24.0091 15.1772 24.2347 15.2058C24.2812 15.2113 24.329 15.2154 24.3755 15.2154C25.1383 15.2154 25.7192 14.4632 25.7288 13.4665C25.7384 12.4276 25.1287 11.5361 24.3399 11.4364C24.2921 11.4296 24.2456 11.4269 24.1991 11.4269Z" fill="#242424"/>
<path d="M32.2793 11.7422C32.5541 11.7081 32.8056 11.8119 33.0038 12.0139C33.2581 12.272 33.4208 12.6884 33.4262 13.1785C33.4317 13.8106 33.1706 14.3894 32.7878 14.6898C32.6429 14.8045 32.4803 14.8782 32.3094 14.8987C31.6833 14.9765 31.1707 14.3335 31.1625 13.4624C31.1529 12.5901 31.6546 11.8201 32.2793 11.7422Z" fill="white"/>
<path d="M32.2042 14.9533C31.991 14.9533 31.7873 14.8741 31.611 14.7198C31.3034 14.4509 31.1175 13.9812 31.1134 13.4624C31.1052 12.5682 31.626 11.775 32.2739 11.6931C32.5528 11.659 32.8248 11.76 33.0395 11.9798C33.3115 12.2569 33.4714 12.6925 33.4755 13.1771C33.481 13.801 33.2226 14.4099 32.818 14.7266C32.6622 14.8495 32.4927 14.9232 32.315 14.9465C32.2781 14.9519 32.2411 14.9533 32.2042 14.9533ZM32.2863 11.79C31.6848 11.8651 31.2022 12.616 31.2104 13.4624C31.2145 13.9539 31.3881 14.3976 31.6752 14.6488C31.8598 14.8099 32.0771 14.8809 32.3027 14.8522C32.4626 14.8318 32.6157 14.7649 32.7579 14.6529C33.1406 14.3539 33.3839 13.7751 33.3785 13.1798C33.3744 12.7198 33.2254 12.3075 32.9697 12.0481C32.7743 11.8474 32.5378 11.7586 32.2863 11.79Z" fill="#242424"/>
<path d="M32.2792 11.7423C32.5539 11.7081 32.8055 11.8119 33.0037 12.0139C33.031 12.0672 33.0556 12.1218 33.0775 12.1805C33.1254 12.3116 33.1472 12.5 33.0543 12.5955C32.9736 12.6774 32.867 12.631 32.7699 12.6433C32.61 12.6624 32.4665 12.8781 32.4733 13.0911C32.4788 13.3027 32.6332 13.4706 32.7932 13.4392C32.9039 13.4174 33.0256 13.3164 33.1171 13.3887C33.1855 13.442 33.1992 13.5662 33.1937 13.6741C33.1773 14.0454 33.0215 14.4058 32.8068 14.6652C32.8 14.6734 32.7932 14.6816 32.7863 14.6898C32.6414 14.8045 32.4788 14.8782 32.3079 14.8987C31.6818 14.9765 31.1692 14.3335 31.161 13.4625C31.1528 12.5901 31.6545 11.8201 32.2792 11.7423Z" fill="#16B768"/>
<path d="M32.9358 13.5399C33.0004 12.7781 32.6418 12.1258 32.1347 12.0829C31.6277 12.04 31.1643 12.6228 31.0997 13.3846C31.0351 14.1464 31.3937 14.7987 31.9007 14.8416C32.4077 14.8845 32.8711 14.3017 32.9358 13.5399Z" fill="#242424"/>
<path d="M32.7592 12.5983C32.8563 12.586 32.9643 12.6324 33.0436 12.5505C33.1365 12.4549 33.1146 12.2665 33.0668 12.1354C33.0449 12.0767 33.0203 12.0208 32.993 11.9689C33.2472 12.2269 33.4099 12.6433 33.4154 13.1334C33.4208 13.7655 33.1598 14.3444 32.777 14.6447C32.7838 14.6365 32.7907 14.6283 32.7975 14.6202C33.0108 14.3608 33.168 14.0003 33.1844 13.629C33.1885 13.5198 33.1748 13.3969 33.1078 13.3437C33.0162 13.2713 32.8946 13.3723 32.7838 13.3942C32.6239 13.4256 32.4694 13.2577 32.464 13.046C32.4558 12.8331 32.5993 12.6174 32.7592 12.5983Z" fill="white"/>
<path d="M32.3818 11.7354C32.6169 11.7354 32.8316 11.8378 33.0038 12.0139C33.2581 12.272 33.4207 12.6884 33.4262 13.1785C33.4317 13.8106 33.1706 14.3894 32.7878 14.6898C32.6429 14.8045 32.4802 14.8782 32.3094 14.8987C32.2752 14.9028 32.241 14.9055 32.2068 14.9055C31.6286 14.9055 31.1707 14.2857 31.1625 13.4624C31.1543 12.5901 31.6546 11.8201 32.2807 11.7423C32.3135 11.7382 32.3476 11.7354 32.3818 11.7354ZM32.3818 11.4269C32.3353 11.4269 32.2875 11.4296 32.241 11.4351C31.4523 11.5334 30.8426 12.4249 30.8522 13.4652C30.8617 14.4618 31.4427 15.214 32.2055 15.214C32.252 15.214 32.2998 15.2113 32.3463 15.2045C32.5718 15.1758 32.7837 15.0843 32.9778 14.9314C33.4508 14.5615 33.7406 13.8884 33.7338 13.1757C33.7283 12.6242 33.5424 12.1218 33.2225 11.7982C32.9874 11.5552 32.6962 11.4269 32.3818 11.4269Z" fill="#242424"/>
<path d="M30.4654 14.5974C30.788 14.7872 30.9575 15.1545 30.9561 15.5285C30.9547 16.1238 30.4667 16.6166 29.8283 16.7149C29.7504 16.7258 29.6711 16.7327 29.5891 16.7327C29.3854 16.7327 29.1927 16.6917 29.0191 16.6207C28.6691 16.476 28.3998 16.2043 28.2877 15.8739C28.1743 16.2043 27.9023 16.4746 27.5523 16.618C27.3787 16.6876 27.1846 16.7272 26.9809 16.7272C26.9003 16.7272 26.8196 16.7204 26.7417 16.7081C26.1033 16.6057 25.618 16.1115 25.6194 15.5162C25.6208 15.2186 25.7424 14.9456 25.9461 14.7353C25.9461 14.734 27.9651 13.1339 30.4654 14.5974Z" fill="white"/>
<g opacity="0.2">
<path d="M30.9603 15.5285C30.9589 16.1238 30.4722 16.6166 29.8325 16.7149C29.7546 16.7272 29.6753 16.7327 29.5933 16.7327C29.3896 16.7327 29.1968 16.6917 29.0232 16.6207C28.6733 16.476 28.404 16.2043 28.2919 15.8739C28.1784 16.2043 27.9064 16.4746 27.5565 16.618C27.3815 16.6876 27.1887 16.7272 26.9851 16.7272C26.9044 16.7272 26.8238 16.7204 26.7458 16.7081C26.1074 16.6071 25.6235 16.1115 25.6235 15.5163C25.6235 15.3087 25.6837 15.1149 25.7862 14.9456C25.7862 14.9456 26.2811 16.7149 28.2933 15.3593C28.2933 15.3593 30.2494 16.6849 30.7976 14.9865C30.8017 14.9743 30.8044 14.9633 30.8099 14.9524C30.911 15.1217 30.9616 15.3238 30.9603 15.5285Z" fill="#242424"/>
</g>
<path d="M29.8285 16.7149C29.7451 17.3566 29.5687 17.9204 29.3268 18.3423C29.0465 18.8338 28.6788 19.13 28.2797 19.13C27.8791 19.1287 27.5141 18.8297 27.2366 18.3368C26.9974 17.915 26.8224 17.3498 26.7432 16.7067C26.8211 16.719 26.9004 16.7259 26.9824 16.7259C27.5975 16.7272 28.1184 16.3682 28.2892 15.8726C28.4574 16.3682 28.9768 16.7299 29.592 16.7327C29.6713 16.7327 29.7505 16.7272 29.8285 16.7149Z" fill="#242424"/>
<path d="M29.3267 18.3423C29.0465 18.8338 28.6787 19.13 28.2796 19.13C27.8791 19.1287 27.5141 18.8297 27.2366 18.3368C27.5182 18.1389 27.8845 18.0201 28.2823 18.0201C28.6801 18.0215 29.0451 18.143 29.3267 18.3423Z" fill="#E34675"/>
<path d="M29.0192 16.6207C28.9207 17.1327 28.6282 17.5027 28.2824 17.5013C27.9379 17.4999 27.6467 17.1286 27.551 16.6166C27.9023 16.4746 28.173 16.203 28.2865 15.8726C28.3999 16.2043 28.6692 16.476 29.0192 16.6207Z" fill="white"/>
<path d="M30.4859 14.5688C30.6732 14.6575 30.8427 14.805 30.9603 14.9934C31.0792 15.1818 31.1434 15.4139 31.1352 15.646C31.1257 15.8794 31.0491 16.1142 30.9138 16.3054C30.8482 16.4037 30.7689 16.4897 30.6828 16.5688C30.5953 16.6453 30.4982 16.7108 30.3971 16.7682C30.1934 16.8774 29.9651 16.9388 29.7368 16.9566C29.5085 16.9716 29.2775 16.9429 29.0602 16.8692C28.8428 16.7955 28.6405 16.6781 28.4683 16.5224C28.2987 16.3654 28.1593 16.1675 28.0814 15.9408L28.4901 15.9422C28.4177 16.1579 28.2892 16.3504 28.1292 16.5047C27.9693 16.659 27.7779 16.7764 27.5715 16.8542C27.3665 16.9306 27.1464 16.9661 26.9277 16.9607C26.8183 16.9566 26.7103 16.9429 26.6023 16.9183C26.5476 16.9088 26.4957 16.8897 26.4437 16.8747C26.3918 16.8555 26.3399 16.8364 26.2906 16.8146C26.0897 16.7231 25.9051 16.5934 25.7602 16.4228C25.614 16.2548 25.5046 16.0501 25.465 15.8289C25.4212 15.6091 25.4445 15.3797 25.5292 15.1818C25.6112 14.9824 25.7534 14.8173 25.9202 14.7094C25.9366 14.6985 25.9598 14.7026 25.9708 14.7203C25.979 14.7326 25.979 14.7476 25.9721 14.7586C25.7794 15.0862 25.737 15.4384 25.8436 15.7333C25.8928 15.8808 25.9776 16.0146 26.087 16.1265C26.1129 16.1552 26.1444 16.1798 26.1731 16.2057C26.2059 16.2289 26.2346 16.2548 26.2688 16.2753L26.318 16.3081L26.3699 16.3368C26.4041 16.3572 26.441 16.3709 26.4766 16.3886C26.7705 16.5101 27.1136 16.5238 27.417 16.42C27.7191 16.319 27.9802 16.0897 28.0814 15.8016V15.8002C28.121 15.6883 28.2441 15.6282 28.3575 15.6678C28.4218 15.691 28.4696 15.7415 28.4901 15.8016C28.5421 15.9531 28.6337 16.0937 28.7581 16.2043C28.8811 16.3163 29.0328 16.3982 29.1941 16.4473C29.5195 16.547 29.8831 16.506 30.1784 16.3559C30.326 16.2794 30.46 16.177 30.5611 16.0487C30.665 15.9217 30.732 15.7716 30.7648 15.6091C30.7949 15.4466 30.7867 15.2719 30.7292 15.1026C30.6732 14.9333 30.5748 14.7708 30.4422 14.6234C30.4285 14.6084 30.4299 14.5852 30.4449 14.5715C30.4572 14.5647 30.4736 14.5633 30.4859 14.5688Z" fill="#242424"/>
<path d="M27.1491 14.6835C27.0247 14.9647 27.5441 15.934 28.2727 15.9354C29.0013 15.9367 29.5126 14.9429 29.3841 14.6889C29.2228 14.3736 27.3049 14.3326 27.1491 14.6835Z" fill="#242424"/>
<path d="M28.281 19.3444C28.2796 19.3444 28.2796 19.3444 28.2782 19.3444C27.8134 19.343 27.376 19.0235 27.0479 18.4419C26.7909 17.9873 26.6105 17.3962 26.5285 16.7327C26.5203 16.6658 26.5435 16.5989 26.5914 16.5525C26.6392 16.506 26.7076 16.4842 26.7732 16.4951C26.8429 16.506 26.9112 16.5115 26.9796 16.5115C26.9809 16.5115 26.9823 16.5115 26.9837 16.5115C27.4881 16.5115 27.9406 16.2207 28.0841 15.8029C28.1142 15.7169 28.1948 15.6582 28.2864 15.6582C28.378 15.6582 28.46 15.7169 28.4887 15.8029C28.6309 16.2221 29.0834 16.5156 29.5892 16.517C29.6561 16.5183 29.7259 16.5115 29.7956 16.5019C29.8626 16.4924 29.9295 16.5142 29.9774 16.5607C30.0252 16.6071 30.0485 16.674 30.0403 16.7409C29.9541 17.4044 29.771 17.9941 29.5112 18.4474C29.1832 19.0263 28.7457 19.3444 28.281 19.3444ZM26.9933 16.9402C27.0794 17.4412 27.2256 17.8836 27.4225 18.2317C27.6713 18.6727 27.9761 18.9157 28.2796 18.9157H28.281C28.5844 18.9157 28.8893 18.674 29.1408 18.2358C29.3404 17.889 29.4894 17.4481 29.5769 16.947C29.0465 16.9416 28.5708 16.704 28.2864 16.3245C28.0007 16.7026 27.5236 16.9375 26.9933 16.9402Z" fill="#242424"/>
<path d="M28.7361 14.7299C28.7361 14.7695 28.5269 14.8009 28.2672 14.8009C28.0089 14.8009 27.7983 14.7695 27.7983 14.7299C27.7983 14.6903 28.0075 14.6589 28.2672 14.6589C28.5256 14.6575 28.7361 14.6903 28.7361 14.7299Z" fill="white"/>
</svg>
