<svg width="38" height="50" viewBox="0 0 38 50" fill="none" xmlns="http://www.w3.org/2000/svg">
<path d="M18.5955 2.64656C18.5955 2.64656 14.5357 0.173225 12.0722 1.42467C9.6087 2.67612 12.2298 8.78556 12.2298 8.78556C12.2298 8.78556 11.4021 11.525 10.0324 13.1607C8.66272 14.7965 9.16527 17.6837 11.0868 18.6789C13.0083 19.684 15.9152 21.3789 21.7192 21.438C27.5231 21.4971 29.3461 19.8515 30.3808 18.0877C31.4154 16.3238 32.391 12.7863 32.0658 11.5052C32.0658 11.5052 36.1453 5.7604 34.3618 3.13926C34.0267 2.64656 33.0808 2.22284 33.0808 2.22284C33.0808 2.22284 32.9132 3.45458 31.5928 2.84364C31.5928 2.84364 30.8735 3.45458 30.2625 2.86335C30.2625 2.86335 29.3166 3.91772 28.7056 2.56773L26.4983 3.73049C26.4983 3.73049 23.7195 2.18343 21.1674 2.41007C21.1674 2.41007 20.9506 6.33193 17.2948 7.02171C15.7773 7.30747 14.6342 6.51916 14.0233 5.61259C14.0233 5.61259 14.8411 3.17867 16.7824 3.70093C16.7626 3.70093 17.5017 2.617 18.5955 2.64656Z" fill="#1FA690"/>
<path d="M24.0144 11.9883C24.5563 15.2598 22.2998 18.0879 20.9695 18.0879C19.6392 18.0879 19.9151 13.8408 19.1958 11.9883C18.7228 10.7467 20.2994 10.392 21.3045 10.1949C22.7826 9.91896 23.7976 10.6777 24.0144 11.9883Z" fill="#2C7065"/>
<path d="M11.7373 11.4564C11.7373 12.8556 12.0428 14.383 13.2942 14.383C14.5457 14.383 16.0238 12.5403 16.0238 11.1509C16.0238 9.75165 14.9891 9.47574 14.0431 9.27866C12.6636 8.97319 11.7373 10.0571 11.7373 11.4564Z" fill="#2C7065"/>
<path d="M20.9406 2.79436C21.0293 3.46442 20.2015 5.9082 18.3687 6.68666C14.979 8.12533 14.0034 5.61258 14.0034 5.61258C14.0034 5.61258 14.6538 3.09983 16.7625 3.70092C16.7625 3.70092 17.2749 2.73523 18.5067 2.92246C18.5165 2.92246 19.0683 1.91736 20.9406 2.79436Z" fill="#FF67A3"/>
<path d="M23.1968 4.50909C22.6844 4.57807 21.9749 6.9036 24.7537 7.99739C27.5325 9.09117 25.9657 4.1445 23.1968 4.50909Z" fill="#2C7065"/>
<path d="M22.3199 7.3278C23.0196 7.2194 23.6108 8.54968 23.0491 8.59895C22.4776 8.64822 21.4626 7.46575 22.3199 7.3278Z" fill="#2C7065"/>
<path d="M12.1802 17.1322C12.9784 18.1373 12.6433 18.8467 11.3229 17.9205C10.0025 16.9942 11.382 16.1172 12.1802 17.1322Z" fill="#2C7065"/>
<path d="M16.4365 11.7714C15.5595 11.7714 14.6135 11.8306 14.6135 12.8455C14.6135 13.9689 15.1752 14.4024 15.727 14.3532C16.2788 14.3039 16.9391 13.7718 17.1164 13.151C17.2544 12.678 17.3234 12.4809 17.3234 12.4809C17.3234 12.4809 16.9193 12.5302 16.4365 11.7714Z" fill="#8AD1AF"/>
<path d="M12.9197 6.54908C12.9197 6.54908 11.8555 3.73085 12.8015 3.00166C13.7475 2.27247 15.6296 3.74071 15.6296 3.74071C15.6296 3.74071 14.654 3.78012 14.0135 5.62281L13.8559 5.10055L12.9197 6.54908Z" fill="#2C7065"/>
<path d="M28.5867 5.12012C28.5867 5.12012 31.6217 3.54349 32.9125 4.61757C34.1936 5.6818 31.5034 9.446 31.5034 9.446C31.5034 9.446 30.7053 6.85441 28.5867 5.12012Z" fill="#2C7065"/>
<path d="M13.9436 12.6683C14.8143 12.6683 15.5202 11.9624 15.5202 11.0917C15.5202 10.2209 14.8143 9.51505 13.9436 9.51505C13.0728 9.51505 12.3669 10.2209 12.3669 11.0917C12.3669 11.9624 13.0728 12.6683 13.9436 12.6683Z" fill="#EBD65E"/>
<path d="M13.4315 12.1654C13.8288 12.1654 14.1508 11.8434 14.1508 11.4461C14.1508 11.0488 13.8288 10.7268 13.4315 10.7268C13.0342 10.7268 12.7122 11.0488 12.7122 11.4461C12.7122 11.8434 13.0342 12.1654 13.4315 12.1654Z" fill="#FF67A3"/>
<path d="M13.4311 11.7815C13.6107 11.7815 13.7563 11.6359 13.7563 11.4563C13.7563 11.2768 13.6107 11.1312 13.4311 11.1312C13.2515 11.1312 13.106 11.2768 13.106 11.4563C13.106 11.6359 13.2515 11.7815 13.4311 11.7815Z" fill="black"/>
<path d="M21.7087 13.3676C22.5795 13.3676 23.2853 12.6617 23.2853 11.791C23.2853 10.9202 22.5795 10.2143 21.7087 10.2143C20.838 10.2143 20.1321 10.9202 20.1321 11.791C20.1321 12.6617 20.838 13.3676 21.7087 13.3676Z" fill="#EBD65E"/>
<path d="M22.0335 11.9886C22.4308 11.9886 22.7529 11.6665 22.7529 11.2692C22.7529 10.872 22.4308 10.5499 22.0335 10.5499C21.6363 10.5499 21.3142 10.872 21.3142 11.2692C21.3142 11.6665 21.6363 11.9886 22.0335 11.9886Z" fill="#FF67A3"/>
<path d="M22.0246 11.584C22.2042 11.584 22.3498 11.4384 22.3498 11.2588C22.3498 11.0792 22.2042 10.9337 22.0246 10.9337C21.845 10.9337 21.6995 11.0792 21.6995 11.2588C21.6995 11.4384 21.845 11.584 22.0246 11.584Z" fill="black"/>
<path d="M19.5507 17.664C19.5507 17.664 19.5507 20.0093 19.5507 20.5808C19.5507 21.1523 18.8511 21.1326 18.8511 20.5808C18.8511 20.029 18.8511 18.8465 18.8511 18.8465L19.5507 17.664Z" fill="#EBD65E"/>
<path d="M18.851 18.8468C18.851 18.8468 18.851 19.4774 18.851 20.049C18.851 20.6205 18.1514 20.6008 18.1514 20.049C18.1514 19.4971 18.1514 19.3296 18.1514 19.3296L18.851 18.8468Z" fill="#EBD65E"/>
<path d="M20.1321 12.6976C20.3883 13.8406 21.0091 15.9297 22.024 15.9001C23.039 15.8607 23.2853 12.5103 23.2853 12.5103C23.2853 12.5103 22.0635 14.6585 20.1321 12.6976Z" fill="#FF67A3"/>
<path d="M18.5071 12.1656C19.1377 12.1853 20.1133 12.4317 20.1428 12.6977C20.1626 12.9638 20.3005 13.8703 20.3005 13.8703C20.3005 13.8703 19.8965 14.8951 18.5071 14.8853C17.1177 14.8754 17.3246 12.4908 17.3246 12.4908C17.3246 12.4908 17.8863 12.6879 18.5071 12.1656Z" fill="#8AD1AF"/>
<path d="M16.3877 11.5055C16.2891 11.7518 16.4566 12.4416 17.3238 12.4908C18.1909 12.5401 18.4865 12.077 18.5457 11.8011C18.6048 11.5252 16.5847 10.9931 16.3877 11.5055Z" fill="#05240E"/>
<path d="M15.2841 14.363C14.9885 15.3583 14.7126 16.9251 14.8111 18.0878C14.8111 18.0878 15.9345 17.1419 17.7476 17.3981C17.7476 17.3981 18.5655 16.7477 19.4129 16.59L18.8414 14.8952C18.8414 14.8952 17.856 15.1316 17.2746 13.3579C17.2746 13.3678 16.5158 14.5404 15.2841 14.363Z" fill="#05240E"/>
<path d="M19.4123 16.5998C19.4123 16.5998 18.4664 16.6687 17.747 17.4078C17.747 17.4078 16.131 17.0333 14.8105 18.0976C14.8105 18.0976 15.1949 19.822 17.4908 19.5362C19.7868 19.2505 19.4123 16.5998 19.4123 16.5998Z" fill="#A61B11"/>
<path d="M18.6838 40.1604L19.6889 45.8265C19.6889 45.8265 18.6149 46.4177 18.6838 47.5805C18.7528 48.7432 19.5313 48.9896 19.5313 48.9896H26.7641C26.7641 48.9896 27.2568 48.891 26.9907 46.9794C26.9907 46.9794 27.1582 43.9049 27.2075 42.6732C27.2469 41.4513 27.2765 40.5053 27.2765 40.5053L27.7692 40.0422C27.7692 40.0422 29.7892 41.3626 31.9472 41.2641C34.1052 41.1754 35.6523 40.1112 36.549 38.1502C36.549 38.1502 35.4355 37.4112 36.5687 36.6426C36.5687 36.6426 35.8395 35.9824 36.687 35.3714C36.687 35.3714 35.9184 34.3762 37.2191 33.9722C37.2191 33.9722 37.1402 30.7795 34.6866 31.1047C33.1297 31.3215 33.0213 32.5926 33.2479 33.913C33.4844 35.2335 33.3169 37.7659 32.0162 38.2291C30.7155 38.6922 29.2472 37.7758 29.2472 37.7758C29.2472 37.7758 30.0651 35.7065 29.6513 30.6021C29.2374 25.4978 28.4491 22.1967 26.971 20.7876C26.971 20.7876 24.2414 21.5661 21.1178 21.438C17.9842 21.3099 17.2846 21.0143 17.2846 21.0143L16.7328 21.842C16.7328 21.842 13.7372 22.4332 9.91384 22.2953C6.09051 22.1573 6.62262 22.3051 4.62227 21.8617C2.61207 21.4281 0.976322 21.911 0.641288 23.4876C0.296401 25.0642 1.25223 24.739 2.12923 24.4139C2.12923 24.4139 1.80405 26.3649 2.4347 26.4832C3.06535 26.6014 3.5482 25.8131 3.5482 25.8131C3.5482 25.8131 3.292 27.6164 4.08031 27.7445C4.86862 27.8726 5.05585 26.2763 5.05585 26.2763C5.05585 26.2763 5.83431 26.7887 6.79014 26.2565C6.79014 26.2565 6.78029 28.4343 8.1894 28.4934C8.1894 28.4934 9.23392 30.1981 10.3671 29.6857C10.8795 29.4591 10.4854 28.6412 10.4854 28.6412C10.4854 28.6412 11.3624 29.1536 11.9437 29.0846C12.5251 29.0156 12.8207 28.7397 12.8207 28.7397L13.3824 28.8383C13.3824 28.8383 11.5594 31.5678 11.6875 35.5389C11.8156 39.5002 13.885 40.121 14.8408 40.3575L17.0185 40.1112C17.0087 40.0915 17.797 39.8057 18.6838 40.1604Z" fill="#1FA690"/>
<path d="M20.014 30.6912C19.1272 30.6025 18.1713 31.1741 17.1071 33.1251C16.0429 35.0762 15.3827 35.7955 15.7276 36.9583C16.0724 38.1211 17.4717 38.2492 18.1122 38.0028C18.664 37.786 19.5509 36.101 20.3096 35.2043C21.0782 34.3076 21.8271 30.8587 20.014 30.6912Z" fill="#FF67A3"/>
<path d="M15.304 40.9689L15.8262 44.4473C15.8262 44.4473 16.3091 44.7528 17.1072 44.0926C17.1072 44.0926 17.7773 45.1863 19.2061 43.659C19.3441 43.5112 18.7233 40.6732 18.7233 40.6732C18.7233 40.6732 18.3882 40.6634 17.8266 41.1364C17.8266 41.1364 17.5211 40.4959 16.782 40.8408C16.5061 40.9787 16.5061 41.4221 16.5061 41.4221C16.5061 41.4221 16.0726 40.624 15.304 40.9689Z" fill="#FF67A3"/>
<path d="M22.9206 40.6239C23.0388 41.6093 20.733 44.5852 19.6097 42.8706C18.4666 41.1561 22.6841 38.6532 22.9206 40.6239Z" fill="#2C7065"/>
<path d="M28.3503 29.5479C29.3456 29.5479 29.3653 38.0026 28.1237 38.0026C26.4682 38.0026 27.0594 29.5479 28.3503 29.5479Z" fill="#2C7065"/>
<path d="M22.3882 24.8084C22.0729 24.2566 19.6094 25.0055 20.24 25.9317C20.8707 26.858 22.9696 25.8135 22.3882 24.8084Z" fill="#2C7065"/>
<path d="M19.2158 43.6585C19.2158 43.6585 18.191 45.2056 17.1169 44.0921C17.1169 44.0921 16.1906 44.7917 15.3826 44.2301L15.5994 45.5308C15.5994 45.5308 14.0425 45.9348 14.0425 47.4622C14.0425 48.9895 15.3629 48.9895 15.3629 48.9895H19.2454C19.2454 48.9895 18.6049 48.1913 18.7625 47.2848C18.9202 46.3782 19.8464 45.7673 19.8464 45.7673L19.2158 43.6585Z" fill="#177D6D"/>
<path d="M14.8311 40.3382L14.9197 41.2251C14.9197 41.2251 15.7081 40.4564 16.5062 41.2251C16.5062 41.2251 16.9595 40.1017 17.8267 41.1364C17.8267 41.1364 18.0533 40.6929 18.7234 40.6732L18.6741 40.1608C18.6839 40.1608 18.1912 39.6484 14.8311 40.3382Z" fill="#177D6D"/>
<path d="M18.8607 2.80453C13.372 -0.466971 8.66184 0.252366 12.2191 8.78587" stroke="black" stroke-width="0.5" stroke-miterlimit="10"/>
<path d="M15.6289 3.63235C12.6037 2.11485 11.6873 2.75536 12.9191 6.54912" stroke="black" stroke-width="0.5" stroke-miterlimit="10"/>
<path d="M15.097 9.67264C15.4517 9.98796 15.6685 10.4511 15.6685 10.9635C15.6685 11.9193 14.8901 12.6978 13.9342 12.6978C12.9784 12.6978 12.2 11.9193 12.2 10.9635C12.2 10.0865 12.8503 9.35731 13.6977 9.24892" stroke="black" stroke-width="0.5" stroke-miterlimit="10"/>
<path d="M16.3098 8.7171C15.9945 10.5401 13.1762 10.1656 12.7722 8.56929L12.8215 8.52002C13.5507 8.67768 14.0434 9.05213 14.6543 9.34775C15.2653 9.5941 15.9452 9.31819 16.2408 8.69739L16.3098 8.7171Z" fill="black"/>
<path d="M17.4911 11.2888C15.5499 11.0129 16.3579 12.3629 17.3236 12.5009" stroke="black" stroke-width="0.5" stroke-miterlimit="10"/>
<path d="M14.6332 12.9342C14.6627 13.6535 15.1949 14.4419 15.9635 14.1167C16.6237 13.7915 16.9292 13.1411 17.2937 12.4908C17.5007 12.7174 17.2839 13.4269 17.1262 13.7225C16.7321 14.4911 15.4314 14.8951 14.8598 14.1167C14.6726 13.9393 14.4657 12.9835 14.6332 12.9342Z" fill="black"/>
<path d="M17.4912 11.2888C19.4325 11.5647 18.2796 12.6388 17.3237 12.5009" stroke="black" stroke-width="0.5" stroke-miterlimit="10"/>
<path d="M20.409 13.8604C19.0984 16.0776 16.3886 14.9345 17.2952 12.4908L17.3444 12.5006C17.6696 14.7966 18.6255 15.4469 20.409 13.8604Z" fill="black"/>
<path d="M24.8818 13.9394C27.365 13.3679 30.0059 14.0675 32.2821 15.0726C29.7891 14.708 27.4143 14.0478 24.8818 13.9394Z" fill="black"/>
<path d="M24.5469 15.3188C27.0793 15.1021 29.6019 16.1663 31.7107 17.4867C29.2866 16.7772 27.0301 15.782 24.5469 15.3188Z" fill="black"/>
<path d="M24.2314 16.5998C26.7442 16.9742 28.9613 18.5804 30.7153 20.3443C28.5179 19.1027 26.5471 17.6246 24.2314 16.5998Z" fill="black"/>
<path d="M11.3121 12.4419C8.87822 11.7422 6.4246 11.6141 3.94141 11.151C6.4246 10.9244 9.14428 11.1116 11.3121 12.4419Z" fill="black"/>
<path d="M11.194 13.851C8.69108 13.5062 6.23745 13.7229 3.71484 13.6145C6.13891 13.043 8.8586 12.8459 11.194 13.851Z" fill="black"/>
<path d="M11.087 15.1714C8.56442 15.4079 6.22904 16.1765 3.74585 16.6495C5.97284 15.536 8.58413 14.7181 11.087 15.1714Z" fill="black"/>
<path d="M28.8132 5.0413C33.2771 3.31686 34.4497 4.26283 31.6216 9.43615" stroke="black" stroke-width="0.5" stroke-miterlimit="10"/>
<path d="M32.0551 11.5054C35.6616 5.90838 35.3561 2.93249 33.0799 2.22301C33.07 2.26242 33.0799 2.31169 33.07 2.35111C32.9419 2.83395 32.4492 3.11972 31.9664 2.99161C31.8087 2.9522 31.6806 2.85366 31.5722 2.74527C31.3554 3.00147 31.0007 3.12957 30.6558 3.03103C30.508 2.99161 30.3897 2.91278 30.2912 2.8241C30.0843 3.13942 29.7 3.30694 29.3157 3.2084C29.0003 3.11971 28.7836 2.87337 28.6949 2.57775C27.9558 2.80439 27.335 3.26752 26.5369 3.63212" stroke="black" stroke-width="0.5" stroke-miterlimit="10"/>
<path d="M14.1013 5.80981C14.259 5.05106 15.1261 2.5186 17.3531 4.04596" stroke="black" stroke-width="0.5" stroke-miterlimit="10"/>
<path d="M16.7229 3.74077C17.4324 2.86377 17.8857 2.73567 18.5163 2.93275" stroke="black" stroke-width="0.5" stroke-miterlimit="10"/>
<path d="M19.5407 3.35658C19.6983 4.18431 18.7129 5.9186 18.2301 4.82481C17.8458 3.93796 18.6932 1.45477 21.0286 2.84417" stroke="black" stroke-width="0.5" stroke-miterlimit="10"/>
<path d="M18.1615 4.61734C17.6589 4.58778 16.8411 4.97208 16.3779 6.0166" stroke="black" stroke-width="0.5" stroke-miterlimit="10"/>
<path d="M15.6492 4.45042C16.0729 5.27815 16.94 5.17961 16.94 5.17961" stroke="black" stroke-width="0.5" stroke-miterlimit="10"/>
<path d="M20.6151 30.8884C21.2852 31.3219 21.1571 32.8 20.8418 34.0712C20.5264 35.3423 19.4918 36.0321 18.7724 37.3131C18.0531 38.604 15.6192 38.0719 15.6783 36.5445C15.7276 35.0172 16.0823 34.9285 17.3042 32.9478C18.5261 30.9672 19.61 30.238 20.6151 30.8884Z" stroke="black" stroke-width="0.5" stroke-miterlimit="10"/>
<path d="M18.7334 31.1642C20.1327 32.1496 20.5761 32.731 20.8618 33.7755" stroke="black" stroke-width="0.5" stroke-miterlimit="10"/>
<path d="M18.073 31.8535C18.8219 32.3856 20.3394 34.248 20.3591 35.1349" stroke="black" stroke-width="0.5" stroke-miterlimit="10"/>
<path d="M17.5701 32.534C18.2303 33.4307 19.4325 35.0369 19.5704 36.18" stroke="black" stroke-width="0.5" stroke-miterlimit="10"/>
<path d="M16.083 34.8787C17.1965 34.5831 17.6695 34.0411 18.3987 33.6765" stroke="black" stroke-width="0.5" stroke-miterlimit="10"/>
<path d="M15.708 36.032C16.7131 36.0911 18.8317 34.3666 18.8317 34.3666" stroke="black" stroke-width="0.5" stroke-miterlimit="10"/>
<path d="M15.9253 37.3522C17.1669 37.1945 19.1672 35.3223 19.1672 35.3223" stroke="black" stroke-width="0.5" stroke-miterlimit="10"/>
<path d="M29.2269 37.7861C33.6907 39.9343 33.3655 35.6183 33.0896 33.2336C32.8137 30.849 36.6469 29.8537 37.1692 33.6376C37.1889 33.7559 37.1889 33.8643 37.1987 33.9825C37.0509 33.9924 36.9031 34.0219 36.7651 34.1205C36.3907 34.3865 36.302 34.9088 36.5681 35.2832C36.5976 35.3226 36.637 35.3424 36.6666 35.3818C36.6568 35.3916 36.6469 35.3916 36.637 35.3916C36.2626 35.6577 36.1739 36.1799 36.44 36.5544C36.4695 36.5938 36.509 36.6135 36.5385 36.6529C36.4794 36.6726 36.4203 36.6923 36.3611 36.7318C35.9867 36.9978 35.898 37.5201 36.1641 37.8945C36.2527 38.0226 36.3808 38.1113 36.5188 38.1704C35.1688 41.0379 31.9564 42.6146 27.3645 39.8456" stroke="black" stroke-width="0.5" stroke-miterlimit="10" stroke-linecap="round" stroke-linejoin="round"/>
<path d="M20.5366 10.481C20.1819 10.7963 19.9651 11.2595 19.9651 11.7719C19.9651 12.7277 20.7436 13.5062 21.6994 13.5062C22.6552 13.5062 23.4337 12.7277 23.4337 11.7719C23.4337 10.8949 22.7833 10.1657 21.9359 10.0573" stroke="black" stroke-width="0.5" stroke-miterlimit="10"/>
<path d="M19.3932 9.49555C19.6888 10.1163 20.3589 10.3824 20.9797 10.1459C21.6005 9.85029 22.0833 9.47584 22.8125 9.31818L22.8618 9.36745C22.507 10.5499 20.96 11.1214 19.9155 10.4809C19.5804 10.2444 19.3833 9.87985 19.3242 9.52511L19.3932 9.49555Z" fill="black"/>
<path d="M19.9949 12.1264C20.3299 14.4421 21.2266 15.8709 22.0445 15.7822C22.8624 15.6936 23.3945 13.3976 23.424 11.7618" stroke="black" stroke-width="0.5" stroke-miterlimit="10"/>
<path d="M20.3 13.7721C20.8913 13.9101 21.4825 14.117 22.0343 14.255C21.4727 14.2353 20.6055 14.3338 20.3 13.7721Z" fill="black"/>
<path d="M21.4417 14.6884C22.1216 14.8362 22.6143 14.3139 23.107 13.969C23.0478 14.6884 21.9343 14.9938 21.4417 14.6884Z" fill="black"/>
<path d="M13.8656 5.15969C13.8656 5.15969 14.171 7.27829 16.9104 7.08121C20.6352 6.8053 21.0984 2.46957 21.0984 2.46957L21.1575 2.4203C22.133 2.44001 23.1283 2.57797 24.1137 2.84402C31.2578 4.75568 33.9971 11.7717 30.3808 18.0979C26.7644 24.4143 10.0718 20.5515 9.42145 16.7184C8.77109 12.8852 11.5992 12.5501 12.4269 8.0666C12.6338 6.9334 13.1364 5.96772 13.8656 5.15969Z" stroke="black" stroke-width="0.5" stroke-miterlimit="10"/>
<path d="M18.8418 14.9047C18.9501 15.3186 19.8961 17.0036 19.0881 18.4719C18.2702 19.9302 15.5604 19.8415 14.9297 18.4719C14.2794 17.0726 15.3436 14.3628 15.3436 14.3628" stroke="black" stroke-width="0.5" stroke-miterlimit="10"/>
<path d="M14.7322 18.1569C15.7964 17.0828 17.7475 17.3587 17.7475 17.3587" stroke="black" stroke-width="0.5" stroke-miterlimit="10"/>
<path d="M19.4424 16.7183C18.5949 16.5804 17.2351 17.5953 16.9395 18.4723" stroke="black" stroke-width="0.5" stroke-miterlimit="10"/>
<path d="M26.9614 20.6992C29.1884 23.5568 29.0997 26.7396 29.3953 29.3312C29.7895 32.7505 30.5088 37.7563 27.2669 40.5154" stroke="black" stroke-width="0.5" stroke-miterlimit="10" stroke-linecap="round" stroke-linejoin="round"/>
<path d="M23.4233 22.8672C17.2843 23.7442 14.6533 25.0843 11.4212 24.2171C8.86901 23.5274 6.94749 22.8179 7.15443 25.3898" stroke="black" stroke-width="0.5" stroke-miterlimit="10" stroke-linecap="round" stroke-linejoin="round"/>
<path d="M9.56864 24.7688C8.465 24.8279 6.82925 24.9954 6.77012 26.1483C6.711 27.3012 7.27268 28.5625 8.15953 28.5034" stroke="black" stroke-width="0.5" stroke-miterlimit="10" stroke-linecap="round" stroke-linejoin="round"/>
<path d="M9.76584 26.0598C8.53409 26.1485 7.73592 26.4145 7.89359 27.6167C8.1695 29.686 10.5344 30.2181 10.6231 29.3214C10.7118 28.4247 9.39138 27.9911 9.39138 27.9911" stroke="black" stroke-width="0.5" stroke-miterlimit="10" stroke-linecap="round" stroke-linejoin="round"/>
<path d="M10.2678 28.5033C11.2729 28.9861 11.8839 29.3015 12.8003 28.7102C19.4615 30.1292 24.8812 30.3953 26.5268 26.6606" stroke="black" stroke-width="0.5" stroke-miterlimit="10" stroke-linecap="round" stroke-linejoin="round"/>
<path d="M13.3733 28.8288C11.0083 32.4846 10.2693 42.1119 16.9108 40.0623" stroke="black" stroke-width="0.5" stroke-miterlimit="10" stroke-linecap="round" stroke-linejoin="round"/>
<path d="M27.2565 39.1856C27.3058 41.3633 27.0693 45.5808 26.951 46.2804C26.8328 46.9801 27.3452 47.9654 26.951 49.0001C26.951 49.0001 20.211 48.9903 19.5212 48.9903C18.8314 48.9903 18.3781 47.66 18.8807 46.6943C19.6591 45.2162 21.3343 45.3739 22.2212 45.4133" stroke="black" stroke-width="0.5" stroke-miterlimit="10" stroke-linecap="round" stroke-linejoin="round"/>
<path d="M19.5313 48.9999C19.5313 48.9999 15.6488 48.99 15.0576 48.99C14.4664 48.99 13.6879 47.6597 14.1904 46.694C14.8507 45.413 16.6441 45.3736 17.5309 45.413" stroke="black" stroke-width="0.5" stroke-miterlimit="10" stroke-linecap="round" stroke-linejoin="round"/>
<path d="M19.6882 45.8268C19.6882 45.8268 19.1462 43.5506 18.6831 40.1608" stroke="black" stroke-width="0.5" stroke-miterlimit="10" stroke-linecap="round" stroke-linejoin="round"/>
<path d="M15.5898 45.4224C15.5109 45.0184 15.4321 44.5651 15.3533 44.0921C15.3533 44.0921 15.9741 44.6538 16.5062 44.4271C17.0383 44.1906 17.1073 43.9147 17.1073 43.9147C17.1073 43.9147 17.4817 44.4469 17.8956 44.4469C18.3095 44.4469 19.1766 43.6585 19.1766 43.6585" stroke="black" stroke-width="0.5" stroke-miterlimit="10" stroke-linecap="round" stroke-linejoin="round"/>
<path d="M14.8311 40.535C14.8311 40.535 14.8803 40.8897 14.9493 41.4218C14.9493 41.4218 15.1661 40.8798 15.6095 40.8798C16.0529 40.8798 16.5161 41.4218 16.5161 41.4218C16.5161 41.4218 16.6737 40.6926 17.1172 40.6729C17.5606 40.6532 17.9745 41.274 17.9745 41.274C17.9745 41.274 18.1715 40.7123 18.7529 40.6631" stroke="black" stroke-width="0.5" stroke-miterlimit="10" stroke-linecap="round" stroke-linejoin="round"/>
<path d="M14.929 24.4142C16.003 22.7686 17.353 20.9653 17.353 20.9653" stroke="black" stroke-width="0.5" stroke-miterlimit="10" stroke-linecap="round" stroke-linejoin="round"/>
<path d="M16.7227 21.8423C13.4019 22.6602 5.6666 22.1281 5.6666 22.1281C5.6666 22.1281 1.7743 20.7584 0.749494 23.1627C-0.275315 25.5671 2.18817 24.4339 2.18817 24.4339C2.18817 24.4339 1.58708 26.247 2.42466 26.4737C3.05531 26.651 3.67611 25.5868 3.67611 25.5868C3.67611 25.5868 3.21297 27.4295 3.95202 27.7054C4.69106 27.9813 5.06551 26.2864 5.06551 26.2864C5.06551 26.2864 5.99179 26.8481 6.7801 26.1386" stroke="black" stroke-width="0.5" stroke-miterlimit="10" stroke-linecap="round" stroke-linejoin="round"/>
<path d="M4.45495 22.6605C2.00132 23.4389 3.47941 25.9517 5.43049 23.4389" stroke="black" stroke-width="0.5" stroke-miterlimit="10" stroke-linecap="round" stroke-linejoin="round"/>
<path d="M15.3533 40.9788L15.8361 44.3882" stroke="black" stroke-width="0.5" stroke-miterlimit="10" stroke-linecap="round" stroke-linejoin="round"/>
<path d="M17.1162 43.915C17.1162 43.915 16.7024 42.7818 16.5151 41.422" stroke="black" stroke-width="0.5" stroke-miterlimit="10" stroke-linecap="round" stroke-linejoin="round"/>
<path d="M17.4817 40.7815C17.462 41.5008 18.7528 44.0136 18.7528 44.0136" stroke="black" stroke-width="0.5" stroke-miterlimit="10" stroke-linecap="round" stroke-linejoin="round"/>
</svg>
