<svg width="178" height="60" viewBox="0 0 178 60" fill="none" xmlns="http://www.w3.org/2000/svg">
<g clip-path="url(#clip0_401_15884)">
<path d="M17.9287 22.1352L12.0764 0H7.94296L17.9287 37.7691V52.1831L4.13341 0H0L15.862 60H17.9287H19.9941H22.0608V0H17.9287V22.1352Z" fill="black"/>
<path d="M91.4937 60L75.6318 0H73.5651H71.4983H69.4316V59.9987H73.5651L84.4745 49.0843L87.3603 59.9987H91.4937V60ZM80.8073 35.2084L73.5663 42.4494V7.81694L80.8073 35.2084ZM73.5651 54.1502V48.2941L82.0285 39.8307L83.2534 44.4619L73.5651 54.1502Z" fill="black"/>
<path d="M30.7692 0H28.7024H26.6357V59.9987H30.7692L41.6786 49.0843L44.5644 59.9987H48.6978L32.8346 0H30.7692ZM38.0102 35.2083L30.7692 42.4494V7.81694L38.0102 35.2083ZM30.7692 54.1502V48.2941L39.2326 39.8307L40.4575 44.4619L30.7692 54.1502Z" fill="black"/>
<path d="M65.857 37.0722L56.0566 0H53.9899H51.9232H49.8564V59.9987H53.9899V48.8725L57.7868 45.0756L61.7324 59.9987L65.857 59.9685L61.0557 41.8067L62.5742 40.2882L65.857 37.0722ZM53.9899 43.0278V7.81694L61.3519 35.6658L53.9899 43.0278Z" fill="black"/>
</g>
<path d="M119.875 19.262L102 1V59.9299H105.875V41.7138L123.75 60V1H119.875V19.262ZM105.875 36.1468V10.4838L119.875 24.8218V50.4848L105.875 36.1468Z" fill="#00FFC4"/>
<path d="M129.55 60H133.38V47.3009L149.849 30.5048V24.9802L133.38 41.7763V35.8289L149.849 19.1174V13.5059L133.38 30.3019V4.90611H149.849V1H129.55V60Z" fill="#00FFC4"/>
<path d="M178 1H155.649V4.91992H178V1Z" fill="#00FFC4"/>
<path d="M155.649 13.6906L165.853 23.3559V60H169.707V21.6517L160.458 12.8906H178V8.97072H155.649V13.6906Z" fill="#00FFC4"/>
<defs>
<clipPath id="clip0_401_15884">
<rect width="91.6667" height="60" fill="white"/>
</clipPath>
</defs>
</svg>
