<svg width="16" height="16" viewBox="0 0 16 16" fill="none" xmlns="http://www.w3.org/2000/svg">
<path fill-rule="evenodd" clip-rule="evenodd" d="M6.66634 1.3335H13.333C14.1012 1.3335 14.6663 1.89864 14.6663 2.66683V9.3335C14.6663 10.1017 14.1012 10.6668 13.333 10.6668H10.6663V13.3335C10.6663 14.1017 10.1012 14.6668 9.33301 14.6668H2.66634C1.89815 14.6668 1.33301 14.1017 1.33301 13.3335V6.66683C1.33301 5.89864 1.89815 5.3335 2.66634 5.3335H5.33301V2.66683C5.33301 1.89864 5.89815 1.3335 6.66634 1.3335ZM5.33301 6.66683H2.66634V13.3335H9.33301V10.6668H6.66634C5.89815 10.6668 5.33301 10.1017 5.33301 9.3335V6.66683ZM6.66634 2.66683V9.3335H13.333V2.66683H6.66634Z" fill="#0ED3A3"/>
</svg>
