<svg width="360" height="361" viewBox="0 0 360 361" fill="none" xmlns="http://www.w3.org/2000/svg">
<path d="M182.776 239.17L182.776 239.17L181.707 239.166L181.774 240.233L182.358 249.425L182.411 250.264L183.246 250.356L183.356 249.362C183.246 250.356 183.247 250.356 183.247 250.356L183.248 250.356L183.252 250.357L183.266 250.358L183.316 250.363C183.359 250.368 183.421 250.374 183.503 250.381C183.665 250.395 183.903 250.415 184.21 250.436C184.825 250.478 185.719 250.524 186.845 250.545C189.096 250.587 192.281 250.527 196.034 250.117C203.531 249.3 213.34 247.087 222.483 241.478C230.003 236.875 235.484 230.224 240.646 221.926C243.943 216.626 247.147 210.588 250.673 203.942C252.644 200.226 254.716 196.32 256.962 192.247L256.962 192.246C258.243 189.918 262.157 184.981 267.576 181.902C272.934 178.857 279.679 177.656 286.899 182.518C292.393 186.217 294.956 192.036 295.984 197.965L295.984 197.966C296.324 199.913 297.981 200.767 299.458 200.644C300.937 200.521 302.427 199.4 302.415 197.419L301.415 197.425L302.415 197.419C302.346 186.691 297.539 177.715 290.27 172.545C282.987 167.366 273.295 166.057 263.622 170.558C252.244 175.85 245.708 187.034 239.897 198.347C239.182 199.74 238.478 201.135 237.777 202.523C235.609 206.817 233.472 211.049 231.126 214.981C228.029 220.173 224.616 224.752 220.399 228.134C213.521 233.648 204.155 236.424 196.418 237.81C192.564 238.501 189.146 238.841 186.692 239.008C185.466 239.092 184.482 239.132 183.807 239.152C183.469 239.161 183.209 239.166 183.035 239.168C182.947 239.169 182.881 239.17 182.838 239.17L182.79 239.17L182.778 239.17L182.776 239.17L182.776 239.17Z" fill="#74698B" stroke="#242424" stroke-width="2"/>
<g opacity="0.3">
<path d="M256.081 191.774C243.489 214.612 236.621 231.652 221.961 240.626C203.993 251.641 183.346 249.357 183.346 249.357L183.063 244.747C188.011 245.028 205.097 245.207 220.252 235.912C234.903 226.932 241.771 209.892 254.368 187.045C257.096 182.105 270.535 166.716 285.74 176.969C290.622 180.258 293.269 185.105 294.614 190.192C293.069 186.909 290.775 183.938 287.443 181.692C272.238 171.44 258.8 186.829 256.081 191.774Z" fill="#242424"/>
</g>
<g opacity="0.3">
<path d="M296.969 197.794C296.784 196.721 296.546 195.655 296.255 194.595C297.583 195.423 299.72 194.701 299.711 192.701C299.69 189.717 299.299 186.878 298.576 184.231C300.362 188.123 301.39 192.581 301.415 197.425C301.427 200.169 297.431 200.488 296.969 197.794Z" fill="#242424"/>
<path d="M297.87 199.577C297.304 199.25 296.853 198.681 296.698 197.835C296.505 196.733 296.267 195.667 295.991 194.665L295.806 194.001L296.389 194.362C297.009 194.745 297.853 194.762 298.5 194.392C299.107 194.049 299.441 193.449 299.438 192.704C299.416 189.806 299.038 186.987 298.312 184.301L298.813 184.12C300.685 188.186 301.649 192.668 301.674 197.426C301.685 198.993 300.502 199.821 299.406 199.919C298.899 199.961 298.344 199.851 297.87 199.577ZM297.232 197.747C297.445 198.985 298.458 199.459 299.371 199.379C300.259 199.297 301.157 198.664 301.155 197.424C301.138 193.896 300.591 190.534 299.534 187.372C299.818 189.109 299.965 190.891 299.985 192.699C299.986 193.64 299.554 194.431 298.774 194.86C298.133 195.221 297.351 195.289 296.673 195.071C296.88 195.934 297.066 196.834 297.232 197.747Z" fill="#242424"/>
</g>
<g opacity="0.3">
<path d="M296.249 194.604C295.763 194.311 295.39 193.798 295.261 193.08C295.089 192.113 294.878 191.149 294.629 190.188C295.307 191.607 295.837 193.09 296.249 194.604Z" fill="#74698B"/>
<path d="M296.672 195.158L296.117 194.812C295.704 194.562 295.168 194.054 295.009 193.108C294.843 192.132 294.632 191.168 294.385 190.245L294.871 190.068C295.523 191.447 296.075 192.955 296.509 194.519L296.672 195.158ZM295.536 193.139C295.575 193.286 295.614 193.432 295.679 193.556C295.625 193.414 295.58 193.276 295.536 193.139Z" fill="#242424"/>
</g>
<path d="M120.114 226.96C119.998 232.838 119.467 239.71 116.535 242.251C116.374 242.401 116.178 242.482 115.981 242.516C115.497 242.609 114.966 242.366 114.723 241.881L114.7 241.835L112.103 236.707C111.884 236.268 111.457 236.037 111.018 236.037C110.764 236.037 110.51 236.118 110.291 236.28C109.714 236.696 109.379 237.366 109.379 238.07V248.441C109.379 249.319 108.802 250.116 107.96 250.347C105.109 251.109 101.796 247.24 100.307 242.366C95.2862 240.507 94.1897 235.148 94.963 228.138L94.9861 228.011L95.1361 226.821L95.1939 226.394H117.713L120.114 226.96Z" fill="#FFBD99"/>
<path d="M107.186 252.148C103.666 252.148 100.515 248.175 98.9105 243.625C91.3388 240.126 92.5276 229.639 94.4667 220.804C94.5706 220.354 94.8476 219.949 95.24 219.707C95.6325 219.464 96.1173 219.384 96.5674 219.487L120.518 225.262C121.302 225.447 121.856 226.163 121.845 226.983C121.729 233.497 121.129 240.553 117.667 243.556C116.986 244.145 116.097 244.376 115.22 244.203C114.331 244.029 113.592 243.463 113.188 242.655L111.134 238.59V248.418C111.134 250.093 110.026 251.571 108.433 251.998C108.006 252.102 107.602 252.148 107.186 252.148ZM97.4908 223.276C95.4363 233.67 96.5097 239.075 100.919 240.715C101.427 240.9 101.819 241.315 101.969 241.835C103.32 246.224 106.009 249.042 107.521 248.649C107.59 248.626 107.659 248.533 107.659 248.418V238.058C107.659 236.8 108.26 235.61 109.275 234.859C109.979 234.351 110.868 234.166 111.711 234.374C112.553 234.582 113.269 235.137 113.661 235.91L115.924 240.38C117.886 237.827 118.255 231.683 118.359 228.311L97.4908 223.276Z" fill="#242424"/>
<path d="M101.519 248.603C99.049 244.491 99.0143 239.733 99.4299 235.229C99.4645 234.859 99.7877 234.582 100.169 234.617C100.503 234.651 100.757 234.917 100.78 235.24C101.057 239.213 101.761 243.579 104.347 246.593C105.917 248.568 102.881 250.739 101.519 248.603Z" fill="#242424"/>
<path d="M126.6 126.737L125.077 228.877C113.558 229.951 102.835 229.835 94.5821 226.024C93.601 225.574 93.0239 224.546 93.1047 223.483L93.878 213.401L93.9819 212.027C89.1342 210.791 93.7511 160.679 111.041 137.708C115.416 131.922 120.587 127.845 126.6 126.737Z" fill="#3080ED"/>
<g opacity="0.6">
<path d="M98.4026 226.036C97.4215 225.585 96.8444 224.558 96.9252 223.495L97.6985 213.413C97.9063 213.286 98.114 213.147 98.3218 213.02C97.9178 212.57 97.3407 211.865 96.8098 210.93C94.4551 206.795 95.1823 202.349 95.5055 200.224C97.9063 184.863 94.4898 196.135 97.9409 181.214C100.953 168.198 102.454 161.696 105.351 153.565C111.157 137.281 115.162 133.424 118.532 131.218C121.602 129.22 124.592 128.319 126.577 127.88L126.589 126.725C120.564 127.845 115.404 131.911 111.041 137.697C93.7626 160.679 89.1457 210.803 93.9935 212.027L93.8896 213.401L93.1162 223.483C93.0354 224.558 93.6126 225.574 94.5936 226.024C100.573 228.785 107.856 229.605 115.797 229.431C109.333 229.293 103.412 228.346 98.4026 226.036Z" fill="white"/>
</g>
<path d="M113.927 231.21C107.036 231.21 99.8915 230.39 93.8665 227.607C92.2506 226.856 91.258 225.147 91.3965 223.356L92.2044 212.87C91.0733 211.588 90.2422 208.527 90.4962 200.986C90.8309 190.765 93.3586 173.014 99.3721 156.626C104.151 143.598 112.692 127.557 126.289 125.027C126.796 124.935 127.327 125.074 127.72 125.409C128.112 125.743 128.343 126.24 128.332 126.76L126.808 228.912C126.796 229.801 126.115 230.528 125.238 230.609C121.729 230.933 117.874 231.21 113.927 231.21ZM94.7437 210.456C95.3785 210.756 95.7825 211.426 95.7248 212.154L94.8476 223.611C94.8245 223.969 95.0092 224.303 95.3208 224.442C101.865 227.468 110.568 228.346 123.38 227.283L124.846 128.966C114.054 132.419 106.863 146.301 102.662 157.7C98.9566 167.759 96.048 180.186 94.686 191.793C93.2894 203.688 94.0858 209.37 94.7437 210.456Z" fill="#242424"/>
<path d="M93.9358 204.693C94.3859 208.966 94.1551 212.131 99.1644 213.078C99.8569 213.205 99.8916 214.221 99.2106 214.394C92.8508 216.092 90.4039 210.179 90.4616 204.878C90.4962 202.672 93.6818 202.522 93.9358 204.693Z" fill="#242424"/>
<path d="M104.197 214.879C110.187 215.965 116.166 216.716 122.249 216.704C125.885 216.739 129.497 216.531 133.133 216.277C134.091 216.208 134.922 216.924 134.991 217.871C135.061 218.818 134.357 219.638 133.422 219.73C128.435 220.169 123.392 220.169 118.417 219.649C115.924 219.372 113.431 218.991 110.984 218.402C108.537 217.813 106.147 217.004 103.885 215.919C103.296 215.653 103.574 214.764 104.197 214.879Z" fill="#242424"/>
<path d="M100.319 229.466C100.284 229.466 100.261 229.466 100.226 229.466C99.4299 229.42 98.8297 228.727 98.8758 227.93L99.4183 219.499C99.4645 218.702 100.157 218.102 100.953 218.148C101.75 218.194 102.35 218.887 102.304 219.684L101.761 228.115C101.704 228.877 101.069 229.466 100.319 229.466Z" fill="#242424"/>
<path d="M106.321 229.974C106.286 229.974 106.263 229.974 106.228 229.974C105.432 229.928 104.832 229.235 104.878 228.438L105.42 220.007C105.466 219.21 106.159 218.61 106.955 218.656C107.752 218.702 108.352 219.395 108.306 220.192L107.763 228.623C107.706 229.385 107.071 229.974 106.321 229.974Z" fill="#242424"/>
<path d="M112.669 229.974C112.634 229.974 112.611 229.974 112.576 229.974C111.78 229.928 111.18 229.235 111.226 228.438L111.768 220.007C111.815 219.21 112.507 218.61 113.304 218.656C114.1 218.702 114.7 219.395 114.654 220.192L114.112 228.623C114.065 229.385 113.431 229.974 112.669 229.974Z" fill="#242424"/>
<g opacity="0.2">
<path d="M120.114 226.96C119.998 232.838 119.467 239.71 116.535 242.251C116.374 242.401 116.178 242.482 115.981 242.516C115.543 242.285 115.127 242.066 114.7 241.835L112.103 236.707C111.884 236.268 111.457 236.037 111.018 236.037C110.764 236.037 110.51 236.118 110.291 236.28C109.714 236.696 109.379 237.366 109.379 238.07V238.821C103.966 235.541 99.1759 231.972 94.9515 228.126L94.9746 227.999L95.1246 226.81L95.1823 226.382H117.701L120.114 226.96Z" fill="#242424"/>
</g>
<path d="M292.497 142.488C292.497 142.488 290.891 170.602 269.528 177.804C267.792 178.39 265.937 178.837 263.927 179.112C256.179 180.205 250.423 177.589 246.541 174.586C242.383 171.376 240.382 167.727 240.382 167.727L237.229 154.664L233.604 139.596L231.946 132.738C231.946 132.738 240.742 141.412 249.917 144.174C253.138 145.147 256.419 145.388 259.374 144.269C263.257 142.798 266.59 138.968 268.548 131.352L292.497 142.488Z" fill="#F8C099"/>
<path d="M269.528 177.796C267.792 178.381 265.937 178.829 263.936 179.104C256.187 180.197 250.432 177.581 246.549 174.577C242.392 171.368 240.39 167.719 240.39 167.719L237.229 154.664L233.604 139.596L231.946 132.738C231.946 132.738 240.742 141.412 249.917 144.174C253.138 145.147 256.419 145.388 259.374 144.269C258.833 147.651 257.252 159.466 259.864 167.59C262.08 174.517 264.434 177.374 269.528 177.796Z" fill="#3080ED"/>
<g opacity="0.25">
<path d="M263.936 180.05C247.889 182.314 240.382 168.657 240.382 168.657C239.935 166.669 242.263 165.223 243.826 166.54C247.7 169.81 253.731 172.925 262.063 171.755C280.918 169.096 291.458 150.198 272.577 140.784L292.489 143.417C292.489 143.417 290.625 176.281 263.936 180.05Z" fill="#242424"/>
</g>
<path d="M260.431 180.902C246.051 180.902 239.11 168.605 239.033 168.468C238.621 167.719 238.896 166.781 239.643 166.368C240.39 165.955 241.327 166.23 241.739 166.979C242.022 167.495 248.963 179.655 263.721 177.581C274.201 176.101 281.957 169.801 286.776 158.847C289.68 152.263 290.599 145.87 290.865 143.434L269.545 133.521C267.397 140.465 263.807 144.691 258.833 146.068C246.824 149.406 231.508 134.476 230.864 133.839C230.254 133.237 230.245 132.264 230.847 131.653C231.448 131.042 232.419 131.034 233.029 131.636C233.175 131.783 247.718 145.947 258.017 143.081C262.252 141.903 265.293 137.824 267.062 130.965L267.526 129.166L294.095 141.524L294.035 142.574C294.018 142.918 293.502 151.171 289.637 160.008C284.431 171.893 275.618 179.026 264.15 180.644C262.853 180.825 261.616 180.902 260.431 180.902Z" fill="#242424"/>
<path d="M269.287 178.872C266.564 178.872 264.236 177.934 262.346 176.066C254.246 168.037 257.742 144.992 257.888 144.011C258.017 143.168 258.807 142.591 259.649 142.72C260.491 142.849 261.066 143.641 260.938 144.484C259.967 150.706 258.721 168.123 264.52 173.863C266.178 175.498 268.291 176.083 270.988 175.627C271.821 175.49 272.62 176.058 272.766 176.901C272.904 177.744 272.337 178.536 271.495 178.682C270.739 178.803 270 178.872 269.287 178.872Z" fill="#242424"/>
<path d="M266.109 131.542C268.6 146.834 283.83 146.567 288.065 145.861C296.904 144.398 300.495 136.421 300.495 136.421L294.181 126.619L291.441 121.37L287.808 119.967C285.291 114.417 279.518 107.894 275.781 109.761C275.781 109.761 263.962 118.358 266.109 131.542Z" fill="#F8C099"/>
<g opacity="0.25">
<path d="M302.153 132.609C301.801 137.29 295.367 141.076 282.31 138.546C277.714 137.66 274.132 134.115 274.484 129.442C274.837 124.761 278.908 121.25 283.573 121.602C288.246 121.947 302.505 127.927 302.153 132.609Z" fill="#242424"/>
</g>
<path d="M302.823 116.491C299.103 119.709 295.882 122.041 295.882 122.041L285.437 131.266L280.085 114.752C280.085 114.752 280.291 111.517 280.858 107.257C281.983 98.8151 284.526 86.363 289.732 87.0773C299.086 88.3681 291.012 112.704 291.012 112.704C291.012 112.704 307.53 93.7895 313.114 99.9338C316.378 103.531 308.922 111.198 302.823 116.491Z" fill="#F8C099"/>
<g opacity="0.25">
<path d="M302.823 117.429C299.103 120.647 295.882 122.979 295.882 122.979L285.437 132.204L280.085 115.69C280.085 115.69 280.291 112.455 280.858 108.195C283.229 110.381 287.661 114.357 289.139 116.637C291.69 120.561 299.078 116.405 302.823 117.429Z" fill="#242424"/>
</g>
<path d="M285.428 132.815C285.291 132.815 285.153 132.798 285.024 132.764C284.526 132.626 284.122 132.247 283.968 131.748L278.616 115.226C278.556 115.036 278.53 114.847 278.547 114.649C278.693 112.308 280.171 91.6123 286.184 86.69C287.318 85.7606 288.615 85.3648 289.946 85.5455C291.776 85.7951 293.262 86.7675 294.25 88.3595C296.939 92.6966 295.607 101.242 294.19 107.128C298.545 102.86 305.228 97.2059 310.142 97.1629C310.167 97.1629 310.185 97.1629 310.21 97.1629C311.825 97.1629 313.225 97.7652 314.256 98.8926C315.167 99.8994 315.571 101.199 315.425 102.662C314.669 110.054 298.94 121.731 296.853 123.246L286.459 132.419C286.167 132.678 285.806 132.815 285.428 132.815ZM281.64 114.554L286.175 128.556L294.86 120.888C294.894 120.854 294.937 120.828 294.972 120.793C301.44 116.095 311.877 106.939 312.349 102.352C312.427 101.595 312.186 101.225 311.971 100.984C311.516 100.485 310.941 100.261 310.167 100.261C305.013 100.312 295.435 110.002 292.171 113.737C291.69 114.288 290.883 114.425 290.247 114.064C289.611 113.703 289.319 112.937 289.551 112.24C291.089 107.601 294.456 94.5726 291.622 90.0117C291.115 89.1942 290.445 88.7553 289.517 88.6263C289.216 88.5832 288.752 88.5918 288.125 89.0996C283.985 92.4815 282.061 108.333 281.64 114.554Z" fill="#242424"/>
<path d="M302.402 134.82C299.816 138.4 289.912 139.416 286.493 136.326C283.581 133.693 286.897 130.87 287.833 130.156C287.979 130.044 288.065 129.984 288.065 129.984C288.065 129.984 284.397 128.547 283.976 125.328C283.951 125.122 283.933 124.907 283.942 124.674C283.985 121 293.967 118.573 298.339 119.623C301.612 120.406 302.771 121.852 302.969 123.315C303.184 124.881 302.316 126.464 301.749 127.308C301.491 127.695 301.294 127.919 301.294 127.919C301.294 127.919 304.472 131.955 302.402 134.82Z" fill="#F8C099"/>
<g opacity="0.25">
<path d="M301.758 128.246C299.043 129.39 293.632 131.283 287.833 131.086C287.979 130.974 288.065 130.913 288.065 130.913C288.065 130.913 284.397 129.476 283.976 126.258C287.387 127.282 296.853 129.442 302.969 124.244C303.192 125.81 302.325 127.402 301.758 128.246Z" fill="#242424"/>
</g>
<g opacity="0.25">
<path d="M302.402 135.758C299.816 139.338 289.912 140.354 286.493 137.264C285.067 135.973 285.136 134.631 285.694 133.521C285.849 133.719 286.029 133.917 286.244 134.115C289.654 137.204 299.567 136.189 302.153 132.617C302.419 132.247 302.608 131.86 302.711 131.456C303.192 132.772 303.39 134.399 302.402 135.758Z" fill="#242424"/>
</g>
<path d="M292.936 139.708C289.766 139.708 287.06 138.917 285.462 137.471C283.959 136.111 283.719 134.674 283.796 133.71C283.899 132.325 284.672 131.12 285.454 130.242C284.019 129.184 282.37 127.377 282.404 124.657C282.413 123.762 282.774 122.428 284.432 121.129C287.919 118.401 295.092 117.248 298.708 118.109C301.775 118.84 303.665 120.234 304.318 122.256C305.048 124.494 303.983 126.705 303.192 127.945C304.172 129.58 305.675 132.927 303.665 135.715C302.213 137.72 299 139.166 295.075 139.579C294.344 139.674 293.632 139.708 292.936 139.708ZM295.882 120.914C292.764 120.914 288.426 121.921 286.321 123.564C285.789 123.977 285.488 124.39 285.48 124.683C285.462 127.239 288.606 128.53 288.641 128.538C289.173 128.753 289.543 129.244 289.603 129.812C289.663 130.38 289.405 130.939 288.933 131.258C288.297 131.688 286.948 132.918 286.871 133.925C286.854 134.184 286.906 134.597 287.533 135.165C288.778 136.292 291.682 136.834 294.748 136.507C297.677 136.197 300.254 135.147 301.156 133.9C302.488 132.058 300.117 128.891 300.091 128.865C299.636 128.289 299.653 127.463 300.134 126.903C300.589 126.361 301.809 124.502 301.38 123.203C301.002 122.05 299.327 121.43 297.987 121.112C297.403 120.983 296.69 120.914 295.882 120.914Z" fill="#242424"/>
<path d="M290.943 131.714C289.946 131.714 288.916 131.653 287.868 131.507C287.026 131.395 286.433 130.612 286.545 129.769C286.656 128.926 287.438 128.332 288.28 128.444C294.826 129.321 300.572 126.559 300.632 126.525C301.397 126.146 302.325 126.464 302.694 127.23C303.072 127.996 302.754 128.917 301.99 129.296C301.758 129.416 297.033 131.714 290.943 131.714Z" fill="#242424"/>
<path d="M275.781 109.761C280.738 107.283 289.276 119.571 289.062 124.778C288.898 128.753 283.959 131.714 278.736 126.232C273.445 120.682 267.999 113.66 275.781 109.761Z" fill="#3080ED"/>
<path d="M300.504 136.421C300.504 136.421 296.913 144.39 288.074 145.861C283.83 146.567 268.6 146.834 266.109 131.542C263.962 118.367 275.781 109.77 275.781 109.77C280.738 107.291 289.276 119.58 289.062 124.786C288.898 128.762 282.842 130.569 278.436 123.22C278.436 123.22 280.558 129.752 274.691 133.667L276.787 137.772L287.198 142.187L297.222 140.999L300.504 136.421Z" fill="#F8C099"/>
<path d="M277.499 130.819L277.25 130.647C277.457 130.509 277.646 130.371 277.834 130.225C277.731 130.423 277.628 130.621 277.499 130.819Z" fill="#3080ED"/>
<g opacity="0.25">
<path d="M278.736 122.988C278.23 120.372 285.093 127.445 289.044 126.06C288.624 129.27 284.243 130.819 280.308 126.645C280.205 124.571 278.736 122.988 278.736 122.988Z" fill="#242424"/>
</g>
<g opacity="0.25">
<path d="M295.53 141.188L297.222 140.99C295.212 143.047 292.223 145.173 288.065 145.861C283.822 146.567 268.592 146.825 266.1 131.533C264.64 122.566 269.648 115.716 272.998 112.257C270.198 116.069 267.544 121.68 268.66 128.521C271.547 146.248 285.986 143.615 290.625 142.849C292.489 142.539 294.121 141.946 295.53 141.188Z" fill="#242424"/>
</g>
<path d="M300.495 136.43C300.461 136.507 300.177 137.118 299.602 137.996L299.344 138.03L300.495 136.43Z" fill="#3080ED"/>
<path d="M299.782 137.979C299.636 138.133 299.481 138.288 299.318 138.435C299.421 138.28 299.516 138.133 299.61 137.996L299.782 137.979Z" fill="#3080ED"/>
<path d="M271.263 142.574C269.897 141.687 268.677 140.517 267.698 139.166C267.2 138.495 266.779 137.772 266.401 137.032C266.023 136.292 265.714 135.517 265.448 134.734C264.408 131.61 264.116 128.203 264.649 124.907C264.906 123.263 265.362 121.654 265.972 120.114C266.59 118.582 267.355 117.11 268.239 115.733C269.124 114.357 270.129 113.066 271.22 111.852C271.77 111.25 272.337 110.665 272.93 110.105C273.23 109.821 273.531 109.546 273.84 109.279C274.158 109.004 274.45 108.754 274.837 108.47L274.879 108.436C274.94 108.393 275 108.359 275.06 108.333C275.326 108.221 275.592 108.1 275.867 108.023C276.151 107.963 276.434 107.877 276.709 107.868C276.984 107.851 277.276 107.825 277.542 107.859C277.809 107.877 278.084 107.902 278.324 107.963C279.329 108.178 280.18 108.591 280.935 109.047C281.7 109.512 282.361 110.037 282.988 110.596C283.616 111.147 284.191 111.74 284.732 112.351C285.815 113.573 286.768 114.873 287.619 116.241C288.46 117.618 289.208 119.055 289.8 120.613C290.092 121.396 290.342 122.205 290.505 123.091C290.539 123.315 290.591 123.53 290.608 123.771C290.634 124.003 290.659 124.236 290.651 124.494V124.864L290.616 125.268C290.582 125.535 290.539 125.802 290.462 126.069C290.178 127.136 289.5 128.108 288.624 128.762C287.739 129.416 286.682 129.769 285.66 129.812C284.629 129.881 283.65 129.657 282.774 129.313C281.889 128.969 281.116 128.469 280.429 127.91C279.046 126.791 278.041 125.406 277.199 123.995L279.827 122.798C279.922 123.16 279.956 123.409 279.999 123.702C280.042 123.986 280.068 124.261 280.085 124.545C280.111 124.821 280.102 125.105 280.111 125.38C280.111 125.656 280.094 125.939 280.085 126.215C280.008 127.325 279.767 128.435 279.346 129.468C279.243 129.726 279.14 129.984 279.003 130.234C278.865 130.475 278.745 130.733 278.599 130.965C278.281 131.421 277.981 131.886 277.594 132.282C277.242 132.712 276.821 133.048 276.417 133.4C276.22 133.59 275.988 133.719 275.764 133.874L275.103 134.313C274.768 134.536 274.321 134.442 274.098 134.106C273.892 133.796 273.952 133.392 274.227 133.159L274.295 133.099L274.819 132.643C274.991 132.488 275.18 132.359 275.318 132.178C275.618 131.843 275.936 131.516 276.177 131.137C276.451 130.784 276.64 130.38 276.847 130.001C276.941 129.803 277.01 129.597 277.087 129.39C277.173 129.192 277.225 128.977 277.276 128.771C277.499 127.936 277.585 127.058 277.542 126.18C277.525 125.965 277.508 125.742 277.482 125.526C277.448 125.311 277.431 125.096 277.379 124.881C277.336 124.666 277.293 124.459 277.233 124.253C277.182 124.063 277.104 123.823 277.061 123.711C276.752 122.979 277.087 122.136 277.817 121.826C278.462 121.551 279.192 121.783 279.57 122.342L279.69 122.515C280.429 123.693 281.305 124.778 282.318 125.561C283.315 126.353 284.475 126.817 285.471 126.731C285.969 126.705 286.407 126.525 286.742 126.266C287.069 126 287.309 125.656 287.412 125.242C287.447 125.139 287.455 125.027 287.473 124.924L287.49 124.752L287.481 124.554C287.49 124.425 287.464 124.279 287.447 124.132C287.438 123.995 287.404 123.831 287.378 123.685C287.258 123.065 287.06 122.42 286.82 121.766C285.806 119.176 284.2 116.654 282.336 114.529C281.863 113.995 281.374 113.496 280.858 113.04C280.343 112.584 279.81 112.162 279.269 111.835C278.728 111.508 278.178 111.259 277.697 111.155C277.207 111.052 276.838 111.086 276.512 111.241L276.735 111.104C276.503 111.276 276.194 111.525 275.927 111.749C275.653 111.981 275.378 112.222 275.111 112.472C274.579 112.971 274.063 113.487 273.565 114.03C272.569 115.105 271.667 116.258 270.868 117.48C270.069 118.702 269.365 119.976 268.815 121.301C268.265 122.635 267.853 124.012 267.604 125.423C267.097 128.237 267.329 131.163 268.068 133.96C268.437 135.354 268.952 136.696 269.64 137.953C270.327 139.218 271.186 140.388 272.199 141.472L272.208 141.481C272.483 141.774 272.466 142.238 272.174 142.514C271.907 142.729 271.538 142.746 271.263 142.574Z" fill="#242424"/>
<path d="M301.826 137.023C301.655 137.436 301.509 137.738 301.328 138.073C301.156 138.4 300.967 138.71 300.77 139.02C300.581 139.33 300.358 139.622 300.143 139.915C299.919 140.207 299.696 140.483 299.464 140.767C298.519 141.877 297.42 142.849 296.226 143.684C295.642 144.123 294.997 144.458 294.37 144.828C293.709 145.13 293.065 145.474 292.377 145.689C291.029 146.214 289.594 146.438 288.194 146.575C287.79 146.61 287.438 146.317 287.404 145.921C287.369 145.577 287.584 145.267 287.902 145.164L287.962 145.147C289.199 144.742 290.402 144.329 291.501 143.693C292.068 143.426 292.575 143.039 293.108 142.72C293.606 142.333 294.113 141.98 294.576 141.55C295.513 140.732 296.363 139.811 297.136 138.839C297.325 138.589 297.506 138.34 297.703 138.099C297.875 137.841 298.064 137.591 298.236 137.342C298.408 137.084 298.579 136.825 298.743 136.567C298.906 136.318 299.078 136.025 299.198 135.836L299.275 135.715C299.696 135.035 300.589 134.82 301.268 135.242C301.861 135.603 302.093 136.369 301.826 137.023Z" fill="#242424"/>
<path opacity="0.5" d="M181.35 347.402C231.553 347.402 272.25 343.272 272.25 338.177C272.25 333.083 231.553 328.952 181.35 328.952C131.147 328.952 90.45 333.083 90.45 338.177C90.45 343.272 131.147 347.402 181.35 347.402Z" fill="black"/>
<path d="M168.314 330.047C168.337 330.925 168.21 331.791 167.887 332.611C166.513 336.087 163.859 338.628 160.292 340.511C159.588 340.88 158.826 341.134 158.041 341.25C146.615 342.913 135.742 342.947 125.4 341.377C123.98 341.157 122.653 340.499 121.672 339.448C119.029 336.642 118.048 332.784 118.855 327.783C119.006 326.883 119.294 326.016 119.698 325.208L120.933 322.713L134.437 295.388L167.644 300.054L168.025 316.419L168.314 330.047Z" fill="#50468F"/>
<path d="M122.768 318.96C118.994 329.885 134.472 335.683 147.215 327.83C148.369 327.114 149.766 326.894 151.104 327.137L155.04 327.853C156.137 328.049 157.21 327.298 157.326 326.19C157.603 323.522 156.356 321.166 153.99 319.052C152.859 318.036 152.062 316.708 151.774 315.218C150.954 310.991 150.493 307.041 151.081 303.958L132.406 298.761L122.768 318.96Z" fill="white"/>
<path d="M140.913 344.252C135.522 344.252 130.259 343.871 125.134 343.086C123.311 342.809 121.637 341.943 120.402 340.638C117.355 337.404 116.258 332.992 117.136 327.506C117.297 326.467 117.632 325.427 118.128 324.434L132.868 294.626C133.202 293.956 133.918 293.575 134.657 293.679L167.864 298.345C168.706 298.46 169.341 299.176 169.353 300.019L170.045 330.024C170.068 331.179 169.884 332.264 169.503 333.258C168.06 336.93 165.232 339.887 161.088 342.058C160.211 342.52 159.265 342.832 158.284 342.97C152.397 343.814 146.591 344.252 140.913 344.252ZM135.419 297.282L121.233 325.97C120.898 326.652 120.668 327.356 120.552 328.049C119.848 332.472 120.621 335.81 122.918 338.247C123.622 338.986 124.592 339.483 125.654 339.644C135.834 341.18 146.649 341.146 157.787 339.517C158.376 339.436 158.953 339.24 159.484 338.963C162.912 337.161 165.128 334.875 166.282 331.964C166.502 331.41 166.606 330.775 166.594 330.082L165.936 301.555L135.419 297.282Z" fill="#242424"/>
<path d="M168.302 329.319C167.91 337.508 117.771 340.106 118.959 327.217C117.921 332.391 118.405 337.219 123.784 340.915C134.98 343.121 146.788 342.97 159.057 341.019C165.394 337.981 168.406 334.066 168.302 329.319Z" fill="white"/>
<path d="M140.89 343.687C134.853 343.687 129.105 343.144 123.553 342.047C123.403 342.012 123.253 341.954 123.126 341.862C116.605 337.381 116.986 331.225 117.828 326.987C117.944 326.386 118.521 325.97 119.132 326.074C119.744 326.167 120.171 326.709 120.114 327.321C119.975 328.777 120.702 330.024 122.341 331.144C130.167 336.503 155.744 335.972 164.759 331.479C166.248 330.74 167.125 329.932 167.16 329.262C167.194 328.65 167.702 328.165 168.314 328.165H168.325C168.949 328.176 169.457 328.673 169.468 329.296C169.584 334.563 166.248 338.847 159.565 342.058C159.461 342.104 159.357 342.139 159.242 342.162C152.801 343.178 146.707 343.687 140.89 343.687ZM124.234 339.829C134.761 341.873 146.037 341.896 158.699 339.91C162.6 338.016 165.128 335.822 166.329 333.269C166.155 333.362 165.971 333.466 165.775 333.558C156.91 337.97 130.074 339.263 121.025 333.061C120.506 332.703 120.067 332.345 119.698 331.976C119.883 335.302 121.349 337.773 124.234 339.829Z" fill="#242424"/>
<path d="M136.723 323.649C135.961 323.649 135.257 323.141 135.049 322.367C134.795 321.443 135.338 320.496 136.261 320.242L153.967 315.426C154.89 315.172 155.837 315.715 156.091 316.639C156.345 317.562 155.802 318.509 154.879 318.764L137.173 323.58C137.034 323.626 136.884 323.649 136.723 323.649Z" fill="#242424"/>
<path d="M137.185 322.771C136.7 322.771 136.215 322.563 135.869 322.171L126.173 310.887C125.55 310.159 125.631 309.062 126.358 308.439C127.085 307.815 128.182 307.896 128.805 308.623L138.5 319.907C139.124 320.635 139.043 321.732 138.316 322.355C137.992 322.632 137.588 322.771 137.185 322.771Z" fill="#242424"/>
<path d="M138.466 317.528C137.992 317.528 137.519 317.331 137.173 316.95L128.066 306.799C127.431 306.083 127.489 304.985 128.193 304.35C128.909 303.715 130.005 303.773 130.64 304.477L139.747 314.629C140.382 315.345 140.324 316.442 139.62 317.077C139.285 317.378 138.87 317.528 138.466 317.528Z" fill="#242424"/>
<path d="M140.197 312.7C139.724 312.7 139.251 312.504 138.904 312.123L130.236 302.41C129.601 301.694 129.659 300.597 130.375 299.962C131.09 299.326 132.187 299.384 132.822 300.1L141.49 309.813C142.125 310.529 142.067 311.626 141.351 312.261C141.017 312.55 140.601 312.7 140.197 312.7Z" fill="#242424"/>
<path d="M137.889 318.509C137.127 318.509 136.423 318.001 136.215 317.228C135.961 316.304 136.504 315.357 137.427 315.102L152.824 310.91C153.748 310.656 154.694 311.199 154.948 312.123C155.202 313.047 154.659 313.994 153.736 314.248L138.339 318.44C138.189 318.486 138.039 318.509 137.889 318.509Z" fill="#242424"/>
<path d="M138.893 313.728C138.131 313.728 137.427 313.22 137.219 312.446C136.965 311.522 137.508 310.575 138.431 310.321L151.797 306.683C152.72 306.429 153.667 306.972 153.921 307.896C154.175 308.82 153.632 309.767 152.709 310.021L139.343 313.659C139.204 313.705 139.054 313.728 138.893 313.728Z" fill="#242424"/>
<path d="M138.812 309.778C138.039 309.778 137.346 309.259 137.138 308.485C136.896 307.561 137.45 306.614 138.373 306.371L153.99 302.271C154.913 302.029 155.86 302.583 156.102 303.507C156.345 304.431 155.791 305.378 154.867 305.621L139.251 309.721C139.101 309.767 138.95 309.778 138.812 309.778Z" fill="#242424"/>
<path d="M167.783 306.88L160.165 310.471C159.519 310.772 159.103 311.418 159.08 312.123C158.907 316.604 159.819 320.196 162.173 322.621C162.878 323.349 163.916 323.637 164.897 323.441L168.152 322.771L167.783 306.88Z" fill="#242424"/>
<path d="M164.263 324.665C163.166 324.665 162.104 324.226 161.331 323.429C158.872 320.9 157.718 317.077 157.914 312.077C157.961 310.933 158.63 309.905 159.669 309.42L167.287 305.829C167.644 305.667 168.06 305.69 168.383 305.886C168.718 306.094 168.926 306.452 168.926 306.845L169.295 322.736C169.307 323.291 168.914 323.787 168.372 323.891L165.117 324.561C164.84 324.642 164.551 324.665 164.263 324.665ZM166.675 308.693L160.661 311.534C160.407 311.649 160.246 311.903 160.234 312.192C160.061 316.592 160.961 319.745 162.993 321.836C163.408 322.263 164.043 322.448 164.655 322.332L166.975 321.859L166.675 308.693Z" fill="#242424"/>
<path d="M134.945 332.622C130.755 332.622 127.074 331.398 124.627 329.435C121.291 326.756 120.206 322.794 121.672 318.579C121.683 318.533 121.706 318.498 121.718 318.463L131.344 298.252C131.587 297.744 132.152 297.49 132.695 297.64L151.37 302.837C151.947 302.999 152.305 303.576 152.189 304.165C151.705 306.672 151.924 310.009 152.882 314.987C153.113 316.2 153.759 317.297 154.74 318.175C157.499 320.646 158.757 323.383 158.457 326.294C158.376 327.137 157.949 327.876 157.256 328.396C156.564 328.915 155.675 329.135 154.809 328.973L150.874 328.257C149.777 328.061 148.692 328.257 147.792 328.8C143.463 331.502 138.974 332.622 134.945 332.622ZM123.842 319.399C122.734 322.667 123.53 325.589 126.081 327.633C130.132 330.89 138.708 331.722 146.603 326.848C147.976 326.005 149.65 325.705 151.301 325.993L155.237 326.709C155.456 326.756 155.698 326.698 155.883 326.559C155.975 326.49 156.137 326.328 156.171 326.063C156.391 323.903 155.421 321.882 153.217 319.907C151.855 318.694 150.966 317.147 150.631 315.437C149.731 310.795 149.465 307.445 149.777 304.801L133.018 300.123L123.842 319.399Z" fill="#242424"/>
<path d="M126.046 250L115.439 257.969L116.374 264.725L129.29 262.877L126.046 250Z" fill="#74698B"/>
<g opacity="0.3">
<path d="M126.046 250L115.439 257.969L116.374 264.725L129.29 262.877L126.046 250Z" fill="#242424"/>
</g>
<path d="M117.817 264.725L119.363 279.866C119.467 280.883 120.287 281.691 121.302 281.772L129.301 282.419L128.424 262.993L117.817 264.725Z" fill="#74698B"/>
<g opacity="0.3">
<path d="M117.817 264.725L119.363 279.866C119.467 280.883 120.287 281.691 121.302 281.772L129.301 282.419L128.424 262.993L117.817 264.725Z" fill="#242424"/>
</g>
<path d="M116.374 266.469C116.005 266.469 115.635 266.354 115.335 266.123C114.966 265.846 114.723 265.43 114.666 264.979L113.731 258.223C113.65 257.6 113.904 256.976 114.412 256.595L125.019 248.626C125.481 248.279 126.092 248.187 126.635 248.383C127.177 248.58 127.593 249.03 127.743 249.596L130.986 262.473C131.102 262.947 131.021 263.455 130.744 263.859C130.467 264.263 130.04 264.541 129.555 264.61L116.628 266.458C116.535 266.458 116.455 266.469 116.374 266.469ZM117.286 258.743L117.84 262.762L127.131 261.434L124.996 252.945L117.286 258.743Z" fill="#242424"/>
<path d="M129.29 284.162C129.243 284.162 129.197 284.162 129.151 284.162L121.152 283.516C119.294 283.366 117.817 281.91 117.632 280.063L116.085 264.922C115.993 264.009 116.628 263.178 117.528 263.039L128.135 261.307C128.62 261.226 129.117 261.365 129.509 261.676C129.901 261.988 130.121 262.45 130.144 262.947L131.021 282.372C131.044 282.869 130.848 283.354 130.49 283.7C130.178 283.989 129.74 284.162 129.29 284.162ZM119.71 266.18L121.083 279.693C121.106 279.878 121.256 280.028 121.441 280.039L127.478 280.536L126.773 265.026L119.71 266.18Z" fill="#242424"/>
<path d="M174.073 251.652L173.716 260.776L172.596 289.036C172.55 290.087 172.123 291.069 171.384 291.808L168.476 294.718C167.933 295.261 167.621 296 167.621 296.774V303.08C156.068 305.967 142.736 304.35 132.395 298.749V292.686C129.809 292.686 127.685 290.642 127.581 288.066L125.481 237.227L174.073 251.652Z" fill="#74698B"/>
<g opacity="0.6">
<path d="M172.054 262.877C171.684 262.889 171.511 266.631 169.941 280.698C169.884 281.252 169.618 283.481 168.753 286.241C168.164 288.112 167.795 289.313 166.987 290.376C165.532 292.281 163.27 292.974 159.842 293.552C156.552 294.106 151.797 294.637 145.841 294.349C154.129 295.862 160.2 295.434 163.789 294.915C165.959 294.603 168.141 294.129 169.826 292.397C172.088 290.087 172.204 286.83 172.25 284.648C172.458 273.768 172.677 262.854 172.054 262.877Z" fill="white"/>
</g>
<path d="M155.837 306.244C147.353 306.244 138.812 304.2 131.575 300.273C131.021 299.973 130.663 299.384 130.663 298.749V294.187C127.974 293.459 125.977 291.057 125.85 288.135L123.749 237.296C123.726 236.742 123.98 236.199 124.419 235.853C124.857 235.506 125.446 235.402 125.977 235.564L174.558 250C175.32 250.231 175.828 250.936 175.793 251.733L174.316 289.105C174.258 290.595 173.646 291.993 172.596 293.044L169.687 295.954C169.468 296.174 169.341 296.474 169.341 296.786V303.091C169.341 303.888 168.799 304.581 168.025 304.778C164.089 305.759 159.969 306.244 155.837 306.244ZM134.126 297.698C143.487 302.468 155.433 303.969 165.89 301.706V296.774C165.89 295.538 166.375 294.372 167.252 293.494L170.161 290.584C170.588 290.156 170.842 289.579 170.865 288.967L172.284 252.934L127.316 239.571L129.313 287.985C129.382 289.648 130.732 290.942 132.395 290.942C133.353 290.942 134.126 291.716 134.126 292.674V297.698Z" fill="#242424"/>
<path d="M129.22 285.71C129.14 290.26 135.672 291.82 139.343 292.801C144.26 293.945 149.385 294.534 154.486 295.065C154.902 295.111 155.202 295.481 155.167 295.896C155.121 296.289 154.786 296.589 154.382 296.578C149.177 296.37 144.006 296.104 138.847 295.25C133.653 294.372 125.931 292.316 125.758 285.722C125.758 283.319 129.232 283.319 129.22 285.71Z" fill="#242424"/>
<g opacity="0.3">
<path d="M141.536 292.385C141.455 293.171 141.663 293.968 142.194 294.545C142.332 294.695 142.54 294.857 142.898 295.03C144.548 295.827 145.703 294.892 146.649 295.527C147.422 296.046 147.007 296.901 147.734 298.044C148.565 299.35 150.066 299.765 151.07 300.054C153.321 300.678 159.334 301.174 167.621 301.29V303.091C156.068 305.979 142.736 304.362 132.395 298.761V292.697C129.809 292.697 127.685 290.653 127.581 288.078L125.481 237.238L174.062 251.675L173.704 260.799C170.461 263.386 166.825 264.171 166.329 264.275C161.931 265.164 160.465 263.871 152.247 264.286C150.227 264.39 148.115 264.737 146.545 266.007C144.191 267.901 143.717 271.227 143.406 274.23L141.536 292.385Z" fill="#242424"/>
</g>
<g opacity="0.3">
<path d="M168.002 316.419C166.802 317.759 165.532 318.729 164.182 319.433C152.801 325.381 139.077 312.874 125.296 319.78C123.588 320.635 122.133 321.662 120.91 322.713L134.414 295.388L167.621 300.054L168.002 316.419Z" fill="#242424"/>
</g>
<path d="M189.413 330.047C189.39 330.925 189.517 331.791 189.84 332.611C191.214 336.087 193.868 338.628 197.435 340.511C198.139 340.88 198.901 341.134 199.686 341.25C211.112 342.913 221.985 342.947 232.327 341.377C233.747 341.157 235.074 340.499 236.055 339.448C238.698 336.642 239.68 332.784 238.872 327.783C238.721 326.883 238.433 326.016 238.029 325.208L236.794 322.713L223.29 295.388L190.083 300.054L189.702 316.419L189.413 330.047Z" fill="#50468F"/>
<path d="M234.97 318.96C238.745 329.885 223.266 335.683 210.524 327.83C209.37 327.114 207.973 326.894 206.634 327.137L202.698 327.853C201.602 328.049 200.528 327.298 200.413 326.19C200.136 323.522 201.382 321.166 203.749 319.052C204.88 318.036 205.676 316.708 205.965 315.218C206.784 310.991 207.246 307.041 206.657 303.958L225.333 298.761L234.97 318.96Z" fill="white"/>
<path d="M216.814 344.252C211.136 344.252 205.33 343.825 199.443 342.959C198.462 342.82 197.516 342.508 196.639 342.047C192.506 339.875 189.679 336.919 188.236 333.246C187.843 332.253 187.659 331.167 187.693 330.012L188.386 300.008C188.409 299.153 189.032 298.449 189.875 298.333L223.082 293.667C223.82 293.563 224.548 293.945 224.871 294.614L239.61 324.423C240.107 325.416 240.441 326.455 240.603 327.495C241.48 332.98 240.384 337.404 237.336 340.626C236.101 341.931 234.428 342.797 232.604 343.074C227.479 343.86 222.205 344.252 216.814 344.252ZM191.802 301.567L191.144 330.093C191.133 330.786 191.237 331.421 191.456 331.976C192.599 334.886 194.826 337.184 198.254 338.974C198.785 339.252 199.363 339.436 199.951 339.529C211.101 341.157 221.904 341.203 232.085 339.656C233.147 339.494 234.116 338.998 234.82 338.258C237.117 335.822 237.89 332.484 237.186 328.061C237.071 327.356 236.852 326.663 236.505 325.97L222.32 297.282L191.802 301.567Z" fill="#242424"/>
<path d="M189.436 329.319C189.829 337.508 239.968 340.106 238.779 327.217C239.818 332.391 239.333 337.219 233.955 340.915C222.759 343.121 210.951 342.97 198.682 341.019C192.345 337.981 189.332 334.066 189.436 329.319Z" fill="white"/>
<path d="M216.849 343.687C211.02 343.687 204.937 343.178 198.497 342.15C198.381 342.127 198.278 342.104 198.174 342.047C191.491 338.847 188.155 334.551 188.27 329.285C188.282 328.661 188.79 328.165 189.413 328.153C190.013 328.118 190.556 328.626 190.579 329.25C190.613 329.92 191.479 330.728 192.98 331.468C201.994 335.949 227.572 336.491 235.397 331.133C237.025 330.012 237.763 328.765 237.625 327.31C237.567 326.698 238.006 326.143 238.606 326.063C239.218 325.97 239.783 326.374 239.91 326.975C240.753 331.213 241.134 337.369 234.612 341.85C234.485 341.943 234.335 342 234.185 342.035C228.634 343.144 222.874 343.687 216.849 343.687ZM199.028 339.898C211.69 341.896 222.966 341.862 233.493 339.818C236.378 337.773 237.844 335.29 238.029 331.964C237.66 332.334 237.221 332.703 236.702 333.05C227.652 339.252 200.817 337.958 191.952 333.546C191.756 333.454 191.583 333.35 191.398 333.258C192.599 335.81 195.126 338.004 199.028 339.898Z" fill="#242424"/>
<path d="M221.004 323.649C220.854 323.649 220.704 323.626 220.542 323.591L202.837 318.775C201.913 318.521 201.371 317.574 201.625 316.65C201.879 315.726 202.825 315.183 203.749 315.437L221.454 320.253C222.378 320.507 222.92 321.454 222.666 322.378C222.47 323.141 221.766 323.649 221.004 323.649Z" fill="#242424"/>
<path d="M220.543 322.771C220.139 322.771 219.746 322.632 219.411 322.355C218.684 321.732 218.603 320.635 219.227 319.907L228.922 308.623C229.545 307.896 230.642 307.815 231.369 308.439C232.096 309.062 232.177 310.159 231.554 310.887L221.858 322.171C221.524 322.563 221.039 322.771 220.543 322.771Z" fill="#242424"/>
<path d="M219.273 317.528C218.857 317.528 218.442 317.378 218.119 317.089C217.403 316.454 217.345 315.357 217.992 314.641L227.098 304.489C227.733 303.773 228.83 303.715 229.545 304.362C230.261 304.997 230.319 306.094 229.672 306.81L220.566 316.962C220.219 317.331 219.746 317.528 219.273 317.528Z" fill="#242424"/>
<path d="M217.542 312.7C217.126 312.7 216.722 312.55 216.387 312.261C215.672 311.626 215.614 310.529 216.249 309.813L224.917 300.1C225.552 299.384 226.648 299.326 227.364 299.962C228.08 300.597 228.137 301.694 227.502 302.41L218.834 312.123C218.488 312.504 218.015 312.7 217.542 312.7Z" fill="#242424"/>
<path d="M219.85 318.509C219.7 318.509 219.55 318.486 219.388 318.452L203.991 314.259C203.068 314.005 202.525 313.058 202.779 312.134C203.033 311.21 203.979 310.668 204.903 310.922L220.3 315.114C221.223 315.368 221.766 316.315 221.512 317.239C221.316 318.001 220.612 318.509 219.85 318.509Z" fill="#242424"/>
<path d="M218.834 313.728C218.684 313.728 218.534 313.705 218.384 313.67L205.018 310.032C204.095 309.778 203.552 308.831 203.806 307.907C204.06 306.983 205.007 306.441 205.93 306.695L219.296 310.333C220.219 310.587 220.762 311.534 220.508 312.458C220.3 313.22 219.596 313.728 218.834 313.728Z" fill="#242424"/>
<path d="M218.927 309.778C218.777 309.778 218.638 309.755 218.488 309.721L202.871 305.632C201.948 305.39 201.394 304.443 201.636 303.519C201.879 302.595 202.825 302.04 203.749 302.283L219.365 306.383C220.289 306.625 220.843 307.572 220.6 308.496C220.392 309.259 219.688 309.778 218.927 309.778Z" fill="#242424"/>
<path d="M189.944 306.88L197.562 310.471C198.208 310.772 198.624 311.418 198.647 312.123C198.82 316.604 197.908 320.196 195.554 322.621C194.85 323.349 193.811 323.637 192.83 323.441L189.575 322.771L189.944 306.88Z" fill="#242424"/>
<path d="M193.464 324.665C193.176 324.665 192.899 324.642 192.61 324.573L189.355 323.903C188.813 323.787 188.42 323.302 188.432 322.748L188.801 306.856C188.813 306.464 189.021 306.106 189.344 305.898C189.679 305.69 190.094 305.667 190.44 305.84L198.058 309.432C199.097 309.917 199.766 310.933 199.813 312.088C200.009 317.089 198.855 320.912 196.396 323.441C195.623 324.238 194.572 324.665 193.464 324.665ZM190.764 321.836L193.084 322.309C193.695 322.436 194.33 322.251 194.746 321.813C196.777 319.722 197.677 316.569 197.504 312.169C197.493 311.88 197.331 311.638 197.077 311.511L191.064 308.67L190.764 321.836Z" fill="#242424"/>
<path d="M222.782 332.622C218.765 332.622 214.264 331.502 209.912 328.811C209.023 328.257 207.927 328.072 206.83 328.268L202.894 328.985C202.04 329.135 201.152 328.927 200.447 328.407C199.766 327.887 199.339 327.148 199.247 326.305C198.947 323.395 200.194 320.669 202.964 318.186C203.945 317.308 204.58 316.211 204.822 314.999C205.78 310.021 205.999 306.683 205.514 304.177C205.399 303.588 205.757 303.011 206.334 302.849L225.009 297.652C225.552 297.502 226.117 297.756 226.36 298.264L235.986 318.475C236.009 318.509 236.021 318.556 236.032 318.59C237.486 322.806 236.413 326.767 233.077 329.446C230.653 331.398 226.983 332.622 222.782 332.622ZM207.673 325.878C208.896 325.878 210.097 326.201 211.124 326.836C219.019 331.71 227.595 330.879 231.646 327.622C234.197 325.578 234.993 322.644 233.885 319.387L224.698 300.123L207.95 304.789C208.262 307.445 207.996 310.795 207.096 315.426C206.761 317.135 205.872 318.683 204.51 319.895C202.294 321.882 201.325 323.891 201.556 326.051C201.579 326.317 201.74 326.467 201.844 326.548C202.029 326.686 202.26 326.744 202.49 326.698L206.426 325.982C206.842 325.924 207.257 325.878 207.673 325.878Z" fill="#242424"/>
<path d="M231.692 250L242.3 257.969L241.365 264.725L228.437 262.877L231.692 250Z" fill="#74698B"/>
<g opacity="0.3">
<path d="M231.692 250L242.3 257.969L241.365 264.725L228.437 262.877L231.692 250Z" fill="#242424"/>
</g>
<path d="M239.922 264.725L238.375 279.866C238.271 280.883 237.452 281.691 236.436 281.772L228.437 282.419L229.315 262.993L239.922 264.725Z" fill="#74698B"/>
<g opacity="0.3">
<path d="M239.922 264.725L238.375 279.866C238.271 280.883 237.452 281.691 236.436 281.772L228.437 282.419L229.315 262.993L239.922 264.725Z" fill="#242424"/>
</g>
<path d="M241.365 266.469C241.284 266.469 241.203 266.469 241.122 266.446L228.207 264.598C227.722 264.529 227.283 264.252 227.018 263.848C226.741 263.443 226.66 262.935 226.775 262.462L230.019 249.584C230.157 249.019 230.573 248.568 231.127 248.372C231.669 248.175 232.281 248.268 232.743 248.614L243.35 256.583C243.858 256.964 244.112 257.588 244.031 258.212L243.096 264.968C243.038 265.43 242.784 265.834 242.427 266.111C242.103 266.342 241.734 266.469 241.365 266.469ZM230.584 261.434L239.876 262.762L240.43 258.743L232.72 252.945L230.584 261.434Z" fill="#242424"/>
<path d="M228.437 284.162C227.987 284.162 227.56 283.989 227.237 283.677C226.879 283.331 226.683 282.846 226.706 282.349L227.583 262.924C227.606 262.427 227.837 261.965 228.218 261.653C228.599 261.341 229.095 261.203 229.592 261.284L240.199 263.016C241.099 263.166 241.734 263.986 241.642 264.899L240.095 280.039C239.91 281.887 238.421 283.342 236.575 283.493L228.576 284.139C228.53 284.162 228.484 284.162 228.437 284.162ZM230.954 265.026L230.25 280.536L236.286 280.039C236.471 280.028 236.621 279.878 236.644 279.693L238.017 266.18L230.954 265.026Z" fill="#242424"/>
<path d="M183.665 251.652L184.023 260.776L185.143 289.036C185.189 290.087 185.616 291.069 186.354 291.808L189.263 294.718C189.806 295.261 190.117 296 190.117 296.774V303.08C201.671 305.967 215.002 304.35 225.344 298.749V292.686C227.93 292.686 230.053 290.641 230.157 288.066L232.258 237.227L183.665 251.652Z" fill="#74698B"/>
<g opacity="0.6">
<path d="M185.685 262.877C186.054 262.889 186.227 266.631 187.797 280.698C187.855 281.252 188.12 283.481 188.986 286.241C189.575 288.112 189.944 289.313 190.752 290.376C192.206 292.281 194.469 292.974 197.897 293.552C201.186 294.106 205.942 294.637 211.897 294.349C203.61 295.862 197.539 295.434 193.949 294.915C191.779 294.603 189.598 294.129 187.913 292.397C185.65 290.087 185.535 286.83 185.489 284.648C185.281 273.768 185.062 262.854 185.685 262.877Z" fill="white"/>
</g>
<path d="M201.902 306.244C197.77 306.244 193.649 305.759 189.69 304.766C188.917 304.57 188.374 303.877 188.374 303.08V296.774C188.374 296.462 188.247 296.162 188.028 295.943L185.119 293.032C184.069 291.981 183.457 290.584 183.4 289.094L181.922 251.721C181.888 250.924 182.395 250.22 183.157 249.989L231.738 235.552C232.269 235.391 232.858 235.506 233.297 235.841C233.735 236.187 233.989 236.719 233.966 237.285L231.865 288.124C231.75 291.046 229.742 293.448 227.052 294.176V298.737C227.052 299.373 226.706 299.962 226.14 300.262C218.927 304.2 210.385 306.244 201.902 306.244ZM191.837 301.706C202.283 303.969 214.24 302.468 223.601 297.698V292.674C223.601 291.716 224.375 290.942 225.333 290.942C226.995 290.942 228.345 289.648 228.414 287.985L230.411 239.571L185.443 252.934L186.862 288.967C186.885 289.579 187.139 290.156 187.566 290.584L190.475 293.494C191.352 294.372 191.837 295.538 191.837 296.774V301.706Z" fill="#242424"/>
<path d="M231.981 285.71C231.796 292.316 224.098 294.36 218.892 295.238C213.733 296.104 208.55 296.358 203.356 296.566C202.941 296.578 202.583 296.254 202.571 295.839C202.56 295.434 202.86 295.099 203.252 295.053C208.365 294.522 213.479 293.933 218.396 292.79C221.893 291.843 227.029 290.642 228.357 287.05C228.484 286.611 228.53 286.137 228.518 285.664C228.507 284.705 229.268 283.92 230.215 283.897C231.208 283.885 232.015 284.717 231.981 285.71Z" fill="#242424"/>
<g opacity="0.3">
<path d="M216.191 292.385C216.272 293.171 216.064 293.968 215.533 294.545C215.395 294.695 215.187 294.857 214.829 295.03C213.179 295.827 212.024 294.892 211.078 295.527C210.305 296.046 210.72 296.901 209.993 298.044C209.162 299.35 207.661 299.765 206.657 300.054C204.406 300.678 198.393 301.174 190.106 301.29V303.091C201.659 305.979 214.991 304.362 225.333 298.761V292.697C227.918 292.697 230.042 290.653 230.146 288.078L232.246 237.238L183.665 251.675L184.023 260.799C187.266 263.386 190.902 264.171 191.398 264.275C195.796 265.164 197.262 263.871 205.48 264.286C207.5 264.39 209.612 264.737 211.182 266.007C213.536 267.901 214.01 271.227 214.321 274.23L216.191 292.385Z" fill="#242424"/>
</g>
<g opacity="0.3">
<path d="M189.736 316.419C190.937 317.759 192.206 318.729 193.557 319.433C204.937 325.381 218.661 312.874 232.443 319.78C234.151 320.635 235.605 321.662 236.829 322.713L223.324 295.388L190.117 300.054L189.736 316.419Z" fill="#242424"/>
</g>
<path d="M235.674 147.502C240.811 187.115 243.915 223.483 231.923 235.91C235.594 250.312 215.752 258.154 178.598 258.154H179.083C141.928 258.154 122.087 250.312 125.758 235.91C113.765 223.483 116.87 187.115 122.006 147.502L126.531 118.802L230.099 119.842L235.674 147.502Z" fill="#3080ED"/>
<g opacity="0.6">
<path d="M169.537 257.969C158.203 257.184 148.554 255.763 140.763 253.754C148.023 256.063 157.695 257.484 169.537 257.969Z" fill="white"/>
<path d="M235.674 147.502C234.878 144.083 234.105 140.607 233.366 137.05C232.131 131.172 231.046 125.432 230.099 119.842C212.405 119.657 194.711 119.484 177.017 119.311L230.365 123.422C232.131 131.449 233.908 139.475 235.674 147.502C233.204 160.541 233.527 170.912 234.324 178.13C235.224 186.203 236.748 190.476 237.013 201.055C237.302 212.558 235.501 219.799 235.086 221.474C233.262 228.923 230.515 234.732 228.345 238.613C228.264 240.091 227.964 242.574 226.614 245.161C222.366 253.257 211.713 254.735 211.851 255.14C211.99 255.555 223.994 255.336 229.43 246.639C232.039 242.459 232.05 238.058 231.912 235.922C238.317 221.693 239.922 209.948 240.21 201.91C240.384 197.163 240.095 193.768 237.971 171.57C237.359 165.022 236.586 156.891 235.674 147.502Z" fill="white"/>
</g>
<path d="M236.505 147.398C238.421 154.743 238.918 162.285 239.864 169.78C241.549 187.589 246.051 223.356 233.158 237.111L233.585 235.483C234.832 239.987 233.597 245.034 230.215 248.314C221.893 256.549 206.08 258.292 194.884 259.309C189.448 259.713 184.011 259.886 178.575 259.886V256.422H179.06C180.018 256.422 180.791 257.195 180.791 258.154C180.791 259.112 180.018 259.886 179.06 259.886C173.623 259.875 168.187 259.713 162.751 259.309C150.608 258.235 124.984 255.521 123.599 240.033C123.507 238.474 123.703 236.938 124.049 235.483L124.477 237.111C111.48 223.426 115.878 187.6 117.597 169.757C118.44 162.239 119.317 154.743 121.199 147.398C121.302 146.971 121.741 146.717 122.168 146.832C122.526 146.924 122.768 147.248 122.768 147.606C122.607 158.947 120.795 170.057 120.137 181.329C119.306 195.812 117.078 223.553 126.993 234.709C127.408 235.171 127.547 235.783 127.42 236.338C126.485 239.779 127.351 243.406 129.924 245.912C137.519 253.303 152.743 254.92 163.016 255.856C168.349 256.248 173.704 256.422 179.06 256.422V259.886H178.575C177.617 259.886 176.844 259.112 176.844 258.154C176.844 257.195 177.617 256.422 178.575 256.422C183.931 256.41 189.298 256.248 194.619 255.856C205.237 254.966 234.047 251.987 230.215 236.338C230.076 235.737 230.261 235.125 230.642 234.709C232.939 232.238 234.497 228.981 235.57 225.551C238.698 214.914 238.595 203.607 238.283 192.532C237.89 181.306 236.817 170.057 235.582 158.878C235.155 155.147 234.762 151.406 234.809 147.606C234.809 147.132 235.201 146.763 235.663 146.763C236.078 146.774 236.413 147.04 236.505 147.398Z" fill="#242424"/>
<path d="M121.799 224.789C125.365 237.573 140.566 241.119 152.074 243.186C159.819 244.503 167.621 245.196 175.459 245.923C175.989 245.97 176.382 246.443 176.336 246.974C176.29 247.471 175.874 247.841 175.389 247.852C174.062 247.887 172.746 247.898 171.419 247.898C170.415 247.898 168.441 247.875 167.448 247.841C154.752 247.39 139.424 245.946 128.424 239.075C123.622 236.107 119.733 231.244 118.44 225.655C117.932 223.426 121.164 222.583 121.799 224.789Z" fill="#242424"/>
<path d="M239.275 225.655C234.578 244.838 206.611 247.228 190.267 247.841C187.705 247.921 184.877 247.921 182.315 247.852C181.137 247.817 181.033 246.05 182.245 245.923C187.485 245.438 192.714 244.976 197.897 244.318C207.961 242.967 218.534 241.419 227.295 236.003C231.438 233.393 234.635 229.535 235.905 224.789C236.54 222.594 239.783 223.403 239.275 225.655Z" fill="#242424"/>
<g opacity="0.2">
<path d="M129.163 247.598C167.24 261.723 202.837 257.218 223.636 241.419C187.993 248.915 140.763 246.258 124.488 234.444L129.163 247.598Z" fill="#242424"/>
</g>
<path d="M191.857 160.312C191.736 159.431 190.878 158.87 190.031 159.081C185.26 160.218 180.469 160.058 176.058 158.838C175.126 158.581 174.148 159.161 173.972 160.13L173.431 163.108C173.318 163.726 173.687 164.329 174.28 164.497C174.795 164.644 175.344 164.421 175.619 163.952L176.628 162.237C176.849 161.861 177.279 161.671 177.702 161.752C178.134 161.835 178.472 162.186 178.532 162.631L178.775 164.447C178.855 165.046 179.325 165.51 179.914 165.571C180.494 165.631 181.04 165.286 181.246 164.729L181.895 162.968C182.048 162.552 182.447 162.287 182.882 162.296C183.317 162.305 183.705 162.586 183.841 163.008L184.419 164.793C184.601 165.358 185.134 165.725 185.715 165.688C186.306 165.651 186.795 165.206 186.899 164.611L187.216 162.799C187.293 162.357 187.639 162.019 188.075 161.954C188.5 161.89 188.927 162.098 189.133 162.483L190.074 164.246C190.329 164.725 190.866 164.97 191.387 164.847C191.987 164.704 192.381 164.118 192.296 163.496L191.857 160.312Z" fill="#242424"/>
<path d="M188.638 166.202C188.109 166.064 187.546 166.273 187.265 166.712L186.236 168.315C186.01 168.666 185.571 168.843 185.138 168.767C184.696 168.689 184.35 168.36 184.288 167.944L184.037 166.245C183.953 165.684 183.469 165.248 182.864 165.189C182.269 165.132 181.708 165.455 181.499 165.976L180.839 167.617C180.683 168.005 180.273 168.251 179.827 168.242C179.382 168.233 178.987 167.97 178.847 167.576L178.253 165.907C178.065 165.38 177.52 165.036 176.925 165.069C176.321 165.103 175.821 165.518 175.716 166.073L175.395 167.758C175.317 168.17 174.958 168.485 174.512 168.545C174.077 168.604 173.645 168.41 173.434 168.05L172.47 166.41C172.207 165.962 171.655 165.732 171.122 165.848C170.509 165.982 170.109 166.53 170.2 167.111L170.635 169.905C170.777 170.816 171.753 171.396 172.716 171.192C177.275 170.228 182.179 170.269 187.011 171.525C187.87 171.745 188.772 171.263 188.932 170.449L189.513 167.505C189.627 166.926 189.248 166.361 188.638 166.202Z" fill="#242424"/>
<path d="M146.22 81.1864C142.605 84.4838 137.174 86.5122 131.108 86.8518C120.63 87.4505 108.274 83.0719 100.087 71.7052C92.0427 60.5351 92.4453 47.2651 94.897 38.0252C96.3912 32.4134 98.6371 28.2938 100.203 27.0517C104.355 23.7543 127.824 18.5803 144.61 37.3639C161.395 56.1565 154.336 73.7605 146.22 81.1864Z" fill="#FBA3CB"/>
<path d="M214.347 81.3651C217.944 84.6893 223.357 86.7357 229.433 87.111C239.901 87.7633 252.285 83.4472 260.534 72.1252C268.632 60.9998 268.301 47.7209 265.903 38.472C264.444 32.8513 262.225 28.7228 260.659 27.4718C256.526 24.1475 233.083 18.8485 216.199 37.5516C199.306 56.2548 206.276 73.9035 214.347 81.3651Z" fill="#FBA3CB"/>
<path d="M129.121 88.6212C117.194 88.6212 105.947 82.768 98.6907 72.6971C88.9468 59.1768 91.6311 43.637 93.2417 37.5873C93.2506 37.5516 93.2596 37.5158 93.2685 37.489C94.7449 31.9844 97.0444 27.3645 99.1381 25.7024C104.22 21.6633 128.746 17.0255 145.898 36.2201C155.678 47.1668 157.038 57.202 156.465 63.6896C155.83 70.8116 152.439 77.8264 147.383 82.4463C143.473 86.0208 137.729 88.1922 131.206 88.5586C130.508 88.6033 129.81 88.6212 129.121 88.6212ZM96.5344 38.5524C95.0491 44.2 92.6422 58.4262 101.482 70.6954C108.461 80.391 119.503 85.7974 131.009 85.1361C136.664 84.8144 141.782 82.911 145.066 79.9174C151.777 73.7784 160.053 57.2199 143.339 38.4988C134.687 28.83 124.531 26.1671 117.543 25.6309C109.285 25.0054 102.878 27.1143 101.277 28.3832C100.274 29.1785 98.1181 32.61 96.5612 38.4541C96.5523 38.4899 96.5433 38.5256 96.5344 38.5524Z" fill="#242424"/>
<path d="M146.22 81.1864C142.605 84.4838 137.174 86.5122 131.108 86.8518C141.29 69.7571 133.067 41.0903 120.612 33.995C107.173 26.3279 95.1833 37.7482 94.9059 38.0252C96.3912 32.4134 98.6371 28.2938 100.203 27.0517C104.355 23.7543 127.824 18.5803 144.61 37.3639C161.395 56.1565 154.336 73.7605 146.22 81.1864Z" fill="#5C546C"/>
<g opacity="0.6">
<path d="M95.0043 37.7482C95.0401 37.7124 95.2996 37.4622 95.7559 37.0779C97.0086 33.8878 98.4134 31.618 99.496 30.7512C103.63 27.427 127.072 22.1369 143.956 40.8311C152.68 50.491 155.034 59.8738 154.166 67.7107C156.42 59.1768 154.971 48.2033 144.708 36.8367C127.824 18.1246 104.381 23.4326 100.248 26.7479C98.6818 27.9989 96.4628 32.1363 95.0043 37.7482Z" fill="white"/>
</g>
<path d="M131.108 88.4156C130.562 88.4156 130.052 88.1297 129.766 87.665C129.461 87.1735 129.461 86.548 129.757 86.0565C134.418 78.2196 135.412 66.7546 132.405 55.379C129.945 46.0498 125.122 38.3737 119.825 35.3533C107.477 28.3028 96.4539 38.6954 95.9886 39.1422C95.4875 39.6337 94.718 39.7231 94.1096 39.3656C93.5012 39.0082 93.2059 38.2933 93.3849 37.6142C94.8344 32.19 97.1786 27.4449 99.2366 25.8186C104.292 21.7973 128.701 17.1953 145.782 36.3184C155.526 47.2293 156.886 57.2199 156.313 63.6717C155.687 70.758 152.305 77.737 147.276 82.3302C143.393 85.8778 137.684 88.0403 131.188 88.4067C131.161 88.4156 131.135 88.4156 131.108 88.4156ZM110.931 29.7683C114.197 29.7683 117.731 30.5547 121.391 32.6368C127.475 36.1129 132.727 44.3162 135.438 54.5837C138.328 65.5393 137.711 76.6558 133.846 84.9931C138.391 84.2872 142.417 82.5446 145.155 80.0336C151.902 73.8588 160.232 57.2109 143.438 38.4095C127.681 20.7608 105.16 25.1037 101.178 28.267C100.471 28.83 99.1829 30.6887 97.9392 33.7717C101.026 31.8593 105.598 29.7683 110.931 29.7683Z" fill="#242424"/>
<g opacity="0.2">
<path d="M135.68 69.2567C134.687 69.632 133.622 69.8376 132.521 69.8286C126.804 69.8107 122.178 64.3151 122.196 57.5415C122.214 51.6437 125.739 46.72 130.428 45.5672C133.81 52.3586 135.85 60.9372 135.68 69.2567Z" fill="#242424"/>
</g>
<path d="M132.539 71.5443C132.53 71.5443 132.521 71.5443 132.512 71.5443C125.855 71.5265 120.46 65.2444 120.478 57.5326C120.496 50.9914 124.504 45.2545 130.016 43.8962C130.795 43.6996 131.609 44.0749 131.967 44.7987C135.59 52.0727 137.568 60.9998 137.389 69.2925C137.371 69.9895 136.933 70.615 136.279 70.8563C135.089 71.3209 133.828 71.5443 132.539 71.5443ZM129.533 47.6851C126.222 49.2042 123.923 53.1182 123.914 57.5416C123.896 63.3589 127.761 68.104 132.521 68.1129C133.014 68.1129 133.497 68.0682 133.962 67.9699C133.917 61.0981 132.334 53.842 129.533 47.6851Z" fill="#242424"/>
<path d="M132.539 71.5443C132.53 71.5443 132.521 71.5443 132.512 71.5443C125.855 71.5265 120.46 65.2444 120.478 57.5326C120.496 50.9914 124.504 45.2545 130.016 43.8962C130.795 43.6996 131.609 44.0749 131.967 44.7987C135.59 52.0727 137.568 60.9998 137.389 69.2925C137.371 69.9895 136.933 70.615 136.279 70.8563C135.089 71.3209 133.828 71.5443 132.539 71.5443ZM129.533 47.6851C126.222 49.2042 123.923 53.1182 123.914 57.5416C123.896 63.3589 127.761 68.104 132.521 68.1129C133.014 68.1129 133.497 68.0682 133.962 67.9699C133.917 61.0981 132.334 53.842 129.533 47.6851Z" fill="#242424"/>
<path d="M231.607 88.8981C230.846 88.8981 230.095 88.8713 229.325 88.8266C222.802 88.4245 217.076 86.2173 213.184 82.625C208.155 77.9693 204.791 70.9456 204.2 63.8146C203.655 57.327 205.077 47.3008 214.911 36.4077C232.17 17.3025 256.669 22.0654 261.733 26.1402C263.818 27.8113 266.091 32.4401 267.54 37.9537C267.549 37.9894 267.558 38.0162 267.567 38.052C269.142 44.1106 271.745 59.6683 261.93 73.1439C254.656 83.1165 243.453 88.8981 231.607 88.8981ZM215.519 80.1051C218.785 83.1165 223.894 85.0467 229.54 85.4041C241.046 86.119 252.106 80.7842 259.138 71.1243C268.041 58.8998 265.706 44.6557 264.256 39.0081C264.247 38.9724 264.238 38.9456 264.23 38.9098C262.708 33.0567 260.57 29.6163 259.577 28.821C257.984 27.5432 251.587 25.3985 243.328 25.9794C236.331 26.4708 226.167 29.0802 217.47 38.7132C200.648 57.327 208.835 73.9302 215.519 80.1051Z" fill="#242424"/>
<path d="M214.347 81.3651C217.944 84.6893 223.357 86.7357 229.432 87.111C219.348 69.9627 227.723 41.3405 240.205 34.3078C253.689 26.7122 265.607 38.204 265.894 38.472C264.435 32.8513 262.216 28.7228 260.65 27.4718C256.517 24.1475 233.074 18.8485 216.19 37.5516C199.306 56.2548 206.276 73.9035 214.347 81.3651Z" fill="#5C546C"/>
<g opacity="0.6">
<path d="M265.894 38.4988C265.858 38.463 265.598 38.2128 265.142 37.8286C263.89 34.6384 262.485 32.3687 261.402 31.5019C257.268 28.1776 233.826 22.8875 216.942 41.5817C208.218 51.2327 205.865 60.6155 206.733 68.4524C204.478 59.9185 205.927 48.945 216.19 37.5784C233.083 18.8752 256.526 24.1832 260.659 27.4985C262.216 28.7496 264.435 32.8869 265.894 38.4988Z" fill="white"/>
</g>
<path d="M229.432 88.6747C229.397 88.6747 229.37 88.6747 229.334 88.6747C222.847 88.2726 217.147 86.0833 213.282 82.5178C208.28 77.8889 204.934 70.892 204.344 63.8057C203.807 57.3449 205.22 47.3634 215.018 36.5061C232.206 17.4812 256.588 22.2084 261.626 26.2564C263.666 27.8917 265.992 32.6457 267.406 38.0788C267.585 38.7579 267.281 39.4728 266.672 39.8213C266.064 40.1698 265.294 40.0805 264.793 39.589C264.337 39.1422 253.367 28.687 240.975 35.6661C235.669 38.6596 230.801 46.3 228.296 55.6203C225.236 66.978 226.167 78.4519 230.784 86.3067C231.079 86.8071 231.07 87.4237 230.766 87.9152C230.479 88.3977 229.978 88.6747 229.432 88.6747ZM215.412 80.2212C218.141 82.7412 222.158 84.5105 226.695 85.2433C222.874 76.8791 222.319 65.7627 225.272 54.825C228.037 44.5664 233.334 36.3988 239.445 32.9584C249.09 27.5253 257.93 31.1087 262.878 34.2274C261.653 31.1355 260.382 29.2678 259.675 28.7049C255.711 25.5147 233.217 21.0467 217.353 38.606C200.46 57.3181 208.701 74.0107 215.412 80.2212Z" fill="#242424"/>
<path d="M224.959 69.498C225.952 69.8822 227.017 70.0878 228.117 70.0878C233.835 70.1056 238.487 64.6278 238.505 57.8543C238.523 51.9565 235.016 47.0149 230.336 45.8353C226.918 52.5999 224.833 61.1696 224.959 69.498Z" fill="#FBA3CB"/>
<g opacity="0.2">
<path d="M224.959 69.498C225.952 69.8822 227.017 70.0878 228.117 70.0878C233.835 70.1056 238.487 64.6278 238.505 57.8543C238.523 51.9565 235.016 47.0149 230.336 45.8353C226.918 52.5999 224.833 61.1696 224.959 69.498Z" fill="#242424"/>
</g>
<path d="M228.135 71.8035C228.126 71.8035 228.117 71.8035 228.108 71.8035C226.811 71.8035 225.54 71.5622 224.341 71.0975C223.688 70.8473 223.259 70.2218 223.241 69.5248C223.116 61.2321 225.138 52.3229 228.797 45.0668C229.155 44.3519 229.969 43.9766 230.757 44.1732C236.259 45.5672 240.241 51.322 240.223 57.8632C240.214 61.5449 238.98 65.0121 236.761 67.6303C234.47 70.3201 231.41 71.8035 228.135 71.8035ZM226.677 68.2201C227.151 68.3184 227.634 68.372 228.117 68.372C230.39 68.372 232.502 67.3265 234.139 65.4053C235.839 63.4036 236.778 60.7138 236.787 57.8454C236.796 53.4131 234.524 49.4901 231.213 47.9531C228.377 54.1011 226.757 61.3394 226.677 68.2201Z" fill="#242424"/>
<path d="M243.74 108.745C243.641 144.463 201.704 148.108 181.993 148.26C181.321 148.26 180.677 148.269 180.06 148.26C163.552 148.216 126.822 145.982 118.357 120.228C117.203 116.734 116.577 112.811 116.586 108.406C116.702 65.7448 150.828 35.3086 180.355 35.3891C210.079 35.4695 243.856 66.0844 243.74 108.745Z" fill="#74698B"/>
<g opacity="0.6">
<path d="M243.605 107.432C240.733 67.9253 208.746 40.152 180.445 40.0716C150.935 39.9911 116.854 70.3648 116.666 112.963C116.532 111.596 116.461 110.184 116.469 108.709C116.586 66.0487 150.712 35.6214 180.239 35.6929C209.578 35.7733 242.881 65.6108 243.605 107.432Z" fill="white"/>
</g>
<path d="M233.674 98.4955C222.069 92.553 207.01 106.297 182.136 94.5993H181.617C156.68 106.163 138.266 92.3296 126.625 98.2095C114.984 104.081 118.34 120.255 118.34 120.255C126.571 145.329 163.99 147.519 180.033 147.554C180.579 147.554 181.143 147.554 181.724 147.554C182.306 147.563 182.878 147.563 183.415 147.563C199.458 147.608 233.459 145.615 241.825 120.585C241.843 120.576 245.288 104.429 233.674 98.4955Z" fill="#C7C3D1"/>
<path d="M180.491 97.0129C179.319 99.0146 177.744 100.811 175.928 102.33C174.102 103.849 172.009 105.073 169.807 106.012C165.378 107.879 160.556 108.576 155.84 108.585C151 108.549 146.293 107.423 141.945 105.574C139.779 104.635 137.686 103.492 135.78 102.089C135.315 101.713 134.84 101.365 134.393 100.981L133.74 100.382L133.418 100.078L133.114 99.7473C132.29 98.9074 131.592 97.9244 131.082 96.8878C132.711 98.532 134.653 99.6669 136.657 100.65C138.67 101.615 140.764 102.401 142.884 103.045C147.134 104.323 151.519 105.127 155.84 105.163C160.269 105.154 164.681 104.743 168.886 103.492C173.091 102.249 177.028 100.105 180.491 97.0129Z" fill="#A6A3AE"/>
<path d="M230.891 97.0129C229.719 99.0146 228.144 100.811 226.328 102.33C224.502 103.849 222.409 105.073 220.207 106.012C215.778 107.879 210.956 108.576 206.24 108.585C201.4 108.549 196.693 107.423 192.345 105.574C190.179 104.635 188.086 103.492 186.18 102.089C185.715 101.713 185.24 101.365 184.793 100.981L184.14 100.382L183.818 100.078L183.514 99.7473C182.69 98.9074 181.992 97.9244 181.482 96.8878C183.111 98.532 185.052 99.6669 187.057 100.65C189.07 101.615 191.164 102.401 193.284 103.045C197.534 104.323 201.919 105.127 206.24 105.163C210.669 105.154 215.08 104.743 219.286 103.492C223.491 102.249 227.428 100.105 230.891 97.0129Z" fill="#A6A3AE"/>
<g opacity="0.2">
<path d="M243.203 109.013C243.104 144.731 201.167 148.377 181.456 148.537C180.785 148.537 180.14 148.537 179.523 148.537C163.015 148.493 126.294 146.259 117.821 120.505C116.666 117.011 116.04 113.088 116.049 108.683C116.058 105.814 116.219 102.99 116.523 100.238C116.783 103.008 117.328 105.573 118.107 107.941C126.571 133.695 163.301 135.929 179.809 135.973C180.427 135.973 181.071 135.973 181.742 135.973C200.201 135.821 238.156 132.622 242.97 102.874C243.131 104.876 243.203 106.931 243.203 109.013Z" fill="#242424"/>
</g>
<path d="M180.463 149.985C180.328 149.985 180.185 149.985 180.051 149.985C144.869 149.887 122.974 139.789 116.72 120.773C115.476 117.002 114.859 112.838 114.868 108.406C114.922 88.2458 122.491 69.1673 136.19 54.6999C148.654 41.537 165.108 33.6823 180.248 33.6823C180.284 33.6823 180.328 33.6823 180.364 33.6823C195.593 33.7269 212.092 41.6711 224.484 54.9411C238.058 69.4622 245.502 88.5764 245.449 108.763C245.404 125 237.136 136.67 220.879 143.435C210.732 147.662 197.651 149.869 182.001 149.994C181.474 149.985 180.964 149.985 180.463 149.985ZM180.248 37.1048C151.079 37.1048 118.42 67.5499 118.313 108.406C118.304 112.471 118.868 116.269 119.995 119.692C127.251 141.773 156.671 146.482 180.069 146.545C180.686 146.545 181.321 146.545 181.993 146.545C197.185 146.42 209.828 144.311 219.563 140.254C234.425 134.07 241.986 123.463 242.022 108.736L243.74 108.745L242.022 108.736C242.075 89.4343 234.953 71.1511 221.979 57.2645C210.213 44.6736 194.653 37.1405 180.355 37.0958C180.319 37.1048 180.284 37.1048 180.248 37.1048Z" fill="#242424"/>
<path d="M93.7722 78.9612C98.3444 78.6664 102.934 78.9434 107.48 79.5063C112.034 80.0693 116.553 80.9719 120.973 82.2318C122.082 82.5446 123.174 82.8931 124.274 83.2416C125.357 83.6259 126.458 83.9744 127.522 84.4033C129.679 85.2165 131.79 86.128 133.848 87.1735C137.973 89.2109 141.883 91.7219 145.301 94.7513C143.306 93.6253 141.346 92.4904 139.315 91.4985C138.814 91.2304 138.295 91.007 137.794 90.7568C137.284 90.5156 136.783 90.2654 136.255 90.042C135.736 89.8186 135.226 89.5862 134.716 89.3539L133.159 88.7015C132.64 88.4781 132.121 88.2726 131.593 88.076C131.066 87.8705 130.547 87.656 130.019 87.4594C128.963 87.0752 127.907 86.6731 126.842 86.3246C124.713 85.5918 122.565 84.9127 120.4 84.305C116.069 83.0629 111.667 82.0531 107.229 81.1595C102.773 80.2927 98.2996 79.551 93.7722 78.9612Z" fill="#242424"/>
<path d="M90.9 97.1908C95.2396 95.7343 99.7492 94.8317 104.295 94.2062C108.84 93.5807 113.439 93.3037 118.038 93.3841C119.183 93.402 120.337 93.4556 121.483 93.5092C122.628 93.5985 123.782 93.6611 124.919 93.7951C127.209 94.0275 129.491 94.376 131.737 94.8496C136.246 95.7611 140.666 97.1819 144.755 99.2372C142.536 98.6564 140.353 98.0666 138.134 97.6287C137.588 97.4947 137.025 97.4142 136.47 97.2981C135.915 97.1998 135.36 97.0836 134.806 97.0032C134.251 96.9228 133.696 96.8245 133.141 96.7262L131.468 96.4938C130.914 96.4134 130.35 96.3509 129.795 96.2883C129.231 96.2257 128.677 96.1543 128.113 96.1006C126.994 96.0023 125.876 95.8772 124.749 95.8147C122.503 95.6538 120.257 95.5466 118.002 95.5109C113.502 95.4215 108.983 95.5645 104.473 95.8504C99.946 96.1721 95.4275 96.6011 90.9 97.1908Z" fill="#242424"/>
<path d="M93.28 117.109C97.0827 114.562 101.208 112.516 105.422 110.72C109.645 108.933 114.003 107.449 118.467 106.332C119.577 106.046 120.704 105.805 121.832 105.555C122.959 105.34 124.086 105.099 125.223 104.929C127.495 104.554 129.786 104.286 132.086 104.161C136.676 103.866 141.319 104.08 145.802 104.992C143.512 105.01 141.248 105.01 138.984 105.171C138.42 105.189 137.857 105.251 137.293 105.287C136.729 105.332 136.166 105.367 135.611 105.439C135.047 105.501 134.492 105.555 133.929 105.609L132.238 105.832C131.683 105.895 131.119 105.984 130.565 106.073C130.01 106.163 129.446 106.234 128.9 106.332C127.791 106.529 126.681 106.708 125.581 106.94C123.371 107.369 121.17 107.86 118.986 108.414C114.611 109.505 110.298 110.836 106.012 112.284C101.735 113.758 97.4943 115.358 93.28 117.109Z" fill="#242424"/>
<path d="M264.706 80.1319C260.179 80.7217 255.705 81.4634 251.258 82.3212C246.82 83.2059 242.418 84.2157 238.087 85.4667C235.922 86.0744 233.775 86.7535 231.645 87.4863C230.571 87.8348 229.525 88.2458 228.469 88.6212C227.941 88.8177 227.422 89.0322 226.894 89.2377C226.366 89.4343 225.838 89.6399 225.328 89.8633L223.771 90.5156C223.261 90.7479 222.751 90.9892 222.232 91.2037C221.713 91.4181 221.203 91.6773 220.693 91.9186C220.183 92.1688 219.664 92.3922 219.172 92.6602C217.132 93.6521 215.173 94.7781 213.186 95.913C216.613 92.8836 220.514 90.3726 224.639 88.3352C226.697 87.2986 228.809 86.3782 230.965 85.565C232.039 85.145 233.13 84.7876 234.213 84.4033C235.314 84.0548 236.405 83.7063 237.515 83.3936C241.935 82.1336 246.453 81.231 251.008 80.6681C255.535 80.123 260.134 79.837 264.706 80.1319Z" fill="#242424"/>
<path d="M267.57 98.3704C263.042 97.7806 258.524 97.3517 254.014 97.0479C249.495 96.7709 244.986 96.6189 240.485 96.7083C238.231 96.744 235.985 96.8423 233.739 97.0121C232.611 97.0747 231.493 97.1998 230.375 97.2981C229.811 97.3517 229.256 97.4321 228.692 97.4857C228.129 97.5394 227.574 97.6108 227.019 97.6913L225.346 97.9236C224.791 98.013 224.237 98.1113 223.673 98.2006C223.109 98.281 222.563 98.3972 222.009 98.4955C221.454 98.6027 220.899 98.6921 220.344 98.8261C218.125 99.264 215.933 99.8538 213.723 100.435C217.812 98.3793 222.232 96.9585 226.742 96.047C228.997 95.5734 231.278 95.2249 233.56 94.9926C234.705 94.8585 235.85 94.796 236.996 94.7066C238.141 94.653 239.295 94.5905 240.441 94.5815C245.04 94.4922 249.639 94.7781 254.184 95.4036C258.72 96.0113 263.23 96.9138 267.57 98.3704Z" fill="#242424"/>
<path d="M265.199 118.289C260.984 116.537 256.734 114.938 252.466 113.454C248.18 112.007 243.868 110.675 239.492 109.585C237.309 109.022 235.108 108.54 232.907 108.111C231.806 107.878 230.697 107.709 229.587 107.503C229.032 107.405 228.478 107.333 227.923 107.244C227.368 107.155 226.813 107.065 226.25 107.003L224.577 106.788C224.013 106.735 223.458 106.681 222.894 106.618C222.331 106.547 221.767 106.511 221.212 106.466C220.649 106.431 220.085 106.368 219.521 106.35C217.257 106.189 214.994 106.189 212.703 106.172C217.186 105.26 221.83 105.046 226.42 105.34C228.719 105.466 231.01 105.734 233.283 106.109C234.419 106.279 235.546 106.52 236.674 106.735C237.801 106.985 238.92 107.226 240.038 107.512C244.494 108.629 248.86 110.112 253.084 111.9C257.271 113.696 261.387 115.742 265.199 118.289Z" fill="#242424"/>
<path d="M154.499 73.6354C152.701 73.412 151.055 74.0912 149.757 75.4137C148.093 77.1026 147.028 79.8281 146.992 83.0361C146.957 87.1735 148.666 90.9624 151.171 92.9284C152.119 93.679 153.184 94.1615 154.302 94.2956C158.4 94.8049 161.756 90.596 161.809 84.8948C161.872 79.1847 158.597 74.1448 154.499 73.6354Z" fill="white"/>
<path d="M154.991 94.653C154.75 94.653 154.517 94.6351 154.276 94.6083C153.112 94.4653 152.012 93.9828 150.983 93.1696C148.334 91.0964 146.643 87.111 146.679 83.0272C146.706 79.8549 147.744 76.9953 149.533 75.1903C150.938 73.7605 152.719 73.0903 154.544 73.3226C158.785 73.8588 162.194 79.0506 162.141 84.9038C162.114 88.2995 160.888 91.3824 158.884 93.1339C157.72 94.1347 156.387 94.653 154.991 94.653ZM153.819 73.9035C152.415 73.9035 151.09 74.4932 149.981 75.6281C148.308 77.326 147.332 80.0247 147.305 83.0361C147.27 86.9322 148.862 90.7211 151.368 92.6781C152.298 93.4109 153.3 93.8577 154.347 93.9828C155.824 94.1704 157.246 93.7058 158.454 92.6513C160.333 91.0071 161.469 88.1118 161.496 84.8859C161.55 79.3455 158.391 74.4307 154.455 73.9392C154.249 73.9213 154.034 73.9035 153.819 73.9035Z" fill="#242424"/>
<path d="M154.499 73.6354C152.701 73.412 151.054 74.0911 149.757 75.4137C149.578 75.7622 149.417 76.1196 149.274 76.5039C148.961 77.3617 148.818 78.5949 149.426 79.2204C149.954 79.7566 150.652 79.4528 151.287 79.5332C152.334 79.6583 153.273 81.0702 153.229 82.4642C153.193 83.8493 152.182 84.9485 151.135 84.7429C150.41 84.5999 149.614 83.9387 149.014 84.4123C148.567 84.7608 148.478 85.574 148.513 86.2799C148.621 88.7105 149.641 91.0697 151.046 92.7675C151.09 92.8211 151.135 92.8747 151.18 92.9283C152.128 93.679 153.193 94.1615 154.311 94.2956C158.409 94.8049 161.765 90.596 161.818 84.8948C161.872 79.1847 158.597 74.1448 154.499 73.6354Z" fill="#3080ED"/>
<path d="M156.981 93.9214C160.3 93.6406 162.647 89.3707 162.224 84.3844C161.801 79.3981 158.768 75.5835 155.449 75.8643C152.131 76.1451 149.783 80.415 150.206 85.4013C150.629 90.3876 153.663 94.2022 156.981 93.9214Z" fill="#242424"/>
<path d="M151.368 79.2383C150.732 79.1579 150.026 79.4617 149.507 78.9255C148.898 78.3 149.041 77.0668 149.354 76.209C149.498 75.8247 149.659 75.4583 149.838 75.1188C148.173 76.8077 147.109 79.5332 147.073 82.7412C147.037 86.8786 148.746 90.6675 151.251 92.6334C151.207 92.5798 151.162 92.5262 151.117 92.4726C149.721 90.7747 148.692 88.4156 148.585 85.985C148.558 85.2701 148.648 84.4659 149.086 84.1174C149.686 83.6438 150.482 84.305 151.207 84.448C152.253 84.6535 153.265 83.5544 153.3 82.1693C153.354 80.7753 152.415 79.3634 151.368 79.2383Z" fill="white"/>
<path d="M153.837 73.5907C154.061 73.5907 154.285 73.6086 154.508 73.6354C158.606 74.1448 161.881 79.1936 161.827 84.8948C161.783 90.2833 158.776 94.3402 154.991 94.3402C154.768 94.3402 154.544 94.3224 154.32 94.2956C153.193 94.1526 152.137 93.67 151.189 92.9283C148.683 90.9624 146.965 87.1735 147.01 83.0361C147.037 79.8281 148.111 77.1026 149.775 75.4137C150.893 74.2609 152.298 73.5907 153.837 73.5907ZM153.837 71.5712C151.779 71.5712 149.873 72.4112 148.317 74.0018C146.232 76.1196 145.015 79.4081 144.979 83.0183C144.934 87.6829 146.84 92.0884 149.936 94.519C151.207 95.5198 152.593 96.1185 154.07 96.3062C154.374 96.3419 154.687 96.3687 154.991 96.3687C159.984 96.3687 163.787 91.445 163.85 84.9216C163.912 78.1213 159.922 72.2861 154.759 71.6337C154.446 71.589 154.141 71.5712 153.837 71.5712Z" fill="#242424"/>
<path d="M206.726 73.6353C208.525 73.4119 210.171 74.0911 211.468 75.4136C213.133 77.1025 214.197 79.828 214.233 83.0361C214.269 87.1735 212.56 90.9624 210.055 92.9283C209.106 93.6789 208.042 94.1615 206.923 94.2955C202.825 94.8049 199.47 90.596 199.416 84.8948C199.353 79.1846 202.637 74.1447 206.726 73.6353Z" fill="white"/>
<path d="M206.234 94.653C204.838 94.653 203.505 94.1347 202.351 93.1249C200.338 91.3645 199.121 88.2905 199.094 84.8948C199.04 79.0417 202.449 73.8498 206.69 73.3137C208.516 73.0903 210.296 73.7515 211.701 75.1902C213.482 77.0043 214.529 79.8549 214.555 83.0272C214.591 87.1109 212.9 91.0964 210.252 93.1696C209.232 93.9738 208.122 94.4564 206.959 94.6083C206.717 94.644 206.476 94.653 206.234 94.653ZM206.771 73.9481C202.834 74.4396 199.676 79.3545 199.729 84.8948C199.756 88.1118 200.892 91.016 202.771 92.6602C203.979 93.7147 205.402 94.1794 206.878 93.9917C207.925 93.8577 208.927 93.4198 209.858 92.687C212.363 90.7301 213.956 86.9412 213.92 83.045C213.893 80.0336 212.918 77.3349 211.245 75.6371C209.965 74.3235 208.417 73.7426 206.771 73.9481Z" fill="#242424"/>
<path d="M206.726 73.6354C208.525 73.412 210.171 74.0912 211.469 75.4137C211.647 75.7622 211.809 76.1196 211.952 76.5039C212.265 77.3617 212.408 78.5949 211.8 79.2204C211.272 79.7566 210.574 79.4528 209.938 79.5332C208.892 79.6583 207.952 81.0702 207.997 82.4642C208.033 83.8493 209.044 84.9485 210.091 84.7429C210.815 84.6 211.612 83.9387 212.211 84.4123C212.659 84.7608 212.748 85.574 212.712 86.2799C212.605 88.7105 211.585 91.0697 210.18 92.7675C210.135 92.8211 210.091 92.8747 210.046 92.9284C209.097 93.679 208.033 94.1615 206.914 94.2956C202.816 94.8049 199.461 90.596 199.407 84.8948C199.354 79.1847 202.637 74.1448 206.726 73.6354Z" fill="#3080ED"/>
<path d="M211.023 85.4021C211.446 80.4158 209.099 76.1459 205.78 75.8651C202.461 75.5843 199.428 79.3988 199.005 84.3852C198.582 89.3715 200.93 93.6414 204.248 93.9222C207.567 94.203 210.6 90.3884 211.023 85.4021Z" fill="#242424"/>
<path d="M209.867 79.2383C210.502 79.1579 211.209 79.4617 211.728 78.9255C212.336 78.3 212.193 77.0668 211.88 76.209C211.737 75.8247 211.576 75.4583 211.397 75.1188C213.061 76.8077 214.126 79.5332 214.162 82.7412C214.197 86.8786 212.489 90.6675 209.983 92.6334C210.028 92.5798 210.073 92.5262 210.117 92.4726C211.513 90.7747 212.542 88.4156 212.65 85.985C212.676 85.2701 212.587 84.4659 212.148 84.1174C211.549 83.6438 210.753 84.305 210.028 84.448C208.981 84.6535 207.97 83.5544 207.934 82.1693C207.881 80.7753 208.82 79.3634 209.867 79.2383Z" fill="white"/>
<path d="M207.397 73.5907C208.936 73.5907 210.341 74.2609 211.468 75.4137C213.133 77.1026 214.197 79.8281 214.233 83.0361C214.269 87.1735 212.56 90.9624 210.055 92.9283C209.106 93.679 208.042 94.1615 206.923 94.2956C206.699 94.3224 206.476 94.3402 206.252 94.3402C202.467 94.3402 199.47 90.2833 199.416 84.8948C199.362 79.1847 202.637 74.1448 206.735 73.6354C206.95 73.6086 207.174 73.5907 207.397 73.5907ZM207.397 71.5712C207.093 71.5712 206.78 71.5891 206.476 71.6248C201.313 72.2682 197.322 78.1034 197.385 84.9127C197.448 91.436 201.25 96.3598 206.243 96.3598C206.547 96.3598 206.86 96.3419 207.165 96.2972C208.641 96.1096 210.028 95.5109 211.298 94.51C214.394 92.0884 216.291 87.6829 216.246 83.0183C216.211 79.4081 214.994 76.1196 212.9 74.0018C211.361 72.4112 209.455 71.5712 207.397 71.5712Z" fill="#242424"/>
<path d="M173.107 54.8949C172.67 55.0351 172.315 55.1341 171.919 55.2332C171.531 55.3322 171.143 55.4147 170.756 55.4807C169.972 55.621 169.18 55.72 168.379 55.7612C166.779 55.852 165.104 55.7447 163.453 55.1836C161.82 54.6391 160.211 53.5417 159.212 52.0317C158.94 51.6686 158.75 51.2643 158.544 50.8765C158.379 50.4722 158.189 50.0761 158.082 49.6636C157.809 48.8467 157.686 48.0216 157.587 47.2047C157.413 45.5957 157.554 43.929 157.966 42.3365C158.197 41.5444 158.486 40.7687 158.857 40.0344C159.245 39.3083 159.699 38.6234 160.202 37.9881C161.234 36.7256 162.496 35.719 163.841 34.9351C165.211 34.1678 166.638 33.5902 168.181 33.3096C168.387 33.2684 168.594 33.4086 168.627 33.6232C168.66 33.7965 168.569 33.9615 168.42 34.0357L168.387 34.044C165.838 35.3477 163.519 37.1465 162.026 39.3578C161.267 40.4634 160.747 41.6846 160.458 42.9553C160.194 44.2343 160.169 45.571 160.351 46.8912C160.45 47.543 160.574 48.1866 160.788 48.7642C160.879 49.0695 161.027 49.3253 161.143 49.6058C161.3 49.8616 161.423 50.1256 161.605 50.3567C162.265 51.3138 163.247 51.9492 164.402 52.337C166.729 53.0961 169.683 52.832 172.224 52.1719L172.299 52.1554C173.066 51.9574 173.842 52.4112 174.04 53.1786C174.229 53.913 173.817 54.6638 173.107 54.8949Z" fill="#242424"/>
<path d="M171.68 58.3274C171.482 58.5749 171.341 58.7317 171.168 58.9132C171.003 59.0948 170.83 59.2598 170.648 59.4248C170.302 59.7549 169.93 60.0684 169.551 60.3572C168.792 60.9513 167.958 61.4464 167.084 61.8672C165.335 62.7005 163.288 63.0966 161.341 62.8161C160.367 62.6758 159.427 62.4118 158.56 62.0322C157.702 61.6279 156.877 61.1658 156.159 60.5882C154.69 59.4743 153.502 58.0964 152.512 56.6194C152.438 56.5039 152.471 56.3553 152.578 56.2811C152.669 56.2151 152.793 56.2316 152.875 56.3058C154.179 57.4528 155.54 58.5089 157.001 59.2928L157.545 59.5816L158.106 59.8291C158.288 59.9199 158.478 59.9941 158.668 60.0601C158.857 60.1262 159.047 60.2004 159.237 60.2582C159.996 60.4892 160.772 60.6212 161.531 60.646C163.065 60.7037 164.551 60.2829 165.904 59.5403C166.58 59.169 167.208 58.7069 167.818 58.2036C168.115 57.9561 168.412 57.692 168.685 57.4115C168.825 57.2712 168.957 57.131 169.081 56.9907C169.204 56.8587 169.353 56.6854 169.427 56.5946L169.444 56.5699C169.93 55.9428 170.83 55.8355 171.449 56.3141C172.068 56.7927 172.183 57.7003 171.704 58.3191C171.688 58.3109 171.68 58.3191 171.68 58.3274Z" fill="#242424"/>
<path d="M172.246 92.4369C171.432 94.2777 174.832 100.622 179.601 100.631C184.37 100.64 187.716 94.1348 186.875 92.4727C185.819 90.4084 173.266 90.1403 172.246 92.4369Z" fill="#242424"/>
<path d="M182.634 92.7408C182.634 92.9999 181.265 93.2054 179.565 93.2054C177.874 93.2054 176.496 92.9999 176.496 92.7408C176.496 92.4816 177.865 92.2761 179.565 92.2761C181.256 92.2672 182.634 92.4816 182.634 92.7408Z" fill="white"/>
<path d="M175.475 117.484C175.412 117.376 175.358 117.232 175.303 117.079C174.117 117.728 171.817 119.378 172.161 122.299C172.397 124.274 174.434 126.32 177.015 127.159C179.659 128.025 182.185 127.439 183.933 125.563C185.49 123.895 186.051 122.164 185.544 120.568C185.101 119.152 183.905 118.043 182.719 117.448C182.629 117.935 182.547 118.26 182.511 118.323C182.384 118.512 182.294 118.648 180.99 118.648C180.782 118.648 180.555 118.648 180.284 118.639C177.513 118.566 175.892 118.179 175.475 117.484Z" fill="white"/>
<path d="M182.9 103.996C182.502 104.194 179.369 105.628 176.571 104.185C175.05 103.401 171.835 101.751 168.313 101.751C165.416 101.751 162.31 102.878 159.775 106.53C156.941 110.614 156.787 116.916 159.394 122.209C160.716 124.896 163.605 128.971 169.499 131.153C168.82 130.612 168.214 129.999 167.697 129.314C165.751 126.717 165.253 123.345 166.303 119.811C167.227 116.7 169.563 112.661 175.494 111.065C175.566 111.047 175.629 111.029 175.666 111.02C175.81 110.93 175.982 110.857 176.182 110.785C177.757 110.226 182.013 109.956 182.837 110.902C182.955 111.038 183.045 111.272 183.099 111.57C184.639 111.894 190.325 113.49 191.756 119.748C192.598 123.435 191.882 127.051 189.782 129.666C189.365 130.18 188.84 130.73 188.197 131.252C192.417 129.855 195.921 127.475 198.338 124.22C201.562 119.892 202.395 114.644 200.62 109.848C196.835 99.5689 183.833 103.689 182.9 103.996Z" fill="white"/>
<path d="M181.859 115.997C182.076 114.302 182.266 112.039 182.004 111.597C181.732 111.398 179.903 111.236 178.011 111.489C176.951 111.633 176.426 111.831 176.218 111.957C176.2 111.966 176.182 111.984 176.164 111.993C176.146 112.002 176.136 112.011 176.127 112.021C176.073 113.202 176.073 114.816 176.191 115.898C176.236 115.943 176.272 115.997 176.29 116.051C176.345 116.195 176.336 116.348 176.272 116.475C176.318 116.673 176.363 116.835 176.417 116.934C176.843 117.43 180.437 117.638 181.624 117.557C181.651 117.43 181.678 117.259 181.705 117.079C181.687 117.079 181.669 117.07 181.651 117.061C181.361 116.998 181.171 116.709 181.234 116.411C181.298 116.123 181.578 115.943 181.859 115.997Z" fill="#50468F"/>
<path d="M188.94 128.98C190.823 126.627 191.466 123.345 190.696 119.973C189.474 114.617 184.892 113.075 183.199 112.688C183.217 113.806 183.072 115.203 182.909 116.33C184.449 116.998 186.015 118.395 186.595 120.243C187.029 121.632 187.065 123.814 184.738 126.302C183.308 127.835 181.433 128.638 179.396 128.638C178.518 128.638 177.612 128.493 176.689 128.187C173.683 127.204 171.383 124.842 171.093 122.425C170.649 118.63 173.864 116.601 175.113 115.97C174.977 114.734 174.996 113.175 175.032 112.354C170.16 113.95 168.168 117.421 167.372 120.117C166.421 123.318 166.855 126.357 168.594 128.665C169.916 130.423 171.908 131.676 174.398 132.361C175.186 132.47 176.001 132.56 176.87 132.605C179.369 132.74 181.759 132.614 184.005 132.253C186.042 131.604 187.717 130.504 188.94 128.98Z" fill="#50468F"/>
<g opacity="0.3">
<path d="M161.097 119.089C159.349 115.275 159.449 108.107 159.449 108.107C159.114 108.324 158.806 108.585 158.534 108.892C156.986 112.814 157.257 117.854 159.403 122.209C160.553 124.544 162.889 127.925 167.344 130.207C168.214 130.486 168.703 130.45 168.703 130.45L168.693 130.441C168.34 130.089 168.005 129.729 167.707 129.332C166.62 127.88 165.986 126.185 165.814 124.355C165.814 124.337 162.853 122.903 161.097 119.089Z" fill="#242424"/>
</g>
<g opacity="0.3">
<path d="M192.018 124.184C191.774 126.23 191.022 128.115 189.791 129.657C189.374 130.171 188.849 130.721 188.206 131.243C192.426 129.846 195.93 127.466 198.348 124.211C201.571 119.883 202.404 114.635 200.629 109.839C200.439 109.316 200.213 108.838 199.977 108.396C201.354 119.937 193.947 123.471 192.018 124.184Z" fill="#242424"/>
</g>
<g opacity="0.3">
<path d="M172.832 123.327C172.832 123.327 175.466 121.28 176.471 121.28C177.477 121.28 181.162 121.226 182.674 121.226C183.896 121.226 185.191 121.911 185.689 122.191C185.753 121.641 185.716 121.1 185.544 120.568C185.101 119.152 183.905 118.043 182.719 117.448C182.629 117.935 182.547 118.26 182.511 118.323C182.384 118.512 182.294 118.648 180.99 118.648C180.782 118.648 180.555 118.648 180.284 118.639C177.504 118.566 175.892 118.179 175.475 117.493C175.412 117.385 175.358 117.241 175.303 117.088C174.117 117.737 171.817 119.387 172.161 122.308C172.171 122.407 172.189 122.498 172.216 122.597C172.506 123.093 172.832 123.327 172.832 123.327Z" fill="#242424"/>
</g>
<path d="M178.853 134.516C178.156 134.516 177.458 134.498 176.752 134.453C164.773 133.795 159.693 127.006 157.728 123.011C154.84 117.151 155.048 110.1 158.253 105.475C162.591 99.2082 169.047 98.2254 177.431 102.535C179.496 103.599 182.076 102.337 182.094 102.319C182.149 102.292 182.203 102.265 182.266 102.247C187.654 100.407 198.791 99.4967 202.368 109.189C204.36 114.59 203.436 120.46 199.833 125.302C195.441 131.216 187.871 134.516 178.853 134.516ZM168.268 102.499C165.506 102.499 162.726 103.626 160.418 106.962C157.783 110.767 157.647 116.898 160.092 121.866C161.803 125.338 166.258 131.252 176.897 131.839C185.934 132.334 193.521 129.386 197.723 123.751C200.783 119.63 201.58 114.653 199.896 110.091C196.419 100.651 184.349 104.321 183.181 104.699C182.547 104.997 179.233 106.412 176.218 104.852C173.927 103.68 171.102 102.499 168.268 102.499Z" fill="#242424"/>
<path d="M181.044 119.152C180.809 119.152 180.546 119.152 180.247 119.143C175.811 119.026 175.276 118.134 175.05 117.746C174.38 116.628 174.47 113.292 174.534 111.894C174.552 111.407 174.833 110.74 176.019 110.316C177.567 109.766 182.158 109.352 183.226 110.578C184.349 111.876 183.226 118.179 182.937 118.611C182.665 119.008 182.366 119.152 181.044 119.152ZM176.816 116.592C177.495 116.934 179.948 117.088 181.189 117.061C181.424 115.699 181.741 112.922 181.587 111.993C180.582 111.714 177.522 111.912 176.607 112.318C176.544 114.157 176.634 116.024 176.816 116.592Z" fill="#242424"/>
<path d="M179.396 129.143C178.463 129.143 177.495 128.989 176.517 128.665C173.329 127.628 170.885 125.085 170.577 122.48C170.106 118.44 173.52 115.997 175.394 115.266L176.164 117.214C176.001 117.277 172.27 118.801 172.668 122.236C172.877 124.021 174.778 125.888 177.178 126.672C178.337 127.051 181.279 127.664 183.561 125.211C185.01 123.661 185.517 122.146 185.064 120.712C184.557 119.098 182.873 117.836 181.533 117.539L181.986 115.492C183.933 115.916 186.296 117.629 187.065 120.081C187.545 121.596 187.582 123.967 185.101 126.636C183.57 128.286 181.578 129.143 179.396 129.143Z" fill="#242424"/>
<path d="M179.106 134.552C173.882 134.552 169.68 132.803 167.299 129.621C165.253 126.898 164.728 123.363 165.823 119.666C166.783 116.439 169.21 112.237 175.367 110.578C175.421 110.56 175.466 110.551 175.503 110.542C175.937 110.361 176.444 110.479 176.743 110.866C177.096 111.326 177.006 111.984 176.553 112.336C176.372 112.48 176.2 112.525 175.919 112.598C170.704 114.004 168.648 117.539 167.842 120.252C166.937 123.3 167.344 126.176 168.983 128.358C170.966 130.991 174.561 132.443 179.106 132.443C183.29 132.443 186.549 131.135 188.541 128.656C190.361 126.393 190.95 123.345 190.207 120.081C188.804 113.941 182.583 113.066 182.52 113.057C181.94 112.985 181.542 112.462 181.615 111.885C181.687 111.308 182.221 110.911 182.792 110.984C182.873 110.993 190.542 112.066 192.263 119.621C193.141 123.462 192.39 127.231 190.189 129.963C188.514 132.064 185.236 134.552 179.106 134.552Z" fill="#242424"/>
<g clip-path="url(#clip0_78_1371446)">
<g clip-path="url(#clip1_78_1371446)">
<path d="M205.798 24.5897C204.825 23.8906 203.812 23.2315 202.759 22.6024C201.505 8.77114 193.219 1.95039 180.952 1.95039H179.948C167.681 1.95039 159.395 8.77114 158.151 22.6024C157.259 23.1316 156.406 23.6809 155.583 24.2501C149.505 28.4444 145.221 33.7572 144.068 40.9674C144.018 41.287 143.968 41.5966 143.928 41.9162C143.085 42.1958 142.323 42.5153 141.64 42.8848C136.454 45.6511 135.522 50.9339 137.417 57.8945C148.592 51.8227 164.36 48.647 180.45 48.7169C196.55 48.647 212.308 51.8227 223.483 57.8945C225.308 51.1836 224.516 46.0306 219.801 43.1944C218.979 42.6951 218.036 42.2657 216.973 41.9162C216.942 41.6865 216.912 41.4668 216.882 41.2371C216.25 37.0128 214.555 33.4277 212.057 30.3419C211.456 29.5929 210.814 28.8838 210.111 28.1948L205.798 24.5897Z" fill="#50468F"/>
<path d="M223.382 59.4024C223.151 59.4024 222.921 59.3525 222.7 59.2426C210.984 53.3307 195.637 50.3247 180.44 50.2349C165.243 50.3247 149.896 53.3307 138.18 59.2426C137.939 59.3625 137.688 59.4124 137.447 59.4024C137.227 59.4124 137.016 59.3725 136.815 59.2826C136.394 59.1028 136.073 58.7433 135.953 58.2939C133.515 49.3361 135.732 43.4641 142.553 40.8176C143.767 33.1081 148.411 26.8466 156.717 21.7136C158.221 8.19192 166.647 0.452423 179.948 0.452423H180.951C194.252 0.452423 202.678 8.19192 204.183 21.7136C212.489 26.8466 217.133 33.1181 218.347 40.8176C225.168 43.4641 227.384 49.3361 224.947 58.2939C224.827 58.7333 224.506 59.1028 224.084 59.2826C223.884 59.3725 223.663 59.4124 223.452 59.4024C223.422 59.4024 223.402 59.4024 223.382 59.4024ZM180.921 47.219C181.202 47.219 181.473 47.219 181.754 47.219C197.121 47.3188 211.827 50.3946 222.469 55.6775C224.225 47.0092 219.972 44.4827 216.501 43.3442C215.949 43.1645 215.548 42.6751 215.478 42.0959C214.585 34.636 210.292 28.8539 201.976 23.8806C201.565 23.631 201.294 23.2115 201.254 22.7322C200.131 10.2991 192.918 3.44836 180.951 3.44836H179.948C167.981 3.44836 160.769 10.2991 159.646 22.7322C159.606 23.2115 159.335 23.641 158.924 23.8806C150.608 28.8539 146.325 34.636 145.422 42.0959C145.352 42.6751 144.951 43.1545 144.399 43.3442C140.928 44.4827 136.675 47.0092 138.43 55.6775C149.073 50.3847 163.768 47.3188 179.146 47.219C179.577 47.219 180.019 47.219 180.45 47.219C180.6 47.219 180.761 47.219 180.921 47.219Z" fill="#242424"/>
<path d="M141.039 41.5067C150.809 36.9129 161.752 35.2252 172.465 35.7545C172.887 35.7745 173.208 36.124 173.188 36.5434C173.168 36.9429 172.837 37.2625 172.435 37.2625C167.199 37.2625 161.973 37.7718 156.908 38.9102C151.842 40.0387 146.937 41.8063 142.383 44.2031C140.567 45.0918 139.213 42.4255 141.039 41.5067Z" fill="#242424"/>
<path d="M152.634 24.5597C154.901 22.8021 157.439 21.394 160.077 20.2556C160.95 19.8861 161.843 19.5365 162.745 19.2469C163.157 19.1071 163.608 19.3368 163.739 19.7462C163.849 20.0858 163.708 20.4553 163.428 20.645C160.408 22.6124 157.309 24.7195 154.49 26.9365C152.885 28.0749 151.12 25.808 152.634 24.5597Z" fill="#242424"/>
<path d="M218.547 44.1931C209.369 39.3396 198.897 37.2325 188.505 37.2625C187.552 37.2525 187.492 35.8244 188.465 35.7645C193.791 35.5148 199.168 35.7745 204.474 36.7032C209.77 37.622 214.986 39.2198 219.891 41.5167C220.644 41.8662 220.965 42.765 220.614 43.514C220.253 44.2829 219.3 44.5925 218.547 44.1931Z" fill="#242424"/>
<path d="M206.45 26.9265C203.571 24.6696 200.552 22.7022 197.563 20.5352C196.971 20.1058 197.442 19.1471 198.145 19.3468C201.836 20.3954 205.266 22.2329 208.306 24.5597C208.958 25.069 209.068 26.0177 208.557 26.6669C208.035 27.306 207.092 27.4258 206.45 26.9265Z" fill="#242424"/>
<g opacity="0.2">
<path d="M219.5 55.9471C219.982 56.1568 220.453 56.3765 220.925 56.6062C221.135 56.7061 221.346 56.8059 221.557 56.9058C222.209 57.2254 222.861 57.5549 223.483 57.8945C225.308 51.1836 224.516 46.0306 219.801 43.1944C218.979 42.6951 218.036 42.2657 216.973 41.9162C216.942 41.6865 216.912 41.4668 216.882 41.2371C216.25 37.0128 214.555 33.4277 212.057 30.3419C211.456 29.5929 210.814 28.8838 210.111 28.1948L205.788 24.5797C204.815 23.8806 203.802 23.2215 202.749 22.5924C201.505 8.77114 193.219 1.95039 180.952 1.95039H180.57C190.11 1.95039 196.76 7.8424 198.496 19.7962C198.746 21.5538 199.629 23.1616 201.003 24.3001C201.124 24.3999 201.234 24.4898 201.344 24.5897L204.956 28.2048C205.056 28.3246 205.156 28.4444 205.256 28.5643C205.908 29.3732 206.039 30.5016 205.517 31.4004C205.106 32.0995 204.544 32.5788 203.852 32.7186C203.852 32.7186 176.327 34.3165 159.937 33.0881C157.971 32.9383 156.306 31.9896 155.373 30.6614C154.811 29.8525 154.891 28.754 155.533 28.005C156.687 26.6569 157.971 25.4185 159.365 24.2601C159.576 24.0903 159.786 23.9106 160.007 23.7408C160.97 22.9818 161.562 21.8634 161.712 20.645C163.177 8.59138 169.476 2.42974 178.644 1.98035C167.099 2.44972 159.345 9.26047 158.141 22.6024C157.249 23.1316 156.396 23.6809 155.573 24.2501C149.495 28.4444 145.211 33.7572 144.058 40.9674C144.008 41.287 143.958 41.5966 143.917 41.9162C143.075 42.1958 142.313 42.5153 141.63 42.8848C136.444 45.6511 135.512 50.9339 137.407 57.8945C138.009 57.5649 138.621 57.2553 139.243 56.9458C139.494 56.8159 139.755 56.6961 140.015 56.5763C140.357 56.4165 140.708 56.2567 141.059 56.0969C141.901 55.7174 142.764 55.3479 143.637 54.9984C153.748 50.9539 166.316 48.8068 179.166 48.7269C179.537 48.7269 179.908 48.7169 180.269 48.7169C180.32 48.7169 180.38 48.7169 180.43 48.7169C193.48 48.657 206.32 50.7442 216.672 54.7687C216.792 54.8186 216.912 54.8686 217.033 54.9185C217.625 55.1582 218.206 55.3979 218.788 55.6375C219.039 55.7474 219.27 55.8472 219.5 55.9471ZM211.626 47.7582C204.253 44.8522 193.27 41.6865 179.758 41.6365C166.968 41.5766 156.536 44.3329 149.515 46.8694C148.542 47.219 147.559 47.3088 146.626 47.179C145.462 47.0192 144.88 45.6611 145.613 44.7623C146.184 44.0533 146.887 43.4341 147.719 42.8948C148.06 42.6751 148.421 42.4754 148.803 42.2956C149.314 42.046 149.665 41.5566 149.745 40.9974V40.9874C149.796 40.588 149.866 40.1985 149.936 39.809C158.352 38.2711 168.423 37.1127 179.808 37.1027C191.544 37.1027 201.866 38.321 210.412 39.9189C210.493 40.3583 210.563 40.8077 210.623 41.257C210.623 41.257 210.623 41.257 210.623 41.267C210.663 41.6665 210.914 42.016 211.275 42.1758C211.937 42.4754 212.529 42.8249 213.06 43.2144C213.733 43.6937 214.304 44.253 214.786 44.8622C215.909 46.2902 214.665 48.4173 212.87 48.1177C212.449 48.0378 212.037 47.918 211.626 47.7582Z" fill="#242424"/>
</g>
<g opacity="0.7">
<path d="M167.31 9.94953C171.442 4.73661 180.249 2.96901 187.682 5.58546C188.374 5.82513 188.184 6.85374 187.452 6.83376C180.42 6.5841 173.609 8.20191 168.102 10.9082C167.5 11.2078 166.888 10.4788 167.31 9.94953Z" fill="white"/>
</g>
<g opacity="0.7">
<path d="M163.076 24.1403C171.232 18.2682 185.847 18.418 196.7 22.832C185.796 21.6936 174.572 22.2029 163.076 24.1403Z" fill="white"/>
</g>
</g>
</g>
<defs>
<clipPath id="clip0_78_1371446">
<rect width="360" height="360" fill="white" transform="translate(0 0.452423)"/>
</clipPath>
<clipPath id="clip1_78_1371446">
<rect width="90.9" height="58.95" fill="white" transform="translate(135 0.452423)"/>
</clipPath>
</defs>
</svg>
