<svg width="361" height="360" viewBox="0 0 361 360" fill="none" xmlns="http://www.w3.org/2000/svg">
<path d="M210.498 183.434L210.498 183.434L210.501 182.365L209.434 182.432L200.242 183.016L199.404 183.069L199.312 183.904L200.305 184.014C199.312 183.904 199.311 183.905 199.311 183.905L199.311 183.906L199.311 183.91L199.309 183.924L199.304 183.974C199.3 184.017 199.294 184.079 199.287 184.161C199.272 184.323 199.252 184.561 199.232 184.868C199.19 185.483 199.143 186.376 199.122 187.502C199.08 189.754 199.141 192.939 199.55 196.692C200.368 204.189 202.581 213.998 208.189 223.141C212.792 230.661 219.443 236.142 227.742 241.304C233.042 244.601 239.08 247.805 245.726 251.331C249.442 253.302 253.347 255.374 257.42 257.62L257.421 257.62C259.75 258.9 264.686 262.815 267.766 268.234C270.811 273.592 272.011 280.337 267.15 287.557C263.45 293.051 257.632 295.614 251.703 296.642L251.702 296.642C249.755 296.982 248.901 298.639 249.024 300.116C249.147 301.595 250.267 303.085 252.249 303.072L252.242 302.072L252.249 303.072C262.977 303.004 271.953 298.197 277.122 290.928C282.301 283.645 283.61 273.953 279.109 264.28C273.817 252.902 262.634 246.366 251.32 240.555C249.927 239.84 248.533 239.136 247.145 238.435C242.85 236.266 238.618 234.13 234.687 231.784C229.494 228.687 224.915 225.274 221.533 221.057C216.019 214.179 213.243 204.813 211.857 197.076C211.167 193.222 210.827 189.803 210.659 187.35C210.576 186.124 210.535 185.14 210.516 184.465C210.506 184.127 210.501 183.867 210.499 183.692C210.498 183.605 210.498 183.539 210.498 183.496L210.498 183.448L210.498 183.436L210.498 183.434L210.498 183.434Z" fill="#74698B" stroke="#242424" stroke-width="2"/>
<g opacity="0.3">
<path d="M257.894 256.739C235.056 244.147 218.016 237.279 209.042 222.618C198.026 204.651 200.311 184.004 200.311 184.004L204.921 183.721C204.64 188.669 204.461 205.755 213.756 220.91C222.735 235.561 239.775 242.429 262.623 255.026C267.562 257.754 282.951 271.193 272.699 286.398C269.409 291.28 264.562 293.927 259.476 295.272C262.758 293.727 265.73 291.433 267.975 288.101C278.228 272.896 262.839 259.457 257.894 256.739Z" fill="#242424"/>
</g>
<g opacity="0.3">
<path d="M251.874 297.627C252.947 297.442 254.013 297.204 255.073 296.913C254.244 298.241 254.967 300.378 256.966 300.369C259.951 300.348 262.79 299.957 265.437 299.233C261.544 301.02 257.087 302.048 252.243 302.072C249.498 302.085 249.18 298.089 251.874 297.627Z" fill="#242424"/>
<path d="M250.09 298.528C250.417 297.962 250.987 297.511 251.832 297.356C252.934 297.163 254.001 296.925 255.002 296.649L255.667 296.463L255.305 297.047C254.922 297.667 254.905 298.511 255.275 299.158C255.619 299.765 256.218 300.099 256.963 300.095C259.862 300.073 262.68 299.696 265.366 298.97L265.548 299.471C261.482 301.343 256.999 302.307 252.242 302.332C250.675 302.343 249.847 301.159 249.749 300.063C249.707 299.557 249.817 299.001 250.09 298.528ZM251.921 297.889C250.683 298.103 250.209 299.116 250.289 300.029C250.371 300.917 251.004 301.815 252.244 301.813C255.771 301.796 259.133 301.249 262.295 300.192C260.558 300.476 258.777 300.623 256.969 300.643C256.027 300.644 255.236 300.212 254.807 299.432C254.447 298.791 254.378 298.009 254.596 297.331C253.734 297.538 252.834 297.724 251.921 297.889Z" fill="#242424"/>
</g>
<g opacity="0.3">
<path d="M255.064 296.907C255.357 296.421 255.869 296.048 256.588 295.919C257.554 295.747 258.518 295.536 259.479 295.287C258.06 295.964 256.578 296.494 255.064 296.907Z" fill="#74698B"/>
<path d="M254.51 297.33L254.855 296.775C255.106 296.362 255.613 295.826 256.56 295.667C257.535 295.501 258.499 295.29 259.422 295.043L259.6 295.529C258.22 296.181 256.712 296.733 255.149 297.167L254.51 297.33ZM256.528 296.194C256.382 296.233 256.235 296.272 256.111 296.337C256.254 296.283 256.391 296.238 256.528 296.194Z" fill="#242424"/>
</g>
<path d="M120.632 231.907C120.517 237.786 119.986 244.658 117.054 247.198C116.892 247.348 116.696 247.429 116.5 247.464C116.015 247.556 115.484 247.314 115.242 246.829L115.219 246.783L112.622 241.655C112.402 241.216 111.975 240.985 111.537 240.985C111.283 240.985 111.029 241.066 110.81 241.227C110.233 241.643 109.898 242.313 109.898 243.018V253.389C109.898 254.266 109.321 255.063 108.478 255.294C105.627 256.056 102.315 252.188 100.826 247.314C95.8048 245.454 94.7082 240.096 95.4816 233.085L95.5047 232.958L95.6547 231.769L95.7124 231.341H118.231L120.632 231.907Z" fill="#FFBD99"/>
<path d="M107.705 257.096C104.184 257.096 101.033 253.123 99.429 248.573C91.8573 245.073 93.0462 234.587 94.9853 225.752C95.0892 225.301 95.3662 224.897 95.7586 224.654C96.151 224.412 96.6358 224.331 97.086 224.435L121.036 230.21C121.821 230.394 122.375 231.11 122.363 231.93C122.248 238.444 121.648 245.501 118.185 248.503C117.504 249.092 116.615 249.323 115.738 249.15C114.849 248.977 114.111 248.411 113.707 247.603L111.652 243.537V253.366C111.652 255.04 110.544 256.518 108.951 256.946C108.524 257.05 108.12 257.096 107.705 257.096ZM98.0093 228.223C95.9548 238.617 97.0282 244.022 101.437 245.662C101.945 245.847 102.338 246.263 102.488 246.783C103.838 251.171 106.527 253.989 108.04 253.597C108.109 253.573 108.178 253.481 108.178 253.366V243.006C108.178 241.747 108.778 240.558 109.794 239.807C110.498 239.299 111.387 239.114 112.229 239.322C113.072 239.53 113.788 240.084 114.18 240.858L116.442 245.327C118.404 242.775 118.774 236.631 118.878 233.259L98.0093 228.223Z" fill="#242424"/>
<path d="M102.038 253.55C99.5675 249.439 99.5329 244.681 99.9484 240.176C99.983 239.807 100.306 239.53 100.687 239.564C101.022 239.599 101.276 239.865 101.299 240.188C101.576 244.161 102.28 248.526 104.865 251.541C106.435 253.516 103.4 255.687 102.038 253.55Z" fill="#242424"/>
<path d="M127.119 131.684L125.595 233.824C114.076 234.899 103.353 234.783 95.1005 230.972C94.1194 230.521 93.5423 229.494 93.6231 228.431L94.3964 218.349L94.5003 216.974C89.6526 215.739 94.2695 165.627 111.56 142.656C115.934 136.87 121.105 132.793 127.119 131.684Z" fill="#FFF801"/>
<g opacity="0.6">
<path d="M98.9211 230.983C97.94 230.533 97.3629 229.505 97.4437 228.443L98.217 218.36C98.4248 218.233 98.6325 218.095 98.8403 217.968C98.4363 217.517 97.8592 216.813 97.3282 215.877C94.9736 211.743 95.7008 207.296 96.024 205.171C98.4248 189.811 95.0083 201.083 98.4594 186.161C101.472 173.145 102.972 166.643 105.869 158.513C111.675 142.229 115.68 138.371 119.051 136.165C122.121 134.167 125.11 133.266 127.096 132.828L127.107 131.673C121.082 132.793 115.923 136.858 111.56 142.644C94.2811 165.627 89.6642 215.75 94.5119 216.974L94.4081 218.349L93.6347 228.431C93.5539 229.505 94.1311 230.521 95.1121 230.972C101.091 233.732 108.374 234.552 116.315 234.379C109.852 234.24 103.93 233.293 98.9211 230.983Z" fill="white"/>
</g>
<path d="M114.445 236.157C107.555 236.157 100.41 235.337 94.385 232.554C92.7691 231.803 91.7765 230.094 91.915 228.304L92.7229 217.817C91.5918 216.535 90.7607 213.475 91.0147 205.933C91.3494 195.712 93.8771 177.961 99.8906 161.573C104.669 148.546 113.21 132.504 126.807 129.975C127.315 129.883 127.846 130.021 128.238 130.356C128.631 130.691 128.862 131.188 128.85 131.707L127.327 233.859C127.315 234.748 126.634 235.476 125.757 235.557C122.248 235.88 118.393 236.157 114.445 236.157ZM95.2622 215.404C95.897 215.704 96.301 216.374 96.2433 217.101L95.3661 228.558C95.343 228.916 95.5277 229.251 95.8393 229.39C102.384 232.415 111.087 233.293 123.898 232.231L125.364 133.913C114.572 137.366 107.382 151.248 103.18 162.647C99.4751 172.707 96.5665 185.133 95.2045 196.74C93.8079 208.636 94.6043 214.318 95.2622 215.404Z" fill="#242424"/>
<path d="M94.4542 209.641C94.9044 213.914 94.6735 217.078 99.6828 218.025C100.375 218.152 100.41 219.169 99.729 219.342C93.3692 221.04 90.9223 215.126 90.98 209.825C91.0146 207.62 94.2003 207.469 94.4542 209.641Z" fill="#242424"/>
<path d="M104.715 219.827C110.706 220.913 116.685 221.663 122.767 221.652C126.403 221.686 130.016 221.478 133.652 221.224C134.61 221.155 135.441 221.871 135.51 222.818C135.579 223.765 134.875 224.585 133.94 224.678C128.954 225.116 123.91 225.116 118.935 224.597C116.442 224.32 113.949 223.938 111.502 223.349C109.055 222.76 106.666 221.952 104.404 220.866C103.815 220.601 104.092 219.711 104.715 219.827Z" fill="#242424"/>
<path d="M100.837 234.413C100.802 234.413 100.779 234.413 100.745 234.413C99.9484 234.367 99.3482 233.674 99.3943 232.877L99.9368 224.447C99.983 223.65 100.676 223.049 101.472 223.095C102.268 223.142 102.869 223.834 102.822 224.631L102.28 233.062C102.222 233.824 101.587 234.413 100.837 234.413Z" fill="#242424"/>
<path d="M106.839 234.922C106.804 234.922 106.781 234.922 106.747 234.922C105.95 234.875 105.35 234.182 105.396 233.386L105.939 224.955C105.985 224.158 106.677 223.557 107.474 223.604C108.27 223.65 108.871 224.343 108.824 225.14L108.282 233.57C108.224 234.333 107.589 234.922 106.839 234.922Z" fill="#242424"/>
<path d="M113.187 234.922C113.153 234.922 113.13 234.922 113.095 234.922C112.298 234.875 111.698 234.182 111.744 233.386L112.287 224.955C112.333 224.158 113.026 223.557 113.822 223.604C114.618 223.65 115.219 224.343 115.172 225.14L114.63 233.57C114.584 234.333 113.949 234.922 113.187 234.922Z" fill="#242424"/>
<g opacity="0.2">
<path d="M120.632 231.907C120.517 237.786 119.986 244.658 117.054 247.198C116.892 247.348 116.696 247.429 116.5 247.464C116.061 247.233 115.646 247.014 115.219 246.783L112.622 241.655C112.402 241.216 111.975 240.985 111.537 240.985C111.283 240.985 111.029 241.066 110.81 241.227C110.232 241.643 109.898 242.313 109.898 243.018V243.768C104.484 240.488 99.6944 236.92 95.47 233.074L95.4931 232.947L95.6431 231.757L95.7008 231.33H118.22L120.632 231.907Z" fill="#242424"/>
</g>
<path d="M238.155 231.907C238.27 237.786 238.801 244.658 241.733 247.198C241.895 247.348 242.091 247.429 242.287 247.464H242.299C242.783 247.556 243.314 247.314 243.557 246.829L243.58 246.783L246.177 241.655C246.396 241.216 246.823 240.985 247.262 240.985C247.516 240.985 247.77 241.066 247.989 241.227C248.566 241.643 248.901 242.313 248.901 243.018V253.389C248.901 254.266 249.478 255.063 250.321 255.294C253.171 256.056 256.484 252.188 257.973 247.314C262.994 245.454 264.09 240.096 263.317 233.085L263.306 232.958L263.156 231.769L263.098 231.341H240.579L238.155 231.907Z" fill="#FFBD99"/>
<path d="M251.071 257.096C250.667 257.096 250.251 257.038 249.836 256.934C248.243 256.507 247.135 255.04 247.135 253.354V243.526L245.08 247.591C244.676 248.399 243.926 248.965 243.037 249.139C242.16 249.312 241.26 249.081 240.59 248.492C237.116 245.501 236.527 238.433 236.412 231.919C236.401 231.11 236.943 230.394 237.739 230.198L261.69 224.424C262.14 224.308 262.624 224.389 263.017 224.643C263.409 224.885 263.686 225.29 263.79 225.74C265.729 234.575 266.93 245.062 259.335 248.573C257.754 253.123 254.603 257.096 251.071 257.096ZM247.239 239.229C247.862 239.229 248.474 239.426 248.982 239.807C249.997 240.546 250.597 241.747 250.597 242.994V253.354C250.597 253.458 250.655 253.562 250.736 253.585C252.248 254.001 254.937 251.16 256.288 246.771C256.449 246.251 256.83 245.847 257.338 245.651C261.747 244.022 262.821 238.617 260.766 228.212L239.909 233.247C240.013 236.619 240.394 242.763 242.345 245.316L244.607 240.846C244.999 240.073 245.704 239.507 246.546 239.31C246.777 239.264 247.008 239.229 247.239 239.229Z" fill="#242424"/>
<path d="M253.922 251.541C256.519 248.526 257.211 244.161 257.488 240.188C257.546 239.38 258.746 239.356 258.827 240.176C259.243 244.692 259.208 249.473 256.715 253.585C255.341 255.664 252.363 253.493 253.922 251.541Z" fill="#242424"/>
<path d="M231.657 131.684L233.18 233.824C244.699 234.899 255.422 234.783 263.675 230.972C264.656 230.521 265.233 229.494 265.152 228.431L264.379 218.349L264.275 216.974C269.123 215.739 264.506 165.627 247.216 142.656C242.853 136.87 237.682 132.793 231.657 131.684Z" fill="#FFF801"/>
<g opacity="0.6">
<path d="M259.866 230.983C260.847 230.533 261.424 229.505 261.343 228.443L260.57 218.36C260.362 218.233 260.154 218.095 259.947 217.968C260.351 217.517 260.928 216.813 261.459 215.877C263.813 211.754 263.086 207.308 262.763 205.183C260.374 189.811 263.79 201.094 260.328 186.161C257.315 173.145 255.814 166.643 252.917 158.524C247.112 142.24 243.106 138.383 239.736 136.177C236.666 134.179 233.676 133.278 231.691 132.839L231.68 131.684C237.705 132.804 242.864 136.87 247.227 142.656C264.517 165.627 269.134 215.75 264.286 216.974L264.39 218.349L265.164 228.431C265.244 229.505 264.667 230.521 263.686 230.972C257.707 233.732 250.424 234.552 242.483 234.379C248.935 234.24 254.856 233.293 259.866 230.983Z" fill="white"/>
</g>
<path d="M244.342 236.157C240.394 236.157 236.528 235.892 233.019 235.557C232.142 235.476 231.461 234.737 231.449 233.859L229.925 131.707C229.914 131.188 230.145 130.691 230.537 130.356C230.93 130.021 231.461 129.883 231.968 129.975C245.565 132.493 254.118 148.546 258.896 161.573C264.91 177.961 267.438 195.712 267.772 205.933C268.015 213.486 267.195 216.547 266.076 217.817L266.884 228.304C267.022 230.094 266.03 231.803 264.414 232.554C258.377 235.326 251.232 236.157 244.342 236.157ZM234.889 232.242C247.7 233.316 256.403 232.427 262.948 229.401C263.259 229.263 263.444 228.916 263.421 228.57L262.544 217.113C262.486 216.385 262.89 215.715 263.525 215.415C264.171 214.318 264.968 208.636 263.571 196.752C262.209 185.145 259.3 172.718 255.595 162.659C251.394 151.248 244.215 137.366 233.411 133.913L234.889 232.242Z" fill="#242424"/>
<path d="M267.795 209.825C267.853 215.138 265.418 221.04 259.046 219.342C258.388 219.169 258.412 218.187 259.058 218.037C260.108 217.771 261.089 217.494 261.817 217.032C264.263 215.485 263.963 212.239 264.333 209.629C264.61 207.458 267.772 207.643 267.795 209.825Z" fill="#242424"/>
<path d="M254.406 220.855C247.562 224.065 239.84 224.897 232.361 224.978C229.856 225.001 227.351 224.885 224.87 224.666C223.912 224.585 223.208 223.742 223.3 222.784C223.381 221.836 224.212 221.144 225.158 221.213C227.582 221.398 229.995 221.525 232.418 221.606C234.831 221.675 237.255 221.663 239.667 221.559C242.079 221.467 244.48 221.247 246.881 220.936C249.282 220.635 251.671 220.254 254.095 219.815C254.683 219.711 254.972 220.601 254.406 220.855Z" fill="#242424"/>
<path d="M257.95 234.413C257.2 234.413 256.565 233.824 256.507 233.062L255.965 224.631C255.918 223.834 256.519 223.153 257.315 223.095C258.112 223.049 258.792 223.65 258.85 224.447L259.393 232.877C259.439 233.674 258.839 234.356 258.042 234.413C258.008 234.413 257.985 234.413 257.95 234.413Z" fill="#242424"/>
<path d="M251.948 234.922C251.198 234.922 250.563 234.333 250.505 233.57L249.963 225.14C249.917 224.343 250.517 223.661 251.313 223.604C252.098 223.557 252.791 224.158 252.848 224.955L253.391 233.386C253.437 234.182 252.837 234.864 252.04 234.922C252.006 234.922 251.983 234.922 251.948 234.922Z" fill="#242424"/>
<path d="M245.6 234.922C244.85 234.922 244.215 234.333 244.157 233.57L243.615 225.14C243.568 224.343 244.169 223.661 244.965 223.604C245.761 223.557 246.442 224.158 246.5 224.955L247.043 233.386C247.089 234.182 246.489 234.864 245.692 234.922C245.658 234.922 245.623 234.922 245.6 234.922Z" fill="#242424"/>
<g opacity="0.2">
<path d="M238.155 231.907C238.27 237.786 238.801 244.658 241.733 247.198C241.895 247.348 242.091 247.429 242.287 247.464H242.299C242.737 247.233 243.153 247.014 243.58 246.783L246.177 241.655C246.396 241.216 246.823 240.985 247.262 240.985C247.516 240.985 247.77 241.066 247.989 241.227C248.566 241.643 248.901 242.313 248.901 243.018V243.768C254.314 240.488 259.104 236.92 263.329 233.074L263.317 232.947L263.167 231.757L263.109 231.33H240.59L238.155 231.907Z" fill="#242424"/>
</g>
<path opacity="0.5" d="M181.418 346.95C231.621 346.95 272.318 342.82 272.318 337.725C272.318 332.63 231.621 328.5 181.418 328.5C131.216 328.5 90.5183 332.63 90.5183 337.725C90.5183 342.82 131.216 346.95 181.418 346.95Z" fill="black"/>
<path d="M168.382 329.595C168.405 330.472 168.278 331.339 167.955 332.159C166.581 335.635 163.927 338.176 160.36 340.058C159.656 340.428 158.894 340.682 158.109 340.797C146.683 342.46 135.81 342.495 125.468 340.924C124.048 340.705 122.721 340.047 121.74 338.996C119.097 336.189 118.116 332.332 118.924 327.331C119.074 326.43 119.362 325.564 119.766 324.756L121.001 322.261L134.506 294.936L167.713 299.602L168.093 315.967L168.382 329.595Z" fill="#50468F"/>
<path d="M122.836 318.507C119.062 329.433 134.54 335.231 147.283 327.377C148.437 326.661 149.834 326.442 151.173 326.684L155.108 327.4C156.205 327.597 157.278 326.846 157.394 325.737C157.671 323.069 156.424 320.713 154.058 318.6C152.927 317.584 152.131 316.255 151.842 314.766C151.023 310.539 150.561 306.589 151.149 303.505L132.474 298.308L122.836 318.507Z" fill="white"/>
<path d="M140.981 343.8C135.591 343.8 130.327 343.419 125.203 342.634C123.379 342.356 121.705 341.49 120.47 340.185C117.423 336.951 116.327 332.54 117.204 327.054C117.365 326.014 117.7 324.975 118.196 323.982L132.936 294.174C133.271 293.504 133.986 293.123 134.725 293.226L167.932 297.892C168.774 298.008 169.409 298.724 169.421 299.567L170.113 329.572C170.136 330.726 169.952 331.812 169.571 332.805C168.128 336.478 165.3 339.434 161.157 341.606C160.279 342.068 159.333 342.379 158.352 342.518C152.465 343.361 146.66 343.8 140.981 343.8ZM135.487 296.83L121.301 325.518C120.967 326.199 120.736 326.904 120.62 327.597C119.916 332.02 120.69 335.358 122.986 337.794C123.691 338.534 124.66 339.03 125.722 339.192C135.902 340.728 146.717 340.693 157.856 339.065C158.444 338.984 159.021 338.788 159.552 338.511C162.98 336.709 165.196 334.422 166.351 331.512C166.57 330.957 166.674 330.322 166.662 329.629L166.004 301.103L135.487 296.83Z" fill="#242424"/>
<path d="M168.371 328.867C167.978 337.055 117.839 339.654 119.028 326.765C117.989 331.939 118.474 336.767 123.852 340.462C135.048 342.668 146.856 342.518 159.125 340.566C165.462 337.529 168.475 333.614 168.371 328.867Z" fill="white"/>
<path d="M140.958 343.234C134.921 343.234 129.173 342.691 123.621 341.594C123.471 341.559 123.321 341.502 123.194 341.409C116.673 336.928 117.054 330.773 117.896 326.534C118.012 325.934 118.589 325.518 119.201 325.622C119.812 325.714 120.239 326.257 120.182 326.869C120.043 328.324 120.77 329.572 122.409 330.692C130.235 336.051 155.813 335.519 164.827 331.027C166.316 330.288 167.193 329.479 167.228 328.809C167.262 328.197 167.77 327.712 168.382 327.712H168.394C169.017 327.724 169.525 328.22 169.536 328.844C169.652 334.11 166.316 338.395 159.633 341.606C159.529 341.652 159.425 341.687 159.31 341.71C152.869 342.726 146.775 343.234 140.958 343.234ZM124.302 339.377C134.829 341.421 146.106 341.444 158.767 339.458C162.669 337.563 165.196 335.369 166.397 332.817C166.224 332.909 166.039 333.013 165.843 333.106C156.978 337.517 130.143 338.811 121.094 332.609C120.574 332.251 120.136 331.893 119.766 331.523C119.951 334.849 121.417 337.321 124.302 339.377Z" fill="#242424"/>
<path d="M136.791 323.196C136.029 323.196 135.325 322.688 135.117 321.914C134.864 320.991 135.406 320.043 136.329 319.789L154.035 314.973C154.959 314.719 155.905 315.262 156.159 316.186C156.413 317.11 155.87 318.057 154.947 318.311L137.241 323.127C137.103 323.173 136.953 323.196 136.791 323.196Z" fill="#242424"/>
<path d="M137.253 322.319C136.768 322.319 136.283 322.111 135.937 321.718L126.241 310.435C125.618 309.707 125.699 308.61 126.426 307.986C127.153 307.363 128.25 307.443 128.873 308.171L138.569 319.454C139.192 320.182 139.111 321.279 138.384 321.903C138.061 322.18 137.657 322.319 137.253 322.319Z" fill="#242424"/>
<path d="M138.534 317.075C138.061 317.075 137.587 316.879 137.241 316.498L128.134 306.346C127.5 305.63 127.557 304.533 128.261 303.898C128.977 303.263 130.073 303.32 130.708 304.025L139.815 314.177C140.45 314.893 140.392 315.99 139.688 316.625C139.353 316.925 138.938 317.075 138.534 317.075Z" fill="#242424"/>
<path d="M140.265 312.248C139.792 312.248 139.319 312.052 138.973 311.67L130.304 301.958C129.67 301.242 129.727 300.144 130.443 299.509C131.158 298.874 132.255 298.932 132.89 299.648L141.558 309.361C142.193 310.077 142.135 311.174 141.42 311.809C141.085 312.098 140.669 312.248 140.265 312.248Z" fill="#242424"/>
<path d="M137.957 318.057C137.195 318.057 136.491 317.549 136.283 316.775C136.029 315.851 136.572 314.904 137.495 314.65L152.892 310.458C153.816 310.204 154.762 310.746 155.016 311.67C155.27 312.594 154.728 313.541 153.804 313.795L138.407 317.988C138.257 318.034 138.107 318.057 137.957 318.057Z" fill="#242424"/>
<path d="M138.961 313.276C138.199 313.276 137.495 312.768 137.287 311.994C137.033 311.07 137.576 310.123 138.499 309.869L151.865 306.231C152.789 305.977 153.735 306.52 153.989 307.443C154.243 308.367 153.7 309.314 152.777 309.568L139.411 313.206C139.273 313.253 139.123 313.276 138.961 313.276Z" fill="#242424"/>
<path d="M138.88 309.326C138.107 309.326 137.414 308.806 137.207 308.032C136.964 307.109 137.518 306.161 138.442 305.919L154.058 301.819C154.982 301.576 155.928 302.131 156.17 303.055C156.413 303.979 155.859 304.926 154.935 305.168L139.319 309.268C139.169 309.314 139.019 309.326 138.88 309.326Z" fill="#242424"/>
<path d="M167.851 306.427L160.233 310.019C159.587 310.319 159.172 310.966 159.148 311.67C158.975 316.151 159.887 319.743 162.242 322.169C162.946 322.896 163.985 323.185 164.966 322.989L168.221 322.319L167.851 306.427Z" fill="#242424"/>
<path d="M164.331 324.213C163.234 324.213 162.172 323.774 161.399 322.977C158.941 320.448 157.786 316.625 157.983 311.624C158.029 310.481 158.698 309.453 159.737 308.968L167.355 305.376C167.713 305.214 168.128 305.238 168.451 305.434C168.786 305.642 168.994 306 168.994 306.392L169.363 322.284C169.375 322.838 168.982 323.335 168.44 323.439L165.185 324.109C164.908 324.19 164.619 324.213 164.331 324.213ZM166.743 308.24L160.73 311.081C160.476 311.197 160.314 311.451 160.303 311.74C160.129 316.14 161.03 319.293 163.061 321.383C163.477 321.811 164.112 321.995 164.723 321.88L167.043 321.406L166.743 308.24Z" fill="#242424"/>
<path d="M135.013 332.17C130.824 332.17 127.142 330.946 124.695 328.983C121.359 326.303 120.274 322.342 121.74 318.126C121.751 318.08 121.775 318.046 121.786 318.011L131.412 297.8C131.655 297.292 132.22 297.038 132.763 297.188L151.438 302.385C152.015 302.547 152.373 303.124 152.258 303.713C151.773 306.219 151.992 309.557 152.95 314.535C153.181 315.747 153.827 316.844 154.808 317.722C157.567 320.194 158.825 322.931 158.525 325.841C158.444 326.684 158.017 327.423 157.325 327.943C156.632 328.463 155.743 328.682 154.878 328.521L150.942 327.804C149.845 327.608 148.76 327.805 147.86 328.347C143.532 331.05 139.042 332.17 135.013 332.17ZM123.91 318.946C122.802 322.215 123.598 325.137 126.149 327.181C130.2 330.438 138.776 331.269 146.671 326.396C148.045 325.552 149.718 325.252 151.369 325.541L155.305 326.257C155.524 326.303 155.766 326.245 155.951 326.107C156.043 326.037 156.205 325.876 156.24 325.61C156.459 323.45 155.489 321.429 153.285 319.455C151.923 318.242 151.034 316.694 150.699 314.985C149.799 310.342 149.534 306.993 149.845 304.348L133.086 299.671L123.91 318.946Z" fill="#242424"/>
<path d="M126.114 249.548L115.507 257.517L116.442 264.273L129.358 262.425L126.114 249.548Z" fill="#74698B"/>
<g opacity="0.3">
<path d="M126.114 249.548L115.507 257.517L116.442 264.273L129.358 262.425L126.114 249.548Z" fill="#242424"/>
</g>
<path d="M117.885 264.273L119.432 279.414C119.536 280.43 120.355 281.239 121.371 281.319L129.37 281.966L128.492 262.541L117.885 264.273Z" fill="#74698B"/>
<g opacity="0.3">
<path d="M117.885 264.273L119.432 279.414C119.536 280.43 120.355 281.239 121.371 281.319L129.37 281.966L128.492 262.541L117.885 264.273Z" fill="#242424"/>
</g>
<path d="M116.442 266.017C116.073 266.017 115.703 265.901 115.403 265.67C115.034 265.393 114.792 264.977 114.734 264.527L113.799 257.771C113.718 257.147 113.972 256.523 114.48 256.142L125.087 248.173C125.549 247.827 126.161 247.735 126.703 247.931C127.246 248.127 127.661 248.578 127.811 249.144L131.055 262.021C131.17 262.494 131.089 263.002 130.812 263.407C130.535 263.811 130.108 264.088 129.623 264.157L116.696 266.005C116.604 266.005 116.523 266.017 116.442 266.017ZM117.354 258.29L117.908 262.31L127.199 260.981L125.064 252.493L117.354 258.29Z" fill="#242424"/>
<path d="M129.358 283.71C129.312 283.71 129.265 283.71 129.219 283.71L121.22 283.063C119.362 282.913 117.885 281.458 117.7 279.61L116.153 264.469C116.061 263.557 116.696 262.725 117.596 262.587L128.204 260.854C128.688 260.774 129.185 260.912 129.577 261.224C129.969 261.536 130.189 261.998 130.212 262.494L131.089 281.92C131.112 282.417 130.916 282.902 130.558 283.248C130.247 283.537 129.808 283.71 129.358 283.71ZM119.778 265.728L121.151 279.241C121.174 279.425 121.324 279.575 121.509 279.587L127.546 280.084L126.842 264.573L119.778 265.728Z" fill="#242424"/>
<path d="M174.142 251.199L173.784 260.323L172.664 288.584C172.618 289.635 172.191 290.616 171.452 291.356L168.544 294.266C168.001 294.809 167.689 295.548 167.689 296.322V302.627C156.136 305.515 142.804 303.898 132.463 298.297V292.233C129.877 292.233 127.753 290.189 127.65 287.614L125.549 236.774L174.142 251.199Z" fill="#74698B"/>
<g opacity="0.6">
<path d="M172.122 262.425C171.752 262.437 171.579 266.178 170.01 280.245C169.952 280.8 169.686 283.029 168.821 285.789C168.232 287.66 167.863 288.861 167.055 289.923C165.6 291.829 163.338 292.522 159.91 293.099C156.621 293.654 151.865 294.185 145.909 293.896C154.197 295.409 160.268 294.982 163.858 294.462C166.028 294.15 168.209 293.677 169.894 291.945C172.156 289.635 172.272 286.378 172.318 284.195C172.526 273.316 172.745 262.402 172.122 262.425Z" fill="white"/>
</g>
<path d="M155.905 305.792C147.421 305.792 138.88 303.748 131.643 299.821C131.089 299.521 130.731 298.932 130.731 298.297V293.735C128.042 293.007 126.045 290.605 125.918 287.683L123.818 236.844C123.795 236.289 124.048 235.747 124.487 235.4C124.926 235.054 125.514 234.95 126.045 235.111L174.627 249.548C175.388 249.779 175.896 250.483 175.862 251.28L174.384 288.653C174.326 290.143 173.715 291.54 172.664 292.591L169.756 295.502C169.536 295.721 169.409 296.021 169.409 296.333V302.639C169.409 303.436 168.867 304.129 168.094 304.325C164.158 305.307 160.037 305.792 155.905 305.792ZM134.194 297.246C143.555 302.015 155.501 303.517 165.958 301.253V296.322C165.958 295.086 166.443 293.919 167.32 293.042L170.229 290.131C170.656 289.704 170.91 289.127 170.933 288.514L172.353 252.481L127.384 239.119L129.381 287.533C129.45 289.196 130.801 290.489 132.463 290.489C133.421 290.489 134.194 291.263 134.194 292.222V297.246Z" fill="#242424"/>
<path d="M129.289 285.258C129.208 289.808 135.741 291.367 139.411 292.349C144.328 293.492 149.453 294.081 154.555 294.612C154.97 294.659 155.27 295.028 155.236 295.444C155.189 295.837 154.855 296.137 154.451 296.125C149.245 295.917 144.074 295.652 138.915 294.797C133.721 293.919 125.999 291.864 125.826 285.269C125.826 282.867 129.3 282.867 129.289 285.258Z" fill="#242424"/>
<g opacity="0.3">
<path d="M141.604 291.933C141.523 292.718 141.731 293.515 142.262 294.093C142.4 294.243 142.608 294.405 142.966 294.578C144.617 295.375 145.771 294.439 146.717 295.074C147.491 295.594 147.075 296.449 147.802 297.592C148.633 298.897 150.134 299.313 151.138 299.602C153.389 300.225 159.402 300.722 167.689 300.837V302.639C156.136 305.526 142.804 303.909 132.463 298.308V292.245C129.877 292.245 127.753 290.201 127.65 287.625L125.549 236.786L174.13 251.222L173.772 260.346C170.529 262.933 166.893 263.719 166.397 263.822C161.999 264.712 160.533 263.418 152.315 263.834C150.295 263.938 148.183 264.284 146.613 265.555C144.259 267.449 143.786 270.775 143.474 273.778L141.604 291.933Z" fill="#242424"/>
</g>
<g opacity="0.3">
<path d="M168.071 315.967C166.87 317.306 165.601 318.276 164.25 318.981C152.869 324.929 139.146 312.421 125.364 319.327C123.656 320.182 122.202 321.21 120.978 322.261L134.483 294.936L167.69 299.602L168.071 315.967Z" fill="#242424"/>
</g>
<path d="M189.481 329.595C189.458 330.472 189.585 331.339 189.908 332.159C191.282 335.635 193.937 338.176 197.503 340.058C198.207 340.428 198.969 340.682 199.754 340.797C211.181 342.46 222.054 342.495 232.395 340.924C233.815 340.705 235.142 340.047 236.124 338.996C238.767 336.189 239.748 332.332 238.94 327.331C238.79 326.43 238.501 325.564 238.097 324.756L236.862 322.261L223.358 294.936L190.151 299.602L189.77 315.967L189.481 329.595Z" fill="#50468F"/>
<path d="M235.039 318.507C238.813 329.433 223.335 335.231 210.592 327.377C209.438 326.661 208.041 326.442 206.702 326.684L202.767 327.4C201.67 327.597 200.597 326.846 200.481 325.737C200.204 323.069 201.451 320.713 203.817 318.6C204.948 317.584 205.744 316.255 206.033 314.766C206.853 310.539 207.314 306.589 206.726 303.505L225.401 298.308L235.039 318.507Z" fill="white"/>
<path d="M216.882 343.8C211.204 343.8 205.398 343.373 199.511 342.506C198.53 342.368 197.584 342.056 196.707 341.594C192.575 339.423 189.747 336.466 188.304 332.794C187.911 331.8 187.727 330.715 187.761 329.56L188.454 299.555C188.477 298.701 189.1 297.996 189.943 297.881L223.15 293.215C223.889 293.111 224.616 293.492 224.939 294.162L239.678 323.97C240.175 324.963 240.509 326.003 240.671 327.042C241.548 332.528 240.452 336.951 237.405 340.174C236.17 341.479 234.496 342.345 232.672 342.622C227.547 343.407 222.273 343.8 216.882 343.8ZM191.87 301.115L191.213 329.641C191.201 330.334 191.305 330.969 191.524 331.523C192.667 334.434 194.895 336.732 198.323 338.522C198.854 338.799 199.431 338.984 200.019 339.076C211.169 340.705 221.973 340.751 232.153 339.203C233.215 339.042 234.184 338.545 234.888 337.806C237.185 335.369 237.959 332.031 237.255 327.608C237.139 326.904 236.92 326.211 236.574 325.518L222.388 296.83L191.87 301.115Z" fill="#242424"/>
<path d="M189.504 328.867C189.897 337.055 240.036 339.654 238.847 326.765C239.886 331.939 239.401 336.767 234.023 340.462C222.827 342.668 211.019 342.518 198.75 340.566C192.413 337.529 189.4 333.614 189.504 328.867Z" fill="white"/>
<path d="M216.917 343.234C211.088 343.234 205.006 342.726 198.565 341.698C198.45 341.675 198.346 341.652 198.242 341.594C191.559 338.395 188.223 334.099 188.339 328.832C188.35 328.209 188.858 327.712 189.481 327.701C190.081 327.666 190.624 328.174 190.647 328.798C190.682 329.468 191.547 330.276 193.048 331.015C202.062 335.496 227.64 336.039 235.466 330.68C237.093 329.56 237.832 328.313 237.693 326.857C237.635 326.245 238.074 325.691 238.674 325.61C239.286 325.518 239.852 325.922 239.979 326.523C240.821 330.761 241.202 336.917 234.681 341.398C234.554 341.49 234.404 341.548 234.254 341.583C228.702 342.691 222.942 343.234 216.917 343.234ZM199.096 339.446C211.758 341.444 223.035 341.409 233.561 339.365C236.447 337.321 237.912 334.838 238.097 331.512C237.728 331.881 237.289 332.251 236.77 332.597C227.721 338.799 200.885 337.506 192.021 333.094C191.824 333.002 191.651 332.898 191.467 332.805C192.667 335.358 195.195 337.552 199.096 339.446Z" fill="#242424"/>
<path d="M221.073 323.196C220.922 323.196 220.772 323.173 220.611 323.139L202.905 318.323C201.982 318.069 201.439 317.122 201.693 316.198C201.947 315.274 202.894 314.731 203.817 314.985L221.523 319.801C222.446 320.055 222.989 321.002 222.735 321.926C222.538 322.688 221.834 323.196 221.073 323.196Z" fill="#242424"/>
<path d="M220.611 322.319C220.207 322.319 219.814 322.18 219.48 321.903C218.752 321.279 218.672 320.182 219.295 319.454L228.99 308.171C229.614 307.443 230.71 307.363 231.437 307.986C232.165 308.61 232.245 309.707 231.622 310.435L221.927 321.718C221.592 322.111 221.107 322.319 220.611 322.319Z" fill="#242424"/>
<path d="M219.341 317.075C218.926 317.075 218.51 316.925 218.187 316.637C217.471 316.001 217.414 314.904 218.06 314.188L227.167 304.036C227.802 303.32 228.898 303.263 229.614 303.909C230.329 304.545 230.387 305.642 229.741 306.358L220.634 316.509C220.288 316.879 219.814 317.075 219.341 317.075Z" fill="#242424"/>
<path d="M217.61 312.248C217.194 312.248 216.79 312.098 216.456 311.809C215.74 311.174 215.682 310.077 216.317 309.361L224.985 299.648C225.62 298.932 226.717 298.874 227.432 299.509C228.148 300.144 228.206 301.242 227.571 301.958L218.902 311.67C218.556 312.052 218.083 312.248 217.61 312.248Z" fill="#242424"/>
<path d="M219.918 318.057C219.768 318.057 219.618 318.034 219.456 317.999L204.059 313.807C203.136 313.553 202.593 312.606 202.847 311.682C203.101 310.758 204.048 310.215 204.971 310.469L220.368 314.662C221.292 314.916 221.834 315.863 221.58 316.787C221.384 317.549 220.68 318.057 219.918 318.057Z" fill="#242424"/>
<path d="M218.903 313.276C218.752 313.276 218.602 313.253 218.452 313.218L205.086 309.58C204.163 309.326 203.621 308.379 203.875 307.455C204.128 306.531 205.075 305.988 205.998 306.242L219.364 309.88C220.288 310.134 220.83 311.081 220.576 312.005C220.368 312.768 219.664 313.276 218.903 313.276Z" fill="#242424"/>
<path d="M218.995 309.326C218.845 309.326 218.706 309.303 218.556 309.268L202.94 305.18C202.016 304.937 201.462 303.99 201.705 303.066C201.947 302.142 202.893 301.588 203.817 301.831L219.434 305.93C220.357 306.173 220.911 307.12 220.669 308.044C220.461 308.806 219.757 309.326 218.995 309.326Z" fill="#242424"/>
<path d="M190.012 306.427L197.63 310.019C198.276 310.319 198.692 310.966 198.715 311.67C198.888 316.151 197.976 319.743 195.622 322.169C194.918 322.896 193.879 323.185 192.898 322.989L189.643 322.319L190.012 306.427Z" fill="#242424"/>
<path d="M193.533 324.213C193.244 324.213 192.967 324.19 192.679 324.12L189.424 323.45C188.881 323.335 188.489 322.85 188.5 322.296L188.87 306.404C188.881 306.011 189.089 305.653 189.412 305.445C189.747 305.238 190.162 305.214 190.509 305.388L198.126 308.979C199.165 309.465 199.835 310.481 199.881 311.636C200.077 316.637 198.923 320.459 196.464 322.989C195.691 323.785 194.641 324.213 193.533 324.213ZM190.832 321.383L193.152 321.857C193.764 321.984 194.398 321.799 194.814 321.36C196.845 319.27 197.746 316.117 197.572 311.717C197.561 311.428 197.399 311.185 197.145 311.058L191.132 308.217L190.832 321.383Z" fill="#242424"/>
<path d="M222.85 332.17C218.833 332.17 214.332 331.05 209.98 328.359C209.092 327.805 207.995 327.62 206.899 327.816L202.963 328.532C202.109 328.682 201.22 328.474 200.516 327.955C199.835 327.435 199.408 326.696 199.315 325.853C199.015 322.942 200.262 320.217 203.032 317.734C204.013 316.856 204.648 315.759 204.89 314.546C205.848 309.568 206.068 306.231 205.583 303.725C205.467 303.136 205.825 302.558 206.402 302.396L225.078 297.199C225.62 297.049 226.186 297.303 226.428 297.811L236.054 318.022C236.077 318.057 236.089 318.103 236.101 318.138C237.555 322.353 236.481 326.315 233.146 328.994C230.722 330.946 227.051 332.17 222.85 332.17ZM207.741 325.425C208.965 325.425 210.165 325.749 211.192 326.384C219.087 331.258 227.663 330.426 231.714 327.169C234.265 325.125 235.062 322.192 233.954 318.935L224.766 299.671L208.018 304.337C208.33 306.993 208.064 310.342 207.164 314.973C206.829 316.683 205.941 318.23 204.579 319.443C202.363 321.429 201.393 323.439 201.624 325.599C201.647 325.864 201.809 326.014 201.912 326.095C202.097 326.234 202.328 326.292 202.559 326.245L206.495 325.529C206.91 325.472 207.326 325.425 207.741 325.425Z" fill="#242424"/>
<path d="M231.761 249.548L242.368 257.517L241.433 264.273L228.506 262.425L231.761 249.548Z" fill="#74698B"/>
<g opacity="0.3">
<path d="M231.761 249.548L242.368 257.517L241.433 264.273L228.506 262.425L231.761 249.548Z" fill="#242424"/>
</g>
<path d="M239.99 264.273L238.443 279.414C238.34 280.43 237.52 281.239 236.504 281.319L228.506 281.966L229.383 262.541L239.99 264.273Z" fill="#74698B"/>
<g opacity="0.3">
<path d="M239.99 264.273L238.443 279.414C238.34 280.43 237.52 281.239 236.504 281.319L228.506 281.966L229.383 262.541L239.99 264.273Z" fill="#242424"/>
</g>
<path d="M241.433 266.017C241.352 266.017 241.271 266.017 241.191 265.994L228.275 264.146C227.79 264.077 227.352 263.799 227.086 263.395C226.809 262.991 226.728 262.483 226.844 262.009L230.087 249.132C230.226 248.566 230.641 248.116 231.195 247.919C231.738 247.723 232.349 247.815 232.811 248.162L243.418 256.131C243.926 256.512 244.18 257.136 244.099 257.759L243.164 264.515C243.107 264.977 242.853 265.382 242.495 265.659C242.172 265.89 241.802 266.017 241.433 266.017ZM230.653 260.981L239.944 262.31L240.498 258.29L232.788 252.493L230.653 260.981Z" fill="#242424"/>
<path d="M228.506 283.71C228.055 283.71 227.628 283.537 227.305 283.225C226.947 282.878 226.751 282.393 226.774 281.897L227.651 262.471C227.675 261.975 227.905 261.513 228.286 261.201C228.667 260.889 229.164 260.75 229.66 260.831L240.267 262.564C241.167 262.714 241.802 263.534 241.71 264.446L240.163 279.587C239.979 281.435 238.49 282.89 236.643 283.04L228.644 283.687C228.598 283.71 228.552 283.71 228.506 283.71ZM231.022 264.573L230.318 280.084L236.354 279.587C236.539 279.575 236.689 279.425 236.712 279.241L238.086 265.728L231.022 264.573Z" fill="#242424"/>
<path d="M183.733 251.199L184.091 260.323L185.211 288.584C185.257 289.635 185.684 290.616 186.423 291.356L189.331 294.266C189.874 294.809 190.186 295.548 190.186 296.322V302.627C201.739 305.515 215.071 303.898 225.412 298.297V292.233C227.998 292.233 230.122 290.189 230.225 287.614L232.326 236.774L183.733 251.199Z" fill="#74698B"/>
<g opacity="0.6">
<path d="M185.753 262.425C186.123 262.437 186.296 266.178 187.866 280.245C187.923 280.8 188.189 283.029 189.054 285.789C189.643 287.66 190.012 288.861 190.82 289.923C192.275 291.829 194.537 292.522 197.965 293.099C201.255 293.654 206.01 294.185 211.966 293.896C203.678 295.409 197.607 294.982 194.018 294.462C191.848 294.15 189.666 293.677 187.981 291.945C185.719 289.635 185.603 286.378 185.557 284.195C185.349 273.316 185.13 262.402 185.753 262.425Z" fill="white"/>
</g>
<path d="M201.97 305.792C197.838 305.792 193.717 305.307 189.758 304.314C188.985 304.117 188.443 303.424 188.443 302.627V296.322C188.443 296.01 188.316 295.71 188.096 295.49L185.188 292.58C184.137 291.529 183.526 290.131 183.468 288.642L181.99 251.269C181.956 250.472 182.464 249.767 183.225 249.536L231.807 235.1C232.338 234.938 232.926 235.054 233.365 235.389C233.803 235.735 234.057 236.266 234.034 236.832L231.934 287.671C231.818 290.593 229.81 292.996 227.121 293.723V298.285C227.121 298.92 226.774 299.509 226.209 299.809C218.995 303.748 210.454 305.792 201.97 305.792ZM191.905 301.253C202.351 303.517 214.309 302.015 223.669 297.246V292.222C223.669 291.263 224.443 290.489 225.401 290.489C227.063 290.489 228.413 289.196 228.483 287.533L230.479 239.119L185.511 252.481L186.931 288.514C186.954 289.127 187.208 289.704 187.635 290.131L190.543 293.042C191.42 293.919 191.905 295.086 191.905 296.322V301.253Z" fill="#242424"/>
<path d="M232.049 285.258C231.864 291.864 224.166 293.908 218.96 294.786C213.801 295.652 208.618 295.906 203.424 296.114C203.009 296.125 202.651 295.802 202.639 295.386C202.628 294.982 202.928 294.647 203.32 294.601C208.434 294.07 213.547 293.481 218.464 292.337C221.961 291.39 227.097 290.189 228.425 286.597C228.552 286.158 228.598 285.685 228.586 285.211C228.575 284.253 229.337 283.467 230.283 283.444C231.276 283.433 232.084 284.264 232.049 285.258Z" fill="#242424"/>
<g opacity="0.3">
<path d="M216.259 291.933C216.34 292.718 216.132 293.515 215.601 294.093C215.463 294.243 215.255 294.405 214.897 294.578C213.247 295.375 212.093 294.439 211.146 295.074C210.373 295.594 210.788 296.449 210.061 297.592C209.23 298.897 207.73 299.313 206.726 299.602C204.475 300.225 198.461 300.722 190.174 300.837V302.639C201.728 305.526 215.059 303.909 225.401 298.308V292.245C227.986 292.245 230.11 290.201 230.214 287.625L232.315 236.786L183.733 251.222L184.091 260.346C187.335 262.933 190.97 263.719 191.467 263.822C195.864 264.712 197.33 263.418 205.548 263.834C207.568 263.938 209.68 264.284 211.25 265.555C213.605 267.449 214.078 270.775 214.39 273.778L216.259 291.933Z" fill="#242424"/>
</g>
<g opacity="0.3">
<path d="M189.804 315.967C191.005 317.306 192.274 318.276 193.625 318.981C205.006 324.929 218.729 312.421 232.511 319.327C234.219 320.182 235.673 321.21 236.897 322.261L223.392 294.936L190.185 299.602L189.804 315.967Z" fill="#242424"/>
</g>
<path d="M235.742 147.05C240.879 186.663 243.984 223.031 231.991 235.458C235.662 249.86 215.821 257.701 178.666 257.701H179.151C141.996 257.701 122.155 249.86 125.826 235.458C113.833 223.031 116.938 186.663 122.075 147.05L126.599 118.35L230.168 119.389L235.742 147.05Z" fill="#FFF801"/>
<g opacity="0.6">
<path d="M169.606 257.517C158.271 256.731 148.622 255.311 140.831 253.301C148.091 255.611 157.763 257.032 169.606 257.517Z" fill="white"/>
<path d="M235.743 147.05C234.946 143.631 234.173 140.155 233.434 136.598C232.199 130.719 231.114 124.979 230.168 119.389C212.473 119.205 194.779 119.031 177.085 118.858L230.433 122.97C232.199 130.996 233.977 139.023 235.743 147.05C233.273 160.088 233.596 170.46 234.392 177.678C235.292 185.751 236.816 190.024 237.081 200.603C237.37 212.106 235.569 219.347 235.154 221.022C233.33 228.471 230.583 234.28 228.413 238.16C228.332 239.639 228.032 242.122 226.682 244.709C222.434 252.805 211.781 254.283 211.919 254.687C212.058 255.103 224.062 254.883 229.498 246.187C232.107 242.006 232.118 237.606 231.98 235.469C238.386 221.241 239.99 209.495 240.279 201.457C240.452 196.711 240.163 193.315 238.039 171.118C237.428 164.57 236.654 156.439 235.743 147.05Z" fill="white"/>
</g>
<path d="M236.574 146.946C238.49 154.291 238.986 161.832 239.932 169.328C241.618 187.136 246.119 222.904 233.226 236.659L233.653 235.031C234.9 239.535 233.665 244.582 230.283 247.862C221.961 256.096 206.148 257.84 194.952 258.856C189.516 259.261 184.08 259.434 178.643 259.434V255.969H179.128C180.086 255.969 180.859 256.743 180.859 257.701C180.859 258.66 180.086 259.434 179.128 259.434C173.692 259.422 168.255 259.261 162.819 258.856C150.676 257.782 125.053 255.068 123.668 239.581C123.575 238.022 123.771 236.486 124.118 235.031L124.545 236.659C111.548 222.973 115.946 187.148 117.666 169.305C118.508 161.786 119.385 154.291 121.267 146.946C121.371 146.518 121.809 146.264 122.236 146.38C122.594 146.472 122.836 146.795 122.836 147.153C122.675 158.495 120.863 169.605 120.205 180.877C119.374 195.359 117.146 223.1 127.061 234.257C127.476 234.719 127.615 235.331 127.488 235.885C126.553 239.327 127.419 242.953 129.993 245.459C137.587 252.851 152.812 254.468 163.084 255.403C168.417 255.796 173.772 255.969 179.128 255.969V259.434H178.643C177.685 259.434 176.912 258.66 176.912 257.701C176.912 256.743 177.685 255.969 178.643 255.969C183.999 255.958 189.366 255.796 194.687 255.403C205.306 254.514 234.115 251.534 230.283 235.885C230.145 235.285 230.329 234.673 230.71 234.257C233.007 231.785 234.565 228.528 235.639 225.098C238.767 214.462 238.663 203.155 238.351 192.079C237.959 180.854 236.885 169.605 235.65 158.425C235.223 154.695 234.831 150.953 234.877 147.153C234.877 146.68 235.269 146.31 235.731 146.31C236.147 146.322 236.481 146.588 236.574 146.946Z" fill="#242424"/>
<path d="M121.867 224.336C125.434 237.121 140.635 240.667 152.142 242.734C159.887 244.05 167.69 244.743 175.527 245.471C176.058 245.517 176.45 245.991 176.404 246.522C176.358 247.019 175.942 247.388 175.458 247.4C174.13 247.434 172.814 247.446 171.487 247.446C170.483 247.446 168.509 247.423 167.517 247.388C154.82 246.938 139.492 245.494 128.492 238.622C123.691 235.654 119.801 230.792 118.508 225.202C118 222.973 121.232 222.13 121.867 224.336Z" fill="#242424"/>
<path d="M239.344 225.202C234.646 244.385 206.679 246.776 190.336 247.388C187.773 247.469 184.945 247.469 182.383 247.4C181.206 247.365 181.102 245.598 182.314 245.471C187.554 244.986 192.782 244.524 197.965 243.866C208.03 242.514 218.602 240.967 227.363 235.55C231.507 232.94 234.704 229.083 235.973 224.336C236.608 222.142 239.852 222.95 239.344 225.202Z" fill="#242424"/>
<g opacity="0.2">
<path d="M129.231 247.146C167.309 261.27 202.905 256.766 223.704 240.967C188.062 248.462 140.831 245.806 124.556 233.991L129.231 247.146Z" fill="#242424"/>
</g>
<path d="M191.926 159.86C191.804 158.979 190.947 158.417 190.099 158.628C185.328 159.765 180.538 159.606 176.126 158.386C175.194 158.128 174.216 158.709 174.04 159.677L173.499 162.656C173.387 163.274 173.755 163.876 174.348 164.045C174.863 164.191 175.412 163.968 175.687 163.5L176.696 161.785C176.917 161.408 177.347 161.218 177.77 161.299C178.202 161.382 178.54 161.734 178.6 162.179L178.843 163.995C178.923 164.593 179.394 165.057 179.982 165.119C180.562 165.179 181.109 164.833 181.314 164.277L181.963 162.516C182.116 162.1 182.515 161.835 182.95 161.843C183.385 161.852 183.773 162.133 183.91 162.555L184.487 164.341C184.67 164.905 185.202 165.273 185.783 165.236C186.374 165.198 186.863 164.753 186.967 164.159L187.284 162.347C187.361 161.905 187.707 161.567 188.143 161.502C188.569 161.438 188.996 161.645 189.201 162.031L190.142 163.794C190.398 164.272 190.935 164.518 191.455 164.394C192.055 164.252 192.449 163.666 192.364 163.043L191.926 159.86Z" fill="#242424"/>
<path d="M188.706 165.75C188.177 165.612 187.614 165.821 187.333 166.259L186.304 167.863C186.079 168.214 185.639 168.391 185.207 168.314C184.764 168.236 184.418 167.907 184.356 167.492L184.105 165.792C184.022 165.231 183.537 164.795 182.932 164.737C182.337 164.679 181.776 165.002 181.567 165.524L180.907 167.164C180.751 167.552 180.341 167.799 179.895 167.79C179.45 167.781 179.055 167.518 178.915 167.124L178.321 165.455C178.133 164.928 177.588 164.583 176.993 164.617C176.389 164.651 175.889 165.065 175.784 165.62L175.463 167.305C175.385 167.718 175.026 168.033 174.58 168.093C174.145 168.152 173.713 167.957 173.502 167.598L172.538 165.957C172.275 165.509 171.723 165.279 171.19 165.396C170.577 165.53 170.177 166.078 170.268 166.658L170.703 169.452C170.845 170.363 171.821 170.943 172.784 170.74C177.343 169.776 182.247 169.817 187.079 171.073C187.938 171.292 188.84 170.811 189 169.996L189.581 167.053C189.695 166.474 189.316 165.909 188.706 165.75Z" fill="#242424"/>
<path d="M146.288 80.7339C142.674 84.0313 137.242 86.0598 131.176 86.3994C120.698 86.9981 108.342 82.6194 100.155 71.2528C92.111 60.0827 92.5136 46.8127 94.9653 37.5728C96.4595 31.9609 98.7054 27.8414 100.271 26.5993C104.423 23.3019 127.892 18.1279 144.678 36.9115C161.464 55.704 154.404 73.3081 146.288 80.7339Z" fill="#FBA3CB"/>
<path d="M214.415 80.9127C218.012 84.2369 223.425 86.2832 229.501 86.6586C239.969 87.3109 252.353 82.9948 260.602 71.6728C268.7 60.5474 268.369 47.2684 265.971 38.0196C264.512 32.3988 262.293 28.2704 260.728 27.0193C256.594 23.6951 233.151 18.396 216.267 37.0992C199.374 55.8024 206.344 73.4511 214.415 80.9127Z" fill="#FBA3CB"/>
<path d="M129.19 88.1687C117.263 88.1687 106.015 82.3156 98.759 72.2447C89.0151 58.7244 91.6993 43.1846 93.3099 37.1349C93.3188 37.0992 93.3278 37.0634 93.3367 37.0366C94.8131 31.532 97.1126 26.9121 99.2063 25.25C104.289 21.2109 128.814 16.5731 145.966 35.7677C155.746 46.7144 157.106 56.7496 156.533 63.2371C155.898 70.3592 152.507 77.374 147.452 81.9939C143.541 85.5683 137.797 87.7398 131.274 88.1062C130.576 88.1509 129.879 88.1687 129.19 88.1687ZM96.6026 38.1C95.1173 43.7476 92.7104 57.9738 101.551 70.243C108.53 79.9386 119.571 85.3449 131.078 84.6837C136.732 84.362 141.85 82.4586 145.134 79.465C151.845 73.3259 160.121 56.7674 143.407 38.0464C134.755 28.3776 124.6 25.7146 117.611 25.1785C109.353 24.5529 102.946 26.6619 101.345 27.9308C100.343 28.7261 98.1863 32.1575 96.6294 38.0017C96.6205 38.0375 96.6115 38.0732 96.6026 38.1Z" fill="#242424"/>
<path d="M146.288 80.7339C142.674 84.0313 137.242 86.0598 131.176 86.3994C141.358 69.3047 133.135 40.6378 120.68 33.5426C107.241 25.8755 95.2515 37.2958 94.9741 37.5728C96.4594 31.9609 98.7053 27.8414 100.271 26.5993C104.423 23.3019 127.892 18.1279 144.678 36.9115C161.463 55.704 154.404 73.3081 146.288 80.7339Z" fill="#5C546C"/>
<g opacity="0.6">
<path d="M95.0725 37.2957C95.1083 37.26 95.3678 37.0098 95.8241 36.6255C97.0768 33.4354 98.4815 31.1656 99.5642 30.2988C103.698 26.9746 127.141 21.6844 144.025 40.3787C152.748 50.0385 155.102 59.4214 154.234 67.2583C156.489 58.7244 155.039 47.7509 144.776 36.3843C127.892 17.6722 104.45 22.9802 100.316 26.2954C98.75 27.5465 96.531 31.6839 95.0725 37.2957Z" fill="white"/>
</g>
<path d="M131.176 87.9632C130.63 87.9632 130.12 87.6772 129.834 87.2126C129.53 86.7211 129.53 86.0956 129.825 85.6041C134.487 77.7672 135.48 66.3022 132.473 54.9266C130.013 45.5974 125.19 37.9213 119.893 34.9009C107.546 27.8504 96.5222 38.243 96.0569 38.6898C95.5558 39.1813 94.7863 39.2706 94.1779 38.9132C93.5695 38.5558 93.2742 37.8409 93.4532 37.1617C94.9027 31.7375 97.2469 26.9925 99.3049 25.3661C104.36 21.3449 128.769 16.7428 145.85 35.866C155.594 46.7769 156.954 56.7674 156.381 63.2193C155.755 70.3056 152.373 77.2846 147.344 81.8777C143.461 85.4254 137.753 87.5879 131.257 87.9543C131.23 87.9632 131.203 87.9632 131.176 87.9632ZM110.999 29.3159C114.265 29.3159 117.799 30.1023 121.459 32.1844C127.543 35.6605 132.796 43.8638 135.507 54.1313C138.397 65.0869 137.779 76.2034 133.914 84.5407C138.459 83.8347 142.486 82.0922 145.224 79.5812C151.97 73.4064 160.3 56.7585 143.506 37.957C127.749 20.3083 105.228 24.6513 101.246 27.8146C100.54 28.3776 99.2512 30.2363 98.0075 33.3192C101.094 31.4069 105.667 29.3159 110.999 29.3159Z" fill="#242424"/>
<g opacity="0.2">
<path d="M135.748 68.8043C134.755 69.1796 133.69 69.3851 132.59 69.3762C126.872 69.3583 122.246 63.8627 122.264 57.0891C122.282 51.1913 125.807 46.2676 130.496 45.1148C133.878 51.9062 135.918 60.4848 135.748 68.8043Z" fill="#242424"/>
</g>
<path d="M132.607 71.0919C132.599 71.0919 132.59 71.0919 132.581 71.0919C125.924 71.0741 120.528 64.792 120.546 57.0802C120.564 50.539 124.573 44.8021 130.084 43.4438C130.863 43.2472 131.677 43.6225 132.035 44.3463C135.659 51.6203 137.636 60.5474 137.457 68.84C137.439 69.5371 137.001 70.1626 136.348 70.4039C135.158 70.8685 133.896 71.0919 132.607 71.0919ZM129.601 47.2327C126.291 48.7518 123.991 52.6658 123.982 57.0891C123.964 62.9065 127.83 67.6515 132.59 67.6605C133.082 67.6605 133.565 67.6158 134.03 67.5175C133.985 60.6457 132.402 53.3896 129.601 47.2327Z" fill="#242424"/>
<path d="M132.607 71.0919C132.599 71.0919 132.59 71.0919 132.581 71.0919C125.924 71.0741 120.528 64.792 120.546 57.0802C120.564 50.539 124.573 44.8021 130.084 43.4438C130.863 43.2472 131.677 43.6225 132.035 44.3463C135.659 51.6203 137.636 60.5474 137.457 68.84C137.439 69.5371 137.001 70.1626 136.348 70.4039C135.158 70.8685 133.896 71.0919 132.607 71.0919ZM129.601 47.2327C126.291 48.7518 123.991 52.6658 123.982 57.0891C123.964 62.9065 127.83 67.6515 132.59 67.6605C133.082 67.6605 133.565 67.6158 134.03 67.5175C133.985 60.6457 132.402 53.3896 129.601 47.2327Z" fill="#242424"/>
<path d="M231.675 88.4457C230.914 88.4457 230.163 88.4189 229.393 88.3742C222.871 87.9721 217.144 85.7649 213.252 82.1726C208.223 77.5169 204.859 70.4932 204.269 63.3622C203.723 56.8746 205.145 46.8484 214.979 35.9553C232.239 16.85 256.737 21.6129 261.801 25.6878C263.886 27.3588 266.159 31.9877 267.608 37.5013C267.617 37.537 267.626 37.5638 267.635 37.5996C269.21 43.6582 271.814 59.2159 261.998 72.6914C254.724 82.6641 243.522 88.4457 231.675 88.4457ZM215.587 79.6526C218.853 82.6641 223.962 84.5943 229.608 84.9517C241.115 85.6666 252.174 80.3318 259.207 70.6719C268.109 58.4474 265.774 44.2033 264.325 38.5557C264.316 38.52 264.307 38.4932 264.298 38.4574C262.777 32.6043 260.638 29.1639 259.645 28.3686C258.052 27.0908 251.655 24.9461 243.396 25.5269C236.399 26.0184 226.235 28.6278 217.538 38.2608C200.716 56.8746 208.903 73.4778 215.587 79.6526Z" fill="#242424"/>
<path d="M214.415 80.9127C218.012 84.2369 223.425 86.2832 229.501 86.6586C219.417 69.5103 227.792 40.8881 240.274 33.8554C253.758 26.2598 265.676 37.7515 265.962 38.0196C264.504 32.3988 262.285 28.2704 260.719 27.0193C256.585 23.6951 233.142 18.396 216.258 37.0992C199.374 55.8024 206.344 73.4511 214.415 80.9127Z" fill="#5C546C"/>
<g opacity="0.6">
<path d="M265.962 38.0464C265.926 38.0106 265.667 37.7604 265.21 37.3762C263.958 34.186 262.553 31.9162 261.47 31.0494C257.337 27.7252 233.894 22.4351 217.01 41.1293C208.286 50.7802 205.933 60.1631 206.801 68C204.546 59.4661 205.996 48.4926 216.258 37.126C233.151 18.4228 256.594 23.7308 260.728 27.0461C262.285 28.2971 264.504 32.4345 265.962 38.0464Z" fill="white"/>
</g>
<path d="M229.501 88.2223C229.465 88.2223 229.438 88.2223 229.402 88.2223C222.915 87.8202 217.216 85.6309 213.35 82.0654C208.349 77.4365 205.002 70.4396 204.412 63.3533C203.875 56.8925 205.289 46.9109 215.086 36.0536C232.274 17.0288 256.657 21.7559 261.694 25.804C263.734 27.4393 266.06 32.1933 267.474 37.6264C267.653 38.3055 267.349 39.0204 266.74 39.3689C266.132 39.7174 265.363 39.6281 264.861 39.1366C264.405 38.6898 253.435 28.2346 241.043 35.2136C235.737 38.2072 230.87 45.8475 228.364 55.1679C225.304 66.5256 226.235 77.9995 230.852 85.8543C231.147 86.3547 231.138 86.9713 230.834 87.4628C230.548 87.9453 230.047 88.2223 229.501 88.2223ZM215.48 79.7688C218.209 82.2888 222.226 84.0581 226.763 84.7909C222.942 76.4267 222.387 65.3103 225.34 54.3725C228.105 44.114 233.402 35.9464 239.513 32.506C249.159 27.0729 257.999 30.6563 262.947 33.7749C261.721 30.6831 260.45 28.8154 259.743 28.2525C255.78 25.0623 233.286 20.5943 217.422 38.1536C200.529 56.8657 208.769 73.5583 215.48 79.7688Z" fill="#242424"/>
<path d="M225.027 69.0456C226.02 69.4298 227.085 69.6353 228.185 69.6353C233.903 69.6532 238.556 64.1754 238.573 57.4019C238.591 51.5041 235.084 46.5624 230.404 45.3829C226.986 52.1475 224.902 60.7171 225.027 69.0456Z" fill="#FBA3CB"/>
<g opacity="0.2">
<path d="M225.027 69.0456C226.02 69.4298 227.085 69.6353 228.185 69.6353C233.903 69.6532 238.556 64.1754 238.573 57.4019C238.591 51.5041 235.084 46.5624 230.404 45.3829C226.986 52.1475 224.902 60.7171 225.027 69.0456Z" fill="#242424"/>
</g>
<path d="M228.203 71.3511C228.194 71.3511 228.185 71.3511 228.176 71.3511C226.879 71.3511 225.608 71.1098 224.41 70.6451C223.756 70.3949 223.327 69.7694 223.309 69.0724C223.184 60.7797 225.206 51.8705 228.865 44.6144C229.223 43.8995 230.038 43.5242 230.825 43.7208C236.328 45.1148 240.309 50.8696 240.291 57.4108C240.282 61.0925 239.048 64.5597 236.829 67.1779C234.538 69.8677 231.478 71.3511 228.203 71.3511ZM226.745 67.7677C227.219 67.866 227.702 67.9196 228.185 67.9196C230.458 67.9196 232.57 66.8741 234.207 64.9528C235.907 62.9512 236.847 60.2614 236.856 57.3929C236.865 52.9606 234.592 49.0377 231.281 47.5007C228.445 53.6487 226.825 60.8869 226.745 67.7677Z" fill="#242424"/>
<path d="M243.808 108.293C243.709 144.01 201.772 147.656 182.061 147.808C181.39 147.808 180.746 147.817 180.128 147.808C163.62 147.763 126.89 145.529 118.426 119.776C117.272 116.282 116.645 112.359 116.654 107.953C116.77 65.2924 150.896 34.8562 180.423 34.9366C210.147 35.0171 243.924 65.632 243.808 108.293Z" fill="#74698B"/>
<g opacity="0.6">
<path d="M243.674 106.979C240.802 67.4728 208.814 39.6996 180.513 39.6191C151.004 39.5387 116.923 69.9124 116.735 112.511C116.6 111.143 116.529 109.731 116.538 108.257C116.654 65.5963 150.78 35.169 180.307 35.2405C209.646 35.3209 242.949 65.1584 243.674 106.979Z" fill="white"/>
</g>
<path d="M233.742 98.0431C222.137 92.1006 207.078 105.844 182.204 94.147H181.685C156.748 105.71 138.334 91.8772 126.693 97.7571C115.052 103.628 118.408 119.802 118.408 119.802C126.639 144.877 164.058 147.066 180.101 147.102C180.647 147.102 181.211 147.102 181.792 147.102C182.374 147.111 182.946 147.111 183.483 147.111C199.526 147.156 233.527 145.163 241.893 120.133C241.911 120.124 245.356 103.977 233.742 98.0431Z" fill="white"/>
<path d="M189.517 117.047C189.046 117.047 188.584 116.78 188.379 116.317C188.328 116.214 187.344 114.188 185.222 114.167H185.212C184.361 114.167 183.675 114.609 182.865 115.113C181.942 115.7 180.907 116.358 179.523 116.358C178.14 116.358 177.104 115.7 176.182 115.113C175.382 114.599 174.685 114.167 173.835 114.167H173.824C171.692 114.177 170.708 116.224 170.667 116.317C170.37 116.944 169.622 117.222 168.996 116.924C168.371 116.636 168.094 115.895 168.381 115.257C168.443 115.113 170.052 111.668 173.804 111.647C173.814 111.647 173.824 111.647 173.835 111.647C175.413 111.647 176.582 112.388 177.525 112.984C178.273 113.457 178.867 113.838 179.513 113.838C180.159 113.838 180.753 113.457 181.502 112.984C182.445 112.388 183.613 111.647 185.192 111.647C185.202 111.647 185.212 111.647 185.222 111.647C188.974 111.668 190.583 115.113 190.655 115.257C190.942 115.895 190.665 116.636 190.03 116.924C189.866 117.016 189.691 117.047 189.517 117.047Z" fill="#242424"/>
<g opacity="0.2">
<path d="M243.271 108.561C243.173 144.278 201.235 147.924 181.524 148.085C180.853 148.085 180.209 148.085 179.591 148.085C163.083 148.04 126.362 145.806 117.889 120.053C116.735 116.559 116.108 112.636 116.117 108.23C116.126 105.362 116.287 102.538 116.592 99.7856C116.851 102.556 117.397 105.12 118.175 107.488C126.64 133.242 163.369 135.476 179.878 135.521C180.495 135.521 181.139 135.521 181.81 135.521C200.269 135.369 238.225 132.17 243.038 102.422C243.199 104.423 243.271 106.479 243.271 108.561Z" fill="#242424"/>
</g>
<path d="M180.531 149.533C180.396 149.533 180.253 149.533 180.119 149.533C144.937 149.434 123.043 139.337 116.788 120.321C115.545 116.55 114.927 112.385 114.936 107.953C114.99 87.7934 122.559 68.7149 136.258 54.2474C148.722 41.0846 165.177 33.2298 180.316 33.2298C180.352 33.2298 180.396 33.2298 180.432 33.2298C195.661 33.2745 212.16 41.2187 224.553 54.4887C238.126 69.0098 245.57 88.124 245.517 108.311C245.472 124.547 237.205 136.218 220.947 142.982C210.8 147.209 197.719 149.416 182.07 149.542C181.542 149.533 181.032 149.533 180.531 149.533ZM180.316 36.6523C151.147 36.6523 118.488 67.0975 118.381 107.953C118.372 112.019 118.936 115.817 120.063 119.239C127.32 141.32 156.739 146.03 180.137 146.092C180.754 146.092 181.39 146.092 182.061 146.092C197.254 145.967 209.897 143.858 219.632 139.801C234.493 133.617 242.054 123.01 242.09 108.284L243.808 108.293L242.09 108.284C242.144 88.9819 235.021 70.6987 222.047 56.8121C210.281 44.2212 194.722 36.6881 180.423 36.6434C180.388 36.6523 180.352 36.6523 180.316 36.6523Z" fill="#242424"/>
<path d="M204.859 137.96C203.687 139.962 202.112 141.758 200.296 143.277C198.471 144.797 196.377 146.021 194.176 146.959C189.747 148.827 184.924 149.524 180.209 149.533C175.368 149.497 170.662 148.371 166.313 146.521C164.148 145.583 162.054 144.439 160.148 143.036C159.683 142.661 159.209 142.312 158.761 141.928L158.108 141.329L157.786 141.026L157.482 140.695C156.659 139.855 155.961 138.872 155.451 137.835C157.079 139.48 159.021 140.614 161.025 141.597C163.038 142.563 165.132 143.349 167.253 143.992C171.503 145.27 175.887 146.074 180.209 146.11C184.638 146.101 189.049 145.69 193.254 144.439C197.459 143.197 201.396 141.052 204.859 137.96Z" fill="#242424"/>
<g clip-path="url(#clip0_78_1374432)">
<path d="M93.8403 78.5088C98.4125 78.2139 103.003 78.491 107.548 79.0539C112.102 79.6169 116.621 80.5194 121.041 81.7794C122.15 82.0922 123.242 82.4407 124.343 82.7892C125.425 83.1735 126.526 83.522 127.591 83.9509C129.747 84.7641 131.859 85.6755 133.916 86.7211C138.041 88.7585 141.951 91.2695 145.369 94.2988C143.374 93.1729 141.415 92.038 139.383 91.0461C138.882 90.778 138.363 90.5546 137.862 90.3044C137.352 90.0631 136.851 89.8129 136.323 89.5895C135.804 89.3661 135.294 89.1338 134.784 88.9015L133.227 88.2491C132.709 88.0257 132.19 87.8202 131.662 87.6236C131.134 87.4181 130.615 87.2036 130.087 87.007C129.031 86.6228 127.975 86.2206 126.911 85.8721C124.781 85.1394 122.634 84.4602 120.468 83.8526C116.138 82.6105 111.735 81.6007 107.297 80.7071C102.842 79.8403 98.3678 79.0986 93.8403 78.5088Z" fill="#242424"/>
<path d="M90.9683 96.7384C95.3078 95.2818 99.8174 94.3793 104.363 93.7538C108.908 93.1283 113.507 92.8512 118.106 92.9317C119.251 92.9495 120.406 93.0031 121.551 93.0568C122.696 93.1461 123.851 93.2087 124.987 93.3427C127.277 93.5751 129.559 93.9236 131.805 94.3972C136.314 95.3086 140.735 96.7295 144.824 98.7848C142.605 98.2039 140.421 97.6142 138.202 97.1763C137.657 97.0422 137.093 96.9618 136.538 96.8457C135.983 96.7474 135.429 96.6312 134.874 96.5508C134.319 96.4703 133.764 96.372 133.21 96.2737L131.536 96.0414C130.982 95.961 130.418 95.8984 129.863 95.8359C129.3 95.7733 128.745 95.7018 128.181 95.6482C127.063 95.5499 125.944 95.4248 124.817 95.3623C122.571 95.2014 120.325 95.0942 118.07 95.0584C113.57 94.9691 109.051 95.1121 104.542 95.398C100.014 95.7197 95.4957 96.1486 90.9683 96.7384Z" fill="#242424"/>
<path d="M93.3481 116.657C97.1509 114.11 101.276 112.064 105.49 110.268C109.713 108.48 114.071 106.997 118.536 105.88C119.645 105.594 120.772 105.353 121.9 105.103C123.027 104.888 124.155 104.647 125.291 104.477C127.564 104.102 129.854 103.834 132.154 103.709C136.744 103.414 141.388 103.628 145.87 104.54C143.58 104.557 141.316 104.557 139.052 104.718C138.489 104.736 137.925 104.799 137.361 104.834C136.797 104.879 136.234 104.915 135.679 104.986C135.115 105.049 134.561 105.103 133.997 105.156L132.306 105.38C131.751 105.442 131.187 105.531 130.633 105.621C130.078 105.71 129.514 105.782 128.968 105.88C127.859 106.077 126.749 106.255 125.649 106.488C123.439 106.917 121.238 107.408 119.054 107.962C114.679 109.052 110.366 110.384 106.081 111.831C101.804 113.306 97.5624 114.905 93.3481 116.657Z" fill="#242424"/>
<path d="M264.775 79.6795C260.247 80.2693 255.773 81.011 251.327 81.8688C246.889 82.7535 242.486 83.7633 238.156 85.0143C235.99 85.622 233.843 86.3011 231.713 87.0339C230.64 87.3824 229.593 87.7934 228.537 88.1687C228.009 88.3653 227.49 88.5798 226.962 88.7853C226.434 88.9819 225.906 89.1874 225.396 89.4108L223.84 90.0632C223.33 90.2955 222.82 90.5368 222.301 90.7513C221.782 90.9657 221.272 91.2249 220.762 91.4661C220.252 91.7163 219.733 91.9397 219.241 92.2078C217.201 93.1997 215.241 94.3257 213.255 95.4606C216.682 92.4312 220.583 89.9202 224.708 87.8828C226.765 86.8462 228.877 85.9258 231.033 85.1126C232.107 84.6926 233.199 84.3352 234.281 83.9509C235.382 83.6024 236.474 83.2539 237.583 82.9411C242.003 81.6812 246.522 80.7786 251.076 80.2156C255.603 79.6705 260.202 79.3846 264.775 79.6795Z" fill="#242424"/>
<path d="M267.638 97.918C263.11 97.3282 258.592 96.8993 254.082 96.5954C249.564 96.3184 245.054 96.1665 240.554 96.2559C238.299 96.2916 236.053 96.3899 233.807 96.5597C232.68 96.6223 231.561 96.7474 230.443 96.8457C229.879 96.8993 229.324 96.9797 228.761 97.0333C228.197 97.0869 227.642 97.1584 227.088 97.2388L225.414 97.4712C224.86 97.5605 224.305 97.6588 223.741 97.7482C223.177 97.8286 222.632 97.9448 222.077 98.0431C221.522 98.1503 220.967 98.2397 220.413 98.3737C218.194 98.8116 216.002 99.4014 213.792 99.9822C217.881 97.9269 222.301 96.5061 226.81 95.5946C229.065 95.121 231.347 94.7725 233.628 94.5402C234.774 94.4061 235.919 94.3436 237.064 94.2542C238.209 94.2006 239.364 94.138 240.509 94.1291C245.108 94.0397 249.707 94.3257 254.252 94.9512C258.789 95.5589 263.298 96.4614 267.638 97.918Z" fill="#242424"/>
<path d="M265.267 117.836C261.053 116.085 256.802 114.485 252.534 113.002C248.249 111.554 243.936 110.223 239.56 109.133C237.377 108.57 235.176 108.087 232.975 107.658C231.875 107.426 230.765 107.256 229.656 107.051C229.101 106.952 228.546 106.881 227.991 106.791C227.437 106.702 226.882 106.613 226.318 106.55L224.645 106.336C224.081 106.282 223.526 106.228 222.963 106.166C222.399 106.094 221.835 106.059 221.281 106.014C220.717 105.978 220.153 105.916 219.59 105.898C217.326 105.737 215.062 105.737 212.771 105.719C217.254 104.808 221.898 104.593 226.488 104.888C228.788 105.013 231.078 105.281 233.351 105.657C234.487 105.826 235.615 106.068 236.742 106.282C237.869 106.532 238.988 106.774 240.106 107.06C244.562 108.177 248.929 109.66 253.152 111.447C257.339 113.243 261.455 115.29 265.267 117.836Z" fill="#242424"/>
<path d="M194.021 91.4214C196.133 92.6635 197.242 95.0673 197.233 97.5158C197.224 101.412 194.03 104.638 189.852 105.281C189.342 105.353 188.823 105.397 188.286 105.397C186.953 105.397 185.691 105.129 184.555 104.665C182.264 103.717 180.501 101.939 179.768 99.7766C179.025 101.939 177.244 103.708 174.954 104.647C173.818 105.102 172.547 105.362 171.214 105.362C170.686 105.362 170.158 105.317 169.648 105.237C165.469 104.566 162.293 101.331 162.302 97.4354C162.311 95.4873 163.107 93.7001 164.44 92.3239C164.44 92.315 177.656 81.8419 194.021 91.4214Z" fill="white"/>
<g opacity="0.2">
<path d="M197.26 97.5158C197.251 101.412 194.066 104.638 189.878 105.281C189.368 105.362 188.849 105.397 188.313 105.397C186.979 105.397 185.718 105.129 184.581 104.665C182.291 103.717 180.528 101.939 179.794 99.7766C179.052 101.939 177.271 103.708 174.981 104.647C173.835 105.103 172.574 105.362 171.241 105.362C170.713 105.362 170.185 105.317 169.675 105.237C165.496 104.575 162.329 101.332 162.329 97.4354C162.329 96.0771 162.723 94.8082 163.394 93.7001C163.394 93.7001 166.633 105.281 179.803 96.4077C179.803 96.4077 192.607 105.085 196.195 93.9682C196.222 93.8878 196.24 93.8163 196.276 93.7448C196.938 94.8529 197.269 96.1754 197.26 97.5158Z" fill="#242424"/>
</g>
<path d="M194.155 91.2338C195.381 91.8146 196.491 92.7797 197.26 94.0129C198.039 95.246 198.459 96.7652 198.405 98.2843C198.343 99.8124 197.842 101.349 196.956 102.6C196.526 103.244 196.007 103.807 195.444 104.325C194.871 104.826 194.236 105.254 193.574 105.63C192.241 106.345 190.746 106.747 189.252 106.863C187.758 106.961 186.246 106.774 184.823 106.291C183.4 105.808 182.076 105.04 180.949 104.021C179.839 102.994 178.927 101.698 178.417 100.214L181.092 100.223C180.618 101.635 179.777 102.895 178.73 103.905C177.683 104.915 176.43 105.683 175.079 106.193C173.737 106.693 172.296 106.925 170.865 106.89C170.149 106.863 169.442 106.774 168.735 106.613C168.377 106.55 168.037 106.425 167.697 106.327C167.357 106.202 167.017 106.077 166.695 105.934C165.38 105.335 164.172 104.486 163.224 103.369C162.266 102.27 161.55 100.929 161.291 99.4817C161.005 98.043 161.157 96.5418 161.711 95.246C162.248 93.9414 163.179 92.8601 164.27 92.1542C164.378 92.0827 164.53 92.1095 164.602 92.2257C164.655 92.3061 164.655 92.4044 164.61 92.4759C163.349 94.6205 163.071 96.926 163.769 98.8562C164.092 99.8213 164.646 100.697 165.362 101.43C165.532 101.617 165.738 101.778 165.926 101.948C166.141 102.1 166.328 102.27 166.552 102.404L166.874 102.618L167.214 102.806C167.438 102.94 167.679 103.029 167.912 103.146C169.836 103.941 172.082 104.03 174.068 103.351C176.045 102.69 177.754 101.189 178.417 99.303V99.2941C178.676 98.5613 179.481 98.1681 180.224 98.4273C180.644 98.5792 180.958 98.9098 181.092 99.303C181.432 100.295 182.031 101.215 182.846 101.939C183.651 102.672 184.644 103.208 185.7 103.53C187.829 104.182 190.209 103.914 192.142 102.931C193.108 102.431 193.985 101.76 194.647 100.92C195.327 100.089 195.766 99.1064 195.981 98.043C196.177 96.9796 196.124 95.8358 195.748 94.7278C195.381 93.6197 194.737 92.5563 193.869 91.5912C193.78 91.4929 193.788 91.341 193.887 91.2516C193.967 91.207 194.075 91.198 194.155 91.2338Z" fill="#242424"/>
<path d="M172.314 91.9845C171.5 93.8253 174.9 100.17 179.669 100.179C184.438 100.188 187.785 93.6824 186.944 92.0202C185.888 89.956 173.334 89.6879 172.314 91.9845Z" fill="#242424"/>
<path d="M182.702 92.2884C182.702 92.5475 181.333 92.753 179.633 92.753C177.942 92.753 176.564 92.5475 176.564 92.2884C176.564 92.0292 177.933 91.8237 179.633 91.8237C181.324 91.8148 182.702 92.0292 182.702 92.2884Z" fill="white"/>
<path d="M145.868 80.208C145.868 86.1126 150.655 90.9 156.558 90.9C162.461 90.9 167.247 86.1126 167.247 80.208C161.584 76.9414 159.723 75.2034 154.921 73.6051C150.973 72.286 145.868 74.3034 145.868 80.208Z" fill="#242424"/>
<path d="M158.854 84.8867C160.696 84.8867 162.189 83.393 162.189 81.5503C162.189 79.7077 160.696 78.2139 158.854 78.2139C157.012 78.2139 155.518 79.7077 155.518 81.5503C155.518 83.393 157.012 84.8867 158.854 84.8867Z" fill="white"/>
<path d="M214.718 80.5431C214.718 86.7597 209.679 91.8 203.464 91.8C197.249 91.8 192.21 86.7597 192.21 80.5431C198.172 77.104 200.132 75.2741 205.188 73.5913C209.345 72.2026 214.718 74.3265 214.718 80.5431Z" fill="#242424"/>
<path d="M201.055 85.469C202.995 85.469 204.567 83.8964 204.567 81.9564C204.567 80.0164 202.995 78.4437 201.055 78.4437C199.116 78.4437 197.543 80.0164 197.543 81.9564C197.543 83.8964 199.116 85.469 201.055 85.469Z" fill="white"/>
<path d="M155.123 69.1281C161.096 69.9117 165.835 75.3353 169.233 75.3353L155.123 69.1281Z" fill="#C2C6D2"/>
<path d="M155.123 69.1281C159.537 68.5461 163.407 71.4868 166.751 73.9309C167.55 74.4896 168.279 74.9939 169.233 75.3353C168.582 75.5215 167.837 75.4827 167.177 75.3353C165.246 74.893 163.454 73.8068 161.802 72.8291C159.568 71.4791 157.535 70.2299 155.123 69.1281Z" fill="#242424"/>
<path d="M207.066 68.8778C200.777 69.7029 195.787 75.413 192.21 75.413L207.066 68.8778Z" fill="#C2C6D2"/>
<path d="M207.066 68.8778C204.526 70.0378 202.387 71.3448 200.043 72.7744C198.148 73.8854 196.09 75.1598 193.844 75.511C193.305 75.5845 192.733 75.5519 192.219 75.4212C193.223 75.0617 193.991 74.5307 194.832 73.9426C198.344 71.3612 202.419 68.2651 207.066 68.8778Z" fill="#242424"/>
</g>
<defs>
<clipPath id="clip0_78_1374432">
<rect width="360" height="360" fill="white" transform="translate(0.0683594)"/>
</clipPath>
</defs>
</svg>
