<svg width="16" height="16" viewBox="0 0 16 16" fill="none" xmlns="http://www.w3.org/2000/svg">
<path d="M10.5667 2.43333H12.2382C12.3828 2.43333 12.5 2.31613 12.5 2.17153V0.8C12.5 0.358167 12.1418 0 11.7 0H4.13332C3.98605 0 3.86665 0.1194 3.86665 0.266667V2.63333C3.86665 3.07517 3.50849 3.43333 3.06665 3.43333H0.699986C0.552719 3.43333 0.433319 3.55273 0.433319 3.7V15.2C0.433319 15.6418 0.791486 16 1.23332 16H11.7C12.1418 16 12.5 15.6418 12.5 15.2V14.9691C12.5 14.8414 12.4074 14.7348 12.2819 14.7109C12.029 14.6627 11.802 14.5441 11.6213 14.375L11.082 13.8693C10.818 13.622 10.6667 13.2723 10.6667 12.9103V9.174C10.6667 9.04267 10.5694 8.93223 10.4393 8.9145C9.97609 8.85137 8.96665 8.57303 8.96665 7.33333V4.03333C8.96665 3.14967 9.68299 2.43333 10.5667 2.43333ZM3.13332 13.3333C3.13332 13.4807 3.01399 13.6 2.86665 13.6C2.71932 13.6 2.59999 13.4807 2.59999 13.3333V11.348L2.45365 11.4513C2.33332 11.536 2.16699 11.5073 2.08199 11.387C1.99732 11.2667 2.02599 11.1003 2.14632 11.0153L2.71299 10.6153C2.88969 10.4908 3.13332 10.618 3.13332 10.8333V13.3333ZM3.24999 9.53333C2.67099 9.53333 2.19999 9.06233 2.19999 8.48333V7.55C2.19999 6.971 2.67099 6.5 3.24999 6.5C3.82899 6.5 4.29999 6.971 4.29999 7.55V8.48333C4.29999 9.06233 3.82899 9.53333 3.24999 9.53333ZM6.16665 12.55C6.16665 13.129 5.69565 13.6 5.11665 13.6C4.53765 13.6 4.06665 13.129 4.06665 12.55V11.6167C4.06665 11.0377 4.53765 10.5667 5.11665 10.5667C5.69565 10.5667 6.16665 11.0377 6.16665 11.6167V12.55ZM6.16665 9.26667C6.16665 9.414 6.04732 9.53333 5.89999 9.53333C5.75265 9.53333 5.63332 9.414 5.63332 9.26667V7.28133L5.48699 7.38467C5.36665 7.46933 5.20032 7.44067 5.11532 7.32033C5.03065 7.2 5.05932 7.03367 5.17965 6.94867L5.74632 6.54867C5.92302 6.4241 6.16665 6.55137 6.16665 6.76667V9.26667ZM8.16665 13.3333C8.16665 13.4807 8.04732 13.6 7.89999 13.6C7.75265 13.6 7.63332 13.4807 7.63332 13.3333V11.348L7.48699 11.4513C7.36665 11.536 7.20032 11.5073 7.11532 11.387C7.03065 11.2667 7.05932 11.1003 7.17965 11.0153L7.74632 10.6153C7.92302 10.4908 8.16665 10.618 8.16665 10.8333V13.3333ZM8.16665 9.26667C8.16665 9.414 8.04732 9.53333 7.89999 9.53333C7.75265 9.53333 7.63332 9.414 7.63332 9.26667V7.28133L7.48699 7.38467C7.36665 7.46933 7.20032 7.44067 7.11532 7.32033C7.03065 7.2 7.05932 7.03367 7.17965 6.94867L7.74632 6.54867C7.92302 6.4241 8.16665 6.55137 8.16665 6.76667V9.26667ZM8.16665 4.41667C8.16665 4.99567 7.69565 5.46667 7.11665 5.46667C6.53765 5.46667 6.06665 4.99567 6.06665 4.41667V3.48333C6.06665 2.90433 6.53765 2.43333 7.11665 2.43333C7.69565 2.43333 8.16665 2.90433 8.16665 3.48333V4.41667Z" fill="black"/>
<path d="M3.33331 0.477894V2.63333C3.33331 2.78059 3.21391 2.89999 3.06665 2.89999H0.911213C0.792413 2.89999 0.732946 2.75636 0.816946 2.67239L3.10571 0.383627C3.18968 0.299594 3.33331 0.359094 3.33331 0.477894Z" fill="black"/>
<path d="M3.76664 7.55001V8.48334C3.76664 8.76834 3.53497 9.00001 3.24997 9.00001C2.96497 9.00001 2.73331 8.76834 2.73331 8.48334V7.55001C2.73331 7.26501 2.96497 7.03334 3.24997 7.03334C3.53497 7.03334 3.76664 7.26501 3.76664 7.55001Z" fill="black"/>
<path d="M5.63331 11.6167V12.55C5.63331 12.835 5.40164 13.0667 5.11664 13.0667C4.83164 13.0667 4.59998 12.835 4.59998 12.55V11.6167C4.59998 11.3317 4.83164 11.1 5.11664 11.1C5.40164 11.1 5.63331 11.3317 5.63331 11.6167Z" fill="black"/>
<path d="M7.63331 3.48333V4.41666C7.63331 4.70166 7.40164 4.93333 7.11664 4.93333C6.83164 4.93333 6.59998 4.70166 6.59998 4.41666V3.48333C6.59998 3.19833 6.83164 2.96666 7.11664 2.96666C7.40164 2.96666 7.63331 3.19833 7.63331 3.48333Z" fill="black"/>
<path d="M14.5 2.96666H10.5667C9.97867 2.96666 9.5 3.44499 9.5 4.03333V7.33333C9.5 7.92166 9.97867 8.39999 10.5667 8.39999H11.2V12.9103C11.2 13.1257 11.29 13.3333 11.447 13.4803L11.986 13.986C12.2919 14.272 12.7715 14.2751 13.0807 13.986L13.5847 13.5133C13.8523 13.2623 13.9113 12.8687 13.7287 12.556L13.585 12.309C13.498 12.1597 13.498 11.9737 13.585 11.8243L13.7287 11.5773C13.9123 11.2623 13.9123 10.871 13.7287 10.556L13.585 10.309C13.498 10.1597 13.4981 9.97369 13.585 9.82433C13.7405 9.55719 13.8667 9.38463 13.8667 9.06666V8.39999H14.5C15.088 8.39999 15.5667 7.92166 15.5667 7.33333V4.03333C15.5667 3.44499 15.088 2.96666 14.5 2.96666ZM13.6 5.13333H11.4667C11.3193 5.13333 11.2 5.01399 11.2 4.86666C11.2 4.71933 11.3193 4.59999 11.4667 4.59999H13.6C13.7473 4.59999 13.8667 4.71933 13.8667 4.86666C13.8667 5.01399 13.7473 5.13333 13.6 5.13333Z" fill="black"/>
</svg>
