<svg width="20" height="20" viewBox="0 0 20 20" fill="none" xmlns="http://www.w3.org/2000/svg">
<g clip-path="url(#clip0_515_5450)">
<path d="M9.16663 1.66663C13.3066 1.66663 16.6666 5.02663 16.6666 9.16663C16.6666 13.3066 13.3066 16.6666 9.16663 16.6666C5.02663 16.6666 1.66663 13.3066 1.66663 9.16663C1.66663 5.02663 5.02663 1.66663 9.16663 1.66663ZM9.16663 15C12.3891 15 15 12.3891 15 9.16663C15 5.94329 12.3891 3.33329 9.16663 3.33329C5.94329 3.33329 3.33329 5.94329 3.33329 9.16663C3.33329 12.3891 5.94329 15 9.16663 15ZM16.2375 15.0591L18.595 17.4158L17.4158 18.595L15.0591 16.2375L16.2375 15.0591Z" fill="#0D0D0D"/>
</g>
<defs>
<clipPath id="clip0_515_5450">
<rect width="20" height="20" fill="white"/>
</clipPath>
</defs>
</svg>
