<svg width="16" height="16" viewBox="0 0 16 16" fill="none" xmlns="http://www.w3.org/2000/svg">
<path fill-rule="evenodd" clip-rule="evenodd" d="M0.353553 8.49638C0.158291 8.30111 0.158291 7.98453 0.353553 7.78927L7.2929 0.849926C7.68342 0.459403 8.31658 0.459401 8.70711 0.849923L8.7929 0.935715C9.18342 1.32624 9.18343 1.95941 8.7929 2.34993L4 7.14282H15C15.5523 7.14282 16 7.59054 16 8.14282C16 8.69511 15.5523 9.14282 15 9.14282H4L8.7929 13.9357C9.18343 14.3262 9.18343 14.9594 8.7929 15.3499L8.70711 15.4357C8.31658 15.8262 7.68342 15.8262 7.2929 15.4357L0.353553 8.49638Z" fill="#0C0C0D" fill-opacity="0.5"/>
</svg>
