<svg width="20" height="20" viewBox="0 0 20 20" fill="none" xmlns="http://www.w3.org/2000/svg">
<path fill-rule="evenodd" clip-rule="evenodd" d="M10.8334 3.74999V2.18089C10.8334 1.64879 11.4559 1.36007 11.8621 1.70377L15.6862 4.93954C15.9812 5.1892 15.9812 5.64411 15.6862 5.89377L11.8621 9.12957C11.4559 9.47324 10.8334 9.18449 10.8334 8.65241V7.08332C7.74308 7.08332 6.08527 7.08332 3.20384 9.40741C2.92519 9.63216 2.5076 9.43566 2.5393 9.07916C3.01304 3.74999 7.67254 3.74999 10.8334 3.74999ZM9.16673 16.25V17.8191C9.16673 18.3512 8.54423 18.6399 8.13801 18.2962L4.31393 15.0604C4.01888 14.8108 4.01888 14.3558 4.31393 14.1062L8.13801 10.8704C8.54423 10.5267 9.16673 10.8155 9.16673 11.3476V12.9167C12.2571 12.9167 13.9149 12.9167 16.7963 10.5926C17.0749 10.3678 17.4926 10.5643 17.4608 10.9208C16.9871 16.25 12.3276 16.25 9.16673 16.25Z" fill="black"/>
</svg>
