<svg width="119" height="40" viewBox="0 0 119 40" fill="none" xmlns="http://www.w3.org/2000/svg">
<path d="M11.9524 14.7568L8.05091 0H5.2953L11.9524 25.1794V34.7887L2.75561 0H0L10.5746 40H11.9524H13.3294H14.7072V0H11.9524V14.7568Z" fill="black"/>
<path d="M60.9952 40L50.4205 0H49.0427H47.6649H46.2871V39.9992H49.0427L56.3157 32.7228L58.2396 39.9992H60.9952V40ZM53.8709 23.4722L49.0436 28.2996V5.21129L53.8709 23.4722ZM49.0427 36.1001V32.1961L54.685 26.5538L55.5016 29.6413L49.0427 36.1001Z" fill="black"/>
<path d="M20.5124 0H19.1346H17.7568V39.9992H20.5124L27.7854 32.7228L29.7093 39.9992H32.4649L21.8894 0H20.5124ZM25.3398 23.4722L20.5124 28.2996V5.21129L25.3398 23.4722ZM20.5124 36.1001V32.1961L26.1547 26.5538L26.9713 29.6413L20.5124 36.1001Z" fill="black"/>
<path d="M43.9044 24.7148L37.3707 0H35.9929H34.6151H33.2373V39.9992H35.9929V32.5817L38.5242 30.0504L41.1546 39.9992L43.9044 39.979L40.7035 27.8711L41.7158 26.8588L43.9044 24.7148ZM35.9929 28.6852V5.21129L40.9009 23.7772L35.9929 28.6852Z" fill="black"/>
<path d="M79.9165 12.8414L68 0.666748V39.9533H70.5833V27.8093L82.4998 40.0001V0.666748H79.9165V12.8414ZM70.5833 24.0979V6.98927L79.9165 16.5479V33.6566L70.5833 24.0979Z" fill="#00FFC4"/>
<path d="M86.3664 40.0001H88.9198V31.534L99.8995 20.3366V16.6536L88.9198 27.8509V23.886L99.8995 12.745V9.00398L88.9198 20.2013V3.27082H99.8995V0.666748H86.3664V40.0001Z" fill="#00FFC4"/>
<path d="M118.667 0.666748H103.766V3.28003H118.667V0.666748Z" fill="#00FFC4"/>
<path d="M103.766 9.12716L110.569 15.5707V40.0001H113.138V14.4345L106.972 8.59384H118.667V5.98056H103.766V9.12716Z" fill="#00FFC4"/>
</svg>
