<svg width="15" height="15" viewBox="0 0 30 30" fill="none" xmlns="http://www.w3.org/2000/svg">
<g clip-path="url(#clip0_105_50524)">
<path d="M17.0715 17.5716C20.9768 13.6662 20.9768 7.33439 17.0715 3.42903C13.1661 -0.476321 6.83429 -0.476321 2.92894 3.42903C-0.976419 7.33439 -0.976419 13.6662 2.92894 17.5716C6.83429 21.4769 13.1661 21.4769 17.0715 17.5716Z" fill="#CFDCE6"/>
<path d="M16.8905 17.3907C20.696 13.5853 20.696 7.41535 16.8905 3.60987C13.0851 -0.195612 6.91516 -0.195612 3.10967 3.60987C-0.695809 7.41535 -0.695809 13.5853 3.10967 17.3907C6.91516 21.1962 13.0851 21.1962 16.8905 17.3907Z" fill="#A9BECE"/>
<g style="mix-blend-mode:soft-light">
<path d="M16.9099 3.62982L3.12988 17.4093C4.06131 18.3355 5.17024 19.0641 6.39013 19.5512L19.0513 6.89007C18.564 5.67039 17.8357 4.56152 16.9099 3.62982Z" fill="#CFDCE6"/>
</g>
<g style="mix-blend-mode:soft-light">
<path d="M19.4996 12.6698L12.1699 19.9994C13.957 19.5899 15.5924 18.685 16.8888 17.3887C18.1852 16.0923 19.09 14.4568 19.4996 12.6698Z" fill="#CFDCE6"/>
</g>
<g style="mix-blend-mode:soft-light">
<path d="M5.21492 2.01261L1.51273 5.7148C1.09937 6.44438 0.78273 7.22467 0.570801 8.036L7.53612 1.07068C6.72479 1.28261 5.9445 1.59924 5.21492 2.01261Z" fill="#CFDCE6"/>
</g>
<g style="mix-blend-mode:soft-light">
<path d="M15.626 2.54593L2.0459 16.126C2.20394 16.349 2.3706 16.5662 2.54703 16.7748L16.2748 3.04706C16.0662 2.87063 15.8489 2.70455 15.626 2.54593Z" fill="#CFDCE6"/>
</g>
<g style="mix-blend-mode:soft-light">
<path d="M10.1918 17.7415C14.0913 17.7415 17.2525 14.5803 17.2525 10.6807C17.2525 6.78122 14.0913 3.62003 10.1918 3.62003C6.29229 3.62003 3.1311 6.78122 3.1311 10.6807C3.1311 14.5803 6.29229 17.7415 10.1918 17.7415Z" fill="white"/>
</g>
<path d="M14.9929 15.493C17.7503 12.7356 17.7503 8.26501 14.9929 5.50762C12.2356 2.75024 7.76495 2.75024 5.00757 5.50763C2.25019 8.26501 2.25019 12.7356 5.00757 15.493C7.76495 18.2504 12.2356 18.2504 14.9929 15.493Z" fill="#B1C8D9"/>
<g style="mix-blend-mode:multiply">
<path d="M3.32306 10.8836C3.32289 9.51026 3.72331 8.16667 4.47527 7.01746C5.22722 5.86825 6.29805 4.96332 7.55657 4.41354C8.81509 3.86377 10.2066 3.69301 11.5607 3.9222C12.9148 4.15139 14.1727 4.77057 15.1802 5.70388C14.535 5.00629 13.7556 4.44613 12.8887 4.05698C12.0218 3.66783 11.0852 3.4577 10.1352 3.43918C9.1851 3.42066 8.24108 3.59413 7.35967 3.94919C6.47826 4.30426 5.67761 4.83362 5.00569 5.50554C4.33377 6.17745 3.80441 6.97811 3.44935 7.85952C3.09428 8.74092 2.92081 9.68494 2.93933 10.635C2.95785 11.5851 3.16798 12.5216 3.55713 13.3885C3.94628 14.2554 4.50644 15.0348 5.20404 15.68C3.99284 14.3768 3.32069 12.6628 3.32306 10.8836Z" fill="#C3CFD9"/>
</g>
<g style="mix-blend-mode:luminosity">
<path d="M12.2246 9.75977L10.1665 6.70673H8.71283L12.2246 11.9161V13.9042L7.37308 6.70673H5.91943L11.4978 14.9823H12.2246H12.951H13.6778V6.70673H12.2246V9.75977Z" fill="#6B4C0B"/>
</g>
</g>
<defs>
<clipPath id="clip0_105_50524">
<rect width="20" height="20" fill="white" transform="translate(0 0.5)"/>
</clipPath>
</defs>
</svg>
