<svg width="390" height="391" viewBox="0 0 390 391" fill="none" xmlns="http://www.w3.org/2000/svg">
<path d="M203.466 245.347L203.466 245.347L202.433 245.62L202.774 246.633L205.962 256.089L206.23 256.885L207.061 256.758L206.91 255.769C207.061 256.758 207.061 256.758 207.062 256.757L207.063 256.757L207.068 256.757L207.082 256.754L207.135 256.746C207.181 256.738 207.248 256.727 207.335 256.712C207.508 256.682 207.762 256.636 208.089 256.572C208.743 256.443 209.689 256.242 210.872 255.948C213.237 255.362 216.55 254.406 220.358 252.927C227.967 249.972 237.598 244.912 245.583 236.491C252.148 229.58 256.014 221.097 259.087 210.972C261.05 204.503 262.708 197.292 264.534 189.351C265.555 184.91 266.628 180.24 267.837 175.345L267.837 175.344C268.527 172.535 271.246 166.258 276.066 161.504C280.836 156.799 287.589 153.635 296.544 156.711C303.359 159.052 307.687 164.443 310.43 170.371L310.431 170.372C311.311 172.269 313.236 172.688 314.713 172.157C316.193 171.626 317.406 170.075 316.85 168.054L315.886 168.319L316.85 168.054C313.777 156.871 306.248 148.849 297.219 145.487C288.174 142.12 277.697 143.463 268.86 150.865C258.462 159.573 254.762 173.08 251.853 186.55C251.495 188.207 251.15 189.863 250.806 191.511C249.741 196.614 248.691 201.646 247.338 206.42C245.551 212.726 243.261 218.486 239.788 223.219C234.124 230.934 225.086 236.472 217.374 240.094C213.532 241.899 210.047 243.214 207.525 244.078C206.264 244.51 205.245 244.828 204.543 245.038C204.192 245.143 203.92 245.221 203.738 245.272C203.646 245.298 203.577 245.317 203.532 245.329L203.481 245.343L203.469 245.346L203.467 245.347L203.466 245.347Z" fill="#74698B" stroke="#242424" stroke-width="2"/>
<g opacity="0.3">
<path d="M266.864 175.116C260.091 202.545 257.682 222.302 244.857 235.803C229.144 252.368 206.899 255.766 206.899 255.766L205.309 251.022C210.566 249.928 228.495 245.325 241.748 231.349C254.561 217.845 256.97 198.088 263.746 170.648C265.216 164.714 274.963 144.843 293.749 151.308C299.78 153.381 303.908 157.711 306.742 162.657C304.205 159.655 300.971 157.189 296.855 155.773C278.07 149.308 268.322 169.18 266.864 175.116Z" fill="#242424"/>
</g>
<g opacity="0.3">
<path d="M311.338 169.951C310.844 168.881 310.295 167.832 309.693 166.804C311.316 167.299 313.35 165.943 312.78 163.854C311.92 160.736 310.716 157.875 309.216 155.308C312.177 158.881 314.502 163.257 315.886 168.319C316.668 171.187 312.577 172.641 311.338 169.951Z" fill="#242424"/>
<path d="M312.781 171.565C312.097 171.382 311.466 170.912 311.066 170.071C310.555 168.972 310.007 167.923 309.437 166.952L309.057 166.309L309.769 166.524C310.525 166.75 311.413 166.531 311.986 165.963C312.525 165.434 312.706 164.712 312.494 163.934C311.658 160.907 310.473 158.063 308.96 155.456L309.433 155.126C312.532 158.855 314.798 163.276 316.158 168.248C316.609 169.884 315.603 171.082 314.483 171.492C313.965 171.678 313.353 171.718 312.781 171.565ZM311.599 169.829C312.17 171.065 313.363 171.276 314.296 170.936C315.203 170.602 315.964 169.687 315.615 168.391C314.607 164.704 313.093 161.339 311.099 158.327C311.884 160.065 312.537 161.888 313.066 163.774C313.33 164.759 313.1 165.708 312.405 166.376C311.835 166.933 311.035 167.224 310.264 167.186C310.723 168.03 311.17 168.92 311.599 169.829Z" fill="#242424"/>
</g>
<g opacity="0.3">
<path d="M309.69 166.815C309.099 166.645 308.565 166.213 308.228 165.497C307.777 164.534 307.286 163.585 306.756 162.649C307.863 163.944 308.834 165.347 309.69 166.815Z" fill="#74698B"/>
<path d="M310.288 167.276L309.61 167.07C309.108 166.924 308.405 166.543 307.973 165.597C307.525 164.623 307.034 163.674 306.517 162.777L306.976 162.455C308.045 163.716 309.046 165.139 309.938 166.653L310.288 167.276ZM308.533 165.483C308.615 165.625 308.697 165.767 308.799 165.879C308.703 165.745 308.618 165.614 308.533 165.483Z" fill="#242424"/>
</g>
<path d="M278.359 238.553C270.098 238.553 263.626 235.002 260.136 228.539C254.614 218.316 257.143 202.391 266.553 187.657C265.46 186.643 263.229 184.911 259.474 183.334L260.876 179.982C267.624 182.805 270.209 186.213 270.319 186.367C270.772 186.985 270.794 187.812 270.374 188.451C261.053 202.424 258.292 217.478 263.339 226.819C266.2 232.123 271.39 234.924 278.359 234.924C278.415 234.924 278.47 234.924 278.525 234.924C288.487 234.858 290.685 230.237 291.105 227.491C291.491 224.977 290.53 221.69 287.957 220.257C287.438 219.97 287.095 219.441 287.029 218.856C286.974 218.261 287.206 217.687 287.659 217.29C289.028 216.121 290.343 214.533 291.734 212.857C293.082 211.236 294.473 209.548 295.975 208.214C296.13 208.082 296.306 207.971 296.494 207.894C307.02 203.615 309.471 190.933 305.772 181.151C300.338 166.803 275.897 152.543 261.462 149.036C261.362 149.014 261.274 148.981 261.174 148.948L236.954 138.637L238.379 135.284L262.467 145.541C275.897 148.86 302.812 163.075 309.173 179.871C313.458 191.186 310.498 205.909 298.173 211.136C296.958 212.261 295.776 213.684 294.539 215.173C293.601 216.309 292.651 217.456 291.646 218.514C294.031 220.83 295.257 224.459 294.705 228.043C294.219 231.175 291.679 238.475 278.558 238.564C278.481 238.553 278.426 238.553 278.359 238.553Z" fill="#363D56"/>
<path d="M237.661 136.95L261.881 147.261C276.095 150.713 301.619 165.061 307.461 180.5C311.691 191.661 308.256 205.06 297.168 209.57C294.285 212.129 291.734 216.187 288.829 218.669C291.999 220.422 293.402 224.414 292.882 227.767C292.474 230.403 290.287 236.667 278.514 236.744C256.558 236.876 252.968 211.269 268.839 187.459C268.839 187.459 266.52 184.327 260.158 181.669L237.661 136.95Z" fill="white"/>
<path d="M297.179 209.57C294.296 212.129 291.745 216.187 288.84 218.658C292.01 220.411 293.413 224.403 292.894 227.745C292.496 230.381 290.298 236.656 278.525 236.722C256.569 236.854 252.968 211.247 268.85 187.437C268.85 187.437 266.531 184.305 260.169 181.647L251.775 164.972L237.661 136.95L261.892 147.261C276.106 150.713 301.63 165.06 307.472 180.5C308.124 182.209 308.588 183.974 308.875 185.738C310.465 195.565 306.566 205.755 297.179 209.57Z" fill="#454544"/>
<path d="M297.179 209.57C294.296 212.129 291.745 216.187 288.84 218.658C292.01 220.411 293.413 224.403 292.894 227.745C292.496 230.381 290.298 236.656 278.525 236.722C256.569 236.854 252.968 211.247 268.85 187.437C268.85 187.437 266.531 184.305 260.169 181.647L251.775 164.972L254.139 162.866C254.139 162.866 269.17 169.825 281.96 176.673C281.96 176.673 276.769 180.136 277.564 186.819C278.713 196.535 305.341 207.31 308.864 185.716C310.465 195.565 306.566 205.755 297.179 209.57Z" fill="#2D2D2D"/>
<path d="M292.894 227.756C292.485 230.392 290.298 236.656 278.525 236.733C260.379 236.843 254.78 219.386 262.334 199.877C271.324 202.027 286.897 206.097 295.191 211.578C293.07 213.949 291.06 216.772 288.84 218.658C292.01 220.422 293.413 224.414 292.894 227.756Z" fill="white"/>
<path d="M292.894 227.756C292.485 230.392 290.298 236.656 278.525 236.733C260.379 236.843 254.78 219.386 262.334 199.877C271.324 202.027 286.897 206.097 295.191 211.578C293.07 213.949 291.06 216.772 288.84 218.658C292.01 220.422 293.413 224.414 292.894 227.756Z" fill="#C2C6D2"/>
<path d="M292.894 227.767C292.496 230.403 290.298 236.667 278.525 236.744C260.379 236.854 254.78 219.397 262.334 199.888C264.719 200.461 267.569 201.167 270.628 202.005C271.114 202.137 271.6 202.27 272.097 202.402C280.215 204.674 289.448 207.795 295.191 211.578C293.07 213.949 291.06 216.761 288.829 218.669C292.01 220.422 293.413 224.414 292.894 227.767Z" fill="#FFBD99"/>
<path d="M288.841 218.669C291.071 216.772 293.082 213.949 295.202 211.578C289.459 207.795 280.226 204.674 272.108 202.402L271.39 198.278C271.004 199.182 270.65 200.494 270.639 201.994C267.58 201.156 264.731 200.45 262.345 199.877C254.791 219.375 260.39 236.843 278.536 236.733C290.309 236.656 292.496 230.392 292.905 227.756C293.413 224.414 292.01 220.422 288.841 218.669ZM278.702 230.392C270.75 228.98 278.183 217.775 273.71 211.578L273.146 208.39C274.461 209.835 276.394 211.214 279.177 212.35C286.554 215.371 282.866 222.937 282.866 222.937C291.381 225.826 286.654 231.803 278.702 230.392Z" fill="#D39E82"/>
<path d="M278.359 238.553C270.098 238.553 263.626 235.002 260.136 228.539C254.614 218.316 257.143 202.391 266.553 187.657C265.46 186.643 263.229 184.911 259.474 183.334L260.876 179.982C267.624 182.805 270.209 186.213 270.319 186.367C270.772 186.985 270.794 187.812 270.374 188.451C261.053 202.424 258.292 217.478 263.339 226.819C266.2 232.123 271.39 234.924 278.359 234.924C278.415 234.924 278.47 234.924 278.525 234.924C288.487 234.858 290.685 230.237 291.105 227.491C291.491 224.977 290.53 221.69 287.957 220.257C287.438 219.97 287.095 219.441 287.029 218.856C286.974 218.261 287.206 217.687 287.659 217.29C289.028 216.121 290.343 214.533 291.734 212.857C293.082 211.236 294.473 209.548 295.975 208.214C296.13 208.082 296.306 207.971 296.494 207.894C307.02 203.615 309.471 190.933 305.772 181.151C300.338 166.803 275.897 152.543 261.462 149.036C261.362 149.014 261.274 148.981 261.174 148.948L236.954 138.637L238.379 135.284L262.467 145.541C275.897 148.86 302.812 163.075 309.173 179.871C313.458 191.186 310.498 205.909 298.173 211.136C296.958 212.261 295.776 213.684 294.539 215.173C293.601 216.309 292.651 217.456 291.646 218.514C294.031 220.83 295.257 224.459 294.705 228.043C294.219 231.175 291.679 238.475 278.558 238.564C278.481 238.553 278.426 238.553 278.359 238.553Z" fill="#242424"/>
<path d="M291.579 211.964C292.242 214.699 291.469 217.853 289.536 219.86C287.725 221.701 285.317 222.507 282.876 222.937L284.456 222.143C287.791 220.312 289.989 216.882 288.167 213.232C288.178 213.243 291.579 211.964 291.579 211.964Z" fill="#242424"/>
<path d="M267.381 186.4C272.407 180.831 279.088 176.795 286.278 174.765C281.386 177.048 277.001 180.346 273.456 184.393C272.34 185.672 271.225 187.062 270.352 188.507C270.341 188.495 267.381 186.4 267.381 186.4Z" fill="#242424"/>
<path d="M261.55 203.351C261.55 203.351 269.347 204.85 276.692 207.674C284.688 210.739 290.983 214.842 293.115 215.085C296.439 215.459 298.637 211.953 297.533 209.427C295.732 205.358 280.325 198.355 273.114 197.109C266.973 196.039 263.891 196.568 263.891 196.568C263.891 196.568 259.849 199.7 261.55 203.351Z" fill="white"/>
<path d="M297.808 211.236C297.588 213.342 295.699 215.371 293.126 215.085C290.983 214.842 284.699 210.739 276.703 207.674C269.347 204.85 261.561 203.362 261.561 203.362C259.86 199.711 263.902 196.568 263.902 196.568C263.902 196.568 266.984 196.039 273.124 197.109C275.344 197.495 278.348 198.421 281.485 199.656C288.542 202.402 296.306 206.615 297.543 209.438C297.786 210.001 297.864 210.618 297.808 211.236Z" fill="#454544"/>
<path d="M297.808 211.236C297.588 213.342 295.699 215.371 293.126 215.085C290.983 214.842 284.699 210.739 276.703 207.674C269.347 204.85 261.561 203.362 261.561 203.362C259.86 199.711 263.902 196.568 263.902 196.568C263.902 196.568 266.984 196.039 273.124 197.109C275.344 197.495 278.348 198.421 281.485 199.656C280.215 201.123 279.199 203.141 281.176 204.663C284.577 207.266 293.391 214.224 297.808 211.236Z" fill="#2D2D2D"/>
<path d="M293.6 216.926C293.368 216.926 293.148 216.915 292.916 216.882C291.623 216.739 289.867 215.868 286.609 214.224C283.716 212.758 280.104 210.927 276.04 209.372C268.927 206.648 261.285 205.159 261.207 205.137C260.633 205.027 260.147 204.652 259.904 204.122C258.082 200.207 260.854 196.634 262.776 195.134C263.008 194.947 263.295 194.826 263.582 194.782C263.725 194.76 267.05 194.219 273.422 195.322C280.325 196.524 296.958 203.615 299.189 208.699C299.995 210.519 299.697 212.736 298.416 214.467C297.267 216.033 295.5 216.926 293.6 216.926ZM262.974 201.796C265.393 202.314 271.468 203.725 277.343 205.986C281.584 207.618 285.284 209.493 288.255 210.993C290.398 212.085 292.617 213.21 293.324 213.287C294.528 213.43 295.246 212.647 295.5 212.316C295.997 211.633 296.152 210.795 295.876 210.166C294.55 207.155 280.325 200.207 272.804 198.906C268.441 198.145 265.702 198.233 264.664 198.322C264.046 198.895 262.82 200.285 262.974 201.796Z" fill="#242424"/>
<g clip-path="url(#clip0_78_1377436)">
<path d="M76.5776 135.545C75.7654 133.588 75.0866 131.454 74.7705 129.404C74.4644 127.391 74.4873 124.808 74.6978 122.064C68.7511 122.683 62.7887 123.357 56.8483 124.075C55.8961 126.216 55.4294 128.337 55.74 131.382C56.0262 134.222 57.1518 135.965 58.4937 137.578C64.5208 136.847 70.5511 136.165 76.5776 135.545Z" fill="#FFCC3E"/>
<path d="M54.6998 122.819C55.0905 122.142 55.7804 121.685 56.565 121.584C62.4868 120.872 68.5052 120.183 74.4519 119.564C75.1923 119.485 75.9121 119.742 76.4388 120.252C76.9654 120.762 77.2397 121.49 77.183 122.217C76.9669 125.052 76.9864 127.343 77.2401 129.009C77.4889 130.657 78.0486 132.532 78.8739 134.575C79.1787 135.305 79.1332 136.15 78.707 136.806C78.3044 137.476 77.6027 137.925 76.8249 138.015C71.0022 138.611 64.9346 139.302 58.7903 140.045C57.9564 140.149 57.125 139.812 56.5822 139.166C55.0751 137.346 53.6142 135.173 53.2675 131.617C52.9426 128.405 53.332 125.844 54.5814 123.051C54.6107 122.973 54.6518 122.902 54.6998 122.819ZM72.0703 124.837C67.5906 125.322 63.0854 125.824 58.6206 126.365C58.2044 127.66 58.0132 129.085 58.2208 131.105C58.3798 132.716 58.8573 133.831 59.6114 134.931C64.2051 134.385 68.7359 133.867 73.1595 133.397C72.7712 132.128 72.4894 130.921 72.3261 129.782C72.1097 128.406 72.0205 126.756 72.0703 124.837Z" fill="#3A3A3A"/>
<path d="M76.5776 135.545C75.7654 133.588 75.0866 131.454 74.7705 129.404C74.4644 127.391 74.4873 124.808 74.6978 122.064C68.7511 122.683 62.7887 123.357 56.8483 124.075C55.8961 126.216 55.4294 128.337 55.74 131.382C56.0262 134.222 57.1518 135.965 58.4937 137.578C64.5208 136.847 70.5511 136.165 76.5776 135.545Z" fill="#FFCC3E"/>
<g opacity="0.5">
<path d="M76.5771 135.545C76.1551 134.525 75.7724 133.465 75.4526 132.378C70.2089 132.929 64.987 133.523 59.7445 134.153C58.4026 132.539 57.2719 130.779 56.9907 127.957C56.8361 126.474 56.8703 125.212 57.0516 124.05C56.9837 124.058 56.9157 124.067 56.8478 124.075C55.8956 126.216 55.429 128.337 55.7395 131.382C56.0257 134.222 57.1513 135.965 58.4932 137.578C64.5203 136.847 70.5506 136.165 76.5771 135.545Z" fill="white"/>
</g>
<path d="M74.5974 127.515C74.5014 125.877 74.5542 124.008 74.7043 122.052C68.7576 122.672 62.7953 123.345 56.8548 124.063C55.9026 126.204 55.436 128.325 55.7465 131.37C55.8288 132.13 55.9591 132.807 56.1474 133.438C56.3149 131.999 56.7037 130.751 57.2658 129.477C63.033 128.786 68.8171 128.12 74.5974 127.515Z" fill="#FF9240"/>
<path d="M54.6998 122.819C55.0905 122.142 55.7804 121.685 56.565 121.584C62.4868 120.872 68.5052 120.183 74.4519 119.564C75.1923 119.485 75.9121 119.742 76.4388 120.252C76.9654 120.762 77.2397 121.49 77.183 122.217C76.9669 125.052 76.9864 127.343 77.2401 129.009C77.4889 130.657 78.0486 132.532 78.8739 134.575C79.1787 135.305 79.1332 136.15 78.707 136.806C78.3044 137.476 77.6027 137.925 76.8249 138.015C71.0022 138.611 64.9346 139.302 58.7903 140.045C57.9564 140.149 57.125 139.812 56.5822 139.166C55.0751 137.346 53.6142 135.173 53.2675 131.617C52.9426 128.405 53.332 125.844 54.5814 123.051C54.6107 122.973 54.6518 122.902 54.6998 122.819ZM72.0703 124.837C67.5906 125.322 63.0854 125.824 58.6206 126.365C58.2044 127.66 58.0132 129.085 58.2208 131.105C58.3798 132.716 58.8573 133.831 59.6114 134.931C64.2051 134.385 68.7359 133.867 73.1595 133.397C72.7712 132.128 72.4894 130.921 72.3261 129.782C72.1097 128.406 72.0205 126.756 72.0703 124.837Z" fill="#3A3A3A"/>
<path d="M82.3484 128.666L79.7929 124.04L77.5278 128.812L80.0833 133.437L82.3484 128.666Z" fill="#FFCC3E"/>
<path d="M89.7013 128.21L87.3484 123.479L84.8682 128.158L87.228 132.876L89.7013 128.21Z" fill="#FFCC3E"/>
<path d="M97.5087 127.43L94.7489 122.94L92.6987 127.803L95.4518 132.305L97.5087 127.43Z" fill="#FFCC3E"/>
<path d="M105.241 126.48L102.514 121.961L100.421 126.816L103.142 131.347L105.241 126.48Z" fill="#FFCC3E"/>
<path d="M112.533 125.91L109.818 121.397L107.725 126.252L110.441 130.765L112.533 125.91Z" fill="#FFCC3E"/>
<path d="M350.742 141.355C280.515 131.015 209.694 127.501 138.964 130.832C118.155 131.815 97.3606 133.376 76.5775 135.545C70.551 136.165 64.5208 136.847 58.5005 137.566C57.1587 135.953 56.033 134.211 55.7537 131.358C55.4363 128.325 55.9029 126.204 56.8551 124.063C62.7956 123.345 68.7579 122.672 74.7046 122.052C95.6422 119.862 116.592 118.279 137.555 117.275C201.2 114.239 264.94 116.671 328.261 124.561C332.397 125.081 340.618 128.371 345.588 132.697C351.035 137.456 352.534 141.615 350.742 141.355Z" fill="#CCCCCC"/>
<path d="M348.157 135.193C344.404 133.327 340.582 132.07 338.148 131.773C274.827 123.884 208.96 120.049 145.315 123.085C124.34 124.083 105.53 127.074 84.5923 129.265C78.6388 129.896 72.6951 130.565 66.7428 131.276C65.99 132.962 65.5445 134.636 65.5447 136.742C63.1926 137.014 60.8406 137.287 58.5005 137.566C57.1586 135.953 56.0211 134.204 55.7536 131.358C55.448 128.332 55.9029 126.204 56.855 124.063C62.7955 123.345 68.7578 122.672 74.7046 122.052C95.6421 119.862 116.598 118.268 137.555 117.275C201.2 114.239 264.94 116.671 328.26 124.561C332.397 125.081 340.618 128.371 345.588 132.697C346.571 133.565 347.427 134.408 348.157 135.193Z" fill="white"/>
<path d="M138.964 130.832C118.155 131.815 97.3603 133.376 76.5773 135.545C70.5508 136.165 64.5206 136.847 58.5003 137.566C57.1584 135.953 56.0328 134.21 55.7534 131.358C55.436 128.325 55.9027 126.204 56.8549 124.063C62.7954 123.345 68.7577 122.672 74.7044 122.052C95.642 119.862 116.591 118.279 137.555 117.275L138.964 130.832Z" fill="#242424"/>
<path d="M54.6996 122.819C55.0904 122.142 55.7802 121.685 56.5648 121.584C62.4867 120.872 68.505 120.183 74.4518 119.564C158.91 110.751 244.409 111.593 328.571 122.081C333.432 122.687 342.09 126.34 347.223 130.823C348.608 132.034 355.436 138.256 353.649 142.116C353.07 143.365 351.785 144.032 350.364 143.813C259.866 130.491 167.839 128.539 76.8248 138.015C71.0021 138.61 64.9345 139.302 58.7783 140.038C57.9445 140.142 57.1131 139.805 56.5702 139.159C55.0632 137.339 53.6022 135.166 53.2555 131.61C52.9306 128.399 53.32 125.837 54.5694 123.044C54.6105 122.973 54.6517 122.902 54.6996 122.819ZM347.559 138.362C346.747 137.308 345.576 135.999 343.935 134.576C339.338 130.561 331.521 127.472 327.938 127.034C244.147 116.587 159.028 115.742 74.945 124.534C69.5162 125.104 64.0294 125.72 58.6205 126.365C58.2043 127.66 58.013 129.085 58.2207 131.104C58.3797 132.716 58.8572 133.831 59.6113 134.931C65.3106 134.248 70.9264 133.628 76.3297 133.075C166.568 123.657 257.802 125.452 347.559 138.362Z" fill="#242424"/>
<path d="M76.5776 135.545C75.7654 133.588 75.0866 131.454 74.7705 129.404C74.4644 127.391 74.4873 124.808 74.6978 122.064C68.7511 122.683 62.7887 123.357 56.8483 124.075C55.8961 126.216 55.4294 128.337 55.74 131.382C56.0262 134.222 57.1518 135.965 58.4937 137.578C64.5208 136.847 70.5511 136.165 76.5776 135.545Z" fill="#FFCC3E"/>
<path d="M54.6998 122.819C55.0905 122.142 55.7804 121.685 56.565 121.584C62.4868 120.872 68.5052 120.183 74.4519 119.564C75.1923 119.485 75.9121 119.742 76.4388 120.252C76.9654 120.762 77.2397 121.49 77.183 122.217C76.9669 125.052 76.9864 127.343 77.2401 129.009C77.4889 130.657 78.0486 132.532 78.8739 134.575C79.1787 135.305 79.1332 136.15 78.707 136.806C78.3044 137.476 77.6027 137.926 76.8249 138.015C71.0022 138.611 64.9346 139.302 58.7903 140.045C57.9564 140.149 57.125 139.812 56.5822 139.166C55.0751 137.346 53.6142 135.173 53.2675 131.617C52.9426 128.405 53.332 125.844 54.5814 123.051C54.6107 122.973 54.6518 122.902 54.6998 122.819ZM72.0703 124.837C67.5906 125.322 63.0854 125.824 58.6206 126.365C58.2044 127.66 58.0132 129.085 58.2208 131.105C58.3798 132.716 58.8573 133.831 59.6114 134.931C64.2051 134.385 68.7359 133.867 73.1595 133.397C72.7712 132.128 72.4894 130.921 72.3261 129.782C72.1097 128.406 72.0205 126.756 72.0703 124.837Z" fill="#3A3A3A"/>
<path d="M76.5776 135.545C75.7654 133.588 75.0866 131.454 74.7705 129.404C74.4644 127.391 74.4873 124.808 74.6978 122.064C68.7511 122.683 62.7887 123.357 56.8483 124.075C55.8961 126.216 55.4294 128.337 55.74 131.382C56.0262 134.222 57.1518 135.965 58.4937 137.578C64.5208 136.847 70.5511 136.165 76.5776 135.545Z" fill="#FFCC3E"/>
<path d="M74.5974 127.515C74.5014 125.877 74.5542 124.008 74.7043 122.052C68.7576 122.672 62.7953 123.345 56.8548 124.063C55.9026 126.204 55.436 128.325 55.7465 131.37C55.8288 132.13 55.9591 132.807 56.1474 133.438C56.3149 131.999 56.7037 130.751 57.2658 129.477C63.033 128.786 68.8171 128.12 74.5974 127.515Z" fill="#FF9240"/>
<path d="M54.6998 122.819C55.0905 122.142 55.7804 121.685 56.565 121.584C62.4868 120.872 68.5052 120.183 74.4519 119.564C75.1923 119.485 75.9121 119.742 76.4388 120.252C76.9654 120.762 77.2397 121.49 77.183 122.217C76.9669 125.052 76.9864 127.343 77.2401 129.009C77.4889 130.657 78.0486 132.532 78.8739 134.575C79.1787 135.305 79.1332 136.15 78.707 136.806C78.3044 137.476 77.6027 137.926 76.8249 138.015C71.0022 138.611 64.9346 139.302 58.7903 140.045C57.9564 140.149 57.125 139.812 56.5822 139.166C55.0751 137.346 53.6142 135.173 53.2675 131.617C52.9426 128.405 53.332 125.844 54.5814 123.051C54.6107 122.973 54.6518 122.902 54.6998 122.819ZM72.0703 124.837C67.5906 125.322 63.0854 125.824 58.6206 126.365C58.2044 127.66 58.0132 129.085 58.2208 131.105C58.3798 132.716 58.8573 133.831 59.6114 134.931C64.2051 134.385 68.7359 133.867 73.1595 133.397C72.7712 132.128 72.4894 130.921 72.3261 129.782C72.1097 128.406 72.0205 126.756 72.0703 124.837Z" fill="#242424"/>
<path d="M83.2431 127.774L80.8977 123.522L78.8027 127.917L81.155 132.156L83.2431 127.774Z" fill="#FFCC3E"/>
<path d="M90.005 127.356L87.8434 123.005L85.5639 127.309L87.7323 131.648L90.005 127.356Z" fill="#FFCC3E"/>
<path d="M97.1892 126.644L94.6531 122.504L92.7612 126.984L95.2973 131.124L97.1892 126.644Z" fill="#FFCC3E"/>
<path d="M104.298 125.762L101.8 121.612L99.8722 126.072L102.376 130.24L104.298 125.762Z" fill="#FFCC3E"/>
<path d="M111.023 125.244L108.513 121.087L106.586 125.547L109.089 129.715L111.023 125.244Z" fill="#FFCC3E"/>
<path d="M117.831 124.473L115.34 120.311L113.405 124.782L115.916 128.939L117.831 124.473Z" fill="#FFCC3E"/>
<path d="M124.881 123.667L122.37 119.51L120.443 123.97L122.947 128.138L124.881 123.667Z" fill="#FFCC3E"/>
<path d="M131.734 123.555L129.231 119.387L127.303 123.846L129.807 128.015L131.734 123.555Z" fill="#FFCC3E"/>
<path d="M137.618 139.316C134.955 139.361 132.768 137.244 132.728 134.577L132.39 112.71C132.351 110.044 134.471 107.849 137.134 107.803C139.797 107.757 141.985 109.875 142.024 112.542L142.362 134.409C142.401 137.075 140.281 139.27 137.618 139.316Z" fill="#FFCC3E"/>
<path d="M137.618 139.316C134.955 139.361 132.768 137.244 132.728 134.577L132.39 112.71C132.358 110.634 133.651 108.832 135.496 108.124L135.742 124.571C135.782 127.238 137.969 129.355 140.632 129.31C141.209 129.295 141.761 129.186 142.27 128.989L142.355 134.42C142.401 137.075 140.281 139.27 137.618 139.316Z" fill="#FF9240"/>
<path d="M130.877 108.987C131.179 108.465 131.533 107.988 131.965 107.541C133.325 106.142 135.146 105.341 137.091 105.308C139.036 105.276 140.892 105.999 142.286 107.358C143.68 108.717 144.476 110.538 144.504 112.485L144.842 134.352C144.896 138.388 141.676 141.722 137.65 141.804C135.705 141.836 133.849 141.113 132.455 139.754C131.061 138.395 130.265 136.574 130.237 134.627L129.899 112.76C129.883 111.421 130.226 110.115 130.877 108.987ZM139.558 135.655C139.764 135.299 139.875 134.888 139.871 134.458L139.533 112.591C139.528 111.971 139.275 111.398 138.829 110.966C138.384 110.535 137.791 110.303 137.171 110.31C136.552 110.316 135.979 110.571 135.547 111.018C135.115 111.465 134.882 112.059 134.887 112.68L135.225 134.546C135.23 135.167 135.483 135.74 135.929 136.172C136.374 136.603 136.967 136.834 137.587 136.828C138.434 136.81 139.161 136.344 139.558 135.655Z" fill="#242424"/>
<path d="M298.942 128.087C246.803 124.595 194.471 122.939 142.226 124.499C140.673 124.536 140.44 122.123 142.163 122.009C181.424 121.089 220.698 122.171 259.891 124.268C272.958 124.989 286.001 125.807 299.049 126.834C299.397 126.861 299.648 127.164 299.621 127.513C299.581 127.854 299.271 128.118 298.942 128.087Z" fill="#242424"/>
</g>
<path d="M131.689 173.881C92.3848 179.64 77.3345 139.244 77.3345 139.244L116.19 130.783C116.19 130.783 122.214 140.71 134.763 144.161" fill="#454544"/>
<g opacity="0.3">
<path d="M134.764 144.161L134.451 147.207C120.213 144.161 111.823 134.608 109.864 132.155L116.18 130.783C116.18 130.783 122.215 140.71 134.764 144.161Z" fill="#FFBD99"/>
</g>
<g opacity="0.3">
<path d="M131.689 173.881C92.3745 179.64 77.3242 139.244 77.3242 139.244L86.3502 137.28C90.4359 145.679 103.058 166.729 127.572 168.87C130.105 169.089 131.949 171.355 131.689 173.881Z" fill="#242424"/>
</g>
<path d="M131.772 174.432C131.074 174.754 130.365 175.003 129.635 175.232C129.271 175.346 128.906 175.45 128.541 175.544C128.176 175.658 127.811 175.71 127.436 175.773C126.696 175.887 125.946 175.991 125.195 176.064C124.82 176.116 124.445 176.126 124.07 176.126L122.944 176.147C119.921 176.23 116.909 175.71 113.97 175.035L111.771 174.484C111.041 174.265 110.333 174.016 109.613 173.798C109.259 173.683 108.894 173.579 108.54 173.444L107.487 173.028C106.789 172.737 106.07 172.509 105.392 172.166L103.339 171.209L101.348 170.128C100.671 169.785 100.056 169.349 99.4097 168.964L98.4508 168.371L97.5232 167.727C92.5724 164.307 88.32 160.003 84.6929 155.294C82.8793 152.935 81.2325 150.45 79.7317 147.893C78.9917 146.604 78.2725 145.305 77.6159 143.974C77.2824 143.309 76.9593 142.633 76.657 141.957C76.3443 141.271 76.0525 140.606 75.7607 139.847L75.0728 138.059L76.9697 137.643L115.825 129.151L116.951 128.901L117.597 129.909C117.795 130.221 118.077 130.627 118.348 130.98C118.619 131.344 118.91 131.708 119.192 132.061C119.786 132.768 120.401 133.454 121.047 134.119C122.35 135.44 123.747 136.666 125.268 137.727C126.79 138.787 128.437 139.618 130.052 140.502C131.657 141.427 133.294 142.228 134.888 143.61L134.92 143.631C135.17 143.849 135.191 144.224 134.982 144.473C134.878 144.587 134.742 144.66 134.597 144.671C132.47 144.92 130.396 144.473 128.52 143.631C127.561 143.257 126.675 142.716 125.8 142.196C125.362 141.926 124.956 141.614 124.528 141.323L123.903 140.887L123.298 140.419C122.475 139.816 121.683 139.172 120.901 138.527L119.765 137.498C119.39 137.155 119.036 136.781 118.671 136.427C117.952 135.7 117.274 134.941 116.617 134.151C116.294 133.745 115.971 133.35 115.669 132.934C115.356 132.508 115.075 132.113 114.752 131.604L116.534 132.363L77.6784 140.824L78.8874 138.621C79.1167 139.213 79.4086 139.889 79.69 140.512C79.9818 141.157 80.2841 141.791 80.5968 142.425C81.2221 143.693 81.91 144.93 82.6188 146.157C84.0467 148.6 85.6309 150.97 87.3506 153.215C90.8005 157.696 94.8133 161.76 99.4409 164.941C104.037 168.153 109.217 170.523 114.7 171.656C117.441 172.176 120.224 172.477 123.017 172.602C124.414 172.737 125.821 172.696 127.238 172.82C127.593 172.841 127.947 172.893 128.312 172.904C128.666 172.914 129.031 172.935 129.385 172.976C130.104 173.039 130.834 173.122 131.584 173.288L131.626 173.299C131.939 173.361 132.137 173.673 132.074 173.985C132.053 174.203 131.928 174.349 131.772 174.432Z" fill="#242424"/>
<path d="M108.276 120.554C109.031 123.175 110.455 131.353 107.123 134.099C103.78 136.844 87.82 141.562 81.5474 135.586C77.2919 131.516 75.35 124.9 78.2165 119.855C82.8563 111.726 105.048 109.313 108.276 120.554Z" fill="#FFBD99"/>
<path d="M87.7272 138.555C85.2279 138.193 82.9794 137.34 81.3489 135.792C77.3195 131.946 74.8586 125.188 77.9776 119.72C80.6927 114.945 89.4701 111.855 97.5236 112.831C103.436 113.53 107.324 116.257 108.532 120.491C109.3 123.181 110.727 131.493 107.293 134.326C104.717 136.43 95.1041 139.623 87.7272 138.555ZM97.9647 113.433C97.7886 113.407 97.6234 113.383 97.4567 113.37C89.7335 112.442 81.0317 115.476 78.4554 119.991C75.4847 125.211 77.8517 131.687 81.7334 135.388C87.9446 141.322 103.929 136.361 106.939 133.893C110.154 131.253 108.751 123.247 108.005 120.639C106.534 115.504 101.29 113.914 97.9647 113.433Z" fill="#242424"/>
<g opacity="0.3">
<path d="M107.123 134.099C103.78 136.844 87.8075 141.571 81.5475 135.586C77.5182 131.739 75.5519 125.602 77.7953 120.669C78.1786 123.998 79.8836 127.283 82.4033 129.678C88.6648 135.652 104.636 130.936 107.979 128.191C108.502 127.763 108.909 127.205 109.205 126.553C109.341 129.499 108.936 132.602 107.123 134.099Z" fill="#242424"/>
</g>
<path d="M87.4842 140C84.6986 139.596 82.1734 138.636 80.3166 136.865C75.8632 132.61 73.1848 125.102 76.6698 118.97C80.0176 113.087 90.1944 110.424 97.7069 111.332C104.137 112.107 108.611 115.289 109.986 120.073C110.015 120.19 113.175 131.433 108.25 135.473C105.431 137.789 95.3895 141.145 87.4842 140ZM97.75 114.915C97.5848 114.891 97.4307 114.869 97.2765 114.847C90.2155 114.003 82.0287 116.741 79.7664 120.719C77.1743 125.265 79.3128 130.99 82.7687 134.294C88.072 139.356 102.798 135.323 105.974 132.722C108.218 130.883 107.455 124.203 106.552 121.045C105.314 116.706 100.701 115.343 97.75 114.915Z" fill="#242424"/>
<path d="M88.1338 127.055C88.3102 127.932 88.54 128.829 88.7951 129.707C89.0501 130.585 89.3414 131.445 89.6705 132.278C89.9995 133.11 90.3648 133.925 90.7711 134.691C91.1884 135.457 91.6482 136.163 92.1412 136.795C92.7489 137.567 92.6196 138.692 91.8462 139.297C91.0728 139.903 89.945 139.773 89.3373 139.001C89.2714 138.913 89.2071 138.814 89.1537 138.717L89.1443 138.704C88.1625 136.79 87.6448 134.854 87.2938 132.931C87.1302 131.966 86.9979 131.016 86.9129 130.051C86.8279 129.085 86.7728 128.147 86.7696 127.16C86.7687 126.778 87.0728 126.464 87.4661 126.465C87.8028 126.469 88.084 126.7 88.1496 127.023L88.1338 127.055Z" fill="#242424"/>
<path d="M101.148 125.06C101.559 125.95 101.894 126.817 102.214 127.715C102.522 128.612 102.807 129.516 103.032 130.446C103.507 132.286 103.838 134.195 104.019 136.127C104.113 137.105 103.38 137.974 102.4 138.068C101.42 138.161 100.548 137.43 100.454 136.452C100.447 136.339 100.443 136.215 100.46 136.094C100.653 134.373 100.696 132.608 100.593 130.832C100.542 129.939 100.457 129.053 100.338 128.172C100.218 127.291 100.057 126.382 99.8509 125.556L99.8446 125.522C99.7524 125.15 99.9858 124.78 100.359 124.688C100.675 124.6 101.012 124.76 101.148 125.06Z" fill="#242424"/>
<path opacity="0.5" d="M196.462 376.51C250.849 376.51 294.937 372.035 294.937 366.516C294.937 360.996 250.849 356.522 196.462 356.522C142.076 356.522 97.9873 360.996 97.9873 366.516C97.9873 372.035 142.076 376.51 196.462 376.51Z" fill="black"/>
<path d="M182.339 357.708C182.364 358.659 182.227 359.597 181.877 360.485C180.389 364.251 177.513 367.004 173.649 369.043C172.886 369.444 172.061 369.719 171.211 369.844C158.832 371.646 147.053 371.683 135.849 369.982C134.311 369.744 132.873 369.031 131.81 367.892C128.947 364.852 127.884 360.673 128.759 355.256C128.922 354.28 129.235 353.341 129.672 352.466L131.01 349.763L145.64 320.161L181.614 325.215L182.027 342.944L182.339 357.708Z" fill="#50468F"/>
<path d="M132.999 345.697C128.91 357.533 145.678 363.814 159.482 355.306C160.733 354.53 162.246 354.292 163.696 354.555L167.96 355.331C169.148 355.543 170.311 354.73 170.436 353.529C170.736 350.639 169.386 348.087 166.822 345.797C165.597 344.696 164.734 343.257 164.422 341.643C163.534 337.064 163.034 332.785 163.671 329.444L143.44 323.814L132.999 345.697Z" fill="white"/>
<path d="M152.655 373.097C146.816 373.097 141.114 372.684 135.562 371.833C133.586 371.533 131.773 370.595 130.435 369.181C127.134 365.678 125.946 360.898 126.897 354.955C127.072 353.829 127.434 352.703 127.972 351.627L143.94 319.335C144.302 318.609 145.078 318.197 145.878 318.309L181.852 323.364C182.765 323.489 183.453 324.265 183.465 325.178L184.215 357.683C184.24 358.934 184.04 360.11 183.628 361.186C182.065 365.165 179.001 368.368 174.512 370.72C173.562 371.22 172.537 371.558 171.474 371.708C165.097 372.622 158.807 373.097 152.655 373.097ZM146.703 322.213L131.336 353.291C130.973 354.03 130.723 354.793 130.598 355.543C129.835 360.335 130.673 363.951 133.161 366.591C133.924 367.392 134.974 367.93 136.125 368.105C147.153 369.769 158.87 369.731 170.936 367.967C171.574 367.88 172.199 367.667 172.774 367.367C176.488 365.415 178.889 362.938 180.139 359.785C180.377 359.184 180.489 358.496 180.477 357.745L179.764 326.842L146.703 322.213Z" fill="#242424"/>
<path d="M182.327 356.92C181.902 365.79 127.584 368.605 128.872 354.643C127.747 360.248 128.272 365.478 134.099 369.481C146.228 371.871 159.019 371.708 172.311 369.594C179.176 366.303 182.44 362.062 182.327 356.92Z" fill="white"/>
<path d="M152.63 372.484C146.091 372.484 139.864 371.896 133.849 370.707C133.687 370.67 133.524 370.607 133.386 370.507C126.322 365.653 126.734 358.984 127.647 354.392C127.772 353.742 128.397 353.291 129.06 353.404C129.723 353.504 130.185 354.092 130.123 354.755C129.973 356.332 130.761 357.683 132.536 358.897C141.014 364.702 168.723 364.126 178.489 359.259C180.102 358.459 181.052 357.583 181.09 356.857C181.127 356.194 181.677 355.669 182.34 355.669H182.352C183.028 355.681 183.578 356.219 183.59 356.895C183.715 362.6 180.102 367.242 172.862 370.72C172.749 370.77 172.637 370.807 172.512 370.833C165.534 371.934 158.932 372.484 152.63 372.484ZM134.587 368.305C145.991 370.52 158.207 370.545 171.924 368.393C176.15 366.341 178.889 363.964 180.189 361.199C180.002 361.299 179.802 361.411 179.589 361.511C169.986 366.291 140.914 367.692 131.111 360.973C130.548 360.586 130.073 360.198 129.673 359.797C129.873 363.401 131.461 366.078 134.587 368.305Z" fill="#242424"/>
<path d="M148.116 350.777C147.291 350.777 146.528 350.226 146.303 349.388C146.028 348.387 146.616 347.361 147.616 347.086L166.797 341.868C167.798 341.593 168.823 342.181 169.098 343.182C169.373 344.183 168.785 345.209 167.785 345.484L148.604 350.701C148.454 350.751 148.291 350.777 148.116 350.777Z" fill="#242424"/>
<path d="M148.616 349.826C148.091 349.826 147.566 349.6 147.191 349.175L136.687 336.951C136.012 336.163 136.1 334.974 136.887 334.299C137.675 333.623 138.863 333.711 139.538 334.499L150.042 346.723C150.717 347.511 150.629 348.7 149.842 349.375C149.491 349.675 149.054 349.826 148.616 349.826Z" fill="#242424"/>
<path d="M150.004 344.145C149.492 344.145 148.979 343.933 148.604 343.52L138.738 332.522C138.05 331.747 138.113 330.558 138.876 329.87C139.651 329.182 140.839 329.244 141.526 330.007L151.392 341.005C152.08 341.781 152.017 342.969 151.255 343.657C150.892 343.983 150.442 344.145 150.004 344.145Z" fill="#242424"/>
<path d="M151.88 338.916C151.367 338.916 150.854 338.703 150.479 338.29L141.089 327.768C140.401 326.992 140.464 325.804 141.239 325.115C142.014 324.427 143.202 324.49 143.89 325.266L153.28 335.788C153.968 336.563 153.905 337.752 153.13 338.44C152.768 338.753 152.317 338.916 151.88 338.916Z" fill="#242424"/>
<path d="M149.379 345.209C148.554 345.209 147.791 344.658 147.566 343.82C147.291 342.819 147.878 341.793 148.879 341.518L165.559 336.976C166.559 336.701 167.585 337.289 167.86 338.29C168.135 339.291 167.547 340.317 166.547 340.592L149.867 345.134C149.704 345.184 149.541 345.209 149.379 345.209Z" fill="#242424"/>
<path d="M150.467 340.029C149.641 340.029 148.879 339.479 148.654 338.64C148.379 337.639 148.966 336.614 149.967 336.338L164.446 332.397C165.447 332.122 166.472 332.71 166.747 333.711C167.022 334.712 166.434 335.738 165.434 336.013L150.954 339.954C150.804 340.004 150.642 340.029 150.467 340.029Z" fill="#242424"/>
<path d="M150.379 335.75C149.541 335.75 148.791 335.187 148.566 334.349C148.303 333.348 148.904 332.322 149.904 332.059L166.822 327.618C167.822 327.355 168.848 327.956 169.11 328.956C169.373 329.957 168.773 330.983 167.772 331.246L150.854 335.688C150.692 335.738 150.529 335.75 150.379 335.75Z" fill="#242424"/>
<path d="M181.764 332.61L173.512 336.501C172.811 336.826 172.361 337.527 172.336 338.29C172.149 343.144 173.136 347.036 175.687 349.663C176.45 350.451 177.575 350.764 178.638 350.551L182.164 349.826L181.764 332.61Z" fill="#242424"/>
<path d="M177.951 351.878C176.763 351.878 175.612 351.402 174.775 350.539C172.111 347.799 170.861 343.657 171.073 338.24C171.123 337.001 171.849 335.888 172.974 335.362L181.227 331.471C181.614 331.296 182.065 331.321 182.415 331.534C182.777 331.759 183.002 332.147 183.002 332.572L183.402 349.788C183.415 350.389 182.99 350.927 182.402 351.039L178.876 351.765C178.576 351.853 178.263 351.878 177.951 351.878ZM180.564 334.574L174.049 337.652C173.774 337.777 173.599 338.052 173.587 338.365C173.399 343.132 174.375 346.548 176.575 348.812C177.025 349.275 177.713 349.475 178.376 349.35L180.889 348.837L180.564 334.574Z" fill="#242424"/>
<path d="M146.19 360.498C141.651 360.498 137.662 359.172 135.012 357.045C131.398 354.142 130.222 349.851 131.811 345.284C131.823 345.234 131.848 345.196 131.861 345.159L142.289 323.264C142.552 322.713 143.164 322.438 143.752 322.601L163.984 328.231C164.609 328.406 164.996 329.031 164.871 329.67C164.346 332.385 164.584 336 165.622 341.393C165.872 342.707 166.572 343.895 167.635 344.846C170.623 347.524 171.986 350.489 171.661 353.642C171.573 354.555 171.111 355.356 170.361 355.919C169.61 356.482 168.648 356.72 167.71 356.544L163.446 355.769C162.258 355.556 161.083 355.769 160.107 356.357C155.418 359.284 150.554 360.498 146.19 360.498ZM134.161 346.172C132.961 349.713 133.824 352.878 136.587 355.093C140.976 358.621 150.267 359.522 158.819 354.242C160.307 353.329 162.12 353.004 163.908 353.316L168.172 354.092C168.41 354.142 168.673 354.08 168.873 353.929C168.973 353.854 169.148 353.679 169.185 353.391C169.423 351.052 168.372 348.862 165.984 346.723C164.509 345.409 163.546 343.733 163.183 341.881C162.208 336.851 161.92 333.223 162.258 330.358L144.102 325.291L134.161 346.172Z" fill="#242424"/>
<path d="M136.55 270.991L125.059 279.623L126.071 286.943L140.063 284.941L136.55 270.991Z" fill="#74698B"/>
<g opacity="0.3">
<path d="M136.55 270.991L125.059 279.623L126.071 286.943L140.063 284.941L136.55 270.991Z" fill="#242424"/>
</g>
<path d="M127.634 286.943L129.31 303.345C129.422 304.446 130.31 305.322 131.411 305.41L140.076 306.11L139.126 285.066L127.634 286.943Z" fill="#74698B"/>
<g opacity="0.3">
<path d="M127.634 286.943L129.31 303.345C129.422 304.446 130.31 305.322 131.411 305.41L140.076 306.11L139.126 285.066L127.634 286.943Z" fill="#242424"/>
</g>
<path d="M126.071 288.832C125.671 288.832 125.271 288.707 124.946 288.457C124.546 288.156 124.283 287.706 124.221 287.218L123.208 279.899C123.12 279.223 123.395 278.547 123.946 278.135L135.437 269.502C135.937 269.126 136.6 269.026 137.187 269.239C137.775 269.452 138.225 269.94 138.388 270.553L141.901 284.503C142.027 285.016 141.939 285.566 141.639 286.004C141.339 286.442 140.876 286.743 140.351 286.818L126.346 288.819C126.246 288.819 126.159 288.832 126.071 288.832ZM127.059 280.462L127.659 284.816L137.725 283.377L135.412 274.181L127.059 280.462Z" fill="#242424"/>
<path d="M140.063 308C140.013 308 139.963 308 139.913 308L131.248 307.299C129.235 307.136 127.634 305.56 127.434 303.558L125.759 287.155C125.659 286.167 126.346 285.266 127.322 285.116L138.813 283.239C139.338 283.152 139.876 283.302 140.301 283.64C140.726 283.977 140.964 284.478 140.989 285.016L141.939 306.06C141.964 306.598 141.751 307.124 141.364 307.499C141.026 307.812 140.551 308 140.063 308ZM129.685 288.519L131.173 303.158C131.198 303.358 131.361 303.52 131.561 303.533L138.1 304.071L137.337 287.268L129.685 288.519Z" fill="#242424"/>
<path d="M188.579 272.78L188.192 282.664L186.979 313.279C186.929 314.418 186.466 315.482 185.666 316.282L182.515 319.435C181.927 320.023 181.589 320.824 181.589 321.662V328.494C169.073 331.621 154.631 329.87 143.427 323.802V317.233C140.626 317.233 138.325 315.019 138.213 312.229L135.937 257.153L188.579 272.78Z" fill="#74698B"/>
<g opacity="0.6">
<path d="M186.391 284.941C185.991 284.953 185.803 289.007 184.103 304.246C184.04 304.847 183.753 307.261 182.815 310.252C182.177 312.279 181.777 313.58 180.902 314.731C179.326 316.795 176.875 317.546 173.162 318.171C169.598 318.772 164.446 319.348 157.994 319.035C166.972 320.674 173.549 320.211 177.438 319.648C179.789 319.31 182.152 318.797 183.978 316.92C186.428 314.418 186.553 310.89 186.603 308.525C186.829 296.739 187.066 284.916 186.391 284.941Z" fill="white"/>
</g>
<path d="M168.823 331.922C159.632 331.922 150.379 329.707 142.539 325.453C141.939 325.128 141.552 324.49 141.552 323.802V318.86C138.638 318.071 136.475 315.469 136.337 312.304L134.062 257.228C134.037 256.627 134.312 256.039 134.787 255.664C135.262 255.289 135.9 255.176 136.475 255.351L189.105 270.991C189.93 271.241 190.48 272.004 190.443 272.867L188.842 313.355C188.779 314.969 188.117 316.482 186.979 317.621L183.828 320.774C183.59 321.012 183.453 321.337 183.453 321.675V328.506C183.453 329.369 182.865 330.12 182.027 330.333C177.763 331.396 173.299 331.922 168.823 331.922ZM145.303 322.663C155.444 327.83 168.385 329.457 179.714 327.005V321.662C179.714 320.323 180.239 319.06 181.19 318.109L184.341 314.956C184.803 314.493 185.078 313.868 185.103 313.204L186.641 274.168L137.925 259.693L140.089 312.141C140.164 313.943 141.627 315.344 143.427 315.344C144.465 315.344 145.303 316.182 145.303 317.221V322.663Z" fill="#242424"/>
<path d="M139.989 309.676C139.901 314.606 146.978 316.295 150.955 317.358C156.281 318.597 161.833 319.235 167.36 319.81C167.81 319.861 168.135 320.261 168.098 320.711C168.048 321.137 167.685 321.462 167.247 321.45C161.608 321.224 156.006 320.937 150.417 320.011C144.79 319.06 136.425 316.833 136.237 309.689C136.237 307.086 140.001 307.086 139.989 309.676Z" fill="#242424"/>
<g opacity="0.3">
<path d="M153.33 316.908C153.243 317.759 153.468 318.622 154.043 319.247C154.193 319.41 154.418 319.585 154.806 319.773C156.594 320.636 157.844 319.623 158.869 320.311C159.707 320.874 159.257 321.8 160.045 323.038C160.945 324.452 162.571 324.903 163.659 325.215C166.097 325.891 172.611 326.429 181.589 326.554V328.506C169.073 331.634 154.631 329.882 143.427 323.814V317.246C140.626 317.246 138.325 315.031 138.213 312.241L135.937 257.165L188.567 272.805L188.179 282.689C184.665 285.491 180.727 286.342 180.189 286.455C175.425 287.418 173.837 286.017 164.934 286.467C162.746 286.58 160.458 286.955 158.757 288.332C156.206 290.383 155.693 293.987 155.356 297.24L153.33 316.908Z" fill="#242424"/>
</g>
<g opacity="0.3">
<path d="M182.002 342.944C180.702 344.396 179.326 345.447 177.863 346.21C165.534 352.653 150.667 339.103 135.737 346.585C133.886 347.511 132.311 348.625 130.985 349.763L145.615 320.161L181.589 325.215L182.002 342.944Z" fill="#242424"/>
</g>
<path d="M205.197 357.708C205.172 358.659 205.31 359.597 205.66 360.485C207.148 364.251 210.024 367.004 213.888 369.043C214.65 369.444 215.476 369.719 216.326 369.844C228.705 371.646 240.484 371.683 251.687 369.982C253.225 369.744 254.663 369.031 255.726 367.892C258.59 364.852 259.652 360.673 258.777 355.256C258.615 354.28 258.302 353.341 257.864 352.466L256.526 349.763L241.897 320.161L205.922 325.215L205.51 342.944L205.197 357.708Z" fill="#50468F"/>
<path d="M254.551 345.697C258.64 357.533 241.872 363.814 228.067 355.306C226.817 354.53 225.304 354.292 223.853 354.555L219.589 355.331C218.401 355.543 217.239 354.73 217.114 353.529C216.813 350.639 218.164 348.087 220.727 345.797C221.953 344.696 222.815 343.257 223.128 341.643C224.016 337.064 224.516 332.785 223.878 329.444L244.11 323.814L254.551 345.697Z" fill="white"/>
<path d="M234.882 373.097C228.73 373.097 222.44 372.634 216.063 371.696C215 371.546 213.975 371.208 213.025 370.707C208.548 368.355 205.485 365.152 203.922 361.174C203.497 360.098 203.297 358.922 203.334 357.67L204.084 325.165C204.109 324.24 204.785 323.476 205.697 323.351L241.672 318.297C242.472 318.184 243.26 318.597 243.61 319.323L259.577 351.615C260.115 352.691 260.478 353.817 260.653 354.943C261.603 360.886 260.415 365.678 257.114 369.168C255.776 370.582 253.963 371.521 251.987 371.821C246.436 372.672 240.721 373.097 234.882 373.097ZM207.785 326.854L207.073 357.758C207.06 358.509 207.173 359.197 207.41 359.797C208.648 362.95 211.062 365.44 214.775 367.379C215.35 367.68 215.976 367.88 216.613 367.98C228.692 369.744 240.396 369.794 251.425 368.118C252.575 367.942 253.625 367.404 254.388 366.604C256.877 363.964 257.714 360.348 256.952 355.556C256.826 354.793 256.589 354.042 256.214 353.291L240.846 322.213L207.785 326.854Z" fill="#242424"/>
<path d="M205.222 356.92C205.647 365.79 259.965 368.605 258.677 354.643C259.802 360.248 259.277 365.478 253.45 369.481C241.321 371.871 228.53 371.708 215.238 369.594C208.373 366.303 205.11 362.062 205.222 356.92Z" fill="white"/>
<path d="M234.919 372.484C228.605 372.484 222.015 371.934 215.038 370.82C214.913 370.795 214.8 370.77 214.688 370.707C207.448 367.242 203.834 362.587 203.959 356.882C203.972 356.207 204.522 355.669 205.197 355.656C205.847 355.618 206.435 356.169 206.46 356.845C206.498 357.57 207.435 358.446 209.061 359.247C218.827 364.101 246.536 364.689 255.013 358.884C256.776 357.67 257.577 356.319 257.427 354.743C257.364 354.08 257.839 353.479 258.489 353.391C259.152 353.291 259.765 353.729 259.902 354.38C260.815 358.972 261.228 365.64 254.163 370.495C254.026 370.595 253.863 370.657 253.7 370.695C247.686 371.896 241.446 372.484 234.919 372.484ZM215.613 368.38C229.33 370.545 241.546 370.507 252.95 368.293C256.076 366.078 257.664 363.388 257.864 359.785C257.464 360.185 256.989 360.586 256.426 360.961C246.623 367.68 217.551 366.278 207.948 361.499C207.735 361.399 207.548 361.286 207.348 361.186C208.648 363.951 211.387 366.328 215.613 368.38Z" fill="#242424"/>
<path d="M239.42 350.777C239.258 350.777 239.095 350.751 238.92 350.714L219.739 345.497C218.739 345.221 218.151 344.195 218.426 343.195C218.701 342.194 219.727 341.606 220.727 341.881L239.908 347.098C240.908 347.373 241.496 348.399 241.221 349.4C241.008 350.226 240.246 350.777 239.42 350.777Z" fill="#242424"/>
<path d="M238.92 349.826C238.483 349.826 238.058 349.675 237.695 349.375C236.907 348.7 236.82 347.511 237.495 346.723L247.998 334.499C248.674 333.711 249.861 333.623 250.649 334.299C251.437 334.974 251.524 336.163 250.849 336.951L240.346 349.175C239.983 349.6 239.458 349.826 238.92 349.826Z" fill="#242424"/>
<path d="M237.545 344.145C237.095 344.145 236.645 343.983 236.295 343.67C235.519 342.982 235.457 341.793 236.157 341.018L246.023 330.02C246.71 329.244 247.898 329.182 248.674 329.882C249.449 330.57 249.511 331.759 248.811 332.535L238.945 343.532C238.57 343.933 238.058 344.145 237.545 344.145Z" fill="#242424"/>
<path d="M235.669 338.916C235.219 338.916 234.782 338.753 234.419 338.44C233.644 337.752 233.581 336.563 234.269 335.788L243.66 325.266C244.347 324.49 245.535 324.427 246.31 325.115C247.086 325.803 247.148 326.992 246.46 327.768L237.07 338.29C236.695 338.703 236.182 338.916 235.669 338.916Z" fill="#242424"/>
<path d="M238.17 345.209C238.008 345.209 237.845 345.184 237.67 345.146L220.99 340.605C219.989 340.329 219.402 339.303 219.677 338.303C219.952 337.302 220.977 336.714 221.977 336.989L238.658 341.531C239.658 341.806 240.246 342.832 239.971 343.833C239.758 344.658 238.995 345.209 238.17 345.209Z" fill="#242424"/>
<path d="M237.07 340.029C236.907 340.029 236.745 340.004 236.582 339.967L222.102 336.025C221.102 335.75 220.514 334.724 220.789 333.723C221.064 332.722 222.09 332.134 223.09 332.41L237.57 336.351C238.57 336.626 239.158 337.652 238.883 338.653C238.658 339.479 237.895 340.029 237.07 340.029Z" fill="#242424"/>
<path d="M237.17 335.75C237.007 335.75 236.857 335.725 236.695 335.688L219.777 331.259C218.776 330.996 218.176 329.97 218.439 328.969C218.701 327.968 219.727 327.367 220.727 327.63L237.645 332.072C238.645 332.335 239.245 333.36 238.983 334.361C238.758 335.187 237.995 335.75 237.17 335.75Z" fill="#242424"/>
<path d="M205.772 332.61L214.025 336.501C214.725 336.826 215.175 337.527 215.2 338.29C215.388 343.144 214.4 347.036 211.849 349.663C211.086 350.451 209.961 350.764 208.898 350.551L205.372 349.826L205.772 332.61Z" fill="#242424"/>
<path d="M209.586 351.878C209.273 351.878 208.973 351.853 208.661 351.777L205.134 351.052C204.547 350.927 204.122 350.401 204.134 349.801L204.534 332.585C204.547 332.159 204.772 331.772 205.122 331.546C205.484 331.321 205.935 331.296 206.31 331.484L214.562 335.375C215.688 335.9 216.413 337.001 216.463 338.252C216.676 343.67 215.425 347.811 212.762 350.551C211.924 351.415 210.786 351.878 209.586 351.878ZM206.66 348.812L209.173 349.325C209.836 349.463 210.524 349.263 210.974 348.787C213.175 346.523 214.15 343.107 213.962 338.34C213.95 338.027 213.775 337.765 213.5 337.627L206.985 334.549L206.66 348.812Z" fill="#242424"/>
<path d="M241.346 360.498C236.995 360.498 232.118 359.284 227.404 356.369C226.442 355.769 225.254 355.568 224.066 355.781L219.802 356.557C218.877 356.72 217.914 356.494 217.151 355.931C216.413 355.368 215.951 354.568 215.851 353.654C215.525 350.501 216.876 347.549 219.877 344.859C220.94 343.908 221.627 342.719 221.89 341.405C222.928 336.013 223.165 332.397 222.64 329.682C222.515 329.044 222.903 328.418 223.528 328.243L243.76 322.613C244.347 322.45 244.96 322.726 245.223 323.276L255.651 345.171C255.676 345.209 255.689 345.259 255.701 345.296C257.277 349.863 256.114 354.155 252.5 357.057C249.874 359.172 245.898 360.498 241.346 360.498ZM224.979 353.191C226.304 353.191 227.604 353.542 228.717 354.23C237.27 359.51 246.561 358.609 250.95 355.081C253.713 352.866 254.576 349.688 253.375 346.16L243.422 325.291L225.279 330.345C225.616 333.223 225.329 336.851 224.353 341.868C223.991 343.72 223.028 345.397 221.552 346.71C219.152 348.862 218.101 351.039 218.351 353.379C218.376 353.667 218.551 353.829 218.664 353.917C218.864 354.067 219.114 354.13 219.364 354.08L223.628 353.304C224.078 353.241 224.528 353.191 224.979 353.191Z" fill="#242424"/>
<path d="M250.999 270.991L262.491 279.623L261.478 286.943L247.473 284.941L250.999 270.991Z" fill="#74698B"/>
<g opacity="0.3">
<path d="M250.999 270.991L262.491 279.623L261.478 286.943L247.473 284.941L250.999 270.991Z" fill="#242424"/>
</g>
<path d="M259.915 286.943L258.239 303.345C258.127 304.446 257.239 305.322 256.138 305.41L247.473 306.11L248.423 285.066L259.915 286.943Z" fill="#74698B"/>
<g opacity="0.3">
<path d="M259.915 286.943L258.239 303.345C258.127 304.446 257.239 305.322 256.138 305.41L247.473 306.11L248.423 285.066L259.915 286.943Z" fill="#242424"/>
</g>
<path d="M261.478 288.832C261.39 288.832 261.303 288.832 261.215 288.807L247.223 286.805C246.698 286.73 246.223 286.43 245.935 285.992C245.635 285.554 245.548 285.003 245.673 284.49L249.186 270.54C249.337 269.927 249.787 269.439 250.387 269.226C250.975 269.014 251.637 269.114 252.137 269.489L263.629 278.122C264.179 278.535 264.454 279.211 264.366 279.886L263.354 287.205C263.291 287.706 263.016 288.144 262.628 288.444C262.278 288.694 261.878 288.832 261.478 288.832ZM249.799 283.377L259.865 284.816L260.465 280.462L252.112 274.181L249.799 283.377Z" fill="#242424"/>
<path d="M247.473 308C246.986 308 246.523 307.812 246.173 307.474C245.785 307.099 245.573 306.573 245.598 306.035L246.548 284.991C246.573 284.453 246.823 283.952 247.236 283.615C247.648 283.277 248.186 283.127 248.724 283.214L260.215 285.091C261.19 285.254 261.878 286.142 261.778 287.13L260.102 303.533C259.902 305.535 258.289 307.111 256.289 307.274L247.623 307.975C247.573 308 247.523 308 247.473 308ZM250.199 287.268L249.436 304.071L255.976 303.533C256.176 303.52 256.339 303.358 256.364 303.158L257.852 288.519L250.199 287.268Z" fill="#242424"/>
<path d="M198.97 272.78L199.358 282.664L200.571 313.279C200.621 314.418 201.083 315.482 201.884 316.282L205.035 319.435C205.622 320.023 205.96 320.824 205.96 321.662V328.494C218.477 331.621 232.919 329.87 244.122 323.802V317.233C246.923 317.233 249.224 315.019 249.337 312.229L251.612 257.153L198.97 272.78Z" fill="#74698B"/>
<g opacity="0.6">
<path d="M201.158 284.941C201.558 284.953 201.746 289.007 203.447 304.246C203.509 304.847 203.797 307.261 204.734 310.252C205.372 312.279 205.772 313.58 206.648 314.731C208.223 316.795 210.674 317.546 214.388 318.171C217.951 318.772 223.103 319.348 229.555 319.035C220.577 320.674 214 320.211 210.111 319.648C207.76 319.31 205.397 318.797 203.572 316.92C201.121 314.418 200.996 310.89 200.946 308.525C200.721 296.739 200.483 284.916 201.158 284.941Z" fill="white"/>
</g>
<path d="M218.726 331.922C214.25 331.922 209.786 331.396 205.497 330.32C204.659 330.107 204.072 329.357 204.072 328.494V321.662C204.072 321.324 203.934 320.999 203.697 320.761L200.546 317.608C199.408 316.47 198.745 314.956 198.682 313.342L197.082 272.855C197.044 271.991 197.595 271.228 198.42 270.978L251.049 255.339C251.625 255.163 252.262 255.289 252.738 255.651C253.213 256.027 253.488 256.602 253.463 257.215L251.187 312.291C251.062 315.457 248.886 318.059 245.973 318.847V323.789C245.973 324.477 245.598 325.115 244.985 325.441C237.17 329.707 227.917 331.922 218.726 331.922ZM207.823 327.005C219.139 329.457 232.093 327.83 242.234 322.663V317.221C242.234 316.182 243.072 315.344 244.11 315.344C245.91 315.344 247.373 313.943 247.448 312.141L249.612 259.693L200.896 274.168L202.434 313.204C202.459 313.868 202.734 314.493 203.196 314.956L206.347 318.109C207.298 319.06 207.823 320.323 207.823 321.662V327.005Z" fill="#242424"/>
<path d="M251.312 309.676C251.112 316.833 242.772 319.047 237.132 319.998C231.543 320.937 225.929 321.212 220.302 321.437C219.852 321.45 219.464 321.099 219.452 320.649C219.439 320.211 219.764 319.848 220.189 319.798C225.729 319.222 231.268 318.584 236.595 317.346C240.383 316.32 245.948 315.019 247.386 311.128C247.523 310.652 247.573 310.139 247.561 309.626C247.548 308.588 248.373 307.737 249.399 307.712C250.474 307.699 251.349 308.6 251.312 309.676Z" fill="#242424"/>
<g opacity="0.3">
<path d="M234.207 316.908C234.294 317.759 234.069 318.622 233.494 319.247C233.344 319.41 233.119 319.585 232.731 319.773C230.943 320.636 229.693 319.623 228.667 320.311C227.83 320.874 228.28 321.8 227.492 323.038C226.592 324.452 224.966 324.903 223.878 325.215C221.44 325.891 214.925 326.429 205.947 326.554V328.506C218.464 331.634 232.906 329.882 244.11 323.814V317.246C246.911 317.246 249.212 315.031 249.324 312.241L251.6 257.165L198.97 272.805L199.358 282.689C202.871 285.491 206.81 286.342 207.348 286.455C212.112 287.418 213.7 286.017 222.603 286.467C224.791 286.58 227.079 286.955 228.78 288.332C231.331 290.383 231.843 293.987 232.181 297.24L234.207 316.908Z" fill="#242424"/>
</g>
<g opacity="0.3">
<path d="M205.547 342.944C206.848 344.396 208.223 345.447 209.686 346.21C222.015 352.653 236.883 339.103 251.812 346.585C253.663 347.511 255.239 348.625 256.564 349.763L241.934 320.161L205.96 325.215L205.547 342.944Z" fill="#242424"/>
</g>
<path d="M255.313 159.951C260.878 202.865 264.241 242.264 251.25 255.726C255.226 271.328 233.731 279.824 193.481 279.824H194.006C153.755 279.824 132.261 271.328 136.237 255.726C123.245 242.264 126.609 202.865 132.173 159.951L137.075 128.86L249.274 129.986L255.313 159.951Z" fill="#454544"/>
<g opacity="0.6">
<path d="M183.665 279.623C171.386 278.773 160.932 277.234 152.492 275.057C160.357 277.559 170.836 279.098 183.665 279.623Z" fill="white"/>
<path d="M255.313 159.951C254.451 156.247 253.613 152.481 252.812 148.628C251.475 142.259 250.299 136.041 249.274 129.986C230.105 129.785 210.936 129.598 191.768 129.41L249.561 133.864C251.475 142.56 253.4 151.255 255.313 159.951C252.637 174.076 252.988 185.312 253.85 193.131C254.826 201.877 256.476 206.506 256.764 217.967C257.076 230.428 255.126 238.273 254.676 240.087C252.7 248.157 249.724 254.45 247.373 258.654C247.286 260.256 246.961 262.946 245.498 265.748C240.896 274.519 229.355 276.12 229.505 276.558C229.655 277.009 242.659 276.771 248.549 267.35C251.375 262.82 251.387 258.054 251.237 255.739C258.177 240.325 259.915 227.601 260.227 218.893C260.415 213.75 260.102 210.072 257.802 186.025C257.139 178.931 256.301 170.123 255.313 159.951Z" fill="white"/>
</g>
<path d="M256.214 159.838C258.289 167.795 258.827 175.965 259.852 184.085C261.678 203.378 266.555 242.126 252.588 257.028L253.05 255.264C254.401 260.143 253.063 265.611 249.399 269.164C240.384 278.085 223.253 279.974 211.124 281.075C205.235 281.513 199.345 281.7 193.456 281.7V277.947H193.981C195.019 277.947 195.857 278.785 195.857 279.824C195.857 280.862 195.019 281.7 193.981 281.7C188.091 281.688 182.202 281.513 176.313 281.075C163.158 279.911 135.399 276.971 133.899 260.193C133.799 258.504 134.011 256.84 134.386 255.264L134.849 257.028C120.77 242.202 125.534 203.391 127.397 184.06C128.309 175.915 129.26 167.795 131.298 159.838C131.41 159.375 131.886 159.1 132.348 159.225C132.736 159.325 132.999 159.675 132.999 160.063C132.823 172.35 130.86 184.386 130.148 196.597C129.247 212.286 126.834 242.339 137.575 254.425C138.025 254.926 138.175 255.589 138.038 256.189C137.025 259.918 137.963 263.846 140.751 266.561C148.979 274.569 165.472 276.32 176.6 277.334C182.377 277.759 188.179 277.947 193.981 277.947V281.7H193.456C192.418 281.7 191.58 280.862 191.58 279.824C191.58 278.785 192.418 277.947 193.456 277.947C199.258 277.934 205.072 277.759 210.836 277.334C222.34 276.37 253.55 273.143 249.399 256.189C249.249 255.539 249.449 254.876 249.862 254.425C252.35 251.748 254.038 248.22 255.201 244.504C258.589 232.981 258.477 220.732 258.139 208.733C257.714 196.572 256.551 184.386 255.213 172.275C254.751 168.233 254.326 164.18 254.376 160.063C254.376 159.55 254.801 159.15 255.301 159.15C255.751 159.163 256.114 159.45 256.214 159.838Z" fill="#242424"/>
<path d="M131.948 243.678C135.812 257.528 152.28 261.369 164.746 263.609C173.137 265.035 181.589 265.786 190.08 266.574C190.655 266.624 191.08 267.137 191.03 267.712C190.98 268.25 190.53 268.651 190.005 268.663C188.567 268.701 187.141 268.713 185.703 268.713C184.615 268.713 182.477 268.688 181.402 268.651C167.647 268.163 151.042 266.599 139.125 259.155C133.924 255.939 129.71 250.672 128.309 244.616C127.759 242.201 131.26 241.288 131.948 243.678Z" fill="#242424"/>
<path d="M259.215 244.616C254.125 265.398 223.828 267.988 206.122 268.651C203.346 268.738 200.283 268.738 197.507 268.663C196.232 268.626 196.119 266.712 197.432 266.574C203.109 266.048 208.773 265.548 214.387 264.835C225.291 263.371 236.745 261.694 246.235 255.827C250.724 252.999 254.188 248.82 255.563 243.678C256.251 241.301 259.765 242.176 259.215 244.616Z" fill="#242424"/>
<g opacity="0.2">
<path d="M139.926 268.388C181.177 283.69 219.74 278.81 242.272 261.694C203.659 269.814 152.493 266.937 134.862 254.137L139.926 268.388Z" fill="#242424"/>
</g>
<path d="M207.845 173.829C207.714 172.874 206.785 172.266 205.866 172.494C200.698 173.726 195.508 173.553 190.729 172.232C189.719 171.953 188.66 172.582 188.469 173.631L187.883 176.858C187.761 177.527 188.16 178.18 188.803 178.362C189.361 178.521 189.955 178.279 190.254 177.772L191.347 175.914C191.586 175.506 192.052 175.3 192.51 175.388C192.978 175.478 193.344 175.859 193.409 176.341L193.672 178.308C193.759 178.956 194.269 179.459 194.906 179.526C195.534 179.591 196.127 179.216 196.349 178.613L197.052 176.706C197.218 176.255 197.65 175.968 198.122 175.977C198.593 175.987 199.014 176.292 199.161 176.748L199.787 178.683C199.984 179.294 200.561 179.693 201.191 179.653C201.831 179.612 202.361 179.13 202.474 178.486L202.817 176.523C202.901 176.044 203.275 175.678 203.747 175.607C204.209 175.538 204.671 175.763 204.894 176.18L205.913 178.09C206.19 178.609 206.772 178.875 207.336 178.741C207.985 178.586 208.413 177.951 208.32 177.277L207.845 173.829Z" fill="#242424"/>
<path d="M204.358 180.209C203.784 180.06 203.175 180.286 202.87 180.761L201.755 182.498C201.511 182.879 201.035 183.07 200.566 182.988C200.087 182.903 199.712 182.547 199.645 182.097L199.373 180.255C199.283 179.648 198.758 179.175 198.102 179.112C197.458 179.05 196.85 179.4 196.623 179.964L195.909 181.742C195.74 182.162 195.295 182.429 194.813 182.42C194.33 182.41 193.902 182.125 193.751 181.698L193.107 179.89C192.904 179.319 192.313 178.946 191.668 178.982C191.014 179.019 190.472 179.468 190.358 180.069L190.011 181.894C189.926 182.341 189.537 182.683 189.054 182.748C188.583 182.811 188.115 182.601 187.886 182.211L186.842 180.434C186.557 179.949 185.959 179.7 185.382 179.826C184.718 179.971 184.284 180.564 184.382 181.194L184.854 184.221C185.008 185.207 186.066 185.836 187.109 185.615C192.047 184.571 197.36 184.616 202.595 185.976C203.525 186.214 204.502 185.692 204.676 184.81L205.305 181.621C205.429 180.994 205.018 180.381 204.358 180.209Z" fill="#242424"/>
<path d="M158.405 88.1089C154.489 91.681 148.605 93.8786 142.033 94.2464C130.682 94.895 117.296 90.1515 108.427 77.8376C99.7126 65.7367 100.149 51.3608 102.805 41.3509C104.423 35.2714 106.856 30.8086 108.553 29.463C113.05 25.8908 138.476 20.2857 156.66 40.6346C174.844 60.9931 167.197 80.0642 158.405 88.1089Z" fill="#FBA3CB"/>
<path d="M232.209 88.3025C236.106 91.9037 241.97 94.1206 248.552 94.5272C259.893 95.2339 273.308 90.5581 282.245 78.2926C291.018 66.2401 290.659 51.8546 288.061 41.835C286.481 35.7458 284.077 31.2733 282.381 29.918C277.903 26.3168 252.507 20.5761 234.215 40.8379C215.915 61.0997 223.466 80.2191 232.209 88.3025Z" fill="#FBA3CB"/>
<path d="M139.881 96.1632C126.96 96.1632 114.776 89.8223 106.915 78.9122C96.3589 64.2652 99.2668 47.4304 101.012 40.8766C101.021 40.8379 101.031 40.7991 101.041 40.7701C102.64 34.8068 105.131 29.8018 107.399 28.0012C112.905 23.6255 139.474 18.6012 158.056 39.3954C168.651 51.2543 170.124 62.1258 169.504 69.154C168.815 76.8695 165.142 84.4689 159.665 89.4738C155.429 93.3461 149.206 95.6985 142.14 96.0955C141.384 96.1439 140.628 96.1632 139.881 96.1632ZM104.579 41.9221C102.97 48.0403 100.362 63.452 109.939 76.7437C117.5 87.2473 129.461 93.1041 141.927 92.3877C148.053 92.0392 153.597 89.9772 157.155 86.7342C164.424 80.0835 173.391 62.1451 155.284 41.864C145.91 31.3895 134.909 28.5046 127.338 27.9238C118.391 27.2461 111.451 29.5308 109.716 30.9054C108.63 31.767 106.294 35.4844 104.608 41.8156C104.598 41.8543 104.588 41.8931 104.579 41.9221Z" fill="#242424"/>
<path d="M158.405 88.1089C154.489 91.681 148.605 93.8786 142.033 94.2464C153.064 75.7272 144.156 44.6714 130.663 36.9849C116.104 28.6789 103.115 41.0508 102.814 41.3509C104.424 35.2714 106.857 30.8086 108.553 29.463C113.05 25.8908 138.476 20.2857 156.66 40.6346C174.845 60.9931 167.197 80.0642 158.405 88.1089Z" fill="#5C546C"/>
<g opacity="0.6">
<path d="M102.921 41.0508C102.96 41.0121 103.241 40.741 103.735 40.3248C105.092 36.8687 106.614 34.4098 107.787 33.4708C112.265 29.8696 137.661 24.1386 155.952 44.3907C165.403 54.8555 167.952 65.0203 167.012 73.5103C169.455 64.2652 167.885 52.3773 156.767 40.0634C138.476 19.7919 113.079 25.5423 108.601 29.1338C106.905 30.4891 104.501 34.9713 102.921 41.0508Z" fill="white"/>
</g>
<path d="M142.033 95.9406C141.442 95.9406 140.89 95.6308 140.579 95.1274C140.25 94.595 140.25 93.9173 140.57 93.3849C145.62 84.8949 146.696 72.4745 143.439 60.1509C140.773 50.0443 135.549 41.7285 129.81 38.4564C116.434 30.8183 104.492 42.077 103.988 42.5611C103.445 43.0935 102.611 43.1903 101.952 42.8031C101.293 42.4158 100.973 41.6414 101.167 40.9057C102.737 35.0295 105.277 29.889 107.506 28.1271C112.983 23.7708 139.426 18.7852 157.93 39.5019C168.486 51.3221 169.96 62.1452 169.339 69.1346C168.661 76.8115 164.997 84.3721 159.549 89.348C155.342 93.1913 149.158 95.534 142.121 95.9309C142.092 95.9406 142.063 95.9406 142.033 95.9406ZM120.175 32.406C123.713 32.406 127.542 33.2579 131.507 35.5135C138.098 39.2793 143.788 48.1662 146.725 59.2893C149.856 71.1579 149.187 83.2007 145 92.2329C149.924 91.4681 154.286 89.5803 157.252 86.8601C164.56 80.1707 173.585 62.1355 155.391 41.7672C138.321 22.6478 113.923 27.3526 109.61 30.7796C108.844 31.3895 107.448 33.4031 106.101 36.7429C109.445 34.6713 114.398 32.406 120.175 32.406Z" fill="#242424"/>
<g opacity="0.2">
<path d="M146.987 75.1851C145.911 75.5917 144.757 75.8143 143.565 75.8047C137.371 75.7853 132.36 69.8316 132.379 62.4937C132.398 56.1044 136.217 50.7703 141.297 49.5215C144.961 56.8788 147.171 66.1723 146.987 75.1851Z" fill="#242424"/>
</g>
<path d="M143.584 77.6634C143.574 77.6634 143.565 77.6634 143.555 77.6634C136.343 77.644 130.498 70.8384 130.518 62.484C130.537 55.3977 134.88 49.1827 140.851 47.7112C141.694 47.4982 142.576 47.9048 142.964 48.6889C146.889 56.5691 149.032 66.2401 148.838 75.2238C148.818 75.9789 148.343 76.6566 147.636 76.9179C146.347 77.4213 144.98 77.6634 143.584 77.6634ZM140.327 51.8158C136.741 53.4615 134.25 57.7017 134.24 62.4937C134.22 68.7958 138.408 73.9363 143.565 73.946C144.098 73.946 144.621 73.8976 145.125 73.7911C145.077 66.3466 143.361 58.4858 140.327 51.8158Z" fill="#242424"/>
<path d="M143.584 77.6634C143.574 77.6634 143.565 77.6634 143.555 77.6634C136.343 77.644 130.498 70.8384 130.518 62.484C130.537 55.3977 134.88 49.1827 140.851 47.7112C141.694 47.4982 142.576 47.9048 142.964 48.6889C146.889 56.5691 149.032 66.2401 148.838 75.2238C148.818 75.9789 148.343 76.6566 147.636 76.9179C146.347 77.4213 144.98 77.6634 143.584 77.6634ZM140.327 51.8158C136.741 53.4615 134.25 57.7017 134.24 62.4937C134.22 68.7958 138.408 73.9363 143.565 73.946C144.098 73.946 144.621 73.8976 145.125 73.7911C145.077 66.3466 143.361 58.4858 140.327 51.8158Z" fill="#242424"/>
<path d="M250.907 96.4633C250.083 96.4633 249.269 96.4342 248.435 96.3858C241.369 95.9502 235.165 93.5591 230.949 89.6674C225.501 84.6237 221.856 77.0147 221.217 69.2895C220.625 62.2613 222.167 51.3995 232.819 39.5987C251.518 18.9013 278.058 24.0611 283.544 28.4755C285.802 30.2858 288.264 35.3005 289.835 41.2735C289.844 41.3122 289.854 41.3412 289.864 41.3799C291.57 47.9435 294.391 64.7976 283.757 79.3962C275.877 90.1999 263.741 96.4633 250.907 96.4633ZM233.479 86.9374C237.017 90.1998 242.551 92.2909 248.668 92.6781C261.133 93.4526 273.114 87.6732 280.733 77.2083C290.378 63.9651 287.848 48.534 286.277 42.4158C286.268 42.3771 286.258 42.348 286.248 42.3093C284.6 35.9684 282.284 32.2413 281.208 31.3798C279.482 29.9954 272.552 27.672 263.605 28.3013C256.025 28.8337 245.013 31.6605 235.592 42.0963C217.368 62.2613 226.238 80.2481 233.479 86.9374Z" fill="#242424"/>
<path d="M232.209 88.3025C236.105 91.9037 241.97 94.1206 248.551 94.5272C237.627 75.9499 246.7 44.9425 260.222 37.3238C274.83 29.0952 287.741 41.5446 288.051 41.835C286.471 35.7458 284.067 31.2733 282.371 29.918C277.893 26.3168 252.497 20.5761 234.205 40.8379C215.914 61.0997 223.465 80.2191 232.209 88.3025Z" fill="#5C546C"/>
<g opacity="0.6">
<path d="M288.051 41.864C288.013 41.8253 287.732 41.5542 287.237 41.138C285.88 37.6819 284.358 35.223 283.185 34.284C278.707 30.6828 253.311 24.9518 235.02 45.2039C225.569 55.659 223.02 65.8238 223.96 74.3138C221.517 65.0687 223.088 53.1808 234.206 40.8669C252.506 20.6051 277.903 26.3555 282.381 29.947C284.068 31.3023 286.471 35.7845 288.051 41.864Z" fill="white"/>
</g>
<path d="M248.552 96.2213C248.513 96.2213 248.484 96.2213 248.445 96.2213C241.417 95.7856 235.243 93.4139 231.055 89.5513C225.637 84.5366 222.012 76.9566 221.372 69.2798C220.79 62.2807 222.322 51.4673 232.936 39.7052C251.556 19.0949 277.97 24.216 283.428 28.6014C285.638 30.373 288.158 35.5231 289.689 41.409C289.883 42.1447 289.554 42.9192 288.895 43.2967C288.235 43.6743 287.402 43.5775 286.859 43.045C286.365 42.561 274.481 31.2346 261.056 38.7952C255.308 42.0383 250.035 50.3153 247.321 60.4123C244.005 72.7165 245.014 85.1465 250.015 93.6559C250.335 94.198 250.325 94.866 249.996 95.3984C249.686 95.9212 249.143 96.2213 248.552 96.2213ZM233.362 87.0633C236.319 89.7933 240.671 91.7101 245.585 92.5039C241.446 83.4427 240.845 71.3999 244.044 59.5507C247.039 48.4372 252.778 39.589 259.398 35.862C269.847 29.9761 279.424 33.858 284.785 37.2366C283.457 33.8871 282.08 31.8638 281.315 31.2539C277.02 27.7979 252.652 22.9575 235.466 41.9802C217.165 62.2516 226.092 80.3352 233.362 87.0633Z" fill="#242424"/>
<path d="M243.705 75.4465C244.781 75.8627 245.934 76.0854 247.127 76.0854C253.321 76.1047 258.361 70.1705 258.38 62.8325C258.4 56.4432 254.6 51.0897 249.531 49.8119C245.828 57.1402 243.569 66.424 243.705 75.4465Z" fill="#FBA3CB"/>
<g opacity="0.2">
<path d="M243.705 75.4465C244.781 75.8627 245.934 76.0854 247.127 76.0854C253.321 76.1047 258.361 70.1705 258.38 62.8325C258.4 56.4432 254.6 51.0897 249.531 49.8119C245.828 57.1402 243.569 66.424 243.705 75.4465Z" fill="#242424"/>
</g>
<path d="M247.146 77.9441C247.136 77.9441 247.127 77.9441 247.117 77.9441C245.711 77.9441 244.335 77.6827 243.036 77.1793C242.329 76.9082 241.863 76.2306 241.844 75.4755C241.708 66.4918 243.899 56.8401 247.863 48.9793C248.251 48.2049 249.133 47.7983 249.986 48.0113C255.947 49.5215 260.261 55.7559 260.242 62.8421C260.232 66.8306 258.894 70.5867 256.49 73.4232C254.009 76.3371 250.694 77.9441 247.146 77.9441ZM245.566 74.0621C246.08 74.1686 246.603 74.2267 247.127 74.2267C249.589 74.2267 251.876 73.094 253.65 71.0127C255.492 68.8442 256.51 65.9303 256.519 62.8228C256.529 58.0211 254.067 53.7713 250.48 52.1062C247.408 58.7666 245.653 66.608 245.566 74.0621Z" fill="#242424"/>
<path d="M264.051 117.964C263.944 156.658 218.512 160.608 197.158 160.772C196.431 160.772 195.733 160.782 195.064 160.772C177.18 160.724 137.39 158.304 128.22 130.404C126.97 126.619 126.291 122.369 126.301 117.596C126.427 71.3805 163.397 38.408 195.384 38.4951C227.585 38.5822 264.177 71.7484 264.051 117.964Z" fill="#74698B"/>
<g opacity="0.6">
<path d="M263.906 116.541C260.794 73.7427 226.141 43.655 195.481 43.5679C163.513 43.4807 126.592 76.3855 126.388 122.534C126.243 121.052 126.165 119.523 126.175 117.926C126.301 71.7097 163.271 38.7468 195.258 38.8243C227.042 38.9114 263.12 71.2354 263.906 116.541Z" fill="white"/>
</g>
<path d="M253.146 106.86C240.574 100.423 224.26 115.312 197.313 102.64H196.751C169.736 115.166 149.788 100.181 137.177 106.551C124.566 112.911 128.201 130.433 128.201 130.433C137.119 157.597 177.656 159.969 195.035 160.008C195.627 160.008 196.237 160.008 196.867 160.008C197.498 160.017 198.118 160.017 198.699 160.017C216.079 160.066 252.914 157.907 261.977 130.791C261.996 130.781 265.728 113.288 253.146 106.86Z" fill="#C7C3D1"/>
<path d="M195.532 105.254C194.262 107.423 192.556 109.369 190.588 111.014C188.611 112.66 186.343 113.986 183.958 115.003C179.16 117.026 173.935 117.781 168.827 117.791C163.583 117.752 158.484 116.532 153.773 114.528C151.428 113.512 149.159 112.273 147.095 110.753C146.591 110.346 146.077 109.969 145.592 109.553L144.885 108.904L144.536 108.575L144.206 108.217C143.314 107.307 142.558 106.242 142.006 105.119C143.77 106.9 145.873 108.129 148.045 109.194C150.226 110.24 152.494 111.092 154.791 111.789C159.395 113.173 164.145 114.044 168.827 114.083C173.625 114.073 178.404 113.628 182.96 112.273C187.515 110.927 191.78 108.604 195.532 105.254Z" fill="#A6A3AE"/>
<path d="M250.131 105.254C248.861 107.423 247.155 109.369 245.188 111.014C243.21 112.66 240.942 113.986 238.558 115.003C233.759 117.026 228.535 117.781 223.427 117.791C218.183 117.752 213.084 116.532 208.373 114.528C206.027 113.512 203.759 112.273 201.694 110.753C201.19 110.346 200.677 109.969 200.192 109.553L199.484 108.904L199.135 108.575L198.806 108.217C197.914 107.307 197.158 106.242 196.605 105.119C198.37 106.9 200.473 108.129 202.644 109.194C204.825 110.24 207.093 111.092 209.391 111.789C213.995 113.173 218.745 114.044 223.427 114.083C228.225 114.073 233.003 113.628 237.559 112.273C242.115 110.927 246.38 108.604 250.131 105.254Z" fill="#A6A3AE"/>
<g opacity="0.2">
<path d="M263.469 118.255C263.363 156.948 217.931 160.898 196.577 161.072C195.85 161.072 195.152 161.072 194.483 161.072C176.599 161.024 136.818 158.604 127.639 130.704C126.388 126.919 125.71 122.669 125.719 117.896C125.729 114.789 125.904 111.73 126.233 108.748C126.514 111.749 127.105 114.528 127.949 117.093C137.119 144.993 176.909 147.413 194.793 147.461C195.462 147.461 196.16 147.461 196.887 147.461C216.884 147.297 258.002 143.831 263.217 111.604C263.392 113.772 263.469 115.999 263.469 118.255Z" fill="#242424"/>
</g>
<path d="M195.501 162.641C195.355 162.641 195.2 162.641 195.055 162.641C156.941 162.534 133.222 151.595 126.447 130.994C125.099 126.909 124.43 122.398 124.44 117.596C124.498 95.7566 132.699 75.0882 147.539 59.4152C161.042 45.1554 178.867 36.6461 195.268 36.6461C195.307 36.6461 195.355 36.6461 195.394 36.6461C211.892 36.6945 229.766 45.3007 243.191 59.6765C257.896 75.4077 265.961 96.1148 265.902 117.984C265.854 135.573 256.897 148.216 239.285 155.545C228.293 160.124 214.121 162.515 197.168 162.65C196.596 162.641 196.044 162.641 195.501 162.641ZM195.268 40.3538C163.668 40.3538 128.288 73.336 128.172 117.596C128.162 122.001 128.773 126.115 129.994 129.823C137.855 153.744 169.727 158.846 195.074 158.914C195.743 158.914 196.431 158.914 197.158 158.914C213.617 158.778 227.314 156.493 237.86 152.098C253.96 145.399 262.151 133.908 262.19 117.955L264.051 117.964L262.19 117.955C262.248 97.0441 254.532 77.2374 240.477 62.1935C227.731 48.5534 210.874 40.3925 195.384 40.3441C195.346 40.3538 195.307 40.3538 195.268 40.3538Z" fill="#242424"/>
<path d="M101.586 85.6983C106.54 85.3789 111.512 85.679 116.436 86.2888C121.37 86.8987 126.265 87.8765 131.054 89.2415C132.256 89.5803 133.438 89.9578 134.631 90.3354C135.803 90.7517 136.996 91.1292 138.149 91.5939C140.485 92.4748 142.773 93.4623 145.002 94.5949C149.471 96.8021 153.707 99.5224 157.41 102.804C155.248 101.584 153.125 100.355 150.925 99.2804C150.382 98.99 149.82 98.7479 149.277 98.4769C148.724 98.2155 148.182 97.9444 147.61 97.7024C147.047 97.4604 146.495 97.2087 145.942 96.957L144.256 96.2503C143.694 96.0083 143.131 95.7856 142.56 95.5727C141.988 95.35 141.425 95.1177 140.854 94.9047C139.71 94.4884 138.566 94.0528 137.412 93.6752C135.105 92.8814 132.779 92.1457 130.433 91.4874C125.742 90.1418 120.973 89.0479 116.165 88.0798C111.338 87.1408 106.491 86.3372 101.586 85.6983Z" fill="#242424"/>
<path d="M98.4751 105.447C103.176 103.869 108.062 102.891 112.986 102.214C117.91 101.536 122.892 101.236 127.875 101.323C129.115 101.342 130.366 101.401 131.606 101.459C132.847 101.555 134.098 101.623 135.329 101.768C137.81 102.02 140.282 102.398 142.715 102.911C147.6 103.898 152.389 105.437 156.818 107.664C154.414 107.035 152.049 106.396 149.645 105.921C149.054 105.776 148.443 105.689 147.843 105.563C147.242 105.457 146.641 105.331 146.04 105.244C145.439 105.157 144.838 105.05 144.237 104.944L142.424 104.692C141.823 104.605 141.212 104.537 140.611 104.469C140.001 104.402 139.4 104.324 138.789 104.266C137.577 104.16 136.366 104.024 135.144 103.956C132.711 103.782 130.278 103.666 127.836 103.627C122.96 103.53 118.065 103.685 113.18 103.995C108.275 104.343 103.38 104.808 98.4751 105.447Z" fill="#242424"/>
<path d="M101.053 127.025C105.173 124.266 109.641 122.049 114.207 120.104C118.782 118.167 123.503 116.56 128.34 115.35C129.542 115.041 130.763 114.779 131.984 114.508C133.206 114.276 134.427 114.014 135.658 113.831C138.12 113.424 140.601 113.134 143.093 112.998C148.065 112.679 153.096 112.911 157.952 113.898C155.471 113.918 153.018 113.918 150.566 114.092C149.955 114.111 149.345 114.179 148.734 114.218C148.123 114.266 147.513 114.305 146.912 114.382C146.301 114.45 145.7 114.508 145.089 114.566L143.257 114.808C142.656 114.876 142.046 114.973 141.445 115.07C140.844 115.166 140.233 115.244 139.642 115.35C138.44 115.563 137.238 115.757 136.046 116.009C133.651 116.473 131.267 117.006 128.902 117.606C124.162 118.787 119.49 120.229 114.847 121.798C110.213 123.395 105.619 125.128 101.053 127.025Z" fill="#242424"/>
<path d="M286.766 86.9665C281.861 87.6055 277.014 88.409 272.197 89.3383C267.389 90.2967 262.62 91.3906 257.928 92.7459C255.583 93.4042 253.256 94.1399 250.949 94.9338C249.786 95.3113 248.652 95.7566 247.508 96.1632C246.936 96.3762 246.374 96.6085 245.802 96.8312C245.23 97.0442 244.658 97.2668 244.106 97.5088L242.419 98.2155C241.867 98.4672 241.314 98.7286 240.752 98.961C240.19 99.1933 239.637 99.474 239.085 99.7354C238.532 100.006 237.97 100.248 237.437 100.539C235.227 101.613 233.104 102.833 230.952 104.063C234.665 100.781 238.891 98.0606 243.359 95.8534C245.589 94.7305 247.876 93.7334 250.213 92.8524C251.376 92.3974 252.558 92.0102 253.731 91.5939C254.923 91.2164 256.106 90.8388 257.308 90.5C262.096 89.135 266.991 88.1573 271.925 87.5474C276.83 86.9569 281.812 86.6471 286.766 86.9665Z" fill="#242424"/>
<path d="M289.867 106.725C284.963 106.086 280.067 105.621 275.182 105.292C270.287 104.992 265.402 104.827 260.526 104.924C258.083 104.963 255.65 105.069 253.217 105.253C251.996 105.321 250.784 105.457 249.573 105.563C248.962 105.621 248.361 105.708 247.75 105.767C247.14 105.825 246.539 105.902 245.938 105.989L244.125 106.241C243.524 106.338 242.923 106.444 242.313 106.541C241.702 106.628 241.111 106.754 240.51 106.86C239.909 106.977 239.308 107.073 238.707 107.219C236.303 107.693 233.928 108.332 231.534 108.961C235.963 106.735 240.752 105.195 245.637 104.208C248.08 103.695 250.552 103.317 253.023 103.066C254.264 102.92 255.505 102.853 256.746 102.756C257.986 102.698 259.237 102.63 260.478 102.62C265.46 102.523 270.442 102.833 275.366 103.511C280.281 104.169 285.166 105.147 289.867 106.725Z" fill="#242424"/>
<path d="M287.299 128.303C282.733 126.406 278.129 124.673 273.505 123.066C268.862 121.498 264.19 120.055 259.45 118.874C257.085 118.264 254.7 117.742 252.316 117.277C251.124 117.025 249.922 116.841 248.72 116.619C248.119 116.512 247.518 116.435 246.917 116.338C246.316 116.241 245.715 116.144 245.104 116.076L243.292 115.844C242.681 115.786 242.08 115.728 241.469 115.66C240.859 115.583 240.248 115.544 239.647 115.496C239.036 115.457 238.426 115.389 237.815 115.37C235.363 115.196 232.91 115.196 230.429 115.176C235.285 114.189 240.316 113.956 245.288 114.276C247.78 114.411 250.261 114.702 252.723 115.108C253.954 115.292 255.175 115.554 256.397 115.786C257.618 116.057 258.83 116.318 260.041 116.628C264.869 117.838 269.599 119.445 274.174 121.381C278.71 123.327 283.169 125.544 287.299 128.303Z" fill="#242424"/>
<path d="M210.115 99.6869C212.403 101.033 213.605 103.637 213.595 106.289C213.585 110.51 210.125 114.005 205.598 114.702C205.046 114.779 204.484 114.828 203.902 114.828C202.458 114.828 201.091 114.537 199.86 114.034C197.378 113.008 195.469 111.081 194.674 108.738C193.87 111.081 191.941 112.998 189.459 114.014C188.228 114.508 186.852 114.789 185.407 114.789C184.835 114.789 184.264 114.74 183.711 114.653C179.184 113.927 175.743 110.423 175.753 106.202C175.763 104.092 176.625 102.156 178.07 100.665C178.07 100.655 192.386 89.3092 210.115 99.6869Z" fill="white"/>
<g opacity="0.2">
<path d="M213.624 106.289C213.615 110.51 210.164 114.005 205.628 114.702C205.075 114.789 204.513 114.828 203.931 114.828C202.487 114.828 201.12 114.537 199.889 114.034C197.408 113.008 195.498 111.081 194.703 108.738C193.899 111.081 191.97 112.998 189.488 114.014C188.248 114.508 186.881 114.789 185.437 114.789C184.865 114.789 184.293 114.74 183.74 114.653C179.214 113.937 175.782 110.423 175.782 106.202C175.782 104.731 176.209 103.356 176.936 102.156C176.936 102.156 180.445 114.702 194.713 105.089C194.713 105.089 208.584 114.489 212.471 102.446C212.5 102.359 212.519 102.281 212.558 102.204C213.275 103.404 213.634 104.837 213.624 106.289Z" fill="#242424"/>
</g>
<path d="M210.261 99.4837C211.589 100.113 212.791 101.158 213.624 102.494C214.468 103.83 214.923 105.476 214.865 107.122C214.797 108.777 214.254 110.442 213.295 111.798C212.829 112.495 212.267 113.104 211.657 113.666C211.036 114.208 210.348 114.673 209.631 115.079C208.186 115.854 206.568 116.289 204.949 116.415C203.33 116.522 201.692 116.318 200.151 115.796C198.61 115.273 197.175 114.44 195.954 113.337C194.752 112.223 193.763 110.82 193.21 109.213L196.109 109.222C195.595 110.752 194.684 112.117 193.55 113.211C192.416 114.305 191.059 115.137 189.595 115.689C188.141 116.231 186.58 116.483 185.029 116.444C184.254 116.415 183.488 116.318 182.722 116.144C182.335 116.076 181.966 115.941 181.598 115.834C181.23 115.699 180.861 115.563 180.512 115.408C179.087 114.76 177.779 113.84 176.751 112.63C175.714 111.439 174.939 109.987 174.658 108.419C174.348 106.86 174.512 105.234 175.113 103.83C175.695 102.417 176.703 101.246 177.886 100.481C178.002 100.403 178.167 100.432 178.244 100.558C178.302 100.645 178.302 100.752 178.254 100.829C176.887 103.153 176.587 105.65 177.343 107.741C177.692 108.787 178.293 109.736 179.068 110.529C179.252 110.733 179.475 110.907 179.679 111.091C179.911 111.255 180.115 111.439 180.357 111.585L180.706 111.817L181.075 112.02C181.317 112.165 181.579 112.262 181.831 112.388C183.915 113.25 186.348 113.346 188.5 112.611C190.642 111.894 192.493 110.268 193.21 108.225V108.216C193.492 107.422 194.364 106.996 195.168 107.277C195.624 107.441 195.963 107.799 196.109 108.225C196.477 109.3 197.127 110.297 198.009 111.081C198.881 111.875 199.957 112.456 201.101 112.804C203.408 113.511 205.986 113.221 208.08 112.156C209.127 111.614 210.077 110.888 210.794 109.978C211.531 109.077 212.006 108.012 212.238 106.86C212.451 105.708 212.393 104.469 211.986 103.269C211.589 102.068 210.891 100.916 209.951 99.8709C209.854 99.7644 209.863 99.5998 209.97 99.503C210.057 99.4546 210.174 99.4449 210.261 99.4837Z" fill="#242424"/>
<path d="M186.599 100.297C185.717 102.291 189.401 109.165 194.567 109.174C199.734 109.184 203.359 102.136 202.448 100.336C201.304 98.0994 187.705 97.809 186.599 100.297Z" fill="#242424"/>
<path d="M185.097 122.612C186.544 121.669 188.079 121.037 189.693 120.531C191.307 120.045 192.99 119.724 194.703 119.627C196.415 119.529 198.187 119.666 199.89 120.123C200.746 120.356 201.573 120.687 202.36 121.086C203.138 121.513 203.866 122.009 204.496 122.622L204.417 122.583L204.476 122.632C204.801 122.895 204.84 123.371 204.574 123.692C204.378 123.925 204.082 124.013 203.807 123.945L203.728 123.925L203.649 123.887C202.911 123.634 202.212 123.4 201.494 123.235C200.775 123.06 200.047 122.953 199.319 122.856C197.852 122.69 196.366 122.671 194.86 122.749C193.354 122.826 191.839 123.001 190.303 123.225C188.798 123.42 187.233 123.711 185.687 123.964L185.638 123.974C185.225 124.042 184.841 123.77 184.772 123.361C184.723 123.06 184.861 122.778 185.097 122.612Z" fill="#242424"/>
<path d="M197.854 100.626C197.854 100.907 196.371 101.13 194.529 101.13C192.697 101.13 191.204 100.907 191.204 100.626C191.204 100.345 192.687 100.123 194.529 100.123C196.361 100.113 197.854 100.345 197.854 100.626Z" fill="white"/>
<path d="M157.95 87.5391C157.95 93.9358 163.135 99.1221 169.53 99.1221C175.926 99.1221 181.111 93.9358 181.111 87.5391C174.976 84.0003 172.959 82.1175 167.757 80.3859C163.48 78.9569 157.95 81.1424 157.95 87.5391Z" fill="#242424"/>
<path d="M172.018 92.6077C174.014 92.6077 175.631 90.9895 175.631 88.9933C175.631 86.9971 174.014 85.3788 172.018 85.3788C170.022 85.3788 168.404 86.9971 168.404 88.9933C168.404 90.9895 170.022 92.6077 172.018 92.6077Z" fill="white"/>
<path d="M232.538 87.9021C232.538 94.6368 227.079 100.097 220.346 100.097C213.613 100.097 208.154 94.6368 208.154 87.9021C214.613 84.1764 216.736 82.1941 222.213 80.371C226.716 78.8666 232.538 81.1675 232.538 87.9021Z" fill="#242424"/>
<path d="M217.736 93.2385C219.837 93.2385 221.54 91.5348 221.54 89.4332C221.54 87.3315 219.837 85.6278 217.736 85.6278C215.634 85.6278 213.931 87.3315 213.931 89.4332C213.931 91.5348 215.634 93.2385 217.736 93.2385Z" fill="white"/>
<path d="M167.976 75.5362C174.446 76.3852 179.581 82.2608 183.262 82.2608L167.976 75.5362Z" fill="#C2C6D2"/>
<path d="M167.976 75.5358C172.757 74.9054 176.951 78.0912 180.573 80.7389C181.438 81.3441 182.228 81.8905 183.262 82.2603C182.556 82.4621 181.749 82.4201 181.035 82.2603C178.942 81.7812 177.001 80.6044 175.211 79.5453C172.791 78.0827 170.589 76.7294 167.976 75.5358Z" fill="#242424"/>
<path d="M224.248 75.2652C217.435 76.159 212.029 82.3449 208.154 82.3449L224.248 75.2652Z" fill="#C2C6D2"/>
<path d="M224.249 75.2647C221.497 76.5214 219.179 77.9373 216.64 79.486C214.587 80.6896 212.357 82.0702 209.924 82.4507C209.34 82.5303 208.721 82.4949 208.164 82.3534C209.252 81.964 210.084 81.3887 210.995 80.7515C214.799 77.955 219.214 74.601 224.249 75.2647Z" fill="#242424"/>
<path d="M182.488 116.836C182.584 116.674 182.755 116.587 182.947 116.609C183.129 116.631 183.29 116.761 183.343 116.934L183.877 118.523H184.904L186.561 116.068C186.668 115.917 186.86 115.83 187.042 115.863C187.224 115.895 187.373 116.036 187.416 116.22L187.747 117.518C188.303 117.55 188.955 117.593 189.34 117.615C189.436 117.291 189.575 116.696 189.672 116.198C189.714 116.003 189.864 115.863 190.046 115.82C190.238 115.776 190.431 115.863 190.537 116.025L191.457 117.442L199.827 117.355C201.035 114.37 201.132 114.37 201.484 114.37C201.88 114.37 201.997 114.37 202.553 116.977L208.23 116.858L208.679 115.322C208.732 115.149 208.871 115.019 209.042 114.987C209.213 114.954 209.395 115.019 209.502 115.16C209.972 115.766 210.55 116.458 210.785 116.706C211.373 116.652 213.607 116.209 215.831 115.733C213.564 113.505 205.108 105.977 194.461 106.14C183.674 106.302 178.522 116.036 177.356 118.578L181.237 118.88L182.488 116.836Z" fill="#B9BBC1"/>
<path d="M199.924 122.774C199.539 122.99 199.133 123.164 198.716 123.315C198.299 123.445 197.882 123.553 197.454 123.639C196.599 123.802 195.712 123.748 194.846 123.661C193.98 123.585 193.114 123.456 192.27 123.218C191.436 122.958 190.613 122.644 189.918 122.104C189.896 122.093 189.896 122.06 189.907 122.039C189.918 122.017 189.95 122.017 189.971 122.028H189.982C190.73 122.406 191.553 122.623 192.377 122.742C193.2 122.882 194.033 122.915 194.867 122.882L195.487 122.85L196.107 122.774C196.524 122.742 196.931 122.677 197.347 122.666C197.764 122.644 198.181 122.623 198.609 122.623C199.037 122.601 199.464 122.601 199.902 122.655C199.934 122.655 199.956 122.677 199.945 122.709C199.945 122.753 199.934 122.774 199.924 122.774ZM176.224 118.826C176.277 118.697 181.472 105.361 194.472 105.166C207.354 104.972 217.06 115.582 217.156 115.679C217.274 115.809 217.306 115.982 217.263 116.155C217.21 116.317 217.082 116.447 216.911 116.479C210.774 117.831 210.582 117.702 210.379 117.593C210.229 117.496 209.876 117.118 209.342 116.469L209.053 117.464C208.989 117.669 208.818 117.799 208.604 117.81L202.19 117.95C201.966 117.961 201.763 117.799 201.709 117.572C201.602 117.096 201.485 116.566 201.378 116.123C201.142 116.663 200.843 117.366 200.587 118.026C200.512 118.21 200.341 118.329 200.148 118.329L191.201 118.426C191.03 118.426 190.891 118.351 190.794 118.21L190.356 117.529C190.11 118.491 189.95 118.61 189.629 118.61C189.49 118.61 187.844 118.502 187.341 118.47C187.138 118.459 186.967 118.307 186.914 118.113L186.764 117.507L185.556 119.292C185.471 119.421 185.321 119.497 185.161 119.497H183.536C183.333 119.497 183.151 119.367 183.087 119.173L182.766 118.232L181.911 119.638C181.825 119.778 181.665 119.865 181.505 119.865C181.494 119.865 181.483 119.865 181.472 119.865L176.63 119.486C176.48 119.475 176.341 119.389 176.266 119.259C176.181 119.129 176.17 118.967 176.224 118.826Z" fill="#74698B"/>
<g opacity="0.25">
<path d="M203.387 113.613C203.077 113.613 200.961 111.807 200.961 111.807C200.961 111.807 198.619 113.981 198.406 114.078C198.192 114.176 192.686 114.295 192.291 114.392C191.895 114.489 190.473 113.267 190.356 113.267C190.238 113.267 188.538 114.792 188.538 114.792C188.538 114.792 186.881 113.451 186.753 113.516C186.625 113.581 184.786 115.387 184.572 115.473C184.359 115.571 183.097 114.262 182.819 114.349C182.541 114.446 179.441 118.577 179.441 118.577L179.377 118.707L181.269 118.848L182.498 116.815C182.595 116.652 182.766 116.566 182.958 116.587C183.14 116.609 183.3 116.739 183.354 116.912L183.888 118.502H184.914L186.571 116.047C186.678 115.895 186.871 115.809 187.053 115.841C187.234 115.874 187.384 116.014 187.427 116.198L187.758 117.496C188.314 117.528 188.966 117.572 189.351 117.593C189.447 117.269 189.586 116.674 189.682 116.176C189.725 115.982 189.875 115.841 190.056 115.798C190.249 115.755 190.441 115.841 190.548 116.003L191.468 117.42L199.838 117.334C201.046 114.349 201.142 114.349 201.495 114.349C201.891 114.349 202.008 114.349 202.564 116.955L208.241 116.836L208.69 115.3C208.743 115.127 208.882 114.998 209.053 114.965C209.224 114.933 209.406 114.998 209.513 115.138C209.983 115.744 210.56 116.436 210.796 116.685C211.383 116.631 213.618 116.187 215.841 115.711C215.424 115.3 214.804 114.716 214.003 114.035C210.817 112.315 204.649 109.99 204.649 109.99C205.108 111.98 203.697 113.613 203.387 113.613Z" fill="#242424"/>
</g>
<path d="M181.515 120.86C181.483 120.86 181.44 120.86 181.408 120.86L176.566 120.481C176.106 120.449 175.678 120.189 175.432 119.789C175.187 119.389 175.133 118.902 175.304 118.459C175.518 117.885 180.799 104.355 194.461 104.15C207.781 103.944 217.488 114.543 217.894 114.998C218.247 115.387 218.364 115.949 218.204 116.458C218.044 116.966 217.627 117.345 217.114 117.464C210.593 118.891 210.443 118.805 209.866 118.448C209.812 118.415 209.759 118.383 209.684 118.318C209.417 118.61 209.043 118.794 208.626 118.805L202.211 118.945C201.901 118.956 201.602 118.859 201.356 118.686C201.089 119.075 200.651 119.313 200.17 119.313L191.222 119.41C190.997 119.421 190.784 119.367 190.591 119.27C190.356 119.475 190.046 119.594 189.64 119.594C189.586 119.594 189.458 119.594 187.288 119.454C187.095 119.443 186.914 119.389 186.743 119.313L186.39 119.843C186.112 120.254 185.663 120.492 185.171 120.492H183.536C183.236 120.492 182.948 120.395 182.713 120.232C182.435 120.622 181.986 120.86 181.515 120.86ZM178.907 117.68L180.724 117.82L181.633 116.306C181.932 115.809 182.477 115.538 183.055 115.603C183.621 115.668 184.102 116.057 184.284 116.598L184.519 117.29L185.738 115.495C186.069 115.008 186.636 114.77 187.213 114.868C187.78 114.965 188.239 115.398 188.389 115.96L188.539 116.544C188.549 116.544 188.571 116.544 188.581 116.544C188.624 116.36 188.667 116.166 188.699 115.982C188.817 115.387 189.276 114.933 189.864 114.814C190.452 114.695 191.04 114.954 191.372 115.463L191.992 116.414L199.154 116.339C200.17 113.829 200.469 113.343 201.485 113.343C202.596 113.343 202.928 114.067 203.355 115.928L207.482 115.841L207.728 115.008C207.888 114.478 208.326 114.078 208.861 113.97C209.395 113.862 209.951 114.067 210.293 114.511C210.582 114.879 210.924 115.311 211.191 115.614C211.758 115.517 212.699 115.344 213.736 115.127C210.411 112.229 203.206 106.994 194.493 107.135C185.535 107.275 180.735 114.24 178.907 117.68Z" fill="#242424"/>
<path d="M190.025 121.984C191.596 122.514 193.264 122.493 194.889 122.341C196.139 122.114 197.23 121.79 198.534 122.168C198.972 122.255 199.421 122.374 199.902 122.633C199.977 122.666 200.009 122.763 199.966 122.839C199.325 123.639 198.48 124.093 197.54 124.375C196.663 124.645 195.722 124.396 194.835 124.267C193.061 124.007 191.233 123.445 189.886 122.201C189.789 122.082 189.907 121.92 190.025 121.984Z" fill="#242424"/>
<path d="M244.602 85.0749C244.602 85.5246 244.417 85.9259 244.128 86.2234C243.957 86.3964 243.737 86.5348 243.504 86.6178C243.339 86.6731 243.168 86.7077 242.989 86.7077C242.824 86.7077 242.673 86.7769 242.564 86.8876C242.454 86.9983 242.385 87.1505 242.385 87.3166V96.3179C242.385 103.991 236.215 110.211 228.604 110.211H216.821C216.148 110.211 215.489 110.162 214.844 110.066C212.209 109.685 209.814 108.557 207.885 106.89C204.921 104.344 203.04 100.552 203.04 96.3179V96.055C203.04 94.9826 202.827 93.9586 202.45 93.0177C199.938 86.8184 191.037 86.8184 188.525 93.0177C188.148 93.9517 187.935 94.9826 187.935 96.055V96.3179C187.935 103.991 181.765 110.211 174.154 110.211H162.37C161.904 110.211 161.444 110.183 160.991 110.142C160.023 110.045 159.09 109.851 158.198 109.56C155.713 108.765 153.531 107.277 151.877 105.326C149.832 102.898 148.59 99.7496 148.59 96.3179V87.3097C148.59 87.1436 148.528 86.9914 148.418 86.8807C148.308 86.77 148.157 86.7008 147.993 86.7008C147.807 86.7008 147.636 86.6731 147.478 86.6109C147.238 86.5278 147.032 86.3964 146.853 86.2165C146.558 85.9259 146.373 85.5246 146.373 85.0749C146.373 84.2239 147.018 83.5182 147.855 83.4559C150.937 83.1999 158.369 82.6256 165.898 82.2036C169.028 82.0237 172.178 81.8784 175.039 81.7954C176.151 81.7608 177.222 81.74 178.231 81.7262C179.816 81.7054 181.25 81.7124 182.472 81.7539C183.33 81.7815 184.167 81.8231 184.984 81.8646C185.876 81.9061 186.741 81.9614 187.564 82.0168C192.766 82.3558 197.982 82.3696 203.191 82.0237C204.804 81.9199 206.602 81.8161 208.51 81.747C212.024 81.6155 217.397 81.7954 222.936 82.0791C225.832 82.2313 228.769 82.4112 231.507 82.591H231.514C232.557 82.6602 233.559 82.7294 234.534 82.7986C237.08 82.9785 239.345 83.1515 241.074 83.2829C241.877 83.3452 242.564 83.4005 243.12 83.449C243.95 83.5182 244.602 84.2239 244.602 85.0749Z" fill="#242424"/>
<path d="M214.844 110.059L231.507 82.591C228.762 82.4112 225.832 82.2313 222.936 82.0791L207.878 106.883L214.844 110.059Z" fill="url(#paint0_linear_78_1377436)"/>
<path d="M241.068 83.2898L224.741 110.204H217.905L234.527 82.8055C237.08 82.9785 239.338 83.1515 241.068 83.2898Z" fill="url(#paint1_linear_78_1377436)"/>
<path d="M175.039 81.7885L158.198 109.554C155.713 108.758 153.531 107.27 151.877 105.319L165.905 82.2036C169.034 82.0237 172.177 81.8715 175.039 81.7885Z" fill="url(#paint2_linear_78_1377436)"/>
<path d="M184.977 81.8577L167.785 110.204H162.371C161.904 110.204 161.444 110.176 160.991 110.135L178.231 81.7193C179.816 81.6985 181.257 81.7054 182.472 81.747C183.323 81.7815 184.167 81.8161 184.977 81.8577Z" fill="url(#paint3_linear_78_1377436)"/>
<path d="M214.913 110.28L207.638 106.959L222.833 81.913H222.929C225.509 82.0445 228.309 82.2174 231.514 82.425L231.796 82.4458L214.913 110.28ZM208.132 106.807L214.782 109.837L231.219 82.7433C228.172 82.5426 225.489 82.3835 223.032 82.252L208.132 106.807Z" fill="#242424"/>
<path d="M224.837 110.377H217.596L234.431 82.6256L234.534 82.6326C237.204 82.8194 239.551 82.9993 241.074 83.1169L241.356 83.1376L224.837 110.377ZM218.207 110.031H224.644L240.772 83.4421C239.269 83.3244 237.087 83.1584 234.616 82.9854L218.207 110.031Z" fill="#242424"/>
<path d="M158.273 109.762L158.143 109.72C155.658 108.924 153.448 107.444 151.746 105.43L151.664 105.333L165.802 82.031L165.891 82.0241C169.466 81.8234 172.452 81.692 175.032 81.6159L175.348 81.609L175.183 81.8788L158.273 109.762ZM152.09 105.299C153.709 107.181 155.789 108.571 158.122 109.346L174.73 81.9687C172.246 82.0448 169.391 82.1763 166.001 82.3631L152.09 105.299Z" fill="#242424"/>
<path d="M167.881 110.377H162.37C161.911 110.377 161.458 110.356 160.97 110.308L160.696 110.28L178.128 81.5463H178.224C179.864 81.5256 181.291 81.5325 182.472 81.574C183.282 81.6017 184.133 81.6432 184.984 81.6847L185.272 81.6985L167.881 110.377ZM161.279 109.989C161.65 110.017 162.007 110.031 162.37 110.031H167.689L184.682 82.0168C183.927 81.9753 183.179 81.9476 182.458 81.9199C181.305 81.8784 179.912 81.8715 178.32 81.8853L161.279 109.989Z" fill="#242424"/>
<path d="M228.604 111.311H216.821C208.62 111.311 201.942 104.579 201.942 96.311V96.0481C201.942 95.1417 201.77 94.263 201.434 93.4328C200.254 90.5131 197.584 89.4683 195.491 89.4683C193.391 89.4683 190.728 90.5061 189.548 93.4328C189.211 94.263 189.04 95.1486 189.04 96.055V96.3179C189.04 104.586 182.362 111.318 174.161 111.318H162.37C154.169 111.318 147.492 104.586 147.492 96.3179V87.7663C146.956 87.6694 146.462 87.4065 146.071 87.0122C145.556 86.4863 145.275 85.8014 145.275 85.0749C145.275 83.6565 146.373 82.4596 147.766 82.3489C153.703 81.8646 173.735 80.3217 182.506 80.6399C184.153 80.7022 185.876 80.7922 187.633 80.9029C192.828 81.2419 198.037 81.2488 203.116 80.9167C204.92 80.7991 206.719 80.7091 208.469 80.6399C217.239 80.3217 237.272 81.8646 243.209 82.3489C244.609 82.4596 245.7 83.6635 245.7 85.0749C245.7 85.8014 245.419 86.4932 244.904 87.0052C244.519 87.3927 244.019 87.6556 243.483 87.7594V96.311C243.483 104.579 236.806 111.311 228.604 111.311ZM195.484 87.2543C199.073 87.2543 202.127 89.3023 203.466 92.5956C203.912 93.6957 204.138 94.8581 204.138 96.0481V96.311C204.138 103.361 209.827 109.097 216.821 109.097H228.604C235.598 109.097 241.287 103.361 241.287 96.311V87.3097C241.287 86.8599 241.472 86.4171 241.788 86.0989C242.104 85.7806 242.543 85.6007 242.989 85.6007C243.174 85.6007 243.298 85.5039 243.353 85.4485C243.421 85.3793 243.511 85.2548 243.511 85.0818C243.511 84.812 243.305 84.5837 243.037 84.5629C237.135 84.0855 217.205 82.5495 208.551 82.8609C206.822 82.9231 205.044 83.0131 203.26 83.1307C198.092 83.4697 192.787 83.4697 187.496 83.1169C185.759 83.0062 184.057 82.9162 182.431 82.854C173.783 82.5357 153.854 84.0786 147.945 84.556C147.677 84.5767 147.471 84.8051 147.471 85.0749C147.471 85.2548 147.553 85.3724 147.622 85.4416C147.691 85.5108 147.814 85.5938 147.986 85.5938C148.439 85.5938 148.864 85.7737 149.187 86.0989C149.502 86.4171 149.688 86.8599 149.688 87.3097V96.311C149.688 103.361 155.377 109.097 162.37 109.097H174.154C181.147 109.097 186.837 103.361 186.837 96.311V96.0481C186.837 94.8511 187.063 93.6888 187.509 92.5956C188.841 89.3023 191.895 87.2543 195.484 87.2543Z" fill="#242424"/>
<defs>
<linearGradient id="paint0_linear_78_1377436" x1="222.906" y1="51.9604" x2="218.093" y2="115.028" gradientUnits="userSpaceOnUse">
<stop stop-color="white"/>
<stop offset="1" stop-color="#242424"/>
</linearGradient>
<linearGradient id="paint1_linear_78_1377436" x1="232.793" y1="52.7149" x2="227.98" y2="115.783" gradientUnits="userSpaceOnUse">
<stop stop-color="white"/>
<stop offset="1" stop-color="#242424"/>
</linearGradient>
<linearGradient id="paint2_linear_78_1377436" x1="166.903" y1="47.6866" x2="162.09" y2="110.755" gradientUnits="userSpaceOnUse">
<stop stop-color="white"/>
<stop offset="1" stop-color="#242424"/>
</linearGradient>
<linearGradient id="paint3_linear_78_1377436" x1="176.557" y1="48.4232" x2="171.744" y2="111.491" gradientUnits="userSpaceOnUse">
<stop stop-color="white"/>
<stop offset="1" stop-color="#242424"/>
</linearGradient>
<clipPath id="clip0_78_1377436">
<rect width="153.258" height="268.56" fill="white" transform="translate(357.226 135.949) rotate(120)"/>
</clipPath>
</defs>
</svg>
