<svg width="17" height="16" viewBox="0 0 17 16" fill="none" xmlns="http://www.w3.org/2000/svg">
<g clip-path="url(#clip0_390_7122)">
<path d="M11.0667 2.43333H12.7382C12.8828 2.43333 13 2.31613 13 2.17153V0.8C13 0.358167 12.6419 0 12.2 0H4.63335C4.48608 0 4.36668 0.1194 4.36668 0.266667V2.63333C4.36668 3.07517 4.00852 3.43333 3.56668 3.43333H1.20002C1.05275 3.43333 0.93335 3.55273 0.93335 3.7V15.2C0.93335 15.6418 1.29152 16 1.73335 16H12.2C12.6419 16 13 15.6418 13 15.2V14.9691C13 14.8414 12.9074 14.7348 12.782 14.7109C12.529 14.6627 12.302 14.5441 12.1214 14.375L11.582 13.8693C11.318 13.622 11.1667 13.2723 11.1667 12.9103V9.174C11.1667 9.04267 11.0695 8.93223 10.9393 8.9145C10.4761 8.85137 9.46668 8.57303 9.46668 7.33333V4.03333C9.46668 3.14967 10.183 2.43333 11.0667 2.43333ZM3.63335 13.3333C3.63335 13.4807 3.51402 13.6 3.36668 13.6C3.21935 13.6 3.10002 13.4807 3.10002 13.3333V11.348L2.95368 11.4513C2.83335 11.536 2.66702 11.5073 2.58202 11.387C2.49735 11.2667 2.52602 11.1003 2.64635 11.0153L3.21302 10.6153C3.38972 10.4908 3.63335 10.618 3.63335 10.8333V13.3333ZM3.75002 9.53333C3.17102 9.53333 2.70002 9.06233 2.70002 8.48333V7.55C2.70002 6.971 3.17102 6.5 3.75002 6.5C4.32902 6.5 4.80002 6.971 4.80002 7.55V8.48333C4.80002 9.06233 4.32902 9.53333 3.75002 9.53333ZM6.66668 12.55C6.66668 13.129 6.19568 13.6 5.61668 13.6C5.03768 13.6 4.56668 13.129 4.56668 12.55V11.6167C4.56668 11.0377 5.03768 10.5667 5.61668 10.5667C6.19568 10.5667 6.66668 11.0377 6.66668 11.6167V12.55ZM6.66668 9.26667C6.66668 9.414 6.54735 9.53333 6.40002 9.53333C6.25268 9.53333 6.13335 9.414 6.13335 9.26667V7.28133L5.98702 7.38467C5.86668 7.46933 5.70035 7.44067 5.61535 7.32033C5.53068 7.2 5.55935 7.03367 5.67968 6.94867L6.24635 6.54867C6.42305 6.4241 6.66668 6.55137 6.66668 6.76667V9.26667ZM8.66668 13.3333C8.66668 13.4807 8.54735 13.6 8.40002 13.6C8.25268 13.6 8.13335 13.4807 8.13335 13.3333V11.348L7.98702 11.4513C7.86668 11.536 7.70035 11.5073 7.61535 11.387C7.53068 11.2667 7.55935 11.1003 7.67968 11.0153L8.24635 10.6153C8.42305 10.4908 8.66668 10.618 8.66668 10.8333V13.3333ZM8.66668 9.26667C8.66668 9.414 8.54735 9.53333 8.40002 9.53333C8.25268 9.53333 8.13335 9.414 8.13335 9.26667V7.28133L7.98702 7.38467C7.86668 7.46933 7.70035 7.44067 7.61535 7.32033C7.53068 7.2 7.55935 7.03367 7.67968 6.94867L8.24635 6.54867C8.42305 6.4241 8.66668 6.55137 8.66668 6.76667V9.26667ZM8.66668 4.41667C8.66668 4.99567 8.19568 5.46667 7.61668 5.46667C7.03768 5.46667 6.56668 4.99567 6.56668 4.41667V3.48333C6.56668 2.90433 7.03768 2.43333 7.61668 2.43333C8.19568 2.43333 8.66668 2.90433 8.66668 3.48333V4.41667Z" fill="black"/>
<path d="M3.83328 0.477848V2.63328C3.83328 2.78055 3.71388 2.89995 3.56662 2.89995H1.41118C1.29238 2.89995 1.23292 2.75631 1.31692 2.67235L3.60568 0.383581C3.68965 0.299548 3.83328 0.359048 3.83328 0.477848Z" fill="black"/>
<path d="M4.26673 7.55011V8.48345C4.26673 8.76845 4.03507 9.00011 3.75007 9.00011C3.46507 9.00011 3.2334 8.76845 3.2334 8.48345V7.55011C3.2334 7.26511 3.46507 7.03345 3.75007 7.03345C4.03507 7.03345 4.26673 7.26511 4.26673 7.55011Z" fill="black"/>
<path d="M6.13343 11.6168V12.5501C6.13343 12.8351 5.90176 13.0668 5.61676 13.0668C5.33176 13.0668 5.1001 12.8351 5.1001 12.5501V11.6168C5.1001 11.3318 5.33176 11.1001 5.61676 11.1001C5.90176 11.1001 6.13343 11.3318 6.13343 11.6168Z" fill="black"/>
<path d="M8.13343 3.48322V4.41655C8.13343 4.70155 7.90176 4.93322 7.61676 4.93322C7.33176 4.93322 7.1001 4.70155 7.1001 4.41655V3.48322C7.1001 3.19822 7.33176 2.96655 7.61676 2.96655C7.90176 2.96655 8.13343 3.19822 8.13343 3.48322Z" fill="black"/>
<path d="M15 2.96655H11.0667C10.4787 2.96655 10 3.44489 10 4.03322V7.33322C10 7.92155 10.4787 8.39989 11.0667 8.39989H11.7V12.9102C11.7 13.1256 11.79 13.3332 11.947 13.4802L12.486 13.9859C12.7919 14.2719 13.2715 14.275 13.5807 13.9859L14.0847 13.5132C14.3523 13.2622 14.4113 12.8686 14.2287 12.5559L14.085 12.3089C13.998 12.1596 13.998 11.9736 14.085 11.8242L14.2287 11.5772C14.4123 11.2622 14.4123 10.8709 14.2287 10.5559L14.085 10.3089C13.998 10.1596 13.9981 9.97359 14.085 9.82422C14.2405 9.55709 14.3667 9.38452 14.3667 9.06655V8.39989H15C15.588 8.39989 16.0667 7.92155 16.0667 7.33322V4.03322C16.0667 3.44489 15.588 2.96655 15 2.96655ZM14.1 5.13322H11.9667C11.8193 5.13322 11.7 5.01389 11.7 4.86655C11.7 4.71922 11.8193 4.59989 11.9667 4.59989H14.1C14.2473 4.59989 14.3667 4.71922 14.3667 4.86655C14.3667 5.01389 14.2473 5.13322 14.1 5.13322Z" fill="black"/>
</g>
<defs>
<clipPath id="clip0_390_7122">
<rect width="16" height="16" fill="white" transform="translate(0.5)"/>
</clipPath>
</defs>
</svg>
