<svg width="20" height="20" viewBox="0 0 20 20" fill="none" xmlns="http://www.w3.org/2000/svg">
<path fill-rule="evenodd" clip-rule="evenodd" d="M16.5008 8.51842C16.6091 8.99508 16.6666 9.49092 16.6666 10.0001C16.6666 13.6792 13.6791 16.6667 9.99996 16.6667C6.32079 16.6667 3.33329 13.6792 3.33329 10.0001C3.33329 6.32091 6.32079 3.33341 9.99996 3.33341C10.7691 3.33341 11.5075 3.46341 12.195 3.70341C12.6291 3.85508 13.1041 3.62591 13.2558 3.19175C13.4075 2.75675 13.1783 2.28175 12.7441 2.13008C11.8841 1.83008 10.9608 1.66675 9.99996 1.66675C5.40079 1.66675 1.66663 5.40091 1.66663 10.0001C1.66663 14.5992 5.40079 18.3334 9.99996 18.3334C14.5991 18.3334 18.3333 14.5992 18.3333 10.0001C18.3333 9.36425 18.2616 8.74425 18.1266 8.14841C18.0241 7.70008 17.5775 7.41925 17.1291 7.52091C16.6808 7.62258 16.3991 8.06925 16.5008 8.51842ZM9.16663 10.4884L16.0775 3.57758C16.4025 3.25258 16.9308 3.25258 17.2558 3.57758C17.5808 3.90258 17.5808 4.43091 17.2558 4.75591L9.75579 12.2559C9.43079 12.5817 8.90246 12.5817 8.57746 12.2559L6.07746 9.75591C5.75246 9.43091 5.75246 8.90258 6.07746 8.57758C6.40246 8.25258 6.93079 8.25258 7.25579 8.57758L9.16663 10.4884Z" fill="black"/>
</svg>
