<svg width="20" height="20" viewBox="0 0 20 20" fill="none" xmlns="http://www.w3.org/2000/svg">
<g opacity="0.5" clip-path="url(#clip0_88_25929)">
<path d="M19.9346 9.72197C19.0291 7.90135 17.6408 6.36354 15.9196 5.27486C14.1502 4.15561 12.1032 3.56396 10 3.56396C7.8968 3.56396 5.8498 4.15561 4.08035 5.27486C2.35922 6.36354 0.970859 7.90131 0.0653906 9.72197C-0.0217969 9.89725 -0.0217969 10.1033 0.0653906 10.2786C0.970898 12.0992 2.35922 13.6371 4.08035 14.7257C5.8498 15.845 7.8968 16.4366 10 16.4366C12.1032 16.4366 14.1502 15.845 15.9196 14.7257C17.6408 13.6371 19.0291 12.0993 19.9346 10.2786C20.0218 10.1033 20.0218 9.89725 19.9346 9.72197ZM10 15.1866C6.34355 15.1866 3.0493 13.2075 1.32844 10.0003C3.0493 6.79311 6.34355 4.81396 10 4.81396C13.6564 4.81396 16.9507 6.79311 18.6716 10.0003C16.9507 13.2075 13.6564 15.1866 10 15.1866ZM10 6.42107C8.02641 6.42107 6.42078 8.0267 6.42078 10.0003C6.42078 11.9739 8.02641 13.5795 10 13.5795C11.9736 13.5795 13.5792 11.9738 13.5792 10.0003C13.5792 8.02674 11.9736 6.42107 10 6.42107ZM10 12.3295C8.71566 12.3295 7.67078 11.2846 7.67078 10.0003C7.67078 8.71596 8.71566 7.67107 10 7.67107C11.2843 7.67107 12.3292 8.71596 12.3292 10.0003C12.3292 11.2846 11.2843 12.3295 10 12.3295Z" fill="black"/>
</g>
<defs>
<clipPath id="clip0_88_25929">
<rect width="20" height="20" fill="white" transform="translate(0 0.000488281)"/>
</clipPath>
</defs>
</svg>
