<svg width="127" height="69" viewBox="0 0 127 69" fill="none" xmlns="http://www.w3.org/2000/svg">
<path d="M35.4705 34.7426L16.4141 18.3452L17.3004 34.7426L17.3004 48.0379L35.4705 34.7426Z" fill="url(#paint0_linear_1157_9580)"/>
<path d="M28.2504 34.638L22.2761 29.304L22.5079 34.638L22.0002 39.0001L28.2504 34.638Z" fill="white"/>
<mask id="mask0_1157_9580" style="mask-type:alpha" maskUnits="userSpaceOnUse" x="0" y="6" width="48" height="60">
<path d="M13.7178 59.7444L11.4622 13.8984L6.92042 9.00766L0.984668 13.8984L11.9538 60.046L13.7178 59.7444Z" fill="white"/>
<path d="M46.8639 33.3802L16.482 55.3096L16.4849 61.8507L22.6364 65.4378L47.8508 34.7121L46.8639 33.3802Z" fill="white"/>
<path d="M10.4436 7.53595L41.1582 32.9468L46.3467 30.1391L47.1977 24.6416L11.6157 6.28785L10.4436 7.53595Z" fill="white"/>
</mask>
<g mask="url(#mask0_1157_9580)">
<path d="M-2.32129 5.77563H87.4919V98.6859H-2.32129V5.77563Z" fill="url(#paint1_linear_1157_9580)"/>
</g>
<g clip-path="url(#clip0_1157_9580)">
<path d="M79.2914 6.74057H79.211L79.2263 6.72461H61.3184V55.2753H64.4174V49.2506L72.4706 43.573L75.1441 41.6879L79.2914 38.7632V6.74057ZM76.0602 9.95042V30.0295L64.4154 38.2386V9.95042H76.0602ZM64.4154 41.9253L76.0602 33.7161V37.3569L64.4154 45.566V41.9253Z" fill="black" stroke="black"/>
<path d="M100.251 6.72461H88.2301H84.8945V10.0889V32.8747V36.5622V40.2039V43.8914V51.9111V55.2753H88.2301H103.448V51.909H88.2301V41.6106L103.587 31.1207V6.72461H102.7H100.251ZM88.2301 10.0889H100.251V22.3848L88.2301 30.5959V10.0889ZM88.2301 34.2835L100.251 26.0723V29.7139L88.2301 37.9251V34.2835Z" fill="black" stroke="black"/>
<path d="M83.5871 10.6127H89.3272V29.2297L83.4043 33.1276L83.5871 10.6127Z" fill="white"/>
<path d="M125.844 6.74057H125.764L125.779 6.72461H107.871V55.2753H110.97V49.2506L119.023 43.573L121.697 41.6879L125.844 38.7632V6.74057ZM122.613 9.95042V30.0295L110.968 38.2386V9.95042H122.613ZM110.968 41.9253L122.613 33.7161V37.3569L110.968 45.566V41.9253Z" fill="black" stroke="black"/>
</g>
<path d="M63.1634 67.12C62.5834 67.12 62.0868 67.0133 61.6734 66.8C61.2668 66.58 60.9201 66.29 60.6334 65.93L61.3734 65.25C61.6201 65.5567 61.8901 65.79 62.1834 65.95C62.4834 66.1033 62.8268 66.18 63.2134 66.18C63.6734 66.18 64.0201 66.0767 64.2534 65.87C64.4868 65.6567 64.6034 65.3733 64.6034 65.02C64.6034 64.8333 64.5668 64.6733 64.4934 64.54C64.4268 64.4 64.3101 64.2833 64.1434 64.19C63.9768 64.0967 63.7534 64.0233 63.4734 63.97L62.8634 63.85C62.4234 63.7633 62.0534 63.6367 61.7534 63.47C61.4534 63.3033 61.2268 63.09 61.0734 62.83C60.9201 62.5633 60.8434 62.2467 60.8434 61.88C60.8434 61.4667 60.9401 61.1133 61.1334 60.82C61.3334 60.52 61.6134 60.2933 61.9734 60.14C62.3401 59.98 62.7668 59.9 63.2534 59.9C63.7801 59.9 64.2334 59.9933 64.6134 60.18C65.0001 60.3667 65.3301 60.6367 65.6034 60.99L64.8434 61.63C64.6634 61.39 64.4401 61.2 64.1734 61.06C63.9134 60.9133 63.5868 60.84 63.1934 60.84C62.7868 60.84 62.4701 60.9267 62.2434 61.1C62.0168 61.2667 61.9034 61.51 61.9034 61.83C61.9034 62.03 61.9434 62.1967 62.0234 62.33C62.1101 62.4567 62.2368 62.5633 62.4034 62.65C62.5768 62.73 62.7934 62.7967 63.0534 62.85L63.6634 62.97C64.1234 63.0633 64.5001 63.1967 64.7934 63.37C65.0934 63.5433 65.3134 63.7633 65.4534 64.03C65.5934 64.29 65.6634 64.6 65.6634 64.96C65.6634 65.3933 65.5634 65.7733 65.3634 66.1C65.1701 66.42 64.8868 66.67 64.5134 66.85C64.1401 67.03 63.6901 67.12 63.1634 67.12ZM69.5645 67V60.96H67.4545V60.02H72.7345V60.96H70.6245V67H69.5645ZM75.0562 67V60.02H78.0062C78.4262 60.02 78.7828 60.1033 79.0762 60.27C79.3762 60.43 79.6062 60.6633 79.7662 60.97C79.9328 61.2767 80.0162 61.6467 80.0162 62.08C80.0162 62.5733 79.8995 62.9933 79.6662 63.34C79.4395 63.68 79.1028 63.91 78.6562 64.03L80.1762 67H78.9862L77.5662 64.15H76.1162V67H75.0562ZM76.1162 63.24H77.9462C78.1462 63.24 78.3162 63.2067 78.4562 63.14C78.5962 63.0667 78.7028 62.9633 78.7762 62.83C78.8495 62.6967 78.8862 62.5333 78.8862 62.34V61.85C78.8862 61.6567 78.8495 61.4933 78.7762 61.36C78.7028 61.2267 78.5962 61.1267 78.4562 61.06C78.3162 60.9867 78.1462 60.95 77.9462 60.95H76.1162V63.24ZM82.7698 67V60.02H87.1898V60.96H83.8298V63H86.8998V63.94H83.8298V66.06H87.1898V67H82.7698ZM89.218 67L91.608 60.02H92.948L95.338 67H94.218L93.588 65.07H90.928L90.298 67H89.218ZM91.188 64.15H93.328L92.278 61H92.228L91.188 64.15ZM97.6405 67V60.02H98.9205L100.821 63.62H100.861L102.771 60.02H104.031V67H103.001V61.55H102.961L102.401 62.67L100.831 65.52L99.2705 62.68L98.7005 61.53H98.6605V67H97.6405ZM106.675 67V66.13H107.625V60.89H106.675V60.02H109.645V60.89H108.695V66.13H109.645V67H106.675ZM112.296 67V60.02H113.496L115.826 63.96L116.616 65.46H116.646V60.02H117.666V67H116.466L114.126 63.06L113.346 61.56H113.316V67H112.296ZM123.185 67.12C122.632 67.12 122.135 66.9833 121.695 66.71C121.262 66.43 120.919 66.0233 120.665 65.49C120.419 64.9567 120.295 64.3 120.295 63.52C120.295 62.74 120.422 62.0833 120.675 61.55C120.929 61.01 121.282 60.6 121.735 60.32C122.195 60.04 122.729 59.9 123.335 59.9C123.955 59.9 124.482 60.04 124.915 60.32C125.349 60.6 125.685 60.98 125.925 61.46L125.045 61.98C124.905 61.64 124.692 61.3667 124.405 61.16C124.119 60.9533 123.762 60.85 123.335 60.85C122.955 60.85 122.622 60.9333 122.335 61.1C122.049 61.2667 121.825 61.5067 121.665 61.82C121.512 62.1333 121.435 62.5067 121.435 62.94V64.07C121.435 64.5033 121.512 64.8767 121.665 65.19C121.825 65.5033 122.052 65.7467 122.345 65.92C122.639 66.0867 122.985 66.17 123.385 66.17C123.685 66.17 123.959 66.12 124.205 66.02C124.452 65.9133 124.649 65.76 124.795 65.56C124.949 65.36 125.025 65.1067 125.025 64.8V64.23H123.565V63.31H126.055V67H125.115V65.95H125.075C125.002 66.2833 124.802 66.5633 124.475 66.79C124.149 67.01 123.719 67.12 123.185 67.12Z" fill="black"/>
<defs>
<linearGradient id="paint0_linear_1157_9580" x1="16.0004" y1="48" x2="18.5004" y2="21" gradientUnits="userSpaceOnUse">
<stop stop-color="#167E70"/>
<stop offset="0.25" stop-color="#1B9276"/>
<stop offset="0.5" stop-color="#0D6C5B"/>
<stop offset="0.75" stop-color="#79F4E2"/>
<stop offset="0.859375" stop-color="#7DF3E2"/>
<stop offset="1" stop-color="#1C9680"/>
</linearGradient>
<linearGradient id="paint1_linear_1157_9580" x1="57.7893" y1="17.3538" x2="39.3873" y2="107.376" gradientUnits="userSpaceOnUse">
<stop offset="0.0128" stop-color="#378A7A"/>
<stop offset="0.0185" stop-color="#37907E"/>
<stop offset="0.0707" stop-color="#169680"/>
<stop offset="0.0931" stop-color="#20BAA3"/>
<stop offset="0.138" stop-color="#7EF3E2"/>
<stop offset="0.1458" stop-color="#6FF3E1"/>
<stop offset="0.2008" stop-color="#21B499"/>
<stop offset="0.2492" stop-color="#0D6C5B"/>
<stop offset="0.2529" stop-color="#0C6A59"/>
<stop offset="0.2989" stop-color="#16836A"/>
<stop offset="0.317" stop-color="#1B9377"/>
<stop offset="0.3187" stop-color="#1B9378"/>
<stop offset="0.3576" stop-color="#0B826D"/>
<stop offset="0.3727" stop-color="#047969"/>
<stop offset="0.4116" stop-color="#518A83"/>
<stop offset="0.4369" stop-color="#699C95"/>
<stop offset="0.4762" stop-color="#519289"/>
<stop offset="0.5218" stop-color="#156A5E"/>
<stop offset="0.5535" stop-color="#0E5B4F"/>
<stop offset="0.5808" stop-color="#1A6559"/>
<stop offset="0.6395" stop-color="#34CEB8"/>
<stop offset="0.6521" stop-color="#2FD7BE"/>
<stop offset="0.7137" stop-color="#135C4E"/>
<stop offset="0.743" stop-color="#064B3B"/>
<stop offset="0.7545" stop-color="#064C3B"/>
<stop offset="0.8103" stop-color="#0B3428"/>
<stop offset="0.8262" stop-color="#0C362A"/>
<stop offset="0.8767" stop-color="#21554B"/>
<stop offset="0.8859" stop-color="#256A5C"/>
<stop offset="0.9283" stop-color="#39C9A9"/>
<stop offset="0.9537" stop-color="#27DBB0"/>
<stop offset="1" stop-color="#06AF85"/>
</linearGradient>
<clipPath id="clip0_1157_9580">
<rect width="65.9574" height="50" fill="white" transform="translate(60 6)"/>
</clipPath>
</defs>
</svg>
