<svg width="36" height="35" viewBox="0 0 36 35" fill="none" xmlns="http://www.w3.org/2000/svg">
<rect x="0.5" y="0.000488281" width="35" height="35" rx="17.5" fill="white"/>
<path d="M15.45 11C14.373 11 13.5 11.873 13.5 12.95V22.05C13.5 23.127 14.373 24 15.45 24C16.527 24 17.4 23.127 17.4 22.05V12.95C17.4 11.873 16.527 11 15.45 11Z" fill="#002211"/>
<path d="M21.5167 11C20.4397 11 19.5667 11.873 19.5667 12.95V22.05C19.5667 23.127 20.4397 24 21.5167 24C22.5936 24 23.4667 23.127 23.4667 22.05V12.95C23.4667 11.873 22.5936 11 21.5167 11Z" fill="#002211"/>
</svg>
