<svg width="20" height="20" viewBox="0 0 20 20" fill="none" xmlns="http://www.w3.org/2000/svg">
<path d="M15.625 2.47498H14.6875V1.875C14.6875 1.52985 14.4077 1.25 14.0625 1.25C13.7173 1.25 13.4375 1.52985 13.4375 1.875V2.47498H6.5625V1.875C6.5625 1.52985 6.28265 1.25 5.9375 1.25C5.59235 1.25 5.3125 1.52985 5.3125 1.875V2.47498H4.375C2.65198 2.47498 1.25 3.87695 1.25 5.59998V15.625C1.25 17.348 2.65198 18.75 4.375 18.75H15.625C17.348 18.75 18.75 17.348 18.75 15.625V5.59998C18.75 3.87695 17.348 2.47498 15.625 2.47498ZM2.5 5.59998C2.5 4.56604 3.34106 3.72498 4.375 3.72498H5.3125V4.32465C5.3125 4.6698 5.59235 4.94965 5.9375 4.94965C6.28265 4.94965 6.5625 4.6698 6.5625 4.32465V3.72498H13.4375V4.32465C13.4375 4.6698 13.7173 4.94965 14.0625 4.94965C14.4077 4.94965 14.6875 4.6698 14.6875 4.32465V3.72498H15.625C16.6589 3.72498 17.5 4.56604 17.5 5.59998V6.23108H2.5V5.59998ZM15.625 17.5H4.375C3.34106 17.5 2.5 16.6589 2.5 15.625V7.48108H17.5V15.625C17.5 16.6589 16.6589 17.5 15.625 17.5Z" fill="black"/>
<path d="M12.8659 10.9503L8.91266 8.66792C8.35663 8.34749 7.69165 8.34688 7.1344 8.66792C6.57745 8.98958 6.24512 9.56544 6.24512 10.2085V14.773C6.24512 15.416 6.57745 15.9915 7.1344 16.3132C7.41272 16.4737 7.7182 16.5543 8.02338 16.5543C8.32886 16.5543 8.63434 16.4737 8.91266 16.3132L12.8659 14.0308C13.4225 13.7094 13.7549 13.1336 13.7549 12.4906C13.7549 11.8479 13.4225 11.272 12.8659 10.9503ZM12.2409 12.9483L8.28766 15.2304C8.04871 15.3678 7.83875 15.2765 7.7594 15.2307C7.67975 15.1846 7.49512 15.0482 7.49512 14.773V10.2085C7.49512 9.93288 7.68005 9.79646 7.7594 9.75038C7.80762 9.72261 7.90436 9.67775 8.02612 9.67775C8.10486 9.67775 8.19397 9.69667 8.28766 9.75069L12.2409 12.0328C12.4792 12.1707 12.5049 12.399 12.5049 12.4906C12.5049 12.5824 12.4792 12.8107 12.2409 12.9483Z" fill="black"/>
</svg>
