<svg width="20" height="19" viewBox="0 0 20 19" fill="none" xmlns="http://www.w3.org/2000/svg">
<path d="M11.07 0.929688C10.6839 0.931213 10.3085 1.05636 9.9987 1.28678L4.76366 5.21484H2.14258C1.57433 5.21484 1.02936 5.44058 0.627547 5.84239C0.225735 6.2442 0 6.78917 0 7.35742V11.6426C0 12.2108 0.225735 12.7558 0.627547 13.1576C1.02936 13.5594 1.57433 13.7852 2.14258 13.7852H4.76366L9.9987 17.7132C10.3085 17.9436 10.6839 18.0688 11.07 18.0703C11.5435 18.0703 11.9977 17.8822 12.3325 17.5474C12.6674 17.2125 12.8555 16.7584 12.8555 16.2848V2.71517C12.8555 2.24163 12.6674 1.78749 12.3325 1.45264C11.9977 1.1178 11.5435 0.929688 11.07 0.929688Z" fill="white"/>
<path d="M17.6976 3.94441C17.631 3.87782 17.5519 3.825 17.4649 3.78896C17.3779 3.75292 17.2847 3.73438 17.1905 3.73438C17.0963 3.73437 17.0031 3.75292 16.9161 3.78896C16.8291 3.825 16.75 3.87782 16.6834 3.94441C16.6168 4.011 16.564 4.09006 16.528 4.17706C16.4919 4.26407 16.4734 4.35732 16.4734 4.45149C16.4734 4.54566 16.4919 4.63891 16.528 4.72592C16.564 4.81292 16.6168 4.89198 16.6834 4.95857C17.8871 6.16377 18.5632 7.79748 18.5632 9.50083C18.5632 11.2042 17.8871 12.8379 16.6834 14.0431C16.6165 14.1095 16.5634 14.1885 16.5271 14.2755C16.4908 14.3625 16.4722 14.4559 16.4722 14.5502C16.4722 14.6445 16.4908 14.7378 16.5271 14.8248C16.5634 14.9119 16.6165 14.9909 16.6834 15.0573C16.7498 15.1242 16.8288 15.1773 16.9158 15.2136C17.0029 15.2498 17.0962 15.2685 17.1905 15.2685C17.2848 15.2685 17.3781 15.2498 17.4652 15.2136C17.5522 15.1773 17.6312 15.1242 17.6976 15.0573C18.4275 14.3277 19.0065 13.4615 19.4015 12.5081C19.7966 11.5547 19.9999 10.5328 19.9999 9.50083C19.9999 8.46884 19.7966 7.44696 19.4015 6.49357C19.0065 5.54018 18.4275 4.67397 17.6976 3.94441Z" fill="white"/>
<path d="M15.6699 5.96438C15.6053 5.89011 15.5261 5.82998 15.4372 5.78777C15.3483 5.74557 15.2516 5.72219 15.1532 5.7191C15.0549 5.71602 14.9569 5.73329 14.8656 5.76985C14.7742 5.8064 14.6914 5.86145 14.6223 5.93153C14.5532 6.00161 14.4993 6.08521 14.4641 6.17709C14.4288 6.26897 14.4129 6.36714 14.4174 6.46545C14.4219 6.56376 14.4466 6.66009 14.4901 6.74838C14.5336 6.83667 14.5948 6.91503 14.67 6.97853C15.3373 7.6479 15.712 8.55449 15.712 9.49963C15.712 10.4448 15.3373 11.3514 14.67 12.0207C14.5697 12.1202 14.5012 12.2472 14.473 12.3856C14.4449 12.524 14.4584 12.6677 14.512 12.7984C14.5655 12.9291 14.6565 13.041 14.7737 13.12C14.8908 13.1989 15.0287 13.2414 15.1699 13.242C15.3573 13.2412 15.5368 13.1668 15.6699 13.0349C16.1341 12.5706 16.5024 12.0195 16.7537 11.4129C17.005 10.8063 17.1343 10.1562 17.1343 9.49963C17.1343 8.84307 17.005 8.19293 16.7537 7.58635C16.5024 6.97977 16.1341 6.42862 15.6699 5.96438Z" fill="white"/>
</svg>
