<svg width="36" height="35" viewBox="0 0 36 35" fill="none" xmlns="http://www.w3.org/2000/svg">
<rect x="0.5" width="35" height="35" rx="17.5" fill="#FF0000"/>
<g opacity="0.7" clip-path="url(#clip0_655_6098)">
<path d="M23.8766 19.6894C23.0195 19.6894 22.1779 19.5553 21.3804 19.2918C20.9896 19.1585 20.5092 19.2808 20.2707 19.5257L18.6965 20.7141C16.8709 19.7396 15.7464 18.6154 14.7852 16.8035L15.9386 15.2704C16.2382 14.9711 16.3457 14.534 16.2169 14.1238C15.9522 13.3221 15.8178 12.4809 15.8178 11.6234C15.8178 11.004 15.3139 10.5 14.6944 10.5H12.1234C11.504 10.5 11 11.004 11 11.6234C11 18.7237 16.7764 24.5 23.8766 24.5C24.4961 24.5 25 23.996 25 23.3766V20.8127C25 20.1934 24.496 19.6894 23.8766 19.6894Z" fill="#002211"/>
</g>
<defs>
<clipPath id="clip0_655_6098">
<rect width="14" height="14" fill="white" transform="translate(11 10.5)"/>
</clipPath>
</defs>
</svg>
