<svg width="36" height="35" viewBox="0 0 36 35" fill="none" xmlns="http://www.w3.org/2000/svg">
<rect x="0.5" width="35" height="35" rx="17.5" fill="white"/>
<path d="M22.7672 15.7984L14.7187 11.1484C14.4887 11.0123 14.2267 10.9395 13.9594 10.9375C13.5392 10.9375 13.1362 11.1044 12.8391 11.4016C12.5419 11.6987 12.375 12.1017 12.375 12.5219V22.5016C12.3751 22.7804 12.4498 23.0542 12.5915 23.2943C12.7332 23.5345 12.9366 23.7323 13.1806 23.8673C13.4246 24.0022 13.7004 24.0693 13.9791 24.0616C14.2578 24.0539 14.5294 23.9717 14.7656 23.8234L22.8234 18.7328C23.074 18.576 23.2796 18.357 23.4204 18.0971C23.5611 17.8371 23.6321 17.5452 23.6264 17.2497C23.6207 16.9542 23.5386 16.6652 23.388 16.4108C23.2375 16.1565 23.0236 15.9455 22.7672 15.7984Z" fill="#002211"/>
</svg>
