<svg width="15" height="15" viewBox="0 0 15 15" fill="none" xmlns="http://www.w3.org/2000/svg">
<g clip-path="url(#clip0_655_6108)">
<path d="M6.16225 7.72458C6.09716 7.65952 6.02225 7.62695 5.93762 7.62695C5.85297 7.62695 5.77806 7.65948 5.713 7.72458L2.47078 10.9668L1.06454 9.56037C0.940816 9.43689 0.794486 9.37494 0.625101 9.37494C0.455717 9.37494 0.309216 9.43689 0.185529 9.56037C0.0618089 9.68423 0 9.83076 0 10V14.3751C0 14.5444 0.0618089 14.6908 0.185529 14.8146C0.309318 14.9382 0.455819 15.0001 0.625101 15.0001H5.00016C5.16944 15.0001 5.31587 14.9382 5.43959 14.8146C5.56325 14.6909 5.62512 14.5444 5.62512 14.3751C5.62512 14.2059 5.56325 14.0593 5.43959 13.9355L4.03335 12.5295L7.27556 9.28707C7.34062 9.22198 7.37315 9.14731 7.37315 9.06255C7.37315 8.97779 7.34055 8.90315 7.27556 8.83782L6.16225 7.72458Z" fill="white"/>
<path d="M14.8146 0.185529C14.6909 0.0618089 14.5444 0 14.3751 0H10C9.83078 0 9.68441 0.0618089 9.56059 0.185529C9.43697 0.309181 9.37516 0.455682 9.37516 0.624964C9.37516 0.794246 9.43697 0.940782 9.56059 1.0644L10.9666 2.47065L7.72445 5.71286C7.65943 5.77806 7.62683 5.85286 7.62683 5.93749C7.62683 6.02211 7.65943 6.09705 7.72445 6.16211L8.8379 7.27542C8.90296 7.34052 8.97767 7.37301 9.06239 7.37301C9.14712 7.37301 9.22182 7.34052 9.28688 7.27542L12.5293 4.03321L13.9353 5.43935C14.0591 5.56304 14.2057 5.62502 14.375 5.62502C14.5443 5.62502 14.6907 5.56304 14.8144 5.43935C14.938 5.31574 14.9998 5.1692 14.9998 4.99992V0.624862C14.9999 0.455443 14.9385 0.309216 14.8146 0.185529Z" fill="white"/>
</g>
<defs>
<clipPath id="clip0_655_6108">
<rect width="15" height="15" fill="white"/>
</clipPath>
</defs>
</svg>
