<svg width="20" height="20" viewBox="0 0 20 20" fill="none" xmlns="http://www.w3.org/2000/svg">
<g clip-path="url(#clip0_125_40890)">
<path d="M16.875 6.25H3.125C2.62772 6.25 2.15081 6.44754 1.79917 6.79917C1.44754 7.15081 1.25 7.62772 1.25 8.125V16.875C1.25 17.3723 1.44754 17.8492 1.79917 18.2008C2.15081 18.5525 2.62772 18.75 3.125 18.75H16.875C17.3723 18.75 17.8492 18.5525 18.2008 18.2008C18.5525 17.8492 18.75 17.3723 18.75 16.875V8.125C18.75 7.62772 18.5525 7.15081 18.2008 6.79917C17.8492 6.44754 17.3723 6.25 16.875 6.25ZM17.5 16.875C17.5 17.0408 17.4342 17.1997 17.3169 17.3169C17.1997 17.4342 17.0408 17.5 16.875 17.5H3.125C2.95924 17.5 2.80027 17.4342 2.68306 17.3169C2.56585 17.1997 2.5 17.0408 2.5 16.875V8.125C2.5 7.95924 2.56585 7.80027 2.68306 7.68306C2.80027 7.56585 2.95924 7.5 3.125 7.5H16.875C17.0408 7.5 17.1997 7.56585 17.3169 7.68306C17.4342 7.80027 17.5 7.95924 17.5 8.125V16.875ZM12.7812 11.9438L7.78125 9.44375C7.68611 9.39581 7.58029 9.37298 7.47384 9.37744C7.36739 9.3819 7.26385 9.41349 7.17305 9.46923C7.08225 9.52496 7.0072 9.60298 6.95504 9.69588C6.90287 9.78877 6.87532 9.89346 6.875 10V15C6.87479 15.1062 6.90165 15.2107 6.95304 15.3037C7.00444 15.3966 7.07868 15.475 7.16875 15.5312C7.26821 15.5929 7.38298 15.6254 7.5 15.625C7.59784 15.6244 7.69417 15.6009 7.78125 15.5562L12.7812 13.0562C12.8836 13.0038 12.9695 12.9241 13.0295 12.826C13.0895 12.7278 13.1213 12.615 13.1213 12.5C13.1213 12.385 13.0895 12.2722 13.0295 12.174C12.9695 12.0759 12.8836 11.9962 12.7812 11.9438ZM8.125 13.9875V11.0125L11.1 12.5L8.125 13.9875ZM4.375 1.875C4.375 1.70924 4.44085 1.55027 4.55806 1.43306C4.67527 1.31585 4.83424 1.25 5 1.25H15C15.1658 1.25 15.3247 1.31585 15.4419 1.43306C15.5592 1.55027 15.625 1.70924 15.625 1.875C15.625 2.04076 15.5592 2.19973 15.4419 2.31694C15.3247 2.43415 15.1658 2.5 15 2.5H5C4.83424 2.5 4.67527 2.43415 4.55806 2.31694C4.44085 2.19973 4.375 2.04076 4.375 1.875ZM2.5 4.375C2.5 4.20924 2.56585 4.05027 2.68306 3.93306C2.80027 3.81585 2.95924 3.75 3.125 3.75H16.875C17.0408 3.75 17.1997 3.81585 17.3169 3.93306C17.4342 4.05027 17.5 4.20924 17.5 4.375C17.5 4.54076 17.4342 4.69973 17.3169 4.81694C17.1997 4.93415 17.0408 5 16.875 5H3.125C2.95924 5 2.80027 4.93415 2.68306 4.81694C2.56585 4.69973 2.5 4.54076 2.5 4.375Z" fill="white"/>
<rect x="-1.27087" y="20.8212" width="31.5" height="3.5" transform="rotate(-45 -1.27087 20.8212)" fill="white" stroke="#FF0101" stroke-width="1.5"/>
</g>
<defs>
<clipPath id="clip0_125_40890">
<rect width="20" height="20" fill="white"/>
</clipPath>
</defs>
</svg>
