<svg width="20" height="21" viewBox="0 0 20 21" fill="none" xmlns="http://www.w3.org/2000/svg">
<path d="M15.8332 4.01356V14.6469L9.22487 5.20523L13.6665 2.73856C13.8884 2.61441 14.139 2.55054 14.3932 2.55331C14.6475 2.55608 14.8966 2.62539 15.1157 2.75435C15.3349 2.8833 15.5164 3.06741 15.6423 3.28833C15.7682 3.50925 15.834 3.75929 15.8332 4.01356Z" fill="white"/>
<path d="M15.8332 16.0971V17.8471C15.8322 17.9677 15.8182 18.0878 15.7915 18.2054C15.7187 18.5047 15.5487 18.7714 15.3082 18.9638C15.25 19.0182 15.1857 19.0658 15.1165 19.1054C14.8912 19.2363 14.6354 19.3052 14.3749 19.3054C14.127 19.306 13.8831 19.2428 13.6665 19.1221L7.78321 15.8554C7.62853 15.7668 7.45312 15.7208 7.27487 15.7221H4.37487C4.07387 15.7223 3.77577 15.6632 3.49763 15.5481C3.21949 15.433 2.96678 15.2642 2.75393 15.0514C2.54109 14.8385 2.37229 14.5858 2.2572 14.3077C2.14211 14.0295 2.08299 13.7314 2.08321 13.4304V8.43044C2.08299 8.12943 2.14211 7.83133 2.2572 7.55319C2.37229 7.27506 2.54109 7.02234 2.75393 6.80949C2.96678 6.59665 3.21949 6.42786 3.49763 6.31277C3.77577 6.19768 4.07387 6.13855 4.37487 6.13877H7.27487C7.29742 6.14012 7.32002 6.1373 7.34154 6.13044C7.49732 6.12922 7.6499 6.08604 7.78321 6.00544L8.49154 5.61377L15.8332 16.0971Z" fill="white"/>
<path d="M17.6499 19.772C17.5469 19.85 17.4207 19.891 17.2915 19.8887C17.1913 19.89 17.0924 19.8663 17.0036 19.8197C16.9149 19.7731 16.8391 19.7052 16.7832 19.622L15.7915 18.2054L7.34154 6.13037L5.11654 2.95537C5.0215 2.82055 4.98391 2.6535 5.01204 2.49097C5.04017 2.32844 5.13172 2.18374 5.26654 2.0887C5.40135 1.99367 5.5684 1.95608 5.73094 1.98421C5.89347 2.01234 6.03817 2.10389 6.1332 2.2387L8.49154 5.6137L15.8332 16.097L17.7999 18.9054C17.8476 18.9719 17.8816 19.0472 17.9 19.127C17.9183 19.2068 17.9205 19.2895 17.9065 19.3701C17.8926 19.4508 17.8627 19.5279 17.8186 19.5969C17.7746 19.6659 17.7172 19.7254 17.6499 19.772Z" fill="white"/>
</svg>
