<svg width="36" height="35" viewBox="0 0 36 35" fill="none" xmlns="http://www.w3.org/2000/svg">
<rect x="0.5" width="35" height="35" rx="17.5" fill="white"/>
<g clip-path="url(#clip0_655_6090)">
<path d="M19.0248 13.0732H12.1489C11.242 13.0732 10.5 13.8152 10.5 14.7221V20.2789C10.5 21.1858 11.242 21.9278 12.1489 21.9278H19.0248C19.9317 21.9278 20.6737 21.1858 20.6737 20.2789V14.7221C20.6737 13.7988 19.9317 13.0732 19.0248 13.0732Z" fill="#021B15"/>
<path d="M24.2798 13.9904C24.1809 14.0069 24.082 14.0564 23.9995 14.1058L21.4272 15.5899V19.4153L24.016 20.8993C24.4942 21.1796 25.0878 21.0147 25.3681 20.5365C25.4506 20.3881 25.5 20.2233 25.5 20.0419V14.9468C25.5 14.3367 24.9229 13.842 24.2798 13.9904Z" fill="#021B15"/>
</g>
<defs>
<clipPath id="clip0_655_6090">
<rect width="15" height="14.8829" fill="white" transform="translate(10.5 10.0586)"/>
</clipPath>
</defs>
</svg>
