<svg width="36" height="35" viewBox="0 0 36 35" fill="none" xmlns="http://www.w3.org/2000/svg">
<rect x="0.5" width="35" height="35" rx="17.5" fill="#00FFC4"/>
<g clip-path="url(#clip0_655_6084)">
<path d="M16.125 22.6562C16.0007 22.6562 15.8815 22.6069 15.7935 22.519C15.7056 22.431 15.6562 22.3118 15.6562 22.1875C15.6549 21.069 15.21 19.9968 14.4191 19.2059C13.6282 18.415 12.556 17.9701 11.4375 17.9688C11.3132 17.9688 11.194 17.9194 11.106 17.8315C11.0181 17.7435 10.9688 17.6243 10.9688 17.5C10.9688 17.3757 11.0181 17.2565 11.106 17.1685C11.194 17.0806 11.3132 17.0312 11.4375 17.0312C12.8045 17.0329 14.1151 17.5766 15.0817 18.5433C16.0484 19.5099 16.5921 20.8205 16.5938 22.1875C16.5938 22.3118 16.5444 22.431 16.4565 22.519C16.3685 22.6069 16.2493 22.6562 16.125 22.6562Z" fill="#002211"/>
<path d="M14.25 22.6562C14.1257 22.6562 14.0065 22.6069 13.9185 22.519C13.8306 22.431 13.7812 22.3118 13.7812 22.1875C13.7805 21.5661 13.5333 20.9704 13.094 20.531C12.6546 20.0917 12.0589 19.8445 11.4375 19.8438C11.3132 19.8438 11.194 19.7944 11.106 19.7065C11.0181 19.6185 10.9688 19.4993 10.9688 19.375C10.9688 19.2507 11.0181 19.1315 11.106 19.0435C11.194 18.9556 11.3132 18.9062 11.4375 18.9062C12.3074 18.9072 13.1415 19.2533 13.7566 19.8684C14.3717 20.4835 14.7178 21.3176 14.7188 22.1875C14.7188 22.3118 14.6694 22.431 14.5815 22.519C14.4935 22.6069 14.3743 22.6562 14.25 22.6562Z" fill="#002211"/>
<path d="M12.375 22.6562C12.2507 22.6562 12.1315 22.6069 12.0435 22.519C11.9556 22.431 11.9062 22.3118 11.9062 22.1875C11.9062 22.0632 11.8569 21.944 11.769 21.856C11.681 21.7681 11.5618 21.7188 11.4375 21.7188C11.3132 21.7188 11.194 21.6694 11.106 21.5815C11.0181 21.4935 10.9688 21.3743 10.9688 21.25C10.9688 21.1257 11.0181 21.0065 11.106 20.9185C11.194 20.8306 11.3132 20.7812 11.4375 20.7812C11.8105 20.7812 12.1681 20.9294 12.4319 21.1931C12.6956 21.4569 12.8438 21.8145 12.8438 22.1875C12.8438 22.3118 12.7944 22.431 12.7065 22.519C12.6185 22.6069 12.4993 22.6562 12.375 22.6562Z" fill="#002211"/>
<path d="M24.5625 12.3438H11.4375C11.3132 12.3438 11.194 12.3931 11.106 12.481C11.0181 12.569 10.9688 12.6882 10.9688 12.8125V15.625C10.9688 15.7493 11.0181 15.8685 11.106 15.9565C11.194 16.0444 11.3132 16.0938 11.4375 16.0938C13.0531 16.0956 14.602 16.7382 15.7444 17.8806C16.8868 19.023 17.5294 20.5719 17.5312 22.1875C17.5312 22.3118 17.5806 22.431 17.6685 22.519C17.7565 22.6069 17.8757 22.6562 18 22.6562H24.5625C24.6868 22.6562 24.806 22.6069 24.894 22.519C24.9819 22.431 25.0312 22.3118 25.0312 22.1875V12.8125C25.0312 12.6882 24.9819 12.569 24.894 12.481C24.806 12.3931 24.6868 12.3438 24.5625 12.3438Z" fill="#002211"/>
</g>
<defs>
<clipPath id="clip0_655_6084">
<rect width="15" height="15" fill="white" transform="translate(10.5 10)"/>
</clipPath>
</defs>
</svg>
