<svg width="36" height="35" viewBox="0 0 36 35" fill="none" xmlns="http://www.w3.org/2000/svg">
<rect x="0.5" width="35" height="35" rx="17.5" fill="white"/>
<path d="M14.875 13.4375C14.875 11.7116 16.2741 10.3125 18 10.3125C19.7259 10.3125 21.125 11.7116 21.125 13.4375V16.875C21.125 18.6009 19.7259 20 18 20C16.2741 20 14.875 18.6009 14.875 16.875V13.4375Z" fill="#002211"/>
<path d="M18.0037 21.2501C18.0025 21.2501 18.0012 21.2501 18 21.2501C17.9988 21.2501 17.9975 21.2501 17.9963 21.2501C16.163 21.2484 14.5923 20.1189 13.9433 18.5156C13.8138 18.1957 13.4494 18.0413 13.1294 18.1708C12.8095 18.3003 12.6551 18.6647 12.7846 18.9846C13.5439 20.8605 15.2866 22.2348 17.375 22.4658V24.3751C17.375 24.7203 17.6548 25.0001 18 25.0001C18.3452 25.0001 18.625 24.7203 18.625 24.3751V22.4659C20.7138 22.2351 22.4569 20.8608 23.2164 18.9846C23.3459 18.6647 23.1915 18.3003 22.8716 18.1708C22.5516 18.0413 22.1872 18.1957 22.0577 18.5156C21.4086 20.1192 19.8374 21.2488 18.0037 21.2501Z" fill="#002211"/>
</svg>
