<svg width="16" height="16" viewBox="0 0 16 16" fill="none" xmlns="http://www.w3.org/2000/svg">
<g clip-path="url(#clip0_17_18207)">
<path d="M7.05542 0.0195312C3.1651 0.0195312 0 3.17597 0 7.0557C0 10.9354 3.16513 14.0919 7.05542 14.0919C10.9457 14.0919 14.1109 10.9354 14.1109 7.0557C14.1109 3.17597 10.9457 0.0195312 7.05542 0.0195312ZM7.05542 12.9352C3.80279 12.9352 1.15663 10.2975 1.15663 7.05567C1.15663 3.81363 3.80279 1.17613 7.05542 1.17613C10.3081 1.17613 12.9542 3.81363 12.9542 7.05567C12.9542 10.2975 10.3081 12.9352 7.05542 12.9352Z" fill="black"/>
<path d="M15.8296 14.9925L12.032 11.2141C11.8055 10.989 11.4394 10.99 11.2141 11.2163C10.9889 11.4428 10.9899 11.8088 11.2162 12.0342L15.0138 15.8125C15.1268 15.9247 15.2741 15.9808 15.4217 15.9808C15.5703 15.9808 15.7188 15.9239 15.8317 15.8104C16.0569 15.5839 16.0559 15.2178 15.8296 14.9925Z" fill="black"/>
</g>
<defs>
<clipPath id="clip0_17_18207">
<rect width="16" height="16" fill="white"/>
</clipPath>
</defs>
</svg>
