<svg width="18" height="12" viewBox="0 0 18 12" fill="none" xmlns="http://www.w3.org/2000/svg">
<path d="M11.95 9.78369C11.7861 9.78317 11.626 9.73435 11.4898 9.64332C11.3535 9.55229 11.2471 9.42309 11.1838 9.2719C11.1206 9.1207 11.1033 8.95422 11.1342 8.79327C11.1651 8.63232 11.2428 8.48406 11.3575 8.36702C11.9825 7.73894 12.3334 6.88892 12.3334 6.00285C12.3334 5.11678 11.9825 4.26677 11.3575 3.63869C11.2064 3.48071 11.1234 3.26965 11.1264 3.05103C11.1294 2.83241 11.2183 2.62374 11.3737 2.47001C11.5292 2.31628 11.7389 2.22982 11.9575 2.22926C12.1762 2.2287 12.3863 2.31409 12.5425 2.46702C13.4761 3.40698 14.0001 4.67804 14.0001 6.00285C14.0001 7.32767 13.4761 8.59872 12.5425 9.53869C12.4648 9.61662 12.3725 9.6784 12.2708 9.72045C12.1691 9.7625 12.0601 9.78399 11.95 9.78369ZM6.63585 9.54285C6.79296 9.38747 6.88192 9.17604 6.88317 8.95507C6.88443 8.7341 6.79786 8.52168 6.64251 8.36452C6.01751 7.73644 5.66664 6.88642 5.66664 6.00035C5.66664 5.11428 6.01751 4.26427 6.64251 3.63619C6.72155 3.55884 6.7844 3.46653 6.8274 3.36464C6.8704 3.26276 6.89269 3.15334 6.89297 3.04275C6.89326 2.93216 6.87152 2.82262 6.82905 2.72052C6.78657 2.61842 6.72419 2.52579 6.64555 2.44804C6.56692 2.37028 6.47359 2.30896 6.37101 2.26764C6.26843 2.22632 6.15866 2.20583 6.04808 2.20736C5.9375 2.2089 5.82834 2.23242 5.72695 2.27658C5.62555 2.32073 5.53396 2.38461 5.45751 2.46452C4.52391 3.40448 3.99996 4.67554 3.99996 6.00035C3.99996 7.32517 4.52391 8.59622 5.45751 9.53619C5.6129 9.6933 5.82433 9.78226 6.0453 9.78351C6.26627 9.78476 6.47869 9.6982 6.63585 9.54285ZM15.1933 11.5595C16.5707 10.0355 17.3333 8.05452 17.3333 6.00035C17.3333 3.94618 16.5707 1.96516 15.1933 0.441186C15.045 0.277305 14.8377 0.179047 14.617 0.168029C14.3962 0.157012 14.1801 0.234136 14.0163 0.382436C13.8524 0.530737 13.7541 0.738065 13.7431 0.95881C13.7321 1.17956 13.8092 1.39564 13.9575 1.55952C15.0575 2.77704 15.6665 4.3595 15.6665 6.00035C15.6665 7.64121 15.0575 9.22367 13.9575 10.4412C13.8092 10.6051 13.7321 10.8211 13.7431 11.0419C13.7541 11.2626 13.8524 11.47 14.0163 11.6183C14.1801 11.7666 14.3962 11.8437 14.617 11.8327C14.8377 11.8217 15.045 11.7234 15.1933 11.5595ZM3.98335 11.6179C4.14717 11.4696 4.24543 11.2624 4.25652 11.0418C4.26762 10.8211 4.19064 10.6051 4.04251 10.4412C2.94249 9.22367 2.33349 7.64121 2.33349 6.00035C2.33349 4.3595 2.94249 2.77704 4.04251 1.55952C4.11594 1.47837 4.17267 1.38356 4.20946 1.28049C4.24625 1.17742 4.26238 1.06811 4.25692 0.95881C4.25146 0.849508 4.22453 0.742351 4.17767 0.643456C4.1308 0.544562 4.06491 0.455867 3.98376 0.382436C3.90262 0.309006 3.8078 0.252276 3.70473 0.215488C3.60166 0.1787 3.49236 0.162574 3.38305 0.168029C3.16231 0.179047 2.95498 0.277305 2.80668 0.441186C1.42932 1.96516 0.666748 3.94618 0.666748 6.00035C0.666748 8.05452 1.42932 10.0355 2.80668 11.5595C2.95502 11.7232 3.16229 11.8213 3.38294 11.8323C3.60358 11.8432 3.81954 11.7661 3.98335 11.6179ZM9.00001 4.75035C8.75279 4.75035 8.51111 4.82366 8.30555 4.96102C8.09999 5.09837 7.93977 5.29359 7.84516 5.522C7.75056 5.75041 7.7258 6.00174 7.77403 6.24422C7.82226 6.48669 7.94131 6.70942 8.11613 6.88424C8.29095 7.05905 8.51367 7.1781 8.75615 7.22633C8.99863 7.27457 9.24996 7.24981 9.47837 7.1552C9.70678 7.06059 9.902 6.90038 10.0394 6.69482C10.1767 6.48925 10.25 6.24758 10.25 6.00035C10.25 5.66883 10.1183 5.35089 9.8839 5.11647C9.64948 4.88205 9.33153 4.75035 9.00001 4.75035Z" fill="black"/>
</svg>
