<svg width="20" height="21" viewBox="0 0 20 21" fill="none" xmlns="http://www.w3.org/2000/svg">
<path d="M16.875 6.75H3.125C2.62772 6.75 2.15081 6.94754 1.79917 7.29917C1.44754 7.65081 1.25 8.12772 1.25 8.625V17.375C1.25 17.8723 1.44754 18.3492 1.79917 18.7008C2.15081 19.0525 2.62772 19.25 3.125 19.25H16.875C17.3723 19.25 17.8492 19.0525 18.2008 18.7008C18.5525 18.3492 18.75 17.8723 18.75 17.375V8.625C18.75 8.12772 18.5525 7.65081 18.2008 7.29917C17.8492 6.94754 17.3723 6.75 16.875 6.75ZM17.5 17.375C17.5 17.5408 17.4342 17.6997 17.3169 17.8169C17.1997 17.9342 17.0408 18 16.875 18H3.125C2.95924 18 2.80027 17.9342 2.68306 17.8169C2.56585 17.6997 2.5 17.5408 2.5 17.375V8.625C2.5 8.45924 2.56585 8.30027 2.68306 8.18306C2.80027 8.06585 2.95924 8 3.125 8H16.875C17.0408 8 17.1997 8.06585 17.3169 8.18306C17.4342 8.30027 17.5 8.45924 17.5 8.625V17.375ZM12.7812 12.4438L7.78125 9.94375C7.68611 9.89581 7.58029 9.87298 7.47384 9.87744C7.36739 9.8819 7.26385 9.91349 7.17305 9.96923C7.08225 10.025 7.0072 10.103 6.95504 10.1959C6.90287 10.2888 6.87532 10.3935 6.875 10.5V15.5C6.87479 15.6062 6.90165 15.7107 6.95304 15.8037C7.00444 15.8966 7.07868 15.975 7.16875 16.0312C7.26821 16.0929 7.38298 16.1254 7.5 16.125C7.59784 16.1244 7.69417 16.1009 7.78125 16.0562L12.7812 13.5562C12.8836 13.5038 12.9695 13.4241 13.0295 13.326C13.0895 13.2278 13.1213 13.115 13.1213 13C13.1213 12.885 13.0895 12.7722 13.0295 12.674C12.9695 12.5759 12.8836 12.4962 12.7812 12.4438ZM8.125 14.4875V11.5125L11.1 13L8.125 14.4875ZM4.375 2.375C4.375 2.20924 4.44085 2.05027 4.55806 1.93306C4.67527 1.81585 4.83424 1.75 5 1.75H15C15.1658 1.75 15.3247 1.81585 15.4419 1.93306C15.5592 2.05027 15.625 2.20924 15.625 2.375C15.625 2.54076 15.5592 2.69973 15.4419 2.81694C15.3247 2.93415 15.1658 3 15 3H5C4.83424 3 4.67527 2.93415 4.55806 2.81694C4.44085 2.69973 4.375 2.54076 4.375 2.375ZM2.5 4.875C2.5 4.70924 2.56585 4.55027 2.68306 4.43306C2.80027 4.31585 2.95924 4.25 3.125 4.25H16.875C17.0408 4.25 17.1997 4.31585 17.3169 4.43306C17.4342 4.55027 17.5 4.70924 17.5 4.875C17.5 5.04076 17.4342 5.19973 17.3169 5.31694C17.1997 5.43415 17.0408 5.5 16.875 5.5H3.125C2.95924 5.5 2.80027 5.43415 2.68306 5.31694C2.56585 5.19973 2.5 5.04076 2.5 4.875Z" fill="black"/>
</svg>
