<svg width="17" height="18" viewBox="0 0 17 18" fill="none" xmlns="http://www.w3.org/2000/svg">
<path fill-rule="evenodd" clip-rule="evenodd" d="M15.0007 7.51878C15.109 7.99545 15.1665 8.49128 15.1665 9.00045C15.1665 12.6796 12.179 15.6671 8.49984 15.6671C4.82067 15.6671 1.83317 12.6796 1.83317 9.00045C1.83317 5.32128 4.82067 2.33378 8.49984 2.33378C9.269 2.33378 10.0073 2.46378 10.6948 2.70378C11.129 2.85545 11.604 2.62628 11.7557 2.19211C11.9073 1.75711 11.6782 1.28211 11.244 1.13045C10.384 0.830448 9.46067 0.667114 8.49984 0.667114C3.90067 0.667114 0.166504 4.40128 0.166504 9.00045C0.166504 13.5996 3.90067 17.3338 8.49984 17.3338C13.099 17.3338 16.8332 13.5996 16.8332 9.00045C16.8332 8.36461 16.7615 7.74461 16.6265 7.14878C16.524 6.70045 16.0773 6.41961 15.629 6.52128C15.1807 6.62295 14.899 7.06961 15.0007 7.51878ZM7.6665 9.48878L14.5773 2.57795C14.9023 2.25295 15.4307 2.25295 15.7557 2.57795C16.0807 2.90295 16.0807 3.43128 15.7557 3.75628L8.25567 11.2563C7.93067 11.5821 7.40234 11.5821 7.07734 11.2563L4.57734 8.75628C4.25234 8.43128 4.25234 7.90295 4.57734 7.57795C4.90234 7.25295 5.43067 7.25295 5.75567 7.57795L7.6665 9.48878Z" fill="black"/>
</svg>
