<svg width="26" height="27" viewBox="0 0 26 27" fill="none" xmlns="http://www.w3.org/2000/svg">
<rect x="0.5" y="0.745117" width="25" height="25" rx="12.5" fill="white"/>
<g clip-path="url(#clip0_17_12583)">
<path fill-rule="evenodd" clip-rule="evenodd" d="M17.8509 14.3071C17.6036 14.5544 17.1738 14.4421 17.0278 14.1243C16.999 14.0616 16.9834 13.9944 16.9834 13.9254V8.44519C16.9834 7.78244 16.4461 7.24518 15.7834 7.24518C15.1206 7.24518 14.5834 7.78244 14.5834 8.44519V11.2189C14.5834 11.4574 14.339 11.6193 14.1116 11.5475C13.9677 11.502 13.8637 11.3709 13.8637 11.22V6.76519C13.8637 6.10245 13.3265 5.56519 12.6637 5.56519C12.001 5.56519 11.4637 6.10245 11.4637 6.76519V11.2196C11.4637 11.3707 11.3596 11.5018 11.2156 11.5473C10.988 11.6192 10.7435 11.4573 10.7435 11.2186V8.44519C10.7435 7.78244 10.2063 7.24518 9.54353 7.24518C8.88079 7.24518 8.34353 7.78244 8.34353 8.44519L8.34353 13.9274C8.34353 13.9949 8.32817 14.0609 8.29992 14.1223C8.15699 14.4332 7.73693 14.5421 7.49496 14.3001L7.04854 13.8537C6.57991 13.385 5.82011 13.385 5.35147 13.8537C4.88284 14.3223 4.88284 15.0821 5.35147 15.5507L8.87926 19.0785C9.75778 20.2026 11.1262 20.9252 12.6634 20.9252C14.1367 20.9252 15.455 20.2614 16.3355 19.2166L20.0014 15.5507C20.47 15.0821 20.47 14.3223 20.0014 13.8537C19.5327 13.385 18.7729 13.385 18.3043 13.8537L17.8509 14.3071ZM12.6632 19.0052C14.7839 19.0052 16.5032 16.6052 16.5032 16.6052C16.5032 16.6052 14.7839 14.2052 12.6632 14.2052C10.5424 14.2052 8.82314 16.6052 8.82314 16.6052C8.82314 16.6052 10.5424 19.0052 12.6632 19.0052Z" fill="#222225"/>
<path d="M14.1032 16.6046C14.1032 17.3999 13.4585 18.0446 12.6631 18.0446C11.8679 18.0446 11.2231 17.3999 11.2231 16.6046C11.2231 15.8093 11.8679 15.1646 12.6631 15.1646C13.4585 15.1646 14.1032 15.8093 14.1032 16.6046Z" fill="#222225"/>
</g>
<rect x="0.5" y="0.745117" width="25" height="25" rx="12.5" stroke="#EBEEEE"/>
<defs>
<clipPath id="clip0_17_12583">
<rect x="5" y="5.24512" width="16" height="16" rx="8" fill="white"/>
</clipPath>
</defs>
</svg>
