<svg width="20" height="20" viewBox="0 0 20 20" fill="none" xmlns="http://www.w3.org/2000/svg">
<g opacity="0.5">
<path fill-rule="evenodd" clip-rule="evenodd" d="M10.5 2.00049C5.80847 2.00049 2 5.80896 2 10.5005C2 15.192 5.80847 19.0005 10.5 19.0005C15.1915 19.0005 19 15.192 19 10.5005C19 5.80896 15.1915 2.00049 10.5 2.00049ZM10.5 3.13382C14.5658 3.13382 17.8667 6.43465 17.8667 10.5005C17.8667 14.5663 14.5658 17.8672 10.5 17.8672C6.43417 17.8672 3.13333 14.5663 3.13333 10.5005C3.13333 6.43465 6.43417 3.13382 10.5 3.13382Z" fill="black"/>
<path fill-rule="evenodd" clip-rule="evenodd" d="M9.36694 6.55007V11.336C9.36694 11.591 9.53694 11.813 9.7825 11.8815L13.0267 12.7834C13.3289 12.866 13.6406 12.689 13.7256 12.3867C13.8082 12.0869 13.6311 11.7728 13.3312 11.6902L10.5003 10.9063V6.55007C10.5003 6.2384 10.2453 5.9834 9.93361 5.9834C9.62194 5.9834 9.36694 6.2384 9.36694 6.55007Z" fill="black"/>
</g>
</svg>
