<svg width="16" height="17" viewBox="0 0 16 17" fill="none" xmlns="http://www.w3.org/2000/svg">
<g clip-path="url(#clip0_580_72536)">
<path d="M0.648103 3.83283C0.648103 3.89011 0.648103 3.94738 0.648103 4.00466C0.652765 4.52614 0.624127 5.05028 0.668083 5.56843C0.830587 7.47719 2.94647 8.48351 4.54088 7.42391C4.58217 7.3966 4.62346 7.36863 4.66409 7.34066C5.79096 8.05128 6.89985 8.02597 8.00341 7.27206C8.18057 7.38328 8.33508 7.5025 8.43831 7.71428C8.79928 8.45621 9.37804 8.97968 10.1379 9.30203C10.1986 9.328 10.2592 9.35331 10.3504 9.39261C10.1639 9.45654 10.0027 9.50782 9.84424 9.56643C8.73002 9.98002 7.78164 10.6154 7.1163 11.623C6.60348 12.3996 6.36572 13.2594 6.36505 14.1865C6.36505 14.4962 6.58017 14.7239 6.87321 14.7326C7.17824 14.7419 7.41933 14.5261 7.42533 14.2118C7.43398 13.7696 7.49059 13.338 7.64444 12.9231C8.03272 11.8775 8.79662 11.1935 9.78363 10.7346C10.5962 10.357 11.4566 10.1938 12.3511 10.1991C12.4117 10.1991 12.4729 10.1991 12.5475 10.1991V8.49883C12.4903 8.49883 12.4263 8.50016 12.3624 8.49883C11.9415 8.49084 11.5152 8.51881 11.0997 8.4662C10.0054 8.32767 9.19023 7.42324 9.13961 6.31835C9.12096 5.91009 9.13628 5.49983 9.13628 5.07026C9.21021 5.07026 9.26882 5.07026 9.32809 5.07026C11.1429 5.07026 12.9571 5.07026 14.772 5.07026C15.5079 5.07026 15.9888 5.55378 15.9888 6.29237C15.9894 7.97402 15.9881 9.65501 15.9901 11.3367C15.9901 11.7096 15.9202 12.0646 15.7537 12.3983C15.3674 13.1715 15.0031 13.958 14.5815 14.712C13.9468 15.8468 12.9505 16.4682 11.6511 16.4815C8.87654 16.5088 6.10198 16.5022 3.32742 16.4855C1.53655 16.4749 0.0187321 14.9464 0.00807604 13.1548C-0.00590997 10.7965 -0.00191397 8.43823 0.00807604 6.07925C0.011406 5.30136 0.243174 4.57209 0.580837 3.87612C0.589495 3.85814 0.602815 3.84282 0.613471 3.82617C0.624127 3.82817 0.635449 3.83017 0.646105 3.83217L0.648103 3.83283Z" fill="#00FFC4"/>
<path d="M7.30027 0.843462C7.01322 1.34429 6.92265 1.87043 6.92997 2.42521C6.94063 3.21842 6.9413 4.01163 6.92997 4.80483C6.92132 5.38092 7.00124 5.93171 7.30094 6.45119C6.83807 6.78219 6.33923 6.87143 5.80177 6.71559C5.09914 6.51179 4.58965 5.87576 4.57699 5.14383C4.55968 4.14549 4.55035 3.14649 4.57833 2.14882C4.61429 0.86211 6.04553 0.0908808 7.14975 0.743561C7.19704 0.771534 7.241 0.804168 7.30094 0.844128L7.30027 0.843462Z" fill="#00FFC4"/>
<path d="M3.93062 6.53963C3.08014 7.12637 1.87401 6.58825 1.73548 5.58525C1.72283 5.49201 1.71284 5.39744 1.71284 5.30353C1.71084 4.38778 1.70751 3.47203 1.71284 2.55628C1.71817 1.69381 2.37351 1.04113 3.19469 1.07975C3.36252 1.08775 3.52769 1.1377 3.7195 1.17366C3.4511 1.77106 3.50771 2.37446 3.50438 2.9712C3.50172 3.504 3.5137 4.0368 3.50172 4.5696C3.48573 5.26091 3.52969 5.93557 3.93062 6.53963Z" fill="#00FFC4"/>
<path d="M10.8814 3.99621C9.92373 3.99621 8.97135 3.99621 8.01963 3.99621C8.01297 3.98755 8.00098 3.97889 8.00098 3.97024C8.00831 3.28825 7.97101 2.60227 8.03761 1.92628C8.10022 1.28692 8.51181 0.847359 9.10987 0.61892C9.71061 0.389816 10.2767 0.493712 10.7835 0.890649C10.8361 0.931941 10.8868 1.01452 10.8874 1.07779C10.8941 2.02685 10.8914 2.97523 10.8914 3.92428C10.8914 3.94559 10.8861 3.96624 10.8821 3.99554L10.8814 3.99621Z" fill="#00FFC4"/>
<path d="M11.9562 3.99663C11.9562 3.61767 11.9562 3.25271 11.9562 2.88707C11.9562 2.31031 11.9622 1.73356 11.9522 1.1568C11.9496 1.00895 12.0029 0.920371 12.1161 0.842449C12.6615 0.466159 13.243 0.387571 13.8463 0.668623C14.4671 0.957667 14.8107 1.46383 14.842 2.14581C14.8693 2.74322 14.8493 3.34328 14.8493 3.94202C14.8493 3.95733 14.8407 3.97265 14.8334 3.99596H11.9556L11.9562 3.99663Z" fill="#00FFC4"/>
</g>
<defs>
<clipPath id="clip0_580_72536">
<rect width="15.9907" height="16" fill="white" transform="translate(0 0.5)"/>
</clipPath>
</defs>
</svg>
