<svg width="16" height="16" viewBox="0 0 16 16" fill="none" xmlns="http://www.w3.org/2000/svg">
<g clip-path="url(#clip0_1003_13378)">
<path d="M0.648103 3.33271C0.648103 3.38999 0.648103 3.44726 0.648103 3.50454C0.652765 4.02602 0.624127 4.55016 0.668083 5.06831C0.830587 6.97707 2.94647 7.98339 4.54088 6.92379C4.58217 6.89648 4.62346 6.86851 4.66409 6.84054C5.79096 7.55116 6.89985 7.52585 8.00341 6.77194C8.18057 6.88316 8.33508 7.00237 8.43831 7.21416C8.79928 7.95609 9.37804 8.47956 10.1379 8.80191C10.1986 8.82788 10.2592 8.85319 10.3504 8.89248C10.1639 8.95642 10.0027 9.0077 9.84424 9.06631C8.73002 9.4799 7.78164 10.1153 7.1163 11.1229C6.60348 11.8995 6.36572 12.7593 6.36505 13.6864C6.36505 13.996 6.58017 14.2238 6.87321 14.2325C7.17824 14.2418 7.41933 14.026 7.42533 13.7117C7.43398 13.2694 7.49059 12.8379 7.64444 12.423C8.03272 11.3773 8.79662 10.6933 9.78363 10.2345C10.5962 9.85685 11.4566 9.69368 12.3511 9.69901C12.4117 9.69901 12.4729 9.69901 12.5475 9.69901V7.99871C12.4903 7.99871 12.4263 8.00004 12.3624 7.99871C11.9415 7.99072 11.5152 8.01869 11.0997 7.96608C10.0054 7.82755 9.19023 6.92312 9.13961 5.81822C9.12096 5.40997 9.13628 4.99971 9.13628 4.57014C9.21021 4.57014 9.26882 4.57014 9.32809 4.57014C11.1429 4.57014 12.9571 4.57014 14.772 4.57014C15.5079 4.57014 15.9888 5.05366 15.9888 5.79225C15.9894 7.4739 15.9881 9.15489 15.9901 10.8365C15.9901 11.2095 15.9202 11.5645 15.7537 11.8981C15.3674 12.6714 15.0031 13.4579 14.5815 14.2118C13.9468 15.3467 12.9505 15.9681 11.6511 15.9814C8.87654 16.0087 6.10198 16.002 3.32742 15.9854C1.53655 15.9747 0.0187321 14.4463 0.00807604 12.6547C-0.00590997 10.2964 -0.00191397 7.9381 0.00807604 5.57913C0.011406 4.80124 0.243174 4.07197 0.580837 3.376C0.589495 3.35802 0.602815 3.3427 0.613471 3.32605C0.624127 3.32805 0.635449 3.33005 0.646105 3.33204L0.648103 3.33271Z" fill="currentColor"/>
<path d="M7.30027 0.342973C7.01322 0.843806 6.92265 1.36995 6.92997 1.92472C6.94063 2.71793 6.9413 3.51114 6.92997 4.30435C6.92132 4.88044 7.00124 5.43122 7.30094 5.9507C6.83807 6.2817 6.33923 6.37095 5.80177 6.2151C5.09914 6.01131 4.58965 5.37527 4.57699 4.64334C4.55968 3.645 4.55035 2.646 4.57833 1.64833C4.61429 0.361621 6.04553 -0.409607 7.14975 0.243073C7.19704 0.271045 7.241 0.303679 7.30094 0.343639L7.30027 0.342973Z" fill="currentColor"/>
<path d="M3.93062 6.03926C3.08014 6.62601 1.87401 6.08788 1.73548 5.08488C1.72283 4.99164 1.71284 4.89707 1.71284 4.80316C1.71084 3.88741 1.70751 2.97166 1.71284 2.05591C1.71817 1.19344 2.37351 0.54076 3.19469 0.579388C3.36252 0.58738 3.52769 0.63733 3.7195 0.673294C3.4511 1.2707 3.50771 1.87409 3.50438 2.47083C3.50172 3.00363 3.5137 3.53643 3.50172 4.06923C3.48573 4.76054 3.52969 5.4352 3.93062 6.03926Z" fill="currentColor"/>
<path d="M10.8819 3.49645C9.92422 3.49645 8.97183 3.49645 8.02012 3.49645C8.01346 3.4878 8.00147 3.47914 8.00147 3.47048C8.0088 2.7885 7.9715 2.10251 8.0381 1.42652C8.10071 0.787163 8.51229 0.347603 9.11036 0.119165C9.7111 -0.10994 10.2772 -0.00604356 10.784 0.390893C10.8366 0.432185 10.8873 0.514769 10.8879 0.578039C10.8946 1.52709 10.8919 2.47547 10.8919 3.42453C10.8919 3.44584 10.8866 3.46648 10.8826 3.49579L10.8819 3.49645Z" fill="currentColor"/>
<path d="M11.9567 3.49651C11.9567 3.11755 11.9567 2.75258 11.9567 2.38695C11.9567 1.81019 11.9627 1.23344 11.9527 0.656679C11.9501 0.508827 12.0033 0.420249 12.1166 0.342327C12.662 -0.0339632 13.2434 -0.112551 13.8468 0.168501C14.4676 0.457545 14.8112 0.963706 14.8425 1.64569C14.8698 2.24309 14.8498 2.84316 14.8498 3.44189C14.8498 3.45721 14.8412 3.47253 14.8339 3.49584H11.9561L11.9567 3.49651Z" fill="currentColor"/>
</g>
<defs>
<clipPath id="clip0_1003_13378">
<rect width="15.9907" height="16" fill="white"/>
</clipPath>
</defs>
</svg>
