<svg width="16" height="16" viewBox="0 0 16 16" fill="none" xmlns="http://www.w3.org/2000/svg">
<path d="M14.9286 4.61329V4.66719C14.9286 5.30211 14.9286 5.6203 14.7844 5.88018C14.6403 6.14005 14.3777 6.29435 13.854 6.60369L13.3017 6.92854C13.682 5.5642 13.8094 4.09797 13.8561 2.84437L13.863 2.68121L13.8644 2.64282C14.3178 2.80967 14.5727 2.93444 14.7315 3.16774C14.9286 3.45788 14.9286 3.84326 14.9286 4.61329ZM1 4.61329V4.66719C1 5.30211 1 5.6203 1.14416 5.88018C1.28832 6.14005 1.55088 6.29435 2.07459 6.60369L2.62755 6.92854C2.24661 5.5642 2.11916 4.09797 2.0725 2.84437L2.06554 2.68121L2.06484 2.64282C1.61077 2.80967 1.35588 2.93444 1.19709 3.16774C1 3.45788 1 3.844 1 4.61329Z" fill="#0ED3A3"/>
<path fill-rule="evenodd" clip-rule="evenodd" d="M7.96381 0.500164C9.19495 0.500164 10.2087 0.613656 10.9844 0.751004C11.7704 0.889798 12.1631 0.959195 12.4915 1.3828C12.82 1.80641 12.8021 2.264 12.7676 3.17917C12.6489 6.32299 12.0016 10.249 8.48138 10.596V13.1506H9.46823C9.6277 13.1507 9.78222 13.2087 9.90552 13.3146C10.0288 13.4206 10.1133 13.568 10.1445 13.7318L10.2756 14.4157H12.1044C12.2417 14.4157 12.3733 14.4728 12.4704 14.5745C12.5674 14.6761 12.622 14.814 12.622 14.9578C12.622 15.1016 12.5674 15.2395 12.4704 15.3412C12.3733 15.4429 12.2417 15.5 12.1044 15.5H3.82322C3.68595 15.5 3.55431 15.4429 3.45724 15.3412C3.36018 15.2395 3.30565 15.1016 3.30565 14.9578C3.30565 14.814 3.36018 14.6761 3.45724 14.5745C3.55431 14.4728 3.68595 14.4157 3.82322 14.4157H5.65198L5.7831 13.7318C5.81436 13.568 5.89881 13.4206 6.02211 13.3146C6.1454 13.2087 6.29992 13.1507 6.4594 13.1506H7.44624V10.596C3.92674 10.249 3.27943 6.32227 3.16073 3.17917C3.12553 2.264 3.10828 1.80569 3.43677 1.3828C3.76456 0.959195 4.15723 0.889798 4.94325 0.751004C5.94171 0.579678 6.95206 0.495774 7.96381 0.500164ZM8.62078 3.53555L8.55315 3.40832C8.29092 2.91459 8.1598 2.66881 7.96381 2.66881C7.76782 2.66881 7.6367 2.91459 7.37447 3.40832L7.30684 3.53555C7.23231 3.67579 7.19504 3.74519 7.13707 3.79145C7.07842 3.83772 7.00596 3.85507 6.86103 3.88904L6.72992 3.92085C6.22062 4.04157 5.96598 4.10157 5.90525 4.30542C5.84452 4.50928 6.01842 4.72253 6.36554 5.14758L6.45526 5.25746C6.55394 5.37818 6.60363 5.43818 6.62571 5.51336C6.64779 5.58854 6.6402 5.66878 6.62571 5.82999L6.61191 5.97673C6.55946 6.54419 6.53324 6.82829 6.69127 6.95407C6.84999 7.07985 7.08877 6.96491 7.56562 6.73503L7.68846 6.67576C7.82441 6.6107 7.89204 6.57817 7.96381 6.57817C8.03558 6.57817 8.10321 6.6107 8.23916 6.67576L8.362 6.73503C8.83886 6.96563 9.07763 7.07985 9.23635 6.95407C9.39507 6.82829 9.36816 6.54419 9.31571 5.97673L9.30191 5.82999C9.28742 5.66878 9.27983 5.58854 9.30191 5.51336C9.32399 5.43818 9.37368 5.37818 9.47237 5.25746L9.56208 5.14758C9.9092 4.72253 10.0831 4.51 10.0224 4.30542C9.96165 4.10157 9.707 4.04157 9.19771 3.92085L9.06659 3.88904C8.92167 3.85507 8.84921 3.83844 8.79055 3.79145C8.73258 3.74519 8.69531 3.67579 8.62078 3.53555Z" fill="#0ED3A3"/>
</svg>
