<svg width="15" height="16" viewBox="0 0 15 16" fill="none" xmlns="http://www.w3.org/2000/svg">
<path d="M1.51916 1.328L7.49516 0L13.4712 1.328C13.6327 1.3639 13.7771 1.45379 13.8806 1.58284C13.9842 1.71189 14.0406 1.87238 14.0406 2.03782V9.30109C14.0406 10.0194 13.8632 10.7267 13.5242 11.36C13.1852 11.9933 12.6951 12.5332 12.0973 12.9316L7.49516 16L2.89298 12.9316C2.29536 12.5333 1.80531 11.9935 1.46632 11.3603C1.12733 10.7271 0.949879 10.02 0.949707 9.30182V2.03782C0.949735 1.87238 1.00617 1.71189 1.1097 1.58284C1.21323 1.45379 1.35766 1.3639 1.51916 1.328Z" fill="currentColor"/>
</svg>
