<svg width="14" height="17" viewBox="0 0 14 17" fill="none" xmlns="http://www.w3.org/2000/svg">
<path d="M0.569455 1.828L6.54545 0.5L12.5215 1.828C12.683 1.8639 12.8274 1.95379 12.9309 2.08284C13.0344 2.21189 13.0909 2.37238 13.0909 2.53782V9.80109C13.0909 10.5194 12.9135 11.2267 12.5745 11.86C12.2355 12.4933 11.7454 13.0332 11.1476 13.4316L6.54545 16.5L1.94327 13.4316C1.34565 13.0333 0.855608 12.4935 0.516617 11.8603C0.177626 11.2271 0.000171895 10.52 0 9.80182V2.53782C2.83911e-05 2.37238 0.0564639 2.21189 0.159992 2.08284C0.263521 1.95379 0.407954 1.8639 0.569455 1.828Z" fill="#00FFC4"/>
</svg>
