<svg width="24" height="24" viewBox="0 0 24 24" fill="none" xmlns="http://www.w3.org/2000/svg">
<g clip-path="url(#clip0_587_72748)">
<path d="M15.1985 9.9454C14.7648 9.53451 14.4858 8.9868 14.4085 8.3944L14.0055 5.3114L11.2755 6.7974C10.7506 7.08341 10.1432 7.17983 9.55549 7.0704L6.49949 6.5004L7.06949 9.5564C7.17892 10.1441 7.0825 10.7515 6.79649 11.2764L5.31049 14.0064L8.39349 14.4094C8.98554 14.4869 9.53286 14.7659 9.94349 15.1994L12.0815 17.4564L13.4175 14.6494C13.6739 14.11 14.1083 13.6753 14.6475 13.4184L17.4555 12.0824L15.1985 9.9454ZM15.2235 15.5084L13.0105 20.1584C12.9686 20.2463 12.906 20.3227 12.828 20.381C12.75 20.4393 12.659 20.4778 12.5628 20.493C12.4666 20.5083 12.3682 20.4999 12.2759 20.4686C12.1837 20.4373 12.1005 20.384 12.0335 20.3134L8.49149 16.5744C8.39686 16.4746 8.27083 16.4104 8.13449 16.3924L3.02749 15.7244C2.931 15.7117 2.83905 15.6757 2.75957 15.6195C2.68009 15.5634 2.61547 15.4887 2.57128 15.402C2.52709 15.3153 2.50465 15.2191 2.50591 15.1218C2.50716 15.0245 2.53207 14.9289 2.57849 14.8434L5.04049 10.3194C5.10594 10.1984 5.12782 10.0586 5.10249 9.9234L4.15949 4.8604C4.14158 4.76456 4.14729 4.66581 4.17613 4.57268C4.20498 4.47956 4.25608 4.39486 4.32501 4.32592C4.39395 4.25699 4.47865 4.20589 4.57177 4.17704C4.6649 4.1482 4.76365 4.14249 4.85949 4.1604L9.92249 5.1034C10.0577 5.12873 10.1975 5.10685 10.3185 5.0414L14.8425 2.5794C14.9281 2.53297 15.0237 2.50808 15.1211 2.50688C15.2185 2.50568 15.3147 2.5282 15.4014 2.5725C15.4882 2.61681 15.5628 2.68155 15.6189 2.76115C15.675 2.84076 15.7109 2.93282 15.7235 3.0294L16.3915 8.1354C16.4094 8.27174 16.4737 8.39777 16.5735 8.4924L20.3125 12.0344C20.3831 12.1014 20.4364 12.1846 20.4677 12.2768C20.499 12.3691 20.5074 12.4675 20.4921 12.5637C20.4769 12.6599 20.4384 12.7509 20.3801 12.8289C20.3218 12.9069 20.2454 12.9695 20.1575 13.0114L15.5075 15.2244C15.383 15.2836 15.2827 15.3839 15.2235 15.5084ZM16.0205 17.4354L17.4345 16.0214L21.6775 20.2634L20.2625 21.6784L16.0205 17.4354Z" fill="#0D0D0D"/>
</g>
<defs>
<clipPath id="clip0_587_72748">
<rect width="24" height="24" fill="white"/>
</clipPath>
</defs>
</svg>
