<svg width="17" height="16" viewBox="0 0 17 16" fill="none" xmlns="http://www.w3.org/2000/svg">
<g clip-path="url(#clip0_777_21285)">
<path d="M12.5002 12V14C12.5002 14.1769 12.4299 14.3464 12.3049 14.4714C12.1799 14.5965 12.0103 14.6667 11.8335 14.6667H5.16683C4.99002 14.6667 4.82045 14.5965 4.69543 14.4714C4.5704 14.3464 4.50016 14.1769 4.50016 14V12H2.50016C2.32335 12 2.15378 11.9298 2.02876 11.8048C1.90373 11.6798 1.8335 11.5102 1.8335 11.3334V8.00004C1.8335 4.31804 4.81816 1.33337 8.50016 1.33337C12.1822 1.33337 15.1668 4.31804 15.1668 8.00004V11.3334C15.1668 11.5102 15.0966 11.6798 14.9716 11.8048C14.8465 11.9298 14.677 12 14.5002 12H12.5002ZM5.50016 9.33337C5.63148 9.33337 5.76152 9.30751 5.88285 9.25725C6.00417 9.207 6.11441 9.13334 6.20727 9.04048C6.30013 8.94762 6.37379 8.83738 6.42404 8.71606C6.4743 8.59473 6.50016 8.4647 6.50016 8.33337C6.50016 8.20205 6.4743 8.07202 6.42404 7.95069C6.37379 7.82937 6.30013 7.71913 6.20727 7.62627C6.11441 7.53341 6.00417 7.45975 5.88285 7.40949C5.76152 7.35924 5.63148 7.33337 5.50016 7.33337C5.23495 7.33337 4.98059 7.43873 4.79306 7.62627C4.60552 7.8138 4.50016 8.06816 4.50016 8.33337C4.50016 8.59859 4.60552 8.85294 4.79306 9.04048C4.98059 9.22802 5.23495 9.33337 5.50016 9.33337ZM11.5002 9.33337C11.6315 9.33337 11.7615 9.30751 11.8828 9.25725C12.0042 9.207 12.1144 9.13334 12.2073 9.04048C12.3001 8.94762 12.3738 8.83738 12.424 8.71606C12.4743 8.59473 12.5002 8.4647 12.5002 8.33337C12.5002 8.20205 12.4743 8.07202 12.424 7.95069C12.3738 7.82937 12.3001 7.71913 12.2073 7.62627C12.1144 7.53341 12.0042 7.45975 11.8828 7.40949C11.7615 7.35924 11.6315 7.33337 11.5002 7.33337C11.2349 7.33337 10.9806 7.43873 10.7931 7.62627C10.6055 7.8138 10.5002 8.06816 10.5002 8.33337C10.5002 8.59859 10.6055 8.85294 10.7931 9.04048C10.9806 9.22802 11.2349 9.33337 11.5002 9.33337Z" fill="#58696E"/>
</g>
<defs>
<clipPath id="clip0_777_21285">
<rect width="16" height="16" fill="white" transform="translate(0.5)"/>
</clipPath>
</defs>
</svg>
