<svg width="26" height="27" viewBox="0 0 26 27" fill="none" xmlns="http://www.w3.org/2000/svg">
<rect x="0.5" y="0.745117" width="25" height="25" rx="12.5" fill="white"/>
<g clip-path="url(#clip0_17_12548)">
<path d="M13.0803 5.24512C9.73823 5.25859 7.0322 7.9643 7.01904 11.3063C7.01938 11.9756 7.12774 12.6405 7.33993 13.2753C7.41605 13.4834 7.569 13.6544 7.76733 13.7531C7.96566 13.8519 8.1943 13.871 8.40623 13.8063C8.61078 13.7276 8.77769 13.574 8.87305 13.3767C8.96841 13.1793 8.98507 12.9531 8.91965 12.7439C8.7401 12.2494 8.65995 11.7244 8.6838 11.1988C8.70914 10.3513 8.98035 9.52944 9.46441 8.8333C9.94847 8.13716 10.6245 7.59678 11.4102 7.27797C12.1958 6.95915 13.0573 6.87565 13.8896 7.03763C14.7218 7.19962 15.4891 7.6001 16.0978 8.19031C16.7066 8.78053 17.1306 9.535 17.3182 10.3619C17.5059 11.1888 17.449 12.0523 17.1546 12.8475C16.8603 13.6427 16.3411 14.3351 15.6602 14.8404C14.9794 15.3458 14.1663 15.6423 13.32 15.6938C13.32 15.6938 12.4693 15.7455 12.046 15.7974C11.8899 15.8197 11.7351 15.8504 11.5824 15.8895C11.5718 15.9 11.5576 15.9059 11.5427 15.9059C11.5279 15.9059 11.5136 15.9 11.5031 15.8895C11.4958 15.8797 11.4918 15.8678 11.4918 15.8555C11.4918 15.8433 11.4958 15.8313 11.5031 15.8215L11.635 15.103L12.434 11.5091C12.4801 11.2936 12.4388 11.0687 12.319 10.8837C12.1992 10.6987 12.0109 10.5689 11.7954 10.5227C11.5799 10.4766 11.355 10.518 11.17 10.6377C10.985 10.7575 10.8551 10.9458 10.809 11.1613C10.809 11.1613 8.90842 19.9577 8.90842 20.0379C8.85628 20.2433 8.88784 20.461 8.99615 20.643C9.10447 20.8251 9.28067 20.9568 9.48601 21.0089C9.49064 21.0103 9.49536 21.0114 9.50013 21.0122H9.54441C9.74947 21.0651 9.96716 21.0344 10.1496 20.9269C10.3321 20.8194 10.4643 20.6438 10.5173 20.4387C10.5194 20.4316 10.5211 20.4243 10.5225 20.4169C10.5212 20.4037 10.5212 20.3904 10.5225 20.3771C10.5459 20.2738 10.7856 19.1032 10.7856 19.1032C10.8742 18.6719 11.0927 18.2781 11.4118 17.9747C11.7309 17.6713 12.1352 17.4729 12.5704 17.406C12.7539 17.3778 13.525 17.3261 13.525 17.3261C16.8539 16.9956 19.283 14.0278 18.9505 10.6986C18.8039 9.23066 18.1266 7.86671 17.0458 6.86266C15.965 5.8586 14.555 5.28345 13.0803 5.24512Z" fill="black"/>
<path d="M13.4476 19.2209C13.3178 19.1939 13.1839 19.1927 13.0536 19.2174C12.9232 19.2421 12.7991 19.2922 12.6881 19.3649C12.5772 19.4376 12.4816 19.5315 12.407 19.6411C12.3323 19.7508 12.28 19.874 12.253 20.0039C12.253 20.009 12.2511 20.0142 12.2498 20.0193C12.2217 20.1485 12.2193 20.2819 12.2428 20.412C12.2664 20.5421 12.3153 20.6663 12.3868 20.7775C12.4583 20.8887 12.551 20.9847 12.6597 21.06C12.7683 21.1353 12.8907 21.1885 13.0199 21.2165C13.0202 21.2164 13.0205 21.2163 13.0209 21.2163C13.0212 21.2163 13.0215 21.2164 13.0218 21.2165H13.0497C13.305 21.2782 13.5743 21.2359 13.7984 21.099C14.0225 20.9621 14.183 20.7418 14.2447 20.4865C14.2447 20.4827 14.2466 20.4782 14.2479 20.4743V20.4188C14.2931 20.1547 14.2353 19.8833 14.0864 19.6604C13.9376 19.4376 13.709 19.2803 13.4476 19.2209Z" fill="#E6007A"/>
</g>
<rect x="0.5" y="0.745117" width="25" height="25" rx="12.5" stroke="#EBEEEE"/>
<defs>
<clipPath id="clip0_17_12548">
<rect width="16" height="16" fill="white" transform="translate(5 5.24512)"/>
</clipPath>
</defs>
</svg>
