<svg width="16" height="14" viewBox="0 0 16 14" fill="none" xmlns="http://www.w3.org/2000/svg">
<path d="M11.6923 4.69245H16V2.69245C16 1.41998 14.9648 0.384766 13.6923 0.384766H2.30769C1.03522 0.384766 0 1.41998 0 2.69245V11.3078C0 12.5803 1.03522 13.6155 2.30769 13.6155H13.6923C14.9648 13.6155 16 12.5803 16 11.3078V9.30783H11.6923C10.4198 9.30783 9.38463 8.27261 9.38463 7.00014C9.38463 5.72767 10.4198 4.69245 11.6923 4.69245Z" fill="white"/>
<path d="M11.6922 5.61523C10.9288 5.61523 10.3076 6.23636 10.3076 6.99986C10.3076 7.76336 10.9287 8.38448 11.6922 8.38448H15.9999V5.61527H11.6922V5.61523ZM12.3076 7.46139H11.6922C11.4373 7.46139 11.2307 7.25473 11.2307 6.99986C11.2307 6.74498 11.4374 6.53833 11.6922 6.53833H12.3076C12.5625 6.53833 12.7691 6.74498 12.7691 6.99986C12.7691 7.25473 12.5625 7.46139 12.3076 7.46139Z" fill="white"/>
</svg>
