<svg width="42" height="58" viewBox="0 0 42 58" fill="none" xmlns="http://www.w3.org/2000/svg">
    <path
        d="M1.00008 22.1568L1.00008 51.5C1.00008 53.7091 2.79094 55.5 5.00008 55.5L36.7568 55.5C38.9659 55.5 40.7568 53.7091 40.7568 51.5L40.7568 22.1425C40.7568 21.0901 40.3421 20.0802 39.6025 19.3315L23.8284 3.36314C22.2692 1.78471 19.7232 1.77692 18.1543 3.34578L2.17165 19.3284C1.42151 20.0786 1.00008 21.096 1.00008 22.1568Z"
        fill="#E1E1E1" stroke="#CFCFCF" />
    <path
        d="M14.1727 34.7614C14.2199 34.6472 14.3 34.5496 14.4028 34.4809C14.5056 34.4122 14.6264 34.3755 14.75 34.3755H27.25C27.3737 34.3754 27.4946 34.412 27.5975 34.4807C27.7004 34.5493 27.7805 34.647 27.8279 34.7612C27.8752 34.8755 27.8876 35.0012 27.8635 35.1226C27.8393 35.2439 27.7797 35.3553 27.6922 35.4427L21.4422 41.6927C21.3841 41.7508 21.3152 41.7969 21.2393 41.8283C21.1635 41.8598 21.0821 41.876 21 41.876C20.9179 41.876 20.8365 41.8598 20.7607 41.8283C20.6848 41.7969 20.6159 41.7508 20.5578 41.6927L14.3078 35.4427C14.2204 35.3552 14.1609 35.2438 14.1369 35.1225C14.1128 35.0013 14.1253 34.8756 14.1727 34.7614Z"
        fill="black" fill-opacity="0.6" />
</svg>
    