<svg width="57" height="41" viewBox="0 0 57 41" fill="none" xmlns="http://www.w3.org/2000/svg">
    <path
        d="M21.6568 40.4998L51 40.4998C53.2091 40.4998 55 38.709 55 36.4999L55 4.74229C55 2.53311 53.2091 0.742233 50.9999 0.74229L21.6425 0.743043C20.5901 0.74307 19.5802 1.15781 18.8315 1.89736L2.86313 17.6715C1.2847 19.2308 1.27691 21.7768 2.84577 23.3456L18.8284 39.3283C19.5786 40.0784 20.596 40.4998 21.6568 40.4998Z"
        fill="#E1E1E1" stroke="#CFCFCF" />
    <path
        d="M34.2609 27.3269C34.1467 27.2796 34.0491 27.1995 33.9804 27.0967C33.9117 26.994 33.875 26.8731 33.875 26.7495V14.2495C33.8749 14.1258 33.9115 14.0049 33.9802 13.902C34.0488 13.7992 34.1465 13.719 34.2608 13.6716C34.375 13.6243 34.5008 13.6119 34.6221 13.6361C34.7434 13.6602 34.8548 13.7198 34.9422 13.8073L41.1922 20.0573C41.2503 20.1154 41.2964 20.1843 41.3278 20.2602C41.3593 20.3361 41.3755 20.4174 41.3755 20.4995C41.3755 20.5817 41.3593 20.663 41.3278 20.7389C41.2964 20.8147 41.2503 20.8837 41.1922 20.9417L34.9422 27.1917C34.8547 27.2791 34.7433 27.3386 34.6221 27.3626C34.5008 27.3867 34.3751 27.3742 34.2609 27.3269Z"
        fill="black" fill-opacity="0.6" />
</svg>
