<svg width="42" height="58" viewBox="0 0 42 58" fill="none" xmlns="http://www.w3.org/2000/svg">
    <path
        d="M40.9999 35.8432V6.5C40.9999 4.29086 39.2091 2.5 36.9999 2.5H5.24323C3.0341 2.5 1.24324 4.29085 1.24323 6.49999L1.24317 35.8575C1.24316 36.9099 1.6579 37.9198 2.39749 38.6685L18.1716 54.6369C19.7308 56.2153 22.2768 56.2231 23.8457 54.6542L39.8283 38.6716C40.5785 37.9214 40.9999 36.904 40.9999 35.8432Z"
        fill="#E1E1E1" stroke="#CFCFCF" />
    <path
        d="M27.8273 23.2386C27.7801 23.3528 27.7 23.4504 27.5972 23.5191C27.4944 23.5878 27.3736 23.6245 27.25 23.6245H14.75C14.6263 23.6246 14.5054 23.588 14.4025 23.5193C14.2996 23.4507 14.2195 23.353 14.1721 23.2388C14.1248 23.1245 14.1124 22.9988 14.1365 22.8774C14.1607 22.7561 14.2203 22.6447 14.3078 22.5573L20.5578 16.3073C20.6159 16.2492 20.6848 16.2031 20.7607 16.1717C20.8365 16.1402 20.9179 16.124 21 16.124C21.0821 16.124 21.1635 16.1402 21.2393 16.1717C21.3152 16.2031 21.3841 16.2492 21.4422 16.3073L27.6922 22.5573C27.7796 22.6448 27.8391 22.7562 27.8631 22.8775C27.8872 22.9987 27.8747 23.1244 27.8273 23.2386Z"
        fill="black" fill-opacity="0.6" />
</svg>
    