<svg width="57" height="41" viewBox="0 0 57 41" fill="none" xmlns="http://www.w3.org/2000/svg">
    <path
        d="M35.3431 0.500079L6 0.50008C3.79086 0.50008 2 2.29094 2 4.50008L2 36.2568C2 38.466 3.79086 40.2568 6 40.2568L35.3575 40.2568C36.4098 40.2568 37.4198 39.8421 38.1685 39.1025L54.1368 23.3284C55.7153 21.7692 55.7231 19.2231 54.1542 17.6543L38.1716 1.67165C37.4214 0.921507 36.404 0.500079 35.3431 0.500079Z"
        fill="#E1E1E1" stroke="#CFCFCF" />
    <path
        d="M22.7391 13.6731C22.8533 13.7204 22.9509 13.8005 23.0196 13.9033C23.0883 14.006 23.125 14.1269 23.125 14.2505V26.7505C23.1251 26.8742 23.0885 26.9951 23.0198 27.098C22.9512 27.2008 22.8535 27.281 22.7392 27.3284C22.625 27.3757 22.4992 27.3881 22.3779 27.3639C22.2566 27.3398 22.1452 27.2802 22.0578 27.1927L15.8078 20.9427C15.7497 20.8846 15.7036 20.8157 15.6722 20.7398C15.6407 20.6639 15.6245 20.5826 15.6245 20.5005C15.6245 20.4183 15.6407 20.337 15.6722 20.2611C15.7036 20.1853 15.7497 20.1163 15.8078 20.0583L22.0578 13.8083C22.1453 13.7209 22.2567 13.6614 22.3779 13.6374C22.4992 13.6133 22.6249 13.6258 22.7391 13.6731Z"
        fill="black" fill-opacity="0.6" />
</svg>
    