<svg width="13" height="16" viewBox="0 0 13 16" fill="none" xmlns="http://www.w3.org/2000/svg">
<path d="M2 7.333L12.223 0.518C12.2983 0.467895 12.3858 0.439151 12.4761 0.434829C12.5664 0.430508 12.6563 0.45077 12.736 0.493459C12.8157 0.536148 12.8824 0.599664 12.9289 0.677243C12.9754 0.754822 13 0.843558 13 0.934V15.066C13 15.1564 12.9754 15.2452 12.9289 15.3228C12.8824 15.4003 12.8157 15.4639 12.736 15.5065C12.6563 15.5492 12.5664 15.5695 12.4761 15.5652C12.3858 15.5608 12.2983 15.5321 12.223 15.482L2 8.667V15C2 15.2652 1.89464 15.5196 1.70711 15.7071C1.51957 15.8946 1.26522 16 1 16C0.734784 16 0.48043 15.8946 0.292893 15.7071C0.105357 15.5196 0 15.2652 0 15V1C0 0.734784 0.105357 0.48043 0.292893 0.292893C0.48043 0.105357 0.734784 0 1 0C1.26522 0 1.51957 0.105357 1.70711 0.292893C1.89464 0.48043 2 0.734784 2 1V7.333ZM11 12.263V3.737L4.606 8L11 12.263Z" fill="#9C9BA1"/>
</svg>
