<svg width="14" height="20" viewBox="0 0 14 20" fill="none" xmlns="http://www.w3.org/2000/svg">
<path d="M9.91837 16.3141C9.36707 17.6327 8.31864 18.6812 7.00004 19.2325C5.68144 18.6812 4.63301 17.6327 4.08171 16.3141H5.96504C6.23671 16.7216 6.58754 17.0741 7.00004 17.35C7.41254 17.075 7.76337 16.7216 8.03587 16.3141H9.91837ZM12 11.985L13.6667 13.875V15.4808H0.333374V13.875L2.00004 11.985V7.14746C2.00004 4.24496 4.08671 1.77495 7.00004 0.859955C9.91337 1.77495 12 4.24496 12 7.14746V11.985ZM11.3917 13.8141L10.3334 12.6141V7.14746C10.3334 5.21579 9.02504 3.45579 7.00004 2.63079C4.97504 3.45579 3.66671 5.21496 3.66671 7.14746V12.6141L2.60837 13.8141H11.3917ZM7.00004 8.81412C6.55801 8.81412 6.13409 8.63853 5.82153 8.32597C5.50897 8.01341 5.33337 7.58948 5.33337 7.14746C5.33337 6.70543 5.50897 6.2815 5.82153 5.96894C6.13409 5.65638 6.55801 5.48079 7.00004 5.48079C7.44207 5.48079 7.86599 5.65638 8.17855 5.96894C8.49111 6.2815 8.66671 6.70543 8.66671 7.14746C8.66671 7.58948 8.49111 8.01341 8.17855 8.32597C7.86599 8.63853 7.44207 8.81412 7.00004 8.81412Z" fill="#2BD071"/>
</svg>
