<svg width="32" height="32" viewBox="0 0 32 32" fill="none" xmlns="http://www.w3.org/2000/svg">
<path d="M16 4.13334L9.4 10.7333C8.09481 12.0387 7.20599 13.7017 6.84594 15.5122C6.48589 17.3226 6.67077 19.1992 7.37722 20.9046C8.08367 22.61 9.27994 24.0676 10.8148 25.0931C12.3496 26.1186 14.1541 26.666 16 26.666C17.8459 26.666 19.6504 26.1186 21.1852 25.0931C22.7201 24.0676 23.9163 22.61 24.6228 20.9046C25.3292 19.1992 25.5141 17.3226 25.1541 15.5122C24.794 13.7017 23.9052 12.0387 22.6 10.7333L16 4.13334ZM16 0.362671L24.4853 8.848C26.1636 10.5262 27.3064 12.6644 27.7694 14.9922C28.2324 17.32 27.9948 19.7328 27.0865 21.9255C26.1783 24.1182 24.6402 25.9923 22.6668 27.3109C20.6934 28.6294 18.3734 29.3332 16 29.3332C13.6266 29.3332 11.3066 28.6294 9.33318 27.3109C7.35979 25.9923 5.82172 24.1182 4.91346 21.9255C4.00521 19.7328 3.76756 17.32 4.23057 14.9922C4.69358 12.6644 5.83646 10.5262 7.51467 8.848L16 0.362671ZM17.3333 14.6667H20.6667L14.6667 23.3333V17.3333H11.3333L17.3333 8.66667V14.6667Z" fill="white"/>
</svg>
