<svg width="32" height="32" viewBox="0 0 32 32" fill="none" xmlns="http://www.w3.org/2000/svg">
<path d="M22.6667 24V21.3333H23.3334C24.1028 21.3332 24.8602 21.1429 25.5382 20.7793C26.2163 20.4156 26.7939 19.89 27.2197 19.2492C27.6454 18.6084 27.9062 17.8722 27.9786 17.1062C28.0511 16.3403 27.9331 15.5683 27.635 14.8589C27.337 14.1496 26.8682 13.525 26.2704 13.0407C25.6726 12.5563 24.9643 12.2273 24.2086 12.0829C23.4529 11.9385 22.6732 11.9832 21.9389 12.213C21.2047 12.4428 20.5386 12.8505 20 13.4V13.3333C19.9995 11.8668 19.5959 10.4286 18.8333 9.17596C18.0706 7.92332 16.9783 6.90442 15.6757 6.2306C14.3732 5.55678 12.9104 5.25398 11.4474 5.35529C9.98438 5.45659 8.57735 5.95811 7.38008 6.80503C6.18281 7.65195 5.24138 8.81168 4.65867 10.1575C4.07596 11.5033 3.8744 12.9834 4.07601 14.436C4.27762 15.8886 4.87464 17.2578 5.80184 18.3941C6.72903 19.5303 7.95072 20.3898 9.33338 20.8786V23.664C7.565 23.2064 5.94375 22.3023 4.62498 21.0384C3.30621 19.7745 2.33411 18.1932 1.80181 16.4458C1.26952 14.6984 1.19487 12.8437 1.58501 11.0592C1.97515 9.27471 2.81702 7.62032 4.02995 6.25452C5.24287 4.88873 6.78622 3.8573 8.51211 3.25906C10.238 2.66083 12.0886 2.51582 13.8866 2.83795C15.6846 3.16008 17.3698 3.93854 18.7806 5.09875C20.1915 6.25896 21.2807 7.76204 21.944 9.46398C22.9468 9.27212 23.9785 9.29175 24.9732 9.5216C25.9679 9.75145 26.9037 10.1865 27.7206 10.7988C28.5375 11.4111 29.2175 12.1873 29.7172 13.0775C30.2168 13.9678 30.5251 14.9526 30.6222 15.9689C30.7194 16.9852 30.6032 18.0106 30.2813 18.9794C29.9593 19.9482 29.4386 20.8391 28.7525 21.5951C28.0664 22.3511 27.2299 22.9555 26.2968 23.3696C25.3636 23.7837 24.3543 23.9984 23.3334 24L22.6667 24.0013V24ZM17.3334 21.34H21.3334L14.6667 30.0066V24.0066H10.6667L17.3334 15.3333V21.34Z" fill="white"/>
</svg>
