<svg width="20" height="20" viewBox="0 0 20 20" fill="none" xmlns="http://www.w3.org/2000/svg">
<g clip-path="url(#clip0_515_5457)">
<path d="M10 11.6667V13.3334C8.67396 13.3334 7.40219 13.8602 6.46451 14.7978C5.52683 15.7355 5.00004 17.0073 5.00004 18.3334H3.33337C3.33337 16.5653 4.03575 14.8696 5.286 13.6193C6.53624 12.3691 8.23193 11.6667 10 11.6667ZM10 10.8334C7.23754 10.8334 5.00004 8.59587 5.00004 5.83337C5.00004 3.07087 7.23754 0.833374 10 0.833374C12.7625 0.833374 15 3.07087 15 5.83337C15 8.59587 12.7625 10.8334 10 10.8334ZM10 9.16671C11.8417 9.16671 13.3334 7.67504 13.3334 5.83337C13.3334 3.99171 11.8417 2.50004 10 2.50004C8.15837 2.50004 6.66671 3.99171 6.66671 5.83337C6.66671 7.67504 8.15837 9.16671 10 9.16671ZM17.5 14.1667H18.3334V18.3334H11.6667V14.1667H12.5V13.3334C12.5 12.6703 12.7634 12.0344 13.2323 11.5656C13.7011 11.0968 14.337 10.8334 15 10.8334C15.6631 10.8334 16.299 11.0968 16.7678 11.5656C17.2366 12.0344 17.5 12.6703 17.5 13.3334V14.1667ZM15.8334 14.1667V13.3334C15.8334 13.1124 15.7456 12.9004 15.5893 12.7441C15.433 12.5878 15.2211 12.5 15 12.5C14.779 12.5 14.5671 12.5878 14.4108 12.7441C14.2545 12.9004 14.1667 13.1124 14.1667 13.3334V14.1667H15.8334Z" fill="#0D0D0D"/>
</g>
<defs>
<clipPath id="clip0_515_5457">
<rect width="20" height="20" fill="white"/>
</clipPath>
</defs>
</svg>
