<svg width="56" height="55" viewBox="0 0 56 55" fill="none" xmlns="http://www.w3.org/2000/svg">
<circle cx="28" cy="27.5" r="27.5" fill="#3E3B48"/>
<circle cx="27.9999" cy="27.4999" r="24.1444" fill="url(#paint0_linear_35_24752)"/>
<path d="M18.5406 23.6665H19.9456L22.4906 30.6665H21.1956L20.7456 29.4265H17.7456L17.2956 30.6665H16.0006L18.5406 23.6665ZM18.1906 28.2065H20.2956L19.2406 25.3215L18.1906 28.2065ZM23.3295 30.6665V23.1665H24.5495V30.6665H23.3295ZM25.7514 30.6665V23.1665H26.9714V30.6665H25.7514ZM30.7256 30.6665V23.6665H31.9456V30.6665H30.7256ZM33.3002 30.6665V23.6665H34.6202L37.5752 28.4615V23.6665H38.7952V30.6665H37.4802L34.5202 25.8715V30.6665H33.3002Z" fill="#7E5300"/>
<defs>
<linearGradient id="paint0_linear_35_24752" x1="27.9999" y1="3.35547" x2="27.9999" y2="51.6444" gradientUnits="userSpaceOnUse">
<stop stop-color="#EDB258"/>
<stop offset="1" stop-color="#E69D2B"/>
</linearGradient>
</defs>
</svg>
