<svg width="55" height="55" viewBox="0 0 55 55" fill="none" xmlns="http://www.w3.org/2000/svg">
<circle cx="27.5" cy="27.5" r="27.5" fill="#3E3B48"/>
<circle cx="27.4999" cy="27.4999" r="23.6444" fill="url(#paint0_radial_35_24712)" stroke="url(#paint1_linear_35_24712)"/>
<path d="M18.6525 30.7965C18.1792 30.7965 17.7342 30.7032 17.3175 30.5165C16.9008 30.3265 16.5342 30.0648 16.2175 29.7315C15.9042 29.3982 15.6575 29.0132 15.4775 28.5765C15.3008 28.1365 15.2125 27.6665 15.2125 27.1665C15.2125 26.6632 15.3008 26.1932 15.4775 25.7565C15.6575 25.3165 15.9042 24.9315 16.2175 24.6015C16.5342 24.2682 16.9008 24.0082 17.3175 23.8215C17.7342 23.6315 18.1792 23.5365 18.6525 23.5365C19.2192 23.5365 19.7408 23.6682 20.2175 23.9315C20.6942 24.1915 21.0892 24.5398 21.4025 24.9765L20.3125 25.5615C20.1158 25.3182 19.8708 25.1232 19.5775 24.9765C19.2875 24.8298 18.9792 24.7565 18.6525 24.7565C18.3458 24.7565 18.0575 24.8198 17.7875 24.9465C17.5175 25.0698 17.2808 25.2432 17.0775 25.4665C16.8742 25.6865 16.7158 25.9432 16.6025 26.2365C16.4892 26.5265 16.4325 26.8365 16.4325 27.1665C16.4325 27.4998 16.4892 27.8115 16.6025 28.1015C16.7192 28.3915 16.8792 28.6482 17.0825 28.8715C17.2858 29.0915 17.5208 29.2648 17.7875 29.3915C18.0575 29.5148 18.3458 29.5765 18.6525 29.5765C18.9858 29.5765 19.2958 29.5032 19.5825 29.3565C19.8725 29.2065 20.1158 29.0098 20.3125 28.7665L21.4025 29.3565C21.0892 29.7898 20.6942 30.1382 20.2175 30.4015C19.7408 30.6648 19.2192 30.7965 18.6525 30.7965ZM24.5298 23.6665H25.9348L28.4798 30.6665H27.1848L26.7348 29.4265H23.7348L23.2848 30.6665H21.9898L24.5298 23.6665ZM24.1798 28.2065H26.2848L25.2298 25.3215L24.1798 28.2065ZM29.3188 30.6665V23.6665H30.5388V29.4465H33.4538V30.6665H29.3188ZM34.5531 30.6665V23.6665H35.7731V29.4465H38.6881V30.6665H34.5531Z" fill="#26450C"/>
<defs>
<radialGradient id="paint0_radial_35_24712" cx="0" cy="0" r="1" gradientUnits="userSpaceOnUse" gradientTransform="translate(27.4999 49.8777) rotate(-90) scale(22.3778)">
<stop stop-color="#7DE938"/>
<stop offset="1" stop-color="#498416"/>
</radialGradient>
<linearGradient id="paint1_linear_35_24712" x1="27.4999" y1="3.35547" x2="27.4999" y2="51.6444" gradientUnits="userSpaceOnUse">
<stop stop-color="#B9FF74"/>
<stop offset="1" stop-color="#458016"/>
</linearGradient>
</defs>
</svg>
