<svg width="55" height="55" viewBox="0 0 55 55" fill="none" xmlns="http://www.w3.org/2000/svg">
<path d="M27.5 55C42.6878 55 55 42.6878 55 27.5C55 12.3122 42.6878 0 27.5 0C12.3122 0 0 12.3122 0 27.5C0 42.6878 12.3122 55 27.5 55Z" fill="url(#paint0_linear_35_24711)"/>
<mask id="mask0_35_24711" style="mask-type:luminance" maskUnits="userSpaceOnUse" x="1" y="0" width="53" height="55">
<path d="M20.4519 1.47315C20.4519 1.18633 20.4519 0.899516 20.7399 0.899516C25.0607 -0.247755 29.6696 -0.247755 33.9904 0.899516C34.2784 0.899516 34.2784 1.18633 34.2784 1.47315L33.4143 4.91497C33.4143 5.20179 33.1262 5.20179 32.8382 5.20179C29.0935 4.34133 25.3488 4.34133 21.8921 5.20179C21.6041 5.20179 21.316 5.20179 21.316 4.91497L20.4519 1.47315ZM1.44033 20.4031L4.89697 21.2636C5.18502 21.2636 5.47308 21.2636 5.47308 20.9768C6.33724 17.535 8.06556 14.38 10.9461 11.5118C11.2341 11.225 11.2341 10.9381 10.9461 10.9381L8.35361 8.35678C8.06556 8.06997 7.77751 8.06997 7.77751 8.35678C4.60892 11.7986 2.30449 15.5272 1.15227 19.8295C0.864221 20.1163 1.15227 20.4031 1.44033 20.4031ZM49.5453 20.9768C49.5453 21.2636 49.8333 21.2636 50.1214 21.2636L53.578 20.4031C53.8661 20.4031 53.8661 20.1163 53.8661 19.8295C52.7139 15.5272 50.4094 11.7986 47.2408 8.35678C46.9528 8.06997 46.6647 8.06997 46.6647 8.35678L44.0723 10.9381C43.7842 11.225 43.7842 11.5118 44.0723 11.5118C46.6647 14.38 48.3931 17.535 49.5453 20.9768ZM33.4143 49.9454C33.4143 49.6586 33.1262 49.6586 32.8382 49.6586C29.0935 50.519 25.3488 50.519 21.8921 49.6586C21.6041 49.6586 21.316 49.6586 21.316 49.9454L20.4519 53.3872C20.4519 53.674 20.4519 53.9608 20.7399 53.9608C25.0607 55.1081 29.6696 55.1081 33.9904 53.9608C34.2784 53.9608 34.2784 53.674 34.2784 53.3872L33.4143 49.9454ZM53.578 34.1704L50.1214 33.3099C49.8333 33.3099 49.6528 33.3026 49.5453 33.5968C48.6811 37.0386 46.6647 40.1936 44.0723 43.0618C43.7842 43.3486 43.7963 43.3944 44.0723 43.6354L46.6647 46.2168C46.9528 46.5036 47.1065 46.3627 47.2408 46.2168C50.4094 42.7749 52.7139 39.0463 53.8661 34.744C53.8661 34.744 53.9815 34.3118 53.578 34.1704ZM5.47308 33.5968C5.47308 33.3099 5.18502 33.3099 4.89697 33.3099L1.44033 34.1704C1.15227 34.1704 1.15227 34.4572 1.15227 34.744C2.30449 39.0463 4.60892 42.7749 7.77751 46.2168C8.06556 46.5036 8.35361 46.5036 8.35361 46.2168L10.9461 43.6354C11.2341 43.3486 11.2341 43.0618 10.9461 43.0618C8.06556 40.4804 6.33724 37.3254 5.47308 33.5968Z" fill="white"/>
</mask>
<g mask="url(#mask0_35_24711)">
<path d="M7.77739 8.3568C18.1473 -2.54228 35.4305 -2.8291 46.3766 7.78316C57.3226 18.1086 57.6107 35.6045 47.2407 46.5036C36.8708 57.4027 19.2995 57.6895 8.35349 47.364C-2.59254 36.465 -2.88059 19.2559 7.77739 8.3568Z" fill="url(#paint1_linear_35_24711)"/>
</g>
<path d="M27.365 48.7986C39.2966 48.7986 48.969 39.1676 48.969 27.2872C48.969 15.4068 39.2966 5.77588 27.365 5.77588C15.4334 5.77588 5.76099 15.4068 5.76099 27.2872C5.76099 39.1676 15.4334 48.7986 27.365 48.7986Z" fill="url(#paint2_linear_35_24711)"/>
<path d="M47.5287 27.2867C47.5287 38.4726 38.599 47.364 27.3649 47.364C16.1308 47.364 7.20117 38.4726 7.20117 27.2867C7.20117 16.1008 16.1308 7.20947 27.3649 7.20947C38.599 7.20947 47.5287 16.1008 47.5287 27.2867Z" fill="url(#paint3_linear_35_24711)"/>
<path d="M24.2997 32.072C23.7237 32.072 23.2317 31.972 22.8237 31.772C22.4237 31.572 22.1197 31.312 21.9117 30.992C21.7037 30.664 21.5997 30.316 21.5997 29.948C21.5997 29.716 21.6557 29.56 21.7677 29.48C21.8797 29.4 22.0317 29.36 22.2237 29.36C22.4877 29.36 22.6597 29.408 22.7397 29.504C22.8277 29.6 22.8717 29.72 22.8717 29.864C22.8717 30.088 22.9317 30.284 23.0517 30.452C23.1797 30.612 23.3517 30.736 23.5677 30.824C23.7837 30.904 24.0197 30.944 24.2757 30.944C24.7237 30.944 25.0757 30.824 25.3317 30.584C25.5877 30.336 25.7157 29.952 25.7157 29.432V29.204C25.7157 28.692 25.5877 28.312 25.3317 28.064C25.0757 27.816 24.7277 27.692 24.2877 27.692H22.5597C22.3437 27.692 22.1957 27.648 22.1157 27.56C22.0437 27.464 22.0077 27.344 22.0077 27.2C22.0077 27.144 22.0077 27.096 22.0077 27.056C22.0157 27.008 22.0237 26.96 22.0317 26.912L22.3077 23.648C22.3237 23.52 22.3517 23.42 22.3917 23.348C22.4397 23.268 22.5077 23.228 22.5957 23.228H26.1597C26.2957 23.228 26.3957 23.288 26.4597 23.408C26.5237 23.52 26.5557 23.648 26.5557 23.792C26.5557 23.936 26.5237 24.068 26.4597 24.188C26.3957 24.3 26.2957 24.356 26.1597 24.356H23.3877L23.2197 26.684H24.2877C24.7997 26.684 25.2557 26.764 25.6557 26.924C26.0637 27.084 26.3877 27.352 26.6277 27.728C26.8677 28.096 26.9877 28.588 26.9877 29.204V29.432C26.9877 30.072 26.8637 30.588 26.6157 30.98C26.3757 31.364 26.0517 31.644 25.6437 31.82C25.2437 31.988 24.7957 32.072 24.2997 32.072ZM28.2971 32.036C28.1851 32.036 28.0651 32.008 27.9371 31.952C27.8091 31.896 27.7011 31.82 27.6131 31.724C27.5251 31.628 27.4811 31.524 27.4811 31.412C27.4811 31.332 27.5091 31.248 27.5651 31.16L29.6291 27.608L27.6251 24.08C27.5611 23.968 27.5291 23.864 27.5291 23.768C27.5291 23.656 27.5691 23.556 27.6491 23.468C27.7291 23.38 27.8291 23.312 27.9491 23.264C28.0771 23.216 28.2011 23.192 28.3211 23.192C28.4411 23.192 28.5371 23.228 28.6091 23.3C28.6891 23.364 28.7531 23.448 28.8011 23.552L30.4691 26.624L32.1371 23.552C32.1931 23.448 32.2611 23.364 32.3411 23.3C32.4211 23.228 32.5131 23.192 32.6171 23.192C32.7371 23.192 32.8571 23.216 32.9771 23.264C33.1051 23.312 33.2091 23.38 33.2891 23.468C33.3771 23.556 33.4211 23.656 33.4211 23.768C33.4211 23.864 33.3891 23.968 33.3251 24.08L31.3091 27.608L33.3851 31.16C33.4331 31.248 33.4571 31.332 33.4571 31.412C33.4571 31.524 33.4131 31.628 33.3251 31.724C33.2371 31.82 33.1291 31.896 33.0011 31.952C32.8811 32.008 32.7611 32.036 32.6411 32.036C32.5531 32.036 32.4731 32.008 32.4011 31.952C32.3291 31.888 32.2731 31.82 32.2331 31.748L30.4691 28.556L28.7051 31.748C28.6651 31.82 28.6091 31.888 28.5371 31.952C28.4731 32.008 28.3931 32.036 28.2971 32.036Z" fill="white"/>
<defs>
<linearGradient id="paint0_linear_35_24711" x1="27.5657" y1="0.0601601" x2="27.5657" y2="55.3016" gradientUnits="userSpaceOnUse">
<stop stop-color="#5A586B"/>
<stop offset="1" stop-color="#1F1E2B"/>
</linearGradient>
<linearGradient id="paint1_linear_35_24711" x1="27.3843" y1="0" x2="27.3843" y2="54.8988" gradientUnits="userSpaceOnUse">
<stop stop-color="#1E1E29"/>
<stop offset="1" stop-color="#0F0F15"/>
</linearGradient>
<linearGradient id="paint2_linear_35_24711" x1="27.365" y1="5.77588" x2="27.365" y2="48.7986" gradientUnits="userSpaceOnUse">
<stop stop-color="#1E1E29"/>
<stop offset="1" stop-color="#0F0F15"/>
</linearGradient>
<linearGradient id="paint3_linear_35_24711" x1="27.4131" y1="7.25339" x2="27.4131" y2="47.5842" gradientUnits="userSpaceOnUse">
<stop stop-color="#2B2934"/>
<stop offset="1" stop-color="#141318"/>
</linearGradient>
</defs>
</svg>
