<svg width="55" height="55" viewBox="0 0 55 55" fill="none" xmlns="http://www.w3.org/2000/svg">
<path d="M27.5 55C42.6878 55 55 42.6878 55 27.5C55 12.3122 42.6878 0 27.5 0C12.3122 0 0 12.3122 0 27.5C0 42.6878 12.3122 55 27.5 55Z" fill="url(#paint0_linear_35_24710)"/>
<mask id="mask0_35_24710" style="mask-type:luminance" maskUnits="userSpaceOnUse" x="0" y="0" width="55" height="55">
<path d="M20.2095 1.43979C20.2095 1.15183 20.2095 0.863874 20.5093 0.863874C25.006 -0.287958 29.8025 -0.287958 34.2992 0.863874C34.599 0.863874 34.599 1.15183 34.599 1.43979L33.6996 4.89529C33.6996 5.18325 33.3999 5.18325 33.1001 5.18325C29.2029 4.31937 25.3058 4.31937 21.7084 5.18325C21.4086 5.18325 21.1088 5.18325 21.1088 4.89529L20.2095 1.43979ZM0.423954 20.445L4.02133 21.3089C4.32111 21.3089 4.62089 21.3089 4.62089 21.0209C5.52023 17.5654 7.31892 14.3979 10.3167 11.5183C10.6165 11.2304 10.6165 10.9424 10.3167 10.9424L7.6187 8.35079C7.31892 8.06283 7.01913 8.06283 7.01913 8.35079C3.72154 11.8063 1.3233 15.5497 0.124173 19.8691C-0.175608 20.1571 0.124173 20.445 0.423954 20.445ZM50.4874 21.0209C50.4874 21.3089 50.7872 21.3089 51.0869 21.3089L54.6843 20.445C54.9841 20.445 54.9841 20.1571 54.9841 19.8691C53.785 15.5497 51.3867 11.8063 48.0891 8.35079C47.7893 8.06283 47.4896 8.06283 47.4896 8.35079L44.7915 10.9424C44.4918 11.2304 44.4918 11.5183 44.7915 11.5183C47.4896 14.3979 49.2883 17.5654 50.4874 21.0209ZM33.6996 50.1047C33.6996 49.8168 33.3999 49.8167 33.1001 49.8167C29.2029 50.6806 25.3058 50.6806 21.7084 49.8167C21.4086 49.8167 21.1088 49.8168 21.1088 50.1047L20.2095 53.5602C20.2095 53.8482 20.2095 54.1361 20.5093 54.1361C25.006 55.288 29.8025 55.288 34.2992 54.1361C34.599 54.1361 34.599 53.8482 34.599 53.5602L33.6996 50.1047ZM54.6843 34.267L51.0869 33.4031C50.7872 33.4031 50.5993 33.3958 50.4874 33.6911C49.588 37.1466 47.4896 40.3141 44.7915 43.1937C44.4918 43.4817 44.5044 43.5277 44.7915 43.7696L47.4896 46.3613C47.7893 46.6492 47.9493 46.5078 48.0891 46.3613C51.3867 42.9058 53.785 39.1623 54.9841 34.8429C54.9841 34.8429 55.1042 34.409 54.6843 34.267ZM4.62089 33.6911C4.62089 33.4031 4.32111 33.4031 4.02133 33.4031L0.423954 34.267C0.124173 34.267 0.124173 34.555 0.124173 34.8429C1.3233 39.1623 3.72154 42.9058 7.01913 46.3613C7.31892 46.6492 7.6187 46.6492 7.6187 46.3613L10.3167 43.7696C10.6165 43.4817 10.6165 43.1937 10.3167 43.1937C7.31892 40.6021 5.52023 37.4346 4.62089 33.6911Z" fill="white"/>
</mask>
<g mask="url(#mask0_35_24710)">
<path d="M7.83846 8.3722C18.2373 -2.54697 35.5686 -2.83431 46.5451 7.79751C57.5216 18.142 57.8105 35.6701 47.4117 46.5893C37.0129 57.5085 19.3927 57.7958 8.41617 47.4513C-2.56034 36.5322 -2.8492 19.2914 7.83846 8.3722Z" fill="url(#paint1_linear_35_24710)"/>
</g>
<path d="M27.365 48.7986C39.2966 48.7986 48.969 39.1676 48.969 27.2872C48.969 15.4068 39.2966 5.77588 27.365 5.77588C15.4334 5.77588 5.76099 15.4068 5.76099 27.2872C5.76099 39.1676 15.4334 48.7986 27.365 48.7986Z" fill="url(#paint2_linear_35_24710)"/>
<path d="M47.5287 27.2867C47.5287 38.4726 38.599 47.364 27.3649 47.364C16.1308 47.364 7.20117 38.4726 7.20117 27.2867C7.20117 16.1008 16.1308 7.20947 27.3649 7.20947C38.599 7.20947 47.5287 16.1008 47.5287 27.2867Z" fill="url(#paint3_linear_35_24710)"/>
<path d="M24.1936 32.072C23.7296 32.072 23.3296 32.008 22.9936 31.88C22.6576 31.752 22.3816 31.584 22.1656 31.376C21.9496 31.168 21.7896 30.94 21.6856 30.692C21.5896 30.444 21.5416 30.2 21.5416 29.96C21.5416 29.744 21.5856 29.6 21.6736 29.528C21.7696 29.456 21.9256 29.42 22.1416 29.42C22.3976 29.42 22.5696 29.46 22.6576 29.54C22.7456 29.612 22.7896 29.732 22.7896 29.9C22.7896 30.028 22.8176 30.156 22.8736 30.284C22.9376 30.404 23.0256 30.516 23.1376 30.62C23.2496 30.716 23.3936 30.796 23.5696 30.86C23.7536 30.916 23.9656 30.944 24.2056 30.944C24.7016 30.944 25.0656 30.828 25.2976 30.596C25.5376 30.356 25.6576 29.976 25.6576 29.456V29.228C25.6576 28.748 25.5216 28.412 25.2496 28.22C24.9856 28.02 24.6376 27.92 24.2056 27.92C24.0536 27.92 23.9456 27.868 23.8816 27.764C23.8176 27.652 23.7856 27.536 23.7856 27.416C23.7856 27.28 23.8176 27.16 23.8816 27.056C23.9456 26.952 24.0496 26.9 24.1936 26.9C24.4416 26.9 24.6576 26.868 24.8416 26.804C25.0336 26.732 25.1816 26.6 25.2856 26.408C25.3896 26.216 25.4416 25.94 25.4416 25.58C25.4416 25.14 25.3376 24.824 25.1296 24.632C24.9296 24.44 24.6336 24.344 24.2416 24.344C24.0016 24.344 23.8016 24.372 23.6416 24.428C23.4816 24.484 23.3536 24.56 23.2576 24.656C23.1616 24.752 23.0936 24.856 23.0536 24.968C23.0136 25.08 22.9936 25.2 22.9936 25.328C22.9936 25.48 22.9496 25.604 22.8616 25.7C22.7816 25.796 22.6256 25.844 22.3936 25.844C22.2096 25.844 22.0696 25.828 21.9736 25.796C21.8776 25.764 21.8136 25.704 21.7816 25.616C21.7496 25.528 21.7336 25.408 21.7336 25.256C21.7336 25.064 21.7736 24.852 21.8536 24.62C21.9336 24.38 22.0656 24.156 22.2496 23.948C22.4416 23.732 22.7016 23.56 23.0296 23.432C23.3576 23.296 23.7656 23.228 24.2536 23.228C24.7256 23.228 25.1416 23.296 25.5016 23.432C25.8616 23.568 26.1456 23.792 26.3536 24.104C26.5616 24.416 26.6656 24.836 26.6656 25.364C26.6656 25.868 26.5776 26.296 26.4016 26.648C26.2336 26.992 26.0016 27.232 25.7056 27.368C26.0576 27.504 26.3496 27.72 26.5816 28.016C26.8136 28.312 26.9296 28.716 26.9296 29.228V29.456C26.9296 30.088 26.8056 30.596 26.5576 30.98C26.3176 31.364 25.9896 31.644 25.5736 31.82C25.1576 31.988 24.6976 32.072 24.1936 32.072ZM28.3791 32.036C28.2671 32.036 28.1471 32.008 28.0191 31.952C27.8911 31.896 27.7831 31.82 27.6951 31.724C27.6071 31.628 27.5631 31.524 27.5631 31.412C27.5631 31.332 27.5911 31.248 27.6471 31.16L29.7111 27.608L27.7071 24.08C27.6431 23.968 27.6111 23.864 27.6111 23.768C27.6111 23.656 27.6511 23.556 27.7311 23.468C27.8111 23.38 27.9111 23.312 28.0311 23.264C28.1591 23.216 28.2831 23.192 28.4031 23.192C28.5231 23.192 28.6191 23.228 28.6911 23.3C28.7711 23.364 28.8351 23.448 28.8831 23.552L30.5511 26.624L32.2191 23.552C32.2751 23.448 32.3431 23.364 32.4231 23.3C32.5031 23.228 32.5951 23.192 32.6991 23.192C32.8191 23.192 32.9391 23.216 33.0591 23.264C33.1871 23.312 33.2911 23.38 33.3711 23.468C33.4591 23.556 33.5031 23.656 33.5031 23.768C33.5031 23.864 33.4711 23.968 33.4071 24.08L31.3911 27.608L33.4671 31.16C33.5151 31.248 33.5391 31.332 33.5391 31.412C33.5391 31.524 33.4951 31.628 33.4071 31.724C33.3191 31.82 33.2111 31.896 33.0831 31.952C32.9631 32.008 32.8431 32.036 32.7231 32.036C32.6351 32.036 32.5551 32.008 32.4831 31.952C32.4111 31.888 32.3551 31.82 32.3151 31.748L30.5511 28.556L28.7871 31.748C28.7471 31.82 28.6911 31.888 28.6191 31.952C28.5551 32.008 28.4751 32.036 28.3791 32.036Z" fill="white"/>
<defs>
<linearGradient id="paint0_linear_35_24710" x1="27.5" y1="0" x2="27.5" y2="55" gradientUnits="userSpaceOnUse">
<stop stop-color="#EDB258"/>
<stop offset="1" stop-color="#E69D2B"/>
</linearGradient>
<linearGradient id="paint1_linear_35_24710" x1="27.5" y1="0" x2="27.5" y2="55" gradientUnits="userSpaceOnUse">
<stop stop-color="#1E1E29"/>
<stop offset="1" stop-color="#0F0F15"/>
</linearGradient>
<linearGradient id="paint2_linear_35_24710" x1="27.365" y1="5.77588" x2="27.365" y2="48.7986" gradientUnits="userSpaceOnUse">
<stop stop-color="#1E1E29"/>
<stop offset="1" stop-color="#0F0F15"/>
</linearGradient>
<linearGradient id="paint3_linear_35_24710" x1="27.4131" y1="7.25339" x2="27.4131" y2="47.5842" gradientUnits="userSpaceOnUse">
<stop stop-color="#2B2934"/>
<stop offset="1" stop-color="#141318"/>
</linearGradient>
</defs>
</svg>
