<svg width="18" height="18" viewBox="0 0 18 18" fill="none" xmlns="http://www.w3.org/2000/svg">
<path d="M9 18C13.9706 18 18 13.9706 18 9C18 4.02944 13.9706 0 9 0C4.02944 0 0 4.02944 0 9C0 13.9706 4.02944 18 9 18Z" fill="url(#paint0_linear_123_10364)"/>
<mask id="mask0_123_10364" style="mask-type:luminance" maskUnits="userSpaceOnUse" x="0" y="0" width="18" height="18">
<path d="M6.69329 0.482034C6.69329 0.388166 6.69329 0.294298 6.78756 0.294298C8.20164 -0.0811723 9.71 -0.0811723 11.1241 0.294298C11.2183 0.294298 11.2183 0.388166 11.2183 0.482034L10.9355 1.60845C10.9355 1.70231 10.8413 1.70231 10.747 1.70231C9.52145 1.42071 8.29592 1.42071 7.16465 1.70231C7.07038 1.70231 6.97611 1.70231 6.97611 1.60845L6.69329 0.482034ZM0.471334 6.6773L1.6026 6.9589C1.69687 6.9589 1.79114 6.9589 1.79114 6.86504C2.07396 5.73862 2.63959 4.70608 3.58231 3.7674C3.67658 3.67353 3.67658 3.57967 3.58231 3.57967L2.73386 2.73486C2.63959 2.64099 2.54532 2.64099 2.54532 2.73486C1.50833 3.86127 0.75415 5.08155 0.377061 6.48956C0.282789 6.58343 0.377061 6.6773 0.471334 6.6773ZM16.2148 6.86504C16.2148 6.9589 16.309 6.9589 16.4033 6.9589L17.5346 6.6773C17.6289 6.6773 17.6289 6.58343 17.6289 6.48956C17.2518 5.08155 16.4976 3.86127 15.4606 2.73486C15.3663 2.64099 15.272 2.64099 15.272 2.73486L14.4236 3.57967C14.3293 3.67353 14.3293 3.7674 14.4236 3.7674C15.272 4.70608 15.8377 5.73862 16.2148 6.86504ZM10.9355 16.3457C10.9355 16.2518 10.8413 16.2518 10.747 16.2518C9.52145 16.5334 8.29592 16.5334 7.16465 16.2518C7.07038 16.2518 6.97611 16.2518 6.97611 16.3457L6.69329 17.4721C6.69329 17.566 6.69329 17.6598 6.78756 17.6598C8.20164 18.0353 9.71 18.0353 11.1241 17.6598C11.2183 17.6598 11.2183 17.566 11.2183 17.4721L10.9355 16.3457ZM17.5346 11.1829L16.4033 10.9013C16.309 10.9013 16.25 10.899 16.2148 10.9952C15.932 12.1216 15.272 13.1542 14.4236 14.0928C14.3293 14.1867 14.3333 14.2017 14.4236 14.2806L15.272 15.1254C15.3663 15.2193 15.4166 15.1732 15.4606 15.1254C16.4976 13.999 17.2518 12.7787 17.6289 11.3707C17.6289 11.3707 17.6666 11.2292 17.5346 11.1829ZM1.79114 10.9952C1.79114 10.9013 1.69687 10.9013 1.6026 10.9013L0.471334 11.1829C0.377061 11.1829 0.377061 11.2768 0.377061 11.3707C0.75415 12.7787 1.50833 13.999 2.54532 15.1254C2.63959 15.2193 2.73386 15.2193 2.73386 15.1254L3.58231 14.2806C3.67658 14.1867 3.67658 14.0928 3.58231 14.0928C2.63959 13.248 2.07396 12.2155 1.79114 10.9952Z" fill="white"/>
</mask>
<g mask="url(#mask0_123_10364)">
<path d="M2.54525 2.73495C5.93905 -0.83202 11.5954 -0.925888 15.1777 2.54722C18.76 5.92645 18.8543 11.6524 15.4605 15.2194C12.0667 18.7863 6.31613 18.8802 2.73379 15.501C-0.848543 11.934 -0.942816 6.30193 2.54525 2.73495Z" fill="url(#paint1_linear_123_10364)"/>
</g>
<path d="M8.95578 15.9708C12.8607 15.9708 16.0262 12.8188 16.0262 8.9307C16.0262 5.04257 12.8607 1.89062 8.95578 1.89062C5.0509 1.89062 1.88538 5.04257 1.88538 8.9307C1.88538 12.8188 5.0509 15.9708 8.95578 15.9708Z" fill="url(#paint2_linear_123_10364)"/>
<path d="M15.5549 8.93011C15.5549 12.591 12.6325 15.5009 8.95586 15.5009C5.27925 15.5009 2.35681 12.591 2.35681 8.93011C2.35681 5.26927 5.27925 2.35938 8.95586 2.35938C12.6325 2.35938 15.5549 5.26927 15.5549 8.93011Z" fill="url(#paint3_linear_123_10364)"/>
<path d="M6.27016 8.23194C5.3516 9.14754 5.06916 10.2761 5.8686 11.1941C6.35244 11.7496 7.74991 12.2356 8.57944 11.2671C8.53154 11.9448 7.48159 12.9207 7.18994 13.0922H7.59764H8.73294H9.86824L10.2121 13.0892C9.92043 12.917 8.93495 11.9448 8.88705 11.2671C9.71658 12.2363 11.1141 11.7502 11.5979 11.1941C12.3967 10.2767 12.1143 9.14754 11.1963 8.23194C11.0668 8.10296 10.9385 7.97946 10.812 7.8584C12.926 10.458 9.69018 12.7619 8.73355 10.7019C7.78123 12.754 4.56199 10.4756 6.63549 7.88273C6.50901 8.00015 6.38621 8.11574 6.27016 8.23194Z" fill="url(#paint4_linear_123_10364)"/>
<path d="M6.81107 7.97381C6.27197 8.5615 6.01409 9.252 6.18478 9.8914C6.27934 9.51056 6.49793 9.13398 6.81107 8.79268C7.45946 8.08636 8.35591 7.3843 8.7323 6.21926C9.15044 7.36848 9.88233 7.95191 10.6535 8.79268C10.9667 9.13398 11.1853 9.51056 11.2798 9.8914C11.4511 9.252 11.1926 8.5615 10.6535 7.97381C9.88295 7.13304 9.15105 6.54961 8.73291 5.40039C8.35591 6.56543 7.45946 7.26749 6.81107 7.97381Z" fill="url(#paint5_linear_123_10364)"/>
<defs>
<linearGradient id="paint0_linear_123_10364" x1="9.02151" y1="0.0196888" x2="9.02151" y2="18.0987" gradientUnits="userSpaceOnUse">
<stop stop-color="#2B2934"/>
<stop offset="1" stop-color="#141318"/>
</linearGradient>
<linearGradient id="paint1_linear_123_10364" x1="8.96207" y1="0" x2="8.96207" y2="17.9669" gradientUnits="userSpaceOnUse">
<stop stop-color="#EDB258"/>
<stop offset="1" stop-color="#E69D2B"/>
</linearGradient>
<linearGradient id="paint2_linear_123_10364" x1="8.95578" y1="1.89062" x2="8.95578" y2="15.9708" gradientUnits="userSpaceOnUse">
<stop stop-color="#EDB258"/>
<stop offset="1" stop-color="#E69D2B"/>
</linearGradient>
<linearGradient id="paint3_linear_123_10364" x1="8.97162" y1="2.37375" x2="8.97162" y2="15.5729" gradientUnits="userSpaceOnUse">
<stop stop-color="#2B2934"/>
<stop offset="1" stop-color="#141318"/>
</linearGradient>
<linearGradient id="paint4_linear_123_10364" x1="8.73302" y1="7.8584" x2="8.73302" y2="13.0922" gradientUnits="userSpaceOnUse">
<stop stop-color="#EFBA6B"/>
<stop offset="1" stop-color="#DC8D18"/>
</linearGradient>
<linearGradient id="paint5_linear_123_10364" x1="8.73242" y1="5.40039" x2="8.73242" y2="9.8914" gradientUnits="userSpaceOnUse">
<stop stop-color="#EFBA6B"/>
<stop offset="1" stop-color="#DC8D18"/>
</linearGradient>
</defs>
</svg>
