<svg width="55" height="55" viewBox="0 0 55 55" fill="none" xmlns="http://www.w3.org/2000/svg">
<path d="M27.5 55C42.6878 55 55 42.6878 55 27.5C55 12.3122 42.6878 0 27.5 0C12.3122 0 0 12.3122 0 27.5C0 42.6878 12.3122 55 27.5 55Z" fill="url(#paint0_linear_35_24709)"/>
<mask id="mask0_35_24709" style="mask-type:luminance" maskUnits="userSpaceOnUse" x="1" y="0" width="53" height="55">
<path d="M20.4519 1.47315C20.4519 1.18633 20.4519 0.899516 20.7399 0.899516C25.0607 -0.247755 29.6696 -0.247755 33.9904 0.899516C34.2784 0.899516 34.2784 1.18633 34.2784 1.47315L33.4143 4.91497C33.4143 5.20179 33.1262 5.20179 32.8382 5.20179C29.0935 4.34133 25.3488 4.34133 21.8921 5.20179C21.6041 5.20179 21.316 5.20179 21.316 4.91497L20.4519 1.47315ZM1.44033 20.4031L4.89697 21.2636C5.18502 21.2636 5.47308 21.2636 5.47308 20.9768C6.33724 17.535 8.06556 14.38 10.9461 11.5118C11.2341 11.225 11.2341 10.9381 10.9461 10.9381L8.35361 8.35678C8.06556 8.06997 7.77751 8.06997 7.77751 8.35678C4.60892 11.7986 2.30449 15.5272 1.15227 19.8295C0.864221 20.1163 1.15227 20.4031 1.44033 20.4031ZM49.5453 20.9768C49.5453 21.2636 49.8333 21.2636 50.1214 21.2636L53.578 20.4031C53.8661 20.4031 53.8661 20.1163 53.8661 19.8295C52.7139 15.5272 50.4094 11.7986 47.2408 8.35678C46.9528 8.06997 46.6647 8.06997 46.6647 8.35678L44.0723 10.9381C43.7842 11.225 43.7842 11.5118 44.0723 11.5118C46.6647 14.38 48.3931 17.535 49.5453 20.9768ZM33.4143 49.9454C33.4143 49.6586 33.1262 49.6586 32.8382 49.6586C29.0935 50.519 25.3488 50.519 21.8921 49.6586C21.6041 49.6586 21.316 49.6586 21.316 49.9454L20.4519 53.3872C20.4519 53.674 20.4519 53.9608 20.7399 53.9608C25.0607 55.1081 29.6696 55.1081 33.9904 53.9608C34.2784 53.9608 34.2784 53.674 34.2784 53.3872L33.4143 49.9454ZM53.578 34.1704L50.1214 33.3099C49.8333 33.3099 49.6528 33.3026 49.5453 33.5968C48.6811 37.0386 46.6647 40.1936 44.0723 43.0618C43.7842 43.3486 43.7963 43.3944 44.0723 43.6354L46.6647 46.2168C46.9528 46.5036 47.1065 46.3627 47.2408 46.2168C50.4094 42.7749 52.7139 39.0463 53.8661 34.744C53.8661 34.744 53.9815 34.3118 53.578 34.1704ZM5.47308 33.5968C5.47308 33.3099 5.18502 33.3099 4.89697 33.3099L1.44033 34.1704C1.15227 34.1704 1.15227 34.4572 1.15227 34.744C2.30449 39.0463 4.60892 42.7749 7.77751 46.2168C8.06556 46.5036 8.35361 46.5036 8.35361 46.2168L10.9461 43.6354C11.2341 43.3486 11.2341 43.0618 10.9461 43.0618C8.06556 40.4804 6.33724 37.3254 5.47308 33.5968Z" fill="white"/>
</mask>
<g mask="url(#mask0_35_24709)">
<path d="M7.77739 8.3568C18.1473 -2.54228 35.4305 -2.8291 46.3766 7.78316C57.3226 18.1086 57.6106 35.6045 47.2407 46.5036C36.8708 57.4027 19.2995 57.6895 8.35349 47.364C-2.59254 36.465 -2.8806 19.2559 7.77739 8.3568Z" fill="url(#paint1_linear_35_24709)"/>
</g>
<path d="M27.365 48.7986C39.2966 48.7986 48.969 39.1676 48.969 27.2872C48.969 15.4068 39.2966 5.77588 27.365 5.77588C15.4334 5.77588 5.76099 15.4068 5.76099 27.2872C5.76099 39.1676 15.4334 48.7986 27.365 48.7986Z" fill="url(#paint2_linear_35_24709)"/>
<path d="M47.5287 27.2867C47.5287 38.4726 38.599 47.364 27.3649 47.364C16.1308 47.364 7.20117 38.4726 7.20117 27.2867C7.20117 16.1008 16.1308 7.20947 27.3649 7.20947C38.599 7.20947 47.5287 16.1008 47.5287 27.2867Z" fill="url(#paint3_linear_35_24709)"/>
<path d="M22.2655 32C22.1535 32 22.0295 31.964 21.8935 31.892C21.7655 31.812 21.7015 31.708 21.7015 31.58V30.416C21.7015 30.088 21.7935 29.788 21.9775 29.516C22.1695 29.236 22.4135 28.972 22.7095 28.724C23.0135 28.476 23.3335 28.236 23.6695 28.004C24.0055 27.764 24.3215 27.524 24.6175 27.284C24.9135 27.036 25.1575 26.78 25.3495 26.516C25.5415 26.252 25.6375 25.964 25.6375 25.652C25.6375 25.452 25.5895 25.256 25.4935 25.064C25.4055 24.872 25.2655 24.712 25.0735 24.584C24.8815 24.456 24.6335 24.392 24.3295 24.392C23.9935 24.392 23.7055 24.488 23.4655 24.68C23.2335 24.872 23.1175 25.172 23.1175 25.58C23.1175 25.7 23.0575 25.812 22.9375 25.916C22.8255 26.012 22.6655 26.06 22.4575 26.06C22.2815 26.06 22.1415 26.012 22.0375 25.916C21.9335 25.812 21.8815 25.624 21.8815 25.352C21.8815 24.92 21.9935 24.548 22.2175 24.236C22.4415 23.916 22.7415 23.668 23.1175 23.492C23.4935 23.316 23.8975 23.228 24.3295 23.228C24.7935 23.228 25.2215 23.328 25.6135 23.528C26.0055 23.728 26.3175 24.008 26.5495 24.368C26.7895 24.72 26.9095 25.136 26.9095 25.616C26.9095 26.04 26.8135 26.424 26.6215 26.768C26.4375 27.112 26.1975 27.424 25.9015 27.704C25.6055 27.984 25.2895 28.24 24.9535 28.472C24.6255 28.704 24.3135 28.924 24.0175 29.132C23.7295 29.34 23.4895 29.548 23.2975 29.756C23.1135 29.964 23.0215 30.184 23.0215 30.416V30.872H26.5375C26.6495 30.872 26.7455 30.928 26.8255 31.04C26.9135 31.144 26.9575 31.272 26.9575 31.424C26.9575 31.576 26.9135 31.712 26.8255 31.832C26.7455 31.944 26.6495 32 26.5375 32H22.2655ZM28.2912 32.036C28.1792 32.036 28.0592 32.008 27.9312 31.952C27.8032 31.896 27.6952 31.82 27.6072 31.724C27.5192 31.628 27.4752 31.524 27.4752 31.412C27.4752 31.332 27.5032 31.248 27.5592 31.16L29.6232 27.608L27.6192 24.08C27.5552 23.968 27.5232 23.864 27.5232 23.768C27.5232 23.656 27.5632 23.556 27.6432 23.468C27.7232 23.38 27.8232 23.312 27.9432 23.264C28.0712 23.216 28.1952 23.192 28.3152 23.192C28.4352 23.192 28.5312 23.228 28.6032 23.3C28.6832 23.364 28.7472 23.448 28.7952 23.552L30.4632 26.624L32.1312 23.552C32.1872 23.448 32.2552 23.364 32.3352 23.3C32.4152 23.228 32.5072 23.192 32.6112 23.192C32.7312 23.192 32.8512 23.216 32.9712 23.264C33.0992 23.312 33.2032 23.38 33.2832 23.468C33.3712 23.556 33.4152 23.656 33.4152 23.768C33.4152 23.864 33.3832 23.968 33.3192 24.08L31.3032 27.608L33.3792 31.16C33.4272 31.248 33.4512 31.332 33.4512 31.412C33.4512 31.524 33.4072 31.628 33.3192 31.724C33.2312 31.82 33.1232 31.896 32.9952 31.952C32.8752 32.008 32.7552 32.036 32.6352 32.036C32.5472 32.036 32.4672 32.008 32.3952 31.952C32.3232 31.888 32.2672 31.82 32.2272 31.748L30.4632 28.556L28.6992 31.748C28.6592 31.82 28.6032 31.888 28.5312 31.952C28.4672 32.008 28.3872 32.036 28.2912 32.036Z" fill="white"/>
<defs>
<linearGradient id="paint0_linear_35_24709" x1="27.5657" y1="0.0601601" x2="27.5657" y2="55.3016" gradientUnits="userSpaceOnUse">
<stop stop-color="#2B2934"/>
<stop offset="1" stop-color="#141318"/>
</linearGradient>
<linearGradient id="paint1_linear_35_24709" x1="27.3843" y1="0" x2="27.3843" y2="54.8988" gradientUnits="userSpaceOnUse">
<stop stop-color="#EDB258"/>
<stop offset="1" stop-color="#E69D2B"/>
</linearGradient>
<linearGradient id="paint2_linear_35_24709" x1="27.365" y1="5.77588" x2="27.365" y2="48.7986" gradientUnits="userSpaceOnUse">
<stop stop-color="#EDB258"/>
<stop offset="1" stop-color="#E69D2B"/>
</linearGradient>
<linearGradient id="paint3_linear_35_24709" x1="27.4131" y1="7.25339" x2="27.4131" y2="47.5842" gradientUnits="userSpaceOnUse">
<stop stop-color="#2B2934"/>
<stop offset="1" stop-color="#141318"/>
</linearGradient>
</defs>
</svg>
