<svg width="20" height="20" viewBox="0 0 20 20" fill="none" xmlns="http://www.w3.org/2000/svg">
<path d="M13.3333 10.4587V13.7087C13.3333 16.417 12.25 17.5003 9.54167 17.5003H6.29167C3.58333 17.5003 2.5 16.417 2.5 13.7087V10.4587C2.5 7.75033 3.58333 6.66699 6.29167 6.66699H9.54167C12.25 6.66699 13.3333 7.75033 13.3333 10.4587Z" fill="#00FFC4"/>
<path d="M13.7056 2.5H10.4533C8.15575 2.5 7.03229 3.28461 6.74303 5.16904C6.65854 5.71951 7.12162 6.17822 7.67853 6.17822H9.05941C12.3117 6.17822 13.8217 7.68823 13.8217 10.9406V12.3214C13.8217 12.8783 14.2805 13.3414 14.8309 13.2569C16.7153 12.9677 17.5 11.8442 17.5 9.5467V6.29438C17.5 3.58411 16.4159 2.5 13.7056 2.5Z" fill="#00FFC4"/>
</svg>
