<svg width="24" height="24" viewBox="0 0 24 24" fill="none" xmlns="http://www.w3.org/2000/svg">
<path d="M14.8657 16.2794L7.72015 9.13391C7.35395 8.7677 7.37082 8.14346 7.75737 7.75691C8.14392 7.37036 8.76816 7.35349 9.13437 7.7197L16.2799 14.8652C16.6461 15.2314 16.6292 15.8556 16.2427 16.2422C15.8561 16.6287 15.2319 16.6456 14.8657 16.2794Z" fill="#F39D98"/>
<path d="M7.75735 16.2422C7.3708 15.8556 7.35393 15.2314 7.72013 14.8652L14.8656 7.7197C15.2318 7.35349 15.8561 7.37036 16.2426 7.75691C16.6292 8.14346 16.6461 8.7677 16.2798 9.13391L9.13435 16.2794C8.76814 16.6456 8.1439 16.6287 7.75735 16.2422Z" fill="#F39D98"/>
</svg>
