<svg width="40" height="40" viewBox="0 0 40 40" fill="none" xmlns="http://www.w3.org/2000/svg">
<circle cx="20" cy="20" r="20" fill="url(#paint0_radial_261_12117)"/>
<path d="M28.2733 20.4897C29.3838 20.1816 29.7745 19.5448 29.9184 19.0723C30.0007 18.8258 30.0418 18.1479 29.939 17.7576C29.8568 17.47 29.6922 17.1414 29.4866 16.8743C28.9725 16.2786 28.2939 15.9294 27.2862 15.8883C26.6487 15.8678 25.929 16.1143 25.4149 16.3197C25.3326 16.3608 25.0858 16.484 25.0036 16.5251C24.7568 16.6895 24.325 16.9976 24.2221 17.0797L24.2016 17.1003L24.181 17.1208C23.852 17.4495 22.4125 18.9285 22.1451 19.1545C21.8778 19.401 21.5282 19.6886 21.2197 19.9146C20.829 20.2227 20.5206 20.4692 20.5206 20.4692C20.5206 20.4692 20.7468 20.1816 21.0347 19.8324C21.2814 19.5243 21.5899 19.134 21.8572 18.8464C22.0834 18.5999 23.5846 17.1619 23.8931 16.8127L23.9137 16.7922L23.9342 16.7716C24.0165 16.6689 24.325 16.2581 24.4895 15.991C24.5306 15.9294 24.654 15.6829 24.6951 15.5802C24.9008 15.0666 25.1475 14.3477 25.127 13.7109C25.0858 12.7248 24.7568 12.0264 24.1399 11.5129C23.8931 11.2869 23.5641 11.1431 23.2556 11.0609C22.8649 10.9582 22.1657 10.9993 21.9395 11.0815C21.4871 11.2253 20.829 11.6156 20.5206 12.7248C20.2121 11.6156 19.5746 11.2253 19.1016 11.0815C18.8549 10.9993 18.1762 10.9582 17.765 11.0609C17.4771 11.1431 17.148 11.3074 16.8807 11.5129C16.2843 12.0264 15.9347 12.7043 15.8936 13.7109C15.873 14.3477 16.1198 15.0666 16.3255 15.5802C16.3666 15.6623 16.49 15.9089 16.5311 15.991C16.6956 16.2375 17.0041 16.6689 17.0863 16.7716L17.1069 16.7922L17.1275 16.8127C17.4565 17.1414 18.9371 18.5793 19.1633 18.8464C19.4101 19.1134 19.698 19.4626 19.9242 19.7708C20.2327 20.1611 20.4794 20.4692 20.4794 20.4692C20.4794 20.4692 20.2327 20.2638 19.9036 20.0173C19.5746 19.7502 19.1633 19.4215 18.8549 19.1545C18.6081 18.9285 17.1686 17.429 16.819 17.1208L16.7984 17.1003L16.7779 17.0797C16.675 16.9976 16.2638 16.6895 15.9964 16.5251C15.9347 16.484 15.688 16.3608 15.5851 16.3197C15.071 16.1143 14.3513 15.8678 13.7138 15.8883C12.7267 15.9294 12.0275 16.2581 11.5134 16.8743C11.2872 17.1208 11.1432 17.4495 11.061 17.7576C10.9582 18.1479 10.9993 18.8464 11.0816 19.0723C11.2255 19.5243 11.6162 20.1816 12.7267 20.4897C11.6162 20.7979 11.2255 21.4347 11.0816 21.9071C10.9993 22.1536 10.9582 22.8315 11.061 23.2424C11.1432 23.53 11.3078 23.8586 11.5134 24.1257C12.0275 24.7214 12.7061 25.0706 13.7138 25.1117C14.3513 25.1322 15.071 24.8857 15.5851 24.6803C15.6674 24.6392 15.9142 24.516 15.9964 24.4749C16.2432 24.3105 16.675 24.0024 16.7779 23.9203L16.7984 23.8997L16.819 23.8792C17.148 23.5505 18.5875 22.0715 18.8549 21.8455C19.1633 21.5785 19.5746 21.2498 19.9036 20.9827C20.2327 20.7157 20.4794 20.5308 20.4794 20.5308C20.4794 20.5308 20.2532 20.8184 19.9653 21.1676C19.7186 21.4757 19.4101 21.866 19.1428 22.1536C18.9166 22.4001 17.4154 23.8381 17.1069 24.1873L17.0863 24.2078L17.0658 24.2284C16.9835 24.3311 16.675 24.7419 16.5105 25.009C16.4694 25.0706 16.346 25.3171 16.3049 25.4198C16.0992 25.9334 15.8525 26.6523 15.873 27.2891C15.9142 28.2752 16.2432 28.9736 16.8601 29.4871C17.1069 29.7131 17.4359 29.8569 17.7444 29.9391C18.1351 30.0418 18.8343 30.0007 19.0605 29.9185C19.5129 29.7747 20.171 29.3844 20.4794 28.2752C20.7879 29.3844 21.4254 29.7747 21.8984 29.9185C22.1451 30.0007 22.8238 30.0418 23.2145 29.9391C23.5024 29.8569 23.8314 29.6926 24.0987 29.4871C24.6951 28.9736 25.0447 28.2957 25.0858 27.2891C25.1064 26.6523 24.8596 25.9334 24.654 25.4198C24.6129 25.3377 24.4895 25.0911 24.4483 25.009C24.2838 24.7625 23.9754 24.3311 23.8931 24.2284L23.8725 24.2078L23.852 24.1873C23.5229 23.8586 22.0423 22.4207 21.8161 22.1536C21.5282 21.825 21.1786 21.3936 20.8907 21.0444C20.644 20.7362 20.4794 20.5308 20.4794 20.5308C20.4794 20.5308 20.7673 20.7568 21.1169 21.0444C21.4254 21.2909 21.8161 21.599 22.104 21.866C22.3508 22.092 23.7903 23.5916 24.1399 23.8997L24.1604 23.9203L24.181 23.9408C24.2838 24.023 24.6951 24.3311 24.9625 24.4954C25.0241 24.5365 25.2709 24.6598 25.3737 24.7008C25.8878 24.9063 26.6076 25.1528 27.2451 25.1322C28.2322 25.0911 28.9314 24.7625 29.4455 24.1462C29.6717 23.8997 29.8156 23.571 29.8979 23.2629C30.0007 22.8726 29.9596 22.1742 29.8773 21.9277C29.7745 21.4552 29.3838 20.7979 28.2733 20.4897Z" fill="url(#paint1_linear_261_12117)"/>
<defs>
<radialGradient id="paint0_radial_261_12117" cx="0" cy="0" r="1" gradientUnits="userSpaceOnUse" gradientTransform="translate(20) rotate(90) scale(40)">
<stop stop-color="#634828"/>
<stop offset="0.4"/>
</radialGradient>
<linearGradient id="paint1_linear_261_12117" x1="20.5" y1="11" x2="20.5" y2="30" gradientUnits="userSpaceOnUse">
<stop stop-color="#EFBA6B"/>
<stop offset="1" stop-color="#DC8D18"/>
</linearGradient>
</defs>
</svg>
