<svg width="40" height="40" viewBox="0 0 40 40" fill="none" xmlns="http://www.w3.org/2000/svg">
<circle cx="20" cy="20" r="20" fill="url(#paint0_radial_261_12112)"/>
<path d="M28.8198 18.3195C28.4786 17.2814 27.716 16.569 26.5722 16.2637C26.4116 16.223 26.2511 16.1823 26.0905 16.1619C25.047 15.9991 23.7627 16.4673 22.7192 17.6274C23.0202 16.8133 23.2409 15.9584 23.2409 15.0221C23.2409 14.3301 23.0804 13.6381 22.7794 12.9053C22.4382 12.1115 21.9566 11.3991 21.475 10.7071C21.2944 10.4628 21.1338 10.1982 20.9532 9.93363C20.8127 9.70973 20.6723 9.50619 20.5719 9.30265C20.4114 8.99734 20.2709 8.73275 20.1706 8.44779L19.99 8L19.8294 8.44779V8.46814C19.7492 8.71239 19.6287 8.93628 19.4883 9.20088C19.3679 9.42478 19.2274 9.64867 19.0668 9.91327C18.9063 10.1779 18.7257 10.4221 18.5652 10.6867C18.1036 11.3788 17.6019 12.1115 17.2608 12.885C16.9397 13.5973 16.7992 14.2894 16.7992 15.0018C16.7992 15.9381 17.04 16.8133 17.341 17.6478C16.2774 16.4673 14.973 15.9584 13.9094 16.1416C13.7489 16.1619 13.5884 16.2027 13.4278 16.2434C12.284 16.5487 11.5214 17.2611 11.1802 18.2991C10.7187 19.7442 11.2404 21.4336 11.6619 21.9628C12.2037 22.6345 13.0666 22.9602 13.9496 22.8177C14.8928 22.6752 15.6754 22.0442 16.0366 21.1283L16.0567 21.0876V21.0673V21.0469L16.0968 20.7619L15.8159 20.8637C15.2339 21.0876 14.5717 20.823 14.2506 20.4566C14.1101 20.2938 13.9094 19.9478 14.1101 19.5814C14.5115 18.869 15.0332 18.5841 15.6353 18.7266C16.4781 18.9301 17.341 19.9681 17.7022 21.2301C17.5216 21.2708 17.321 21.3726 17.1604 21.5354C17.0601 21.6372 16.9798 21.7389 16.9196 21.8814C16.7791 22.1664 16.7591 22.5327 16.8594 22.8381C16.9196 23.0212 17.0199 23.1841 17.1604 23.3265C17.3009 23.469 17.4414 23.5504 17.5818 23.5912C17.4414 23.9575 17.2206 24.2018 16.9196 24.2832C16.7791 24.3239 16.6387 24.3239 16.458 24.2832C16.137 24.2221 16.1169 23.8557 16.2172 23.3265C16.2373 23.2451 16.2373 23.2044 16.2373 23.1434L16.2574 22.8788L15.9965 22.9805C14.5315 23.5301 14.2707 24.4053 14.2305 24.8938C14.1703 25.5451 14.5315 26.1965 15.0934 26.5221C15.3142 26.6442 15.555 26.7053 15.7958 26.7053C16.5785 26.7053 17.2407 26.4814 17.7624 26.054C17.642 26.4204 17.5818 26.8274 17.6822 27.4381C17.7825 28.1097 18.224 28.6186 18.6655 29.0664C18.7257 29.1274 18.7859 29.1885 18.8662 29.2699C19.2475 29.6566 19.6287 30.0434 19.8495 30.5115C19.8495 30.5319 19.8696 30.5522 19.8696 30.5522L20.0301 31L20.1906 30.6133C20.3913 30.1248 20.7927 29.7177 21.194 29.331C21.3144 29.2088 21.4348 29.0867 21.5552 28.9646C21.9165 28.5779 22.2777 28.1097 22.358 27.4991C22.4382 26.9088 22.3981 26.5018 22.2777 26.1558C22.7794 26.5628 23.4416 26.7664 24.2042 26.7664C24.445 26.7664 24.6858 26.7053 24.9066 26.5832C25.4685 26.2575 25.8096 25.6062 25.7695 24.9549C25.7293 24.4867 25.4484 23.6115 24.0035 23.0416L23.7426 22.9398L23.7627 23.2044C23.7627 23.2451 23.7828 23.3062 23.7828 23.3876C23.8831 23.9168 23.863 24.2628 23.542 24.3442C23.3814 24.385 23.2209 24.385 23.0804 24.3442C22.7794 24.2628 22.5787 23.9982 22.4182 23.6522C22.5787 23.5911 22.7192 23.5097 22.8596 23.3673C23.0001 23.2248 23.1005 23.0619 23.1607 22.8788C23.261 22.5735 23.2409 22.2071 23.1005 21.9221C23.0403 21.8 22.96 21.6779 22.8596 21.5761C22.679 21.3929 22.4984 21.3115 22.2978 21.2504C22.659 20.0089 23.5219 18.9708 24.3647 18.7673C24.9668 18.6248 25.4885 18.9097 25.8899 19.6221C26.1106 20.0089 25.8899 20.3345 25.7494 20.4973C25.4283 20.8637 24.7661 21.1487 24.1841 20.9044L23.9032 20.8027L23.9433 21.108V21.1283L23.9634 21.169C24.3246 22.085 25.1072 22.7159 26.0504 22.8584C26.9334 23.0009 27.7963 22.6752 28.3381 22.0035C28.7596 21.454 29.2813 19.785 28.8198 18.3195Z" fill="url(#paint1_linear_261_12112)"/>
<defs>
<radialGradient id="paint0_radial_261_12112" cx="0" cy="0" r="1" gradientUnits="userSpaceOnUse" gradientTransform="translate(20) rotate(90) scale(40)">
<stop stop-color="#634828"/>
<stop offset="0.4"/>
</radialGradient>
<linearGradient id="paint1_linear_261_12112" x1="20" y1="8" x2="20" y2="31" gradientUnits="userSpaceOnUse">
<stop stop-color="#EFBA6B"/>
<stop offset="1" stop-color="#DC8D18"/>
</linearGradient>
</defs>
</svg>
