<svg width="40" height="40" viewBox="0 0 40 40" fill="none" xmlns="http://www.w3.org/2000/svg">
<circle cx="20" cy="20" r="20" fill="url(#paint0_radial_261_12095)"/>
<path d="M27.6362 18.4982L19.8786 10.667L12.1211 18.4982C11.1514 19.4771 10.6665 20.7007 10.6665 21.9244C10.6665 24.6164 12.8483 27.0636 15.7574 27.0636C16.9695 27.0636 18.1817 26.5742 19.1514 25.84V26.3294C19.1514 27.7978 17.9392 29.0214 16.4847 29.2661C16.4847 29.2661 16.2423 29.2661 16.2423 29.5109V29.7556C16.2423 30.0003 16.2423 30.0003 16.4847 30.0003H23.7574C23.9998 30.0003 23.9998 29.7556 23.9998 29.7556V29.5109C23.515 29.2661 23.515 29.2661 23.515 29.2661C22.0604 29.2661 20.8483 27.7978 20.8483 26.3294V25.84C21.818 26.5742 22.7877 27.0636 24.2423 27.0636C26.9089 27.0636 29.3332 24.8611 29.3332 21.9244C29.0907 20.7007 28.6059 19.4771 27.6362 18.4982Z" fill="url(#paint1_linear_261_12095)"/>
<defs>
<radialGradient id="paint0_radial_261_12095" cx="0" cy="0" r="1" gradientUnits="userSpaceOnUse" gradientTransform="translate(20) rotate(90) scale(40)">
<stop stop-color="#634828"/>
<stop offset="0.4"/>
</radialGradient>
<linearGradient id="paint1_linear_261_12095" x1="19.9998" y1="10.667" x2="19.9998" y2="30.0003" gradientUnits="userSpaceOnUse">
<stop stop-color="#EDB258"/>
<stop offset="1" stop-color="#E69D2B"/>
</linearGradient>
</defs>
</svg>
