<svg width="40" height="40" viewBox="0 0 40 40" fill="none" xmlns="http://www.w3.org/2000/svg">
<circle cx="20" cy="20" r="20" fill="url(#paint0_radial_261_12107)"/>
<path d="M26.8451 12.5599C26.0446 11.9023 25.0322 11.3387 23.8786 10.9394V10.4932C23.0074 10.2349 22.0892 10.0705 21.1475 10.0235C21.0297 10.0235 20.8885 10 20.7708 10C20.6766 10 20.2057 10 20.1115 10C19.9938 10 19.8525 10 19.7348 10.0235C18.7695 10.0705 17.8278 10.2349 16.9331 10.5167V10.9864C15.8501 11.3857 14.8848 11.9258 14.1313 12.5599C12.4126 13.9691 11 16.529 11 19.3239C11 19.7231 11.0235 20.1224 11.0706 20.5451C11.4002 22.9642 12.342 24.6551 13.4015 26.6044C13.425 26.6279 13.425 26.6514 13.425 26.6749C13.4015 26.7689 13.3309 26.8628 13.1896 26.8628H12.8364C12.6245 26.8628 12.4362 27.0272 12.4362 27.2621V27.356V27.5909C12.4362 27.6143 12.4362 27.6143 12.4362 27.6378V28.5538C12.4362 28.8121 12.6481 29 12.9306 29C13.8253 29 15.5675 29 15.803 29C16.109 28.9765 16.3209 28.7651 16.3445 28.5068C16.3445 28.225 16.3445 27.9197 16.3445 27.7318C16.3209 27.5439 16.1797 27.309 16.0149 27.0507C15.8736 26.7688 15.6146 26.44 15.3792 25.9938C15.3556 25.9468 15.3321 25.9234 15.3085 25.8764C15.1437 25.5241 14.9789 25.1248 14.8141 24.6786C14.2726 22.8232 14.0136 20.5451 14.6964 18.7602C15.4734 16.7639 17.6865 14.6972 20.4647 14.7441C23.2193 14.6972 25.4325 16.7639 26.233 18.7602C27.0335 20.8035 26.5626 23.4808 25.8798 25.4536C25.8327 25.5711 25.7856 25.665 25.7385 25.759C25.4325 26.4166 25.0322 26.8393 24.938 27.1916C24.8203 27.3795 24.7261 27.5674 24.7026 27.7083C24.6791 27.8962 24.6791 28.225 24.7026 28.4833C24.7026 28.7651 24.9145 28.9765 25.2206 28.9765C25.456 28.9765 27.1983 28.9765 28.0694 28.9765C28.3755 28.9765 28.5638 28.7651 28.5638 28.5303V28.2485V28.1545V27.6143V27.356V27.2621C28.5638 27.0272 28.3519 26.8628 28.1636 26.8628H27.8104C27.6691 26.8628 27.5985 26.7689 27.575 26.6749C27.575 26.6514 27.5985 26.6279 27.5985 26.6044C28.658 24.6551 29.5998 22.9642 29.9294 20.5451C29.9765 20.1459 30 19.7231 30 19.3239C29.9529 16.529 28.5638 13.9691 26.8451 12.5599Z" fill="url(#paint1_linear_261_12107)"/>
<defs>
<radialGradient id="paint0_radial_261_12107" cx="0" cy="0" r="1" gradientUnits="userSpaceOnUse" gradientTransform="translate(20) rotate(90) scale(40)">
<stop stop-color="#634828"/>
<stop offset="0.4"/>
</radialGradient>
<linearGradient id="paint1_linear_261_12107" x1="20.5" y1="10" x2="20.5" y2="29" gradientUnits="userSpaceOnUse">
<stop stop-color="#EFBA6B"/>
<stop offset="1" stop-color="#DC8D18"/>
</linearGradient>
</defs>
</svg>
