<svg width="61" height="61" viewBox="0 0 61 61" fill="none" xmlns="http://www.w3.org/2000/svg">
<circle cx="30.5" cy="30.5" r="30.5" fill="url(#paint0_radial_35_24543)"/>
<path d="M42.1454 28.2102L30.3151 16.2676L18.4848 28.2102C17.006 29.703 16.2666 31.5691 16.2666 33.4351C16.2666 37.5404 19.5939 41.2724 24.0302 41.2724C25.8787 41.2724 27.7272 40.526 29.206 39.4064V40.1528C29.206 42.3921 27.3575 44.2581 25.1393 44.6313C25.1393 44.6313 24.7696 44.6313 24.7696 45.0045V45.3777C24.7696 45.7509 24.7696 45.7509 25.1393 45.7509H36.2302C36.5999 45.7509 36.5999 45.3777 36.5999 45.3777V45.0045C35.8605 44.6313 35.8605 44.6313 35.8605 44.6313C33.6424 44.6313 31.7939 42.3921 31.7939 40.1528V39.4064C33.2727 40.526 34.7514 41.2724 36.9696 41.2724C41.0363 41.2724 44.7333 37.9136 44.7333 33.4351C44.3636 31.5691 43.6242 29.703 42.1454 28.2102Z" fill="url(#paint1_linear_35_24543)"/>
<defs>
<radialGradient id="paint0_radial_35_24543" cx="0" cy="0" r="1" gradientUnits="userSpaceOnUse" gradientTransform="translate(30.5) rotate(90) scale(61)">
<stop stop-color="#634828"/>
<stop offset="0.4"/>
</radialGradient>
<linearGradient id="paint1_linear_35_24543" x1="30.4999" y1="16.2676" x2="30.4999" y2="45.7509" gradientUnits="userSpaceOnUse">
<stop stop-color="#EDB258"/>
<stop offset="1" stop-color="#E69D2B"/>
</linearGradient>
</defs>
</svg>
