<svg width="40" height="40" viewBox="0 0 40 40" fill="none" xmlns="http://www.w3.org/2000/svg">
<circle cx="20" cy="20" r="20" fill="url(#paint0_radial_261_12722)"/>
<path d="M19.9656 11.1582C17.2378 14.8015 14.51 17.7617 11.1003 20.4942C10.873 20.4942 10.873 20.7219 11.1003 20.9496C14.51 23.6821 17.2378 26.6423 19.9656 30.2857C19.9656 30.5134 20.193 30.5134 20.4203 30.2857C23.1481 26.6423 25.8759 23.6821 29.2856 20.9496C29.513 20.9496 29.513 20.7219 29.2856 20.4942C25.8759 17.7617 23.1481 14.8015 20.4203 11.1582C20.193 11.1582 19.9656 11.1582 19.9656 11.1582Z" fill="url(#paint1_linear_261_12722)"/>
<defs>
<radialGradient id="paint0_radial_261_12722" cx="0" cy="0" r="1" gradientUnits="userSpaceOnUse" gradientTransform="translate(20) rotate(90) scale(40)">
<stop stop-color="#634828"/>
<stop offset="0.4"/>
</radialGradient>
<linearGradient id="paint1_linear_261_12722" x1="20.193" y1="11.1582" x2="20.193" y2="30.4564" gradientUnits="userSpaceOnUse">
<stop stop-color="#EFBA6B"/>
<stop offset="1" stop-color="#DC8D18"/>
</linearGradient>
</defs>
</svg>
