<svg width="40" height="40" viewBox="0 0 40 40" fill="none" xmlns="http://www.w3.org/2000/svg">
<circle cx="20" cy="20" r="20" fill="url(#paint0_radial_261_12127)"/>
<path d="M29.3346 17.55C28.9834 17.55 28.7061 17.8312 28.7061 18.1875C28.7061 18.3563 28.78 18.525 28.8909 18.6562C28.3734 19.5 26.8577 21.8625 26.1922 22.425C26.1368 22.3688 26.0259 22.1813 25.9335 21.6188C25.9335 21.5813 25.915 21.5625 25.915 21.525C25.878 21.3375 25.8595 21.1312 25.8226 20.8875C25.8041 20.7375 25.7856 20.5875 25.7856 20.4187C25.7486 20.025 25.7301 19.5937 25.7116 19.1062C25.6932 18.6562 25.6747 18.2625 25.6747 17.9812C25.9335 17.9062 26.1183 17.6438 26.1183 17.3625C26.1183 17.0063 25.841 16.725 25.4898 16.725C25.1386 16.725 24.8614 17.0063 24.8614 17.3625C24.8614 17.5688 24.9538 17.7375 25.1017 17.8688C24.7689 18.7875 23.7338 21.4313 22.9945 21.9375C22.976 21.9375 22.976 21.9375 22.9575 21.9375C22.4954 21.9375 21.4972 19.9875 20.3512 16.8562C20.7209 16.725 20.9797 16.3688 20.9797 15.9563C20.9797 15.4313 20.5545 15 20.037 15C19.5194 15 19.0943 15.4313 19.0943 15.9563C19.0943 16.3688 19.3346 16.7063 19.7043 16.8375C18.5767 19.9313 17.5601 21.9187 17.098 21.9187C17.061 21.9187 17.0425 21.9188 17.0055 21.9C16.2662 21.3563 15.2495 18.7313 14.9168 17.8125C15.1017 17.7 15.2126 17.4938 15.2126 17.2688C15.2126 16.9125 14.9353 16.6312 14.5841 16.6312C14.2329 16.6312 13.9556 16.9125 13.9556 17.2688C13.9556 17.55 14.1405 17.7937 14.3993 17.8875C14.3808 18.1875 14.3623 18.6188 14.3438 19.0875C14.3068 19.575 14.2699 20.0063 14.2329 20.4C14.2144 20.55 14.1959 20.7188 14.1774 20.8688C14.1405 21.1125 14.122 21.3187 14.085 21.5062C14.085 21.5437 14.0665 21.5625 14.0665 21.6C13.9372 22.2 13.8262 22.3688 13.7708 22.4062C13.1054 21.8625 11.6266 19.425 11.1091 18.5625C11.2384 18.45 11.3124 18.2625 11.3124 18.0938C11.3124 17.7375 11.0351 17.4563 10.6839 17.4563C10.3327 17.4563 10 17.7563 10 18.1125C10 18.4688 10.2773 18.75 10.61 18.75C10.9427 19.6312 12.366 27 12.366 27L12.5139 26.9062C12.6248 26.85 12.7542 26.7938 12.9575 26.7375C13.3457 26.625 13.9002 26.5312 14.6026 26.4375C16.0444 26.2688 17.9852 26.1562 20.037 26.1562C22.0887 26.1562 24.0111 26.25 25.4713 26.4375C25.8226 26.475 26.1368 26.5312 26.414 26.5687C26.6913 26.625 26.9316 26.6625 27.1165 26.7188C27.2089 26.7563 27.3013 26.775 27.3752 26.8125C27.4492 26.85 27.5046 26.8687 27.5601 26.9062L27.7079 27C27.7079 27 29.0203 19.875 29.427 18.825C29.7412 18.7875 30 18.5062 30 18.1875C29.963 17.8312 29.6858 17.55 29.3346 17.55Z" fill="url(#paint1_linear_261_12127)"/>
<defs>
<radialGradient id="paint0_radial_261_12127" cx="0" cy="0" r="1" gradientUnits="userSpaceOnUse" gradientTransform="translate(20) rotate(90) scale(40)">
<stop stop-color="#634828"/>
<stop offset="0.4"/>
</radialGradient>
<linearGradient id="paint1_linear_261_12127" x1="20" y1="15" x2="20" y2="27" gradientUnits="userSpaceOnUse">
<stop stop-color="#EFBA6B"/>
<stop offset="1" stop-color="#DC8D18"/>
</linearGradient>
</defs>
</svg>
