<svg width="18" height="17" viewBox="0 0 18 17" fill="none" xmlns="http://www.w3.org/2000/svg">
<path d="M4.14294 14.918C3.37968 14.918 2.75525 14.2935 2.75525 13.5303L2.75525 3.81641C2.75525 3.05314 3.37968 2.42871 4.14295 2.42871L13.8568 2.42871C14.627 2.42871 15.2445 3.05314 15.2445 3.81641L15.2445 6.5918L13.8568 6.5918L13.8568 3.81641L4.14295 3.81641L4.14294 13.5303L13.8568 13.5303L13.8568 10.7549L15.2445 10.7549L15.2445 13.5303C15.2445 14.2935 14.627 14.918 13.8568 14.918L4.14294 14.918ZM5.87732 8.67383L9.34705 5.2041L10.3256 6.18262L8.53552 7.97949L15.2445 7.97949L15.2445 9.36719L8.53552 9.36719L10.3256 11.1641L9.34705 12.1426L5.87732 8.67383Z" fill="#89849F"/>
</svg>
