<svg width="18" height="18" viewBox="0 0 18 18" fill="none" xmlns="http://www.w3.org/2000/svg">
<path d="M14.6324 4.3875L10.1774 1.815C9.44994 1.395 8.54994 1.395 7.81494 1.815L3.36744 4.3875C2.63994 4.8075 2.18994 5.5875 2.18994 6.435V11.565C2.18994 12.405 2.63994 13.185 3.36744 13.6125L7.82244 16.185C8.54994 16.605 9.44994 16.605 10.1849 16.185L14.6399 13.6125C15.3674 13.1925 15.8174 12.4125 15.8174 11.565V6.435C15.8099 5.5875 15.3599 4.815 14.6324 4.3875ZM8.99994 5.505C9.96744 5.505 10.7474 6.285 10.7474 7.2525C10.7474 8.22 9.96744 9 8.99994 9C8.03244 9 7.25244 8.22 7.25244 7.2525C7.25244 6.2925 8.03244 5.505 8.99994 5.505ZM11.0099 12.495H6.98994C6.38244 12.495 6.02994 11.82 6.36744 11.3175C6.87744 10.56 7.86744 10.05 8.99994 10.05C10.1324 10.05 11.1224 10.56 11.6324 11.3175C11.9699 11.8125 11.6099 12.495 11.0099 12.495Z" fill="#3B3848"/>
</svg>
