<svg width="16" height="16" viewBox="0 0 16 16" fill="none" xmlns="http://www.w3.org/2000/svg">
<path d="M9.68661 6.31328L6.31328 9.68661C5.87995 9.25328 5.61328 8.65995 5.61328 7.99995C5.61328 6.67995 6.67995 5.61328 7.99995 5.61328C8.65995 5.61328 9.25328 5.87995 9.68661 6.31328Z" stroke="#B3B0BE" stroke-linecap="round" stroke-linejoin="round"/>
<path d="M11.8801 3.84633C10.7135 2.96633 9.38014 2.48633 8.00014 2.48633C5.64681 2.48633 3.45347 3.87299 1.92681 6.27299C1.32681 7.21299 1.32681 8.793 1.92681 9.733C2.45347 10.5597 3.06681 11.273 3.73347 11.8463" stroke="#B3B0BE" stroke-linecap="round" stroke-linejoin="round"/>
<path d="M5.61328 13.0195C6.37328 13.3395 7.17995 13.5128 7.99995 13.5128C10.3533 13.5128 12.5466 12.1261 14.0733 9.72613C14.6733 8.78613 14.6733 7.20613 14.0733 6.26613C13.8533 5.91947 13.6133 5.5928 13.3666 5.28613" stroke="#B3B0BE" stroke-linecap="round" stroke-linejoin="round"/>
<path d="M10.34 8.4668C10.1666 9.4068 9.39996 10.1735 8.45996 10.3468" stroke="#B3B0BE" stroke-linecap="round" stroke-linejoin="round"/>
<path d="M6.31325 9.68652L1.33325 14.6665" stroke="#B3B0BE" stroke-linecap="round" stroke-linejoin="round"/>
<path d="M14.6668 1.33301L9.68677 6.31301" stroke="#B3B0BE" stroke-linecap="round" stroke-linejoin="round"/>
</svg>
