<svg width="18" height="18" viewBox="0 0 18 18" fill="none" xmlns="http://www.w3.org/2000/svg">
<path d="M15.7491 7.59H10.6641L12.7191 5.475C10.6716 3.45 7.35659 3.375 5.30909 5.4C3.26159 7.4325 3.26159 10.71 5.30909 12.75C7.35659 14.775 10.6716 14.775 12.7191 12.75C13.7391 11.7375 14.2491 10.56 14.2491 9.075H15.7491C15.7491 10.56 15.0891 12.4875 13.7691 13.7925C11.1366 16.4025 6.86159 16.4025 4.22909 13.7925C1.60409 11.19 1.58159 6.96 4.21409 4.3575C6.84659 1.755 11.0691 1.755 13.7016 4.3575L15.7491 2.25V7.59ZM9.37409 6V9.1875L11.9991 10.7475L11.4591 11.655L8.24909 9.75V6H9.37409Z" fill="#3B3848"/>
</svg>
