<svg width="91" height="109" viewBox="0 0 91 109" fill="none" xmlns="http://www.w3.org/2000/svg">
<path d="M46.3721 1.10156C56.3878 6.13144 72.2128 13.5787 85.7568 15.6309C87.3752 16.2182 88.4389 17.2122 89.1104 18.5273C89.7953 19.8691 90.0869 21.5751 90.0869 23.5811V23.6064L90.0889 23.6318L90.0898 23.6328C90.0899 23.6337 90.0897 23.635 90.0898 23.6367C90.0902 23.6405 90.091 23.6465 90.0918 23.6543C90.0934 23.6701 90.0956 23.6946 90.0986 23.7266C90.1047 23.7904 90.113 23.8859 90.124 24.0117C90.146 24.2638 90.1775 24.6379 90.2119 25.1221C90.2808 26.0905 90.3643 27.5004 90.4238 29.2627C90.5429 32.7881 90.5645 37.721 90.1748 43.3477C89.4188 54.2625 87.1182 67.7333 81.0234 78.6133L80.4219 79.6572V79.6582C67.9241 100.763 47.3603 107.336 45.5 107.895C43.6701 107.345 23.743 100.976 11.1973 80.6807L10.5781 79.6582V79.6572C4.03196 68.6044 1.60554 54.6144 0.825195 43.3477C0.435495 37.721 0.457123 32.7881 0.576172 29.2627C0.635682 27.5004 0.719231 26.0905 0.788086 25.1221C0.822514 24.6379 0.853963 24.2638 0.875977 24.0117C0.886961 23.8859 0.895311 23.7904 0.901367 23.7266C0.904397 23.6946 0.906641 23.6701 0.908203 23.6543C0.908975 23.6465 0.909774 23.6405 0.910156 23.6367C0.910328 23.635 0.910068 23.6337 0.910156 23.6328L0.911133 23.6318L0.913086 23.6064V23.5811C0.913086 21.5751 1.20465 19.8691 1.88965 18.5273C2.56101 17.2125 3.62431 16.2183 5.24219 15.6309C18.7864 13.5789 34.612 6.13156 44.6279 1.10156H46.3721Z" fill="url(#paint0_linear_35_3170)" stroke="url(#paint1_linear_35_3170)"/>
<path d="M45.4995 6.26025C54.5772 10.8183 69.6683 17.5129 81.851 19.3638C83.2973 19.8924 84.2463 20.7826 84.8462 21.9604C85.4602 23.1662 85.7231 24.7026 85.7231 26.5171V26.5425L85.7251 26.5679V26.5688C85.7251 26.5696 85.7259 26.571 85.726 26.5728C85.7264 26.5762 85.7263 26.5814 85.727 26.5884C85.7284 26.6026 85.7311 26.6242 85.7339 26.6528C85.7393 26.7105 85.7474 26.7976 85.7573 26.9116C85.7772 27.1397 85.8043 27.4782 85.8354 27.9165C85.8976 28.7931 85.974 30.0699 86.0278 31.6655C86.1354 34.8575 86.1549 39.324 85.8032 44.4185C85.1208 54.3025 83.044 66.4964 77.5444 76.3433L77.0014 77.2886C65.757 96.3295 47.2801 102.301 45.4995 102.84C43.7471 102.309 25.8437 96.5196 14.5571 78.2134L13.9985 77.2886C8.09152 67.287 5.90116 54.6227 5.19675 44.4194C4.84502 39.3246 4.86458 34.8578 4.97214 31.6655C5.02591 30.0698 5.10137 28.7932 5.16354 27.9165C5.19463 27.4782 5.2218 27.1398 5.24167 26.9116C5.2516 26.7976 5.25964 26.7106 5.26511 26.6528C5.26782 26.6242 5.27054 26.6026 5.27194 26.5884C5.27262 26.5814 5.27258 26.5762 5.27292 26.5728C5.27309 26.571 5.27382 26.5696 5.2739 26.5688V26.5679L5.27682 26.5425V26.5171C5.27683 24.7026 5.53883 23.1661 6.1528 21.9604C6.75264 20.7827 7.70175 19.8924 9.14792 19.3638C21.3306 17.5129 36.4217 10.8183 45.4995 6.26025Z" fill="url(#paint2_linear_35_3170)" stroke="url(#paint3_linear_35_3170)"/>
<path d="M45.6924 32.2695C50.1001 32.2697 53.6924 35.832 53.6924 40.2178V46.2354H55.7441C57.8584 46.2354 59.5771 47.9368 59.5771 50.0449V63.5869C59.5771 65.6914 57.8587 67.3965 55.7441 67.3965H35.2627C33.1521 67.3964 31.4307 65.6953 31.4307 63.5869V50.0449C31.4307 47.9405 33.1482 46.2355 35.2627 46.2354H37.3154V39.8047C37.3154 35.6466 40.7209 32.2695 44.8994 32.2695H45.6924ZM44.8994 36.5791C43.1018 36.5791 41.6475 38.0306 41.6475 39.8047V46.2354H49.3594V40.2178C49.3594 38.2163 47.7162 36.5793 45.6924 36.5791H44.8994Z" fill="url(#paint4_linear_35_3170)" stroke="url(#paint5_linear_35_3170)"/>
<path d="M44.7986 56.8247L44.5467 56.6812C43.9706 56.3524 43.5868 55.7392 43.5867 55.0396C43.5867 53.9946 44.4411 53.1411 45.5018 53.1411C46.5623 53.1412 47.4168 53.9947 47.4168 55.0396V55.187C47.367 55.8247 46.9979 56.3757 46.4627 56.6812L46.2108 56.8247V60.9224C46.2107 61.3035 45.8969 61.6196 45.5047 61.6196C45.1125 61.6196 44.7987 61.3035 44.7986 60.9224V56.8247Z" fill="url(#paint6_linear_35_3170)" stroke="url(#paint7_linear_35_3170)"/>
<defs>
<linearGradient id="paint0_linear_35_3170" x1="-0.184449" y1="88.4266" x2="90.5518" y2="17.0527" gradientUnits="userSpaceOnUse">
<stop offset="0.0552677" stop-color="#141319"/>
<stop offset="0.3235" stop-color="#18171D"/>
<stop offset="0.7271" stop-color="#24242E"/>
<stop offset="1" stop-color="#2C2C38"/>
</linearGradient>
<linearGradient id="paint1_linear_35_3170" x1="45.5" y1="0.601562" x2="45.5" y2="108.417" gradientUnits="userSpaceOnUse">
<stop stop-color="#4C4C58"/>
<stop offset="1" stop-color="#15141A" stop-opacity="0"/>
</linearGradient>
<linearGradient id="paint2_linear_35_3170" x1="4.2362" y1="85.2554" x2="86.3703" y2="20.8322" gradientUnits="userSpaceOnUse">
<stop offset="0.0552677" stop-color="#141319"/>
<stop offset="0.3235" stop-color="#18171D"/>
<stop offset="0.7271" stop-color="#24242E"/>
<stop offset="1" stop-color="#2C2C38"/>
</linearGradient>
<linearGradient id="paint3_linear_35_3170" x1="45.4996" y1="5.70264" x2="45.4996" y2="103.363" gradientUnits="userSpaceOnUse">
<stop stop-color="#4C4C58"/>
<stop offset="1" stop-color="#15141A" stop-opacity="0"/>
</linearGradient>
<linearGradient id="paint4_linear_35_3170" x1="45.5037" y1="32.7695" x2="45.5037" y2="66.8966" gradientUnits="userSpaceOnUse">
<stop stop-color="#EDB258"/>
<stop offset="1" stop-color="#E69D2B"/>
</linearGradient>
<linearGradient id="paint5_linear_35_3170" x1="45.5037" y1="32.7695" x2="45.5037" y2="66.8966" gradientUnits="userSpaceOnUse">
<stop stop-color="#F5D38C"/>
<stop offset="1" stop-color="#CF7A1D"/>
</linearGradient>
<linearGradient id="paint6_linear_35_3170" x1="43.0769" y1="60.3623" x2="49.4433" y2="57.3351" gradientUnits="userSpaceOnUse">
<stop offset="0.0552677" stop-color="#141319"/>
<stop offset="0.3235" stop-color="#18171D"/>
<stop offset="0.7271" stop-color="#24242E"/>
<stop offset="1" stop-color="#2C2C38"/>
</linearGradient>
<linearGradient id="paint7_linear_35_3170" x1="45.5048" y1="52.6411" x2="45.5048" y2="62.1198" gradientUnits="userSpaceOnUse">
<stop stop-color="#4C4C58"/>
<stop offset="1" stop-color="#15141A" stop-opacity="0"/>
</linearGradient>
</defs>
</svg>
