<svg width="78" height="92" viewBox="0 0 78 92" fill="none" xmlns="http://www.w3.org/2000/svg">
<path d="M10.1816 33.8704C-0.566569 44.8211 -3.87148 58.3184 5.48286 69.2981C11.1443 75.9413 27.4965 81.755 37.2029 70.1713C36.6425 78.2769 24.3568 89.9479 20.9441 91.9998H25.7147H38.999H52.2833L56.3067 91.9634C52.894 89.9043 41.3627 78.2769 40.8023 70.1713C50.5087 81.7622 66.8609 75.9486 72.5223 69.2981C81.8695 58.3257 78.5646 44.8211 67.8236 33.8704C66.3076 32.3279 64.8061 30.8508 63.326 29.4028C88.0626 60.494 50.1998 88.0489 39.0062 63.4117C27.8629 87.9543 -9.80596 60.705 14.4564 29.6939C12.9764 31.0982 11.5395 32.4807 10.1816 33.8704Z" fill="url(#paint0_linear_123_10723)"/>
<path d="M10.1816 33.8704C-0.566569 44.8211 -3.87148 58.3184 5.48286 69.2981C11.1443 75.9413 27.4965 81.755 37.2029 70.1713C36.6425 78.2769 24.3568 89.9479 20.9441 91.9998H25.7147H38.999H52.2833L56.3067 91.9634C52.894 89.9043 41.3627 78.2769 40.8023 70.1713C50.5087 81.7622 66.8609 75.9486 72.5223 69.2981C81.8695 58.3257 78.5646 44.8211 67.8236 33.8704C66.3076 32.3279 64.8061 30.8508 63.326 29.4028C88.0626 60.494 50.1998 88.0489 39.0062 63.4117C27.8629 87.9543 -9.80596 60.705 14.4564 29.6939C12.9764 31.0982 11.5395 32.4807 10.1816 33.8704Z" fill="#00FFC4" style="mix-blend-mode:color"/>
<path d="M16.5112 30.7782C10.2031 37.807 7.18557 46.0655 9.18289 53.7128C10.2893 49.1579 12.847 44.6539 16.5112 40.572C24.0981 32.1243 34.5876 23.7276 38.9918 9.79374C43.8845 23.5384 52.4485 30.5163 61.4724 40.572C65.1365 44.6539 67.6942 49.1579 68.8007 53.7128C70.8052 46.0655 67.7804 37.807 61.4724 30.7782C52.4557 20.7226 43.8917 13.7447 38.999 0C34.5876 13.9339 24.0981 22.3306 16.5112 30.7782Z" fill="url(#paint1_linear_123_10723)"/>
<path d="M16.5112 30.7782C10.2031 37.807 7.18557 46.0655 9.18289 53.7128C10.2893 49.1579 12.847 44.6539 16.5112 40.572C24.0981 32.1243 34.5876 23.7276 38.9918 9.79374C43.8845 23.5384 52.4485 30.5163 61.4724 40.572C65.1365 44.6539 67.6942 49.1579 68.8007 53.7128C70.8052 46.0655 67.7804 37.807 61.4724 30.7782C52.4557 20.7226 43.8917 13.7447 38.999 0C34.5876 13.9339 24.0981 22.3306 16.5112 30.7782Z" fill="#00FFC4" style="mix-blend-mode:color"/>
<defs>
<linearGradient id="paint0_linear_123_10723" x1="39" y1="29.4028" x2="39" y2="91.9998" gradientUnits="userSpaceOnUse">
<stop stop-color="#EFBA6B"/>
<stop offset="1" stop-color="#DC8D18"/>
</linearGradient>
<linearGradient id="paint1_linear_123_10723" x1="38.9932" y1="0" x2="38.9932" y2="53.7128" gradientUnits="userSpaceOnUse">
<stop stop-color="#EFBA6B"/>
<stop offset="1" stop-color="#DC8D18"/>
</linearGradient>
</defs>
</svg>
