<svg width="375" height="231" viewBox="0 0 375 231" fill="none" xmlns="http://www.w3.org/2000/svg">
<mask id="mask0_123_10703" style="mask-type:alpha" maskUnits="userSpaceOnUse" x="-50" y="0" width="475" height="231">
<rect x="-50" width="475" height="230.69" fill="url(#paint0_linear_123_10703)"/>
</mask>
<g mask="url(#mask0_123_10703)">
<path d="M71.1411 28.138C74.4102 26.5841 78.8463 28.4793 81.3325 32.8272L81.567 33.2552L164.613 202.847C165.738 205.151 166.017 207.589 165.582 209.645C165.175 211.573 164.15 213.138 162.634 213.987L162.325 214.148L162.319 214.15L49.6145 269.324C46.3454 270.877 41.9093 268.983 39.4231 264.635L39.1886 264.206L-43.8576 94.6151C-44.9824 92.3115 -45.261 89.8736 -44.8265 87.8173C-44.4191 85.8891 -43.3942 84.323 -41.8778 83.4743L-41.5689 83.3147L-41.5632 83.3123L71.1411 28.138Z" fill="url(#paint1_linear_123_10703)" stroke="url(#paint2_linear_123_10703)"/>
<path d="M50.6948 128.173L76.5749 140.392L76.9365 140.564L76.8501 140.953L70.6489 168.953L70.5139 169.567L69.947 169.297L44.1797 157.069L43.8212 156.898L43.9058 156.511L49.9931 128.519L50.126 127.905L50.6948 128.173Z" fill="url(#paint3_linear_123_10703)" stroke="url(#paint4_linear_123_10703)"/>
<path d="M165.879 2.4564C169.446 1.57838 173.407 4.43143 174.731 9.15493L174.851 9.61792L174.852 9.62366L220.779 192.834L220.779 192.835C221.37 195.319 221.159 197.75 220.332 199.664C219.559 201.457 218.258 202.776 216.579 203.308L216.238 203.403L216.236 203.404L94.3951 233.906C90.8279 234.784 86.8679 231.932 85.5436 227.208L85.4233 226.745L85.4221 226.74L39.4935 43.5224C38.9046 41.0406 39.1158 38.6115 39.9416 36.6989C40.7155 34.9066 42.0166 33.5882 43.696 33.0561L44.0362 32.9601L44.0381 32.9597L165.88 2.45716L165.879 2.4564Z" fill="url(#paint5_linear_123_10703)" stroke="url(#paint6_linear_123_10703)"/>
<path d="M152.147 118.035C152.234 118.482 152.302 118.921 152.322 119.433L152.323 119.434C152.59 124.048 149.488 128.321 144.85 129.503L144.848 129.503C139.584 130.813 134.182 127.659 132.825 122.408C132.734 122.493 132.639 122.578 132.537 122.66C133.212 124.564 134.368 127.673 135.668 130.557C136.36 132.091 137.087 133.551 137.799 134.729C138.523 135.928 139.191 136.765 139.744 137.129L140.701 137.76L139.588 138.033L131.371 140.049L130.249 140.324L130.815 139.318C131.149 138.725 131.355 137.671 131.433 136.277C131.511 134.906 131.463 133.283 131.347 131.611C131.127 128.451 130.662 125.157 130.357 123.129C130.229 123.098 130.101 123.063 129.976 123.029C131.191 128.271 128.011 133.609 122.761 134.916L122.752 134.918C118.103 135.989 113.432 133.674 111.435 129.553C111.091 129.021 110.845 128.373 110.71 127.715L110.711 127.715C109.406 122.428 112.599 117.007 117.895 115.689L117.903 115.686L118.283 115.605C119.515 115.363 120.58 115.378 121.465 115.503C120.107 114.364 118.593 112.538 117.886 109.638L117.776 109.142C116.771 104.01 119.93 98.871 125.068 97.5925L125.564 97.4812C130.694 96.4766 135.831 99.6333 137.113 104.767L137.245 105.321C137.819 107.996 137.346 110.145 136.714 111.683C137.529 111.099 138.617 110.528 140.06 110.152L140.065 110.151L140.562 110.04C145.698 109.034 150.838 112.208 152.052 117.571L152.054 117.581L152.147 118.035Z" fill="url(#paint7_linear_123_10703)" stroke="url(#paint8_linear_123_10703)"/>
<path d="M172.444 14.8174C173.067 9.68362 176.916 6.15146 180.554 6.58789V6.58691L305.076 22.6348L305.083 22.6357C306.979 22.8546 308.581 24.0594 309.644 25.8809C310.707 27.7038 311.211 30.1202 310.902 32.6699L286.672 219.938L286.671 219.941C286.049 225.075 282.199 228.607 278.562 228.171H278.561L154.039 212.124L154.032 212.123L153.681 212.071C151.938 211.752 150.469 210.586 149.473 208.878C148.409 207.055 147.904 204.639 148.213 202.089L148.212 202.088L172.443 14.8213L172.444 14.8174Z" fill="url(#paint9_linear_123_10703)" stroke="url(#paint10_linear_123_10703)"/>
<path d="M211.137 107.582C211.993 100.759 217.254 97.2978 222.635 97.8359H222.639L223.09 97.8936C227.067 98.4643 230.745 100.833 231.731 104.335C232.522 102.999 233.756 101.981 235.208 101.298C237.112 100.403 239.412 100.069 241.663 100.337L242.113 100.398L242.116 100.399L242.607 100.491C247.65 101.552 251.651 106.114 250.72 112.734L250.719 112.733C250.342 115.89 248.789 118.44 246.618 120.689C244.453 122.933 241.647 124.905 238.735 126.897L238.732 126.899C232.816 130.878 229.453 133.732 228.13 134.852L227.715 135.202L227.399 134.76C226.377 133.328 223.933 129.763 219.14 124.359L219.136 124.355C216.837 121.698 214.628 119.077 213.102 116.352C211.571 113.616 210.708 110.742 211.136 107.582H211.137Z" fill="url(#paint11_linear_123_10703)" stroke="url(#paint12_linear_123_10703)"/>
<path d="M291.332 42.5205C292.991 37.6933 297.053 35.0898 300.632 35.9961L300.976 36.0947L419.879 76.5303V76.5312L419.886 76.5332C421.71 77.1169 423.056 78.6213 423.739 80.6123C424.379 82.4799 424.425 84.7514 423.729 86.9961L423.578 87.4502L362.598 266.216C360.939 271.043 356.877 273.646 353.299 272.74L352.954 272.642L234.213 232.206L234.21 232.205L233.886 232.085C232.297 231.433 231.071 229.992 230.411 228.12C229.752 226.25 229.673 223.979 230.362 221.739L230.51 221.292L230.512 221.286L291.331 42.5195L291.332 42.5205Z" fill="url(#paint13_linear_123_10703)" stroke="url(#paint14_linear_123_10703)"/>
<path d="M333.546 134.912V134.917C333.547 134.922 333.548 134.932 333.549 134.945C333.552 134.972 333.558 135.015 333.566 135.074C333.582 135.192 333.61 135.374 333.659 135.621C333.756 136.115 333.933 136.87 334.252 137.893C334.891 139.937 336.099 143.05 338.37 147.284L339.697 149.761C340.982 152.193 342.116 154.501 342.859 156.739C343.854 159.738 344.162 162.658 343.184 165.648L343.183 165.65C341.485 170.743 336.092 173.462 330.993 172.039L330.5 171.889C327.645 170.937 325.157 168.992 323.949 166.521C323.702 167.95 323.484 169.493 323.406 170.947C323.348 172.006 323.366 173.003 323.494 173.863C323.622 174.729 323.858 175.419 324.206 175.898L325.136 177.177L323.641 176.666L315.122 173.757L313.664 173.259L315.137 172.806C315.707 172.63 316.315 172.222 316.946 171.611C317.572 171.005 318.194 170.226 318.793 169.353C319.629 168.135 320.403 166.756 321.078 165.454C318.663 166.653 315.656 166.718 312.862 165.865L312.529 165.759C307.272 164.006 304.545 158.316 306.291 153.076L306.487 152.534C307.522 149.871 309.419 147.893 311.859 146.226C314.449 144.455 317.689 143.008 321.211 141.454L321.213 141.453L322.018 141.097C325.956 139.329 328.591 137.742 330.255 136.58C331.143 135.961 331.754 135.462 332.141 135.122C332.334 134.952 332.472 134.822 332.559 134.736C332.602 134.694 332.633 134.662 332.653 134.642C332.662 134.632 332.669 134.624 332.673 134.62L332.676 134.616L333.456 133.749L333.546 134.912Z" fill="url(#paint15_linear_123_10703)" stroke="url(#paint16_linear_123_10703)"/>
</g>
<defs>
<linearGradient id="paint0_linear_123_10703" x1="187.5" y1="124.697" x2="187.5" y2="191.41" gradientUnits="userSpaceOnUse">
<stop stop-color="#D9D9D9"/>
<stop offset="1" stop-color="#737373" stop-opacity="0"/>
</linearGradient>
<linearGradient id="paint1_linear_123_10703" x1="-33.8038" y1="232.588" x2="153.867" y2="58.6135" gradientUnits="userSpaceOnUse">
<stop offset="0.0552677" stop-color="#141319"/>
<stop offset="0.3235" stop-color="#18171D"/>
<stop offset="0.7271" stop-color="#24242E"/>
<stop offset="1" stop-color="#2C2C38"/>
</linearGradient>
<linearGradient id="paint2_linear_123_10703" x1="50.1873" y1="29.0658" x2="70.5686" y2="268.396" gradientUnits="userSpaceOnUse">
<stop stop-color="#4C4C58"/>
<stop offset="1" stop-color="#15141A" stop-opacity="0"/>
</linearGradient>
<linearGradient id="paint3_linear_123_10703" x1="58.6068" y1="127.934" x2="62.149" y2="169.528" gradientUnits="userSpaceOnUse">
<stop stop-color="#EDB258"/>
<stop offset="1" stop-color="#E69D2B"/>
</linearGradient>
<linearGradient id="paint4_linear_123_10703" x1="58.6068" y1="127.934" x2="62.149" y2="169.528" gradientUnits="userSpaceOnUse">
<stop stop-color="#F5D38C"/>
<stop offset="1" stop-color="#CF7A1D"/>
</linearGradient>
<linearGradient id="paint5_linear_123_10703" x1="70.6789" y1="198.931" x2="213.787" y2="57.7634" gradientUnits="userSpaceOnUse">
<stop offset="0.0552677" stop-color="#141319"/>
<stop offset="0.3235" stop-color="#18171D"/>
<stop offset="0.7271" stop-color="#24242E"/>
<stop offset="1" stop-color="#2C2C38"/>
</linearGradient>
<linearGradient id="paint6_linear_123_10703" x1="108.625" y1="13.7354" x2="151.65" y2="222.628" gradientUnits="userSpaceOnUse">
<stop stop-color="#4C4C58"/>
<stop offset="1" stop-color="#15141A" stop-opacity="0"/>
</linearGradient>
<linearGradient id="paint7_linear_123_10703" x1="126.27" y1="97.8464" x2="134.715" y2="138.85" gradientUnits="userSpaceOnUse">
<stop stop-color="#EDB258"/>
<stop offset="1" stop-color="#E69D2B"/>
</linearGradient>
<linearGradient id="paint8_linear_123_10703" x1="126.27" y1="97.8464" x2="134.715" y2="138.85" gradientUnits="userSpaceOnUse">
<stop stop-color="#F5D38C"/>
<stop offset="1" stop-color="#CF7A1D"/>
</linearGradient>
<linearGradient id="paint9_linear_123_10703" x1="147.291" y1="187.425" x2="327.164" y2="64.0506" gradientUnits="userSpaceOnUse">
<stop offset="0.0552677" stop-color="#141319"/>
<stop offset="0.3235" stop-color="#18171D"/>
<stop offset="0.7271" stop-color="#24242E"/>
<stop offset="1" stop-color="#2C2C38"/>
</linearGradient>
<linearGradient id="paint10_linear_123_10703" x1="229.558" y1="6.05078" x2="229.558" y2="228.708" gradientUnits="userSpaceOnUse">
<stop stop-color="#4C4C58"/>
<stop offset="1" stop-color="#15141A" stop-opacity="0"/>
</linearGradient>
<linearGradient id="paint11_linear_123_10703" x1="230.941" y1="98.2812" x2="230.941" y2="134.47" gradientUnits="userSpaceOnUse">
<stop stop-color="#EDB258"/>
<stop offset="1" stop-color="#E69D2B"/>
</linearGradient>
<linearGradient id="paint12_linear_123_10703" x1="230.941" y1="98.2812" x2="230.941" y2="134.47" gradientUnits="userSpaceOnUse">
<stop stop-color="#F5D38C"/>
<stop offset="1" stop-color="#CF7A1D"/>
</linearGradient>
<linearGradient id="paint13_linear_123_10703" x1="228.984" y1="229.274" x2="427.964" y2="77.1284" gradientUnits="userSpaceOnUse">
<stop offset="0.0552677" stop-color="#141319"/>
<stop offset="0.3235" stop-color="#18171D"/>
<stop offset="0.7271" stop-color="#24242E"/>
<stop offset="1" stop-color="#2C2C38"/>
</linearGradient>
<linearGradient id="paint14_linear_123_10703" x1="327.057" y1="35.3145" x2="327.057" y2="273.422" gradientUnits="userSpaceOnUse">
<stop stop-color="#4C4C58"/>
<stop offset="1" stop-color="#15141A" stop-opacity="0"/>
</linearGradient>
<linearGradient id="paint15_linear_123_10703" x1="324.772" y1="134.951" x2="324.772" y2="176.193" gradientUnits="userSpaceOnUse">
<stop stop-color="#EDB258"/>
<stop offset="1" stop-color="#E69D2B"/>
</linearGradient>
<linearGradient id="paint16_linear_123_10703" x1="324.772" y1="134.951" x2="324.772" y2="176.193" gradientUnits="userSpaceOnUse">
<stop stop-color="#F5D38C"/>
<stop offset="1" stop-color="#CF7A1D"/>
</linearGradient>
</defs>
</svg>
