<svg width="206" height="245" viewBox="0 0 206 245" fill="none" xmlns="http://www.w3.org/2000/svg">
<path d="M105.122 1.26611C127.814 12.6665 163.678 29.5586 194.305 34.1792C198.14 35.5607 200.686 37.9247 202.285 41.0571C203.899 44.2185 204.564 48.1922 204.564 52.7847V52.8101L204.566 52.8354L205.064 52.7847L204.567 52.8364V52.8384C204.568 52.8406 204.568 52.8446 204.568 52.8491L204.588 53.0542C204.602 53.2002 204.622 53.4187 204.647 53.7056C204.698 54.2795 204.768 55.1294 204.846 56.229C205.002 58.4282 205.192 61.6284 205.327 65.6265C205.597 73.6235 205.646 84.8125 204.762 97.5757C203.02 122.717 197.663 153.911 183.289 178.867L182.598 180.05C153.704 228.842 105.86 243.471 103 244.31C100.163 243.478 53.0617 229.076 24.1025 181.219L23.4023 180.05C8.50853 154.903 3.00724 123.116 1.23828 97.5757C0.354305 84.8125 0.40281 73.6235 0.672852 65.6265C0.807863 61.6284 0.997922 58.4282 1.1543 56.229C1.23249 55.1294 1.30242 54.2795 1.35254 53.7056C1.37759 53.4187 1.39825 53.2002 1.41211 53.0542L1.43164 52.8491C1.4321 52.8446 1.43239 52.8406 1.43262 52.8384V52.8364C1.4289 52.8357 1.38764 52.8309 0.935547 52.7847L1.43262 52.8354L1.43555 52.8101V52.7847C1.43556 48.1922 2.10072 44.2185 3.71484 41.0571C5.31414 37.9249 7.85928 35.5608 11.6943 34.1792C42.3208 29.5588 78.1855 12.6667 100.878 1.26611H105.122Z" fill="url(#paint0_linear_123_8133)" stroke="url(#paint1_linear_123_8133)"/>
<path d="M102.999 12.8726C123.526 23.198 157.837 38.4439 185.446 42.6235C188.902 43.8716 191.193 46.0032 192.633 48.8296C194.086 51.6829 194.686 55.2734 194.686 59.4321V59.4575L194.688 59.4829L195.186 59.4321L194.688 59.4839V59.4858C194.689 59.4877 194.689 59.4908 194.689 59.4946C194.69 59.5027 194.692 59.5154 194.693 59.5317C194.697 59.5648 194.701 59.6151 194.707 59.6812C194.72 59.8133 194.738 60.0112 194.761 60.271C194.806 60.7906 194.869 61.5597 194.939 62.5552C195.081 64.5466 195.253 67.4442 195.375 71.0649C195.619 78.3072 195.663 88.4405 194.865 99.9995C193.293 122.77 188.455 151.018 175.479 173.615L174.854 174.686C148.824 218.766 105.764 232.051 102.999 232.868C100.256 232.057 57.8657 218.971 31.7764 175.745L31.1436 174.686C17.6973 151.919 12.7298 123.134 11.1328 100.001C10.3348 88.4422 10.379 78.3087 10.623 71.0659C10.7451 67.4448 10.9173 64.5468 11.0586 62.5552C11.1292 61.5597 11.1921 60.7906 11.2373 60.271C11.2599 60.0112 11.2785 59.8134 11.291 59.6812C11.2973 59.6151 11.3014 59.5648 11.3047 59.5317C11.3063 59.5154 11.3078 59.5027 11.3086 59.4946C11.309 59.4907 11.3094 59.4877 11.3096 59.4858V59.4839C11.3074 59.4833 11.2754 59.4793 10.8125 59.4321L11.3096 59.4829L11.3125 59.4575V59.4321C11.3125 55.2734 11.912 51.6829 13.3652 48.8296C14.8046 46.0035 17.0954 43.8716 20.5508 42.6235C48.1604 38.4441 82.4714 23.1981 102.999 12.8726Z" fill="url(#paint2_linear_123_8133)" stroke="url(#paint3_linear_123_8133)"/>
<path d="M103.435 73.0859C113.068 73.086 120.912 80.8712 120.913 90.4463V104.701H126.191C130.632 104.701 134.234 108.273 134.234 112.692V143.35C134.234 147.761 130.632 151.341 126.191 151.341H79.8257C75.3923 151.341 71.7828 147.769 71.7827 143.35V112.692C71.7827 108.281 75.3842 104.701 79.8257 104.701H85.104V89.5117C85.104 80.452 92.526 73.0859 101.64 73.0859H103.435ZM101.64 81.5771C97.2256 81.5771 93.647 85.1429 93.647 89.5117V104.701H112.37V90.4463C112.369 85.5624 108.361 81.5772 103.435 81.5771H101.64Z" fill="url(#paint4_linear_123_8133)" stroke="url(#paint5_linear_123_8133)"/>
<path d="M100.781 128.407L100.529 128.264C99.038 127.413 98.0371 125.82 98.0371 123.998C98.0371 121.279 100.258 119.069 103.004 119.069C105.75 119.07 107.97 121.28 107.97 123.998V124.372C107.843 126.037 106.881 127.471 105.493 128.264L105.24 128.407V137.315C105.24 138.531 104.244 139.526 103.011 139.526C101.778 139.526 100.781 138.531 100.781 137.315V128.407Z" fill="url(#paint6_linear_123_8133)" stroke="url(#paint7_linear_123_8133)"/>
<defs>
<linearGradient id="paint0_linear_123_8133" x1="-0.417544" y1="199.579" x2="204.985" y2="38.0071" gradientUnits="userSpaceOnUse">
<stop offset="0.0552677" stop-color="#141319"/>
<stop offset="0.3235" stop-color="#18171D"/>
<stop offset="0.7271" stop-color="#24242E"/>
<stop offset="1" stop-color="#2C2C38"/>
</linearGradient>
<linearGradient id="paint1_linear_123_8133" x1="103" y1="0.766113" x2="103" y2="244.831" gradientUnits="userSpaceOnUse">
<stop stop-color="#4C4C58"/>
<stop offset="1" stop-color="#15141A" stop-opacity="0"/>
</linearGradient>
<linearGradient id="paint2_linear_123_8133" x1="9.58966" y1="192.4" x2="195.52" y2="46.5633" gradientUnits="userSpaceOnUse">
<stop offset="0.0552677" stop-color="#141319"/>
<stop offset="0.3235" stop-color="#18171D"/>
<stop offset="0.7271" stop-color="#24242E"/>
<stop offset="1" stop-color="#2C2C38"/>
</linearGradient>
<linearGradient id="paint3_linear_123_8133" x1="102.999" y1="12.314" x2="102.999" y2="233.391" gradientUnits="userSpaceOnUse">
<stop stop-color="#4C4C58"/>
<stop offset="1" stop-color="#15141A" stop-opacity="0"/>
</linearGradient>
<linearGradient id="paint4_linear_123_8133" x1="103.008" y1="73.5859" x2="103.008" y2="150.841" gradientUnits="userSpaceOnUse">
<stop stop-color="#EDB258"/>
<stop offset="1" stop-color="#E69D2B"/>
</linearGradient>
<linearGradient id="paint5_linear_123_8133" x1="103.008" y1="73.5859" x2="103.008" y2="150.841" gradientUnits="userSpaceOnUse">
<stop stop-color="#F5D38C"/>
<stop offset="1" stop-color="#CF7A1D"/>
</linearGradient>
<linearGradient id="paint6_linear_123_8133" x1="97.5149" y1="136.048" x2="111.927" y2="129.195" gradientUnits="userSpaceOnUse">
<stop offset="0.0552677" stop-color="#141319"/>
<stop offset="0.3235" stop-color="#18171D"/>
<stop offset="0.7271" stop-color="#24242E"/>
<stop offset="1" stop-color="#2C2C38"/>
</linearGradient>
<linearGradient id="paint7_linear_123_8133" x1="103.011" y1="118.569" x2="103.011" y2="140.027" gradientUnits="userSpaceOnUse">
<stop stop-color="#4C4C58"/>
<stop offset="1" stop-color="#15141A" stop-opacity="0"/>
</linearGradient>
</defs>
</svg>
