<svg width="296" height="210" viewBox="0 0 296 210" fill="none" xmlns="http://www.w3.org/2000/svg">
<mask id="mask0_123_8171" style="mask-type:alpha" maskUnits="userSpaceOnUse" x="0" y="0" width="296" height="210">
<rect width="296" height="210" fill="url(#paint0_linear_123_8171)"/>
</mask>
<g mask="url(#mask0_123_8171)">
<path d="M90.9842 24.1638C93.3561 23.0363 96.6254 24.4006 98.4725 27.6317L98.6466 27.9501L160.98 155.244L160.98 155.245C161.814 156.951 162.018 158.753 161.698 160.268C161.398 161.687 160.647 162.828 159.546 163.444L159.322 163.56L159.316 163.563L74.7192 204.977C72.3475 206.104 69.0781 204.74 67.2309 201.509L67.0567 201.19L4.72206 73.8951L4.72303 73.895C3.88991 72.1889 3.68521 70.3868 4.0052 68.8724C4.30528 67.4526 5.05684 66.3119 6.15749 65.6959L6.38281 65.5796L6.38751 65.5773L90.9842 24.1638Z" fill="url(#paint1_linear_123_8171)" stroke="url(#paint2_linear_123_8171)"/>
<path d="M75.637 99.0266L95.0625 108.199L95.424 108.37L95.3376 108.759L90.6833 129.777L90.5473 130.389L89.9805 130.121L70.6397 120.942L70.2812 120.771L70.3657 120.383L74.9344 99.3727L75.0683 98.7585L75.637 99.0266Z" fill="url(#paint3_linear_123_8171)" stroke="url(#paint4_linear_123_8171)"/>
<path d="M152.983 4.89427C155.571 4.25724 158.495 6.32823 159.478 9.83415L159.567 10.1776L159.569 10.1834L194.044 147.71C194.479 149.549 194.322 151.344 193.714 152.752C193.144 154.071 192.192 155.031 190.972 155.417L190.725 155.487L190.723 155.487L99.266 178.383C96.6783 179.019 93.7554 176.949 92.7728 173.444L92.6841 173.1L92.682 173.094L58.207 35.5673C57.7712 33.7285 57.9297 31.9337 58.5376 30.5258C59.1072 29.2066 60.059 28.2469 61.2789 27.8604L61.5267 27.7904L61.5277 27.7902L152.985 4.89503L152.983 4.89427Z" fill="url(#paint5_linear_123_8171)" stroke="url(#paint6_linear_123_8171)"/>
<path d="M126.172 95.4515C126.188 95.5306 126.201 95.6099 126.215 95.6889C126.203 95.6084 126.192 95.53 126.18 95.4538C126.177 95.4531 126.175 95.4522 126.172 95.4515ZM128.074 95.0398C128.078 95.0496 128.082 95.0594 128.085 95.0694C128.082 95.0587 128.08 95.0479 128.076 95.0372C128.076 95.038 128.075 95.039 128.074 95.0398ZM142.769 91.5056C142.834 91.8428 142.887 92.1787 142.902 92.5709L142.903 92.5716C143.107 96.0956 140.739 99.3549 137.201 100.257L137.198 100.258C133.555 101.164 129.824 99.2695 128.388 95.9172C128.901 97.3133 129.612 99.1485 130.391 100.876C130.909 102.025 131.453 103.117 131.984 103.996C132.527 104.895 133.015 105.501 133.405 105.758L134.363 106.387L133.249 106.66L127.081 108.174L125.96 108.449L126.526 107.443C126.761 107.024 126.915 106.259 126.974 105.215C127.032 104.193 126.996 102.981 126.909 101.729C126.767 99.681 126.486 97.5568 126.265 96.0355C126.727 99.7697 124.365 103.388 120.619 104.32L120.611 104.323C117.068 105.139 113.506 103.377 111.98 100.237C111.713 99.8233 111.525 99.3235 111.421 98.8197L111.422 98.8195C110.43 94.7874 112.865 90.6525 116.907 89.6465L116.914 89.6451L117.204 89.5824C117.968 89.4323 118.648 89.4154 119.239 89.4642C118.287 88.5858 117.296 87.2549 116.809 85.2566L116.725 84.8771C115.958 80.9616 118.368 77.0398 122.29 76.0635L122.669 75.9784C126.583 75.212 130.503 77.6192 131.482 81.5376L131.583 81.9595C131.976 83.7922 131.724 85.3028 131.318 86.4419C131.897 86.0755 132.625 85.7299 133.542 85.4913L133.547 85.4903L133.927 85.4061C137.847 84.6386 141.77 87.0601 142.697 91.1525L142.7 91.1619L142.769 91.5056Z" fill="url(#paint7_linear_123_8171)" stroke="url(#paint8_linear_123_8171)"/>
<path d="M132.163 14.0659C132.625 10.2529 135.475 7.68207 138.112 7.99854V7.99756L231.58 20.0435H231.585C232.962 20.2022 234.133 21.0774 234.916 22.4185C235.699 23.7612 236.073 25.5476 235.844 27.437L217.657 168.002L217.656 168.006C217.194 171.82 214.345 174.391 211.708 174.075H211.707L118.24 162.03L118.233 162.029L117.977 161.991C116.712 161.759 115.637 160.911 114.904 159.654C114.121 158.312 113.746 156.528 113.974 154.64L132.163 14.0708V14.0659Z" fill="url(#paint9_linear_123_8171)" stroke="url(#paint10_linear_123_8171)"/>
<path d="M160.959 83.665C161.611 78.4765 165.621 75.8326 169.726 76.2432H169.73L170.072 76.2861C172.985 76.7043 175.718 78.4023 176.58 80.9482C177.188 80.0353 178.074 79.3335 179.097 78.8525C180.549 78.1697 182.3 77.9161 184.011 78.1201L184.353 78.167L184.356 78.168L184.731 78.2373C188.577 79.0466 191.627 82.5293 190.918 87.5674L190.917 87.5664C190.63 89.9698 189.447 91.9076 187.805 93.6084C186.17 95.3026 184.053 96.7894 181.869 98.2842L181.866 98.2861C177.431 101.268 174.91 103.407 173.918 104.246L173.503 104.597L173.188 104.155C172.421 103.082 170.589 100.41 166.997 96.3584L166.993 96.3545C165.268 94.3611 163.601 92.3846 162.449 90.3262C161.291 88.2574 160.632 86.0718 160.958 83.665H160.959Z" fill="url(#paint11_linear_123_8171)" stroke="url(#paint12_linear_123_8171)"/>
<path d="M195.983 34.8867C197.216 31.3002 200.214 29.4117 202.816 30.0703L203.067 30.1416L292.314 60.4922V60.4932L292.323 60.4961C293.647 60.9197 294.632 62.0137 295.135 63.4795C295.606 64.8546 295.64 66.5321 295.126 68.1934L295.015 68.5254L295.013 68.5312L249.241 202.717C248.008 206.303 245.01 208.192 242.408 207.533L242.158 207.461L153.031 177.109L153.028 177.108L152.794 177.021C151.64 176.548 150.741 175.499 150.255 174.119C149.769 172.741 149.71 171.065 150.219 169.408L150.332 169.071L195.983 34.8867Z" fill="url(#paint13_linear_123_8171)" stroke="url(#paint14_linear_123_8171)"/>
<path d="M227.677 104.187V104.19C227.677 104.193 227.678 104.2 227.679 104.209C227.681 104.228 227.685 104.259 227.69 104.302C227.702 104.388 227.724 104.522 227.76 104.706C227.832 105.072 227.963 105.635 228.201 106.398C228.678 107.924 229.582 110.253 231.284 113.425H231.283C232.641 115.947 233.914 118.29 234.661 120.542C235.413 122.81 235.651 125.03 234.905 127.307L234.904 127.31C233.608 131.198 229.492 133.271 225.603 132.186L225.227 132.071C223.188 131.391 221.386 130.041 220.41 128.308C220.252 129.273 220.118 130.29 220.065 131.253C220.023 132.043 220.035 132.782 220.13 133.417C220.225 134.056 220.397 134.552 220.643 134.889L221.572 136.167L220.077 135.657L213.683 133.473L212.225 132.975L213.697 132.522C214.098 132.399 214.539 132.107 215.005 131.656C215.467 131.208 215.929 130.63 216.376 129.978C216.931 129.169 217.45 128.265 217.914 127.389C216.205 128.122 214.164 128.158 212.243 127.625L211.737 127.47C207.724 126.132 205.644 121.789 206.977 117.792L207.125 117.379C207.914 115.35 209.359 113.847 211.203 112.586C213.159 111.249 215.602 110.159 218.243 108.994L218.246 108.993L219.426 108.463C222.057 107.246 223.851 106.156 225.011 105.347C225.673 104.885 226.129 104.514 226.416 104.262C226.559 104.136 226.66 104.04 226.724 103.977C226.755 103.946 226.778 103.923 226.792 103.909C226.799 103.902 226.803 103.897 226.806 103.894C226.807 103.893 226.807 103.891 226.808 103.891L227.588 103.025L227.677 104.187Z" fill="url(#paint15_linear_123_8171)" stroke="url(#paint16_linear_123_8171)"/>
</g>
<defs>
<linearGradient id="paint0_linear_123_8171" x1="148" y1="113.514" x2="148" y2="174.243" gradientUnits="userSpaceOnUse">
<stop stop-color="#D9D9D9"/>
<stop offset="1" stop-color="#737373" stop-opacity="0"/>
</linearGradient>
<linearGradient id="paint1_linear_123_8171" x1="12.1572" y1="177.515" x2="153.026" y2="46.9262" gradientUnits="userSpaceOnUse">
<stop offset="0.0552677" stop-color="#141319"/>
<stop offset="0.3235" stop-color="#18171D"/>
<stop offset="0.7271" stop-color="#24242E"/>
<stop offset="1" stop-color="#2C2C38"/>
</linearGradient>
<linearGradient id="paint2_linear_123_8171" x1="75.2024" y1="24.7472" x2="90.501" y2="204.393" gradientUnits="userSpaceOnUse">
<stop stop-color="#4C4C58"/>
<stop offset="1" stop-color="#15141A" stop-opacity="0"/>
</linearGradient>
<linearGradient id="paint3_linear_123_8171" x1="81.5224" y1="98.9596" x2="84.1812" y2="130.181" gradientUnits="userSpaceOnUse">
<stop stop-color="#EDB258"/>
<stop offset="1" stop-color="#E69D2B"/>
</linearGradient>
<linearGradient id="paint4_linear_123_8171" x1="81.5224" y1="98.9596" x2="84.1812" y2="130.181" gradientUnits="userSpaceOnUse">
<stop stop-color="#F5D38C"/>
<stop offset="1" stop-color="#CF7A1D"/>
</linearGradient>
<linearGradient id="paint5_linear_123_8171" x1="81.495" y1="152.251" x2="188.914" y2="46.2878" gradientUnits="userSpaceOnUse">
<stop offset="0.0552677" stop-color="#141319"/>
<stop offset="0.3235" stop-color="#18171D"/>
<stop offset="0.7271" stop-color="#24242E"/>
<stop offset="1" stop-color="#2C2C38"/>
</linearGradient>
<linearGradient id="paint6_linear_123_8171" x1="109.978" y1="13.2396" x2="142.273" y2="170.038" gradientUnits="userSpaceOnUse">
<stop stop-color="#4C4C58"/>
<stop offset="1" stop-color="#15141A" stop-opacity="0"/>
</linearGradient>
<linearGradient id="paint7_linear_123_8171" x1="123.223" y1="76.3749" x2="129.562" y2="107.153" gradientUnits="userSpaceOnUse">
<stop stop-color="#EDB258"/>
<stop offset="1" stop-color="#E69D2B"/>
</linearGradient>
<linearGradient id="paint8_linear_123_8171" x1="123.223" y1="76.3749" x2="129.562" y2="107.153" gradientUnits="userSpaceOnUse">
<stop stop-color="#F5D38C"/>
<stop offset="1" stop-color="#CF7A1D"/>
</linearGradient>
<linearGradient id="paint9_linear_123_8171" x1="113.158" y1="143.614" x2="248.175" y2="51.0069" gradientUnits="userSpaceOnUse">
<stop offset="0.0552677" stop-color="#141319"/>
<stop offset="0.3235" stop-color="#18171D"/>
<stop offset="0.7271" stop-color="#24242E"/>
<stop offset="1" stop-color="#2C2C38"/>
</linearGradient>
<linearGradient id="paint10_linear_123_8171" x1="174.909" y1="7.47119" x2="174.909" y2="174.602" gradientUnits="userSpaceOnUse">
<stop stop-color="#4C4C58"/>
<stop offset="1" stop-color="#15141A" stop-opacity="0"/>
</linearGradient>
<linearGradient id="paint11_linear_123_8171" x1="175.948" y1="76.7012" x2="175.948" y2="103.865" gradientUnits="userSpaceOnUse">
<stop stop-color="#EDB258"/>
<stop offset="1" stop-color="#E69D2B"/>
</linearGradient>
<linearGradient id="paint12_linear_123_8171" x1="175.948" y1="76.7012" x2="175.948" y2="103.865" gradientUnits="userSpaceOnUse">
<stop stop-color="#F5D38C"/>
<stop offset="1" stop-color="#CF7A1D"/>
</linearGradient>
<linearGradient id="paint13_linear_123_8171" x1="149.066" y1="175.027" x2="298.424" y2="60.8238" gradientUnits="userSpaceOnUse">
<stop offset="0.0552677" stop-color="#141319"/>
<stop offset="0.3235" stop-color="#18171D"/>
<stop offset="0.7271" stop-color="#24242E"/>
<stop offset="1" stop-color="#2C2C38"/>
</linearGradient>
<linearGradient id="paint14_linear_123_8171" x1="222.682" y1="29.4375" x2="222.682" y2="208.165" gradientUnits="userSpaceOnUse">
<stop stop-color="#4C4C58"/>
<stop offset="1" stop-color="#15141A" stop-opacity="0"/>
</linearGradient>
<linearGradient id="paint15_linear_123_8171" x1="220.967" y1="104.227" x2="220.967" y2="135.184" gradientUnits="userSpaceOnUse">
<stop stop-color="#EDB258"/>
<stop offset="1" stop-color="#E69D2B"/>
</linearGradient>
<linearGradient id="paint16_linear_123_8171" x1="220.967" y1="104.227" x2="220.967" y2="135.184" gradientUnits="userSpaceOnUse">
<stop stop-color="#F5D38C"/>
<stop offset="1" stop-color="#CF7A1D"/>
</linearGradient>
</defs>
</svg>
