<svg width="69" height="46" viewBox="0 0 69 46" fill="none" xmlns="http://www.w3.org/2000/svg">
<path d="M13.4954 17.1014L9.09021 0.5H5.97888L13.4954 28.8268V39.6373L3.11133 0.5H0L11.9397 45.5H13.4954H15.0501H16.6058V0.5H13.4954V17.1014Z" fill="white"/>
<path d="M68.8699 45.5L56.9301 0.5H55.3745H53.8188H52.2631V45.4991H55.3745L63.5863 37.3132L65.7585 45.4991H68.8699V45.5ZM60.8259 26.9063L55.3754 32.337V6.3627L60.8259 26.9063ZM55.3745 41.1127V36.7206L61.7451 30.373L62.6671 33.8464L55.3745 41.1127Z" fill="white"/>
<path d="M23.1605 0.5H21.6049H20.0492V45.499H23.1605L31.3724 37.3132L33.5446 45.499H36.6559L24.7152 0.5H23.1605ZM28.611 26.9063L23.1605 32.337V6.3627L28.611 26.9063ZM23.1605 41.1127V36.7206L29.5312 30.373L30.4532 33.8464L23.1605 41.1127Z" fill="white"/>
<path d="M49.5722 28.3041L42.1951 0.5H40.6394H39.0837H37.5281V45.499H40.6394V37.1544L43.4975 34.3067L46.4675 45.499L49.5722 45.4764L45.9581 31.855L47.1011 30.7161L49.5722 28.3041ZM40.6394 32.7709V6.3627L46.181 27.2493L40.6394 32.7709Z" fill="white"/>
</svg>
